<svg width="12" height="524" viewBox="0 0 12 524" fill="none" xmlns="http://www.w3.org/2000/svg">
<path d="M7.44318 518.459C6.09652 521.014 6.89786 521.587 5.32053 523.615C6.88319 522.506 8.25253 521.522 9.63786 520.555C10.5152 519.941 10.7579 519.199 10.1299 518.399C9.47652 517.571 8.72985 516.793 7.91385 516.121C6.55519 514.998 5.62719 513.645 5.09652 511.825C5.56585 511.402 5.98985 510.934 6.49519 510.582C7.45652 509.913 8.46052 509.306 9.45119 508.683C10.1405 508.251 10.4979 507.653 10.4272 506.697C8.90852 504.667 7.32318 502.55 5.72185 500.415C6.32585 498.465 7.72719 497.337 9.16986 496.233C9.64319 495.871 10.0339 495.397 10.5472 494.891C8.98186 492.486 5.85919 491.582 5.08586 488.631C6.81253 486.943 8.46852 485.327 10.2445 483.59C8.28452 481.265 5.93252 479.506 4.65919 476.681C5.54985 475.486 6.58053 474.27 7.41653 472.929C8.24986 471.595 9.91919 470.905 10.3459 469.035C8.62052 467.113 6.45786 465.467 5.33386 463.103C6.20853 460.429 8.94585 459.418 10.1792 457.155C8.89386 454.877 5.47385 454.746 4.97652 451.795C6.65119 449.467 9.41918 448.142 10.7579 445.437C8.90052 443.017 6.22719 441.475 4.74185 438.985C5.82319 436.495 8.55786 435.729 9.76853 433.518C8.49253 430.773 5.65119 429.074 5.02852 425.781C5.96586 425.029 6.99519 424.278 7.93253 423.43C8.93519 422.519 10.4032 422.089 10.9712 420.413C9.34853 418.226 7.65385 415.942 5.87519 413.545C6.87785 412.479 7.74453 411.554 8.61786 410.633C9.47653 409.725 10.7912 409.241 11.2845 407.605C9.51786 405.589 6.9872 403.955 6.05253 401.054C7.21653 398.523 10.1952 397.362 11.0832 394.59C9.56719 392.703 7.05253 391.961 6.06987 389.607C7.11253 387.706 9.35652 386.883 10.4245 384.794C8.85919 381.674 5.6752 379.671 4.24986 376.343C5.54186 374.971 6.93519 373.845 8.46319 372.871C10.7325 371.426 10.7899 371.073 8.78453 369.101C7.32853 367.666 5.99786 366.183 5.24719 364.051C6.21386 362.967 7.24186 361.901 8.36186 360.925C10.8779 358.729 12.2445 358.43 8.42452 355.557C7.40852 354.794 6.49253 353.906 6.18186 352.435C6.9792 351.589 7.80986 350.774 8.56052 349.891C9.28986 349.033 10.6099 348.635 10.7032 347.111C9.22453 345.291 6.76053 344.359 5.56319 342.239C5.59653 342.042 5.5752 341.905 5.63253 341.841C6.72453 340.671 7.80719 339.498 8.92452 338.357C10.4245 336.818 10.4299 336.654 8.79653 335.091C8.33653 334.647 7.8312 334.245 7.4032 333.773C6.49254 332.763 5.3832 331.893 4.80187 330.439C5.21387 330.042 5.5552 329.659 5.9512 329.337C7.1872 328.326 8.45786 327.351 9.68985 326.334C10.3805 325.767 10.4032 325.015 9.76586 324.417C9.30186 323.979 8.76853 323.615 8.29653 323.185C6.96053 321.974 5.66987 320.718 4.78453 318.982C6.11787 316.513 8.64587 314.994 9.9352 312.322C8.98453 311.426 8.05519 310.566 7.14319 309.687C6.17519 308.754 4.78186 308.222 4.2472 306.783C5.71386 304.031 8.82052 302.913 10.4565 300.274C10.0179 299.727 9.6792 299.194 9.23387 298.77C7.99787 297.595 6.6952 296.49 5.46587 295.309C4.95787 294.823 4.56586 294.218 4.11253 293.657C5.84853 291.037 11.6645 287.093 9.98986 286.29C9.98986 286.29 8.1352 285.078 7.61787 284.565C6.86453 283.822 5.93786 283.265 5.10986 282.594C4.64586 282.217 4.23253 281.773 3.71653 281.283C5.01787 279.587 6.45787 278.367 8.06987 277.311C8.55787 276.99 8.91919 276.473 9.40586 275.978C7.56586 273.586 4.6592 272.445 3.30187 269.699C5.12987 267.682 6.66719 265.527 9.04186 264.146C11.0659 262.969 11.1272 261.838 9.4632 260.123C9.02053 259.665 8.48986 259.294 8.02319 258.858C6.77386 257.691 5.74186 256.365 4.8432 254.653C6.4352 253.321 7.91386 251.941 9.53919 250.766C11.0939 249.641 11.5032 248.905 9.82319 247.246C8.98719 246.423 8.20587 245.546 7.43787 244.661C6.75521 243.87 6.12321 243.035 5.32054 242.037C6.88321 240.927 8.25254 239.941 9.63787 238.975C10.5152 238.362 10.7579 237.618 10.1299 236.821C9.47653 235.993 8.72987 235.213 7.91387 234.541C6.5552 233.419 5.6272 232.065 5.09653 230.245C5.56587 229.823 5.98986 229.354 6.4952 229.001C7.45653 228.333 8.46054 227.726 9.4512 227.103C10.1405 226.671 10.4979 226.073 10.4272 225.117C8.90853 223.087 7.32319 220.97 5.72186 218.835C6.32586 216.883 7.72721 215.758 9.16987 214.654C9.64321 214.291 10.0339 213.818 10.5472 213.313C8.98187 210.907 5.85921 210.003 5.08587 207.051C6.81254 205.365 8.46853 203.746 10.2445 202.01C8.28453 199.685 5.93253 197.926 4.6592 195.101C5.54986 193.906 6.58054 192.689 7.41654 191.35C8.24987 190.015 9.9192 189.326 10.3459 187.457C8.62053 185.534 6.45787 183.887 5.33387 181.523C6.20854 178.849 8.94587 177.838 10.1792 175.577C8.89387 173.295 5.47387 173.166 4.97653 170.215C6.6512 167.889 9.4192 166.562 10.7579 163.857C8.90053 161.438 6.2272 159.895 4.74186 157.405C5.8232 154.915 8.55787 154.15 9.76854 151.939C8.49254 149.194 5.6512 147.495 5.02854 144.201C5.96587 143.449 6.99521 142.698 7.93254 141.85C8.93521 140.939 10.4032 140.51 10.9712 138.833C9.34854 136.646 7.65387 134.362 5.8752 131.965C6.87787 130.901 7.74454 129.975 8.61787 129.053C9.47654 128.146 10.7912 127.662 11.2845 126.023C9.51787 124.01 6.98721 122.377 6.05254 119.475C7.21654 116.943 10.1952 115.783 11.0832 113.01C9.56721 111.125 7.05254 110.381 6.06988 108.029C7.11254 106.126 9.35653 105.303 10.4245 103.215C8.8592 100.095 5.67521 98.0926 4.24988 94.7633C5.54188 93.3913 6.93521 92.2659 8.46321 91.2913C10.7325 89.8459 10.7899 89.4939 8.78454 87.5206C7.32854 86.0873 5.99787 84.6046 5.24721 82.4713C6.21387 81.3873 7.24187 80.3206 8.36187 79.3446C10.8779 77.1499 12.2445 76.8499 8.42453 73.9766C7.40853 73.2153 6.49254 72.3259 6.18188 70.8553C6.97921 70.0086 7.80987 69.1953 8.56054 68.3126C9.28987 67.4526 10.6099 67.0553 10.7032 65.5326C9.22455 63.7126 6.76054 62.7793 5.56321 60.6593C5.59654 60.4619 5.57521 60.3259 5.63254 60.2619C6.72454 59.0926 7.8072 57.9193 8.92453 56.7766C10.4245 55.2379 10.4299 55.0739 8.79654 53.5113C8.33654 53.0673 7.83121 52.6646 7.40321 52.1939C6.49255 51.1833 5.38321 50.3126 4.80188 48.8606C5.21388 48.4633 5.55521 48.0779 5.95121 47.7579C7.18721 46.7446 8.45787 45.7713 9.68987 44.7553C10.3805 44.1873 10.4032 43.4366 9.76588 42.8366C9.30188 42.3993 8.76854 42.0366 8.29654 41.6059C6.96054 40.3939 5.66988 39.1393 4.78455 37.4019C6.11788 34.9339 8.64588 33.4139 9.93521 30.7419C8.98455 29.8459 8.05521 28.9873 7.14321 28.1073C6.17521 27.1739 4.78188 26.6419 4.24721 25.2033C5.71388 22.4526 8.82054 21.3326 10.4565 18.6939C10.0179 18.1486 9.67921 17.6153 9.23388 17.1899C7.99788 16.0166 6.69521 14.9099 5.46588 13.7286C4.95788 13.2433 4.56587 12.6393 4.11254 12.0779C5.84854 9.45795 8.5032 7.79395 9.98987 4.71128C7.55787 3.03795 5.37521 1.52728 3.17654 0.0419438C3.04187 -0.0500562 2.78454 0.0365981 2.34854 0.0459314C2.29388 0.464598 2.0232 1.13126 2.22187 1.3286C3.11787 2.22726 4.15121 2.99128 5.12988 3.81128C5.58854 4.19661 6.03388 4.59927 6.50055 5.00594C4.76055 7.25661 2.49254 8.81261 1.17921 11.3219C1.72454 14.6686 5.25254 15.9553 6.71121 18.8099C5.10187 20.2113 3.55521 21.5086 2.06588 22.8686C0.843211 23.9833 0.697883 24.9313 1.63788 26.2126C2.32588 27.1486 3.20321 27.9433 3.99788 28.8006C4.77121 29.6353 5.82054 30.2633 6.13254 31.6579C5.22721 32.5486 4.33921 33.4539 3.41388 34.3233C1.38854 36.2366 1.33387 36.7179 3.02854 38.7739C3.97654 39.9259 4.94054 41.0673 5.89387 42.2166C6.2712 42.6699 6.63522 43.1353 7.10455 43.7193C4.98188 45.4699 3.02855 47.0859 1.10188 48.6766C1.03921 50.2646 2.14054 51.0099 3.12987 51.8006L3.19109 51.8494C4.48917 52.8835 5.77958 53.9115 6.82055 55.2846C6.09388 56.8139 4.74188 57.5353 3.63254 58.4913C3.09121 58.9566 2.56722 59.4406 2.10455 59.8553C2.97655 62.8953 6.46587 63.4393 7.48987 66.1326C5.95387 68.3166 3.69254 69.5793 1.79387 71.1419C2.17654 74.1526 5.18188 74.9713 6.51788 77.2046C5.92454 77.8339 5.45388 78.3979 4.91654 78.8846C3.73388 79.9619 2.49787 80.9793 1.3232 82.0619C0.689866 82.6433 0.596546 83.3819 1.06988 84.0739C1.48875 84.683 1.99778 85.2323 2.50178 85.7762L2.50587 85.7806C3.5032 86.8619 4.52053 87.9219 5.64053 89.1033C4.83387 89.9886 4.10987 90.7606 3.41387 91.5539C2.71387 92.3499 2.03921 93.1673 1.21921 94.1366C1.51788 94.8526 1.70853 95.7113 2.18987 96.3513C3.0152 97.4486 3.97921 98.4566 4.97121 99.4153C5.80188 100.217 6.64054 100.975 7.19787 102.05C6.58587 102.733 6.14854 103.343 5.59387 103.819C4.7032 104.581 3.76854 105.298 2.79654 105.953C1.43521 106.87 1.4432 108.253 2.5752 109.501C3.1352 110.122 3.9512 110.501 4.58853 111.061C5.44053 111.806 6.58854 112.253 7.14587 113.461C5.8232 114.627 4.50987 115.702 3.29387 116.878C2.08854 118.043 1.9632 119.293 2.99253 120.573C4.05253 121.895 5.2872 123.077 6.42186 124.342C6.82853 124.797 7.16187 125.315 7.64587 125.958C5.83387 127.97 3.74187 129.446 1.79387 131.234C2.46587 134.594 5.5392 136.314 7.1072 139.134C5.49253 141.411 2.83386 142.59 1.15653 144.613C1.50853 147.767 4.67921 148.605 6.00321 150.906C4.54188 153.394 1.82587 154.294 0.0418652 156.071C-0.116802 157.146 0.301875 157.89 0.935208 158.486C1.86454 159.357 2.79387 160.253 3.84587 160.959C4.92187 161.685 5.70854 162.607 6.70054 163.698C4.46587 165.641 2.40054 167.437 0.419208 169.162C0.919208 172.601 4.07787 173.694 5.6792 175.957C4.90053 178.205 2.89388 179.461 1.66988 181.242C2.55787 184.309 5.8312 185.313 7.1072 188.097C4.98986 190.229 2.9032 192.329 0.859197 194.387C0.875197 195.842 1.48987 196.878 2.59387 197.689C4.14587 198.829 5.21386 200.377 6.33919 202.091C4.66986 203.503 3.13787 204.798 1.65121 206.053C1.59121 209.679 5.1072 210.794 6.53387 213.362C5.3672 215.347 3.40853 216.567 1.95786 218.335C2.87253 220.911 5.1512 222.545 6.5672 224.941C6.10987 225.331 5.73653 225.687 5.32586 225.985C4.4632 226.606 3.52053 227.133 2.7112 227.817C0.757864 229.463 0.711203 230.179 2.41654 231.967C3.51787 233.123 4.70053 234.205 5.8432 235.321C6.36986 235.83 6.8912 236.342 7.4432 236.881C6.09653 239.435 3.35119 240.413 1.77386 242.443C1.92719 243.79 2.58586 244.731 3.52319 245.495C4.43253 246.234 5.3832 246.922 6.28187 247.673C6.73387 248.053 7.1152 248.523 7.6352 249.062C5.8832 250.281 4.30452 251.363 2.73919 252.465C1.47386 253.355 1.30186 254.155 2.26053 255.375C3.17653 256.542 4.21387 257.615 5.19787 258.727C5.95653 259.586 6.71653 260.442 7.58053 261.421C6.8752 262.057 6.3432 262.55 5.80187 263.027C4.20054 264.438 2.56586 265.807 1.00586 267.261C-0.130142 268.315 -0.323472 269.163 0.525861 270.355C1.56719 271.821 2.83919 273.125 4.00853 274.497C4.40319 274.962 4.7912 275.43 5.32853 276.066C4.20053 277.093 3.20052 278.029 2.17252 278.935C0.457857 280.445 0.399198 280.897 1.91386 282.543C2.55786 283.245 3.3232 283.83 4.02054 284.482C4.4632 284.894 4.8832 285.33 5.3832 285.829L6.50053 286.586C4.76053 288.837 2.49253 290.393 1.1792 292.901C1.72453 296.247 5.25253 297.534 6.71119 300.39C5.10186 301.79 3.5552 303.089 2.06587 304.449C0.843199 305.562 0.697871 306.511 1.63787 307.791C2.32587 308.729 3.2032 309.523 3.99786 310.381C4.7712 311.215 5.82053 311.843 6.13253 313.237C5.2272 314.127 4.3392 315.034 3.41386 315.902C1.38853 317.817 1.33386 318.298 3.02853 320.354C3.97653 321.505 4.94053 322.647 5.89386 323.795C6.27119 324.25 6.6352 324.717 7.10454 325.299C4.98187 327.05 3.02853 328.666 1.10187 330.255C1.0392 331.843 2.14053 332.59 3.12986 333.381L3.19094 333.429C4.48907 334.463 5.77953 335.491 6.82054 336.865C6.09387 338.393 4.74186 339.114 3.63253 340.07C3.0912 340.537 2.5672 341.021 2.10454 341.435C2.97654 344.475 6.46585 345.018 7.48985 347.711C5.95385 349.895 3.69252 351.159 1.79386 352.721C2.17652 355.731 5.18187 356.55 6.51787 358.783C5.92453 359.414 5.45386 359.977 4.91653 360.465C3.73386 361.542 2.49785 362.559 1.32319 363.641C0.689854 364.223 0.596534 364.961 1.06987 365.654C1.48987 366.263 2.00052 366.815 2.50585 367.361C3.50319 368.441 4.52052 369.501 5.64052 370.682C4.83385 371.567 4.10986 372.339 3.41386 373.133C2.71386 373.93 2.0392 374.747 1.2192 375.717C1.51787 376.433 1.70852 377.291 2.18985 377.93C3.01519 379.029 3.9792 380.037 4.9712 380.995C5.80187 381.797 6.64053 382.554 7.19786 383.63C6.58586 384.313 6.14852 384.923 5.59386 385.398C4.70319 386.161 3.76853 386.878 2.79653 387.531C1.43519 388.45 1.44319 389.831 2.57519 391.081C3.13519 391.701 3.95118 392.081 4.58852 392.641C5.44052 393.385 6.58853 393.833 7.14586 395.041C5.82319 396.207 4.50986 397.281 3.29386 398.458C2.08852 399.622 1.96319 400.873 2.99252 402.153C4.05252 403.474 5.28718 404.657 6.42185 405.922C6.82852 406.375 7.16186 406.895 7.64586 407.537C5.83386 409.55 3.74186 411.026 1.79386 412.813C2.46586 416.174 5.53919 417.893 7.10719 420.714C5.49252 422.99 2.83385 424.169 1.15652 426.193C1.50852 429.346 4.6792 430.183 6.0032 432.485C4.54186 434.974 1.82585 435.873 0.0418529 437.651C-0.116814 438.723 0.301862 439.47 0.935196 440.066C1.86453 440.937 2.79386 441.831 3.84586 442.541C4.92186 443.265 5.70853 444.186 6.70053 445.277C4.71454 447.003 2.86231 448.615 1.08391 450.162L0.419196 450.741C0.919196 454.181 4.07786 455.274 5.67919 457.535C4.90052 459.785 2.89386 461.041 1.66986 462.822C2.55786 465.889 5.83118 466.891 7.10718 469.675C4.98985 471.809 2.90318 473.907 0.859185 475.967C0.875185 477.421 1.48985 478.457 2.59385 479.27C4.14585 480.41 5.21385 481.957 6.33918 483.67C4.66985 485.085 3.13786 486.379 1.65119 487.634C1.59119 491.259 5.10719 492.374 6.53386 494.941C5.36719 496.926 3.40852 498.147 1.95785 499.915C2.87252 502.491 5.15119 504.123 6.56719 506.519C6.10986 506.91 5.73652 507.267 5.32585 507.563C4.46318 508.186 3.52052 508.713 2.71119 509.397C0.757852 511.043 0.711191 511.759 2.41652 513.549C3.51786 514.705 4.70052 515.785 5.84318 516.899C6.36985 517.41 6.89118 517.921 7.44318 518.459Z" fill="#C084FC"/>
</svg>
