<svg width="49" height="37" viewBox="0 0 49 37" fill="none" xmlns="http://www.w3.org/2000/svg">
<g opacity="0.3">
<g opacity="0.5" clip-path="url(#clip0_214_104)">
<path d="M46.3623 1.96095L3.19757 3.92206L2.62422 34.4884L45.789 32.5273L46.3623 1.96095Z" fill="white"/>
<path d="M3.05343 7.57785C3.12902 7.57442 3.43392 7.47559 4.03616 7.5332C4.71785 7.59842 6.22013 7.9697 6.96995 8.16822C7.49752 8.3079 7.79789 8.32268 7.94547 8.50806C8.09305 8.69343 8.01523 8.76505 7.63948 8.71404C7.1081 8.6419 6.50698 8.64996 5.9044 8.60079C5.14743 8.53902 4.54953 8.56606 4.01453 8.68665C3.71189 8.75487 3.63295 8.89607 3.48176 8.90293L3.39895 9.29085L3.32336 9.29429" fill="white"/>
<path d="M8.22603 13.6816L2.40521 13.946L2.30064 19.521L8.12146 19.2566L8.22603 13.6816Z" fill="white"/>
<path d="M48.0254 1.88535L38.2736 2.3284L38.0464 14.4396L47.7982 13.9965L48.0254 1.88535Z" fill="white"/>
<path d="M7.95933 23.8729L0.853394 24.1958L0.723577 31.1165L7.82951 30.7936L7.95933 23.8729Z" fill="white"/>
<path d="M7.51681 19.2841L1.5448 19.5554L1.44023 25.1304L7.41223 24.8591L7.51681 19.2841Z" fill="white"/>
<path d="M47.7013 7.08618L41.9561 7.34721L41.9164 9.46186L47.6616 9.20084L47.7013 7.08618Z" fill="white"/>
<path d="M47.3845 7.86888L43.6048 8.0406L43.511 13.0389L47.2908 12.8672L47.3845 7.86888Z" fill="white"/>
<path d="M47.2801 13.4439L43.1979 13.6293L43.0898 19.3966L47.1719 19.2111L47.2801 13.4439Z" fill="white"/>
<path d="M5.6877 24.1691L2.43732 24.3168L2.31111 31.0448L5.5615 30.8971L5.6877 24.1691Z" fill="white"/>
<path d="M6.01906 30.6847L1.71014 30.8804L1.65605 33.7641L5.96497 33.5683L6.01906 30.6847Z" fill="white"/>
<path d="M4.05691 30.5817L1.26007 30.7088L1.18074 34.9379L3.97759 34.8108L4.05691 30.5817Z" fill="white"/>
</g>
<g opacity="0.5" clip-path="url(#clip1_214_104)">
<path d="M45.1138 36.1079L5.72644 32.0597L5.73579 1.50602L45.1231 5.55422L45.1138 36.1079Z" fill="white"/>
<path d="M5.65852 28.4018C5.7275 28.4089 6.00424 28.5223 6.55525 28.4939C7.17896 28.4618 8.55744 28.1637 9.24569 28.0018C9.72995 27.8878 10.0045 27.8876 10.1425 27.7096C10.2806 27.5316 10.2107 27.4564 9.86668 27.4891C9.38012 27.5354 8.83127 27.4983 8.2801 27.5182C7.58769 27.5432 7.04211 27.4873 6.55561 27.341C6.2804 27.2582 6.21077 27.1133 6.07281 27.0992L6.00395 26.7078L5.93497 26.7007" fill="white"/>
<path d="M10.489 22.5565L5.17761 22.0106L5.17932 16.4379L10.4907 16.9838L10.489 22.5565Z" fill="white"/>
<path d="M46.6313 36.2639L37.733 35.3493L37.7367 23.2431L46.635 24.1577L46.6313 36.2639Z" fill="white"/>
<path d="M10.4233 12.3651L3.93927 11.6987L3.94139 4.78089L10.4255 5.44732L10.4233 12.3651Z" fill="white"/>
<path d="M9.93901 16.9271L4.48962 16.367L4.49133 10.7944L9.94071 11.3544L9.93901 16.9271Z" fill="white"/>
<path d="M46.4262 31.0543L41.1838 30.5154L41.1844 28.4017L46.4269 28.9405L46.4262 31.0543Z" fill="white"/>
<path d="M46.1504 30.2573L42.7014 29.9028L42.7029 24.9066L46.1519 25.2611L46.1504 30.2573Z" fill="white"/>
<path d="M46.1519 24.6846L42.427 24.3017L42.4288 18.5369L46.1537 18.9197L46.1519 24.6846Z" fill="white"/>
<path d="M8.35357 11.96L5.38763 11.6551L5.38969 4.92991L8.35563 5.23474L8.35357 11.96Z" fill="white"/>
<path d="M8.76979 5.46903L4.83795 5.06492L4.83883 2.1825L8.77067 2.58662L8.76979 5.46903Z" fill="white"/>
<path d="M6.97597 5.47687L4.42389 5.21457L4.42518 0.987278L6.97727 1.24958L6.97597 5.47687Z" fill="white"/>
</g>
</g>
<defs>
<clipPath id="clip0_214_104">
<rect width="46.8542" height="30.9548" fill="white" transform="matrix(0.9987 -0.0453741 -0.0187553 0.999872 1.23218 4.01134)"/>
</clipPath>
<clipPath id="clip1_214_104">
<rect width="42.9066" height="30.94" fill="white" transform="matrix(0.995145 0.10228 0.000305893 -0.999936 3.93298 31.8754)"/>
</clipPath>
</defs>
</svg>
