<svg width="170" height="66" viewBox="0 0 170 66" fill="none" xmlns="http://www.w3.org/2000/svg">
<g opacity="0.5" clip-path="url(#clip0)">
<path d="M159.388 0.797468L6.9397 7.4144L8.34582 62.226L160.794 55.6091L159.388 0.797468Z" fill="#FAB005"/>
<path d="M6.84207 13.9753C7.10906 13.9638 8.17635 13.7648 10.3129 13.8247C12.7312 13.8925 18.0863 14.4498 20.7606 14.7517C22.6423 14.964 23.7063 14.9689 24.2491 15.2905C24.7919 15.612 24.5247 15.7459 23.19 15.6815C21.3025 15.5905 19.1773 15.6481 17.0405 15.6034C14.3563 15.5471 12.2446 15.6385 10.3659 15.8931C9.30319 16.037 9.03985 16.2957 8.50588 16.3189L8.25659 17.0199L7.9896 17.0315" fill="#FAB005"/>
<path d="M25.8229 24.5405L5.26514 25.4328L5.5216 35.4299L26.0794 34.5376L25.8229 24.5405Z" fill="#FAB005"/>
<path d="M165.263 0.542398L130.822 2.03729L131.379 23.7551L165.82 22.2602L165.263 0.542398Z" fill="#FAB005"/>
<path d="M26.0248 42.8232L0.928223 43.9125L1.24659 56.3227L26.3431 55.2334L26.0248 42.8232Z" fill="#FAB005"/>
<path d="M23.9438 34.6303L2.85205 35.5458L3.10851 45.5429L24.2003 44.6274L23.9438 34.6303Z" fill="#FAB005"/>
<path d="M164.701 9.88485L144.41 10.7656L144.507 14.5576L164.798 13.6769L164.701 9.88485Z" fill="#FAB005"/>
<path d="M163.669 11.3101L150.319 11.8895L150.549 20.8524L163.899 20.273L163.669 11.3101Z" fill="#FAB005"/>
<path d="M163.925 21.3072L149.508 21.933L149.773 32.2748L164.19 31.649L163.925 21.3072Z" fill="#FAB005"/>
<path d="M18.0233 43.5151L6.5437 44.0133L6.85321 56.078L18.3328 55.5798L18.0233 43.5151Z" fill="#FAB005"/>
<path d="M19.9266 55.1662L4.7085 55.8267L4.84115 60.9976L20.0593 60.3371L19.9266 55.1662Z" fill="#FAB005"/>
<path d="M12.976 55.1227L3.09814 55.5515L3.29269 63.135L13.1705 62.7063L12.976 55.1227Z" fill="#FAB005"/>
</g>
<g opacity="0.5" clip-path="url(#clip1)">
<path d="M162.11 65.6254L9.75903 55.9103L11.75 1.1311L164.101 10.8461L162.11 65.6254Z" fill="#FAB005"/>
<path d="M9.73366 49.348C10.0005 49.365 11.0655 49.5857 13.2022 49.5692C15.6209 49.5505 20.981 49.1021 23.6581 48.8546C25.5417 48.6805 26.6056 48.6972 27.1517 48.3867C27.6979 48.0763 27.4321 47.9369 26.097 47.9742C24.2088 48.0269 22.0846 47.926 19.9477 47.9274C17.2633 47.9291 15.153 47.7947 13.2774 47.502C12.2164 47.3364 11.9558 47.0724 11.4222 47.0384L11.1804 46.3323L10.9136 46.3153" fill="#FAB005"/>
<path d="M28.8242 39.1694L8.27954 37.8593L8.64268 27.8681L29.1874 29.1782L28.8242 39.1694Z" fill="#FAB005"/>
<path d="M167.984 65.9999L133.565 63.8051L134.354 42.1001L168.773 44.2949L167.984 65.9999Z" fill="#FAB005"/>
<path d="M29.2212 20.8918L4.14062 19.2925L4.59141 6.88965L29.672 8.48898L29.2212 20.8918Z" fill="#FAB005"/>
<path d="M27.0529 29.042L5.97461 27.6979L6.33774 17.7067L27.4161 19.0508L27.0529 29.042Z" fill="#FAB005"/>
<path d="M167.522 56.6467L147.244 55.3537L147.382 51.5639L167.659 52.857L167.522 56.6467Z" fill="#FAB005"/>
<path d="M166.504 55.2007L153.164 54.35L153.489 45.3924L166.83 46.2431L166.504 55.2007Z" fill="#FAB005"/>
<path d="M166.867 45.2094L152.459 44.2906L152.835 33.9549L167.243 34.8737L166.867 45.2094Z" fill="#FAB005"/>
<path d="M21.2284 20.0376L9.7561 19.306L10.1943 7.24846L21.6666 7.98002L21.2284 20.0376Z" fill="#FAB005"/>
<path d="M23.2558 8.42583L8.04736 7.45602L8.23519 2.28818L23.4436 3.25798L23.2558 8.42583Z" fill="#FAB005"/>
<path d="M16.3053 8.32803L6.43384 7.69855L6.7093 0.119499L16.5808 0.748981L16.3053 8.32803Z" fill="#FAB005"/>
</g>
<defs>
<clipPath id="clip0">
<rect width="165.419" height="55.5193" fill="white" transform="matrix(0.999059 -0.0433636 0.0256453 0.999671 0 7.71558)"/>
</clipPath>
<clipPath id="clip1">
<rect width="165.493" height="55.5049" fill="white" transform="matrix(0.997973 0.0636383 0.0363217 -0.99934 2.82593 55.4682)"/>
</clipPath>
</defs>
</svg>
