<svg width="209" height="12" viewBox="0 0 209 12" fill="none" xmlns="http://www.w3.org/2000/svg">
<path fill-rule="evenodd" clip-rule="evenodd" d="M97.0597 11.7093C96.7944 11.316 96.453 11.0333 96.497 10.8333C96.6704 10.0253 96.7944 9.12665 97.2397 8.46665C98.9504 5.92798 100.776 3.46659 102.564 0.979928C102.686 0.810595 102.837 0.661267 102.989 0.5186C103.468 0.0692668 104.388 0.301259 104.51 0.943926C104.605 1.44526 104.686 2.01863 104.53 2.47863C104.3 3.16529 103.932 3.83593 103.489 4.41326C101.814 6.58659 100.101 8.73193 98.357 10.8519C98.0597 11.2133 97.545 11.396 97.0597 11.7093" fill="#7950F2"/>
<path fill-rule="evenodd" clip-rule="evenodd" d="M90.6263 11.3947C90.213 10.864 89.8383 10.516 89.649 10.084C89.5517 9.86131 89.7183 9.44929 89.8797 9.19862C91.473 6.71463 93.0783 4.23864 94.7117 1.77864C94.9317 1.45064 95.281 1.13065 95.6423 0.986646C96.189 0.771979 96.8103 0.30393 97.3917 0.869263C97.9477 1.40793 97.761 2.06529 97.3917 2.60129C95.6063 5.21063 93.801 7.80664 91.9583 10.3786C91.6823 10.764 91.1757 10.9867 90.6263 11.3947Z" fill="#7950F2"/>
<path fill-rule="evenodd" clip-rule="evenodd" d="M172.506 11.2559C171.15 10.9333 172.285 9.56925 172.557 9.19058C174.528 6.43191 176.581 3.73194 178.658 1.05328C178.862 0.789277 179.41 0.629272 179.761 0.681272C180.393 0.773272 180.572 1.3906 180.468 1.90927C180.328 2.6146 180.166 3.41724 179.732 3.9439C177.848 6.23724 175.869 8.45189 173.898 10.6692C173.712 10.8786 173.429 11.5319 172.506 11.2559" fill="#7950F2"/>
<path fill-rule="evenodd" clip-rule="evenodd" d="M0.246318 11.9093C0.146318 11.448 -0.0496834 11.0466 0.01165 10.6893C0.0809833 10.296 0.355647 9.92127 0.591647 9.57193C2.44231 6.83593 4.30499 4.10797 6.16766 1.37864C6.34632 1.11464 6.54633 0.862646 6.75433 0.61998C7.12899 0.18398 7.61832 -0.0814007 8.15299 0.205266C8.71966 0.510599 8.72365 1.10799 8.44899 1.59732C7.72099 2.89599 6.95566 4.17596 6.15433 5.43463C5.18233 6.95863 4.14365 8.44132 3.16232 9.95865C2.50098 10.9813 1.69565 11.7506 0.246318 11.9093" fill="#7950F2"/>
<path fill-rule="evenodd" clip-rule="evenodd" d="M76.2383 11.4079C75.6917 10.4452 75.7597 9.49857 76.349 8.66924C78.1983 6.07324 80.0903 3.50526 81.9997 0.951923C82.325 0.517257 82.8477 0.309262 83.4157 0.590595C83.9637 0.863928 84.1983 1.65063 83.801 2.25596C81.9383 5.10129 80.0504 7.93062 78.1397 10.7453C77.697 11.3973 77.057 11.7279 76.2383 11.4079Z" fill="#7950F2"/>
<path fill-rule="evenodd" clip-rule="evenodd" d="M69.157 10.1586C69.2023 10.0146 69.2344 9.67198 69.4024 9.41998C71.1504 6.75198 72.9104 4.09064 74.7024 1.45331C74.9264 1.12398 75.3357 0.87197 75.713 0.71197C75.965 0.606636 76.3863 0.623964 76.5983 0.773298C76.813 0.925298 76.9477 1.30398 76.9623 1.59198C76.9757 1.89065 76.869 2.24399 76.705 2.49999C74.9784 5.18399 73.241 7.86395 71.469 10.5213C71.2504 10.8506 70.849 11.0866 70.489 11.2879C69.9944 11.5599 69.0837 10.8866 69.157 10.1586Z" fill="#7950F2"/>
<path fill-rule="evenodd" clip-rule="evenodd" d="M165.432 11.6626C164.126 11.4253 164.966 10.3453 165.004 9.97726C165.042 9.58392 165.246 9.15592 165.501 8.84392C167.708 6.15459 169.938 3.4813 172.178 0.819965C172.372 0.589299 172.686 0.462622 172.912 0.309288C173.773 0.445288 174.038 0.99596 173.829 1.68129C173.678 2.16796 173.317 2.60263 172.997 3.01997C171.258 5.2813 169.536 7.55728 167.734 9.76795C167.226 10.3933 166.293 11.8853 165.432 11.6626" fill="#7950F2"/>
<path fill-rule="evenodd" clip-rule="evenodd" d="M187.35 1.77459C187.086 2.35192 186.988 2.78664 186.736 3.09464C184.729 5.55197 182.7 7.98793 180.658 10.4133C180.469 10.6399 180.145 10.7666 179.868 10.9066C179.429 11.128 178.649 10.5999 178.758 10.1293C178.874 9.62927 179 9.08259 179.294 8.68259C180.985 6.38793 182.71 4.11595 184.47 1.87595C184.778 1.48395 185.313 1.03992 185.748 1.03592C186.252 1.02925 186.762 1.48125 187.35 1.77459" fill="#7950F2"/>
<path fill-rule="evenodd" clip-rule="evenodd" d="M151 11.7506C150.265 11.6226 150.768 10.8173 150.92 10.5426C151.43 9.61731 152.036 8.73861 152.653 7.87728C153.769 6.32128 154.85 4.7373 156.074 3.2733C157.02 2.1413 158.136 1.14663 159.245 0.167966C159.456 -0.0187003 160.018 0.0772711 160.357 0.205271C160.484 0.253271 160.534 0.790649 160.452 1.05065C160.326 1.44265 160.092 1.81865 159.834 2.14798C157.938 4.57865 156.028 6.99598 154.116 9.41465C153.33 10.4093 152.877 12.568 151 11.7506" fill="#7950F2"/>
<path fill-rule="evenodd" clip-rule="evenodd" d="M63.1103 2.05727C63.049 2.20794 62.949 2.63329 62.7223 2.97329C61.0237 5.52262 59.3023 8.05464 57.581 10.5893C57.4637 10.7613 57.325 10.9906 57.1543 11.0413C56.781 11.1479 56.289 11.3173 56.0157 11.1626C55.7343 11.0053 55.6183 10.5 55.5103 10.1226C55.4637 9.9533 55.5703 9.69998 55.6797 9.53064C57.4463 6.77864 59.2157 4.02664 61.0157 1.29464C61.169 1.05998 61.521 0.929263 61.8063 0.813263C62.349 0.591929 63.2077 1.23994 63.1103 2.05727Z" fill="#7950F2"/>
<path fill-rule="evenodd" clip-rule="evenodd" d="M200.942 1.25459C200.81 1.60792 200.712 2.13325 200.442 2.54658C199.632 3.78792 198.766 4.99327 197.9 6.19593C196.848 7.6546 195.785 9.10928 194.696 10.5426C194.449 10.8679 194.097 11.1306 193.75 11.356C193.612 11.4453 193.293 11.432 193.168 11.3306C192.942 11.148 192.612 10.8146 192.658 10.6266C192.858 9.81726 193.009 8.91458 193.484 8.27458C195.369 5.72391 197.352 3.24792 199.352 0.787924C199.541 0.555924 200.097 0.581249 200.482 0.579916C200.596 0.579916 200.709 0.899924 200.942 1.25459" fill="#7950F2"/>
<path fill-rule="evenodd" clip-rule="evenodd" d="M144.07 11.4733C144.318 10.0533 144.974 9.08266 145.665 8.16666C147.32 5.96666 149.032 3.8066 150.742 1.64661C151.068 1.23727 151.445 0.821298 151.89 0.573298C152.184 0.410631 152.78 0.397313 152.986 0.589313C153.228 0.813313 153.356 1.39331 153.24 1.71464C153.028 2.29331 152.642 2.82928 152.254 3.32395C150.417 5.65195 148.564 7.97059 146.692 10.2693C146.108 10.9879 145.525 11.796 144.07 11.4733" fill="#7950F2"/>
<path fill-rule="evenodd" clip-rule="evenodd" d="M111.42 1.58668C111.241 2.10402 111.181 2.54531 110.956 2.87731C109.305 5.33064 107.632 7.77336 105.933 10.1947C105.638 10.6107 105.229 11.0187 104.778 11.2293C104.49 11.3667 103.974 11.2253 103.666 11.0347C103.484 10.9227 103.394 10.4467 103.465 10.1867C103.568 9.79468 103.832 9.43865 104.056 9.08531C105.693 6.49865 107.337 3.9173 108.988 1.33864C109.098 1.16397 109.238 0.937349 109.41 0.886683C109.788 0.777349 110.237 0.637349 110.573 0.753349C110.901 0.865349 111.126 1.28135 111.42 1.58668Z" fill="#7950F2"/>
<path fill-rule="evenodd" clip-rule="evenodd" d="M20.6437 0.518639C22.0984 0.942639 22.3997 1.27863 21.9984 2.07463C21.5717 2.92129 21.0837 3.74535 20.5544 4.53335C19.377 6.28802 18.1957 8.04396 16.9344 9.73863C16.4424 10.3973 15.753 10.9267 15.0917 11.4334C14.9397 11.5494 14.4557 11.4106 14.257 11.2386C14.0637 11.0706 13.9437 10.6987 13.965 10.432C13.989 10.1387 14.1757 9.83597 14.3517 9.58264C16.4477 6.54797 18.5584 3.51864 20.6437 0.518639" fill="#7950F2"/>
<path fill-rule="evenodd" clip-rule="evenodd" d="M42.557 10.9413C42.2423 10.3066 41.7503 9.77333 41.8623 9.45333C42.1743 8.57466 42.6997 7.75731 43.217 6.96798C44.257 5.37598 45.317 3.79601 46.4383 2.26401C46.7943 1.77601 47.325 1.3533 47.8663 1.0933C48.1383 0.96397 48.729 1.16396 48.9703 1.41329C49.2063 1.65462 49.3503 2.21866 49.2317 2.51733C49.0023 3.09333 48.5623 3.58662 48.2023 4.10795C46.8837 6.02662 45.597 7.96928 44.2157 9.84128C43.885 10.2893 43.2383 10.504 42.557 10.9413Z" fill="#7950F2"/>
<path fill-rule="evenodd" clip-rule="evenodd" d="M69.137 0.510646C70.1304 1.56665 70.1957 2.61865 69.5823 3.54398C67.8823 6.10531 66.065 8.592 64.285 11.1013C64.169 11.2627 63.9637 11.4453 63.7864 11.46C63.3957 11.4933 62.957 11.5147 62.6183 11.3614C62.4477 11.2827 62.349 10.7934 62.405 10.528C62.4904 10.1294 62.7023 9.73732 62.9277 9.38799C64.4743 6.97466 66.0183 4.56132 67.6103 2.17998C67.9997 1.59732 68.5624 1.13065 69.137 0.510646" fill="#7950F2"/>
<path fill-rule="evenodd" clip-rule="evenodd" d="M117.69 0.401252C117.862 0.763919 118.204 1.13728 118.161 1.46128C118.068 2.18261 117.936 2.97728 117.55 3.56662C115.922 6.05728 114.197 8.48261 112.501 10.9279C112.382 11.0999 112.236 11.3106 112.058 11.3666C111.673 11.4906 111.184 11.6852 110.885 11.5439C110.621 11.4159 110.446 10.8693 110.444 10.5066C110.441 10.1066 110.594 9.6439 110.828 9.3159C112.864 6.4639 114.929 3.63055 117 0.802554C117.112 0.650554 117.352 0.591919 117.69 0.401252" fill="#7950F2"/>
<path fill-rule="evenodd" clip-rule="evenodd" d="M199.833 11.5507C199.638 11.236 199.346 10.9427 199.285 10.6093C199.234 10.3413 199.398 9.97598 199.577 9.73464C201.78 6.75198 203.996 3.78134 206.237 0.828004C206.4 0.61467 206.778 0.530634 207.074 0.4573C207.536 0.342634 208.173 0.998613 208.054 1.43595C208 1.63728 207.97 1.86797 207.85 2.02397C205.538 5.05863 203.221 8.09068 200.874 11.1C200.709 11.312 200.317 11.3507 199.833 11.5507" fill="#7950F2"/>
<path fill-rule="evenodd" clip-rule="evenodd" d="M166.554 1.33333C166.669 2.34133 166.181 3.16533 165.594 3.92533C163.841 6.19999 162.061 8.45464 160.282 10.7093C160.156 10.8706 159.969 11.0666 159.792 11.088C159.402 11.1346 158.958 11.1746 158.621 11.0293C158.42 10.9426 158.237 10.464 158.289 10.212C158.396 9.70931 158.573 9.16661 158.888 8.77194C160.88 6.27594 162.914 3.81462 164.942 1.34662C165.445 0.734615 165.985 0.676001 166.554 1.33333Z" fill="#7950F2"/>
<path fill-rule="evenodd" clip-rule="evenodd" d="M185.668 10.0733C187.886 7.22532 190.094 4.37197 192.346 1.55464C192.721 1.08397 193.212 0.559984 193.962 0.901317C194.482 1.13732 194.504 1.992 193.88 2.856C192.017 5.44134 190.144 8.01998 188.186 10.532C187.533 11.372 184.793 11.628 185.668 10.0733" fill="#7950F2"/>
<path fill-rule="evenodd" clip-rule="evenodd" d="M90.8531 1.51322C90.5731 2.17322 90.3877 2.90927 89.9891 3.49994C88.3797 5.88394 86.7117 8.22658 85.0544 10.5759C84.5357 11.3119 84.0064 11.4892 83.4731 11.1572C82.7384 10.7012 82.533 9.9786 83.0424 9.26127C84.957 6.56927 86.905 3.90123 88.8464 1.22657C88.969 1.0599 89.1197 0.859938 89.3011 0.799938C89.5771 0.706604 89.933 0.619893 90.1757 0.721227C90.421 0.825227 90.5677 1.16255 90.8531 1.51322" fill="#7950F2"/>
<path fill-rule="evenodd" clip-rule="evenodd" d="M145.368 -1.45439e-05C147.552 0.229319 145.75 2.25062 145.57 2.50396C143.554 5.34662 141.541 8.18796 139.493 11.0066C139.073 11.5866 138.584 12.2346 137.688 11.9053C137.013 11.6573 136.953 10.8 137.733 9.73462C140.089 6.51195 142.557 3.37332 145.368 -1.45439e-05" fill="#7950F2"/>
<path fill-rule="evenodd" clip-rule="evenodd" d="M117.62 11.0413C117.537 10.3626 117.354 9.85329 117.454 9.40929C117.566 8.91996 117.892 8.45329 118.205 8.03462C119.845 5.84129 121.509 3.66394 123.17 1.48527C123.525 1.01994 124.052 0.723932 124.49 1.17993C124.789 1.48793 125.046 2.22659 124.881 2.53592C123.34 5.41325 121.558 8.14259 119.249 10.4746C118.933 10.7946 118.313 10.8133 117.62 11.0413" fill="#7950F2"/>
<path fill-rule="evenodd" clip-rule="evenodd" d="M138.384 0.554572C140.52 1.20391 138.024 3.83856 137.648 4.33856C136.125 6.37322 134.58 8.38924 133.01 10.3879C132.693 10.7919 132.272 11.1492 131.829 11.4079C131.617 11.5306 131.169 11.4693 130.964 11.3119C130.756 11.1546 130.568 10.7399 130.629 10.5066C130.76 10.0106 130.997 9.51458 131.297 9.09591C132.84 6.94791 134.385 4.79989 136 2.70522C136.496 2.06256 137.297 0.259906 138.384 0.554572" fill="#7950F2"/>
<path fill-rule="evenodd" clip-rule="evenodd" d="M6.87305 11.2293C7.43171 10.316 7.89304 9.50133 8.41304 8.72666C10.0024 6.36 11.6104 4.00532 13.2184 1.65199C13.5144 1.21999 13.8037 0.763989 14.185 0.418656C14.3637 0.257323 14.8104 0.228008 15.041 0.337341C15.2677 0.448008 15.5224 0.821325 15.501 1.05466C15.453 1.55999 15.3517 2.12804 15.0717 2.53337C13.101 5.40137 11.0904 8.24131 9.06637 11.072C8.59171 11.736 7.96371 12.0533 6.87305 11.2293Z" fill="#7950F2"/>
<path fill-rule="evenodd" clip-rule="evenodd" d="M56.1077 1.69202C55.9637 2.08535 55.8903 2.52002 55.669 2.86136C54.0103 5.42936 52.3277 7.98669 50.6317 10.5334C50.4663 10.7827 50.1823 10.976 49.913 11.1227C49.7583 11.204 49.461 11.2133 49.3343 11.1173C49.105 10.9413 48.865 10.6853 48.7957 10.42C48.725 10.1427 48.7597 9.75468 48.9103 9.51735C50.653 6.75201 52.425 4.00666 54.201 1.26266C54.3103 1.09333 54.4997 0.910667 54.6823 0.870667C54.973 0.808 55.3477 0.758654 55.5797 0.890654C55.8143 1.02399 55.917 1.38402 56.1077 1.69202" fill="#7950F2"/>
<path fill-rule="evenodd" clip-rule="evenodd" d="M28.909 1.46132C28.785 1.76799 28.6944 2.19599 28.4677 2.52799C26.5624 5.31465 24.637 8.08528 22.7103 10.8573C22.5917 11.0279 22.4397 11.2266 22.261 11.2906C21.9837 11.3933 21.605 11.5106 21.3824 11.3986C21.161 11.2853 20.9517 10.8906 20.965 10.6293C20.9824 10.2266 21.117 9.7853 21.3344 9.44263C22.9757 6.8613 24.6237 4.28394 26.3344 1.7466C26.665 1.25194 27.241 0.890636 27.769 0.578636C27.9437 0.47597 28.349 0.669274 28.5944 0.815941C28.737 0.902608 28.7743 1.16665 28.909 1.46132Z" fill="#7950F2"/>
<path fill-rule="evenodd" clip-rule="evenodd" d="M124.485 11.424C123.273 11.0826 124.07 10.2613 124.188 9.85865C124.358 9.27198 124.782 8.74799 125.148 8.23333C126.674 6.08266 128.993 2.95063 130.509 0.837297C131.162 -0.109369 132.778 1.69466 132.137 2.66399C130.336 5.37866 127.748 9.09464 125.245 11.248C125.174 11.3093 125.042 11.3 124.485 11.424Z" fill="#7950F2"/>
<path fill-rule="evenodd" clip-rule="evenodd" d="M28.6477 11.1973C28.3423 10.8027 28.037 10.5813 28.009 10.3293C27.965 9.93329 27.9797 9.42665 28.1943 9.12532C30.093 6.43466 32.0384 3.77595 33.985 1.11862C34.097 0.966616 34.325 0.853312 34.517 0.814645C34.7064 0.777312 34.9743 0.790601 35.1117 0.902601C35.337 1.08527 35.6357 1.36663 35.633 1.60397C35.6304 2.0013 35.501 2.45731 35.2757 2.78131C33.5077 5.30798 31.7237 7.82261 29.897 10.3079C29.6237 10.6799 29.1103 10.8787 28.6477 11.1973" fill="#7950F2"/>
<path fill-rule="evenodd" clip-rule="evenodd" d="M42.4477 2.00002C41.449 4.32135 39.6877 6.18797 38.3423 8.31597C37.8343 9.11863 37.2717 9.89597 36.6277 10.5906C36.4157 10.82 35.8343 10.888 35.497 10.7813C34.8983 10.5947 34.841 10.0306 34.9943 9.47462C35.0517 9.27462 35.153 9.07866 35.273 8.90666C36.9717 6.48266 38.661 4.05467 40.3863 1.65067C40.9157 0.914667 41.3303 1.00002 42.4477 2.00002Z" fill="#7950F2"/>
</svg>
