<svg width="209" height="12" viewBox="0 0 209 12" fill="none" xmlns="http://www.w3.org/2000/svg">
<path fill-rule="evenodd" clip-rule="evenodd" d="M97.0597 11.7093C96.7944 11.316 96.453 11.0333 96.497 10.8333C96.6704 10.0253 96.7944 9.12666 97.2397 8.46666C98.9504 5.928 100.776 3.46661 102.564 0.979943C102.686 0.81061 102.837 0.661282 102.989 0.518615C103.468 0.0692821 104.388 0.301274 104.51 0.943941C104.605 1.44527 104.686 2.01864 104.53 2.47864C104.3 3.16531 103.932 3.83594 103.489 4.41328C101.814 6.58661 100.101 8.73195 98.357 10.8519C98.0597 11.2133 97.545 11.396 97.0597 11.7093" fill="#C084FC"/>
<path fill-rule="evenodd" clip-rule="evenodd" d="M90.6263 11.3947C90.213 10.864 89.8383 10.516 89.649 10.084C89.5517 9.86132 89.7183 9.44931 89.8797 9.19864C91.473 6.71464 93.0783 4.23865 94.7117 1.77865C94.9317 1.45065 95.281 1.13066 95.6423 0.986661C96.189 0.771995 96.8103 0.303945 97.3917 0.869279C97.9477 1.40795 97.761 2.06531 97.3917 2.60131C95.6063 5.21064 93.801 7.80665 91.9583 10.3787C91.6823 10.764 91.1757 10.9867 90.6263 11.3947Z" fill="#C084FC"/>
<path fill-rule="evenodd" clip-rule="evenodd" d="M172.506 11.256C171.15 10.9333 172.285 9.56926 172.557 9.1906C174.528 6.43193 176.581 3.73196 178.658 1.05329C178.862 0.789292 179.41 0.629287 179.761 0.681287C180.393 0.773287 180.572 1.39062 180.468 1.90928C180.328 2.61462 180.166 3.41725 179.732 3.94392C177.848 6.23725 175.869 8.45191 173.898 10.6692C173.712 10.8786 173.429 11.532 172.506 11.256" fill="#C084FC"/>
<path fill-rule="evenodd" clip-rule="evenodd" d="M0.246318 11.9093C0.146318 11.448 -0.0496834 11.0467 0.01165 10.6893C0.0809833 10.296 0.355647 9.92128 0.591647 9.57195C2.44231 6.83595 4.30499 4.10799 6.16766 1.37865C6.34632 1.11465 6.54633 0.862661 6.75433 0.619995C7.12899 0.183995 7.61832 -0.0813854 8.15299 0.205281C8.71966 0.510615 8.72365 1.10801 8.44899 1.59734C7.72099 2.89601 6.95566 4.17598 6.15433 5.43464C5.18233 6.95864 4.14365 8.44133 3.16232 9.95867C2.50098 10.9813 1.69565 11.7507 0.246318 11.9093" fill="#C084FC"/>
<path fill-rule="evenodd" clip-rule="evenodd" d="M76.2383 11.4079C75.6917 10.4453 75.7597 9.49859 76.349 8.66926C78.1983 6.07326 80.0903 3.50527 81.9997 0.951938C82.325 0.517272 82.8477 0.309277 83.4157 0.59061C83.9637 0.863944 84.1983 1.65064 83.801 2.25597C81.9383 5.10131 80.0504 7.93063 78.1397 10.7453C77.697 11.3973 77.057 11.7279 76.2383 11.4079Z" fill="#C084FC"/>
<path fill-rule="evenodd" clip-rule="evenodd" d="M69.157 10.1587C69.2023 10.0147 69.2344 9.67199 69.4024 9.41999C71.1504 6.75199 72.9104 4.09066 74.7024 1.45333C74.9264 1.12399 75.3357 0.871985 75.713 0.711985C75.965 0.606652 76.3863 0.62398 76.5983 0.773313C76.813 0.925313 76.9477 1.304 76.9623 1.592C76.9757 1.89066 76.869 2.24401 76.705 2.50001C74.9784 5.18401 73.241 7.86396 71.469 10.5213C71.2504 10.8506 70.849 11.0866 70.489 11.288C69.9944 11.56 69.0837 10.8867 69.157 10.1587Z" fill="#C084FC"/>
<path fill-rule="evenodd" clip-rule="evenodd" d="M165.432 11.6626C164.126 11.4253 164.966 10.3453 165.004 9.97727C165.042 9.58394 165.246 9.15594 165.501 8.84394C167.708 6.15461 169.938 3.48131 172.178 0.819981C172.372 0.589314 172.686 0.462637 172.912 0.309303C173.773 0.445303 174.038 0.995975 173.829 1.68131C173.678 2.16798 173.317 2.60265 172.997 3.01998C171.258 5.28131 169.536 7.5573 167.734 9.76796C167.226 10.3933 166.293 11.8853 165.432 11.6626" fill="#C084FC"/>
<path fill-rule="evenodd" clip-rule="evenodd" d="M187.35 1.7746C187.086 2.35194 186.988 2.78665 186.736 3.09465C184.729 5.55199 182.7 7.98794 180.658 10.4133C180.469 10.6399 180.145 10.7666 179.868 10.9066C179.429 11.128 178.649 10.6 178.758 10.1293C178.874 9.62929 179 9.08261 179.294 8.68261C180.985 6.38794 182.71 4.11597 184.47 1.87597C184.778 1.48397 185.313 1.03993 185.748 1.03593C186.252 1.02926 186.762 1.48127 187.35 1.7746" fill="#C084FC"/>
<path fill-rule="evenodd" clip-rule="evenodd" d="M151 11.7507C150.265 11.6227 150.768 10.8173 150.92 10.5427C151.43 9.61732 152.036 8.73862 152.653 7.87729C153.769 6.32129 154.85 4.73732 156.074 3.27332C157.02 2.14132 158.136 1.14665 159.245 0.167982C159.456 -0.018685 160.018 0.0772864 160.357 0.205286C160.484 0.253286 160.534 0.790664 160.452 1.05066C160.326 1.44266 160.092 1.81866 159.834 2.14799C157.938 4.57866 156.028 6.99599 154.116 9.41466C153.33 10.4093 152.877 12.568 151 11.7507" fill="#C084FC"/>
<path fill-rule="evenodd" clip-rule="evenodd" d="M63.1103 2.05729C63.049 2.20795 62.949 2.6333 62.7223 2.9733C61.0237 5.52264 59.3023 8.05465 57.581 10.5893C57.4637 10.7613 57.325 10.9906 57.1543 11.0413C56.781 11.1479 56.289 11.3173 56.0157 11.1626C55.7343 11.0053 55.6183 10.5 55.5103 10.1227C55.4637 9.95332 55.5703 9.69999 55.6797 9.53066C57.4463 6.77866 59.2157 4.02666 61.0157 1.29466C61.169 1.05999 61.521 0.929278 61.8063 0.813278C62.349 0.591944 63.2077 1.23995 63.1103 2.05729Z" fill="#C084FC"/>
<path fill-rule="evenodd" clip-rule="evenodd" d="M200.942 1.25461C200.81 1.60794 200.712 2.13326 200.442 2.5466C199.632 3.78793 198.766 4.99328 197.9 6.19595C196.848 7.65461 195.785 9.10929 194.696 10.5426C194.449 10.868 194.097 11.1306 193.75 11.356C193.612 11.4453 193.293 11.432 193.168 11.3306C192.942 11.148 192.612 10.8146 192.658 10.6266C192.858 9.81728 193.009 8.91459 193.484 8.27459C195.369 5.72393 197.352 3.24794 199.352 0.787939C199.541 0.555939 200.097 0.581265 200.482 0.579931C200.596 0.579931 200.709 0.899939 200.942 1.25461" fill="#C084FC"/>
<path fill-rule="evenodd" clip-rule="evenodd" d="M144.07 11.4733C144.318 10.0533 144.974 9.08267 145.665 8.16667C147.32 5.96667 149.032 3.80662 150.742 1.64662C151.068 1.23729 151.445 0.821313 151.89 0.573313C152.184 0.410646 152.78 0.397329 152.986 0.589329C153.228 0.813329 153.356 1.39332 153.24 1.71465C153.028 2.29332 152.642 2.8293 152.254 3.32396C150.417 5.65196 148.564 7.97061 146.692 10.2693C146.108 10.9879 145.525 11.796 144.07 11.4733" fill="#C084FC"/>
<path fill-rule="evenodd" clip-rule="evenodd" d="M111.42 1.5867C111.241 2.10403 111.181 2.54532 110.956 2.87732C109.305 5.33066 107.632 7.77337 105.933 10.1947C105.638 10.6107 105.229 11.0187 104.778 11.2293C104.49 11.3667 103.974 11.2253 103.666 11.0347C103.484 10.9227 103.394 10.4467 103.465 10.1867C103.568 9.7947 103.832 9.43866 104.056 9.08533C105.693 6.49866 107.337 3.91732 108.988 1.33865C109.098 1.16398 109.238 0.937365 109.41 0.886698C109.788 0.777365 110.237 0.637365 110.573 0.753365C110.901 0.865365 111.126 1.28136 111.42 1.5867Z" fill="#C084FC"/>
<path fill-rule="evenodd" clip-rule="evenodd" d="M20.6437 0.518654C22.0984 0.942654 22.3997 1.27864 21.9984 2.07464C21.5717 2.92131 21.0837 3.74537 20.5544 4.53337C19.377 6.28803 18.1957 8.04397 16.9344 9.73864C16.4424 10.3973 15.753 10.9267 15.0917 11.4334C14.9397 11.5494 14.4557 11.4106 14.257 11.2386C14.0637 11.0706 13.9437 10.6987 13.965 10.432C13.989 10.1387 14.1757 9.83598 14.3517 9.58265C16.4477 6.54798 18.5584 3.51865 20.6437 0.518654" fill="#C084FC"/>
<path fill-rule="evenodd" clip-rule="evenodd" d="M42.557 10.9413C42.2423 10.3066 41.7503 9.77334 41.8623 9.45334C42.1743 8.57468 42.6997 7.75733 43.217 6.96799C44.257 5.37599 45.317 3.79602 46.4383 2.26402C46.7943 1.77602 47.325 1.35332 47.8663 1.09332C48.1383 0.963985 48.729 1.16397 48.9703 1.41331C49.2063 1.65464 49.3503 2.21867 49.2317 2.51734C49.0023 3.09334 48.5623 3.58663 48.2023 4.10797C46.8837 6.02663 45.597 7.9693 44.2157 9.8413C43.885 10.2893 43.2383 10.504 42.557 10.9413Z" fill="#C084FC"/>
<path fill-rule="evenodd" clip-rule="evenodd" d="M69.137 0.510661C70.1304 1.56666 70.1957 2.61866 69.5823 3.54399C67.8823 6.10533 66.065 8.59202 64.285 11.1014C64.169 11.2627 63.9637 11.4453 63.7864 11.46C63.3957 11.4933 62.957 11.5147 62.6183 11.3614C62.4477 11.2827 62.349 10.7934 62.405 10.528C62.4904 10.1294 62.7023 9.73734 62.9277 9.388C64.4743 6.97467 66.0183 4.56133 67.6103 2.18C67.9997 1.59733 68.5624 1.13066 69.137 0.510661" fill="#C084FC"/>
<path fill-rule="evenodd" clip-rule="evenodd" d="M117.69 0.401267C117.862 0.763934 118.204 1.13729 118.161 1.46129C118.068 2.18263 117.936 2.9773 117.55 3.56663C115.922 6.0573 114.197 8.48263 112.501 10.928C112.382 11.1 112.236 11.3106 112.058 11.3666C111.673 11.4906 111.184 11.6852 110.885 11.5439C110.621 11.4159 110.446 10.8693 110.444 10.5066C110.441 10.1066 110.594 9.64391 110.828 9.31591C112.864 6.46392 114.929 3.63057 117 0.802569C117.112 0.650569 117.352 0.591934 117.69 0.401267" fill="#C084FC"/>
<path fill-rule="evenodd" clip-rule="evenodd" d="M199.833 11.5507C199.638 11.236 199.346 10.9427 199.285 10.6093C199.234 10.3413 199.398 9.97599 199.577 9.73466C201.78 6.75199 203.996 3.78135 206.237 0.828019C206.4 0.614686 206.778 0.530649 207.074 0.457316C207.536 0.342649 208.173 0.998628 208.054 1.43596C208 1.63729 207.97 1.86798 207.85 2.02398C205.538 5.05865 203.221 8.09069 200.874 11.1C200.709 11.312 200.317 11.3507 199.833 11.5507" fill="#C084FC"/>
<path fill-rule="evenodd" clip-rule="evenodd" d="M166.554 1.33335C166.669 2.34135 166.181 3.16534 165.594 3.92534C163.841 6.20001 162.061 8.45466 160.282 10.7093C160.156 10.8707 159.969 11.0666 159.792 11.088C159.402 11.1346 158.958 11.1746 158.621 11.0293C158.42 10.9426 158.237 10.464 158.289 10.212C158.396 9.70933 158.573 9.16662 158.888 8.77195C160.88 6.27596 162.914 3.81463 164.942 1.34663C165.445 0.73463 165.985 0.676016 166.554 1.33335Z" fill="#C084FC"/>
<path fill-rule="evenodd" clip-rule="evenodd" d="M185.668 10.0733C187.886 7.22534 190.094 4.37199 192.346 1.55465C192.721 1.08399 193.212 0.559999 193.962 0.901332C194.482 1.13733 194.504 1.99202 193.88 2.85602C192.017 5.44135 190.144 8.02 188.186 10.532C187.533 11.372 184.793 11.628 185.668 10.0733" fill="#C084FC"/>
<path fill-rule="evenodd" clip-rule="evenodd" d="M90.8531 1.51323C90.5731 2.17323 90.3877 2.90929 89.9891 3.49995C88.3797 5.88395 86.7117 8.2266 85.0544 10.5759C84.5357 11.3119 84.0064 11.4892 83.4731 11.1572C82.7384 10.7012 82.533 9.97861 83.0424 9.26128C84.957 6.56928 86.905 3.90125 88.8464 1.22658C88.969 1.05991 89.1197 0.859953 89.3011 0.799953C89.5771 0.706619 89.933 0.619909 90.1757 0.721242C90.421 0.825242 90.5677 1.16257 90.8531 1.51323" fill="#C084FC"/>
<path fill-rule="evenodd" clip-rule="evenodd" d="M145.368 7.14918e-07C147.552 0.229334 145.75 2.25064 145.57 2.50397C143.554 5.34664 141.541 8.18797 139.493 11.0066C139.073 11.5866 138.584 12.2346 137.688 11.9053C137.013 11.6573 136.953 10.8 137.733 9.73464C140.089 6.51197 142.557 3.37333 145.368 7.14918e-07" fill="#C084FC"/>
<path fill-rule="evenodd" clip-rule="evenodd" d="M117.62 11.0413C117.537 10.3626 117.354 9.85331 117.454 9.40931C117.566 8.91998 117.892 8.4533 118.205 8.03463C119.845 5.8413 121.509 3.66395 123.17 1.48529C123.525 1.01995 124.052 0.723948 124.49 1.17995C124.789 1.48795 125.046 2.2266 124.881 2.53594C123.34 5.41327 121.558 8.14261 119.249 10.4746C118.933 10.7946 118.313 10.8133 117.62 11.0413" fill="#C084FC"/>
<path fill-rule="evenodd" clip-rule="evenodd" d="M138.384 0.554587C140.52 1.20392 138.024 3.83857 137.648 4.33857C136.125 6.37324 134.58 8.38925 133.01 10.3879C132.693 10.7919 132.272 11.1492 131.829 11.4079C131.617 11.5306 131.169 11.4693 130.964 11.3119C130.756 11.1546 130.568 10.7399 130.629 10.5066C130.76 10.0106 130.997 9.51459 131.297 9.09593C132.84 6.94793 134.385 4.7999 136 2.70524C136.496 2.06257 137.297 0.259921 138.384 0.554587" fill="#C084FC"/>
<path fill-rule="evenodd" clip-rule="evenodd" d="M6.87305 11.2293C7.43171 10.316 7.89304 9.50135 8.41304 8.72668C10.0024 6.36001 11.6104 4.00534 13.2184 1.652C13.5144 1.22 13.8037 0.764005 14.185 0.418671C14.3637 0.257338 14.8104 0.228023 15.041 0.337356C15.2677 0.448023 15.5224 0.821341 15.501 1.05467C15.453 1.56001 15.3517 2.12805 15.0717 2.53338C13.101 5.40138 11.0904 8.24132 9.06637 11.072C8.59171 11.736 7.96371 12.0533 6.87305 11.2293Z" fill="#C084FC"/>
<path fill-rule="evenodd" clip-rule="evenodd" d="M56.1077 1.69204C55.9637 2.08537 55.8903 2.52004 55.669 2.86137C54.0103 5.42937 52.3277 7.98671 50.6317 10.5334C50.4663 10.7827 50.1823 10.976 49.913 11.1227C49.7583 11.204 49.461 11.2134 49.3343 11.1174C49.105 10.9414 48.865 10.6854 48.7957 10.42C48.725 10.1427 48.7597 9.75469 48.9103 9.51736C50.653 6.75203 52.425 4.00667 54.201 1.26267C54.3103 1.09334 54.4997 0.910682 54.6823 0.870682C54.973 0.808016 55.3477 0.758669 55.5797 0.890669C55.8143 1.024 55.917 1.38404 56.1077 1.69204" fill="#C084FC"/>
<path fill-rule="evenodd" clip-rule="evenodd" d="M28.909 1.46133C28.785 1.768 28.6944 2.196 28.4677 2.528C26.5624 5.31467 24.637 8.0853 22.7103 10.8573C22.5917 11.028 22.4397 11.2266 22.261 11.2906C21.9837 11.3933 21.605 11.5106 21.3824 11.3986C21.161 11.2853 20.9517 10.8906 20.965 10.6293C20.9824 10.2266 21.117 9.78532 21.3344 9.44265C22.9757 6.86132 24.6237 4.28395 26.3344 1.74662C26.665 1.25195 27.241 0.890652 27.769 0.578652C27.9437 0.475985 28.349 0.66929 28.5944 0.815956C28.737 0.902623 28.7743 1.16667 28.909 1.46133Z" fill="#C084FC"/>
<path fill-rule="evenodd" clip-rule="evenodd" d="M124.485 11.424C123.273 11.0826 124.07 10.2613 124.188 9.85867C124.358 9.272 124.782 8.74801 125.148 8.23334C126.674 6.08267 128.993 2.95065 130.509 0.837312C131.162 -0.109354 132.778 1.69467 132.137 2.66401C130.336 5.37867 127.748 9.09466 125.245 11.248C125.174 11.3093 125.042 11.3 124.485 11.424Z" fill="#C084FC"/>
<path fill-rule="evenodd" clip-rule="evenodd" d="M28.6477 11.1973C28.3423 10.8027 28.037 10.5813 28.009 10.3293C27.965 9.93331 27.9797 9.42667 28.1943 9.12534C30.093 6.43467 32.0384 3.77596 33.985 1.11863C34.097 0.966632 34.325 0.853327 34.517 0.81466C34.7064 0.777327 34.9743 0.790616 35.1117 0.902616C35.337 1.08528 35.6357 1.36665 35.633 1.60398C35.6304 2.00132 35.501 2.45733 35.2757 2.78133C33.5077 5.30799 31.7237 7.82262 29.897 10.308C29.6237 10.68 29.1103 10.8787 28.6477 11.1973" fill="#C084FC"/>
<path fill-rule="evenodd" clip-rule="evenodd" d="M42.4477 2.00003C41.449 4.32136 39.6877 6.18798 38.3423 8.31598C37.8343 9.11865 37.2717 9.89599 36.6277 10.5907C36.4157 10.82 35.8343 10.888 35.497 10.7813C34.8983 10.5947 34.841 10.0306 34.9943 9.47464C35.0517 9.27464 35.153 9.07867 35.273 8.90667C36.9717 6.48267 38.661 4.05468 40.3863 1.65068C40.9157 0.914682 41.3303 1.00003 42.4477 2.00003Z" fill="#C084FC"/>
</svg>
