<svg width="128" height="108" viewBox="0 0 128 108" fill="none" xmlns="http://www.w3.org/2000/svg">
<path d="M8.96001 65.778C13.1394 65.8375 17.3084 65.3473 21.36 64.32C24.088 64.32 27.814 64.32 27.814 65.687C27.814 67.196 23.362 72.155 22.803 72.155L22.762 72.165C22.4484 72.3027 22.1728 72.5143 21.9586 72.7815C21.7444 73.0488 21.5981 73.3639 21.532 73.7C21.4861 73.9749 21.5059 74.2568 21.5899 74.5225C21.6738 74.7883 21.8195 75.0304 22.015 75.229L22.041 75.256H26.452C27.016 75.256 28.527 75.208 30.814 75.135C37.551 74.923 50.092 74.527 63.624 74.527C77.77 74.527 90.93 74.113 97.254 73.915C99.492 73.844 100.971 73.798 101.534 73.797C105.562 73.35 107.07 73.182 107.574 72.457C107.922 71.957 107.742 71.236 107.446 70.063C107.42 68.687 106.892 67.3679 105.961 66.354L100.868 61.262L99.861 59.917C96.248 55.081 94.888 53.263 93.485 53.937C92.685 53.951 92.685 54.766 92.685 55.486L92.697 55.533L92.724 55.56C92.564 56.027 87.004 56.76 61.429 57.581C55.3568 57.9832 49.2657 58.0119 43.19 57.667C42.236 57.618 41.543 57.582 41.049 57.581C39.6476 57.0397 38.1501 56.7916 36.649 56.852H36.611L36.585 56.879C36.4657 57.0395 36.3105 57.1699 36.1319 57.2597C35.9532 57.3496 35.756 57.3964 35.556 57.3964C35.356 57.3964 35.1588 57.3496 34.9801 57.2597C34.8015 57.1699 34.6463 57.0395 34.527 56.879C34.1327 56.4447 33.5893 56.1748 33.005 56.123C32.205 56.123 29.998 61.331 29.998 62.774C30.0001 62.8473 29.9785 62.9194 29.9363 62.9794C29.8942 63.0394 29.8337 63.0842 29.764 63.107C29.284 63.307 28.236 62.978 27.238 61.981C26.499 61.241 25.738 60.474 24.218 61.235L24.194 61.252C22.77 62.68 16.06 62.68 6.77301 62.68C0.122009 62.68 0.122009 63.432 0.122009 64.229L0.132009 64.269C0.886009 65.778 0.886009 65.778 8.96001 65.778ZM35.808 68.7C35.988 67.938 35.099 66.63 33.062 65.613C31.991 64.898 31.454 64.54 31.37 64.122C31.286 63.704 31.645 63.166 32.347 62.109C33.78 60.675 34.5 59.957 38.114 60.678C55.65 60.678 79.666 60.678 87.685 59.219L94.93 58.495L98.544 62.109C101.585 65.149 103.544 69.367 102.917 69.997C102.209 70.706 88.917 72.139 79.658 71.428H62.166C61.096 71.428 59.148 71.528 56.681 71.65C52.415 71.864 46.572 72.157 41.025 72.157L25.874 72.879L27.259 70.109C28.482 68.071 29.209 67.252 29.942 67.087C30.0362 67.0659 30.1325 67.0552 30.229 67.055C30.9653 67.1611 31.6577 67.4695 32.229 67.946C32.957 68.674 33.709 69.424 34.474 69.424C35.486 69.422 35.745 68.968 35.808 68.7Z" fill="#F8F9FA"/>
<path d="M64.713 45.736C64.613 46.146 65.234 46.55 65.77 46.818L65.81 46.828C66.549 46.828 68.088 46.828 68.088 45.279V45.188H66.539C65.413 45.188 64.8 45.372 64.713 45.736Z" fill="#F8F9FA"/>
<path d="M70.221 46.645H70.183C69.377 46.645 69.364 47.44 69.363 48.157C68.971 48.567 69.006 48.968 69.208 49.17C69.2573 49.218 69.3157 49.2557 69.3797 49.2809C69.4438 49.3061 69.5122 49.3184 69.581 49.317C69.8253 49.3032 70.0549 49.1957 70.222 49.017C70.3367 49.0076 70.4461 48.9646 70.5366 48.8935C70.6271 48.8224 70.6947 48.7262 70.731 48.617C70.8296 48.2797 70.8368 47.9222 70.752 47.5812C70.6671 47.2401 70.4932 46.9278 70.248 46.676L70.221 46.645Z" fill="#F8F9FA"/>
<path d="M4.621 17.083C6.195 18.373 26.339 17.552 33.03 16.214C36.1276 15.4296 39.2929 14.9424 42.483 14.759C46.147 14.759 46.807 14.759 48.249 16.919L50.389 19.06L46.775 26.3C46.219 27.691 45.675 28.957 45.187 30.074C44.6099 31.2026 44.1624 32.3928 43.853 33.622V33.714H46.873C51.807 33.014 72.024 32.296 73.062 32.259C73.136 32.335 73.27 32.482 73.243 32.559C73.162 32.803 71.943 32.974 69.508 33.316C69.05 33.38 68.543 33.451 67.997 33.53C65.9704 33.5536 63.949 33.7422 61.953 34.094C61.5415 34.1728 61.1258 34.2279 60.708 34.259C60.508 34.259 60.038 34.313 59.336 34.394C56.4034 34.7637 53.4517 34.962 50.496 34.988L49.452 35.083C42.403 35.721 41.666 35.783 40.952 37.225L40.942 37.266C40.942 37.977 39.475 41.635 38.036 44.513C37.1134 46.3941 36.3765 48.3608 35.836 50.385C35.836 51.027 34.469 51.751 33.741 51.751H33.7L32.216 53.235L32.189 53.262V53.3C32.189 54.089 37.264 54.12 49.772 54.12C54.946 54.12 61.291 53.9 66.889 53.706C71.548 53.544 75.949 53.391 78.926 53.391C88.919 53.391 91.363 53.391 91.407 52.591C92.139 51.08 90.688 48.159 88.463 46.669L87.627 45.669C84.48 41.902 80.563 37.214 81.177 36.599C81.839 35.938 90.415 34.439 97.148 34.439C99.437 34.439 102.304 34.239 105.076 34.05C107.603 33.875 109.989 33.711 111.741 33.709C120.046 32.198 122.741 32.287 124.803 32.972C125.044 33.1359 125.324 33.2345 125.615 33.2582C125.905 33.2819 126.197 33.2298 126.462 33.107C126.705 32.907 126.893 32.6483 127.009 32.3554C127.124 32.0626 127.163 31.7451 127.122 31.433C127.122 30.502 126.983 30.008 126.643 29.733C126.07 29.264 124.984 29.42 122.658 29.888C121.789 29.888 120.166 29.999 118.111 30.14C115.011 30.353 111.161 30.617 108.073 30.617C89.291 32.056 79.833 33.5 78.9 34.255H78.293C78.233 33.526 77.431 33.526 76.019 33.526C75.8348 33.5305 75.653 33.4836 75.4941 33.3905C75.3351 33.2974 75.2052 33.1618 75.119 32.999C75.0718 32.8618 75.0688 32.7132 75.1104 32.5742C75.152 32.4352 75.2362 32.3127 75.351 32.224C76.251 31.324 76.651 30.371 76.394 29.745C76.2926 29.5444 76.1318 29.3799 75.9335 29.2739C75.7353 29.168 75.5092 29.1258 75.286 29.153C73.918 29.153 68.818 21.277 68.818 19.769C68.7931 19.3703 68.625 18.9941 68.3445 18.7096C68.0641 18.4251 67.6903 18.2516 67.292 18.221C65.849 17.421 60.071 5.24 60.071 3.735C60.071 2.915 59.249 2.915 58.523 2.915C57.928 2.915 57.885 2.398 57.885 1.548C57.8929 1.40192 57.8581 1.2567 57.785 1.13C57.7534 1.08121 57.7097 1.04141 57.6582 1.01443C57.6067 0.987453 57.5491 0.974217 57.491 0.976001C56.81 0.976001 55.513 2.625 55.513 3.735C55.513 6.016 54.013 8.745 53.418 8.745H53.327V10.945C52.527 11.102 51.869 13.253 51.872 13.92L51.189 16.65L46.9 10.92L38.1 13.12C31.1785 14.7231 24.0841 15.4571 16.981 15.305C7.988 15.305 4.959 15.305 4.454 16.122C4.39381 16.2406 4.36644 16.3732 4.3747 16.5059C4.38297 16.6386 4.42657 16.7668 4.501 16.877C4.50625 16.9176 4.51958 16.9567 4.54018 16.9921C4.56079 17.0275 4.58827 17.0584 4.621 17.083V17.083ZM55.572 28.089C55.63 27.709 55.681 27.374 55.694 27.153C56.194 27.203 56.243 27.694 56.244 28.478C55.7813 29.081 55.5269 29.818 55.519 30.578C55.5111 30.5724 55.504 30.5657 55.498 30.558C55.241 30.261 55.44 28.954 55.572 28.089ZM75.964 40.1C74.291 41.216 73.89 44.3 74.359 45.849C74.55 46.479 74.879 46.827 75.285 46.827C76.105 46.827 76.105 46.004 76.105 45.278C76.3663 43.7689 76.8545 42.308 77.553 40.945L78.941 38.171L81.769 42.413C83.1077 44.4506 84.5722 46.4027 86.154 48.258L86.177 48.274C87.0399 48.7431 87.7571 49.4405 88.25 50.29H74.55C67.617 50.984 60.592 51.018 59.25 51.018H59.213L59.186 51.045C58.486 51.745 53.192 51.745 47.586 51.745C46.409 51.745 45.358 51.752 44.423 51.759C40.292 51.787 38.411 51.801 37.955 51.095C37.595 50.539 38.084 49.474 38.972 47.54C39.179 47.089 39.408 46.591 39.653 46.04C42.569 38.749 43.298 38.08 48.315 38.08C49.573 38.08 51.488 37.945 53.705 37.791C56.651 37.584 59.989 37.351 62.905 37.35C66.5244 36.8185 70.1696 36.4807 73.825 36.338C75.477 36.338 76.485 36.533 76.974 36.964C77.1113 37.0904 77.2189 37.2456 77.2891 37.4185C77.3593 37.5914 77.3903 37.7777 77.38 37.964C76.9981 38.7318 76.5225 39.4493 75.964 40.1Z" fill="#F8F9FA"/>
<path d="M54.876 39.354C54.5346 39.1663 54.1509 39.069 53.7613 39.0713C53.3717 39.0735 52.9892 39.1753 52.65 39.367L52.6 39.392V39.448C52.6 40.201 52.614 40.229 53.355 40.97C53.7412 41.3364 54.2527 41.5414 54.785 41.543C54.9595 41.5464 55.133 41.5162 55.296 41.454C55.4115 41.4158 55.5122 41.3425 55.5839 41.2442C55.6557 41.1459 55.6949 41.0277 55.696 40.906C55.7062 40.5983 55.6359 40.2933 55.4921 40.0211C55.3483 39.7489 55.1359 39.519 54.876 39.354V39.354Z" fill="#F8F9FA"/>
<path d="M50.5 47.374C49.039 47.374 48.951 47.374 48.951 48.194C48.951 48.228 48.969 49.014 50.5 49.014C51.0774 48.9393 51.6131 48.6735 52.022 48.259L52.049 48.232V48.194C52.053 47.374 51.23 47.374 50.5 47.374Z" fill="#F8F9FA"/>
<path d="M72.37 39.357C70.853 39.357 69.363 40.124 69.363 40.906C69.363 41.584 69.363 41.958 69.591 42.122C69.6795 42.181 69.7848 42.2097 69.891 42.204C70.5012 42.1164 71.0984 41.9542 71.669 41.721H71.681C72.0621 41.579 72.3875 41.3184 72.6094 40.9777C72.8314 40.6369 72.9381 40.2339 72.914 39.828C72.895 39.6972 72.8296 39.5777 72.7297 39.4912C72.6298 39.4047 72.5021 39.3571 72.37 39.357Z" fill="#F8F9FA"/>
<path d="M57.793 46.645C57.093 46.645 56.668 46.808 56.535 47.129C56.409 47.429 56.574 47.829 56.999 48.259C57.3156 48.5747 57.742 48.7557 58.189 48.764C58.3513 48.7655 58.5123 48.7353 58.663 48.675C58.8876 48.5685 59.0735 48.3948 59.1951 48.1781C59.3167 47.9613 59.3681 47.7122 59.342 47.465C59.342 46.645 58.519 46.645 57.793 46.645Z" fill="#F8F9FA"/>
<path d="M102.344 97.118V97.027C102.344 96.389 104.619 96.389 106.626 96.389C107.852 96.3489 109.073 96.2269 110.283 96.024C111.484 95.823 112.697 95.7018 113.914 95.661L113.955 95.651C115.487 94.885 119.055 94.222 121.174 94.927H121.203C124.33 94.927 126.396 94.927 126.396 94.107L126.386 94.066C125.776 92.846 123.013 88.499 117.615 83.103C113.992 80.203 111.073 77.287 110.352 75.845L110.334 75.821C110.107 75.594 109.913 75.382 109.742 75.194C108.811 74.177 108.386 73.711 105.868 74.342C104.226 74.8483 102.514 75.0926 100.795 75.066C100.734 75.066 99.356 75.074 99.252 75.797C99.016 75.8212 98.7821 75.8623 98.552 75.92C97.63 76.217 96.6324 76.1759 95.738 75.804L95.697 75.794C94.8684 75.8327 94.0431 75.9239 93.226 76.067C91.6334 76.3348 90.0235 76.4872 88.409 76.523C87.422 76.523 86.045 76.577 84.45 76.64C78.9699 76.9522 73.4754 76.9148 68 76.528H52.691C52.504 76.528 52.049 76.574 51.361 76.643C47.6868 77.0348 43.995 77.2397 40.3 77.257C34.759 77.257 29.64 77.678 27.18 77.881C26.406 77.944 25.895 77.986 25.723 77.986C23.597 77.986 22.864 77.986 22.169 77.31C22.16 77.028 22.04 76.834 21.846 76.789C21.552 76.719 21.057 77.009 20.546 78.023C19.846 78.723 19.121 79.444 18.434 79.444H18.4L18.373 79.47C17.8473 80.0988 17.5778 80.9024 17.618 81.721C17.618 82.198 17.252 84.18 12.536 89.682C11.421 91.075 10.428 92.448 9.552 93.658C8.279 95.417 7.18 96.936 6.776 96.936H6.735L6.709 96.962C6.43236 97.2448 6.22125 97.585 6.09061 97.9584C5.95997 98.3318 5.91299 98.7294 5.953 99.123H5.315C4.91356 99.0751 4.50652 99.1155 4.12235 99.2415C3.73818 99.3674 3.38619 99.5758 3.091 99.852C2.679 99.865 2.491 100.094 2.491 100.307C2.491 100.52 2.674 100.743 3.074 100.761C3.857 102.061 9.104 101.622 22.849 100.461L27.928 100.034C29.611 99.6314 31.3614 99.5993 33.058 99.94C33.2704 99.9873 33.486 100.019 33.703 100.035C34.16 100.482 34.641 100.673 34.966 100.541C35.0716 100.489 35.159 100.407 35.2167 100.304C35.2744 100.202 35.2996 100.084 35.289 99.967C35.5642 99.5648 35.9561 99.2565 36.4118 99.0836C36.8675 98.9107 37.3652 98.8815 37.838 99C38.418 99.137 38.752 99.48 38.752 99.942V100.033H39.609L39.636 100.006C40.951 98.691 47.853 98.001 48.862 98.419C48.939 98.452 48.955 98.478 48.955 98.484C48.955 99.21 48.955 100.033 49.775 100.033C50.3529 99.9584 50.8892 99.6922 51.298 99.277L51.324 99.25V99.213C51.324 98.575 51.324 98.575 51.962 98.575C52.812 98.575 53.329 98.618 53.329 99.213C53.329 99.9 53.492 100.313 53.788 100.387C54.128 100.466 54.558 100.055 54.959 99.253L54.968 99.213C54.968 98.575 56.539 98.575 59.979 98.575C61.441 98.575 63.479 98.389 65.454 98.21C67.429 98.031 69.459 97.846 70.912 97.846H76.705L79.582 100.721C80.8856 102.556 82.3533 104.268 83.967 105.837C85.451 107.321 86.212 107.321 86.947 107.321H86.977L87 107.3C89.977 105.067 99.184 104.359 108.089 103.674L109.979 103.529C117.89 102.929 119.105 102.835 119.105 101.396C119.127 101.22 119.11 101.042 119.056 100.873C119.003 100.704 118.913 100.549 118.794 100.418C118.216 99.908 116.681 100.047 112.447 100.576C107.709 100.941 102.707 101.497 98.688 101.944C94.567 102.401 91.313 102.763 89.86 102.763L89.826 102.769C86.526 104.09 83.626 103.123 81.196 99.896L80.505 97.825L84.766 97.114C93.83 96.358 100.813 96.445 101.41 96.995C101.42 97.0018 101.427 97.0116 101.431 97.023V97.114L102.344 97.118ZM103.857 93.292C105.221 90.2411 106.418 87.1177 107.441 83.936C108.187 81.699 109.601 79.704 110.234 79.628C110.903 80.34 110.834 81.915 108.734 88.24C108.31 89.088 107.962 89.813 107.682 90.394C106.502 92.85 106.289 93.294 105.171 93.294L103.857 93.292ZM112.367 88.992C111.625 92.705 110.885 94.021 109.541 94.021C109.357 94.0254 109.175 93.9783 109.016 93.885C108.857 93.7918 108.727 93.656 108.641 93.493C108.594 93.3559 108.591 93.2075 108.633 93.0687C108.674 92.9298 108.758 92.8075 108.873 92.719L108.891 92.7L108.897 92.676C108.904 92.647 109.633 89.739 110.348 87.593C111.741 84.805 112.509 83.27 113.181 83.27C113.331 83.2505 113.483 83.2713 113.622 83.3304C113.761 83.3894 113.882 83.4846 113.972 83.606C114.38 84.265 113.872 85.969 112.372 88.969L112.367 88.992ZM95.654 83.645C95.244 84.696 94.746 85.971 94.154 87.518C92.798 90.907 91.426 93.698 91.254 94.037C91.1299 94.0928 90.9921 94.1106 90.8579 94.0882C90.7237 94.0657 90.5992 94.0041 90.5 93.911C89.562 92.947 90.445 88.401 92.852 81.772C94.291 79.614 95.008 78.897 96.421 78.897C96.528 78.897 96.627 78.897 96.721 78.89C96.815 78.883 96.866 78.884 96.927 78.884C97.068 78.884 97.168 78.898 97.21 78.957C97.386 79.209 96.915 80.417 95.654 83.645ZM102.171 80.952C101.787 81.843 101.465 82.7596 101.208 83.695C100.698 85.5045 100.044 87.2705 99.253 88.976C97.776 92.668 97.069 93.292 95.671 93.295C94.784 93.517 94.303 93.512 94.107 93.276C93.599 92.667 94.655 90.346 96.967 85.261L97.234 84.672C99.821 78.637 101.172 78.172 101.524 78.172C102.089 78.172 102.431 78.172 102.561 78.339C102.759 78.589 102.573 79.335 102.171 80.952V80.952ZM103.629 89.698C102.19 92.576 101.468 94.021 100.066 94.021C99.8817 94.0254 99.6999 93.9783 99.5409 93.885C99.3819 93.7918 99.2521 93.656 99.166 93.493C99.1189 93.3559 99.1159 93.2075 99.1575 93.0687C99.1991 92.9298 99.2832 92.8075 99.398 92.719L99.418 92.688C100.267 90.546 100.996 88.3582 101.601 86.135C102.118 85.101 102.627 83.993 103.12 82.922C103.679 81.5013 104.386 80.1435 105.229 78.871L105.255 78.844V78.806C105.255 77.889 105.522 77.273 106.008 77.073C106.123 77.0245 106.246 76.9996 106.37 77C106.714 77.011 107.04 77.1543 107.28 77.4C107.838 78.57 106.576 82.822 103.629 89.7V89.698ZM75.929 85.325C75.371 86.44 74.929 87.433 74.535 88.309C74.1695 89.3155 73.6646 90.2658 73.035 91.132L73.009 91.159V91.196C72.9155 91.9524 72.6707 92.6823 72.289 93.342L72.28 93.383C72.2536 93.7367 72.1011 94.0692 71.8502 94.3199C71.5993 94.5706 71.2667 94.7229 70.913 94.749L70.872 94.759C70.344 95.023 69.998 95.098 69.817 94.984C69.548 94.818 69.546 94.223 69.546 93.401C71.077 89.577 74.646 81.758 75.346 81.057L75.372 81.03V80.992C75.372 80.397 75.889 80.355 76.739 80.355C76.7953 80.3471 76.8527 80.3533 76.906 80.3732C76.9593 80.3932 77.0067 80.4261 77.044 80.469C77.3 80.816 76.994 82.135 75.933 85.325H75.929ZM77.554 86.125C79.1 81.488 79.9 79.809 80.724 79.467C80.9006 79.4095 81.0879 79.3925 81.272 79.4174C81.456 79.4424 81.6321 79.5085 81.787 79.611C82.465 80.29 82.462 80.301 81.758 82.411C81.39 83.2377 81.046 84.0077 80.726 84.721C78.41 89.894 77.451 92.035 78.132 92.721C78.2447 92.8632 78.3996 92.966 78.5745 93.0145C78.7494 93.063 78.9351 93.0548 79.105 92.991C79.3013 92.8922 79.4656 92.7399 79.5789 92.5515C79.6921 92.3632 79.7497 92.1467 79.745 91.927C80.0616 90.7253 80.5037 89.5602 81.064 88.451C81.548 87.333 82.097 86.066 82.651 84.679C84.863 80.256 85.551 79.628 86.943 79.628L86.972 79.623C87.515 79.442 88.046 79.304 88.24 79.523C88.691 80.023 87.684 82.5 85.409 87.507C83.94 89.707 82.498 92.599 82.479 93.372C82.2809 93.8143 81.962 94.1918 81.5591 94.4612C81.1562 94.7306 80.6855 94.8809 80.201 94.895C79.4395 95.0218 78.658 94.945 77.9359 94.6722C77.2137 94.3995 76.5765 93.9406 76.089 93.342C75.373 91.9 75.421 91.11 77.558 86.123L77.554 86.125ZM84.843 91.956C86.417 87.234 91.453 78.899 92.043 78.899C92.188 78.899 92.278 78.899 92.309 78.948C92.497 79.23 91.765 80.986 89.039 87.532C87.605 93.267 86.874 94.751 85.483 94.751C84.96 94.751 84.645 94.651 84.494 94.444C84.224 94.059 84.418 93.24 84.847 91.954L84.843 91.956ZM59.328 86.866C60.62 84.283 61.36 81.679 60.979 81.066C60.9546 81.023 60.9205 80.9864 60.8793 80.9591C60.8381 80.9319 60.7911 80.9147 60.742 80.909C60.6901 80.8611 60.6271 80.827 60.5586 80.8095C60.4902 80.792 60.4185 80.7919 60.35 80.809C59.237 81.072 57.618 85.597 56.973 87.531V87.559C56.9482 88.8868 56.4393 90.1599 55.542 91.139L55.515 91.166V91.203C55.4855 91.5246 55.3956 91.8377 55.25 92.126C54.9563 92.7501 54.7982 93.4294 54.786 94.119C54.829 94.404 54.8045 94.6951 54.7144 94.9689C54.6243 95.2427 54.4712 95.4916 54.2674 95.6954C54.0636 95.8992 53.8147 96.0523 53.5409 96.1424C53.2671 96.2325 52.976 96.257 52.691 96.214C52.167 96.214 51.853 96.114 51.702 95.907C51.426 95.524 51.62 94.707 52.043 93.43C52.6318 92.0587 53.1211 90.6467 53.507 89.205C53.746 88.41 53.992 87.587 54.227 86.877C55.727 84.377 56.259 82.809 55.851 82.088C55.7462 81.9301 55.5997 81.8044 55.4277 81.7248C55.2558 81.6452 55.0652 81.6148 54.877 81.637H54.829L54.802 81.678C53.8123 83.2641 53.0704 84.992 52.602 86.802C49.702 95.502 49.702 95.502 46.858 96.214C45.84 96.214 45.279 96.214 45.117 95.989C44.955 95.764 45.141 95.189 45.487 94.147V94.119C45.5261 93.3051 45.679 92.5006 45.941 91.729C46.0773 91.3347 46.1695 90.9266 46.216 90.512C47.659 89.012 49.132 82.512 49.132 81.728V81.691L49.105 81.663C49.0591 81.6128 48.9998 81.5767 48.934 81.559C48.8683 81.5413 48.7989 81.5427 48.734 81.563C47.843 81.833 46.534 85.8 45.312 91.899C45.144 92.319 44.996 92.699 44.861 93.045C43.838 95.669 43.625 96.215 41.752 96.215L39.745 96.879L41.839 92.69C42.059 92.03 42.351 91.222 42.66 90.367C43.367 88.41 44.246 85.975 44.754 83.944L46.191 79.634H54.871C58.524 79.634 63.526 79.634 63.526 80.272C63.4876 81.2694 63.2428 82.248 62.807 83.146C62.2546 84.5135 61.8139 85.9234 61.489 87.362C61.203 88.45 60.906 89.575 60.615 90.451C59.123 95.669 58.425 96.944 57.058 96.944C56.967 96.9495 56.8763 96.9301 56.7956 96.8878C56.7148 96.8455 56.6472 96.7819 56.6 96.704C55.985 95.742 56.98 92.157 59.332 86.864L59.328 86.866ZM43.828 80.357C43.695 81.001 42.967 84.431 41.67 88.975C38.847 95.327 38.057 96.938 37.38 96.938H37.351C36.559 97.201 36.145 97.238 35.965 97.047C35.547 96.613 36.116 94.824 37.465 91.222C37.8479 90.1634 38.3029 89.1323 38.827 88.136C39.2123 87.5036 39.4926 86.813 39.657 86.091C39.84 84.8779 40.2698 83.7153 40.92 82.675C41.751 81.22 42.607 80.352 43.21 80.352L43.828 80.357ZM31.557 97.047C31.083 96.608 31.457 94.847 32.367 91.218C33.935 84.163 36.12 80.357 37.38 80.357L37.409 80.352C38.153 80.105 38.645 80.11 38.873 80.372C39.253 80.81 38.968 81.987 38.027 83.872L38.018 83.913C37.8859 84.9976 37.6116 86.0601 37.202 87.073C36.6451 88.6522 36.1889 90.2651 35.836 91.902C35.636 92.512 35.457 93.052 35.302 93.529C34.364 96.42 34.195 96.941 33.002 96.941H32.973C32.182 97.207 31.77 97.238 31.562 97.045L31.557 97.047ZM72.98 79.632L71.559 85.325C70.128 88.187 68.649 91.146 68.634 92.632C67.934 94.037 67.224 94.749 66.539 94.749L66.498 94.759C66.227 94.895 65.871 95.021 65.712 94.85C65.428 94.543 65.712 93.243 67.349 90.508C67.8803 89.3622 68.1335 88.1072 68.088 86.845C69.5342 84.3206 71.1695 81.9093 72.98 79.632V79.632ZM68.639 82.422V82.45C68.6147 83.7779 68.1057 85.0512 67.208 86.03C66.5806 86.8789 66.0832 87.8165 65.732 88.812C65.493 89.368 65.246 89.943 65.005 90.427L64.995 90.467C64.9577 92.0138 64.4594 93.5142 63.564 94.776L63.547 94.8C62.9637 95.6606 62.0661 96.2581 61.047 96.464C60.9296 96.4968 60.8065 96.5043 60.686 96.486C60.686 96.486 60.686 96.45 60.776 96.363L60.802 96.336V96.3C60.802 94.766 63.016 86.09 65.157 83.236L65.171 83.209C65.871 81.117 67.245 80.357 68 80.357C68.343 80.357 68.668 80.357 68.826 80.577C69.022 80.85 68.961 81.454 68.639 82.422V82.422ZM24.19 94.061L24.174 94.084V96.3C24.2028 97.0579 23.963 97.8016 23.497 98.4H21.35H21.321C20.861 98.553 20.556 98.537 20.387 98.349C19.769 97.663 20.736 94.664 23.62 88.319C26.579 81.66 27.278 80.356 28.639 80.356H29.994C29.743 81.618 25.582 91.972 24.19 94.061ZM25.697 97.782C25.44 97.527 25.481 96.982 25.812 96.32C27.534 89.429 31.821 80.355 33.012 80.355C33.382 80.355 33.889 80.355 33.946 80.493C33.961 80.528 33.964 80.641 33.676 80.928L33.65 80.955V80.992C33.5365 81.6521 33.3672 82.3015 33.144 82.933C32.4402 85.1515 31.8807 87.4132 31.469 89.704C30.912 91.104 30.469 92.472 30.075 93.683C29.511 95.428 29.023 96.936 28.639 96.936H28.6L28.573 96.962C28.1968 97.3402 27.7079 97.5859 27.18 97.662L27.139 97.672C26.492 98 25.953 98.039 25.7 97.782H25.697ZM16.889 91.174C16.2798 93.3316 15.7924 95.5217 15.429 97.734C15.014 98.555 14.655 98.792 14.472 98.753C14.272 98.706 14.153 98.333 14.153 97.753C14.153 96.359 17.691 87.819 18.488 86.189C18.5246 86.1986 18.5559 86.2224 18.575 86.255C18.78 86.591 18.447 88.052 16.889 91.174V91.174ZM21.269 91.156C19.169 95.356 17.65 98.394 16.977 98.394L16.936 98.404C16.663 98.54 16.476 98.568 16.382 98.486C15.975 98.134 16.738 95.847 17.782 92.695C17.988 92.284 18.25 91.702 18.554 91.027C19.371 89.089 20.3292 87.2136 21.421 85.416L21.433 85.388C21.7895 83.7943 22.5284 82.3113 23.586 81.067C23.842 80.94 24.145 80.812 24.261 80.916C24.692 81.294 23.637 84.521 21.269 91.156V91.156ZM14.39 91.117C14.108 91.754 13.676 92.795 13.248 94.078C11.811 97.672 11.099 98.394 10.417 98.394H9.071C9.337 97.631 12.2 93.882 14.39 91.117ZM74.556 94.932C74.7199 94.9277 74.8788 94.9883 74.9981 95.1007C75.1175 95.2131 75.1875 95.3682 75.193 95.532L74.519 96.206C74.3552 96.2005 74.2001 96.1305 74.0877 96.0111C73.9753 95.8918 73.9147 95.7329 73.919 95.569C73.919 94.932 73.919 94.932 74.556 94.932ZM115.756 87.054C115.955 86.8905 116.199 86.7915 116.456 86.77C116.556 86.7668 116.654 86.7986 116.733 86.86C116.471 87.679 115.975 88.4036 115.307 88.945C115.079 89.1748 114.886 89.4365 114.733 89.722L114.724 89.698C114.269 88.788 115.033 87.578 115.76 87.054H115.756ZM116.902 89.789L118.283 87.717L119.677 89.803C119.937 90.0694 120.135 90.3904 120.256 90.7427C120.377 91.095 120.419 91.4698 120.377 91.84C119.634 91.9549 118.918 92.1997 118.26 92.563C116.923 92.563 116.186 92.563 116.007 92.271C115.821 91.961 116.208 91.186 116.906 89.789H116.902Z" fill="#F8F9FA"/>
<path d="M43.216 46.645C42.302 46.645 41.616 46.926 41.43 47.38C41.3785 47.5359 41.3762 47.7039 41.4234 47.8611C41.4706 48.0184 41.5651 48.1573 41.694 48.259C42.1007 48.6033 42.6214 48.7834 43.154 48.764C43.4358 48.7673 43.7156 48.716 43.978 48.613C44.2131 48.5286 44.4157 48.3723 44.557 48.1662C44.6983 47.9601 44.7711 47.7148 44.765 47.465C44.765 46.645 43.942 46.645 43.216 46.645Z" fill="#F8F9FA"/>
</svg>
