<svg width="32" height="32" viewBox="0 0 32 32" fill="none" xmlns="http://www.w3.org/2000/svg">
<g clip-path="url(#clip0_1477_1024)">
<rect x="1" y="1" width="30" height="30" rx="4" stroke="#228BE6" stroke-width="2"/>
<path d="M14.0404 0C18.9436 0 23.8468 0 28.75 0C30.5449 0 32 1.55208 32 3.46666V28.5333C32 30.4479 30.5449 32 28.75 32C23.8468 32 18.9436 32 14.0404 32C13.9865 32 13.9865 30.4 14.0404 30.4C21.582 30.4 26 22.4242 26 17.6C26 16 26 19.1928 26 14.4C26 9.60712 21.4994 1.6 14.0404 1.6C14.0404 0.430762 14.0404 0.752734 14.0404 0Z" fill="#228BE6"/>
<path d="M16 20C18.2091 20 20 18.2091 20 16C20 13.7909 18.2091 12 16 12C13.7909 12 12 13.7909 12 16C12 18.2091 13.7909 20 16 20Z" fill="#228BE6"/>
<path d="M17 22.6667C17 18.6904 17 12.5408 17 9.33335C13.3181 9.33335 10.3333 12.3181 10.3333 16C10.3333 19.6819 13.3181 22.6667 17 22.6667ZM17 28C10.3726 28 5 22.6274 5 16C5 9.37258 10.3726 4 17 4C17 9.73015 17 22.6667 17 28Z" fill="#228BE6"/>
</g>
<defs>
<clipPath id="clip0_1477_1024">
<rect width="32" height="32" fill="white"/>
</clipPath>
</defs>
</svg>
