<svg width="32" height="32" viewBox="0 0 32 32" fill="none" xmlns="http://www.w3.org/2000/svg">
<g clip-path="url(#clip0_1477_1078)">
<g clip-path="url(#clip1_1477_1078)">
<path opacity="0.2" d="M2.66663 13.6667L14.3133 20.4067C14.6224 20.5864 14.9742 20.68 15.3318 20.6777C15.6894 20.6753 16.0399 20.5771 16.3466 20.3933L28.3066 12.82C28.6099 12.6386 28.9559 12.5408 29.3093 12.5365C29.6627 12.5323 30.011 12.6218 30.3185 12.7959C30.6261 12.97 30.8821 13.2225 31.0603 13.5277C31.2386 13.8329 31.3328 14.1799 31.3333 14.5333V29.3333C31.3333 29.8638 31.1226 30.3725 30.7475 30.7475C30.3724 31.1226 29.8637 31.3333 29.3333 31.3333H4.66663C4.13619 31.3333 3.62749 31.1226 3.25241 30.7475C2.87734 30.3725 2.66663 29.8638 2.66663 29.3333V13.6667Z" fill="#FFB86A"/>
<path d="M5.33329 8.66669C5.33329 8.8435 5.26305 9.01307 5.13803 9.13809C5.01301 9.26312 4.84344 9.33335 4.66663 9.33335C4.48981 9.33335 4.32025 9.26312 4.19522 9.13809C4.0702 9.01307 3.99996 8.8435 3.99996 8.66669V2.66669C3.99996 2.13625 4.21067 1.62755 4.58575 1.25247C4.96082 0.877401 5.46953 0.666687 5.99996 0.666687H24.6666C25.1971 0.666687 25.7058 0.877401 26.0808 1.25247C26.4559 1.62755 26.6666 2.13625 26.6666 2.66669V8.66669C26.6666 8.8435 26.5964 9.01307 26.4714 9.13809C26.3463 9.26312 26.1768 9.33335 26 9.33335C25.8231 9.33335 25.6536 9.26312 25.5286 9.13809C25.4035 9.01307 25.3333 8.8435 25.3333 8.66669V2.66669C25.3333 2.48988 25.2631 2.32031 25.138 2.19528C25.013 2.07026 24.8434 2.00002 24.6666 2.00002H5.99996C5.82315 2.00002 5.65358 2.07026 5.52855 2.19528C5.40353 2.32031 5.33329 2.48988 5.33329 2.66669V8.66669ZM10.7733 4.00002C10.24 4.02669 9.78663 4.41335 9.69329 4.94002C9.55996 4.40669 9.09329 4.02669 8.55329 4.00669C8.382 4.0002 8.21136 4.03132 8.05339 4.09787C7.89542 4.16441 7.75394 4.26476 7.63892 4.39186C7.52389 4.51896 7.43812 4.66971 7.38762 4.83352C7.33712 4.99734 7.32313 5.17022 7.34663 5.34002C7.34663 6.43335 8.77329 7.45335 9.37329 7.87335L9.40663 7.90002C9.56663 8.03335 9.79329 8.03335 9.95329 7.90002L10.0466 7.83335C10.6466 7.39335 12.0133 6.39335 12.0133 5.33335C12.0133 4.74669 11.84 4.00002 10.7733 4.00002ZM27.3333 6.66669C27.3333 6.8435 27.4035 7.01307 27.5286 7.13809C27.6536 7.26312 27.8231 7.33335 28 7.33335C28.1768 7.33335 28.3463 7.40359 28.4714 7.52862C28.5964 7.65364 28.6666 7.82321 28.6666 8.00002V9.33335L15.98 17.4667C15.7711 17.5939 15.5312 17.6611 15.2866 17.6611C15.0421 17.6611 14.8022 17.5939 14.5933 17.4667L1.99996 9.40002V8.00002C1.99996 7.82321 2.0702 7.65364 2.19522 7.52862C2.32025 7.40359 2.48981 7.33335 2.66663 7.33335C2.84344 7.33335 3.01301 7.26312 3.13803 7.13809C3.26305 7.01307 3.33329 6.8435 3.33329 6.66669C3.33329 6.48988 3.26305 6.32031 3.13803 6.19528C3.01301 6.07026 2.84344 6.00002 2.66663 6.00002C2.13619 6.00002 1.62749 6.21073 1.25241 6.58581C0.87734 6.96088 0.666626 7.46959 0.666626 8.00002V28C0.666626 28.5305 0.87734 29.0392 1.25241 29.4142C1.62749 29.7893 2.13619 30 2.66663 30H28C28.5304 30 29.0391 29.7893 29.4142 29.4142C29.7892 29.0392 30 28.5305 30 28V8.00002C30 7.46959 29.7892 6.96088 29.4142 6.58581C29.0391 6.21073 28.5304 6.00002 28 6.00002C27.8231 6.00002 27.6536 6.07026 27.5286 6.19528C27.4035 6.32031 27.3333 6.48988 27.3333 6.66669ZM2.66663 28.6667C2.48981 28.6667 2.32025 28.5965 2.19522 28.4714C2.0702 28.3464 1.99996 28.1768 1.99996 28V10.9534L11.34 17.0467L4.19996 24.8667C4.1378 24.9288 4.08849 25.0026 4.05485 25.0839C4.02121 25.1651 4.0039 25.2521 4.0039 25.34C4.0039 25.4279 4.02121 25.515 4.05485 25.5962C4.08849 25.6774 4.1378 25.7512 4.19996 25.8134C4.26212 25.8755 4.33591 25.9248 4.41713 25.9585C4.49834 25.9921 4.58539 26.0094 4.67329 26.0094C4.7612 26.0094 4.84824 25.9921 4.92946 25.9585C5.01067 25.9248 5.08447 25.8755 5.14663 25.8134L12.48 17.8134L12.52 17.7667L13.9066 18.6067C14.3237 18.8597 14.8021 18.9936 15.29 18.9936C15.7778 18.9936 16.2562 18.8597 16.6733 18.6067L18.1266 17.7267L18.2 17.8134L26.2 25.8134C26.2621 25.8755 26.3359 25.9248 26.4171 25.9585C26.4983 25.9921 26.5854 26.0094 26.6733 26.0094C26.7612 26.0094 26.8482 25.9921 26.9295 25.9585C27.0107 25.9248 27.0845 25.8755 27.1466 25.8134C27.2088 25.7512 27.2581 25.6774 27.2917 25.5962C27.3254 25.515 27.3427 25.4279 27.3427 25.34C27.3427 25.2521 27.3254 25.1651 27.2917 25.0839C27.2581 25.0026 27.2088 24.9288 27.1466 24.8667L19.2866 17.0134L28.6666 10.8934V28C28.6666 28.1768 28.5964 28.3464 28.4714 28.4714C28.3463 28.5965 28.1768 28.6667 28 28.6667H2.66663ZM14 5.33335C14 5.51016 14.0702 5.67973 14.1952 5.80476C14.3202 5.92978 14.4898 6.00002 14.6666 6.00002H20C20.1768 6.00002 20.3463 5.92978 20.4714 5.80476C20.5964 5.67973 20.6666 5.51016 20.6666 5.33335C20.6666 5.15654 20.5964 4.98697 20.4714 4.86195C20.3463 4.73693 20.1768 4.66669 20 4.66669H14.6666C14.4898 4.66669 14.3202 4.73693 14.1952 4.86195C14.0702 4.98697 14 5.15654 14 5.33335ZM14.6666 9.33335C14.4898 9.33335 14.3202 9.26312 14.1952 9.13809C14.0702 9.01307 14 8.8435 14 8.66669C14 8.48988 14.0702 8.32031 14.1952 8.19528C14.3202 8.07026 14.4898 8.00002 14.6666 8.00002H23.3333C23.5101 8.00002 23.6797 8.07026 23.8047 8.19528C23.9297 8.32031 24 8.48988 24 8.66669C24 8.8435 23.9297 9.01307 23.8047 9.13809C23.6797 9.26312 23.5101 9.33335 23.3333 9.33335H14.6666ZM14 12C14 12.1768 14.0702 12.3464 14.1952 12.4714C14.3202 12.5964 14.4898 12.6667 14.6666 12.6667H20C20.1768 12.6667 20.3463 12.5964 20.4714 12.4714C20.5964 12.3464 20.6666 12.1768 20.6666 12C20.6666 11.8232 20.5964 11.6536 20.4714 11.5286C20.3463 11.4036 20.1768 11.3334 20 11.3334H14.6666C14.4898 11.3334 14.3202 11.4036 14.1952 11.5286C14.0702 11.6536 14 11.8232 14 12Z" fill="#FF6900"/>
</g>
</g>
<defs>
<clipPath id="clip0_1477_1078">
<rect width="32" height="32" fill="white"/>
</clipPath>
<clipPath id="clip1_1477_1078">
<rect width="32" height="32" fill="white"/>
</clipPath>
</defs>
</svg>
