<svg width="32" height="32" viewBox="0 0 32 32" fill="none" xmlns="http://www.w3.org/2000/svg">
<g clip-path="url(#clip0_1477_1014)">
<g clip-path="url(#clip1_1477_1014)">
<rect x="2" y="2" width="28" height="28" fill="white"/>
<mask id="mask0_1477_1014" style="mask-type:luminance" maskUnits="userSpaceOnUse" x="0" y="0" width="32" height="32">
<path d="M0 0H32V32H0V0Z" fill="white"/>
</mask>
<g mask="url(#mask0_1477_1014)">
<path fill-rule="evenodd" clip-rule="evenodd" d="M4.8 0C3.52696 0 2.30606 0.505713 1.40589 1.40589C0.505713 2.30606 0 3.52696 0 4.8L0 27.2C0 28.473 0.505713 29.6939 1.40589 30.5941C2.30606 31.4943 3.52696 32 4.8 32H27.2C28.473 32 29.6939 31.4943 30.5941 30.5941C31.4943 29.6939 32 28.473 32 27.2V4.8C32 4.16965 31.8758 3.54548 31.6346 2.96312C31.3934 2.38076 31.0398 1.85161 30.5941 1.40589C30.1484 0.960166 29.6192 0.606601 29.0369 0.365378C28.4545 0.124156 27.8303 0 27.2 0L4.8 0ZM17.0053 9.54667C17.184 9.58933 17.2187 9.88 17.0507 9.95733C13.7973 11.0533 11.24 13.864 9.904 17.6C9.82933 17.7813 9.50933 17.7387 9.47733 17.5467C9.024 14.6133 6.98133 12.272 4.352 11.64C4.176 11.6 4.144 11.328 4.30667 11.2507C7.64533 9.888 10.1547 7.09067 11.3147 3.51733C11.3867 3.33067 11.736 3.37867 11.768 3.576C12.216 6.568 14.312 8.952 17.0053 9.54933V9.54667ZM14.264 21.072C14.264 24.8453 16.736 27.6053 20.1813 27.6053C21.7813 27.6053 23.3093 26.7787 23.9867 25.7387V27.36H26.8V9.68H23.9867V16.4053C23.3093 15.3653 21.7813 14.5653 20.1813 14.5653C16.736 14.5653 14.264 17.2987 14.264 21.072ZM23.9867 21.8453C23.8187 23.7573 22.4587 25.16 20.64 25.16C18.6027 25.16 17.1467 23.4667 17.1467 21.048C17.1467 18.6293 18.6027 17.008 20.64 17.008C22.4587 17.008 23.8187 18.3413 23.9867 20.2507V21.8453Z" fill="url(#paint0_linear_1477_1014)"/>
</g>
</g>
</g>
<defs>
<linearGradient id="paint0_linear_1477_1014" x1="0" y1="0" x2="32" y2="32" gradientUnits="userSpaceOnUse">
<stop stop-color="#471571"/>
<stop offset="0.0308" stop-color="#551B84"/>
<stop offset="0.1448" stop-color="#7C229E"/>
<stop offset="0.2367" stop-color="#9024A4"/>
<stop offset="0.355" stop-color="#B02290"/>
<stop offset="0.483" stop-color="#D32B86"/>
<stop offset="0.6029" stop-color="#E92F6F"/>
<stop offset="0.7008" stop-color="#F6484F"/>
<stop offset="0.9002" stop-color="#FB7328"/>
<stop offset="0.9729" stop-color="#F3960F"/>
<stop offset="1" stop-color="#F3960F"/>
</linearGradient>
<clipPath id="clip0_1477_1014">
<rect width="32" height="32" fill="white"/>
</clipPath>
<clipPath id="clip1_1477_1014">
<rect width="32" height="32" fill="white"/>
</clipPath>
</defs>
</svg>
