<svg width="32" height="32" viewBox="0 0 32 32" fill="none" xmlns="http://www.w3.org/2000/svg">
<g clip-path="url(#clip0_1477_1039)">
<path d="M24.75 28.5405V20.7567H28.25V32H2V20.7567H5.5V28.5405H24.75Z" fill="#BCBBBB"/>
<path d="M20.8125 0L18.45 1.72973L27.1125 13.2324L29.475 11.5027L20.8125 0ZM24.75 15.9135L13.6375 6.74595L15.475 4.58378L26.5875 13.7514L24.75 15.9135ZM9.9625 13.1459L23.0875 19.2L24.3125 16.6054L11.1875 10.5514L9.9625 13.1459ZM22.2125 22.4778L22.8075 19.9265L8.72 17.0292L8.125 19.8919L22.2125 22.4778ZM22.125 25.9459H8.125V23.3514H22.125V25.9459Z" fill="#F48024"/>
</g>
<defs>
<clipPath id="clip0_1477_1039">
<rect width="28" height="32" fill="white" transform="translate(2)"/>
</clipPath>
</defs>
</svg>
