<svg width="81" height="46" viewBox="0 0 81 46" fill="none" xmlns="http://www.w3.org/2000/svg">
<g opacity="0.5" clip-path="url(#clip0)">
<path d="M77.3267 2.14362L5.37451 4.84534L4.15841 42.2124L76.1106 39.5107L77.3267 2.14362Z" fill="#3BC9DB"/>
<path d="M5.1025 9.31507C5.22851 9.31034 5.73748 9.18738 6.74064 9.25356C7.87614 9.32846 10.3766 9.77171 11.6245 10.0091C12.5025 10.1761 13.0029 10.192 13.2473 10.4176C13.4917 10.6431 13.3614 10.7312 12.7356 10.6715C11.8507 10.5871 10.8488 10.6012 9.84502 10.5453C8.58403 10.4752 7.58737 10.5125 6.69475 10.6636C6.18981 10.7492 6.05705 10.9223 5.80503 10.9318L5.66372 11.4065L5.53771 11.4113" fill="#3BC9DB"/>
<path d="M13.6706 16.7395L3.96777 17.1038L3.74597 23.9192L13.4488 23.5549L13.6706 16.7395Z" fill="#3BC9DB"/>
<path d="M80.0981 2.03952L63.8428 2.64989L63.3609 17.4557L79.6163 16.8453L80.0981 2.03952Z" fill="#3BC9DB"/>
<path d="M13.1395 29.1989L1.29443 29.6436L1.01909 38.1041L12.8641 37.6594L13.1395 29.1989Z" fill="#3BC9DB"/>
<path d="M12.4412 23.5928L2.48633 23.9666L2.26452 30.7819L12.2194 30.4081L12.4412 23.5928Z" fill="#3BC9DB"/>
<path d="M79.5138 8.39907L69.937 8.75867L69.8529 11.3438L79.4297 10.9842L79.5138 8.39907Z" fill="#3BC9DB"/>
<path d="M78.9792 9.35804L72.6787 9.59462L72.4799 15.705L78.7804 15.4684L78.9792 9.35804Z" fill="#3BC9DB"/>
<path d="M78.7577 16.1734L71.9531 16.4289L71.7237 23.4793L78.5282 23.2238L78.7577 16.1734Z" fill="#3BC9DB"/>
<path d="M9.35123 29.5769L3.93311 29.7804L3.66543 38.0053L9.08355 37.8019L9.35123 29.5769Z" fill="#3BC9DB"/>
<path d="M9.84765 37.539L2.66504 37.8087L2.55031 41.3338L9.73293 41.0641L9.84765 37.539Z" fill="#3BC9DB"/>
<path d="M6.57861 37.427L1.9165 37.602L1.74825 42.772L6.41036 42.5969L6.57861 37.427Z" fill="#3BC9DB"/>
</g>
<g opacity="0.5" clip-path="url(#clip1)">
<path d="M74.9543 43.8922L9.34863 39.2217L9.62469 1.87418L75.2304 6.54465L74.9543 43.8922Z" fill="#3BC9DB"/>
<path d="M9.26645 34.7509C9.38135 34.7591 9.84157 34.8959 10.7601 34.8573C11.7998 34.8136 14.0996 34.4395 15.248 34.2367C16.056 34.094 16.5136 34.0918 16.7451 33.8733C16.9767 33.6547 16.8609 33.5632 16.2873 33.6057C15.476 33.6657 14.5616 33.6242 13.6429 33.6524C12.4888 33.6879 11.58 33.6234 10.7705 33.4479C10.3126 33.3487 10.1978 33.1722 9.96799 33.1558L9.85656 32.6778L9.74167 32.6697" fill="#3BC9DB"/>
<path d="M17.3665 27.5719L8.51953 26.942L8.56988 20.1302L17.4169 20.76L17.3665 27.5719Z" fill="#3BC9DB"/>
<path d="M77.4823 44.0722L62.6606 43.0171L62.77 28.219L77.5916 29.2741L77.4823 44.0722Z" fill="#3BC9DB"/>
<path d="M17.3442 15.1148L6.54395 14.346L6.60645 5.88991L17.4067 6.65878L17.3442 15.1148Z" fill="#3BC9DB"/>
<path d="M16.4982 20.6946L7.42139 20.0484L7.47174 13.2366L16.5485 13.8828L16.4982 20.6946Z" fill="#3BC9DB"/>
<path d="M77.1847 37.7056L68.4526 37.084L68.4717 34.5002L77.2038 35.1218L77.1847 37.7056Z" fill="#3BC9DB"/>
<path d="M76.7317 36.7334L70.9868 36.3244L71.032 30.2172L76.7768 30.6262L76.7317 36.7334Z" fill="#3BC9DB"/>
<path d="M76.782 29.9215L70.5776 29.4798L70.6297 22.4331L76.8341 22.8748L76.782 29.9215Z" fill="#3BC9DB"/>
<path d="M13.8982 14.6342L8.95801 14.2825L9.01877 6.06185L13.959 6.41354L13.8982 14.6342Z" fill="#3BC9DB"/>
<path d="M14.6472 6.697L8.09814 6.23077L8.12419 2.70743L14.6733 3.17366L14.6472 6.697Z" fill="#3BC9DB"/>
<path d="M11.6576 6.71923L7.40674 6.41661L7.44493 1.24934L11.6958 1.55196L11.6576 6.71923Z" fill="#3BC9DB"/>
</g>
<defs>
<clipPath id="clip0">
<rect width="78.0747" height="37.8571" fill="white" transform="matrix(0.999052 -0.0375131 -0.0325276 0.999473 2.09766 4.96837)"/>
</clipPath>
<clipPath id="clip1">
<rect width="71.2803" height="37.8217" fill="white" transform="matrix(0.997761 0.0710307 0.0073907 -0.999885 6.36133 39.0091)"/>
</clipPath>
</defs>
</svg>
