<svg width="81" height="46" viewBox="0 0 81 46" fill="none" xmlns="http://www.w3.org/2000/svg">
<g opacity="0.5" clip-path="url(#clip0)">
<path d="M77.2566 2.11762L5.30444 4.81934L4.08834 42.1864L76.0405 39.4847L77.2566 2.11762Z" fill="#51CF66"/>
<path d="M5.03268 9.28907C5.15869 9.28434 5.66766 9.16138 6.67082 9.22756C7.80632 9.30246 10.3067 9.74571 11.5546 9.98308C12.4327 10.1501 12.9331 10.166 13.1775 10.3916C13.4219 10.6171 13.2916 10.7052 12.6658 10.6455C11.7808 10.5611 10.779 10.5752 9.77519 10.5193C8.5142 10.4492 7.51755 10.4865 6.62493 10.6376C6.11998 10.7232 5.98722 10.8963 5.7352 10.9058L5.59389 11.3805L5.46788 11.3853" fill="#51CF66"/>
<path d="M13.6008 16.7135L3.89795 17.0778L3.67614 23.8932L13.379 23.5289L13.6008 16.7135Z" fill="#51CF66"/>
<path d="M80.0283 2.01353L63.7729 2.6239L63.2911 17.4297L79.5465 16.8194L80.0283 2.01353Z" fill="#51CF66"/>
<path d="M13.0696 29.1729L1.22461 29.6177L0.949265 38.0781L12.7943 37.6334L13.0696 29.1729Z" fill="#51CF66"/>
<path d="M12.3711 23.5668L2.41626 23.9406L2.19446 30.7559L12.1493 30.3821L12.3711 23.5668Z" fill="#51CF66"/>
<path d="M79.4438 8.37307L69.8669 8.73267L69.7828 11.3178L79.3596 10.9582L79.4438 8.37307Z" fill="#51CF66"/>
<path d="M78.9094 9.33203L72.6089 9.5686L72.41 15.6789L78.7106 15.4424L78.9094 9.33203Z" fill="#51CF66"/>
<path d="M78.6876 16.1475L71.8831 16.403L71.6536 23.4534L78.4582 23.1979L78.6876 16.1475Z" fill="#51CF66"/>
<path d="M9.28141 29.551L3.86328 29.7544L3.5956 37.9793L9.01373 37.7759L9.28141 29.551Z" fill="#51CF66"/>
<path d="M9.77783 37.513L2.59521 37.7827L2.48049 41.3078L9.6631 41.0381L9.77783 37.513Z" fill="#51CF66"/>
<path d="M6.50879 37.401L1.84668 37.576L1.67842 42.746L6.34053 42.571L6.50879 37.401Z" fill="#51CF66"/>
</g>
<g opacity="0.5" clip-path="url(#clip1)">
<path d="M74.8843 43.8662L9.27856 39.1957L9.55462 1.84818L75.1603 6.51865L74.8843 43.8662Z" fill="#51CF66"/>
<path d="M9.19687 34.725C9.31177 34.7332 9.77199 34.8699 10.6905 34.8313C11.7302 34.7877 14.03 34.4136 15.1784 34.2108C15.9864 34.0681 16.444 34.0658 16.6755 33.8473C16.9071 33.6288 16.7913 33.5372 16.2177 33.5797C15.4064 33.6398 14.4921 33.5982 13.5733 33.6265C12.4192 33.662 11.5105 33.5974 10.7009 33.422C10.243 33.3227 10.1282 33.1462 9.89841 33.1298L9.78698 32.6519L9.67209 32.6437" fill="#51CF66"/>
<path d="M17.2967 27.5459L8.44971 26.9161L8.50006 20.1043L17.3471 20.7341L17.2967 27.5459Z" fill="#51CF66"/>
<path d="M77.4122 44.0462L62.5906 42.9911L62.7 28.193L77.5216 29.2481L77.4122 44.0462Z" fill="#51CF66"/>
<path d="M17.2741 15.0889L6.47388 14.32L6.53638 5.86395L17.3366 6.63282L17.2741 15.0889Z" fill="#51CF66"/>
<path d="M16.4281 20.6686L7.35132 20.0225L7.40167 13.2106L16.4785 13.8568L16.4281 20.6686Z" fill="#51CF66"/>
<path d="M77.1149 37.6796L68.3828 37.058L68.4019 34.4742L77.134 35.0958L77.1149 37.6796Z" fill="#51CF66"/>
<path d="M76.6621 36.7074L70.9172 36.2985L70.9624 30.1913L76.7072 30.6003L76.6621 36.7074Z" fill="#51CF66"/>
<path d="M76.712 29.8955L70.5076 29.4539L70.5597 22.4071L76.7641 22.8488L76.712 29.8955Z" fill="#51CF66"/>
<path d="M13.8284 14.6082L8.88818 14.2565L8.94895 6.03589L13.8892 6.38758L13.8284 14.6082Z" fill="#51CF66"/>
<path d="M14.5774 6.67106L8.02832 6.20483L8.05436 2.68149L14.6034 3.14772L14.5774 6.67106Z" fill="#51CF66"/>
<path d="M11.5878 6.69325L7.33691 6.39062L7.37511 1.22335L11.626 1.52597L11.5878 6.69325Z" fill="#51CF66"/>
</g>
<defs>
<clipPath id="clip0">
<rect width="78.0747" height="37.8571" fill="white" transform="matrix(0.999052 -0.0375131 -0.0325276 0.999473 2.02783 4.94238)"/>
</clipPath>
<clipPath id="clip1">
<rect width="71.2803" height="37.8217" fill="white" transform="matrix(0.997761 0.0710307 0.0073907 -0.999885 6.2915 38.9832)"/>
</clipPath>
</defs>
</svg>
