<svg width="470" height="400" viewBox="0 0 470 400" fill="none" xmlns="http://www.w3.org/2000/svg">
<g clip-path="url(#clip0_10764_79897)">
<rect width="470" height="400" fill="white"/>
<path d="M20 34C20 25.1634 27.1634 18 36 18H522C530.837 18 538 25.1634 538 34V366C538 374.837 530.837 382 522 382H36C27.1634 382 20 374.837 20 366V34Z" fill="white"/>
<path d="M36 18.5H522C530.56 18.5 537.5 25.4396 537.5 34V366C537.5 374.56 530.56 381.5 522 381.5H36C27.4396 381.5 20.5 374.56 20.5 366V34C20.5 25.4396 27.4396 18.5 36 18.5Z" stroke="black" stroke-opacity="0.1"/>
<path d="M36.5054 50L40.4019 39.4312H41.4126V41.1377H40.9951L37.8896 50H36.5054ZM38.2705 46.9751L38.6807 45.8545H43.4561L43.8662 46.9751H38.2705ZM44.2178 50L41.1123 41.1377V39.4312H41.7056L45.6021 50H44.2178ZM48.5024 50L45.5801 42.1045H46.9277L49.0884 48.6084H49.2056L51.3662 42.1045H52.7139L49.7915 50H48.5024ZM57.3281 50.1392C56.5762 50.1392 55.9292 49.9731 55.3872 49.6411C54.8501 49.3091 54.4351 48.8403 54.1421 48.2349C53.854 47.6245 53.71 46.9067 53.71 46.0815V46.0742C53.71 45.2588 53.854 44.5435 54.1421 43.9282C54.4351 43.313 54.8477 42.832 55.3799 42.4854C55.9121 42.1387 56.5347 41.9653 57.2476 41.9653C57.9653 41.9653 58.5806 42.1313 59.0933 42.4634C59.6108 42.7954 60.0063 43.2593 60.2798 43.855C60.5581 44.4458 60.6973 45.1343 60.6973 45.9204V46.4185H54.3691V45.4004H60.0454L59.4155 46.3306V45.8252C59.4155 45.2051 59.3228 44.6948 59.1372 44.2944C58.9517 43.894 58.6953 43.5962 58.3682 43.4009C58.041 43.2007 57.665 43.1006 57.2402 43.1006C56.8154 43.1006 56.4346 43.2056 56.0977 43.4155C55.7656 43.6206 55.502 43.9258 55.3066 44.3311C55.1113 44.7363 55.0137 45.2344 55.0137 45.8252V46.3306C55.0137 46.8921 55.1089 47.373 55.2993 47.7734C55.4897 48.1689 55.7607 48.4741 56.1123 48.689C56.4639 48.8989 56.8789 49.0039 57.3574 49.0039C57.7139 49.0039 58.0239 48.9551 58.2876 48.8574C58.5513 48.7598 58.7686 48.6353 58.9395 48.4839C59.1104 48.3325 59.23 48.1787 59.2983 48.0225L59.3276 47.9565H60.6021L60.5874 48.0151C60.519 48.2837 60.397 48.5449 60.2212 48.7988C60.0503 49.0479 59.8281 49.2749 59.5547 49.48C59.2812 49.6802 58.9565 49.8413 58.5806 49.9634C58.2095 50.0806 57.792 50.1392 57.3281 50.1392ZM62.6748 50V42.1045H63.9492V43.2764H64.0664C64.2178 42.8613 64.4741 42.5391 64.8354 42.3096C65.1968 42.0801 65.6436 41.9653 66.1758 41.9653C66.2979 41.9653 66.4175 41.9727 66.5347 41.9873C66.6567 41.9971 66.7495 42.0068 66.813 42.0166V43.2544C66.6812 43.23 66.5518 43.2129 66.4248 43.2031C66.3027 43.1885 66.1709 43.1812 66.0293 43.1812C65.624 43.1812 65.2651 43.2617 64.9526 43.4229C64.6401 43.584 64.3936 43.8086 64.2129 44.0967C64.0371 44.3848 63.9492 44.7217 63.9492 45.1074V50H62.6748ZM70.5557 50.1392C70.0576 50.1392 69.6084 50.0439 69.208 49.8535C68.8125 49.6631 68.4976 49.3921 68.2632 49.0405C68.0337 48.689 67.9189 48.2739 67.9189 47.7954V47.7808C67.9189 47.312 68.0312 46.9116 68.2559 46.5796C68.4805 46.2427 68.8076 45.979 69.2373 45.7886C69.667 45.5981 70.187 45.4858 70.7974 45.4517L73.6978 45.2759V46.2939L70.9512 46.4697C70.3506 46.5039 69.9111 46.6284 69.6328 46.8433C69.3594 47.0581 69.2227 47.3608 69.2227 47.7515V47.7661C69.2227 48.1665 69.374 48.479 69.6768 48.7036C69.9795 48.9233 70.3604 49.0332 70.8193 49.0332C71.2539 49.0332 71.6396 48.9478 71.9766 48.7769C72.3135 48.6011 72.5771 48.3643 72.7676 48.0664C72.9629 47.7686 73.0605 47.4316 73.0605 47.0557V44.5947C73.0605 44.1064 72.9116 43.7354 72.6138 43.4814C72.3208 43.2227 71.8789 43.0933 71.2881 43.0933C70.8145 43.0933 70.4263 43.1787 70.1235 43.3496C69.8208 43.5156 69.6182 43.7524 69.5156 44.0601L69.5083 44.082H68.2339L68.2412 44.0381C68.3096 43.623 68.4805 43.2617 68.7539 42.9541C69.0322 42.6416 69.3911 42.3999 69.8306 42.229C70.27 42.0532 70.7705 41.9653 71.332 41.9653C71.9766 41.9653 72.521 42.0703 72.9653 42.2803C73.4146 42.4902 73.7539 42.793 73.9834 43.1885C74.2178 43.5791 74.335 44.0479 74.335 44.5947V50H73.0605V48.8354H72.9434C72.7773 49.1138 72.5747 49.3506 72.3354 49.5459C72.1011 49.7412 71.835 49.8901 71.5371 49.9927C71.2393 50.0903 70.9121 50.1392 70.5557 50.1392ZM79.916 52.7832C79.2812 52.7832 78.7271 52.6929 78.2534 52.5122C77.7798 52.3364 77.4014 52.085 77.1182 51.7578C76.8398 51.4355 76.6665 51.0596 76.5981 50.6299L76.6128 50.6226H77.9312L77.9385 50.6299C78.0068 50.9277 78.2119 51.1719 78.5537 51.3623C78.8955 51.5576 79.3496 51.6553 79.916 51.6553C80.624 51.6553 81.1758 51.4941 81.5713 51.1719C81.9717 50.8545 82.1719 50.4053 82.1719 49.8242V48.2275H82.0547C81.8887 48.5156 81.6812 48.7622 81.4321 48.9673C81.1831 49.1724 80.9023 49.3286 80.5898 49.436C80.2773 49.5386 79.9404 49.5898 79.5791 49.5898C78.9004 49.5898 78.312 49.4287 77.814 49.1064C77.3208 48.7793 76.9399 48.3301 76.6714 47.7588C76.4028 47.1875 76.2686 46.5332 76.2686 45.7959V45.7812C76.2686 45.0439 76.4028 44.3896 76.6714 43.8184C76.9448 43.2422 77.3306 42.7905 77.8286 42.4634C78.3267 42.1313 78.9199 41.9653 79.6084 41.9653C79.9795 41.9653 80.3213 42.0239 80.6338 42.1411C80.9463 42.2583 81.2222 42.4243 81.4614 42.6392C81.7056 42.854 81.9082 43.1104 82.0693 43.4082H82.1572V42.1045H83.4316V49.8901C83.4316 50.4761 83.2876 50.9863 82.9995 51.4209C82.7163 51.8555 82.311 52.1899 81.7837 52.4243C81.2563 52.6636 80.6338 52.7832 79.916 52.7832ZM79.8574 48.4619C80.3457 48.4619 80.7632 48.3496 81.1099 48.125C81.4614 47.8955 81.73 47.5806 81.9155 47.1802C82.106 46.7798 82.2012 46.3184 82.2012 45.7959V45.7812C82.2012 45.2588 82.106 44.7949 81.9155 44.3896C81.73 43.9844 81.4614 43.667 81.1099 43.4375C80.7632 43.208 80.3457 43.0933 79.8574 43.0933C79.3691 43.0933 78.9541 43.208 78.6123 43.4375C78.2754 43.667 78.0166 43.9844 77.8359 44.3896C77.6602 44.7949 77.5723 45.2588 77.5723 45.7812V45.7959C77.5723 46.3184 77.6602 46.7798 77.8359 47.1802C78.0166 47.5806 78.2754 47.8955 78.6123 48.125C78.9541 48.3496 79.3691 48.4619 79.8574 48.4619ZM89.0273 50.1392C88.2754 50.1392 87.6284 49.9731 87.0864 49.6411C86.5493 49.3091 86.1343 48.8403 85.8413 48.2349C85.5532 47.6245 85.4092 46.9067 85.4092 46.0815V46.0742C85.4092 45.2588 85.5532 44.5435 85.8413 43.9282C86.1343 43.313 86.5469 42.832 87.0791 42.4854C87.6113 42.1387 88.2339 41.9653 88.9468 41.9653C89.6646 41.9653 90.2798 42.1313 90.7925 42.4634C91.3101 42.7954 91.7056 43.2593 91.979 43.855C92.2573 44.4458 92.3965 45.1343 92.3965 45.9204V46.4185H86.0684V45.4004H91.7446L91.1147 46.3306V45.8252C91.1147 45.2051 91.022 44.6948 90.8364 44.2944C90.6509 43.894 90.3945 43.5962 90.0674 43.4009C89.7402 43.2007 89.3643 43.1006 88.9395 43.1006C88.5146 43.1006 88.1338 43.2056 87.7969 43.4155C87.4648 43.6206 87.2012 43.9258 87.0059 44.3311C86.8105 44.7363 86.7129 45.2344 86.7129 45.8252V46.3306C86.7129 46.8921 86.8081 47.373 86.9985 47.7734C87.189 48.1689 87.46 48.4741 87.8115 48.689C88.1631 48.8989 88.5781 49.0039 89.0566 49.0039C89.4131 49.0039 89.7231 48.9551 89.9868 48.8574C90.2505 48.7598 90.4678 48.6353 90.6387 48.4839C90.8096 48.3325 90.9292 48.1787 90.9976 48.0225L91.0269 47.9565H92.3013L92.2866 48.0151C92.2183 48.2837 92.0962 48.5449 91.9204 48.7988C91.7495 49.0479 91.5273 49.2749 91.2539 49.48C90.9805 49.6802 90.6558 49.8413 90.2798 49.9634C89.9087 50.0806 89.4912 50.1392 89.0273 50.1392ZM103.009 50.249C102.052 50.249 101.225 50.0244 100.526 49.5752C99.8281 49.126 99.2886 48.4888 98.9077 47.6636C98.5317 46.8384 98.3438 45.8594 98.3438 44.7266V44.7119C98.3438 43.5742 98.5317 42.5928 98.9077 41.7676C99.2886 40.9424 99.8257 40.3052 100.519 39.856C101.217 39.4067 102.045 39.1821 103.002 39.1821C103.744 39.1821 104.418 39.3286 105.023 39.6216C105.634 39.9097 106.137 40.3125 106.532 40.8301C106.928 41.3428 107.177 41.936 107.279 42.6099L107.272 42.6245H105.946L105.939 42.6099C105.822 42.1558 105.624 41.7651 105.346 41.438C105.067 41.106 104.728 40.8496 104.328 40.6689C103.932 40.4883 103.49 40.3979 103.002 40.3979C102.328 40.3979 101.742 40.5737 101.244 40.9253C100.751 41.2769 100.37 41.7749 100.102 42.4194C99.833 43.064 99.6987 43.8281 99.6987 44.7119V44.7266C99.6987 45.6055 99.833 46.3672 100.102 47.0117C100.37 47.6562 100.751 48.1543 101.244 48.5059C101.742 48.8574 102.331 49.0332 103.009 49.0332C103.502 49.0332 103.949 48.9551 104.35 48.7988C104.75 48.6377 105.087 48.4106 105.36 48.1177C105.634 47.8198 105.824 47.4683 105.932 47.063L105.946 47.0483H107.279V47.063C107.162 47.7075 106.908 48.269 106.518 48.7476C106.127 49.2212 105.631 49.5898 105.031 49.8535C104.435 50.1172 103.761 50.249 103.009 50.249ZM112.956 50.249C112.184 50.249 111.51 50.1245 110.934 49.8755C110.363 49.6216 109.909 49.2749 109.572 48.8354C109.24 48.3911 109.047 47.8833 108.993 47.312L108.986 47.2314H110.304L110.312 47.312C110.346 47.6636 110.48 47.9688 110.714 48.2275C110.954 48.4814 111.271 48.6792 111.667 48.8208C112.067 48.9624 112.521 49.0332 113.029 49.0332C113.507 49.0332 113.932 48.9575 114.303 48.8062C114.679 48.6499 114.975 48.4351 115.189 48.1616C115.404 47.8882 115.512 47.5732 115.512 47.2168V47.2095C115.512 46.77 115.351 46.4014 115.028 46.1035C114.706 45.8008 114.181 45.5688 113.454 45.4077L112.282 45.1514C111.222 44.917 110.451 44.5557 109.967 44.0674C109.489 43.5742 109.25 42.9443 109.25 42.1777V42.1704C109.254 41.5845 109.413 41.0669 109.726 40.6177C110.043 40.1685 110.48 39.8169 111.037 39.563C111.598 39.3091 112.243 39.1821 112.97 39.1821C113.673 39.1821 114.296 39.3091 114.838 39.563C115.38 39.812 115.81 40.1489 116.127 40.5737C116.449 40.9985 116.627 41.4746 116.662 42.002L116.669 42.1045H115.351L115.336 42.0093C115.287 41.6968 115.16 41.4209 114.955 41.1816C114.75 40.9375 114.477 40.7446 114.135 40.603C113.793 40.4614 113.393 40.3931 112.934 40.3979C112.494 40.3979 112.099 40.4663 111.747 40.603C111.396 40.7397 111.115 40.9375 110.905 41.1963C110.7 41.4502 110.597 41.7627 110.597 42.1338V42.1411C110.597 42.561 110.753 42.915 111.066 43.2031C111.378 43.4912 111.894 43.7134 112.611 43.8696L113.783 44.1333C114.521 44.2944 115.114 44.5044 115.563 44.7632C116.012 45.022 116.339 45.3394 116.544 45.7153C116.754 46.0864 116.859 46.5259 116.859 47.0337V47.041C116.859 47.7002 116.698 48.269 116.376 48.7476C116.054 49.2261 115.6 49.5972 115.014 49.8608C114.428 50.1196 113.742 50.249 112.956 50.249ZM118.214 50L122.111 39.4312H123.122V41.1377H122.704L119.599 50H118.214ZM119.979 46.9751L120.39 45.8545H125.165L125.575 46.9751H119.979ZM125.927 50L122.821 41.1377V39.4312H123.415L127.311 50H125.927ZM130.666 50V40.6177H127.26V39.4312H135.39V40.6177H131.984V50H130.666Z" fill="black"/>
<path d="M54.3027 84.1992C53.7793 84.1992 53.3125 84.0957 52.9023 83.8887C52.4922 83.6816 52.1621 83.4004 51.9121 83.0449C51.666 82.6855 51.5215 82.2812 51.4785 81.832L51.4727 81.7676H52.4863L52.4922 81.8145C52.5273 82.084 52.625 82.3301 52.7852 82.5527C52.9492 82.7715 53.1621 82.9453 53.4238 83.0742C53.6895 83.2031 53.9863 83.2676 54.3145 83.2676C54.6895 83.2676 55.0195 83.1855 55.3047 83.0215C55.5898 82.8535 55.8125 82.623 55.9727 82.3301C56.1328 82.0371 56.2129 81.7012 56.2129 81.3223V81.3105C56.2129 80.9355 56.1309 80.6035 55.9668 80.3145C55.8066 80.0215 55.5859 79.793 55.3047 79.6289C55.0234 79.4648 54.6992 79.3828 54.332 79.3828C54.0508 79.3828 53.791 79.4258 53.5527 79.5117C53.3184 79.5977 53.1094 79.7266 52.9258 79.8984C52.8516 79.9688 52.7812 80.0449 52.7148 80.127C52.6523 80.209 52.5938 80.3008 52.5391 80.4023H51.625L52.0703 75.5449H56.7754V76.4883H52.9023L52.6152 79.3477H52.709C52.834 79.1562 52.9883 78.9961 53.1719 78.8672C53.3555 78.7383 53.5605 78.6406 53.7871 78.5742C54.0176 78.5039 54.2598 78.4688 54.5137 78.4688C55.0449 78.4688 55.5156 78.5918 55.9258 78.8379C56.3359 79.0801 56.6582 79.4141 56.8926 79.8398C57.127 80.2617 57.2441 80.7461 57.2441 81.293V81.3047C57.2441 81.8711 57.1172 82.373 56.8633 82.8105C56.6133 83.2441 56.2676 83.584 55.8262 83.8301C55.3848 84.0762 54.877 84.1992 54.3027 84.1992Z" fill="#222222" fill-opacity="0.5"/>
<path opacity="0.5" fill-rule="evenodd" clip-rule="evenodd" d="M522 79.9989H66V79H522V79.9989Z" fill="black" fill-opacity="0.1"/>
<path d="M55.082 141V139.248H50.9629V138.287C51.1934 137.904 51.4277 137.518 51.666 137.127C51.9043 136.732 52.1445 136.34 52.3867 135.949C52.6328 135.555 52.8789 135.164 53.125 134.777C53.3711 134.391 53.6152 134.01 53.8574 133.635C54.1035 133.26 54.3457 132.896 54.584 132.545H56.1133V138.305H57.3145V139.248H56.1133V141H55.082ZM52.041 138.311H55.0879V133.523H55.0176C54.8262 133.809 54.6309 134.105 54.4316 134.414C54.2324 134.719 54.0293 135.031 53.8223 135.352C53.6191 135.672 53.416 135.994 53.2129 136.318C53.0098 136.643 52.8086 136.967 52.6094 137.291C52.4141 137.611 52.2246 137.928 52.041 138.24V138.311Z" fill="#222222" fill-opacity="0.5"/>
<path opacity="0.5" fill-rule="evenodd" clip-rule="evenodd" d="M522 136.999H66V136H522V136.999Z" fill="black" fill-opacity="0.1"/>
<path d="M54.2969 198.141C53.7148 198.141 53.207 198.041 52.7734 197.842C52.3398 197.643 51.9961 197.369 51.7422 197.021C51.4922 196.674 51.3477 196.277 51.3086 195.832L51.3027 195.762H52.3164L52.3223 195.82C52.3496 196.098 52.4473 196.342 52.6152 196.553C52.7871 196.764 53.0156 196.93 53.3008 197.051C53.5898 197.168 53.9219 197.227 54.2969 197.227C54.668 197.227 54.9922 197.162 55.2695 197.033C55.5508 196.904 55.7695 196.727 55.9258 196.5C56.082 196.27 56.1602 196.006 56.1602 195.709V195.697C56.1602 195.178 55.9863 194.779 55.6387 194.502C55.2949 194.221 54.8262 194.08 54.2324 194.08H53.1719V193.189H54.1855C54.5215 193.189 54.8184 193.127 55.0762 193.002C55.334 192.873 55.5352 192.699 55.6797 192.48C55.8242 192.258 55.8965 192.006 55.8965 191.725V191.713C55.8965 191.416 55.834 191.164 55.709 190.957C55.584 190.75 55.4004 190.592 55.1582 190.482C54.9199 190.373 54.6289 190.318 54.2852 190.318C53.9531 190.318 53.6562 190.375 53.3945 190.488C53.1367 190.598 52.9297 190.756 52.7734 190.963C52.6172 191.17 52.5234 191.416 52.4922 191.701L52.4863 191.76H51.4727L51.4785 191.701C51.5254 191.24 51.6699 190.838 51.9121 190.494C52.1582 190.15 52.4824 189.883 52.8848 189.691C53.291 189.5 53.7578 189.404 54.2852 189.404C54.8242 189.404 55.293 189.498 55.6914 189.686C56.0938 189.869 56.4043 190.125 56.623 190.453C56.8457 190.777 56.957 191.154 56.957 191.584V191.596C56.957 191.943 56.8809 192.252 56.7285 192.521C56.5762 192.791 56.3652 193.016 56.0957 193.195C55.8262 193.375 55.5156 193.502 55.1641 193.576V193.6C55.7812 193.65 56.2793 193.859 56.6582 194.227C57.041 194.59 57.2324 195.072 57.2324 195.674V195.686C57.2324 196.154 57.1055 196.574 56.8516 196.945C56.5977 197.316 56.25 197.609 55.8086 197.824C55.3672 198.035 54.8633 198.141 54.2969 198.141Z" fill="#222222" fill-opacity="0.5"/>
<path opacity="0.5" fill-rule="evenodd" clip-rule="evenodd" d="M522 193.999H66V193H522V193.999Z" fill="black" fill-opacity="0.1"/>
<path d="M51.7012 255V254.273L54.5605 251.18C54.9199 250.789 55.2012 250.467 55.4043 250.213C55.6074 249.955 55.75 249.723 55.832 249.516C55.9141 249.309 55.9551 249.082 55.9551 248.836V248.824C55.9551 248.527 55.8906 248.262 55.7617 248.027C55.6328 247.793 55.4492 247.607 55.2109 247.471C54.9727 247.334 54.6875 247.266 54.3555 247.266C54.0195 247.266 53.7246 247.336 53.4707 247.477C53.2168 247.613 53.0195 247.807 52.8789 248.057C52.7383 248.303 52.668 248.592 52.668 248.924L52.6621 248.936L51.6543 248.93L51.6426 248.924C51.6465 248.424 51.7676 247.98 52.0059 247.594C52.2441 247.203 52.5723 246.898 52.9902 246.68C53.4082 246.457 53.8867 246.346 54.4258 246.346C54.918 246.346 55.3613 246.449 55.7559 246.656C56.1504 246.859 56.4609 247.139 56.6875 247.494C56.918 247.85 57.0332 248.256 57.0332 248.713V248.725C57.0332 249.045 56.9766 249.354 56.8633 249.65C56.7539 249.947 56.5586 250.277 56.2773 250.641C55.9961 251 55.5996 251.443 55.0879 251.971L52.9023 254.227L53.166 253.74V254.227L52.9082 254.051H57.1738V255H51.7012Z" fill="#222222" fill-opacity="0.5"/>
<path opacity="0.5" fill-rule="evenodd" clip-rule="evenodd" d="M522 250.999H66V250H522V250.999Z" fill="black" fill-opacity="0.1"/>
<path d="M54.2148 304.199C53.5898 304.199 53.0547 304.02 52.6094 303.66C52.168 303.301 51.8281 302.791 51.5898 302.131C51.3516 301.467 51.2324 300.682 51.2324 299.775V299.764C51.2324 298.857 51.3516 298.074 51.5898 297.414C51.8281 296.754 52.168 296.244 52.6094 295.885C53.0547 295.525 53.5898 295.346 54.2148 295.346C54.8398 295.346 55.375 295.525 55.8203 295.885C56.2656 296.244 56.6074 296.754 56.8457 297.414C57.0879 298.074 57.209 298.857 57.209 299.764V299.775C57.209 300.682 57.0879 301.467 56.8457 302.131C56.6074 302.791 56.2656 303.301 55.8203 303.66C55.375 304.02 54.8398 304.199 54.2148 304.199ZM54.2148 303.279C54.6211 303.279 54.9668 303.137 55.252 302.852C55.541 302.566 55.7617 302.162 55.9141 301.639C56.0703 301.115 56.1484 300.494 56.1484 299.775V299.764C56.1484 299.045 56.0703 298.426 55.9141 297.906C55.7617 297.383 55.541 296.98 55.252 296.699C54.9668 296.414 54.6211 296.271 54.2148 296.271C53.8125 296.271 53.4668 296.414 53.1777 296.699C52.8926 296.98 52.6738 297.383 52.5215 297.906C52.3691 298.426 52.293 299.045 52.293 299.764V299.775C52.293 300.494 52.3691 301.115 52.5215 301.639C52.6738 302.162 52.8926 302.566 53.1777 302.852C53.4668 303.137 53.8125 303.279 54.2148 303.279Z" fill="#222222" fill-opacity="0.5"/>
<path opacity="0.5" fill-rule="evenodd" clip-rule="evenodd" d="M522 299.999H66V299H522V299.999Z" fill="#222222" fill-opacity="0.5"/>
<path d="M103.012 321V313.717H102.918L100.768 315.275V314.162L103.018 312.545H104.066V321H103.012ZM109.34 321.199C108.715 321.199 108.18 321.02 107.734 320.66C107.293 320.301 106.953 319.791 106.715 319.131C106.477 318.467 106.357 317.682 106.357 316.775V316.764C106.357 315.857 106.477 315.074 106.715 314.414C106.953 313.754 107.293 313.244 107.734 312.885C108.18 312.525 108.715 312.346 109.34 312.346C109.965 312.346 110.5 312.525 110.945 312.885C111.391 313.244 111.732 313.754 111.971 314.414C112.213 315.074 112.334 315.857 112.334 316.764V316.775C112.334 317.682 112.213 318.467 111.971 319.131C111.732 319.791 111.391 320.301 110.945 320.66C110.5 321.02 109.965 321.199 109.34 321.199ZM109.34 320.279C109.746 320.279 110.092 320.137 110.377 319.852C110.666 319.566 110.887 319.162 111.039 318.639C111.195 318.115 111.273 317.494 111.273 316.775V316.764C111.273 316.045 111.195 315.426 111.039 314.906C110.887 314.383 110.666 313.98 110.377 313.699C110.092 313.414 109.746 313.271 109.34 313.271C108.938 313.271 108.592 313.414 108.303 313.699C108.018 313.98 107.799 314.383 107.646 314.906C107.494 315.426 107.418 316.045 107.418 316.764V316.775C107.418 317.494 107.494 318.115 107.646 318.639C107.799 319.162 108.018 319.566 108.303 319.852C108.592 320.137 108.938 320.279 109.34 320.279Z" fill="#222222" fill-opacity="0.5"/>
<path d="M195.012 321V313.717H194.918L192.768 315.275V314.162L195.018 312.545H196.066V321H195.012ZM198.861 321L202.658 313.57V313.488H198.135V312.545H203.73V313.523L199.969 321H198.861Z" fill="#222222" fill-opacity="0.5"/>
<path d="M283.943 321V320.273L286.803 317.18C287.162 316.789 287.443 316.467 287.646 316.213C287.85 315.955 287.992 315.723 288.074 315.516C288.156 315.309 288.197 315.082 288.197 314.836V314.824C288.197 314.527 288.133 314.262 288.004 314.027C287.875 313.793 287.691 313.607 287.453 313.471C287.215 313.334 286.93 313.266 286.598 313.266C286.262 313.266 285.967 313.336 285.713 313.477C285.459 313.613 285.262 313.807 285.121 314.057C284.98 314.303 284.91 314.592 284.91 314.924L284.904 314.936L283.896 314.93L283.885 314.924C283.889 314.424 284.01 313.98 284.248 313.594C284.486 313.203 284.814 312.898 285.232 312.68C285.65 312.457 286.129 312.346 286.668 312.346C287.16 312.346 287.604 312.449 287.998 312.656C288.393 312.859 288.703 313.139 288.93 313.494C289.16 313.85 289.275 314.256 289.275 314.713V314.725C289.275 315.045 289.219 315.354 289.105 315.65C288.996 315.947 288.801 316.277 288.52 316.641C288.238 317 287.842 317.443 287.33 317.971L285.145 320.227L285.408 319.74V320.227L285.15 320.051H289.416V321H283.943ZM293.254 321V313.717H293.16L291.01 315.275V314.162L293.26 312.545H294.309V321H293.254Z" fill="#222222" fill-opacity="0.5"/>
<path d="M377.82 321.141C377.238 321.141 376.73 321.041 376.297 320.842C375.863 320.643 375.52 320.369 375.266 320.021C375.016 319.674 374.871 319.277 374.832 318.832L374.826 318.762H375.84L375.846 318.82C375.873 319.098 375.971 319.342 376.139 319.553C376.311 319.764 376.539 319.93 376.824 320.051C377.113 320.168 377.445 320.227 377.82 320.227C378.191 320.227 378.516 320.162 378.793 320.033C379.074 319.904 379.293 319.727 379.449 319.5C379.605 319.27 379.684 319.006 379.684 318.709V318.697C379.684 318.178 379.51 317.779 379.162 317.502C378.818 317.221 378.35 317.08 377.756 317.08H376.695V316.189H377.709C378.045 316.189 378.342 316.127 378.6 316.002C378.857 315.873 379.059 315.699 379.203 315.48C379.348 315.258 379.42 315.006 379.42 314.725V314.713C379.42 314.416 379.357 314.164 379.232 313.957C379.107 313.75 378.924 313.592 378.682 313.482C378.443 313.373 378.152 313.318 377.809 313.318C377.477 313.318 377.18 313.375 376.918 313.488C376.66 313.598 376.453 313.756 376.297 313.963C376.141 314.17 376.047 314.416 376.016 314.701L376.01 314.76H374.996L375.002 314.701C375.049 314.24 375.193 313.838 375.436 313.494C375.682 313.15 376.006 312.883 376.408 312.691C376.814 312.5 377.281 312.404 377.809 312.404C378.348 312.404 378.816 312.498 379.215 312.686C379.617 312.869 379.928 313.125 380.146 313.453C380.369 313.777 380.48 314.154 380.48 314.584V314.596C380.48 314.943 380.404 315.252 380.252 315.521C380.1 315.791 379.889 316.016 379.619 316.195C379.35 316.375 379.039 316.502 378.688 316.576V316.6C379.305 316.65 379.803 316.859 380.182 317.227C380.564 317.59 380.756 318.072 380.756 318.674V318.686C380.756 319.154 380.629 319.574 380.375 319.945C380.121 320.316 379.773 320.609 379.332 320.824C378.891 321.035 378.387 321.141 377.82 321.141ZM385.848 321V314.684H386.867V315.633H386.961C387.121 315.297 387.352 315.037 387.652 314.854C387.953 314.666 388.336 314.572 388.801 314.572C389.512 314.572 390.057 314.775 390.436 315.182C390.818 315.584 391.01 316.16 391.01 316.91V321H389.99V317.156C389.99 316.586 389.869 316.164 389.627 315.891C389.389 315.613 389.018 315.475 388.514 315.475C388.178 315.475 387.887 315.547 387.641 315.691C387.395 315.836 387.203 316.041 387.066 316.307C386.934 316.572 386.867 316.891 386.867 317.262V321H385.848ZM395.451 321.111C394.854 321.111 394.336 320.98 393.898 320.719C393.465 320.453 393.129 320.076 392.891 319.588C392.656 319.1 392.539 318.52 392.539 317.848V317.836C392.539 317.16 392.656 316.578 392.891 316.09C393.129 315.602 393.465 315.227 393.898 314.965C394.336 314.703 394.854 314.572 395.451 314.572C396.053 314.572 396.57 314.703 397.004 314.965C397.438 315.227 397.771 315.602 398.006 316.09C398.244 316.578 398.363 317.16 398.363 317.836V317.848C398.363 318.52 398.244 319.1 398.006 319.588C397.771 320.076 397.438 320.453 397.004 320.719C396.57 320.98 396.053 321.111 395.451 321.111ZM395.451 320.209C395.85 320.209 396.188 320.115 396.465 319.928C396.742 319.74 396.953 319.471 397.098 319.119C397.246 318.768 397.32 318.344 397.32 317.848V317.836C397.32 317.336 397.246 316.91 397.098 316.559C396.953 316.207 396.742 315.939 396.465 315.756C396.188 315.568 395.85 315.475 395.451 315.475C395.053 315.475 394.715 315.568 394.438 315.756C394.16 315.939 393.947 316.207 393.799 316.559C393.654 316.91 393.582 317.336 393.582 317.836V317.848C393.582 318.344 393.654 318.768 393.799 319.119C393.947 319.471 394.16 319.74 394.438 319.928C394.715 320.115 395.053 320.209 395.451 320.209ZM401.498 321L399.16 314.684H400.238L401.967 319.887H402.061L403.789 314.684H404.867L402.529 321H401.498Z" fill="#222222" fill-opacity="0.5"/>
<path d="M60.2324 220.292C92.039 215.106 112.331 191.297 126.192 188.416C140.053 185.535 159.136 180.051 186.219 175.971C213.302 171.892 221.832 182.988 246.64 184.525C271.448 186.061 298.738 156.094 311.643 152.828C324.549 149.563 348.977 150.261 363.389 146.803C377.801 143.346 401.159 138.916 410.105 137.764" stroke="#FFBD6A" stroke-linecap="round"/>
<path d="M60.2324 222.139C89.4581 222.139 112.331 220.96 126.192 223.146C140.053 225.332 170.165 248.938 186.219 250.772C202.272 252.607 222.263 272.371 246.64 272.371C271.016 272.371 298.738 242.092 311.643 244.57C324.549 247.047 348.977 295.482 363.389 298.105C377.801 300.728 401.159 263.224 410.105 264.099" stroke="#EA5F94" stroke-linecap="round"/>
<path d="M60.2324 226.406C89.4581 226.406 112.331 200.805 126.192 197.249C140.053 193.693 170.165 207.916 186.219 204.932C202.272 201.948 222.264 197.249 246.64 197.249C271.016 197.249 298.738 159.546 311.644 155.516C324.549 151.486 348.977 161.988 363.389 157.721C377.801 153.454 401.159 161.036 410.105 159.614" stroke="#602DFF" stroke-width="2.5" stroke-linecap="round"/>
<path d="M60.2324 214.883C89.6543 214.883 108.554 216.74 122.508 214.883C136.463 213.026 170.903 197.626 187.064 196.067C203.226 194.509 223.351 201.638 247.891 201.638C272.431 201.638 300.339 193.8 313.331 191.695C326.323 189.591 353.416 193.914 367.925 191.695C382.434 189.476 418.957 175.042 435.468 175.042C443.222 175.042 465.402 171.501 482.997 173.559C495.688 175.042 517.987 183.825 520.521 183.616" stroke="#AB7EFF" stroke-linecap="round" stroke-dasharray="5 5"/>
<g clip-path="url(#clip1_10764_79897)">
<rect x="36" y="341" width="140.25" height="25" rx="8" fill="white"/>
<rect x="42" y="352.125" width="21.25" height="2.75" fill="#602DFF"/>
<path d="M75.3442 359V349.618H71.9385V348.431H80.0684V349.618H76.6626V359H75.3442ZM83.7012 359.139C82.9492 359.139 82.3022 358.973 81.7603 358.641C81.2231 358.309 80.8081 357.84 80.5151 357.235C80.2271 356.625 80.083 355.907 80.083 355.082V355.074C80.083 354.259 80.2271 353.543 80.5151 352.928C80.8081 352.313 81.2207 351.832 81.7529 351.485C82.2852 351.139 82.9077 350.965 83.6206 350.965C84.3384 350.965 84.9536 351.131 85.4663 351.463C85.9839 351.795 86.3794 352.259 86.6528 352.855C86.9312 353.446 87.0703 354.134 87.0703 354.92V355.418H80.7422V354.4H86.4185L85.7886 355.331V354.825C85.7886 354.205 85.6958 353.695 85.5103 353.294C85.3247 352.894 85.0684 352.596 84.7412 352.401C84.4141 352.201 84.0381 352.101 83.6133 352.101C83.1885 352.101 82.8076 352.206 82.4707 352.416C82.1387 352.621 81.875 352.926 81.6797 353.331C81.4844 353.736 81.3867 354.234 81.3867 354.825V355.331C81.3867 355.892 81.4819 356.373 81.6724 356.773C81.8628 357.169 82.1338 357.474 82.4854 357.689C82.8369 357.899 83.252 358.004 83.7305 358.004C84.0869 358.004 84.397 357.955 84.6606 357.857C84.9243 357.76 85.1416 357.635 85.3125 357.484C85.4834 357.333 85.603 357.179 85.6714 357.022L85.7007 356.957H86.9751L86.9604 357.015C86.8921 357.284 86.77 357.545 86.5942 357.799C86.4233 358.048 86.2012 358.275 85.9277 358.48C85.6543 358.68 85.3296 358.841 84.9536 358.963C84.5825 359.081 84.165 359.139 83.7012 359.139ZM91.2158 359.139C90.7178 359.139 90.2686 359.044 89.8682 358.854C89.4727 358.663 89.1577 358.392 88.9233 358.041C88.6938 357.689 88.5791 357.274 88.5791 356.795V356.781C88.5791 356.312 88.6914 355.912 88.916 355.58C89.1406 355.243 89.4678 354.979 89.8975 354.789C90.3271 354.598 90.8472 354.486 91.4575 354.452L94.3579 354.276V355.294L91.6113 355.47C91.0107 355.504 90.5713 355.628 90.293 355.843C90.0195 356.058 89.8828 356.361 89.8828 356.751V356.766C89.8828 357.167 90.0342 357.479 90.3369 357.704C90.6396 357.923 91.0205 358.033 91.4795 358.033C91.9141 358.033 92.2998 357.948 92.6367 357.777C92.9736 357.601 93.2373 357.364 93.4277 357.066C93.623 356.769 93.7207 356.432 93.7207 356.056V353.595C93.7207 353.106 93.5718 352.735 93.2739 352.481C92.981 352.223 92.5391 352.093 91.9482 352.093C91.4746 352.093 91.0864 352.179 90.7837 352.35C90.481 352.516 90.2783 352.752 90.1758 353.06L90.1685 353.082H88.894L88.9014 353.038C88.9697 352.623 89.1406 352.262 89.4141 351.954C89.6924 351.642 90.0513 351.4 90.4907 351.229C90.9302 351.053 91.4307 350.965 91.9922 350.965C92.6367 350.965 93.1812 351.07 93.6255 351.28C94.0747 351.49 94.4141 351.793 94.6436 352.188C94.8779 352.579 94.9951 353.048 94.9951 353.595V359H93.7207V357.835H93.6035C93.4375 358.114 93.2349 358.351 92.9956 358.546C92.7612 358.741 92.4951 358.89 92.1973 358.993C91.8994 359.09 91.5723 359.139 91.2158 359.139ZM97.3242 359V351.104H98.5986V352.306H98.7158C98.8916 351.881 99.1602 351.551 99.5215 351.317C99.8877 351.083 100.33 350.965 100.847 350.965C101.204 350.965 101.523 351.024 101.807 351.141C102.09 351.258 102.334 351.422 102.539 351.632C102.744 351.837 102.908 352.076 103.03 352.35H103.147C103.289 352.071 103.479 351.83 103.718 351.625C103.958 351.415 104.233 351.253 104.546 351.141C104.863 351.024 105.203 350.965 105.564 350.965C106.101 350.965 106.555 351.065 106.926 351.266C107.302 351.466 107.588 351.759 107.783 352.145C107.979 352.525 108.076 352.992 108.076 353.543V359H106.802V353.836C106.802 353.446 106.741 353.124 106.619 352.87C106.501 352.611 106.321 352.418 106.077 352.291C105.833 352.159 105.525 352.093 105.154 352.093C104.788 352.093 104.468 352.176 104.194 352.342C103.921 352.508 103.708 352.73 103.557 353.009C103.406 353.282 103.33 353.587 103.33 353.924V359H102.056V353.639C102.056 353.326 101.987 353.055 101.851 352.826C101.719 352.591 101.528 352.411 101.279 352.284C101.035 352.157 100.747 352.093 100.415 352.093C100.073 352.093 99.7632 352.184 99.4849 352.364C99.2114 352.545 98.9941 352.789 98.833 353.097C98.6768 353.399 98.5986 353.736 98.5986 354.107V359H97.3242ZM116.763 359.139C116.265 359.139 115.815 359.044 115.415 358.854C115.02 358.663 114.705 358.392 114.47 358.041C114.241 357.689 114.126 357.274 114.126 356.795V356.781C114.126 356.312 114.238 355.912 114.463 355.58C114.688 355.243 115.015 354.979 115.444 354.789C115.874 354.598 116.394 354.486 117.004 354.452L119.905 354.276V355.294L117.158 355.47C116.558 355.504 116.118 355.628 115.84 355.843C115.566 356.058 115.43 356.361 115.43 356.751V356.766C115.43 357.167 115.581 357.479 115.884 357.704C116.187 357.923 116.567 358.033 117.026 358.033C117.461 358.033 117.847 357.948 118.184 357.777C118.521 357.601 118.784 357.364 118.975 357.066C119.17 356.769 119.268 356.432 119.268 356.056V353.595C119.268 353.106 119.119 352.735 118.821 352.481C118.528 352.223 118.086 352.093 117.495 352.093C117.021 352.093 116.633 352.179 116.331 352.35C116.028 352.516 115.825 352.752 115.723 353.06L115.715 353.082H114.441L114.448 353.038C114.517 352.623 114.688 352.262 114.961 351.954C115.239 351.642 115.598 351.4 116.038 351.229C116.477 351.053 116.978 350.965 117.539 350.965C118.184 350.965 118.728 351.07 119.172 351.28C119.622 351.49 119.961 351.793 120.19 352.188C120.425 352.579 120.542 353.048 120.542 353.595V359H119.268V357.835H119.15C118.984 358.114 118.782 358.351 118.542 358.546C118.308 358.741 118.042 358.89 117.744 358.993C117.446 359.09 117.119 359.139 116.763 359.139ZM124.812 359L121.89 351.104H123.237L125.398 357.608H125.515L127.676 351.104H129.023L126.101 359H124.812ZM133.638 359.139C132.886 359.139 132.239 358.973 131.697 358.641C131.16 358.309 130.745 357.84 130.452 357.235C130.164 356.625 130.02 355.907 130.02 355.082V355.074C130.02 354.259 130.164 353.543 130.452 352.928C130.745 352.313 131.157 351.832 131.689 351.485C132.222 351.139 132.844 350.965 133.557 350.965C134.275 350.965 134.89 351.131 135.403 351.463C135.92 351.795 136.316 352.259 136.589 352.855C136.868 353.446 137.007 354.134 137.007 354.92V355.418H130.679V354.4H136.355L135.725 355.331V354.825C135.725 354.205 135.632 353.695 135.447 353.294C135.261 352.894 135.005 352.596 134.678 352.401C134.351 352.201 133.975 352.101 133.55 352.101C133.125 352.101 132.744 352.206 132.407 352.416C132.075 352.621 131.812 352.926 131.616 353.331C131.421 353.736 131.323 354.234 131.323 354.825V355.331C131.323 355.892 131.418 356.373 131.609 356.773C131.799 357.169 132.07 357.474 132.422 357.689C132.773 357.899 133.188 358.004 133.667 358.004C134.023 358.004 134.333 357.955 134.597 357.857C134.861 357.76 135.078 357.635 135.249 357.484C135.42 357.333 135.54 357.179 135.608 357.022L135.637 356.957H136.912L136.897 357.015C136.829 357.284 136.707 357.545 136.531 357.799C136.36 358.048 136.138 358.275 135.864 358.48C135.591 358.68 135.266 358.841 134.89 358.963C134.519 359.081 134.102 359.139 133.638 359.139ZM138.984 359V351.104H140.259V352.276H140.376C140.527 351.861 140.784 351.539 141.145 351.31C141.506 351.08 141.953 350.965 142.485 350.965C142.607 350.965 142.727 350.973 142.844 350.987C142.966 350.997 143.059 351.007 143.123 351.017V352.254C142.991 352.23 142.861 352.213 142.734 352.203C142.612 352.188 142.48 352.181 142.339 352.181C141.934 352.181 141.575 352.262 141.262 352.423C140.95 352.584 140.703 352.809 140.522 353.097C140.347 353.385 140.259 353.722 140.259 354.107V359H138.984ZM146.865 359.139C146.367 359.139 145.918 359.044 145.518 358.854C145.122 358.663 144.807 358.392 144.573 358.041C144.343 357.689 144.229 357.274 144.229 356.795V356.781C144.229 356.312 144.341 355.912 144.565 355.58C144.79 355.243 145.117 354.979 145.547 354.789C145.977 354.598 146.497 354.486 147.107 354.452L150.007 354.276V355.294L147.261 355.47C146.66 355.504 146.221 355.628 145.942 355.843C145.669 356.058 145.532 356.361 145.532 356.751V356.766C145.532 357.167 145.684 357.479 145.986 357.704C146.289 357.923 146.67 358.033 147.129 358.033C147.563 358.033 147.949 357.948 148.286 357.777C148.623 357.601 148.887 357.364 149.077 357.066C149.272 356.769 149.37 356.432 149.37 356.056V353.595C149.37 353.106 149.221 352.735 148.923 352.481C148.63 352.223 148.188 352.093 147.598 352.093C147.124 352.093 146.736 352.179 146.433 352.35C146.13 352.516 145.928 352.752 145.825 353.06L145.818 353.082H144.543L144.551 353.038C144.619 352.623 144.79 352.262 145.063 351.954C145.342 351.642 145.701 351.4 146.14 351.229C146.58 351.053 147.08 350.965 147.642 350.965C148.286 350.965 148.831 351.07 149.275 351.28C149.724 351.49 150.063 351.793 150.293 352.188C150.527 352.579 150.645 353.048 150.645 353.595V359H149.37V357.835H149.253C149.087 358.114 148.884 358.351 148.645 358.546C148.411 358.741 148.145 358.89 147.847 358.993C147.549 359.09 147.222 359.139 146.865 359.139ZM156.226 361.783C155.591 361.783 155.037 361.693 154.563 361.512C154.089 361.336 153.711 361.085 153.428 360.758C153.149 360.436 152.976 360.06 152.908 359.63L152.922 359.623H154.241L154.248 359.63C154.316 359.928 154.521 360.172 154.863 360.362C155.205 360.558 155.659 360.655 156.226 360.655C156.934 360.655 157.485 360.494 157.881 360.172C158.281 359.854 158.481 359.405 158.481 358.824V357.228H158.364C158.198 357.516 157.991 357.762 157.742 357.967C157.493 358.172 157.212 358.329 156.899 358.436C156.587 358.539 156.25 358.59 155.889 358.59C155.21 358.59 154.622 358.429 154.124 358.106C153.63 357.779 153.25 357.33 152.981 356.759C152.712 356.188 152.578 355.533 152.578 354.796V354.781C152.578 354.044 152.712 353.39 152.981 352.818C153.254 352.242 153.64 351.791 154.138 351.463C154.636 351.131 155.229 350.965 155.918 350.965C156.289 350.965 156.631 351.024 156.943 351.141C157.256 351.258 157.532 351.424 157.771 351.639C158.015 351.854 158.218 352.11 158.379 352.408H158.467V351.104H159.741V358.89C159.741 359.476 159.597 359.986 159.309 360.421C159.026 360.855 158.621 361.19 158.093 361.424C157.566 361.664 156.943 361.783 156.226 361.783ZM156.167 357.462C156.655 357.462 157.073 357.35 157.419 357.125C157.771 356.896 158.04 356.581 158.225 356.18C158.416 355.78 158.511 355.318 158.511 354.796V354.781C158.511 354.259 158.416 353.795 158.225 353.39C158.04 352.984 157.771 352.667 157.419 352.438C157.073 352.208 156.655 352.093 156.167 352.093C155.679 352.093 155.264 352.208 154.922 352.438C154.585 352.667 154.326 352.984 154.146 353.39C153.97 353.795 153.882 354.259 153.882 354.781V354.796C153.882 355.318 153.97 355.78 154.146 356.18C154.326 356.581 154.585 356.896 154.922 357.125C155.264 357.35 155.679 357.462 156.167 357.462ZM165.337 359.139C164.585 359.139 163.938 358.973 163.396 358.641C162.859 358.309 162.444 357.84 162.151 357.235C161.863 356.625 161.719 355.907 161.719 355.082V355.074C161.719 354.259 161.863 353.543 162.151 352.928C162.444 352.313 162.856 351.832 163.389 351.485C163.921 351.139 164.543 350.965 165.256 350.965C165.974 350.965 166.589 351.131 167.102 351.463C167.62 351.795 168.015 352.259 168.289 352.855C168.567 353.446 168.706 354.134 168.706 354.92V355.418H162.378V354.4H168.054L167.424 355.331V354.825C167.424 354.205 167.332 353.695 167.146 353.294C166.96 352.894 166.704 352.596 166.377 352.401C166.05 352.201 165.674 352.101 165.249 352.101C164.824 352.101 164.443 352.206 164.106 352.416C163.774 352.621 163.511 352.926 163.315 353.331C163.12 353.736 163.022 354.234 163.022 354.825V355.331C163.022 355.892 163.118 356.373 163.308 356.773C163.499 357.169 163.77 357.474 164.121 357.689C164.473 357.899 164.888 358.004 165.366 358.004C165.723 358.004 166.033 357.955 166.296 357.857C166.56 357.76 166.777 357.635 166.948 357.484C167.119 357.333 167.239 357.179 167.307 357.022L167.336 356.957H168.611L168.596 357.015C168.528 357.284 168.406 357.545 168.23 357.799C168.059 358.048 167.837 358.275 167.563 358.48C167.29 358.68 166.965 358.841 166.589 358.963C166.218 359.081 165.801 359.139 165.337 359.139Z" fill="#555555"/>
<rect x="188.25" y="341" width="112.25" height="25" rx="8" fill="white"/>
<rect x="194.25" y="352.125" width="21.25" height="2.75" fill="#FFBD6A"/>
<path d="M227.594 359V349.618H224.188V348.431H232.318V349.618H228.913V359H227.594ZM235.973 359.139C235.226 359.139 234.579 358.976 234.032 358.648C233.49 358.316 233.07 357.845 232.772 357.235C232.479 356.625 232.333 355.899 232.333 355.06V355.045C232.333 354.2 232.479 353.473 232.772 352.862C233.07 352.252 233.49 351.783 234.032 351.456C234.579 351.129 235.226 350.965 235.973 350.965C236.725 350.965 237.372 351.129 237.914 351.456C238.456 351.783 238.874 352.252 239.167 352.862C239.464 353.473 239.613 354.2 239.613 355.045V355.06C239.613 355.899 239.464 356.625 239.167 357.235C238.874 357.845 238.456 358.316 237.914 358.648C237.372 358.976 236.725 359.139 235.973 359.139ZM235.973 358.011C236.471 358.011 236.894 357.894 237.24 357.66C237.587 357.425 237.851 357.088 238.031 356.649C238.217 356.209 238.31 355.68 238.31 355.06V355.045C238.31 354.42 238.217 353.888 238.031 353.448C237.851 353.009 237.587 352.674 237.24 352.445C236.894 352.21 236.471 352.093 235.973 352.093C235.475 352.093 235.053 352.21 234.706 352.445C234.359 352.674 234.093 353.009 233.908 353.448C233.727 353.888 233.637 354.42 233.637 355.045V355.06C233.637 355.68 233.727 356.209 233.908 356.649C234.093 357.088 234.359 357.425 234.706 357.66C235.053 357.894 235.475 358.011 235.973 358.011ZM241.591 361.637V351.104H242.865V352.364H242.982C243.144 352.071 243.346 351.822 243.59 351.617C243.834 351.407 244.113 351.246 244.425 351.134C244.738 351.021 245.077 350.965 245.443 350.965C246.112 350.965 246.693 351.136 247.187 351.478C247.685 351.815 248.07 352.289 248.344 352.899C248.617 353.509 248.754 354.225 248.754 355.045V355.06C248.754 355.885 248.617 356.603 248.344 357.213C248.07 357.823 247.685 358.297 247.187 358.634C246.693 358.971 246.112 359.139 245.443 359.139C245.082 359.139 244.74 359.083 244.418 358.971C244.101 358.854 243.817 358.692 243.568 358.487C243.324 358.282 243.129 358.038 242.982 357.755H242.865V361.637H241.591ZM245.15 358.011C245.634 358.011 246.046 357.894 246.388 357.66C246.73 357.42 246.991 357.081 247.172 356.642C247.357 356.197 247.45 355.67 247.45 355.06V355.045C247.45 354.43 247.357 353.902 247.172 353.463C246.991 353.023 246.73 352.687 246.388 352.452C246.046 352.213 245.634 352.093 245.15 352.093C244.672 352.093 244.259 352.213 243.913 352.452C243.566 352.691 243.3 353.031 243.114 353.47C242.929 353.91 242.836 354.435 242.836 355.045V355.06C242.836 355.665 242.929 356.19 243.114 356.634C243.3 357.074 243.566 357.413 243.913 357.652C244.259 357.892 244.672 358.011 245.15 358.011ZM257.133 359.139C256.635 359.139 256.186 359.044 255.785 358.854C255.39 358.663 255.075 358.392 254.84 358.041C254.611 357.689 254.496 357.274 254.496 356.795V356.781C254.496 356.312 254.608 355.912 254.833 355.58C255.058 355.243 255.385 354.979 255.814 354.789C256.244 354.598 256.764 354.486 257.375 354.452L260.275 354.276V355.294L257.528 355.47C256.928 355.504 256.488 355.628 256.21 355.843C255.937 356.058 255.8 356.361 255.8 356.751V356.766C255.8 357.167 255.951 357.479 256.254 357.704C256.557 357.923 256.938 358.033 257.396 358.033C257.831 358.033 258.217 357.948 258.554 357.777C258.891 357.601 259.154 357.364 259.345 357.066C259.54 356.769 259.638 356.432 259.638 356.056V353.595C259.638 353.106 259.489 352.735 259.191 352.481C258.898 352.223 258.456 352.093 257.865 352.093C257.392 352.093 257.003 352.179 256.701 352.35C256.398 352.516 256.195 352.752 256.093 353.06L256.085 353.082H254.811L254.818 353.038C254.887 352.623 255.058 352.262 255.331 351.954C255.609 351.642 255.968 351.4 256.408 351.229C256.847 351.053 257.348 350.965 257.909 350.965C258.554 350.965 259.098 351.07 259.542 351.28C259.992 351.49 260.331 351.793 260.561 352.188C260.795 352.579 260.912 353.048 260.912 353.595V359H259.638V357.835H259.521C259.354 358.114 259.152 358.351 258.913 358.546C258.678 358.741 258.412 358.89 258.114 358.993C257.816 359.09 257.489 359.139 257.133 359.139ZM266.493 361.783C265.858 361.783 265.304 361.693 264.831 361.512C264.357 361.336 263.979 361.085 263.695 360.758C263.417 360.436 263.244 360.06 263.175 359.63L263.19 359.623H264.508L264.516 359.63C264.584 359.928 264.789 360.172 265.131 360.362C265.473 360.558 265.927 360.655 266.493 360.655C267.201 360.655 267.753 360.494 268.148 360.172C268.549 359.854 268.749 359.405 268.749 358.824V357.228H268.632C268.466 357.516 268.258 357.762 268.009 357.967C267.76 358.172 267.479 358.329 267.167 358.436C266.854 358.539 266.518 358.59 266.156 358.59C265.478 358.59 264.889 358.429 264.391 358.106C263.898 357.779 263.517 357.33 263.249 356.759C262.98 356.188 262.846 355.533 262.846 354.796V354.781C262.846 354.044 262.98 353.39 263.249 352.818C263.522 352.242 263.908 351.791 264.406 351.463C264.904 351.131 265.497 350.965 266.186 350.965C266.557 350.965 266.898 351.024 267.211 351.141C267.523 351.258 267.799 351.424 268.039 351.639C268.283 351.854 268.485 352.11 268.646 352.408H268.734V351.104H270.009V358.89C270.009 359.476 269.865 359.986 269.577 360.421C269.293 360.855 268.888 361.19 268.361 361.424C267.833 361.664 267.211 361.783 266.493 361.783ZM266.435 357.462C266.923 357.462 267.34 357.35 267.687 357.125C268.039 356.896 268.307 356.581 268.493 356.18C268.683 355.78 268.778 355.318 268.778 354.796V354.781C268.778 354.259 268.683 353.795 268.493 353.39C268.307 352.984 268.039 352.667 267.687 352.438C267.34 352.208 266.923 352.093 266.435 352.093C265.946 352.093 265.531 352.208 265.189 352.438C264.853 352.667 264.594 352.984 264.413 353.39C264.237 353.795 264.149 354.259 264.149 354.781V354.796C264.149 355.318 264.237 355.78 264.413 356.18C264.594 356.581 264.853 356.896 265.189 357.125C265.531 357.35 265.946 357.462 266.435 357.462ZM275.604 359.139C274.853 359.139 274.206 358.973 273.664 358.641C273.126 358.309 272.711 357.84 272.418 357.235C272.13 356.625 271.986 355.907 271.986 355.082V355.074C271.986 354.259 272.13 353.543 272.418 352.928C272.711 352.313 273.124 351.832 273.656 351.485C274.188 351.139 274.811 350.965 275.524 350.965C276.242 350.965 276.857 351.131 277.37 351.463C277.887 351.795 278.283 352.259 278.556 352.855C278.834 353.446 278.974 354.134 278.974 354.92V355.418H272.646V354.4H278.322L277.692 355.331V354.825C277.692 354.205 277.599 353.695 277.414 353.294C277.228 352.894 276.972 352.596 276.645 352.401C276.317 352.201 275.941 352.101 275.517 352.101C275.092 352.101 274.711 352.206 274.374 352.416C274.042 352.621 273.778 352.926 273.583 353.331C273.388 353.736 273.29 354.234 273.29 354.825V355.331C273.29 355.892 273.385 356.373 273.576 356.773C273.766 357.169 274.037 357.474 274.389 357.689C274.74 357.899 275.155 358.004 275.634 358.004C275.99 358.004 276.3 357.955 276.564 357.857C276.828 357.76 277.045 357.635 277.216 357.484C277.387 357.333 277.506 357.179 277.575 357.022L277.604 356.957H278.878L278.864 357.015C278.795 357.284 278.673 357.545 278.498 357.799C278.327 358.048 278.104 358.275 277.831 358.48C277.558 358.68 277.233 358.841 276.857 358.963C276.486 359.081 276.068 359.139 275.604 359.139ZM280.951 359V351.104H282.226V352.291H282.343C282.543 351.871 282.831 351.546 283.207 351.317C283.583 351.083 284.062 350.965 284.643 350.965C285.531 350.965 286.212 351.219 286.686 351.727C287.165 352.23 287.404 352.95 287.404 353.888V359H286.129V354.195C286.129 353.482 285.978 352.955 285.675 352.613C285.377 352.267 284.914 352.093 284.284 352.093C283.864 352.093 283.5 352.184 283.192 352.364C282.885 352.545 282.646 352.801 282.475 353.133C282.309 353.465 282.226 353.863 282.226 354.327V359H280.951ZM292.516 359.059C291.706 359.059 291.117 358.895 290.751 358.568C290.39 358.241 290.209 357.701 290.209 356.949V352.159H288.964V351.104H290.209V349.061H291.527V351.104H293.256V352.159H291.527V356.627C291.527 357.091 291.615 357.425 291.791 357.63C291.967 357.831 292.26 357.931 292.67 357.931C292.782 357.931 292.877 357.928 292.956 357.923C293.039 357.918 293.139 357.911 293.256 357.901V358.985C293.134 359.005 293.012 359.022 292.89 359.037C292.768 359.051 292.643 359.059 292.516 359.059Z" fill="#555555"/>
<rect x="312.5" y="341" width="137.25" height="25" rx="8" fill="white"/>
<rect x="318.5" y="352.125" width="21.25" height="2.75" fill="#EA5F94"/>
<path d="M349.757 359V357.835H353.023C353.819 357.835 354.422 357.677 354.833 357.359C355.243 357.042 355.448 356.581 355.448 355.975V355.96C355.448 355.555 355.353 355.216 355.162 354.942C354.972 354.669 354.686 354.464 354.305 354.327C353.929 354.19 353.46 354.122 352.899 354.122H349.757V352.987H352.525C353.326 352.987 353.927 352.845 354.327 352.562C354.732 352.279 354.935 351.859 354.935 351.302V351.288C354.935 350.75 354.752 350.335 354.386 350.042C354.024 349.745 353.517 349.596 352.862 349.596H349.757V348.431H353.141C353.79 348.431 354.347 348.539 354.811 348.753C355.279 348.968 355.638 349.273 355.887 349.669C356.141 350.06 356.268 350.523 356.268 351.061V351.075C356.268 351.441 356.185 351.786 356.019 352.108C355.858 352.43 355.641 352.701 355.367 352.921C355.094 353.141 354.786 353.282 354.444 353.346V353.463C354.928 353.521 355.345 353.666 355.697 353.895C356.048 354.125 356.319 354.422 356.51 354.789C356.705 355.15 356.803 355.562 356.803 356.026V356.041C356.803 356.656 356.659 357.186 356.371 357.63C356.087 358.07 355.68 358.409 355.147 358.648C354.615 358.883 353.973 359 353.221 359H349.757ZM349.098 359V348.431H350.416V359H349.098ZM362.04 359.139C361.292 359.139 360.646 358.976 360.099 358.648C359.557 358.316 359.137 357.845 358.839 357.235C358.546 356.625 358.399 355.899 358.399 355.06V355.045C358.399 354.2 358.546 353.473 358.839 352.862C359.137 352.252 359.557 351.783 360.099 351.456C360.646 351.129 361.292 350.965 362.04 350.965C362.792 350.965 363.438 351.129 363.98 351.456C364.522 351.783 364.94 352.252 365.233 352.862C365.531 353.473 365.68 354.2 365.68 355.045V355.06C365.68 355.899 365.531 356.625 365.233 357.235C364.94 357.845 364.522 358.316 363.98 358.648C363.438 358.976 362.792 359.139 362.04 359.139ZM362.04 358.011C362.538 358.011 362.96 357.894 363.307 357.66C363.653 357.425 363.917 357.088 364.098 356.649C364.283 356.209 364.376 355.68 364.376 355.06V355.045C364.376 354.42 364.283 353.888 364.098 353.448C363.917 353.009 363.653 352.674 363.307 352.445C362.96 352.21 362.538 352.093 362.04 352.093C361.542 352.093 361.119 352.21 360.772 352.445C360.426 352.674 360.16 353.009 359.974 353.448C359.793 353.888 359.703 354.42 359.703 355.045V355.06C359.703 355.68 359.793 356.209 359.974 356.649C360.16 357.088 360.426 357.425 360.772 357.66C361.119 357.894 361.542 358.011 362.04 358.011ZM370.462 359.059C369.652 359.059 369.063 358.895 368.697 358.568C368.336 358.241 368.155 357.701 368.155 356.949V352.159H366.91V351.104H368.155V349.061H369.474V351.104H371.202V352.159H369.474V356.627C369.474 357.091 369.562 357.425 369.737 357.63C369.913 357.831 370.206 357.931 370.616 357.931C370.729 357.931 370.824 357.928 370.902 357.923C370.985 357.918 371.085 357.911 371.202 357.901V358.985C371.08 359.005 370.958 359.022 370.836 359.037C370.714 359.051 370.589 359.059 370.462 359.059ZM375.912 359.059C375.101 359.059 374.513 358.895 374.146 358.568C373.785 358.241 373.604 357.701 373.604 356.949V352.159H372.359V351.104H373.604V349.061H374.923V351.104H376.651V352.159H374.923V356.627C374.923 357.091 375.011 357.425 375.187 357.63C375.362 357.831 375.655 357.931 376.065 357.931C376.178 357.931 376.273 357.928 376.351 357.923C376.434 357.918 376.534 357.911 376.651 357.901V358.985C376.529 359.005 376.407 359.022 376.285 359.037C376.163 359.051 376.039 359.059 375.912 359.059ZM381.698 359.139C380.951 359.139 380.304 358.976 379.757 358.648C379.215 358.316 378.795 357.845 378.497 357.235C378.204 356.625 378.058 355.899 378.058 355.06V355.045C378.058 354.2 378.204 353.473 378.497 352.862C378.795 352.252 379.215 351.783 379.757 351.456C380.304 351.129 380.951 350.965 381.698 350.965C382.45 350.965 383.097 351.129 383.639 351.456C384.181 351.783 384.598 352.252 384.891 352.862C385.189 353.473 385.338 354.2 385.338 355.045V355.06C385.338 355.899 385.189 356.625 384.891 357.235C384.598 357.845 384.181 358.316 383.639 358.648C383.097 358.976 382.45 359.139 381.698 359.139ZM381.698 358.011C382.196 358.011 382.618 357.894 382.965 357.66C383.312 357.425 383.575 357.088 383.756 356.649C383.941 356.209 384.034 355.68 384.034 355.06V355.045C384.034 354.42 383.941 353.888 383.756 353.448C383.575 353.009 383.312 352.674 382.965 352.445C382.618 352.21 382.196 352.093 381.698 352.093C381.2 352.093 380.777 352.21 380.431 352.445C380.084 352.674 379.818 353.009 379.632 353.448C379.452 353.888 379.361 354.42 379.361 355.045V355.06C379.361 355.68 379.452 356.209 379.632 356.649C379.818 357.088 380.084 357.425 380.431 357.66C380.777 357.894 381.2 358.011 381.698 358.011ZM387.315 359V351.104H388.59V352.306H388.707C388.883 351.881 389.151 351.551 389.513 351.317C389.879 351.083 390.321 350.965 390.838 350.965C391.195 350.965 391.515 351.024 391.798 351.141C392.081 351.258 392.325 351.422 392.53 351.632C392.735 351.837 392.899 352.076 393.021 352.35H393.138C393.28 352.071 393.47 351.83 393.709 351.625C393.949 351.415 394.225 351.253 394.537 351.141C394.854 351.024 395.194 350.965 395.555 350.965C396.092 350.965 396.546 351.065 396.917 351.266C397.293 351.466 397.579 351.759 397.774 352.145C397.97 352.525 398.067 352.992 398.067 353.543V359H396.793V353.836C396.793 353.446 396.732 353.124 396.61 352.87C396.493 352.611 396.312 352.418 396.068 352.291C395.824 352.159 395.516 352.093 395.145 352.093C394.779 352.093 394.459 352.176 394.186 352.342C393.912 352.508 393.7 352.73 393.548 353.009C393.397 353.282 393.321 353.587 393.321 353.924V359H392.047V353.639C392.047 353.326 391.979 353.055 391.842 352.826C391.71 352.591 391.52 352.411 391.271 352.284C391.026 352.157 390.738 352.093 390.406 352.093C390.064 352.093 389.754 352.184 389.476 352.364C389.203 352.545 388.985 352.789 388.824 353.097C388.668 353.399 388.59 353.736 388.59 354.107V359H387.315ZM406.754 359.139C406.256 359.139 405.807 359.044 405.406 358.854C405.011 358.663 404.696 358.392 404.461 358.041C404.232 357.689 404.117 357.274 404.117 356.795V356.781C404.117 356.312 404.229 355.912 404.454 355.58C404.679 355.243 405.006 354.979 405.436 354.789C405.865 354.598 406.385 354.486 406.996 354.452L409.896 354.276V355.294L407.149 355.47C406.549 355.504 406.109 355.628 405.831 355.843C405.558 356.058 405.421 356.361 405.421 356.751V356.766C405.421 357.167 405.572 357.479 405.875 357.704C406.178 357.923 406.559 358.033 407.018 358.033C407.452 358.033 407.838 357.948 408.175 357.777C408.512 357.601 408.775 357.364 408.966 357.066C409.161 356.769 409.259 356.432 409.259 356.056V353.595C409.259 353.106 409.11 352.735 408.812 352.481C408.519 352.223 408.077 352.093 407.486 352.093C407.013 352.093 406.625 352.179 406.322 352.35C406.019 352.516 405.816 352.752 405.714 353.06L405.707 353.082H404.432L404.439 353.038C404.508 352.623 404.679 352.262 404.952 351.954C405.23 351.642 405.589 351.4 406.029 351.229C406.468 351.053 406.969 350.965 407.53 350.965C408.175 350.965 408.719 351.07 409.164 351.28C409.613 351.49 409.952 351.793 410.182 352.188C410.416 352.579 410.533 353.048 410.533 353.595V359H409.259V357.835H409.142C408.976 358.114 408.773 358.351 408.534 358.546C408.299 358.741 408.033 358.89 407.735 358.993C407.438 359.09 407.11 359.139 406.754 359.139ZM416.114 361.783C415.479 361.783 414.925 361.693 414.452 361.512C413.978 361.336 413.6 361.085 413.316 360.758C413.038 360.436 412.865 360.06 412.796 359.63L412.811 359.623H414.129L414.137 359.63C414.205 359.928 414.41 360.172 414.752 360.362C415.094 360.558 415.548 360.655 416.114 360.655C416.822 360.655 417.374 360.494 417.77 360.172C418.17 359.854 418.37 359.405 418.37 358.824V357.228H418.253C418.087 357.516 417.879 357.762 417.63 357.967C417.381 358.172 417.101 358.329 416.788 358.436C416.476 358.539 416.139 358.59 415.777 358.59C415.099 358.59 414.51 358.429 414.012 358.106C413.519 357.779 413.138 357.33 412.87 356.759C412.601 356.188 412.467 355.533 412.467 354.796V354.781C412.467 354.044 412.601 353.39 412.87 352.818C413.143 352.242 413.529 351.791 414.027 351.463C414.525 351.131 415.118 350.965 415.807 350.965C416.178 350.965 416.52 351.024 416.832 351.141C417.145 351.258 417.42 351.424 417.66 351.639C417.904 351.854 418.106 352.11 418.268 352.408H418.355V351.104H419.63V358.89C419.63 359.476 419.486 359.986 419.198 360.421C418.915 360.855 418.509 361.19 417.982 361.424C417.455 361.664 416.832 361.783 416.114 361.783ZM416.056 357.462C416.544 357.462 416.961 357.35 417.308 357.125C417.66 356.896 417.928 356.581 418.114 356.18C418.304 355.78 418.399 355.318 418.399 354.796V354.781C418.399 354.259 418.304 353.795 418.114 353.39C417.928 352.984 417.66 352.667 417.308 352.438C416.961 352.208 416.544 352.093 416.056 352.093C415.567 352.093 415.152 352.208 414.811 352.438C414.474 352.667 414.215 352.984 414.034 353.39C413.858 353.795 413.771 354.259 413.771 354.781V354.796C413.771 355.318 413.858 355.78 414.034 356.18C414.215 356.581 414.474 356.896 414.811 357.125C415.152 357.35 415.567 357.462 416.056 357.462ZM425.226 359.139C424.474 359.139 423.827 358.973 423.285 358.641C422.748 358.309 422.333 357.84 422.04 357.235C421.751 356.625 421.607 355.907 421.607 355.082V355.074C421.607 354.259 421.751 353.543 422.04 352.928C422.333 352.313 422.745 351.832 423.277 351.485C423.81 351.139 424.432 350.965 425.145 350.965C425.863 350.965 426.478 351.131 426.991 351.463C427.508 351.795 427.904 352.259 428.177 352.855C428.456 353.446 428.595 354.134 428.595 354.92V355.418H422.267V354.4H427.943L427.313 355.331V354.825C427.313 354.205 427.22 353.695 427.035 353.294C426.849 352.894 426.593 352.596 426.266 352.401C425.938 352.201 425.562 352.101 425.138 352.101C424.713 352.101 424.332 352.206 423.995 352.416C423.663 352.621 423.399 352.926 423.204 353.331C423.009 353.736 422.911 354.234 422.911 354.825V355.331C422.911 355.892 423.006 356.373 423.197 356.773C423.387 357.169 423.658 357.474 424.01 357.689C424.361 357.899 424.776 358.004 425.255 358.004C425.611 358.004 425.921 357.955 426.185 357.857C426.449 357.76 426.666 357.635 426.837 357.484C427.008 357.333 427.127 357.179 427.196 357.022L427.225 356.957H428.5L428.485 357.015C428.417 357.284 428.294 357.545 428.119 357.799C427.948 358.048 427.726 358.275 427.452 358.48C427.179 358.68 426.854 358.841 426.478 358.963C426.107 359.081 425.689 359.139 425.226 359.139ZM430.572 359V351.104H431.847V352.291H431.964C432.164 351.871 432.452 351.546 432.828 351.317C433.204 351.083 433.683 350.965 434.264 350.965C435.152 350.965 435.833 351.219 436.307 351.727C436.786 352.23 437.025 352.95 437.025 353.888V359H435.75V354.195C435.75 353.482 435.599 352.955 435.296 352.613C434.999 352.267 434.535 352.093 433.905 352.093C433.485 352.093 433.121 352.184 432.813 352.364C432.506 352.545 432.267 352.801 432.096 353.133C431.93 353.465 431.847 353.863 431.847 354.327V359H430.572ZM442.137 359.059C441.327 359.059 440.738 358.895 440.372 358.568C440.011 358.241 439.83 357.701 439.83 356.949V352.159H438.585V351.104H439.83V349.061H441.148V351.104H442.877V352.159H441.148V356.627C441.148 357.091 441.236 357.425 441.412 357.63C441.588 357.831 441.881 357.931 442.291 357.931C442.403 357.931 442.499 357.928 442.577 357.923C442.66 357.918 442.76 357.911 442.877 357.901V358.985C442.755 359.005 442.633 359.022 442.511 359.037C442.389 359.051 442.264 359.059 442.137 359.059Z" fill="#555555"/>
<rect x="461.75" y="341" width="132.25" height="25" rx="8" fill="white"/>
<rect x="467.75" y="352.125" width="5.75" height="2.75" fill="#DAC7FF"/>
</g>
</g>
<defs>
<clipPath id="clip0_10764_79897">
<rect width="470" height="400" fill="white"/>
</clipPath>
<clipPath id="clip1_10764_79897">
<rect width="486" height="25" fill="white" transform="translate(36 341)"/>
</clipPath>
</defs>
</svg>
