<svg fill="none" height="230" viewBox="0 0 294 230" width="294" xmlns="http://www.w3.org/2000/svg"><g stroke-miterlimit="10" stroke-width="6"><path d="m291 35h-288v192h288z" fill="#343a40" stroke="#495057"/><path d="m291 3h-288v32h288z" fill="#495057" stroke="#495057"/><g stroke="#212529"><path d="m267 27c4.418 0 8-3.5817 8-8s-3.582-8-8-8-8 3.5817-8 8 3.582 8 8 8z" fill="#ff6b6b"/><path d="m235 27c4.418 0 8-3.5817 8-8s-3.582-8-8-8-8 3.5817-8 8 3.582 8 8 8z" fill="#4dabf7"/><path d="m203 27c4.418 0 8-3.5817 8-8s-3.582-8-8-8-8 3.5817-8 8 3.582 8 8 8z" fill="#adb5bd"/></g><path d="m19 51h80" stroke="#dee2e6"/><path d="m19 67h16" stroke="#ff6b6b"/><path d="m43 67h24" stroke="#fab005"/><path d="m75 67h40" stroke="#7950f2"/><path d="m123.833 67h39.167" stroke="#495057"/><path d="m19 83h62.223" stroke="#dee2e6"/><path d="m19 99h12.444" stroke="#40c057"/><path d="m37.666 99h18.668" stroke="#ff6b6b"/><path d="m62.556 99h31.11" stroke="#fab005"/><path d="m100.537 99h94.463" stroke="#dee2e6"/><path d="m200.703 99h26.297" stroke="#495057"/><path d="m19.002 114.998h80" stroke="#495057"/><path d="m19.002 130.998h16" stroke="#ff6b6b"/><path d="m126.001 130.998h16" stroke="#fab005"/><path d="m43.002 130.998h77.998" stroke="#dee2e6"/><path d="m19.002 146.998h35.998" stroke="#dee2e6"/><path d="m64.002 146.998h35.998" stroke="#ff6b6b"/><path d="m19.002 179h16" stroke="#ff6b6b"/><path d="m43.002 179h77.998" stroke="#dee2e6"/><path d="m19.002 195h35.998" stroke="#40c057"/><path d="m64.002 195h35.998" stroke="#ff6b6b"/><path d="m19.002 162.998h12.443" stroke="#40c057"/><path d="m37.668 162.998h18.668" stroke="#fab005"/><path d="m62.557 162.998h31.111" stroke="#40c057"/><path d="m100.538 162.998h18.462" stroke="#7950f2"/></g></svg>