<svg fill="none" height="235" viewBox="0 0 294 235" width="294" xmlns="http://www.w3.org/2000/svg" xmlns:xlink="http://www.w3.org/1999/xlink"><clipPath id="a"><path d="m0 0h294v234.242h-294z"/></clipPath><g clip-path="url(#a)"><path d="m211 131h-112l-32 32v-32h-64v-128h208z" stroke="#495057" stroke-miterlimit="10" stroke-width="6"/><path d="m147 195h62.334l32 32v-32h49.666v-96h-144z" fill="#4dabf7" stroke="#495057" stroke-miterlimit="10" stroke-width="6"/><path d="m75 75c4.4183 0 8-3.5817 8-8s-3.5817-8-8-8-8 3.5817-8 8 3.5817 8 8 8z" fill="#adb5bd"/><path d="m107 75c4.418 0 8-3.5817 8-8s-3.582-8-8-8-8 3.5817-8 8 3.582 8 8 8z" fill="#ff6b6b"/><path d="m139 75c4.418 0 8-3.5817 8-8s-3.582-8-8-8-8 3.5817-8 8 3.582 8 8 8z" fill="#4dabf7"/></g></svg>