<svg fill="none" height="200" viewBox="0 0 294 200" width="294" xmlns="http://www.w3.org/2000/svg" xmlns:xlink="http://www.w3.org/1999/xlink"><clipPath id="a"><path d="m0 0h294v199.806h-294z"/></clipPath><g clip-path="url(#a)" stroke="#495057" stroke-miterlimit="10" stroke-width="6"><path d="m147 167c0 6.627-5.373 12-12 12h-120c-6.627 0-12-5.373-12-12v-120c0-6.627 5.373-12 12-12h120c6.627 0 12 5.373 12 12z" fill="#69db7c"/><path d="m171.42 35v-20.631c0-6.279-5.09-11.369-11.367-11.369h-113.685c-6.279 0-11.368 5.09-11.368 11.369v113.684c0 6.278 5.09 11.368 11.369 11.368h41.131" stroke-dasharray="12 12"/><path d="m179 43h-16v16h16z" fill="#adb5bd"/><path d="m97.761 120.652v37.539s58.659 1.466 75.083 37.539l75.078-37.539v-37.539l-75.078-37.539c-16.133 38.711-75.083 37.539-75.083 37.539z" fill="#adb5bd"/><path d="m97.761 139.42h61.067"/><path d="m170.998 151.592c6.722 0 12.171-5.449 12.171-12.171s-5.449-12.171-12.171-12.171-12.171 5.449-12.171 12.171 5.449 12.171 12.171 12.171z" fill="#adb5bd"/><path d="m291 109.704h-43.078v59.438h43.078z" fill="#9775fa"/></g></svg>