<svg fill="none" height="230" viewBox="0 0 294 230" width="294" xmlns="http://www.w3.org/2000/svg"><g stroke-miterlimit="10" stroke-width="6"><path d="m291 3h-288v224h288z" stroke="#495057"/><path d="m291 3h-288v48h288z" fill="#495057" stroke="#495057"/><path d="m267 35c4.418 0 8-3.5817 8-8s-3.582-8-8-8-8 3.5817-8 8 3.582 8 8 8z" fill="#ff6b6b" stroke="#212529"/><path d="m235 35c4.418 0 8-3.5817 8-8s-3.582-8-8-8-8 3.5817-8 8 3.582 8 8 8z" fill="#4dabf7" stroke="#212529"/><path d="m203 35c4.418 0 8-3.5817 8-8s-3.582-8-8-8-8 3.5817-8 8 3.582 8 8 8z" fill="#adb5bd" stroke="#212529"/><g stroke="#495057"><path d="m163 67h-32v16h32z" fill="#69db7c"/><path d="m83 195h-32v16h32z" fill="#69db7c"/><path d="m147 83.031v16"/><path d="m147 147v32"/><path d="m67 195v-32h80.504"/><path d="m244.008 195h-32v16h32z" fill="#69db7c"/><path d="m228.008 195v-32h-80.504"/><path d="m171.003 122.999-24-24.0008-23.999 23.9988 24 24.001z" fill="#be4bdb"/><path d="m147 211c8.837 0 16-7.163 16-16s-7.163-16-16-16-16 7.163-16 16 7.163 16 16 16z" fill="#69db7c"/></g></g></svg>