<svg fill="none" height="235" viewBox="0 0 1000 235" width="1000" xmlns="http://www.w3.org/2000/svg" xmlns:xlink="http://www.w3.org/1999/xlink"><clipPath id="a"><path d="m353 0h294v234.242h-294z"/></clipPath><g stroke-miterlimit="10" stroke-width="6"><path d="m291 37h-288v192h288z" fill="#343a40" stroke="#495057"/><path d="m291 5h-288v32h288z" fill="#495057" stroke="#495057"/><path d="m267 29c4.418 0 8-3.5817 8-8s-3.582-8-8-8-8 3.5817-8 8 3.582 8 8 8z" fill="#ff6b6b" stroke="#212529"/><path d="m235 29c4.418 0 8-3.5817 8-8s-3.582-8-8-8-8 3.5817-8 8 3.582 8 8 8z" fill="#4dabf7" stroke="#212529"/><path d="m203 29c4.418 0 8-3.5817 8-8s-3.582-8-8-8-8 3.5817-8 8 3.582 8 8 8z" fill="#adb5bd" stroke="#212529"/><path d="m19 53h80" stroke="#dee2e6"/><path d="m19 69h16" stroke="#ff6b6b"/><path d="m43 69h24" stroke="#fab005"/><path d="m75 69h40" stroke="#7950f2"/><path d="m123.833 69h39.167" stroke="#495057"/><path d="m19 85h62.223" stroke="#dee2e6"/><path d="m19 101h12.444" stroke="#40c057"/><path d="m37.666 101h18.668" stroke="#ff6b6b"/><path d="m62.556 101h31.11" stroke="#fab005"/><path d="m100.537 101h94.463" stroke="#dee2e6"/><path d="m200.703 101h26.297" stroke="#495057"/><path d="m19.002 116.998h80" stroke="#495057"/><path d="m19.002 132.998h16" stroke="#ff6b6b"/><path d="m126.001 132.998h16" stroke="#fab005"/><path d="m43.002 132.998h77.998" stroke="#dee2e6"/><path d="m19.002 148.998h35.998" stroke="#dee2e6"/><path d="m64.002 148.998h35.998" stroke="#ff6b6b"/><path d="m19.002 181h16" stroke="#ff6b6b"/><path d="m43.002 181h77.998" stroke="#dee2e6"/><path d="m19.002 197h35.998" stroke="#40c057"/><path d="m64.002 197h35.998" stroke="#ff6b6b"/><path d="m19.002 164.998h12.443" stroke="#40c057"/><path d="m37.668 164.998h18.668" stroke="#fab005"/><path d="m62.557 164.998h31.111" stroke="#40c057"/><path d="m100.538 164.998h18.462" stroke="#7950f2"/></g><g clip-path="url(#a)"><path d="m564 131h-112l-32 32v-32h-64v-128h208z" stroke="#495057" stroke-miterlimit="10" stroke-width="6"/><path d="m500 195h62.334l32 32v-32h49.666v-96h-144z" fill="#4dabf7" stroke="#495057" stroke-miterlimit="10" stroke-width="6"/><path d="m428 75c4.418 0 8-3.5817 8-8s-3.582-8-8-8-8 3.5817-8 8 3.582 8 8 8z" fill="#adb5bd"/><path d="m460 75c4.418 0 8-3.5817 8-8s-3.582-8-8-8-8 3.5817-8 8 3.582 8 8 8z" fill="#ff6b6b"/><path d="m492 75c4.418 0 8-3.5817 8-8s-3.582-8-8-8-8 3.5817-8 8 3.582 8 8 8z" fill="#4dabf7"/></g><path d="m997 53h-288v176h288z" fill="#343a40" stroke="#495057" stroke-miterlimit="10" stroke-width="6"/><path d="m766.125 76.932c-4.734 0-8.572 3.838-8.572 8.572v8.572c0 4.734 3.838 8.572 8.572 8.572s8.572-3.838 8.572-8.572v-8.572c0-4.734-3.838-8.572-8.572-8.572z" stroke="#adb5bd" stroke-miterlimit="10" stroke-width="6"/><path d="m748.981 75.459v28.662" stroke="#adb5bd" stroke-miterlimit="10" stroke-width="6"/><path d="m800.413 76.932c-4.734 0-8.572 3.838-8.572 8.572v8.572c0 4.734 3.838 8.572 8.572 8.572s8.572-3.838 8.572-8.572v-8.572c-.001-4.734-3.838-8.572-8.572-8.572z" stroke="#adb5bd" stroke-miterlimit="10" stroke-width="6"/><path d="m783.269 75.459v28.662" stroke="#adb5bd" stroke-miterlimit="10" stroke-width="6"/><path d="m817.556 75.459v28.662" stroke="#adb5bd" stroke-miterlimit="10" stroke-width="6"/><path d="m757.482 122.221c-4.734 0-8.572 3.838-8.572 8.571v8.571c0 4.734 3.838 8.572 8.572 8.572s8.572-3.838 8.572-8.572v-8.571c.001-4.733-3.838-8.571-8.572-8.571z" stroke="#adb5bd" stroke-miterlimit="10" stroke-width="6"/><path d="m783.269 122.221c-4.734 0-8.572 3.838-8.572 8.571v8.571c0 4.734 3.837 8.572 8.572 8.572 4.734 0 8.572-3.838 8.572-8.572v-8.571c0-4.733-3.838-8.571-8.572-8.571z" stroke="#adb5bd" stroke-miterlimit="10" stroke-width="6"/><path d="m817.556 122.221c-4.734 0-8.572 3.838-8.572 8.571v8.571c0 4.734 3.838 8.572 8.572 8.572s8.572-3.838 8.572-8.572v-8.571c0-4.733-3.837-8.571-8.572-8.571z" stroke="#adb5bd" stroke-miterlimit="10" stroke-width="6"/><path d="m800.413 120.746v28.662" stroke="#adb5bd" stroke-miterlimit="10" stroke-width="6"/><path d="m912.963 122.221c-4.734 0-8.572 3.838-8.572 8.571v8.571c0 4.734 3.838 8.572 8.572 8.572 4.735 0 8.572-3.838 8.572-8.572v-8.571c0-4.733-3.837-8.571-8.572-8.571z" stroke="#adb5bd" stroke-miterlimit="10" stroke-width="6"/><path d="m950.428 122.221c-4.734 0-8.571 3.838-8.571 8.571v8.571c0 4.734 3.837 8.572 8.571 8.572s8.572-3.838 8.572-8.572v-8.571c0-4.733-3.838-8.571-8.572-8.571z" stroke="#adb5bd" stroke-miterlimit="10" stroke-width="6"/><path d="m933.283 120.746v28.662" stroke="#adb5bd" stroke-miterlimit="10" stroke-width="6"/><path d="m851.843 122.221c-4.732 0-8.57 3.838-8.57 8.571v8.571c0 4.734 3.838 8.572 8.57 8.572 4.734 0 8.572-3.838 8.572-8.572v-8.571c0-4.733-3.838-8.571-8.572-8.571z" stroke="#adb5bd" stroke-miterlimit="10" stroke-width="6"/><path d="m834.701 120.746v28.662" stroke="#adb5bd" stroke-miterlimit="10" stroke-width="6"/><path d="m886.131 122.221c-4.733 0-8.57 3.838-8.57 8.571v8.571c0 4.734 3.837 8.572 8.57 8.572 4.734 0 8.572-3.838 8.572-8.572v-8.571c0-4.733-3.838-8.571-8.572-8.571z" stroke="#adb5bd" stroke-miterlimit="10" stroke-width="6"/><path d="m868.988 120.746v28.662" stroke="#adb5bd" stroke-miterlimit="10" stroke-width="6"/><path d="m766.125 171.018c-4.734 0-8.572 3.837-8.572 8.571v8.572c0 4.734 3.838 8.571 8.572 8.571s8.572-3.837 8.572-8.571v-8.572c0-4.735-3.838-8.571-8.572-8.571z" stroke="#adb5bd" stroke-miterlimit="10" stroke-width="6"/><path d="m748.981 169.544v28.662" stroke="#adb5bd" stroke-miterlimit="10" stroke-width="6"/><path d="m792.109 171.018c-4.734 0-8.572 3.837-8.572 8.571v8.572c0 4.734 3.838 8.571 8.572 8.571s8.572-3.837 8.572-8.571v-8.572c0-4.735-3.838-8.571-8.572-8.571z" stroke="#adb5bd" stroke-miterlimit="10" stroke-width="6"/><path d="m826.396 171.018c-4.733 0-8.572 3.837-8.572 8.571v8.572c0 4.734 3.838 8.571 8.572 8.571s8.572-3.837 8.572-8.571v-8.572c0-4.735-3.838-8.571-8.572-8.571z" stroke="#adb5bd" stroke-miterlimit="10" stroke-width="6"/><path d="m809.252 169.544v28.662" stroke="#adb5bd" stroke-miterlimit="10" stroke-width="6"/><path d="m860.684 171.018c-4.732 0-8.571 3.837-8.571 8.571v8.572c0 4.734 3.838 8.571 8.571 8.571 4.734 0 8.572-3.837 8.572-8.571v-8.572c0-4.735-3.838-8.571-8.572-8.571z" stroke="#adb5bd" stroke-miterlimit="10" stroke-width="6"/><path d="m843.541 169.544v28.662" stroke="#adb5bd" stroke-miterlimit="10" stroke-width="6"/><path d="m997 5h-288v48h288z" fill="#495057" stroke="#495057" stroke-miterlimit="10" stroke-width="6"/><path d="m973 37c4.418 0 8-3.5817 8-8s-3.582-8-8-8-8 3.5817-8 8 3.582 8 8 8z" fill="#ff6b6b" stroke="#212529" stroke-miterlimit="10" stroke-width="6"/><path d="m941 37c4.418 0 8-3.5817 8-8s-3.582-8-8-8-8 3.5817-8 8 3.582 8 8 8z" fill="#4dabf7" stroke="#212529" stroke-miterlimit="10" stroke-width="6"/><path d="m909 37c4.418 0 8-3.5817 8-8s-3.582-8-8-8-8 3.5817-8 8 3.582 8 8 8z" fill="#adb5bd" stroke="#212529" stroke-miterlimit="10" stroke-width="6"/></svg>