<svg fill="none" height="210" viewBox="0 0 270 210" width="270" xmlns="http://www.w3.org/2000/svg" xmlns:xlink="http://www.w3.org/1999/xlink"><clipPath id="a"><path d="m19 21h231.4v168.1h-231.4z"/></clipPath><g clip-path="url(#a)"><path d="m209 27h-184v23h184z" fill="#da77f2"/><path d="m46 141h53zm0-12h68zm0-12h86zm109-94v23zm-97 65h35zm95-12v23zm23 24h-130v-24h130zm-157-54h184zm184 121h-183v-145h183z" stroke="#d0bfff" stroke-miterlimit="10" stroke-width="2"/><path d="m205.9 144.5 15.3 15.4zm10.3 20.4 22.7 22.7 10.1-10.1-22.7-22.7zm-94.3-55.2c0 27.2 22 49.2 49.2 49.2s49.2-22 49.2-49.2-22-49.2-49.2-49.2-49.2 22.1-49.2 49.2z" fill="#212529"/><path d="m205.9 144.5 15.3 15.4zm10.3 20.4 22.7 22.7 10.1-10.1-22.7-22.7zm-94.3-55.2c0 27.2 22 49.2 49.2 49.2s49.2-22 49.2-49.2-22-49.2-49.2-49.2-49.2 22.1-49.2 49.2z" stroke="#ff922b" stroke-miterlimit="10" stroke-width="2"/><path d="m175.2 156.7c23 0 41.7-18.7 41.7-41.7 0-23.0002-18.7-41.7002-41.7-41.7002s-41.7 18.7-41.7 41.7002c0 23 18.7 41.7 41.7 41.7z" fill="#ffc078"/><g fill="#212529"><path d="m199.7 112.8c-.5 0-1.1-.2-1.5-.6-.2-.2-.3-.4-.4-.7-.1-.2-.2-.5-.2-.8 0-.1 0-.3 0-.4s.1-.2.1-.4c0-.1.1-.2.2-.4.1-.1.2-.2.3-.3.8-.8 2.2-.8 2.9 0 .1.1.2.2.2.3.1.1.2.2.2.4.1.1.1.2.1.4v.4c0 .3-.1.5-.2.8s-.2.5-.4.7c-.2.4-.7.6-1.3.6z"/><path d="m191.4 112.8c-.3 0-.5 0-.8-.2-.2-.1-.5-.2-.7-.4s-.3-.4-.4-.7c-.1-.2-.2-.5-.2-.8 0-.5.2-1.1.6-1.5.2-.2.4-.3.7-.4.4-.2.8-.2 1.2-.1.1 0 .2.1.4.1.1 0 .2.1.4.2.1.1.2.2.3.2.4.4.6.9.6 1.5 0 .3-.1.5-.2.8s-.2.5-.4.7c-.1.1-.2.2-.3.2-.1.1-.2.1-.4.2-.1.1-.3.1-.4.1-.1.1-.2.1-.4.1z"/><path d="m191.4 104.5c-.3 0-.5 0-.8-.2-.2-.1-.5-.2-.7-.4s-.3-.4-.4-.7c-.1-.2-.2-.5-.2-.8 0-.5.2-1.1.6-1.5.2-.2.4-.3.7-.4.4-.2.8-.2 1.2-.1.1 0 .2.1.4.1.1 0 .2.1.4.2.1.1.2.2.3.2.4.4.6.9.6 1.5 0 .3-.1.5-.2.8s-.2.5-.4.7c-.1.1-.2.2-.3.2-.1.1-.2.1-.4.2-.1.1-.3.1-.4.1-.1.1-.2.1-.4.1z"/><path d="m199.7 104.5c-.5 0-1.1-.2-1.5-.6s-.6-.9-.6-1.5c0-.5.2-1.1.6-1.5.8-.8 2.2-.8 2.9 0 .4.4.6.9.6 1.5 0 .5-.2 1.1-.6 1.5-.3.4-.8.6-1.4.6z"/><path d="m199.7 121.1c-.1 0-.3 0-.4 0s-.2-.1-.4-.1c-.1 0-.2-.1-.4-.2-.1-.1-.2-.2-.3-.2-.2-.2-.3-.4-.4-.7-.1-.2-.2-.5-.2-.8 0-.1 0-.3 0-.4s.1-.2.1-.4c0-.1.1-.2.2-.4.1-.1.2-.2.3-.3.8-.8 2.2-.8 2.9 0 .1.1.2.2.2.3.1.1.2.2.2.4.1.1.1.2.1.4v.4c0 .3-.1.5-.2.8s-.2.5-.4.7c-.1.1-.2.2-.3.2-.1.1-.2.1-.4.2-.1.1-.3.1-.4.1.1-.1-.1 0-.2 0z"/><path d="m191.4 121.1c-.3 0-.5-.1-.8-.2-.2-.1-.5-.2-.7-.4s-.3-.4-.4-.7c-.1-.2-.2-.5-.2-.8 0-.5.2-1.1.6-1.5.2-.2.4-.3.7-.4.4-.2.8-.2 1.2-.1.1 0 .2.1.4.1.1 0 .2.1.4.2.1.1.2.2.3.2.4.4.6.9.6 1.5 0 .3-.1.5-.2.8s-.2.5-.4.7c-.1.1-.2.2-.3.2-.1.1-.2.1-.4.2-.1.1-.3.1-.4.1s-.2.1-.4.1z"/><path d="m191.4 129.3c-.3 0-.5-.1-.8-.2-.2-.1-.5-.2-.7-.4s-.3-.4-.4-.7-.2-.5-.2-.8c0-.1 0-.3 0-.4s.1-.2.1-.4c0-.1.1-.2.2-.4.1-.1.2-.2.3-.3.2-.2.4-.3.7-.4.4-.2.8-.2 1.2-.1.1 0 .2.1.4.1.1 0 .2.1.4.2.1.1.2.2.3.2.1.1.2.2.2.3.1.1.2.2.2.4.1.1.1.2.1.4v.4c0 .3-.1.5-.2.8-.1.2-.2.5-.4.7-.1.1-.2.2-.3.2-.1.1-.2.1-.4.2-.1.1-.3.1-.4.1 0 .1-.1.1-.3.1z"/><path d="m191.4 96.2c-.5 0-1.1-.2-1.5-.6s-.6-.9-.6-1.5c0-.3.1-.5.2-.8s.2-.5.4-.7.4-.3.7-.4c.8-.3 1.7-.1 2.3.4.2.2.3.4.4.7.1.2.2.5.2.8 0 .5-.2 1.1-.6 1.5-.1.1-.2.2-.3.2-.1.1-.2.1-.4.2-.1.1-.3.1-.4.1-.1.1-.2.1-.4.1z"/><path d="m191.4 88.0002c-.5 0-1.1-.2-1.5-.6s-.6-.9-.6-1.5c0-.3.1-.5.2-.8s.2-.5.4-.7.4-.3.7-.4c.4-.2.8-.2 1.2-.1.1 0 .2.1.4.1.1 0 .2.1.4.2.1.1.2.2.3.2.2.2.3.4.4.7.1.2.2.5.2.8 0 .5-.2 1.1-.6 1.5-.1.1-.2.2-.3.2-.1.1-.2.1-.4.2-.1.1-.3.1-.4.1s-.2.1-.4.1z"/><path d="m191.4 137.6c-.3 0-.5-.1-.8-.2-.2-.1-.5-.2-.7-.4s-.3-.4-.4-.7-.2-.5-.2-.8c0-.1 0-.3 0-.4s.1-.2.1-.4c0-.1.1-.2.2-.4l.3-.3c.2-.2.4-.3.7-.4.4-.2.8-.2 1.2-.1.1 0 .2.1.4.1.1 0 .2.1.4.2.1.1.2.2.3.2.1.1.2.2.2.3.1.1.2.2.2.4.1.1.1.2.1.4v.4c0 .3-.1.5-.2.8-.1.2-.2.5-.4.7-.1.1-.2.2-.3.2-.1.1-.2.1-.4.2-.1.1-.3.1-.4.1 0 .1-.1.1-.3.1z"/><path d="m183.2 104.5c-.5 0-1.1-.2-1.5-.6-.2-.2-.3-.4-.4-.7s-.2-.5-.2-.8.1-.5.2-.8.2-.5.4-.7c.5-.5 1.2-.7 1.9-.6.1 0 .2.1.4.1.1 0 .2.1.4.2.1.1.2.2.3.2.2.2.3.4.4.7.1.2.2.5.2.8s-.1.5-.2.8-.2.5-.4.7c-.1.1-.2.2-.3.2-.1.1-.2.1-.4.2-.1.1-.3.1-.4.1-.2.2-.3.2-.4.2z"/><path d="m183.2 121.1c-.5 0-1.1-.2-1.5-.6-.2-.2-.3-.4-.4-.7s-.2-.5-.2-.8c0-.5.2-1.1.6-1.5.5-.5 1.2-.7 1.9-.6.1 0 .2.1.4.1.1 0 .2.1.4.2.1.1.2.2.3.2.4.4.6.9.6 1.5 0 .3-.1.5-.2.8s-.2.5-.4.7c-.1.1-.2.2-.3.2-.1.1-.2.1-.4.2-.1.1-.3.1-.4.1-.2.1-.3.2-.4.2z"/><path d="m183.2 87.9999c-.5 0-1.1-.2-1.5-.6-.2-.2-.3-.4-.4-.7s-.2-.5-.2-.8.1-.5.2-.8c.1-.2.2-.5.4-.7.5-.5 1.2-.7 1.9-.6.1 0 .2.1.4.1.1 0 .2.1.4.2.1.1.2.2.3.2.2.2.3.4.4.7.1.2.2.5.2.8s-.1.5-.2.8-.2.5-.4.7c-.1.1-.2.2-.3.2-.1.1-.2.1-.4.2-.1.1-.3.1-.4.1-.2.1-.3.2-.4.2z"/><path d="m183.2 137.6c-.5 0-1.1-.2-1.5-.6-.2-.2-.3-.4-.4-.7s-.2-.5-.2-.8c0-.1 0-.3 0-.4s.1-.2.1-.4c0-.1.1-.2.2-.4.1-.1.2-.2.3-.3.5-.5 1.2-.7 1.9-.6.1 0 .2.1.4.1.1 0 .2.1.4.2.1.1.2.2.3.2.4.4.6.9.6 1.5 0 .3-.1.5-.2.8-.1.2-.2.5-.4.7-.1.1-.2.2-.3.2-.1.1-.2.1-.4.2-.1.1-.3.1-.4.1-.2.2-.3.2-.4.2z"/></g><path d="m178.835 149.864c22.182-4.271 36.701-25.716 32.43-47.898-4.272-22.1814-25.716-36.7007-47.898-32.4292s-36.701 25.7161-32.43 47.8982c4.272 22.182 25.716 36.701 47.898 32.429z" stroke="#ff922b" stroke-miterlimit="10" stroke-width="2"/></g></svg>