<svg fill="none" height="379" viewBox="0 0 829 379" width="829" xmlns="http://www.w3.org/2000/svg" xmlns:xlink="http://www.w3.org/1999/xlink"><filter id="a" color-interpolation-filters="sRGB" filterUnits="userSpaceOnUse" height="325" width="325" x="0" y="0"><feFlood flood-opacity="0" result="BackgroundImageFix"/><feBlend in="SourceGraphic" in2="BackgroundImageFix" mode="normal" result="shape"/><feGaussianBlur result="effect1_foregroundBlur_3609_6310" stdDeviation="50"/></filter><filter id="b" color-interpolation-filters="sRGB" filterUnits="userSpaceOnUse" height="325" width="325" x="54" y="54"><feFlood flood-opacity="0" result="BackgroundImageFix"/><feBlend in="SourceGraphic" in2="BackgroundImageFix" mode="normal" result="shape"/><feGaussianBlur result="effect1_foregroundBlur_3609_6310" stdDeviation="50"/></filter><g filter="url(#a)" opacity=".3"><rect fill="#8b5ef3" height="125" rx="20" width="125" x="100" y="100"/></g><g filter="url(#b)" opacity=".3"><rect fill="#00d1ff" height="125" rx="20" width="125" x="154" y="154"/></g><g clip-rule="evenodd" fill-rule="evenodd"><path d="m233.415 213.731-65.945 8.782c-4.506.601-8.989-.725-12.372-3.656l-13.647-11.823-22.541 3.001c-1.765.235-2.48 2.484-1.154 3.633l41.393 35.863c2.114 1.832 4.916 2.66 7.732 2.285l93.211-12.413c1.807-.241 2.495-2.572 1.088-3.686z" fill="#198cff"/><path d="m233.412 178.293-65.942 8.782c-4.506.6-8.989-.726-12.372-3.657l-13.644-11.822-22.544 3.003c-1.765.235-2.48 2.483-1.154 3.631l41.393 35.865c2.114 1.832 4.916 2.661 7.732 2.286l93.211-12.415c1.807-.24 2.495-2.572 1.088-3.686z" fill="#389bff"/><path d="m118.908 139.142 89.862-11.968c2.671-.356 5.336.369 7.415 2.016l45.006 35.636c1.419 1.124.726 3.477-1.097 3.72l-93.211 12.414c-2.821.375-5.629-.454-7.747-2.289l-41.392-35.865c-1.338-1.159-.617-3.427 1.164-3.664z" fill="#56abff"/></g><path d="m347.513 153.727h17.192v45.973c0 5.313-1.265 9.941-3.794 13.885-2.529 3.921-6.055 6.96-10.579 9.118-4.524 2.135-9.779 3.202-15.765 3.202-6.056 0-11.345-1.067-15.87-3.202-4.524-2.158-8.039-5.197-10.544-9.118-2.506-3.944-3.759-8.572-3.759-13.885v-45.973h17.227v44.476c0 2.459.533 4.652 1.601 6.578 1.09 1.925 2.61 3.433 4.559 4.524 1.948 1.09 4.21 1.635 6.786 1.635 2.575 0 4.826-.545 6.751-1.635 1.949-1.091 3.469-2.599 4.559-4.524 1.091-1.926 1.636-4.119 1.636-6.578zm45.006 40.787v30.486h-17.017v-53.455h16.182v9.814h.592c1.183-3.271 3.201-5.835 6.055-7.691 2.854-1.879 6.253-2.819 10.197-2.819 3.758 0 7.018.847 9.779 2.541 2.784 1.67 4.942 4.014 6.473 7.03 1.554 2.993 2.32 6.496 2.297 10.51v34.07h-17.018v-30.729c.023-2.97-.731-5.29-2.262-6.961-1.508-1.67-3.608-2.505-6.299-2.505-1.786 0-3.364.394-4.733 1.183-1.346.766-2.39 1.868-3.132 3.306-.719 1.438-1.09 3.179-1.114 5.22zm45.094 50.531v-73.5h16.844v9.153h.522c.696-1.624 1.682-3.19 2.958-4.698 1.299-1.508 2.946-2.738 4.942-3.689 2.018-.974 4.431-1.462 7.238-1.462 3.712 0 7.181.975 10.406 2.924 3.248 1.949 5.87 4.953 7.865 9.013s2.993 9.234 2.993 15.522c0 6.055-.963 11.124-2.889 15.208-1.902 4.083-4.478 7.145-7.726 9.187-3.225 2.042-6.809 3.063-10.753 3.063-2.692 0-5.023-.441-6.995-1.323-1.972-.881-3.631-2.041-4.977-3.48-1.322-1.438-2.343-2.981-3.062-4.628h-.348v28.71zm16.67-46.772c0 2.877.382 5.382 1.148 7.517.789 2.134 1.914 3.793 3.376 4.976 1.485 1.16 3.26 1.74 5.324 1.74 2.088 0 3.863-.58 5.325-1.74 1.462-1.183 2.564-2.842 3.306-4.976.766-2.135 1.149-4.64 1.149-7.517s-.383-5.371-1.149-7.483c-.742-2.111-1.844-3.746-3.306-4.906-1.438-1.161-3.213-1.741-5.325-1.741-2.088 0-3.863.569-5.324 1.706-1.462 1.137-2.587 2.761-3.376 4.872-.766 2.111-1.148 4.628-1.148 7.552zm61.084 27.632c-3.41 0-6.438-.569-9.083-1.705-2.621-1.16-4.698-2.901-6.229-5.221-1.508-2.343-2.262-5.278-2.262-8.804 0-2.97.522-5.476 1.566-7.517 1.044-2.042 2.482-3.701 4.315-4.977s3.944-2.239 6.334-2.888c2.39-.673 4.942-1.126 7.656-1.358 3.04-.278 5.487-.568 7.343-.87 1.856-.324 3.202-.777 4.037-1.357.859-.603 1.288-1.45 1.288-2.54v-.174c0-1.787-.615-3.167-1.845-4.142-1.229-.974-2.888-1.461-4.976-1.461-2.251 0-4.06.487-5.429 1.461-1.369.975-2.239 2.32-2.61 4.037l-15.696-.557c.464-3.248 1.659-6.148 3.585-8.7 1.949-2.575 4.617-4.594 8.004-6.055 3.411-1.485 7.506-2.228 12.285-2.228 3.411 0 6.554.406 9.431 1.218 2.877.789 5.383 1.949 7.517 3.481 2.135 1.508 3.782 3.364 4.942 5.568 1.183 2.204 1.775 4.721 1.775 7.552v36.332h-16.009v-7.447h-.417c-.952 1.809-2.17 3.34-3.654 4.593-1.462 1.253-3.191 2.193-5.186 2.819-1.972.627-4.199.94-6.682.94zm5.255-11.137c1.833 0 3.48-.371 4.942-1.113 1.485-.743 2.668-1.763 3.55-3.063.881-1.322 1.322-2.853 1.322-4.593v-5.081c-.487.255-1.079.487-1.775.696-.672.208-1.415.406-2.227.591-.812.186-1.647.348-2.506.487-.858.14-1.682.267-2.47.383-1.601.255-2.97.65-4.107 1.184-1.114.533-1.972 1.229-2.575 2.088-.58.835-.87 1.832-.87 2.992 0 1.764.626 3.109 1.879 4.037 1.276.928 2.888 1.392 4.837 1.392zm62.051 11.241c-5.638 0-10.475-1.16-14.512-3.48-4.014-2.32-7.1-5.545-9.257-9.675-2.158-4.153-3.237-8.955-3.237-14.407 0-5.476 1.079-10.278 3.237-14.408 2.18-4.153 5.278-7.389 9.291-9.709 4.037-2.321 8.852-3.481 14.443-3.481 4.942 0 9.245.894 12.911 2.68 3.689 1.787 6.566 4.315 8.631 7.587 2.088 3.248 3.19 7.064 3.306 11.449h-15.904c-.325-2.737-1.253-4.883-2.784-6.438-1.508-1.554-3.48-2.332-5.916-2.332-1.972 0-3.701.557-5.186 1.671-1.485 1.09-2.645 2.714-3.48 4.872-.812 2.135-1.218 4.779-1.218 7.935 0 3.155.406 5.823 1.218 8.004.835 2.158 1.995 3.793 3.48 4.907 1.485 1.09 3.214 1.636 5.186 1.636 1.577 0 2.969-.337 4.176-1.01 1.229-.672 2.239-1.658 3.027-2.958.789-1.322 1.288-2.923 1.497-4.802h15.904c-.162 4.408-1.264 8.259-3.306 11.554-2.019 3.294-4.861 5.858-8.526 7.691-3.643 1.809-7.97 2.714-12.981 2.714zm48.869-15.034.07-20.289h2.366l15.034-19.141h19.28l-22.342 27.424h-4.489zm-15.347 14.025v-71.273h17.018v71.273zm33.2 0-13.99-22.203 11.206-12.076 22.447 34.279zm47.774 1.009c-5.592 0-10.418-1.102-14.478-3.306-4.037-2.227-7.146-5.394-9.326-9.501-2.158-4.129-3.237-9.036-3.237-14.72 0-5.522 1.09-10.348 3.271-14.478 2.181-4.153 5.255-7.378 9.223-9.674 3.967-2.321 8.642-3.481 14.024-3.481 3.805 0 7.286.592 10.441 1.775 3.155 1.184 5.881 2.935 8.178 5.255s4.083 5.186 5.359 8.596c1.277 3.387 1.915 7.274 1.915 11.659v4.245h-46.46v-9.883h30.625c-.023-1.81-.452-3.422-1.288-4.838-.835-1.415-1.983-2.517-3.445-3.306-1.438-.812-3.097-1.218-4.977-1.218-1.902 0-3.607.429-5.115 1.288-1.508.835-2.703 1.984-3.585 3.445-.881 1.439-1.345 3.074-1.392 4.907v10.058c0 2.181.429 4.095 1.288 5.742.858 1.624 2.076 2.888 3.654 3.793s3.457 1.357 5.638 1.357c1.508 0 2.877-.208 4.106-.626 1.23-.418 2.286-1.032 3.167-1.844.882-.812 1.543-1.81 1.984-2.993l15.626.452c-.65 3.503-2.077 6.554-4.281 9.153-2.181 2.575-5.046 4.582-8.596 6.02-3.55 1.416-7.656 2.123-12.319 2.123zm53.585-.243c-3.945 0-7.529-1.021-10.754-3.063s-5.8-5.104-7.726-9.187c-1.926-4.084-2.888-9.153-2.888-15.208 0-6.288.997-11.462 2.993-15.522 1.995-4.06 4.605-7.064 7.83-9.013 3.248-1.949 6.74-2.924 10.475-2.924 2.807 0 5.209.488 7.204 1.462 1.995.951 3.642 2.181 4.942 3.689 1.299 1.508 2.285 3.074 2.958 4.698h.348v-26.971h17.017v71.273h-16.843v-8.665h-.522c-.72 1.647-1.74 3.19-3.063 4.628-1.322 1.439-2.981 2.599-4.976 3.48-1.972.882-4.304 1.323-6.995 1.323zm5.916-13.26c2.065 0 3.828-.58 5.29-1.74 1.461-1.183 2.586-2.842 3.375-4.976.789-2.135 1.183-4.64 1.183-7.517 0-2.924-.394-5.441-1.183-7.552-.765-2.111-1.891-3.735-3.375-4.872-1.462-1.137-3.225-1.706-5.29-1.706-2.112 0-3.898.58-5.36 1.741-1.461 1.16-2.575 2.795-3.341 4.906-.742 2.112-1.113 4.606-1.113 7.483s.383 5.382 1.148 7.517c.766 2.134 1.868 3.793 3.306 4.976 1.462 1.16 3.248 1.74 5.36 1.74z" fill="#fff"/></svg>