<svg fill="none" height="322" viewBox="0 0 322 322" width="322" xmlns="http://www.w3.org/2000/svg"><path d="m159.417 87c17.857 0 32.333-14.476 32.333-32.333s-14.476-32.333-32.333-32.333-32.333 14.476-32.333 32.333 14.476 32.333 32.333 32.333z" fill="#51cf66"/><path d="m159.417 81.333c14.727 0 26.666-11.9388 26.666-26.666s-11.939-26.666-26.666-26.666-26.666 11.9388-26.666 26.666 11.939 26.666 26.666 26.666z" fill="#37b24d"/><path d="m159.417 76c11.782 0 21.333-9.5511 21.333-21.333s-9.551-21.333-21.333-21.333-21.333 9.5511-21.333 21.333 9.551 21.333 21.333 21.333z" fill="#51cf66"/><g stroke="#868e96"><path d="m159.75 1v12" stroke-miterlimit="10" stroke-width="4"/><path d="m143.75 7.66699v12.00001" stroke-miterlimit="10" stroke-width="4"/><path d="m175.75 5.66699v12.00001" stroke-miterlimit="10" stroke-width="4"/><path d="m271.271 187.754s18.344-4.372 29.055 8.307-2.404 17.926-4.153 17.926-13.99 1.529-13.553-9.619 8.962-22.516 24.264-20.329c0 0 7.214 1.312 13.116 6.995" stroke-miterlimit="10" stroke-width="4"/></g><path d="m0 180.536 25.563-5.939s3.098-24.271 28.919-40.021v-40.0228s13.427 1.808 21.948 6.7138c8.52 4.905 15.75 13.685 15.75 13.685s18.849-11.103 53.707-11.103c34.857 0 127.037 14.718 127.037 92.438 0 0 1.808 26.854-27.37 56.031-29.177 29.177-45.444 29.435-54.739 68.683h-13.686l-7.487-35.891h-39.247l-7.488 35.632h-14.977s-1.807-34.083-28.402-50.092-79.528-59.646-79.528-59.646z" fill="#ffe8cc"/><path d="m63.75 174.357c2.139 0 3.873-1.734 3.873-3.873s-1.734-3.873-3.873-3.873-3.873 1.734-3.873 3.873 1.734 3.873 3.873 3.873z" fill="#212529"/><path d="m191.75 121.651h-64v7.5h64z" fill="#212529"/><path d="m149.25 240.911c23.196 0 42-18.804 42-42s-18.804-42-42-42-42 18.804-42 42 18.804 42 42 42z" fill="#fff4e6"/><path d="m149.25 250.411c28.443 0 51.5-23.057 51.5-51.5s-23.057-51.5-51.5-51.5-51.5 23.057-51.5 51.5 23.057 51.5 51.5 51.5z" stroke="#ffc078" stroke-miterlimit="10" stroke-width="4"/><path d="m137.879 210.282c0 6.279 5.092 11.371 11.371 11.371s11.371-5.092 11.371-11.371-5.092-11.371-11.371-11.371-11.371-5.092-11.371-11.371 5.092-11.371 11.371-11.371 11.371 5.092 11.371 11.371" stroke="#495057" stroke-miterlimit="10" stroke-width="4"/><path d="m149.25 170.484v56.854" stroke="#495057" stroke-miterlimit="10" stroke-width="4"/><path d="m132.75 274.901c-21.533 0-42.033-3.201-60.655-8.977 2.639 1.749 5.136 3.342 7.433 4.725 26.596 16.009 28.402 50.092 28.402 50.092h14.977l7.488-35.632h39.247l7.487 35.891h13.686c9.295-39.248 25.563-39.506 54.739-68.683 14.036-14.036 20.891-27.523 24.236-37.754-25.756 35.854-77.453 60.338-137.04 60.338z" fill="#ffd8a8"/></svg>