<svg fill="none" height="322" viewBox="0 0 320 322" width="320" xmlns="http://www.w3.org/2000/svg"><path d="m288 186.041h-16v59.626h16z" fill="#e599f7"/><path d="m183.531 164.725c0-2.725-.12-23.058-.12-23.058 64.198-29.752 60.191-139.667 60.191-139.667h-72.002-72s-4.063 111.245 61.344 140.202v22.522c0 18.822-22.588 21.176-22.588 21.176v9.884h22.588 22.588 22.588v-9.884c-.001 0-22.589-2.353-22.589-21.175z" fill="#ced4da"/><path d="m103.013 47.4779s-13.488-6.422-15.536 6.408c-1.977 12.377 17.803 13.699 19.061 23.342s-8.989 8.301-8.379 3.643" stroke="#868e96" stroke-miterlimit="10" stroke-width="4"/><path d="m240.036 47.4779s13.487-6.422 15.536 6.408c1.977 12.377-17.803 13.699-19.061 23.342s8.989 8.301 8.379 3.643" stroke="#868e96" stroke-miterlimit="10" stroke-width="4"/><path d="m106.004 245.667h-96v11.666h96z" fill="#868e96"/><path d="m106.004 310.334h-96v11.666h96z" fill="#868e96"/><path d="m90.004 257.333h-64v53.001h64z" fill="#ced4da"/><path d="m70.254 274h-24.5v16h24.5z" fill="#212529"/><path d="m320 245.667h-80.811v11.666h80.811z" fill="#868e96"/><path d="m320 310.334h-80.811v11.666h80.811z" fill="#868e96"/><path d="m306.531 257.333h-53.874v53.001h53.874z" fill="#ced4da"/><path d="m289.906 274h-20.623v16h20.623z" fill="#212529"/><path d="m64.522 269.75h-24.5v16h24.5z" stroke="#868e96" stroke-miterlimit="10" stroke-width="4"/><path d="m284.175 269.75h-20.623v16h20.623z" stroke="#868e96" stroke-miterlimit="10" stroke-width="4"/><path d="m242.028 195.5h-140.856v17.117h140.856z" fill="#e599f7"/><path d="m242.028 290.383h-140.856v17.117h140.856z" fill="#e599f7"/><path d="m218.552 212.617h-93.904v77.766h93.904z" fill="#cc5de8"/><path d="m189.574 237.072h-35.947v23.476h35.947z" fill="#212529"/><path d="m183.044 230.542h-35.947v23.476h35.947z" stroke="#ced4da" stroke-miterlimit="10" stroke-width="4"/><path d="m64.676 227.319c0-6.671 0-10.238 0-12.026 35.582-24.918 33.358-116.4009 33.358-116.4009h-40.03-40.029s-2.224 91.4829 33.358 116.4009v12.026c0 11.119-13.343 12.509-13.343 12.509v5.839h13.343 13.343 13.344v-5.839s-13.344-1.39-13.344-12.509z" fill="#e599f7"/><path d="m280 178c13.255 0 24-10.745 24-24s-10.745-24-24-24-24 10.745-24 24 10.745 24 24 24z" fill="#fd7e14"/><path d="m304 178h-48v8.041h48z" stroke="#868e96" stroke-miterlimit="10" stroke-width="4"/><path d="m22.571 155.397s-12.61-4.098-12.935 7.43c-.313 11.12 17.246 10.005 19.463 18.346 2.219 8.341-6.954 8.341-6.954 4.171" stroke="#868e96" stroke-miterlimit="10" stroke-width="4"/><path d="m93.444 155.397s12.61-4.098 12.935 7.43c.314 11.12-17.246 10.005-19.463 18.346-2.219 8.341 6.953 8.341 6.953 4.171" stroke="#868e96" stroke-miterlimit="10" stroke-width="4"/><path d="m208 95.9998-8-6.5-8 6.5v-30.805h16z" stroke="#868e96" stroke-miterlimit="10" stroke-width="4"/><path d="m199.5 70c9.113 0 16.5-7.3873 16.5-16.5s-7.387-16.5-16.5-16.5-16.5 7.3873-16.5 16.5 7.387 16.5 16.5 16.5z" fill="#fd7e14"/><g stroke="#868e96" stroke-miterlimit="10" stroke-width="4"><path d="m159.75 50h-31.5"/><path d="m159.75 39.875h-31.5"/><path d="m159.75 60.125h-31.5"/><path d="m64 114h-64"/><path d="m63.5 129.25h-57.75"/><path d="m64 145.75h-52.75"/><path d="m218.553 98v37.689h20.25l10.75 11.061v-11.061h50.5v-37.689z"/><path d="m115.601 195.784v6.466"/><path d="m131.601 195.784v6.466"/><path d="m147.601 195.784v6.466"/><path d="m163.601 195.784v6.466"/><path d="m179.601 195.784v6.466"/><path d="m195.601 195.784v6.466"/><path d="m211.601 195.784v6.466"/><path d="m227.601 195.784v6.466"/><path d="m115.601 290v6.466"/><path d="m131.601 290v6.466"/><path d="m147.601 290v6.466"/><path d="m163.601 290v6.466"/><path d="m179.601 290v6.466"/><path d="m195.601 290v6.466"/><path d="m211.601 290v6.466"/><path d="m227.601 290v6.466"/><path d="m247.934 2h-153.334v11.001h153.334z"/></g></svg>