<svg fill="none" height="450" viewBox="0 0 600 450" width="600" xmlns="http://www.w3.org/2000/svg" xmlns:xlink="http://www.w3.org/1999/xlink"><clipPath id="a"><path d="m0 0h600v450h-600z"/></clipPath><clipPath id="b"><path d="m152 75h300v37h-300z"/></clipPath><clipPath id="c"><path d="m152 356h300v16h-300z"/></clipPath><clipPath id="d"><path d="m177 384h250v16h-250z"/></clipPath><clipPath id="e"><path d="m165 412h275v16h-275z"/></clipPath><g clip-path="url(#a)"><path d="m0 0h600v450h-600z" fill="#212529"/><rect fill="#343a40" height="498" rx="39" stroke="#495057" stroke-width="2" width="378" x="113" y="11"/><g clip-path="url(#b)"><path clip-rule="evenodd" d="m903.704 93.125c-2.142 3.3926-4.086 1.81-5.944-2.7694-.534-1.3155-1.122-2.3293-1.623-3.7685-.971-2.7991-2.095-4.1442-3.275-4.6932-2.497-1.1671-4.908-.0593-7.102 4.9158-.778 1.7655-1.547 3.5854-2.302 5.4844-2.16 5.44-4.382 5.9643-6.704 1.4689-1.856-3.5805-3.708-7.2056-5.597-10.5536-2.524-4.4757-5.036-5.3905-7.539.5984-1.298 3.1107-2.678 5.7663-4.041 8.4863-1.2 2.3986-2.412 4.7625-3.647 6.8792-1.41 2.4037-2.87 2.1467-4.238-.366-1.054-1.9337-2.034-4.4361-3.034-6.7505-1.466-3.3926-2.912-6.8989-4.382-10.2618-1.552-3.5508-3.22-4.1789-5.003-2.9129-1.367.9644-2.603 2.7794-3.783 5.4944-1.548 3.5657-3.101 7.2055-4.75 10.0146-3.383 5.7369-9.723-4.6834-9.802-4.8268-1.37-2.5914-2.732-5.2471-4.12-7.7001-1.13-2.0078-2.272-1.449-3.461-.2324-3.183 3.2541-6.159 8.0759-8.979 14.4308-2.452 5.5344-4.897 4.5104-7.02-2.4233-.478-1.5528-.925-3.254-1.418-4.7525-2.607-7.9127-5.247-8.5853-8.059-2.0277-1 2.3441-1.935 5.0988-2.953 7.3193-.696 1.5083-1.47 3.1799-2.239 3.4321-2.129.6825-4.193-.4055-5.904-5.9048-.481-1.5529-.956-3.1552-1.475-4.5301-2.238-5.9098-4.658-7.5517-7.212-3.2739-1.656 2.7843-3.248 6.1176-4.861 9.2233-2.977 5.7515-5.791 4.4954-8.452-2.7595-.587-1.5925-1.137-3.3828-1.699-5.1087-2.198-6.7703-4.748-6.8989-7.242-3.9316-1.884 2.2403-3.687 5.8405-5.392 9.6782-3.543 7.9869-7.006 8.2391-10.55.2869-1.164-2.6063-2.409-4.7328-3.586-7.2501-1.2-2.5815-2.44-2.6211-3.698-1.1127-.861 1.0336-1.729 2.2007-2.525 3.7783-1.283 2.5469-2.515 5.4548-3.759 8.2638-2.322 5.2574-4.626 5.6234-6.916-.2274-.525-1.3452-1.034-2.7744-1.548-4.1641-1.028-2.7942-2.082-5.4598-3.077-8.3924-1.123-3.3135-2.312-3.4816-3.601-1.8397-1.822 2.3194-3.518 5.5191-5.104 9.5942-.819 2.0968-1.655 4.3074-2.574 5.6229-2.312 3.3036-4.466 2.4628-6.245-4.713-.615-2.4826-1.229-5.0048-1.905-7.255-3.456-11.5723-4.946-10.7711-8.087-1.7012-.429 1.2364-.788 2.7991-1.2 4.1344-.549 1.7754-1.095 3.5904-1.684 5.1779-2.047 5.4845-4.525 6.8494-6.971-1.182-1.289-4.2284-2.748-7.7841-4.166-11.4438-.431-1.1127-.987-2.1908-1.487-2.2006-1.935-.0594-3.833.7516-5.289 6.3548-1.082 4.1542-4.479 19.0104-8.528 7.621-.508-1.4392-1.12-2.3293-1.622-3.7685-.969-2.7991-2.094-4.1442-3.274-4.6932-2.498-1.1671-4.907-.0593-7.103 4.9158-.777 1.7655-1.547 3.5854-2.3 5.4844-2.161 5.44-4.384 5.9643-6.705 1.4689-1.856-3.5805-3.71-7.2056-5.598-10.5536-2.524-4.4757-5.034-5.3905-7.537.5984-1.3 3.1107-2.68 5.7663-4.043 8.4863-1.2 2.3986-2.41 4.7625-3.646 6.8792-1.411 2.4037-2.87 2.1467-4.239-.366-1.053-1.9337-2.033-4.4361-3.033-6.7505-1.467-3.3926-2.912-6.8989-4.383-10.2618-1.552-3.5508-3.219-4.1789-5.001-2.9129-1.367.9644-2.603 2.7794-3.784 5.4944-1.547 3.5657-3.1 7.2055-4.75 10.0146-3.385 5.7369-9.724-4.6834-9.801-4.8268-1.372-2.5914-2.733-5.2471-4.121-7.7001-1.131-2.0078-2.272-1.449-3.463-.2324-3.18 3.2541-6.159 8.0759-8.977 14.4308-2.452 5.5344-4.898 4.5104-7.02-2.4233-.479-1.5528-.927-3.254-1.419-4.7525-2.605-7.9127-5.248-8.5853-8.057-2.0277-1 2.3441-1.935 5.0988-2.956 7.3193-.694 1.5083-1.468 3.1799-2.239 3.4321-2.128.6825-4.191-.4055-5.901-5.9048-.483-1.5529-.958-3.1552-1.476-4.5301-2.239-5.9098-4.66-7.5517-7.212-3.2739-1.656 2.7843-3.247 6.1176-4.862 9.2233-2.977 5.7515-5.789 4.4954-8.45-2.7595-.59-1.5925-1.139-3.3828-1.7-5.1087-2.196-6.7703-4.747-6.8989-7.24-3.9316-1.886 2.2403-3.691 5.8405-5.394 9.6782-3.544 7.9869-7.005 8.2391-10.549.2869-1.165-2.6063-2.409-4.7328-3.589-7.2501-1.198-2.5815-2.439-2.6211-3.695-1.1127-.863 1.0336-1.729 2.2007-2.527 3.7783-1.284 2.5469-2.514 5.4548-3.758 8.2638-2.323 5.2574-4.627 5.6234-6.916-.2274-.524-1.3452-1.034-2.7744-1.548-4.1641-1.027-2.7942-2.082-5.4598-3.078-8.3924-1.121-3.3135-2.312-3.4816-3.601-1.8397-1.823 2.3194-3.517 5.5191-5.104 9.5942-.819 2.0968-1.655 4.3074-2.572 5.6229-2.313 3.3036-4.467 2.4628-6.245-4.713-.616-2.4826-1.231-5.0048-1.907-7.255-3.456-11.5723-4.945-10.7711-8.087-1.7012-.429 1.2364-.788 2.7991-1.2 4.1344-.549 1.7754-1.094 3.5904-1.682 5.1779-2.047 5.4845-4.527 6.8494-6.972-1.182-1.29-4.2284-2.747-7.7841-4.166-11.4438-.43-1.1127-.986-2.1908-1.486-2.2006-1.936-.0594-3.835.7516-5.291 6.3548-1.071 4.1245-4.517 18.4024-8.593 7.621-.519-1.3699-1.119-2.3293-1.619-3.7685-.972-2.7991-2.096-4.1442-3.276-4.6932-2.499-1.1671-4.907-.0593-7.104 4.9158-.777 1.7655-1.547 3.5854-2.3 5.4844-2.16 5.44-4.383 5.9643-6.705 1.4689-1.855-3.5805-3.708-7.2056-5.598-10.5536-2.522-4.4757-5.034-5.3905-7.537.5984-1.299 3.1107-2.679 5.7663-4.041 8.4863-1.202 2.3986-2.411 4.7625-3.648 6.8792-1.411 2.4037-2.87 2.1467-4.238-.366-1.053-1.9337-2.033-4.4361-3.033-6.7505-1.467-3.3926-2.913-6.8989-4.383-10.2618-1.553-3.5508-3.221-4.1789-5.002-2.9129-1.367.9644-2.603 2.7794-3.783 5.4944-1.547 3.5657-3.1 7.2055-4.752 10.0146-3.383 5.7369-9.723-4.6834-9.801-4.8268-1.37-2.5914-2.731-5.2471-4.119-7.7001-1.131-2.0078-2.273-1.449-3.463-.2324-3.181 3.2541-6.158 8.0759-8.977 14.4308-2.453 5.5344-4.899 4.5104-7.021-2.4233-.478-1.5528-.927-3.254-1.419-4.7525-2.604-7.9127-5.247-8.5853-8.056-2.0277-1.001 2.3441-1.936 5.0988-2.956 7.3193-.695 1.5083-1.469 3.1799-2.239 3.4321-2.129.6825-4.192-.4055-5.904-5.9048-.481-1.5529-.954-3.1552-1.473-4.5301-2.24-5.9098-4.66-7.5517-7.213-3.2739-1.655 2.7843-3.247 6.1176-4.86 9.2233-2.979 5.7515-5.791 4.4954-8.452-2.7595-.588-1.5925-1.139-3.3828-1.699-5.1087-2.197-6.7703-4.748-6.8989-7.243-3.9316-1.884 2.2403-3.688 5.8405-5.39 9.6782-3.544 7.9869-7.007 8.2391-10.551.2869-1.165-2.6063-2.409-4.7328-3.588-7.2501-1.199-2.5815-2.44-2.6211-3.697-1.1127-.862 1.0336-1.728 2.2007-2.526 3.7783-1.282 2.5469-2.513 5.4548-3.757 8.2638-2.323 5.2574-4.628 5.6234-6.916-.2274-.525-1.3452-1.033-2.7744-1.548-4.1641-1.028-2.7942-2.083-5.4598-3.079-8.3924-1.121-3.3135-2.312-3.4816-3.6-1.8397-1.822 2.3194-3.517 5.5191-5.105 9.5942-.819 2.0968-1.655 4.3074-2.572 5.6229-2.313 3.3036-4.467 2.4628-6.245-4.713-.616-2.4826-1.231-5.0048-1.906-7.255-3.456-11.5723-4.945-10.7711-8.086-1.7012-.431 1.2364-.79 2.7991-1.2 4.1344-.55 1.7754-1.095 3.5904-1.684 5.1779-2.047 5.4845-4.527 6.8494-6.971-1.182-1.291-4.2284-2.748-7.7841-4.167-11.4438-.43-1.1127-.986-2.1908-1.486-2.2006-1.935-.0594-3.835.7516-5.291 6.3548-1.329 5.1186-2.689 10.0739-4.36 13.7236-.427.9298-.599 2.7843-.267 4.3178.187.87.634 1.622.912 1.419 1.178-.831 2.25-2.6261 3.146-5.7368 6.629-21.4632 10.905 18.3918 19.649 3.1305 1.236-2.1513 2.428-4.6735 3.601-7.2649 1.155-2.5469 2.252-2.2205 3.35.2424.466 1.0533.89 2.3688 1.365 3.3629 1.348 2.7991 2.684 5.7069 4.073 8.2089 2.056 3.69 4.212 4.249 6.376 1.39 1.798-2.374 3.564-5.089 5.348-7.6207 2.266-3.2146 4.452-3.0415 6.51 2.2207.525 1.345 1.038 2.754 1.577 4.001 3.827 8.896 7.725 11.28 11.755 1.75.537-1.276 1.117-2.299 1.638-3.644 1.92-4.9459 4.018-6.296 6.256-4.1992 1.142 1.0584 2.298 2.2802 3.351 4.1592 2.984 5.336 5.971 5.336 8.997.88 1.523-2.24 3.01-4.8068 4.531-7.0619.927-1.3699 1.876-2.5963 2.84-3.531 1.487-1.4688 2.893-.5737 4.165 2.7497.598 1.5578 1.18 3.1898 1.795 4.6487 3.475 8.2685 7.081 10.1775 10.86 2.9075.645-1.246 1.261-2.725 1.916-3.8966 1.227-2.2007 2.484-4.1691 3.707-6.4093 1.013-1.8546 1.964-1.3155 2.849.8457.912 2.2353 1.761 4.802 2.653 7.1412 2.904 7.611 5.987 9.436 9.27 3.64.738-1.306 1.453-2.799 2.158-4.3472 3.938-11.696 6.988-2.3342 7.668-.6775.83 2.0327 1.674 4.1347 2.59 5.4897 2.917 4.297 6.282 6.933 8.772-.272 7.826-22.6702 12.736-4.6837 15.36-.994 2.72 3.822 5.341 2.917 8.041.291 2.381-2.319 4.717-5.0142 6.993-8.5601 2.822-4.3965 5.776-5.4202 8.388 1.0633 1.779 4.4158 3.678 7.5318 5.614 10.1628 3.548 4.797 7.126 4.99 10.509-2.641.779-1.755 1.576-3.407 2.396-4.8859 1.147-2.0672 2.296-4.1641 3.489-5.7862 1.515-2.0573 3.01-1.6715 4.498 1.0534 1.794 3.2739 3.638 6.1917 5.484 9.0697 1.461 2.26 3 2.389 4.562 1.741 2.043-.841 3.814-4.07 5.575-7.7791 3.332-7.0127 6.747-7.3786 10.16-.5688.56 1.1325 1.095 2.4233 1.637 3.6599 1.04 2.369 2.128 2.987 3.372 2.853.79-.089 3.558-4.3864 4.172-6.5228 6.631-21.4632 10.907 18.3918 19.65 3.1305 1.237-2.1513 2.429-4.6735 3.602-7.2649 1.155-2.5469 2.251-2.2205 3.35.2424.466 1.0533.89 2.3688 1.365 3.3629 1.347 2.7991 2.683 5.7069 4.073 8.2089 2.056 3.69 4.211 4.249 6.376 1.39 1.798-2.374 3.564-5.089 5.348-7.6207 2.264-3.2146 4.452-3.0415 6.51 2.2207.524 1.345 1.038 2.754 1.577 4.001 3.825 8.896 7.724 11.28 11.755 1.75.537-1.276 1.117-2.299 1.638-3.644 1.92-4.9459 4.019-6.296 6.256-4.1992 1.14 1.0584 2.296 2.2802 3.351 4.1592 2.983 5.336 5.971 5.336 8.996.88 1.523-2.24 3.009-4.8068 4.531-7.0619.926-1.3699 1.877-2.5963 2.841-3.531 1.487-1.4688 2.893-.5737 4.165 2.7497.598 1.5578 1.179 3.1898 1.792 4.6487 3.478 8.2685 7.084 10.1775 10.863 2.9075.645-1.246 1.26-2.725 1.915-3.8966 1.228-2.2007 2.484-4.1691 3.708-6.4093 1.012-1.8546 1.962-1.3155 2.848.8457.912 2.2353 1.762 4.802 2.654 7.1412 2.904 7.611 5.986 9.436 9.271 3.64.736-1.306 1.451-2.799 2.156-4.3472 3.939-11.696 6.988-2.3342 7.669-.6775.83 2.0327 1.674 4.1347 2.588 5.4897 2.918 4.297 6.284 6.933 8.772-.272 7.827-22.6702 12.738-4.6837 15.362-.994 2.718 3.822 5.341 2.917 8.041.291 2.38-2.319 4.716-5.0142 6.992-8.5601 2.823-4.3965 5.776-5.4202 8.388 1.0633 1.779 4.4158 3.677 7.5318 5.615 10.1628 3.546 4.797 7.126 4.99 10.509-2.641.779-1.755 1.575-3.407 2.395-4.8859 1.146-2.0672 2.296-4.1641 3.49-5.7862 1.515-2.0573 3.008-1.6715 4.498 1.0534 1.794 3.2739 3.638 6.1917 5.482 9.0697 1.462 2.26 3 2.389 4.563 1.741 2.044-.841 3.815-4.07 5.575-7.7791 3.332-7.0127 6.748-7.3786 10.16-.5688.56 1.1325 1.094 2.4233 1.638 3.6599 1.039 2.369 2.128 2.987 3.371 2.853.9-.099 3.58-4.6979 4.108-6.5228 6.631-21.4632 10.905 18.3918 19.648 3.1305 1.237-2.1513 2.431-4.6735 3.603-7.2649 1.156-2.5469 2.252-2.2205 3.349.2424.468 1.0533.892 2.3688 1.367 3.3629 1.345 2.7991 2.682 5.7069 4.072 8.2089 2.057 3.69 4.212 4.249 6.376 1.39 1.798-2.374 3.564-5.089 5.349-7.6207 2.264-3.2146 4.452-3.0415 6.509 2.2207.524 1.345 1.038 2.754 1.578 4.001 3.825 8.896 7.724 11.28 11.753 1.75.537-1.276 1.117-2.299 1.64-3.644 1.919-4.9459 4.017-6.296 6.256-4.1992 1.139 1.0584 2.296 2.2802 3.351 4.1592 2.982 5.336 5.969 5.336 8.996.88 1.522-2.24 3.01-4.8068 4.53-7.0619.928-1.3699 1.876-2.5963 2.84-3.531 1.486-1.4688 2.894-.5737 4.166 2.7497.596 1.5578 1.18 3.1898 1.794 4.6487 3.475 8.2685 7.082 10.1775 10.859 2.9075.647-1.246 1.264-2.725 1.917-3.8966 1.228-2.2007 2.484-4.1691 3.707-6.4093 1.013-1.8546 1.964-1.3155 2.849.8457.912 2.2353 1.762 4.802 2.654 7.1412 2.905 7.611 5.986 9.436 9.27 3.64.738-1.306 1.452-2.799 2.156-4.3472 3.939-11.696 6.99-2.3342 7.67-.6775.829 2.0327 1.673 4.1347 2.589 5.4897 2.917 4.297 6.284 6.933 8.773-.272 7.827-22.6702 12.736-4.6837 15.359-.994 2.719 3.822 5.341 2.917 8.043.291 2.381-2.319 4.717-5.0142 6.993-8.5601 2.821-4.3965 5.775-5.4202 8.388 1.0633 1.779 4.4158 3.676 7.5318 5.613 10.1628 3.547 4.797 7.126 4.99 10.51-2.641.778-1.755 1.574-3.407 2.393-4.8859 1.148-2.0672 2.296-4.1641 3.492-5.7862 1.513-2.0573 3.007-1.6715 4.497 1.0534 1.794 3.2739 3.638 6.1917 5.483 9.0697 1.461 2.26 3 2.389 4.564 1.741 2.041-.841 3.812-4.07 5.573-7.7791 3.331-7.0127 6.747-7.3786 10.16-.5688.56 1.1325 1.095 2.4233 1.638 3.6599 1.038 2.369 2.129 2.987 3.37 2.853 1.684-.188 2.872-3.1599 4.108-6.8096-.433-3.9316-1.17-4.3767-2.01-3.0464" fill="#ced4da" fill-rule="evenodd"/></g><path d="m138 135h328v198h-328z" fill="#495057" stroke="#868e96" stroke-width="2"/><path d="m0-1h338.615" stroke="#868e96" stroke-width="2" transform="matrix(.868243 -.496139 .306009 .952029 155 318)"/><path d="m0-1h338.615" stroke="#868e96" stroke-width="2" transform="matrix(.868243 .496139 .306009 -.952029 155 150)"/><g clip-path="url(#c)"><path clip-rule="evenodd" d="m909.287 370.782c-2.057-2.898-4.159-5.857-6.29-8.859-2.783 1.809-3.787 6.45-6.853 7.709-1.781-1.735-3.037-4.58-5.284-5.684-2.262 2.27-3.356 6.749-6.792 7.458-1.727-2.81-3.521-5.738-5.463-8.906-1.091 1.406-2.016 2.521-2.74 4.047-.706 1.492-1.601 2.809-2.472 4.127-.596.898-1.34 1.492-2.415 1.267-1.778-2.53-2.676-6.381-5.165-8.453-2.3 1.878-3.137 6.373-6.291 6.872-2.022-2.378-3.202-6.148-5.478-8.437-2.819 2.223-4.537 6.581-7.899 7.534-1.787-2.762-3.262-5.729-5.275-8.298-.64.686-1.161 1.159-1.615 1.736-1.265 1.608-2.447 3.359-3.768 4.862-1.28 1.459-2.529 1.282-3.693-.427-1.177-1.724-2.251-3.587-3.418-5.462-1.206.79-1.654 2.418-2.399 3.626-.56.904-.94 2.061-1.56 2.855-1.248 1.605-2.629 1.616-3.549-.314-.653-1.378-1.37-2.704-2.131-3.966-.476-.787-1.087-1.407-1.768-2.275-1.076.791-1.833 1.98-2.635 3.157-.959 1.407-1.967 2.774-3.065 3.944-.637.683-1.497.953-2.213 1.376-.969-1.162-1.786-2.119-2.582-3.111-.793-.987-1.565-2.014-2.45-3.158-1.181 1.588-2.241 3.031-3.322 4.445-.546.717-1.097 1.441-1.707 2.036-.692.671-1.429.539-2.013-.359-1.079-1.666-2.098-3.418-3.174-5.095-.489-.762-1.051-1.429-1.681-2.27-2.233 1.894-3.051 6.155-6.061 6.698-1.562-2.693-2.825-5.899-5.01-8.077-2.691 1.452-3.235 6.4-6.275 7.636-.413-.656-.898-1.399-1.363-2.166-.956-1.573-1.677-3.49-3.206-4.521-1.395 1.5-2.433 3.364-3.484 5.233-.79 1.403-1.535 2.965-3.124 2.876-1.588-2.732-3.205-5.502-4.954-8.511-.584.665-1.05 1.181-1.504 1.716-1.149 1.352-2.29 2.719-3.44 4.063-2.056 2.403-2.539 2.325-4.452-.546-.869-1.312-1.774-2.571-2.664-3.855-1.393.442-2.023 1.93-2.857 3.027-.856 1.126-1.65 2.37-2.588 3.346-1.281 1.333-2.228 1.126-3.343-.607-1.36-2.112-2.657-4.305-4.056-6.587-2.857 2.069-4.144 7.071-7.488 7.844-.67-.495-4.439-5.195-6.163-7.161-.497.709-1.732 2.505-2.146 3.132-.651.989-1.236 2.074-1.937 2.987-1.648 2.148-2.099 2.065-3.609-.366-.906-1.458-1.841-2.876-2.866-4.475-.639.762-1.106 1.312-1.57 1.871-1.372 1.658-2.677 3.462-4.14 4.938-1.193 1.205-2.042.931-3.096-.68-1.453-2.212-2.822-4.53-4.231-6.8-.479-.768-.971-1.522-1.607-2.522-.978 1.225-1.835 2.302-2.691 3.378-1.115 1.395-2.188 2.866-3.354 4.165-1.219 1.359-2.02 1.115-2.908-.679-1.102-2.219-2.185-4.458-3.403-6.942-.539.738-1.008 1.278-1.388 1.919-.753 1.274-1.439 2.622-2.179 3.912-.763 1.329-1.705 2.263-3.052 2.48-2.027-2.237-3.007-6.129-5.561-8.038-.539.782-1.049 1.521-1.56 2.268-1.114 1.62-2.194 3.297-3.35 4.859-1.789 2.418-2.505 2.351-4.151-.418-.684-1.148-1.21-2.484-1.833-3.707-.296-.583-.653-1.112-1.044-1.76-2.395 2.007-4.027 5.238-6.603 6.535-1.767-2.057-2.988-4.834-4.973-6.488-2.566 2.023-3.681 7.008-7.305 6.923-1.255-2.108-2.549-4.28-3.964-6.647-1.713 1.595-3.259 3.11-4.399 5.31-.813 1.566-1.849 2.437-3.302 2.46-2.059-2.898-4.158-5.857-6.291-8.859-2.783 1.809-3.785 6.45-6.852 7.709-1.781-1.735-3.036-4.58-5.285-5.684-2.261 2.27-3.354 6.749-6.794 7.458-1.723-2.81-3.52-5.738-5.462-8.906-1.091 1.406-2.012 2.521-2.736 4.047-.709 1.492-1.604 2.809-2.474 4.127-.596.898-1.342 1.492-2.414 1.267-1.779-2.53-2.677-6.381-5.166-8.453-2.301 1.878-3.138 6.373-6.291 6.872-2.023-2.378-3.202-6.148-5.477-8.437-2.821 2.223-4.539 6.581-7.9 7.534-1.786-2.762-3.262-5.729-5.275-8.298-.641.686-1.161 1.159-1.614 1.736-1.265 1.608-2.448 3.359-3.769 4.862-1.28 1.459-2.53 1.282-3.694-.427-1.177-1.724-2.25-3.587-3.417-5.462-1.207.79-1.655 2.418-2.399 3.626-.56.904-.94 2.061-1.56 2.855-1.249 1.605-2.63 1.616-3.548-.314-.654-1.378-1.371-2.704-2.133-3.966-.475-.787-1.085-1.407-1.768-2.275-1.076.791-1.833 1.98-2.634 3.157-.959 1.407-1.966 2.774-3.065 3.944-.638.683-1.497.953-2.213 1.376-.969-1.162-1.786-2.119-2.583-3.111-.793-.987-1.565-2.014-2.45-3.158-1.181 1.588-2.241 3.031-3.321 4.445-.545.717-1.097 1.441-1.706 2.036-.694.671-1.431.539-2.013-.359-1.081-1.666-2.099-3.418-3.176-5.095-.488-.762-1.05-1.429-1.681-2.27-2.233 1.894-3.051 6.155-6.061 6.698-1.561-2.693-2.825-5.899-5.008-8.077-2.693 1.452-3.236 6.4-6.275 7.636-.415-.656-.899-1.399-1.365-2.166-.956-1.573-1.677-3.49-3.205-4.521-1.394 1.5-2.433 3.364-3.483 5.233-.791 1.403-1.537 2.965-3.125 2.876-1.589-2.732-3.205-5.502-4.955-8.511-.583.665-1.049 1.181-1.504 1.716-1.148 1.352-2.29 2.719-3.44 4.063-2.056 2.403-2.537 2.325-4.452-.546-.867-1.312-1.774-2.571-2.664-3.855-1.393.442-2.021 1.93-2.856 3.027-.857 1.126-1.651 2.37-2.589 3.346-1.279 1.333-2.228 1.126-3.342-.607-1.359-2.112-2.658-4.305-4.057-6.587-2.856 2.069-4.142 7.071-7.488 7.844-2.508-1.862-4.063-5.078-6.314-7.545l-.757 1.584c-.498.709-.934 1.305-1.346 1.932-.652.989-1.237 2.074-1.939 2.987-1.646 2.148-2.098 2.065-3.607-.366-.906-1.458-1.842-2.876-2.869-4.475-.636.762-1.103 1.312-1.569 1.871-1.371 1.658-2.675 3.462-4.14 4.938-1.192 1.205-2.04.931-3.094-.68-1.453-2.212-2.822-4.53-4.233-6.8-.477-.768-.97-1.522-1.606-2.522-.979 1.225-1.834 2.302-2.693 3.378-1.112 1.395-2.185 2.866-3.351 4.165-1.22 1.359-2.02 1.115-2.91-.679-1.101-2.219-2.184-4.458-3.402-6.942-.539.738-1.009 1.278-1.389 1.919-.751 1.274-1.439 2.622-2.177 3.912-.764 1.329-1.705 2.263-3.052 2.48-2.03-2.237-3.007-6.129-5.561-8.038-.539.782-1.051 1.521-1.56 2.268-1.116 1.62-2.197 3.297-3.353 4.859-1.787 2.418-2.503 2.351-4.149-.418-.684-1.148-1.211-2.484-1.832-3.707-.297-.583-.653-1.112-1.044-1.76-2.395 2.007-4.028 5.238-6.604 6.535-1.768-2.057-2.987-4.834-4.972-6.488-2.568 2.023-3.682 7.008-7.308 6.923-1.255-2.108-2.549-4.28-3.961-6.647-1.714 1.595-3.262 3.11-4.401 5.31-.811 1.566-1.847 2.437-3.301 2.46-2.058-2.898-4.158-5.857-6.29-8.859-2.783 1.809-3.787 6.45-6.853 7.709-1.781-1.735-3.037-4.58-5.284-5.684-2.262 2.27-3.356 6.749-6.794 7.458-1.725-2.81-3.52-5.738-5.462-8.906-1.091 1.406-2.013 2.521-2.739 4.047-.706 1.492-1.602 2.809-2.472 4.127-.596.898-1.34 1.492-2.415 1.267-1.777-2.53-2.676-6.381-5.164-8.453-2.301 1.878-3.138 6.373-6.292 6.872-2.022-2.378-3.201-6.148-5.478-8.437-2.819 2.223-4.539 6.581-7.898 7.534-1.788-2.762-3.263-5.729-5.275-8.298-.643.686-1.161 1.159-1.616 1.736-1.265 1.608-2.446 3.359-3.768 4.862-1.28 1.459-2.529 1.282-3.694-.427-1.176-1.724-2.25-3.587-3.417-5.462-1.208.79-1.654 2.418-2.399 3.626-.56.904-.939 2.061-1.56 2.855-1.248 1.605-2.63 1.616-3.547-.314-.655-1.378-1.372-2.704-2.133-3.966-.476-.787-1.087-1.407-1.769-2.275-1.075.791-1.833 1.98-2.634 3.157-.959 1.407-1.967 2.774-3.064 3.944-.64.683-1.498.953-2.214 1.376-.969-1.162-1.786-2.119-2.582-3.111-.793-.987-1.565-2.014-2.45-3.158-1.181 1.588-2.241 3.031-3.322 4.445-.546.717-1.096 1.441-1.707 2.036-.692.671-1.43.539-2.011-.359-1.083-1.666-2.1-3.418-3.177-5.095-.487-.762-1.05-1.429-1.68-2.27-2.233 1.894-3.051 6.155-6.061 6.698-1.562-2.693-2.825-5.899-5.008-8.077-2.693 1.452-3.237 6.4-6.277 7.636-.414-.656-.898-1.399-1.363-2.166-.956-1.573-1.677-3.49-3.206-4.521-1.395 1.5-2.433 3.364-3.484 5.233-.79 1.403-1.535 2.965-3.123 2.876-1.59-2.732-3.206-5.502-4.956-8.511-.584.665-1.05 1.181-1.503 1.716-1.149 1.352-2.29 2.719-3.442 4.063-2.055 2.403-2.537 2.325-4.45-.546-.869-1.312-1.774-2.571-2.664-3.855-1.395.442-2.023 1.93-2.857 3.027-.857 1.126-1.652 2.37-2.588 3.346-1.281 1.333-2.228 1.126-3.343-.607-1.36-2.112-2.657-4.305-4.058-6.587-2.854 2.069-4.14 7.071-7.486 7.844-2.509-1.862-4.065-5.078-6.315-7.545-.407.662-.809 1.293-1.194 1.944-.82 1.387-1.584 2.852-2.483 4.123-.197.281-.863-.102-1.282-.18-.009-.618-.096-.983-.004-1.174 1.485-3.117 2.995-6.212 4.668-9.66 3.082 2.108 4.746 5.872 7.366 8.333.561-.643 1.165-1.199 1.65-1.919 1.181-1.743 2.287-3.59 3.461-5.342.425-.632.958-1.112 1.503-1.734 2.638 2.32 3.758 6.724 6.508 8.804 1.439-.758 1.971-2.734 2.904-4.106.88-1.293 1.738-2.611 2.634-3.959 2.671 1.828 4.191 5.413 6.659 7.303 1.737-1.255 2.991-3.085 4.203-4.979.43-.67.793-1.426 1.23-2.084.6-.903 1.351-.871 1.918.108 1.016 1.747 1.989 3.548 3.003 5.301.319.561.705 1.045 1.102 1.63 1.452-.825 2.322-2.398 3.333-3.689.47-.607.873-1.323 1.317-1.975 1.562-2.316 1.726-2.309 3.264-.182 1.143 1.584 2.316 3.119 3.485 4.668.064.081.2.051.397.098 2.12-1.698 3.053-5.191 4.873-7.288 1.522.133 1.919 2.004 2.779 3.038.883 1.065 1.696 2.242 2.542 3.373 1.471-.441 2.36-1.739 3.121-3.18 2.873-5.416 3.173-3.478 5.367.089.976 1.588 2.042 3.046 3.126 4.416 2.133-1.064 3.615-2.951 5.048-5.015 1.973-2.844 2.325-2.762 3.77.455.975 2.167 2.1 4.142 3.472 5.974 3.328-2.021 5.33-6.535 8.45-8.755 2.087 1.515 2.91 4.696 4.812 6.175 2.352-1.394 3.096-4.959 4.981-7.109 2.772 1.26 3.932 5.483 6.464 7.133 2.9-1.325 4.533-4.913 6.546-7.418 1.639.699 2.123 2.564 3.029 3.781.923 1.238 1.848 2.467 2.912 3.889 2.396-2.522 4.68-4.925 6.866-7.226 1.677.806 2.106 2.887 3.017 4.309.848 1.329 1.598 2.788 2.35 4.117 3.294-.883 4.992-4.911 7.737-6.721 2.21 1.717 2.976 5.594 5.464 7.128 2.491-2.106 4.033-5.897 6.451-8.53 2.705 1.898 4.031 5.822 6.358 8.197 2.95-.705 3.079-5.554 5.36-7.377 2.261 1.749 3.271 5.63 5.945 6.87 2.364-1.593 4.01-4.66 5.933-7.106 1.868.605 2.558 2.972 3.892 4.153 1.339 1.186 2.556 2.647 3.75 3.91 2.825-1.806 4.583-5.14 6.908-7.919 1.736 2.518 3.354 4.866 5.04 7.314 2.952-1.097 3.856-5.524 6.26-7.744.506.728.979 1.282 1.341 1.953 1.104 2.046 2.229 4.033 4.181 4.889 2.134-2.27 4.251-4.518 6.28-6.671.956-.101 1.554.406 1.986 1.383.623 1.405 1.229 2.829 1.897 4.192.354.716.823 1.317 1.244 1.983 1.82-.753 3.174-2.068 4.295-3.995.672-1.157 1.452-2.215 2.28-3.142.797-.89 1.541-.546 2.154.698.965 1.964 1.952 3.906 3.061 6.121.998-1.138 1.833-2.034 2.623-3.002.885-1.089 1.763-2.197 2.585-3.382 1.658-2.382 2.394-1.802 3.519.403 1.175 2.304 2.555 4.401 3.886 6.658 1.712-1.274 3.038-2.737 4.205-4.509.436-.662.806-1.414 1.265-2.042 1.714-2.359 2.845-2.272 4.022.598 1.381 3.367 3.535 5.547 5.552 8.138 2.745-1.924 3.886-6.045 6.277-8.654.495.69 1.012 1.202 1.333 1.894 1.056 2.286 2.276 4.327 3.972 6.172.489-.731.933-1.317 1.31-1.975.671-1.174 1.228-2.488 1.97-3.556.514-.734 1.725-3.363 1.725-3.363.803-2.375 4.746 5.872 7.366 8.333.561-.643 1.166-1.199 1.651-1.919 1.181-1.743 2.286-3.59 3.461-5.342.424-.632.957-1.112 1.504-1.734 2.638 2.32 3.756 6.724 6.508 8.804 1.438-.758 1.97-2.734 2.903-4.106.879-1.293 1.738-2.611 2.634-3.959 2.672 1.828 4.19 5.413 6.659 7.303 1.736-1.255 2.991-3.085 4.202-4.979.43-.67.794-1.426 1.231-2.084.599-.903 1.351-.871 1.917.108 1.018 1.747 1.992 3.548 3.003 5.301.322.561.705 1.045 1.102 1.63 1.453-.825 2.324-2.398 3.333-3.689.472-.607.874-1.323 1.318-1.975 1.562-2.316 1.726-2.309 3.265-.182 1.141 1.584 2.314 3.119 3.483 4.668.064.081.201.051.399.098 2.119-1.698 3.051-5.191 4.871-7.288 1.523.133 1.921 2.004 2.779 3.038.883 1.065 1.697 2.242 2.544 3.373 1.47-.441 2.358-1.739 3.12-3.18 2.873-5.416 3.172-3.478 5.367.089.976 1.588 2.043 3.046 3.126 4.416 2.132-1.064 3.614-2.951 5.049-5.015 1.971-2.844 2.325-2.762 3.77.455.973 2.167 2.099 4.142 3.471 5.974 3.327-2.021 5.33-6.535 8.449-8.755 2.089 1.515 2.911 4.696 4.812 6.175 2.353-1.394 3.096-4.959 4.982-7.109 2.771 1.26 3.932 5.483 6.463 7.133 2.9-1.325 4.533-4.913 6.549-7.418 1.636.699 2.12 2.564 3.027 3.781.922 1.238 1.847 2.467 2.912 3.889 2.397-2.522 4.68-4.925 6.866-7.226 1.676.806 2.107 2.887 3.017 4.309.848 1.329 1.599 2.788 2.35 4.117 3.293-.883 4.991-4.911 7.736-6.721 2.21 1.717 2.977 5.594 5.466 7.128 2.49-2.106 4.031-5.897 6.451-8.53 2.704 1.898 4.029 5.822 6.357 8.197 2.95-.705 3.081-5.554 5.359-7.377 2.262 1.749 3.273 5.63 5.947 6.87 2.363-1.593 4.008-4.66 5.931-7.106 1.869.605 2.559 2.972 3.892 4.153 1.341 1.186 2.557 2.647 3.751 3.91 2.825-1.806 4.583-5.14 6.908-7.919 1.737 2.518 3.353 4.866 5.041 7.314 2.95-1.097 3.854-5.524 6.258-7.744.506.728.98 1.282 1.342 1.953 1.103 2.046 2.231 4.033 4.181 4.889 2.135-2.27 4.252-4.518 6.28-6.671.956-.101 1.555.406 1.987 1.383.622 1.405 1.229 2.829 1.898 4.192.352.716.82 1.317 1.242 1.983 1.82-.753 3.173-2.068 4.296-3.995.671-1.157 1.45-2.215 2.278-3.142.8-.89 1.541-.546 2.155.698.967 1.964 1.951 3.906 3.06 6.121 1-1.138 1.833-2.034 2.625-3.002.885-1.089 1.762-2.197 2.586-3.382 1.658-2.382 2.391-1.802 3.516.403 1.175 2.304 2.555 4.401 3.888 6.658 1.71-1.274 3.039-2.737 4.205-4.509.435-.662.807-1.414 1.263-2.042 1.716-2.359 2.846-2.272 4.022.598 1.382 3.367 3.536 5.547 5.553 8.138 2.745-1.924 3.885-6.045 6.278-8.654.494.69 1.01 1.202 1.333 1.894 1.054 2.286 2.275 4.327 3.971 6.172.489-.731.934-1.317 1.309-1.975.637-1.112 1.178-2.337 1.865-3.371.559-1.151 1.126-2.321 1.722-3.548 3.082 2.108 4.745 5.872 7.364 8.333.563-.643 1.167-1.199 1.652-1.919 1.181-1.743 2.287-3.59 3.462-5.342.424-.632.957-1.112 1.502-1.734 2.64 2.32 3.757 6.724 6.51 8.804 1.437-.758 1.969-2.734 2.903-4.106.879-1.293 1.737-2.611 2.633-3.959 2.671 1.828 4.191 5.413 6.659 7.303 1.737-1.255 2.991-3.085 4.203-4.979.43-.67.793-1.426 1.23-2.084.6-.903 1.351-.871 1.918.108 1.018 1.747 1.991 3.548 3.002 5.301.322.561.704 1.045 1.103 1.63 1.453-.825 2.322-2.398 3.333-3.689.471-.607.873-1.323 1.317-1.975 1.562-2.316 1.726-2.309 3.266-.182 1.141 1.584 2.314 3.119 3.483 4.668.064.081.2.051.399.098 2.118-1.698 3.051-5.191 4.871-7.288 1.523.133 1.919 2.004 2.779 3.038.883 1.065 1.696 2.242 2.542 3.373 1.472-.441 2.36-1.739 3.122-3.18 2.872-5.416 3.172-3.478 5.366.089.977 1.588 2.044 3.046 3.127 4.416 2.132-1.064 3.614-2.951 5.047-5.015 1.973-2.844 2.325-2.762 3.77.455.975 2.167 2.1 4.142 3.473 5.974 3.327-2.021 5.329-6.535 8.449-8.755 2.087 1.515 2.91 4.696 4.812 6.175 2.353-1.394 3.094-4.959 4.981-7.109 2.771 1.26 3.934 5.483 6.464 7.133 2.9-1.325 4.532-4.913 6.548-7.418 1.637.699 2.121 2.564 3.028 3.781.922 1.238 1.845 2.467 2.911 3.889 2.398-2.522 4.681-4.925 6.867-7.226 1.675.806 2.107 2.887 3.016 4.309.849 1.329 1.598 2.788 2.351 4.117 3.293-.883 4.991-4.911 7.736-6.721 2.21 1.717 2.976 5.594 5.464 7.128 2.489-2.106 4.033-5.897 6.451-8.53 2.705 1.898 4.033 5.822 6.358 8.197 2.951-.705 3.079-5.554 5.36-7.377 2.259 1.749 3.27 5.63 5.944 6.87 2.365-1.593 4.013-4.66 5.934-7.106 1.869.605 2.558 2.972 3.892 4.153 1.339 1.186 2.556 2.647 3.75 3.91z" fill="#ced4da" fill-rule="evenodd"/></g><g clip-path="url(#d)"><path clip-rule="evenodd" d="m934.287 398.782c-2.057-2.898-4.159-5.857-6.29-8.859-2.783 1.809-3.787 6.45-6.853 7.709-1.781-1.735-3.037-4.58-5.284-5.684-2.262 2.27-3.356 6.749-6.792 7.458-1.727-2.81-3.521-5.738-5.463-8.906-1.091 1.406-2.016 2.521-2.74 4.047-.706 1.492-1.601 2.809-2.472 4.127-.596.898-1.34 1.492-2.415 1.267-1.778-2.53-2.676-6.381-5.165-8.453-2.3 1.878-3.137 6.373-6.291 6.872-2.022-2.378-3.202-6.148-5.478-8.437-2.819 2.223-4.537 6.581-7.899 7.534-1.787-2.762-3.262-5.729-5.275-8.298-.64.686-1.161 1.159-1.615 1.736-1.265 1.608-2.447 3.359-3.768 4.862-1.28 1.459-2.529 1.282-3.693-.427-1.177-1.724-2.251-3.587-3.418-5.462-1.206.79-1.654 2.418-2.399 3.626-.56.904-.94 2.061-1.56 2.855-1.248 1.605-2.629 1.616-3.549-.314-.653-1.378-1.37-2.704-2.131-3.966-.476-.787-1.087-1.407-1.768-2.275-1.076.791-1.833 1.98-2.635 3.157-.959 1.407-1.967 2.774-3.065 3.944-.637.683-1.497.953-2.213 1.376-.969-1.162-1.786-2.119-2.582-3.111-.793-.987-1.565-2.014-2.45-3.158-1.181 1.588-2.241 3.031-3.322 4.445-.546.717-1.097 1.441-1.707 2.036-.692.671-1.429.539-2.013-.359-1.079-1.666-2.098-3.418-3.174-5.095-.489-.762-1.051-1.429-1.681-2.27-2.233 1.894-3.051 6.155-6.061 6.698-1.562-2.693-2.825-5.899-5.01-8.077-2.691 1.452-3.235 6.4-6.275 7.636-.413-.656-.898-1.399-1.363-2.166-.956-1.573-1.677-3.49-3.206-4.521-1.395 1.5-2.433 3.364-3.484 5.233-.79 1.403-1.535 2.965-3.124 2.876-1.588-2.732-3.205-5.502-4.954-8.511-.584.665-1.05 1.181-1.504 1.716-1.149 1.352-2.29 2.719-3.44 4.063-2.056 2.403-2.539 2.325-4.452-.546-.869-1.312-1.774-2.571-2.664-3.855-1.393.442-2.023 1.93-2.857 3.027-.856 1.126-1.65 2.37-2.588 3.346-1.281 1.333-2.228 1.126-3.343-.607-1.36-2.112-2.657-4.305-4.056-6.587-2.857 2.069-4.144 7.071-7.488 7.844-.67-.495-4.439-5.195-6.163-7.161-.497.709-1.732 2.505-2.146 3.132-.651.989-1.236 2.074-1.937 2.987-1.648 2.148-2.099 2.065-3.609-.366-.906-1.458-1.841-2.876-2.866-4.475-.639.762-1.106 1.312-1.57 1.871-1.372 1.658-2.677 3.462-4.14 4.938-1.193 1.205-2.042.931-3.096-.68-1.453-2.212-2.822-4.53-4.231-6.8-.479-.768-.971-1.522-1.607-2.522-.978 1.225-1.835 2.302-2.691 3.378-1.115 1.395-2.188 2.866-3.354 4.165-1.219 1.359-2.02 1.115-2.908-.679-1.102-2.219-2.185-4.458-3.403-6.942-.539.738-1.008 1.278-1.388 1.919-.753 1.274-1.439 2.622-2.179 3.912-.763 1.329-1.705 2.263-3.052 2.48-2.027-2.237-3.007-6.129-5.561-8.038-.539.782-1.049 1.521-1.56 2.268-1.114 1.62-2.194 3.297-3.35 4.859-1.789 2.418-2.505 2.351-4.151-.418-.684-1.148-1.21-2.484-1.833-3.707-.296-.583-.653-1.112-1.044-1.76-2.395 2.007-4.027 5.238-6.603 6.535-1.767-2.057-2.988-4.834-4.973-6.488-2.566 2.023-3.681 7.008-7.305 6.923-1.255-2.108-2.549-4.28-3.964-6.647-1.713 1.595-3.259 3.11-4.399 5.31-.813 1.566-1.849 2.437-3.302 2.46-2.059-2.898-4.158-5.857-6.291-8.859-2.783 1.809-3.785 6.45-6.852 7.709-1.781-1.735-3.036-4.58-5.285-5.684-2.261 2.27-3.354 6.749-6.794 7.458-1.723-2.81-3.52-5.738-5.462-8.906-1.091 1.406-2.012 2.521-2.736 4.047-.709 1.492-1.604 2.809-2.474 4.127-.596.898-1.342 1.492-2.414 1.267-1.779-2.53-2.677-6.381-5.166-8.453-2.301 1.878-3.138 6.373-6.291 6.872-2.023-2.378-3.202-6.148-5.477-8.437-2.821 2.223-4.539 6.581-7.9 7.534-1.786-2.762-3.262-5.729-5.275-8.298-.641.686-1.161 1.159-1.614 1.736-1.265 1.608-2.448 3.359-3.769 4.862-1.28 1.459-2.53 1.282-3.694-.427-1.177-1.724-2.25-3.587-3.417-5.462-1.207.79-1.655 2.418-2.399 3.626-.56.904-.94 2.061-1.56 2.855-1.249 1.605-2.63 1.616-3.548-.314-.654-1.378-1.371-2.704-2.133-3.966-.475-.787-1.085-1.407-1.768-2.275-1.076.791-1.833 1.98-2.634 3.157-.959 1.407-1.966 2.774-3.065 3.944-.638.683-1.497.953-2.213 1.376-.969-1.162-1.786-2.119-2.583-3.111-.793-.987-1.565-2.014-2.45-3.158-1.181 1.588-2.241 3.031-3.321 4.445-.545.717-1.097 1.441-1.706 2.036-.694.671-1.431.539-2.013-.359-1.081-1.666-2.099-3.418-3.176-5.095-.488-.762-1.05-1.429-1.681-2.27-2.233 1.894-3.051 6.155-6.061 6.698-1.561-2.693-2.825-5.899-5.008-8.077-2.693 1.452-3.236 6.4-6.275 7.636-.415-.656-.899-1.399-1.365-2.166-.956-1.573-1.677-3.49-3.205-4.521-1.394 1.5-2.433 3.364-3.483 5.233-.791 1.403-1.537 2.965-3.125 2.876-1.589-2.732-3.205-5.502-4.955-8.511-.583.665-1.049 1.181-1.504 1.716-1.148 1.352-2.29 2.719-3.44 4.063-2.056 2.403-2.537 2.325-4.452-.546-.867-1.312-1.774-2.571-2.664-3.855-1.393.442-2.021 1.93-2.856 3.027-.857 1.126-1.651 2.37-2.589 3.346-1.279 1.333-2.228 1.126-3.342-.607-1.359-2.112-2.658-4.305-4.057-6.587-2.856 2.069-4.142 7.071-7.488 7.844-2.508-1.862-4.063-5.078-6.314-7.545l-.757 1.584c-.498.709-.934 1.305-1.346 1.932-.652.989-1.237 2.074-1.939 2.987-1.646 2.148-2.098 2.065-3.607-.366-.906-1.458-1.842-2.876-2.869-4.475-.636.762-1.103 1.312-1.569 1.871-1.371 1.658-2.675 3.462-4.14 4.938-1.192 1.205-2.04.931-3.094-.68-1.453-2.212-2.822-4.53-4.233-6.8-.477-.768-.97-1.522-1.606-2.522-.979 1.225-1.834 2.302-2.693 3.378-1.112 1.395-2.185 2.866-3.351 4.165-1.22 1.359-2.02 1.115-2.91-.679-1.101-2.219-2.184-4.458-3.402-6.942-.539.738-1.009 1.278-1.389 1.919-.751 1.274-1.439 2.622-2.177 3.912-.764 1.329-1.705 2.263-3.052 2.48-2.03-2.237-3.007-6.129-5.561-8.038-.539.782-1.051 1.521-1.56 2.268-1.116 1.62-2.197 3.297-3.353 4.859-1.787 2.418-2.503 2.351-4.149-.418-.684-1.148-1.211-2.484-1.832-3.707-.297-.583-.653-1.112-1.044-1.76-2.395 2.007-4.028 5.238-6.604 6.535-1.768-2.057-2.987-4.834-4.972-6.488-2.568 2.023-3.682 7.008-7.308 6.923-1.255-2.108-2.549-4.28-3.961-6.647-1.714 1.595-3.262 3.11-4.401 5.31-.811 1.566-1.847 2.437-3.301 2.46-2.058-2.898-4.158-5.857-6.29-8.859-2.783 1.809-3.787 6.45-6.853 7.709-1.781-1.735-3.037-4.58-5.284-5.684-2.262 2.27-3.356 6.749-6.794 7.458-1.725-2.81-3.52-5.738-5.462-8.906-1.091 1.406-2.013 2.521-2.739 4.047-.706 1.492-1.602 2.809-2.472 4.127-.596.898-1.34 1.492-2.415 1.267-1.777-2.53-2.676-6.381-5.164-8.453-2.301 1.878-3.138 6.373-6.292 6.872-2.022-2.378-3.201-6.148-5.478-8.437-2.819 2.223-4.539 6.581-7.898 7.534-1.788-2.762-3.263-5.729-5.275-8.298-.643.686-1.161 1.159-1.616 1.736-1.265 1.608-2.446 3.359-3.768 4.862-1.28 1.459-2.529 1.282-3.694-.427-1.176-1.724-2.25-3.587-3.417-5.462-1.208.79-1.654 2.418-2.399 3.626-.56.904-.939 2.061-1.56 2.855-1.248 1.605-2.63 1.616-3.547-.314-.655-1.378-1.372-2.704-2.133-3.966-.476-.787-1.087-1.407-1.769-2.275-1.075.791-1.833 1.98-2.634 3.157-.959 1.407-1.967 2.774-3.064 3.944-.64.683-1.498.953-2.214 1.376-.969-1.162-1.786-2.119-2.582-3.111-.793-.987-1.565-2.014-2.45-3.158-1.181 1.588-2.241 3.031-3.322 4.445-.546.717-1.096 1.441-1.707 2.036-.692.671-1.43.539-2.011-.359-1.083-1.666-2.1-3.418-3.177-5.095-.487-.762-1.05-1.429-1.68-2.27-2.233 1.894-3.051 6.155-6.061 6.698-1.562-2.693-2.825-5.899-5.008-8.077-2.693 1.452-3.237 6.4-6.277 7.636-.414-.656-.898-1.399-1.363-2.166-.956-1.573-1.677-3.49-3.206-4.521-1.395 1.5-2.433 3.364-3.484 5.233-.79 1.403-1.535 2.965-3.123 2.876-1.59-2.732-3.206-5.502-4.956-8.511-.584.665-1.05 1.181-1.503 1.716-1.149 1.352-2.29 2.719-3.442 4.063-2.055 2.403-2.537 2.325-4.45-.546-.869-1.312-1.774-2.571-2.664-3.855-1.395.442-2.023 1.93-2.857 3.027-.857 1.126-1.652 2.37-2.588 3.346-1.281 1.333-2.228 1.126-3.343-.607-1.36-2.112-2.657-4.305-4.058-6.587-2.854 2.069-4.14 7.071-7.486 7.844-2.509-1.862-4.065-5.078-6.315-7.545-.407.662-.809 1.293-1.194 1.944-.82 1.387-1.584 2.852-2.483 4.123-.197.281-.863-.102-1.282-.18-.009-.618-.096-.983-.004-1.174 1.485-3.117 2.995-6.212 4.668-9.66 3.082 2.108 4.746 5.872 7.366 8.333.561-.643 1.165-1.199 1.65-1.919 1.181-1.743 2.287-3.59 3.461-5.342.425-.632.958-1.112 1.503-1.734 2.638 2.32 3.758 6.724 6.508 8.804 1.439-.758 1.971-2.734 2.904-4.106.88-1.293 1.738-2.611 2.634-3.959 2.671 1.828 4.191 5.413 6.659 7.303 1.737-1.255 2.991-3.085 4.203-4.979.43-.67.793-1.426 1.23-2.084.6-.903 1.351-.871 1.918.108 1.016 1.747 1.989 3.548 3.003 5.301.319.561.705 1.045 1.102 1.63 1.452-.825 2.322-2.398 3.333-3.689.47-.607.873-1.323 1.317-1.975 1.562-2.316 1.726-2.309 3.264-.182 1.143 1.584 2.316 3.119 3.485 4.668.064.081.2.051.397.098 2.12-1.698 3.053-5.191 4.873-7.288 1.522.133 1.919 2.004 2.779 3.038.883 1.065 1.696 2.242 2.542 3.373 1.471-.441 2.36-1.739 3.121-3.18 2.873-5.416 3.173-3.478 5.367.089.976 1.588 2.042 3.046 3.126 4.416 2.133-1.064 3.615-2.951 5.048-5.015 1.973-2.844 2.325-2.762 3.77.455.975 2.167 2.1 4.142 3.472 5.974 3.328-2.021 5.33-6.535 8.45-8.755 2.087 1.515 2.91 4.696 4.812 6.175 2.352-1.394 3.096-4.959 4.981-7.109 2.772 1.26 3.932 5.483 6.464 7.133 2.9-1.325 4.533-4.913 6.546-7.418 1.639.699 2.123 2.564 3.029 3.781.923 1.238 1.848 2.467 2.912 3.889 2.396-2.522 4.68-4.925 6.866-7.226 1.677.806 2.106 2.887 3.017 4.309.848 1.329 1.598 2.788 2.35 4.117 3.294-.883 4.992-4.911 7.737-6.721 2.21 1.717 2.976 5.594 5.464 7.128 2.491-2.106 4.033-5.897 6.451-8.53 2.705 1.898 4.031 5.822 6.358 8.197 2.95-.705 3.079-5.554 5.36-7.377 2.261 1.749 3.271 5.63 5.945 6.87 2.364-1.593 4.01-4.66 5.933-7.106 1.868.605 2.558 2.972 3.892 4.153 1.339 1.186 2.556 2.647 3.75 3.91 2.825-1.806 4.583-5.14 6.908-7.919 1.736 2.518 3.354 4.866 5.04 7.314 2.952-1.097 3.856-5.524 6.26-7.744.506.728.979 1.282 1.341 1.953 1.104 2.046 2.229 4.033 4.181 4.889 2.134-2.27 4.251-4.518 6.28-6.671.956-.101 1.554.406 1.986 1.383.623 1.405 1.229 2.829 1.897 4.192.354.716.823 1.317 1.244 1.983 1.82-.753 3.174-2.068 4.295-3.995.672-1.157 1.452-2.215 2.28-3.142.797-.89 1.541-.546 2.154.698.965 1.964 1.952 3.906 3.061 6.121.998-1.138 1.833-2.034 2.623-3.002.885-1.089 1.763-2.197 2.585-3.382 1.658-2.382 2.394-1.802 3.519.403 1.175 2.304 2.555 4.401 3.886 6.658 1.712-1.274 3.038-2.737 4.205-4.509.436-.662.806-1.414 1.265-2.042 1.714-2.359 2.845-2.272 4.022.598 1.381 3.367 3.535 5.547 5.552 8.138 2.745-1.924 3.886-6.045 6.277-8.654.495.69 1.012 1.202 1.333 1.894 1.056 2.286 2.276 4.327 3.972 6.172.489-.731.933-1.317 1.31-1.975.671-1.174 1.228-2.488 1.97-3.556.514-.734 1.725-3.363 1.725-3.363.803-2.375 4.746 5.872 7.366 8.333.561-.643 1.166-1.199 1.651-1.919 1.181-1.743 2.286-3.59 3.461-5.342.424-.632.957-1.112 1.504-1.734 2.638 2.32 3.756 6.724 6.508 8.804 1.438-.758 1.97-2.734 2.903-4.106.879-1.293 1.738-2.611 2.634-3.959 2.672 1.828 4.19 5.413 6.659 7.303 1.736-1.255 2.991-3.085 4.202-4.979.43-.67.794-1.426 1.231-2.084.599-.903 1.351-.871 1.917.108 1.018 1.747 1.992 3.548 3.003 5.301.322.561.705 1.045 1.102 1.63 1.453-.825 2.324-2.398 3.333-3.689.472-.607.874-1.323 1.318-1.975 1.562-2.316 1.726-2.309 3.265-.182 1.141 1.584 2.314 3.119 3.483 4.668.064.081.201.051.399.098 2.119-1.698 3.051-5.191 4.871-7.288 1.523.133 1.921 2.004 2.779 3.038.883 1.065 1.697 2.242 2.544 3.373 1.47-.441 2.358-1.739 3.12-3.18 2.873-5.416 3.172-3.478 5.367.089.976 1.588 2.043 3.046 3.126 4.416 2.132-1.064 3.614-2.951 5.049-5.015 1.971-2.844 2.325-2.762 3.77.455.973 2.167 2.099 4.142 3.471 5.974 3.327-2.021 5.33-6.535 8.449-8.755 2.089 1.515 2.911 4.696 4.812 6.175 2.353-1.394 3.096-4.959 4.982-7.109 2.771 1.26 3.932 5.483 6.463 7.133 2.9-1.325 4.533-4.913 6.549-7.418 1.636.699 2.12 2.564 3.027 3.781.922 1.238 1.847 2.467 2.912 3.889 2.397-2.522 4.68-4.925 6.866-7.226 1.676.806 2.107 2.887 3.017 4.309.848 1.329 1.599 2.788 2.35 4.117 3.293-.883 4.991-4.911 7.736-6.721 2.21 1.717 2.977 5.594 5.466 7.128 2.49-2.106 4.031-5.897 6.451-8.53 2.704 1.898 4.029 5.822 6.357 8.197 2.95-.705 3.081-5.554 5.359-7.377 2.262 1.749 3.273 5.63 5.947 6.87 2.363-1.593 4.008-4.66 5.931-7.106 1.869.605 2.559 2.972 3.892 4.153 1.341 1.186 2.557 2.647 3.751 3.91 2.825-1.806 4.583-5.14 6.908-7.919 1.737 2.518 3.353 4.866 5.041 7.314 2.95-1.097 3.854-5.524 6.258-7.744.506.728.98 1.282 1.342 1.953 1.103 2.046 2.231 4.033 4.181 4.889 2.135-2.27 4.252-4.518 6.28-6.671.956-.101 1.555.406 1.987 1.383.622 1.405 1.229 2.829 1.898 4.192.352.716.82 1.317 1.242 1.983 1.82-.753 3.173-2.068 4.296-3.995.671-1.157 1.45-2.215 2.278-3.142.8-.89 1.541-.546 2.155.698.967 1.964 1.951 3.906 3.06 6.121 1-1.138 1.833-2.034 2.625-3.002.885-1.089 1.762-2.197 2.586-3.382 1.658-2.382 2.391-1.802 3.516.403 1.175 2.304 2.555 4.401 3.888 6.658 1.71-1.274 3.039-2.737 4.205-4.509.435-.662.807-1.414 1.263-2.042 1.716-2.359 2.846-2.272 4.022.598 1.382 3.367 3.536 5.547 5.553 8.138 2.745-1.924 3.885-6.045 6.278-8.654.494.69 1.01 1.202 1.333 1.894 1.054 2.286 2.275 4.327 3.971 6.172.489-.731.934-1.317 1.309-1.975.637-1.112 1.178-2.337 1.865-3.371.559-1.151 1.126-2.321 1.722-3.548 3.082 2.108 4.745 5.872 7.364 8.333.563-.643 1.167-1.199 1.652-1.919 1.181-1.743 2.287-3.59 3.462-5.342.424-.632.957-1.112 1.502-1.734 2.64 2.32 3.757 6.724 6.51 8.804 1.437-.758 1.969-2.734 2.903-4.106.879-1.293 1.737-2.611 2.633-3.959 2.671 1.828 4.191 5.413 6.659 7.303 1.737-1.255 2.991-3.085 4.203-4.979.43-.67.793-1.426 1.23-2.084.6-.903 1.351-.871 1.918.108 1.018 1.747 1.991 3.548 3.002 5.301.322.561.704 1.045 1.103 1.63 1.453-.825 2.322-2.398 3.333-3.689.471-.607.873-1.323 1.317-1.975 1.562-2.316 1.726-2.309 3.266-.182 1.141 1.584 2.314 3.119 3.483 4.668.064.081.2.051.399.098 2.118-1.698 3.051-5.191 4.871-7.288 1.523.133 1.919 2.004 2.779 3.038.883 1.065 1.696 2.242 2.542 3.373 1.472-.441 2.36-1.739 3.122-3.18 2.872-5.416 3.172-3.478 5.366.089.977 1.588 2.044 3.046 3.127 4.416 2.132-1.064 3.614-2.951 5.047-5.015 1.973-2.844 2.325-2.762 3.77.455.975 2.167 2.1 4.142 3.473 5.974 3.327-2.021 5.329-6.535 8.449-8.755 2.087 1.515 2.91 4.696 4.812 6.175 2.353-1.394 3.094-4.959 4.981-7.109 2.771 1.26 3.934 5.483 6.464 7.133 2.9-1.325 4.532-4.913 6.548-7.418 1.637.699 2.121 2.564 3.028 3.781.922 1.238 1.845 2.467 2.911 3.889 2.398-2.522 4.681-4.925 6.867-7.226 1.675.806 2.107 2.887 3.016 4.309.849 1.329 1.598 2.788 2.351 4.117 3.293-.883 4.991-4.911 7.736-6.721 2.21 1.717 2.976 5.594 5.464 7.128 2.489-2.106 4.033-5.897 6.451-8.53 2.705 1.898 4.033 5.822 6.358 8.197 2.951-.705 3.079-5.554 5.36-7.377 2.259 1.749 3.27 5.63 5.944 6.87 2.365-1.593 4.013-4.66 5.934-7.106 1.869.605 2.558 2.972 3.892 4.153 1.339 1.186 2.556 2.647 3.75 3.91z" fill="#ced4da" fill-rule="evenodd"/></g><g clip-path="url(#e)"><path clip-rule="evenodd" d="m922.287 426.782c-2.057-2.898-4.159-5.857-6.29-8.859-2.783 1.809-3.787 6.45-6.853 7.709-1.781-1.735-3.037-4.58-5.284-5.684-2.262 2.27-3.356 6.749-6.792 7.458-1.727-2.81-3.521-5.738-5.463-8.906-1.091 1.406-2.016 2.521-2.74 4.047-.706 1.492-1.601 2.809-2.472 4.127-.596.898-1.34 1.492-2.415 1.267-1.778-2.53-2.676-6.381-5.165-8.453-2.3 1.878-3.137 6.373-6.291 6.872-2.022-2.378-3.202-6.148-5.478-8.437-2.819 2.223-4.537 6.581-7.899 7.534-1.787-2.762-3.262-5.729-5.275-8.298-.64.686-1.161 1.159-1.615 1.736-1.265 1.608-2.447 3.359-3.768 4.862-1.28 1.459-2.529 1.282-3.693-.427-1.177-1.724-2.251-3.587-3.418-5.462-1.206.79-1.654 2.418-2.399 3.626-.56.904-.94 2.061-1.56 2.855-1.248 1.605-2.629 1.616-3.549-.314-.653-1.378-1.37-2.704-2.131-3.966-.476-.787-1.087-1.407-1.768-2.275-1.076.791-1.833 1.98-2.635 3.157-.959 1.407-1.967 2.774-3.065 3.944-.637.683-1.497.953-2.213 1.376-.969-1.162-1.786-2.119-2.582-3.111-.793-.987-1.565-2.014-2.45-3.158-1.181 1.588-2.241 3.031-3.322 4.445-.546.717-1.097 1.441-1.707 2.036-.692.671-1.429.539-2.013-.359-1.079-1.666-2.098-3.418-3.174-5.095-.489-.762-1.051-1.429-1.681-2.27-2.233 1.894-3.051 6.155-6.061 6.698-1.562-2.693-2.825-5.899-5.01-8.077-2.691 1.452-3.235 6.4-6.275 7.636-.413-.656-.898-1.399-1.363-2.166-.956-1.573-1.677-3.49-3.206-4.521-1.395 1.5-2.433 3.364-3.484 5.233-.79 1.403-1.535 2.965-3.124 2.876-1.588-2.732-3.205-5.502-4.954-8.511-.584.665-1.05 1.181-1.504 1.716-1.149 1.352-2.29 2.719-3.44 4.063-2.056 2.403-2.539 2.325-4.452-.546-.869-1.312-1.774-2.571-2.664-3.855-1.393.442-2.023 1.93-2.857 3.027-.856 1.126-1.65 2.37-2.588 3.346-1.281 1.333-2.228 1.126-3.343-.607-1.36-2.112-2.657-4.305-4.056-6.587-2.857 2.069-4.144 7.071-7.488 7.844-.67-.495-4.439-5.195-6.163-7.161-.497.709-1.732 2.505-2.146 3.132-.651.989-1.236 2.074-1.937 2.987-1.648 2.148-2.099 2.065-3.609-.366-.906-1.458-1.841-2.876-2.866-4.475-.639.762-1.106 1.312-1.57 1.871-1.372 1.658-2.677 3.462-4.14 4.938-1.193 1.205-2.042.931-3.096-.68-1.453-2.212-2.822-4.53-4.231-6.8-.479-.768-.971-1.522-1.607-2.522-.978 1.225-1.835 2.302-2.691 3.378-1.115 1.395-2.188 2.866-3.354 4.165-1.219 1.359-2.02 1.115-2.908-.679-1.102-2.219-2.185-4.458-3.403-6.942-.539.738-1.008 1.278-1.388 1.919-.753 1.274-1.439 2.622-2.179 3.912-.763 1.329-1.705 2.263-3.052 2.48-2.027-2.237-3.007-6.129-5.561-8.038-.539.782-1.049 1.521-1.56 2.268-1.114 1.62-2.194 3.297-3.35 4.859-1.789 2.418-2.505 2.351-4.151-.418-.684-1.148-1.21-2.484-1.833-3.707-.296-.583-.653-1.112-1.044-1.76-2.395 2.007-4.027 5.238-6.603 6.535-1.767-2.057-2.988-4.834-4.973-6.488-2.566 2.023-3.681 7.008-7.305 6.923-1.255-2.108-2.549-4.28-3.964-6.647-1.713 1.595-3.259 3.11-4.399 5.31-.813 1.566-1.849 2.437-3.302 2.46-2.059-2.898-4.158-5.857-6.291-8.859-2.783 1.809-3.785 6.45-6.852 7.709-1.781-1.735-3.036-4.58-5.285-5.684-2.261 2.27-3.354 6.749-6.794 7.458-1.723-2.81-3.52-5.738-5.462-8.906-1.091 1.406-2.012 2.521-2.736 4.047-.709 1.492-1.604 2.809-2.474 4.127-.596.898-1.342 1.492-2.414 1.267-1.779-2.53-2.677-6.381-5.166-8.453-2.301 1.878-3.138 6.373-6.291 6.872-2.023-2.378-3.202-6.148-5.477-8.437-2.821 2.223-4.539 6.581-7.9 7.534-1.786-2.762-3.262-5.729-5.275-8.298-.641.686-1.161 1.159-1.614 1.736-1.265 1.608-2.448 3.359-3.769 4.862-1.28 1.459-2.53 1.282-3.694-.427-1.177-1.724-2.25-3.587-3.417-5.462-1.207.79-1.655 2.418-2.399 3.626-.56.904-.94 2.061-1.56 2.855-1.249 1.605-2.63 1.616-3.548-.314-.654-1.378-1.371-2.704-2.133-3.966-.475-.787-1.085-1.407-1.768-2.275-1.076.791-1.833 1.98-2.634 3.157-.959 1.407-1.966 2.774-3.065 3.944-.638.683-1.497.953-2.213 1.376-.969-1.162-1.786-2.119-2.583-3.111-.793-.987-1.565-2.014-2.45-3.158-1.181 1.588-2.241 3.031-3.321 4.445-.545.717-1.097 1.441-1.706 2.036-.694.671-1.431.539-2.013-.359-1.081-1.666-2.099-3.418-3.176-5.095-.488-.762-1.05-1.429-1.681-2.27-2.233 1.894-3.051 6.155-6.061 6.698-1.561-2.693-2.825-5.899-5.008-8.077-2.693 1.452-3.236 6.4-6.275 7.636-.415-.656-.899-1.399-1.365-2.166-.956-1.573-1.677-3.49-3.205-4.521-1.394 1.5-2.433 3.364-3.483 5.233-.791 1.403-1.537 2.965-3.125 2.876-1.589-2.732-3.205-5.502-4.955-8.511-.583.665-1.049 1.181-1.504 1.716-1.148 1.352-2.29 2.719-3.44 4.063-2.056 2.403-2.537 2.325-4.452-.546-.867-1.312-1.774-2.571-2.664-3.855-1.393.442-2.021 1.93-2.856 3.027-.857 1.126-1.651 2.37-2.589 3.346-1.279 1.333-2.228 1.126-3.342-.607-1.359-2.112-2.658-4.305-4.057-6.587-2.856 2.069-4.142 7.071-7.488 7.844-2.508-1.862-4.063-5.078-6.314-7.545l-.757 1.584c-.498.709-.934 1.305-1.346 1.932-.652.989-1.237 2.074-1.939 2.987-1.646 2.148-2.098 2.065-3.607-.366-.906-1.458-1.842-2.876-2.869-4.475-.636.762-1.103 1.312-1.569 1.871-1.371 1.658-2.675 3.462-4.14 4.938-1.192 1.205-2.04.931-3.094-.68-1.453-2.212-2.822-4.53-4.233-6.8-.477-.768-.97-1.522-1.606-2.522-.979 1.225-1.834 2.302-2.693 3.378-1.112 1.395-2.185 2.866-3.351 4.165-1.22 1.359-2.02 1.115-2.91-.679-1.101-2.219-2.184-4.458-3.402-6.942-.539.738-1.009 1.278-1.389 1.919-.751 1.274-1.439 2.622-2.177 3.912-.764 1.329-1.705 2.263-3.052 2.48-2.03-2.237-3.007-6.129-5.561-8.038-.539.782-1.051 1.521-1.56 2.268-1.116 1.62-2.197 3.297-3.353 4.859-1.787 2.418-2.503 2.351-4.149-.418-.684-1.148-1.211-2.484-1.832-3.707-.297-.583-.653-1.112-1.044-1.76-2.395 2.007-4.028 5.238-6.604 6.535-1.768-2.057-2.987-4.834-4.972-6.488-2.568 2.023-3.682 7.008-7.308 6.923-1.255-2.108-2.549-4.28-3.961-6.647-1.714 1.595-3.262 3.11-4.401 5.31-.811 1.566-1.847 2.437-3.301 2.46-2.058-2.898-4.158-5.857-6.29-8.859-2.783 1.809-3.787 6.45-6.853 7.709-1.781-1.735-3.037-4.58-5.284-5.684-2.262 2.27-3.356 6.749-6.794 7.458-1.725-2.81-3.52-5.738-5.462-8.906-1.091 1.406-2.013 2.521-2.739 4.047-.706 1.492-1.602 2.809-2.472 4.127-.596.898-1.34 1.492-2.415 1.267-1.777-2.53-2.676-6.381-5.164-8.453-2.301 1.878-3.138 6.373-6.292 6.872-2.022-2.378-3.201-6.148-5.478-8.437-2.819 2.223-4.539 6.581-7.898 7.534-1.788-2.762-3.263-5.729-5.275-8.298-.643.686-1.161 1.159-1.616 1.736-1.265 1.608-2.446 3.359-3.768 4.862-1.28 1.459-2.529 1.282-3.694-.427-1.176-1.724-2.25-3.587-3.417-5.462-1.208.79-1.654 2.418-2.399 3.626-.56.904-.939 2.061-1.56 2.855-1.248 1.605-2.63 1.616-3.547-.314-.655-1.378-1.372-2.704-2.133-3.966-.476-.787-1.087-1.407-1.769-2.275-1.075.791-1.833 1.98-2.634 3.157-.959 1.407-1.967 2.774-3.064 3.944-.64.683-1.498.953-2.214 1.376-.969-1.162-1.786-2.119-2.582-3.111-.793-.987-1.565-2.014-2.45-3.158-1.181 1.588-2.241 3.031-3.322 4.445-.546.717-1.096 1.441-1.707 2.036-.692.671-1.43.539-2.011-.359-1.083-1.666-2.1-3.418-3.177-5.095-.487-.762-1.05-1.429-1.68-2.27-2.233 1.894-3.051 6.155-6.061 6.698-1.562-2.693-2.825-5.899-5.008-8.077-2.693 1.452-3.237 6.4-6.277 7.636-.414-.656-.898-1.399-1.363-2.166-.956-1.573-1.677-3.49-3.206-4.521-1.395 1.5-2.433 3.364-3.484 5.233-.79 1.403-1.535 2.965-3.123 2.876-1.59-2.732-3.206-5.502-4.956-8.511-.584.665-1.05 1.181-1.503 1.716-1.149 1.352-2.29 2.719-3.442 4.063-2.055 2.403-2.537 2.325-4.45-.546-.869-1.312-1.774-2.571-2.664-3.855-1.395.442-2.023 1.93-2.857 3.027-.857 1.126-1.652 2.37-2.588 3.346-1.281 1.333-2.228 1.126-3.343-.607-1.36-2.112-2.657-4.305-4.058-6.587-2.854 2.069-4.14 7.071-7.486 7.844-2.509-1.862-4.065-5.078-6.315-7.545-.407.662-.809 1.293-1.194 1.944-.82 1.387-1.584 2.852-2.483 4.123-.197.281-.863-.102-1.282-.18-.009-.618-.096-.983-.004-1.174 1.485-3.117 2.995-6.212 4.668-9.66 3.082 2.108 4.746 5.872 7.366 8.333.561-.643 1.165-1.199 1.65-1.919 1.181-1.743 2.287-3.59 3.461-5.342.425-.632.958-1.112 1.503-1.734 2.638 2.32 3.758 6.724 6.508 8.804 1.439-.758 1.971-2.734 2.904-4.106.88-1.293 1.738-2.611 2.634-3.959 2.671 1.828 4.191 5.413 6.659 7.303 1.737-1.255 2.991-3.085 4.203-4.979.43-.67.793-1.426 1.23-2.084.6-.903 1.351-.871 1.918.108 1.016 1.747 1.989 3.548 3.003 5.301.319.561.705 1.045 1.102 1.63 1.452-.825 2.322-2.398 3.333-3.689.47-.607.873-1.323 1.317-1.975 1.562-2.316 1.726-2.309 3.264-.182 1.143 1.584 2.316 3.119 3.485 4.668.064.081.2.051.397.098 2.12-1.698 3.053-5.191 4.873-7.288 1.522.133 1.919 2.004 2.779 3.038.883 1.065 1.696 2.242 2.542 3.373 1.471-.441 2.36-1.739 3.121-3.18 2.873-5.416 3.173-3.478 5.367.089.976 1.588 2.042 3.046 3.126 4.416 2.133-1.064 3.615-2.951 5.048-5.015 1.973-2.844 2.325-2.762 3.77.455.975 2.167 2.1 4.142 3.472 5.974 3.328-2.021 5.33-6.535 8.45-8.755 2.087 1.515 2.91 4.696 4.812 6.175 2.352-1.394 3.096-4.959 4.981-7.109 2.772 1.26 3.932 5.483 6.464 7.133 2.9-1.325 4.533-4.913 6.546-7.418 1.639.699 2.123 2.564 3.029 3.781.923 1.238 1.848 2.467 2.912 3.889 2.396-2.522 4.68-4.925 6.866-7.226 1.677.806 2.106 2.887 3.017 4.309.848 1.329 1.598 2.788 2.35 4.117 3.294-.883 4.992-4.911 7.737-6.721 2.21 1.717 2.976 5.594 5.464 7.128 2.491-2.106 4.033-5.897 6.451-8.53 2.705 1.898 4.031 5.822 6.358 8.197 2.95-.705 3.079-5.554 5.36-7.377 2.261 1.749 3.271 5.63 5.945 6.87 2.364-1.593 4.01-4.66 5.933-7.106 1.868.605 2.558 2.972 3.892 4.153 1.339 1.186 2.556 2.647 3.75 3.91 2.825-1.806 4.583-5.14 6.908-7.919 1.736 2.518 3.354 4.866 5.04 7.314 2.952-1.097 3.856-5.524 6.26-7.744.506.728.979 1.282 1.341 1.953 1.104 2.046 2.229 4.033 4.181 4.889 2.134-2.27 4.251-4.518 6.28-6.671.956-.101 1.554.406 1.986 1.383.623 1.405 1.229 2.829 1.897 4.192.354.716.823 1.317 1.244 1.983 1.82-.753 3.174-2.068 4.295-3.995.672-1.157 1.452-2.215 2.28-3.142.797-.89 1.541-.546 2.154.698.965 1.964 1.952 3.906 3.061 6.121.998-1.138 1.833-2.034 2.623-3.002.885-1.089 1.763-2.197 2.585-3.382 1.658-2.382 2.394-1.802 3.519.403 1.175 2.304 2.555 4.401 3.886 6.658 1.712-1.274 3.038-2.737 4.205-4.509.436-.662.806-1.414 1.265-2.042 1.714-2.359 2.845-2.272 4.022.598 1.381 3.367 3.535 5.547 5.552 8.138 2.745-1.924 3.886-6.045 6.277-8.654.495.69 1.012 1.202 1.333 1.894 1.056 2.286 2.276 4.327 3.972 6.172.489-.731.933-1.317 1.31-1.975.671-1.174 1.228-2.488 1.97-3.556.514-.734 1.725-3.363 1.725-3.363.803-2.375 4.746 5.872 7.366 8.333.561-.643 1.166-1.199 1.651-1.919 1.181-1.743 2.286-3.59 3.461-5.342.424-.632.957-1.112 1.504-1.734 2.638 2.32 3.756 6.724 6.508 8.804 1.438-.758 1.97-2.734 2.903-4.106.879-1.293 1.738-2.611 2.634-3.959 2.672 1.828 4.19 5.413 6.659 7.303 1.736-1.255 2.991-3.085 4.202-4.979.43-.67.794-1.426 1.231-2.084.599-.903 1.351-.871 1.917.108 1.018 1.747 1.992 3.548 3.003 5.301.322.561.705 1.045 1.102 1.63 1.453-.825 2.324-2.398 3.333-3.689.472-.607.874-1.323 1.318-1.975 1.562-2.316 1.726-2.309 3.265-.182 1.141 1.584 2.314 3.119 3.483 4.668.064.081.201.051.399.098 2.119-1.698 3.051-5.191 4.871-7.288 1.523.133 1.921 2.004 2.779 3.038.883 1.065 1.697 2.242 2.544 3.373 1.47-.441 2.358-1.739 3.12-3.18 2.873-5.416 3.172-3.478 5.367.089.976 1.588 2.043 3.046 3.126 4.416 2.132-1.064 3.614-2.951 5.049-5.015 1.971-2.844 2.325-2.762 3.77.455.973 2.167 2.099 4.142 3.471 5.974 3.327-2.021 5.33-6.535 8.449-8.755 2.089 1.515 2.911 4.696 4.812 6.175 2.353-1.394 3.096-4.959 4.982-7.109 2.771 1.26 3.932 5.483 6.463 7.133 2.9-1.325 4.533-4.913 6.549-7.418 1.636.699 2.12 2.564 3.027 3.781.922 1.238 1.847 2.467 2.912 3.889 2.397-2.522 4.68-4.925 6.866-7.226 1.676.806 2.107 2.887 3.017 4.309.848 1.329 1.599 2.788 2.35 4.117 3.293-.883 4.991-4.911 7.736-6.721 2.21 1.717 2.977 5.594 5.466 7.128 2.49-2.106 4.031-5.897 6.451-8.53 2.704 1.898 4.029 5.822 6.357 8.197 2.95-.705 3.081-5.554 5.359-7.377 2.262 1.749 3.273 5.63 5.947 6.87 2.363-1.593 4.008-4.66 5.931-7.106 1.869.605 2.559 2.972 3.892 4.153 1.341 1.186 2.557 2.647 3.751 3.91 2.825-1.806 4.583-5.14 6.908-7.919 1.737 2.518 3.353 4.866 5.041 7.314 2.95-1.097 3.854-5.524 6.258-7.744.506.728.98 1.282 1.342 1.953 1.103 2.046 2.231 4.033 4.181 4.889 2.135-2.27 4.252-4.518 6.28-6.671.956-.101 1.555.406 1.987 1.383.622 1.405 1.229 2.829 1.898 4.192.352.716.82 1.317 1.242 1.983 1.82-.753 3.173-2.068 4.296-3.995.671-1.157 1.45-2.215 2.278-3.142.8-.89 1.541-.546 2.155.698.967 1.964 1.951 3.906 3.06 6.121 1-1.138 1.833-2.034 2.625-3.002.885-1.089 1.762-2.197 2.586-3.382 1.658-2.382 2.391-1.802 3.516.403 1.175 2.304 2.555 4.401 3.888 6.658 1.71-1.274 3.039-2.737 4.205-4.509.435-.662.807-1.414 1.263-2.042 1.716-2.359 2.846-2.272 4.022.598 1.382 3.367 3.536 5.547 5.553 8.138 2.745-1.924 3.885-6.045 6.278-8.654.494.69 1.01 1.202 1.333 1.894 1.054 2.286 2.275 4.327 3.971 6.172.489-.731.934-1.317 1.309-1.975.637-1.112 1.178-2.337 1.865-3.371.559-1.151 1.126-2.321 1.722-3.548 3.082 2.108 4.745 5.872 7.364 8.333.563-.643 1.167-1.199 1.652-1.919 1.181-1.743 2.287-3.59 3.462-5.342.424-.632.957-1.112 1.502-1.734 2.64 2.32 3.757 6.724 6.51 8.804 1.437-.758 1.969-2.734 2.903-4.106.879-1.293 1.737-2.611 2.633-3.959 2.671 1.828 4.191 5.413 6.659 7.303 1.737-1.255 2.991-3.085 4.203-4.979.43-.67.793-1.426 1.23-2.084.6-.903 1.351-.871 1.918.108 1.018 1.747 1.991 3.548 3.002 5.301.322.561.704 1.045 1.103 1.63 1.453-.825 2.322-2.398 3.333-3.689.471-.607.873-1.323 1.317-1.975 1.562-2.316 1.726-2.309 3.266-.182 1.141 1.584 2.314 3.119 3.483 4.668.064.081.2.051.399.098 2.118-1.698 3.051-5.191 4.871-7.288 1.523.133 1.919 2.004 2.779 3.038.883 1.065 1.696 2.242 2.542 3.373 1.472-.441 2.36-1.739 3.122-3.18 2.872-5.416 3.172-3.478 5.366.089.977 1.588 2.044 3.046 3.127 4.416 2.132-1.064 3.614-2.951 5.047-5.015 1.973-2.844 2.325-2.762 3.77.455.975 2.167 2.1 4.142 3.473 5.974 3.327-2.021 5.329-6.535 8.449-8.755 2.087 1.515 2.91 4.696 4.812 6.175 2.353-1.394 3.094-4.959 4.981-7.109 2.771 1.26 3.934 5.483 6.464 7.133 2.9-1.325 4.532-4.913 6.548-7.418 1.637.699 2.121 2.564 3.028 3.781.922 1.238 1.845 2.467 2.911 3.889 2.398-2.522 4.681-4.925 6.867-7.226 1.675.806 2.107 2.887 3.016 4.309.849 1.329 1.598 2.788 2.351 4.117 3.293-.883 4.991-4.911 7.736-6.721 2.21 1.717 2.976 5.594 5.464 7.128 2.489-2.106 4.033-5.897 6.451-8.53 2.705 1.898 4.033 5.822 6.358 8.197 2.951-.705 3.079-5.554 5.36-7.377 2.259 1.749 3.27 5.63 5.944 6.87 2.365-1.593 4.013-4.66 5.934-7.106 1.869.605 2.558 2.972 3.892 4.153 1.339 1.186 2.556 2.647 3.75 3.91z" fill="#ced4da" fill-rule="evenodd"/></g><path d="m227 10h150v22c0 4.4183-3.582 8-8 8h-134c-4.418 0-8-3.5817-8-8z" fill="#495057"/><circle cx="327" cy="25" fill="#868e96" r="4"/><rect fill="#868e96" height="6" rx="3" width="40" x="273" y="22"/><g fill="#343a40" stroke="#495057"><path d="m110 113h3v38h-3c-.552 0-1-.448-1-1v-36c0-.552.448-1 1-1z" stroke-width="2"/><path d="m110 163h3v38h-3c-.552 0-1-.448-1-1v-36c0-.552.448-1 1-1z" stroke-width="2"/><path d="m491 113h3c.552 0 1 .448 1 1v56c0 .552-.448 1-1 1h-3z" stroke-width="2"/></g><path d="m0 448h600v2h-600z" fill="#495057"/></g></svg>