<svg fill="none" height="150" viewBox="0 0 201 150" width="201" xmlns="http://www.w3.org/2000/svg"><path d="m172.229 86.2291c-6.978.0366-13.042 1.7171-18.12 4.2014-1.864-3.6899-3.727-6.9779-4.056-9.3891-.365-2.8131-.803-4.5302-.365-7.8913.439-3.3611 2.411-8.147 2.375-8.5124-.037-.3653-.439-2.0824-4.457-2.1189-4.019-.0366-7.49.7672-7.892 1.8267-.401 1.0594-1.169 3.4707-1.68 5.9549-.694 3.6534-8.038 16.6959-12.239 23.5277-1.352-2.6669-2.521-5.0051-2.776-6.8683-.366-2.8131-.804-4.5302-.366-7.8913.439-3.3611 2.411-8.147 2.375-8.5123-.037-.3653-.439-2.0824-4.457-2.119-4.019-.0365-7.49.7672-7.892 1.8267-.401 1.0595-.84 3.5438-1.68 5.955s-10.595 24.1851-13.1522 29.8111c-1.3152 2.887-2.4478 5.188-3.2515 6.759 0 0-.0365.11-.1461.292-.6942 1.352-1.096 2.083-1.096 2.083v.036c-.5481.987-1.1326 1.9-1.4249 1.9-.2192 0-.621-2.63.0731-6.211 1.4614-7.562 4.9321-19.3259 4.8955-19.7278 0-.2192.6576-2.2651-2.2651-3.3246-2.8496-1.0595-3.8725.6942-4.1283.6942-.2557 0-.4384.621-.4384.621s3.1785-13.2252-6.0646-13.2252c-5.7723 0-13.7366 6.3204-17.6823 12.0196-2.4843 1.3518-7.7817 4.2379-13.4444 7.3433-2.1555 1.2056-4.384 2.4112-6.4664 3.5438-.1462-.1462-.2923-.3288-.4384-.475-11.1793-11.9465-31.8574-20.3858-30.9806-36.4241.3288-5.8454 2.3381-21.1895 39.7121-39.8217 30.7614-15.16146 55.2385-10.9601 59.4765-1.644 6.065 13.2983-13.115 37.995-44.8995 41.5753-12.1292 1.3518-18.4861-3.3245-20.0936-5.0781-1.6805-1.8267-1.9363-1.9363-2.5573-1.571-1.023.548-.3654 2.192 0 3.1419.9498 2.4843 4.8589 6.8683 11.4715 9.0238 5.8454 1.8998 20.057 2.9593 37.2644-3.6899 19.2535-7.4528 34.3055-28.1675 29.8845-45.521-4.421-17.609191-33.6475-23.41805-61.3035-13.59048-16.4401 5.84538-34.2686 15.05188-47.0919 27.03488-15.23454 14.2482-17.645762 26.6331-16.659353 31.8209 3.543773 18.413 28.934653 30.396 39.091053 39.2732-.5115.293-.9864.549-1.3883.768-5.0782 2.521-24.441 12.64-29.26347 23.345-5.48005 12.129.87681 20.824 5.07817 21.993 13.0425 3.617 26.4504-2.886 33.6475-13.627 7.1972-10.741 6.3204-24.697 2.9958-31.09-.0365-.073-.0731-.146-.1461-.219 1.3152-.768 2.6669-1.571 3.9821-2.339 2.5939-1.534 5.1513-2.9588 7.3433-4.1279-1.2421 3.3979-2.1555 7.4529-2.5939 13.2979-.548 6.869 2.2651 15.783 5.955 19.29 1.644 1.535 3.5803 1.571 4.8225 1.571 4.3109 0 6.2472-3.58 8.4027-7.818 2.6304-5.188 5.0051-11.216 5.0051-11.216s-2.9592 16.294 5.0782 16.294c2.9227 0 5.8819-3.799 7.1971-5.736v.037s.0731-.11.2192-.366c.2923-.474.475-.767.475-.767s0-.036 0-.073c1.1691-2.046 3.7995-6.685 7.7088-14.394 5.041-9.9372 9.9-22.3587 9.9-22.3587s.439 3.0323 1.937 8.074c.877 2.9592 2.703 6.2107 4.165 9.3527-1.17 1.644-1.9 2.557-1.9 2.557s0 0 .036.037c-.95 1.242-1.972 2.594-3.105 3.909-3.982 4.749-8.732 10.193-9.389 11.764-.767 1.863-.585 3.215.877 4.311 1.059.803 2.959.913 4.895.803 3.58-.255 6.101-1.132 7.343-1.68 1.937-.694 4.202-1.754 6.321-3.325 3.909-2.886 6.284-7.014 6.064-12.458-.109-2.995-1.096-5.991-2.301-8.8043.365-.5114.694-1.0229 1.059-1.5344 6.174-9.0238 10.96-18.9244 10.96-18.9244s.439 3.0323 1.937 8.0739c.73 2.5574 2.228 5.3339 3.543 8.0374-5.809 4.7128-9.389 10.1928-10.668 13.7728-2.301 6.65-.511 9.645 2.887 10.339 1.534.329 3.726-.401 5.334-1.096 2.045-.657 4.457-1.79 6.758-3.47 3.909-2.886 7.672-6.905 7.453-12.349-.109-2.484-.767-4.9317-1.68-7.3064 4.932-2.0459 11.289-3.1784 19.399-2.2285 17.39 2.0459 20.824 12.8959 20.167 17.4629-.658 4.567-4.311 7.051-5.517 7.818-1.206.768-1.607 1.023-1.498 1.571.146.804.731.768 1.754.621 1.425-.255 9.133-3.689 9.462-12.092.548-10.7411-9.681-22.4685-27.766-22.3589zm-134.1513 45.2289c-5.7723 6.284-13.8098 8.658-17.2805 6.649-3.7264-2.156-2.265-11.435 4.8225-18.084 4.311-4.055 9.8641-7.818 13.554-10.12.8403-.512 2.0824-1.242 3.5803-2.156.2557-.146.4019-.219.4019-.219.2922-.182.5845-.365.8768-.548 2.5939 9.499.1096 17.865-5.955 24.478zm42.0137-28.57c-2.0093 4.896-6.2107 17.427-8.7681 16.733-2.192-.585-3.5437-10.083-.4384-19.473 1.571-4.7124 4.8955-10.3386 6.8318-12.5306 3.1419-3.5072 6.6126-4.6763 7.4529-3.2515 1.0595 1.8632-3.836 15.4538-5.0782 18.5221zm34.6706 16.587c-.84.438-1.644.73-2.009.511-.256-.146.365-.73.365-.73s4.347-4.677 6.064-6.796c.987-1.242 2.156-2.703 3.398-4.347v.475c0 5.589-5.407 9.352-7.818 10.887zm26.743-6.101c-.622-.439-.512-1.9 1.571-6.467.803-1.79 2.703-4.786 5.954-7.6719.366 1.1689.622 2.3019.585 3.3609-.036 7.051-5.078 9.682-8.11 10.778z" fill="#cd6799"/></svg>