<svg width="290" height="5" viewBox="0 0 290 5" fill="none" xmlns="http://www.w3.org/2000/svg">
<g clip-path="url(#clip0)">
<g clip-path="url(#clip1)">
<path fill-rule="evenodd" clip-rule="evenodd" d="M62.9978 1.4203C62.6698 1.91364 62.5325 2.36697 62.2392 2.52297C59.7645 3.82697 57.1365 3.74964 54.5072 3.15631C54.1325 3.06964 53.7192 2.45494 53.6218 2.01894C53.4925 1.4376 54.0338 1.14694 54.5471 0.921605C56.4685 0.0736054 58.4098 -0.118374 60.4151 0.609626C61.1845 0.888293 61.9765 1.10297 62.9978 1.4203" fill="#858C93"/>
<path fill-rule="evenodd" clip-rule="evenodd" d="M187.946 4.6723C186.31 4.6083 185.21 4.56558 184.707 3.38558C184.362 2.57492 185.36 1.50964 187 1.27764C188.446 1.07364 189.952 1.12827 191.41 1.2736C191.903 1.32294 192.466 1.92695 192.751 2.42028C193.018 2.88162 192.308 3.74826 191.451 3.9656C190.123 4.30293 188.763 4.51364 187.946 4.6723" fill="#858C93"/>
<path fill-rule="evenodd" clip-rule="evenodd" d="M238.244 1.34701C238.731 2.40835 238.484 3.21895 237.51 3.48562C235.367 4.07495 233.172 4.43764 230.931 4.13497C230.631 4.09497 230.339 3.93766 230.062 3.79499C229.494 3.50166 229.332 2.53367 229.832 2.17501C230.338 1.80967 230.89 1.41631 231.479 1.27631C233.752 0.734977 236.042 0.588347 238.244 1.34701" fill="#858C93"/>
<path fill-rule="evenodd" clip-rule="evenodd" d="M106.652 1.49501C106.379 1.88968 106.172 2.5537 105.818 2.64436C103.563 3.2257 101.267 3.67364 98.9191 3.42431C98.5698 3.38698 98.1805 3.03097 97.9485 2.71897C97.5085 2.13231 97.8365 1.03098 98.5645 0.896317C100.008 0.632317 101.483 0.447033 102.948 0.4137C104.188 0.384366 105.512 0.337681 106.652 1.49501Z" fill="#858C93"/>
<path fill-rule="evenodd" clip-rule="evenodd" d="M220.504 0.426946C221.49 0.642946 222.331 0.75099 223.103 1.03899C223.387 1.14566 223.606 1.66565 223.67 2.02831C223.708 2.24965 223.456 2.65762 223.231 2.76829C221.134 3.79629 218.991 4.66564 216.599 3.7843C215.976 3.55497 215.466 3.16165 215.486 2.42831C215.503 1.71898 215.958 1.23495 216.615 1.09628C217.947 0.817615 219.298 0.629613 220.504 0.426946Z" fill="#858C93"/>
<path fill-rule="evenodd" clip-rule="evenodd" d="M285.167 2.02564C284.711 2.31897 284.467 2.54697 284.175 2.65363C282.363 3.3243 280.475 3.61096 278.556 3.50962C277.98 3.48029 277.351 3.17099 276.878 2.81633C276.2 2.30699 276.376 1.3123 277.138 1.02297C279.278 0.206968 281.488 0.088286 283.692 0.640286C284.179 0.762953 284.536 1.4123 285.167 2.02564" fill="#858C93"/>
<path fill-rule="evenodd" clip-rule="evenodd" d="M85.9885 3.84836C85.7018 3.84436 85.1351 3.95101 84.6511 3.79634C84.2031 3.65367 83.7151 3.30301 83.4965 2.90435C83.3751 2.68435 83.6858 2.09367 83.9565 1.82433C84.3205 1.463 84.7978 1.11904 85.2845 0.995037C87.1738 0.51237 89.0845 0.580344 90.9498 1.13501C91.2831 1.23368 91.7658 1.747 91.7245 1.98566C91.6418 2.43366 91.3085 2.94571 90.9271 3.20038C90.5151 3.47638 89.9325 3.54704 89.4138 3.60304C88.3591 3.71638 87.2938 3.75902 85.9885 3.84836Z" fill="#858C93"/>
<path fill-rule="evenodd" clip-rule="evenodd" d="M77.5685 1.57233C77.1538 2.19499 76.9738 2.81098 76.6072 2.95898C74.4005 3.84698 72.1058 3.99896 69.7778 3.47363C69.6765 3.45096 69.5578 3.40432 69.5018 3.32832C69.2658 3.00565 68.8872 2.67495 68.8698 2.33229C68.8525 1.99229 69.1992 1.62831 69.4085 1.28964C69.4525 1.21764 69.5965 1.20562 69.6965 1.16829C72.2898 0.209623 74.8072 0.410993 77.5685 1.57233" fill="#858C93"/>
<path fill-rule="evenodd" clip-rule="evenodd" d="M17.2005 1.08426C18.1138 1.19093 19.1738 1.25225 20.2018 1.47091C20.5112 1.53758 20.8938 2.01893 20.9392 2.35093C20.9858 2.68826 20.7538 3.27759 20.4765 3.41225C18.5258 4.35492 16.4698 4.70956 14.3218 4.18823C14.1258 4.14156 13.8952 4.03092 13.7845 3.87625C13.4898 3.46958 13.0205 3.00291 13.0538 2.59624C13.0872 2.17091 13.5712 1.71229 13.9672 1.41362C14.2765 1.17895 14.7472 1.10161 15.1552 1.06961C15.7858 1.02294 16.4245 1.07359 17.2005 1.08426" fill="#858C93"/>
<path fill-rule="evenodd" clip-rule="evenodd" d="M121.288 2.78828C118.963 4.58828 116.456 4.73897 113.822 3.91497C113.02 3.66431 112.847 2.53098 113.512 2.15098C115.88 0.802977 118.33 0.841623 120.782 1.89629C120.999 1.98962 121.079 2.40295 121.288 2.78828" fill="#858C93"/>
<path fill-rule="evenodd" clip-rule="evenodd" d="M248.997 4.26965C248.135 4.17632 247.925 4.16161 247.717 4.12961C246.837 3.98828 246.213 3.44428 246.181 2.79628C246.149 2.12028 246.723 1.44029 247.566 1.33495C249.129 1.14029 250.699 0.950997 252.27 0.913664C252.845 0.898997 253.459 1.26698 254.003 1.55898C254.563 1.86164 254.498 2.93366 253.873 3.10566C252.062 3.60299 250.221 3.98299 248.997 4.26965Z" fill="#858C93"/>
<path fill-rule="evenodd" clip-rule="evenodd" d="M204.674 1.02829C205.735 1.16563 206.79 1.26559 207.826 1.46293C208.063 1.50826 208.365 1.87229 208.402 2.12562C208.441 2.38029 208.245 2.73764 208.042 2.94164C207.834 3.15231 207.505 3.31092 207.207 3.35759C205.427 3.62826 203.643 3.87359 201.857 4.09092C201.557 4.12826 201.186 4.06964 200.937 3.91364C200.605 3.70564 200.135 3.35897 200.133 3.06963C200.129 2.61363 200.374 2.07495 200.687 1.72295C200.934 1.44429 201.427 1.31496 201.831 1.26163C202.775 1.13763 203.73 1.10029 204.674 1.02829" fill="#858C93"/>
<path fill-rule="evenodd" clip-rule="evenodd" d="M163.399 3.38034C161.56 4.66968 159.487 4.46964 157.421 4.1403C157.07 4.0843 156.736 3.68034 156.47 3.37234C155.954 2.77367 156.182 1.807 156.916 1.53633C158.642 0.904334 160.447 0.918985 162.191 1.28698C162.994 1.45632 163.442 2.32301 163.399 3.38034" fill="#858C93"/>
<path fill-rule="evenodd" clip-rule="evenodd" d="M264.274 4.17627C263.271 4.04427 262.591 4.08293 262.035 3.84027C261.64 3.66693 261.164 3.10829 261.175 2.73363C261.186 2.33363 261.719 1.94295 262.04 1.56162C262.098 1.49362 262.235 1.47093 262.336 1.46559C264.343 1.35759 266.351 1.24026 268.36 1.16826C268.651 1.1576 268.957 1.35494 269.246 1.47894C269.735 1.69227 269.81 2.46959 269.356 2.79893C269.022 3.04426 268.67 3.34696 268.283 3.43096C266.843 3.74296 265.386 3.97627 264.274 4.17627" fill="#858C93"/>
<path fill-rule="evenodd" clip-rule="evenodd" d="M132.111 0.566975C133.09 0.900308 134.183 1.20964 135.215 1.66431C135.476 1.78031 135.634 2.34959 135.648 2.71893C135.658 2.92426 135.298 3.30298 135.067 3.33631C133.206 3.60164 131.339 3.83498 129.468 4.00832C128.762 4.07498 128.267 3.61364 128.127 2.93631C127.987 2.25898 128.294 1.59895 128.903 1.37095C129.866 1.01361 130.904 0.857641 132.111 0.566975" fill="#858C93"/>
<path fill-rule="evenodd" clip-rule="evenodd" d="M42.5525 3.53101C42.1818 3.40567 41.3632 3.2203 40.6352 2.85763C39.9005 2.4923 39.9965 1.44832 40.7392 1.08166C42.3125 0.30699 43.9618 0.0296493 45.6525 0.573649C46.5072 0.849649 47.6405 0.713665 48.0298 1.85633C48.2418 2.48166 47.3912 2.97096 45.5445 3.28563C45.1285 3.35629 44.7058 3.39367 44.2845 3.43101C43.8658 3.46701 43.4418 3.48034 42.5525 3.53101" fill="#858C93"/>
<path fill-rule="evenodd" clip-rule="evenodd" d="M150.921 2.10958C150.471 2.72158 150.345 3.09225 150.113 3.17625C147.898 3.98825 145.622 4.35891 143.291 3.76557C142.96 3.68157 142.448 3.19359 142.49 2.98159C142.576 2.53226 142.881 1.91494 143.253 1.76427C145.713 0.780271 148.163 0.856251 150.921 2.10958Z" fill="#858C93"/>
<path fill-rule="evenodd" clip-rule="evenodd" d="M174.353 1.13367C175.343 1.44167 176.362 1.68432 177.315 2.08165C177.905 2.32699 177.845 3.447 177.243 3.66167C175.115 4.41767 172.951 4.88033 170.758 3.92033C170.508 3.81233 170.201 3.4563 170.21 3.22697C170.226 2.85897 170.39 2.38964 170.658 2.16297C171.707 1.27764 173.003 1.28701 174.353 1.13367Z" fill="#858C93"/>
<path fill-rule="evenodd" clip-rule="evenodd" d="M4.2245 0.616355C5.03917 0.788355 5.87917 0.890972 6.65917 1.16564C6.97784 1.27764 7.33383 1.73901 7.3725 2.07501C7.41117 2.40701 7.16451 2.92969 6.87917 3.11635C5.17917 4.22569 1.9165 4.10168 0.304498 2.93901C-0.100835 2.64701 -0.104828 1.88568 0.312506 1.57501C0.559172 1.39101 0.816494 1.15768 1.10049 1.10301C2.12716 0.905675 3.16717 0.775021 4.2245 0.616355" fill="#858C93"/>
<path fill-rule="evenodd" clip-rule="evenodd" d="M26.0552 1.65096C26.2912 1.35229 26.3858 1.10695 26.5538 1.03761C28.8205 0.0949477 31.1258 0.276291 33.4018 0.948291C33.7765 1.05896 34.1405 1.66561 34.2298 2.09894C34.2818 2.34561 33.8218 2.8883 33.4965 2.9923C31.2965 3.69363 29.0858 3.39495 26.9285 2.77629C26.5498 2.66695 26.3258 2.01763 26.0552 1.65096Z" fill="#858C93"/>
</g>
</g>
<defs>
<clipPath id="clip0">
<rect width="290" height="5" fill="white"/>
</clipPath>
<clipPath id="clip1">
<rect width="749.175" height="4.67232" fill="white"/>
</clipPath>
</defs>
</svg>
