<svg fill="none" height="4" viewBox="0 0 763 4" width="763" xmlns="http://www.w3.org/2000/svg"><path clip-rule="evenodd" d="m762.66 2.12598c-1.352-.03256-3.26-.36769-4.516-.35737-2.641.02144-5.286-.28256-7.929-.27939-8.976.0143-17.948.01034-26.921-.00395-10.354-.01668-20.707-.02622-31.06-.08975-5.752-.03494-11.5-.19456-17.252-.25651-4.946-.05321-9.896-.03096-14.842-.07385-5.752-.05003-11.5-.138976-17.249-.202508-5.852-.064325-11.697-.1215-17.553-.115941-11.727.012706-23.447-.250953-35.179-.00318-4.248.088944-8.525-.090529-12.768.023033-6.563.175506-13.108.119114-19.667.031758-3.441-.045266-6.896.06989-10.341.124686-3.332.053208-6.664.155652-9.996.174712-3.104.01667-6.212-.08258-9.316-.06749-5.405.0262-10.812.15007-16.218.14054-7.36-.01271-14.723-.09847-22.082-.178682-4.485-.049237-8.969-.231079-13.45-.201696-7.704.050825-15.41.219968-23.111.343848-.575.00874-1.147.04607-1.721.06513-9.759.3256-19.524.43041-29.304.24856-1.032-.01906-2.071 0-3.103.02621-3.784.09609-7.565.20886-11.352.30178-2.984.07306-5.969.17233-8.956.17947-5.025.01192-24.845-.46934-27.488-.46617-8.975.0143-17.948.01034-26.92-.00395-10.355-.01668-20.707-.02622-31.06-.08975-5.752-.03494-11.5-.19456-17.252-.25651-4.945-.05321-9.896-.03096-14.841-.07385-5.752-.05003-11.501-.138976-17.25-.202508-5.852-.064325-11.697-.1215-17.555-.115941-11.726.012706-23.446-.250953-35.177-.00318-4.249.088944-8.527-.090529-12.768.023033-6.564.175506-13.108.119114-19.667.031758-3.441-.045266-6.896.06989-10.341.124686-3.333.053208-6.665.155652-9.997.174712-3.104.01667-6.21-.08258-9.314-.06749-5.408.0262-10.813.15007-16.22.14054-7.361-.01271-14.721-.09847-22.081-.178682-4.485-.049237-8.969-.231079-13.4505-.201696-7.7053.050825-15.4093.219968-23.1107.343848-.5746.00874-1.1466.04607-1.7213.06513-9.7573.3256-19.5253.43041-29.3039.24856-1.032-.01906-2.0707 0-3.1041.02621-3.7826.09609-7.564.20886-11.3493.30178-2.9853.07306-5.9707.17233-8.9587.17947-6.0973.0143-12.19465-.0262-18.29465-.03811-.550666-.00159-.698386.17217-1.4850527.2087-.1033305.5956-.06470648.53907-.0106143 1.48902.870667.06511 2.160997-.06814 2.946337-.05067 1.60666.03812 3.216.04605 4.824.04763 2.64268.0008 5.30528.07624 7.92528-.03891 5.0467-.22156 10.0881-.33035 15.1534-.24458 1.952.03415 3.9067.06987 5.8574.04684 4.2453-.05082 8.488-.13579 12.728-.21282 2.2826-.04209 4.584.00317 6.8426-.06354 6.6414-.19615 13.256-.58766 19.928-.58845 2.1853 0 4.3706.01111 6.5546.01429 3.6654.00556 7.3413-.17948 10.9933.13977.5507.04923 1.716 0 1.716 0s5.9649-.07862 8.9479-.08021c6.433-.00318 12.855-.14136 19.272-.33831 1.029-.03256 2.064-.09846 3.093-.08973 9.663.08339 19.324.17789 28.986.27159 3.218.03018 6.437.05798 9.653.10245 4.145.05639 8.265-.14611 12.395-.20964 6.893-.10721 13.793-.09452 20.69-.1104 2.746-.00715 5.522-.14851 8.198.3113.514.08815 1.144.08021 1.71.06035 2.971-.10562 5.978.16282 8.928-.18502.543-.06432 1.143-.03099 1.716-.03575 4.474-.0413 8.944-.09212 13.415-.11753 3.216-.01827 6.433-.01112 9.651 0 3.334.01112 6.669.0699 10.002.05401 3.219-.01509 6.436-.08497 9.65-.15565 3.568-.07703 7.121.0802 10.675.08735 6.901.01112 13.788.13659 20.678.25968 1.606.0278 3.204.14216 4.81.16599 3.21.04685 6.425.06034 9.637.08496 1.952.01429 3.908-.00238 5.857.04129 2.866.06512 5.723.20967 8.588.25335 5.278.08339 10.562.17392 15.843.15803 5.976-.01826 11.967-.05401 17.92-.26843 3.687-.13262 7.343-.02621 11.011-.06433 4.098-.04367 37.918.38279 42.984.46856 1.95.03415 3.905.06987 5.856.04684 4.245-.05082 8.486-.13579 12.728-.21282 2.282-.04209 4.585.00317 6.842-.06354 6.641-.19615 13.256-.58766 19.93-.58845 2.183 0 4.369.01111 6.553.01429 3.665.00556 7.341-.17948 10.993.13977.551.04923 1.144.00556 1.715 0 2.984-.027 5.967-.07862 8.949-.08021 6.435-.00318 12.855-.14136 19.272-.33831 1.031-.03256 2.063-.09846 3.093-.08973 9.664.08339 19.325.17789 28.986.27159 3.22.03018 6.437.05798 9.653.10245 4.147.05639 8.267-.14611 12.395-.20964 6.892-.10721 13.794-.09452 20.69-.1104 2.746-.00715 5.522-.14851 8.198.3113.514.08815 1.145.08021 1.71.06035 2.972-.10562 5.978.16282 8.93-.18502.541-.06432 1.14-.03099 1.716-.03575 4.472-.0413 8.941-.09212 13.413-.11753 3.216-.01827 6.433-.01112 9.652 0 3.333.01112 6.669.0699 10.004.05401 3.216-.01509 6.433-.08497 9.648-.15565 3.567-.07703 7.12.0802 10.673.08735 6.903.01112 13.788.13659 20.679.25968 1.607.0278 3.204.14216 4.811.16599 3.209.04685 6.422.06034 9.636.08496 1.952.01429 3.908-.00238 5.857.04129 2.867.06512 5.723.20967 8.589.25335 5.279.08339 10.562.17392 15.842.15803 5.977-.01826 11.966-.05401 17.92-.26843 3.686-.13262 7.344-.02621 11.012-.06433 4.361-.04685 4.357.4144 8.722.39772 1.469-.00556 6.66.35737 8.16.35737-.034-1.4899 0 0 0-1.14469" fill="#495057" fill-rule="evenodd"/></svg>