<svg width="6" height="479" viewBox="0 0 6 479" fill="none" xmlns="http://www.w3.org/2000/svg">
<path fill-rule="evenodd" clip-rule="evenodd" d="M2.53691 761.66C2.59158 760.308 3.15425 758.4 3.13691 757.144C3.10091 754.503 3.61133 751.858 3.606 749.215C3.582 740.239 3.58864 731.267 3.61264 722.294C3.64064 711.94 3.65666 701.587 3.76332 691.234C3.82199 685.482 4.08999 679.734 4.19399 673.982C4.28332 669.036 4.24598 664.086 4.31798 659.14C4.40198 653.388 4.55132 647.64 4.65799 641.891C4.76599 636.039 4.86198 630.194 4.85265 624.338C4.83132 612.611 5.27399 600.891 4.85799 589.159C4.70866 584.911 5.00999 580.634 4.81932 576.391C4.52465 569.828 4.61933 563.283 4.766 556.724C4.842 553.283 4.64866 549.828 4.55666 546.383C4.46732 543.051 4.29533 539.719 4.26333 536.387C4.23533 533.283 4.40198 530.175 4.37664 527.071C4.33265 521.666 4.12468 516.259 4.14068 510.853C4.16201 503.493 4.30601 496.13 4.44068 488.771C4.52334 484.286 4.82865 479.802 4.77932 475.321C4.69398 467.617 4.41001 459.911 4.20201 452.21C4.18734 451.635 4.12466 451.063 4.09266 450.489C3.546 440.73 3.37001 430.965 3.67535 421.185C3.70735 420.153 3.67534 419.114 3.63134 418.082C3.47 414.298 3.28066 410.517 3.12466 406.73C3.002 403.746 2.83533 400.761 2.82333 397.774C2.80333 392.749 3.61135 372.929 3.60601 370.286C3.58201 361.311 3.58866 352.338 3.61266 343.366C3.64066 333.011 3.65667 322.659 3.76334 312.306C3.82201 306.554 4.09001 300.806 4.19401 295.054C4.28334 290.109 4.246 285.158 4.318 280.213C4.402 274.461 4.55134 268.712 4.658 262.963C4.766 257.111 4.862 251.266 4.85267 245.408C4.83133 233.682 5.27401 221.962 4.85801 210.231C4.70867 205.982 5.01 201.704 4.81934 197.463C4.52467 190.899 4.61935 184.355 4.76602 177.796C4.84202 174.355 4.64867 170.9 4.55667 167.455C4.46734 164.122 4.29535 160.79 4.26335 157.458C4.23535 154.354 4.40199 151.248 4.37666 148.144C4.33266 142.736 4.12469 137.331 4.14069 131.924C4.16203 124.563 4.30603 117.203 4.44069 109.843C4.52336 105.358 4.82867 100.874 4.77933 96.3925C4.694 88.6872 4.41002 80.9832 4.20202 73.2818C4.18736 72.7072 4.12468 72.1352 4.09268 71.5605C3.54601 61.8032 3.37003 52.0352 3.67536 42.2566C3.70736 41.2246 3.67535 40.1859 3.63135 39.1525C3.47002 35.3699 3.28068 31.5885 3.12468 27.8032C3.00201 24.8179 2.83535 21.8325 2.82335 18.8445C2.79935 12.7472 2.86734 6.64985 2.88735 0.54985C2.89001 -0.000816278 2.59828 -0.148536 2.53694 -0.935203C1.53694 -1.03853 1.63186 -0.999909 0.0369441 -0.945817C-0.0723892 -0.0751504 0.151347 1.21518 0.122013 2.00052C0.0580132 3.60718 0.0446993 5.21652 0.0420326 6.82452C0.0406991 9.46719 -0.085969 12.1298 0.107364 14.7498C0.479364 19.7965 0.662008 24.8379 0.518008 29.9032C0.460675 31.8552 0.400695 33.8099 0.439362 35.7606C0.524695 40.0059 0.667352 44.2486 0.796686 48.4886C0.867352 50.7712 0.791359 53.0726 0.903358 55.3312C1.23269 61.9726 1.89001 68.5872 1.89135 75.2592C1.89135 77.4445 1.87269 79.6298 1.86735 81.8138C1.85802 85.4792 2.16869 89.1551 1.63269 92.8071C1.55002 93.3578 1.62335 93.9498 1.63269 94.5231C1.67802 97.5058 1.76469 100.488 1.76735 103.471C1.77269 109.904 2.00469 116.326 2.33535 122.743C2.39002 123.772 2.50067 124.807 2.48601 125.836C2.346 135.499 2.18735 145.16 2.03001 154.822C1.97935 158.04 1.93268 161.259 1.85801 164.475C1.76334 168.62 2.10333 172.74 2.20999 176.87C2.38999 183.763 2.36868 190.663 2.39534 197.56C2.40734 200.306 2.64469 203.082 1.87269 205.758C1.72469 206.272 1.73802 206.902 1.77135 207.468C1.94869 210.439 1.498 213.446 2.082 216.396C2.19 216.939 2.13402 217.539 2.14202 218.112C2.21136 222.586 2.29669 227.056 2.33935 231.527C2.37002 234.743 2.35802 237.96 2.33935 241.178C2.32069 244.512 2.222 247.847 2.24866 251.18C2.274 254.399 2.39132 257.616 2.50999 260.83C2.63932 264.398 2.37534 267.951 2.36334 271.505C2.34468 278.406 2.13401 285.293 1.92734 292.183C1.88067 293.789 1.68866 295.387 1.64866 296.993C1.56999 300.203 1.54735 303.418 1.50602 306.63C1.48202 308.582 1.51001 310.538 1.43668 312.487C1.32735 315.353 1.08466 318.21 1.01132 321.075C0.871322 326.353 0.719323 331.637 0.745989 336.918C0.776656 342.894 0.836672 348.885 1.19667 354.838C1.41934 358.525 1.24068 362.181 1.30468 365.849C1.37801 369.947 0.661992 403.767 0.517992 408.833C0.460658 410.783 0.400679 412.738 0.439346 414.689C0.524679 418.934 0.667336 423.175 0.796669 427.417C0.867336 429.699 0.791342 432.002 0.903342 434.259C1.23267 440.9 1.89 447.515 1.89133 454.189C1.89133 456.373 1.87267 458.558 1.86734 460.742C1.858 464.407 2.16867 468.083 1.63267 471.735C1.55 472.286 1.62334 472.879 1.63267 473.45C1.678 476.434 1.76467 479.417 1.76734 482.399C1.77267 488.834 2.00467 495.254 2.33534 501.671C2.39 502.702 2.50066 503.734 2.48599 504.764C2.34599 514.428 2.18733 524.089 2.03 533.75C1.97933 536.97 1.93266 540.187 1.85799 543.403C1.76333 547.55 2.10331 551.67 2.20998 555.798C2.38998 562.69 2.36866 569.592 2.39533 576.488C2.40733 579.234 2.64467 582.01 1.87267 584.686C1.72467 585.2 1.738 585.831 1.77134 586.396C1.94867 589.368 1.49798 592.374 2.08198 595.326C2.18998 595.867 2.13401 596.466 2.14201 597.042C2.21134 601.514 2.29667 605.983 2.33934 610.455C2.37 613.671 2.358 616.888 2.33934 620.107C2.32067 623.44 2.22198 626.776 2.24865 630.111C2.27398 633.327 2.39131 636.544 2.50997 639.759C2.63931 643.326 2.37533 646.879 2.36333 650.432C2.34466 657.335 2.13399 664.22 1.92732 671.111C1.88066 672.718 1.68864 674.315 1.64864 675.922C1.56998 679.131 1.54733 682.344 1.506 685.558C1.482 687.51 1.51 689.466 1.43666 691.415C1.32733 694.282 1.08464 697.138 1.01131 700.004C0.871305 705.283 0.719306 710.566 0.745973 715.846C0.776639 721.823 0.836656 727.812 1.19666 733.766C1.41932 737.452 1.24066 741.11 1.30466 744.778C1.38333 749.139 0.608915 749.135 0.636915 753.5C0.646248 754.969 0.0369083 760.16 0.0369082 761.66C2.53838 761.626 0.0369082 761.66 1.9588 761.66" fill="#495057"/>
</svg>
