<svg width="763" height="6" viewBox="0 0 763 6" fill="none" xmlns="http://www.w3.org/2000/svg">
<path fill-rule="evenodd" clip-rule="evenodd" d="M762.66 3.10001C761.308 3.04534 759.4 2.48267 758.144 2.5C755.503 2.536 752.858 2.02558 750.215 2.03092C741.239 2.05492 732.267 2.04828 723.294 2.02428C712.94 1.99628 702.587 1.98026 692.234 1.87359C686.482 1.81493 680.734 1.54693 674.982 1.44293C670.036 1.3536 665.086 1.39094 660.14 1.31894C654.388 1.23494 648.64 1.0856 642.891 0.978932C637.039 0.870932 631.194 0.774937 625.338 0.784271C613.611 0.805604 601.891 0.362932 590.159 0.778932C585.911 0.928265 581.634 0.626937 577.391 0.817604C570.828 1.11227 564.283 1.01759 557.724 0.870924C554.283 0.794924 550.828 0.988267 547.383 1.08027C544.051 1.1696 540.719 1.34159 537.387 1.37359C534.283 1.40159 531.175 1.23495 528.071 1.26028C522.666 1.30428 517.259 1.51225 511.853 1.49625C504.493 1.47492 497.13 1.33092 489.771 1.19625C485.286 1.11358 480.802 0.808277 476.321 0.85761C468.617 0.942944 460.911 1.22692 453.21 1.43492C452.635 1.44959 452.063 1.51226 451.489 1.54426C441.73 2.09093 431.965 2.26691 422.185 1.96158C421.153 1.92958 420.114 1.96159 419.082 2.00559C415.298 2.16693 411.517 2.35627 407.73 2.51227C404.746 2.63493 401.761 2.8016 398.774 2.8136C393.749 2.8336 373.929 2.02558 371.286 2.03092C362.311 2.05492 353.338 2.04828 344.366 2.02428C334.011 1.99628 323.659 1.98026 313.306 1.87359C307.554 1.81493 301.806 1.54693 296.054 1.44293C291.109 1.3536 286.158 1.39094 281.213 1.31894C275.461 1.23494 269.712 1.0856 263.963 0.978932C258.111 0.870932 252.266 0.774937 246.408 0.784271C234.682 0.805604 222.962 0.362932 211.231 0.778932C206.982 0.928265 202.704 0.626937 198.463 0.817604C191.899 1.11227 185.355 1.01759 178.796 0.870924C175.355 0.794924 171.9 0.988267 168.455 1.08027C165.122 1.1696 161.79 1.34159 158.458 1.37359C155.354 1.40159 152.248 1.23495 149.144 1.26028C143.736 1.30428 138.331 1.51225 132.924 1.49625C125.563 1.47492 118.203 1.33092 110.843 1.19625C106.358 1.11358 101.874 0.808277 97.3925 0.85761C89.6871 0.942944 81.9832 1.22692 74.2818 1.43492C73.7072 1.44959 73.1352 1.51226 72.5605 1.54426C62.8032 2.09093 53.0352 2.26691 43.2566 1.96158C42.2246 1.92958 41.1859 1.96159 40.1525 2.00559C36.3699 2.16693 32.5885 2.35627 28.8032 2.51227C25.8179 2.63493 22.8325 2.8016 19.8445 2.8136C13.7472 2.8376 7.64985 2.7696 1.54985 2.7496C0.999184 2.74694 0.851464 3.03867 0.0647973 3.1C-0.0385332 4.1 9.08176e-05 4.00509 0.054183 5.6C0.92485 5.70934 2.21518 5.4856 3.00052 5.51493C4.60718 5.57893 6.21652 5.59225 7.82452 5.59491C10.4672 5.59625 13.1298 5.72292 15.7498 5.52958C20.7965 5.15758 25.8379 4.97494 30.9032 5.11894C32.8552 5.17627 34.8099 5.23625 36.7606 5.19758C41.0059 5.11225 45.2486 4.96959 49.4886 4.84026C51.7712 4.76959 54.0726 4.84559 56.3312 4.73359C62.9726 4.40425 69.5872 3.74693 76.2592 3.7456C78.4445 3.7456 80.6298 3.76426 82.8138 3.76959C86.4792 3.77892 90.1551 3.46826 93.8071 4.00426C94.3578 4.08692 94.9498 4.01359 95.5231 4.00426C98.5058 3.95892 101.488 3.87226 104.471 3.86959C110.904 3.86426 117.326 3.63225 123.743 3.30159C124.772 3.24692 125.807 3.13627 126.836 3.15094C136.499 3.29094 146.16 3.44959 155.822 3.60693C159.04 3.65759 162.259 3.70427 165.475 3.77893C169.62 3.8736 173.74 3.53361 177.87 3.42695C184.763 3.24695 191.663 3.26826 198.56 3.24159C201.306 3.22959 204.082 2.99225 206.758 3.76425C207.272 3.91225 207.902 3.89892 208.468 3.86559C211.439 3.68825 214.446 4.13894 217.396 3.55494C217.939 3.44694 218.539 3.50291 219.112 3.49491C223.586 3.42558 228.056 3.34025 232.527 3.29758C235.743 3.26692 238.96 3.27892 242.178 3.29758C245.512 3.31625 248.847 3.41494 252.18 3.38827C255.399 3.36294 258.616 3.24561 261.83 3.12695C265.398 2.99761 268.951 3.26159 272.505 3.27359C279.406 3.29226 286.293 3.50293 293.183 3.7096C294.789 3.75626 296.387 3.94827 297.993 3.98827C301.203 4.06694 304.418 4.08958 307.63 4.13092C309.582 4.15492 311.538 4.12692 313.487 4.20025C316.353 4.30959 319.21 4.55228 322.075 4.62561C327.353 4.76561 332.637 4.91761 337.918 4.89094C343.894 4.86028 349.885 4.80026 355.838 4.44026C359.525 4.21759 363.181 4.39625 366.849 4.33225C370.947 4.25892 404.767 4.97494 409.833 5.11894C411.783 5.17627 413.738 5.23625 415.689 5.19758C419.934 5.11225 424.175 4.96959 428.417 4.84026C430.699 4.76959 433.002 4.84559 435.259 4.73359C441.9 4.40425 448.515 3.74693 455.189 3.7456C457.373 3.7456 459.558 3.76426 461.742 3.76959C465.407 3.77892 469.083 3.46826 472.735 4.00426C473.286 4.08692 473.879 4.01359 474.45 4.00426C477.434 3.95892 480.417 3.87226 483.399 3.86959C489.834 3.86426 496.254 3.63225 502.671 3.30159C503.702 3.24692 504.734 3.13627 505.764 3.15094C515.428 3.29094 525.089 3.44959 534.75 3.60693C537.97 3.65759 541.187 3.70427 544.403 3.77893C548.55 3.8736 552.67 3.53361 556.798 3.42695C563.69 3.24695 570.592 3.26826 577.488 3.24159C580.234 3.22959 583.01 2.99225 585.686 3.76425C586.2 3.91225 586.831 3.89892 587.396 3.86559C590.368 3.68825 593.374 4.13894 596.326 3.55494C596.867 3.44694 597.466 3.50291 598.042 3.49491C602.514 3.42558 606.983 3.34025 611.455 3.29758C614.671 3.26692 617.888 3.27892 621.107 3.29758C624.44 3.31625 627.776 3.41494 631.111 3.38827C634.327 3.36294 637.544 3.24561 640.759 3.12695C644.326 2.99761 647.879 3.26159 651.432 3.27359C658.335 3.29226 665.22 3.50293 672.111 3.7096C673.718 3.75626 675.315 3.94827 676.922 3.98827C680.131 4.06694 683.344 4.08958 686.558 4.13092C688.51 4.15492 690.466 4.12692 692.415 4.20025C695.282 4.30959 698.138 4.55228 701.004 4.62561C706.283 4.76561 711.566 4.91761 716.846 4.89094C722.823 4.86028 728.812 4.80026 734.766 4.44026C738.452 4.21759 742.11 4.39625 745.778 4.33225C750.139 4.25359 750.135 5.028 754.5 5C755.969 4.99067 761.16 5.60001 762.66 5.60001C762.626 3.09853 762.66 5.60001 762.66 3.67812" fill="#495057"/>
</svg>
