<svg fill="none" height="763" viewBox="0 0 3 763" width="3" xmlns="http://www.w3.org/2000/svg"><path clip-rule="evenodd" d="m1.48902.00002918c-.03256 1.35202082-.3677 3.26009082-.35737 4.51608082.02144 2.64134-.282567 5.28665-.279391 7.92929.014295 8.976.01034 17.9481-.003955 26.9214-.016677 10.3533-.026217 20.7067-.089748 31.06-.034942 5.752-.194564 11.4999-.256507 17.2519-.053207 4.9453-.030966 9.8961-.073849 14.8413-.050031 5.752-.138979 11.5-.202511 17.249-.064325 5.852-.1215 11.698-.115941 17.554.012706 11.726-.250952 23.446-.00318 35.178.088944 4.248-.0905293 8.526.023033 12.768.175506 6.563.119114 13.108.031758 19.667-.045266 3.441.06989 6.896.124686 10.341.053208 3.332.155648 6.664.174708 9.996.016677 3.104-.08258 6.212-.067491 9.316.026207 5.406.150075 10.812.140546 16.219-.012707 7.36-.098474 14.723-.178683 22.081-.049236 4.486-.231079 8.97-.201696 13.451.050826 7.704.219965 15.409.343851 23.111.008736.574.046066 1.146.065125 1.721.325599 9.759.430416 19.524.248558 29.304-.01906 1.032.000006 2.071.026212 3.103.096092 3.784.208865 7.565.301775 11.352.07306 2.984.17233 5.969.17948 8.956.01191 5.025-.469347 24.845-.466171 27.488.014295 8.974.01034 17.948-.003955 26.92-.016677 10.354-.026217 20.706-.089748 31.06-.034942 5.752-.194564 11.5-.256507 17.252-.053207 4.945-.030966 9.896-.073849 14.841-.050031 5.752-.138979 11.5-.202511 17.249-.064325 5.852-.1215 11.698-.115941 17.555.012706 11.727-.250952 23.447-.00318 35.177.088944 4.25-.0905293 8.527.023033 12.768.175506 6.564.119114 13.108.031758 19.667-.045266 3.441.06989 6.896.124686 10.341.053208 3.334.155648 6.666.174708 9.998.016677 3.104-.08258 6.209-.067491 9.313.026207 5.408.150075 10.813.140546 16.22-.012707 7.361-.098474 14.721-.178683 22.081-.049236 4.486-.231079 8.97-.201696 13.451.050826 7.705.219965 15.409.343851 23.111.008736.574.046066 1.146.065125 1.721.325599 9.757.430416 19.525.248558 29.304-.01906 1.032.000006 2.071.026212 3.104.096092 3.783.208865 7.564.301775 11.349.07306 2.986.17233 5.971.17948 8.959.0143 6.097-.0262 12.195-.03812 18.295-.00159.55.17217.698.2087 1.485.59561.103.53908.064 1.48902.01.06512-.87-.06814-2.161-.05067-2.946.03812-1.607.04605-3.216.04764-4.824.0008-2.643.07624-5.305-.03891-7.925-.22157-5.047-.33035-10.088-.24458-15.154.03414-1.952.06987-3.906.04684-5.857-.05083-4.245-.13579-8.488-.21283-12.728-.04209-2.283.00318-4.584-.06353-6.843-.19616-6.641-.58766-13.256-.58845-19.928 0-2.185.01111-4.37.01428-6.554.00556-3.666-.17947-7.342.13977-10.994.04924-.55 0-1.716 0-1.716s-.07862-5.965-.0802-8.948c-.00318-6.433-.14136-12.854-.33831-19.272-.03256-1.029-.09846-2.064-.08973-3.093.08339-9.663.17788-19.324.27159-28.985.03018-3.219.05798-6.438.10245-9.654.05638-4.145-.14611-8.265-.20965-12.394-.10721-6.894-.09451-13.794-.11039-20.691-.00715-2.745-.14851-5.521.31129-8.197.08815-.515.08021-1.144.06036-1.711-.10562-2.971.16281-5.977-.18502-8.928-.06433-.543-.03099-1.143-.03575-1.716-.0413-4.473-.09212-8.944-.11753-13.415-.01827-3.216-.01112-6.433 0-9.65.01111-3.335.06989-6.67.05401-10.003-.01509-3.219-.08497-6.436-.15565-9.649-.07703-3.568.0802-7.122.08735-10.675.01111-6.901.13659-13.788.25968-20.679.0278-1.605.14216-3.204.16598-4.809.04686-3.211.06035-6.425.08496-9.637.0143-1.952-.00238-3.908.0413-5.858.06512-2.865.20967-5.722.25335-8.588.08338-5.277.17391-10.561.15803-15.842-.01826-5.976-.05401-11.967-.26843-17.92-.13262-3.687-.02621-7.343-.06433-11.011-.04368-4.099.38279-37.919.46856-42.984.03414-1.951.06987-3.905.04684-5.856-.05083-4.245-.13579-8.487-.21283-12.728-.04209-2.283.00318-4.585-.06353-6.843-.19616-6.641-.58766-13.256-.58845-19.929 0-2.184.01111-4.369.01428-6.553.00556-3.666-.17947-7.342.13977-10.994.04924-.55.00556-1.144 0-1.714-.027-2.984-.07862-5.967-.0802-8.95-.00318-6.434-.14136-12.854-.33831-19.272-.03256-1.03-.09846-2.062-.08973-3.093.08339-9.664.17788-19.324.27159-28.985.03018-3.22.05798-6.438.10245-9.654.05638-4.146-.14611-8.266-.20965-12.394-.10721-6.892-.09451-13.795-.11039-20.691-.00715-2.745-.14851-5.521.31129-8.197.08815-.515.08021-1.146.06036-1.711-.10562-2.972.16281-5.977-.18502-8.929-.06433-.542-.03099-1.14-.03575-1.716-.0413-4.472-.09212-8.942-.11753-13.414-.01827-3.216-.01112-6.433 0-9.652.01111-3.333.06989-6.669.05401-10.004-.01509-3.216-.08497-6.433-.15565-9.648-.07703-3.566.0802-7.12.08735-10.673.01111-6.903.13659-13.7879.25968-20.6786.0278-1.6066.14216-3.204.16598-4.8106.04686-3.2093.06035-6.4227.08496-9.636.0143-1.9521-.00238-3.908.0413-5.8574.06512-2.8667.20967-5.7227.25335-8.5893.08338-5.2787.17391-10.5613.15803-15.8414-.01826-5.9773-.05401-11.9666-.26843-17.9199-.13262-3.6867-.02621-7.3441-.06433-11.012-.04685-4.3614.41439-4.3571.39772-8.72242-.00556-1.46934.35736-6.66035.35736-8.16035082-1.48989.03398442 0 0-1.14469 0" fill="#495057" fill-rule="evenodd"/></svg>