<svg width="758" height="8" viewBox="0 0 758 8" fill="none" xmlns="http://www.w3.org/2000/svg">
<g clip-path="url(#clip0)">
<path fill-rule="evenodd" clip-rule="evenodd" d="M85.7565 3.05781C85.7792 5.36714 83.0312 7.52848 80.8938 6.96181C80.4952 6.85648 80.1245 6.63381 79.7418 6.45914C77.7845 5.57781 77.1752 4.39115 78.5965 2.13382C79.7899 0.235153 82.1712 -0.400854 84.1552 0.593813C85.1712 1.10448 85.6338 2.04981 85.7565 3.05781Z" fill="#495057"/>
<path fill-rule="evenodd" clip-rule="evenodd" d="M236.71 3.63109C236.662 2.42976 237.139 1.55242 238.197 1.00575C238.481 0.859085 238.751 0.685753 239.043 0.557753C241.271 -0.428913 242.983 0.33642 243.654 2.72442C243.809 3.27375 243.715 4.01643 243.465 4.53643C242.638 6.24976 241.009 6.8151 239.278 7.03643C238.837 7.09376 238.242 6.77109 237.875 6.44576C237.05 5.71376 236.601 4.75509 236.71 3.63109Z" fill="#495057"/>
<path fill-rule="evenodd" clip-rule="evenodd" d="M164.241 3.60979C164.158 3.97645 164.105 4.51379 163.917 4.99779C163.307 6.57379 161.619 7.47912 160.099 7.09379C158.59 6.70845 157.431 4.68045 157.845 3.03912C158.202 1.61245 159.17 0.653784 160.49 0.0911178C160.838 -0.0568822 161.335 -0.00488287 161.718 0.107117C163.042 0.50045 164.194 2.07779 164.241 3.60979" fill="#495057"/>
<path fill-rule="evenodd" clip-rule="evenodd" d="M283.667 3.50315C283.633 3.67781 283.617 4.00048 283.503 4.28715C282.715 6.27648 279.344 7.24315 277.618 5.98448C275.306 4.30048 275.437 2.50047 277.941 1.17514C279.361 0.421803 280.789 0.51115 282.207 1.08848C283.065 1.43782 283.626 2.40448 283.667 3.50315Z" fill="#495057"/>
<path fill-rule="evenodd" clip-rule="evenodd" d="M197.601 2.71116C198.051 1.90716 198.931 1.33117 199.739 0.888499C201.045 0.172499 202.241 0.519152 203.151 1.64048C204.673 3.51915 204.27 5.18049 202.142 6.31249C200.174 7.35916 195.717 6.06849 197.601 2.71116Z" fill="#495057"/>
<path fill-rule="evenodd" clip-rule="evenodd" d="M121.014 6.82579C118.559 6.77112 117.385 4.99245 118.318 2.74045C118.982 1.13779 120.281 0.224465 121.685 0.369798C123.002 0.508465 124.417 1.73246 124.737 3.21112C124.857 3.76846 124.769 4.51912 124.473 4.98978C123.701 6.21912 122.509 6.85912 121.014 6.82579" fill="#495057"/>
<path fill-rule="evenodd" clip-rule="evenodd" d="M137.934 3.36984C137.969 4.91117 135.989 6.87516 134.367 6.90716C132.854 6.93783 131.229 5.3365 131.258 3.8445C131.29 2.13116 133.373 0.221829 135.153 0.276495C136.386 0.312495 137.903 2.00051 137.934 3.36984Z" fill="#495057"/>
<path fill-rule="evenodd" clip-rule="evenodd" d="M171.789 6.13779C170.713 5.56313 170.395 4.14312 171.002 3.06579C171.593 2.01379 172.487 1.25244 173.586 0.773778C174.915 0.195111 176.413 0.883112 177.311 2.42445C178.019 3.63778 177.787 4.90712 176.523 5.76579C175.758 6.28712 173.686 7.15646 171.789 6.13779Z" fill="#495057"/>
<path fill-rule="evenodd" clip-rule="evenodd" d="M58.6378 3.67512C58.6712 5.13378 57.1538 6.79246 55.6805 6.90446C53.8512 7.04179 52.1672 5.68712 52.1285 4.04712C52.0912 2.44845 53.9485 0.300458 55.3952 0.268458C56.7658 0.240458 58.6018 2.16978 58.6378 3.67512" fill="#495057"/>
<path fill-rule="evenodd" clip-rule="evenodd" d="M252.744 6.89642C252.34 6.87242 251.909 6.69775 251.561 6.48175C249.918 5.44842 249.645 3.39109 250.898 1.75242C252.162 0.101756 254.231 -0.242242 255.634 1.07109C256.551 1.88042 258.524 7.25508 252.744 6.89642" fill="#495057"/>
<path fill-rule="evenodd" clip-rule="evenodd" d="M13.9165 1.56852C14.8325 -0.0541477 16.2152 -0.195478 17.5992 1.07119C19.1392 2.47652 19.3912 4.23784 18.2432 5.59117C17.0405 7.00851 15.0632 7.40718 13.6739 6.39651C11.3979 4.85251 13.3525 2.56852 13.9165 1.56852" fill="#495057"/>
<path fill-rule="evenodd" clip-rule="evenodd" d="M45.4032 3.61514C45.3605 5.1978 43.5872 6.92447 42.0605 6.86714C40.3912 6.80714 38.8432 5.30447 38.9645 3.8618C39.1152 2.05247 40.9525 0.185808 42.4485 0.317808C43.8818 0.448475 45.4418 2.18981 45.4032 3.61514" fill="#495057"/>
<path fill-rule="evenodd" clip-rule="evenodd" d="M230.255 3.17785C230.323 4.86985 229.458 5.93784 227.489 6.59118C226.318 6.97918 225.217 6.60185 224.414 5.53652C223.481 4.29785 223.551 2.91386 224.611 1.77119C225.285 1.04719 226.082 0.576519 227.095 0.467185C228.953 0.263185 230.181 1.30051 230.255 3.17785" fill="#495057"/>
<path fill-rule="evenodd" clip-rule="evenodd" d="M95.1258 6.89378C93.8885 6.92712 92.1512 5.30445 92.1032 4.07645C92.0298 2.18311 93.8165 0.249778 95.6645 0.289778C96.0618 0.297778 96.5565 0.451121 96.8325 0.716454C97.9272 1.77645 97.9298 3.20046 97.8458 4.57113C97.7832 5.59913 96.5712 6.63378 95.4432 6.85644C95.3392 6.87511 95.2325 6.88045 95.1258 6.89378" fill="#495057"/>
<path fill-rule="evenodd" clip-rule="evenodd" d="M184.218 3.80986C184.207 1.93786 185.66 0.356531 187.314 0.445864C188.818 0.525864 190.573 2.36987 190.59 3.88854C190.606 5.34187 188.702 6.81254 186.903 6.73787C185.186 6.66187 184.23 5.62319 184.218 3.80986" fill="#495057"/>
<path fill-rule="evenodd" clip-rule="evenodd" d="M108.338 6.83381C106.801 6.86448 105.258 5.21113 105.185 3.45646C105.122 1.98713 106.45 0.391141 107.769 0.349808C109.289 0.297808 111.287 2.37247 111.198 3.90713C111.117 5.32313 109.667 6.80448 108.338 6.83381" fill="#495057"/>
<path fill-rule="evenodd" clip-rule="evenodd" d="M266.031 6.77384C264.269 6.71917 263.129 5.16718 263.595 3.46184C264.023 1.90184 265.719 0.519178 267.338 0.411178C268.327 0.344511 269.322 1.16451 269.617 2.28984C270.237 4.65384 268.481 6.84984 266.031 6.77384" fill="#495057"/>
<path fill-rule="evenodd" clip-rule="evenodd" d="M214.129 0.680516C215.726 0.643183 216.927 1.78719 216.982 3.40185C217.038 5.02852 215.582 6.37785 213.641 6.49518C212.081 6.59118 210.699 5.40185 210.634 3.90985C210.555 2.06851 211.999 0.732516 214.129 0.680516Z" fill="#495057"/>
<path fill-rule="evenodd" clip-rule="evenodd" d="M150.866 3.52576C150.859 5.32576 149.293 6.6751 147.226 6.66177C145.882 6.65377 144.757 5.59911 144.73 4.31777C144.693 2.43777 146.271 0.500441 147.829 0.519108C149.469 0.539108 150.873 1.9271 150.866 3.52576Z" fill="#495057"/>
<path fill-rule="evenodd" clip-rule="evenodd" d="M291.943 6.65386C290.576 6.63519 289.65 5.65652 289.963 4.38319C290.187 3.46852 290.546 2.54186 291.047 1.75252C291.743 0.659191 292.883 0.372519 294.138 0.596519C295.245 0.795185 295.689 1.63518 295.993 2.57652C296.361 3.71385 296.011 4.67252 295.159 5.46185C294.313 6.24718 293.147 6.66986 291.943 6.65386Z" fill="#495057"/>
<path fill-rule="evenodd" clip-rule="evenodd" d="M65.5792 4.39651C65.5512 2.91117 66.6818 1.18051 68.0618 0.667179C69.0512 0.300512 69.9418 0.580504 70.6712 1.2925C71.4845 2.08317 71.8032 3.0605 71.4472 4.17517C70.9792 5.63517 69.2979 6.76585 67.7819 6.66985C66.5992 6.59651 65.6019 5.56584 65.5792 4.39651" fill="#495057"/>
<path fill-rule="evenodd" clip-rule="evenodd" d="M309.009 3.88849C308.897 5.70049 307.79 6.79249 306.22 6.63782C304.586 6.47916 303.325 5.01648 303.402 3.36182C303.473 1.82848 305.154 0.388476 306.643 0.539143C307.646 0.640476 309.319 2.49249 309.009 3.88849" fill="#495057"/>
<path fill-rule="evenodd" clip-rule="evenodd" d="M319.577 6.58046C318.271 6.68046 317.543 5.80446 316.931 4.76046C316.382 3.81779 316.579 2.93513 317.157 2.08847C317.217 2.00313 317.29 1.92446 317.357 1.84179C318.675 0.200455 320.259 0.167123 321.582 1.79246C322.397 2.79512 322.405 3.92446 321.885 5.0658C321.451 6.0138 320.697 6.52046 319.577 6.58046Z" fill="#495057"/>
<path fill-rule="evenodd" clip-rule="evenodd" d="M28.8738 6.56046C27.3632 6.62046 26.0792 5.48981 26.0805 4.10447C26.0832 2.61514 27.5312 0.823135 28.8845 0.633802C30.0645 0.467135 31.7445 2.06046 31.8672 3.4618C32.0045 5.02313 30.5872 6.49246 28.8738 6.56046" fill="#495057"/>
<path fill-rule="evenodd" clip-rule="evenodd" d="M2.37518 6.13385C1.06985 6.17785 -0.0274757 5.26584 0.000524296 4.1565C0.047191 2.33117 1.05251 1.04718 2.43651 1.04718C4.12851 1.04718 5.08852 1.89385 5.14719 3.43518C5.20852 5.09385 4.20452 6.06851 2.37518 6.13385" fill="#495057"/>
<path fill-rule="evenodd" clip-rule="evenodd" d="M415.807 3.05781C415.83 5.36714 413.082 7.52848 410.945 6.96181C410.546 6.85648 410.175 6.63381 409.793 6.45914C407.835 5.57781 407.226 4.39115 408.647 2.13382C409.841 0.235153 412.222 -0.400854 414.206 0.593813C415.222 1.10448 415.685 2.04981 415.807 3.05781" fill="#495057"/>
<path fill-rule="evenodd" clip-rule="evenodd" d="M566.762 3.63109C566.714 2.42976 567.191 1.55242 568.248 1.00575C568.532 0.859085 568.803 0.685753 569.095 0.557753C571.323 -0.428913 573.035 0.33642 573.706 2.72442C573.861 3.27375 573.767 4.01643 573.515 4.53643C572.69 6.24976 571.059 6.8151 569.328 7.03643C568.887 7.09376 568.292 6.77109 567.927 6.44576C567.102 5.71376 566.652 4.75509 566.762 3.63109Z" fill="#495057"/>
<path fill-rule="evenodd" clip-rule="evenodd" d="M494.291 3.60979C494.21 3.97645 494.156 4.51379 493.968 4.99779C493.359 6.57379 491.67 7.47912 490.151 7.09379C488.642 6.70845 487.483 4.68045 487.895 3.03912C488.254 1.61245 489.22 0.653784 490.542 0.0911178C490.888 -0.0568822 491.386 -0.00488287 491.77 0.107117C493.094 0.50045 494.246 2.07779 494.291 3.60979Z" fill="#495057"/>
<path fill-rule="evenodd" clip-rule="evenodd" d="M613.718 3.50315C613.683 3.67781 613.667 4.00048 613.554 4.28715C612.767 6.27648 609.395 7.24315 607.668 5.98448C605.358 4.30048 605.488 2.50047 607.992 1.17514C609.412 0.421803 610.839 0.51115 612.259 1.08848C613.115 1.43782 613.676 2.40448 613.718 3.50315Z" fill="#495057"/>
<path fill-rule="evenodd" clip-rule="evenodd" d="M527.651 2.71116C528.105 1.90716 528.982 1.33117 529.791 0.888499C531.097 0.172499 532.291 0.519152 533.203 1.64048C534.723 3.51915 534.322 5.18049 532.193 6.31249C530.226 7.35916 525.769 6.06849 527.651 2.71116Z" fill="#495057"/>
<path fill-rule="evenodd" clip-rule="evenodd" d="M451.066 6.82579C448.61 6.77112 447.436 4.99245 448.368 2.74045C449.032 1.13779 450.331 0.224465 451.735 0.369798C453.052 0.508465 454.467 1.73246 454.787 3.21112C454.907 3.76846 454.819 4.51912 454.523 4.98978C453.751 6.21912 452.559 6.85912 451.066 6.82579" fill="#495057"/>
<path fill-rule="evenodd" clip-rule="evenodd" d="M467.985 3.36984C468.021 4.91117 466.039 6.87516 464.419 6.90716C462.906 6.93783 461.281 5.3365 461.31 3.8445C461.341 2.13116 463.425 0.221829 465.203 0.276495C466.438 0.312495 467.955 2.00051 467.985 3.36984Z" fill="#495057"/>
<path fill-rule="evenodd" clip-rule="evenodd" d="M501.839 6.13779C500.765 5.56313 500.446 4.14312 501.053 3.06579C501.645 2.01379 502.539 1.25244 503.638 0.773778C504.967 0.195111 506.464 0.883112 507.363 2.42445C508.07 3.63778 507.838 4.90712 506.575 5.76579C505.81 6.28712 503.737 7.15646 501.839 6.13779Z" fill="#495057"/>
<path fill-rule="evenodd" clip-rule="evenodd" d="M388.689 3.67512C388.722 5.13378 387.205 6.79246 385.733 6.90446C383.902 7.04179 382.219 5.68712 382.181 4.04712C382.142 2.44845 384.001 0.300458 385.446 0.268458C386.817 0.240458 388.653 2.16978 388.689 3.67512Z" fill="#495057"/>
<path fill-rule="evenodd" clip-rule="evenodd" d="M582.797 6.89642C582.393 6.87242 581.961 6.69775 581.613 6.48175C579.97 5.44842 579.697 3.39109 580.95 1.75242C582.215 0.101756 584.283 -0.242242 585.686 1.07109C586.605 1.88042 588.577 7.25508 582.797 6.89642" fill="#495057"/>
<path fill-rule="evenodd" clip-rule="evenodd" d="M343.967 1.56852C344.885 -0.0541477 346.267 -0.195478 347.65 1.07119C349.191 2.47652 349.44 4.23784 348.292 5.59117C347.092 7.00851 345.112 7.40718 343.724 6.39651C341.448 4.85251 343.402 2.56852 343.967 1.56852Z" fill="#495057"/>
<path fill-rule="evenodd" clip-rule="evenodd" d="M375.454 3.61514C375.412 5.1978 373.639 6.92447 372.112 6.86714C370.443 6.80714 368.894 5.30447 369.016 3.8618C369.167 2.05247 371.003 0.185808 372.5 0.317808C373.934 0.448475 375.494 2.18981 375.454 3.61514" fill="#495057"/>
<path fill-rule="evenodd" clip-rule="evenodd" d="M560.306 3.17785C560.374 4.86985 559.508 5.93784 557.54 6.59118C556.368 6.97918 555.267 6.60185 554.465 5.53652C553.533 4.29785 553.603 2.91386 554.662 1.77119C555.337 1.04719 556.134 0.576519 557.147 0.467185C559.003 0.263185 560.233 1.30051 560.306 3.17785" fill="#495057"/>
<path fill-rule="evenodd" clip-rule="evenodd" d="M425.178 6.89378C423.941 6.92712 422.202 5.30445 422.155 4.07645C422.082 2.18311 423.868 0.249778 425.718 0.289778C426.112 0.297778 426.607 0.451121 426.884 0.716454C427.978 1.77645 427.98 3.20046 427.896 4.57113C427.834 5.59913 426.623 6.63378 425.495 6.85644C425.391 6.87511 425.285 6.88045 425.178 6.89378Z" fill="#495057"/>
<path fill-rule="evenodd" clip-rule="evenodd" d="M514.271 3.80986C514.258 1.93786 515.711 0.356531 517.365 0.445864C518.87 0.525864 520.624 2.36987 520.64 3.88854C520.659 5.34187 518.753 6.81254 516.955 6.73787C515.237 6.66187 514.28 5.62319 514.271 3.80986" fill="#495057"/>
<path fill-rule="evenodd" clip-rule="evenodd" d="M438.388 6.83381C436.852 6.86448 435.31 5.21113 435.235 3.45646C435.172 1.98713 436.5 0.391141 437.82 0.349808C439.339 0.297808 441.338 2.37247 441.25 3.90713C441.167 5.32313 439.718 6.80448 438.388 6.83381" fill="#495057"/>
<path fill-rule="evenodd" clip-rule="evenodd" d="M596.083 6.77384C594.321 6.71917 593.179 5.16718 593.647 3.46184C594.075 1.90184 595.771 0.519178 597.389 0.411178C598.379 0.344511 599.374 1.16451 599.667 2.28984C600.287 4.65384 598.533 6.84984 596.083 6.77384Z" fill="#495057"/>
<path fill-rule="evenodd" clip-rule="evenodd" d="M544.181 0.680516C545.777 0.643183 546.98 1.78719 547.035 3.40185C547.09 5.02852 545.634 6.37785 543.694 6.49518C542.134 6.59118 540.751 5.40185 540.686 3.90985C540.607 2.06851 542.051 0.732516 544.181 0.680516" fill="#495057"/>
<path fill-rule="evenodd" clip-rule="evenodd" d="M480.916 3.52576C480.91 5.32576 479.343 6.6751 477.276 6.66177C475.932 6.65377 474.807 5.59911 474.78 4.31777C474.743 2.43777 476.322 0.500441 477.879 0.519108C479.519 0.539108 480.923 1.9271 480.916 3.52576" fill="#495057"/>
<path fill-rule="evenodd" clip-rule="evenodd" d="M718.726 3.60979C718.644 3.97645 718.591 4.51379 718.403 4.99779C717.794 6.57379 716.106 7.47912 714.586 7.09379C713.076 6.70845 711.918 4.68045 712.33 3.03912C712.688 1.61245 713.656 0.653784 714.976 0.0911178C715.324 -0.0568822 715.822 -0.00488287 716.204 0.107117C717.528 0.50045 718.68 2.07779 718.726 3.60979Z" fill="#495057"/>
<path fill-rule="evenodd" clip-rule="evenodd" d="M675.499 6.82579C673.046 6.77112 671.871 4.99245 672.803 2.74045C673.467 1.13779 674.767 0.224465 676.17 0.369798C677.488 0.508465 678.902 1.73246 679.222 3.21112C679.342 3.76846 679.254 4.51912 678.958 4.98978C678.186 6.21912 676.995 6.85912 675.499 6.82579" fill="#495057"/>
<path fill-rule="evenodd" clip-rule="evenodd" d="M692.419 3.36984C692.455 4.91117 690.474 6.87516 688.854 6.90716C687.341 6.93783 685.717 5.3365 685.745 3.8445C685.775 2.13116 687.859 0.221829 689.638 0.276495C690.873 0.312495 692.39 2.00051 692.419 3.36984Z" fill="#495057"/>
<path fill-rule="evenodd" clip-rule="evenodd" d="M726.274 6.13779C725.199 5.56313 724.882 4.14312 725.489 3.06579C726.079 2.01379 726.974 1.25244 728.073 0.773778C729.402 0.195111 730.899 0.883112 731.798 2.42445C732.504 3.63778 732.272 4.90712 731.01 5.76579C730.244 6.28712 728.171 7.15646 726.274 6.13779" fill="#495057"/>
<path fill-rule="evenodd" clip-rule="evenodd" d="M738.706 3.80986C738.693 1.93786 740.146 0.356531 741.799 0.445864C743.304 0.525864 745.059 2.36987 745.075 3.88854C745.094 5.34187 743.187 6.81254 741.39 6.73787C739.671 6.66187 738.717 5.62319 738.706 3.80986" fill="#495057"/>
<path fill-rule="evenodd" clip-rule="evenodd" d="M662.824 6.83381C661.287 6.86448 659.744 5.21113 659.67 3.45646C659.607 1.98713 660.936 0.391141 662.255 0.349808C663.774 0.297808 665.772 2.37247 665.684 3.90713C665.603 5.32313 664.154 6.80448 662.824 6.83381" fill="#495057"/>
<path fill-rule="evenodd" clip-rule="evenodd" d="M705.351 3.52576C705.344 5.32576 703.778 6.6751 701.712 6.66177C700.367 6.65377 699.242 5.59911 699.217 4.31777C699.178 2.43777 700.757 0.500441 702.314 0.519108C703.954 0.539108 705.358 1.9271 705.351 3.52576" fill="#495057"/>
<path fill-rule="evenodd" clip-rule="evenodd" d="M621.995 6.65386C620.627 6.63519 619.702 5.65652 620.014 4.38319C620.238 3.46852 620.598 2.54186 621.099 1.75252C621.794 0.659191 622.935 0.372519 624.19 0.596519C625.295 0.795185 625.739 1.63518 626.045 2.57652C626.413 3.71385 626.062 4.67252 625.211 5.46185C624.365 6.24718 623.199 6.66986 621.995 6.65386" fill="#495057"/>
<path fill-rule="evenodd" clip-rule="evenodd" d="M395.631 4.39651C395.603 2.91117 396.733 1.18051 398.113 0.667179C399.103 0.300512 399.994 0.580504 400.722 1.2925C401.537 2.08317 401.855 3.0605 401.498 4.17517C401.031 5.63517 399.348 6.76585 397.832 6.66985C396.651 6.59651 395.654 5.56584 395.631 4.39651" fill="#495057"/>
<path fill-rule="evenodd" clip-rule="evenodd" d="M639.058 3.88849C638.946 5.70049 637.839 6.79249 636.273 6.63782C634.637 6.47916 633.376 5.01648 633.451 3.36182C633.524 1.82848 635.204 0.388476 636.694 0.539143C637.696 0.640476 639.371 2.49249 639.058 3.88849" fill="#495057"/>
<path fill-rule="evenodd" clip-rule="evenodd" d="M757.878 3.88849C757.766 5.70049 756.659 6.79249 755.091 6.63782C753.455 6.47916 752.195 5.01648 752.271 3.36182C752.343 1.82848 754.023 0.388476 755.512 0.539143C756.515 0.640476 758.19 2.49249 757.878 3.88849" fill="#495057"/>
<path fill-rule="evenodd" clip-rule="evenodd" d="M649.627 6.58046C648.323 6.68046 647.595 5.80446 646.983 4.76046C646.434 3.81779 646.631 2.93513 647.208 2.08847C647.268 2.00313 647.34 1.92446 647.407 1.84179C648.726 0.200455 650.311 0.167123 651.632 1.79246C652.448 2.79512 652.456 3.92446 651.936 5.0658C651.503 6.0138 650.748 6.52046 649.627 6.58046" fill="#495057"/>
<path fill-rule="evenodd" clip-rule="evenodd" d="M358.926 6.56046C357.415 6.62046 356.131 5.48981 356.133 4.10447C356.135 2.61514 357.583 0.823135 358.937 0.633802C360.115 0.467135 361.795 2.06046 361.919 3.4618C362.055 5.02313 360.639 6.49246 358.926 6.56046" fill="#495057"/>
<path fill-rule="evenodd" clip-rule="evenodd" d="M332.426 6.13385C331.121 6.17785 330.024 5.26584 330.052 4.1565C330.098 2.33117 331.106 1.04718 332.488 1.04718C334.18 1.04718 335.139 1.89385 335.199 3.43518C335.259 5.09385 334.257 6.06851 332.426 6.13385" fill="#495057"/>
</g>
<defs>
<clipPath id="clip0">
<rect width="757.916" height="7.18226" fill="white"/>
</clipPath>
</defs>
</svg>
