<svg fill="none" height="32" viewBox="0 0 100 32" width="100" xmlns="http://www.w3.org/2000/svg"><g clip-rule="evenodd" fill="#adb5bd" fill-rule="evenodd"><path d="m26.0791.310112c-.0294-.022973-.0905.068099-.1355.201014-.0476.141119-.1204.242854-.1744.242854-.0732 0-.079.020513-.0278.096406.0494.073841.0475.102966-.0074.125939-.0562.023383-.0537.056205.0117.154655.063.09559.0664.13209.0136.15425-.038.01559-.0691.05866-.0691.09558s.0247.048.0549.02462c.0312-.0238.0404.0041.0216.06481-.0182.05866-.0046.10666.0303.10666.0459 0 .0472.03692.004.13702-.0476.10994-.0423.13701.0277.13701.0704 0 .0741.01764.0179.0919-.0716.09476-.2108.00984-.1925-.11774.0046-.03282-.0207-.07343-.0562-.08943-.0426-.01969-.0537.02215-.0327.12184.0176.08369.0092.13538-.0186.11527-.0274-.01969-.0996-.01354-.1604.01436-.0877.03979-.0618.06071.1243.1001.1466.03117.2352.08615.2352.14645 0 .05333.0482.09681.1074.09681.059 0 .1414.06031.1831.13415.0746.13168.3561.31177.4475.28593.0259-.00698.1876.03077.3596.08451.2173.06385.4371.11259.6583.14604.1901.02666.3596.0763.3765.11035.017.03405.0855.06235.1522.06318.0663.00082.2704.09271.4528.20429.1827.11117.374.20306.4253.20388.0515.00082.1089.03282.1278.07015.0188.03774.0061.06851-.0281.06851-.0769 0-.0494.30644.0281.31342.0305.00246.1645.04348.2978.09025.1333.04758.3031.06769.3775.0443.074-.02297.2138-.01149.3105.02544.0966.03692.3145.1005.4842.14194.4661.11281.7145.20716.7145.27075 0 .06645-2.837.02051-3.5395-.05744-.37-.04102-.5111-.02953-.6636.05251-.1064.05744-.2061.10872-.2213.11446-.0154.00533-.1003.04717-.1892.0923-.0888.04554-.2009.06399-.249.04102-.0479-.02338-.784-.05333-1.6358-.06687-.8516-.01353-1.6605-.05538-1.7972-.09271-.1368-.03774-.547-.1042-.9115-.14768-.3645-.0443-.7105-.11158-.7685-.15014-.0583-.03856-.2275-.05579-.3759-.03816-.1488.01806-.2837.00534-.3-.02748-.0164-.03282-.0531-.04184-.0815-.02051-.0281.02174-.0512.00697-.0512-.03282 0-.0402-.0185-.06646-.0417-.05907-.092.02994-.5667-.09436-.5667-.14892 0-.06686-.4179-.17804-.5759-.15342-.058.00943-.1525-.04513-.2096-.12143-.0571-.07589-.1462-.14194-.1984-.14645-.0522-.00411-.2438-.01477-.4265-.02298-.1821-.0082-.4312-.05004-.5528-.09353-.1219-.04389-.3155-.09681-.4303-.11773-.1148-.02133-.1953-.06564-.179-.09846.0516-.10338-.0713-.13045-1.0321-.22727-.0512-.00533-.0886-.03897-.0833-.07466.0055-.03569-.0398-.08286-.1006-.10502-.0878-.03915-.1718-.09218-.25-.15794-.1006-.08491-.3102-.13045-.7469-.16204-.3337-.0242-.6642-.04102-.7346-.03692-.0704.00411-.2043-.04184-.2979-.10173-.0962-.06154-.1845-.08164-.2037-.04595-.0478.08779-.2425.1723-.2.08615.0451-.09025-.0086-.08533-.1558.01354-.2972.19978-1.7043.04799-1.8512-.19937-.0454-.07672-.0504-.12841-.0136-.14358.0315-.01313.0571-.05087.0571-.08451 0-.03323-.0349-.0439-.0772-.02379-.0426.02051-.0938.0041-.1142-.03652-.0534-.10748.2778-.09189.4568.02175.0821.0521.2614.11732.3981.14522.1371.02748.2926.0603.3457.07261.0534.01231.0969-.01805.0969-.06769 0-.06358.0689-.08287.2349-.06687.1818.01764.213.00698.1374-.04758-.054-.03857-.0855-.09518-.0704-.12595.0327-.06563-.2766-.13209-.875-.18747-.3364-.03077-.446-.01846-.483.05415-.0352.06851-.0485.07097-.0494.00862-.0009-.12595-.3333-.10543-.4525.02789-.0555.06236-.1012.08451-.1012.04882 0-.03938-.1793-.04636-.4562-.01805-.2509.02625-.64289.0644-.87097.08492-.2284.02051-.49661.07384-.59661.11773-.09969.04349-.24352.06482-.31913.04677-.07593-.01764-.1534-.00082-.17284.03733-.0213.04307-.00679.04882.03765.01477.04506-.03446.05895-.02872.03704.01559-.04167.08368-.30556.15917-.61759.17722-.18426.01066-.22223.03733-.22716.15999-.00556.13127.03271.1526.35926.19978.20123.02871.42777.04594.5037.03774l.13827-.01477-.14661.09845c-.25462.17148-.50246.24409-.98703.28799-.25864.02338-.63179.09312-.82963.15465-.45463.14153-2.0324.15261-2.10123.01436-.02351-.04743-.07033-.06326-.10802-.03651-.0926.07097-1.1105.09435-1.07562.02543.0321-.06522.02407-.06604-.69938-.09353-.5108-.01928-.72623-.04266-1.49074-.16204-.34876-.05415-.552468-.02297-.751851.11487-.083333.05825-.065432.09107.135803.24819.161728.12717.359878.20142.658638.24818.51019.08.99691.18051 1.34753.27896.20988.05866.25154.09476.22963.19896-.01574.07466-.05864.1124-.10432.09025-.04259-.0201-.07747-.00246-.07747.03938 0 .04185.04321.07631.09661.07672.08271.00082.08487.01066.01388.06768-.05246.04185-.05833.06687-.01543.06728.03704.00082.05309.04759.03519.10461-.02222.07179.03302.13866.18148.2207l.21358.11733-.54012.04102c-.29012.02273-.58068.03436-.8713.03487-.1821-.0041-.33055-.00328-.33055.00164 0 .00452.04938.07959.11049.16656.0608.08697.11049.13701.11049.11158 0-.02544.05618-.00082.12469.05497.06852.05538.30895.13661.53457.17968.22531.04349.50833.12225.62901.17476.13609.05644.27705.08952.41945.09845.30802.0037 1.08364.25352.85956.27691-.05422.00883-.10809.02115-.16142.03692-.05931.01685-.11867.03339-.17808.04964-.12655.03446-.13457.10091-.0179.14686.06419.02543.18148.12061.26111.21209s.2.16614.2679.16614.15185.04225.18673.09435c.05185.07713.00617.10215-.25618.13907-.16183.02244-.32337.04842-.48456.07794-.21729.04349-1.08117.03733-1.14043-.0082-.08025-.06154-.71266-.09025-.71266-.03282 0 .03077.03735.09394.08334.14071.04537.04718.08271.11774.08271.15712s-.01636.05128-.03642.02625c-.02006-.02461-.06975-.01066-.11049.03118-.04105.04225-.07408.04718-.07408.01108s-.03765-.06564-.08333-.06564c-.13271 0-.09629.07343.08642.17353.20525.11281.17593.15999-.15525.24901-.30185.08204-.35925.20921-.1429.31751.22408.112 1.27624.25722 1.87778.25927.2821.00082.5787.02215.65926.04717l.14691.04554-.15741.15999c-.08703.08779-.2.16081-.25123.16204-.13117.00369-.17099.1124-.10062.27526.07408.1723.55525.48121.74846.48121.08148 0 .1287.02953.10926.0685-.01883.03774-.07994.06851-.13581.06851-.09351 0-.19753.17107-.17716.29126.02099.12225-.85648-.01435-.92993-.14481-.05618-.09927-1.46852-.35977-1.6071-.29577l-.13241.0603.12871.08533c.07068.04718.53024.16819 1.02098.26993.89815.18542 1.11698.3163.5284.3163-.18087 0-.34722.0394-.40124.0943-.07716.0788-.18333.0809-.63148.0132-.82407-.1247-1.30246-.2105-1.41481-.25314-.07438-.02831-.09691-.00821-.08333.07544.02037.1215.19135.2638.45987.3828.23087.1021.08735.192-.20802.1304-.12809-.027-.344754-.0705-.481482-.0972l-.249074-.048.207407.2462c.114197.1353.207409.2572.207409.2707s-.154323.0464-.342594.0726c-.446604.0628-.68487526.2174-.6818475.4427.00160187.1189.3596265.2777.6923415.3076.137037.0127.44846.0718.69167.1317s.61666.1231.82962.1399c.2407.0209.48062.0552.71914.103 1.13302.2465 1.38796.3076 1.43703.3421.02994.0213-.0571.0726-.19352.1136-.13734.0415-.24814.1149-.24814.1649 0 .1153.5574.366 1.06327.478.24598.0545.42808.1353.48765.2174.0534.073.23858.1649.4216.2096.41574.1013.40432.1977-.04722.4045-.0966.0443-.16481.1161-.15123.16.03148.0988.28765.2502.42469.2502.05648 0 .08734.0312.06852.0685-.01852.0378-.21914.069-.44568.069-.37284 0-.52253.0697-.34259.1599.16142.0809-.64568.037-1.04445-.0562-.49629-.1165-.76666-.0676-.76666.1379 0 .0951.14475.2194.54321.468.375.2343.52006.3569.46975.3972-.09568.0763-.00123.1546.36975.3064.52346.2145.93889.5735.88426.7651-.03704.1304.16698.2018 1.01018.3528.41883.075.83858.1838.93241.242.09383.0574.29259.1231.44167.1456.41111.0612 1.19753.3077 1.32036.414.05988.0516.18426.0964.27655.0992.09197.0025.21699.0312.27779.0636.0883.0468.0657.0607-.1105.0689-.4713.0218-.72161.0792-.78396.1805-.04259.0694-.10926.0903-.19352.0616-.1108-.0369-.11481-.0328-.03086.0328.0537.0414.14105.0669.19352.0562.05837-.0096.11758.0037.17037.0381.04382.0341.12994.0206.2108-.0328.10617-.0705.15926-.0726.24074-.0094.06636.0513.11728.0562.13827.0139.01852-.0369.17534-.0681.34814-.0697.1732-.0012.3772-.0464.4531-.1001.1657-.1173.2213-.1259.2213-.0345 0 .0378-.0389.0686-.0864.0686-.0473 0-.0726.0274-.0556.0607.0164.0336-.0219.0779-.0858.0984-.0636.0205-.1049.078-.0917.1276.0244.0915.272.1452 1.0383.2248.6923.0722.8849.1108.8849.178 0 .0357-.037.0645-.083.0645s-.0827.0611-.0827.137c0 .1005.037.137.1382.137.159 0 .1861.1058.0392.1534-.0543.0177-.3342.0156-.6222-.0045-.838-.0587-1.1735-.0394-1.3488.0784-.0892.0598-.1777.0964-.1975.0816-.0194-.0152-.025.0595-.0123.1657.0274.2314-.0507.2675-.61825.2872-.33981.0115-.36636.0217-.24815.0976.19445.1247.9071.3036 1.3321.3348.2173.016.4222.0722.496.1362.1574.1362.2518.1382.358.0065.0478-.0595.1812-.1025.3142-.1013.4099.0025 1.9392.1953 2.1469.2708.1938.0697.1997.0812.159.306-.026.1415-.0201.2613.0145.3044.0395.0492.0379.1001-.0053.1645-.1321.1973.0358.2379.8429.2051.6272-.0259.8229-.0119.95.0685.1346.0853.7417.2027 1.1559.2236.0608.0033.2349.0332.387.0668l.2766.0616-.2488.0496c-.137.0275-.5475.0341-.9127.0148-.3869-.0198-.7741-.0284-1.1614-.0259-.2737.0054-.8086-.041-1.1889-.1025-.7524-.1215-1.5283-.2064-1.8623-.2039-.1164.0008-.2275-.0254-.2463-.0583-.0191-.0328-.1126-.0635-.2074-.0685-.0951-.0049-.1728-.0344-.1728-.0656s-.0559-.0369-.1244-.0131c-.0976.0336-.1065.0275-.0414-.0287.0713-.062.0695-.0722-.0139-.0731-.0534-.0008-.0969-.0352-.0969-.0775 0-.0468-.0525-.0336-.1361.0345-.1512.123-.2179.1419-.1719.0496.0167-.0332-.0191-.0767-.0796-.0964-.063-.0205-.1099-.0016-.1099.0439 0 .0459-.0874.0792-.2074.0792-.1318 0-.2028-.03-.1945-.0825.009-.0566-.0509-.0722-.1913-.05-.2303.0369-.4574.196-.4587.3224-.0006.0541-.02.0472-.0543-.0185-.0417-.08-.0537-.0599-.0546.0903-.0009.2469.0901.4578.1981.4578.0463 0 .0689.0308.05.0685-.0185.0378.0108.071.0658.0739.1821.0098.2981.0512.4213.1513.1105.0895.3703.055.3703-.0492 0-.0189-.0336-.0185-.074.0008-.0411.0193-.1093-.0184-.1522-.0837-.0673-.1025-.0673-.1107.0006-.0607.0602.0451.0695.03.0395-.0668-.0234-.0751-.0105-.1481.0321-.1818.1059-.0828.1948-.0673.0988.0177-.0627.0549-.0306.064.1293.0365.1173-.0205.2574-.0017.3136.0414.0765.0595.1204.0583.1821-.0049.0651-.0673.0892-.0599.1234.0381.0238.0673.0392.1448.0343.1731-.0046.0288.0266.0517.0698.0517s.0876.0353.0993.078c.0118.0435.0942.0882.1834.1001.0895.0119.1901.0685.224.1263.034.0575.0818.0821.1065.0542.0247-.0275.0294.0041.0102.0697-.0426.1477.063.1616.1087.0144.029-.094.0447-.0927.1364.0102.0981.1104.104.1096.1049-.0139.0006-.1095.0093-.1141.0543-.0279.08.1534.0686.1866-.0796.2326-.0938.0295-.1321.0861-.1259.1866.0095.16.2021.2794.4244.2634.2068-.0152.3895.073.3895.1883 0 .0738.0549.0956.2074.0821.2228-.0206.5978.0566.7327.1505.067.0464.0617.0587-.0278.0632-.1292.0092-.2582.0215-.387.0369-.4704.055-1.0957.0533-1.3216-.0033-.1547-.039-.2043-.0324-.1769.0234.0241.0476.0093.0632-.0389.0402-.0456-.0217-.1191.041-.1774.1518-.071.1345-.0803.1961-.0328.2158.0448.0184.034.0595-.033.1243-.091.0886-.0852.0939.0661.0615.0913-.0197.1348-.0176.0969.0041-.1401.0821-.063.1666.1521.1666.1396 0 .2213-.0316.2223-.0862.0003-.0628.0129-.0607.0481.0078.03.0583.0605.0669.0824.023.0371-.0743.1074-.0685.2803.0234.0592.0311.1895.059.2895.0615.2293.0057.3037.176.0771.176-.0898 0-.1722.0447-.1901.1025-.0216.0698.0025.103.0741.103.0586 0 .1262.0386.1503.0862.0636.1226.2889.2678.3469.2235.0272-.0205.0648-.0065.084.032.0191.0382.1034.0698.1873.0698.084 0 .288.05.4531.1111.2608.0969.2839.119.1778.1682-.0679.0316-.5294.0534-1.0263.048-.4969-.0053-.9361.0156-.9759.046-.041.0316-.0886.0225-.1099-.0205-.0444-.0891-1.7639-.1567-1.8064-.071-.0152.0299-.0661.0365-.1133.0139-.058-.0274-.0658-.0562-.0235-.0882.034-.0262-.0136-.0475-.1061-.0475-.0926 0-.1679.0291-.1679.0656 0 .0357-.038.0263-.0843-.0213-.0463-.048-.1019-.0649-.1235-.0382-.0219.0267.0223.1071.0979.1785l.1373.1296-.1382-.0328c-.121-.0287-.1244-.025-.0278.032.1595.0943.4219.0841.5756-.0214.1497-.1025.337-.0689.337.0612 0 .0599.1093.0865.3596.0882.2253.0016.3596-.0255.3596-.0726 0-.0415.0308-.0247.0691.0369.0497.0812.1997.1247.5392.1563.2583.0246.6272.0878.8191.1407.192.0533.4284.0997.5253.1034s.301.0488.4528.1001c.2593.0877.2303.0914-.47.0562-.4105-.0206-.784-.0378-.8297-.0386-.0453-.0004-.6179-.0734-1.2716-.1616-.6543-.0886-1.3673-.1703-1.5845-.1818-.2176-.0115-.38399-.0439-.37041-.0722.01419-.0287-.08179-.0517-.21297-.0517-.13086 0-.46203-.0451-.7358-.0996-.46944-.0936-1.57376-.1904-1.42376-.1243.03827.0164.05555.0586.03827.0931-.01728.0344.03858.064.12407.0656.0855.0021.24229.062.34877.1333.10648.0718.24352.1592.30432.1941.2.1157 3.46171.7843 4.23081.8676.2281.0246.8877.1059 1.4655.1805.5781.0747 1.3407.1658 1.695.2023.3544.0369.7642.1111.9105.1657.1923.0718.2766.0779.3043.023.0349-.0698.6167-.0509 1.321.0435.2487.0275.4975.0505.7466.0689.5457.0422 1.3772.1846 1.8426.315.1315.0369.2624.0493.2908.0275.0287-.0221.4139.0283.8564.1112.6544.1231.8281.1354.9309.0673.1037-.069.2364-.0575.7299.0631.8217.2011 1.8939.462 2.4284.5908.2432.059.5966.1509.7855.2047.1889.0533.4253.0968.5253.0968.1003 0 .2942.0439.4312.0984.2306.0915.7031.1929 1.9633.4222.4812.083.9607.1829 1.4379.2994.3041.0714.8019.1805 1.1062.2425l.7191.1477c.6454.1321.7686.1296.897-.0185.0691-.0796.1259-.1797.1259-.2227 0-.0427.0185-.0739.0413-.0698.0229.0045.0988.0045.1679 0 .1059-.0066.1173-.0287.071-.1362-.0676-.1567-.0132-.2412.088-.137.1142.1173.088.0119-.0432-.1752-.0688-.098-.2068-.1858-.3343-.2125-.1855-.0389-.2068-.0603-.1472-.1493.0892-.1333.0139-.1415 3.5577.3897.2432.0369.679.0813.9679.0993.2889.0185.8117.0656 1.1614.105.3497.0398.8102.0845 1.0232.0997.2129.0148.4855.0591.6055.0981.1204.0389.5976.073 1.0605.075.463.0025.8747.0181.9151.0349.0994.0414 1.3954.1255 1.7037.1108.1365-.007.2862-.055.3328-.1071.104-.1169.3694-.1284 1.604-.071.5676.0267 1.0886.087 1.2595.1461.2235.0771.5939.0984 1.5763.0902.7065-.0066 1.8818.0123 2.6117.0406 1.4793.0575 1.4003.0583 2.9312-.0242.991-.0533 1.5629-.0554 2.4333-.0094.1522.0082.233.0287.1796.0459-.0531.0173-.0966.0636-.0966.103 0 .0472.1553.0582.4562.032.2509-.0222 1.0037-.0714 1.6728-.1095.6695-.0382 1.5278-.1014 1.908-.1395 1.5278-.1559 2.1102-.2105 2.9037-.2732 1.984-.1571 3.03-.2195 4.1201-.2462.5019-.0127 1.1241-.0439 1.3827-.0697.2853-.0269.5711-.0403.8571-.0402.213.0033.6358-.0246.9401-.0615.3044-.037 1.2892-.0809 2.1892-.0977.8997-.0164 1.746-.0599 1.8803-.0968.1345-.0369.4398-.0837.679-.1038.2389-.0205.5123-.0533.608-.0726.3272-.0664.8377-.1112 1.5843-.1395.6574-.0254 1.2963-.0857 2.2398-.2116.1521-.0206.3635-.0452.47-.0558.1065-.0107.3803-.039.6084-.0632.2284-.0246.6142-.0628.8571-.0862.2435-.0229.4549-.0512.47-.0627.0155-.0119.1695-.0398.3426-.0628.1728-.0226.3509-.0587.3951-.08.0447-.0209.3015-.0476.5706-.0587.7392-.0311.7383-.0307.7383-.1415 0-.0566.0263-.1025.0587-.1025.0321 0 .0401.0357.0185.08-.0275.0545-.0093.0656.0565.034.0531-.025.1512-.0459.2185-.0459.0824 0 .1247-.0443.1302-.1371.0099-.164-.02-.1714-.1308-.034-.1158.1436-.2454.1325-.2065-.0172.0191-.0739.0133-.0903-.0154-.0435-.0318.0521-.1877.0619-.4892.0307-.5192-.0533-.9108-.0389-1.6315.0616-.2889.0406-.6624.0902-.8297.1103-.1672.0205-.3333.0489-.3688.0632-.0355.0144-.079-.0205-.0966-.0779-.0238-.0772-.0762-.0919-.2025-.0575-.1981.0538-.3253.0743-.853.1371-.213.0254-.4019.0574-.4201.0713-.0389.0296-.7784.0345-1.792.0123-.6429-.0147-1.0963.0247-1.4345.1239-.1908.0558-1.5241.08-1.5241.0275 0-.0271.1679-.0714.3734-.0984.205-.0275.4229-.0616.4837-.0768.4268-.1042 1.5694-.2215 2.4886-.2543.2129-.0082.4135-.0353.4456-.0607.0534-.0423 1.747-.2059 1.838-.1776.0216.0069.2259-.0091.454-.0357.3528-.0406 1.2534-.1227 1.4793-.1346.0818-.0041.0914-.0927.0164-.1501-.0537-.0411-.4707-.0509-.8478-.0197-.1152.0098-.2297.0582-.2544.1079-.0336.0668-.1287.0779-.3713.0439-.1796-.0259-.3429-.0591-.3632-.0739-.0204-.0152-.075.0193-.121.0767-.0463.0575-.0972.0776-.1133.0452-.0312-.0624-1.1475-.0357-1.471.0352-.1065.0234-.2941.0493-.4169.0567-.1229.0082-.2784.0504-.3457.0951-.0976.0648-.1222.0628-.1222-.0102 0-.0542-.0741-.0989-.1797-.1096-.4373-.0439-1.0494-.0398-1.5349.0103-.3487.0361-.4978.0316-.4438-.0135.2179-.1805-.1913-.27-.8281-.1805-.5648.0795-.6654.0836-.9095.0377-.126-.0238-.3025-.0189-.3926.0111-.2368.0787-1.4679.2178-2.0161.2281-.2769.006-.5536.0246-.8296.0558-.1975.0258-.5957.0627-.8849.082-.5072.0387-1.0141.0839-1.5206.1358-.6028.0599-1.2062.1089-1.8099.1468-.7297.0411-.8179.0345-.8497-.0681-.03-.0972-.1262-.1136-.6512-.1111-.3389.0016-.7281-.0222-.8649-.0525l-.2487-.0558.4148-.0763c.2281-.0423.5018-.0759.608-.0747.1068.0012.5423-.0459.9679-.1042.4259-.0582 1.2346-.1407 1.7975-.1825.5627-.0423 1.0784-.0915 1.146-.1096.0679-.018.6278-.0627 1.2445-.0997 1.1083-.0656 1.8852-.1197 2.4762-.1714.1673-.0148.7414-.0579 1.2753-.096.5343-.0382 1.0071-.0833 1.0509-.1001.0439-.0164.1297-.0538.1901-.0821.0609-.0287.2065-.0607.3235-.0709.1167-.0107.2414-.0681.2766-.128.0509-.0862.195-.112.6999-.1264.3497-.0098.6605-.0369.6911-.0599.0306-.0229.242-.0603.4701-.082 1.0904-.1059 2.1808-.192 2.682-.2117.3044-.0119.9516-.0755 1.4383-.1411.4864-.0657 1.1087-.1301 1.3827-.1428 1.8945-.0861 3.4077-.1957 4.2028-.3027.2738-.0369.7537-.087 1.0664-.1112.3126-.0246.5817-.0706.5978-.1026.016-.0324-.0531-.0615-.1537-.0644-.1006-.0028-.2531-.0119-.3395-.0197-.0855-.0073-.1667.0078-.1799.0345-.0133.0263-.1161.0164-.2284-.0217-.1142-.039-.3642-.0501-.5664-.0247-.1991.0247-1.258.0575-2.3531.0718-1.095.0148-2.4015.0468-2.9034.0714-.8947.0431-1.1481.0164-.5614-.0591.163-.0205.308-.0529.3229-.0709.0395-.0493-.1627-.1699-.3306-.1978-.1954-.0328-.2571-.1193-.0901-.1271.0737-.0029.4574-.0345.8528-.0698.3953-.0348 1.1728-.082 1.7283-.1042.9124-.0369 1.0093-.0521 1.0093-.1604 0-.1509.2222-.1866 1.5642-.2506.541-.0259.9969-.073 1.0126-.105.0158-.0316.138-.0575.2713-.0575.4544 0 .3272-.1895-.2314-.3437-.1575-.0435-.3689-.0735-.4698-.0665-.6738.0464-.4969-.0886.2586-.1977.3044-.0439.7272-.0944.9402-.1128.2129-.0185.5987-.064.8574-.1018.2583-.0373.7808-.0886 1.1614-.1132.4682-.0308.7089-.0742.7466-.1354.0306-.0492.2278-.1095.4423-.1341.2129-.0246.412-.0821.4426-.1284.0302-.046.237-.1046.4589-.1301.2222-.0254.4599-.0914.5278-.1468.0784-.0636.3176-.1116.6472-.1309.7105-.041 1.2673-.1181 1.2982-.1801.0324-.0648-.4519-.1579-.5263-.1009-.0308.0234-.0555.0131-.0555-.0226 0-.0356.087-.0849.1935-.1099.2102-.0488.25-.1341.0969-.2076-.1809-.0869.0722-.2244.6407-.3487.4775-.1038.7794-.2326.5593-.2383-.2068-.0053.1124-.1264.4445-.1682.1975-.0254.3879-.0755.4231-.112.0355-.0361.2216-.0972.4142-.1358.5346-.1066.5287-.1928-.0167-.2457-.2037-.0197-.3898-.0784-.446-.1407-.0787-.087-.1746-.0977-.5253-.057-.7129.0824-.8543.0664-.9614-.1092-.0524-.0861-.0845-.178-.0713-.2047.0133-.0262.1914-.0697.3966-.096.205-.0262.3976-.0718.4281-.1017.0303-.0295.1735-.0755.3179-.1021.3966-.0731.3151-.1699-.1429-.1699-.2228 0-.4244-.0234-.4475-.0517-.0229-.0283-.255-.0513-.5154-.0513-.3294 0-.4809-.0262-.4973-.0857-.0163-.0587.0432-.0857.1883-.0861.1167 0 .2994-.0288.4056-.0632.1064-.0345.4043-.0821.6617-.1063.2574-.0238.4963-.0722.5305-.1074.034-.0353.0769-.046.0945-.0242.0179.0221.0901.0143.1608-.0169.0994-.0439.0404-.0668-.2584-.1005-.3527-.0398-.7552-.1399-.9678-.2408-.1352-.064.075-.1345.7049-.2363.3117-.0504.567-.1099.567-.1321 0-.0225.1617-.0279.3595-.0123.2889.0226.3593.0086.3593-.0718 0-.1243-.175-.3273-.2809-.3261-.0648.0008-.0642.0123.0043.0677.071.0566.0686.0665-.0154.0673-.0543.0008-.1133-.0468-.1315-.1055-.0277-.0902-.1281-.1009-.6759-.0701-.6861.0381-.8549-.0074-.7284-.1961.2117-.3159 1.0753-.6555 1.6691-.6555.3587 0 .546-.0829.546-.2421 0-.0796-.0886-.1001-.4287-.0984-.2358.0004-.5281.0336-.6497.0734-.1219.0398-.695.0861-1.274.1034-1.0238.0299-1.0531.0271-1.0611-.1067-.0081-.1321.0595-.2268.178-.2506.0306-.0062.2692-.0612.5303-.1223.8549-.1994 1.6139-.3212 2.3907-.3827.7195-.0575.9655-.1358.8908-.2851-.017-.0341-.0547-.0435-.084-.0214-.029.0222-.046 0-.0376-.0504.0086-.0501-.0278-.0862-.0809-.0813-.0528.0054-.0843-.0143-.0694-.0438.0145-.0292-.0581-.0731-.1615-.0969-.2231-.0521-.2759-.1755-.1617-.3778.0608-.1079.0676-.1723.0241-.2371-.0713-.1062-.0247-.1789.1142-.1789.0561 0 .1018-.0131.1018-.0287 0-.016.0164-.082.0364-.1477.034-.1087-.003-.1148-.4561-.0726-.271.0246-.5864.0636-.7006.0862-.1649.0324-.2071.0189-.2071-.0665 0-.0586-.0402-.1345-.0892-.1686-.1266-.0878-.0507-.4828.108-.562.1136-.057.1142-.0603.0089-.0689-.1108-.009-.1108-.009 0-.0681.1081-.0574-.0432-.0821-.6086-.0993-.2358-.007-.4145-.0993-.4145-.2137 0-.0615-.0574-.0985-.1522-.0993-.0934-.002-.1864-.0163-.2777-.0427-.118-.0389-.1198-.0471-.0278-.1337.054-.0509.166-.0931.2494-.0943.0833-.0013.3154-.1104.516-.2421.2025-.1333.4454-.24.546-.24.3349 0 .858-.0873.8321-.139-.0142-.0283.0167-.0468.0685-.0419.0525.0043.1-.0411.1136-.1087.0253-.1509-.3012-.4106-.4698-.3741-.0672.0148-.1314-.007-.1426-.048-.0259-.0968-.6716-.1243-.9296-.0394-.1096.0361-.6759.0738-1.258.0841-.9846.0172-1.275-.0176-.9068-.1095.0833-.0205.2639-.0689.4009-.1075.1596-.0417.3214-.066.484-.0726.129-.0017.2349-.0341.2349-.0718 0-.0373.0388-.0685.0864-.0685.0478 0 .1379-.0337.2006-.0751.112-.0746.1117-.0763-.0176-.1563-.2272-.1403-.1568-.2724.2247-.4225.1954-.0771.3673-.1854.3815-.24.0142-.055.0478-.1177.0747-.1395.0845-.0689-.0167-.2802-.1124-.2346-.0484.0229-.0725.0225-.054-.0004.0185-.023-.0287-.1198-.1056-.215-.1009-.1247-.2046-.176-.3759-.1842-.1302-.0062-.2268-.0312-.2145-.0562.0124-.0246-.2157-.0295-.5068-.0111-.4231.0271-.5478.0127-.6222-.0701-.1028-.1157-.646-.1633-.9293-.0817-.108.0312-.187.0218-.2108-.0254-.0207-.04143-.0963-.07548-.1679-.07548-.1667 0-.3056-.06564-.3056-.1444 0-.03364.0361-.06153.0803-.06153.0441 0 .1012-.04636.1271-.10379.0291-.06441.2454-.15179.5698-.22973.6389-.15425 1.1093-.38972 1.0648-.5333-.0184-.0562-.0664-.08381-.1099-.06317-.0432.02051-.0648.00984-.0478-.02462.017-.03364-.0343-.15794-.1142-.27526-.1065-.15712-.1741-.20184-.2562-.16984-.0614.02462-.0972.016-.0799-.01846s-.0556-.06563-.1611-.06974c-.1059-.00328-.3673-.05948-.5806-.1243l-.3883-.11773.1235-.16327c.0679-.08943.1466-.16286.1747-.16286.0284 0 .1367-.05005.241-.11159.1821-.10707.1865-.11814.1059-.27075-.0531-.10009-.0636-.17476-.0284-.20142.0146-.01086.025-.02935.0288-.05095.0039-.02161.0007-.04435-.0087-.06269-.0229-.04594-.0525-.03815-.084.02175-.0315.0603-.0629.0685-.0898.02297-.0228-.03815-.116-.11445-.2074-.16901l-.1661-.09928.1751-.02297c.1895-.02544.291-.20101.1537-.26665-.0463-.02215-.0982-.02298-.1152-.00205-.0166.02051-.1132-.0201-.2145-.09025-.1252-.08131-.2578-.14088-.3944-.17722-.1155-.02708-.2438-.09025-.2846-.14112-.0969-.1202-.1349-.11774-.6488.04512-.4614.14645-.5913.13251-.7805-.08204-.1068-.12061-.1497-.12635-.4386-.06031-.3793.08697-1.0932.09805-1.0525.01641.0155-.03117.2099-.09517.4318-.14235.5655-.11937.6291-.14522.5362-.21619-.1609-.12307.5595-.41433 1.2638-.51032.1902-.02585.3581-.07138.3726-.10092.0148-.02954-.0253-.1362-.0895-.2367-.1068-.16861-.109-.19199-.0266-.30439.0488-.06728.0889-.13907.0889-.15999 0-.08451-.9364.03733-1.2441.16245-.4429.17927-1.3392.31013-1.4219.20757-.0439-.05415-.0445-.10091-.0016-.16491.058-.08614.1466-.12307.8843-.36838.2299-.07631.3457-.14933.3457-.21784 0-.08696-.0655-.09599-.4105-.05743-.263.02995-.4229.02051-.4457-.02461-.0195-.03897-.005-.07097.0324-.07097.037 0 .0549-.016.0392-.03528-.0371-.04595-.8204.15753-.8982.23383-.0614.05948-.8688.21332-1.041.19855-.0534-.00492-.0969-.04718-.0969-.09435 0-.04718-.013-.12717-.0287-.17804-.0272-.08779.6481-.26542 1.812-.47628.175-.03158.4083-.1042.5185-.16163.1102-.05702.2781-.10379.3735-.10379.2503-.00082.6102-.1366.5518-.20839-.0268-.03364-.3635-.06974-.7484-.08041-.3846-.01066-.6954-.02461-.6901-.03118.0049-.00615.132-.07138.2824-.1444.2617-.12758.2679-.1366.1481-.21619-.0935-.06194-.1935-.0644-.4003-.00943-.3364.08943-.3809.09066-.3809.01025 0-.03487.0741-.08327.1652-.1083.3024-.08204.237-.17147-.1257-.17147-.2111 0-.4246-.04349-.5283-.10748-.105-.06482-.2226-.08861-.2963-.05949-.1581.06195-2.7547.08615-2.7241.02462.0642-.12882-.6611-.12799-1.2803.00164-1.2537.26214-2.3203.41105-3.0083.42048-.3802.00493-.9528.05128-1.2722.10338-.4206.06504-.8421.12002-1.2642.16491-.3762.03856-.6997.08205-.7191.09682-.0195.01435-.222.04594-.45.07015-.2029.02094-.4056.04514-.6081.07261-.2219.03323-1.2308.10296-1.9635.13578-.6275.03135-1.2544.08045-1.8803.14728-.1827.02051-.892.05004-1.5762.06563-.6846.01641-1.4932.05497-1.7975.08615-.3041.03036-1.1451.05292-1.8695.04923-1.0947-.00575-1.325-.02421-1.3688-.10789-.0444-.08615-.0599-.08656-.1019-.00575-.0333.064-.1043.08205-.2132.05539-.0902-.02257-.1908-.00698-.2241.03445-.0333.04103-.1426.08164-.2429.08944-.0987.0075-.1968.02589-.2932.05496-.3315.12184-.6769.15712-.8161.08369-.1117-.05907-.3904.01067-.3518.08779.0142.02872-.2522.06031-.5923.07015-.9154.02749-1.0102.03979-1.1139.14645-.0842.08656-.0926.08246-.0759-.0361.0126-.09025-.008-.12553-.0642-.10912-.0685.01632-.1379.02497-.2074.02585-.0685.00082-.1244.02502-.1244.05415 0 .02871-.0401.07138-.0892.09476-.0648.03077-.0802.01313-.0559-.06482.0229-.07384.0118-.09025-.0351-.05333-.038.02995-.305.064-.5942.07589-.6077.02462-.5173.02462-3.3734.01231-1.2016-.00574-2.3383.01231-2.5266.03938-.1882.02749-.3836.02995-.4348.00534-.0942-.04472-1.9007-.13292-2.4559-.1202-.434.01026-.9262-.30603-.6525-.41925.0408-.01641.0124-.06523-.0691-.11897-.0759-.04923-.1519-.1161-.1688-.14768-.0611-.11487-.5309-.17927-.6639-.09066-.0843.05579-.3068.07548-.6571.05907-.2914-.01395-1.2485-.04184-2.1266-.06153-.8784-.02011-1.6574-.05498-1.7314-.07795-.0738-.02297-.3877-.04677-.6976-.05251-.3098-.00574-.6132-.04512-.674-.08738-.1087-.07589-.6216-.20019-.7074-.17147-.1059.03487-.3025.02625-.4815-.02174-.1065-.02872-.2435-.04677-.3043-.04062s-.1605.01682-.2213.02379c-.0608.00657-.347-.02461-.6358-.0685-.2889-.04431-.6331-.08-.7645-.07918-.1315.00082-.2686-.02789-.3044-.06358s-.146-.08615-.2447-.11241c-.1472-.03897-.1797-.02666-.1797.06851 0 .10256-.0456.11076-.4012.06728-.2204-.02667-.7991-.05538-1.2855-.064-.4867-.00902-1.0191-.0521-1.183-.0964-.1076-.03082-.2159-.05763-.3247-.08041-.0148 0 .004-.04635.042-.10296.0379-.05662.1531-.10256.2555-.10256.1028 0 .1871-.01313.1871-.02872 0-.016.0151-.07794.0333-.13742.0463-.14851-.1096-.14112-.2324.01107-.0698.08615-.1028.09559-.1194.03364-.0124-.04676-.0457-.06768-.0735-.04676-.0278.02133-.0506.01394-.0506-.01641 0-.03077-.0559-.05949-.1244-.064s-.4478-.04348-.8435-.08615c-.3951-.04266-1.1917-.08984-1.7698-.10502-.5777-.01476-1.1129-.0443-1.1889-.06481-.2577-.06974-1.6743-.2326-2.4333-.27896-1.4068-.08615-2.4731-.335566-2.6929-.629701-.0688-.091891-.1901-.166144-.2771-.169836-.7158-.028716-1.7096-.121018-2.1457-.199372-.2366-.040431-.4738-.074349-.7114-.101735-.2201-.024831-.4394-.060546-.6574-.1070708-.1528-.0361002-.2871-.06563577-.2979-.06563577-.0111 0-.02.07917447-.02.17557857 0 .096404-.0241.157116-.0537.134554z"/><path d="m69.3689 30.8886c.0259.0189.0799-.056.1197-.1654.0419-.1161.1062-.1998.1539-.1998.0646 0 .0698-.0168.0246-.0793-.0436-.0607-.042-.0847.0065-.1036.0496-.0192.0474-.0462-.0103-.1272-.0556-.0786-.0586-.1086-.012-.1269.0335-.0128.061-.0482.061-.0786s-.0218-.0395-.0485-.0202c-.0275.0195-.0357-.0034-.0191-.0534.0161-.0482.0041-.0877-.0267-.0877-.0406 0-.0417-.0304-.0035-.1127.0419-.0905.0373-.1127-.0246-.1127-.0621 0-.0654-.0145-.0158-.0756.0633-.078.1862-.0081.1701.0968-.0041.027.0183.0604.0496.0736.0376.0162.0474-.0182.0289-.1002-.0155-.0689-.0082-.1114.0163-.0949.0243.0162.0881.0112.1418-.0118.0774-.0327.0545-.0499-.1099-.0823-.1294-.0257-.2076-.0709-.2076-.1205 0-.0439-.0426-.0796-.0949-.0796-.052 0-.1248-.0496-.1616-.1104-.066-.1083-.3145-.2565-.3952-.2352-.0229.0057-.1657-.0253-.3175-.0695-.192-.0525-.386-.0926-.5813-.1202-.1679-.0219-.3176-.0627-.3325-.0907-.015-.028-.0755-.0513-.1344-.052-.0586-.0007-.2388-.0763-.3998-.1681-.1614-.0914-.3304-.167-.3756-.1677-.0455-.0007-.0962-.027-.1128-.0577-.0167-.031-.0055-.0564.0248-.0564.0678 0 .0436-.252-.0248-.2578-.027-.002-.1453-.0357-.263-.0742-.1178-.0392-.2677-.0557-.3334-.0365-.0654.0189-.1888.0095-.2741-.0209s-.2778-.0827-.4276-.1168c-.4116-.0928-.631-.1704-.631-.2227 0-.0546 2.5052-.0169 3.1255.0473.3268.0337.4514.0243.586-.0432.094-.0473.1821-.0895.1954-.0942.0136-.0044.0886-.0388.1671-.0759.0785-.0375.1774-.0527.2199-.0338.0423.0193.6923.0439 1.4445.055.7519.0112 1.4663.0456 1.587.0763.1208.0311.483.0857.8048.1215.3219.0364.6274.0918.6787.1235.0515.0317.2008.0459.3319.0314.1314-.0148.2505-.0044.2649.0226.0145.027.0469.0344.072.0169.0248-.0179.0452-.0058.0452.027 0 .0331.0164.0547.0368.0486.0812-.0247.5004.0776.5004.1225 0 .055.369.1464.5086.1262.0512-.0078.1346.0371.185.0999.0505.0624.1292.1167.1753.1205.046.0033.2153.0121.3766.0189.1608.0067.3808.0411.4882.0769.1076.0361.2785.0796.3799.0968.1014.0176.1725.054.1581.081-.0456.0851.0629.1074.9113.187.0453.0044.0783.0321.0736.0614-.0049.0294.0352.0682.0889.0864.0775.0322.1516.0758.2207.1299.0889.0699.2739.1073.6596.1333.2946.0199.5865.0338.6486.0304.0622-.0034.1805.0344.263.0837.0851.0506.163.0672.1799.0378.0423-.0722.2142-.1417.1766-.0709-.0398.0743.0077.0702.1377-.0111.2624-.1644 1.505-.0395 1.6347.164.04.0631.0444.1056.012.1181-.0278.0108-.0504.0419-.0504.0695 0 .0274.0308.0361.0681.0196.0376-.0169.0828-.0034.1008.03.0472.0885-.2453.0756-.4033-.0178-.0725-.0429-.2309-.0966-.3516-.1195-.121-.0226-.2584-.0496-.3053-.0597-.0471-.0102-.0855.0148-.0855.0556 0 .0523-.0608.0682-.2074.055-.1606-.0145-.1881-.0057-.1213.0392.0477.0317.0755.0783.0621.1036-.0289.054.2442.1087.7727.1542.297.0253.3938.0152.4265-.0445.0311-.0564.0428-.0584.0436-.0071.0008.1036.2944.0867.3996-.023.049-.0513.0894-.0695.0894-.0401 0 .0324.1583.0381.4028.0148.2215-.0216.5677-.053.7691-.0698.2017-.0169.4385-.0608.5268-.0969.088-.0358.215-.0533.2818-.0385.0671.0146.1355.0007.1526-.0307.0188-.0354.006-.0401-.0332-.0121-.0398.0283-.0521.0236-.0327-.0128.0368-.0689.2698-.131.5453-.1458.1628-.0088.1963-.0307.2006-.1316.0049-.108-.0289-.1256-.3172-.1644-.1777-.0236-.3777-.0378-.4448-.031l-.1221.0121.1295-.081c.2248-.141.4437-.2008.8716-.2369.2284-.0192.5579-.0766.7326-.1272.4014-.1164 1.7946-.1255 1.8554-.0118.0208.039.0621.052.0954.03.0818-.0584.9806-.0776.9498-.0209-.0283.0537-.0212.0543.6176.0769.4511.0159.6413.0351 1.3164.1333.308.0446.4878.0189.6639-.0944.0736-.048.0578-.075-.1199-.2042-.1428-.1046-.3178-.1657-.5816-.2042-.4505-.0658-.8803-.1485-1.1899-.2295-.1854-.0482-.2222-.0779-.2028-.1636.0139-.0615.0518-.0925.0921-.0743.0376.0166.0684.0021.0684-.0324 0-.0344-.0381-.0627-.0853-.0631-.073-.0007-.0749-.0088-.0123-.0557.0464-.0344.0516-.055.0137-.0553-.0327-.0007-.0469-.0392-.0311-.0861.0196-.059-.0292-.114-.1603-.1815l-.1886-.0965.477-.0338c.2562-.0187.5128-.0282.7694-.0287.1608.0034.2919.0027.2919-.0013 0-.0037-.0436-.0655-.0976-.137-.0537-.0716-.0976-.1127-.0976-.0918s-.0496.0007-.1101-.0452c-.0605-.0456-.2728-.1124-.472-.1478-.199-.0358-.4489-.1006-.5555-.1438-.1201-.0464-.2446-.0737-.3703-.081-.272-.003-.9569-.2086-.7591-.2278.0479-.0073.0955-.0174.1426-.0304.0523-.0138.1048-.0274.1572-.0408.1118-.0283.1189-.083.0158-.1208-.0567-.0209-.1602-.0992-.2305-.1745-.0704-.0752-.1766-.1367-.2366-.1367s-.1341-.0347-.1649-.0776c-.0458-.0634-.0054-.084.2262-.1144.1429-.0184.2856-.0398.4279-.0641.1919-.0358.9547-.0307 1.0071.0068.0708.0506.6293.0742.6293.027 0-.0254-.033-.0773-.0736-.1158-.0401-.0388-.0731-.0968-.0731-.1292s.0145-.0422.0322-.0216c.0177.0202.0616.0087.0976-.0257.0362-.0347.0654-.0388.0654-.0091s.0332.054.0736.054c.1171 0 .085-.0604-.0764-.1428-.1812-.0928-.1553-.1316.1371-.2048.2666-.0675.3173-.1721.1262-.2612-.1978-.0921-1.1269-.2116-1.6581-.2133-.2491-.0007-.511-.0182-.5822-.0388l-.1297-.0374.139-.1317c.0768-.0722.1766-.1322.2218-.1333.1159-.003.151-.0924.0889-.2264-.0654-.1417-.4903-.3958-.6609-.3958-.072 0-.1137-.0243-.0965-.0564.0166-.0311.0706-.0564.1199-.0564.0826 0 .1744-.1407.1564-.2396-.0185-.1005.7563.0118.8212.1192.0496.0816 1.2968.2959 1.4191.2433l.117-.0496-.1137-.0702c-.0624-.0388-.4682-.1384-.9016-.2221-.7931-.1525-.9863-.2602-.4665-.2602.1597 0 .3066-.0324.3543-.0776.0681-.0648.1618-.0665.5576-.0108.7277.1026 1.1501.1731 1.2493.2082.0657.0233.0856.0068.0736-.0621-.018-.0998-.169-.2169-.4061-.3148-.2038-.084-.0771-.1579.1837-.1073.1131.0222.3044.058.4252.08l.2199.0394-.1831-.2024c-.1009-.1114-.1832-.2116-.1832-.2228 0-.0111.1363-.0381.3025-.0597.3944-.0516.6048-.1789.6021-.3641-.0014-.0979-.3175-.2285-.6113-.2531-.121-.0105-.396-.0591-.6108-.1084-.2148-.0492-.5445-.1012-.7326-.115-.2125-.0172-.4244-.0455-.635-.0847-1.0005-.2029-1.2256-.2531-1.269-.2815-.0264-.0175.0504-.0597.1709-.0935.1213-.0341.2191-.0945.2191-.1356 0-.0949-.4922-.301-.9389-.3932-.2172-.0449-.378-.1113-.4306-.1788-.0471-.0601-.2107-.1357-.3723-.1725-.3671-.0833-.357-.1626.0417-.3327.0853-.0365.1456-.0955.1336-.1316-.0278-.0814-.2541-.2059-.3751-.2059-.0498 0-.0771-.0256-.0605-.0563.0164-.0311.1935-.0567.3936-.0567.3292 0 .4614-.0574.3025-.1317-.1425-.0664.5702-.0303.9223.0463.4382.0958.677.0557.677-.1134 0-.0783-.1278-.1806-.4797-.3851-.3311-.1927-.4592-.2936-.4148-.3266.0845-.0628.0011-.1273-.3265-.2521-.4622-.1765-.8291-.4718-.7808-.6294.0327-.1073-.1475-.166-.8921-.2902-.3698-.0618-.7405-.1512-.8233-.1991-.0829-.0473-.2584-.1013-.39-.1198-.3631-.0503-1.0575-.2531-1.166-.3405-.0528-.0425-.1627-.0793-.2442-.0817-.0812-.002-.1916-.0256-.2453-.0523-.0779-.0385-.058-.0499.0976-.0567.4162-.0179.6372-.0651.6923-.1485.0376-.057.0965-.0742.1709-.0506.0978.0304.1013.027.0272-.027-.0474-.0341-.1245-.055-.1709-.0462-.0515.0078-.1038-.0031-.1504-.0314-.0387-.028-.1148-.0169-.1862.027-.0937.058-.1406.0597-.2125.0077-.0586-.0421-.1036-.0462-.1221-.0114-.0164.0303-.1548.056-.3075.0573-.1529.0011-.333.0382-.4001.0824-.1463.0965-.1954.1036-.1954.0283 0-.031.0344-.0563.0763-.0563.0417 0 .0641-.0226.0491-.05-.0145-.0276.0193-.0641.0758-.081.0561-.0168.0926-.0641.0809-.1049-.0215-.0753-.2401-.1195-.9168-.1849-.6113-.0594-.7814-.0912-.7814-.1465 0-.0294.0327-.053.0733-.053s.073-.0503.073-.1127c0-.0827-.0327-.1127-.1221-.1127-.1403 0-.1643-.0871-.0346-.1262.048-.0145.2952-.0129.5495.0037.7399.0482 1.0362.0324 1.191-.0645.0788-.0492.157-.0793.1744-.0671.0172.0125.0221-.049.0109-.1364-.0242-.1903.0447-.22.5459-.2362.3001-.0094.3235-.0179.2191-.0803-.1717-.1026-.801-.2497-1.1762-.2754-.1919-.0131-.3729-.0594-.438-.112-.139-.1121-.2224-.1138-.3162-.0054-.0422.0489-.16.0843-.2774.0833-.362-.002-1.7124-.1606-1.8958-.2227-.1712-.0574-.1764-.0668-.1404-.2518.0229-.1164.0177-.2149-.0128-.2504-.0349-.0404-.0335-.0823.0046-.1353.1167-.1623-.0316-.1957-.7443-.1687-.5538.0213-.7266.0098-.8389-.0564-.1188-.0702-.6549-.1667-1.0206-.1839-.0537-.0027-.2074-.0273-.3418-.055l-.2442-.0506.2197-.0408c.121-.0227.4835-.0281.8059-.0122.3417.0163.6836.0233 1.0255.0213.2418-.0044.7141.0337 1.0499.0843.6644.0999 1.3496.1698 1.6445.1678.1028-.0007.2009.0209.2175.0479.0169.027.0995.0523.1831.0563.084.0041.1527.0284.1527.054 0 .0257.0493.0304.1098.0108.0861-.0276.094-.0226.0365.0236-.0629.051-.0613.0594.0123.0601.0471.0007.0856.029.0856.0638 0 .0385.0463.0277.1202-.0283.1335-.1013.1924-.1168.1518-.0409-.0148.0274.0169.0631.0703.0793.0556.0169.097.0014.097-.0361 0-.0378.0771-.0651.1832-.0651.1163 0 .179.0246.1717.0678-.0079.0466.0449.0594.1689.0412.2034-.0304.4039-.1613.405-.2653.0006-.0445.0177-.0388.048.0152.0368.0658.0474.0493.0482-.0742.0009-.2032-.0795-.3766-.1749-.3766-.0409 0-.0608-.0253-.0442-.0564.0164-.031-.0095-.0584-.058-.0607-.1608-.0081-.2633-.0422-.3721-.1246-.0975-.0735-.327-.0452-.327.0405 0 .0156.0297.0152.0654-.0006.0363-.0159.0965.0151.1344.0688.0594.0844.0594.0911-.0006.0499-.0531-.0371-.0613-.0246-.0349.0551.0207.0617.0093.1218-.0283.1495-.0935.0681-.172.0553-.0872-.0146.0553-.0452.027-.0526-.1142-.03-.1036.0169-.2273.0014-.2769-.0341-.0676-.0489-.1063-.0479-.1608.0041-.0575.0553-.0788.0492-.109-.0314-.021-.0554-.0347-.1191-.0303-.1424.0041-.0236-.0234-.0425-.0616-.0425-.0381 0-.0774-.0291-.0877-.0642-.0104-.0357-.0832-.0725-.1619-.0823-.0791-.0098-.1679-.0564-.1979-.1039-.03-.0473-.0722-.0675-.094-.0446-.0218.0226-.0259-.0034-.009-.0574.0376-.1214-.0556-.1329-.096-.0118-.0256.0773-.0395.0763-.1204-.0084-.0867-.0908-.0919-.0901-.0927.0115-.0005.0901-.0082.0938-.048.0229-.0705-.1262-.0605-.1535.0704-.1913.0828-.0243.1166-.0709.1112-.1536-.0085-.1316-.1786-.2298-.3748-.2166-.1826.0125-.3439-.0601-.3439-.1549 0-.0608-.0485-.0787-.1832-.0675-.1968.0169-.5279-.0466-.647-.1239-.0591-.0381-.0545-.0482.0245-.0519.1141-.0077.228-.0178.3418-.0304.4154-.0452.9675-.0439 1.167.0027.1366.032.1804.0266.1562-.0193-.0213-.0391-.0082-.0519.0343-.033.0404.0179.1052-.0338.1567-.1249.0627-.1107.0709-.1613.0289-.1775-.0395-.0152-.0299-.0489.0292-.1022.0804-.0729.0752-.0773-.0583-.0507-.0807.0162-.1191.0145-.0856-.0033.1237-.0675.0556-.1371-.1344-.1371-.1232 0-.1954.026-.1962.0709-.0003.0516-.0114.05-.0425-.0064-.0265-.0479-.0534-.055-.0728-.0189-.0327.0611-.0948.0564-.2475-.0192-.0523-.0257-.1673-.0486-.2556-.0506-.2025-.0048-.2682-.1448-.0681-.1448.0793 0 .152-.0368.1678-.0844.0191-.0574-.0021-.0847-.0654-.0847-.0517 0-.1114-.0317-.1327-.0709-.0561-.10086-.2551-.22033-.3063-.18388-.024.01687-.0573.0054-.0742-.02632-.0169-.03139-.0913-.05737-.1654-.05737s-.2543-.04117-.4001-.09146c-.2303-.07964-.2507-.09786-.157-.13836.06-.02598.4674-.04387.9062-.03948.4388.00438.8267-.01283.8618-.0378.0363-.02598.0782-.01856.097.01687.0393.07324 1.5576.12892 1.5952.05839.0134-.02464.0584-.03004.1001-.01148.0512.02261.058.04624.0207.07256-.03.0216.012.03914.0937.03914.0818 0 .1483-.02396.1483-.05399 0-.02936.0335-.0216.0744.01755.0409.03948.0899.05332.109.03138.0194-.02193-.0196-.08808-.0864-.1468l-.1213-.10664.1221.027c.1069.02362.1099.02059.0246-.02632-.1409-.07762-.3726-.06918-.5083.01755-.1322.08436-.2976.05669-.2976-.05028 0-.04927-.0965-.07121-.3176-.07256-.1989-.00135-.3175.02092-.3175.05973 0 .03409-.0272.02025-.061-.03037-.0439-.06682-.1764-.10259-.4762-.12858-.2281-.02024-.5538-.07221-.7233-.11575-.1695-.04387-.3783-.082-.4639-.08504-.0855-.00304-.2657-.04016-.3998-.08234-.2289-.07222-.2033-.07526.4151-.04623.3625.01687.6923.03104.7326.03172.0401.00034.5456.06041 1.1229.13296.5778.07289 1.2073.14005 1.3992.1495.1922.00945.3391.03611.3271.05939-.0126.02363.0722.04252.188.04252.1156 0 .408.03712.6498.08201.4145.07694 1.3897.15658 1.2572.10225-.0338-.0135-.0491-.04826-.0338-.0766.0153-.02835-.0341-.05265-.1096-.054-.0754-.00169-.2139-.05096-.3079-.10968-.0941-.05905-.2151-.13093-.2688-.15962-.1766-.09516-3.0568-.64524-3.736-.71374-.2014-.02025-.7838-.08707-1.294-.14849-.5105-.06142-1.1839-.13633-1.4968-.16637-.3129-.03037-.6748-.09145-.804-.13633-.1698-.05906-.2442-.06412-.2687-.0189-.0308.05737-.5446.04184-1.1665-.03577-.2196-.02266-.4393-.04156-.6593-.0567-.4819-.03476-1.2161-.15186-1.6271-.25917-.1161-.03038-.2316-.0405-.2567-.02261-.0254.01822-.3655-.02329-.7563-.09146-.5778-.10124-.7313-.11136-.822-.05534-.0916.05669-.2088.04724-.6446-.05197-.7255-.16536-1.6723-.37999-2.1443-.48595-.2148-.0486-.5269-.12419-.6937-.1684-.1668-.04387-.3755-.07964-.4638-.07964-.0886 0-.2598-.03611-.3808-.081-.2036-.07525-.6208-.1586-1.7336-.34725-.425-.06833-.8484-.15048-1.2698-.24635-.2685-.05872-.7081-.14849-.9768-.19944l-.635-.12149c-.5699-.10867-.6787-.10664-.792.01518-.0611.06547-.1112.14782-.1112.18325 0 .0351-.0164.06074-.0365.05737-.0202-.00371-.0873-.00371-.1483 0-.0935.0054-.1036.02362-.0627.11204.0597.12891.0117.19843-.0777.11271-.1008-.09651-.0776-.00978.0382.1441.0608.08066.1826.15287.2952.17481.1637.03206.1826.04961.13.12284-.0788.10967-.0123.11642-3.1416-.3206-.2148-.03037-.5996-.06682-.8547-.08166-.2551-.01519-.7168-.054-1.0256-.0864-.3088-.03273-.7154-.06951-.9035-.082-.1881-.01215-.4287-.0486-.5347-.08066-.1063-.03205-.5277-.06006-.9365-.06175-.4088-.00203-.7724-.01485-.8081-.02869-.0877-.03408-1.2321-.10326-1.5044-.09111-.1205.00573-.2527.04522-.2938.08808-.0919.09617-.3263.10562-1.4164.05838-.5012-.02194-.9613-.07154-1.1123-.12014-.1973-.06344-.5243-.08099-1.3918-.07424-.6239.0054-1.6617-.01013-2.3063-.03341-1.3063-.04725-1.2365-.04792-2.5883.01991-.8752.04387-1.3802.04556-2.1488.00776-.1343-.00675-.2057-.02362-.1586-.0378.0469-.01417.0853-.0523.0853-.0847 0-.03881-.1371-.04792-.4028-.02632-.2216.01822-.8863.05872-1.4772.0901-.5911.03139-1.3491.08336-1.6848.11474-1.3491.12824-1.8634.17312-2.5641.22475-1.7519.12925-2.6756.18055-3.6382.20248-.4432.01046-.9926.03611-1.221.05737-.2519.02209-.5043.03312-.7569.03307-.188-.0027-.5614.02025-.8301.05062-.2687.03038-1.1384.06649-1.9332.08032-.7944.0135-1.5417.04927-1.6603.07964-.1188.03038-.3884.06885-.5996.08538-.2109.01688-.4524.04387-.5369.05973-.2889.05467-.7397.09146-1.399.11474-.5805.02093-1.1446.07053-1.9778.17414-.1344.01687-.3211.03712-.4151.04589-.094.00878-.3358.03206-.5372.05197-.2016.02025-.5423.05163-.7568.07087-.2151.0189-.4017.04218-.4151.05163-.0136.00979-.1496.03274-.3025.05164-.1527.01856-.3099.04825-.3489.0658-.0395.01721-.2663.03915-.5039.04826-.6528.02565-.6519.02531-.6519.11643 0 .04657-.0232.08436-.0518.08436-.0284 0-.0354-.02936-.0164-.0658.0243-.04489.0082-.054-.0498-.02801-.0469.02058-.1336.03779-.193.03779-.0728 0-.1101.03645-.115.11272-.0087.13498.0177.14106.1155.02801.1022-.11812.2167-.10901.1824.01417-.0169.06074-.0118.07424.0136.03577.0281-.04286.1657-.05096.432-.02531.4584.04387.8043.03206 1.4406-.05062.2551-.03341.5849-.07424.7326-.09078.1478-.01687.2944-.04016.3257-.05197.0314-.01181.0698.01688.0853.06412.021.06345.0674.07559.1788.04725.175-.04421.2873-.06108.7533-.11272.1881-.02092.3549-.04724.371-.05872.0343-.02429.6873-.02834 1.5823-.01012.5677.01215.9681-.02025 1.2668-.10192.1685-.04589 1.3458-.0658 1.3458-.02261 0 .02228-.1482.05872-.3297.081-.181.02261-.3734.05062-.4271.0631-.3769.08572-1.3859.18224-2.1975.20923-.1881.00675-.3652.02902-.3936.04995-.0471.03476-1.5426.16941-1.623.14612-.0191-.00574-.1995.00743-.4009.02936-.3115.03341-1.1068.1009-1.3063.11069-.0722.00337-.0807.07627-.0144.12351.0474.03375.4156.04185.7486.0162.1017-.0081.2028-.04792.2246-.08875.0297-.05501.1137-.06412.3279-.03611.1586.02126.3028.04859.3208.06074.018.01249.0662-.01586.1068-.0631.0409-.04725.0859-.06379.1-.03713.0276.0513 1.0134.02936 1.299-.02902.094-.01923.2597-.04049.3682-.04657.1085-.00675.2458-.04151.3052-.07829.0862-.05332.108-.05163.108.00844 0 .04454.0654.08133.1586.0901.3862.03611.9266.03273 1.3553-.00844.308-.02969.4396-.02598.3919.01114-.1924.14849.169.22205.7313.14849.4987-.06547.5876-.06885.8032-.03105.1112.01957.2671.01552.3466-.00911.2091-.0648 1.2963-.1792 1.7803-.18764.2445-.00498.4889-.02029.7326-.04589.1744-.02126.526-.05163.7814-.06749.4479-.03181.8955-.06905 1.3428-.11171.5322-.0493 1.065-.08958 1.5982-.12081.6443-.03375.7222-.02835.7503.05602.0264.07998.1115.09348.5751.09145.2992-.00135.6429.01823.7636.0432l.2197.0459-.3663.06276c-.2014.03476-.4432.06244-.5369.06142-.0943-.00101-.4789.0378-.8547.08572-.3761.04792-1.0902.11575-1.5873.15017-.4969.03476-.9523.07526-1.012.09011-.0599.01485-.5543.05163-1.0989.082-.9787.054-1.6646.09854-2.1866.14106-.1477.01215-.6546.04759-1.1261.07897-.4718.03138-.8893.06851-.928.08234-.0387.0135-.1145.04421-.1679.0675-.0537.02362-.1823.04994-.2856.05838-.1031.00877-.2132.05602-.2442.10529-.045.07086-.1723.09213-.6182.10394-.3087.0081-.5832.03037-.6102.04927-.027.01889-.2137.0496-.4151.06749-.9629.08707-1.9257.15794-2.3684.17413-.2687.00979-.8402.0621-1.27.11609-.4295.054-.979.10698-1.221.11744-1.6729.07087-3.0091.16097-3.7112.24905-.2418.03037-.6656.07154-.9417.09146-.276.02024-.5137.05804-.5279.08436-.0141.02666.0469.05062.1358.05298.0888.00237.2234.00979.2998.0162.0754.00608.1471-.00641.1588-.02834.0118-.0216.1025-.0135.2017.01788.1009.03206.3216.04117.5001.02025.1758-.02025 1.1109-.04725 2.0779-.05906.967-.01215 2.1207-.03847 2.5638-.05872.7901-.03543 1.0139-.0135.4958.0486-.1439.01687-.272.04353-.2851.05838-.0349.0405.1436.13971.2919.16266.1725.027.227.09816.0796.10466-.0652.0023-.4039.0283-.7531.0573-.3491.0287-1.0356.0675-1.5262.0857-.8056.0304-.8912.0429-.8912.132 0 .1242-.1962.1535-1.3813.2062-.4777.0212-.8803.0601-.8942.0864-.0139.026-.1218.0472-.2395.0472-.4012 0-.2889.1559.2044.2828.139.0358.3257.0604.4148.0547.5949-.0381.4388.0729-.2284.1626-.2687.0362-.6421.0777-.8302.0928-.188.0152-.5287.0527-.7571.0837-.2281.0308-.6895.0729-1.0256.0932-.4134.0253-.626.0611-.6593.1113-.0269.0405-.2011.0901-.3905.1104-.18807.0202-.36387.0675-.39085.1056-.02671.0378-.20931.0861-.40526.107-.19624.0209-.4061.0753-.46606.1208-.06922.0523-.28044.0918-.57151.1077-.6274.0337-1.11907.0972-1.14632.1481-.02862.0533.399.1299.46469.083.02725-.0192.04905-.0108.04905.0186s-.07686.0698-.17088.0904c-.18561.0402-.22077.1104-.08559.1708.15971.0715-.06377.1846-.56579.2868-.42163.0854-.68818.1914-.49385.1961.1826.0044-.0992.1039-.39246.1384-.17442.0209-.34259.0621-.37366.0921-.03134.0297-.19569.08-.36575.1117-.47205.0877-.46686.1586.01472.2021.17988.0162.34422.0645.39382.1158.0695.0715.15426.0803.46387.0469.62958-.0678.7544-.0547.84897.0898.04633.0708.07467.1464.06296.1684-.01172.0216-.16897.0573-.35022.0789-.18096.0216-.35104.0591-.37802.0837-.02671.0243-.15317.0621-.28072.0841-.35021.06-.27826.1397.1262.1397.19677 0 .37474.0192.39518.0425.02017.0233.22512.0422.45515.0422.2908 0 .42461.0216.43906.0705.01444.0483-.03816.0705-.16625.0709-.10302 0-.26436.0236-.35812.0519-.09403.0284-.35703.0675-.58433.0874-.2273.0196-.43825.0594-.46851.0885-.02998.029-.06786.0378-.08339.0199-.01581-.0183-.07959-.0118-.142.0138-.08776.0361-.0357.055.22812.0827.31152.0327.66691.1151.85469.1981.11938.0526-.06622.1107-.62248.1944-.27527.0415-.50066.0904-.50066.1086 0 .0186-.14282.023-.31752.0101-.2551-.0185-.31724-.007-.31724.0591 0 .1023.15453.2693.24802.2683.05723-.0007.05669-.0101-.00381-.0557-.06269-.0466-.06051-.0547.01362-.0553.04797-.0007.10002.0384.1161.0867.02453.0742.11311.083.59687.0577.60586-.0314.75495.0061.64321.1613-.18697.2599-.94955.5393-1.47392.5393-.3167 0-.48213.0681-.48213.1991 0 .0655.07822.0823.37857.081.20822-.0004.46632-.0277.5737-.0604.10765-.0328.61376-.0709 1.12505-.0851.90403-.0246.92992-.0222.93701.0878.00708.1086-.0526.1866-.15726.2062-.02698.005-.23766.0502-.46823.1005-.75494.164-1.42513.2643-2.11112.3149-.63529.0472-.85224.1117-.78656.2345.01499.028.04825.0358.07414.0176.02562-.0183.04061 0 .03325.0415-.00763.0412.02452.0708.0714.0668.04661-.0044.0744.0118.06132.0361-.01281.024.05124.0601.14254.0797.19705.0428.24366.1444.14282.3108-.05369.0887-.05968.1417-.02126.195.06296.0874.02181.1472-.10084.1472-.0496 0-.08994.0107-.08994.0236 0 .0131-.01445.0675-.03216.1215-.02998.0894.00273.0945.40282.0597.23929-.0203.51783-.0523.61867-.0709.14553-.0266.18288-.0155.18288.0547 0 .0483.03543.1107.07876.1387.11175.0722.0447.3972-.09539.4623-.10029.0469-.10084.0496-.0079.0567.09784.0074.09784.0074 0 .056-.09539.0473.03816.0675.53746.0817.20822.0057.36602.0817.36602.1758 0 .0506.05069.081.13437.0817.08249.0017.16465.0134.24528.0351.10411.032.10575.0388.02453.11-.0477.0418-.14663.0766-.22022.0776s-.27853.0908-.45568.1991c-.17879.1097-.39329.1974-.48214.1974-.2957 0-.75767.0719-.73477.1144.01253.0233-.01472.0385-.0605.0345-.04636-.0036-.08832.0338-.1003.0894-.02235.1242.266.3378.41481.3078.05941-.0122.1161.0057.12591.0395.0229.0796.59306.1022.82091.0323.09675-.0297.59686-.0607 1.11088-.0691.86941-.0142 1.12587.0145.80073.0901-.07359.0168-.23302.0567-.35403.0884-.14089.0343-.28383.0543-.42735.0597-.11393.0014-.20741.028-.20741.0591 0 .0307-.03434.0563-.07631.0563-.04224 0-.12183.0277-.17715.0618-.09894.0614-.09866.0628.01553.1286.20059.1154.13846.224-.19841.3476-.17252.0634-.32432.1525-.33686.1974-.01254.0452-.04225.0968-.06596.1147-.07468.0567.01472.2305.09921.193.04279-.0189.06405-.0185.04769.0004-.01635.0189.02535.0985.09322.1768.08912.1026.18069.1448.33195.1515.11501.0051.20032.0257.18942.0463-.01091.0202.19051.0243.44751.0091.37366-.0223.48376-.0105.54945.0577.09075.0952.57043.1343.82062.0671.09539-.0256.16517-.0178.18615.021.01826.0341.08504.0621.14827.0621.14717 0 .26981.054.26981.1187 0 .0277-.03188.0507-.07086.0507-.03897 0-.08939.0381-.11229.0853-.02562.053-.21666.1249-.50311.189-.56416.1269-.97951.3206-.94027.4387.01626.0463.05868.069.09702.052.03816-.0169.05724-.0081.04225.0203-.01499.0276.03025.1299.10084.2264.09403.1292.15372.166.22621.1397.05424-.0202.08585-.0132.07058.0152-.01526.0283.04907.054.14228.0574.09348.0027.32432.0489.51265.1022l.34286.0969-.10902.1343c-.05996.0735-.12945.134-.15426.134-.02507 0-.12073.0411-.21285.0917-.1608.0881-.16462.0972-.09349.2228.04688.0823.05614.1437.02507.1657-.01285.0089-.02209.0241-.02545.0419-.00337.0178-.00056.0365.00774.0515.02017.0378.04634.0314.07414-.0178.0278-.0496.05559-.0564.07931-.0189.02016.0314.10247.0941.18315.139l.14662.0817-.15453.0189c-.16734.0209-.25701.1653-.13573.2193.04088.0182.08667.0189.10166.0017.01472-.0169.10002.0165.18941.0742.11058.0669.22764.1159.34832.1458.10193.0223.21531.0743.25128.1161.08558.0989.1191.0969.57286-.0371.4075-.1205.5222-.109.6893.0675.0943.0992.1322.1039.3873.0496.3349-.0715.9653-.0807.9293-.0135-.0136.0257-.1853.0783-.3812.1171-.4993.0982-.5555.1195-.4734.1779.1419.1012-.4942.3408-1.1161.4198-.1679.0212-.3162.0587-.329.083-.0131.0243.0224.112.0791.1947.0943.1387.0962.1579.0234.2504-.0431.0553-.0785.1144-.0785.1316 0 .0695.8269-.0307 1.0986-.1336.3911-.1475 1.1826-.2552 1.2556-.1708.0387.0446.0393.083.0014.1357-.0512.0708-.1295.1012-.7808.303-.2031.0628-.3053.1229-.3053.1792 0 .0716.0578.079.3625.0473.2322-.0247.3734-.0169.3935.0202.0172.0321.0044.0584-.0286.0584-.0327 0-.0485.0132-.0346.029.0327.0378.7244-.1296.7931-.1923.0543-.049.7672-.1755.9193-.1634.0472.0041.0856.0388.0856.0776s.0114.1047.0253.1465c.024.0722-.5723.2183-1.6001.3918-.1545.026-.3605.0857-.4578.133-.0973.0469-.2456.0853-.3298.0853-.2211.0007-.5388.1124-.4873.1715.0237.0276.321.0573.6609.0661.3396.0088.614.0203.6094.0257-.0044.005-.1166.0587-.2494.1188-.2311.1049-.2365.1123-.1308.1778.0826.051.1709.053.3535.0078.2971-.0736.3363-.0746.3363-.0085 0 .0287-.0654.0685-.1458.0891-.2671.0675-.2093.1411.1109.1411.1864 0 .375.0357.4666.0884.0927.0533.1965.0729.2617.0489.1395-.0509 2.4324-.0708 2.4054-.0202-.0567.1059.5838.1053 1.1305-.0014 1.1071-.2156 2.049-.3381 2.6565-.3459.3358-.004.8413-.0422 1.1234-.085.3715-.0535.7436-.0987 1.1164-.1357.3322-.0317.6178-.0675.635-.0796.0172-.0118.1959-.0378.3974-.0577.1791-.0173.3581-.0372.5369-.0598.1959-.0273 1.0869-.0847 1.7339-.1117.5541-.0257 1.1076-.0661 1.6603-.1211.1614-.0169.7877-.0412 1.3919-.054.6045-.0135 1.3186-.0452 1.5873-.0709.2684-.0249 1.0111-.0435 1.6508-.0405.9667.0048 1.17.0199 1.2087.0888.0392.0709.0529.0712.0899.0047.0295-.0526.0922-.0675.1884-.0455.0795.0185.1684.0057.1978-.0284.0295-.0337.1259-.0672.2145-.0736.0872-.0061.1738-.0213.2589-.0452.2927-.1002.5977-.1292.7206-.0688.0987.0486.3448-.0088.3107-.0722-.0125-.0237.2227-.0497.523-.0578.8084-.0226.8921-.0327.9837-.1204.0744-.0712.0817-.0679.067.0297-.0112.0742.0071.1032.0567.0897.0605-.0134.1217-.0205.1831-.0212.0605-.0007.1099-.0206.1099-.0446 0-.0236.0354-.0587.0787-.0779.0573-.0253.0709-.0108.0494.0533-.0202.0607-.0104.0742.031.0439.0336-.0247.2693-.0527.5247-.0625.5366-.0202.4568-.0202 2.9789-.0101 1.061.0047 2.0648-.0101 2.231-.0324.1663-.0226.3388-.0246.384-.0044.0832.0368 1.6783.1094 2.1687.0989.3831-.0084.8179.2518.5761.3449-.036.0135-.0109.0537.0611.0979.067.0405.134.0955.149.1214.054.0945.4688.1475.5863.0746.0744-.0459.2709-.0621.5802-.0486.2573.0115 1.1025.0345 1.8778.0507.7757.0165 1.4636.0452 1.529.0641.0651.0189.3423.0384.616.0432.2736.0047.5415.0371.5952.0718.0959.0625.5489.1647.6247.1411.0934-.0287.267-.0216.4251.0179.0941.0236.2151.0385.2688.0334.0536-.0051.1417-.0138.1954-.0196.0537-.0054.3063.0203.5614.0564.2551.0364.559.0658.6751.0651s.2371.023.2687.0523c.0316.0294.1289.0709.2161.0925.13.0321.1587.0219.1587-.0564 0-.0843.0403-.0911.3543-.0553.1946.0219.7056.0455 1.1351.0526.4298.0075.8999.0429 1.0447.0793.095.0254.1906.0474.2867.0662.0131 0-.0036.0381-.0371.0847s-.1352.0844-.2256.0844c-.0908 0-.1652.0108-.1652.0236 0 .0131-.0134.0641-.0294.113-.0409.1222.0967.1161.2052-.0091.0616-.0709.0907-.0786.1055-.0277.0109.0385.0403.0557.0648.0385.0246-.0175.0447-.0115.0447.0135 0 .0253.0493.0489.1099.0527.0605.0037.3954.0357.7448.0708.3489.0351 1.0523.0739 1.5628.0864.5102.0122.9828.0365 1.0498.0533.2276.0574 1.4786.1914 2.1487.2295 1.2423.0709 2.1839.2761 2.378.518.0608.0756.1679.1367.2447.1397.632.0237 1.5096.0996 1.8947.164.209.0333.4184.0612.6282.0837.1944.0205.388.0498.5806.0881.1349.0297.2534.054.263.054.0098 0 .0177-.0651.0177-.1444s.0212-.1293.0474-.1107z"/></g></svg>