<svg fill="none" height="50" viewBox="0 0 250 50" width="250" xmlns="http://www.w3.org/2000/svg"><g clip-rule="evenodd" fill="#fcc419" fill-rule="evenodd"><path d="m65.0971 49.1178c-.0732.036-.2257-.1065-.3382-.3144-.1187-.2208-.3005-.3799-.4353-.3799-.1826 0-.1972-.0321-.0693-.1508.1232-.1155.1186-.1611-.0185-.197-.1403-.0366-.1341-.0879.0292-.2419.1572-.1495.1657-.2066.0339-.2413-.0947-.0244-.1725-.0918-.1725-.1495 0-.0578.0616-.0751.1371-.0385.0778.0372.1009-.0064.0539-.1014-.0454-.0918-.0115-.1668.0755-.1668.1148 0 .1179-.0578.01-.2144-.1186-.1719-.1055-.2143.0694-.2143.1756 0 .1849-.0276.0447-.1437-.1788-.1483-.5262-.0154-.4808.1841.0116.0514-.0516.1149-.1402.1399-.1063.0308-.134-.0346-.0817-.1906.044-.1309.0232-.2117-.0462-.1803-.0685.0308-.2488.0212-.4006-.0224-.2188-.0623-.1541-.095.3105-.1566.3659-.0488.587-.1348.587-.2291 0-.0834.1202-.1514.2681-.1514.1472 0 .3529-.0944.4569-.2099.1864-.206.8891-.4877 1.1171-.4472.0647.0109.4684-.0482.8975-.1322.5427-.0999 1.0912-.1762 1.6433-.2285.4746-.0417.8976-.1193.9399-.1726.0424-.0533.2134-.0975.3798-.0988.1657-.0013.6749-.145 1.1302-.3196.4561-.1739.9338-.3176 1.0617-.3189.1286-.0013.2719-.0513.3189-.1097.047-.0591.0154-.1072-.0701-.1072-.1918 0-.1233-.4793.0701-.4903.0763-.0038.4106-.068.7435-.1411.3328-.0745.7565-.1059.9422-.0693.1849.0359.5339.0179.775-.0398.2412-.0578.7851-.1572 1.2088-.222 1.1633-.1765 1.7835-.3241 1.7835-.4236 0-.1039-7.0816-.032-8.8351.0899-.9237.0641-1.2758.0462-1.6564-.0822-.2658-.0898-.5146-.17-.5524-.179-.0385-.0083-.2504-.0738-.4722-.1444-.2219-.0712-.5016-.1001-.6218-.0641-.1194.0365-1.9568.0834-4.0832.1046-2.1255.0211-4.1448.0866-4.4861.145-.3413.059-1.3651.163-2.275.231-.9099.0693-1.7735.1745-1.9183.2348-.1456.0604-.5678.0873-.9384.0597-.3713-.0282-.708-.0083-.7488.043-.0409.0514-.1326.0655-.2034.0321-.0701-.034-.1279-.0109-.1279.0513 0 .0629-.0462.104-.104.0924-.2296-.0468-1.4145.1476-1.4145.233 0 .1046-1.0431.2785-1.4376.24-.1448-.0148-.3806.0706-.5231.1899-.1425.1187-.3652.222-.4954.2291-.1302.0064-.6086.0231-1.0647.0359-.4545.0129-1.0763.0783-1.3798.1463-.3043.0687-.7874.1515-1.074.1842-.2866.0334-.4876.1027-.4468.154.1287.1617-.178.2041-2.5763.3555-.1279.0084-.2211.061-.208.1168.0139.0558-.0994.1296-.2511.1643-.2192.0612-.4287.1442-.6241.247-.2511.1329-.7742.2041-1.8644.2535-.8328.0379-1.6579.0642-1.8336.0578-.1756-.0065-.51.0654-.7434.1591-.2404.0963-.4607.1277-.5085.0719-.1194-.1373-.6055-.2695-.4992-.1348.1125.1412-.0216.1335-.3891-.0212-.7419-.3125-4.2542-.075-4.6209.3119-.1132.12-.1256.2009-.0339.2246.0786.0205.1425.0796.1425.1322 0 .052-.087.0687-.1926.0372-.1063-.0321-.2342-.0064-.285.0571-.1333.1681.6933.1438 1.1402-.034.2049-.0815.6525-.1835.9938-.2271.3421-.043.7304-.0944.8629-.1136.1333-.0193.2419.0282.2419.1058 0 .0995.1718.1297.5863.1046.4537-.0275.5316-.0109.3428.0745-.1348.0603-.2134.1489-.1756.197.0816.1027-.6903.2066-2.1842.2932-.8397.0482-1.1132.0289-1.2057-.0847-.0878-.1071-.1209-.111-.1232-.0134-.0023.197-.8321.1649-1.1295-.0437-.1386-.0975-.2527-.1322-.2527-.0763 0 .0616-.4476.0725-1.1386.0282-.6264-.0411-1.6048-.1007-2.1741-.1328-.5701-.0321-1.2396-.1155-1.4892-.1842-.2489-.068-.6079-.1014-.7966-.0732-.1896.0276-.3829.0013-.4315-.0584-.0531-.0673-.0169-.0763.094-.023.1125.0539.1472.0449.0925-.0244-.104-.1309-.7628-.249-1.5416-.2772-.46-.0167-.5547-.0584-.5671-.2503-.0138-.2054.0817-.2387.8968-.3125.5023-.0449 1.0678-.0719 1.2573-.0591l.3452.0231-.366-.154c-.6356-.2682-1.2542-.3818-2.4638-.4504-.6456-.0366-1.577-.1457-2.0708-.242-1.1349-.2213-5.0732-.2387-5.245-.0224-.0587.0742-.1756.0989-.2697.0571-.2311-.111-2.77191-.1476-2.68485-.0398.08012.102.06009.1033-1.74576.1463-1.27503.0302-1.81278.0668-3.7211.2535-.87056.0847-1.37904.0359-1.87672-.1797-.20802-.0911-.16333-.1424.33898-.3882.40369-.1989.8983-.3151 1.64406-.3882 1.27349-.1252 2.48844-.2824 3.36363-.4364.52388-.0918.62788-.1482.57318-.3112-.03929-.1168-.14638-.1758-.2604-.1412-.10631.0315-.19337.0039-.19337-.0616 0-.0654.10786-.1193.24114-.12.20647-.0013.21186-.0167.03467-.1059-.13097-.0654-.14561-.1046-.03852-.1052.09245-.0013.13251-.0744.08782-.1636-.05547-.1123.08244-.2169.45301-.3453l.53312-.1835-1.34822-.0642c-.72418-.0355-1.44944-.0537-2.17488-.0545-.45454.0064-.82511.0051-.82511-.0026 0-.007.12327-.1245.27581-.2605.15177-.1361.27581-.2143.27581-.1746 0 .0398.14021.0013.31124-.0859.17103-.0867.77119-.2137 1.33436-.2811.5624-.068 1.26887-.1912 1.5701-.2734.3397-.0883.69154-.14 1.04699-.154.76888-.0058 2.70491-.3965 2.14561-.4331-.1354-.0138-.2698-.0331-.4029-.0578-.1481-.0263-.2963-.0522-.4446-.0776-.3158-.0539-.33586-.1579-.0446-.2298.1602-.0397.453-.1886.6517-.3317.1988-.1431.4993-.2599.6687-.2599.1695 0 .3791-.0661.4661-.1476.1295-.1206.0155-.1598-.6394-.2175-.404-.0351-.8072-.0758-1.2095-.1219-.54242-.0681-2.69881-.0584-2.84672.0128-.20031.0962-1.77889.1412-1.77889.0513 0-.0481.09322-.1469.20801-.2201.11325-.0738.20647-.1841.20647-.2457 0-.0617-.04083-.0803-.09091-.0411-.05007.0385-.17411.0167-.2758-.0488-.10247-.0661-.1849-.0738-.1849-.0173s-.09399.1027-.20801.1027c-.33128 0-.24037-.1149.21571-.2715.51233-.1764.43914-.2502-.38752-.3895-.75346-.1283-.89676-.3273-.3567-.4967.55932-.1751 3.18566-.4023 4.6872-.4055.70416-.0013 1.44456-.0347 1.64556-.0738l.3668-.0712-.393-.2503c-.2172-.1373-.4992-.2515-.6271-.2535-.3274-.0058-.42678-.1758-.2511-.4306.1849-.2695 1.3859-.7527 1.8682-.7527.2034 0 .3213-.0462.2728-.1071-.047-.0591-.1996-.1072-.339-.1072-.2335 0-.4931-.2676-.4422-.4556.0523-.1912-2.13794.0225-2.3213.2265-.14022.1553-3.66563.5628-4.01154.4627l-.33051-.0943.32126-.1335c.17643-.0738 1.32357-.2631 2.54853-.4223 2.2419-.29 2.78816-.4947 1.31895-.4947-.45147 0-.86672-.0616-1.00154-.1476-.1926-.1232-.45763-.1264-1.57627-.0205-2.057.195-3.25114.3292-3.53157.3959-.18567.0443-.24191.0128-.20801-.1181.05084-.1899.47765-.4126 1.14791-.5987.57627-.1598.21803-.3003-.51926-.204-.31972.0423-.86055.1103-1.20184.152l-.62173.0751.51772-.385c.28506-.2118.51772-.4023.51772-.4235s-.38521-.0725-.85516-.1136c-1.114787-.0982-1.70954657-.3401-1.70198886-.6924.00399849-.1861.89767886-.4344 1.72818886-.4813.34206-.0199 1.11941-.1123 1.72649-.2059.60709-.0937 1.53929-.1926 2.07087-.2189.60081-.0326 1.19969-.0864 1.79507-.161 2.82821-.3857 3.46451-.4813 3.58701-.5352.0748-.0334-.1425-.1136-.483-.1778-.3429-.0648-.61943-.1796-.61943-.2579 0-.1803 1.39133-.5724 2.65403-.7476.6141-.0853 1.0686-.2118 1.2173-.3401.1333-.1142.5955-.258 1.0524-.3279 1.0377-.1585 1.0092-.3093-.1179-.6327-.2411-.0693-.4114-.1816-.3775-.2503.0786-.1546.718-.3914 1.0601-.3914.141 0 .218-.0488.171-.1072-.0462-.059-.547-.1078-1.1124-.1078-.9307 0-1.3044-.1091-.8552-.2503.4029-.1264-1.6117-.0577-2.6071.088-1.23881.1822-1.91369.1058-1.91369-.2157 0-.1488.36132-.3433 1.35589-.7321.9361-.3664 1.2982-.5583 1.1726-.6212-.2388-.1193-.0031-.2419.923-.4793 1.3066-.3356 2.3436-.8971 2.2072-1.1968-.0925-.2041.4168-.3157 2.5216-.5519 1.0454-.1174 2.0932-.2875 2.3274-.3786.2342-.0898.7303-.1925 1.1024-.2278 1.0262-.0956 2.9892-.4812 3.2959-.6474.1494-.0809.4599-.1508.6903-.1553.2295-.0039.5416-.0488.6933-.0995.2204-.0732.1641-.095-.2758-.1078-1.1764-.034-1.8012-.1239-1.9568-.2824-.1063-.1084-.2728-.1411-.4831-.0962-.2766.0577-.2866.0513-.077-.0513.134-.0649.3521-.1046.483-.088.1457.015.2935-.0057.4253-.0596.1094-.0533.3243-.0321.5262.0513.265.1104.3975.1136.6009.0148.1657-.0803.2928-.088.3452-.0219.0462.0578.4376.1066.869.1091.4322.002.9414.0725 1.131.1566.4137.1835.5523.197.5523.0539 0-.059-.097-.1072-.2157-.1072-.1178 0-.181-.0429-.1387-.0949.0409-.0526-.0546-.1219-.2141-.154-.1587-.0321-.262-.122-.2288-.1996.0608-.1431.6787-.2272 2.5916-.3517 1.7281-.1129 2.2088-.1732 2.2088-.2785 0-.0558-.0924-.1007-.2072-.1007s-.2065-.0956-.2065-.2143c0-.1572.0924-.2144.3451-.2144.3968 0 .4646-.1655.0979-.2399-.1356-.0276-.8344-.0244-1.5532.007-2.0916.0918-2.9291.0616-3.3667-.1226-.2226-.0936-.4437-.1508-.493-.1276-.0486.0237-.0624-.0931-.0309-.2593.0686-.3619-.1263-.4184-1.5431-.4492-.8482-.018-.9145-.034-.6194-.1527.4854-.1951 2.2642-.4749 3.3251-.5236.5424-.0251 1.0539-.113 1.2381-.2131.3929-.213.6286-.2162.8936-.0102.1194.093.4523.1604.7843.1585 1.0231-.0039 4.8405-.3055 5.359-.4236.4838-.1091.4985-.127.3968-.4787-.0647-.2214-.0501-.4087.0362-.4761.0986-.077.0947-.1566-.0131-.2573-.3298-.3087.0894-.3722 2.104-.3209 1.5655.0404 2.0539.0186 2.3713-.1071.3359-.1335 1.8513-.317 2.8852-.3498.1518-.0051.5863-.052.9661-.1046l.6903-.0962-.6209-.0777c-.3421-.043-1.3668-.0532-2.2782-.0231-.9659.0309-1.9324.0444-2.899.0405-.6834-.0084-2.0185.0641-2.9677.1604-1.8782.1899-3.8151.3228-4.6486.3189-.2905-.0013-.5678.0398-.6148.0911-.0478.0514-.2812.0995-.5177.1072-.2373.0077-.4315.0539-.4315.1027 0 .0487-.1394.0577-.3105.0205-.2434-.0526-.2657-.043-.1032.0449.178.0969.1734.113-.0347.1142-.1332.0013-.2419.0552-.2419.1213 0 .0732-.1309.0526-.3397-.0539-.3775-.1925-.5439-.222-.4291-.0776.0416.0519-.0478.12-.1988.1508-.1572.0321-.2743.0025-.2743-.0687 0-.0719-.218-.1238-.5177-.1238-.329 0-.5062.0468-.4854.1289.0224.0886-.1271.113-.4776.0783-.5747-.0577-1.1418-.3067-1.1448-.5043-.0016-.0848-.0501-.0738-.1356.0288-.104.1252-.1341.0937-.1364-.1411-.0023-.3863.225-.7162.4946-.7162.1156 0 .1718-.0481.1248-.1071-.0462-.0591.027-.1111.1641-.1155.4546-.0155.7442-.0803 1.0516-.2368.2758-.1399.9245-.086.9245.077 0 .0295-.084.0288-.1849-.0013-.1024-.0302-.2727.0289-.3798.1309-.1679.1604-.1679.1732.0015.095.1503-.0706.1734-.0469.0987.1046-.0586.1174-.0262.2316.0801.2842.2642.1297.4861.1053.2465-.0276-.1564-.0859-.0763-.1001.3228-.0571.2928.0321.6425.0026.7828-.0648.191-.093.3004-.0911.4545.0077.1626.1053.2227.0937.3082-.0597.0593-.1052.0978-.2265.0855-.2708-.0116-.0449.0662-.0808.1741-.0808s.2188-.0552.2481-.1219c.0293-.0681.235-.138.4576-.1566.2234-.0186.4746-.1072.5593-.1977.0848-.0898.2042-.1283.2658-.0847.0616.043.0732-.0064.0254-.109-.1063-.2311.1572-.2529.2712-.0225.0724.1469.1117.145.3405-.016.245-.1727.2597-.1714.262.0218.0015.1713.0231.1784.1356.0436.1995-.24.171-.292-.1988-.3638-.2342-.0462-.3297-.1348-.3143-.292.0239-.2503.5046-.437 1.0593-.412.5162.0238.9723-.1142.9723-.2945 0-.1155.1371-.1495.5177-.1284.5562.0321 1.4923-.0885 1.8289-.2355.1672-.0725.1541-.0917-.0693-.0988-.3224-.0145-.6445-.0337-.9661-.0577-1.1741-.086-2.735-.0835-3.2989.0051-.386.061-.51.0507-.4415-.0366.0601-.0744.0232-.0988-.097-.0629-.114.034-.2974-.0641-.443-.2374-.1772-.2105-.2003-.3067-.0817-.3375.1117-.0289.0848-.0931-.0824-.1945-.2273-.1386-.2126-.1469.1649-.0962.228.0308.3366.0276.2419-.0064-.3498-.1284-.1572-.2606.3798-.2606.3482 0 .5524.0494.5547.1348.0008.0982.0323.095.1202-.0122.0747-.0911.151-.1046.2057-.0359.0924.1161.2681.1071.6995-.0366.1479-.0488.473-.0924.7226-.0963.5725-.009.7581-.2753.1927-.2753-.2242 0-.4299-.0699-.4746-.16038-.054-.10909.0061-.16107.1849-.16107.1464 0 .3151-.06032.3752-.13475.1587-.19187.7211-.41903.8659-.34973.0678.03209.1618.01027.2096-.05005.0477-.05968.2581-.10909.4676-.10909.2096 0 .7188-.07829 1.131-.1739.651-.15144.7088-.18609.4437-.2631-.1695-.04941-1.3212-.08342-2.5616-.07507-1.2404.00834-2.3367-.02439-2.436-.07187-.1025-.04942-.2211-.0353-.2743.03208-.1109.13925-4.4029.24513-4.5092.11101-.0378-.04684-.1649-.05711-.2828-.02181-.1448.04299-.1641.08791-.0585.13796.0847.04107-.0339.07444-.2651.07444-.2311 0-.4191-.04556-.4191-.10267 0-.05583-.0947-.04107-.2103.03336-.1155.07508-.2542.10139-.3081.05968-.0547-.04171.0554-.16748.2442-.27914l.3428-.20277-.3451.05133c-.302.04492-.3105.03915-.0694-.05005.3983-.14759 1.0532-.13155 1.4368.03337.3737.16042.8413.1078.8413-.09561 0-.09369.2728-.1354.8976-.13797.5624-.00257.8975.03979.8975.11358 0 .06481.077.0385.1726-.05775.124-.12706.4984-.19508 1.3459-.24449.6448-.0385 1.5655-.13732 2.0447-.2201.4792-.08342 1.0693-.15593 1.3112-.16171.2419-.00577.7512-.07636 1.1302-.15657.6472-.13733.5747-.1431-1.1733-.08792-1.0247.03209-1.9569.05904-2.0709.06032-.1133.00065-1.5424.11487-3.1741.25283-1.6333.13861-3.4129.26631-3.9553.28428-.5432.01796-.9584.06866-.9245.11293.0354.04492-.2042.08086-.5316.08086-.3266 0-1.1533.07059-1.8367.15593-1.1718.14631-3.9283.29775-3.5539.19444.0956-.02567.1387-.09177.0956-.14567-.0432-.0539.0963-.1001.3097-.10267.2134-.00321.6047-.0969.8705-.20855.2658-.1123.6079-.24898.7597-.30353.4992-.18096 8.6409-1.22692 10.5608-1.35719.5693-.0385 2.2157-.16556 3.6579-.28235 1.443-.11678 3.3467-.25924 4.2311-.31635.8845-.05776 1.9076-.1739 2.2727-.25925.48-.1123.6903-.12192.7597-.03593.087.10908 1.5393.07957 3.2973-.06802.6206-.04309 1.2419-.07903 1.8637-.10781 1.3621-.06609 3.4376-.28876 4.5993-.49282.3282-.05776.6549-.07701.7258-.043.0716.03465 1.0331-.04427 2.1379-.1739 1.6332-.19251 2.067-.21176 2.3235-.10524.2589.10781.5902.08984 1.8221-.09882 2.0508-.31443 4.7272-.72255 6.0616-.92404.6071-.09241 1.4892-.23615 1.9607-.32021.4715-.08342 1.0616-.15144 1.3112-.15144.2504 0 .7342-.06866 1.0763-.15401.5755-.1431 1.755-.3016 4.9006-.66031 1.2012-.12993 2.398-.28613 3.5893-.46844.7589-.11165 2.0016-.28234 2.7612-.37924l1.7951-.23101c1.6109-.206628 1.9183-.202778 2.2388.02888.1726.12448.3143.28106.3143.34844 0 .06673.0462.1155.1033.10909.057-.00706.2465-.00706.4191 0 .2642.01026.2927.04492.1772.21304-.1688.24513-.0332.37732.2195.21433.2851-.18353.2196-.01861-.1078.274-.1718.15337-.5162.29069-.8344.3324-.463.06096-.5162.09433-.3675.23358.2227.20855.0347.22139 8.8806-.60961.6071-.05776 1.6949-.12706 2.416-.15529.7211-.02888 2.0262-.10268 2.8991-.16428.8728-.06224 2.0219-.13219 2.5539-.15593.532-.0231 1.212-.09241 1.512-.15337s1.491-.11422 2.647-.11743c1.155-.00385 2.183-.02823 2.284-.05454.248-.06481 3.483-.19636 4.253-.17326.34.01091.714.08599.83.16748.26.18289.922.20085 4.004.11102 1.417-.04171 2.717-.13604 3.144-.22845.558-.12064 1.482-.15401 3.935-.14117 1.763.01027 4.697-.01925 6.519-.06353 3.692-.089838 3.495-.091121 7.316.03786 2.474.08342 3.902.08663 6.074.01476.38-.01284.582-.04492.449-.07187s-.241-.099464-.241-.161067c0-.073796.387-.091122 1.138-.050053.627.034652 2.506.111656 4.176.17133 1.671.05968 3.813.1585 4.763.21818 3.813.24385 5.267.32919 7.248.42737 4.952.24577 7.563.34331 10.284.38502 1.253.01989 2.806.06866 3.451.10909.712.042 1.426.06298 2.14.06289.531-.00514 1.587.0385 2.346.09625.76.05775 3.218.12642 5.465.15272 2.246.02567 4.358.09369 4.693.15145.336.05775 1.098.1309 1.695.16235.597.03208 1.279.08342 1.518.11358.817.10395 2.091.1739 3.955.21817 1.64.03979 3.235.13412 5.59.33112.38.03208.908.07059 1.174.08727s.949.06096 1.518.09882c.57.0385 1.533.09818 2.14.13476.608.03593 1.135.08021 1.173.09818.039.01861.423.06224.855.09818.432.03529.876.09176.986.12513.112.03273.753.07444 1.425.09176 1.845.04877 1.843.04813 1.843.22139 0 .08855.065.16042.146.16042.08 0 .1-.05582.046-.12513-.068-.08534-.023-.10267.141-.05326.133.03914.378.07187.546.07187.205 0 .311.0693.325.21433.024.25668-.05.26823-.327.05326-.289-.2246-.612-.20727-.515.02695.047.11551.033.14117-.039.06802-.079-.0815-.468-.0969-1.221-.04813-1.296.08342-2.273.06096-4.072-.09625-.721-.06353-1.654-.14118-2.071-.17262-.418-.03208-.832-.07636-.921-.09882-.088-.02246-.197.03208-.241.12192-.059.12064-.19.14374-.505.08984-.495-.08406-.812-.11615-2.13-.21433-.531-.03978-1.003-.08983-1.048-.11165-.097-.0462-1.943-.05391-4.473-.01925-1.605.0231-2.737-.03851-3.581-.1938-.476-.08727-3.805-.12513-3.805-.04299 0 .04235.42.11166.933.15401.511.04299 1.055.09625 1.207.12 1.065.16299 3.917.34651 6.212.39785.531.01283 1.032.05518 1.112.09497.134.06609 4.361.32213 4.588.27785.054-.0109.564.01412 1.133.05583.881.06353 3.129.19187 3.693.21048.204.00642.228.14502.041.23486-.134.06417-1.175.07957-2.117.0308-.287-.0154-.573-.09112-.634-.16876-.084-.1046-.322-.12193-.927-.06867-.449.04043-.856.09241-.907.11551-.051.02374-.187-.03016-.302-.12-.116-.08984-.243-.12128-.283-.07058-.078.09753-2.864.05582-3.672-.05519-.265-.03658-.734-.077-1.04-.08855-.307-.01284-.695-.07893-.863-.14888-.244-.10139-.305-.09818-.305.01604 0 .08471-.185.15465-.449.17134-1.091.06866-2.619.06224-3.831-.01605-.871-.05646-1.243-.04941-1.108.02118.544.28235-.477.42224-2.067.28235-1.41-.12449-1.661-.13091-2.27-.05904-.315.03722-.755.02952-.98-.01732-.591-.12321-3.664-.34075-5.033-.35679-.691-.00947-1.381-.03858-2.07-.08727-.493-.04043-1.487-.09818-2.209-.12834-1.266-.06048-2.532-.13129-3.796-.2124-1.505-.09376-3.011-.17034-4.518-.22973-1.821-.06417-2.041-.0539-2.121.10652-.074.15209-.315.17775-1.625.1739-.846-.00256-1.818.03465-2.159.08214l-.621.08727 1.036.11936c.569.06609 1.252.11871 1.517.11679.267-.00193 1.354.07187 2.416.16299 1.063.09112 3.082.2201 4.487.28555 1.405.0661 2.692.1431 2.861.17134.169.02823 1.567.09818 3.106.15593 2.767.10267 4.706.18738 6.181.26823.418.0231 1.851.09048 3.183.15016 1.334.05967 2.514.13026 2.624.15657.109.02567.323.08406.474.12834.152.04492.516.09497.808.11101.291.01669.602.10653.69.20021.127.13476.487.17519 1.747.19765.873.0154 1.649.05775 1.725.09369.076.03593.604.09433 1.174.12834 2.721.16555 5.443.30031 6.694.33111.76.01861 2.376.11807 3.591.22075 1.214.10267 2.767.20341 3.451.22331 4.729.13475 8.506.30609 10.491.47357.683.05775 1.881.13604 2.661.1739.781.0385 1.453.11037 1.493.16042.04.0507-.133.09626-.384.10075s-.632.01861-.847.0308c-.214.01155-.416-.01219-.45-.0539-.033-.04107-.289-.02567-.57.03401-.285.06096-.909.07829-1.413.0385-.497-.0385-3.141-.08984-5.874-.1123-2.733-.0231-5.995-.07315-7.247-.11165-2.234-.06738-2.866-.02567-1.402.0924.407.03209.769.08278.806.11102.099.077-.406.26566-.825.3093-.488.05133-.642.18673-.225.19892.184.00449 1.142.05391 2.129.10909.987.05455 2.927.12834 4.314.16299 2.277.05776 2.519.0815 2.519.25087 0 .2362.555.292 3.905.3921 1.35.0404 2.488.1142 2.528.1643.039.0494.344.0898.677.0898 1.134 0 .816.2965-.578.5378-.393.068-.921.1148-1.173.1039-1.681-.0725-1.24.1386.646.3093.76.0687 1.815.1476 2.347.1765.531.0289 1.494.1001 2.14.1591.645.0584 1.949.1386 2.899.1771 1.169.0482 1.77.1162 1.864.2118.076.077.568.1713 1.104.2098.531.0385 1.028.1284 1.104.2009.076.0719.592.1636 1.146.2034.555.0398 1.148.1431 1.317.2297.196.0995.793.1746 1.616.2047 1.773.0642 3.163.1848 3.24.2817.081.1014-1.128.2471-1.313.1579-.077-.0366-.139-.0205-.139.0353s.217.1328.483.172c.525.0763.624.2098.242.3247-.451.136.18.351 1.599.5454 1.192.1624 1.946.3639 1.396.3728-.516.0084.281.1977 1.11.2631.493.0398.968.1181 1.056.1752.089.0565.553.1521 1.034.2124 1.334.1669 1.32.3016-.042.3844-.508.0308-.973.1226-1.113.2201-.196.136-.436.1527-1.311.0892-1.78-.129-2.133-.104-2.4.1707-.131.1347-.211.2785-.178.3202.033.0411.478.1091.99.1502.512.041.992.1122 1.069.1591.075.0462.433.1181.793.1598.99.1142.787.2656-.357.2656-.556 0-1.059.0366-1.117.0809-.057.0443-.636.0802-1.286.0802-.822 0-1.201.0411-1.241.1341-.041.0918.107.1341.47.1348.291 0 .747.0449 1.012.0988.266.0539 1.009.1283 1.652.1662.642.0372 1.238.1129 1.324.1681.085.0552.192.0719.236.0379.044-.0347.225-.0225.401.0263.248.0687.101.1046-.645.1572-.88.0623-1.885.2188-2.416.3767-.337.1001.187.2105 1.76.3696.778.0789 1.415.172 1.415.2066 0 .0353.404.0437.898.0193.721-.0353.896-.0135.896.1123 0 .1944-.436.5121-.701.5101-.161-.0013-.16-.0192.011-.1059.177-.0885.171-.1039-.038-.1052-.136-.0013-.283.0732-.329.1649-.069.1412-.319.1579-1.687.1098-1.712-.0597-2.134.0115-1.818.3067.528.4941 2.684 1.0254 4.166 1.0254.896 0 1.363.1296 1.363.3786 0 .1245-.221.1566-1.07.154-.588-.0006-1.318-.0526-1.622-.1148-.304-.0623-1.735-.1348-3.18-.1617-2.555-.0469-2.628-.0424-2.649.1668-.02.2066.149.3549.445.3921.076.0096.672.0956 1.324.1912 2.134.3119 4.028.5025 5.967.5987 1.796.0898 2.409.2124 2.224.446-.043.0533-.137.068-.21.0334-.072-.0347-.115 0-.094.0789.022.0783-.069.1347-.202.127-.132-.0083-.21.0225-.173.0687.036.0456-.145.1142-.403.1514-.557.0815-.689.2747-.404.5911.152.1687.169.2695.06.3709-.178.1662-.061.2797.285.2797.141 0 .255.0206.255.045 0 .025.04.1283.091.231.084.17-.008.1796-1.139.1135-.677-.0385-1.464-.0994-1.749-.1347-.411-.0507-.517-.0295-.517.1039 0 .0918-.1.2105-.223.2638-.315.1373-.126.7553.27.8791.284.0892.285.0943.022.1078-.276.0141-.276.0141 0 .1065.27.0899-.107.1284-1.519.1553-.588.0109-1.034.1553-1.034.3343 0 .0963-.144.1541-.38.1553-.234.0033-.466.0256-.694.0668-.294.0609-.299.0738-.069.2092.135.0795.414.1456.622.1476.208.0019.788.1726 1.289.3786.505.2085 1.111.3754 1.362.3754.836 0 2.142.1366 2.078.2175-.036.0443.041.0731.171.0654.131-.0067.249.0644.283.1701.063.2361-.752.6423-1.173.5852-.167-.0231-.328.0109-.355.0751-.065.1514-1.677.1944-2.321.0616-.273-.0565-1.687-.1155-3.14-.1315-2.458-.027-3.183.0276-2.264.1713.208.0321.659.1078 1.001.1681.398.0653.802.1033 1.208.1136.322.0026.586.0533.586.1123 0 .0584.098.1072.216.1072.12 0 .345.0526.501.1174.28.1168.279.1193-.044.2445-.567.2194-.391.4261.561.6609.488.1207.917.2901.952.3754.036.086.12.1842.187.2182.211.1078-.042.4383-.281.367-.121-.0359-.181-.0352-.135.0007.047.0359-.071.1874-.263.3362-.252.1951-.511.2753-.939.2882-.325.0096-.566.0487-.535.0879.031.0385-.539.0462-1.265.0173-1.056-.0424-1.368-.0199-1.553.1097-.257.181-1.613.2554-2.32.1277-.27-.0487-.467-.034-.526.0398-.052.0648-.24.1181-.419.1181-.416 0-.763.1027-.763.2259 0 .0526.09.0962.2.0962.111 0 .253.0725.318.1624.072.1007.612.2374 1.422.3593 1.595.2413 2.769.6096 2.658.8342-.046.0879-.166.1311-.274.0988-.108-.032-.162-.0154-.12.0385.043.0527-.085.2471-.285.4306-.266.2458-.434.3157-.639.2657-.154-.0385-.243-.025-.2.0289s-.138.1026-.402.1091c-.264.0051-.917.093-1.449.1944l-.969.1842.308.2554c.169.1398.366.2547.436.2547.071 0 .341.0783.602.1746.454.1674.465.1848.264.4235-.133.1565-.159.2733-.071.315.036.017.062.046.072.0797.01.0338.002.0694-.022.0981-.057.0719-.131.0597-.209-.034-.079-.0943-.158-.1072-.225-.0359-.057.0596-.289.179-.517.2643l-.415.1553.437.036c.473.0397.726.3144.384.4171-.116.0346-.245.0359-.288.0032-.041-.0321-.282.0314-.535.1411-.313.1272-.644.2204-.985.2773-.288.0423-.608.1411-.71.2207-.242.188-.337.1842-1.619-.0706-1.152-.2291-1.477-.2073-1.949.1284-.266.1886-.373.1976-1.095.0943-.946-.1361-2.728-.1534-2.627-.0257.039.0488.524.1489 1.078.2227 1.411.1867 1.57.2271 1.338.3382-.401.1925 1.397.6481 3.155.7982.475.0405.894.1117.93.1579.037.0462-.063.213-.223.3702-.267.2638-.272.3004-.067.4762.122.1052.222.2175.222.2503 0 .1321-2.337-.0584-3.105-.2542-1.106-.2804-3.343-.4851-3.55-.3247-.109.0847-.111.1579-.003.258.144.1348.366.1925 2.207.5762.574.1194.863.2336.863.3408 0 .136-.164.1501-1.025.0898-.656-.0468-1.055-.0321-1.112.0385-.049.061-.013.111.08.111s.138.0251.098.0552c-.092.0719-2.047-.2464-2.242-.3657-.153-.0931-2.168-.3337-2.598-.3106-.134.0077-.242.0738-.242.1476s-.033.1989-.072.2785c-.068.1373 1.618.4151 4.523.745.437.0494 1.02.163 1.295.2528.275.0892.694.1624.932.1624.625.0012 1.523.2136 1.377.3259-.067.0527-.907.1091-1.868.1258-.96.0167-1.736.0385-1.723.0488.013.0096.33.1116.705.2259.654.1995.669.2136.37.3381-.233.0969-.483.1008-.999.0148-.84-.1399-.951-.1418-.951-.016 0 .0545.185.1302.412.1694.755.1283.592.2682-.313.2682-.527 0-1.06.068-1.319.1681-.262.1014-.556.1386-.74.0931-.394-.0969-6.876-.1348-6.799-.0385.16.2015-1.651.2002-3.196-.0026-3.129-.4101-5.792-.643-7.509-.6577-.949-.0077-2.379-.0803-3.176-.1618-1.05-.1017-2.102-.1877-3.156-.2579-.939-.0603-1.746-.1284-1.795-.1515-.048-.0224-.554-.0718-1.123-.1097-.506-.0328-1.012-.0706-1.518-.1136-.554-.0519-3.072-.161-4.901-.2124-1.566-.049-3.131-.1258-4.693-.2303-.456-.0321-2.227-.0783-3.935-.1027-1.709-.0257-3.727-.086-4.487-.1348-.759-.0475-2.858-.0827-4.666-.077-2.733.009-3.307.0379-3.417.1688-.111.1347-.149.1354-.254.009-.083-.1001-.261-.1284-.532-.0867-.225.0353-.477.011-.56-.0539-.083-.0641-.356-.1277-.606-.1398-.247-.0118-.491-.0405-.732-.086-.827-.1906-1.69-.2458-2.037-.1309-.279.0924-.975-.0167-.878-.1374.035-.0449-.63-.0943-1.479-.1097-2.285-.043-2.521-.0622-2.78-.2291-.21-.1354-.231-.129-.19.0565.032.1412-.02.1963-.16.1707-.171-.0255-.344-.0391-.518-.0404-.171-.0013-.31-.0392-.31-.0848 0-.0449-.1-.1116-.223-.1482-.161-.0481-.2-.0205-.139.1014.057.1155.029.1412-.088.0834-.095-.0468-.761-.1001-1.483-.1187-1.517-.0385-1.291-.0385-8.421-.0192-2.999.0089-5.836-.0193-6.306-.0616-.47-.043-.958-.0469-1.086-.0084-.235.07-4.744.2079-6.13.188-1.083-.016-2.312.4787-1.629.6558.102.0257.031.1021-.172.1861-.19.077-.379.1816-.422.2311-.152.1796-1.325.2804-1.657.1418-.21-.0873-.766-.1181-1.64-.0924-.727.0218-3.116.0654-5.308.0962-2.193.0315-4.137.086-4.322.1219-.184.036-.968.0732-1.741.0822-.774.009-1.531.0706-1.683.1367-.271.1187-1.551.3131-1.766.2682-.264-.0546-.755-.0411-1.201.034-.266.0449-.608.0732-.76.0635-.152-.0096-.401-.0263-.552-.0372-.152-.0103-.866.0385-1.588.1072-.721.0693-1.58.1251-1.908.1238s-.67.0437-.759.0995c-.09.0558-.365.1347-.611.1758-.368.061-.449.0417-.449-.1072 0-.1604-.114-.1732-1.001-.1052-.55.0417-1.995.0866-3.209.1001-1.215.0141-2.544.0815-2.9531.1508-.2687.0482-.539.0902-.8105.1258-.037 0 .01.0725.1048.1611.0948.0885.3821.1604.6379.1604.2565 0 .4669.0205.4669.0449 0 .025.0377.1219.0832.215.1155.2323-.2735.2207-.5802-.0174-.1741-.1347-.2565-.1495-.2981-.0526-.0308.0732-.114.1059-.1834.0732-.0693-.0334-.1263-.0218-.1263.0256 0 .0482-.1394.0931-.3105.1001-.171.0071-1.1179.0681-2.1055.1348-.9862.0667-2.9746.1405-4.4176.1643-1.4422.0231-2.7781.0693-2.9676.1014-.6433.1091-4.1795.3638-6.074.4363-3.5115.1348-6.1733.5249-6.7218.985-.1718.1438-.4746.2599-.6918.2657-1.7866.0449-4.2674.1893-5.356.3119-.5905.0632-1.1826.1163-1.7758.1591-.5493.0388-1.0966.0947-1.6409.1675-.3814.0564-.7165.1026-.7435.1026-.0277 0-.0501-.1238-.0501-.2746s-.0601-.2458-.134-.2105z"/><path d="m170.549.41449c.068-.030701.209.091008.313.268637.109.188595.277.324563.402.324563.169 0 .182.02741.064.12883-.114.09869-.11.13761.017.16831.13.03125.124.07511-.027.20669-.145.12774-.153.17653-.031.20614.087.02083.159.07839.159.12774 0 .04934-.057.06414-.127.03289-.071-.0318-.093.00548-.049.08662.042.0784.01.14254-.07.14254-.106 0-.109.04934-.009.18311.109.14693.097.18312-.065.18312s-.17.02357-.041.1228c.165.12664.487.01316.445-.15734-.011-.04386.047-.09814.129-.11952.098-.02631.124.02961.076.16283-.041.11184-.022.18092.042.15406.064-.02632.23-.0181.371.01918.202.05318.142.08114-.287.13377-.339.04167-.543.11513-.543.19572 0 .07127-.111.12939-.248.12939-.136 0-.326.08059-.422.17927-.172.17599-.822.41666-1.033.38213-.059-.00932-.433.04111-.829.11293-.502.08533-1.009.15048-1.519.19518-.439.03563-.83.10197-.869.14747-.039.04551-.197.08334-.351.08443-.153.0011-.624.12391-1.044.27303-.422.14857-.864.27137-.982.27247-.119.0011-.251.04386-.295.09375-.043.05044-.014.09156.065.09156.178 0 .114.40953-.065.41885-.07.00329-.379.05811-.687.12061-.307.0636-.699.09046-.871.05921-.171-.0307-.493-.01535-.716.03399-.223.04935-.726.13432-1.117.18969-1.076.15077-1.649.27686-1.649.36184 0 .08881 6.546.02741 8.167-.07675.853-.05483 1.179-.03948 1.531.07017.245.07676.475.14529.51.15296.036.00713.232.06305.437.12335.205.06086.463.08553.574.05483.111-.03125 1.809-.07127 3.774-.08937 1.965-.01809 3.831-.07401 4.147-.1239.315-.05044 1.262-.13925 2.103-.19736.841-.05921 1.639-.14912 1.773-.20066.134-.05153.525-.07456.867-.05098.343.02412.655.00712.692-.03674.038-.04385.123-.05592.188-.02741.065.02906.118.00932.118-.04386 0-.05373.043-.08881.097-.07894.212.04002 1.307-.1261 1.307-.19902 0-.08936.964-.23793 1.329-.20504.134.01261.352-.0603.483-.16228.132-.10142.338-.18968.458-.19571.12-.00549.563-.01974.984-.03071.42-.01096.995-.06688 1.276-.125.281-.05866.727-.12938.992-.15734.265-.02851.451-.08772.413-.13158-.119-.13816.165-.17434 2.381-.30372.119-.00713.205-.05208.193-.09978-.013-.0477.092-.11075.232-.14035.202-.05233.396-.1232.577-.21107.232-.11349.715-.17434 1.723-.21656.77-.03234 1.532-.05482 1.695-.04934.162.00548.471-.05592.687-.13596.222-.08224.426-.1091.47-.06141.11.11733.56.23026.461.11513-.104-.12061.02-.11403.36.0181.686.26699 3.932.06414 4.271-.26645.105-.10252.116-.17159.031-.19188-.072-.01754-.131-.06798-.131-.11294 0-.04441.08-.05866.178-.03179.098.02741.216.00547.263-.0488.123-.14364-.641-.12281-1.054.02906-.189.06962-.603.15679-.918.19407-.317.03673-.675.0806-.798.09704-.123.01645-.223-.02412-.223-.09046 0-.08497-.159-.11074-.542-.08936-.42.02357-.492.00932-.317-.0636.124-.05153.197-.12719.162-.1683-.075-.08772.638-.17654 2.019-.25055.776-.04112 1.029-.02467 1.114.07237.081.09155.112.09484.114.01151.002-.16831.769-.1409 1.044.03728.128.08333.234.11294.234.06524 0-.05263.413-.06195 1.052-.02412.579.03509 1.483.08607 2.01.11348s1.145.09869 1.376.15735c.23.05811.562.08662.736.0625.176-.02358.354-.0011.399.04989.049.05756.016.06524-.087.01973-.104-.04605-.136-.03837-.085.02084.096.11184.705.21271 1.425.23684.425.01425.513.04988.524.21381.013.17543-.076.20395-.829.26699-.464.03838-.987.0614-1.162.05044l-.319-.01974.338.13158c.588.22916 1.159.3262 2.277.38486.597.03125 1.458.12445 1.915.20669 1.048.18914 4.689.20395 4.847.01919.055-.06339.163-.08454.25-.0488.213.09485 2.562.1261 2.481.034-.074-.08717-.055-.08827 1.614-.125 1.178-.02577 1.675-.05702 3.439-.21656.805-.07236 1.275-.0307 1.735.15351.192.07785.151.12171-.313.33168-.373.16996-.831.26919-1.52.33169-1.177.10691-2.3.24122-3.109.3728-.484.0784-.58.12665-.53.2659.037.09978.136.15022.241.12061.098-.02686.179-.00329.179.05263s-.1.10197-.223.10252c-.191.0011-.196.01426-.032.09046.121.05592.134.08936.035.08991-.085.0011-.122.0636-.081.13981.051.09594-.076.1853-.419.29495l-.492.15679 1.246.05483c.669.03037 1.34.04591 2.01.0466.42-.00548.763-.00439.763.00219 0 .00603-.114.10636-.255.22258-.14.11623-.255.18312-.255.14913 0-.034-.13-.0011-.288.07346-.158.07401-.713.18256-1.233.24013-.52.05811-1.173.16338-1.451.23355-.314.07543-.64.11964-.968.13158-.711.00493-2.5.33881-1.983.37006.125.0118.249.02827.372.04934.137.02251.274.04462.411.06633.292.04606.31.13487.041.19628-.148.03399-.418.16118-.602.28343-.184.12226-.462.22204-.618.22204-.157 0-.351.05647-.431.1261-.12.10307-.014.13651.591.18585.373.02999.746.06472 1.118.10417.501.05811 2.494.04989 2.631-.01097.185-.08223 1.644-.12061 1.644-.04386 0 .04112-.086.12555-.192.18805-.105.06305-.191.15734-.191.20997s.038.06854.084.03509c.047-.03289.161-.01425.255.04167.095.05646.171.06305.171.0148 0-.04824.087-.08772.192-.08772.307 0 .223.09814-.199.23191-.474.15076-.406.21386.358.33276.697.1097.829.2796.33.4244-.517.1496-2.945.3437-4.332.3464-.651.0011-1.336.0296-1.522.0631l-.338.0608.363.2139c.201.1173.461.2149.579.2165.303.0049.395.1502.232.3679-.17.2302-1.281.6431-1.726.6431-.188 0-.297.0394-.252.0915.043.0505.184.0916.313.0916.216 0 .456.2286.409.3892-.049.1634 1.976-.0192 2.145-.1935.13-.1327 3.388-.4808 3.708-.3953l.306.0806-.297.114c-.163.0631-1.224.2248-2.356.3608-2.072.2478-2.577.4227-1.219.4227.417 0 .801.0526.926.1261.178.1052.423.108 1.457.0175 1.901-.1666 3.005-.2812 3.264-.3382.171-.0379.223-.011.192.1008-.047.1623-.441.3525-1.061.5115-.533.1365-.201.2566.48.1744.295-.0362.795-.0943 1.111-.13l.574-.0641-.478.3289c-.264.181-.479.3438-.479.3619s.356.0619.791.097c1.03.0839 1.58.2906 1.573.5916-.004.159-.83.3711-1.597.4111-.317.017-1.035.096-1.596.176-.561.0801-1.423.1645-1.914.187-.556.0279-1.109.0738-1.659.1376-2.615.3295-3.203.4112-3.316.4572-.069.0285.132.0971.447.1519.316.0554.572.1535.572.2204 0 .154-1.286.489-2.453.6387-.568.0729-.988.1809-1.125.2905-.123.0976-.551.2204-.973.2802-.959.1354-.933.2642.109.5406.223.0592.38.1551.349.2138-.073.1321-.664.3344-.98.3344-.13 0-.201.0417-.158.0916.043.0504.506.0921 1.028.0921.861 0 1.206.0932.791.2138-.373.108 1.489.0493 2.409-.0751 1.146-.1557 1.769-.0905 1.769.1842 0 .1272-.334.2933-1.253.6255-.865.3131-1.2.477-1.084.5307.221.102.003.2067-.853.4095-1.208.2868-2.166.7665-2.04 1.0225.085.1743-.385.2697-2.331.4715-.966.1003-1.934.2456-2.151.3235-.216.0767-.675.1644-1.019.1946-.948.0817-2.763.4112-3.046.5531-.138.0691-.425.1289-.638.1327-.212.0033-.501.0417-.641.085-.204.0625-.152.0811.255.0921 1.087.0291 1.665.1058 1.808.2412.099.0927.253.1206.447.0823.256-.0494.265-.0439.071.0438-.124.0554-.325.0894-.446.0751-.135-.0128-.272.005-.393.051-.102.0455-.3.0274-.487-.0438-.245-.0943-.367-.0971-.555-.0126-.153.0685-.271.0751-.319.0186-.043-.0493-.405-.091-.803-.0932-.4-.0017-.871-.062-1.046-.1338-.382-.1568-.51-.1683-.51-.046 0 .0504.089.0915.199.0915.109 0 .167.0368.128.0812-.038.0449.051.1041.198.1315.147.0275.242.1042.212.1705-.057.1223-.628.1941-2.396.3005-1.597.0965-2.041.148-2.041.2379 0 .0477.085.0861.191.0861s.191.0817.191.1831c0 .1343-.085.1831-.319.1831-.367 0-.429.1415-.09.2051.125.0235.771.0208 1.435-.0061 1.933-.0784 2.708-.0526 3.112.1047.206.0801.41.1289.456.1091.045-.0202.057.0795.028.2215-.063.3092.117.3575 1.427.3838.784.0153.845.029.572.1305-.449.1666-2.093.4057-3.073.4473-.502.0214-.974.0965-1.145.1821-.363.182-.581.1847-.826.0087-.11-.0795-.418-.137-.725-.1354-.945.0033-4.474.261-4.953.3618-.447.0932-.461.1086-.367.409.06.1892.047.3493-.033.4068-.091.0658-.088.1338.012.2199.305.2637-.083.3179-1.945.2741-1.447-.0345-1.898-.0159-2.192.0915-.31.1141-1.711.2709-2.666.2988-.141.0044-.542.0444-.893.0894l-.638.0822.574.0664c.316.0367 1.263.0455 2.105.0197.893-.0264 1.786-.0379 2.68-.0345.631.0071 1.866-.0549 2.743-.1371 1.736-.1623 3.526-.2758 4.297-.2725.268.0011.524-.034.568-.0778.044-.0439.26-.085.478-.0916.22-.0065.399-.046.399-.0877s.129-.0493.287-.0175c.225.0449.246.0367.096-.0384-.165-.0828-.161-.0965.032-.0976.123-.0011.223-.0471.223-.1036 0-.0625.121-.045.314.046.349.1645.503.1897.397.0664-.039-.0444.044-.1025.184-.1289.145-.0274.253-.0022.253.0587 0 .0614.202.1058.479.1058.304 0 .467-.04.448-.1102-.02-.0756.118-.0965.442-.0669.531.0494 1.055.2621 1.058.4309.001.0724.046.0631.125-.0246.096-.1069.124-.0801.126.1206.002.33-.208.6118-.457.6118-.107 0-.159.0411-.115.0916.042.0504-.025.0948-.152.0987-.42.0131-.688.0685-.972.2023-.255.1195-.854.0734-.854-.0658 0-.0252.077-.0247.17.0011.095.0257.253-.0247.351-.1119.156-.137.156-.148-.001-.0811-.139.0603-.16.04-.091-.0894.054-.1003.024-.1979-.074-.2428-.244-.1108-.449-.09-.228.0235.145.0735.07.0856-.298.0488-.271-.0274-.594-.0022-.724.0554-.176.0795-.278.0778-.42-.0066-.15-.0899-.206-.08-.285.051-.055.0899-.09.1935-.079.2314.011.0383-.061.069-.161.069-.099 0-.202.0472-.229.1042-.027.0581-.217.1179-.423.1338-.207.0159-.439.0915-.517.1688-.078.0768-.189.1097-.246.0724-.057-.0367-.067.0055-.023.0932.098.1974-.145.216-.251.0192-.067-.1256-.103-.1239-.315.0137-.226.1475-.24.1464-.242-.0186-.001-.1464-.021-.1525-.125-.0373-.184.205-.158.2494.184.3108.216.0395.304.1152.29.2495-.022.2138-.466.3733-.979.3519-.477-.0202-.899.0976-.899.2517 0 .0987-.126.1277-.478.1096-.514-.0274-1.379.0757-1.691.2012-.154.062-.142.0784.064.0845.298.0123.596.0288.893.0493 1.086.0735 2.528.0713 3.05-.0044.356-.0521.471-.0433.408.0313-.056.0636-.022.0844.089.0537.106-.0291.275.0548.41.2028.164.1799.185.2621.075.2884-.103.0247-.078.0795.076.1661.211.1185.197.1256-.152.0823-.211-.0263-.311-.0236-.224.0055.324.1096.146.2225-.351.2225-.321 0-.51-.0422-.512-.1151-.001-.0839-.03-.0811-.111.0104-.069.0779-.14.0894-.19.0307-.086-.0992-.248-.0915-.647.0313-.137.0416-.437.0789-.668.0822-.529.0077-.701.2352-.178.2352.207 0 .397.0598.439.1371.049.0932-.006.1376-.171.1376-.136 0-.292.0515-.347.1151-.147.1639-.667.358-.8.2988-.063-.0274-.15-.0088-.194.0428-.044.0509-.239.0932-.432.0932-.194 0-.665.0668-1.046.1485-.601.1294-.655.159-.41.2248.157.0422 1.221.0713 2.368.0642 1.146-.0072 2.16.0208 2.251.0614.095.0422.205.0301.254-.0275.102-.1189 4.07-.2094 4.168-.0948.035.04.152.0488.261.0186.134-.0367.152-.0751.054-.1178-.078-.0351.032-.0636.245-.0636.214 0 .388.0389.388.0877 0 .0477.087.0351.194-.0285.107-.0642.235-.0866.285-.051s-.051.1431-.226.2385l-.317.1732.319-.0438c.279-.0384.287-.0335.064.0427-.368.1261-.973.1124-1.328-.0285-.345-.137-.777-.0921-.777.0817 0 .0801-.252.1157-.83.1179-.52.0022-.829-.034-.829-.0971 0-.0553-.072-.0329-.16.0494-.115.1085-.461.1666-1.244.2089-.596.0329-1.447.1173-1.89.188-.443.0713-.988.1332-1.212.1382-.223.0049-.694.0652-1.045.1337-.598.1174-.531.1223 1.085.0751.947-.0274 1.809-.0504 1.914-.0515.105-.0005 1.426-.0981 2.934-.216 1.51-.1184 3.154-.2275 3.656-.2429.502-.0153.886-.0586.854-.0965-.032-.0383.189-.069.492-.069.302 0 1.066-.0603 1.697-.1333 1.083-.125 3.631-.2543 3.285-.1661-.088.022-.128.0784-.088.1245.04.046-.089.0855-.286.0877-.198.0027-.559.0828-.805.1782-.246.0959-.562.2127-.702.2593-.462.1546-7.987 1.0482-9.762 1.1595-.526.0329-2.048.1415-3.381.2412-1.333.0998-3.093.2215-3.91.2703-.818.0494-1.764.1486-2.101.2215-.444.096-.638.1042-.702.0307-.081-.0932-1.423-.068-3.048.0581-.574.0368-1.148.0675-1.722.0921-1.259.0565-3.178.2467-4.252.4211-.303.0493-.605.0658-.67.0367-.067-.0296-.955.0378-1.977.1486-1.509.1645-1.91.1809-2.147.0899-.239-.0921-.546-.0768-1.684.0844-1.896.2687-4.37.6173-5.603.7895-.561.0789-1.376.2017-1.812.2736-.436.0712-.982.1293-1.212.1293-.232 0-.679.0587-.995.1316-.532.1223-1.622.2577-4.53.5642-1.11.111-2.216.2444-3.317.4002-.702.0954-1.85.2412-2.552.324l-1.66.1973c-1.489.1766-1.773.1733-2.069-.0246-.159-.1064-.29-.2402-.29-.2977 0-.057-.043-.0987-.096-.0932-.053.006-.228.006-.387 0-.245-.0088-.271-.0384-.164-.182.156-.2095.031-.3224-.203-.1831-.263.1568-.203.0159.1-.2341.158-.1311.477-.2484.771-.284.428-.0521.477-.0806.34-.1996-.206-.1782-.032-.1891-8.209.5208-.561.0494-1.566.1086-2.233.1327-.666.0247-1.873.0877-2.679.1404-.807.0531-1.87.1129-2.361.1332-.491.0197-1.12.0789-1.397.131-.278.0521-1.379.0976-2.447.1003-1.068.0033-2.018.0242-2.111.0466-.23.0554-3.22.1678-3.931.1481-.315-.0094-.66-.0735-.768-.1431-.24-.1563-.852-.1716-3.7-.0949-1.31.0357-2.512.1163-2.906.1952-.516.1031-1.37.1316-3.637.1206-1.63-.0088-4.342.0165-6.026.0543-3.413.0767-3.231.0778-6.763-.0324-2.286-.0712-3.6056-.074-5.6137-.0126-.351.011-.5376.0384-.4144.0614.1225.0231.2229.085.2229.1376 0 .0631-.3582.0779-1.0525.0428-.5789-.0296-2.3157-.0954-3.8595-.1464-1.5446-.051-3.5249-.1354-4.4022-.1864-3.5248-.2083-4.8686-.2812-6.6993-.3651-4.5774-.21-6.9906-.2933-9.5058-.3289-1.1578-.017-2.5934-.0587-3.1901-.0932-.6582-.0359-1.3177-.0539-1.9775-.0538-.4913.0044-1.4669-.0329-2.169-.0822-.7021-.0494-2.9744-.108-5.0509-.1305-2.0757-.0219-4.0283-.08-4.3381-.1294-.3104-.0493-1.0147-.1118-1.5666-.1387-.5511-.0274-1.182-.0712-1.4028-.097-.7548-.0888-1.9326-.1486-3.6551-.1864-1.5168-.034-2.9908-.1146-5.1677-.2829-.3511-.0274-.8388-.0603-1.0845-.0746-.2457-.0142-.8773-.0521-1.4035-.0844-.527-.0329-1.4171-.0839-1.9775-.1151-.5619-.0307-1.0496-.0686-1.0845-.0839-.0356-.0159-.391-.0532-.7905-.0839-.3987-.0301-.8096-.0784-.9114-.1069-.1033-.028-.6958-.0636-1.3167-.0784-1.7055-.0417-1.7033-.0411-1.7033-.1891 0-.0757-.0606-.1371-.1353-.1371-.0741 0-.0926.0477-.0427.1069.0633.0729.0213.0877-.1304.0455-.1224-.0334-.3489-.0614-.5041-.0614-.1901 0-.2877-.0592-.3005-.1831-.0228-.2193.0463-.2292.3019-.0455.267.1919.5661.1771.4764-.023-.0442-.0987-.0306-.1206.0356-.0581.0733.0696.433.0827 1.1287.0411 1.1977-.0713 2.1013-.0521 3.7641.0822.6665.0543 1.5281.1206 1.9141.1475.386.0274.769.0652.8509.0844s.1823-.0274.2229-.1042c.0548-.103.1759-.1228.4672-.0767.4571.0718.7505.0992 1.9682.1831.4913.034.9271.0768.9691.0954.0897.0395 1.7959.0461 4.1344.0164 1.4833-.0197 2.5294.0329 3.3098.1656.4401.0746 3.5163.1069 3.5163.0367 0-.0361-.3873-.0953-.8616-.1315-.4728-.0368-.9755-.0823-1.1158-.1026-.9849-.1392-3.621-.296-5.7416-.3399-.4914-.0109-.9542-.0471-1.0283-.0811-.1232-.0565-4.0304-.2752-4.2405-.2374-.0499.0093-.5212-.012-1.0475-.0477-.8139-.0543-2.8918-.1639-3.413-.1798-.1887-.0055-.2108-.1239-.0378-.2007.1239-.0548 1.086-.0679 1.9561-.0263.2656.0132.5298.0779.5868.1442.0776.0894.297.1042.8567.0587.4144-.0346.7911-.079.8381-.0987.047-.0203.173.0258.2791.1025.1068.0768.2243.1036.2614.0603.0719-.0833 2.6475-.0477 3.3938.0472.2457.0312.6786.0658.962.0756.2834.011.6423.0675.7976.1272.225.0866.282.0839.282-.0137 0-.0724.1709-.1321.4144-.1464 1.009-.0586 2.4211-.0532 3.5412.0137.8047.0483 1.1486.0422 1.024-.0181-.5027-.2412.4415-.3607 1.9105-.2412 1.3032.1064 1.5353.1119 2.0986.0505.2905-.0318.6978-.0253.9058.0148.5461.1052 3.3867.2911 4.6513.3048.639.0081 1.2774.0329 1.9142.0745.4557.0346 1.3743.0839 2.0415.1097 1.1703.0517 2.3398.1122 3.5085.1815 1.3907.0801 2.7827.1455 4.1757.1962 1.6834.0548 1.887.0461 1.9604-.091.0691-.1299.2912-.1518 1.5025-.1486.7819.0022 1.6798-.0296 1.9953-.0701l.5739-.0746-.957-.102c-.5263-.0564-1.1579-.1014-1.4028-.0997-.2464.0016-1.2512-.0614-2.2332-.1393-.9826-.0778-2.8483-.188-4.1472-.244-1.2981-.0564-2.488-.1222-2.644-.1463-.1566-.0242-1.4484-.0839-2.8711-.1333-2.5572-.0877-4.3495-.1601-5.7131-.2291-.386-.0198-1.7105-.0773-2.9424-.1283-1.2326-.051-2.3236-.1113-2.4247-.1338-.1011-.0219-.2991-.0718-.4386-.1096-.1403-.0384-.4764-.0812-.7463-.0949-.2692-.0142-.5569-.091-.638-.171-.1175-.1152-.4501-.1497-1.6151-.1689-.8068-.0131-1.5238-.0493-1.5943-.08s-.5583-.0806-1.0845-.1097c-2.5159-.1414-5.0317-.2566-6.1881-.2829-.7021-.0159-2.1954-.1008-3.3184-.1886-1.1222-.0877-2.5578-.1738-3.1901-.1908-4.3709-.1151-7.8623-.2615-9.6966-.4046-.6316-.0493-1.7389-.1162-2.4603-.1485-.7213-.0329-1.3423-.0943-1.3793-.1371-.037-.0433.1225-.0822.3546-.0861.2322-.0038.5839-.0159.7833-.0263.1973-.0098.3846.0104.4152.0461.0306.0351.2677.0219.5269-.0291.2635-.0521.8403-.0669 1.3067-.0329.4593.0329 2.9025.0768 5.429.096 2.5265.0197 5.5408.0625 6.6986.0954 2.0644.0575 2.649.0219 1.2953-.079-.3759-.0274-.7106-.0707-.7448-.0948-.0912-.0658.3753-.227.7626-.2643.4508-.0438.5932-.1595.208-.1699-.1702-.0039-1.0553-.0461-1.9675-.0932-.9122-.0466-2.706-.1097-3.9877-.1393-2.105-.0493-2.3286-.0696-2.3286-.2144 0-.2017-.5127-.2494-3.6089-.3349-1.2483-.0346-2.3-.0976-2.3363-.1404-.0364-.0422-.3183-.0767-.626-.0767-1.0482 0-.7548-.2533.5341-.4595.3632-.0581.851-.0981 1.0838-.0888 1.5545.062 1.1465-.1184-.5967-.2642-.7021-.0587-1.6777-.1261-2.1691-.1508-.4913-.0247-1.3814-.0855-1.9782-.1359-.596-.0499-1.8015-.1185-2.6796-.1514-1.0802-.0411-1.6356-.0992-1.7225-.1809-.0705-.0658-.5255-.1464-1.0204-.1793-.4914-.0328-.9507-.1096-1.0212-.1716-.0698-.0614-.5468-.1398-1.0588-.1737-.5127-.034-1.0611-.1223-1.2177-.1963-.1809-.085-.7328-.1491-1.4933-.1749-1.63921-.0548-2.92383-.1579-2.99504-.2407-.07476-.0866 1.04251-.2111 1.21413-.1348.07121.0312.12816.0175.12816-.0302s-.2008-.1135-.44648-.1469c-.48493-.0653-.5768-.1793-.2236-.2774.41728-.1163-.16663-.2999-1.4783-.466-1.10161-.1387-1.79804-.3109-1.29031-.3186.4771-.0071-.25919-.1688-1.0254-.2247-.45573-.034-.89511-.1009-.97629-.1497-.08189-.0483-.51129-.1299-.95563-.1815-1.23335-.1425-1.2198-.2577.03847-.3284.46998-.0263.89935-.1047 1.02896-.188.18158-.1162.40306-.1305 1.212-.0762 1.64493.1102 1.97106.0888 2.21815-.1459.12106-.1151.19511-.2379.16449-.2735-.03062-.0351-.44148-.0932-.91503-.1283-.47282-.0351-.91719-.096-.98769-.136-.06978-.0395-.40019-.1009-.73345-.1365-.91503-.0976-.72703-.227.32972-.227.51413 0 .97912-.0312 1.03252-.069.0527-.0379.5882-.0686 1.1892-.0686.7598 0 1.10942-.0351 1.14716-.1146.03774-.0784-.09968-.1145-.43437-.1151-.26917 0-.69071-.0384-.93567-.0844-.24568-.0461-.93284-.1097-1.52673-.142-.59388-.0318-1.14505-.0965-1.2241-.1436-.07833-.0472-.17731-.0614-.21789-.0324-.0413.0296-.20794.0192-.37101-.0225-.22929-.0586-.09327-.0893.59604-.1343.81392-.0532 1.74247-.1869 2.2331-.3218.3119-.0855-.17304-.1798-1.62641-.3158-.71922-.0674-1.30811-.1469-1.30811-.1765 0-.0302-.37314-.0373-.82959-.0165-.66652.0302-.82888.0115-.82888-.0959 0-.1661.40376-.4375.648-.4359.14954.0011.14813.0165-.00995.0905-.16378.0757-.15809.0888.0356.0899.12533.0011.26133-.0625.30334-.1409.06409-.1206.29552-.1349 1.55948-.0937 1.58298.0509 1.97251-.0099 1.68055-.2621-.48849-.4221-2.48094-.8761-3.851-.8761-.82746 0-1.25968-.1107-1.25968-.3234 0-.1064.20436-.1338.98909-.1316.54404.0005 1.21839.0449 1.49895.0981.28128.0532 1.60362.1151 2.93951.1382 2.36201.04 2.42966.0362 2.44817-.1426.01852-.1765-.13742-.3031-.41087-.3349-.07049-.0083-.62094-.0817-1.22337-.1634-1.9725-.2665-3.72353-.4293-5.51587-.5115-1.659884-.0768-2.226707-.1815-2.0550944-.3811.0391655-.0455.1260474-.0581.1936964-.0285.066936.0296.106095 0 .086869-.0674-.019939-.0669.064083-.1151.186562-.1085.121769.0071.194398-.0192.160217-.0587-.033468-.0389.133873-.0976.37242-.1294.51485-.0696.63663-.2346.37315-.5049-.14028-.1442-.15594-.2303-.05553-.3169.16449-.142.05696-.239-.26348-.239-.1296 0-.235009-.0176-.235009-.0384 0-.0214-.037739-.1097-.084025-.1974-.078331-.1453.007132-.1535 1.052484-.097.62522.0329 1.35296.085 1.61643.1151.38026.0433.47783.0252.47783-.0888 0-.0784.09258-.1798.2058-.2253.29196-.1174.11678-.6453-.24923-.7511-.26205-.0762-.26348-.0806-.02066-.0921.25564-.0121.25564-.0121 0-.091-.24923-.0768.0997-.1097 1.40425-.1327.54404-.0093.95634-.1327.95634-.2856 0-.0823.13245-.1316.35107-.1327.21554-.0028.43019-.0219.64086-.057.27202-.0521.2763-.0631.06409-.1788-.12461-.0679-.38311-.1244-.57537-.126-.19227-.0017-.72774-.1475-1.1906-.3235-.46713-.1782-1.02756-.3207-1.2597-.3207-.77262 0-1.97962-.1168-1.9198-.1859.03275-.0378-.03845-.0625-.15808-.0559-.12113.0058-.23075-.055-.26205-.1453-.05839-.2017.69499-.5488 1.08379-.5.15524.0198.30336-.0093.32899-.0641.05982-.1294 1.54953-.1661 2.14484-.0527.25279.0483 1.55948.0987 2.90248.1124 2.27159.0231 2.94169-.0235 2.09209-.1463-.1922-.0275-.6088-.0921-.92497-.1437-.36812-.0558-.74157-.0882-1.11658-.097-.29765-.0022-.54189-.0455-.54189-.096 0-.0499-.08972-.0915-.19939-.0915-.11037 0-.3183-.045-.46286-.1003-.25849-.0998-.25777-.102.04059-.2089.5241-.1875.36175-.3641-.51839-.5647-.45076-.1031-.84739-.2478-.88015-.3207-.03275-.0735-.11039-.1574-.17234-.1864-.19511-.0921.03846-.3745.25921-.3136.1118.0307.16734.0301.12462-.0006-.04273-.0307.06623-.1601.24354-.2873.23285-.1666.47211-.2351.86732-.2461.3005-.0082.52338-.0417.4949-.0751-.02849-.0329.49776-.0395 1.16926-.0148.97628.0362 1.26393.017 1.43553-.0938.2372-.1546 1.4904-.2182 2.1441-.1091.2493.0417.4316.0291.4864-.034.0477-.0553.2222-.1008.3874-.1008.3845 0 .705-.0878.705-.193 0-.045-.0834-.0823-.1852-.0823s-.2336-.0619-.2934-.1387c-.0669-.086-.5661-.2028-1.3145-.307-1.474-.2061-2.55924-.5208-2.4567-.7127.0425-.0751.15331-.112.2535-.0844.0997.0274.1495.0131.1104-.0329-.0392-.045.079-.2111.2634-.3679.2457-.21.4017-.2697.5911-.2269.1417.0328.2243.0213.1844-.0247-.0399-.0461.1282-.0877.3717-.0932.2443-.0044.8474-.0795 1.3395-.1661l.8958-.1574-.2849-.2182c-.1566-.1195-.3382-.2176-.403-.2176-.0655 0-.3154-.0669-.5561-.1491-.4202-.14314-.4302-.15794-.2443-.36189.1225-.13377.1467-.23355.0655-.26918-.0336-.01452-.0577-.03923-.0665-.0681s-.0015-.05926.0202-.08377c.0527-.0614.1211-.05098.1937.02906.0727.08059.1453.09155.2073.0307.0526-.05099.2677-.15296.4785-.22587l.3831-.13268-.4038-.0307c-.4372-.03399-.6715-.26863-.3546-.35635.1068-.02961.2264-.03071.2656-.00275.0385.02742.2613-.02686.4949-.12061.2889-.10866.5948-.18826.9101-.23684.2663-.03618.5625-.12061.6565-.18859.2236-.16063.3112-.15735 1.4968.06031 1.0646.19572 1.3644.17707 1.8009-.10965.2464-.16119.3454-.16886 1.0119-.08059.8752.11622 2.5222.13103 2.4282.02193-.0356-.04167-.4842-.12719-.9962-.19024-1.3045-.15954-1.4512-.19408-1.2369-.28892.371-.16448-1.291-.55373-2.916-.68201-.4387-.03454-.826-.0954-.8595-.13487-.0342-.03948.0584-.18202.2065-.31633.2464-.22533.2514-.25658.0612-.4068-.1125-.08991-.205-.18585-.205-.21381 0-.11294 2.1604.04989 2.8704.2171 1.0218.23958 3.0898.41447 3.2806.27741.1011-.07237.1025-.13487.0036-.22039-.1339-.11513-.3383-.16447-2.0402-.49232-.5305-.10197-.7975-.19956-.7975-.29112 0-.11622.1509-.12828.9471-.07675.6067.04002.9755.02741 1.0282-.03289.0449-.05209.0114-.09485-.0747-.09485-.0855 0-.1268-.02138-.0905-.04715.0855-.0614 1.8928.21052 2.0722.3125.1417.07949 2.0045.28508 2.4019.26535.1232-.00658.2236-.06305.2236-.1261s.0299-.16995.0662-.23794c.0627-.11732-1.4954-.35471-4.1807-.6365-.4037-.04222-.9421-.13925-1.1963-.21601-.2542-.0762-.6416-.1387-.8616-.1387-.5775-.0011-1.4078-.18257-1.2732-.27851.0619-.04495.8388-.0932 1.7268-.10745.8872-.01426 1.6043-.03289 1.5922-.04167-.0114-.00822-.3047-.09539-.6515-.19298-.6039-.1705-.6181-.18256-.3419-.28892.2158-.08278.4465-.08607.9236-.01261.7762.11952.8787.12116.8787.01371 0-.0466-.1708-.1113-.3809-.14474-.6979-.10965-.5469-.22916.2898-.22916.4871 0 .9798-.05812 1.2191-.14364.2421-.08662.5134-.11842.6836-.0795.3646.08279 6.3554.11513 6.2849.0329-.1481-.17215 1.5253-.17105 2.9538.00219 2.8925.35033 5.3535.54934 6.9407.56195.8773.00658 2.1983.06852 2.9353.13815.9704.08692 1.9428.1604 2.9167.22039.8681.05154 1.6143.10965 1.6592.12939.0448.01919.512.0614 1.0382.09375.4681.02799.9358.06034 1.4028.09704.512.0444 2.8399.13761 4.5304.18146 1.4476.0419 2.894.10752 4.338.19682.4216.02741 2.058.06689 3.6367.08772 1.5794.02193 3.4451.07346 4.1472.11513.7014.04057 2.6419.07072 4.3131.06579 2.5258-.00768 3.057-.03235 3.1582-.14419.1025-.11513.1381-.11568.235-.00767.0769.08552.2406.10964.492.07401.2079-.03015.4401-.00932.517.04605.0769.05483.329.1091.5604.11952.2278.01003.454.0346.6765.07346.7648.16283 1.5616.20998 1.8828.11184.2577-.07895.9008.01426.8118.11733-.0328.03837.5817.08059 1.3665.09374 2.112.03674 2.3306.05318 2.5699.19573.1944.11567.2136.11019.1752-.04825-.0292-.12061.0185-.16776.1481-.14583.158.02181.318.03336.4785.03454.1581.00109.287.03344.287.07237 0 .03837.0926.09539.2058.12664.1495.04112.1851.01754.1289-.08662-.0527-.09869-.0271-.12062.0811-.07128.0876.04003.7036.08553 1.3708.10143 1.4021.03289 1.1935.03289 7.7832.01645 2.7722-.00768 5.3948.01644 5.8292.05263.434.03673.885.04002 1.003.00712.217-.05975 4.385-.17763 5.666-.16063 1.002.01371 2.137-.40898 1.506-.5603-.094-.02193-.029-.08717.159-.15899.175-.06579.351-.15515.39-.19736.141-.15351 1.225-.23959 1.532-.12117.194.07456.707.10088 1.516.07895.672-.01864 2.88-.05592 4.906-.08224 2.026-.02686 3.824-.07346 3.995-.10416.17-.0307.894-.0625 1.609-.07018.715-.00767 1.415-.0603 1.555-.11677.251-.10142 1.434-.26754 1.632-.22916.245.0466.698.03508 1.111-.02906.246-.03838.562-.0625.702-.05428.141.00823.371.02248.511.0318.14.00877.8-.03289 1.467-.09155.666-.05921 1.46-.10691 1.764-.10582.303.0011.619-.03727.702-.08497.082-.0477.337-.11513.564-.15022.34-.05208.415-.03563.415.09156 0 .13706.105.14802.926.08991.508-.03564 1.843-.07401 2.966-.08553 1.122-.01206 2.351-.06962 2.729-.12883.248-.04119.498-.07702.749-.10746.034 0-.009-.06195-.097-.13761-.087-.07565-.353-.13705-.589-.13705-.238 0-.432-.01755-.432-.03838 0-.02138-.035-.10417-.077-.18366-.107-.19847.253-.1886.536.0148.161.11513.238.12774.276.04496.028-.0625.105-.09046.169-.0625.065.0285.117.01863.117-.02193 0-.04112.129-.0795.287-.08553s1.033-.05811 1.946-.11513c.912-.05702 2.75-.12006 4.083-.14035 1.334-.01973 2.568-.05921 2.743-.08662.595-.0932 3.864-.31085 5.615-.3728 3.245-.11513 5.706-.44846 6.213-.841552.158-.122806.438-.222037.639-.226971 1.651-.038376 3.944-.161728 4.95-.266442.546-.054033 1.094-.099364 1.642-.135963.508-.033183 1.014-.080916 1.517-.1430926.352-.048245.662-.08771532.687-.08771532s.046.10580892.046.23464592c0 .128836.056.209973.124.17982z"/></g></svg>