<svg fill="none" height="20" viewBox="0 0 20 20" width="20" xmlns="http://www.w3.org/2000/svg"><path d="m4.77271 6.68879c.0167-.16493-.0462-.32795-.16936-.43896l-1.25452-1.51126v-.22575h3.89528l3.01089 6.60318 2.647-6.60318h3.7134v.22575l-1.0726 1.02841c-.0925.07049-.1384.18634-.1192.301v7.55632c-.0192.1147.0267.2305.1192.301l1.0475 1.0284v.2258h-5.269v-.2258l1.0852-1.0535c.1066-.1066.1066-.1379.1066-.301v-6.10774l-3.01712 7.66294h-.40772l-3.51266-7.66294v5.13584c-.02928.2159.04243.4333.19446.5894l1.41133 1.712v.2257h-4.00192v-.2257l1.41134-1.712c.15092-.1564.21845-.3752.1819-.5894z" fill="#fff"/></svg>