<svg fill="none" height="203" viewBox="0 0 201 203" width="201" xmlns="http://www.w3.org/2000/svg" xmlns:xlink="http://www.w3.org/1999/xlink"><linearGradient id="a"><stop offset="0" stop-color="#40c057"/><stop offset="1" stop-color="#0e091d"/></linearGradient><linearGradient id="b" gradientUnits="userSpaceOnUse" x1="2.04617" x2="3.54624" xlink:href="#a" y1="2.04627" y2="201.546"/><linearGradient id="c" gradientUnits="userSpaceOnUse" x1="1" x2="200.5" xlink:href="#a" y1="3.84006" y2="2.33999"/><path d="m5.04633 199.073-2.20134 2.973c-.00133-18.032-.65865-28.886-.98798-46.836-.112-6.104 1.2137-12.541 1.14304-18.71-.12934-11.46.08532-22.526-.00001-34-.03867-5.2721-1.58572-10.7384-1.52838-16.0141.144-13.6901-.03865-27.3153-.41065-40.955-.193329-7.0811.85772-14.8508.85905-21.9931.00267-4.3459-.48401-8.6955-.42001-13.0378.02933-2.12257-.999989-4.50005-.45372-8.45372 2.5-.00002 0-.00002 2.65199-.00002.06133 2.12613.14534 3.61799.14268 5.10628-.02 16.48646-.86496 32.86816-.84096 49.34746.012 8.0756.95562 16.2417 1.07829 24.3102.156 10.2306.34534 20.4508.50667 30.6738.044 2.793.07601 5.6.04401 8.389-.30533 26.429-.12935 52.829.41732 79.2z" fill="url(#b)"/><path d="m198.027.839895 2.973 2.201335c-18.032.00133-28.887.65865-46.836.98799-6.105.112-12.541-1.21371-18.71-1.14304-11.46.12933-22.526-.08533-34 .00001-5.2724.03866-10.7387 1.58571-16.0144 1.52838-13.6901-.144-27.3153.03864-40.9549.41064-7.0811.19334-14.8508-.85771-21.9932-.85905-4.3459-.00266-8.6955.48402-13.03781.42002-2.12252-.02933-4.5.99999-8.45368.45372-.00001-2.5-.00001 0-.00001-2.65199 2.12613-.06133 3.61799-.14534 5.10628-.14268 16.48652.02 32.86812.86496 49.34742.84096 8.0757-.012 16.2418-.95563 24.3102-1.07829 10.2307-.156 20.4501-.34534 30.6741-.50668 2.793-.044 5.6-.07601 8.389-.04401 26.429.30534 52.829.12935 79.2-.417315z" fill="url(#c)"/></svg>