<svg fill="none" height="140" viewBox="0 0 25 140" width="25" xmlns="http://www.w3.org/2000/svg"><path d="m14.1629 128.797c-.143.992-.2979 1.864-.4506 2.791l1.8359 7.383 1.2076.831c.5946-1.497.2132-3.15.2859-4.7.1142-2.039.3629-3.361.6092-4.755-.0232-.744-.0186-1.312-.0238-2.072.0896-.56.1908-1.254.3044-1.857.3012-1.679.6443-3.418.7694-5.451.2545-3.83.8796-7.535 1.4228-11.317.4075-2.797.7793-5.669 1.1136-8.482.9032-7.5952 2.0121-15.3348 2.4343-22.9299.0309-.5409.1047-1.2024.1765-1.745.2417-1.8203.3885-3.6679.5415-5.5255.1142-1.8649.2087-3.7504.278-5.6592l.0033-.1923c.0318-1.8649.0573-3.362-.0748-4.8557-.1416-1.4673-.2601-3.0758-.3591-4.2701-.0374-1.7555-.0666-3.4199-.0984-5.0456-.0865-1.6248-.1732-3.203-.2568-4.7863l.0071.0406c-.0563-.3839-.1578-.7651-.1928-1.1542l-.3281-3.2156c-.0958-1.0724-.2859-2.1383-.4267-3.208-.2646-2.1436-.6877-4.265-1.0808-6.3937-.1448-.8783-.3325-1.746-.503-2.6179-.179-.8698-.3732-1.7444-.6521-2.6106l.0181.0463c-.4954-1.8495-1.1227-3.9796-1.7074-4.7786-.1626-.4973-.3417-.9566-.5205-1.399-.1831-.4414-.3958-.8585-.5894-1.2888-.375-.8545-.8125-1.7226-1.181-2.8424.0028.0059.0057.0118.0085.0177l-.0192-.0502c.0036.0108.0071.0217.0107.0325-1.2641-2.6345-2.7761-5.1947-4.635-7.55118-1.8588-2.3628-4.08009-4.52164-6.68004-6.24824-.17724-.12119-.36333-.25714-.55171-.40096l-.28316-.21771c-.10103-.06389-.19778-.12882-.2988-.19269l.05108.0339-.90372-.5085.04651.01813c-.94776-.43372-1.72314-.58849-2.23481-.690624l-.03933-.007844c-.517092-.092117-.799065-.068885-.886175.041548-.17308.2248.427049.80845 1.483135 1.60513l1.21423.69408.60125.35058.56882.39673c.37417.26291.76003.51869 1.12794.79161l1.06275.86699c1.75275 1.49186 3.16389 2.97514 4.58143 4.57535 1.2138 1.4348 2.3836 3.1132 3.3613 4.9661.969 1.8551 1.7957 3.8512 2.4541 5.8677.1541.4994.2423.9769.2969 1.3231.092.5697.1568 1.125.2143 1.6863.0606.5563.1266 1.1156.163 1.6991.2733.7364.5153 1.2859.7026 1.9632.1845.6358.3716 1.5332.5488 2.0649.1898.5752.2602 1.1968.3565 1.8289l.0033.0238c.0867.6266.1751 1.2654.4631 1.8837.0849.1821.2238.8502.378 1.65.0749.4005.159.8325.2366 1.2576.0604.4294.1205.842.1743 1.2011.2015 1.4525.3893 3.0946.5817 4.342.2096 1.37.3387 2.6204.4407 3.8563.0794 1.2372.0856 2.4588.1286 3.76l.0103.2652c.0396 1.0194.0821 2.1123.1231 3.2271.0293.6063.0598 1.2167.0891 1.8231.0152.3051.0293.6063.0476.9065.0087.2983.0131.5977.0206.8921.0307 1.2747.0395 2.521.0331 3.7625-.0289 1.2429-.0943 2.4864-.158 3.7675-.2253 4.1354-.4548 8.3353-.6813 12.4667-.0948 1.4581-.149 2.9612-.3148 4.4115-.4502 4.1656-.9986 8.309-1.5618 12.4645-.3915 2.9154-.7837 5.8436-1.174 8.7627-.0351.259-.1058.505-.1559.758l.0131-.05c-.4391 3.778-.8762 7.547-1.3173 11.334-.1179 1.015-.3705 2.356-.5615 3.071-.5823 2.163-1.0307 4.488-1.2955 7.871-.0742 1.055-.253 2.318-.4073 3.397z" fill="#343a40"/></svg>