<svg fill="none" height="207" viewBox="0 0 261 207" width="261" xmlns="http://www.w3.org/2000/svg"><g fill="#495057" opacity=".5"><path d="m72.756 12.7342c.6956.1257 1.4803.2651 1.1975.372-1.0823-.1584-2.2062-.3179-3.2909-.4669-.3035.1115.535.2349 1.2406.3635l-.0307.0019c1.4764.1626 2.8784.3053 3.6348.2443l-.0317.0017c.316-.1182 1.4747.0202 2.4826.118.4568.1125.8372.2044 1.4267.3523.148-.0618.2295-.1007.3111-.1398l-.0307.0019c1.3869.1185 3.2244.4896 4.4723.5199.0598.0059.4081.069.4925.0916.4467.1503 1.0872.2207 1.7406.3148.7962.1324 1.5924.2648 2.39.3876 1.1842.1958 2.487.4439 3.5205.5589 1.97.2138 3.9324.4968 5.9525.785 1.7276.2504 3.2923.4265 4.0493.3253.209-.0251.584-.026.882-.0376l-.031.0019c-.518-.2609-1.127-.1094-1.492-.2581-.818-.1993-1.6487-.3918-2.5623-.6165-.2747-.1854.4662-.3013-1.694-.678.4042.007.7295.0029 1.0523.0084-.3141-.0742-.4442-.1192-.5985-.1505-.2528-.0374-.5921-.098-.7912-.1108-2.7046-.1979-5.8029-.6638-8.8179-1.0668-.7032-.0973-1.9397-.2869-2.0738-.3534-.5782-.2668-1.5055-.2111-2.3211-.4198-.1035-.0278-.4226-.1235-.6547-.2061-1.5369-.5443-2.0013-.6284-4.8188-.9682-1.7976-.2184-3.6248-.4346-5.461-.6939-2.3006-.3432-4.6319-.6845-6.935-1.01827-1.1662-.15047-2.3159-.28636-3.482-.43693-1.1039-.15402-2.2268-.31326-3.3316-.46755-.544-.23735-1.1172-.48252-1.5743-.70668-.3486-.17476-1.1039-.34702-2.0127-.50963-.8931-.1483-1.8758-.30032-2.7409-.40043-1.4814-.18434-2.9754-.36193-4.4758-.55139-1.5236-.21594-3.0586-.42483-4.632-.64388l-.3418-.05116c-.4926-.05096-1.0068-.13823-1.4323.16387-.4244.26162-.7491.6415-1.0149 1.06755-.5545.89682-.7955 1.68489-1.0095 2.52077-.1709.67493-.2453 1.33513-.3346 1.97103l-.2912 1.9216c-.2018 1.2858-.4202 2.5571-.6819 3.837-.0569.2893-.0945.6955-.1385 1.049.1268-.5141.2546-1.028.4067-1.6369-.157 1.4603-.1626 2.4638-.5127 4.3798-.0523-.6739.3153-2.8085.1086-2.7929-.7058 4.6832-1.3508 9.3321-2.169 14.0563-.1766 1.0388-.2971 2.1333-.4623 3.2056-.1829 1.098-.3673 2.2058-.5501 3.3039-.5854 3.5888-1.047 7.1701-1.7079 10.7792-.077.4368-.1538.9533-.2066 1.3761-.1997 1.7327-.4779 3.191-.8415 4.4332l-.0015-.0306c-.0198.3399-.0218.7255-.0762 1.0054-.5759 3.1345-1.0334 6.2091-1.4385 9.2772-.0267.1763-.0582.3706-.0756.5483l.0025-.0091c-.3447 1.2883-.6125 2.8205-.8224 4.4383l-.0001-.0399-1.049 6.1952c-.159.9724-.2745 1.1745-.3939 1.5081l.0075-.0282c-.0549.584-.0896 1.1323-.174 1.7494-.0805.6796-.1888 1.4628-.3112 2.1095-.393 2.0768-.522 3.5449-.5793 4.9308-.0212.4614-.1047 1.3009-.2122 1.9322-.4155 2.3459-.8245 4.6719-1.2273 7.0104l-.0014-.0306c-.0123.1585-.0248.318-.0461.4741-.285 1.8221-.5767 3.6325-.8614 5.4535-.3973 2.584-.7855 5.17-1.1827 7.754-.1412.906-.3247 1.821-.494 2.72-.4776 2.541-.9396 5.138-1.2911 7.704-.2242 1.594-.4509 3.086-.739 4.653-.2664 1.451-.5686 3.036-.741 4.4-.2101 1.619-.3761 3.036-.7276 4.728-.168.777-.2889 1.801-.4401 2.704-.1478.895-.3736 2.346-.466 2.575-.3126.79-.2217 1.626-.4079 2.358-.0812.344-.1619.911-.2502 1.313-.0948.431-.1912.792-.3078 1.267.0064.733.0039 1.423.0063 2.135.0016.223-.009.525-.0519.838-.3434 2.608-.7765 5.253-1.3108 7.475-.3063 1.258-.5337 2.486-.7698 3.864-.1703 1.091-.3533 2.19-.5284 3.299.0753 1.615.362 1.904 1.0415-.37l-.0075.029.1022-.572.0025.031c.0302-.266.0538-.543.0956-.776.6277-3.445 1.2465-6.893 1.8769-10.348l.0015.031c.1096-1.433.464-2.302.6582-3.559.254-.531.4543-1.847.6705-2.997l-.0076.028c.2609-1.088.3355-2.164.5134-3.243l1.2806-7.858c.0428-.232.1063-.47.1569-.699l-.0049.018c.2937-1.931.5874-3.862.9153-5.997.172-.715.4087-1.677.6179-2.575.2368-.922.4098-1.87.6054-3.056.3902-2.332.7661-4.606 1.0463-6.865.039-.335.0981-.745.1652-1.073.8948-4.632 1.6029-9.437 2.4226-14.1303.3017-1.7356.5983-3.5244.8628-5.27.3582-2.3612.6462-4.6895 1.1345-7.046.263-1.2487.368-2.3575.4593-3.4193.0415-.3848.0877-.819.1217-1.1755.1241-.464.2064-.8076.3278-1.2615.0739-.8842.1386-1.7298.3634-2.9888.3155-1.9358.6436-3.9189.9629-5.8731.4327-2.5634.8797-5.1036 1.1828-7.6415.1158-.9236.2614-2.1121.4322-2.8991.4998-2.3631.7594-4.658 1.1291-6.9859.1079-.2138.2035-.4222.3371-1.3.3417-2.2633.7176-4.5378 1.0236-6.7805l-.0001.0407c.0705-.5293.1484-1.2393.223-1.5543.1887-.7818.2938-1.251.3191-2.0259.0046-.283.1777-1.2719.2941-1.86.2768-1.3367.5436-2.6356.7901-3.8586.0917-.7977.1375-1.5366.2537-2.2769l1.8976-11.5608c.1669-.8892.3312-1.7689.508-2.6553.1276-.8592.2495-1.7299.3806-2.5982.1325-.7969.279-1.6103.413-2.4169l.0076-.0284c-.0547.168-.1119.3456-.1816.5299.1456-1.3415.3123-1.4694.458-2.0901.0104-.647.0302-.9867.0715-1.2903.0495-.3015.1381-.5924.321-1.0103l-.0076.0285c.0262-.2874.0525-.5747.1095-.90458.1002-.29792.2361-.57624.3568-.83823.0853-.16998.1782-.32779.2876-.47093.1094-.14323.238-.28134.401-.35937.1672-.09733.352-.02744.532-.01971.5997.06955 1.1929.12721 1.7825.19406.643.06088 1.119.13781 1.7418.23393 2.7268.41693 5.4307.95984 8.1765 1.22963 1.3538.1297 1.8822.3527 2.639.5558.7592.0413 1.2924-.0592 2.6386.2919l-.0291-.0079c1.3985.3449 2.6796.4044 4.0217.5818l-.0317.0016c.5027.0537 1.1074.1043 1.4749.1724 1.188.2579 2.3098.498 3.4687.7481l-.0397-.0005 2.8545.4309c.6419.1011.7681.0843.6301-.0035zm-33.7622 9.6089-.0174.1375c-.0176.2186-.0427.425-.0037.0903-.0581.3701-.0229.1258.0214-.1161zm-3.3892 19.2208-.0285.368-.0081 1.2463c-.0944.6143-.1776 1.2315-.2709 1.8459-.2638 1.5535-.5607 3.0778-.7481 4.6517-.0476.4034-.1498.9747-.2296 1.3492-.3494 1.5718-.552 3.0093-.6537 4.7177-.1294.3309-.226.579-.3326.8244-.0289 1.0181-.1646 2.1694-.5403 3.8754.0911-1.174.2624-2.3459.4097-3.4638.0087-.0689.0851-.2415.1395-.3682.2022-1.7019.4633-3.4387.7699-5.2248.1528-.9131.2916-1.8504.4112-2.7523.2895-2.1049.6049-4.0404 1.0575-5.5025-.1056.0122-.2229.0721.0082-1.2464zm.9638-3.9847c-.0149-.5116-.0296-.7591-.0468-1.1495.1382-.44.2309-.7501.3246-1.06.0088-.15.0262-.2874.0376-.4468.0199-.1468.0465-.3225.077-.4767.0027.1429.0029.2546-.007.4448-.0037.0904-.062.3082-.1026.4597-.0716.5696-.1457 1.1486-.2828 2.2285zm-4.6364 28.053.4619-3.4693c-.0204-.0368-.0422-.0318-.0509-.1161-.003-.0613.0059-.211.0082-.3323.0332-.0115.0752-.092.0855-.018.0089.0434-.0327.3159-.0504.4946.0648-.206.1423-.4192.2654-.8026-.1701 1.2035-.316 2.2399-.4737 3.2838-.048.2924-.1623.6069-.2458.9189-.1223.9521-.2083 1.9538-.481 2.7436l-.1927 1.4812-.0626.0447.2575-1.494.0772-1.1982-.0011.0406c.1349-.8062.2666-1.2984.4025-1.5769zm1.0775-10.2792c.0041.3269.0061.774.0072 1.2209l-.1266.4731c-.0874-.277-.0874-.277.1194-1.694zm-6.479 42.512c-.0102.0382-.0093-.1546-.0145-.2477l.2798-1.1223-.0181.5226c-.0877.2915-.1761.5817-.2472.8474zm17.8134-91.20151.2221.07987-1.1688-.10048-.01-.00268-.2528-.07797.2488.01597zm-5.9184 18.78571c.0265-.1351.0619-.2676.0999-.4097l-.0195.4515-.0951.2791c.0062-.0999-.0031-.214.0147-.3209zm-1.2349 7.7999c.0139-.1282.0277-.2566.035-.3967.0001-.0406.033-.1231.0482-.1799l-.0376.4061zm-11.0606 67.5539.0433-.049c-.0136.087-.0264.175-.0376.253-.0078.029-.0169.027-.0318.042zm1.8951-11.5918c.0154-.0574.0244-.0549.042-.0804-.0112.0779-.0225.1967-.0351.244-.0154.0574-.0217.0449-.0396.0714.0114-.0789.0228-.1978.0327-.235z"/><path d="m114.828 70.8009c.135-.6946.278-1.4582.385-1.1756-.165 1.0724-.338 2.173-.494 3.2474.112.304.242-.5231.368-1.2206l.001.0309c.176-1.4552.336-2.8438.272-3.5918l.001.0308c-.118-.3159.035-1.4526.142-2.4591.122-.4546.211-.8267.365-1.4044-.061-.1486-.1-.23-.139-.3116l.002.0311c.125-1.3775.516-3.181.554-4.4196.003-.0498.068-.4081.098-.4812.15-.447.234-1.0639.338-1.7163.139-.785.269-1.5724.408-2.3574.199-1.1645.463-2.454.585-3.4771.237-1.9464.533-3.8871.844-5.8846.268-1.7149.455-3.2483.363-4.0038-.026-.2099-.016-.583-.028-.8806l.001.0308c-.267.507-.113 1.1067-.274 1.4796-.205.8078-.404 1.6274-.636 2.5296-.192.2631-.301-.4664-.691 1.6723.004-.3947.01-.718.015-1.0416-.084.3126-.126.4332-.147.5899-.047.2515-.105.581-.118.7806-.218 2.6722-.714 5.7369-1.146 8.7171-.104.6926-.31 1.9165-.376 2.051-.265.5687-.216 1.4852-.441 2.2876-.035.0923-.121.4144-.203.646-.557 1.5153-.651 1.9775-1.011 4.7639-.231 1.7753-.462 3.5813-.734 5.3964-.354 2.2704-.728 4.5758-1.085 6.8554-.157 1.1562-.307 2.2832-.463 3.4387-.161 1.0937-.337 2.2041-.495 3.2888-.244.5332-.487 1.0971-.719 1.5524-.175.3491-.363 1.0903-.524 1.9912-.154.883-.313 1.8555-.42 2.7102-.368 2.926-.783 5.8805-1.264 8.9282-.247 1.6805-.496 3.3695-.743 5.0495-.359 2.553-.719 5.076-1.232 7.597-.054.28-.092.686-.136 1.04.125-.504.252-1.018.403-1.618-.153 1.441-.155 2.435-.502 4.333-.054-.665.309-2.78.099-2.756-.7 4.625-1.33 9.216-2.145 13.89-.174 1.03-.289 2.105-.461 3.166-.181 1.088-.36 2.177-.54 3.266-.575 3.551-1.026 7.094-1.684 10.653-.084.425-.152.945-.202 1.357-.194 1.715-.478 3.151-.829 4.387l-.001-.031c-.018.33-.022.725-.074.995-.5653 3.097-1.0254 6.141-1.4078 9.165-.0277.175-.0565.36-.0756.548l.0025-.009c-.3521 1.275-.6033 2.782-.8198 4.388l.0008-.04-1.0412 6.126c-.1538.954-.272 1.166-.4002 1.496l.0076-.028c-.055.584-.0835 1.105-.1972 1.683-.1124.609-.3536 1.398-.5964 1.85-.2185.398-.4384.765-.7393 1.02-.3068.313-.7127.163-1.033.149-.5459-.045-1.2934-.094-1.9085-.106-.4529-.01-1.2925-.093-1.9153-.189-2.3212-.379-4.6216-.763-6.9327-1.14l.0306-.001c-.1593-.013-.311-.013-.4745-.046-1.7928-.269-3.5983-.53-5.3823-.795-2.5594-.362-5.1089-.722-7.6683-1.084-.8884-.126-1.8047-.301-2.6952-.459-2.5178-.441-5.0775-.875-7.6154-1.201-1.5693-.198-3.0523-.412-4.6039-.676-1.4356-.243-3.0101-.534-4.3462-.69-1.6026-.186-3.0021-.338-4.6777-.666-.7695-.156-1.784-.265-2.6797-.404-.8856-.136-2.3221-.339-2.5417-.429-.7787-.31-1.6089-.198-2.3327-.372-.3333-.079-.8932-.148-1.2953-.235-.4236-.084-.7834-.18-1.2491-.296-.7223.01-1.4045.019-2.1076.035-.2141.003-.5153-.007-.8304-.041-2.5839-.307-5.1919-.713-7.3973-1.223-1.2518-.285-2.4591-.508-3.8207-.721-1.0831-.159-2.1628-.327-3.2653-.49-1.588.101-1.8873.387.3721 1.033l-.0281-.008.5638.091-.0305.002c.2552.028.5358.042.7681.084 3.4121.581 6.8155 1.159 10.2263 1.749l-.0309.003c1.4138.094 2.2753.438 3.526.61.5207.252 1.8312.431 2.9633.633l-.0281-.008c1.0692.247 2.1371.31 3.2077.476l7.7698 1.191c.2347.033.4594.103.6889.155l-.019-.005c1.9051.267 3.8178.546 5.9385.842.7161.161 1.6603.385 2.5384.589.9124.225 1.8439.384 3.0205.568 2.3058.364 4.5554.704 6.7793.956.3343.039.7376.086 1.0643.153 4.5823.833 9.3238 1.487 13.975 2.248 1.7201.278 3.4824.548 5.2101.798 1.1636.16 2.3272.321 3.4807.478.5756.083 1.1585.179 1.7441.265.6767.12 1.3541.242 2.0432.355.0382.011.0882.013.1163.021.4669.034.9056.102 1.3072-.035.4106-.133.7545-.396 1.0348-.686.5729-.588.9376-1.343 1.1916-2.067.1445-.427.2814-.898.3726-1.279.1816-.49.3023-.864.4364-1.365.0824-.912.1358-1.72.3609-2.98.3077-1.907.6306-3.871.9461-5.807.4254-2.535.8634-5.046 1.1694-7.553.113-.914.256-2.093.423-2.871.493-2.334.746-4.602 1.117-6.898.108-.215.204-.422.334-1.291.335-2.235.705-4.49 1.001-6.695v.04c.07-.529.143-1.219.22-1.544.187-.773.292-1.242.314-2.007.005-.282.173-1.252.288-1.831.27-1.318.535-2.607.788-3.819.089-.788.135-1.527.249-2.257l1.871-11.426c.165-.88.337-1.748.501-2.627.126-.85.245-1.711.373-2.57.13-.787.274-1.591.406-2.388l.008-.028c-.056.167-.12.332-.183.529.141-1.323.308-1.45.451-2.061.026-1.273.037-1.351.383-2.344l-.007.028c.014-.321.023-.654.044-1.033.423-2.08.761-4.212.984-6.254.069-.6406.153-1.1055.246-1.7201.437-2.6951 1.01-5.3633 1.302-8.0863.146-1.3417.376-1.8582.586-2.6044.048-.7488-.043-1.2801.312-2.6066l-.008.0291c.359-1.3762.424-2.6477.606-3.969l.002.0308c.061-.4918.112-1.0973.189-1.4617.262-1.1681.52-2.2865.772-3.4174l-.001.0407.451-2.823c.109-.6307.094-.7665.006-.628zm-8.25 45.8321-.016.138c-.016.21-.043.426-.004.091-.058.37-.024.125.021-.116zm-3.349 18.999-.026.359-.006 1.236c-.09.605-.175 1.222-.266 1.828-.258 1.534-.553 3.049-.735 4.604-.045.393-.147.964-.227 1.339-.344 1.553-.542 2.972-.651 4.668-.126.322-.224.57-.329.815-.026 1.008-.157 2.141-.539 3.835.087-1.164.255-2.318.399-3.426.008-.069.084-.241.136-.359.206-1.68.464-3.399.755-5.167.15-.904.287-1.831.414-2.722.282-2.076.592-3.993 1.048-5.434-.104.013-.222.072.004-1.228zm.961-3.935c-.017-.502-.033-.749-.049-1.14.134-.431.228-.741.321-1.051.01-.149.026-.287.039-.447.018-.147.042-.313.076-.476.003.143.003.255-.014.433-.004.09-.062.308-.103.46-.074.579-.145 1.148-.27 2.221zm-4.5792 27.723.4512-3.431c-.02-.037-.042-.032-.052-.106-.004-.062.006-.212.005-.323.034-.012.076-.092.086-.018.009.043-.034.315-.049.484.065-.206.14-.409.263-.792-.165 1.184-.3174 2.209-.4635 3.246-.0468.292-.1621.606-.2432.909-.1196.942-.2034 1.936-.4724 2.716l-.1886 1.461-.0626.045.2527-1.476.0745-1.188.0022.032c.1315-.797.2632-1.29.3967-1.559zm1.0442-10.155c.005.325.009.763.001 1.208l-.124.464c-.068-.272-.068-.272.123-1.672zm-18.9729 26.733c-.0372-.01.1554-.009.2383-.017l1.1141.269-.5129-.016c-.2834-.076-.5769-.155-.8395-.236zm26.8459-77.1442.089-.2199-.104 1.1091-.089.2199zm-2.51 20.8582c.027-.136.062-.268.098-.4l-.02.451-.095.279c.002-.121.002-.233.017-.33zm-1.22 7.703c.015-.129.029-.257.036-.398.001-.039.033-.123.048-.18l-.038.406zm-26.0213 48.23.0485.044c-.0869-.014-.175-.027-.2528-.038-.0281-.007-.0257-.016-.0421-.032zm11.4636 1.747c.0573.015.0548.024.0802.042-.0778-.012-.1965-.023-.2347-.033-.0562-.015-.0444-.023-.0702-.039.0778.011.1875.02.2247.03z"/><path d="m164.094 87.6007c.276.0645.582.1357.456.2647-.429-.0643-.869-.122-1.301-.1763-.137.1357.194.1837.47.248l-.009-.0024c.588.0359 1.151.0542 1.47-.0728l-.01-.0027c.14-.1458.595-.1045 1.008-.095.173.0764.329.1387.548.2279.06-.0746.104-.1242.145-.1639l-.01-.0027c.559-.0022 1.275.1997 1.782.1233.022-.005.164.0331.189.0507.174.1071.424.1234.687.1637.312.0429.626.1175.944.1822.465.0837.975.2207 1.383.2493.79.0393 1.561.1544 2.361.2677.683.1023 1.311.1394 1.63-.0296.093-.0452.243-.076.365-.1147l-.009-.0024c-.187-.2129-.453-.0104-.585-.1266-.32-.127-.632-.2506-.99-.3878-.088-.166.221-.3364-.631-.5242.16-.0281.298-.0526.429-.0875-.117-.0521-.172-.0775-.228-.0926-.098-.0155-.232-.0418-.314-.0432-1.086.0441-2.311-.1529-3.507-.3015-.275-.0326-.767-.1249-.817-.1684-.207-.2077-.597-.0793-.906-.2129-.035-.0191-.16-.0828-.244-.1464-.583-.4001-.763-.4484-1.881-.5458-.715-.0591-1.441-.1125-2.176-.2083l-2.738-.4091c-.46-.0628-.923-.0749-1.385-.1287-.441-.057-.881-.1147-1.323-.1717-.203-.1871-.416-.376-.579-.562-.126-.1353-.419-.2537-.773-.3294-.346-.0723-.744-.1382-1.084-.1581-1.183-.0846-2.366-.2089-3.584-.3932-.673-.0998-1.353-.1702-2.022-.2482-1.024-.113-2.039-.2224-3.041-.4912-.113-.0305-.278-.0239-.418-.0313.203.0749.397.1474.635.2417-.584-.0144-.994.0782-1.754-.0748.285-.1168 1.126.0376 1.138-.1618-1.85-.243-3.695-.4328-5.558-.7806-.406-.0786-.85-.0856-1.269-.1473-.436-.0771-.871-.1529-1.31-.2199-1.419-.2287-2.849-.3385-4.267-.6477-.172-.0355-.379-.0607-.547-.0757-.691-.0331-1.234-.1585-1.865-.4194l.022-.0039c-.04-.0009-.083.008-.135.0144-.115.0102-.222.0322-.309.0186-.361-.0559-.706-.129-1.045-.0366-.337.0823-.646.2937-.846.5853-.209.2891-.26.6302-.323.979-.053.3514-.085.6979-.117 1.0442l-.025.2477.002-.01c-.218.5099-.325 1.1003-.388 1.7533l-.007-.0115-.433 2.4523c-.062.3793-.153.4561-.247.5829l.002-.009c-.002.2325.019.4613.005.7014-.021.2684-.036.5891-.093.8381-.187.8127-.173 1.4054-.092 1.9752.03.1904.022.5236-.025.7743-.175.9176-.352 1.8452-.528 2.7719l.002-.0091c.004.0615.007.1237-.001.1928l-.324 2.1558-.408 3.0778c-.056.361-.142.724-.225 1.067-.218 1.007-.421 2.029-.521 3.048-.058.634-.146 1.229-.28 1.843-.124.576-.27 1.197-.312 1.734-.051.645-.07 1.209-.259 1.879-.081.303-.11.711-.166 1.073-.065.357-.137.927-.199 1.012-.232.293-.061.643-.168.929-.045.13-.075.355-.118.516-.056.169-.113.305-.181.49.07.304.146.587.21.878.017.087.044.216.03.344-.087 1.042-.254 2.084-.567 2.954-.173.491-.293.977-.388 1.52-.063.43-.13.869-.196 1.307.238.663.543.806.991-.068l-.003.009.039-.223-.002.01c.006-.1-.003-.215.022-.309l.848-4.077-.003.01c-.028-.576.241-.9.304-1.401.202-.189.273-.718.374-1.169l-.003.01c.152-.417.125-.85.189-1.279l.497-3.105c.016-.098.058-.178.093-.27l-.003.01c.103-.764.206-1.528.323-2.38.095-.279.227-.66.359-1 .136-.36.216-.735.3-1.199.155-.923.303-1.817.361-2.715.005-.13.029-.297.053-.423.434-1.8121.661-3.7201 1.015-5.5743.132-.685.248-1.3852.334-2.0829.118-.9327.186-1.868.441-2.7845.132-.4931.127-.9302.12-1.3593 0-.1521.009-.3322.006-.4753.076-.1726.124-.3118.201-.4844-.016-.3592-.027-.6975.067-1.1997.153-.7605.242-1.5488.379-2.3245.084-.5048.169-1.0107.263-1.5131.06-.3796.069-.5596.072-.8738-.032-.2222.084-.5048.258-.5499.316-.118.601-.0114.881.0025l.288.0263.168.0149.272.0428c.076.0918.158.1644.503.2061.9.1198 1.793.2676 2.684.345l-.011.0066c.205.025.491.0197.621.0654.304.1117.482.1691.8.1133.117-.0193.503.0529.73.1139.511.137 1.031.2767 1.514.4061.323.0057.622-.0153.913.0326l4.565.7479c.348.0623.693.1752 1.041.2385.338.0605.69.073 1.031.1245.323.0456.637.1202.947.1722l.01.0027c-.061-.036-.13-.0856-.201-.124.535.0108.575.1639.816.2491.522-.0941.552-.0956.941.1606l-.011-.0027c.137-.0141.265-.04.422-.0593.823.2206 1.681.3495 2.507.3682.261.0087.443.048.687.0832 1.078.1771 2.133.4805 3.229.5103.543.0142.74.1889 1.027.3264.312-.0273.533-.1709 1.05.0584l-.01-.0027c.54.2161 1.062.163 1.592.2245l-.009-.0024c.199.0134.444.008.586.046.47.1358.905.2935 1.341.4409l-.021.0039 1.128.1808c.253.0376.31.013.26-.0619zm-18.254-3.7611-.059-.0061c-.081-.0013-.174.0052-.041-.0001-.147-.019-.049-.0037.05.0026zm-7.571-1.4836-.145.012-.508.1181c-.246-.0262-.495-.0422-.728-.0841-.611-.1025-1.209-.2534-1.838-.2905-.158-.0123-.391-.0541-.532-.0921-.308-.103-.606-.1627-.912-.1938-.325-.0366-.59-.0259-.845.0168l-.183-.1504-.118-.092c-.308.1298-.635-.0486-1.216.1504.124-.1597.302-.2545.489-.2743.188-.0209.38.02.563.0183.019.0051.094.0663.145.1005l.122.0013c.491.0206 1.157.1077 1.815.2239.357.0657.733.1049 1.088.1399.83.0802 1.599.1951 2.155.507.006-.0998-.013-.2171.509-.1181zm1.551.5683c.21-.0654.311-.0989.478-.1555.169.0866.284.1476.41.2114.061-.004.113-.0105.184-.0108.06.0053.129.0141.185.0292-.054.0155-.109.031-.181.0323-.04-.0012-.122-.0329-.179-.0483-.24-.0136-.47-.0246-.897-.0583zm-9.167.3526c.044-.3938.023-.8061.13-1.2037-.014-.0242-.037-.0509-.039-.0815-.002-.0309.013-.0883.017-.138.025.0176.066.0178.074.0609.005.0218-.04.1113-.055.1677.06-.0347.122-.0783.256-.1234-.231.3338-.173.7248-.238 1.0419-.014.088-.086.1699-.142.267-.015.1686-.006.3232-.03.4894-.02.1877-.066.3578-.158.5152l-.045.5877-.055.0155.107-.5904-.041-.489-.003.01c.043-.3132.122-.4549.222-.5293zm2.188-2.154-.317.0874-.132.036-.193-.0723c.054-.087.061-.1152.308-.0901.078.0112.185.0292.334.039zm-4.369 14.8165c-.005.0191-.023-.0677-.035-.101l.167-.4321.034.2121c-.068.1035-.119.2214-.166.321zm24.566-11.8739.084.0636-.447.0021-.084-.0636zm-8.417-.4818c.059.0061.101.0369.158.0522l-.188.0206-.106-.0586c.053-.0062.098-.0244.136-.0142zm-3.089-.4632c.05.0026.111-.0014.161.0022.019.0051.045.0217.074.0295l-.165.0076zm-13.17 13.9867.035-.0206c0 .041-.007.0691-.015.0973-.003.0101-.022.005-.024.014zm.739-4.5825c.005-.0191.027-.0231.038-.0307.003.0319-.001.0816-.006.0997-.005.0191-.024.014-.036.0217-.001-.0316.002-.0817.004-.0907z"/><path d="m181.254 109.544c.061-.268.13-.564.261-.448-.062.42-.116.852-.178 1.273.138.127.183-.195.245-.463l-.002.01c.033-.58.047-1.124-.083-1.433l-.003.009c-.144-.14-.107-.587-.102-.981.076-.173.136-.32.225-.54-.075-.06-.124-.104-.166-.135l-.003.009c-.005-.549.192-1.248.113-1.746-.005-.022.03-.154.051-.19.104-.165.12-.414.158-.668.043-.313.112-.609.174-.917.082-.455.217-.958.241-1.356.045-.771.148-1.535.254-2.3079.098-.6747.137-1.2728-.04-1.5942-.049-.0843-.079-.2349-.118-.3574l-.002.0101c-.21.1767-.007.4447-.124.5762-.124.3111-.248.6229-.383.973-.164.0874-.338-.2127-.518.6117-.028-.1597-.054-.2885-.09-.42-.052.1186-.075.1632-.092.2297-.016.0973-.042.2325-.041.3031.049 1.0687-.14 2.2677-.28 3.4367-.033.276-.12.75-.164.8-.207.208-.074.579-.207.888-.019.035-.083.16-.146.245-.395.564-.443.744-.533 1.836-.054.697-.105 1.414-.201 2.119l-.395 2.686c-.059.451-.079.902-.12 1.358-.054.432-.109.864-.161 1.287-.185.194-.37.398-.556.561-.135.126-.252.41-.324.756-.073.346-.133.726-.153 1.066-.077 1.156-.193 2.312-.374 3.513-.096.665-.171 1.324-.234 1.977-.105.998-.21 1.995-.471 2.97-.03.114-.02.269-.027.409.072-.193.143-.388.236-.616-.011.565.083.976-.075 1.715-.119-.276.031-1.098-.169-1.111l-.323 2.613c-.069.368-.047.78-.212 1.131-.172.34-.563.59-.956.505-.336-.069-.674-.059-1.025-.113l-1.212-.203c-1.391-.22-2.78-.33-4.16-.629-.163-.034-.37-.058-.528-.07-.681-.031-1.235-.159-1.7-.396l.01.003c-.135.014-.288.055-.393.027-1.206-.263-2.394-.41-3.584-.506l-.216-.027.01.002c-.488-.221-1.071-.317-1.704-.375l.011-.008-2.389-.427c-.379-.061-.446-.15-.573-.246l.01.003c-.224.001-.442.024-.689-.001-.259-.019-.567-.042-.815-.097-.794-.183-1.373-.177-1.923-.09-.181.032-.513.024-.755-.02-.897-.17-1.802-.351-2.698-.522l.009.003c-.062.004-.124.007-.192-.001l-2.104-.321-3.005-.4c-.351-.054-.703-.138-1.046-.22-.975-.221-1.976-.418-2.975-.513-.621-.066-1.197-.149-1.803-.272-.556-.118-1.166-.262-1.693-.302-.627-.046-1.187-.074-1.826-.256-.294-.078-.693-.105-1.04-.168-.349-.062-.909-.131-.99-.204-.29-.241-.633-.059-.909-.163-.128-.055-.346-.072-.504-.124-.158-.053-.295-.111-.479-.179-.293.073-.578.149-.859.216-.086.017-.215.043-.333.032-1.013-.08-2.031-.251-2.882-.56-.478-.18-.947-.285-1.48-.377-.419-.062-.845-.135-1.274-.2-.65.232-.805.546.049.988l-.009-.003.223.039-.009-.002c.099.006.214-.003.298.02l3.974.832-.009-.003c.565-.03.879.236 1.369.298.19.203.7.268 1.14.366l-.01-.003c.406.15.838.124 1.247.192l3.031.489c.087.014.178.059.27.093l-.01-.003c.744.099 1.498.199 2.318.318.276.104.639.222.97.351.346.144.714.212 1.168.293.902.151 1.774.304 2.652.357.131.005.287.026.413.05 1.771.425 3.637.651 5.441.993.665.128 1.354.241 2.03.331.91.122 1.816.183 2.723.427.483.129.909.131 1.33.113.152-.001.322.005.462.011.172.078.299.133.474.199.35-.017.678-.031 1.168.069.74.148 1.516.245 2.261.374.988.174 1.961.364 2.96.419.359.025.828.05 1.128.14.903.263 1.798.289 2.694.428.077.092.148.162.493.204.871.112 1.753.267 2.626.339l-.013.007c.206.025.482.017.603.06.295.11.472.167.781.109.117-.02.494.05.721.111l.757.203.397.107c.182.039.371.09.544.126.467.034.88.043 1.277.038.506.004.998-.057 1.446-.363.432-.291.753-.732.917-1.195.187-.468.276-1.033.365-1.589l.211-1.283c.063-.348.17-.674.234-1.023.058-.33.067-.672.119-1.013.043-.314.114-.619.167-.93l.002-.01c-.037.061-.085.129-.124.201.009-.526.162-.566.244-.798-.096-.513-.089-.541.153-.913l-.003.01c-.016-.127-.041-.266-.062-.413.216-.805.339-1.646.353-2.453.006-.253.045-.436.081-.68.169-1.05.466-2.087.491-3.166.012-.536.184-.722.319-1.001-.03-.303-.175-.524.053-1.031l-.003.009c.223-.53.156-1.035.214-1.557l-.002.009c.012-.199.005-.435.043-.577.134-.461.286-.877.433-1.315l.004.021.173-1.1c.038-.254.009-.302-.064-.251zm-3.652 17.851-.003.05c-.002.08.005.174.002.031-.019.147-.004.049.003-.05zm-5.558 2.965-.145.012-.498.12c-.237-.023-.486-.039-.718-.081-.602-.101-1.182-.246-1.8-.28-.16-.013-.382-.052-.522-.099-.597-.192-1.15-.248-1.835-.188-.118-.092-.208-.168-.3-.244-.405.075-.856.055-1.507-.16.463-.028.916.022 1.352.058.028.008.084.064.137.097.659.036 1.334.126 2.021.249.348.063.711.109 1.067.144.82.078 1.569.198 2.105.504.007-.1-.004-.214.498-.12zm1.514.558c.2-.068.341-.101.505-.148.198.093.342.163.486.232.062-.004.123-.008.195-.009.059.006.146.019.215.027-.055.016-.1.035-.181.033-.04 0-.142-.038-.217-.059-.259-.018-.517-.037-1.003-.076zm-10.827-1.819 1.35.109c.015-.016.022-.045.046-.059s.086-.018.129-.027c.002.032.034.061-.002.082-.014.017-.121-.002-.192-.001.077.051.158.093.296.181-.462-.053-.87-.082-1.271-.138-.115-.02-.226-.102-.344-.153-.367-.027-.766-.014-1.06-.204l-.576-.043-.016-.055.571.102.478-.044-.01-.003c.326.069.508.147.601.253zm4.032.047c-.131.036-.315.078-.488.122l-.172-.076c.108-.103.108-.103.66-.046zm-16.448-2.211c-.019-.005.067-.022.1-.033l.423.164-.212.034c-.106-.059-.225-.111-.311-.165zm27.467-6.578.064-.084.004.438-.063.084zm-.442 8.317c.006-.058.033-.122.058-.176l.023.219-.062.116c-.015-.056-.031-.111-.019-.159zm-1.848 2.439c.053-.007.105-.013.157-.019.022-.005.057.016.088.013-.052.007-.107.022-.159.029zm-26.324-4.283.02.037c-.031.001-.069-.009-.097-.017-.01-.002-.005-.021-.014-.024zm4.476.735c.019.005.023.026.03.038-.031.002-.081-.001-.1-.006s-.014-.024-.02-.037c.03-.001.073-.01.09.005z"/><path d="m226.651 37.1876c.479.0984 1.01.2001.804.3275-.742-.1076-1.51-.2325-2.251-.3401-.216.125.357.2178.841.3069l-.022.0044c1.015.1097 1.975.1949 2.509.0944l-.021.0046c.227-.1319 1.014-.0425 1.716.0239.31.0933.572.1738.965.2996.101-.0745.16-.1092.223-.1533l-.022.0043c.957.0638 2.205.3581 3.073.3372.04.0007.282.0451.336.0699.299.131.733.1764 1.19.2482.542.0948 1.092.2017 1.635.2965.802.1443 1.704.3456 2.405.4221 1.342.1369 2.689.3359 4.077.5457 1.188.187 2.247.2984 2.79.1599.151-.0407.402-.0544.611-.0694l-.023.004c-.334-.2419-.769-.0643-1.023-.2033-.55-.1579-1.118-.3305-1.738-.5072-.168-.177.342-.3141-1.13-.6077.274-.0179.503-.0276.732-.0372-.219-.0689-.297-.0999-.41-.1201-.173-.0363-.4-.0767-.538-.0834-1.86-.0931-3.979-.428-6.047-.719-.478-.0675-1.331-.215-1.418-.269-.393-.2373-1.026-.1434-1.586-.3239-.063-.0272-.285-.1072-.439-.1787-1.036-.4812-1.354-.5462-3.291-.7715-1.236-.1491-2.486-.2914-3.744-.4767-1.575-.2503-3.172-.4959-4.748-.7462-.797-.1226-1.581-.1906-2.383-.2944-.761-.1127-1.531-.2281-2.283-.3384-.356-.2175-.745-.4333-1.055-.6384-.232-.1537-.74-.3002-1.366-.4274-.608-.1125-1.288-.224-1.878-.2908-2.039-.2222-4.078-.4851-6.197-.8204-1.169-.1815-2.342-.344-3.498-.4918-1.77-.2415-3.524-.4685-5.266-.8547-.191-.0412-.481-.0581-.718-.0811.348.1036.698.1974 1.111.3186-1.001-.086-1.702-.0408-3.004-.2886.469-.0872 1.93.1729 1.925-.0316-3.199-.4726-6.394-.8833-9.627-1.4563-.705-.1284-1.459-.1886-2.198-.3057-.747-.1292-1.505-.2513-2.26-.383-2.456-.4054-4.917-.68-7.382-1.1686-.297-.0596-.651-.1036-.944-.1418-1.196-.1178-2.185-.3222-3.031-.6102l.022-.0043c-.232-.0014-.501.0178-.693-.0235-2.14-.4119-4.247-.7233-6.352-.9634-.127-.0139-.254-.0376-.381-.0516l.009.0024c-.876-.2858-1.923-.4649-3.032-.6004l.03-.0019-4.24-.742c-.661-.1063-.807-.2063-1.031-.3172l.019.0051c-.398-.0256-.781-.0369-1.205-.0796-.463-.0532-1.005-.1074-1.448-.1958-1.423-.2904-2.431-.3477-3.389-.3306-.316.0065-.902-.039-1.328-.1127-1.605-.2887-3.199-.5843-4.795-.8706l.021-.0044c-.108-.0088-.22-.0084-.326-.0267-.661-.1064-1.364-.1325-2.027.0348-.327.0849-.654.2102-.899.439-.281.2189-.299.5898-.373.9047l-.903 5.3817c-.106.6213-.251 1.2421-.375 1.8585-.365 1.7397-.698 3.518-.926 5.2741-.138 1.0896-.291 2.1146-.49 3.198-.185.996-.406 2.0838-.501 3.0124-.117 1.1159-.195 2.0896-.445 3.2511-.111.5285-.18 1.2408-.264 1.8578-.093.6145-.219 1.6161-.301 1.7669-.265.5378-.115 1.1161-.249 1.6182-.064.2367-.106.6212-.171.8982-.068.2964-.134.5426-.22.8647.055.5123.1.9912.15 1.4819.01.1547.025.3619.008.5806-.159 1.805-.411 3.6154-.781 5.1505-.211.8671-.356 1.7113-.488 2.6605-.092.757-.193 1.5117-.283 2.2691.197 1.1188.497 1.3212 1.006-.2377l-.005.019.054-.3916.005.0218c.007-.1808.008-.3734.041-.5372l1.125-7.1188.004.0214c.012-.9916.302-1.5838.402-2.4501.218-.358.328-1.2622.47-2.0567l-.005.019c.187-.7415.193-1.4812.301-2.2237l.793-5.3908c.025-.1658.074-.3149.117-.4759l-.005.0189c.182-1.3218.373-2.6409.573-4.1099.132-.4924.299-1.1582.478-1.7497.189-.6294.301-1.2794.446-2.0831.273-1.5915.537-3.145.718-4.6903.03-.2254.065-.5103.115-.7306.349-1.5711.649-3.186.947-4.7911.194-.9934.212-1.1714.309-1.5716.228-.3246.687-.3333 1.036-.3109.13.0044.89.1577 1.466.2411.604.0911 1.206.1916 1.809.2825 1.619.2415 3.217.4063 4.831.7786.849.1972 1.615.2507 2.346.2844.268.0212.565.0498.804.0635.319.0958.553.1686.853.2592.612.0222 1.192.0558 2.052.2155 1.313.2407 2.681.4351 4.019.6623 1.755.2983 3.495.6131 5.24.7969.64.0703 1.449.1554 1.993.281 1.611.3817 3.186.52 4.78.7751.145.1.284.188.891.2694 1.549.233 3.112.4901 4.644.6778l-.032.0017c.363.0465.85.0858 1.067.1441.527.1516.851.2284 1.393.2114.195-.0085.872.1121 1.275.2.909.2031 1.798.4013 2.638.5962.545.0447 1.058.0604 1.565.1358l7.913 1.301c.611.1031 1.207.263 1.819.3661.583.0955 1.184.1553 1.78.2442.551.0971 1.102.1942 1.655.2918l.019.0051c-.119-.0521-.227-.1015-.364-.1586.923.0751 1.001.2381 1.427.3525.89-.0352.939-.0223 1.619.272l-.019-.0051c.224-.0006.459-.0087.723-.009 1.434.3238 2.915.5487 4.33.6746.446.0385.766.0937 1.192.1676 1.864.3073 3.714.7429 5.598.903.931.0775 1.282.2833 1.794.4511.525.0091.9-.1035 1.814.1924l-.019-.0051c.948.2849 1.839.2904 2.749.4127l-.022.0043c.343.0414.767.0534 1.012.1193.819.1995 1.576.4025 2.361.6132l-.032.0016 1.955.3114c.435.0761.533.0517.432-.0262zm-31.696-5.9975-.097-.0159c-.149-.0097-.299-.0192-.059-.0057-.254-.0376-.088-.0134.078.0108zm-13.15-2.4121-.253-.0067-.865.0521c-.419-.0618-.843-.1045-1.26-.1758-1.066-.1844-2.103-.4019-3.189-.5105-.277-.0236-.673-.0993-.919-.1654-1.073-.2677-2.052-.3983-3.232-.4205-.223-.1108-.393-.1969-.554-.2807-.705.0239-1.485-.0533-2.654-.3467.811.035 1.615.139 2.381.2328.05.0032.162.0739.242.1159 1.174.1221 2.363.299 3.576.5025.621.1058 1.265.1975 1.884.2721 1.441.1836 2.772.3987 3.756.7744-.003-.1022-.041-.2242.856-.0546zm2.716.7594c.357-.0464.525-.0722.797-.1008.295.1096.508.187.72.2642.099.0064.192.001.311.0125.097.0158.213.0368.332.0483-.102.0031-.179.0232-.307.009-.059-.0057-.211-.0464-.315-.0742-.396-.0353-.789-.0798-1.538-.159zm-19.202-3.2136 2.387.2853c.024-.0138.023-.0447.075-.051.042-.0089.152.0002.226-.0104.011.0335.063.0675.008.0834-.033.0113-.218-.018-.337-.0296.147.0597.283.1167.548.2282-.823-.1092-1.537-.2092-2.252-.2998-.203-.0342-.411-.1305-.626-.1982-.657-.085-1.35-.1084-1.878-.3315l-1.012-.1193-.026-.0575 1.016.1812.827.0188-.022.0043c.547.0758.883.1861 1.066.2961zm7.069.5569c-.228.02-.538.0384-.849.0665l-.319-.0958c.199-.0989.199-.0989 1.168.0293zm-29.062-4.2859c-.028-.0075.089-.0268.144-.0425l.735.2074-.357.0057c-.176-.0574-.354-.1153-.522-.1706zm63.991 9.679.153.0715-.767-.0534-.153-.0716zm-14.492-1.4928c.097.0158.189.0507.273.0733l-.315.0068-.191-.0819c.08.0013.164-.0066.233.0018zm-5.34-.8441c.09.0039.181.0079.28.0143.029.0075.085.0226.123.0329l-.279-.0141zm-45.86-6.9661.047.0126c-.039.0301-.087.058-.126.0881-.014.0165-.031.0019-.04-.0006.041-.0397.077-.0605.119-.1001zm7.561.6482c.037.01.034.0195.051.034-.059-.0056-.138-.0166-.166-.0242-.037-.01-.032-.0289-.042-.0316.047.0127.128.0143.157.0218z"/><path d="m254.877 75.5203c.092-.4627.179-.9877.309-.7903-.107.7225-.199 1.4693-.304 2.1823.128.2068.212-.3492.293-.8146l.005.0217c.091-.9809.158-1.9171.048-2.4337l.005.0216c-.135-.2189-.048-.9875.004-1.6639.091-.3003.169-.5533.283-.9389-.08-.1028-.107-.161-.158-.215l.005.0216c.045-.9321.314-2.1389.281-2.9803 0-.0406.041-.2733.066-.3274.131-.2897.16-.7185.234-1.1555.086-.5249.175-1.0593.252-1.587.135-.786.323-1.6492.377-2.3351.116-1.319.292-2.6219.479-3.9626.168-1.1527.263-2.193.121-2.7083-.047-.1447-.057-.3909-.087-.6019l.005.0216c-.229.3344-.049.7481-.178.9877-.157.5466-.311 1.0838-.486 1.6968-.166.1786-.321-.3299-.576 1.1043-.024-.2706-.041-.4883-.046-.7128-.066.2056-.099.2882-.116.395-.026.1759-.062.3896-.064.5209-.065 1.8101-.358 3.8732-.624 5.8728-.061.4708-.194 1.288-.249 1.3746-.23.3749-.128 1.0011-.292 1.5356-.028.0636-.097.2787-.17.4317-.465 1.0123-.523 1.3112-.726 3.1958-.115 1.1973-.246 2.4108-.402 3.6378-.217 1.5355-.447 3.0779-.664 4.6134-.109.7726-.164 1.5396-.264 2.3148l-.102.8253c-.084.3937-.009.8806-.364 1.1609-.393.0978-.828.0319-1.131-.0802-.247-.0863-.614-.1238-1.031-.2155-.266-.0512-.545-.0955-.824-.14-.309-.0525-.611-.0927-.895-.1183-1.978-.2161-3.956-.4727-5.992-.7955-1.135-.1831-2.272-.3256-3.395-.4747-1.717-.2272-3.403-.4462-5.099-.8302-.194-.0418-.46-.0524-.699-.086.339.1012.678.2023 1.068.317-.97-.0777-1.642-.0244-2.911-.2735.445-.0937 1.873.1675 1.863-.0381-3.099-.4559-6.189-.8486-9.311-1.4124-.688-.1235-1.411-.1857-2.122-.2952-.726-.1239-1.464-.2507-2.19-.3745-2.381-.385-4.761-.6582-7.14-1.1242-.289-.0571-.63-.1079-.917-.1342-1.157-.1075-2.118-.3044-2.932-.594l.02-.0046c-.22-.0085-.491.0205-.673-.0184-2.072-.4035-4.112-.6972-6.148-.9289-.119-.0115-.244-.0349-.363-.0465l.009.0025c-.847-.2783-1.856-.4476-2.935-.5846l.022-.0043-4.106-.7161c-.641-.1109-.776-.2082-.991-.3166l.019.0051c-.389-.0232-.752-.0293-1.165-.079-.443-.048-.974-.1093-1.398-.1925-1.376-.2777-2.353-.337-3.282-.3121-.306.0092-.873-.0314-1.287-.112l-4.64-.849.022-.0044c-.109-.0088-.211-.0058-.318-.0243-1.205-.1916-2.411-.3832-3.61-.5626l-5.139-.7599c-.595-.0885-1.207-.2225-1.804-.3417-1.683-.34-3.402-.6592-5.099-.8709-1.06-.1322-2.042-.2842-3.084-.4825-.963-.1874-2.01-.4073-2.915-.5082-1.072-.1252-2.023-.2077-3.14-.4667-.515-.1181-1.196-.1891-1.797-.2896-.593-.0979-1.557-.2451-1.698-.3234-.516-.2704-1.078-.1371-1.558-.276-.224-.0704-.597-.1197-.864-.181-.287-.0669-.518-.1493-.837-.245-.497.0391-.963.0766-1.432.1233-.145.012-.349.0181-.565-.0096-1.731-.2003-3.488-.4891-4.949-.9016-.83-.2327-1.636-.3984-2.558-.5542-.729-.1146-1.448-.2364-2.187-.3534-1.087.1649-1.299.4635.195 1.0166l-.019-.0052.376.0706-.02.0046c.177.0172.357.0249.52.0585l6.848 1.3096-.022.0043c.954.0328 1.521.3372 2.361.4609.345.2245 1.211.3555 1.972.5088l-.019-.0051c.716.2023 1.43.2214 2.148.343l5.204.8584c.156.0215.312.0836.463.1243l-.019-.0051c1.278.1904 2.564.3833 3.979.5904.47.1362 1.094.3037 1.697.4758.609.1837 1.237.3014 2.021.4406 1.541.2613 3.046.5128 4.554.6738.227.0204.49.0605.713.1 3.063.6392 6.247 1.0876 9.361 1.649 1.151.2073 2.335.4033 3.496.5728 1.561.2259 3.116.3996 4.673.7565.831.1924 1.56.2357 2.269.2737.268.0212.546.045.785.0583.3.0907.534.1638.832.2639.591.0266 1.153.0455 1.994.2 1.274.2403 2.593.4218 3.891.6482 1.696.2927 3.38.5923 5.065.7705.612.0625 1.409.1546 1.925.2727 1.563.3687 3.088.5037 4.623.7533.136.0975.274.1853.86.2714 1.502.2202 3.006.4717 4.499.6489l-.03.0019c.353.0441.82.0781 1.038.1366.508.1465.822.2206 1.343.2079.195-.0085.841.1141 1.225.1968.88.1957 1.739.3956 2.55.5827.526.0399 1.03.0533 1.515.1326l7.656 1.2626c.598.0995 1.171.2533 1.767.3624.555.0982 1.146.1451 1.724.2392.535.0929 1.071.1858 1.593.2855l.02.0053c-.105-.0485-.221-.0998-.346-.1539.884.0751.972.2305 1.372.3478.862-.0427.912-.0292 1.578.2611l-.02-.0054c.216-.0028.432-.0058.704-.0141 1.382.31 2.819.5333 4.189.647.433.0349.739.0968 1.154.1573.905.1616 1.797.3299 2.701.4914.453.0808.895.159 1.362.2234.219.0283.448.0591.677.0901.271.0323.532.0617.806.0845 1.28.0895 1.83.085 2.572-.0712.305-.1721.539-.363.794-.6297.277-.2708.469-.6254.696-1.1937l-.008.0284c.046-.1705.097-.3194.135-.4614.058-.299.104-.5913.15-.8835l.054-.3612.023-.2882c.028-.3882.057-.7765.105-1.1593l.005.0216c.026-.3382.047-.7387.103-.9876.18-.7942.378-1.533.56-2.2961l.003.0312.291-1.8915c.061-.4301.041-.5167-.047-.4287zm-24.609 6.7051-.082-.0121c-.139-.0067-.297-.0186-.063-.0067-.239-.0336-.083-.0121.083.0121zm-12.719-2.3471-.242-.0041-.837.0597c-.411-.0595-.826-.0997-1.224-.1659-1.027-.1742-2.043-.3959-3.081-.4919-.266-.0306-.645-.0917-.891-.1578-1.033-.2669-1.986-.3806-3.135-.4048-.215-.1082-.372-.2012-.532-.2849-.684.0195-1.448-.0434-2.576-.3357.784.0275 1.556.1331 2.302.2217.05.0033.164.0744.243.1159 1.135.1119 2.288.2788 3.469.4843.601.1004 1.228.1873 1.825.2663 1.393.1708 2.685.3853 3.637.7628-.003-.1023-.031-.2216.838-.0595zm2.628.7458c.348-.0487.514-.0652.779-.1057.285.107.488.1817.691.2565.1.0067.192.0009.302.01.1.0064.213.0369.322.0457-.092.0058-.179.0232-.297.0116-.059-.0056-.201-.0436-.305-.0717-.39-.0232-.774-.0654-1.492-.1464zm-18.59-3.1102 2.309.2742c.024-.0138.022-.0446.075-.0508.042-.0091.142-.0026.226-.0105.011.0335.053.0651.007.0833-.033.0114-.209-.0155-.327-.0271.137.0573.274.1143.528.223-.803-.1037-1.488-.1962-2.182-.2911-.195-.0319-.402-.1281-.607-.1934-.628-.0771-1.303-.0957-1.819-.3255l-.984-.1118-.025-.0575.987.1736.798.011-.021.0046c.538.0731.864.181 1.035.298zm6.847.5173c-.22.0224-.519.0435-.819.0646l-.309-.0931c.189-.1015.189-.1015 1.128.0285zm-28.192-4.1639c-.029-.0076.104-.0126.168-.0259l.743.2195-.347.0085c-.194-.0724-.387-.1444-.564-.2021zm62.004 9.3691.143.0689-.742-.0467-.153-.0716zm-14.026-1.4082c.083.0121.181.0485.262.0701l-.302.0002-.183-.0797c.075 0 .143-.0122.223.0094zm-5.175-.8202c.09.0036.18.0076.268.0211.028.0075.085.0227.123.0329l-.271-.0116zm-44.757-7.3808.031.0388c-.06-.0059-.116-.021-.166-.0243-.019-.0051-.017-.0145-.023-.0264zm7.682 1.2593c.037.01.035.0195.051.0341-.059-.0057-.128-.0139-.156-.0215-.038-.0102-.033-.0292-.042-.0317.047.0127.119.0116.147.0191z"/><path d="m147.767 187.409c-.481-.099-1.011-.201-.804-.328.741.108 1.508.232 2.25.34.216-.125-.357-.218-.841-.307l.022-.004c-1.014-.11-1.975-.195-2.509-.095l.019.005c-.228.132-1.015.043-1.717-.024-.309-.093-.572-.174-.964-.299-.101.074-.161.109-.223.153l.022-.004c-.957-.064-2.206-.359-3.072-.337-.043-.001-.279-.045-.337-.07-.299-.131-.738-.178-1.193-.249-.535-.093-1.088-.201-1.634-.297-.801-.144-1.696-.343-2.397-.42-1.352-.139-2.7-.338-4.087-.548-1.179-.184-2.247-.298-2.78-.157-.151.04-.412.052-.621.067l.023-.004c.343.244.779.066 1.022.203.551.158 1.118.33 1.739.507.178.18-.333.317 1.13.608-.274.018-.503.027-.722.04.209.066.297.1.4.117.173.036.409.08.538.083 1.86.094 3.978.429 6.054.722.478.067 1.332.215 1.415.268.389.236 1.028.144 1.585.323.064.028.286.108.439.179 1.037.481 1.354.546 3.291.771 1.237.15 2.486.292 3.744.477 1.576.251 3.173.496 4.747.746.799.123 1.582.191 2.385.295.761.113 1.531.228 2.282.338.357.218.745.434 1.056.639.232.154.74.3 1.365.427.609.113 1.288.224 1.879.291 2.039.222 4.076.485 6.197.82 1.168.182 2.34.344 3.498.492 1.769.242 3.524.469 5.265.855.192.041.482.058.718.081-.347-.104-.697-.197-1.111-.319 1.001.086 1.702.041 3.014.291-.469.088-1.93-.172-1.924.032 3.198.473 6.393.883 9.625 1.456.706.129 1.46.189 2.199.306.746.129 1.514.254 2.26.383 2.456.405 4.917.68 7.381 1.169.298.059.651.103.946.142 1.194.117 2.184.322 3.03.609l-.022.005c.232.001.501-.018.693.023 2.141.413 4.246.723 6.352.964.127.013.253.038.381.051l-.009-.002c.876.286 1.923.465 3.032.6l-.03.002 4.241.743c.66.106.806.205 1.03.316l-.019-.005c.398.026.781.038 1.206.081.462.052 1.004.106 1.447.195 1.423.29 2.431.348 3.389.33.316-.006.902.039 1.328.114 1.605.288 3.199.583 4.795.87l-.021.004c.108.009.22.008.326.027.661.106 1.364.132 2.027-.035.327-.085.654-.21.899-.439.281-.219.298-.589.373-.905l.903-5.381c.106-.622.251-1.242.375-1.859.364-1.74.699-3.517.926-5.274.139-1.089.292-2.115.49-3.198.186-.996.406-2.084.502-3.012.116-1.116.194-2.09.444-3.251.111-.529.18-1.241.264-1.858.093-.615.219-1.617.3-1.767.266-.538.117-1.116.251-1.618.064-.237.105-.621.17-.899.068-.296.134-.542.22-.864-.055-.513-.099-.991-.15-1.483-.01-.154-.025-.361-.007-.579.158-1.806.41-3.616.779-5.151.213-.867.357-1.712.489-2.661.092-.757.193-1.512.283-2.269-.197-1.119-.497-1.321-1.006.238l.005-.019-.054.392-.004-.022c-.008.18-.009.373-.042.537l-1.125 7.119-.004-.022c-.012.991-.302 1.583-.403 2.451-.217.357-.327 1.262-.469 2.056l.005-.019c-.188.741-.193 1.481-.301 2.223l-.788 5.332c-.024.166-.073.315-.116.476l.005-.019c-.181 1.322-.373 2.641-.573 4.11-.132.493-.3 1.158-.478 1.749-.189.63-.302 1.28-.447 2.084-.273 1.591-.537 3.145-.717 4.69-.03.225-.065.51-.115.731-.349 1.571-.65 3.186-.947 4.791-.194.993-.212 1.171-.309 1.572-.229.324-.687.333-1.036.311-.131-.005-.89-.158-1.466-.241-.604-.091-1.206-.192-1.81-.283-1.618-.241-3.216-.407-4.83-.779-.849-.197-1.615-.251-2.347-.284-.267-.021-.564-.05-.803-.064-.32-.095-.553-.168-.854-.259-.612-.023-1.19-.056-2.05-.216-1.315-.24-2.682-.434-4.02-.662-1.755-.298-3.495-.613-5.241-.797-.639-.07-1.448-.155-1.992-.281-1.611-.381-3.186-.519-4.78-.774-.145-.101-.284-.189-.89-.27-1.551-.233-3.114-.491-4.645-.678l.031-.002c-.363-.046-.849-.085-1.066-.143-.527-.152-.851-.229-1.393-.212-.196.009-.873-.113-1.275-.2-.909-.203-1.798-.402-2.638-.597-.546-.044-1.059-.06-1.565-.135l-7.914-1.301c-.61-.103-1.206-.263-1.818-.366-.583-.096-1.185-.156-1.78-.244-.551-.097-1.103-.195-1.655-.292l-.019-.005c.119.052.226.101.363.158-.923-.075-1.001-.238-1.426-.352-.891.035-.939.022-1.62-.272l.019.005c-.223.001-.458.009-.722.009-1.435-.324-2.915-.549-4.331-.675-.445-.038-.766-.094-1.192-.167-1.863-.308-3.713-.743-5.597-.903-.932-.078-1.282-.284-1.795-.452-.524-.008-.899.104-1.813-.192l.019.005c-.948-.285-1.839-.29-2.749-.412l.022-.005c-.344-.041-.767-.053-1.013-.119-.818-.199-1.575-.403-2.36-.613l.031-.002-1.954-.311c-.436-.077-.533-.052-.432.026zm31.694 5.997.097.016c.151.01.3.019.06.006.254.037.088.013-.078-.011zm13.143 2.41.251.006.865-.052c.42.061.844.105 1.261.176 1.066.185 2.103.401 3.188.51.278.024.673.1.919.166 1.073.267 2.052.398 3.232.421.225.111.395.196.554.28.706-.024 1.486.053 2.654.346-.811-.034-1.615-.139-2.381-.232-.049-.003-.162-.075-.251-.118-1.174-.123-2.363-.3-3.576-.503-.621-.105-1.265-.197-1.884-.272-1.441-.184-2.771-.399-3.756-.774.003.102.041.224-.856.054zm-2.707-.757c-.357.046-.527.072-.798.101-.294-.11-.507-.188-.719-.265-.1-.006-.193-.001-.312-.012-.097-.016-.213-.037-.331-.049.102-.003.178-.023.306-.009.06.006.21.047.315.075.395.035.79.08 1.539.159zm19.191 3.211-2.387-.286c-.024.014-.021.045-.074.051-.043.009-.152.001-.226.011-.011-.033-.063-.068-.009-.083.035-.012.219.017.337.029-.145-.06-.282-.116-.546-.228.822.108 1.535.209 2.251.3.204.034.411.13.626.198.65.073 1.349.109 1.877.331l1.013.12.025.057-1.016-.182-.827-.018.022-.005c-.537-.073-.873-.183-1.066-.295zm-7.059-.555c.228-.019.537-.038.85-.066l.319.096c-.199.099-.199.099-1.169-.03zm29.061 4.286c.029.008-.088.027-.143.043l-.735-.208.356-.005c.178.057.355.115.522.17zm-63.989-9.679-.153-.071.766.053.153.072zm14.491 1.493c-.097-.016-.189-.051-.274-.073l.316-.007.192.082c-.091-.004-.165.006-.234-.002zm5.339.844c-.089-.004-.18-.008-.279-.014-.028-.008-.086-.023-.123-.033l.28.014zm45.862 6.966-.048-.013c.038-.029.087-.057.125-.088.015-.016.031-.002.041.001-.041.04-.087.058-.118.1zm-7.561-.648c-.038-.01-.036-.019-.051-.034.058.006.136.017.164.024.038.011.034.029.044.032-.058-.016-.129-.015-.157-.022z"/><path d="m119.546 149.077c-.092.463-.188.985-.319.788.107-.723.199-1.469.304-2.182-.128-.207-.202.351-.293.814l-.005-.022c-.09.981-.158 1.918-.048 2.434l-.005-.022c.135.22.048.988-.004 1.665-.091.3-.159.556-.273.941.07.1.108.161.148.213l-.005-.022c-.045.932-.314 2.139-.281 2.981 0 .039-.041.272-.066.327-.121.292-.16.718-.224 1.158-.086.525-.185 1.057-.262 1.584-.135.786-.323 1.649-.377 2.335-.116 1.319-.292 2.622-.479 3.963-.168 1.152-.263 2.192-.111 2.711.037.142.057.391.077.599l-.005-.022c.229-.334.049-.748.188-.985.157-.547.312-1.084.476-1.699.177-.176.321.329.586-1.102.014.268.031.486.036.711.066-.206.099-.289.116-.395.036-.174.072-.388.075-.519.054-1.812.357-3.873.613-5.875.071-.468.194-1.289.249-1.375.23-.374.128-1.001.303-1.533.027-.064.096-.278.159-.434.465-1.012.523-1.311.726-3.196.115-1.197.246-2.411.402-3.638.227-1.532.457-3.075.674-4.611.099-.775.154-1.542.254-2.317l.112-.823c.084-.393.009-.88.355-1.164.392-.097.827-.031 1.141.083.236.084.613.125 1.02.213.276.054.545.096.824.141.309.051.621.095.905.121 1.968.213 3.946.469 5.992.795 1.126.18 2.262.322 3.385.472 1.717.227 3.413.448 5.099.83.194.042.47.056.699.086-.339-.101-.678-.202-1.068-.317.97.078 1.642.024 2.911.274-.445.093-1.863-.165-1.863.037 3.109.459 6.193.851 9.316 1.414.686.123 1.409.186 2.12.295.728.124 1.464.251 2.191.375 2.38.384 4.761.658 7.139 1.124.289.057.631.108.918.134 1.157.108 2.118.305 2.933.594l-.022.005c.22.008.492-.02.675.018 2.071.404 4.111.698 6.147.929.119.011.244.035.363.047l-.01-.003c.848.278 1.857.447 2.936.585l-.022.004 4.106.717c.64.11.776.208.99.316l-.018-.005c.389.022.751.029 1.165.078.443.048.973.11 1.397.193 1.376.278 2.353.337 3.283.312.306-.009.872.032 1.287.112l4.639.849-.022.005c.11.008.212.006.318.023 1.206.192 2.411.384 3.611.564l5.138.759c.595.089 1.208.223 1.805.342 1.683.341 3.402.659 5.099.871 1.059.132 2.042.284 3.084.482.963.188 2.01.408 2.915.509 1.072.124 2.023.207 3.14.467.515.118 1.196.188 1.797.289.593.098 1.556.245 1.698.324.516.27 1.078.137 1.558.276.225.07.596.119.864.181.286.066.517.148.836.245.497-.04.963-.078 1.432-.124.146-.012.35-.018.566.009 1.73.201 3.487.489 4.948.902.83.233 1.637.399 2.559.555.729.115 1.447.236 2.186.352 1.088-.164 1.3-.462-.195-1.016l.019.005-.376-.07.022-.005c-.179-.018-.359-.025-.522-.058l-6.847-1.31.021-.005c-.954-.033-1.521-.337-2.36-.46-.346-.225-1.212-.356-1.973-.509l.019.005c-.716-.202-1.43-.221-2.147-.342l-5.204-.859c-.157-.022-.312-.084-.464-.125l.019.005c-1.278-.19-2.564-.383-3.978-.589-.47-.137-1.095-.305-1.697-.476-.61-.185-1.237-.302-2.021-.441-1.542-.262-3.046-.513-4.553-.674-.229-.02-.492-.061-.714-.1-3.062-.639-6.247-1.087-9.361-1.649-1.151-.207-2.335-.403-3.496-.572-1.562-.227-3.117-.401-4.674-.757-.83-.192-1.558-.236-2.268-.274-.269-.022-.546-.045-.785-.059-.301-.09-.534-.162-.832-.263-.591-.027-1.154-.046-1.994-.2-1.274-.241-2.594-.422-3.892-.649-1.696-.292-3.379-.592-5.064-.77-.613-.063-1.409-.154-1.924-.272-1.565-.369-3.09-.505-4.625-.754-.135-.097-.274-.185-.859-.271-1.503-.221-3.006-.471-4.5-.649l.031-.002c-.353-.044-.821-.078-1.038-.136-.508-.147-.823-.221-1.343-.209-.195.01-.842-.113-1.224-.197-.881-.195-1.74-.395-2.551-.582-.527-.04-1.03-.053-1.52-.134l-7.655-1.262c-.588-.097-1.171-.254-1.757-.36-.565-.101-1.146-.145-1.734-.242-.535-.093-1.06-.183-1.593-.285l-.02-.006c.105.049.231.103.357.157-.895-.078-.973-.23-1.382-.351-.863.043-.913.029-1.569-.258l.02.006c-.226-.001-.442.003-.704.014-1.392-.313-2.829-.536-4.199-.65-.422-.032-.729-.095-1.154-.158-.894-.158-1.797-.329-2.691-.488-.463-.083-.905-.162-1.362-.223-.229-.031-.448-.06-.686-.094-.262-.029-.533-.061-.797-.081-1.29-.092-1.84-.088-2.572.071-.315.17-.549.36-.804.628-.276.269-.468.625-.696 1.192l.008-.028c-.046.171-.096.32-.134.462-.059.299-.105.591-.151.884l-.043.363-.034.286c-.028.388-.057.776-.105 1.159l-.005-.021c-.026.338-.047.738-.103.987-.18.794-.378 1.533-.56 2.296l-.003-.031-.28 1.894c-.061.43-.052.514.036.426zm24.599-6.708.093.016c.138.005.286.015.053.003.248.037.092.015-.073-.009zm12.723 2.349.242.004.837-.06c.41.059.825.099 1.223.165 1.028.175 2.043.396 3.091.495.266.031.645.092.89.158 1.034.267 1.987.381 3.136.405.215.108.372.201.532.285.684-.019 1.449.043 2.576.335-.784-.027-1.556-.133-2.302-.222-.05-.002-.163-.074-.243-.115-1.136-.112-2.287-.279-3.469-.485-.601-.1-1.227-.187-1.825-.266-1.393-.17-2.684-.385-3.637-.763.003.103.031.222-.838.06zm-2.629-.747c-.347.049-.514.066-.778.106-.286-.106-.489-.181-.692-.256-.099-.007-.192-.001-.301-.01-.1-.006-.213-.037-.323-.046.093-.005.179-.023.298-.012.058.006.201.045.304.073.39.022.774.065 1.492.145zm18.591 3.111-2.309-.275c-.025.014-.022.045-.075.051-.043.009-.142.003-.225.011-.012-.033-.054-.065-.008-.083.033-.012.208.015.327.026-.137-.056-.274-.113-.529-.222.804.104 1.489.196 2.183.291.194.031.402.128.608.193.627.078 1.301.096 1.818.326l.984.112.024.057-.987-.174-.798-.01.022-.005c-.538-.073-.864-.181-1.035-.298zm-6.846-.517c.218-.022.518-.044.817-.065l.31.094c-.187.091-.187.091-1.127-.029zm28.192 4.163c.028.008-.105.013-.17.026l-.742-.219.347-.009c.193.073.387.145.565.202zm-62.006-9.379-.143-.068.752.048.143.07zm14.033 1.421c-.093-.016-.181-.049-.272-.073h.302l.183.079c-.065.003-.153.01-.213-.006zm5.167.818c-.086-.003-.181-.008-.264-.021-.03-.008-.09-.024-.121-.032l.267.011zm44.758 7.381-.03-.039c.059.006.116.021.166.024.018.005.017.015.023.027zm-7.681-1.26c-.038-.01-.035-.019-.052-.034.06.006.129.015.157.022.037.01.032.028.042.031-.047-.013-.119-.011-.147-.019z"/><path d="m222.937 138.343c.28.024.591.059.516-.111-.423-.071-.877-.154-1.3-.234-.096-.172.235-.116.536-.091h-.011c.566.147 1.12.303 1.38.523l-.011-.001c.095.181.548.284.949.403.188-.021.345-.031.596-.049.047.091.065.152.083.202l-.01-.001c.533.175 1.292.204 1.759.434.021.011.166.018.198.011.19-.049.437.013.695.055.32.055.642.082.963.119.476.063.995.09 1.407.19.76.207 1.555.346 2.351.474.692.115 1.299.274 1.546.532.079.073.211.148.311.223l-.01-.001c-.237.144-.431-.131-.601-.06-.345.021-.69.042-1.077.062-.142.129.116.389-.755.304.152.077.263.152.385.216-.126.014-.178.02-.241.017-.103-.015-.238-.031-.309-.054-1.033-.378-2.263-.569-3.46-.807-.278-.054-.764-.119-.839-.093-.267.134-.587-.118-.933-.078-.042.008-.179.031-.295.064-.677.2-.864.19-1.966-.072-.71-.165-1.41-.338-2.142-.474l-2.759-.457c-.464-.082-.906-.214-1.37-.305-.443-.083-.877-.164-1.321-.246-.245.116-.512.229-.716.356-.171.09-.485.112-.847.064-.363-.038-.755-.108-1.095-.184-1.163-.286-2.337-.543-3.558-.744-.68-.113-1.35-.255-2.019-.389-1.019-.209-2.028-.418-3.064-.481-.117-.006-.271-.063-.406-.099.216-.009.432-.018.678-.034-.56-.167-.932-.382-1.701-.471.234.199 1.091.311 1.032.505-1.854-.342-3.678-.74-5.578-.975-.418-.051-.833-.181-1.261-.252-.439-.062-.876-.124-1.324-.196-1.429-.221-2.834-.558-4.287-.702-.175-.02-.379-.059-.544-.097-.338-.097-.649-.151-.952-.177-.292-.025-.568-.019-.902.002l.019.011c-.154-.057-.297-.142-.433-.16-.37-.039-.73-.096-1.058-.192-.328-.105-.62-.346-.8-.65-.39-.628-.126-1.361.007-2.041l.051-.244-.001.011c-.046-.621.032-1.178.183-1.836l-.01.008.344-2.486c.059-.389-.005-.481-.056-.631l-.001.01c.07-.222.16-.434.222-.676.071-.261.147-.572.17-.836.072-.84.268-1.4.521-1.926.087-.173.182-.502.215-.755.117-.937.234-1.873.351-2.82v.01c.022-.058.045-.125.058-.183l.357-2.172.561-3.083c.058-.36.086-.732.125-1.093.101-1.026.224-2.07.443-3.08.139-.631.239-1.224.311-1.859.059-.587.112-1.232.247-1.764.15-.631.307-1.183.332-1.879.016-.313.115-.72.173-1.08.048-.361.157-.935.122-1.035-.128-.361.141-.641.127-.946-.002-.137.039-.361.047-.528 0-.176-.012-.324-.021-.531.16-.266.32-.524.471-.7707.043-.076.107-.1906.134-.3176.248-1.0273.4-2.0806.37-3.0045-.013-.5213.023-1.0202.11-1.575.072-.4387.143-.8763.215-1.315.431-.5662.767-.6084.922.3721l.001-.0104-.031.2248v-.0104c-.025.0978-.069.203-.074.3008l-.46 4.1685v-.0094c-.204.5393-.057.9392-.152 1.4348.134.253.039.768-.014 1.237v-.009c.016.452-.142.856-.213 1.284l-.485 3.137c-.015.097 0 .196.005.285v-.01c-.137.769-.274 1.527-.427 2.383.005.295.014.698.034 1.073.02.384-.02.764-.084 1.242-.136.935-.271 1.842-.493 2.724-.036.136-.064.291-.081.428-.155 1.877-.527 3.772-.762 5.655-.084.693-.199 1.414-.323 2.104-.176.933-.399 1.845-.448 2.805-.026.509-.166.933-.304 1.339-.047.145-.096.319-.141.454.019.197.021.335.041.532-.126.338-.24.656-.306 1.173-.089.771-.247 1.559-.356 2.348-.075.486-.138.964-.211 1.442-.044.273-.107.525-.189.806-.06.212.043.492.226.561.269.112.516.076.747.146l.359.087.68.124c.101-.063.201-.107.551-.04.894.164 1.808.299 2.68.501l-.019-.01c.213.049.484.132.611.129.324-.013.52-.012.806.14.106.055.505.104.739.117.529.027 1.077.055 1.576.081.308.094.587.206.878.252l4.611.699c.361.048.714.046 1.075.095.34.047.678.142 1.028.2.321.055.643.082.965.128l.009.001c-.079.015-.149.041-.239.056.523.154.608.022.862.015.478.251.507.262.945.137l-.01-.001c.124.056.249.122.393.188.86.044 1.715.197 2.514.425.257.071.443.091.691.133 1.096.164 2.198.202 3.256.512.523.155.768.05 1.093.007.285.123.462.329 1.028.269h-.01c.575-.04 1.064.172 1.59.278l-.01-.001c.195.05.42.13.576.138.499.016.958.001 1.438-.004l-.02-.011 1.137.176c.258.043.297.085.232.14zm-18.658-2.083-.059-.012c-.086-.024-.163-.059-.037-.012-.147-.028-.049-.012.048.012zm-7.717-.928-.135-.056-.457-.27c-.242-.051-.484-.112-.728-.145-.622-.091-1.238-.133-1.857-.292-.155-.038-.388-.069-.545-.077-.627-.003-1.258-.134-1.803-.388-.121.062-.232.096-.332.14-.142-.085-.296-.162-.479-.211s-.43-.042-.717-.175c.229.316.661.309 1.027.426.02.002.111-.033.16-.051.502.154 1.289.293 1.971.387.36.049.738.127 1.087.204.824.179 1.602.308 2.227.183-.025.098-.08.202.456.27zm1.66-.061c.18.127.274.19.406.295.187-.03.326-.052.454-.075.059.023.106.045.174.068.058.013.126.026.194.03-.047-.032-.094-.064-.162-.087-.038-.011-.127-.007-.186-.01-.232-.061-.455-.112-.88-.221zm-9.044-2.982c-.068.38-.266.792-.139 1.201-.021.019-.042.038-.053.076-.012.029.004.089.002.138.03-.008.078-.006.091-.045.001-.019-.034-.11-.051-.169.067.043.133.095.267.161-.228-.346-.149-.734-.074-1.055.015-.097-.029-.178-.054-.287.077-.34.208-.598.119-.976l.138-.581-.047-.033-.08.595-.189.432.001-.009c-.026.293-.004.47.069.552zm1.811 2.529c-.114-.075-.265-.17-.417-.267l-.206.01c.042.139.042.139.623.257zm.013-15.287c.001-.019-.043.058-.064.086l.025.473.098-.192c-.022-.129-.036-.257-.059-.367zm20.252 18.748.099-.033-.433-.141-.1.034zm-8.223-2.152c.058.012.108-.004.166-.001l-.172-.077-.119.023c.039.021.086.053.125.055zm-3.102-.514c.049.013.107.035.155.048.02.001.05-.008.079-.006l-.154-.057zm-8.662-17.236.028.031c.012-.039.013-.068.015-.098 0-.009-.02-.01-.019-.02zm-.708 4.627c-.001.02.018.031.027.041.01-.029.023-.077.024-.097s-.018-.021-.027-.031c-.012.029-.034.067-.024.087z"/><path d="m246.188 122.635c-.025.273-.051.586.109.507.074-.419.158-.856.232-1.275.171-.08.123.242.099.515v-.009c-.154.562-.306 1.093-.528 1.347l.001-.01c-.182.089-.277.527-.401.913.021.187.034.345.053.581-.095.035-.149.062-.202.088v-.009c-.172.521-.2 1.256-.431 1.705-.012.019-.019.166-.011.196.053.189-.011.431-.056.684-.047.312-.073.625-.11.938-.066.458-.093.986-.196 1.373-.206.756-.328 1.515-.462 2.294-.118.672-.273 1.263-.536 1.514-.066.066-.146.209-.214.313v-.01c-.154-.244.126-.425.051-.587-.014-.334-.038-.669-.061-1.043-.128-.135-.39.098-.305-.752-.07.143-.148.257-.217.381-.015-.128-.022-.187-.019-.246.016-.098.033-.235.057-.302.375-1.012.572-2.209.799-3.375.045-.273.112-.76.084-.821-.132-.262.113-.583.079-.919-.009-.039-.033-.178-.059-.278-.205-.669-.196-.854.058-1.931.16-.689.331-1.387.472-2.097l.452-2.695c.075-.459.212-.884.298-1.34.084-.428.169-.865.243-1.284-.113-.241-.224-.503-.349-.715-.096-.162-.122-.468-.072-.829.039-.351.1-.731.18-1.061.287-1.134.534-2.279.731-3.476.117-.662.255-1.322.383-1.974.207-.991.425-1.982.477-2.999.006-.118.056-.273.093-.398.011.207.02.423.039.67.164-.552.38-.914.461-1.666-.2.226-.305 1.064-.501 1.016l.469-2.421c.062-.39.229-.813.083-1.213-.125-.409-.561-.628-.968-.63-.342-.037-.669-.153-1.031-.21l-1.272-.183c-1.405-.22-2.763-.555-4.194-.688-.177-.019-.362-.058-.527-.096-.657-.1815-1.238-.2313-1.753-.1494l.01.0006c-.122-.0554-.263-.1409-.377-.1468-1.234-.1231-2.42-.3513-3.594-.6278l-.217-.0404.011.0005c-.524.0616-1.124-.0288-1.752-.1687l.01.0099-2.421-.3315c-.383-.0583-.48.0055-.628.0563l.01.0005c-.215-.0695-.419-.1593-.656-.2102-.257-.0623-.555-.1371-.815-.1599-.819-.0725-1.362-.2571-1.869-.519-.162-.0867-.481-.1824-.739-.2145-.911-.1159-1.833-.2229-2.744-.3388l.011.0005c-.062-.0219-.123-.0449-.185-.0585l-2.118-.3545-3.003-.5473c-.351-.0578-.715-.0859-1.078-.1151-1.006-.0905-2.014-.2114-3.003-.4294-.612-.1296-1.195-.2286-1.809-.2999-.575-.0589-1.2-.111-1.713-.2355-.62-.1499-1.152-.3046-1.827-.3301-.312-.0161-.7-.1144-1.05-.1616-.35-.0484-.914-.1557-1.014-.1119-.35.1395-.62-.1394-.925-.1259-.138.0126-.361-.0385-.518-.0372-.176.0013-.324.0135-.511.0227-.256-.1604-.512-.3207-.76-.4712-.076-.0425-.19-.1079-.307-.1327-.997-.2382-2.029-.3896-2.933-.3579-.51.0226-.999-.0224-1.534-.099-.427-.0711-.855-.1329-1.283-.204-.558-.4211-.598-.7664.351-.924l-.01-.0005.224.0313-.01-.0004c.097.0248.203.0688.301.0739l4.066.4362-.011-.0005c.529.2036.92.0474 1.406.1414.241-.1357.756-.0403 1.205.0027l-.009-.0005c.441-.0168.835.1412 1.254.2025l3.064.4721c.097.0144.186.0003.285-.0051l-.011-.0005c.749.1367 1.497.2734 2.323.4245.294-.014.686-.0136 1.04-.035.375-.0297.744.0186 1.212.0824.909.1355 1.788.2592 2.652.4801.123.0366.278.0634.412.0807 1.837.1439 3.694.5047 5.536.7375.684.0843 1.376.1889 2.058.3117.908.1648 1.802.3977 2.738.4366.499.0258.909.1544 1.308.3022.143.0471.307.0952.441.1313.188-.0195.335-.0317.523-.0418.327.1254.644.2398 1.141.2947.756.088 1.53.2458 2.285.3432 1.004.1405 1.998.2607 2.964.5171.35.0859.802.2083 1.135.2151.946.029 1.809.2801 2.708.4246.097-.0639.193-.108.533-.0414.877.1632 1.756.2972 2.621.489l-.01-.0099c.207.0399.473.1318.598.1289.313-.0141.511-.0132.795.1391.101.0543.484.1033.713.1151.54.0279 1.091.0563 1.59.082.452.1214.852.2402 1.275.3215.392.089.74.2051 1.055.358.325.1649.613.4449.804.7689.424.67.408 1.395.314 2.205l-.24 1.618c-.049.35-.046.704-.096 1.055-.048.332-.138.67-.197 1.001-.058.311-.085.634-.132.946v.009c-.018-.069-.034-.148-.051-.228-.151.503-.02.589-.012.844-.254.468-.266.497-.142.925l.001-.009c-.059.124-.117.239-.187.383-.043.843-.18 1.68-.418 2.462-.075.242-.095.427-.139.67-.159 1.063-.194 2.151-.497 3.186-.162.511-.049.744-.013 1.059-.118.279-.326.455-.26 1.008v-.01c.033.571-.178 1.041-.278 1.557l.001-.009c-.052.193-.136.414-.144.561-.014.48.004.933.012 1.395l.011-.019-.172 1.111c-.044.252-.087.29-.147.228zm2.043-18.255.003-.049c.025-.077.06-.164.012-.029.028-.146.013-.048-.013.048zm-4.769-4.292-.133-.055-.445-.2686c-.237-.0519-.473-.1131-.711-.1452-.6-.0894-1.202-.1309-1.808-.2895-.155-.0372-.372-.0682-.518-.0664-.635-.0025-1.182-.1194-1.814-.3878-.148.0518-.255.0954-.361.1389-.375-.1967-.796-.3165-1.495-.3129.429.1692.883.2615 1.315.3621.031.0109.106-.0342.159-.0503.648.1701 1.319.2934 2.022.3986.341.0468.713.115 1.053.192.803.1782 1.568.297 2.179.1709-.026.0968-.073.2028.434.2672zm1.629-.073c.181.127.261.191.391.296.22-.029.367-.05.514-.072.072.024.123.046.194.068.062.014.145.028.217.042-.061-.033-.101-.065-.173-.088-.041-.012-.145-.008-.228-.012-.237-.061-.473-.123-.915-.234zm-10.94-1.6143 1.328.3138c.009.0203.007.0494.027.0702.02.0209.071.0423.112.0642.011-.0286.054-.0462.024-.077-.009-.0203-.123-.0355-.184-.0585.095-.0243.179-.0398.337-.0807-.464-.0928-.865-.1917-1.257-.261-.124-.0169-.252.0256-.377.0389-.371-.0879-.739-.2249-1.077-.1338l-.556-.1372-.033.0473.579.079.449.1901-.011-.0006c.311.0359.51.0169.639-.0547zm3.866 1.2001c-.111-.0735-.273-.1705-.424-.267l-.199.0189c.087.1328.087.1328.623.2481zm-16.454-2.989c-.021-.0011.061.0428.091.0631l.46-.0253-.193-.0976c-.116.0232-.242.0366-.358.0598zm24.661 14.5762.037.1.136-.414-.026-.1zm2.15-8.155c-.014.057.003.127 0 .185l.095-.211-.035-.129c-.024.048-.047.096-.059.135zm-1.418-2.627c.051.023.113.045.153.067.021.001.063.003.094.005l-.153-.067zm-26.515-4.0483.032-.0286c-.03-.0109-.072-.0131-.103-.0147 0 0-.001.0198-.011.0193zm4.517.6943c.021.0011.032-.0182.033-.0275-.021-.0115-.072-.0236-.093-.0246-.021-.0011-.022.0187-.033.0275.031.012.072.0235.093.0246z"/></g></svg>