<svg fill="none" height="244" viewBox="0 0 246 244" width="246" xmlns="http://www.w3.org/2000/svg" xmlns:xlink="http://www.w3.org/1999/xlink"><clipPath id="a"><path d="m0 0h246v243.5h-246z" transform="matrix(1 0 0 -1 0 243.5)"/></clipPath><g clip-path="url(#a)" fill="#3b3b3b"><path d="m209.471 189.231c-1.14.809-2.427 1.651-1.817 1.849 1.817-1.09 3.7-2.212 5.502-3.367.65.165-.728 1.073-1.896 1.865l.054-.017c-2.519 1.387-4.933 2.575-6.365 2.757l.053-.017c-.676-.198-2.651.809-4.402 1.634-.742.578-1.339 1.056-2.28 1.799-.318-.132-.504-.215-.69-.297l.053-.017c-2.426 1.007-5.436 2.988-7.691 3.615-.106.033-.689.38-.808.495-.689.66-1.79 1.156-2.89 1.733-1.353.693-2.679 1.486-4.018 2.212-1.989 1.089-4.15 2.426-5.927 3.185-3.395 1.486-6.71 3.169-10.091 4.968-2.904 1.535-5.529 2.806-6.974 2.823-.398 0-1.06.198-1.604.313l.053-.016c.676-1.089 1.909-.875 2.44-1.535 1.312-.99 2.612-1.997 4.084-3.103.331-.71-1.088-.759 2.505-2.872-.716.182-1.313.33-1.895.479.503-.38.702-.578.954-.726.424-.248.981-.562 1.339-.694 4.734-1.766 9.971-4.473 15.102-6.998 1.194-.594 3.275-1.716 3.474-1.98.836-1.09 2.56-1.271 3.845-2.278.16-.132.663-.561 1.021-.924 2.334-2.393 3.09-2.856 7.85-5.216 3.023-1.535 6.099-3.119 9.109-4.935 3.766-2.278 7.518-4.803 11.151-7.427 1.83-1.321 3.66-2.542 5.436-3.978 1.672-1.37 3.302-2.905 4.84-4.473.504-1.221 1.022-2.509 1.339-3.614.239-.859 1.061-2.163 2.056-3.681.968-1.486 2.002-3.153 2.837-4.655 2.957-5.05 4.734-11.273 5.132-17.99.252-3.697.172-7.444-.159-11.141-.544-5.596-1.698-11.257-4.018-16.027-.265-.528-.53-1.353-.822-2.013.583.875 1.114 1.798 1.71 2.937-.954-2.921-1.458-5.199-3.845-8.302.238.71.981 1.932 1.512 3.104.543 1.155.915 2.211.65 2.343-2.03-4.374-4.907-7.906-8.553-10.299-3.607-2.4265-7.69-3.9285-11.893-5.199-1.844-.545-3.727-1.3535-5.623-1.981-1.949-.627-3.898-1.254-5.873-1.766-3.209-.9075-6.378-1.898-9.56-2.855-3.209-.875-6.418-1.7005-9.679-2.377-.783-.165-1.711-.429-2.467-.6435-3.063-.9575-5.728-1.403-8.075-1.4195l.066.033c-.583-.231-1.246-.611-1.737-.6935-5.714-.957-11.23-2.2775-16.72-3.6475-.317-.066-.662-.1485-.994-.2145h.026c-2.439.0165-5.197-.5115-8.114-1.205l.066.033c-3.752-.6435-7.505-1.287-11.27-1.9475-1.764-.3135-2.188-.1485-2.851-.0165h.053c-1.021-.3135-1.989-.66-3.09-.9575-1.206-.3135-2.612-.66-3.805-.825-3.805-.528-6.391-1.37-8.791-2.4265-.795-.3465-2.294-.792-3.434-1.0065-4.256-.809-8.513-1.469-12.768-2.2945l.052.0165c-.278-.099-.5565-.2145-.848-.2805-3.275-.759-6.5765-1.403-9.8255-2.2445-4.6405-1.205-9.2815-2.3605-13.8955-3.73-1.6175-.446-3.2885-.7925-4.9325-1.1555-4.614-1.073-9.268-2.3935-13.7895-4.011-2.7845-1.089-5.41-2.03-8.2342-2.9045-2.6121-.743-5.4231-1.816-7.7567-2.839-2.7845-1.2875-5.1977-2.41-8.2208-3.4825-1.379-.479-3.1159-1.4195-4.6672-2.1955-1.5514-.726-3.9779-2.129-4.4287-2.2115-1.6044-.231-2.6518-1.7495-3.9379-2.377-.61-.2805-1.4984-.99-2.1878-1.386-.716-.4625-1.3658-.776-2.1746-1.304-.9414-1.2545-1.7502-2.476-2.5855-3.78-.252-.3795-.61-.9075-1.0343-1.419-3.50045-4.044-6.43075-8.814-8.67157-13.2045-1.27289-2.492-2.174525-5.199-2.691639-8.368-.4242977-2.50849-.556891-5.09999-.397779-7.69149.570148-1.782505 1.166818-2.6734957 1.577858-2.508502.21215.082504.39778.428985.54363 1.056492.07956.3135.14585.69299.19889 1.15499.09281.46201.17237.99051.25193 1.60102l-.01326-.04952c-.02652.396 0 .79251.01326 1.18851l.01326-.11549c0 .54449-.09282 1.12249-.02652 1.61749.6497 7.229 3.68609 13.98 7.73014 19.278l-.0265-.066c1.3923 2.5085 2.9701 3.2515 4.6275 4.9515 1.021.297 2.811 1.9805 4.5745 3.169l-.0531-.0165c1.737.9735 3.2353 2.327 4.9458 3.3505 4.1502 2.459 8.5523 4.4895 13.0604 6.338.411.165.8486.231 1.2596.33h-.0398c3.3281 1.3535 6.6165 2.806 10.3291 4.209 1.3125.264 3.0895.6435 4.707.924 1.697.297 3.368.8255 5.4495 1.502 4.1235 1.1885 8.128 2.443 12.053 3.862.583.1985 1.3125.4295 1.896.545 4.1765.8745 8.38 1.9805 12.6225 2.938l6.3645 1.502c2.135.4455 4.2565.8745 6.378 1.3035 3.1425.6275 6.3505 1.2875 9.4935 1.9645 4.23.9405 8.38 2.063 12.729 2.5085 2.307.2475 4.256.8585 6.126 1.4855.676.2145 1.459.429 2.082.6105.875.0165 1.525.0165 2.373.0165 1.565.5285 3.036 1.04 5.343 1.403 3.514.545 7.121 1.337 10.674 1.948 4.668.825 9.309 1.634 13.843 2.855 1.658.4625 3.779 1.04 5.25 1.2215 4.376.4785 8.46 1.7825 12.664 2.7565.437-.1485.874-.264 2.465.1155 4.084 1.0065 8.208 2.0795 12.212 3.2845l-.066-.033c.954.264 2.188.7755 2.785.858 1.458.1985 2.333.347 3.646 1.073.477.264 2.267.7265 3.341.9575 2.467.495 4.853 1.056 7.094 1.601 1.392.594 2.652 1.2375 3.978 1.667 3.434 1.089 6.935 2.2445 10.528 3.9115 3.553 1.6835 7.212 4.0275 10.275 7.609 1.406 1.634 2.745 3.301 3.832 5.249 1.034 1.848 1.817 3.878 2.559 5.892.676 1.849 1.313 3.73 1.844 5.612l.026.065c-.185-.379-.385-.759-.597-1.188.663 3.185 1.087 3.417 1.525 4.869.146 3.169.146 3.301 1.008 5.728l-.026-.066c.013.809-.014 1.617-.041 2.558.769 5.133.717 10.629-.225 15.63-.292 1.585-.49 2.724-.769 4.242-1.299 6.602-3.765 13.27-7.637 18.09-1.897 2.36-2.427 3.565-3.368 5.116-1.233 1.057-2.268 1.436-4.111 3.863l.041-.066c-1.963 2.442-4.204 3.779-6.379 5.38l.053-.033c-.822.561-1.869 1.172-2.439 1.667-1.883 1.634-3.62 3.136-5.423 4.655l.066-.033-4.72 3.053c-1.074.677-1.326.693-1.141.347zm24.251-88.649-.186-.231c-.278-.3795-.57-.776-.119-.165-.53-.6275-.185-.2145.159.198zm-33.758-14.1615-.624-.2805-2.068-1.2545c-1.1-.3465-2.187-.7425-3.288-1.023-2.798-.677-5.609-1.205-8.394-2.1295-.702-.231-1.75-.4785-2.439-.5775-2.917-.33-5.49-1.0235-8.447-2.2775-.649.1155-1.14.198-1.643.297-1.737-.875-3.779-1.436-6.961-1.7495 2.054.759 4.163 1.254 6.165 1.799.133.033.478-.066.716-.099 3.023.924 6.152 1.6835 9.374 2.3765 1.644.363 3.328.8585 4.933 1.3205 3.739 1.1225 7.239 1.964 10.037 2.03-.106.33-.318.644 2.055 1.238zm7.425 1.073c.822.6105 1.22.9075 1.843 1.37.835.0495 1.432.099 2.028.132.252.132.478.2475.769.3795.252.099.571.1815.849.2805-.239-.1485-.411-.297-.729-.4455-.159-.066-.557-.132-.848-.1815-1.021-.396-2.029-.7925-3.912-1.535zm-50.69-11.867 6.218 1.5845c.04.0825.027.165.16.2475.106.0825.37.1815.569.264.04-.0825.2-.1485.094-.2475-.067-.066-.571-.1815-.876-.264.411-.033.809-.0665 1.551-.1325-2.161-.528-4.017-1.023-5.913-1.4025-.531-.116-1.154-.0165-1.737-.0165-1.71-.4295-3.474-1.0565-5.012-.8585l-2.652-.6765-.119.165 2.718.4785 2.095.809-.066-.0165c1.472.2475 2.412.2475 2.97.066zm18.165 5.7765c-.544-.297-1.3-.726-2.055-1.139l-.889-.0495c.398.512.398.512 2.944 1.1885zm-76.679-16.505c-.0795 0 .252.165.398.264l2.095.132-.8885-.4125c-.5435 0-1.127-.0165-1.6045.0165zm142.843 74.636.079.528c.159-.809.252-1.617.372-2.442-.027-.182-.067-.347-.107-.528-.093.825-.225 1.633-.344 2.442zm-12.305-43.161c.226.1655.491.2645.729.413l-.676-.677-.544-.198c.159.1485.319.3465.491.462zm-13.696-6.1725c.225.099.45.198.689.3135.066.033.225.033.345.0495l-.704-.33zm-122.0925-26.722.1195-.0825c-.159-.033-.3185-.0825-.464-.1155-.053-.0165-.0665.0495-.093.066zm20.9495 4.341c.107 0 .12-.033.16-.066-.147-.033-.345-.099-.438-.099s-.107.0495-.146.066c.159.033.358.099.424.099z"/><path d="m152.588 217.011c1.698-1.189 3.209-2.262 4.164-3.417-.915.528-1.419.858-1.936 1.172l.053-.017c.186-.313.451-.66.557-.907.106-.264.199-.512.04-.611-.226-.149-2.056.677-2.904 1.37-.517.429-.888.99-.69 1.04.703.165.703.775.769 1.353z"/><path d="m144.328 222.489c1.458-1.683 2.294-1.766 3.288-2.261.385-.462.689-.825.994-1.172l-.053.05c-1.392.412-2.201.627-3.142 1.271-.955.627-2.095 1.601-4.084 3.614.159.463.981.116 2.97-1.469z"/><path d="m138.454 223.53c-.053.281-.106.545-.173.892 2.851-2.74 5.635-4.919 8.91-7.147-.464-.05-1.193.396-1.962.941-.755.577-1.538 1.271-2.161 1.683-1.446 1.024-2.93 2.195-4.614 3.631z"/><path d="m161.565 211.217c-.12-.544-1.737.05-3.647.859.584.33.584.313 3.686-.892z"/><path d="m129.822 231.865c.039.116-.054.462.145.281.252-.248.716-.925 1.088-1.403-.093-.05-.067-.297-.292-.116-.172.149-.637.875-.981 1.337z"/><path d="m142.101 221.599c-.743.66-1.472 1.354-2.175 2.08l.119.066c.703-.726 1.432-1.42 2.175-2.08z"/><path d="m240.551 164.82c-.279.33-.544.627-.849.99-.053.066-.398.776-.384.743.212-.165.464-.446.716-.693.159-.297.318-.578.517-1.04z"/><path d="m238.429 169.309.424-.759-.689.677c-.08.198-.266.528-.226.544.053 0 .332-.297.491-.462z"/><path d="m128.39 237.973c.066 0 .093.115.212-.05.172-.231.424-.644.637-1.007.013-.016.132-.396.119-.379-.133.099-.265.181-.451.445-.119.165-.358.677-.53 1.04z"/><path d="m42.6422 59.402c-.1326 0-.4111-.033-.3448.033s.4111.231.6497.363c.1326 0 .4376.0495.3713-.0165-.0928-.0825-.4508-.2475-.6762-.3795z"/><path d="m6.80199 26.459c-.1326-.165-.27845-.3465-.4243-.528.10605.2475.1989.4785.34475.7425.0928.165.2784.363.43755.5285-.1326-.248-.25195-.4955-.358-.743z"/><path d="m10.2759 30.9635c.0795.1155.2121.314.2386.3305.1326.099.2519.1815.3713.2475-.0796-.1155-.2122-.3135-.2387-.33-.1458-.083-.2519-.1655-.3712-.248z"/><path d="m245.324 119.598c0 .099-.026.165 0 .297.013.132.08.346.119.528l.014-.446z"/><path d="m113.301 71.1375c.345.1485.65.2805.955.4125.172-.0165.504-.0165.477-.066-.039-.066-.305-.198-.57-.264-.146-.0495-.464-.0495-.862-.0825z"/><path d="m145.653 222.21c-.305-.033.69-1.304-1.313.28l-.026.033 1.392-.363z"/><path d="m148.611 219.057.755-.264.358-.38-1.166.693z"/><path d="m138.017 227.59c-.107.099-.305.264-.319.281-.119.214-.199.396-.305.577.106-.115.305-.28.319-.313.106-.198.212-.363.305-.545z"/><path d="m171.973 201.907c-.132.066-.318.132-.397.182-.08.049-.067.099-.107.148.133-.066.319-.132.398-.181.093-.05.08-.099.106-.149z"/><path d="m127.806 236.338c.08-.165.212-.479.212-.479-.026-.082-.079-.115-.119-.165l-.385.858z"/><path d="m140.867 226.765-.292.281.199-.033c.079-.099.199-.231.212-.264.027-.05-.066.016-.119.016z"/><path d="m157.932 210.705.225-.198-.345.165z"/><path d="m73.8281 61.185c.2385.0825.3845.132.517.1815l.1325-.066c-.199-.0165-.3845-.0495-.6495-.1155z"/><path d="m137.831 226.667-.279.346.412-.28c.039-.083.145-.231.119-.248-.027 0-.173.116-.252.182z"/><path d="m193.864 199.103-.318.165.186-.033z"/><path d="m167.902 211.316-.212.017c-.119.082-.305.198-.331.231-.027.033.106.016.199-.017.092-.049.225-.148.344-.231z"/><path d="m239.649 168.964-.173.132c-.066.116-.185.297-.198.346-.014.033.092-.065.159-.115z"/><path d="m12.2382 26.112-.4111-.33.3845.2805z"/><path d="m45.36 46.016.3712.1155c-.1458-.0825-.2917-.165-.4508-.264-.0265-.0165-.1856-.0165-.2784-.033z"/><path d="m19.491 34.019c-.0796-.1155-.1459-.231-.1724-.264.0265.0495.1326.165.2254.297z"/><path d="m193.679 80.975.888.165-.822-.132z"/><path d="m205.162 193.26.066-.132-.305.198z"/><path d="m215.278 185.864-.398.429.332-.396z"/><path d="m229.399 174.228.332-.082-.385.148z"/><path d="m46.0764 52.817-.1061-.1155c-.1193-.033-.2652-.0825-.3447-.099-.0265 0 .0663.066.0928.1155z"/><path d="m63.5649 59.1065-.0925.0495.305.066z"/><path d="m74.6631 63.1655c-.0395-.033-.0795-.0825-.1195-.099-.106-.033-.2515-.0495-.3045-.0495-.04 0 .066.066.106.099z"/><path d="m132.169 74.802c.093.066.199.132.212.1485-.027-.0165-.146-.0825-.278-.1485z"/><path d="m14.2008 40.0915-.3182-.215.3315.314z"/><path d="m149.194 219.651.584-.512c-.107.083-.252.182-.319.248-.093.099-.132.165-.185.231z"/><path d="m161.604 211.168h.252c-.026 0-.159.033-.292.05z"/><path d="m130.126 240.597-.291.875.252-.809z"/><path d="m104.935 73.944.278.0495-.159-.0825z"/><path d="m126.322 241.653.305-.445c-.027.016-.053-.017-.093.066-.066.115-.146.313-.225.462z"/><path d="m146.343 215.096-.345.231.093.017z"/><path d="m12.2117 26.063.0264.049z"/><path d="m10.3425 25.9305.0264.066z"/><path d="m211.326 189.545-.053.017z"/><path d="m245.496 124.796.027.066z"/><path d="m243.587 115.471-.026-.065z"/><path d="m205.002 192.285-.053.017z"/><path d="m223.247 179.725-.04.05z"/><path d="m223.207 179.775-.186-.166.054-.033.172.149z"/><path d="m29.3562 46.3145.0528.0165z"/><path d="m29.409 46.315-.0528-.0165z"/><path d="m100.333 67.3265-.053-.0165z"/><path d="m157.732 214.732-.053.016z"/><path d="m173.697 82.51-.066-.0325z"/><path d="m145.879 222.309-.067.033z"/><path d="m149.273 219.619-.132.132.053-.099z"/><path d="m145.826 222.342-.172-.132.04-.049.185.148z"/><path d="m152.641 216.994-.053.033z"/><path d="m130.087 240.663.039-.066z"/><path d="m135.921 226.368-.039.066z"/><path d="m135.895 226.434.04-.066z"/><path d="m144.129 218.067-.04.049z"/><path d="m128.364 238.038.013-.065z"/><path d="m144.089 218.1.04-.049z"/><path d="m126.308 241.751-.12.182.133-.281z"/></g></svg>