<svg fill="none" height="308" viewBox="0 0 397 308" width="397" xmlns="http://www.w3.org/2000/svg" xmlns:xlink="http://www.w3.org/1999/xlink"><clipPath id="a"><path d="m0 0h350v224.737h-350z" transform="matrix(.965926 -.258819 -.258819 -.965926 58.1663 307.666)"/></clipPath><g clip-path="url(#a)" fill="#343a40"><path d="m61.4146 190.705c1.4697.858 3.0858 1.836 2.756 1.175-2.2088-1.411-4.4529-2.882-6.619-4.323-.3437-.69 1.3236.408 2.7759 1.297l-.0634-.047c2.8776 2.032 5.6415 3.949 6.9179 5.272l-.0499-.043c.3711.72 2.7118 2.267 4.7299 3.678 1.0258.507 1.8759.928 3.1796 1.57.1578.352.2522.562.3466.772l-.0633-.047c2.7264 1.99 6.6667 4.24 8.947 6.274.0998.087.8479.554 1.028.633 1.0523.487 2.2878 1.421 3.6128 2.357 1.5749 1.18 3.2287 2.275 4.791 3.503.5883.44 1.1873.896 1.7997 1.355.5978.475 1.1972.957 1.7802 1.424.5859.478 1.1612.941 1.7052 1.405.5294.481 1.0302.951 1.4882 1.401 3.491 3.444 6.895 7.014 10.012 11.01.652.867 1.266 1.733 1.847 2.55.593.813 1.089 1.621 1.522 2.383.437.753.821 1.451 1.122 2.076s.487 1.199.609 1.655c.123.508.48 1.366.729 2.056l-.035-.08c-1.084-.917-1.262-2.459-1.974-3.146-1.298-1.616-2.555-3.25-4.122-4.947-.359-.177-.395.163-.745.022-.177-.067-.43-.254-.844-.683-.418-.422-1.04-1.057-1.896-2.048.499.82.901 1.488 1.304 2.162-.555-.551-.799-.752-1.041-1.037-.406-.47-.925-1.081-1.196-1.472-3.773-5.283-9.4309-10.359-15.1744-14.878-1.3563-1.029-3.7918-2.811-4.1538-2.905-1.4589-.486-2.9509-2.139-4.7568-3.067-.2252-.105-.9447-.465-1.4952-.693-3.6572-1.454-4.6068-2.033-10.2829-5.826-3.6229-2.418-7.3161-4.861-11.06-7.303-4.6809-3.069-9.4698-6.184-13.9107-9.686-1.1173-.896-2.1844-1.818-3.2558-2.732-1.0422-.948-2.0844-1.895-3.1432-2.857-.9792-.927-1.9676-1.863-2.9501-2.802-.9781-.945-1.9048-1.937-2.8473-2.892-1.2512-.707-2.4902-1.583-3.5985-2.208-.8655-.455-2.1507-1.858-3.644-3.588-.6865-.877-1.3861-1.828-2.0723-2.776-.1724-.239-.3431-.473-.5139-.707-.1545-.245-.3091-.49-.4636-.734-.2957-.487-.5897-.967-.8715-1.426-3.8289-6.342-6.5934-13.433-7.9111-21.102-.1503-1.06-.2414-2.135-.3562-3.204-.0418-.535-.1326-1.064-.1313-1.605l-.0316-1.612c-.0464-1.075.0295-2.144.0876-3.209.0311-1.07.1817-2.121.3055-3.177.4407-3.195 1.1161-6.345 2.1076-9.382.2134-.769.4958-1.519.7646-2.271.2748-.754.5092-1.516.8275-2.25l.8905-2.228.9819-2.196c.2717-.67.8549-1.507 1.3009-2.262-.267.593-.5325 1.192-.8051 1.812-.2441.631-.5055 1.292-.778 2.007.4456-.78.8431-1.504 1.2786-2.18.4429-.671.8772-1.328 1.3333-2.022.9259-1.361 1.9287-2.838 3.2601-4.796-.3097.267-.7292.742-1.1846 1.296-.4689.552-.9043 1.228-1.3573 1.839-.909 1.209-1.592 2.314-1.7947 2.127.6934-1.279 1.5162-2.479 2.2924-3.71.4039-.604.8395-1.185 1.26-1.774.419-.596.8411-1.179 1.3024-1.735l1.3507-1.6971 1.4307-1.6356.7161-.8149.751-.7797c.5037-.5164.9967-1.049 1.5154-1.5567 4.1487-4.0422 8.7449-7.6004 13.6774-10.7338 1.0663-.7179 2.2344-1.317 3.3854-1.956 1.1725-.6065 2.3524-1.2088 3.5371-1.7932 2.4165-1.2069 4.8781-2.3878 7.3853-3.4219 4.0812-1.6848 8.2659-3.054 12.4999-4.2393 2.1202-.5809 4.2451-1.1439 6.3843-1.6535 2.1472-.48 4.294-.9853 6.4462-1.5175 1.0432-.235 2.3015-.426 3.3195-.5652 4.1765-.6169 7.7052-1.1365 10.7388-1.9621l-.0819.0029c.814-.0465 1.7661.0418 2.4341-.0484 1.909-.2317 3.813-.4559 5.706-.6516 1.897-.1332 3.789-.2588 5.675-.3635l1.409-.0788 1.41-.0282c.937-.0158 1.881-.0272 2.817-.0429.938-.0099 1.871-.0181 2.803-.0264.934-.0023 1.867.0401 2.8.0572.433.0046.892.0088 1.345.0146l-.03.008c3.209-.4085 6.951-.324 10.898-.1357l-.093-.0133 7.575.2524c2.525.1437 5.041.2831 7.565.4268 2.363.1807 2.908.0345 3.773-.0829l-.076.0013c1.392.2119 2.702.4267 4.192.6251 1.621.214 3.518.4621 5.103.565 5.082.3673 8.574.9893 11.822 1.797 1.076.2649 3.089.6154 4.614.7789 5.689.6118 11.35 1.2181 17.025 1.8271l-.075-.0181c.381.0696.75.1676 1.138.2162 4.385.5414 8.784 1.0855 13.163 1.6285 6.242.7812 12.466 1.5419 18.724 2.1665 2.178.2299 4.436.3051 6.626.4366 6.206.3141 12.515.6325 18.727.9451 1.924.0882 3.792.179 5.659.219 1.865.0089 3.737-.0032 5.652-.0459.442-.0104.892-.0165 1.34-.0285.451-.0254.903-.045 1.361-.0661.911-.0406 1.828-.0829 2.739-.1235 1.821-.0619 3.602-.1261 5.246-.1851 1.954-.0597 3.789-.0682 5.648-.1784 1.856-.1414 3.734-.3205 5.792-.6113 1.874-.2669 4.341-.5273 6.523-.8068.539-.0746 1.159-.158 1.804-.2419.638-.1075 1.287-.2242 1.889-.3281 1.201-.2139 2.205-.4065 2.478-.5243.941-.4046 1.913-.5252 2.866-.647.949-.1336 1.883-.2312 2.747-.4945.799-.2458 2.147-.5053 3.102-.7612 1.017-.2599 1.842-.5955 2.949-.9746.876-.0504 1.716-.142 2.552-.2261.843-.0797 1.677-.1697 2.533-.2973.52-.0758 1.237-.1981 1.987-.4118 3.029-.9133 6.028-2.06 8.814-3.4042 2.784-1.3561 5.305-2.9788 7.46-4.6624 2.404-1.9663 4.632-3.9237 6.873-6.355l1.302-1.4741c.41-.5104.794-1.0456 1.189-1.5646l.596-.789.527-.834 1.042-1.6843c1.197-1.4649 2.074-2.2973 2.411-2.0573.166.1209.201.512.063 1.2293-.154.7086-.381 1.8056-1.049 3.1544l.027-.0645-.764 1.2536.051-.0709c-.096.1402-.194.2744-.289.4145l-.328.3928c-.216.2613-.42.5194-.602.7653-2.593 3.6064-5.836 6.6875-9.385 9.2659-3.548 2.5844-7.403 4.6853-11.37 6.4411l.076-.0266c-1.706.5142-3.023 1.1277-4.319 1.653-.646.2685-1.273.5635-1.936.8175-.664.248-1.354.4964-2.101.722-1.2.8111-4.4 1.6811-7.178 2.3683l.069-.025c-1.301.3868-2.615.6562-3.921.9045-1.31.2366-2.613.4968-3.933.6977-3.197.5454-6.384 1.1322-9.604 1.4991-1.607.1954-3.208.4591-4.819.592l-4.83.4551c-.584.0486-1.157.1893-1.733.2675l.06-.01c-2.378.116-4.748.2363-7.189.3563-2.442.0441-4.942.0846-7.579.1365-1.794.1374-4.21.3016-6.414.4981-2.321.1894-4.647.1452-7.583.0992-2.867-.0962-5.7-.2273-8.501-.3857-2.79-.2122-5.566-.4158-8.3-.7511-.815-.0995-1.809-.2019-2.621-.2448-11.409-.5856-23.035-2.1238-34.444-3.3766-4.225-.4637-8.539-.9794-12.74-1.5448-5.682-.7534-11.248-1.6205-17-1.9735-3.053-.1735-5.666-.6494-8.188-1.0672-.906-.1576-1.948-.2979-2.789-.4223-1.142.0073-1.996.0008-3.112.033-2.094-.3416-4.081-.6865-7.143-.845-2.328-.1009-4.688-.2697-7.061-.3966-2.367-.1032-4.748-.2344-7.102-.2901-1.544-.0187-3.087-.0375-4.63-.0562l-2.304-.0312-2.296.0177c-1.531.0035-3.056.0053-4.582-.0182-1.52.0196-3.042.0333-4.557.026-2.219-.0476-5.053.0508-6.95.2793-5.68.6511-11.1148 1.033-16.6229 1.8287-.5068.2438-1.0072.5114-3.0644.8528-1.3306.2295-2.6629.4529-3.9936.6824-1.3244.2531-2.6404.5612-3.9583.8381-1.3149.2887-2.6376.5478-3.9433.8468-1.3009.3168-2.6023.6083-3.8807.9381l.0922-.012c-1.2238.2962-2.8439.6794-3.5674.9686-.8761.3365-1.5711.6371-2.2701.8753-.7049.2397-1.4199.4186-2.3044.6048-.3251.068-1.0376.3034-1.8311.5923-.7859.2932-1.6466.6637-2.2854.9366-2.92 1.2973-5.6685 2.6885-8.1749 4.1293-1.6868.7508-3.2978 1.4049-4.7828 2.2923-7.8119 4.5343-14.7821 10.4068-20.0809 17.5349-.6418.808-1.1525 1.701-1.7132 2.551-.5515.86-1.0203 1.767-1.5687 2.639-.4922.844-.9872 1.701-1.4897 2.554-.4874.862-.9282 1.755-1.3764 2.644-.3866.835-.7163 1.693-1.0685 2.537-.3371.853-.6023 1.738-.911 2.603l-.0094.059c.0632-.404.128-.803.2022-1.262-.295.702-.5166 1.251-.6533 1.714-.1233.465-.2019.836-.2502 1.154-.095.642-.1277 1.089-.2455 1.788-.5256 1.336-.8353 2.055-.9503 2.741-.1092.684-.1013 1.33-.0635 2.515l.0019-.064c-.1712.713-.3408 1.432-.5443 2.263-.0554.599-.029 1.196-.0338 1.795.0011.597-.0156 1.199-.0086 1.795l.0852 1.789.0304.92.0984.889c.0577.595.1213 1.188.1833 1.775.0561.589.0884 1.184.2129 1.768.2162 1.162.3521 2.334.5813 3.474.1638.706.329 1.323.503 1.924.087.301.174.602.2641.915.0473.153.0902.313.1406.477.0607.156.1246.323.1885.49 2.1097 5.881 5.5888 11.178 9.1624 16.425.9196 1.273 1.6634 2.104 2.3315 2.77.668.667 1.3236 1.12 1.9995 1.721 1.0071 1.434 1.5599 2.595 4.0886 4.607l-.0633-.047c1.3499 1.005 2.4722 2.109 3.6205 3.168 1.157 1.044 2.22 2.164 3.4521 3.157l-.059-.055c.8976.764 1.926 1.779 2.6595 2.263 1.205.796 2.3561 1.581 3.5329 2.295 1.1886.712 2.3326 1.422 3.5358 2.117l-.0724-.057 2.8323 1.911 2.8778 1.867c1.2995.841 1.5193 1.068 1.1162 1.011zm-34.1334-88.86.2058-.252c.3377-.376.6738-.759.1418-.159.5513-.694.1911-.235-.1706.218zm37.2861-26.3723.8497-.2213c.974-.1847 1.9682-.3176 2.947-.4845 1.4167-.4305 2.8595-.8108 4.2675-1.2262 1.7979-.5262 3.593-1.039 5.4068-1.5059 1.8248-.4254 3.6577-.8212 5.5199-1.1549.4737-.0824 1.0495-.2112 1.6209-.3326.5745-.1094 1.14-.2292 1.5821-.3349 1.8616-.4543 3.6518-.8196 5.4911-1.0963 1.8449-.2083 3.7342-.3458 5.7751-.4159.7946-.3082 1.394-.5388 1.9956-.738 1.22.0479 2.519.0305 4.029-.0753.754-.0559 1.56-.132 2.44-.2406.882-.0774 1.834-.1798 2.871-.3179-2.824-.1014-5.642.1768-8.339.3592-.169.0133-.593.1843-.891.2831-4.0857.3384-8.2671.8421-12.5098 1.6865-1.0808.2133-2.1968.3661-3.283.6063-1.091.2225-2.1821.4449-3.2434.6593-4.9953.9063-9.5289 2.2545-12.7874 3.8777-.0177-.2558.0749-.5985-2.9291.4798zm-8.7211 4.4155c-1.1962.257-1.7565.4198-2.6612.6495-.9043.611-1.5342 1.0595-2.1535 1.5242-.3253.1381-.6258.2504-.9804.4217-.3103.1467-.6807.354-1.0095.5502.3151-.129.5776-.193.9753-.3694.1981-.0913.634-.386.9613-.5882.619-.2993 1.2349-.6106 2.0097-.9453.7705-.3273 1.6568-.7682 2.8583-1.2427zm66.0388-13.1562c-2.795-.0394-5.587.0031-8.387.0159-.076-.0493-.073-.1075-.249-.1492-.156-.0346-.519-.0389-.785-.0568-.039.0677-.231.1573-.066.2022.095.0252.767-.0084 1.183-.0184-.514.1189-1.028.2437-1.979.4667.724-.0285 1.42-.0626 2.105-.0935.685-.0055 1.343-.0166 1.997-.0202 1.303-.0249 2.563-.0446 3.827-.0718.713-.0194 1.5-.2114 2.254-.2926 2.298.0582 4.707.2455 6.677-.1108l3.566.1887.129-.1362-3.628-.0388c-.958-.112-1.914-.1927-2.867-.2869l.085.009c-1.949.0328-3.171.1696-3.862.3927zm-24.7872.2784c.7797.039 1.8536.0374 2.9332.1294l1.146-.2308c-.321-.1301-.477-.19-.984-.1874-.2536.0042-.5989.0204-1.0913.057-.4995.0576-1.1477.1296-2.0039.2318zm102.9332 5.5073c.095-.0002-.359-.1266-.556-.2007l-2.78-.1007 1.215.3102c.719.0043 1.477.0109 2.121-.0088zm-185.3402 69.5273.2308.529-.1808-1.363c-.0583-.454-.1344-.904-.1361-1.362l-.185-.548c.033.456.0185.923.0887 1.375zm17.2896-45.9595c-.2284.2392-.4159.5119-.6276.7657l.8211-.6841.3909-.5815c-.1925.1596-.4118.3138-.5844.4999zm14.6427-11.5201c-.279.1447-.5478.2803-.8399.4476-.0827.0475-.2367.1842-.3589.2741l.8578-.4523zm160.4659-10.9958-.148.0651c.211.0262.432.0687.62.0819.077.0047.079-.0341.119-.0512zm-28.036-3.3518c-.134-.0022-.15.0338-.215.0513.198.0294.466.0786.581.0796.134.0022.13-.035.183-.0493-.186-.0326-.454-.0817-.549-.0816z"/><path d="m119.12 246.873c-1.099-2.395-2.368-4.401-3.478-5.699.631 1.192.989 1.865 1.341 2.54l-.032-.074c-.283-.274-.614-.63-.84-.786s-.452-.286-.505-.106c-.04.138.192.788.52 1.539.164.375.35.783.539 1.158.175.392.35.759.51 1.046.393.709.885 1.263.903 1.023.059-.848.552-.739 1.01-.715z"/><path d="m123.127 258.812c-1.005-2.445-1.012-3.467-1.332-4.875-.34-.627-.581-1.122-.86-1.594l.045.07c.22 1.867.341 2.91.726 4.275.16.694.368 1.471.674 2.47.153.499.329 1.062.525 1.697.171.64.365 1.364.577 2.178.197.023.297-.245.265-.91-.013-.334-.065-.765-.147-1.308-.083-.544-.254-1.185-.449-1.959z"/><path d="m122.175 265.983c.169.203.328.395.528.641-.092-.554-.177-1.11-.267-1.658-.113-.542-.226-1.084-.338-1.619-.237-1.075-.418-2.152-.72-3.208-.284-1.062-.548-2.142-.859-3.229-.339-1.078-.692-2.179-1.055-3.321-.162 1.105 1.118 3.959 1.453 5.707.236 1.024.483 2.064.661 3.179.103.551.205 1.121.31 1.703.116.573.22 1.175.287 1.805z"/><path d="m112.195 235.169c-.195.078-.028.605.352 1.406.19.4.434.862.707 1.381.254.523.535 1.096.822 1.693.045-.355.073-.535-.151-1.11-.208-.587-.727-1.528-1.777-3.427z"/><path d="m122.273 278.995c.078.055.196.374.236.096.056-.359.055-1.191.078-1.82-.088.03-.201-.156-.258.152-.047.228-.031 1.095-.041 1.676z"/><path d="m121.972 261.073.84 3.398.088-.1-.844-3.41z"/><path d="m29.8762 160.213c.1907.355.36.679.5855 1.07.0369.066.5133.587.4994.559-.0904-.243-.2538-.568-.3914-.868-.1988-.22-.3961-.434-.6935-.761z"/><path d="m32.9839 163.27-.5603-.549.4645.785c.1449.114.3916.346.4074.31s-.195-.348-.3116-.546z"/><path d="m123.642 284.744c.051-.046.114.045.159-.164.063-.29.117-.8.17-1.24.001-.02-.031-.424-.042-.396-.07.165-.153.308-.211.66-.036.22-.043.788-.066 1.201z"/><path d="m272.299 69.942c.154-.0413.495-.1006.411-.129-.098-.0311-.574-.0306-.884-.0492-.166.0445-.532.1043-.444.1251.125.0367.595.0377.917.0531z"/><path d="m328.246 65.669c.207-.1063.44-.2577.674-.4031-.271.1043-.524.1786-.829.2984-.195.0778-.454.249-.688.375.282-.0881.556-.1806.843-.2703z"/><path d="m322.218 68.225c-.154.0414-.421.1129-.443.1251-.185.094-.326.1828-.475.2672.154-.0413.421-.1128.443-.1251.191-.0956.326-.1827.475-.2672z"/><path d="m20.2571 122.938c-.0375.074-.077.116-.1152.234-.0339.111-.0617.316-.0948.477l.1788-.353z"/><path d="m179.55 67.7325c-.462-.1114-.876-.2101-1.29-.3089-.233.0113-.672.0083-.637.0434.051.0498.427.1463.772.2001.221.0424.634.0399 1.155.0654z"/><path d="m123.135 257.087c-.073.369-.87-1.35-.008 1.725l.018.046-.043-1.845z"/><path d="m120.936 252.343-.21-1.018-.316-.539.566 1.635z"/><path d="m124.735 268.705c.022.178.029.488.038.523.069.255.138.466.208.682-.012-.188-.026-.502-.034-.531-.07-.261-.13-.461-.212-.674z"/><path d="m99.6738 224.214c.1319.137.29.323.3822.407.092.083.123.056.18.078-.132-.136-.2898-.322-.3821-.406-.0966-.076-.1231-.056-.1801-.079z"/><path d="m122.586 283.698c.002-.089-.001-.216.004-.319.004-.103.001-.185-.001-.191-.053-.055-.102-.048-.155-.059l-.003.89z"/><path d="m125.328 265.037.089.497.053-.256c-.039-.142-.09-.357-.113-.395-.02-.052-.019.094-.029.154z"/><path d="m112.973 239.588-.215-.279.228.422z"/><path d="m232.503 74.4648c-.33-.0451-.52-.0643-.705-.091l-.157.0548c.25.0092.495.02.862.0362z"/><path d="m124.024 268.355.122.501-.015-.6c-.038-.098-.095-.286-.117-.274-.013.023.008.246.01.373z"/><path d="m81.1752 202.459.3855.253-.1802-.174z"/><path d="m109.403 227.43.134.263c.126.138.319.36.363.38.045.026-.035-.131-.122-.241s-.243-.265-.375-.402z"/><path d="m32.8473 162.048.0881.186c.0879.091.2063.225.2514.251.0301.017-.048-.108-.0757-.164z"/><path d="m325.324 71.1815.657-.373-.574.3508z"/><path d="m273.353 80.1867-.528.0461c.22.0112.427.0256.667.0439.033.004.244-.0398.371-.0613z"/><path d="m311.401 74.8296c.165.0002.326.0079.389.0038-.069.0057-.264.0134-.458.0212z"/><path d="m74.1573 75.2488-1.0992.3581 1.0086-.3402z"/><path d="m67.7246 193.565-.1507-.016.391.225z"/><path d="m54.6473 185.97.6095.282-.5355-.219z"/><path d="m37.9777 173.082-.161-.363c.0753.138.1447.279.2303.408z"/><path d="m270.177 75.6407.178.0476c.163-.0116.356-.0253.466-.042.043-.0052-.097-.0312-.159-.0465z"/><path d="m246.211 74.8538.119-.0512-.421-.0078z"/><path d="m231.092 73.069c.057.0229.117.0576.176.0611.143.0125.329.0198.411.017.043-.0052-.099-.0371-.156-.06z"/><path d="m154.294 65.1233c-.139-.0453-.274-.0981-.301-.1036.029.0114.205.0531.377.1024z"/><path d="m312.256 68.0083.413-.1425-.487.1051z"/><path d="m121.423 251.767-.422-.866c.068.16.15.373.203.474.077.144.131.206.195.303z"/><path d="m112.148 235.111c-.042-.134-.086-.275-.094-.305.015.034.079.201.147.361z"/><path d="m125.935 286.138-.036 1.027.026-.948z"/><path d="m190.354 65.7023-.366-.0355.216.0693z"/><path d="m122.874 288.948.154-.518c-.025.026-.045-.001-.066.087-.029.129-.057.334-.079.511z"/><path d="m117.723 254.017.134.454.025-.096z"/><path d="m282.609 79.2386-.061.01z"/><path d="m326.871 69.2921-.075.0266z"/><path d="m60.27 188.805.0633.047z"/><path d="m18.7544 127.365-.002.064z"/><path d="m20.7175 118.772.0095-.06z"/><path d="m67.1322 194.036.0558.042z"/><path d="m45.0135 179.15.0618.04z"/><path d="m45.0811 179.189-.0365.219-.053-.055.0219-.203z"/><path d="m196.969 70.6999.075.0181z"/><path d="m116.293 240.021.034.08z"/><path d="m98.2831 65.8347.0819-.0029z"/><path d="m123.253 256.839.018.091z"/><path d="m121.393 251.68.102.189-.072-.102z"/><path d="m123.271 256.93-.136.157-.033-.074.151-.174z"/><path d="m119.092 246.791.028.082z"/><path d="m125.925 286.217.016-.081z"/><path d="m119.736 257.426.029.062z"/><path d="m123.652 284.805-.01-.061z"/><path d="m119.765 257.488-.029-.062z"/><path d="m122.884 289.034-.059.207.049-.293z"/></g></svg>