<svg width="201" height="203" viewBox="0 0 201 203" fill="none" xmlns="http://www.w3.org/2000/svg">
<path d="M5.04633 199.073L2.84499 202.046C2.84366 184.014 2.18634 173.16 1.85701 155.21C1.74501 149.106 3.07071 142.669 3.00005 136.5C2.87071 125.04 3.08537 113.974 3.00004 102.5C2.96137 97.2279 1.41432 91.7616 1.47166 86.4859C1.61566 72.7958 1.43301 59.1706 1.06101 45.5309C0.867681 38.4498 1.91873 30.6801 1.92006 23.5378C1.92273 19.1919 1.43605 14.8423 1.50005 10.5C1.52938 8.37743 0.500061 5.99995 1.04633 2.04628C3.54633 2.04626 1.04633 2.04626 3.69832 2.04626C3.75965 4.17239 3.84366 5.66425 3.841 7.15254C3.821 23.639 2.97604 40.0207 3.00004 56.5C3.01204 64.5756 3.95566 72.7417 4.07833 80.8102C4.23433 91.0408 4.42367 101.261 4.585 111.484C4.629 114.277 4.66101 117.084 4.62901 119.873C4.32368 146.302 4.49966 172.702 5.04633 199.073Z" fill="url(#paint0_linear)"/>
<path d="M198.027 0.839895L201 3.04123C182.968 3.04256 172.113 3.69988 154.164 4.02922C148.059 4.14122 141.623 2.81551 135.454 2.88618C123.994 3.01551 112.928 2.80085 101.454 2.88619C96.1816 2.92485 90.7153 4.4719 85.4396 4.41457C71.7495 4.27057 58.1243 4.45321 44.4847 4.82521C37.4036 5.01855 29.6339 3.9675 22.4915 3.96616C18.1456 3.9635 13.796 4.45018 9.45369 4.38618C7.33117 4.35685 4.95369 5.38617 1.00001 4.8399C1 2.3399 1 4.8399 1 2.18791C3.12613 2.12658 4.61799 2.04257 6.10628 2.04523C22.5928 2.06523 38.9744 2.91019 55.4537 2.88619C63.5294 2.87419 71.6955 1.93056 79.7639 1.8079C89.9946 1.6519 100.214 1.46256 110.438 1.30122C113.231 1.25722 116.038 1.22521 118.827 1.25721C145.256 1.56255 171.656 1.38656 198.027 0.839895Z" fill="url(#paint1_linear)"/>
<defs>
<linearGradient id="paint0_linear" x1="2.04617" y1="2.04627" x2="3.54624" y2="201.546" gradientUnits="userSpaceOnUse">
<stop stop-color="#EC4899"/>
<stop offset="1" stop-color="#EC4899" stop-opacity="0"/>
</linearGradient>
<linearGradient id="paint1_linear" x1="1" y1="3.84006" x2="200.5" y2="2.33999" gradientUnits="userSpaceOnUse">
<stop stop-color="#EC4899"/>
<stop offset="1" stop-color="#EC4899" stop-opacity="0"/>
</linearGradient>
</defs>
</svg>
