<svg fill="none" height="275" viewBox="0 0 309 275" width="309" xmlns="http://www.w3.org/2000/svg"><g opacity=".5"><rect fill="#343a40" height="58.4538" rx="29.2269" transform="matrix(.97954716 -.20121469 .20121469 .97954716 -21.906512 21.818056)" width="102.689" x="96.3696" y="118.667"/><circle cx="179.311" cy="131.916" fill="#868e96" r="29.2269"/><path d="m174.252 73.5476c-1.823.3475-3.853.7361-3.228.3886 2.797-.5846 5.675-1.196 8.484-1.7805.667-.3618-1.474.0838-3.31.4455l.084-.0284c-3.77.8626-7.343 1.6968-9.193 2.3366l.069-.0143c-.695.376-3.671 1.0443-6.257 1.6557-1.225.1801-2.225.3333-3.768.5703-.321.1943-.501.305-.695.4171l.082-.0284c-3.533.8626-8.329 1.7251-11.459 2.5861-.139.0427-1.071.2086-1.279.237-1.223.139-2.838.5008-4.533.8484-2.058.4028-4.131.8199-6.202 1.237-3.06.613-6.481 1.2386-9.11 1.8357-5.047 1.1549-10.109 2.2261-15.311 3.3098-4.463.9321-8.454 1.8358-10.2772 2.5309-.4992.1959-1.4455.4597-2.1833.6967l.0837-.0284c1.4598-.0285 2.8659-.6809 3.8798-.7504 2.169-.3476 4.353-.6826 6.787-1.0712.792.0411-.946.7235 4.659-.3618-1.001.2923-1.809.5293-2.629.7505.834-.1248 1.182-.1659 1.585-.2497.668-.1248 1.531-.3065 2.032-.4313 6.84-1.7109 14.864-3.3792 22.624-5.0333 1.809-.3902 5.007-1.03 5.397-1.0569 1.613-.0837 3.866-.8358 6.035-1.1549.264-.0284 1.112-.1389 1.766-.2085 4.185-.417 5.395-.6398 12.628-2.2528 4.616-1.0159 9.302-2.0443 14.016-3.087 5.939-1.2386 11.961-2.4898 17.912-3.7268 3.004-.6683 5.939-1.3081 8.942-1.9748 2.852-.5988 5.744-1.2244 8.58-1.8216 1.503-.0837 3.101-.1958 4.395-.2369.988-.0285 2.977-.3477 5.34-.8074 2.308-.4439 4.868-.9873 7.079-1.4739 4.576-1.0143 9.151-2.0301 13.851-3.0728.513 2.4329 1.042 4.9227 1.57 7.4394.946 4.3951 1.879 8.7886 2.811 13.1553 1.431 6.6337 2.864 13.2121 4.088 19.8868.139.751.403 1.795.597 2.698-.222-1.363-.431-2.726-.695-4.325.876 3.712 1.627 6.202 2.586 11.195-.57-1.628-1.668-7.176-1.932-6.982 2.558 12.058 5.173 24.003 7.62 36.269.543 2.698 1.196 5.478 1.78 8.246.585 2.838 1.155 5.702 1.738 8.568.822 3.878 1.627 7.731 2.449 11.597-2.42.514-4.853 1.014-7.288 1.529-2.614.53-5.242 1.057-7.871 1.587-1.126.221-2.475.499-3.546.75-4.436 1.028-8.219 1.738-11.557 2.21l.084-.027c-.848.223-1.822.515-2.531.654-8.149 1.585-16.076 3.267-23.933 5.034-.458.098-.946.208-1.419.306h.043c-3.436.501-7.384 1.307-11.556 2.225l.096-.027c-5.354 1.084-10.694 2.155-16.048 3.24-2.502.514-3.101.528-4.019.611l.084-.014c-1.474.362-2.879.695-4.436 1.071-1.724.389-3.741.849-5.424 1.168-5.409 1.03-9.136 1.948-12.599 2.907-1.155.319-3.31.834-4.937 1.167-6.078 1.21-12.14 2.406-18.203 3.616l.082-.014c-.403.098-.805.196-1.223.293-4.687.973-9.401 1.96-14.073 2.933-6.675 1.406-13.322 2.823-20.0115 4.228-2.3223.487-4.7284.932-7.0792 1.377-3.3098.654-6.6464 1.307-9.9846 1.961l-4.9922 1.029c-1.5846.334-3.1707.682-4.7553 1.015-.4313.098-.8626.195-1.2655.278-.6967-3.156-1.4328-6.73-2.1422-10.346-.7362-3.782-1.5151-7.913-2.2939-11.389-.9321-4.158-1.7662-7.76-2.5735-12.196-.3618-2.03-.9733-4.659-1.4456-6.996-.474-2.322-1.2654-6.063-1.3223-6.689-.1801-2.169-.9163-4.172-1.2228-6.118-.1674-.904-.4455-2.35-.6399-3.421-.1816-1.112-.3333-2.087-.5419-3.352-.5434-1.822-1.0569-3.504-1.6003-5.285-.1659-.542-.3744-1.292-.5561-2.114-1.5009-6.701-2.8927-13.543-3.8516-19.413-.5419-3.338-1.1549-6.521-1.8768-10.096-.5846-2.822-1.1691-5.659-1.7663-8.525-1.2938-3.935-1.8785-4.477-1.0712 1.627l-.0141-.069.2922 1.474-.0284-.082c.1532.666.3349 1.376.4598 1.987 1.752 8.97 3.5039 17.926 5.256 26.882l-.0268-.083c.9179 3.614 1.1121 6.02 1.793 9.261.0553 1.488.7789 4.881 1.3635 7.872l-.0143-.084c.4724 2.85 1.1675 5.577 1.7379 8.372l4.1723 20.331c.1248.611.2085 1.224.3064 1.85l-.0142-.056c1.057 4.978 2.0996 9.956 3.2671 15.478.3065 1.905.7236 4.45 1.1138 6.785l.2086 1.239c.1106.625.2354 1.251.3475 1.877.2496 1.308.5134 2.643.7915 4.062 1.3365-.266 2.7537-.558 4.2845-.863 3.1976-.654 6.3541-1.308 9.4838-1.948 2.9479-.611 5.8691-1.251 8.7617-1.905.8611-.195 1.9179-.43 2.7663-.583 12.0856-2.282 24.4476-4.937 36.6446-7.358 4.505-.93 9.122-1.876 13.627-2.794 6.092-1.294 12.058-2.643 18.219-3.756 3.267-.597 6.076-1.279 8.774-1.946.973-.237 2.086-.501 2.991-.709 1.223-.18 2.141-.334 3.351-.515 2.238-.571 4.366-1.098 7.648-1.752 4.992-1.029 10.137-2.071 15.201-3.116 6.646-1.347 13.225-2.655 19.732-4.144 2.365-.542 5.409-1.222 7.482-1.598 6.188-1.113 12.043-2.476 18.051-3.713.597-.014 1.196-.055 3.463-.529 5.923-1.251 11.89-2.531 17.731-3.768l-.139.041c1.613-.348 3.628-.793 4.992-1.084-.07-.349-.125-.64-.168-.891-.263-1.474-.472-2.684-.723-3.894-.07-.305-.125-.597-.195-.904-.041-.208-.096-.403-.139-.625-.11-.417-.222-.849-.361-1.35-.209-.709-.71-3.267-.988-4.798-.64-3.504-1.265-6.897-1.848-10.095-.474-2.03-.975-3.908-1.363-5.813-2.045-9.971-4.089-19.955-6.133-29.927-.446-2.323-.877-4.602-1.321-6.939-.473-2.212-.961-4.45-1.433-6.703-.417-2.0712-.834-4.1723-1.251-6.2577l-.015-.0695c.056.4581.098.932.168 1.4455-.807-3.4204-.683-3.8517-.961-5.4789-.918-3.2118-.959-3.4061-1.251-6.1455l.014.0694c-.222-.8215-.458-1.6556-.709-2.6145-1.002-5.5073-2.169-11.0842-3.408-16.3403-.472-2.0727-.791-3.6446-1.196-5.6052-.263.0569-.597.1264-.93.1959-4.019.8057-8.038 1.5988-12.057 2.4045-3.533.7094-7.051 1.4329-10.555 2.2528-3.463.8215-4.91.9179-6.926 1.196-1.906.5008-3.185 1.0158-6.745 1.5451l.084-.0143c-3.7.5703-6.94 1.4314-10.36 2.1834l.083-.0285c-1.279.2923-2.823.6809-3.783.8484-3.143.5419-6.091 1.0427-9.108 1.5577l.096-.0284-7.37 1.5167c-1.668.3333-1.974.4581-1.572.4581zm79.307 40.8984.084.348c.139.542.264 1.098.055.223.209.958.07.333-.069-.307zm9.889 49.896.237.932.973 3.337.625 2.88c-.918.194-1.835.388-2.739.583-2.1.417-4.201.848-6.3 1.265-2.002.405-4.005.822-6.021 1.28-1.03.237-2.518.529-3.506.709-4.115.71-7.815 1.517-12.125 2.656-.904.069-1.586.126-2.267.196-2.545.722-5.466 1.404-9.972 2.169 2.976-.752 5.98-1.405 8.86-2.044.18-.043.666-.07 1-.098 4.354-1.002 8.831-1.947 13.461-2.879 2.351-.501 4.77-1.014 7.094-1.502 4.338-.959 8.106-1.752 12.307-2.447-.168-.988-.307-1.933-.431-2.85-.07.026-.125.096-.279-.321-.069-.209-.153-.528-.278-1.043-.097-.458-.237-1.098-.417-1.946zm-1.711-10.526c-.403-1.253-.597-1.865-.904-2.823-.153-1.182-.264-2.018-.376-2.852-.096-.376-.18-.724-.292-1.141-.082-.374-.166-.82-.264-1.237.098.362.194.626.306 1.098.056.237.139.808.223 1.225.334 1.488.681 2.962 1.307 5.73zm-52.789 29.258 8.914-1.989c.069-.041.055-.082.236-.139.154-.055.542-.153.82-.235.056.027.278.027.098.096-.098.043-.821.196-1.251.292.569-.069 1.127-.139 2.169-.249-3.087.666-5.757 1.251-8.455 1.835-.765.152-1.627.25-2.434.362-2.448.542-4.993 1.182-7.133 1.417l-3.797.849-.153-.056 3.866-.778 3.017-.794-.083.029c2.087-.417 3.407-.611 4.186-.64zm26.172-6.243c-.806.235-1.906.57-3.018.903l-1.251.195c.611-.305.611-.307 4.269-1.098zm-109.653 23.168c-.097.014.376-.125.598-.194l2.963-.474-1.309.361c-.764.113-1.57.223-2.252.307zm117.315-131.4453-.056-.5972.696 2.8374.055.6114zm12.349 53.9713c-.069-.361-.124-.723-.18-1.071l.305 1.141.084.765c-.055-.278-.153-.556-.209-.835zm4.2 20.165c-.083-.334-.166-.654-.25-1.015-.014-.098-.055-.319-.07-.487l.25 1.043zm-141.414 58.991.151.015c-.221.041-.458.096-.666.139-.084.014-.084 0-.125-.015zm29.982-6.161c.153-.027.153 0 .222 0-.208.043-.5.112-.625.139-.141.029-.141 0-.196 0 .209-.055.501-.125.599-.139z" fill="#343a40"/></g></svg>