<svg width="96" height="74" viewBox="0 0 96 74" fill="none" xmlns="http://www.w3.org/2000/svg"><path d="M86 2H10C5.58172 2 2 5.58172 2 10V63.8462C2 68.2644 5.58172 71.8462 10 71.8462H86C90.4183 71.8462 94 68.2644 94 63.8462V10C94 5.58172 90.4183 2 86 2Z" stroke="#228BE6" stroke-width="2"/><path d="M51.7919 0C63.8613 0 75.9307 0 88.0001 0C92.4184 0 96.0001 3.58172 96.0001 8V65.8462C96.0001 70.2644 92.4184 73.8462 88.0001 73.8462C75.9307 73.8462 63.8613 73.8462 51.7919 73.8462C51.6592 73.8462 51.6592 70.1538 51.7919 70.1538C70.3558 70.1538 81.2308 51.7482 81.2308 40.6154C81.2308 36.9231 81.2308 44.2912 81.2308 33.2308C81.2308 22.1703 70.1524 3.69231 51.7919 3.69231C51.7919 0.994066 51.7919 1.73708 51.7919 0Z" fill="#228BE6"/><path d="M47 50C54.1797 50 60 44.1797 60 37C60 29.8203 54.1797 24 47 24C39.8203 24 34 29.8203 34 37C34 44.1797 39.8203 50 47 50Z" fill="#228BE6"/><path d="M47.2308 55.3333C47.2308 44.3987 47.2308 27.4871 47.2308 18.6667C37.0347 18.6667 28.7692 26.8748 28.7692 37C28.7692 47.1252 37.0347 55.3333 47.2308 55.3333ZM47.2308 70C28.8779 70 14 55.2254 14 37C14 18.7746 28.8779 4 47.2308 4C47.2308 19.7579 47.2308 55.3333 47.2308 70Z" fill="#228BE6"/></svg>