<svg width="96" height="74" viewBox="0 0 96 74" fill="none" xmlns="http://www.w3.org/2000/svg"><path fill-rule="evenodd" clip-rule="evenodd" d="M48.1251 33.4795V0.359268C48.1243 0.287428 48.1022 0.217445 48.0616 0.158158C48.021 0.0988706 47.9638 0.0529413 47.8971 0.0261716C47.8304 -0.000598078 47.7573 -0.00700755 47.687 0.00775438C47.6167 0.0225163 47.5523 0.0577861 47.502 0.109109L33.4223 14.6325C29.7655 13.0847 25.7824 12.4665 21.8285 12.833C17.8745 13.1996 14.0729 14.5395 10.763 16.7332C7.45309 18.9269 4.73789 21.906 2.85981 25.4047C0.981727 28.9033 -0.000781838 32.8126 4.66806e-07 36.7835C0.000619914 39.9424 0.623576 43.0702 1.83328 45.9882C3.04299 48.9063 4.81575 51.5574 7.05028 53.7902C9.28482 56.023 11.9374 57.7937 14.8564 59.0011C17.7754 60.2085 20.9037 60.829 24.0625 60.8271C29.8683 60.8278 35.4784 58.7285 39.8575 54.9168C44.2366 51.1049 47.0893 45.8379 47.8891 40.0875V73.2171C47.8891 73.5428 48.2808 73.6986 48.5074 73.4673L62.5824 58.9344C65.4616 60.1522 68.624 60.8224 71.9469 60.8224C78.3241 60.8237 84.4407 58.2919 88.9514 53.7838C93.4621 49.2758 95.9975 43.1607 96 36.7835C95.9975 30.4063 93.4621 24.2912 88.9514 19.7831C84.4407 15.2751 78.3241 12.7433 71.9469 12.7445C66.1419 12.7437 60.5324 14.8423 56.1533 18.6532C51.7743 22.464 48.9212 27.7299 48.1204 33.4795H48.1251Z" fill="#F8F9FA"/></svg>