<svg fill="none" height="258" viewBox="0 0 448 258" width="448" xmlns="http://www.w3.org/2000/svg"><path d="m223.533 257.462c123.453 0 223.532-6.282 223.532-14.031s-100.079-14.03-223.532-14.03c-123.454 0-223.533 6.281-223.533 14.03s100.079 14.031 223.533 14.031z" fill="#868e96"/><path d="m353.999 0h-259.999v106.065h259.999z" fill="#3f3d56"/><path d="m131.367 39.4853h-19.384c-1.323-7.6472-1.323-15.4648 0-23.112h19.384c-2.184 7.5492-2.184 15.5628 0 23.112z" fill="#ff6584"/><path d="m171.74 33.0117h19.384c1.323-7.6473 1.323-15.4649 0-23.11209h-19.384c2.184 7.54929 2.184 15.56279 0 23.11209z" fill="#f06595"/><g fill="#f1f1f1"><path d="m293.341 43.8958c10.243.1077 20.476-.2085 30.698-.9487l-.679-.8911c-1.673 4.2397-1.627 8.7084-1.405 13.1935.055 1.1237.408 2.639.18 3.752-.287 1.3997-1.543 1.0651-2.793 1.1055-2.752.089-5.505.153-8.259.1919-2.601.0367-5.201.0512-7.802.0434-1.224-.0038-2.448-.0125-3.672-.0261-1.437-.016-3.071.4013-3.442-1.2633-.238-1.0663.002-2.4689.002-3.5655l.003-4.0111.005-8.0223c-.006-.1825-.083-.3554-.214-.4823-.131-.1268-.307-.1978-.489-.1978-.183 0-.359.071-.49.1978-.131.1269-.208.2998-.214.4823l-.007 9.805-.003 4.4568c-.001.8853-.184 1.9548.146 2.7953.76 1.9332 4.046 1.2079 5.621 1.2224 3.213.0295 6.425.0247 9.638-.0147 3.213-.0389 6.424-.1118 9.636-.2187 1.383-.046 3.297.2686 3.717-1.4375.294-1.1962-.049-2.7558-.112-3.9765-.071-1.3929-.148-2.7862-.167-4.1811-.044-3.2575.276-6.4264 1.479-9.4747.028-.1045.032-.2141.011-.3203-.021-.1061-.066-.2061-.132-.2922-.065-.0861-.15-.156-.246-.2043-.097-.0483-.204-.0737-.312-.0743-10.217.74-20.449 1.0563-30.698.9487-.182.0063-.355.0833-.482.2146s-.198.3068-.198.4894.071.358.198.4894c.127.1313.3.2082.482.2145z"/><path d="m296.26 44.6609c4.385 1.5516 8.66 3.3976 12.795 5.5253 3.711 1.9176 8.569 4.0124 11.122 7.4397.535.7183 1.758.0171 1.216-.7106-2.608-3.4999-7.097-5.5592-10.868-7.5484-4.479-2.3507-9.121-4.3772-13.89-6.0637-.855-.3045-1.224 1.0554-.375 1.3577z"/><path d="m323.8 42.1535c-4.653 1.9895-8.595 5.8227-12.753 8.6631-4.5 3.0744-9.135 5.9355-13.903 8.5834-.791.4418-.082 1.6583.711 1.2157 4.758-2.657 9.392-5.5182 13.903-8.5834 4.157-2.8398 8.101-6.674 12.752-8.6631.831-.3552.114-1.5684-.71-1.2157z"/><path d="m202.246 46.5229c9.49.1444 18.981.1066 28.471-.1135.904-.021.908-1.429 0-1.408-9.489.2201-18.98.258-28.471.1136-.183.0063-.356.0833-.483.2146-.126.1313-.197.3068-.197.4893 0 .1826.071.3581.197.4894.127.1313.3.2083.483.2146z"/><path d="m203.044 52.9062c9.756.1557 19.513.1138 29.269-.1257.904-.0222.908-1.4302 0-1.4079-9.755.2395-19.512.2814-29.269.1257-.183.0063-.356.0833-.482.2146-.127.1313-.198.3068-.198.4894 0 .1825.071.358.198.4893.126.1313.299.2083.482.2146z"/><path d="m201.976 59.7985 27.673-1.285c.902-.0419.907-1.4501 0-1.408l-27.673 1.2851c-.902.0419-.907 1.4501 0 1.4079z"/><path d="m245.082 53.1043h26.34c.183-.0063.356-.0832.482-.2146.127-.1313.198-.3067.198-.4893s-.071-.3581-.198-.4894c-.126-.1313-.299-.2083-.482-.2146h-26.34c-.183.0063-.356.0833-.483.2146-.126.1313-.197.3068-.197.4894s.071.358.197.4893c.127.1314.3.2083.483.2146z"/><path d="m270.268 45.0549 4.116 3.7564c.47.4296 1.765 1.3165 2.057 1.8782.605 1.1613-.045.8964-1.081 1.2988-2.546 1.0131-4.892 2.4698-6.929 4.3024-.681.6003.318 1.5928.996.9956 1.858-1.6697 3.992-3.0031 6.308-3.9403.83-.3285 2.405-.5208 2.799-1.5097.483-1.2104-1.055-2.1035-1.783-2.7684l-5.487-5.0086c-.668-.6098-1.667.3832-.996.9956z"/></g><path d="m206.344 100.016h19.384c1.323-7.6471 1.323-15.4647 0-23.1119h-19.384c2.183 7.5492 2.183 15.5627 0 23.1119z" fill="#f06595"/><path d="m125.622 82.6516h19.384c1.323-7.6472 1.323-15.4648 0-23.1121h-19.384c2.184 7.5493 2.184 15.5628 0 23.1121z" fill="#f06595"/><path d="m248.112 31.9659h19.385c1.322-7.6472 1.322-15.4648 0-23.11206h-19.385c2.184 7.54926 2.184 15.56276 0 23.11206z" fill="#f06595"/><path d="m440.449 219.423 2.527 10.107-11.117 3.032-1.011-10.612z" fill="#fbbebe"/><path d="m400.022 232.056v9.602l-11.117 2.021-2.021-5.053 4.042-8.591z" fill="#fbbebe"/><path d="m422.257 127.452-1.516 13.644 1.011 26.278c.2-.005.399.032.585.106.186.075.355.186.496.328.142.142.253.311.328.496.075.186.111.385.107.586 0 1.516-1.516 1.01 0 2.021.813.552 1.657 1.058 2.527 1.516l16.17 49.017s-4.042 5.054-11.622 3.538l-1.516-5.054s-3.032-3.032-3.032-4.548 1.01-2.021 0-3.537c-1.011-1.516-16.171-32.341-16.171-32.341l-7.075-12.634-2.021 17.182s4.043 21.729 3.032 31.836c-1.011 10.106-3.032 20.718-3.032 20.718l-12.128-2.021c-.055-1.631-.582-3.21-1.516-4.548-1.516-2.021-3.538-1.516-1.516-3.032 2.021-1.516 4.548 0 2.526-2.021-2.021-2.022-2.021-4.043-2.021-4.043v-1.516l-3.032-38.911-5.559-51.038z" fill="#2f2e41"/><path d="m387.894 35.4813c7.536 0 13.644-6.1087 13.644-13.644 0-7.5354-6.108-13.64408-13.644-13.64408-7.535 0-13.644 6.10868-13.644 13.64408 0 7.5353 6.109 13.644 13.644 13.644z" fill="#fbbebe"/><path d="m399.77 22.0897 5.558 13.6444-13.138 9.601-8.086-14.1489z" fill="#fbbebe"/><path d="m400.528 32.4493 5.053-2.5267 3.032 7.0747s19.708 6.064 18.192 33.8574-5.053 38.4053-5.053 38.4053 8.59 18.192 3.537 20.213c-5.053 2.022-48.007 9.602-49.017 2.527-1.011-7.075 3.537-48.5119 3.537-48.5119s-1.516-29.8148 11.117-35.8788l-2.526-5.5587z" fill="#d0cde1"/><path d="m372.734 130.484s-11.622 12.128-5.053 15.16 10.612-13.644 10.612-13.644z" fill="#fbbebe"/><path d="m396.485 239.131 5.559-2.021s6.064 13.644 1.01 13.644h-13.138s-7.58-2.527-11.623-2.527-11.623-7.58-6.064-11.117c5.559-3.538 12.633-2.527 12.633-2.527l2.022-4.548 2.526 7.075s3.032 5.053 7.075 2.021z" fill="#2f2e41"/><path d="m437.417 228.014s3.165-1.997 4.867-1.251c1.702.745 2.713 8.831 2.713 8.831s5.053 6.064-6.064 7.074c-11.117 1.011-13.644-1.01-14.655-4.042-1.01-3.032 1.011-6.064 1.011-6.064l3.032-1.011s3.537-2.527 2.527-3.537c-1.011-1.011 0-3.032 0-3.032s3.537 7.074 6.569 3.032z" fill="#2f2e41"/><path d="m392.561 21.6186c-.056-.4416-.155-.8765-.297-1.2983-.733-1.5385-3.594-1.0895-4.104-2.7157-.1-.3183-.079-.6645-.177-.9834-.249-.8132-1.206-1.2165-2.055-1.1775-.843.1164-1.67.3292-2.464.6344-1.999.5673-4.126.3507-6.192.1296-.921-.031-1.824-.2661-2.643-.6883-.783-.4813-1.347-1.4503-1.062-2.3237.273-.8374 1.19-1.2975 1.602-2.076.654-1.23621-.146-2.83278.385-4.12679.851-2.07581 4.074-1.65899 5.711-3.19329.397-.37243.683-.8485 1.064-1.23779 1.13-1.15494 2.914-1.37849 4.522-1.21918s3.188.6315 4.804.60292c1.532-.0271 3.138-.49365 4.55.10227.83.42485 1.559 1.02368 2.137 1.75571l3.621 3.97121c.497.46882.88 1.04555 1.119 1.68574.218.7609.017 1.5778.11 2.3638.212 1.7926 1.89 3.1466 2.117 4.9374.045.5554.018 1.1143-.08 1.6628l-.507 3.7397c-.026.3647-.123.7208-.286 1.0479-.148.252-.371.451-.537.6912-.469.6782-.426 1.5746-.659 2.3654s-1.068 1.5734-1.799 1.1923c-.477-.2487-.792-2.305-1.372-2.8389-.806-.7436-1.228-.6519-2.224-.6393-1.994.0252-4.646.1962-5.284-2.3642z" fill="#2f2e41"/><path d="m394.969 51.1466s15.16 6.064 10.612 19.7081c-4.548 13.644-16.676 55.5863-16.676 55.5863l-7.075 3.538-2.021 5.558-9.601-3.537 1.516-7.58s.505-.505.505-2.527c0-2.021-2.021-2.526.505-2.526 2.527 0 2.527-2.527 2.527-2.527l9.096-56.5974s0-9.6013 10.612-9.096z" fill="#d0cde1"/><path d="m406.339 73.634-15.665 53.565-6.57 6.57 3.79-6.822z" fill="#000" opacity=".1"/><path d="m30.4333 41.5611 15.8805 2.647 5.2935-25.1444-12.7925-5.2935z" fill="#2f2e41"/><path d="m52.2692 36.4884c7.5524 0 13.6749-6.1225 13.6749-13.675 0-7.5524-6.1225-13.67488-13.6749-13.67488-7.5525 0-13.675 6.12248-13.675 13.67488 0 7.5525 6.1225 13.675 13.675 13.675z" fill="#a0616a"/><path d="m46.3139 30.5332s1.3234 16.7628-8.8225 18.0862 8.8225 31.32 13.675 30.8789c4.8524-.4412 13.6749-32.6434 13.6749-32.6434s-11.4693-7.9403-7.4992-14.9983z" fill="#a0616a"/><path d="m29.3306 91.6292s1.7645 12.7928 7.058 12.7928-3.529-14.5573-3.529-14.5573z" fill="#a0616a"/><path d="m106.528 104.422s13.234 11.028 11.469 14.557c-1.764 3.529-13.234-3.97-14.116-12.793z" fill="#a0616a"/><path d="m26.6839 146.77-8.3814 31.32-9.26368 37.937h8.82258s3.0878-11.91 8.8225-18.086c0 0 5.7346-9.705 5.7346-16.322l13.675-32.202z" fill="#a0616a"/><path d="m62.8562 148.535 2.6467 29.555s-.4411 21.174 0 26.027c.4412 4.852 0 11.91 0 11.91h7.9403s7.4992-26.027 5.2936-40.143l3.0878-33.084z" fill="#a0616a"/><path d="m52.2692 67.3673s-11.8849-9.4187-8.8098-22.575c0 0-11.9231.5186-16.7755 5.371s1.3234 21.1741 1.3234 21.1741 10.587 17.6451 8.8225 25.5854c-1.7645 7.9402-20.733 49.8472-14.5572 52.4942s43.6716 11.91 62.64-3.529c0 0 4.8524-43.672-14.5572-57.7878v-11.0281s3.5291-3.0879 1.7645-11.0282c0 0 7.4992-13.6749 3.0879-16.3217-4.4113-2.6467-14.5443-6.5255-14.5443-6.5255s.8694 19.7593-8.3943 24.1706z" fill="#2f2e41"/><path d="m29.3306 50.1633s-5.7347-.8822-11.4693 7.4992-20.73295 21.6152-13.67494 28.2321c7.05804 6.6169 26.02644 11.0282 26.02644 11.0282l4.4113-7.9403-18.9684-9.2637 15.8805-11.9104z" fill="#2f2e41"/><path d="m73.0021 50.1633s6.1758 0 8.8226 7.4992c2.6467 7.4991 18.0862 33.0845 18.0862 33.0845l8.8221 13.675-6.175 7.058-17.2043-19.4097-16.3217-26.9087z" fill="#2f2e41"/><path d="m19.6257 215.145h-12.35153l-2.64676 21.615s-7.05801 11.469 3.52902 10.146c10.58707-1.324 7.05807-13.234 7.05807-13.234l2.6467-4.411.8823 9.263.8822-.441v-10.146s4.8524-4.411 0-12.792z" fill="#2f2e41"/><path d="m75.649 215.145-11.4693-.883-2.2056 24.704s-1.3234 9.263 6.6169 7.94c7.9403-1.324 5.2935-8.823 5.2935-8.823v-13.675z" fill="#2f2e41"/><path d="m42.3439 8.91796s-6.4265 2.14214-6.7528 10.60204c-.0332 1.3531.1169 2.7044.446 4.0172.3619 1.5336.5945 4.8334-2.2099 9.1455-1.8778 2.847-3.5933 5.7979-5.1381 8.8384l-.0202.0402 7.0581.8823 1.5007-11.6992c.7277-5.672 2.2864-11.2061 4.6262-16.424l.0489-.1089s3.0878 5.7346 9.2636 5.7346l-2.2056-2.2056s9.7048 3.9701 13.2338 3.9701c0 0 2.6467 1.7645 0 4.4113-2.6468 2.6468-7.9403 8.8225-4.8524 13.675 3.0879 4.8524.4411 6.1757.4411 6.1757l4.8524-2.6467 2.2056-1.3234v1.7645l11.4693-1.3234s3.0879-.4411-3.529-7.9403c0 0-1.7473-2.9121-.9828-5.4239.6281-1.9088.7932-3.9397.4816-5.925-1.4824-8.2697-7.2983-24.71082-29.9365-14.23644z" fill="#2f2e41"/><path d="m293.069 256.601c-.06-.098-1.476-2.462-1.967-7.371-.45-4.504-.161-12.095 3.776-22.684 7.459-20.061-1.719-36.248-1.812-36.409l.452-.262c1.768 3.381 3.044 6.997 3.791 10.739 1.849 8.712 1.176 17.771-1.94 26.114-7.446 20.027-1.91 29.507-1.854 29.601z" fill="#3f3d56"/><path d="m290.152 188.959c1.879 0 3.402-1.523 3.402-3.401 0-1.879-1.523-3.402-3.402-3.402-1.878 0-3.401 1.523-3.401 3.402 0 1.878 1.523 3.401 3.401 3.401z" fill="#3f3d56"/><path d="m300.88 201.518c1.879 0 3.401-1.522 3.401-3.401s-1.522-3.401-3.401-3.401-3.401 1.522-3.401 3.401 1.522 3.401 3.401 3.401z" fill="#3f3d56"/><path d="m293.554 209.891c1.878 0 3.401-1.523 3.401-3.401 0-1.879-1.523-3.402-3.401-3.402-1.879 0-3.402 1.523-3.402 3.402 0 1.878 1.523 3.401 3.402 3.401z" fill="#f06595"/><path d="m302.45 216.956c1.878 0 3.401-1.523 3.401-3.402 0-1.878-1.523-3.401-3.401-3.401-1.879 0-3.402 1.523-3.402 3.401 0 1.879 1.523 3.402 3.402 3.402z" fill="#f06595"/><path d="m290.937 227.945c1.879 0 3.402-1.523 3.402-3.401 0-1.879-1.523-3.402-3.402-3.402-1.878 0-3.401 1.523-3.401 3.402 0 1.878 1.523 3.401 3.401 3.401z" fill="#3f3d56"/><path d="m295.124 256.727s-3.402-8.373 6.803-14.653z" fill="#3f3d56"/><path d="m290.94 256.575s-1.548-8.904-13.529-8.828z" fill="#3f3d56"/><path d="m155.971 231.875c-.06-.098-1.476-2.462-1.967-7.371-.45-4.503-.161-12.095 3.776-22.684 7.459-20.061-1.719-36.247-1.812-36.409l.452-.262c1.767 3.381 3.044 6.997 3.791 10.739 1.849 8.712 1.176 17.771-1.94 26.114-7.446 20.027-1.91 29.507-1.854 29.601z" fill="#d0cde1"/><path d="m153.054 164.233c1.879 0 3.401-1.522 3.401-3.401s-1.522-3.401-3.401-3.401-3.401 1.522-3.401 3.401 1.522 3.401 3.401 3.401z" fill="#3f3d56"/><path d="m163.782 176.793c1.878 0 3.401-1.523 3.401-3.402 0-1.878-1.523-3.401-3.401-3.401-1.879 0-3.402 1.523-3.402 3.401 0 1.879 1.523 3.402 3.402 3.402z" fill="#3f3d56"/><path d="m156.455 185.165c1.879 0 3.402-1.523 3.402-3.401 0-1.879-1.523-3.401-3.402-3.401-1.878 0-3.401 1.522-3.401 3.401 0 1.878 1.523 3.401 3.401 3.401z" fill="#d0cde1"/><path d="m165.352 192.23c1.878 0 3.401-1.523 3.401-3.402 0-1.878-1.523-3.401-3.401-3.401-1.879 0-3.402 1.523-3.402 3.401 0 1.879 1.523 3.402 3.402 3.402z" fill="#d0cde1"/><path d="m153.839 203.219c1.879 0 3.401-1.523 3.401-3.401 0-1.879-1.522-3.402-3.401-3.402s-3.401 1.523-3.401 3.402c0 1.878 1.522 3.401 3.401 3.401z" fill="#3f3d56"/><path d="m158.025 232.001s-3.401-8.373 6.803-14.653z" fill="#d0cde1"/><path d="m153.842 231.849s-1.548-8.904-13.53-8.828z" fill="#d0cde1"/></svg>