<svg fill="none" height="321" viewBox="0 0 561 321" width="561" xmlns="http://www.w3.org/2000/svg"><path d="m426.404 311.001c70.141 0 127.001-56.86 127.001-127.001 0-70.14-56.86-127-127.001-127-70.14 0-127 56.86-127 127 0 70.141 56.86 127.001 127 127.001z" fill="#868e96"/><path d="m68.9033 97.0004c26.7859 0 48.4997-21.7143 48.4997-48.5002s-21.7138-48.5002-48.4997-48.5002-48.5002 21.7143-48.5002 48.5002 21.7143 48.5002 48.5002 48.5002z" fill="#ff6584"/><path d="m155.904 260.501c70.14 0 127-56.86 127-127.001 0-70.1402-56.86-127.00021-127-127.00021-70.1409 0-127.0009 56.86001-127.0009 127.00021 0 70.141 56.86 127.001 127.0009 127.001z" fill="#868e96"/><path d="m149.904 267.501c77.044 0 139.5-3.358 139.5-7.5s-62.456-7.5-139.5-7.5c-77.0444 0-139.5009 3.358-139.5009 7.5s62.4565 7.5 139.5009 7.5z" fill="#3f3d56"/><path d="m121.903 265.432c57.714 0 104.501-2.316 104.501-5.172 0-2.857-46.787-5.173-104.501-5.173-57.7135 0-104.4999 2.316-104.4999 5.173 0 2.856 46.7864 5.172 104.4999 5.172z" fill="#000" opacity=".1"/><path d="m421.405 320.501c77.044 0 139.5-3.694 139.5-8.25s-62.456-8.25-139.5-8.25-139.501 3.694-139.501 8.25 62.457 8.25 139.501 8.25z" fill="#3f3d56"/><path d="m393.404 318.225c57.714 0 104.501-2.547 104.501-5.689 0-3.143-46.787-5.69-104.501-5.69s-104.5 2.547-104.5 5.69c0 3.142 46.786 5.689 104.5 5.689z" fill="#000" opacity=".1"/><path d="m200.452 297.501c49.166 0 89.022-2.015 89.022-4.5s-39.856-4.5-89.022-4.5c-49.165 0-89.022 2.015-89.022 4.5s39.857 4.5 89.022 4.5z" fill="#3f3d56"/><path d="m42.9516 280.172c23.7216 0 42.9517-.972 42.9517-2.171s-19.2301-2.171-42.9517-2.171c-23.7215 0-42.9516.972-42.9516 2.171s19.2301 2.171 42.9516 2.171z" fill="#3f3d56"/><path d="m467.905 216.501h-160.001v95h160.001z" fill="#3f3d56"/><path d="m359.404 301.001c19.883 0 36.001-16.118 36.001-36s-16.118-36-36.001-36c-19.882 0-36 16.118-36 36s16.118 36 36 36z" fill="#f06595"/><path d="m418.405 231.501h-12v12h12z" fill="#f06595"/><path d="m433.405 231.501h-12v12h12z" fill="#f06595" opacity=".5"/><path d="m448.405 231.501h-12v12h12z" fill="#f06595" opacity=".2"/><path d="m418.405 246.501h-12v12h12z" fill="#2f2e41"/><path d="m433.405 246.501h-12v12h12z" fill="#2f2e41" opacity=".5"/><path d="m448.405 246.501h-12v12h12z" fill="#2f2e41" opacity=".2"/><path d="m418.405 261.501h-12v12h12z" fill="#ff6584"/><path d="m433.405 261.501h-12v12h12z" fill="#ff6584" opacity=".5"/><path d="m448.405 261.501h-12v12h12z" fill="#ff6584" opacity=".2"/><path d="m359.404 229.001v72c19.883 0 37.001-16.118 37.001-36s-17.118-36-37.001-36z" fill="#3f3d56" opacity=".5"/><path d="m502.155 223.251s21 9.5 13.5 20.5-30 32-30.5 36.5-3.5 8.5-3.5 8.5-10-10.5-9-11.5 11-10.5 11.5-13 15.5-22 15.5-22l-13.5-12z" fill="#ffb9b9"/><path d="m502.155 223.251s21 9.5 13.5 20.5-30 32-30.5 36.5-3.5 8.5-3.5 8.5-10-10.5-9-11.5 11-10.5 11.5-13 15.5-22 15.5-22l-13.5-12z" fill="#000" opacity=".1"/><path d="m475.655 244.251s14.5 6 13.5 15.5 17.5 36.5 17.5 36.5 2 6.5 1.5 8.5 13 1.5 13 1.5v-4.5s-10.5-18-11.5-23-7-24.5-7-24.5-2-17.5-12-17.5c-2.911 0-5.782.678-8.385 1.979-2.604 1.302-4.869 3.192-6.615 5.521z" fill="#ffb9b9"/><path d="m476.405 199.001s30 24.5 29 26.5-15.5 9.5-18 10-20.189-36.5-20.189-36.5z" fill="#2f2e41"/><path d="m476.405 199.001s30 24.5 29 26.5-15.5 9.5-18 10-20.189-36.5-20.189-36.5z" fill="#000" opacity=".1"/><path d="m443.905 204.001s-3 13.5 5 19 21.5 27 23 27 23-11.5 22-13.5-12-19.5-12-19.5l-3.5-18.5s-30.5-1-34.5 5.5z" fill="#2f2e41"/><path d="m476.405 160.001 4.5 29 8 20.5s12 12.5 5 13.5-11-13.5-11-13.5l-6.5-12z" fill="#ffb9b9"/><path d="m476.405 160.001 4.5 29 8 20.5s12 12.5 5 13.5-11-13.5-11-13.5l-6.5-12z" fill="#000" opacity=".1"/><path d="m459.655 127.75s0 10.501-3.5 11.501 14 14.5 14 14.5-2-17.501 5-22.001z" fill="#ffb9b9"/><path d="m459.655 127.75s0 10.501-3.5 11.501 14 14.5 14 14.5-2-17.501 5-22.001z" fill="#000" opacity=".1"/><path d="m467.655 136.251c6.351 0 11.5-5.149 11.5-11.501 0-6.351-5.149-11.5-11.5-11.5s-11.5 5.149-11.5 11.5c0 6.352 5.149 11.501 11.5 11.501z" fill="#ffb9b9"/><path d="m468.155 148.751s-10.5-13.001-12-12.501-12.5 11.501-13.5 15.001-3 28.5-1.5 33.5 1.5 18 1 19-3.5 3.5-.5 3.5 13.5-7.5 20.5-6 16.5-.5 17-1.5-.5-27 0-29-1-12-1.5-14-.5-10-5.5-12l-2.132-.211-.12 4.946z" fill="#f06595"/><path d="m446.155 174.751s1 15.5 8.5 22 23.5 17.5 24.5 19.5 10.5 12.5 12.5 8c.58-1.403.72-2.949.401-4.434-.29-1.475-.88-2.875-1.731-4.115-.852-1.239-1.948-2.291-3.221-3.091l-4.449-2.86-22-23-1-12z" fill="#ffb9b9"/><path d="m474.905 275.501s-5.75-1.25-7.75 2.25 2 13 2 13 11.5 24 13.5 21-1.5-14-1.5-14 5-11 3-11.5-9.25-4.75-9.25-10.75z" fill="#2f2e41"/><path d="m510.155 304.251s-3-1.5-3.5 0-3.5 9 0 10 38 2 37 0-6.5-4.5-10-5.5-12.5-8.5-12.5-8.5-5 6.5-11 4z" fill="#2f2e41"/><path d="m479.239 115.623c-.216-.725-.691-1.346-1.335-1.743.033-.777-.062-1.555-.282-2.301-.735-2.172-2.476-2.048-4.118-3.008-.713-.417-.669-.785-1.04-1.469-.486-.898-1.214-1.64-2.101-2.144-1.054-.672-2.166-1.363-3.412-1.448-2.62-.179-4.628 2.285-7.132 3.076-1.103.348-2.289.363-3.399.692-1.109.33-2.216 1.117-2.381 2.262-.076.529.058 1.071-.019 1.6-.154 1.051-1.076 1.786-1.693 2.651-1.365 1.911-1.208 4.611-.117 6.69.23.43.493.842.787 1.231.091.983.373 1.939.831 2.813 1.091 2.08 2.969 3.633 4.93 4.924-.16-.689-.258-1.392-.291-2.099-.027-.236.003-.475.09-.696.218-.457.795-.578 1.235-.828.912-.518 1.27-1.665 1.296-2.713s-.196-2.098-.086-3.141c.004-.24.059-.476.16-.693.101-.218.247-.412.427-.569.337-.192.721-.284 1.108-.264 1.868-.077 3.819-.111 5.467-.994.531-.353 1.102-.642 1.701-.861 1.401-.365 2.832.616 3.638 1.817.807 1.201 1.21 2.631 1.954 3.871.745 1.241 2.031 2.348 3.47 2.201.081 0 .162-.017.236-.05s.14-.081.194-.142c.062-.111.09-.239.079-.366l.081-5.502c.067-.941-.027-1.887-.278-2.797z" fill="#2f2e41"/><path d="m450.655 149.251s11 5 10.5 15.5 3 11.5-5.5 12.5-10.5 0-11 1-3.5-23-1.5-25.5 7.5-3.5 7.5-3.5z" fill="#f06595"/><path d="m229.404 64.5002c8.836 0 16-7.1634 16-16s-7.164-16.0001-16-16.0001c-8.837 0-16 7.1635-16 16.0001s7.163 16 16 16z" fill="#2f2e41"/><path d="m240.154 223.751-9 24.5s-7.5 6-3 8 13.5-2 13.5-2l7-18-1-12.5z" fill="#2f2e41"/><path d="m240.154 223.751-9 24.5s-7.5 6-3 8 13.5-2 13.5-2l7-18-1-12.5z" fill="#000" opacity=".1"/><path d="m240.904 78.5003 7.5 1s3.5 27.4997 2 29.4997-9 10-12 8 2.5-38.4997 2.5-38.4997z" fill="#575a89"/><path d="m169.154 128.75s-10.5 4.5-12.5 5-5 5.501-1.5 6.501 17-9.001 17-9.001z" fill="#a0616a"/><path d="m243.654 233.751 5.5 20.5s.5 7.5 3 8 10-2.5 10-3.5-3-9-3-9 0-6-3-8.5-5.703-10.875-5.703-10.875z" fill="#2f2e41"/><path d="m250.654 186.751c1.01 2.355.885 19.44-.22 30.81-.535 5.525-1.3 9.7-2.28 10.19l-7.165-1.79-2.835-.71-.075-6.22-.425-34.28-8.5-35.5v-9l21.5 2 3.41 5.355.09.145s-5 35.5-3.5 39z" fill="#2f2e41"/><path d="m246.154 197.751c1.07 1.605 2.855 11.215 4.28 19.81-.535 5.525-1.3 9.7-2.28 10.19l-7.165-1.79c-.11-.23-.22-.47-.335-.71-.915-1.92-1.775-4.04-2.575-6.22l-.425-34.28-8.5-35.5v-9l21.5 2 3.41 5.355-19.91-1.355 4.5 19.5 5.5 20.5s0 8.5 2 11.5z" fill="#000" opacity=".1"/><path d="m210.654 120.25s-7 15.501 3 37.001c6.188 13.379 11.695 27.063 16.5 41 0 0 3.5 16.5 8.5 27s4 11 4 11l8-4.5s-4.5-31-6.5-34-2-11.5-2-11.5l-5.5-20.5-4.5-19.5 22 1.5s0-28.501-10-34.001z" fill="#2f2e41"/><path d="m218.904 56.0002s0 8-2.5 8.5-7.5.5-9 3.0001c-1.5 2.5 11.5 35.4997 11.5 35.4997l13.5-8.4996 4.5-22.5001s-6.5-4-6.5-6.0001v-9z" fill="#a0616a"/><path d="m218.904 56.0002s0 8-2.5 8.5-7.5.5-9 3.0001c-1.5 2.5 11.5 35.4997 11.5 35.4997l13.5-8.4996 4.5-22.5001s-6.5-4-6.5-6.0001v-9z" fill="#000" opacity=".1"/><path d="m226.654 64.7502c6.627 0 12-5.3726 12-12s-5.373-12.0001-12-12.0001c-6.628 0-12 5.3727-12 12.0001s5.372 12 12 12z" fill="#a0616a"/><path d="m220.404 93.0003s-4.5-28.5001-5.5-28.5001-15 3-16 3.5c-1 .5001-4.5 5.0001-4.5 5.0001l7 20s3 13.9997 5 16.4997 6 9.5 4 10.5-4 2.5-2 2.5 18.5-3 19.5-1.5 17.5-5.5 17.5-6-2-23.9997-2-23.9997l5-11.5-15-10.5z" fill="#575a89"/><path d="m199.404 70.5003-5 2.5s-14 31.9997-15 32.4997-6 10-6.5 12-1.5 8.5-3 9.5c-.805.547-1.64 1.048-2.5 1.5 0 0 3 5 4.5 5s6.5-7 6.5-7 11 7 14 1.5 10.5-40.4997 10.5-40.4997z" fill="#575a89"/><path d="m238.654 85.7503s-7-17-11-15 3 14 7.5 16z" fill="#a0616a"/><path d="m231.654 86.2503 7.015-1.5859 1.485 7.5859s6.5 11.4997 5 16.4997-10.5 13-13.5 8.5-5.5-11.5-3.5-15.5c2-3.9996 5-13.4997 3.5-15.4997z" fill="#000" opacity=".1"/><path d="m233.154 85.2503 7.015-1.5859 1.485 7.5859s6.5 11.4997 5 16.4997-10.5 13-13.5 8.5-5.5-11.5-3.5-15.5c2-3.9996 5-13.4997 3.5-15.4997z" fill="#575a89"/><path d="m240.77 50.3408c1.348-2.8757-2.425-7.4861-8.427-10.2976s-11.959-2.7594-13.306.1163 2.426 7.4862 8.427 10.2976c6.002 2.8115 11.959 2.7595 13.306-.1163z" fill="#2f2e41"/><path d="m238.904 42.0002c3.866 0 7-3.1341 7-7.0001s-3.134-7-7-7-7 3.134-7 7 3.134 7.0001 7 7.0001z" fill="#2f2e41"/><path d="m232.404 32.5001c0-1.7265.638-3.392 1.792-4.6764 1.154-1.2845 2.741-2.0973 4.458-2.2822-.978-.1068-1.967-.0064-2.903.2946-.936.3011-1.798.7959-2.531 1.4525-.732.6565-1.317 1.4599-1.718 2.3578-.401.898-.608 1.8703-.608 2.8537s.207 1.9557.608 2.8537c.401.8979.986 1.7013 1.718 2.3579.733.6565 1.595 1.1514 2.531 1.4524s1.925.4014 2.903.2947c-1.717-.185-3.304-.9978-4.458-2.2822-1.154-1.2845-1.792-2.95-1.792-4.6765z" fill="#2f2e41"/><path d="m207.404 138.501h-175.0009v121.5h175.0009z" fill="#3f3d56"/><path d="m69.4032 150.501h-23.0001v23h23.0001z" fill="#f2f2f2"/><path d="m69.4032 188.001h-23.0001v23h23.0001z" fill="#f06595"/><g fill="#f2f2f2"><path d="m69.4032 225.501h-23.0001v23h23.0001z"/><path d="m189.904 157.751h-109.5007v2h109.5007z"/><path d="m114.403 164.251h-33.9997v2h33.9997z"/><path d="m189.904 195.251h-109.5007v2h109.5007z"/><path d="m114.403 201.751h-33.9997v2h33.9997z"/><path d="m189.904 232.751h-109.5007v2h109.5007z"/><path d="m114.403 239.251h-33.9997v2h33.9997z"/></g><path d="m56.4033 264.967c0 10.179-6.05 13.732-13.5142 13.732-.1728 0-.3457-.002-.5174-.006-.3458-.008-.6891-.024-1.0274-.047-6.7365-.477-11.9693-4.213-11.9693-13.679 0-9.794 12.5154-22.153 13.4582-23.07l.0012-.001c.0361-.036.0547-.054.0547-.054s13.5142 12.948 13.5142 23.125z" fill="#f06595"/><path d="m42.3964 277.142 4.9429-6.906-4.9554 7.665-.0124.792c-.3458-.008-.6891-.024-1.0274-.047l.5323-10.182-.0037-.08.0087-.014.051-.962-4.9678-7.683 4.9827 6.961.0125.204.4017-7.693-4.2526-7.939 4.3049 6.59.4191-15.951.0013-.055v.054l-.0697 12.577 4.234-4.986-4.2514 6.07-.1119 6.888 3.9541-6.611-3.9703 7.625-.0622 3.829 5.7378-9.202-5.7602 10.538z" fill="#3f3d56"/></svg>