<svg fill="none" height="230" viewBox="0 0 294 230" width="294" xmlns="http://www.w3.org/2000/svg" xmlns:xlink="http://www.w3.org/1999/xlink"><clipPath id="a"><path d="m0 0h294v229.91h-294z"/></clipPath><g clip-path="url(#a)"><path d="m147 218.084c0 4.875-3.953 8.826-8.828 8.826h-126.346c-4.875 0-8.826-3.951-8.826-8.826l.064-206.258c0-4.875 3.952-8.826 8.827-8.826h126.281c4.875 0 8.828 3.951 8.828 8.826z" fill="#343a40" stroke="#495057" stroke-miterlimit="10" stroke-width="6"/><path d="m131 19h-112v176h112z" fill="#868e96" stroke="#495057" stroke-miterlimit="10" stroke-width="6"/><path d="m83 170.172c0 4.875-4.119 8.828-8.994 8.828h-30.346c-4.875 0-8.66-3.953-8.66-8.828v-30.346c0-4.875 3.85-8.826 8.725-8.826h30.281c4.875 0 8.994 3.951 8.994 8.826z" stroke="#495057" stroke-miterlimit="10" stroke-width="6"/><path d="m53.834 172.656-26.828-26.828c-1.563-1.563-1.563-4.096 0-5.656 1.563-1.563 4.094-1.563 5.656 0l21.172 21.17 37.172-37.17c1.563-1.563 4.094-1.563 5.656 0 1.563 1.561 1.563 4.094 0 5.656z" fill="#51cf66"/><g stroke="#495057" stroke-miterlimit="10" stroke-width="6"><path d="m35 59h64"/><path d="m35 75h64"/><path d="m35 91h64"/><path d="m35 107h64"/><path d="m291 106.172c0 4.875-3.953 8.828-8.828 8.828h-71.172l-32 16v-16h-55.174c-4.875 0-8.826-3.953-8.826-8.828v-62.346c0-4.875 3.951-8.826 8.826-8.826h158.346c4.875 0 8.828 3.951 8.828 8.826z" fill="#9775fa"/><path d="m291 106.172c0 4.875-3.953 8.828-8.828 8.828h-71.172l-32 16v-16h-55.174c-4.875 0-8.826-3.953-8.826-8.828v-62.346c0-4.875 3.951-8.826 8.826-8.826h158.346c4.875 0 8.828 3.951 8.828 8.826z"/></g><path d="m170.746 87.643v-11.229c0-2.559-1.336-3.361-3.437-3.361-1.872 0-3.361 1.07-4.201 2.178v12.412h-4.851v-25.475h4.851v9.434c1.184-1.414 3.476-2.865 6.493-2.865 4.048 0 5.996 2.215 5.996 5.807v13.1h-4.851z" fill="#fff"/><path d="m179.225 78.4c0-5.348 3.935-9.664 9.549-9.664 5.5 0 9.242 4.125 9.242 10.16v1.068h-13.711c.306 2.33 2.178 4.279 5.309 4.279 1.566 0 3.743-.688 4.928-1.834l2.139 3.131c-1.834 1.682-4.736 2.561-7.602 2.561-5.614.001-9.854-3.781-9.854-9.701zm9.548-5.806c-3.018 0-4.316 2.254-4.545 4.088h9.09c-.115-1.758-1.337-4.088-4.545-4.088z" fill="#fff"/><path d="m201.529 87.643v-25.475h4.852v25.475z" fill="#fff"/><path d="m211.191 87.643v-25.475h4.852v25.475z" fill="#fff"/><path d="m219.672 78.4c0-5.232 3.666-9.664 9.738-9.664 6.111 0 9.777 4.432 9.777 9.664 0 5.27-3.666 9.701-9.777 9.701-6.072.001-9.738-4.431-9.738-9.701zm14.474 0c0-2.865-1.719-5.348-4.736-5.348s-4.697 2.482-4.697 5.348c0 2.902 1.68 5.385 4.697 5.385s4.736-2.482 4.736-5.385z" fill="#fff"/><path d="m242.203 84.969c0-1.68 1.375-3.094 3.057-3.094 1.68 0 3.094 1.414 3.094 3.094 0 1.643-1.414 3.055-3.094 3.055-1.682-.001-3.057-1.413-3.057-3.055zm.918-5.614-.803-17.188h5.844l-.764 17.188z" fill="#fff"/></g></svg>