<svg fill="none" height="238" viewBox="0 0 294 238" width="294" xmlns="http://www.w3.org/2000/svg" xmlns:xlink="http://www.w3.org/1999/xlink"><clipPath id="a"><path d="m0 0h294v237.416h-294z"/></clipPath><g clip-path="url(#a)" stroke="#495057" stroke-miterlimit="10" stroke-width="6"><path d="m275 6.70801h-144v15.99999 192 16h144c8.837 0 16-7.163 16-16v-192c0-8.836-7.163-15.99999-16-15.99999z" fill="#adb5bd"/><path d="m259 6.70801h-16v223.99999h16z" fill="#ff6b6b"/><path d="m147 6.70801v223.99999"/><path d="m163 38.708h48"/><path d="m163 54.708h48"/><path d="m163 70.708h32"/><path d="m107 38.708h-32v192h32z" fill="#ff6b6b"/><path d="m91 6.70801-8 15.99999h16z" fill="#ff6b6b"/><path d="m107 38.708-8-16h-16l-8 16z" stroke-linejoin="round"/><path d="m51 22.708h-32v176h32z" fill="#4dabf7"/><path d="m43 6.70801h-16v15.99999h16z" stroke-linejoin="round"/><path d="m35 230.708 8-16h-16z" fill="#4dabf7"/><g stroke-linejoin="round"><path d="m19 198.708 8 16h16l8-16z"/><path d="m19 38.708h-16"/><path d="m3 22.708v64"/></g></g></svg>