<svg fill="none" height="544" viewBox="0 0 889 544" width="889" xmlns="http://www.w3.org/2000/svg" xmlns:xlink="http://www.w3.org/1999/xlink"><clipPath id="a"><path d="m0 0h889v544h-889z"/></clipPath><clipPath id="b"><path d="m0 0h888v544h-888z"/></clipPath><clipPath id="c"><path d="m-206-309h1156.83v1156.83h-1156.83z"/></clipPath><clipPath id="d"><path d="m0 0h40v18h-40z" transform="matrix(1 0 0 -1 743 164)"/></clipPath><mask id="e" height="524" maskUnits="userSpaceOnUse" width="654" x="51" y="20"><path clip-rule="evenodd" d="m705 20h-654v524h654zm-93 153h-468v284h468z" fill="#c4c4c4" fill-rule="evenodd"/></mask><g clip-path="url(#a)"><g clip-path="url(#b)"><path d="m5.73391 26.201-3.135 1.331v.968l2.2055-.946v6.446h.9295zm2.17038 1.815c.3685-.495.825-.935 1.683-.935.97351 0 1.53451.6545 1.53451 1.5125 0 .6325-.308 1.1495-.77 1.6335l-2.88201 3.0415v.7315h4.86751v-.8855h-3.48701l2.21101-2.3485c.495-.5225 1.034-1.21 1.034-2.167 0-1.3805-.913-2.409-2.48601-2.409-1.331 0-2.013.748-2.376 1.2815zm10.73811.759h-.902v.704c-.4125-.495-1.023-.814-1.8425-.814-1.4685 0-2.6125 1.144-2.6125 2.7225s1.144 2.7225 2.6125 2.7225c.8195 0 1.43-.319 1.8425-.8085v.6985h.902zm-2.64.737c1.056 0 1.793.8085 1.793 1.8755 0 1.0725-.737 1.881-1.793 1.881-1.0725 0-1.7985-.8415-1.7985-1.881s.7095-1.8755 1.7985-1.8755zm10.9222-.847c-.7095 0-1.518.2585-1.947 1.0505-.3465-.6545-1.045-1.0505-1.9305-1.0505-.605 0-1.2815.2035-1.7105.792v-.682h-.891v5.225h.8965v-2.9315c0-.9735.704-1.551 1.5455-1.551.9075 0 1.4355.5665 1.4355 1.529v2.9535h.902v-2.9315c0-.9515.6765-1.551 1.54-1.551.9075 0 1.4355.5665 1.4355 1.529v2.9535h.902v-3.245c0-1.254-.8855-2.09-2.178-2.09zm-19.02031 41.351c.3685-.495.825-.935 1.683-.935.97351 0 1.53451.6545 1.53451 1.5125 0 .6325-.308 1.1495-.77 1.6335l-2.88201 3.0415v.7315h4.86751v-.8855h-3.48701l2.21101-2.3485c.495-.5225 1.034-1.21 1.034-2.167 0-1.3805-.913-2.409-2.48601-2.409-1.331 0-2.013.748-2.376 1.2815zm10.73811.759h-.902v.704c-.4125-.495-1.023-.814-1.8425-.814-1.4685 0-2.6125 1.144-2.6125 2.7225s1.144 2.7225 2.6125 2.7225c.8195 0 1.43-.319 1.8425-.8085v.6985h.902zm-2.64.737c1.056 0 1.793.8085 1.793 1.8755 0 1.0725-.737 1.881-1.793 1.881-1.0725 0-1.7985-.8415-1.7985-1.881s.7095-1.8755 1.7985-1.8755zm10.9222-.847c-.7095 0-1.518.2585-1.947 1.0505-.3465-.6545-1.045-1.0505-1.9305-1.0505-.605 0-1.2815.2035-1.7105.792v-.682h-.891v5.225h.8965v-2.9315c0-.9735.704-1.551 1.5455-1.551.9075 0 1.4355.5665 1.4355 1.529v2.9535h.902v-2.9315c0-.9515.6765-1.551 1.54-1.551.9075 0 1.4355.5665 1.4355 1.529v2.9535h.902v-3.245c0-1.254-.8855-2.09-2.178-2.09zm-15.6586 42.737h-.9295v2.128h-2.44201l2.81601-5.219h-1.05601l-2.8765 5.384v.715h3.55851v1.59h.9295v-1.59h1.2815v-.88h-1.2815zm7.3764-.627h-.902v.704c-.4125-.495-1.023-.814-1.8425-.814-1.4685 0-2.6125 1.144-2.6125 2.722 0 1.579 1.144 2.723 2.6125 2.723.8195 0 1.43-.319 1.8425-.809v.699h.902zm-2.64.737c1.056 0 1.793.808 1.793 1.875 0 1.073-.737 1.881-1.793 1.881-1.0725 0-1.7985-.841-1.7985-1.881 0-1.039.7095-1.875 1.7985-1.875zm10.9222-.847c-.7095 0-1.518.258-1.947 1.05-.3465-.654-1.045-1.05-1.9305-1.05-.605 0-1.2815.203-1.7105.792v-.682h-.891v5.225h.8965v-2.932c0-.973.704-1.551 1.5455-1.551.9075 0 1.4355.567 1.4355 1.529v2.954h.902v-2.932c0-.951.6765-1.551 1.54-1.551.9075 0 1.4355.567 1.4355 1.529v2.954h.902v-3.245c0-1.254-.8855-2.09-2.178-2.09zm-16.0318 39.635h-1.13853l-2.2715 3.531c-.385.599-.5995 1.139-.5995 1.76 0 1.435 1.1715 2.519 2.7445 2.519 1.57853 0 2.74453-1.078 2.74453-2.519s-1.155-2.519-2.58503-2.519c-.3795 0-.6655.077-.88.181zm-1.26503 3.635c1.02303 0 1.78203.688 1.78203 1.656s-.759 1.655-1.78203 1.655c-1.023 0-1.7875-.687-1.7875-1.655s.7645-1.656 1.7875-1.656zm9.01463-1.16h-.902v.704c-.4125-.495-1.023-.814-1.8425-.814-1.4685 0-2.6125 1.144-2.6125 2.722 0 1.579 1.144 2.723 2.6125 2.723.8195 0 1.43-.319 1.8425-.809v.699h.902zm-2.64.737c1.056 0 1.793.808 1.793 1.875 0 1.073-.737 1.881-1.793 1.881-1.0725 0-1.7985-.841-1.7985-1.881 0-1.039.7095-1.875 1.7985-1.875zm10.9222-.847c-.7095 0-1.518.258-1.947 1.05-.3465-.654-1.045-1.05-1.9305-1.05-.605 0-1.2815.203-1.7105.792v-.682h-.891v5.225h.8965v-2.932c0-.973.704-1.551 1.5455-1.551.9075 0 1.4355.567 1.4355 1.529v2.954h.902v-2.932c0-.951.6765-1.551 1.54-1.551.9075 0 1.4355.567 1.4355 1.529v2.954h.902v-3.245c0-1.254-.8855-2.09-2.178-2.09zm-17.57965 39.525c-1.4795 0-2.6895.786-2.6895 2.134 0 .929.5665 1.496 1.298 1.787-.8195.281-1.4795.853-1.4795 1.826 0 1.381 1.287 2.173 2.871 2.173 1.58395 0 2.87645-.792 2.87645-2.173 0-.967-.66-1.54-1.4795-1.826.726-.291 1.298-.858 1.298-1.787 0-1.348-1.21-2.134-2.69495-2.134zm0 4.339c1.03395 0 1.88645.473 1.88645 1.359 0 .891-.8525 1.358-1.88645 1.358-1.034 0-1.8865-.467-1.8865-1.358 0-.886.8525-1.359 1.8865-1.359zm0-3.47c.94045 0 1.71045.456 1.71045 1.309 0 .891-.77 1.347-1.71045 1.347-.935 0-1.705-.456-1.705-1.347 0-.853.77-1.309 1.705-1.309zm9.29745 1.716h-.902v.704c-.4125-.495-1.023-.814-1.8425-.814-1.4685 0-2.6125 1.144-2.6125 2.722 0 1.579 1.144 2.723 2.6125 2.723.8195 0 1.43-.319 1.8425-.809v.699h.902zm-2.64.737c1.056 0 1.793.808 1.793 1.875 0 1.073-.737 1.881-1.793 1.881-1.0725 0-1.7985-.841-1.7985-1.881 0-1.039.7095-1.875 1.7985-1.875zm10.9222-.847c-.7095 0-1.518.258-1.947 1.05-.3465-.654-1.045-1.05-1.9305-1.05-.605 0-1.2815.203-1.7105.792v-.682h-.891v5.225h.8965v-2.932c0-.973.704-1.551 1.5455-1.551.9075 0 1.4355.567 1.4355 1.529v2.954h.902v-2.932c0-.951.6765-1.551 1.54-1.551.9075 0 1.4355.567 1.4355 1.529v2.954h.902v-3.245c0-1.254-.8855-2.09-2.178-2.09zm-22.94167 39.536-3.135001 1.331v.968l2.205501-.946v6.446h.9295zm4.94238-.011c-1.7655 0-3.1955 1.485-3.1955 3.96 0 2.469 1.43 3.96 3.1955 3.96 1.75999 0 3.19549-1.491 3.19549-3.96 0-2.475-1.4355-3.96-3.19549-3.96zm0 .896c1.23199 0 2.22199 1.084 2.22199 3.064s-.99 3.063-2.22199 3.063c-1.221 0-2.222-1.083-2.222-3.063s1.001-3.064 2.222-3.064zm9.71709 1.689h-.902v.704c-.4125-.495-1.023-.814-1.8425-.814-1.4685 0-2.6125 1.144-2.6125 2.722 0 1.579 1.144 2.723 2.6125 2.723.8195 0 1.43-.319 1.8425-.809v.699h.902zm-2.64.737c1.056 0 1.793.808 1.793 1.875 0 1.073-.737 1.881-1.793 1.881-1.0725 0-1.7985-.841-1.7985-1.881 0-1.039.7095-1.875 1.7985-1.875zm10.9222-.847c-.7095 0-1.518.258-1.947 1.05-.3465-.654-1.045-1.05-1.9305-1.05-.605 0-1.2815.203-1.7105.792v-.682h-.891v5.225h.8965v-2.932c0-.973.704-1.551 1.5455-1.551.9075 0 1.4355.567 1.4355 1.529v2.954h.902v-2.932c0-.951.6765-1.551 1.54-1.551.9075 0 1.4355.567 1.4355 1.529v2.954h.902v-3.245c0-1.254-.8855-2.09-2.178-2.09zm-21.17995 39.536-3.135 1.331v.968l2.2055-.946v6.446h.9295zm2.17038 1.815c.3685-.495.825-.935 1.683-.935.97347 0 1.53447.654 1.53447 1.512 0 .633-.308 1.15-.77 1.634l-2.88197 3.041v.732h4.86747v-.886h-3.48697l2.21097-2.348c.495-.523 1.034-1.21 1.034-2.167 0-1.381-.913-2.409-2.48597-2.409-1.331 0-2.013.748-2.376 1.281zm8.51607.649c-.825 0-1.4355.319-1.8425.808v-.698h-.8965v7.425h.8965v-2.899c.407.49 1.0175.809 1.8425.809 1.463 0 2.6125-1.144 2.6125-2.723 0-1.578-1.1495-2.722-2.6125-2.722zm-.1045.847c1.067 0 1.793.836 1.793 1.875 0 1.04-.7095 1.881-1.793 1.881-1.056 0-1.793-.808-1.793-1.881 0-1.067.737-1.875 1.793-1.875zm10.598-.847c-.7095 0-1.518.258-1.947 1.05-.3465-.654-1.045-1.05-1.9305-1.05-.605 0-1.2815.203-1.7105.792v-.682h-.891v5.225h.8965v-2.932c0-.973.704-1.551 1.5455-1.551.9075 0 1.4355.567 1.4355 1.529v2.954h.902v-2.932c0-.951.6765-1.551 1.54-1.551.9075 0 1.4355.567 1.4355 1.529v2.954h.902v-3.245c0-1.254-.8855-2.09-2.178-2.09zm-19.00957 41.351c.3685-.495.825-.935 1.683-.935.97347 0 1.53447.654 1.53447 1.512 0 .633-.308 1.15-.77 1.634l-2.88197 3.041v.732h4.86747v-.886h-3.48697l2.21097-2.348c.495-.523 1.034-1.21 1.034-2.167 0-1.381-.913-2.409-2.48597-2.409-1.331 0-2.013.748-2.376 1.281zm8.51607.649c-.825 0-1.4355.319-1.8425.808v-.698h-.8965v7.425h.8965v-2.899c.407.49 1.0175.809 1.8425.809 1.463 0 2.6125-1.144 2.6125-2.723 0-1.578-1.1495-2.722-2.6125-2.722zm-.1045.847c1.067 0 1.793.836 1.793 1.875 0 1.04-.7095 1.881-1.793 1.881-1.056 0-1.793-.808-1.793-1.881 0-1.067.737-1.875 1.793-1.875zm10.598-.847c-.7095 0-1.518.258-1.947 1.05-.3465-.654-1.045-1.05-1.9305-1.05-.605 0-1.2815.203-1.7105.792v-.682h-.891v5.225h.8965v-2.932c0-.973.704-1.551 1.5455-1.551.9075 0 1.4355.567 1.4355 1.529v2.954h.902v-2.932c0-.951.6765-1.551 1.54-1.551.9075 0 1.4355.567 1.4355 1.529v2.954h.902v-3.245c0-1.254-.8855-2.09-2.178-2.09zm-15.6479 42.737h-.9295v2.128h-2.44196l2.81596-5.219h-1.05596l-2.8765 5.384v.715h3.55846v1.59h.9295v-1.59h1.2815v-.88h-1.2815zm5.1544-.737c-.825 0-1.4355.319-1.8425.808v-.698h-.8965v7.425h.8965v-2.899c.407.49 1.0175.809 1.8425.809 1.463 0 2.6125-1.144 2.6125-2.723 0-1.578-1.1495-2.722-2.6125-2.722zm-.1045.847c1.067 0 1.793.836 1.793 1.875 0 1.04-.7095 1.881-1.793 1.881-1.056 0-1.793-.808-1.793-1.881 0-1.067.737-1.875 1.793-1.875zm10.598-.847c-.7095 0-1.518.258-1.947 1.05-.3465-.654-1.045-1.05-1.9305-1.05-.605 0-1.2815.203-1.7105.792v-.682h-.891v5.225h.8965v-2.932c0-.973.704-1.551 1.5455-1.551.9075 0 1.4355.567 1.4355 1.529v2.954h.902v-2.932c0-.951.6765-1.551 1.54-1.551.9075 0 1.4355.567 1.4355 1.529v2.954h.902v-3.245c0-1.254-.8855-2.09-2.178-2.09zm-16.0211 39.635h-1.13849l-2.2715 3.531c-.385.599-.5995 1.139-.5995 1.76 0 1.435 1.1715 2.519 2.7445 2.519 1.57849 0 2.74449-1.078 2.74449-2.519s-1.155-2.519-2.58499-2.519c-.3795 0-.6655.077-.88.181zm-1.26499 3.635c1.02299 0 1.78199.688 1.78199 1.656s-.759 1.655-1.78199 1.655c-1.023 0-1.7875-.687-1.7875-1.655s.7645-1.656 1.7875-1.656zm6.79259-1.27c-.825 0-1.4355.319-1.8425.808v-.698h-.8965v7.425h.8965v-2.899c.407.49 1.0175.809 1.8425.809 1.463 0 2.6125-1.144 2.6125-2.723 0-1.578-1.1495-2.722-2.6125-2.722zm-.1045.847c1.067 0 1.793.836 1.793 1.875 0 1.04-.7095 1.881-1.793 1.881-1.056 0-1.793-.808-1.793-1.881 0-1.067.737-1.875 1.793-1.875zm10.598-.847c-.7095 0-1.518.258-1.947 1.05-.3465-.654-1.045-1.05-1.9305-1.05-.605 0-1.2815.203-1.7105.792v-.682h-.891v5.225h.8965v-2.932c0-.973.704-1.551 1.5455-1.551.9075 0 1.4355.567 1.4355 1.529v2.954h.902v-2.932c0-.951.6765-1.551 1.54-1.551.9075 0 1.4355.567 1.4355 1.529v2.954h.902v-3.245c0-1.254-.8855-2.09-2.178-2.09zm-17.56891 39.525c-1.4795 0-2.6895.786-2.6895 2.134 0 .929.5665 1.496 1.298 1.787-.8195.281-1.4795.853-1.4795 1.826 0 1.381 1.287 2.173 2.871 2.173 1.58401 0 2.87651-.792 2.87651-2.173 0-.967-.66-1.54-1.4795-1.826.726-.291 1.298-.858 1.298-1.787 0-1.348-1.21-2.134-2.69501-2.134zm0 4.339c1.03401 0 1.88651.473 1.88651 1.359 0 .891-.8525 1.358-1.88651 1.358-1.034 0-1.8865-.467-1.8865-1.358 0-.886.8525-1.359 1.8865-1.359zm0-3.47c.94051 0 1.71051.456 1.71051 1.309 0 .891-.77 1.347-1.71051 1.347-.935 0-1.705-.456-1.705-1.347 0-.853.77-1.309 1.705-1.309zm7.07541 1.606c-.825 0-1.4355.319-1.8425.808v-.698h-.8965v7.425h.8965v-2.899c.407.49 1.0175.809 1.8425.809 1.463 0 2.6125-1.144 2.6125-2.723 0-1.578-1.1495-2.722-2.6125-2.722zm-.1045.847c1.067 0 1.793.836 1.793 1.875 0 1.04-.7095 1.881-1.793 1.881-1.056 0-1.793-.808-1.793-1.881 0-1.067.737-1.875 1.793-1.875zm10.598-.847c-.7095 0-1.518.258-1.947 1.05-.3465-.654-1.045-1.05-1.9305-1.05-.605 0-1.2815.203-1.7105.792v-.682h-.891v5.225h.8965v-2.932c0-.973.704-1.551 1.5455-1.551.9075 0 1.4355.567 1.4355 1.529v2.954h.902v-2.932c0-.951.6765-1.551 1.54-1.551.9075 0 1.4355.567 1.4355 1.529v2.954h.902v-3.245c0-1.254-.8855-2.09-2.178-2.09zm-22.93093 39.536-3.134999 1.331v.968l2.205499-.946v6.446h.9295zm4.94238-.011c-1.7655 0-3.1955 1.485-3.1955 3.96 0 2.469 1.43 3.96 3.1955 3.96 1.76005 0 3.19555-1.491 3.19555-3.96 0-2.475-1.4355-3.96-3.19555-3.96zm0 .896c1.23205 0 2.22205 1.084 2.22205 3.064s-.99 3.063-2.22205 3.063c-1.221 0-2.222-1.083-2.222-3.063s1.001-3.064 2.222-3.064zm7.49505 1.579c-.825 0-1.4355.319-1.8425.808v-.698h-.8965v7.425h.8965v-2.899c.407.49 1.0175.809 1.8425.809 1.463 0 2.6125-1.144 2.6125-2.723 0-1.578-1.1495-2.722-2.6125-2.722zm-.1045.847c1.067 0 1.793.836 1.793 1.875 0 1.04-.7095 1.881-1.793 1.881-1.056 0-1.793-.808-1.793-1.881 0-1.067.737-1.875 1.793-1.875zm10.598-.847c-.7095 0-1.518.258-1.947 1.05-.3465-.654-1.045-1.05-1.9305-1.05-.605 0-1.2815.203-1.7105.792v-.682h-.891v5.225h.8965v-2.932c0-.973.704-1.551 1.5455-1.551.9075 0 1.4355.567 1.4355 1.529v2.954h.902v-2.932c0-.951.6765-1.551 1.54-1.551.9075 0 1.4355.567 1.4355 1.529v2.954h.902v-3.245c0-1.254-.8855-2.09-2.178-2.09z" fill="#6c6e75"/><path d="m91.9147 5.0315c-.726-.5005-1.6115-.8415-2.772-.8415-1.6225 0-2.9425.8305-2.9425 2.3155 0 1.3145 1.012 1.903 2.2825 2.057l.715.088c1.199.1485 1.8425.4895 1.8425 1.2045 0 .869-.902 1.3365-2.0515 1.3365-.979 0-1.9745-.3905-2.508-.8525l-.528.77c.7425.6215 1.9415 1.001 3.036 1.001 1.6665 0 3.058-.803 3.058-2.3375 0-1.3585-1.1165-1.8865-2.42-2.046l-.6765-.0825c-1.155-.143-1.7435-.5005-1.7435-1.199 0-.8305.803-1.3365 1.9305-1.3365.891 0 1.6555.286 2.2825.7095zm6.3607 1.7435h-.902v2.9535c0 1.067-.6325 1.54-1.4795 1.54-.8525 0-1.485-.473-1.485-1.54v-2.9535h-.902v3.036c0 1.5785 1.1275 2.299 2.387 2.299 1.2485 0 2.3815-.7205 2.3815-2.299zm4.3516-.11c-.605 0-1.282.2035-1.711.792v-.682h-.891v5.225h.897v-2.9315c0-.9735.704-1.551 1.545-1.551.908 0 1.436.5665 1.436 1.529v2.9535h.902v-3.245c0-1.254-.891-2.09-2.178-2.09z" fill="#6c6e75"/><path d="m185.523 4.2945h-1.48l-2.579 5.7475-2.58-5.7475h-1.479v7.7055h.968v-6.5835l2.579 5.753h1.023l2.58-5.797v6.6275h.968zm4.316 2.3705c-1.584 0-2.761 1.1715-2.761 2.7225s1.177 2.7225 2.761 2.7225 2.767-1.1715 2.767-2.7225-1.183-2.7225-2.767-2.7225zm0 .847c1.045 0 1.843.781 1.843 1.8755s-.798 1.881-1.843 1.881c-1.05 0-1.842-.7865-1.842-1.881s.792-1.8755 1.842-1.8755zm6.776-.847c-.605 0-1.282.2035-1.711.792v-.682h-.891v5.225h.897v-2.9315c0-.9735.704-1.551 1.545-1.551.908 0 1.436.5665 1.436 1.529v2.9535h.902v-3.245c0-1.254-.891-2.09-2.178-2.09z" fill="#6c6e75"/><path d="m276.695 4.3h-6.221v.9185h2.629v6.7815h.968v-6.7815h2.624zm5.086 2.475h-.902v2.9535c0 1.067-.632 1.54-1.479 1.54-.853 0-1.485-.473-1.485-1.54v-2.9535h-.902v3.036c0 1.5785 1.127 2.299 2.387 2.299 1.248 0 2.381-.7205 2.381-2.299zm3.95-.11c-1.501 0-2.596 1.1165-2.596 2.7225 0 1.628 1.1 2.7225 2.651 2.7225.77 0 1.496-.187 2.145-.792l-.478-.616c-.446.385-1.001.6215-1.612.6215-.896 0-1.65-.5335-1.776-1.617h4.108c.006-.099.017-.22.017-.3355-.011-1.6005-1.034-2.706-2.459-2.706zm-.016.7975c.847 0 1.446.594 1.556 1.518h-3.195c.137-.891.715-1.518 1.639-1.518z" fill="#6c6e75"/><path d="m371.086 4.3h-.995l-2.057 6.611-2.112-6.6165h-1.1l-2.107 6.6165-2.062-6.611h-1.018l2.47 7.7055h1.193l2.063-6.4295 2.062 6.4295h1.199zm2.808 2.365c-1.501 0-2.596 1.1165-2.596 2.7225 0 1.628 1.1 2.7225 2.651 2.7225.77 0 1.496-.187 2.145-.792l-.478-.616c-.446.385-1.001.6215-1.612.6215-.896 0-1.65-.5335-1.776-1.617h4.108c.006-.099.017-.22.017-.3355-.011-1.6005-1.034-2.706-2.459-2.706zm-.016.7975c.847 0 1.446.594 1.556 1.518h-3.195c.137-.891.715-1.518 1.639-1.518zm6.099-.7975c-1.469 0-2.613 1.144-2.613 2.7225s1.144 2.7225 2.613 2.7225c.819 0 1.43-.319 1.842-.8085v.6985h.902v-7.92h-.902v3.399c-.412-.495-1.023-.814-1.842-.814zm.104.847c1.056 0 1.793.8085 1.793 1.8755 0 1.0725-.737 1.881-1.793 1.881-1.072 0-1.798-.8415-1.798-1.881s.709-1.8755 1.798-1.8755z" fill="#6c6e75"/><path d="m460.62 4.3h-6.22v.9185h2.629v6.7815h.968v-6.7815h2.623zm1.957-.22h-.896v7.92h.896v-2.9315c0-.9735.704-1.551 1.546-1.551.907 0 1.435.5665 1.435 1.529v2.9535h.902v-3.245c0-1.254-.891-2.09-2.178-2.09-.605 0-1.276.198-1.705.7865zm10.345 2.695h-.902v2.9535c0 1.067-.633 1.54-1.48 1.54-.852 0-1.485-.473-1.485-1.54v-2.9535h-.902v3.036c0 1.5785 1.128 2.299 2.387 2.299 1.249 0 2.382-.7205 2.382-2.299z" fill="#6c6e75"/><path d="m550.651 7.666h-4.186v-2.4475h4.406v-.9185h-5.374v7.7h.968v-3.421h4.186zm4-1.001c-.621 0-1.166.286-1.529.7975v-.6875h-.885v5.225h.896v-2.9095c0-.9625.561-1.573 1.359-1.573.297 0 .649.0715.896.2035l.22-.8855c-.28-.121-.583-.1705-.957-.1705zm2.991.11h-.897v5.225h.897zm-.457-2.4805c-.357 0-.632.2805-.632.6435 0 .3575.275.627.632.627.358 0 .644-.2695.644-.627 0-.363-.286-.6435-.644-.6435z" fill="#6c6e75"/><path d="m636.059 5.0315c-.726-.5005-1.611-.8415-2.772-.8415-1.622 0-2.942.8305-2.942 2.3155 0 1.3145 1.012 1.903 2.282 2.057l.715.088c1.199.1485 1.843.4895 1.843 1.2045 0 .869-.902 1.3365-2.052 1.3365-.979 0-1.974-.3905-2.508-.8525l-.528.77c.743.6215 1.942 1.001 3.036 1.001 1.667 0 3.058-.803 3.058-2.3375 0-1.3585-1.116-1.8865-2.42-2.046l-.676-.0825c-1.155-.143-1.744-.5005-1.744-1.199 0-.8305.803-1.3365 1.931-1.3365.891 0 1.655.286 2.282.7095zm6.662 1.7435h-.902v.704c-.412-.495-1.023-.814-1.842-.814-1.469 0-2.613 1.144-2.613 2.7225s1.144 2.7225 2.613 2.7225c.819 0 1.43-.319 1.842-.8085v.6985h.902zm-2.64.737c1.056 0 1.793.8085 1.793 1.8755 0 1.0725-.737 1.881-1.793 1.881-1.072 0-1.798-.8415-1.798-1.881s.709-1.8755 1.798-1.8755zm7.991-.737h-2.195v-1.639h-.902v1.639h-1.116v.8195h1.116v2.563c0 1.331.677 1.9525 1.81 1.9525.643 0 1.166-.2255 1.567-.517l-.423-.6765c-.297.2035-.682.352-1.067.352-.567 0-.985-.341-.985-1.1275v-2.5465h2.195z" fill="#6c6e75"/><path d="m0 0h90v18h-90z" fill="#f1f2f4" transform="translate(51 20)"/><path d="m0 0h90v18h-90z" fill="#f1f2f4" transform="translate(51 42)"/><path d="m0 0h90v18h-90z" fill="#f1f2f4" transform="translate(51 64)"/><path d="m0 0h90v18h-90z" fill="#f1f2f4" transform="translate(51 86)"/><path d="m0 0h90v18h-90z" fill="#f1f2f4" transform="translate(51 108)"/><path d="m0 0h90v18h-90z" fill="#f1f2f4" transform="translate(51 130)"/><path d="m0 0h90v18h-90z" fill="#f1f2f4" transform="translate(51 152)"/><path d="m0 0h90v18h-90z" fill="#f1de95" transform="translate(51 174)"/><path d="m0 0h90v18h-90z" fill="#f1de95" transform="translate(51 196)"/><path d="m0 0h90v18h-90z" fill="#ffa33d" transform="translate(51 218)"/><path d="m0 0h90v18h-90z" fill="#f1de95" transform="translate(51 240)"/><path d="m0 0h90v18h-90z" fill="#ffa33d" transform="translate(51 262)"/><path d="m0 0h90v18h-90z" fill="#f1de95" transform="translate(51 284)"/><path d="m0 0h90v18h-90z" fill="#f1de95" transform="translate(51 306)"/><path d="m0 0h90v18h-90z" fill="#f1f2f4" transform="translate(51 328)"/><path d="m0 0h90v18h-90z" fill="#f1de95" transform="translate(51 350)"/><path d="m0 0h90v18h-90z" fill="#f1f2f4" transform="translate(51 372)"/><path d="m0 0h90v18h-90z" fill="#f1de95" transform="translate(51 394)"/><g fill="#f1f2f4"><path d="m0 0h90v18h-90z" transform="translate(51 416)"/><path d="m0 0h90v18h-90z" transform="translate(51 438)"/><path d="m0 0h90v18h-90z" transform="translate(51 460)"/><path d="m0 0h90v18h-90z" transform="translate(51 482)"/><path d="m0 0h90v18h-90z" transform="translate(51 504)"/><path d="m0 0h90v18h-90z" transform="translate(51 526)"/><path d="m0 0h90v18h-90z" transform="translate(145 20)"/><path d="m0 0h90v18h-90z" transform="translate(145 42)"/><path d="m0 0h90v18h-90z" transform="translate(145 64)"/><path d="m0 0h90v18h-90z" transform="translate(145 86)"/><path d="m0 0h90v18h-90z" transform="translate(145 108)"/></g><path d="m0 0h90v18h-90z" fill="#f1de95" transform="translate(145 130)"/><path d="m0 0h90v18h-90z" fill="#f1de95" transform="translate(145 152)"/><path d="m0 0h90v18h-90z" fill="#f1de95" transform="translate(145 174)"/><path d="m0 0h90v18h-90z" fill="#ffa33d" transform="translate(145 196)"/><path d="m0 0h90v18h-90z" fill="#ff4111" transform="translate(145 218)"/><path d="m0 0h90v18h-90z" fill="#cc1117" transform="translate(145 240)"/><path d="m0 0h90v18h-90z" fill="#ff6012" transform="translate(145 262)"/><path d="m0 0h90v18h-90z" fill="#ff4111" transform="translate(145 284)"/><path d="m0 0h90v18h-90z" fill="#ff4111" transform="translate(145 306)"/><path d="m0 0h90v18h-90z" fill="#ffa33d" transform="translate(145 328)"/><path d="m0 0h90v18h-90z" fill="#ff6012" transform="translate(145 350)"/><path d="m0 0h90v18h-90z" fill="#ffa33d" transform="translate(145 372)"/><path d="m0 0h90v18h-90z" fill="#ffa33d" transform="translate(145 394)"/><path d="m0 0h90v18h-90z" fill="#ffa33d" transform="translate(145 416)"/><path d="m0 0h90v18h-90z" fill="#f1de95" transform="translate(145 438)"/><path d="m0 0h90v18h-90z" fill="#f1de95" transform="translate(145 460)"/><path d="m0 0h90v18h-90z" fill="#f1de95" transform="translate(145 482)"/><path d="m0 0h90v18h-90z" fill="#f1f2f4" transform="translate(145 504)"/><path d="m0 0h90v18h-90z" fill="#f1f2f4" transform="translate(145 526)"/><path d="m0 0h90v18h-90z" fill="#f1f2f4" transform="translate(239 20)"/><path d="m0 0h90v18h-90z" fill="#f1f2f4" transform="translate(239 42)"/><path d="m0 0h90v18h-90z" fill="#f1f2f4" transform="translate(239 64)"/><path d="m0 0h90v18h-90z" fill="#f1f2f4" transform="translate(239 86)"/><path d="m0 0h90v18h-90z" fill="#f1f2f4" transform="translate(239 108)"/><path d="m0 0h90v18h-90z" fill="#f1f2f4" transform="translate(239 130)"/><path d="m0 0h90v18h-90z" fill="#f1de95" transform="translate(239 152)"/><path d="m0 0h90v18h-90z" fill="#ffa33d" transform="translate(239 174)"/><path d="m0 0h90v18h-90z" fill="#ff6012" transform="translate(239 196)"/><path d="m0 0h90v18h-90z" fill="#ffa33d" transform="translate(239 218)"/><path d="m0 0h90v18h-90z" fill="#ff4111" transform="translate(239 240)"/><path d="m0 0h90v18h-90z" fill="#cc1117" transform="translate(239 262)"/><path d="m0 0h90v18h-90z" fill="#cc1117" transform="translate(239 284)"/><path d="m0 0h90v18h-90z" fill="#ff4111" transform="translate(239 306)"/><path d="m0 0h90v18h-90z" fill="#ff6012" transform="translate(239 328)"/><path d="m0 0h90v18h-90z" fill="#ff6012" transform="translate(239 350)"/><path d="m0 0h90v18h-90z" fill="#ff4111" transform="translate(239 372)"/><path d="m0 0h90v18h-90z" fill="#ff6012" transform="translate(239 394)"/><path d="m0 0h90v18h-90z" fill="#f1de95" transform="translate(239 416)"/><path d="m0 0h90v18h-90z" fill="#ffa33d" transform="translate(239 438)"/><path d="m0 0h90v18h-90z" fill="#f1de95" transform="translate(239 460)"/><path d="m0 0h90v18h-90z" fill="#f1f2f4" transform="translate(239 482)"/><path d="m0 0h90v18h-90z" fill="#f1f2f4" transform="translate(239 504)"/><path d="m0 0h90v18h-90z" fill="#f1f2f4" transform="translate(239 526)"/><path d="m0 0h90v18h-90z" fill="#f1f2f4" transform="translate(333 20)"/><path d="m0 0h90v18h-90z" fill="#f1f2f4" transform="translate(333 42)"/><path d="m0 0h90v18h-90z" fill="#f1f2f4" transform="translate(333 64)"/><path d="m0 0h90v18h-90z" fill="#f1f2f4" transform="translate(333 86)"/><path d="m0 0h90v18h-90z" fill="#f1f2f4" transform="translate(333 108)"/><path d="m0 0h90v18h-90z" fill="#f1f2f4" transform="translate(333 130)"/><path d="m0 0h90v18h-90z" fill="#f1f2f4" transform="translate(333 152)"/><path d="m0 0h90v18h-90z" fill="#ffa33d" transform="translate(333 174)"/><path d="m0 0h90v18h-90z" fill="#ff6012" transform="translate(333 196)"/><path d="m0 0h90v18h-90z" fill="#ffa33d" transform="translate(333 218)"/><path d="m0 0h90v18h-90z" fill="#ff4111" transform="translate(333 240)"/><path d="m0 0h90v18h-90z" fill="#ff6012" transform="translate(333 262)"/><path d="m0 0h90v18h-90z" fill="#ff4111" transform="translate(333 284)"/><path d="m0 0h90v18h-90z" fill="#cc1117" transform="translate(333 306)"/><path d="m0 0h90v18h-90z" fill="#cc1117" transform="translate(333 328)"/><path d="m0 0h90v18h-90z" fill="#ff6012" transform="translate(333 350)"/><path d="m0 0h90v18h-90z" fill="#ff4111" transform="translate(333 372)"/><path d="m0 0h90v18h-90z" fill="#cc1117" transform="translate(333 394)"/><path d="m0 0h90v18h-90z" fill="#ff6012" transform="translate(333 416)"/><path d="m0 0h90v18h-90z" fill="#ffa33d" transform="translate(333 438)"/><path d="m0 0h90v18h-90z" fill="#f1de95" transform="translate(333 460)"/><path d="m0 0h90v18h-90z" fill="#f1de95" transform="translate(333 482)"/><path d="m0 0h90v18h-90z" fill="#f1f2f4" transform="translate(333 504)"/><path d="m0 0h90v18h-90z" fill="#f1f2f4" transform="translate(333 526)"/><path d="m0 0h90v18h-90z" fill="#f1f2f4" transform="translate(427 20)"/><path d="m0 0h90v18h-90z" fill="#f1f2f4" transform="translate(427 42)"/><path d="m0 0h90v18h-90z" fill="#f1f2f4" transform="translate(427 64)"/><path d="m0 0h90v18h-90z" fill="#f1f2f4" transform="translate(427 86)"/><path d="m0 0h90v18h-90z" fill="#f1f2f4" transform="translate(427 108)"/><path d="m0 0h90v18h-90z" fill="#f1de95" transform="translate(427 130)"/><path d="m0 0h90v18h-90z" fill="#f1de95" transform="translate(427 152)"/><path d="m0 0h90v18h-90z" fill="#f1de95" transform="translate(427 174)"/><path d="m0 0h90v18h-90z" fill="#ffa33d" transform="translate(427 196)"/><path d="m0 0h90v18h-90z" fill="#ff4111" transform="translate(427 218)"/><path d="m0 0h90v18h-90z" fill="#ffa33d" transform="translate(427 240)"/><path d="m0 0h90v18h-90z" fill="#ff4111" transform="translate(427 262)"/><path d="m0 0h90v18h-90z" fill="#cc1117" transform="translate(427 284)"/><path d="m0 0h90v18h-90z" fill="#ff6012" transform="translate(427 306)"/><path d="m0 0h90v18h-90z" fill="#ff4111" transform="translate(427 328)"/><path d="m0 0h90v18h-90z" fill="#ff6012" transform="translate(427 350)"/><path d="m0 0h90v18h-90z" fill="#ffa33d" transform="translate(427 372)"/><path d="m0 0h90v18h-90z" fill="#ffa33d" transform="translate(427 394)"/><path d="m0 0h90v18h-90z" fill="#ffa33d" transform="translate(427 416)"/><path d="m0 0h90v18h-90z" fill="#f1de95" transform="translate(427 438)"/><path d="m0 0h90v18h-90z" fill="#f1f2f4" transform="translate(427 460)"/><path d="m0 0h90v18h-90z" fill="#f1f2f4" transform="translate(427 482)"/><path d="m0 0h90v18h-90z" fill="#f1de95" transform="translate(427 504)"/><path d="m0 0h90v18h-90z" fill="#f1f2f4" transform="translate(427 526)"/><path d="m0 0h90v18h-90z" fill="#f1f2f4" transform="translate(521 20)"/><path d="m0 0h90v18h-90z" fill="#f1f2f4" transform="translate(521 42)"/><path d="m0 0h90v18h-90z" fill="#f1f2f4" transform="translate(521 64)"/><path d="m0 0h90v18h-90z" fill="#f1f2f4" transform="translate(521 86)"/><path d="m0 0h90v18h-90z" fill="#f1f2f4" transform="translate(521 108)"/><path d="m0 0h90v18h-90z" fill="#f1f2f4" transform="translate(521 130)"/><path d="m0 0h90v18h-90z" fill="#f1f2f4" transform="translate(521 152)"/><path d="m0 0h90v18h-90z" fill="#f1de95" transform="translate(521 174)"/><path d="m0 0h90v18h-90z" fill="#ffa33d" transform="translate(521 196)"/><path d="m0 0h90v18h-90z" fill="#ff4111" transform="translate(521 218)"/><path d="m0 0h90v18h-90z" fill="#cc1117" transform="translate(521 240)"/><path d="m0 0h90v18h-90z" fill="#ff6012" transform="translate(521 262)"/><path d="m0 0h90v18h-90z" fill="#ff4111" transform="translate(521 284)"/><path d="m0 0h90v18h-90z" fill="#ff4111" transform="translate(521 306)"/><path d="m0 0h90v18h-90z" fill="#ff6012" transform="translate(521 328)"/><path d="m0 0h90v18h-90z" fill="#ff4111" transform="translate(521 350)"/><path d="m0 0h90v18h-90z" fill="#ff4111" transform="translate(521 372)"/><path d="m0 0h90v18h-90z" fill="#ffa33d" transform="translate(521 394)"/><path d="m0 0h90v18h-90z" fill="#ff6012" transform="translate(521 416)"/><path d="m0 0h90v18h-90z" fill="#f1de95" transform="translate(521 438)"/><path d="m0 0h90v18h-90z" fill="#f1de95" transform="translate(521 460)"/><g fill="#f1f2f4"><path d="m0 0h90v18h-90z" transform="translate(521 482)"/><path d="m0 0h90v18h-90z" transform="translate(521 504)"/><path d="m0 0h90v18h-90z" transform="translate(521 526)"/><path d="m0 0h90v18h-90z" transform="translate(615 20)"/><path d="m0 0h90v18h-90z" transform="translate(615 42)"/><path d="m0 0h90v18h-90z" transform="translate(615 64)"/><path d="m0 0h90v18h-90z" transform="translate(615 86)"/><path d="m0 0h90v18h-90z" transform="translate(615 108)"/><path d="m0 0h90v18h-90z" transform="translate(615 130)"/><path d="m0 0h90v18h-90z" transform="translate(615 152)"/><path d="m0 0h90v18h-90z" transform="translate(615 174)"/></g><path d="m0 0h90v18h-90z" fill="#f1de95" transform="translate(615 196)"/><path d="m0 0h90v18h-90z" fill="#ff6012" transform="translate(615 218)"/><path d="m0 0h90v18h-90z" fill="#ff4111" transform="translate(615 240)"/><path d="m0 0h90v18h-90z" fill="#ffa33d" transform="translate(615 262)"/><path d="m0 0h90v18h-90z" fill="#ffa33d" transform="translate(615 284)"/><path d="m0 0h90v18h-90z" fill="#ffa33d" transform="translate(615 306)"/><path d="m0 0h90v18h-90z" fill="#f1de95" transform="translate(615 328)"/><path d="m0 0h90v18h-90z" fill="#ffa33d" transform="translate(615 350)"/><path d="m0 0h90v18h-90z" fill="#ffa33d" transform="translate(615 372)"/><path d="m0 0h90v18h-90z" fill="#ffa33d" transform="translate(615 394)"/><path d="m0 0h90v18h-90z" fill="#f1de95" transform="translate(615 416)"/><path d="m0 0h90v18h-90z" fill="#f1de95" transform="translate(615 438)"/><path d="m0 0h90v18h-90z" fill="#f1f2f4" transform="translate(615 460)"/><path d="m0 0h90v18h-90z" fill="#f1f2f4" transform="translate(615 482)"/><path d="m0 0h90v18h-90z" fill="#f1f2f4" transform="translate(615 504)"/><path d="m0 0h90v18h-90z" fill="#f1f2f4" transform="translate(615 526)"/><g clip-path="url(#c)"><g fill="#141721" mask="url(#e)" opacity=".05"><path d="m367.686-289h4v800h-4z" transform="matrix(.70710678 .70710678 -.70710678 .70710678 -96.661124 -344.639404)"/><path d="m373.342-283.343h4v800h-4z" transform="matrix(.70710678 .70710678 -.70710678 .70710678 -91.004417 -346.981903)"/><path d="m378.999-277.687h4v800h-4z" transform="matrix(.70710678 .70710678 -.70710678 .70710678 -85.348124 -349.325402)"/><path d="m384.656-272.029h4v800h-4z" transform="matrix(.70710678 .70710678 -.70710678 .70710678 -79.690417 -351.668315)"/><path d="m390.313-266.373h4v800h-4z" transform="matrix(.70710678 .70710678 -.70710678 .70710678 -74.034124 -354.011814)"/><path d="m395.97-260.716h4v800h-4z" transform="matrix(.70710678 .70710678 -.70710678 .70710678 -68.377124 -356.355021)"/><path d="m401.626-255.059h4v800h-4z" transform="matrix(.70710678 .70710678 -.70710678 .70710678 -62.720417 -358.69752)"/><path d="m407.284-249.402h4v800h-4z" transform="matrix(.70710678 .70710678 -.70710678 .70710678 -57.063124 -361.041433)"/><path d="m412.94-243.745h4v800h-4z" transform="matrix(.70710678 .70710678 -.70710678 .70710678 -51.406417 -363.383932)"/><path d="m418.597-238.088h4v800h-4z" transform="matrix(.70710678 .70710678 -.70710678 .70710678 -45.749417 -365.727138)"/><path d="m424.254-232.432h4v800h-4z" transform="matrix(.70710678 .70710678 -.70710678 .70710678 -40.093124 -368.070637)"/><path d="m429.911-226.774h4v800h-4z" transform="matrix(.70710678 .70710678 -.70710678 .70710678 -34.435417 -370.41355)"/><path d="m435.568-221.118h4v800h-4z" transform="matrix(.70710678 .70710678 -.70710678 .70710678 -28.779124 -372.757049)"/><path d="m441.225-215.461h4v800h-4z" transform="matrix(.70710678 .70710678 -.70710678 .70710678 -23.122124 -375.100255)"/><path d="m446.881-209.804h4v800h-4z" transform="matrix(.70710678 .70710678 -.70710678 .70710678 -17.465417 -377.442754)"/><path d="m452.539-204.147h4v800h-4z" transform="matrix(.70710678 .70710678 -.70710678 .70710678 -11.808124 -379.786668)"/><path d="m458.195-198.49h4v800h-4z" transform="matrix(.70710678 .70710678 -.70710678 .70710678 -6.151417 -382.129167)"/><path d="m463.852-192.833h4v800h-4z" transform="matrix(.70710678 .70710678 -.70710678 .70710678 -.494417 -384.472373)"/><path d="m469.509-187.177h4v800h-4z" transform="matrix(.70710678 .70710678 -.70710678 .70710678 5.161876 -386.815872)"/><path d="m475.166-181.52h4v800h-4z" transform="matrix(.70710678 .70710678 -.70710678 .70710678 10.818876 -389.159078)"/><path d="m480.823-175.863h4v800h-4z" transform="matrix(.70710678 .70710678 -.70710678 .70710678 16.475876 -391.502284)"/><path d="m486.479-170.206h4v800h-4z" transform="matrix(.70710678 .70710678 -.70710678 .70710678 22.132583 -393.844783)"/><path d="m492.136-164.549h4v800h-4z" transform="matrix(.70710678 .70710678 -.70710678 .70710678 27.789583 -396.187989)"/><path d="m497.793-158.893h4v800h-4z" transform="matrix(.70710678 .70710678 -.70710678 .70710678 33.445876 -398.531488)"/><path d="m503.45-153.235h4v800h-4z" transform="matrix(.70710678 .70710678 -.70710678 .70710678 39.103583 -400.874401)"/><path d="m509.107-147.579h4v800h-4z" transform="matrix(.70710678 .70710678 -.70710678 .70710678 44.759876 -403.2179)"/><path d="m514.764-141.922h4v800h-4z" transform="matrix(.70710678 .70710678 -.70710678 .70710678 50.416876 -405.561107)"/><path d="m520.42-136.265h4v800h-4z" transform="matrix(.70710678 .70710678 -.70710678 .70710678 56.073583 -407.903606)"/><path d="m526.078-130.608h4v800h-4z" transform="matrix(.70710678 .70710678 -.70710678 .70710678 61.730876 -410.247519)"/><path d="m531.734-124.951h4v800h-4z" transform="matrix(.70710678 .70710678 -.70710678 .70710678 67.387583 -412.590018)"/><path d="m537.391-119.294h4v800h-4z" transform="matrix(.70710678 .70710678 -.70710678 .70710678 73.044583 -414.933224)"/><path d="m543.048-113.638h4v800h-4z" transform="matrix(.70710678 .70710678 -.70710678 .70710678 78.700876 -417.276723)"/><path d="m548.705-107.98h4v800h-4z" transform="matrix(.70710678 .70710678 -.70710678 .70710678 84.358583 -419.619636)"/><path d="m554.362-102.324h4v800h-4z" transform="matrix(.70710678 .70710678 -.70710678 .70710678 90.014876 -421.963135)"/><path d="m560.019-96.667h4v800h-4z" transform="matrix(.70710678 .70710678 -.70710678 .70710678 95.671876 -424.306341)"/><path d="m565.675-91.0098h4v800h-4z" transform="matrix(.70710678 .70710678 -.70710678 .70710678 101.328725 -426.648782)"/><path d="m571.333-85.3535h4v800h-4z" transform="matrix(.70710678 .70710678 -.70710678 .70710678 106.985523 -428.9929)"/><path d="m576.989-79.6963h4v800h-4z" transform="matrix(.70710678 .70710678 -.70710678 .70710678 112.642371 -431.33534)"/><path d="m582.646-74.0391h4v800h-4z" transform="matrix(.70710678 .70710678 -.70710678 .70710678 118.299513 -433.678488)"/><path d="m588.303-68.3828h4v800h-4z" transform="matrix(.70710678 .70710678 -.70710678 .70710678 123.956018 -436.021899)"/><path d="m593.959-62.7256h4v800h-4z" transform="matrix(.70710678 .70710678 -.70710678 .70710678 129.612866 -438.36434)"/><path d="m599.617-57.0693h4v800h-4z" transform="matrix(.70710678 .70710678 -.70710678 .70710678 135.269664 -440.708458)"/><path d="m605.273-51.4121h4v800h-4z" transform="matrix(.70710678 .70710678 -.70710678 .70710678 140.926513 -443.050898)"/><path d="m610.93-45.7549h4v800h-4z" transform="matrix(.70710678 .70710678 -.70710678 .70710678 146.583654 -445.394046)"/><path d="m616.587-40.0986h4v800h-4z" transform="matrix(.70710678 .70710678 -.70710678 .70710678 152.240159 -447.737457)"/><path d="m622.244-34.4414h4v800h-4z" transform="matrix(.70710678 .70710678 -.70710678 .70710678 157.897301 -450.080604)"/><path d="m627.901-28.7852h4v800h-4z" transform="matrix(.70710678 .70710678 -.70710678 .70710678 163.553735 -452.424045)"/><path d="m633.558-23.1279h4v800h-4z" transform="matrix(.70710678 .70710678 -.70710678 .70710678 169.210947 -454.767163)"/><path d="m639.214-17.4707h4v800h-4z" transform="matrix(.70710678 .70710678 -.70710678 .70710678 174.867796 -457.109604)"/><path d="m644.872-11.8145h4v800h-4z" transform="matrix(.70710678 .70710678 -.70710678 .70710678 180.524523 -459.453751)"/><path d="m650.528-6.15723h4v800h-4z" transform="matrix(.70710678 .70710678 -.70710678 .70710678 186.181421 -461.796171)"/><path d="m656.185-.5h4v800h-4z" transform="matrix(.70710678 .70710678 -.70710678 .70710678 191.838583 -464.13931)"/><path d="m661.842 5.15625h4v800h-4z" transform="matrix(.70710678 .70710678 -.70710678 .70710678 197.495053 -466.482736)"/><path d="m667.499 10.8135h4v800h-4z" transform="matrix(.70710678 .70710678 -.70710678 .70710678 203.15223 -468.825869)"/><path d="m673.156 16.4697h4v800h-4z" transform="matrix(.70710678 .70710678 -.70710678 .70710678 208.808664 -471.169309)"/><path d="m678.812 22.127h4v800h-4z" transform="matrix(.70710678 .70710678 -.70710678 .70710678 214.465583 -473.51172)"/><path d="m684.469 27.7842h4v800h-4z" transform="matrix(.70710678 .70710678 -.70710678 .70710678 220.122725 -475.854868)"/><path d="m690.126 33.4404h4v800h-4z" transform="matrix(.70710678 .70710678 -.70710678 .70710678 225.779159 -478.198308)"/><path d="m695.783 39.0977h4v800h-4z" transform="matrix(.70710678 .70710678 -.70710678 .70710678 231.436371 -480.541426)"/><path d="m701.44 44.7549h4v800h-4z" transform="matrix(.70710678 .70710678 -.70710678 .70710678 237.093513 -482.884574)"/><path d="m707.097 50.4111h4v800h-4z" transform="matrix(.70710678 .70710678 -.70710678 .70710678 242.749947 -485.228014)"/><path d="m712.753 56.0684h4v800h-4z" transform="matrix(.70710678 .70710678 -.70710678 .70710678 248.406866 -487.570425)"/><path d="m718.411 61.7246h4v800h-4z" transform="matrix(.70710678 .70710678 -.70710678 .70710678 254.063593 -489.914573)"/><path d="m724.067 67.3818h4v800h-4z" transform="matrix(.70710678 .70710678 -.70710678 .70710678 259.720442 -492.257013)"/><path d="m729.724 73.0391h4v800h-4z" transform="matrix(.70710678 .70710678 -.70710678 .70710678 265.377654 -494.600132)"/><path d="m735.381 78.6953h4v800h-4z" transform="matrix(.70710678 .70710678 -.70710678 .70710678 271.034088 -496.943572)"/><path d="m741.038 84.3525h4v800h-4z" transform="matrix(.70710678 .70710678 -.70710678 .70710678 276.69123 -499.28672)"/><path d="m746.695 90.0088h4v800h-4z" transform="matrix(.70710678 .70710678 -.70710678 .70710678 282.347735 -501.630131)"/><path d="m752.352 95.666h4v800h-4z" transform="matrix(.70710678 .70710678 -.70710678 .70710678 288.004876 -503.973278)"/><path d="m758.008 101.323h4v800h-4z" transform="matrix(.70710678 .70710678 -.70710678 .70710678 293.661583 -506.315777)"/><path d="m763.666 106.979h4v800h-4z" transform="matrix(.70710678 .70710678 -.70710678 .70710678 299.318169 -508.659984)"/><path d="m769.322 112.637h4v800h-4z" transform="matrix(.70710678 .70710678 -.70710678 .70710678 304.975583 -511.00219)"/><path d="m774.979 118.294h4v800h-4z" transform="matrix(.70710678 .70710678 -.70710678 .70710678 310.632583 -513.345396)"/><path d="m780.636 123.95h4v800h-4z" transform="matrix(.70710678 .70710678 -.70710678 .70710678 316.288876 -515.688895)"/><path d="m786.293 129.607h4v800h-4z" transform="matrix(.70710678 .70710678 -.70710678 .70710678 321.945876 -518.032101)"/><path d="m791.95 135.264h4v800h-4z" transform="matrix(.70710678 .70710678 -.70710678 .70710678 327.602876 -520.375307)"/><path d="m797.606 140.921h4v800h-4z" transform="matrix(.70710678 .70710678 -.70710678 .70710678 333.259583 -522.717806)"/><path d="m803.263 146.578h4v800h-4z" transform="matrix(.70710678 .70710678 -.70710678 .70710678 338.916583 -525.061012)"/><path d="m808.92 152.234h4v800h-4z" transform="matrix(.70710678 .70710678 -.70710678 .70710678 344.572876 -527.404511)"/><path d="m814.577 157.892h4v800h-4z" transform="matrix(.70710678 .70710678 -.70710678 .70710678 350.230583 -529.747424)"/><path d="m820.234 163.548h4v800h-4z" transform="matrix(.70710678 .70710678 -.70710678 .70710678 355.886876 -532.090923)"/><path d="m825.891 169.205h4v800h-4z" transform="matrix(.70710678 .70710678 -.70710678 .70710678 361.543876 -534.43413)"/><path d="m831.547 174.862h4v800h-4z" transform="matrix(.70710678 .70710678 -.70710678 .70710678 367.200583 -536.776629)"/><path d="m837.205 180.519h4v800h-4z" transform="matrix(.70710678 .70710678 -.70710678 .70710678 372.857876 -539.120542)"/><path d="m842.861 186.176h4v800h-4z" transform="matrix(.70710678 .70710678 -.70710678 .70710678 378.514583 -541.463041)"/><path d="m848.518 191.833h4v800h-4z" transform="matrix(.70710678 .70710678 -.70710678 .70710678 384.171583 -543.806247)"/><path d="m854.175 197.489h4v800h-4z" transform="matrix(.70710678 .70710678 -.70710678 .70710678 389.827876 -546.149746)"/><path d="m859.832 203.146h4v800h-4z" transform="matrix(.70710678 .70710678 -.70710678 .70710678 395.484876 -548.492952)"/><path d="m865.489 208.803h4v800h-4z" transform="matrix(.70710678 .70710678 -.70710678 .70710678 401.141876 -550.836158)"/><path d="m871.146 214.46h4v800h-4z" transform="matrix(.70710678 .70710678 -.70710678 .70710678 406.798876 -553.179364)"/><path d="m876.802 220.117h4v800h-4z" transform="matrix(.70710678 .70710678 -.70710678 .70710678 412.455583 -555.521863)"/><path d="m882.459 225.773h4v800h-4z" transform="matrix(.70710678 .70710678 -.70710678 .70710678 418.111876 -557.865362)"/><path d="m888.116 231.431h4v800h-4z" transform="matrix(.70710678 .70710678 -.70710678 .70710678 423.769583 -560.208276)"/><path d="m893.773 237.088h4v800h-4z" transform="matrix(.70710678 .70710678 -.70710678 .70710678 429.426583 -562.551482)"/><path d="m899.43 242.744h4v800h-4z" transform="matrix(.70710678 .70710678 -.70710678 .70710678 435.082876 -564.894981)"/><path d="m905.087 248.401h4v800h-4z" transform="matrix(.70710678 .70710678 -.70710678 .70710678 440.739876 -567.238187)"/><path d="m910.744 254.058h4v800h-4z" transform="matrix(.70710678 .70710678 -.70710678 .70710678 446.396876 -569.581393)"/><path d="m916.4 259.715h4v800h-4z" transform="matrix(.70710678 .70710678 -.70710678 .70710678 452.053583 -571.923892)"/><path d="m922.057 265.372h4v800h-4z" transform="matrix(.70710678 .70710678 -.70710678 .70710678 457.710583 -574.267098)"/><path d="m927.714 271.028h4v800h-4z" transform="matrix(.70710678 .70710678 -.70710678 .70710678 463.366876 -576.610597)"/><path d="m933.371 276.686h4v800h-4z" transform="matrix(.70710678 .70710678 -.70710678 .70710678 469.024583 -578.95351)"/><path d="m939.028 282.342h4v800h-4z" transform="matrix(.70710678 .70710678 -.70710678 .70710678 474.680876 -581.297009)"/><path d="m944.685 287.999h4v800h-4z" transform="matrix(.70710678 .70710678 -.70710678 .70710678 480.337876 -583.640215)"/><path d="m950.341 293.656h4v800h-4z" transform="matrix(.70710678 .70710678 -.70710678 .70710678 485.994583 -585.982714)"/><path d="m955.999 299.312h4v800h-4z" transform="matrix(.70710678 .70710678 -.70710678 .70710678 491.651169 -588.326921)"/></g><path d="m143 172h470v286h-470z" stroke="#02663c" stroke-miterlimit="16" stroke-width="2"/></g><rect fill="#141721" fill-opacity=".95" height="32" rx="4" width="83" x="652" y="14"/><path d="m666.162 26.6h-4.59l-.096 4.296h1.854c1.614 0 2.178.738 2.178 1.608 0 .894-.642 1.65-1.842 1.65-.828 0-1.65-.372-2.184-1.008l-.672.66c.708.87 1.668 1.314 2.862 1.314 1.584 0 2.892-.96 2.892-2.7 0-1.338-.948-2.484-2.922-2.484h-1.206l.072-2.376h3.654zm4.803-.108-3.42 1.452v1.056l2.406-1.032v7.032h1.014zm5.353 4.884h-3.372v.888h3.372zm4.068-4.884-3.42 1.452v1.056l2.406-1.032v7.032h1.014zm5.401-.012c-1.926 0-3.486 1.62-3.486 4.32 0 2.694 1.56 4.32 3.486 4.32 1.92 0 3.486-1.626 3.486-4.32 0-2.7-1.566-4.32-3.486-4.32zm0 .978c1.344 0 2.424 1.182 2.424 3.342s-1.08 3.342-2.424 3.342c-1.332 0-2.424-1.182-2.424-3.342s1.092-3.342 2.424-3.342zm8.419-.978c-1.926 0-3.486 1.62-3.486 4.32 0 2.694 1.56 4.32 3.486 4.32 1.92 0 3.486-1.626 3.486-4.32 0-2.7-1.566-4.32-3.486-4.32zm0 .978c1.344 0 2.424 1.182 2.424 3.342s-1.08 3.342-2.424 3.342c-1.332 0-2.424-1.182-2.424-3.342s1.092-3.342 2.424-3.342zm10.835 1.722c-1.764 0-2.958 1.278-2.958 2.97s1.194 2.97 2.958 2.97c.846 0 1.602-.312 2.118-.894l-.606-.678c-.396.384-.93.654-1.536.654-1.098 0-1.932-.858-1.932-2.052s.834-2.046 1.932-2.046c.606 0 1.092.234 1.512.642l.63-.666c-.51-.588-1.272-.9-2.118-.9zm8.833.12h-.984v.768c-.45-.54-1.116-.888-2.01-.888-1.602 0-2.85 1.248-2.85 2.97s1.248 2.97 2.85 2.97c.894 0 1.56-.348 2.01-.882v.762h.984zm-2.88.804c1.152 0 1.956.882 1.956 2.046 0 1.17-.804 2.052-1.956 2.052-1.17 0-1.962-.918-1.962-2.052s.774-2.046 1.962-2.046zm5.834-3.744h-.978v8.64h.978zm2.959 0h-.978v8.64h.978zm6.246 3.444c-.552-.378-1.374-.618-2.274-.618-1.386 0-2.292.66-2.292 1.752 0 .864.618 1.44 1.896 1.596l.66.078c.774.096 1.146.36 1.146.78 0 .564-.576.87-1.512.87-.954 0-1.524-.276-1.95-.606l-.456.732c.75.564 1.698.732 2.4.732 1.554 0 2.526-.702 2.526-1.788 0-.942-.714-1.452-1.926-1.614l-.66-.084c-.69-.084-1.104-.294-1.104-.75 0-.516.504-.846 1.284-.846.75 0 1.476.282 1.836.528z" fill="#fff"/><path d="m735 24.69 5.657 5.155-5.657 5.155z" fill="#141721" fill-opacity=".95"/></g><g fill="#6c6e75"><path d="m799.596 130.3h-.968v6.044l-4.659-6.05h-.874v7.706h.968l.005-6.045 4.653 6.051h.875zm4.311 2.365c-1.584 0-2.761 1.171-2.761 2.722s1.177 2.723 2.761 2.723 2.766-1.172 2.766-2.723-1.182-2.722-2.766-2.722zm0 .847c1.045 0 1.842.781 1.842 1.875 0 1.095-.797 1.881-1.842 1.881-1.051 0-1.843-.786-1.843-1.881 0-1.094.792-1.875 1.843-1.875zm10.713-3.328c-2.31 0-3.988 1.661-3.988 3.966 0 2.304 1.678 3.966 3.988 3.966 1.331 0 2.48-.595 3.129-1.557l-.792-.578c-.506.754-1.347 1.205-2.337 1.205-1.694 0-2.976-1.227-2.976-3.036 0-1.81 1.282-3.036 2.976-3.036.995 0 1.842.467 2.343 1.21l.808-.545c-.605-.99-1.804-1.595-3.151-1.595zm9.479 2.591h-.902v.704c-.412-.495-1.023-.814-1.842-.814-1.469 0-2.613 1.144-2.613 2.722 0 1.579 1.144 2.723 2.613 2.723.819 0 1.43-.319 1.842-.809v.699h.902zm-2.64.737c1.056 0 1.793.808 1.793 1.875 0 1.073-.737 1.881-1.793 1.881-1.072 0-1.798-.841-1.798-1.881 0-1.039.709-1.875 1.798-1.875zm5.34-3.432h-.896v7.92h.896zm2.704 0h-.897v7.92h.897zm5.718 3.157c-.506-.347-1.26-.567-2.085-.567-1.27 0-2.101.605-2.101 1.606 0 .792.567 1.32 1.738 1.463l.605.072c.71.088 1.051.33 1.051.715 0 .517-.528.797-1.386.797-.875 0-1.397-.253-1.788-.555l-.418.671c.688.517 1.557.671 2.2.671 1.425 0 2.316-.644 2.316-1.639 0-.864-.655-1.331-1.766-1.48l-.605-.077c-.632-.077-1.012-.269-1.012-.687 0-.473.462-.776 1.177-.776.688 0 1.353.259 1.683.484z"/><path d="m795.493 109.201-3.135 1.331v.968l2.205-.946v6.446h.93zm8.528-.017c-2.31 0-3.988 1.661-3.988 3.966 0 2.304 1.678 3.966 3.988 3.966 1.331 0 2.48-.595 3.129-1.557l-.792-.578c-.506.754-1.347 1.205-2.337 1.205-1.694 0-2.976-1.227-2.976-3.036 0-1.81 1.282-3.036 2.976-3.036.995 0 1.842.467 2.343 1.21l.808-.545c-.605-.99-1.804-1.595-3.151-1.595zm9.479 2.591h-.902v.704c-.412-.495-1.023-.814-1.842-.814-1.469 0-2.613 1.144-2.613 2.722 0 1.579 1.144 2.723 2.613 2.723.819 0 1.43-.319 1.842-.809v.699h.902zm-2.64.737c1.056 0 1.793.808 1.793 1.875 0 1.073-.737 1.881-1.793 1.881-1.072 0-1.798-.841-1.798-1.881 0-1.039.709-1.875 1.798-1.875zm5.34-3.432h-.897v7.92h.897zm2.704 0h-.897v7.92h.897z"/><path d="m794.822 25.19c-1.144 0-1.953.5005-2.393 1.166l.671.5665c.33-.462.902-.8635 1.661-.8635.93 0 1.65.5005 1.65 1.309 0 .88-.726 1.32-1.644 1.32h-.99v.8525h.99c1.001 0 1.815.484 1.815 1.3475 0 .9185-.781 1.353-1.711 1.353-.742 0-1.441-.297-1.919-.792l-.594.627c.561.649 1.441 1.034 2.535 1.034 1.364 0 2.662-.7095 2.662-2.1835 0-.8965-.544-1.507-1.342-1.815.704-.308 1.166-.8965 1.166-1.7875 0-1.2705-1.028-2.134-2.557-2.134zm7.138 0c-1.765 0-3.195 1.485-3.195 3.96 0 2.4695 1.43 3.96 3.195 3.96 1.76 0 3.196-1.4905 3.196-3.96 0-2.475-1.436-3.96-3.196-3.96zm0 .8965c1.232 0 2.222 1.0835 2.222 3.0635s-.99 3.0635-2.222 3.0635c-1.221 0-2.222-1.0835-2.222-3.0635s1.001-3.0635 2.222-3.0635zm7.71-.8965c-1.766 0-3.196 1.485-3.196 3.96 0 2.4695 1.43 3.96 3.196 3.96 1.76 0 3.195-1.4905 3.195-3.96 0-2.475-1.435-3.96-3.195-3.96zm0 .8965c1.232 0 2.222 1.0835 2.222 3.0635s-.99 3.0635-2.222 3.0635c-1.221 0-2.222-1.0835-2.222-3.0635s1.001-3.0635 2.222-3.0635zm11.295-.902c-2.31 0-3.987 1.661-3.987 3.9655s1.677 3.9655 3.987 3.9655c1.331 0 2.481-.594 3.13-1.5565l-.792-.5775c-.506.7535-1.348 1.2045-2.338 1.2045-1.694 0-2.975-1.2265-2.975-3.036s1.281-3.036 2.975-3.036c.996 0 1.843.4675 2.343 1.21l.809-.5445c-.605-.99-1.804-1.595-3.152-1.595zm9.48 2.5905h-.902v.704c-.413-.495-1.023-.814-1.843-.814-1.468 0-2.612 1.144-2.612 2.7225s1.144 2.7225 2.612 2.7225c.82 0 1.43-.319 1.843-.8085v.6985h.902zm-2.64.737c1.056 0 1.793.8085 1.793 1.8755 0 1.0725-.737 1.881-1.793 1.881-1.073 0-1.799-.8415-1.799-1.881s.71-1.8755 1.799-1.8755zm5.339-3.432h-.896v7.92h.896zm2.704 0h-.896v7.92h.896zm5.718 3.157c-.506-.3465-1.26-.5665-2.085-.5665-1.27 0-2.101.605-2.101 1.606 0 .792.567 1.32 1.738 1.463l.605.0715c.71.088 1.051.33 1.051.715 0 .517-.528.7975-1.386.7975-.875 0-1.397-.253-1.788-.5555l-.418.671c.688.517 1.557.671 2.2.671 1.425 0 2.316-.6435 2.316-1.639 0-.8635-.655-1.331-1.766-1.4795l-.605-.077c-.632-.077-1.012-.2695-1.012-.6875 0-.473.462-.7755 1.177-.7755.688 0 1.353.2585 1.683.484z"/><path d="m796.648 151.184c-2.31 0-3.988 1.661-3.988 3.966 0 2.304 1.678 3.966 3.988 3.966 1.331 0 2.48-.595 3.129-1.557l-.792-.578c-.506.754-1.347 1.205-2.337 1.205-1.694 0-2.976-1.227-2.976-3.036 0-1.81 1.282-3.036 2.976-3.036.995 0 1.842.467 2.343 1.21l.808-.545c-.605-.99-1.804-1.595-3.151-1.595zm5.511-.104h-.896v7.92h.896zm4.172 2.585c-1.584 0-2.761 1.171-2.761 2.722s1.177 2.723 2.761 2.723 2.767-1.172 2.767-2.723-1.183-2.722-2.767-2.722zm0 .847c1.045 0 1.843.781 1.843 1.875 0 1.095-.798 1.881-1.843 1.881-1.05 0-1.842-.786-1.842-1.881 0-1.094.792-1.875 1.842-1.875zm8.085-.275c-.506-.347-1.26-.567-2.085-.567-1.27 0-2.101.605-2.101 1.606 0 .792.567 1.32 1.738 1.463l.605.072c.71.088 1.051.33 1.051.715 0 .517-.528.797-1.386.797-.875 0-1.397-.253-1.788-.555l-.418.671c.688.517 1.557.671 2.2.671 1.425 0 2.316-.644 2.316-1.639 0-.864-.655-1.331-1.766-1.48l-.605-.077c-.632-.077-1.012-.269-1.012-.687 0-.473.462-.776 1.177-.776.688 0 1.353.259 1.683.484zm3.657-.572c-1.502 0-2.596 1.116-2.596 2.722 0 1.628 1.1 2.723 2.651 2.723.77 0 1.496-.187 2.145-.792l-.479-.616c-.445.385-1.001.621-1.611.621-.897 0-1.65-.533-1.777-1.617h4.109c.005-.099.016-.22.016-.335-.011-1.601-1.034-2.706-2.458-2.706zm-.017.797c.847 0 1.447.594 1.557 1.518h-3.196c.138-.891.715-1.518 1.639-1.518zm6.099-.797c-1.468 0-2.612 1.144-2.612 2.722 0 1.579 1.144 2.723 2.612 2.723.82 0 1.43-.319 1.843-.809v.699h.902v-7.92h-.902v3.399c-.413-.495-1.023-.814-1.843-.814zm.105.847c1.056 0 1.793.808 1.793 1.875 0 1.073-.737 1.881-1.793 1.881-1.073 0-1.799-.841-1.799-1.881 0-1.039.71-1.875 1.799-1.875z"/></g><g clip-path="url(#d)"><path d="m0 0h40v18h-40z" fill="#f1f2f4" transform="matrix(1 0 0 -1 743 164)"/><g fill="#141721" opacity=".05"><path d="m740.313-367.373h4v800h-4z" transform="matrix(.70710678 .70710678 -.70710678 .70710678 -42.939282 -631.081403)"/><path d="m745.97-361.716h4v800h-4z" transform="matrix(.70710678 .70710678 -.70710678 .70710678 -37.282282 -633.424609)"/><path d="m751.626-356.059h4v800h-4z" transform="matrix(.70710678 .70710678 -.70710678 .70710678 -31.625575 -635.767108)"/><path d="m757.284-350.402h4v800h-4z" transform="matrix(.70710678 .70710678 -.70710678 .70710678 -25.968282 -638.111021)"/><path d="m762.94-344.745h4v800h-4z" transform="matrix(.70710678 .70710678 -.70710678 .70710678 -20.311575 -640.45352)"/><path d="m768.597-339.088h4v800h-4z" transform="matrix(.70710678 .70710678 -.70710678 .70710678 -14.654575 -642.796726)"/><path d="m774.254-333.432h4v800h-4z" transform="matrix(.70710678 .70710678 -.70710678 .70710678 -8.998282 -645.140225)"/><path d="m779.911-327.774h4v800h-4z" transform="matrix(.70710678 .70710678 -.70710678 .70710678 -3.340575 -647.483139)"/><path d="m785.568-322.118h4v800h-4z" transform="matrix(.70710678 .70710678 -.70710678 .70710678 2.315718 -649.826638)"/><path d="m791.225-316.461h4v800h-4z" transform="matrix(.70710678 .70710678 -.70710678 .70710678 7.972718 -652.169844)"/><path d="m796.881-310.804h4v800h-4z" transform="matrix(.70710678 .70710678 -.70710678 .70710678 13.629425 -654.512343)"/><path d="m802.539-305.147h4v800h-4z" transform="matrix(.70710678 .70710678 -.70710678 .70710678 19.286718 -656.856256)"/><path d="m808.195-299.49h4v800h-4z" transform="matrix(.70710678 .70710678 -.70710678 .70710678 24.943425 -659.198755)"/><path d="m813.852-293.833h4v800h-4z" transform="matrix(.70710678 .70710678 -.70710678 .70710678 30.600425 -661.541961)"/><path d="m819.509-288.177h4v800h-4z" transform="matrix(.70710678 .70710678 -.70710678 .70710678 36.256718 -663.88546)"/><path d="m825.166-282.52h4v800h-4z" transform="matrix(.70710678 .70710678 -.70710678 .70710678 41.913718 -666.228666)"/><path d="m830.823-276.863h4v800h-4z" transform="matrix(.70710678 .70710678 -.70710678 .70710678 47.570718 -668.571873)"/><path d="m836.479-271.206h4v800h-4z" transform="matrix(.70710678 .70710678 -.70710678 .70710678 53.227425 -670.914372)"/><path d="m842.136-265.549h4v800h-4z" transform="matrix(.70710678 .70710678 -.70710678 .70710678 58.884425 -673.257578)"/><path d="m847.793-259.893h4v800h-4z" transform="matrix(.70710678 .70710678 -.70710678 .70710678 64.540718 -675.601077)"/><path d="m853.45-254.235h4v800h-4z" transform="matrix(.70710678 .70710678 -.70710678 .70710678 70.198425 -677.94399)"/><path d="m859.107-248.579h4v800h-4z" transform="matrix(.70710678 .70710678 -.70710678 .70710678 75.854718 -680.287489)"/><path d="m864.764-242.922h4v800h-4z" transform="matrix(.70710678 .70710678 -.70710678 .70710678 81.511718 -682.630695)"/><path d="m870.42-237.265h4v800h-4z" transform="matrix(.70710678 .70710678 -.70710678 .70710678 87.168425 -684.973194)"/><path d="m876.078-231.608h4v800h-4z" transform="matrix(.70710678 .70710678 -.70710678 .70710678 92.825718 -687.317107)"/><path d="m881.734-225.951h4v800h-4z" transform="matrix(.70710678 .70710678 -.70710678 .70710678 98.482425 -689.659606)"/><path d="m887.391-220.294h4v800h-4z" transform="matrix(.70710678 .70710678 -.70710678 .70710678 104.139425 -692.002812)"/><path d="m893.048-214.638h4v800h-4z" transform="matrix(.70710678 .70710678 -.70710678 .70710678 109.795718 -694.346311)"/><path d="m898.705-208.98h4v800h-4z" transform="matrix(.70710678 .70710678 -.70710678 .70710678 115.453425 -696.689225)"/><path d="m904.362-203.324h4v800h-4z" transform="matrix(.70710678 .70710678 -.70710678 .70710678 121.109718 -699.032724)"/><path d="m910.019-197.667h4v800h-4z" transform="matrix(.70710678 .70710678 -.70710678 .70710678 126.766718 -701.37593)"/><path d="m915.675-192.01h4v800h-4z" transform="matrix(.70710678 .70710678 -.70710678 .70710678 132.423425 -703.718429)"/><path d="m921.333-186.354h4v800h-4z" transform="matrix(.70710678 .70710678 -.70710678 .70710678 138.080011 -706.062635)"/><path d="m926.989-180.696h4v800h-4z" transform="matrix(.70710678 .70710678 -.70710678 .70710678 143.737425 -708.404841)"/><path d="m932.646-175.039h4v800h-4z" transform="matrix(.70710678 .70710678 -.70710678 .70710678 149.394425 -710.748047)"/><path d="m938.303-169.383h4v800h-4z" transform="matrix(.70710678 .70710678 -.70710678 .70710678 155.050718 -713.091546)"/><path d="m943.959-163.726h4v800h-4z" transform="matrix(.70710678 .70710678 -.70710678 .70710678 160.707425 -715.434045)"/><path d="m949.617-158.069h4v800h-4z" transform="matrix(.70710678 .70710678 -.70710678 .70710678 166.364718 -717.777958)"/><path d="m955.273-152.412h4v800h-4z" transform="matrix(.70710678 .70710678 -.70710678 .70710678 172.021425 -720.120457)"/><path d="m960.93-146.755h4v800h-4z" transform="matrix(.70710678 .70710678 -.70710678 .70710678 177.678425 -722.463664)"/><path d="m966.587-141.099h4v800h-4z" transform="matrix(.70710678 .70710678 -.70710678 .70710678 183.334718 -724.807163)"/><path d="m972.244-135.441h4v800h-4z" transform="matrix(.70710678 .70710678 -.70710678 .70710678 188.992425 -727.150076)"/><path d="m977.901-129.785h4v800h-4z" transform="matrix(.70710678 .70710678 -.70710678 .70710678 194.648718 -729.493575)"/><path d="m983.558-124.128h4v800h-4z" transform="matrix(.70710678 .70710678 -.70710678 .70710678 200.305718 -731.836781)"/><path d="m989.214-118.471h4v800h-4z" transform="matrix(.70710678 .70710678 -.70710678 .70710678 205.962425 -734.17928)"/><path d="m994.872-112.814h4v800h-4z" transform="matrix(.70710678 .70710678 -.70710678 .70710678 211.619718 -736.523193)"/><path d="m1000.53-107.157h4v800h-4z" transform="matrix(.70710678 .70710678 -.70710678 .70710678 217.277011 -738.867106)"/><path d="m1006.19-101.5h4v800h-4z" transform="matrix(.70710678 .70710678 -.70710678 .70710678 222.93489 -741.212434)"/><path d="m1011.84-95.8438h4v800h-4z" transform="matrix(.70710678 .70710678 -.70710678 .70710678 228.589274 -743.550925)"/><path d="m1017.5-90.1865h4v800h-4z" transform="matrix(.70710678 .70710678 -.70710678 .70710678 234.247364 -745.896164)"/><path d="m1023.16-84.5303h4v800h-4z" transform="matrix(.70710678 .70710678 -.70710678 .70710678 239.904677 -748.241726)"/><path d="m1028.81-78.873h4v800h-4z" transform="matrix(.70710678 .70710678 -.70710678 .70710678 245.559839 -750.579894)"/><path d="m1034.47-73.2158h4v800h-4z" transform="matrix(.70710678 .70710678 -.70710678 .70710678 251.217859 -752.925163)"/><path d="m1040.13-67.5596h4v800h-4z" transform="matrix(.70710678 .70710678 -.70710678 .70710678 256.875172 -755.270725)"/><path d="m1045.78-61.9023h4v800h-4z" transform="matrix(.70710678 .70710678 -.70710678 .70710678 262.530334 -757.608894)"/><path d="m1051.44-56.2451h4v800h-4z" transform="matrix(.70710678 .70710678 -.70710678 .70710678 268.188354 -759.954162)"/><path d="m1057.1-50.5889h4v800h-4z" transform="matrix(.70710678 .70710678 -.70710678 .70710678 273.845667 -762.299724)"/><path d="m1062.75-44.9316h4v800h-4z" transform="matrix(.70710678 .70710678 -.70710678 .70710678 279.500829 -764.637893)"/><path d="m1068.41-39.2754h4v800h-4z" transform="matrix(.70710678 .70710678 -.70710678 .70710678 285.158142 -766.983454)"/><path d="m1074.07-33.6182h4v800h-4z" transform="matrix(.70710678 .70710678 -.70710678 .70710678 290.816162 -769.328723)"/><path d="m1079.72-27.9609h4v800h-4z" transform="matrix(.70710678 .70710678 -.70710678 .70710678 296.471324 -771.666892)"/><path d="m1085.38-22.3047h4v800h-4z" transform="matrix(.70710678 .70710678 -.70710678 .70710678 302.128637 -774.012454)"/><path d="m1091.04-16.6475h4v800h-4z" transform="matrix(.70710678 .70710678 -.70710678 .70710678 307.786657 -776.357722)"/><path d="m1096.69-10.9912h4v800h-4z" transform="matrix(.70710678 .70710678 -.70710678 .70710678 313.441112 -778.696184)"/><path d="m1102.35-5.33398h4v800h-4z" transform="matrix(.70710678 .70710678 -.70710678 .70710678 319.099146 -781.041447)"/><path d="m1108.01.323242h4v800h-4z" transform="matrix(.70710678 .70710678 -.70710678 .70710678 324.757182 -783.386709)"/><path d="m1113.67 5.97949h4v800h-4z" transform="matrix(.70710678 .70710678 -.70710678 .70710678 330.414529 -785.732257)"/><path d="m1119.32 11.6367h4v800h-4z" transform="matrix(.70710678 .70710678 -.70710678 .70710678 336.069627 -788.070452)"/><path d="m1124.98 17.2939h4v800h-4z" transform="matrix(.70710678 .70710678 -.70710678 .70710678 341.727647 -790.415721)"/><path d="m1130.64 22.9502h4v800h-4z" transform="matrix(.70710678 .70710678 -.70710678 .70710678 347.385031 -792.761253)"/><path d="m1136.29 28.6074h4v800h-4z" transform="matrix(.70710678 .70710678 -.70710678 .70710678 353.040122 -795.099451)"/><path d="m1141.95 34.2637h4v800h-4z" transform="matrix(.70710678 .70710678 -.70710678 .70710678 358.697506 -797.444983)"/><path d="m1147.61 39.9209h4v800h-4z" transform="matrix(.70710678 .70710678 -.70710678 .70710678 364.355526 -799.790252)"/><path d="m1153.26 45.5781h4v800h-4z" transform="matrix(.70710678 .70710678 -.70710678 .70710678 370.010617 -802.12845)"/><path d="m1158.92 51.2344h4v800h-4z" transform="matrix(.70710678 .70710678 -.70710678 .70710678 375.668001 -804.473983)"/><path d="m1164.58 56.8916h4v800h-4z" transform="matrix(.70710678 .70710678 -.70710678 .70710678 381.326021 -806.819251)"/><path d="m1170.23 62.5479h4v800h-4z" transform="matrix(.70710678 .70710678 -.70710678 .70710678 386.980476 -809.157713)"/><path d="m1175.89 68.2051h4v800h-4z" transform="matrix(.70710678 .70710678 -.70710678 .70710678 392.638496 -811.502982)"/><path d="m1181.55 73.8623h4v800h-4z" transform="matrix(.70710678 .70710678 -.70710678 .70710678 398.296516 -813.848251)"/><path d="m1187.2 79.5186h4v800h-4z" transform="matrix(.70710678 .70710678 -.70710678 .70710678 403.950971 -816.186712)"/><path d="m1192.86 85.1758h4v800h-4z" transform="matrix(.70710678 .70710678 -.70710678 .70710678 409.608991 -818.531981)"/><path d="m1198.52 90.833h4v800h-4z" transform="matrix(.70710678 .70710678 -.70710678 .70710678 415.267011 -820.87725)"/><path d="m1204.17 96.4893h4v800h-4z" transform="matrix(.70710678 .70710678 -.70710678 .70710678 420.921466 -823.215711)"/><path d="m1209.83 102.146h4v800h-4z" transform="matrix(.70710678 .70710678 -.70710678 .70710678 426.579132 -825.561126)"/><path d="m1215.49 107.803h4v800h-4z" transform="matrix(.70710678 .70710678 -.70710678 .70710678 432.237011 -827.906454)"/><path d="m1221.15 113.46h4v800h-4z" transform="matrix(.70710678 .70710678 -.70710678 .70710678 437.89489 -830.251781)"/><path d="m1226.8 119.117h4v800h-4z" transform="matrix(.70710678 .70710678 -.70710678 .70710678 443.549839 -832.590038)"/><path d="m1232.46 124.773h4v800h-4z" transform="matrix(.70710678 .70710678 -.70710678 .70710678 449.207011 -834.935658)"/><path d="m1238.12 130.431h4v800h-4z" transform="matrix(.70710678 .70710678 -.70710678 .70710678 454.865597 -837.280692)"/><path d="m1243.77 136.088h4v800h-4z" transform="matrix(.70710678 .70710678 -.70710678 .70710678 460.520546 -839.618949)"/><path d="m1249.43 141.744h4v800h-4z" transform="matrix(.70710678 .70710678 -.70710678 .70710678 466.177718 -841.964569)"/><path d="m1255.09 147.401h4v800h-4z" transform="matrix(.70710678 .70710678 -.70710678 .70710678 471.835597 -844.309897)"/><path d="m1260.74 153.058h4v800h-4z" transform="matrix(.70710678 .70710678 -.70710678 .70710678 477.490546 -846.648153)"/><path d="m1266.4 158.715h4v800h-4z" transform="matrix(.70710678 .70710678 -.70710678 .70710678 483.148425 -848.99348)"/></g></g><path d="m0 0h40v18h-40z" fill="#f1f2f4" transform="matrix(1 0 0 -1 743 143)"/><path d="m0 0h40v18h-40z" fill="#f1de95" transform="matrix(1 0 0 -1 743 122)"/><path d="m0 0h40v18h-40z" fill="#ffa33d" transform="matrix(1 0 0 -1 743 101)"/><path d="m0 0h40v18h-40z" fill="#ff6012" transform="matrix(1 0 0 -1 743 80)"/><path d="m0 0h40v18h-40z" fill="#ff4111" transform="matrix(1 0 0 -1 743 59)"/><path d="m0 0h40v18h-40z" fill="#cc1117" transform="matrix(1 0 0 -1 743 38)"/><path d="m745 192h10v-2h-10zm11 1v10h2v-10zm-1 11h-10v2h10zm-11-1v-10h-2v10zm1 1c-.552 0-1-.448-1-1h-2c0 1.657 1.343 3 3 3zm11-1c0 .552-.448 1-1 1v2c1.657 0 3-1.343 3-3zm-1-11c.552 0 1 .448 1 1h2c0-1.657-1.343-3-3-3zm-10-2c-1.657 0-3 1.343-3 3h2c0-.552.448-1 1-1z" fill="#6c6e75"/><path d="m773.421 194.131c-.924-.637-2.051-1.071-3.528-1.071-2.065 0-3.745 1.057-3.745 2.947 0 1.673 1.288 2.422 2.905 2.618l.91.112c1.526.189 2.345.623 2.345 1.533 0 1.106-1.148 1.701-2.611 1.701-1.246 0-2.513-.497-3.192-1.085l-.672.98c.945.791 2.471 1.274 3.864 1.274 2.121 0 3.892-1.022 3.892-2.975 0-1.729-1.421-2.401-3.08-2.604l-.861-.105c-1.47-.182-2.219-.637-2.219-1.526 0-1.057 1.022-1.701 2.457-1.701 1.134 0 2.107.364 2.905.903zm3.265-1.211h-1.141v10.08h1.141v-3.731c0-1.239.896-1.974 1.967-1.974 1.155 0 1.827.721 1.827 1.946v3.759h1.148v-4.13c0-1.596-1.134-2.66-2.772-2.66-.77 0-1.624.252-2.17 1.001zm10.204 3.29c-2.016 0-3.514 1.491-3.514 3.465s1.498 3.465 3.514 3.465 3.521-1.491 3.521-3.465-1.505-3.465-3.521-3.465zm0 1.078c1.33 0 2.345.994 2.345 2.387s-1.015 2.394-2.345 2.394c-1.337 0-2.345-1.001-2.345-2.394s1.008-2.387 2.345-2.387zm10.681-.938h-1.295l-1.897 5.439-1.883-5.439h-1.225l2.394 6.65h1.344l1.897-5.411 1.904 5.411h1.365l2.394-6.65h-1.197l-1.89 5.453zm12.749-.14c-1.911 0-3.304 1.421-3.304 3.465 0 2.072 1.4 3.465 3.374 3.465.98 0 1.904-.238 2.73-1.008l-.609-.784c-.567.49-1.274.791-2.051.791-1.141 0-2.1-.679-2.261-2.058h5.229c.007-.126.021-.28.021-.427-.014-2.037-1.316-3.444-3.129-3.444zm-.021 1.015c1.078 0 1.841.756 1.981 1.932h-4.067c.175-1.134.91-1.932 2.086-1.932zm10.392-.875h-1.351l-1.925 2.457-1.911-2.457h-1.4l2.562 3.255-2.625 3.395h1.337l1.974-2.555 2.002 2.555h1.407l-2.632-3.409zm7.476 0h-1.148v.896c-.525-.63-1.302-1.036-2.345-1.036-1.869 0-3.325 1.456-3.325 3.465s1.456 3.465 3.325 3.465c1.043 0 1.82-.406 2.345-1.029v.889h1.148zm-3.36.938c1.344 0 2.282 1.029 2.282 2.387 0 1.365-.938 2.394-2.282 2.394-1.365 0-2.289-1.071-2.289-2.394s.903-2.387 2.289-2.387zm8.629-1.078c-2.058 0-3.451 1.491-3.451 3.465s1.393 3.465 3.451 3.465c.987 0 1.869-.364 2.471-1.043l-.707-.791c-.462.448-1.085.763-1.792.763-1.281 0-2.254-1.001-2.254-2.394s.973-2.387 2.254-2.387c.707 0 1.274.273 1.764.749l.735-.777c-.595-.686-1.484-1.05-2.471-1.05zm8.742.14h-2.793v-2.086h-1.148v2.086h-1.421v1.043h1.421v3.262c0 1.694.861 2.485 2.303 2.485.819 0 1.484-.287 1.995-.658l-.539-.861c-.378.259-.868.448-1.358.448-.721 0-1.253-.434-1.253-1.435v-3.241h2.793zm11.153 0h-1.211l-2.24 5.495-2.233-5.495h-1.246l2.8 6.657h1.344zm7.531 0h-1.148v.896c-.525-.63-1.302-1.036-2.345-1.036-1.869 0-3.325 1.456-3.325 3.465s1.456 3.465 3.325 3.465c1.043 0 1.82-.406 2.345-1.029v.889h1.148zm-3.36.938c1.344 0 2.282 1.029 2.282 2.387 0 1.365-.938 2.394-2.282 2.394-1.365 0-2.289-1.071-2.289-2.394s.903-2.387 2.289-2.387zm6.823-4.368h-1.141v10.08h1.141zm8.327 3.43h-1.148v3.759c0 1.358-.805 1.96-1.883 1.96-1.085 0-1.89-.602-1.89-1.96v-3.759h-1.148v3.864c0 2.009 1.435 2.926 3.038 2.926 1.589 0 3.031-.917 3.031-2.926zm5.054-.14c-1.911 0-3.304 1.421-3.304 3.465 0 2.072 1.4 3.465 3.374 3.465.98 0 1.904-.238 2.73-1.008l-.609-.784c-.567.49-1.274.791-2.051.791-1.141 0-2.1-.679-2.261-2.058h5.229c.007-.126.021-.28.021-.427-.014-2.037-1.316-3.444-3.129-3.444zm-.021 1.015c1.078 0 1.841.756 1.981 1.932h-4.067c.175-1.134.91-1.932 2.086-1.932zm9.946-.287c-.644-.441-1.603-.721-2.653-.721-1.617 0-2.674.77-2.674 2.044 0 1.008.721 1.68 2.212 1.862l.77.091c.903.112 1.337.42 1.337.91 0 .658-.672 1.015-1.764 1.015-1.113 0-1.778-.322-2.275-.707l-.532.854c.875.658 1.981.854 2.8.854 1.813 0 2.947-.819 2.947-2.086 0-1.099-.833-1.694-2.247-1.883l-.77-.098c-.805-.098-1.288-.343-1.288-.875 0-.602.588-.987 1.498-.987.875 0 1.722.329 2.142.616z" fill="#141721"/><path d="m743 217c0-1.105.895-2 2-2h10c1.105 0 2 .895 2 2v10c0 1.105-.895 2-2 2h-10c-1.105 0-2-.895-2-2z" fill="#1738fa"/><path d="m745 216h10v-2h-10zm11 1v10h2v-10zm-1 11h-10v2h10zm-11-1v-10h-2v10zm1 1c-.552 0-1-.448-1-1h-2c0 1.657 1.343 3 3 3zm11-1c0 .552-.448 1-1 1v2c1.657 0 3-1.343 3-3zm-1-11c.552 0 1 .448 1 1h2c0-1.657-1.343-3-3-3zm-10-2c-1.657 0-3 1.343-3 3h2c0-.552.448-1 1-1z" fill="#1738fa"/><path d="m748.25 224.45-2.45-2.45-.817.817 3.267 3.266 7-7-.817-.816z" fill="#fff"/><path d="m773.421 218.131c-.924-.637-2.051-1.071-3.528-1.071-2.065 0-3.745 1.057-3.745 2.947 0 1.673 1.288 2.422 2.905 2.618l.91.112c1.526.189 2.345.623 2.345 1.533 0 1.106-1.148 1.701-2.611 1.701-1.246 0-2.513-.497-3.192-1.085l-.672.98c.945.791 2.471 1.274 3.864 1.274 2.121 0 3.892-1.022 3.892-2.975 0-1.729-1.421-2.401-3.08-2.604l-.861-.105c-1.47-.182-2.219-.637-2.219-1.526 0-1.057 1.022-1.701 2.457-1.701 1.134 0 2.107.364 2.905.903zm3.265-1.211h-1.141v10.08h1.141v-3.731c0-1.239.896-1.974 1.967-1.974 1.155 0 1.827.721 1.827 1.946v3.759h1.148v-4.13c0-1.596-1.134-2.66-2.772-2.66-.77 0-1.624.252-2.17 1.001zm10.204 3.29c-2.016 0-3.514 1.491-3.514 3.465s1.498 3.465 3.514 3.465 3.521-1.491 3.521-3.465-1.505-3.465-3.521-3.465zm0 1.078c1.33 0 2.345.994 2.345 2.387s-1.015 2.394-2.345 2.394c-1.337 0-2.345-1.001-2.345-2.394s1.008-2.387 2.345-2.387zm10.681-.938h-1.295l-1.897 5.439-1.883-5.439h-1.225l2.394 6.65h1.344l1.897-5.411 1.904 5.411h1.365l2.394-6.65h-1.197l-1.89 5.453zm12.959-.14c-2.016 0-3.514 1.491-3.514 3.465s1.498 3.465 3.514 3.465 3.521-1.491 3.521-3.465-1.505-3.465-3.521-3.465zm0 1.078c1.33 0 2.345.994 2.345 2.387s-1.015 2.394-2.345 2.394c-1.337 0-2.345-1.001-2.345-2.394s1.008-2.387 2.345-2.387zm8.825-1.078c-1.05 0-1.827.406-2.345 1.029v-.889h-1.141v9.45h1.141v-3.689c.518.623 1.295 1.029 2.345 1.029 1.862 0 3.325-1.456 3.325-3.465s-1.463-3.465-3.325-3.465zm-.133 1.078c1.358 0 2.282 1.064 2.282 2.387s-.903 2.394-2.282 2.394c-1.344 0-2.282-1.029-2.282-2.394 0-1.358.938-2.387 2.282-2.387zm8.069-1.078c-1.911 0-3.304 1.421-3.304 3.465 0 2.072 1.4 3.465 3.374 3.465.98 0 1.904-.238 2.73-1.008l-.609-.784c-.567.49-1.274.791-2.051.791-1.141 0-2.1-.679-2.261-2.058h5.229c.007-.126.021-.28.021-.427-.014-2.037-1.316-3.444-3.129-3.444zm-.021 1.015c1.078 0 1.841.756 1.981 1.932h-4.067c.175-1.134.91-1.932 2.086-1.932zm8.28-1.015c-.77 0-1.631.259-2.177 1.008v-.868h-1.134v6.65h1.141v-3.731c0-1.239.896-1.974 1.967-1.974 1.155 0 1.827.721 1.827 1.946v3.759h1.148v-4.13c0-1.596-1.134-2.66-2.772-2.66zm9.812-3.29h-1.141v10.08h1.141v-3.731c0-1.239.896-1.974 1.967-1.974 1.155 0 1.827.721 1.827 1.946v3.759h1.148v-4.13c0-1.596-1.134-2.66-2.772-2.66-.77 0-1.624.252-2.17 1.001zm10.204 3.29c-2.016 0-3.514 1.491-3.514 3.465s1.498 3.465 3.514 3.465 3.521-1.491 3.521-3.465-1.505-3.465-3.521-3.465zm0 1.078c1.33 0 2.345.994 2.345 2.387s-1.015 2.394-2.345 2.394c-1.337 0-2.345-1.001-2.345-2.394s1.008-2.387 2.345-2.387zm11.339-.938h-1.148v3.759c0 1.358-.805 1.96-1.883 1.96-1.085 0-1.89-.602-1.89-1.96v-3.759h-1.148v3.864c0 2.009 1.435 2.926 3.038 2.926 1.589 0 3.031-.917 3.031-2.926zm5.327-.14c-.791 0-1.484.364-1.946 1.015v-.875h-1.127v6.65h1.141v-3.703c0-1.225.714-2.002 1.729-2.002.378 0 .826.091 1.141.259l.28-1.127c-.357-.154-.742-.217-1.218-.217zm7.546.728c-.644-.441-1.603-.721-2.653-.721-1.617 0-2.674.77-2.674 2.044 0 1.008.721 1.68 2.212 1.862l.77.091c.903.112 1.337.42 1.337.91 0 .658-.672 1.015-1.764 1.015-1.113 0-1.778-.322-2.275-.707l-.532.854c.875.658 1.981.854 2.8.854 1.813 0 2.947-.819 2.947-2.086 0-1.099-.833-1.694-2.247-1.883l-.77-.098c-.805-.098-1.288-.343-1.288-.875 0-.602.588-.987 1.498-.987.875 0 1.722.329 2.142.616z" fill="#141721"/></g></svg>