<svg fill="none" height="449" viewBox="0 0 600 449" width="600" xmlns="http://www.w3.org/2000/svg" xmlns:xlink="http://www.w3.org/1999/xlink"><clipPath id="a"><path d="m0 0h600v448.842h-600z"/></clipPath><g clip-path="url(#a)"><path d="m334.918.592773c-.204.22229-.611 1.167027-.908 2.093227-1.185 3.70484-2.037 9.0769-2.871 18.1538-.278 2.8527-.537 5.5387-.593 5.9648-.111.9076-.018.8891-2.482.5557l-1.574-.2223-.13-1.2041c-.074-.6668-.259-2.4637-.426-3.9827-.519-4.7792-1.352-8.021-2.001-7.7617-.315.1112-1.352 5.687-1.778 9.5215l-.315 2.8713-.648-.0371c-.352-.0185-1.667-.1296-2.946-.2408-19.358-1.6301-38.623-1.3708-57.795.741-7.114.7965-19.006 2.6304-25.119 3.8901-1 .2037-1.871.3149-1.927.2408-.055-.0927-.648-2.1488-1.296-4.594-1.334-5.1127-2.408-8.373-3.742-11.3925-1.649-3.7604-3.39-6.27964-4.113-6.00178-.833.31491-1.204 3.18618-1.018 8.13218.148 3.7233.463 6.0388 1.574 11.3738.463 2.1674.797 4.0383.778 4.131-.037.0926-2.482.778-5.427 1.5189-26.453 6.6873-49.386 16.4866-69.818 29.8981-5.335 3.4826-12.134 8.373-15.802 11.3739-.722.5928-1.407 1.0744-1.5 1.0744s-.963-.8892-1.908-1.9821c-5.168-5.9092-15.245-16.468-20.321-21.3028-3.501-3.3159-4.483-4.0383-4.483-3.3159 0 .1482.778 1.3153 1.723 2.5934.926 1.2782 4.075 5.5573 6.983 9.503 5.354 7.28 8.707 11.6517 11.745 15.338.926 1.13 1.797 2.1674 1.908 2.3341.204.2593-.13.6113-2.316 2.5193-1.389 1.2411-3.39 3.038-4.446 4.0197-1.055.9818-1.982 1.7784-2.074 1.7784-.074 0-.889-.9448-1.779-2.0748-2.26-2.8712-12.67-15.5418-18.3941-22.3772-12.7817-15.2825-21.0065-24.4891-28.9534-32.3434-4.1124-4.0753-4.8163-4.7236-7.243-6.6316-2.7601-2.1489-2.3711-1.3523 1.5746 3.2602 4.7978 5.5944 7.3356 8.6879 20.7842 25.5079 15.9127 19.8765 21.7107 27.3603 26.8967 34.7515 1.427 2.0376 2.668 3.816 2.742 3.9456.093.1482-.759 1.167-2.519 2.9824-6.891 7.132-14.2454 15.746-20.5066 24.063-1.2596 1.667-2.3525 3.001-2.4266 2.964-.0927-.037-1.6858-1.482-3.5567-3.223-7.1874-6.688-16.1346-14.505-20.0062-17.469-1.0559-.778-1.7227-.907-1.5931-.296.0741.352 10.5403 12.911 14.0414 16.857 1.4449 1.63 3.8345 4.224 5.2979 5.78 1.4635 1.537 2.6675 2.852 2.6675 2.908 0 .055-.7224 1.204-1.6116 2.519-1.0929 1.667-1.6857 2.39-1.8709 2.316-.1482-.056-1.1485-.649-2.2229-1.334-6.4835-4.075-14.4675-7.928-20.9695-10.114-3.2602-1.112-3.8345-1.241-4.0568-.982-.0926.111-.1296.315-.0555.407.0741.112 2.7601 1.964 5.9648 4.131 8.2247 5.521 18.4316 12.597 18.3945 12.764-.0185.074-1.1114 1.871-2.4267 4.019-10.0401 16.302-16.7273 30.491-20.9694 44.458-.5187 1.723-1.0003 3.205-1.0744 3.279-.2038.204-9.2621 1.39-13.8376 1.834-6.2982.593-5.8722.537-5.7981.871.1297.667 5.2609 1.167 12.9299 1.259 5.2424.075 5.6499.112 5.5944.408-.0371.167-.2594 1.148-.5002 2.167-2.3711 10.152-3.3714 20.118-3.1862 31.918.0927 6.39.3149 9.521 1.1485 15.597.2409 1.778.3705 3.297.315 3.371-.2038.204-15.3381 5.558-20.7842 7.336-2.7972.908-6.7058 2.112-8.6509 2.649-2.2043.611-3.5751 1.093-3.5751 1.223 0 .333.5742.296 4.2605-.223 6.502-.944 15.0973-3.056 26.1007-6.409 1.6672-.519 3.1491-.889 3.2788-.834.1482.056.2593.278.2593.5 0 .741 2.0192 10.448 3.5196 16.932 1.7228 7.409 2.8898 11.948 3.816 14.708l.6484 1.926-.6299.908c-1.519 2.149-3.1861 3.909-8.021 8.447-2.8527 2.649-5.6128 5.354-6.1685 6.002-1.3523 1.556-4.8904 6.335-7.0022 9.41-3.2232 4.724-6.5761 8.818-8.9101 10.855-.8522.76-3.0565 2.39-4.8904 3.631-7.1504 4.854-9.0028 6.41-15.4863 12.93-7.22446 7.262-10.3365277 11.393-10.188334 13.541.055573.797.074097.815.666873.778.815071-.037 2.334051-.981 4.297621-2.649.88916-.778 1.98209-1.685 2.42668-2.037 1.38931-1.093 5.87216-4.798 8.59526-7.114 6.7243-5.705 8.7434-7.317 12.4112-9.836 5.3906-3.723 8.1136-6.206 12.3001-11.207 2.8342-3.39 6.4279-7.225 9.5585-10.188 1.0188-.964 2.7046-2.575 3.7604-3.594 1.0374-1.037 1.8895-1.76 1.8895-1.63 0 .129-.2779.796-.6298 1.482-1.2782 2.575-3.0195 7.261-5.9463 15.968-5.0386 15.041-6.4464 18.505-10.1883 25.007-3.4826 6.058-7.1504 11.763-11.3924 17.691-5.2424 7.354-7.6505 11.281-9.3548 15.227-.9447 2.186-1.0003 2.704-.389 3.112.4446.296.5187.296 1.2967-.093 1.7043-.815 4.5014-4.52 8.3545-11.022 1.204-2.037 3.5381-5.872 5.1867-8.521 4.3532-6.965 5.9834-9.799 8.6323-15.004 2.5749-5.058 3.9086-8.151 6.4835-14.968 4.4458-11.855 8.2062-20.599 12.7817-29.768 3.1306-6.243 3.8531-7.558 4.946-8.892 1.871-2.316 3.9457-5.354 6.6687-9.725 1.3338-2.149 3.3714-5.261 4.557-6.947 2.2785-3.279 3.2788-5.242 3.7419-7.502.2593-1.186.4446-1.501 2.1673-3.798 2.1118-2.797 5.0201-6.261 7.4468-8.873.8891-.963 3.0565-3.668 4.7977-6.02 7.0944-9.485 11.6704-14.116 24.3594-24.73 21.914-18.339 27.898-24.767 37.252-40.031 5.113-8.354 7.132-11.022 12.708-16.857 1.315-1.389 3.427-3.723 4.705-5.187 4.557-5.261 7.113-7.576 11.522-10.484 4.372-2.872 5.65-3.298 7.743-2.501.982.37 1.612.704 5.65 3.056 2.779 1.63 3.872 1.982 6.298 2.094 5.039.24 8.966-1.742 14.542-7.336 4.112-4.131 7.095-7.836 13.56-16.802 2.63-3.649 3.945-5.057 5.927-6.39 1.853-1.242 2.798-1.649 3.909-1.649.648 0 .852.111 1.519.796.408.445 1.167 1.594 1.649 2.557.5.963 1.241 2.315 1.648 3.038 2.612 4.52 6.91 6.057 11.096 3.964 2.094-1.056 5.409-4.168 8.373-7.854 3.705-4.631 9.559-13.727 15.487-24.082 7.113-12.4295 9.021-15.5601 10.095-16.579l.463-.426v3.9642c0 4.4272-.185 6.7613-.852 11.3738-.889 5.965-2.908 14.894-3.427 15.079-.426.129-1.093.926-1.093 1.259 0 .186.13.538.297.76.259.389.241.537-.315 2.223-.815 2.482-2.909 7.706-4.131 10.281-3.538 7.539-9.725 15.875-17.802 23.933-4.168 4.187-6.168 5.909-15.282 13.245-18.302 14.727-25.156 20.599-30.491 26.175-6.688 6.983-11.207 14.467-12.689 20.969-.593 2.649-.593 7.484 0 10.281.87 4.131 2.574 8.077 5.668 13.152 4.909 8.04 6.354 10.522 7.502 12.875 5.095 10.466 5.335 16.449.871 21.136-2.723 2.89-5.15 3.945-15.875 6.983-12.689 3.613-20.581 6.595-30.195 11.448-13.467 6.78-30.972 18.395-42.161 27.972-2.612 2.241-7.854 7.391-9.744 9.577-6.52 7.539-11.151 16.338-13.004 24.674-1.185 5.335-1.593 11.522-1.593 24.174 0 10.689-.241 14.134-1.241 17.691-.834 2.982-2.723 5.52-5.001 6.724-2.223 1.149-3.446 1.464-12.5599 3.186-7.6505 1.445-15.9864 3.761-19.3578 5.391-3.2047 1.538-4.2791 2.112-5.0942 2.705-.4075.296-1.0744.778-1.5004 1.055-.7225.519-2.1674 2.168-4.0013 4.632-.8336 1.092-1.0929 1.685-.741 1.685.4261 0 5.2424-1.371 6.1501-1.76.5928-.259 1.908-.759 2.9083-1.13 1.0003-.37 3.3529-1.407 5.2424-2.297 4.5013-2.148 8.8175-3.519 17.1349-5.446 6.928-1.611 9.0769-2.186 10.7439-2.815 4.891-1.89 7.91-5.057 9.596-10.096.815-2.427 1.259-4.89 1.722-9.392.112-1.111.13-1.148.649-1.148 1.148 0 1.704-1.39.852-2.186-.241-.223-.63-.408-.871-.408h-.426l.13-6.613c.148-7.799.389-12.763.759-16.06.297-2.446 1.001-6.299 1.482-8.021l.278-.945.537.259c1.167.593 2.371-.556 1.871-1.778-.259-.611-.685-.926-1.278-.926-.37 0-.37-.019.093-1.353.278-.722 1.019-2.445 1.648-3.779 1.13-2.371 1.205-2.463 1.742-2.463.333 0 .741-.167.944-.371.389-.389.501-1.371.186-1.574-.371-.223-.167-.667 1.278-2.816 1.852-2.76 4.001-5.446 6.687-8.373 1.927-2.093 2.13-2.26 2.353-1.945.129.185.24.389.24.445 0 .074.204.222.464.333.833.389 1.759-.241 1.759-1.167 0-.593-.463-1.204-.907-1.204-.13 0-.204-.074-.167-.167.074-.204 2.723-2.63 4.798-4.39 1.574-1.334 1.63-1.371 1.537-.834-.259 1.241 1.13 2.057 2.427 1.445 1.537-.741.482-2.815-1.241-2.445-.278.074-.519.093-.519.037 0-.093 3.964-3.205 6.947-5.428 3.093-2.315 11.022-7.854 11.244-7.854.037 0 .074.223.093.482.092 1.648 2.649 1.611 2.649-.037 0-.5-.593-1.186-1.019-1.186-.556 0-.223-.315 1.704-1.556 14.375-9.336 24.563-14.467 38.178-19.265 3.279-1.167 9.652-3.26 9.892-3.26.037 0 .037.278 0 .611-.055.519.037.704.519 1.111.778.667 2.056.704 2.482.093.63-.889.278-1.741-.907-2.186-.556-.204-.519-.222 1.296-.907 1.834-.704 2.223-.778 1.797-.352-.352.352-.278 1.537.111 1.871.871.796 2.26.055 2.26-1.205 0-.741-.463-1.259-1.13-1.259-.296 0 .13-.315 1.371-1 3.149-1.742 5.316-3.65 6.835-6.021.427-.667.797-1.26.834-1.297.019-.037.222.149.445.408.722.945 2.204.426 2.204-.778 0-.722-.815-1.389-1.519-1.241-.296.055-.519.074-.519.055 0-.018.13-.5.278-1.055.667-2.464.519-6.113-.37-9.374-.315-1.111-.352-1.519-.185-1.371.426.352 1.407.149 1.815-.407.315-.426.333-.574.148-1.056-.445-1.037-1.834-1.074-2.352-.074-.167.37-.26.259-.816-1.111-1.426-3.539-3.371-7.132-6.539-12.152-1.722-2.723-2-3.261-1.759-3.427.463-.334.722-1.001.592-1.519-.166-.63-1.111-1.056-1.889-.834-.537.167-.556.148-1.575-1.63l-1.019-1.778.575-.13c1.111-.241 1.445-1.482.574-2.167-.63-.482-1-.482-1.63 0l-.482.37-.481-1.074c-.834-1.89-1.871-5.28-2.186-7.077-1.223-7.168 1.5-14.449 8.947-23.896l.352-.463-.093.463c-.148.741.556 1.464 1.445 1.464 1.964 0 1.945-2.316-.018-2.575l-.815-.111 3.315-3.39c2.742-2.816 3.372-3.372 3.687-3.279.982.315 1.333.296 1.834-.093.389-.315.5-.556.5-1.093 0-.37-.093-.778-.185-.87-.186-.186.648-1.019 4.168-4.076l1.296-1.148.482.537c.593.648 1.297.704 1.852.148.389-.389.408-.908.13-2.408-.037-.204 1.204-1.352 3.557-3.316 1.982-1.648 3.797-3.186 4.038-3.408l.426-.389-.278.555c-.167.315-.259.76-.204 1.038.093.407-.092.685-1.389 1.945-1.426 1.371-1.556 1.463-2.223 1.408-1.019-.093-1.519.444-1.463 1.537.055.76-.019.908-.871 1.797-.5.537-1.5 1.667-2.186 2.501-1.204 1.445-1.297 1.519-1.667 1.259-.871-.611-2.149-.074-2.149.908 0 .26.222.704.482 1.019l.463.574-.815 1.149c-1.167 1.667-2.816 4.557-3.742 6.613-1.037 2.315-2.427 6.483-2.964 8.817l-.407 1.853-.778-.056c-1.001-.092-1.501.315-1.501 1.204 0 .797.685 1.538 1.426 1.538h.519l.037 1.76c.037 2.186.297 3.964 1 6.928.297 1.259.538 2.352.538 2.445s-.186.167-.426.167c-1.186 0-1.668 1.352-.797 2.334.333.389.611.518 1.241.555.686.019.834.112.963.464.075.24 1.26 3.853 2.612 8.039 2.742 8.355 3.094 9.54 2.964 9.54-.055 0-.259-.093-.444-.185-1.001-.537-2.019.574-1.668 1.834.408 1.556 1.482 2.204 2.446 1.5.296-.222.574-.37.611-.333.13.148 1.612 6.298 1.519 6.372-.056.056-.259.019-.463-.093-.741-.389-1.704.297-1.704 1.186 0 1.297 1.37 2.056 2.204 1.223.463-.464.463-.482.871 2.482.667 4.742.352 10.651-.76 14.356-2.927 9.781-10.059 18.858-20.932 26.675l-2.131 1.519-.5-.482c-1.148-1.148-3.075.149-2.186 1.482.167.26.241.519.204.612-.055.092-2.408 1.778-5.224 3.742-2.815 1.982-6.428 4.556-8.021 5.742l-2.889 2.149-.056-.574c-.093-.778-.537-1.223-1.241-1.223-1.593 0-1.612 2.39-.019 2.482.26 0 .482.037.482.037 0 .019-.648.556-1.426 1.204-.797.649-2.094 1.797-2.872 2.557-1.444 1.371-1.444 1.371-1.444.796 0-1.519-2.038-1.778-2.798-.389-.463.871.649 1.982 1.705 1.704.315-.092.129.223-.797 1.279-4.02 4.612-6.206 8.78-7.15 13.671-.556 2.889-.575 3.037-.76 5.964-.518 8.151 1.464 15.468 5.706 21.081 2.852 3.76 7.65 8.595 16.338 16.394 9.818 8.817 11.633 10.503 14.06 12.985 11.263 11.559 14.43 21.766 11.429 36.864-.648 3.223-1 4.538-1.685 6.205-.463 1.167-.852 2.223-.852 2.371 0 .278.426.167 1.759-.444 2.723-1.241 5.02-4.224 6.262-8.151 1.111-3.557 1.13-7.391.018-13.986-.871-5.131-3.649-11.707-6.909-16.301-3.835-5.409-7.299-8.947-16.506-16.839-10.41-8.91-15.078-13.189-18.264-16.708-3.316-3.668-4.854-5.891-6.188-9.003-1.481-3.446-2.037-6.391-2.037-10.781 0-11.337 3.853-18.247 15.579-27.935 2-1.649 3.334-2.63 11.096-8.114 10.521-7.428 11.596-8.206 13.152-9.428 8.762-6.91 15.579-16.005 18.413-24.582 1.463-4.372 1.889-7.373 1.723-12.115-.241-7.058-1.575-12.578-6.965-28.712-3.112-9.318-4.557-14.468-5.039-17.858-.333-2.352-.111-6.002.482-8.169 1.13-4.186 2.704-8.151 4.316-11.022 4.835-8.558 11.392-15.542 23.97-25.526 4.353-3.446 8.355-7.04 14.319-12.856 6.021-5.872 7.373-7.317 9.985-10.707 2.186-2.816 3.909-5.465 6.78-10.374 4.39-7.521 6.242-11.522 7.113-15.467.667-3.001.834-5.169.982-12.134.13-6.743-.019-8.6506-.815-11.3922-.408-1.3893-.445-1.7783-.352-3.427.074-1.0188.037-3.5566-.074-5.6499l-.204-3.7974.519-.4261c1.63-1.3152 4.483-.7965 8.576 1.5931 4.076 2.3711 7.41 5.0571 12.578 10.1328 4.576 4.4828 7.725 7.8357 11.448 12.1517 3.427 3.983 4.446 5.039 10.43 10.837 14.689 14.226 23.544 21.84 31.676 27.212 6.984 4.631 11.911 7.169 17.172 8.873 4.946 1.593 8.854 1.76 12.485.556 2.668-.871 3.742-1.704 6.224-4.817l.575-.722 1.018.519c1.742.889 4.872 3.556 8.948 7.632 5.353 5.335 10.429 11.299 16.023 18.802 4.316 5.798 7.113 10.003 16.894 25.471 9.04 14.3 12.986 20.117 21.711 32.047 13.856 18.95 23.081 31.157 33.88 44.828 10.356 13.097 14.412 17.783 30.38 35.011 4.779 5.168 19.784 20.71 21.192 21.97.37.333 2.39 2.278 4.483 4.316 5.724 5.631 12.985 12.152 16.19 14.523 6.298 4.724 14.727 8.873 19.691 9.688 1.056.167 1.371.167 1.964-.074.796-.334 1.167-.982.982-1.741-.204-.815-2.316-2.723-6.132-5.521-4.724-3.445-6.984-5.26-12.133-9.725-12.504-10.836-24.267-22.396-39.92-39.271-13.06-14.06-18.45-20.173-25.063-28.361l-2.612-3.242.945-2.408c.518-1.315 1.315-3.316 1.759-4.427 1.297-3.149 2.557-6.947 3.316-10.003.371-1.538.741-2.834.797-2.89.278-.296 10.114 1.149 17.801 2.612 9.652 1.834 13.579 2.427 18.358 2.797 3.26.241 3.909.13 4.02-.778.166-1.408-5.224-4.242-12.578-6.613-3.057-.982-11.911-3.26-20.729-5.316-2.908-.686-5.316-1.279-5.353-1.316s.055-1.13.222-2.426c.352-2.76.648-6.113.834-9.17l.129-2.167 5.928-.093c5.835-.092 8.577-.333 9.577-.87.574-.315.204-.463-1.704-.686-.963-.111-3.094-.407-4.724-.667-1.63-.259-4.279-.629-5.872-.815-1.612-.185-2.964-.389-3.038-.444-.056-.056-.167-2.131-.259-4.594-.186-4.817-.519-8.633-1.112-13.06-.519-3.853-.593-3.501.982-4.094 10.299-3.871 14.69-6.057 16.783-8.317.889-.982.926-1.426.148-2.019-.426-.315-.852-.408-2.297-.463-3.408-.111-6.632.518-13.745 2.741-1.982.612-3.649 1.093-3.686 1.056-.037-.055-.278-1.056-.519-2.241-2.76-13.004-7.762-27.861-13.597-40.291-.833-1.778-1.537-3.371-1.556-3.519-.018-.297 4.557-4.557 9.17-8.54 2.89-2.482 9.058-7.428 21.766-17.487 7.928-6.261 20.284-16.153 21.062-16.838 1.296-1.186-.037-1.093-2.575.167-5.872 2.926-19.024 11.244-28.787 18.227-4.168 3.001-19.487 14.375-22.266 16.543-.87.685-1.63 1.259-1.686 1.259-.055 0-.796-1.278-1.63-2.834-1.574-2.908-4.112-7.317-5.372-9.355l-.741-1.167 4.316-4.575c7.132-7.577 11.745-12.764 17.061-19.154 4.742-5.724 12.171-15.0791 12.171-15.357 0-.9262-1.223.2409-20.988 19.877l-15.153 15.06-2.075-3.149c-18.487-27.9905-45.236-54.0356-72.374-70.4295-3.075-1.8524-7.576-4.4088-9.41-5.3165-.852-.426-.964-.5557-.852-.9076.074-.2224 1.889-4.909 4.056-10.4107 4.687-11.8925 6.132-15.7826 8.095-21.5807 2.26-6.7058 2.742-8.85459 1.723-7.8358-.648.6484-1.556 2.2415-3.834 6.817-2.946 5.8906-4.798 9.966-9.8 21.6548-2.241 5.2053-4.112 9.5029-4.186 9.577-.093.0556-1.815-.6669-3.853-1.6116s-3.761-1.7598-3.835-1.7783c-.074-.0371.445-1.6487 1.167-3.5752 2.112-5.7425 3.557-10.3921 6.28-20.0988.537-1.8895 1.204-4.0383 1.519-4.7792.685-1.6487.519-2.0192-.482-1.1485-.963.8521-1.741 2.0006-3.223 4.7236-2.556 4.7237-6.279 13.1152-8.836 19.9136-.593 1.5746-1.093 2.8898-1.111 2.9268-.037.0371-.908-.2964-1.964-.7224-13.763-5.4832-29.861-10.0217-45.903-12.93-2.297-.426-4.353-.7594-4.594-.7594s-.482-.1297-.556-.315c-.055-.1667-.018-4.3902.112-9.3917.185-6.854.185-9.89198.018-12.3372-.222-3.44549-.482-5.63135-.759-6.168547-.241-.4445805-1.001-.389008-1.464.09262zm-55.091 46.125327c.204.2408.685 1.1115 1.074 1.945l.723 1.5005.945-.0926c.611-.0556 1.241.0185 1.778.2038l.815.2778 1.426-1.3708c1.482-1.4449 2.038-1.6857 2.39-1.0003.185.3335.037.5372-1.185 1.8154l-1.408 1.4449.296.5928c.204.4075.278.8891.222 1.4078l-.092.7966 1.315.3334c.722.1667 1.686.3334 2.149.3334.944.0185 1.204.4261.63 1.0559-.408.4446-1.056.4446-3.038-.0185-1.501-.3705-1.575-.3705-1.816-.0556-.556.7965-1.204 1.3337-1.797 1.5375l-.648.2223v1.2597c0 1.7227-.222 2.2599-.889 2.1858l-.5-.0555-.056-1.7969c-.055-1.7228-.055-1.7783-.519-1.8895-.629-.1667-1.87-1.4449-2-2.1117-.13-.5187-.148-.5372-.908-.389-1.278.2408-2.649.2037-2.908-.1112-.371-.4446-.056-1.0188.556-1.0188.296 0 1.148-.0926 1.889-.2038l1.352-.2038.5-1.0558c.445-.9077.464-1.0559.241-1.3338-.148-.1482-.278-.389-.278-.5187 0-.1111-.333-.8706-.741-1.6857-.722-1.4263-.87-2.0191-.611-2.2785.241-.2593.741-.1111 1.093.2779zm-45.588 6.2983c0 .5927.111.778.704 1.204.556.389.685.6113.648.9633-.074.6669-.704.7039-1.556.1297l-.704-.4631-.426.6298c-.481.7039-1.056.9632-1.445.6483-.389-.3334-.333-.7039.186-1.3337.37-.4261.426-.6113.277-.8151-.352-.4075-.148-1.0929.371-1.1485.241-.037.63-.1852.833-.3334.204-.1482.538-.2408.741-.2223.297.037.371.2038.371.741zm45.662 3.3899c.315.389.111 1.3152-.463 2.0747-.63.8151-1.093 1.0559-1.575.7966-.537-.2779-.463-.6855.278-1.5005.352-.4076.649-.8336.649-.9633 0-.2964.37-.6854.667-.6854.111 0 .315.1297.444.2779zm72.078 5.4461c1.371.5187 2.686 1.6857 2.964 2.5749.352 1.1855-.056 4.594-.686 5.7981-.352.7039-1.63 1.7598-2.852 2.3525-.927.4631-1.204.5002-3.149.4817-1.76 0-2.316-.0741-3.168-.4076-2.427-.9632-3.427-2.2414-3.26-4.1864.222-2.7972 2.426-5.724 5.094-6.7984 1.185-.4817 3.612-.389 5.057.1852zm41.272 6.7799c.037.2593-.241.6483-1 1.3337l-1.075.9448.389.6854c.482.7965.5 1.0744.13 1.3893-.426.3519-1.074-.0186-1.445-.7966l-.315-.6483-1.389.741c-1.612.8335-2.038.8521-2.038.0555 0-.4816.148-.6298 1.389-1.3152.871-.4816 1.353-.8706 1.316-1.0188-.241-.8151-.223-1.4079.055-1.519.426-.1667.834.037 1.093.5557l.241.4446.815-.6669c.889-.7409 1.704-.8336 1.834-.1852zm-227.089.4631c.204.1111.834.8521 1.408 1.6672.593.815 1.112 1.4819 1.167 1.4819.056 0 .371-.4446.667-.9633.834-1.4263 1.538-2.1858 2.056-2.1858.537 0 .778.4816.482.9077-.111.1667-.685 1.0373-1.241 1.9265-1.186 1.8524-1.204 1.556.333 3.2047.852.9077.889 1.6116.111 1.7042-.389.0371-.666-.1482-1.407-.9633l-.927-1.0188-.981 1.2041c-.723.8892-1.075 1.1856-1.371 1.1485-.704-.0926-.612-1.0744.185-2.0192 1.352-1.6116 1.352-1.4078.074-3.2046-.63-.8707-1.223-1.6487-1.315-1.7043-.093-.0555-.167-.3334-.167-.6298 0-.4446.13-.6298.519-.7224.037-.0185.222.0741.407.1667zm186.558 16.5792c2.871.5001 7.613 2.3896 10.096 4.0012 2.223 1.4634 5.538 5.0571 7.613 8.2433.889 1.3708 3.89 8.8549 4.65 11.5779 1.889 6.724 1.5 12.448-1.186 17.802-2.204 4.39-4.464 6.15-6.928 5.409-.871-.26-1.519-.871-9.781-9.077-4.853-4.854-9.54-9.374-10.41-10.04-3.576-2.779-6.243-5.224-10.318-9.411-2.353-2.445-4.465-4.6493-4.687-4.9272-.222-.2963-.889-.8891-1.482-1.3522-2.019-1.5561-1.908-2.8157.482-5.1868.741-.741 1.852-1.7042 2.482-2.1303 2.075-1.4078 5.353-2.7231 8.521-3.427 1.074-.2408 2.538-.6483 3.279-.9077 2.408-.8706 4.946-1.0558 7.669-.5742zm-88.935.4631c.259.4816.074 1.0559-.37 1.2041-.186.0555-.463.3149-.63.5557l-.297.4446 1.519.778c1.816.8891 2.223 1.2226 2.149 1.7227-.092.6484-.759.5558-2.575-.3704-.944-.4632-1.759-.7781-1.778-.6854-.037.0926-.296.6298-.593 1.1855-.389.778-.611 1.0003-.945 1.0003-.778 0-.889-.5187-.314-1.6672.277-.5557.5-1.0929.5-1.1855s-.278-.2594-.63-.389c-.76-.2408-1.278-.778-1.186-1.2411.093-.4817.908-.5187 1.779-.0741l.741.3704.315-.5001c.926-1.4449 1.908-1.9265 2.315-1.1485zm30.75 19.5433c-.111.907-.296 2.667-.407 3.89-.111 1.222-.241 2.26-.26 2.297-.037.018-.24-.074-.481-.241-.556-.389-.926-.37-1.519.093s-.63 1.222-.111 1.797c.426.444 1.259.537 1.648.166.204-.185.223-.037.13.871-.074.593-.259 1.63-.426 2.297l-.296 1.185-.223-.537c-.389-.945-1.5-1.093-2.111-.315-.464.593-.482.964-.112 1.501.408.593 1.167.704 1.779.259l.5-.37-.148.5c-.223.759-.908 2.501-1.093 2.797-.13.204-.186.167-.297-.148-.148-.463-.852-.686-1.352-.408-.926.5-.519 1.871.537 1.871.482 0 .519.037.371.334-.148.296-.352.333-1.186.259-.926-.074-1.037-.037-1.408.445-.592.759-.222 1.833.76 2.148.13.056-.222.871-.963 2.205-1.371 2.5-1.242 2.334-1.519 2.056-.556-.556-1.871-.093-2.02.704-.074.37.167 1.297.352 1.297.075 0 .241.074.371.166.185.111-.111.723-1.26 2.575-1.426 2.279-1.537 2.427-2 2.334-.352-.074-.667.019-1.019.297-.537.426-.63.981-.297 1.741.204.426.13.593-.833 1.871-1.038 1.371-1.278 1.574-1.501 1.204-.055-.111-.389-.185-.741-.185-1.204 0-1.759 1.482-.926 2.408.26.278.26.333 0 .555-.241.186-.278.167-.278-.166 0-.537-.648-1.13-1.241-1.13h-.5l.482-.519c1.037-1.111 3.556-4.557 5.483-7.521 3.038-4.612 5.742-10.132 8.28-16.82.871-2.315 1.038-2.63 1.538-2.834.796-.352 1.056-1.334.5-1.945-.241-.259-.204-.463.185-1.686 1.278-4.057 2.575-9.503 3.464-14.6153l.241-1.3893.056 3.5196c.018 1.927-.038 4.261-.149 5.187zm142.841-5.317c.926.593 1.963 1.705 2.223 2.39.5 1.334 0 2.816-1.408 4.112-1.075.982-1.853 1.316-3.112 1.316-1.353 0-2.186-.612-2.909-2.131-.778-1.611-.129-3.871 1.575-5.446.759-.6853.908-.7594 1.815-.7594.76 0 1.167.1112 1.816.5184zm-275.641.389c1.797.852 3.501 2.89 3.501 4.187 0 .704-.463 1.389-.926 1.389-.296 0-.333.111-.241.982.297 2.927-1.667 6.243-4.575 7.687-1.001.519-1.371.593-2.575.593-1.686 0-2.927-.5-4.039-1.611-3.778-3.779-1.278-11.689 4.261-13.505 1.149-.389 3.52-.24 4.594.278zm44.718 4.391c.148.166.463.629.648 1.018l.37.704 1.427-.907c1.556-1.038 2.186-1.26 2.63-.982.519.333.445.778-.185 1.13-.463.241-2.797 1.76-3.094 2-.092.075 1.26 2.464 1.464 2.594.296.185.167.796-.222 1-.556.315-1.093-.13-1.816-1.463-.333-.63-.648-1.13-.722-1.13s-.5.259-.964.574c-1.945 1.315-2.815 1.5-3.075.667-.129-.445-.129-.445 1.927-1.723.722-.463 1.334-.945 1.334-1.056 0-.129-.204-.593-.463-1.037-.463-.797-.575-1.334-.334-1.556.222-.222.76-.13 1.075.167zm188.91 18.616c1.241.649 1.685 1.482 1.5 2.872-.129 1.148-.945 2.241-2.019 2.741-.834.408-1.723.167-2.408-.648-.537-.667-.593-1.352-.167-2.76.537-1.816 1.927-2.797 3.094-2.205zm63.649 9.207c.13.259-.037 1-.648 2.908-.445 1.408-.778 2.612-.723 2.649.037.056.686.223 1.427.408 1.5.352 2 .796 1.574 1.371-.241.333-.315.333-1.778.018-.889-.204-1.575-.259-1.667-.167-.223.26-1.13 3.631-1.13 4.242 0 1.038-1.223 1.649-1.668.834-.148-.296-.037-.926.575-2.982.407-1.427.722-2.631.685-2.649-.241-.204-3.408-.834-3.705-.76-.555.185-1.296-.389-1.222-.963.111-.908.5-.945 3.056-.278 1.278.333 2.353.574 2.371.556.019-.037.371-1.149.797-2.501.444-1.352.926-2.575 1.074-2.742.389-.37.76-.352.982.056zm-185.15 13.226c.111.223.482.5.815.593l.612.167-1.056 1.074c-1.019 1.038-1.056 1.038-1.39.704-.741-.741-2.204-.185-2.204.834 0 .24.167.648.371.889l.352.463-.427.407-.444.408-.111-.463c-.056-.259-.315-.574-.556-.704-.445-.241-.426-.259 1.612-2.612 1.13-1.297 2.074-2.315 2.13-2.26.055.037.185.278.296.5zm-140.321 2.612c1.038.537 1.389 1.816.556 2.075-.185.074-.389.333-.445.611-.407 1.927-.926 2.631-1.982 2.631-.741 0-2.278-1.316-2.575-2.186-.426-1.278.63-3.075 1.927-3.242 1.241-.148 2.093-.111 2.519.111zm134.986 4.39c.426 0 .297.241-.537 1.075-.796.778-.815.778-1.426.519-.445-.186-.778-.204-1.112-.075-.333.112-.092-.203.815-1.13l1.279-1.296.351.463c.204.241.482.444.63.444zm-3.927 2.501c-.074.278 0 .63.167.908.278.407.241.463-.963 1.667l-1.26 1.26-.482-.482c-.259-.259-.574-.482-.685-.482-.148 0 3.112-3.297 3.297-3.334.019 0 0 .204-.074.463zm-158.197 4.094c.408.148.371.685-.074 1.556-.204.408-.574 1.297-.834 1.982l-.444 1.26.407.315c.223.166 1.316.833 2.427 1.463 1.093.648 2.056 1.278 2.112 1.427.111.333-.185.852-.537.926-.149.018-1.278-.5-2.52-1.167-1.241-.667-2.334-1.204-2.408-1.204-.185 0-1.537 3.223-1.537 3.686 0 .445-.834 1-1.297.852-.648-.204-.574-.722.371-2.834 1-2.223 1.074-2.575.648-2.742-.148-.055-.315-.241-.371-.426-.055-.167-.889-.796-1.852-1.389-1.908-1.167-2.26-1.556-1.9451-2.149.3334-.63 1.4078-.5 2.1121.259.518.556 2.852 2.149 3.149 2.149.055 0 .111-.092.111-.204 0-.444 1.223-3.056 1.593-3.445.482-.463.482-.482.889-.315zm153.511 1.463c.333.371.314.389-1.205 1.705l-1.537 1.333-.926-.111c-.815-.092-.982-.055-1.334.334-.333.352-.389.593-.315 1.093.093.629.056.685-1.593 1.945-.926.704-1.778 1.259-1.889 1.222-.797-.315-1.371-.222-1.76.26-.204.277-.389.778-.389 1.093 0 .518-.186.741-1.334 1.648-1.093.852-1.445 1.038-1.834.963-.259-.055-.704-.018-.963.075-.278.111-.5.166-.5.129s2.723-2.371 6.076-5.168c3.334-2.797 6.724-5.668 7.539-6.372 1.297-1.149 1.482-1.26 1.537-.908.038.222.223.556.427.759zm213.751 28.157c.778.408 1.834 1.501 1.963 2.038.167.667-.037 1.297-.648 1.982-.352.408-.556.908-.648 1.519-.149 1.149-.89 2.427-1.594 2.797-.685.352-1.722.352-2.389.019-.741-.389-1.797-1.63-2.056-2.427-.686-2.075.926-5.65 2.815-6.243.593-.185 1.908-.018 2.557.315zm-378.0615 23.026c1.5561 1 2.2044 2.149 2.2044 3.927 0 1.89-.7409 3.112-2.1673 3.594-1.7783.611-4.4458.204-5.4832-.834-.5187-.537-.5372-.611-.4631-1.815.1482-2.019 1.3338-4.131 2.8342-5.057.8521-.519 2.0747-.445 3.075.185zm395.4365 1.056c.686.463 1.334.833 1.445.833s.445-.333.723-.741c.426-.611.63-.741 1-.703.741.092.741.87.019 1.685l-.556.649.926.574c.982.593 1.167 1.074.63 1.519-.259.222-.463.167-1.389-.352l-1.093-.593-.686.76c-.556.611-.778.722-1.241.685-.889-.093-.889-.76.019-1.556l.704-.63-.464-.352c-.259-.204-.944-.63-1.519-.945-1.074-.574-1.315-.981-.852-1.444.408-.408 1.075-.223 2.334.611z" fill="#374151"/><path d="m282.087 51.8123c-.5.5742-1.074 1.8709-1.074 2.4267 0 1.1114 1.37 2.0562 2.593 1.7968.63-.1297 1.297-.9632 1.297-1.5931 0-.2223.166-.6113.389-.8336.352-.389.37-.4445.092-.9632-.5-.9818-2.686-1.519-3.297-.8336z" fill="#facc15"/><path d="m348.441 62.7972c-1.797.3334-3.409 1.6672-4.372 3.6122-.37.741-.722 1.7413-.759 2.2229-.093.7966-.074.8892.648 1.556 1.037 1.0004 2.315 1.4079 4.39 1.4079 1.371 0 1.797-.0741 2.445-.4261 1.89-1.0003 2.797-2.3711 2.186-3.2973-.463-.7224-2.167-1.4263-3.39-1.4263-.889 0-1.093.0741-1.463.5186-.241.2779-.408.5928-.371.704.037.1296.482.3334.982.4816 1.075.2964 1.371.5001 1.371.9632 0 .6484-.667.7966-1.945.4446-1.463-.389-1.945-.815-1.945-1.7227 0-2.7601 3.149-3.7604 6.539-2.1118l1.056.5372v-.4816c0-.6669-.63-1.6116-1.334-2.0562-1.185-.7225-2.964-1.13-4.038-.9262z" fill="#facc15"/><path d="m157.326 102.032c-2.741 1.093-4.723 4.093-4.723 7.187 0 2.186.815 3.631 2.537 4.446 1.797.852 3.446.481 5.28-1.149 1.352-1.222 2.112-2.871 2.13-4.612 0-1.538-.185-1.853-1.204-2.131-1.426-.389-3.168.519-4.075 2.094-.649 1.13-.704 1.834-.185 2.352.574.575 1.055.463 1.63-.389.981-1.463 1.426-1.889 1.834-1.76.648.204.611.76-.112 1.983-.796 1.352-1.667 2.019-2.667 2.019-2.149 0-3.223-2.353-2.056-4.557.926-1.76 2.482-2.983 4.205-3.298.907-.166 2.575.167 3.186.667.963.76.834-.278-.185-1.463-.927-1.093-2.297-1.723-3.687-1.704-.629 0-1.482.148-1.908.315z" fill="#facc15"/><path d="m394.01 125.631c-.426.686-.648 1.668-.481 2.094.278.759 1.63-.204 1.871-1.353.092-.463.037-.703-.204-.981-.463-.501-.76-.445-1.186.24z" fill="#facc15"/><path d="m471.108 190.726c-.37.259-1.148 1.519-1.148 1.852 0 .074.444.056.982-.018 1.13-.167 2.13-.204 2.611-.093.464.13.834-.445.556-.889-.278-.445-1.556-1.149-2.112-1.149-.259 0-.666.13-.889.297z" fill="#facc15"/><path d="m471.386 194.097c-.852.241-1.148.259-1.426.074-.537-.333-.5.185.074 1.149.482.833 1.148 1.296 1.704 1.185.704-.13 1.519-2.519.908-2.667-.093-.019-.667.092-1.26.259z" fill="#facc15"/><path d="m93.0102 213.696c-.778.648-1.5005 1.945-1.7969 3.167l-.2223 1.001.5743.352c1.1485.703 3.0935.703 4.0198.037.9447-.704.9077-3.038-.0556-4.094-.389-.408-1.3893-.945-1.7783-.945-.0927 0-.4261.222-.741.482z" fill="#facc15"/><path d="m308.984 98.6971c0 .4446 1.538 2.3339 4.613 5.6689 3.075 3.334 28.564 28.749 33.177 33.065 6.706 6.317 13.189 11.485 21.21 16.987 5.52 3.779 7.613 4.983 8.466 4.853 1.315-.185-.037-1.722-4.094-4.686-7.521-5.483-13.041-9.744-17.061-13.134-4.353-3.668-14.43-13.023-25.452-23.618-3.576-3.427-7.743-7.429-9.281-8.911-5.502-5.279-11.189-10.5583-11.374-10.5583-.111 0-.204.1482-.204.3334z" fill="#60a5fa"/><path d="m311.152 109.237c-.278.26-.093.686.703 1.723.871 1.13 8.429 9.133 8.874 9.392.129.093 4.779 4.594 10.318 10.04 13.096 12.874 15.708 15.227 24.007 21.581 5.761 4.409 8.836 6.335 10.466 6.557.538.056.723.019.815-.222.223-.593-.259-1.167-2.371-2.816-11.689-9.114-23.044-18.95-37.752-32.676-6.762-6.336-14.783-13.708-14.875-13.708-.037 0-.13.055-.185.129z" fill="#60a5fa"/><path d="m316.95 122.945c0 .408 3.149 4.168 7.02 8.392 3.075 3.334 16.95 17.802 19.136 19.932 5.224 5.094 9.466 8.169 11.114 8.002.723-.074.908-.555.389-1.111-.185-.204-1.667-1.556-3.297-2.982-6.131-5.391-9.169-8.262-18.987-18.006-11.707-11.596-15.375-14.986-15.375-14.227z" fill="#60a5fa"/><path d="m316.672 132.115c-.408 1.037 2.871 5.113 9.818 12.17 8.762 8.91 15.264 14.597 18.561 16.246.778.389 1.019.426 1.334.259.63-.333.463-.963-.63-2.26-2.797-3.408-13.893-13.726-23.433-21.803-2.093-1.778-4.187-3.593-4.668-4.056-.667-.649-.908-.778-.982-.556z" fill="#60a5fa"/><path d="m243.483 133.467c-.278.426-.278.593-.075 1.26.297.982 3.242 6.428 4.539 8.373 1.037 1.556 2.223 2.834 2.427 2.63.352-.333-4.483-11.3-5.391-12.226-.611-.63-1.111-.63-1.5-.037z" fill="#a3e635"/><path d="m312.133 134.801c0 .259 2.464 4.779 4.576 8.391 1.223 2.094 3.242 5.595 4.501 7.781 4.02 7.039 6.224 10.355 10.281 15.56 4.854 6.206 6.15 8.188 7.095 10.781.871 2.445 1.037 3.853.852 7.465-.37 7.077-.111 8.429 2.334 12.263.148.223.222.445.185.463-.092.075-4.316 1.056-7.131 1.668-.908.185-1.705.389-1.742.444-.648.649 5.743.76 8.558.13l1.631-.352.648.908c.352.5.63.926.593.963-.037.018-.852.222-1.816.463-2.926.704-8.206 2.204-8.391 2.39-.296.296.519.555 2.39.778 2 .222 5.372.018 8.224-.482.871-.148 1.76-.278 1.964-.278.37 0 3.149 2.353 2.982 2.519-.037.056-1.445.334-3.112.63-1.667.297-4.001.704-5.168.926-1.167.223-2.316.445-2.538.482-.241.056-.426.167-.426.259 0 .667 6.224.945 11.096.482l3.038-.296.704.648c.574.519.648.648.389.722-1.371.408-7.725 1.834-8.632 1.927-.778.093-1.13.204-1.13.389 0 .926 5.483 1.241 10.095.574l2.816-.407.908.889.907.889-3.945.704c-2.149.389-4.742.852-5.743 1.037-1 .167-1.815.389-1.815.5-.037.741 5.724 1.038 10.762.556l3.242-.296.63.667c.333.37.537.741.463.815-.185.148-7.928 2.352-8.91 2.538-.815.166-.778.574.093.759 1.759.371 8.298-.018 10.281-.611.277-.093.314.055.314 1.185 0 2.464.389 5.15 1.668 11.448 1.759 8.688 1.908 9.874 1.815 13.597-.074 2.334-.167 3.242-.426 3.835-.537 1.333.018 1.834.908.796.759-.908 1.074-2.241 1.167-5.038.111-3.001-.074-4.817-1.056-9.874-1.612-8.188-1.779-10.244-1.112-13.652.63-3.223.408-4.854-1-7.854-1.315-2.761-2.408-4.317-9.633-13.69-3.964-5.15-5.427-6.743-7.835-8.558-1.149-.852-2.39-1.908-2.76-2.334-.945-1.112-1.983-3.39-2.779-6.15-1.723-6.058-2.705-7.854-9.985-18.339-1.333-1.945-3.167-4.687-4.056-6.113-.89-1.427-2.798-4.465-4.224-6.762-9.67-15.467-11.263-17.968-12.059-18.857-.371-.389-.686-.537-.686-.278z" fill="#60a5fa"/><path d="m242.223 137.487c-.167.222-.296.593-.296.815 0 1.093 1.667 4.65 2.593 5.539.315.296.593.5.63.444.111-.111-.352-3.63-.686-5.224-.148-.685-.426-1.426-.592-1.611-.464-.5-1.297-.482-1.649.037z" fill="#a3e635"/><path d="m239.778 139.876c-.593.667-.463 2.094.352 3.761.778 1.556 2.389 3.464 2.686 3.168.129-.13.074-.908-.149-2.316-.5-3.242-.74-4.261-1.13-4.65-.463-.463-1.315-.444-1.759.037z" fill="#a3e635"/><path d="m225.44 154.826c-.741.203-2.63 1.37-6.854 4.223-3.205 2.149-7.669 5.057-9.91 6.465-7.243 4.557-12.801 8.373-14.116 9.744-1.093 1.148-1.871 2.908-2.13 4.872-.185 1.37-.278 1.611-.593 1.685-.222.056-1.63.352-3.168.686-1.519.352-2.778.704-2.778.796 0 .426 1.852.815 3.945.834 1.705 0 2.075.055 2.075.278 0 .148-.222.333-.5.389-3.946.963-5.335 1.371-5.391 1.537-.037.111.334.389.834.612.704.333 1.26.407 2.705.407l1.815.019-.056.537c-.074.648-.074.648-3.482 1.222-1.371.241-2.575.482-2.668.575-.444.389 2.649 1.259 4.483 1.278.704 0 .963.074.963.259 0 .278-3.704 15.042-4.186 16.728-.222.741-.371.981-.63.981-.611 0-2.427.76-2.352.982.037.13.537.297 1.13.389 1.204.185 1.185.111.463 2.038-.352.982-.389 1-1.242 1.13-1.556.204-3.76.87-3.686 1.093.093.278 1.519.63 2.686.648.519.019.963.074.963.13 0 .203-1.315 2.445-1.537 2.63-.13.093-.63.241-1.149.315-1.222.167-4.908 1.352-4.908 1.575 0 .259.722.407 2.686.537l1.741.111-.723.945c-.704.944-.722.944-1.982 1.056-.685.074-2.223.389-3.39.685-2.778.722-2.686.685-2.426 1 .278.315 1.241.5 3.445.649l1.649.111-.537.593c-.575.611-1.631.889-6.762 1.852-2.167.389-2.13.389-1.871.685.408.482 1.927.871 3.835.982l1.889.111-3.353 4.187c-6.038 7.558-10.262 13.374-14.004 19.284l-1.686 2.667-1.945.685c-2.037.723-3.112 1.242-3.112 1.556-.018.241.834.408 2.242.445 1.074.019 1.148.037.963.371-.13.277-.945.537-3.427 1.148-2.019.482-3.242.871-3.242 1.019 0 .352 1.556.796 3.687 1.019l1.982.222-.074.537c-.037.278-.13.556-.204.593-.056.037-.908.204-1.871.37-.963.167-2.668.556-3.761.89-1.778.5-2 .611-1.945.963.13.926 3.928 2.149 6.688 2.149 2.463 0 3.89-.704 4.131-2.019.148-.853.351-1.223 1.13-2.168.333-.426 1.129-1.723 1.759-2.871 3.094-5.78 10.911-17.709 19.191-29.342 1.964-2.761 3.057-4.52 6.039-9.726 1.112-1.945 1.167-2.056 1.89-3.89.463-1.167.87-1.926 1.241-2.241.482-.408.537-.556.426-1.112-.074-.463.019-1.056.352-2.037.259-.741.982-3.131 1.593-5.261 2.167-7.54 4.853-14.82 7.484-20.192 1.519-3.13 1.574-3.186 4.723-5.298 1.075-.703 3.15-2.13 4.632-3.149 1.481-1.019 4.557-3.038 6.854-4.464 10.355-6.502 13.355-8.873 15.764-12.393 2.074-3.056 2.167-5.576.259-6.391-.797-.333-1.389-.314-2.686.075z" fill="#60a5fa"/><path d="m273.084 161.087c-.592.407-1.111 1.537-1.315 2.871-.278 1.815-.444 36.53-.204 41.013.204 3.816 1.038 15.616 1.223 17.616l.111 1.13-2.612.148c-1.426.074-2.667.204-2.723.315-.185.297.63 1.019 1.649 1.464.611.259 1.482.444 2.408.5 1.426.092 1.426.092 1.463.611 0 .297.019.648.037.76.019.129-.092.222-.203.203-.352-.074-4.317.723-4.317.871 0 .482 2.26 1.649 3.279 1.686.575.018-.241.278-1.982.648-.87.167-1.648.389-1.741.463-.241.222.556 1.038 1.463 1.519.463.241 1.241.408 2.094.463 1.407.093 1.482.148 1.222 1.075-.092.333-.296.426-1.148.518-2.983.334-5.224.76-5.224.964 0 .426 3.112 1.37 4.594 1.37.519 0 .963.037.963.075 0 .018-.093.314-.204.648-.185.537-.259.574-1.056.574-1.481 0-7.909.593-8.076.741-.241.222 1.574 1.093 3.112 1.482.741.185 2.038.408 2.871.482 1.167.092 1.501.185 1.464.389-.056.259-1.316.333-7.058.407-1.63.019-1.816.056-1.76.334.167.926 3.723 2.408 6.224 2.593.723.056 1.334.167 1.334.222 0 .056-.111.482-.259.945l-.241.834-1.371-.037c-1.964-.056-5.576.352-5.687.648-.167.537 3.631 1.704 5.613 1.704.741 0 .834.037.834.408-.019 1.204.074 1.167-3.076 1.111-2.315-.037-2.871 0-2.815.185.111.315 2.482 1.167 4.094 1.464l1.278.241-.13.833c-.148 1.167-.278 1.519-.463 1.408-.222-.13-3.52.13-3.52.278 0 .296 1.279.648 2.353.648.667 0 1.167.074 1.167.186 0 .092-.13.926-.296 1.852-.149.908-.352 3.464-.445 5.65-.204 4.853-.407 6.28-1.13 8.336-1.593 4.427-1.852 5.242-2.13 6.946-.5 3.094-.297 5.632 1.019 12.782 1.463 8.003 1.574 8.892 1.445 12.226-.112 3.131-.519 5.613-1.649 9.966-.556 2.223-.704 2.982-.537 3.149.759.76 1.982-2.352 2.723-7.002.407-2.575.555-8.317.259-10.596-.111-1-.5-3.316-.834-5.15-1.204-6.39-1.296-7.205-1.296-10.929 0-4.112.241-5.464 1.5-8.854.445-1.204.982-2.835 1.167-3.613.204-.796.5-1.778.649-2.223.148-.426.37-1.63.463-2.686.111-1.037.278-2.852.389-4.019s.352-3.131.555-4.354c.186-1.222.556-3.667.834-5.446.259-1.759.723-4.186 1.019-5.372.574-2.241 3.056-9.354 3.427-9.836.13-.148.278-1.074.333-2.056.074-.982.186-1.982.278-2.223.167-.463.019-8.91-.333-18.413-.445-12.004-.148-30.473.722-46.126l.13-2.222.852 2.593c1.371 4.205 3.112 11.337 4.668 19.265 2.13 10.892 2.686 16.227 2.408 23.896-.222 6.873-.185 8.762.278 11.949.741 4.964 1.686 7.983 2.538 8.113.519.074.648-.259.76-2.278.111-1.816-.371-7.354-1.168-13.301-.24-1.908-.666-5.872-.907-8.799-.982-11.337-2.112-19.413-4.001-28.823-1.649-8.225-3.983-15.987-5.206-17.284-.481-.5-1.519-.574-2.149-.129z" fill="#60a5fa"/><path d="m194.764 163.588c-.482.537-.445 1.611.093 3.278.426 1.297 1.352 2.631 1.815 2.631.259 0 .426-1.389.426-3.612 0-1.723-.037-1.908-.426-2.279-.556-.519-1.445-.537-1.908-.018z" fill="#a3e635"/><path d="m415.128 164.069c-1.056.389-1.408 1.538-.815 2.705.463.926 2.075 3.019 3.909 5.038.907 1.019 3.501 4.076 5.761 6.799s4.983 5.89 6.057 7.076c2.353 2.575 3.057 3.131 3.057 2.427 0-.871-2.094-4.02-7.114-10.726-2.037-2.742-4.89-6.687-6.316-8.78-1.427-2.094-2.798-3.946-3.057-4.131-.556-.389-1.111-.538-1.482-.408z" fill="#a3e635"/><path d="m189.132 164.866c-.759.759-.722 2.241.112 4.075.463 1.037 1.444 2.223 1.648 2.001.13-.13.371-2.853.371-4.354 0-.944-.074-1.222-.445-1.611-.537-.574-1.185-.611-1.686-.111z" fill="#a3e635"/><path d="m408.274 170.886c-.537.649.204 1.723 4.353 6.113 1.445 1.519 3.761 4.076 5.168 5.65 4.317 4.835 7.929 8.558 8.133 8.354.592-.592-1.649-3.778-8.299-11.874-5.909-7.168-8.41-9.373-9.355-8.243z" fill="#a3e635"/><path d="m403.143 175.536c-.574.574-.5 1.241.241 2.371.611.926 6.483 7.224 8.91 9.577 1.908 1.852 3.797 3.242 4.112 3.056.63-.407-1.852-4.26-6.002-9.28-3.427-4.15-4.575-5.372-5.501-5.854-.908-.463-1.186-.445-1.76.13z" fill="#a3e635"/><path d="m263.137 179.444c-.686.167-1.575 1.001-2.038 1.908-.556 1.093-1.556 5.872-1.704 8.188-.111 1.649.185 3.834.537 4.057.723.444 2.464-1.223 3.39-3.223.759-1.668 2.038-5.965 2.223-7.466.259-2.315-.797-3.834-2.408-3.464z" fill="#a3e635"/><path d="m380.191 184.02c-3.038 1.371-1.908 7.039 2.909 14.708 3.982 6.354 6.539 9.17 19.117 21.229 2.223 2.13 4.001 3.89 3.964 3.927-.111.13-5.631 1.241-7.169 1.445-1.945.259-2.075.574-.463 1.093 1.519.5 6.354.648 8.669.278l1.63-.278 1.464 1.593c.908 1 1.371 1.63 1.241 1.704s-1.019.222-1.982.334c-1.482.185-7.688 1.092-9.781 1.426-1.593.259.426 1.056 3.52 1.371 2.278.24 8.039.111 9.688-.223.519-.092 1.019-.185 1.111-.203.111-.019.593.407 1.093.963.686.759.834 1.037.63 1.148-.426.241-10.67 2.205-12.133 2.334-1.501.13-1.649.334-.5.76 1.148.445 7.687.519 11.207.148 1.537-.167 3.038-.426 3.316-.574.5-.259.537-.241 1 .37l.5.63-.426.111c-1.519.334-13.226 2.131-13.986 2.131-.13 0-.241.111-.241.24 0 .278 1.408.76 3.057 1.038 2.056.352 5.335.426 8.243.204 3.223-.241 4.001-.389 4.687-.927l.481-.389.76 1.056c.426.574.704 1.112.63 1.186-.167.166-9.17 1.76-11.041 1.945-.704.074-1.074.204-1.074.352 0 .87 6.243 1.315 10.688.778 1.334-.167 2.631-.371 2.872-.463.5-.186.481-.204 1.574 1.722.334.593.593 1.112.556 1.149-.148.148-6.854 1.556-7.947 1.667-2.019.204-1.519.63 1.334 1.13 1.185.222 2.389.259 4.798.185l3.204-.092.612 1.333c.333.723.592 1.334.574 1.353-.056.055-5.817.592-6.965.648-.741.037-1.019.13-1.019.315 0 .352 1.371 1.037 2.778 1.408 1.501.389 5.41.574 6.206.296.5-.167.667-.148.926.074.371.334 1.001.371 1.26.037.426-.518-.148-3.093-1.204-5.501-.259-.556-.482-1.353-.519-1.76-.055-.445-.222-.852-.444-1.037-.186-.167-.667-.908-1.038-1.668-1.408-2.76-4.52-7.335-8.021-11.726-4.409-5.538-8.928-10.28-21.821-22.895-6.873-6.706-8.596-8.911-11.374-14.449-1.445-2.89-3.779-8.318-3.649-8.466.092-.074 3.76 2.482 4.945 3.427 2.538 2.056 12.93 11.04 16.839 14.579 4.946 4.464 6.243 5.649 11.689 10.799 4.761 4.502 7.372 6.799 12.411 10.837 7.28 5.854 16.32 13.282 18.506 15.208 1.963 1.723 2.075 1.853 1.667 1.982-.241.074-1.093.315-1.889.556-.816.222-1.408.5-1.371.611.111.334 1.741.501 3.575.389 1.667-.092 1.667-.092 2.186.445l.518.537-1.037.297c-.574.166-1.574.444-2.241.629-1.408.352-1.519.686-.371 1.093.537.186 1.427.241 3.205.204l2.482-.055.648.703c.352.389.612.76.556.797-.148.148-4.631.815-5.539.815-1.13 0-1.259.259-.352.63 1.168.444 2.872.667 5.502.667h2.408l.519.537.519.556-.612.092c-1.519.26-6.224 1.056-6.594 1.149-.852.167-.445.481 1.334 1.019.444.148 2.204.24 4.501.259l3.779.056.815.796c.445.445.759.852.667.926-.241.223-6.335 1.112-8.41 1.223-2.871.167-3.112.482-.815 1.056 2.797.685 8.28.815 10.929.259l.908-.185.833.852c.463.463.815.871.778.926-.148.13-5.983.482-10.281.612-4.538.129-4.89.277-2.445 1.055 2.26.704 4.65 1.038 8.392 1.167 3.927.13 4.872.019 5.65-.629l.574-.482 1.556 1.575 1.574 1.556-4.501.315c-5.909.407-9.781.87-9.781 1.167 0 .111.315.259.704.333 1.778.296 7.132.519 10.337.445 3.112-.075 3.63-.13 4.168-.464l.629-.37 1.668 1.482c.926.833 1.685 1.556 1.722 1.612.019.074-.648.185-1.482.259-5.816.444-9.373.685-12.133.796-3.779.13-4.094.352-1.389.964 3.297.759 5.631 1 10.132 1.018 4.835.019 5.78-.092 6.577-.74l.555-.464 1.834 1.334c1.019.76 1.816 1.389 1.779 1.427-.075.074-5.65.74-10.652 1.259-1.574.167-2.982.334-3.13.371-.501.166.111.481 1.556.833 2.241.519 6.057.76 11.392.686l4.909-.056 1.019-.574c1.185-.667 1.5-1.241 1.148-2.168-.611-1.593-2.519-4.316-8.706-12.355-2.371-3.075-10.133-13.819-14.06-19.451-3.483-4.983-5.076-7.854-8.299-14.912-2.871-6.261-6.687-13.856-7.558-15.041-1.093-1.482-3.594-3.613-5.131-4.372-.963-.482-1.463-.611-2.63-.667-1.797-.074-2.872.371-3.631 1.519-.889 1.352-.556 3.446.833 5.168 1.13 1.39 4.78 4.298 7.04 5.576 2.908 1.667 4.297 2.723 6.205 4.742 2.519 2.649 3.853 4.705 7.688 11.874 2.797 5.224 3.501 6.373 7.558 12.43 5.279 7.854 8.928 12.874 14.634 20.08 1.797 2.26 2.927 3.816 2.834 3.89-.13.13-2.834-1.611-4.557-2.908-2.76-2.093-6.002-5.038-9.67-8.78-4.149-4.242-6.705-7.095-11.67-13.041-7.521-9.04-11.503-12.504-26.212-22.785-11.596-8.114-15.745-11.726-30.843-26.86-9.188-9.207-9.984-9.948-14.411-13.523-2.594-2.093-5.039-4.038-5.447-4.335-.889-.629-2.167-.815-3.038-.407z" fill="#60a5fa"/><path d="m310.652 187.373c-1.556.481-2.372 1.426-3.298 3.797-.148.389-.685.686-2.927 1.612-1.519.63-2.778 1.222-2.815 1.333-.093.297 2.63.26 4.353-.074 1.797-.352 1.667-.352 1.797.167.129.537 1.667 2.279 2.149 2.427.37.111.852.796.685.963-.167.148-8.54 1.538-9.355 1.538-.555 0-.778.074-.741.222.241.722 5.724 1.408 9.522 1.185l2.056-.111.759 1.667.76 1.649-.593.093c-.333.055-1.667.278-3.001.481-4.612.723-7.15 1.204-7.15 1.39-.037.352 1.908.833 3.964 1 1.223.111 3.057.111 4.483.018 3.853-.277 3.52-.351 4.057.853.259.574.481 1.055.481 1.093 0 .018-.87.092-1.926.166-2.279.148-8.095.815-8.243.945-.63.63 4.297 1.389 9.021 1.389h2.482l.797.871c.463.5.815.945.833 1 0 .074-.648.186-1.426.26-2.964.259-8.947 1.333-9.281 1.667-.185.185.315.426 1.149.537 1.371.204 7.169.482 10.299.482h3.057l3.408 2.519c4.224 3.112 6.28 4.724 9.466 7.484 4.687 4.057 4.983 4.52 5.205 8.336.093 1.37.241 3.167.371 3.982.111.815.259 4.224.333 7.595.148 6.743.167 6.836 1.482 9.003.334.519.574.982.537 1-.037.037-.796.26-1.722.519-1.019.259-1.668.537-1.668.685 0 .315 1.075.686 2.446.834 2.63.278 2.389.148 3.593 2.019 1.038 1.593 1.075 1.686.686 1.741-.223.037-2.038.26-4.02.482s-3.631.482-3.668.593c-.167.5 3.168 1.13 7.058 1.334l2.575.129 1.167 2.223 1.167 2.223-1.149.111c-.629.074-1.945.13-2.908.148-3.705.037-9.262.445-9.262.667 0 .556 5.539 1.316 10.874 1.501l3.575.129 1.111 1.575c.63.852 1.093 1.593 1.056 1.63-.018.037-2.223.185-4.853.352-5.094.315-8.818.611-8.947.741-.686.685 5.205 1.519 11.855 1.704l4.205.111.556 1.056c.315.593.574 1.13.574 1.186 0 .055-.945.111-2.075.111-1.926 0-5.372.167-10.299.482-1.26.092-1.89.185-1.834.333.167.519 5.224 1.389 10.411 1.778 1.537.13 3.39.278 4.131.334l1.37.129.463.797.482.797-7.113-.112c-5.298-.111-7.058-.092-6.91.075.408.444 6.632 1.315 12.022 1.704l3.15.222.981.908c.852.796 1.056.907 1.649.852.556-.037.704-.148.852-.574.111-.352.111-.667-.018-.927-.112-.222-.297-.87-.408-1.426-.13-.556-.871-2.982-1.686-5.372-1.148-3.483-1.537-4.927-1.926-7.224-.611-3.761-.982-4.928-2.501-8.058-1.593-3.242-3.334-6.299-6.002-10.467-1.148-1.778-2.334-3.667-2.667-4.168-.649-1.056-1.593-2-3.52-3.556-1.704-1.39-2.575-2.557-3.334-4.465-1.001-2.519-1.186-3.797-1.167-7.65 0-3.39 0-3.446-.519-4.539-.759-1.593-1.889-2.889-7.706-8.78-2.853-2.908-5.52-5.706-5.891-6.224-.944-1.334-1.5-2.594-2.149-5.039-.352-1.241-.963-2.853-1.537-3.983-.519-1.037-1.982-4.149-3.242-6.891-2.445-5.353-4.168-8.558-5.298-9.836-1.222-1.389-3.13-1.982-4.76-1.463z" fill="#60a5fa"/><path d="m224.421 191.448c-.722.704-.556 1.593.408 2.093.592.315 1.055.278 1.611-.167.963-.759.297-2.389-1-2.389-.352 0-.741.167-1.019.463z" fill="#374151"/><path d="m221.772 199.247c-.926.648-.815 1.926.167 2.278.945.334 1.834-.241 1.834-1.167 0-.685-.13-.908-.686-1.204-.537-.278-.815-.259-1.315.093z" fill="#374151"/><path d="m215.9 203.767c-.704.778-.167 2.223.834 2.223.574 0 1.296-.723 1.296-1.316 0-1.111-1.408-1.704-2.13-.907z" fill="#374151"/><path d="m212.881 206.027c-.704.352-.853 1.593-.26 2.241.204.241.5.315 1.019.278 1.463-.111 1.852-1.63.611-2.39-.648-.389-.778-.407-1.37-.129z" fill="#374151"/><path d="m219.42 206.638c-.26.241-.464.667-.464.926 0 .648.778 1.389 1.464 1.389.611 0 1.315-.722 1.315-1.333 0-.482-.982-1.445-1.482-1.445-.204 0-.593.203-.833.463z" fill="#374151"/><path d="m217.104 210.806c-.667.667-.389 1.741.574 2.075.482.185 1.408-.334 1.538-.853.111-.481-.13-1.185-.519-1.444-.389-.26-1.222-.149-1.593.222z" fill="#374151"/><path d="m212.658 211.028c-.796.852-.185 2.186 1.001 2.186.352 0 .741-.148.907-.333.426-.464.408-1.575-.018-1.945-.482-.445-1.427-.389-1.89.092z" fill="#374151"/><path d="m221.179 213.158c-.87 1.112.389 2.649 1.649 2.001 1.223-.611.723-2.501-.648-2.501-.426 0-.704.13-1.001.5z" fill="#374151"/><path d="m217.363 215.437c-.555.222-1 .908-1 1.519 0 1.167 1.463 1.667 2.316.796 1.055-1.056.018-2.852-1.316-2.315z" fill="#374151"/><path d="m212.195 216.826c-.574.556-.63 1.556-.129 2.001.666.611 2.093.259 2.556-.63.722-1.408-1.278-2.538-2.427-1.371z" fill="#374151"/><path d="m219.531 219.994c-.445.555-.463.815-.204 1.778.315 1.112 1.445 1.445 2.167.648.519-.574.63-1.204.334-1.908-.445-1.074-1.649-1.352-2.297-.518z" fill="#374151"/><path d="m213.325 223.236c-.926.722-.407 2.204.778 2.204 1.112 0 1.649-1.556.797-2.26-.556-.426-.964-.426-1.575.056z" fill="#374151"/><path d="m216.437 224.477c-.5.333-.63.926-.407 1.834.296 1.185.611 1.537 1.389 1.537 1.482 0 2.038-1.649.963-2.871-.574-.649-1.408-.871-1.945-.5z" fill="#374151"/><path d="m222.495 228.33c-.834 1.056-.186 2.037 1.444 2.241 1.167.13 1.686-.222 1.686-1.148 0-.945-.759-1.575-1.871-1.575-.722 0-.945.074-1.259.482z" fill="#374151"/><path d="m218.771 229.349c-.759.296-1.111.741-1.111 1.37 0 1.538 2.371 1.723 2.982.241.278-.685 0-1.371-.685-1.63-.556-.222-.593-.222-1.186.019z" fill="#374151"/><path d="m226.774 232.331c-.408.204-.723.908-.612 1.445.167.889 1.445 1.334 2.39.852 1.741-.889 0-3.149-1.778-2.297z" fill="#374151"/><path d="m222.383 233.368c-.555.111-1.204.797-1.204 1.279 0 .703.778 1.352 1.63 1.352.964 0 1.575-.5 1.575-1.26 0-1-.871-1.574-2.001-1.371z" fill="#374151"/><path d="m228.848 238.296c-1.667.722-.907 3.575.797 2.964.574-.186 1.148-1.167 1.167-1.945 0-.89-1.019-1.427-1.964-1.019z" fill="#374151"/><path d="m221.179 239.092c-.463.593-.37 1.279.223 1.76.5.426.907.426 1.519-.055.592-.464.648-1.297.111-1.834-.537-.538-1.371-.482-1.853.129z" fill="#374151"/><path d="m150.435 242.39c-.759.352-1.574 1.074-3.334 2.927-6.576 6.891-9.207 9.354-14.208 13.3-1.112.871-3.372 2.76-5.02 4.168-2.001 1.723-3.705 3.019-5.131 3.871-3.168 1.89-4.483 3.427-5.595 6.539-.278.779-.555 1.482-.63 1.575-.055.074-.722.296-1.482.519-2.482.685-2.611 1.093-.333 1.093.685 0 1.278.055 1.315.129.056.093.019.315-.055.538-.13.333-.612.5-2.946 1.074-1.537.37-3.019.667-3.26.667-.259 0-.463.074-.463.185 0 .445.945.63 3.408.704l2.557.074-.111.778c-.074.408-.186.815-.26.871-.074.074-.963.259-1.982.426s-2.89.556-4.168.852-2.519.556-2.76.593c-.259.037-.481.148-.519.259-.166.482 2.409.574 6.41.241 1.352-.111 2.482-.167 2.519-.13.056.037 0 .371-.092.741l-.186.648-2.556.501c-4.65.907-9.299 2.037-9.244 2.241.037.093.315.241.612.296.87.186 5.724.186 8.113-.018 1.223-.111 2.223-.167 2.26-.13.019.019-.055.389-.167.834-.129.519-.314.778-.5.778-.166 0-1.463.296-2.889.648-4.335 1.093-6.929 1.593-8.966 1.723-1.0931.074-1.9452.204-1.9452.315 0 .241 1.167.796 2.3712 1.148.537.149 2.13.315 3.557.371 2.093.074 3.038.018 4.908-.278 1.26-.222 2.316-.37 2.335-.352.092.074-.519 2.445-.649 2.593-.148.149-8.243 1.668-10.058 1.89-.593.055-1.075.204-1.075.296 0 .278 1.501.889 2.927 1.204.685.149 2.686.334 4.446.389 1.741.056 3.186.167 3.186.241s-.611.223-1.334.352c-.741.111-2.334.389-3.538.574-1.223.204-2.575.371-3.001.371-.444 0-.852.074-.926.167-.241.426 1.056 1.482 2.501 2.037 2.741 1.056 7.576 1.501 8.984.834.667-.315 1.389-1.204 1.389-1.723 0-.13.297-.722.649-1.315 1.018-1.667 3.297-7.799 4.501-12.133 1.111-3.946 1.704-7.707 2.075-13.06.333-4.965.481-5.298 3.316-7.817.963-.834 3.075-2.723 4.705-4.168 5.075-4.557 9.984-8.281 15.56-11.8 3.779-2.371 4.872-3.205 6.446-4.891 1.445-1.519 1.983-2.667 1.723-3.686-.352-1.389-1.778-1.834-3.39-1.074z" fill="#60a5fa"/><path d="m224.606 242.538c-.759.482-.944.704-.981 1.204-.075.704.203 1.111.87 1.371 1.001.37 2.983-.927 2.983-1.964 0-1.315-1.353-1.611-2.872-.611z" fill="#374151"/><path d="m231.757 245.65c-.778.834-.63 2.278.259 2.501 1.074.259 2.001-.482 2.001-1.612 0-1.167-1.464-1.741-2.26-.889z" fill="#374151"/><path d="m224.884 246.372c-.685.686-.407 2.075.482 2.409 1.259.481 2.315-1.353 1.371-2.372-.482-.518-1.353-.537-1.853-.037z" fill="#374151"/><path d="m229.237 247.854c-1.296.519-1.111 2.594.223 2.594 1.056 0 1.667-.852 1.333-1.816-.148-.426-.889-1.037-1.148-.944-.019 0-.204.074-.408.166z" fill="#374151"/><path d="m230.664 253.282c-.852.889-.297 2.223.926 2.223 1.111 0 1.686-1.482.889-2.279-.5-.5-1.315-.481-1.815.056z" fill="#374151"/><path d="m233.053 256.598c-.666.241-.926.704-.944 1.648 0 2.038 2.093 2.612 2.593.704.426-1.574-.444-2.815-1.649-2.352z" fill="#374151"/><path d="m229.515 259.84c-.982.351-1.241 1.537-.5 2.241.889.833 2.223.296 2.223-.908 0-.852-.963-1.593-1.723-1.333z" fill="#374151"/><path d="m232.776 264.915c-.945.741-.463 2.205.741 2.205.852 0 1.37-.463 1.37-1.223 0-1.223-1.13-1.76-2.111-.982z" fill="#374151"/><path d="m228.904 270.083c-.574.445-.834 1.501-.519 2.149.445.982 1.797.926 2.334-.092.408-.797.352-1.445-.185-1.964-.537-.556-1-.574-1.63-.093z" fill="#374151"/><path d="m226.181 276.196c-.482.482-.482 1.501-.037 1.908.778.704 2.075.111 2.075-.944 0-.612-.149-.834-.686-1.13-.574-.297-.926-.26-1.352.166z" fill="#374151"/><path d="m221.791 276.382c-.519.203-.797.741-.797 1.537 0 1.019.945 1.612 1.834 1.149 1.556-.797.574-3.335-1.037-2.686z" fill="#374151"/><path d="m218.345 281.902c-.407.463-.389 1.371.019 1.908.741.889 2.26.315 2.26-.852 0-1.149-1.556-1.853-2.279-1.056z" fill="#374151"/><path d="m335.233 282.865c-1.408.537-1.519.797-1.426 3.242.129 3.76 1.5 9.744 3.871 16.987 2.334 7.131 2.538 7.983 4.113 17.375 1.593 9.577 3.038 15.783 5.742 24.638 1.853 6.075 2.964 8.984 3.446 8.984.463 0 .537-1.315.166-3.316-.481-2.519-2.797-10.948-4.557-16.598-.907-2.908-1.945-6.354-2.297-7.65-1.389-5.094-2.648-12.412-3.167-18.469-.537-6.261-.723-7.502-2.223-14.56-.574-2.63-1-4.872-.963-4.965.129-.37 1.278 2.927 2.371 6.743 1.482 5.243 1.945 6.576 5.261 15.468 3.908 10.448 5.631 15.616 8.243 24.637 2.649 9.17 4.131 13.986 6.298 20.47 3.52 10.577 5.317 14.523 12.504 27.415 4.149 7.429 5.428 10.022 6.391 12.949 1.389 4.112 1.482 4.872 1.686 12.615.092 3.816.259 7.521.352 8.225.333 2.13 1.111 3.13 2.426 3.13.741 0 1.723-1 2.001-2.037.37-1.371.611-4.465.648-8.021.019-4.15-.185-5.539-1.371-8.948-1.445-4.205-2.926-6.965-8.058-15.041-7.632-12.023-9.595-16.172-13.763-29.083-6.002-18.562-8.318-26.194-10.114-33.381-.964-3.798-2.538-8.818-5.261-16.727-2.279-6.614-3.39-9.503-5.965-15.561-1.723-4.057-3.909-7.947-4.835-8.595-.5-.352-.389-.352-1.519.074z" fill="#60a5fa"/><path d="m203.396 283.05c-.778.778-.13 2.223 1 2.223.741 0 1.223-.481 1.223-1.241 0-1.13-1.445-1.76-2.223-.982z" fill="#374151"/><path d="m210.343 282.902c-.519.296-.649.519-.649 1.186 0 .704.501 1.185 1.242 1.185.685 0 1.167-.5 1.167-1.222 0-.649-.149-.871-.686-1.167-.481-.26-.611-.241-1.074.018z" fill="#374151"/><path d="m214.696 284.162c-.76.759-.185 2.223.852 2.223.648 0 1.241-.612 1.241-1.26 0-1.185-1.278-1.778-2.093-.963z" fill="#374151"/><path d="m222.754 284.384c-.371.426-.463.704-.371 1.056.241 1.056 1.575 1.5 2.316.759.519-.518.482-1.5-.056-2-.629-.593-1.296-.519-1.889.185z" fill="#374151"/><path d="m197.857 285.94c-.5.649-.5 1.204.037 1.704.556.519 1.26.519 1.76-.018.519-.556.519-1.26-.018-1.76-.593-.556-1.316-.519-1.779.074z" fill="#374151"/><path d="m191.633 286.848c-.593.574-.611 1.371-.037 1.908.556.519 1.26.519 1.76-.019.537-.574.537-1.482 0-1.982s-1.186-.463-1.723.093z" fill="#374151"/><path d="m203.581 287.311c-.555.556-.5 1.537.111 2.019.278.222.649.389.816.389.5 0 1.093-.593 1.222-1.204.241-1.241-1.278-2.075-2.149-1.204z" fill="#374151"/><path d="m195.523 289.997c-.574.556-.593 1.204-.037 1.723.556.518 1.26.518 1.76-.019.556-.593.519-1.315-.074-1.778-.648-.5-1.093-.482-1.649.074z" fill="#374151"/><path d="m216.085 289.997c-.593.574-.574 1.037.019 1.741.833 1 2.297.63 2.297-.574 0-.741-.186-1.056-.76-1.352-.722-.389-1.037-.352-1.556.185z" fill="#374151"/><path d="m188.91 290.645c-.444.463-.537.667-.426 1.075.167.667.445.926 1.149 1.074.5.093.685.019 1.167-.445.648-.666.722-1.352.185-1.889-.556-.556-1.408-.482-2.075.185z" fill="#374151"/><path d="m209.435 291.22c-.834.648-.482 1.852.667 2.259.982.352 2.019-.778 1.63-1.722-.389-.926-1.482-1.167-2.297-.537z" fill="#374151"/><path d="m182.964 291.905c-.389.426-.408 1.408-.019 1.778.445.463 1.26.445 1.797-.018.426-.389.408-1.39-.018-1.779-.463-.407-1.39-.389-1.76.019z" fill="#374151"/><path d="m201.284 292.331c-.963.759-.463 2.204.778 2.204s1.853-1.482.927-2.278c-.501-.426-1.093-.408-1.705.074z" fill="#374151"/><path d="m177.277 294.109c-1.037.389-1.26 1.612-.445 2.26.278.222.741.389 1.038.389.63 0 1.445-.722 1.445-1.278 0-.815-1.279-1.667-2.038-1.371z" fill="#374151"/><path d="m204.934 295.091c-.834.334-1.038 1.371-.371 1.982.76.723 1.797.575 2.168-.315.185-.463.185-.63-.075-1.019-.24-.37-1.055-.889-1.278-.815-.018 0-.222.074-.444.167z" fill="#374151"/><path d="m189.244 295.665c-.964.76-.389 2.205.87 2.205 1.204 0 1.797-1.519.889-2.26-.555-.445-1.148-.426-1.759.055z" fill="#374151"/><path d="m182.575 296.777c-1.056.833-.408 2.297 1.019 2.297.796 0 1.185-.315 1.37-1.056.112-.408.019-.611-.426-1.075-.666-.648-1.278-.703-1.963-.166z" fill="#374151"/><path d="m196.616 297.407c-.611.611-.555 1.482.148 2 .89.667 2.186-.055 2.186-1.222 0-1.223-1.426-1.686-2.334-.778z" fill="#374151"/><path d="m172.368 299.166c-.408.445-.445 1.39-.074 1.76.796.778 2.204.241 2.204-.852 0-1.111-1.408-1.704-2.13-.908z" fill="#374151"/><path d="m201.618 299.055c-.908.389-1.075 1.204-.426 2.038.778.982 2.389.352 2.389-.945 0-.963-.981-1.519-1.963-1.093z" fill="#374151"/><path d="m165.366 299.87c-.63.704-.297 1.871.611 2.168.371.111 1.093-.167 1.334-.537.259-.389.148-1.353-.185-1.649-.463-.408-1.39-.389-1.76.018z" fill="#374151"/><path d="m178.981 301.019c-.519.481-.537 1.482-.074 1.908.834.759 2.316.129 2.316-.982 0-1.149-1.39-1.723-2.242-.926z" fill="#374151"/><path d="m190.948 302.167c-.5.167-1.075 1.112-1.075 1.76 0 .185.13.537.297.76.241.352.444.407 1.037.37.908-.074 1.519-.741 1.482-1.63-.018-1.019-.796-1.574-1.741-1.26z" fill="#374151"/><path d="m184.65 302.445c-.612.686-.556 1.686.111 2.13.389.26 1.352.149 1.648-.185.426-.463.408-1.574-.018-1.945-.445-.407-1.389-.407-1.741 0z" fill="#374151"/><path d="m397.16 302.853c0 1.315 4.26 7.687 13.448 20.117 2.038 2.742 5.113 6.965 6.836 9.355 7.835 10.948 17.264 22.637 24.933 30.935 4.761 5.169 7.058 8.244 8.984 12.078 1.205 2.408 2.131 4.724 5.373 13.393 3.612 9.651 3.871 10.3 5.186 13.004.908 1.853 1.297 2.464 1.556 2.464.463 0 .519-.278.315-1.389-.278-1.593-1.352-4.539-3.575-9.874-1.185-2.815-3.39-8.225-4.909-11.985-4.557-11.263-5.483-12.911-11.929-21.099-3.798-4.853-5.65-7.28-12.708-16.783-5.02-6.743-6.873-9.114-10.355-13.338-1.389-1.685-5.094-6.261-8.243-10.188-6.817-8.521-9.892-12.17-12.504-14.856-1.76-1.816-2.408-2.316-2.408-1.834z" fill="#60a5fa"/><path d="m196.209 303.483c-.815.852-.26 2.167.889 2.167 1.167 0 1.76-1.389.982-2.279-.426-.463-1.39-.407-1.871.112z" fill="#374151"/><path d="m166.292 304.687c-.408.463-.389 1.389.019 1.759.426.389 1.407.408 1.778.019.463-.445.444-1.26-.019-1.797-.389-.426-1.389-.407-1.778.019z" fill="#374151"/><path d="m172.942 305.298c-.315.259-.481.556-.481.926 0 1.204 1.482 1.723 2.204.797.5-.649.482-1.093-.074-1.649s-1-.574-1.649-.074z" fill="#374151"/><path d="m155.474 308.003c-.241.037-.593.296-.797.574-.741.926-.018 2.075 1.297 2.075 1.778 0 2.334-2.001.722-2.575-.333-.111-.648-.185-.703-.185-.056.018-.297.074-.519.111z" fill="#374151"/><path d="m180.056 308.836c-.464.5-.482 1.093-.038 1.649.704.852 2.26.315 2.26-.797 0-1.13-1.444-1.685-2.222-.852z" fill="#374151"/><path d="m186.354 308.799c-.797.797-.204 2.223.907 2.223.778 0 1.371-.556 1.371-1.297 0-1.148-1.463-1.741-2.278-.926z" fill="#374151"/><path d="m487.28 309.373c-.074.111-.093.223-.074.26.037.037.37.407.722.833.815.982 4.224 4.038 8.985 8.058 2.037 1.741 4.909 4.279 6.39 5.65 4.909 4.576 7.781 6.873 12.486 9.948 5.631 3.686 9.558 6.39 14.004 9.614 5.743 4.168 10.244 7.224 11.856 8.039 2 1.019 3.149.797 3.149-.593 0-2.204-3.168-5.223-11.022-10.521-2.538-1.723-5.835-3.946-7.317-4.946-1.482-1.001-4.15-2.76-5.947-3.89-3.834-2.446-6.131-4.076-11.503-8.133-11.689-8.817-17.024-12.633-19.488-13.948-1.111-.575-2.019-.741-2.241-.371z" fill="#60a5fa"/><path d="m173.22 310.577c-.482.612-.519 1.76-.055 2.168 1.148 1.037 2.815-.371 2.222-1.89-.222-.593-.463-.759-1.204-.759-.407 0-.704.148-.963.481z" fill="#374151"/><path d="m161.976 312.004c-1.037.907-.482 2.538.852 2.538.76 0 1.371-.815 1.223-1.649-.186-1.204-1.204-1.63-2.075-.889z" fill="#374151"/><path d="m166.829 312.337c-.963.76-.463 2.205.76 2.205.685 0 1.167-.501 1.167-1.223 0-.648-.148-.871-.686-1.167-.555-.278-.667-.259-1.241.185z" fill="#374151"/><path d="m144.971 313.819c-.778.611-.63 1.723.315 2.112 1.148.481 2.241-.482 1.796-1.575-.203-.481-.852-.926-1.37-.926-.13 0-.463.167-.741.389z" fill="#374151"/><path d="m151.713 315.32c-.518.574-.481 1.333.112 1.796.648.501 1.093.482 1.648-.074.556-.555.575-1 .074-1.648-.481-.612-1.296-.649-1.834-.074z" fill="#374151"/><path d="m178.277 316.468c-.741.741-.796 1.26-.167 1.871.63.648 1.297.593 2.057-.167.722-.722.778-1.167.24-1.852-.555-.704-1.333-.649-2.13.148z" fill="#374151"/><path d="m158.123 316.672c-.574.574-.5 1.556.148 1.982.389.259 1.352.148 1.649-.185.407-.463.389-1.39-.019-1.76-.426-.389-1.408-.408-1.778-.037z" fill="#374151"/><path d="m172.275 316.95c-.648.648-.463 1.704.389 2.13 1.186.611 2.205.148 2.205-1.001 0-1.259-1.704-2.019-2.594-1.129z" fill="#374151"/><path d="m167.459 318.117c-.241.129-.537.463-.63.741-.407 1.13 1.241 2.111 2.094 1.259 1.018-1.018-.186-2.649-1.464-2z" fill="#374151"/><path d="m152.214 320.432c-.352.389-.408 1.186-.13 1.704.093.186.426.427.741.519 1.186.426 2.297-.556 1.852-1.63-.37-.889-1.871-1.241-2.463-.593z" fill="#374151"/><path d="m171.849 320.803c-.463.518-.407 1.611.093 1.963 1.371.964 3.019-.704 1.908-1.926-.445-.482-1.575-.5-2.001-.037z" fill="#374151"/><path d="m146.249 322.044c-.26.241-.463.574-.463.722 0 .556.426 1.204.907 1.408 1.538.63 2.594-1.556 1.13-2.315-.741-.389-1.056-.352-1.574.185z" fill="#374151"/><path d="m176.832 322.896c-.592.463-.667 1.426-.129 1.908 1.278 1.148 3.241-.722 2-1.889-.537-.519-1.241-.519-1.871-.019z" fill="#374151"/><path d="m159.234 323.452c-.907 1.056-.407 2.389.871 2.389.834 0 1.5-.703 1.5-1.574 0-1.389-1.463-1.908-2.371-.815z" fill="#374151"/><path d="m165.681 324.693c-.667.444-.723 1.445-.111 2.112.37.444 1.37.426 1.759 0 .427-.464.389-1.445-.055-1.89-.371-.37-1.204-.482-1.593-.222z" fill="#374151"/><path d="m138.45 324.878c-.796.537-.704 1.797.167 2.167.908.389 1.797-.129 1.797-1.056 0-.926-1.204-1.611-1.964-1.111z" fill="#374151"/><path d="m145.415 327.323c-.518.519-.5 1.556.037 1.927.575.407 1.112.37 1.705-.093.592-.463.666-1.426.148-1.889-.463-.426-1.445-.389-1.89.055z" fill="#374151"/><path d="m499.876 327.323c-.444.723 4.131 6.336 8.503 10.466 2.779 2.631 9.781 7.929 11.856 8.985 1.796.926 3 1.019 3.186.278.055-.26.055-.686-.019-.964-.185-.759-4.242-4.686-6.854-6.668-1.222-.927-3.723-3.02-5.557-4.687-4.965-4.483-7.502-6.354-9.873-7.28-.908-.37-1.093-.389-1.242-.13z" fill="#60a5fa"/><path d="m153.01 328.805c-.815.815-.222 2.279.926 2.279.408 0 .723-.13.964-.408.722-.926.166-2.241-.964-2.241-.315 0-.722.166-.926.37z" fill="#374151"/><path d="m175.128 328.879c-.611.26-.815.612-.815 1.297 0 1.074 1.908 1.574 2.612.685.982-1.204-.334-2.63-1.797-1.982z" fill="#374151"/><path d="m167.737 329.268c-1.019 1.019-.241 2.297 1.297 2.13 1.056-.111 1.407-1.518.537-2.204-.648-.518-1.278-.481-1.834.074z" fill="#374151"/><path d="m131.615 329.398c-.556.296-.834.722-.834 1.26 0 .667.537 1.111 1.334 1.111 1.426 0 1.852-1.797.574-2.389-.537-.241-.611-.241-1.074.018z" fill="#374151"/><path d="m249.392 329.954c-2.093 2.241-6.335 8.206-6.928 9.781-.556 1.444-.408 3.593.574 8.613.204 1.019.445 2.853.556 4.076.333 3.908.704 4.964 1.463 4.279.463-.426.704-1.89.963-5.947.112-1.833.241-3.389.297-3.464.037-.074-.037-1.5-.148-3.167l-.241-3.001.648-1.204c.352-.667 1.408-2.371 2.371-3.779 2.075-3.112 2.612-4.168 2.612-5.317 0-1.519-1.13-1.963-2.167-.87z" fill="#a3e635"/><path d="m162.106 330.584c-.482.611-.501 1.574-.056 1.982.185.185.63.315 1 .315.815 0 1.334-.538 1.334-1.39 0-1.333-1.482-1.908-2.278-.907z" fill="#374151"/><path d="m147.731 331.676c-.575.556-.593 1.204-.037 1.723.426.408 1.315.537 1.722.259.278-.185.63-.87.63-1.241 0-.463-.852-1.204-1.389-1.204-.259 0-.685.204-.926.463z" fill="#374151"/><path d="m126.891 332.01c-1.334.685-1.019 2.538.445 2.538.722 0 1.593-.76 1.593-1.389 0-.945-1.167-1.612-2.038-1.149z" fill="#374151"/><path d="m140.969 333.436c-.444.445-.5 1.519-.074 1.927.686.704 1.779.5 2.112-.371.519-1.352-1.056-2.538-2.038-1.556z" fill="#374151"/><path d="m134.208 334.455c-.593.574-.611 1.371-.037 1.908s1.26.519 1.797-.055c1.241-1.334-.482-3.15-1.76-1.853z" fill="#374151"/><path d="m172.312 335.029c-.574.408-.555 1.427.056 2.02.611.629 1.426.611 1.927-.019.518-.667.481-1.111-.149-1.76-.611-.593-1.204-.685-1.834-.241z" fill="#374151"/><path d="m164.051 335.863c-.612.481-.649 1.297-.074 1.834.574.518 1.333.481 1.796-.111.501-.649.482-1.093-.074-1.649-.555-.556-1-.574-1.648-.074z" fill="#374151"/><path d="m157.085 336.4c-1.111 1.112.334 2.834 1.631 1.927.574-.389.574-1.612 0-2.001-.575-.407-1.186-.37-1.631.074z" fill="#374151"/><path d="m167.552 337.789c-.519.501-.556.779-.26 1.445.204.445.871.871 1.371.871.519 0 1.26-.852 1.26-1.445 0-1.278-1.445-1.815-2.371-.871z" fill="#374151"/><path d="m126.169 338.178c-.445.575-.482.797-.186 1.445.575 1.26 2.446.76 2.446-.63 0-1.241-1.501-1.778-2.26-.815z" fill="#374151"/><path d="m143.303 338.271c-.592.463-.666 1.427-.148 1.89.482.444 1.612.407 2.075-.056.482-.482.482-1.5.037-1.908-.463-.426-1.371-.389-1.964.074z" fill="#374151"/><path d="m149.954 338.623c-.408.445-.445 1.334-.074 1.778.444.538 1.37.834 1.945.63 1.093-.426 1.296-1.389.463-2.241-.686-.667-1.797-.76-2.334-.167z" fill="#374151"/><path d="m286.459 339.105c-.537.796-.278 6.539 1.13 24.248.241 3.26.759 10.003 1.111 15.004 1.075 14.838 1.223 16.283 2.89 26.824 1.556 9.836 1.704 11.373 1.593 15.597-.092 3.946-.389 5.446-1.5 7.78-.815 1.741-2.594 4.057-4.224 5.483-2.519 2.242-6.187 7.095-6.724 8.929-.371 1.278-.352 1.723.129 2.167 1.742 1.612 6.651-1.926 10.374-7.483 1.575-2.372 3.538-6.41 4.001-8.318.612-2.389.834-5.057.723-8.002-.13-3.057-.537-5.817-1.89-13.245-2.278-12.374-2.371-13.208-3.797-32.232-.537-7.095-1.686-19.229-2.723-28.417-.797-7.298-.834-7.798-.556-8.298.241-.426.259-.519.037-.519-.148 0-.407.222-.574.482z" fill="#60a5fa"/><path d="m160.753 341.902c-1.111 1.278-.852 2.834.482 2.834.704 0 1.167-.296 1.5-.926.389-.741.352-1.408-.092-1.852-.463-.464-1.501-.501-1.89-.056z" fill="#374151"/><path d="m139.043 342.902c-.574.445-.648 1.223-.148 1.834.259.315.537.426 1.148.426s.889-.111 1.149-.426c.574-.704.407-1.519-.426-1.945-.704-.37-1.149-.352-1.723.111z" fill="#374151"/><path d="m131.448 343.087c-.648.519-.648 1.408 0 2.186.574.704 1.371.76 1.926.167.556-.611.482-1.538-.166-2.204-.649-.63-1.093-.667-1.76-.149z" fill="#374151"/><path d="m124.89 343.254c-.833.778-.278 2.223.852 2.223 1.112 0 1.649-1.556.797-2.26-.556-.444-1.149-.426-1.649.037z" fill="#374151"/><path d="m164.81 343.94c-.426.111-.908 1.055-.741 1.481.334.964 1.241 1.26 2.056.686.278-.185.408-.463.408-.871 0-.704-.13-.926-.686-1.222-.426-.204-.481-.223-1.037-.074z" fill="#374151"/><path d="m173.016 344.366c-.5.5-.481 1.37.037 1.852.815.759 2.057.204 2.057-.926s-1.316-1.704-2.094-.926z" fill="#374151"/><path d="m122.871 345.014c-.796.556-.667 1.945.204 2.353.667.296 1.519-.093 1.76-.797.463-1.315-.834-2.353-1.964-1.556z" fill="#374151"/><path d="m148.435 345.292c-1.316.537-.871 2.408.555 2.408.76 0 1.242-.482 1.242-1.223 0-.648-.149-.87-.686-1.167-.463-.24-.556-.24-1.111-.018z" fill="#374151"/><path d="m153.103 345.755c-.5.5-.574.834-.26 1.445.334.63.945 1.056 1.575 1.056 1.278 0 1.649-1.408.648-2.427-.667-.667-1.352-.685-1.963-.074z" fill="#374151"/><path d="m476.258 345.866c0 .259.296.685 6.836 9.336 2.982 3.964 5.612 7.373 5.798 7.54.481.426.629.407 1.074-.038.426-.426.371-.907-.185-2.037-.445-.871-2.501-3.575-4.428-5.835-1.741-2.038-8.706-9.17-8.947-9.17-.074 0-.148.093-.148.204z" fill="#a3e635"/><g fill="#374151"><path d="m143.785 349.052c-.222.241-.407.649-.407.889 0 .593.722 1.279 1.333 1.279.538 0 1.26-.76 1.26-1.297 0-.185-.167-.537-.389-.815-.482-.612-1.26-.63-1.797-.056z"/><path d="m169.738 350.33c-.223.112-.482.427-.593.704-.352 1.056.778 2.112 1.778 1.631 1.056-.501 1.13-1.89.13-2.353-.556-.241-.778-.241-1.315.018z"/><path d="m163.754 350.423c-1.463.556-1.093 2.464.463 2.464 1.186 0 1.797-1.149 1.075-2.001-.352-.426-1.093-.63-1.538-.463z"/><path d="m129.132 351.016c-.759.759-.259 2.019.982 2.426 1.112.352 2.038-.259 1.927-1.315-.074-.741-.741-1.259-1.76-1.408-.611-.074-.834-.018-1.149.297z"/><path d="m156.715 351.405c-.926.926.019 2.593 1.445 2.593 1.445 0 1.834-1.37.685-2.389-.778-.667-1.574-.76-2.13-.204z"/><path d="m122.649 352.09c-.76.704-.889 1.334-.389 1.964.463.574 1.093.648 1.852.185.519-.296.927-.945.927-1.463 0-.445-.871-1.186-1.371-1.186-.26 0-.723.222-1.019.5z"/><path d="m138.283 352.775c-.389.389-.463.612-.37 1.001.185.759.741 1.222 1.463 1.222 1.816 0 1.89-2.315.074-2.593-.574-.093-.759-.037-1.167.37z"/><path d="m117.258 354.183c-.518.519-.481 1.501.056 2.001 1.315 1.241 2.982-.648 1.704-1.908-.537-.556-1.259-.593-1.76-.093z"/><path d="m165.255 354.295c-.5.648-.482 1.037.074 1.704.593.722 1.371.889 2.112.5 1-.5 1.018-1.593.037-2.26-.871-.593-1.742-.556-2.223.056z"/><path d="m151.047 354.257c-1.408.612-.945 2.409.611 2.409 1.148 0 1.76-1.242 1.037-2.075-.463-.519-.963-.612-1.648-.334z"/><path d="m174.535 355.11c-.389.166-.778.852-.778 1.389 0 .129.223.5.482.815.574.685 1.5.778 2.019.204.945-1.056-.389-2.927-1.723-2.408z"/><path d="m158.975 355.906c-.852.908-.333 2.353.815 2.353.63 0 1.556-.871 1.556-1.464 0-1.185-1.556-1.759-2.371-.889z"/><path d="m129.799 357.666c-.63.704-.296 1.871.612 2.167.37.111 1.093-.166 1.333-.537.26-.389.149-1.352-.185-1.649-.463-.407-1.389-.389-1.76.019z"/><path d="m142.414 358.444c-.444.463-.537.667-.426 1.074.186.797.575 1.056 1.482 1.038 1.038-.019 1.575-.463 1.575-1.297 0-1.352-1.593-1.852-2.631-.815z"/><path d="m123.186 359.37c-.852.852-.333 2.223.871 2.223.815 0 1.352-.556 1.352-1.371 0-1.111-1.426-1.648-2.223-.852z"/><path d="m115.406 359.555c-.482.482-.482 1.501-.019 1.927.501.444 1.575.463 2.057.018.518-.463.481-1.296-.093-1.852-.556-.574-1.426-.611-1.945-.093z"/><path d="m170.923 362.149c-.63.5-.648 1.093-.037 1.815 1.167 1.39 3.205.667 2.797-.982-.259-1-1.908-1.5-2.76-.833z"/><path d="m135.171 362.297c-.426.482-.407 1.741.019 2.13.185.186.611.315.926.315.797 0 1.334-.574 1.334-1.389 0-.407-.148-.796-.371-1.019-.481-.481-1.5-.481-1.908-.037z"/><path d="m155.066 362.464c-.592.5-.685 1.352-.203 1.963.518.649 1.333.667 1.945.037 1.204-1.204-.426-3.075-1.742-2z"/><path d="m164.199 362.334c-.519.204-1.001.889-1.001 1.389 0 .612.76 1.204 1.519 1.204 1.909 0 2.279-2.371.408-2.685-.296-.038-.722 0-.926.092z"/><path d="m144.433 362.853c-.463.518-.407 1.611.093 1.963.556.408 1.112.371 1.593-.074.834-.778.278-2.223-.852-2.223-.296 0-.667.149-.834.334z"/><path d="m179.685 363.205c-1.037.389-1.259 1.611-.444 2.26.277.222.759.389 1.092.389 1.445 0 1.723-1.945.371-2.519-.352-.149-.667-.26-.685-.241-.037 0-.186.055-.334.111z"/><path d="m117.258 364.335c-.944.296-1.259 1.537-.555 2.167.852.76 2.223.185 2.223-.926 0-.834-.871-1.482-1.668-1.241z"/><path d="m131.281 365.242c-.574.667-.407 1.723.334 2.056 1.222.556 2.408-1.167 1.426-2.056-.445-.407-1.389-.407-1.76 0z"/><path d="m125.224 366.224c-.371.371-.482 1.204-.222 1.593.185.278.87.63 1.222.63.5 0 1.037-.704 1.037-1.352 0-1.13-1.241-1.667-2.037-.871z"/><path d="m150.509 368.725c-.87.852-.37 2.13.815 2.167.482.019.741-.111 1.075-.481.519-.612.537-1.038.037-1.668-.5-.629-1.315-.648-1.927-.018z"/><path d="m159.105 368.781c-.871.722-.297 2.26.833 2.26.612 0 1.223-.667 1.223-1.297 0-1.112-1.186-1.649-2.056-.963z"/><path d="m140.506 369.095c-.537.519-.593 1.13-.166 1.723.407.593 1.704.574 2.26-.018 1.241-1.316-.816-3.001-2.094-1.705z"/><path d="m173.609 369.929c-.667.407-1.204 1.463-1.019 1.982.389 1.111 1.223 1.26 2.464.408.982-.649 1.111-.834 1.111-1.519 0-1.13-1.352-1.593-2.556-.871z"/><path d="m187.836 370.429c-.908.352-1.26 1.556-.63 2.168.908.926 2.667.277 2.667-.964 0-.815-1.204-1.537-2.037-1.204z"/><path d="m163.754 371.448c-.463.5-.481 1.093-.037 1.649.704.852 2.26.315 2.26-.797 0-1.13-1.445-1.686-2.223-.852z"/><path d="m119.037 371.8c-.556.445-.63 1.167-.186 1.797.371.537 1.575.574 2.112.037.778-.778.13-2.223-1.019-2.223-.222 0-.629.167-.907.389z"/><path d="m126.891 372.337c-.445.445-.482 1.056-.074 1.63.204.297.463.408 1 .408s.797-.111 1.001-.408c.629-.889.074-2-1.001-2-.315 0-.722.166-.926.37z"/><path d="m146.064 373.541c-.89.871-.352 2.131.926 2.131 1.297 0 1.889-1.427.908-2.205-.649-.519-1.279-.481-1.834.074z"/></g><path d="m457.363 373.208c0 .093.26.519.575.982 1.278 1.889 4.149 8.113 5.538 12.022.389 1.074.834 2.834 1.001 3.909.833 5.205 1.759 7.78 3.427 9.447.796.796 1.018.926 1.648.926.815 0 1.093-.241 1.26-1.056.185-.944-1.223-4.76-3.353-9.04-1.056-2.148-2.797-5.687-3.872-7.872-1.055-2.186-2.445-4.78-3.075-5.724-1.63-2.483-3.149-4.224-3.149-3.594z" fill="#60a5fa"/><path d="m133.3 374.282c-.574.574-.5 1.556.149 1.982.389.26 1.352.149 1.648-.185.408-.463.389-1.389-.018-1.76-.426-.389-1.408-.407-1.779-.037z" fill="#374151"/><path d="m178.889 375.079c-.741.815-.13 2.26.963 2.26 1.185 0 1.815-1.353 1.037-2.223-.444-.482-1.574-.5-2-.037z" fill="#374151"/><path d="m140.692 377.246c-.797.778-.501 2.186.463 2.316.981.148 1.852-.556 1.852-1.482 0-1.204-1.426-1.723-2.315-.834z" fill="#374151"/><path d="m156.067 377.246c-.556.556-.575 1.001-.074 1.649.259.315.555.481.926.481 1.204 0 1.723-1.481.796-2.204-.648-.5-1.093-.481-1.648.074z" fill="#374151"/><path d="m163.68 377.172c-.982.76-.389 2.204.889 2.204.463 0 .741-.129 1.019-.481.5-.649.482-1.093-.074-1.649s-1.186-.593-1.834-.074z" fill="#374151"/><path d="m437.654 377.079c-.371.352-.371.334 0 1.556.907 3.075 6.779 13.134 11.559 19.821 3.668 5.15 3.742 5.28 5.39 9.726.815 2.241 1.742 4.779 2.057 5.649.833 2.39 1.87 3.02 2.5 1.501.593-1.389-.074-4.631-1.722-8.54-1.168-2.76-1.983-4.075-6.132-9.836-2.019-2.797-4.724-6.706-5.983-8.67-1.279-1.945-3.39-5.168-4.687-7.15-1.778-2.686-2.353-3.705-2.26-3.983.148-.463-.296-.5-.722-.074z" fill="#60a5fa"/><path d="m120.037 377.839c-.945.352-1.26 1.556-.556 2.186.852.759 2.223.185 2.223-.926 0-.834-.907-1.538-1.667-1.26z" fill="#374151"/><path d="m195.597 378.691c-.574.445-.778 1.037-.537 1.612.408.963 2.112 1.092 2.594.185.296-.556.222-1.39-.149-1.723-.407-.37-1.481-.407-1.908-.074z" fill="#374151"/><path d="m534.424 378.913c0 .149.222.575.482.964 1.185 1.722 2.297 4.279 4.26 9.743 1.742 4.817 2.371 7.058 3.316 11.634 1.593 7.743 2.556 9.577 4.168 7.983.704-.703 1-1.87.871-3.464-.13-1.63-1.371-6.631-2.334-9.299-3.427-9.558-6.132-14.43-9.522-17.135-.982-.759-1.241-.852-1.241-.426z" fill="#60a5fa"/><g fill="#374151"><path d="m149.713 379.988c-.686.722-.5 1.704.389 2.074 1.463.612 2.63-.944 1.519-2.037-.574-.593-1.371-.612-1.908-.037z"/><path d="m174.313 379.876c-.945.334-1.223 1.427-.556 2.094 1.112 1.111 2.927-.445 1.908-1.63-.37-.426-.926-.612-1.352-.464z"/><path d="m125.965 381.729c-.926.333-1.26 1.556-.593 2.149.463.426 1.575.407 1.945-.019.408-.444.408-1.389 0-1.741-.407-.352-.982-.519-1.352-.389z"/><path d="m189.077 382.303c-.778.871.055 2.631 1.241 2.631 1.223 0 1.76-1.538.852-2.501-.537-.574-1.63-.648-2.093-.13z"/><path d="m133.319 383.044c-.185.204-.315.649-.315 1.112 0 .592.111.833.482 1.13.278.222.629.389.815.389.185 0 .537-.167.815-.389 1.019-.797.389-2.575-.945-2.575-.296 0-.685.148-.852.333z"/><path d="m164.68 383.544c-.574.612-.574 1.519-.018 1.982.963.778 2.241.093 2.241-1.204 0-1.185-1.37-1.685-2.223-.778z"/><path d="m183.483 384.045c-.519.296-.649.518-.649 1.185 0 .741.5 1.186 1.334 1.186 1.037 0 1.63-.945 1.167-1.834-.352-.704-1.149-.945-1.852-.537z"/><path d="m201.044 386.971c-.519.204-.797.741-.797 1.538 0 1.019.945 1.612 1.834 1.148 1.537-.778.556-3.315-1.037-2.686z"/><path d="m144.211 387.601c-.574.574-.611 1.538-.074 2.223.76.963 2.056.445 2.316-.908.259-1.426-1.242-2.315-2.242-1.315z"/><path d="m156.27 387.509c-.463.5-.463 1.574.019 2.185.482.667 1.5.797 1.982.26.445-.482.426-1.612-.018-2.223-.482-.63-1.501-.76-1.983-.222z"/><path d="m177.888 387.897c-.852.352-1.056 1.594-.389 2.223.852.797 2.371.149 2.371-1 0-.333-.111-.741-.222-.908-.296-.389-1.204-.555-1.76-.315z"/><path d="m117.536 390.028c-1.259 1.241.389 3.297 1.742 2.167.648-.518.685-1.352.111-2.037-.612-.723-1.241-.76-1.853-.13z"/><path d="m170.145 390.398c-.908.89-.426 2.316.797 2.316.555 0 1.444-.463 1.593-.834.574-1.537-1.223-2.667-2.39-1.482z"/><path d="m137.116 390.417c-.296.204-.407.463-.407 1s.111.797.407 1c.89.63 2.001.074 2.001-1s-1.111-1.63-2.001-1z"/><path d="m128.132 391.176c-.352.426-.426.76-.259 1.39.129.518.796.852 1.426.722.889-.167 1.26-1.519.593-2.112-.445-.407-1.389-.407-1.76 0z"/><path d="m209.454 392.306c-.482.537-.408 1.427.166 1.871.649.519 1.278.482 1.834-.074s.574-1 .074-1.649c-.463-.592-1.593-.685-2.074-.148z"/><path d="m150.787 392.288c-1.352.5-1.185 2.389.26 2.76.574.13 1.185-.204 1.407-.778.278-.686.223-.926-.222-1.445-.463-.482-1-.685-1.445-.537z"/><path d="m190.337 392.843c-.649.167-1.205.816-1.205 1.445 0 1.075.982 1.519 2.279 1.038 1.037-.408 1.13-1.816.13-2.334-.556-.297-.593-.297-1.204-.149z"/><path d="m198.858 393.492c-.519.296-.649.518-.649 1.185 0 .778.575 1.279 1.519 1.279.556 0 .834-.112 1.093-.445.5-.611.445-1.074-.185-1.704-.574-.556-1.149-.667-1.778-.315z"/><path d="m159.475 394.362c-.593.482-.593 1.594.019 2.094.926.759 2.426-.093 2.149-1.223-.278-1.13-1.334-1.537-2.168-.871z"/><path d="m178.796 395.233c-.648.445-.519 1.556.222 1.908.482.222.612.222 1.019 0 .667-.37.778-1.482.167-1.908-.222-.167-.537-.296-.704-.296s-.482.129-.704.296z"/><path d="m183.316 395.974c-.778.778-.426 1.927.741 2.408.5.204.722.222 1.056.056.555-.297.685-.519.685-1.241 0-1.204-1.667-2.038-2.482-1.223z"/><path d="m141.192 396.474c-.778.815-.334 1.982.833 2.279 1.038.259 2.094-.889 1.723-1.853-.333-.889-1.889-1.148-2.556-.426z"/><path d="m134.041 396.993c-.518.407-.611.945-.296 2.001.389 1.37 1.612 1.926 2.408 1.129.908-.907-.055-3.519-1.297-3.519-.185 0-.537.167-.815.389z"/><path d="m112.257 397.16c-.556.556-.482 1.352.204 1.926.315.26.667.482.778.482 1.018-.019 1.759-.908 1.445-1.723-.389-1-1.723-1.389-2.427-.685z"/><path d="m165.421 397.4c-.87.445-1.055 1.723-.315 2.205.501.315 1.39.148 1.779-.334.481-.611.481-1.018.074-1.519-.445-.5-.982-.629-1.538-.352z"/><path d="m122.556 398.475c-1.037.815-.352 2.575.982 2.575 1.352 0 1.797-1.39.778-2.427-.648-.63-1.093-.667-1.76-.148z"/><path d="m212.695 398.475c-.5.185-1.018 1.297-.833 1.778.37 1.075 1.445 1.315 2.186.5 1.074-1.148.055-2.852-1.353-2.278z"/><path d="m205.508 400.272c-.685.444-.723 1.722-.074 2.074 1.352.723 2.612-.592 1.741-1.815-.278-.408-1.223-.556-1.667-.259z"/><path d="m193.3 400.531c-.963.519-1.13 1.556-.352 2.167.704.556 1.482.5 2.131-.148.592-.611.685-1.204.241-1.834-.315-.444-1.353-.555-2.02-.185z"/><path d="m175.628 402.272c-.945 1.204.037 2.816 1.39 2.297.518-.203 1.055-1.278.87-1.796-.37-1.075-1.593-1.353-2.26-.501z"/><path d="m150.769 402.569c-.297.092-.593.407-.723.722-.204.482-.185.63.13 1.056.759 1.037 2.278.611 2.278-.611 0-.908-.815-1.464-1.685-1.167z"/><path d="m158.141 403.05c-.389.426-.407 1.315-.055 1.797.167.241.481.352.945.352.463 0 .778-.111.944-.352.371-.5.315-1.463-.074-1.815-.463-.408-1.389-.389-1.76.018z"/><path d="m116.832 403.606c-.407.463-.389 1.389.019 1.76.444.407 1.389.407 1.76-.019.463-.518.481-1.333.018-1.778-.389-.407-1.426-.37-1.797.037z"/><path d="m141.284 405.125c-.944.741-.426 2.223.778 2.223.371 0 .667-.167.945-.5.926-1.186-.537-2.649-1.723-1.723z"/><path d="m109.941 405.588c-.555.556-.592 1.186-.074 1.834.463.593 1.427.667 1.89.148.5-.555.407-1.611-.167-2.056-.648-.5-1.093-.481-1.649.074z"/><path d="m183.983 405.737c-.834.889-.26 2.167.963 2.167 1.334 0 2.075-1.371 1.223-2.223-.538-.537-1.668-.5-2.186.056z"/><path d="m200.488 405.866c-.815.333-1.056 1.593-.426 2.223.833.833 2.223.204 2.223-.982 0-.945-.927-1.593-1.797-1.241z"/><path d="m217.16 406.459c-.501.241-1.019 1.296-.871 1.76.407 1.111 1.445 1.315 2.316.444.666-.667.685-1.352.074-1.963-.482-.501-.871-.556-1.519-.241z"/><path d="m163.328 406.755c-.5.556-.407 1.612.167 2.056.815.649 1.649.482 2.019-.407.278-.667.056-1.519-.463-1.797-.556-.296-1.389-.222-1.723.148z"/><path d="m122.816 406.922c-1.13.408-1.26 1.575-.278 2.445 1.037.908 2.13.704 2.426-.444.149-.575-.37-1.501-1.037-1.853-.574-.296-.667-.315-1.111-.148z"/><path d="m191.411 407.552c-1.093.315-1.519 1.482-.797 2.204.575.574 2.094.519 2.686-.093.575-.555.593-1.055.056-1.63-.5-.555-1.13-.704-1.945-.481z"/><path d="m98.7342 407.941c-.2408.259-.3705.648-.3705 1.093 0 1.315 1.4264 1.871 2.2783.87.426-.5.408-1.667-.018-2.056-.482-.444-1.4267-.389-1.8898.093z"/><path d="m170.052 407.904c-.796.796-.185 2.037 1.001 2.037.463 0 .722-.129.926-.407.648-.908.13-2.001-.926-2.001-.389 0-.778.148-1.001.371z"/><path d="m206.712 408.052c-.519.444-.556 1.352-.056 2.019 1.112 1.482 3.112.537 2.409-1.13-.482-1.149-1.538-1.538-2.353-.889z"/><path d="m130.781 408.274c-.519.519-.482 1.39.093 1.945.241.26.63.463.833.463.538 0 1.297-.815 1.297-1.389 0-.611-.778-1.389-1.389-1.389-.26 0-.63.166-.834.37z"/><path d="m155.178 410.831c-.408.463-.389 1.389.018 1.759.352.315 1.26.408 1.63.167.371-.241.648-.963.537-1.334-.296-.926-1.574-1.259-2.185-.592z"/><path d="m115.647 411.794c-.834.333-1.075 1.76-.426 2.408.852.852 2.223.111 2.223-1.204 0-.908-.945-1.538-1.797-1.204z"/><path d="m142.952 412.127c-.389.426-.408 1.316-.019 1.853.389.574 1.612.574 2.001 0 .407-.575.37-1.112-.093-1.704-.463-.593-1.426-.667-1.889-.149z"/><path d="m175.35 412.553c-.611.482-.666 1.427-.092 1.945.574.519 2.056.482 2.593-.055.556-.556.556-1.482 0-1.945-.593-.463-1.871-.445-2.501.055z"/><path d="m200.377 412.683c-.482.518-.408 1.63.148 2.167.556.556 1 .574 1.649.074 1.018-.796.389-2.575-.945-2.575-.297 0-.686.149-.852.334z"/><path d="m87.2491 412.683c-.9262.296-1.2781 1.704-.5927 2.316 1.0188.926 2.5933-.278 2.0932-1.594-.1853-.481-1.0188-.87-1.5005-.722z"/><path d="m103.995 413.869c-.796.37-1.093 1.87-.482 2.426.186.185.63.315 1.001.315 1.519 0 2.037-2.001.685-2.686-.593-.315-.667-.315-1.204-.055z"/><path d="m164.199 414.554c-.315.185-.686.611-.815.926-.223.537-.204.648.129 1.093.426.593.982.704 1.742.389 1.148-.463 1.352-1.964.333-2.482-.667-.352-.704-.352-1.389.074z"/><path d="m126.132 415.11c-.704.704-.723 1.519-.056 2.037.648.519 1.037.482 1.723-.092.759-.63.796-1.538.092-2.094-.667-.518-1.111-.481-1.759.149z"/><path d="m186.169 414.943c-.538.537-.482 1.371.111 1.834 1 .796 2.667.222 2.667-.926 0-.815-.574-1.278-1.574-1.278-.593 0-.945.111-1.204.37z"/><path d="m134.838 415.091c-.852.704-.315 2.26.796 2.26 1.13 0 1.686-1.445.853-2.223-.501-.463-1.093-.481-1.649-.037z"/><path d="m148.935 416.462c-.519.574-.482 1.334.111 1.797.648.5 1.093.481 1.649-.074.574-.556.592-1.204.037-1.723-.556-.519-1.316-.519-1.797 0z"/><path d="m192.393 416.406c-.426.463-.426 1.019 0 3.112.111.575 1.074.871 1.759.519.667-.352.908-.796.908-1.667 0-1.741-1.723-3.001-2.667-1.964z"/><path d="m213.121 416.814c-.5.444-.648.722-.648 1.185 0 1.093 1 1.649 2.019 1.13.686-.37.945-.815.945-1.648 0-1.278-1.204-1.63-2.316-.667z"/><path d="m95.1589 417.351c-1.0188.797-.389 2.408.9263 2.408.6669 0 1.3523-.704 1.3523-1.389 0-1.093-1.3894-1.704-2.2786-1.019z"/><path d="m81.5066 418.499c-1.1485 1.223.6113 3.039 1.8524 1.908.4817-.444.5002-1.574.0371-2-.4816-.445-1.4264-.389-1.8895.092z"/><path d="m205.786 418.333c-.389.296-.723.945-.723 1.426 0 .537.815 1.297 1.39 1.297.666 0 1.389-.778 1.389-1.482 0-1.074-1.278-1.852-2.056-1.241z"/><path d="m221.661 418.499c-.407.556-.37 1.686.037 2.057.908.815 2.26.129 2.26-1.149 0-.185-.167-.556-.389-.834-.5-.629-1.5-.666-1.908-.074z"/><path d="m119.944 419.24c-.537.297-.648.519-.648 1.279 0 .852.519 1.352 1.426 1.352 1.297 0 1.779-1.352.816-2.316-.575-.574-1.001-.648-1.594-.315z"/><path d="m180.778 419.296c-.889.482-.852 1.76.056 2.39.926.648 2 0 2-1.223 0-1.074-1.093-1.704-2.056-1.167z"/><path d="m173.016 421.241c-.555.556-.481 1.408.167 2.056.648.63 1.093.667 1.76.148.556-.426.611-1.037.204-1.815-.426-.852-1.482-1.037-2.131-.389z"/><path d="m109.404 422.556c-.5.408-.63 1.038-.296 1.649.241.426 1.704 1.112 2.426 1.112.575 0 1.093-.575 1.093-1.223 0-.834-1.352-1.927-2.371-1.927-.204 0-.574.167-.852.389z"/><path d="m152.306 422.834c-.537.371-.555 1.408-.037 1.927.797.796 2.038.185 2.038-1.001 0-.703-.519-1.222-1.204-1.222-.204 0-.574.13-.797.296z"/><path d="m197.209 422.89c-.482.537-.333 1.649.296 2.112.426.315.575.333 1.038.148.944-.389 1.167-1.482.444-2.297-.37-.426-1.37-.408-1.778.037z"/><path d="m206.916 423.093c-1.075 1.075.444 2.983 1.926 2.409 1.056-.389 1.093-1.797.056-2.409-.76-.463-1.519-.463-1.982 0z"/><path d="m128.929 423.242c-.908.296-1.26 1.537-.593 2.13.463.408 1.389.389 1.76-.018.333-.352.407-1.26.166-1.649-.185-.296-1-.574-1.333-.463z"/><path d="m135.449 423.835c-.518.481-.537 1.481-.074 1.908.482.444 1.426.389 1.89-.093 1.148-1.223-.593-2.964-1.816-1.815z"/><path d="m161.717 424.149c-.297.371-.371.667-.297 1.075.334 1.686 2.594 1.519 2.594-.185 0-1.316-1.501-1.89-2.297-.89z"/><path d="m144.119 424.298c-.334.37-.408.574-.315 1.148.166.982.685 1.612 1.407 1.686 1.13.111 1.76-1.019 1.242-2.242-.463-1.111-1.575-1.407-2.334-.592z"/><path d="m91.8061 425.168c-.389.556-.3705 1.112.0741 1.686.4446.556 1.0929.759 1.7228.519.5372-.204.8891-1.056.6668-1.612-.3519-.982-1.9265-1.352-2.4637-.593z"/><path d="m187.965 425.316c-.759.612-.796 1.779-.055 2.26.444.315 1.352.149 1.778-.314 1.223-1.297-.315-3.057-1.723-1.946z"/><path d="m182.093 426.243c-.222.222-.37.611-.37.982 0 1.574 2.352 2.019 2.686.518.315-1.426-1.334-2.482-2.316-1.5z"/><path d="m212.195 426.706c-.982.963-.259 2.667 1.149 2.686 1.296 0 1.611-2.019.444-2.908-.463-.371-1.111-.278-1.593.222z"/><path d="m118.24 426.613c-1.297.519-.908 2.594.482 2.594.63 0 1.315-.723 1.315-1.39 0-.87-.982-1.519-1.797-1.204z"/><path d="m201.173 426.798c-.574.575-.667 1.26-.241 1.816 1.019 1.352 2.964.037 2.168-1.464-.408-.796-1.316-.963-1.927-.352z"/><path d="m218.252 427.354c-.648.408-1.018 1.112-.833 1.612.389 1.13 1.593 1.333 2.482.444.797-.796.741-1.76-.148-2.223-.556-.278-.797-.259-1.501.167z"/><path d="m192.3 427.836c-.519.648-.481 1.037.093 1.723.926 1.111 2.297.592 2.297-.834 0-1.223-1.649-1.834-2.39-.889z"/><path d="m101.846 429.04c-.704.407-.426.63 2.056 1.612.204.074.223-.019.13-.445-.278-1.13-1.315-1.686-2.186-1.167z"/><path d="m126.743 429.503c-.982.685-.148 2.575 1.111 2.445.76-.074 1.353-.852 1.186-1.519-.278-1.093-1.408-1.556-2.297-.926z"/><path d="m168.756 429.892c-.593.222-.926.685-.926 1.278 0 1.464 2.5 1.945 2.852.537.167-.667-.315-1.5-1.019-1.741-.333-.111-.592-.204-.611-.185-.018 0-.148.055-.296.111z"/><path d="m175.869 431.077c-.463.167-1 .852-1 1.297 0 .167.167.519.389.797.667.852 2.056.593 2.426-.463.315-.871-.926-1.964-1.815-1.631z"/><path d="m150.009 431.374c-.704.796-.518 1.963.352 2.297 1.315.5 2.519-1.26 1.538-2.242-.463-.463-1.501-.5-1.89-.055z"/><path d="m199.154 432.096c-.463.593-.482.852-.111 1.556.333.649.796.927 1.537.927 1.019 0 1.427-.964.871-2.038-.537-1.037-1.667-1.241-2.297-.445z"/><path d="m111.145 432.17c-.852.853-.111 2.409 1.167 2.409 1.408 0 1.76-1.853.482-2.501-.704-.371-1.204-.352-1.649.092z"/><path d="m133.004 432.226c-1.426.722-.815 2.538.852 2.538.259 0 .667-.204.908-.463.759-.741.518-1.723-.537-2.131-.63-.24-.667-.222-1.223.056z"/><path d="m139.117 433.319c-.445.482-.482 1.037-.074 1.593.222.315.463.408 1.074.408.927 0 1.408-.408 1.408-1.167 0-1.13-1.611-1.686-2.408-.834z"/><path d="m183.52 433.986c-.426.463-.389 1.259.055 1.704 1.019 1.019 2.575-.315 1.723-1.464-.463-.611-1.334-.74-1.778-.24z"/><path d="m189.725 434.023c-.833.778-.167 2.408.982 2.408 1.148 0 1.649-1.648.722-2.389-.629-.501-1.185-.501-1.704-.019z"/><path d="m206.582 434.079c-1.185 1.259.704 2.889 2.149 1.87.537-.37.556-1.407.037-1.926-.537-.537-1.667-.5-2.186.056z"/><path d="m120.778 435.283c-.611.5-.722 1.908-.204 2.426.556.556 1.241.5 1.89-.148.685-.704.722-1.519.074-2.149-.537-.537-1.186-.592-1.76-.129z"/><path d="m157.475 436.172c-.445.574-.482.796-.167 1.445.315.704 2.019 1.13 2.519.629.389-.389.259-1.37-.259-1.982-.63-.759-1.538-.796-2.093-.092z"/><path d="m201.099 437.042c-.593.593-.611 1.075-.037 1.723.333.408.593.519 1.148.5 1.779-.055 1.816-2.297.037-2.575-.555-.092-.759-.037-1.148.352z"/><path d="m175.11 437.172c-1.297.519-.834 2.593.574 2.593 1.26 0 1.76-1.5.778-2.352-.537-.463-.723-.5-1.352-.241z"/><path d="m213.677 437.765c-.519.296-.648.518-.648 1.185 0 .723.685 1.39 1.463 1.408 1.315.037 1.797-1.445.741-2.334-.611-.519-.982-.593-1.556-.259z"/><path d="m194.968 439.395c-1.39.537-1.075 2.593.407 2.593.611 0 1.352-.778 1.352-1.445 0-.852-.963-1.482-1.759-1.148z"/><path d="m184.316 441.247c-.5.5-.463 1.223.093 1.76.611.63 1.426.611 1.926-.019.501-.648.482-1.093-.074-1.648-.556-.575-1.426-.612-1.945-.093z"/><path d="m206.045 444.434c-.222.24-.407.555-.426.703-.093.612.019 1.112.204 1.112.5 0 2.389-.815 2.389-1.019 0-.13-.166-.444-.389-.722-.481-.612-1.259-.63-1.778-.074z"/><path d="m189.299 445.23c-.574.315-.796.982-.537 1.649.333.87 1.556 1.148 2.223.481.482-.481.463-1.167-.037-1.741-.556-.593-1.056-.704-1.649-.389z"/><path d="m200.136 446.286c-.408.185-.815.871-.815 1.334 0 .148.148.444.333.648l.315.408.926-.408c.519-.222.982-.482 1.038-.593.222-.315-.204-1.185-.686-1.408-.537-.24-.592-.24-1.111.019z"/><path d="m182.556 446.805c-.074.111.167.185.593.185.519 0 .63-.056.426-.185-.37-.241-.87-.241-1.019 0z"/></g></g></svg>