<svg fill="none" height="508" viewBox="0 0 628 508" width="628" xmlns="http://www.w3.org/2000/svg" xmlns:xlink="http://www.w3.org/1999/xlink"><clipPath id="a"><rect height="32" rx="4" width="162" x="207" y="60.5"/></clipPath><clipPath id="b"><path d="m24 153.5h580v34h-580z"/></clipPath><clipPath id="c"><path d="m24 157.5c0-2.209 1.7909-4 4-4h31c2.2091 0 4 1.791 4 4v30h-39z"/></clipPath><clipPath id="d"><path d="m67 157.5c0-2.209 1.7909-4 4-4h127c2.209 0 4 1.791 4 4v28h-135z"/></clipPath><clipPath id="e"><path d="m206 157.5c0-2.209 1.791-4 4-4h110c2.209 0 4 1.791 4 4v29h-118z"/></clipPath><rect fill="#fff" height="507" rx="8" width="628" y=".5"/><path d="m29.256 31.124-4.84 1.952v2.176l2.68-1.088v8.336h2.16zm3.4305 8.472c-.832 0-1.56.712-1.56 1.544 0 .84.728 1.56 1.56 1.56.824 0 1.544-.72 1.544-1.56 0-.832-.72-1.544-1.544-1.544zm15.8946-7.296c-1.408-.84-2.712-1.192-4.28-1.192-2.384 0-4.464 1.216-4.464 3.552 0 2.024 1.44 2.896 3.416 3.208l.712.112c1.56.248 2.376.536 2.376 1.312 0 .864-.96 1.352-2.2 1.352-1.44 0-2.76-.56-3.568-1.208l-1.16 1.8c1.2.968 3.024 1.464 4.72 1.464 2.408 0 4.584-1.176 4.584-3.648 0-1.952-1.568-2.808-3.568-3.136l-.632-.104c-1.344-.224-2.312-.472-2.312-1.296 0-.848.888-1.344 2.144-1.344 1.224 0 2.296.408 3.176.952zm5.4143 2.24c-2.32 0-3.92 1.664-3.92 4.104s1.648 4.056 4.024 4.056c1.304 0 2.424-.368 3.304-1.176l-1.224-1.344c-.56.472-1.288.744-1.96.744-.984 0-1.768-.488-1.992-1.608h5.496c.024-.176.04-.464.04-.704-.008-2.416-1.536-4.072-3.768-4.072zm-.016 1.8c.896 0 1.496.56 1.688 1.552h-3.432c.184-.96.76-1.552 1.744-1.552zm7.4702-5.36h-2.088v11.52h2.088zm5.5333 3.56c-2.32 0-3.92 1.664-3.92 4.104s1.648 4.056 4.024 4.056c1.304 0 2.424-.368 3.304-1.176l-1.224-1.344c-.56.472-1.288.744-1.96.744-.984 0-1.768-.488-1.992-1.608h5.496c.024-.176.04-.464.04-.704-.008-2.416-1.536-4.072-3.768-4.072zm-.016 1.8c.896 0 1.496.56 1.688 1.552h-3.432c.184-.96.76-1.552 1.744-1.552zm9.0302-1.8c-2.472 0-4.128 1.736-4.128 4.08 0 2.352 1.656 4.08 4.128 4.08 1.296 0 2.384-.52 3.112-1.456l-1.488-1.272c-.44.48-1.016.784-1.688.784-1.08 0-1.936-.84-1.936-2.136 0-1.288.864-2.136 1.944-2.136.68 0 1.184.272 1.656.776l1.504-1.256c-.712-.936-1.808-1.464-3.104-1.464zm10.2198.208h-2.808v-2.304h-2.088v2.304h-1.496v1.856h1.496v3c0 2.008.984 3.096 2.904 3.096 1.104 0 1.888-.352 2.568-.816l-.768-1.632c-.424.256-.96.504-1.456.504-.648 0-1.16-.352-1.16-1.32v-2.832h2.808zm13.2299 0h-2.04v.856c-.512-.632-1.256-1.064-2.32-1.064-2.136 0-3.752 1.752-3.752 4.08s1.616 4.08 3.752 4.08c1.064 0 1.816-.432 2.32-1.056v.856h2.04zm-3.976 1.736c1.192 0 2 .912 2 2.136s-.808 2.136-2 2.136c-1.224 0-2-.952-2-2.136s.776-2.136 2-2.136zm15.4872-1.736h-2.808v-2.304h-2.088v2.304h-1.496v1.856h1.496v3c0 2.008.984 3.096 2.904 3.096 1.104 0 1.888-.352 2.568-.816l-.768-1.632c-.424.256-.96.504-1.456.504-.648 0-1.16-.352-1.16-1.32v-2.832h2.808zm9.282 0h-2.04v.856c-.512-.632-1.256-1.064-2.32-1.064-2.136 0-3.752 1.752-3.752 4.08s1.616 4.08 3.752 4.08c1.064 0 1.816-.432 2.32-1.056v.856h2.04zm-3.976 1.736c1.192 0 2 .912 2 2.136s-.808 2.136-2 2.136c-1.224 0-2-.952-2-2.136s.776-2.136 2-2.136zm10.281-1.944c-.952 0-1.696.328-2.184 1.056v-.848h-2.024v7.752h2.088v-4.224c0-1.152.664-1.744 1.632-1.744.424 0 .92.096 1.264.248l.312-2.072c-.288-.104-.64-.168-1.088-.168zm5.233 0c-1.888 0-3.568 1.576-3.568 3.96 0 2.376 1.68 3.952 3.568 3.952 1.072 0 1.856-.4 2.384-1.048v.544c0 1.336-.912 2.056-2.208 2.056-.928 0-1.784-.28-2.56-.792l-.744 1.704c.872.616 2.168.936 3.392.936 2.56 0 4.184-1.504 4.184-3.992v-7.112h-2.048v.864c-.528-.656-1.32-1.072-2.4-1.072zm.528 1.92c1.16 0 1.944.88 1.944 2.04 0 1.152-.784 2.032-1.944 2.032-1.192 0-1.952-.912-1.952-2.032 0-1.128.76-2.04 1.952-2.04zm9.458-1.92c-2.32 0-3.92 1.664-3.92 4.104s1.648 4.056 4.024 4.056c1.304 0 2.424-.368 3.304-1.176l-1.224-1.344c-.56.472-1.288.744-1.96.744-.984 0-1.768-.488-1.992-1.608h5.496c.024-.176.04-.464.04-.704-.008-2.416-1.536-4.072-3.768-4.072zm-.016 1.8c.896 0 1.496.56 1.688 1.552h-3.432c.184-.96.76-1.552 1.744-1.552zm10.928-1.592h-2.808v-2.304h-2.088v2.304h-1.496v1.856h1.496v3c0 2.008.984 3.096 2.904 3.096 1.104 0 1.888-.352 2.568-.816l-.768-1.632c-.424.256-.96.504-1.456.504-.648 0-1.16-.352-1.16-1.32v-2.832h2.808z" fill="#141721"/><path d="m24 64.5c0-2.2091 1.7909-4 4-4h171c2.209 0 4 1.7909 4 4v24c0 2.2091-1.791 4-4 4h-171c-2.2091 0-4-1.7909-4-4z" fill="#e3eeff"/><path d="m46.924 71.7h-1.624l-2.338 7.973-2.415-7.973h-1.799l-2.422 7.973-2.331-7.973h-1.659l2.989 9.8h1.96l2.345-7.651 2.345 7.651h1.96zm7.6991 3.094h-1.61l-2.079 3.85-2.156-3.85h-1.645l2.975 5.327-2.401 4.221h1.624zm4.1149-.175c-2.072 0-3.605 1.519-3.605 3.528s1.533 3.528 3.605 3.528 3.612-1.519 3.612-3.528-1.54-3.528-3.612-3.528zm0 1.379c1.197 0 2.107.882 2.107 2.149s-.91 2.149-2.107 2.149-2.1-.882-2.1-2.149.903-2.149 2.1-2.149zm13.6039-1.379c-.833 0-1.869.238-2.45 1.197-.462-.742-1.295-1.197-2.317-1.197-.686 0-1.519.203-2.058.994v-.819h-1.456v6.706h1.47v-3.717c0-1.148.791-1.771 1.736-1.771.98 0 1.561.63 1.561 1.757v3.731h1.47v-3.717c0-1.148.791-1.771 1.736-1.771.98 0 1.561.63 1.561 1.757v3.731h1.47v-4.214c0-1.568-1.127-2.667-2.723-2.667zm6.3234.175h-1.47v6.706h1.47zm-.742-3.353c-.581 0-1.022.455-1.022 1.036s.441 1.022 1.022 1.022 1.036-.441 1.036-1.022-.455-1.036-1.036-1.036zm6.4457 3.178c-.686 0-1.519.203-2.058.994v-.819h-1.456v6.706h1.47v-3.717c0-1.148.791-1.771 1.736-1.771.98 0 1.561.63 1.561 1.757v3.731h1.47v-4.214c0-1.568-1.127-2.667-2.723-2.667zm7.4739 0c-1.533 0-3.108 1.288-3.108 3.458s1.575 3.458 3.108 3.458c.973 0 1.729-.336 2.233-.98v.539c0 1.246-.756 2.002-2.128 2.002-.819 0-1.596-.266-2.275-.679l-.532 1.239c.707.504 1.806.777 2.807.777 2.24 0 3.598-1.295 3.598-3.402v-6.237h-1.47v.805c-.504-.637-1.26-.98-2.233-.98zm.378 1.379c1.183 0 1.981.903 1.981 2.079s-.798 2.079-1.981 2.079c-1.239 0-1.981-.952-1.981-2.079 0-1.134.742-2.079 1.981-2.079zm13.9781-4.48c-3.01 0-5.131 2.156-5.131 5.082s2.121 5.082 5.131 5.082c1.715 0 3.185-.756 4.018-1.981l-1.288-.945c-.609.882-1.568 1.407-2.73 1.407-2.002 0-3.472-1.449-3.472-3.563s1.47-3.563 3.472-3.563c1.169 0 2.142.546 2.737 1.414l1.323-.882c-.77-1.274-2.317-2.051-4.06-2.051zm12.141 3.276h-1.463v.812c-.462-.595-1.155-.987-2.107-.987-1.876 0-3.353 1.477-3.353 3.528s1.477 3.528 3.353 3.528c.952 0 1.645-.385 2.107-.98v.805h1.463zm-3.395 1.204c1.211 0 2.023.924 2.023 2.149s-.812 2.149-2.023 2.149c-1.26 0-2.023-.973-2.023-2.149s.763-2.149 2.023-2.149zm7.062-4.578h-1.47v10.08h1.47zm3.659 0h-1.47v10.08h1.47zm10.645.098c-3.01 0-5.131 2.156-5.131 5.082s2.121 5.082 5.131 5.082c1.715 0 3.185-.756 4.018-1.981l-1.288-.945c-.609.882-1.568 1.407-2.73 1.407-2.002 0-3.472-1.449-3.472-3.563s1.47-3.563 3.472-3.563c1.169 0 2.142.546 2.737 1.414l1.323-.882c-.77-1.274-2.317-2.051-4.06-2.051zm8.557 3.101c-1.974 0-3.339 1.428-3.339 3.528 0 2.128 1.421 3.528 3.43 3.528 1.015 0 1.939-.245 2.758-.945l-.728-1.043c-.553.441-1.267.707-1.939.707-.952 0-1.799-.504-1.995-1.708h4.956c.014-.168.028-.357.028-.546-.007-2.093-1.295-3.521-3.171-3.521zm-.028 1.302c.931 0 1.54.609 1.701 1.652h-3.479c.154-.98.735-1.652 1.778-1.652zm8.42-1.302c-.686 0-1.519.203-2.058.994v-.819h-1.456v6.706h1.47v-3.717c0-1.148.791-1.771 1.736-1.771.98 0 1.561.63 1.561 1.757v3.731h1.47v-4.214c0-1.568-1.127-2.667-2.723-2.667zm9.351.175h-2.569v-2.03h-1.47v2.03h-1.337v1.33h1.337v2.947c0 1.785.889 2.604 2.408 2.604.84 0 1.519-.301 2.058-.665l-.581-1.169c-.399.252-.896.455-1.351.455-.588 0-1.064-.35-1.064-1.253v-2.919h2.569zm4.543-.175c-1.974 0-3.339 1.428-3.339 3.528 0 2.128 1.421 3.528 3.43 3.528 1.015 0 1.939-.245 2.758-.945l-.728-1.043c-.553.441-1.267.707-1.939.707-.952 0-1.799-.504-1.995-1.708h4.956c.014-.168.028-.357.028-.546-.007-2.093-1.295-3.521-3.171-3.521zm-.028 1.302c.931 0 1.54.609 1.701 1.652h-3.479c.154-.98.735-1.652 1.778-1.652zm8.301-1.302c-.819 0-1.505.294-1.946.931v-.756h-1.449v6.706h1.463v-3.689c0-1.141.665-1.799 1.596-1.799.357 0 .805.084 1.113.245l.35-1.449c-.336-.133-.679-.189-1.127-.189z" fill="#0009b0"/><path d="m185.083 75.333 2.917 2.9167 2.917-2.9167z" fill="#141721"/><g clip-path="url(#a)"><path d="m226.083 77.0837h-3.5v3.5h-1.166v-3.5h-3.5v-1.1667h3.5v-3.5h1.166v3.5h3.5z" fill="#1738fa"/><path d="m239.055 71.7h-1.974l-3.871 9.8h1.645l.966-2.499h4.438l.966 2.499h1.701zm-1.015 1.575 1.638 4.228h-3.276zm8.94 1.344c-1.876 0-3.353 1.477-3.353 3.528s1.477 3.528 3.353 3.528c.952 0 1.645-.385 2.108-.98v.805h1.463v-10.08h-1.463v4.186c-.463-.595-1.156-.987-2.108-.987zm.175 1.379c1.211 0 2.024.924 2.024 2.149s-.813 2.149-2.024 2.149c-1.26 0-2.023-.973-2.023-2.149s.763-2.149 2.023-2.149zm8.462-1.379c-1.876 0-3.353 1.477-3.353 3.528s1.477 3.528 3.353 3.528c.952 0 1.645-.385 2.107-.98v.805h1.463v-10.08h-1.463v4.186c-.462-.595-1.155-.987-2.107-.987zm.175 1.379c1.211 0 2.023.924 2.023 2.149s-.812 2.149-2.023 2.149c-1.26 0-2.023-.973-2.023-2.149s.763-2.149 2.023-2.149zm15.705-1.204h-1.463v.812c-.462-.595-1.155-.987-2.107-.987-1.876 0-3.353 1.477-3.353 3.528s1.477 3.528 3.353 3.528c.952 0 1.645-.385 2.107-.98v.805h1.463zm-3.395 1.204c1.211 0 2.023.924 2.023 2.149s-.812 2.149-2.023 2.149c-1.26 0-2.023-.973-2.023-2.149s.763-2.149 2.023-2.149zm9.105-1.379c-.686 0-1.519.203-2.058.994v-.819h-1.456v6.706h1.47v-3.717c0-1.148.791-1.771 1.736-1.771.98 0 1.561.63 1.561 1.757v3.731h1.47v-4.214c0-1.568-1.127-2.667-2.723-2.667zm7.971 0c-2.072 0-3.605 1.519-3.605 3.528s1.533 3.528 3.605 3.528 3.612-1.519 3.612-3.528-1.54-3.528-3.612-3.528zm0 1.379c1.197 0 2.107.882 2.107 2.149s-.91 2.149-2.107 2.149-2.1-.882-2.1-2.149.903-2.149 2.1-2.149zm9.825-1.204h-2.569v-2.03h-1.47v2.03h-1.337v1.33h1.337v2.947c0 1.785.889 2.604 2.408 2.604.84 0 1.519-.301 2.058-.665l-.581-1.169c-.399.252-.896.455-1.351.455-.588 0-1.064-.35-1.064-1.253v-2.919h2.569zm3.157-3.374h-1.47v10.08h1.47v-3.717c0-1.148.791-1.771 1.736-1.771.98 0 1.561.63 1.561 1.757v3.731h1.47v-4.214c0-1.568-1.127-2.667-2.723-2.667-.679 0-1.505.203-2.044.973zm9.749 3.199c-1.974 0-3.339 1.428-3.339 3.528 0 2.128 1.421 3.528 3.43 3.528 1.015 0 1.939-.245 2.758-.945l-.728-1.043c-.553.441-1.267.707-1.939.707-.952 0-1.799-.504-1.995-1.708h4.956c.014-.168.028-.357.028-.546-.007-2.093-1.295-3.521-3.171-3.521zm-.028 1.302c.931 0 1.54.609 1.701 1.652h-3.479c.154-.98.735-1.652 1.778-1.652zm8.301-1.302c-.819 0-1.505.294-1.946.931v-.756h-1.449v6.706h1.463v-3.689c0-1.141.665-1.799 1.596-1.799.357 0 .805.084 1.113.245l.35-1.449c-.336-.133-.679-.189-1.127-.189zm8.682 0c-1.533 0-3.108 1.288-3.108 3.458s1.575 3.458 3.108 3.458c.973 0 1.729-.336 2.233-.98v.539c0 1.246-.756 2.002-2.128 2.002-.819 0-1.596-.266-2.275-.679l-.532 1.239c.707.504 1.806.777 2.807.777 2.24 0 3.598-1.295 3.598-3.402v-6.237h-1.47v.805c-.504-.637-1.26-.98-2.233-.98zm.378 1.379c1.183 0 1.981.903 1.981 2.079s-.798 2.079-1.981 2.079c-1.239 0-1.981-.952-1.981-2.079 0-1.134.742-2.079 1.981-2.079zm8.919-1.379c-.819 0-1.505.294-1.946.931v-.756h-1.449v6.706h1.463v-3.689c0-1.141.665-1.799 1.596-1.799.357 0 .805.084 1.113.245l.35-1.449c-.336-.133-.679-.189-1.127-.189zm5.369 0c-2.072 0-3.605 1.519-3.605 3.528s1.533 3.528 3.605 3.528 3.612-1.519 3.612-3.528-1.54-3.528-3.612-3.528zm0 1.379c1.197 0 2.107.882 2.107 2.149s-.91 2.149-2.107 2.149-2.1-.882-2.1-2.149.903-2.149 2.1-2.149zm11.469-1.204h-1.47v3.731c0 1.295-.721 1.771-1.638 1.771s-1.638-.476-1.638-1.771v-3.731h-1.47v3.864c0 2.135 1.533 3.017 3.108 3.017 1.568 0 3.108-.882 3.108-3.017zm5.684-.175c-.952 0-1.638.385-2.1.973v-.798h-1.463v9.506h1.463v-3.598c.462.588 1.148.973 2.1.973 1.876 0 3.353-1.477 3.353-3.528s-1.477-3.528-3.353-3.528zm-.175 1.379c1.26 0 2.023.973 2.023 2.149s-.763 2.149-2.023 2.149c-1.211 0-2.023-.924-2.023-2.149s.812-2.149 2.023-2.149z" fill="#1738fa"/><rect height="31" rx="3.5" stroke="#1738fa" width="161" x="207.5" y="61"/></g><path d="m24 104.5h23v1h-23z" fill="#fff"/><path d="m25.928 127.396c.576-.656 1.208-1.232 2.272-1.232 1.032 0 1.712.696 1.712 1.672 0 .704-.328 1.32-.92 1.92l-3.96 4.056v1.688h7.4v-2.024h-4.28l2.392-2.488c.92-.952 1.616-1.904 1.616-3.272 0-2.144-1.456-3.616-3.8-3.616-2.08 0-3.216 1.136-3.824 1.928zm9.446 5.2c-.832 0-1.56.712-1.56 1.544 0 .84.728 1.56 1.56 1.56.824 0 1.544-.72 1.544-1.56 0-.832-.72-1.544-1.544-1.544zm15.8946-7.296c-1.408-.84-2.712-1.192-4.28-1.192-2.384 0-4.464 1.216-4.464 3.552 0 2.024 1.44 2.896 3.416 3.208l.712.112c1.56.248 2.376.536 2.376 1.312 0 .864-.96 1.352-2.2 1.352-1.44 0-2.76-.56-3.568-1.208l-1.16 1.8c1.2.968 3.024 1.464 4.72 1.464 2.408 0 4.584-1.176 4.584-3.648 0-1.952-1.568-2.808-3.568-3.136l-.632-.104c-1.344-.224-2.312-.472-2.312-1.296 0-.848.888-1.344 2.144-1.344 1.224 0 2.296.408 3.176.952zm5.4143 2.24c-2.32 0-3.92 1.664-3.92 4.104s1.648 4.056 4.024 4.056c1.304 0 2.424-.368 3.304-1.176l-1.224-1.344c-.56.472-1.288.744-1.96.744-.984 0-1.768-.488-1.992-1.608h5.496c.024-.176.04-.464.04-.704-.008-2.416-1.536-4.072-3.768-4.072zm-.016 1.8c.896 0 1.496.56 1.688 1.552h-3.432c.184-.96.76-1.552 1.744-1.552zm7.4702-5.36h-2.088v11.52h2.088zm5.5333 3.56c-2.32 0-3.92 1.664-3.92 4.104s1.648 4.056 4.024 4.056c1.304 0 2.424-.368 3.304-1.176l-1.224-1.344c-.56.472-1.288.744-1.96.744-.984 0-1.768-.488-1.992-1.608h5.496c.024-.176.04-.464.04-.704-.008-2.416-1.536-4.072-3.768-4.072zm-.016 1.8c.896 0 1.496.56 1.688 1.552h-3.432c.184-.96.76-1.552 1.744-1.552zm9.0302-1.8c-2.472 0-4.128 1.736-4.128 4.08 0 2.352 1.656 4.08 4.128 4.08 1.296 0 2.384-.52 3.112-1.456l-1.488-1.272c-.44.48-1.016.784-1.688.784-1.08 0-1.936-.84-1.936-2.136 0-1.288.864-2.136 1.944-2.136.68 0 1.184.272 1.656.776l1.504-1.256c-.712-.936-1.808-1.464-3.104-1.464zm10.2198.208h-2.808v-2.304h-2.088v2.304h-1.496v1.856h1.496v3c0 2.008.984 3.096 2.904 3.096 1.104 0 1.888-.352 2.568-.816l-.768-1.632c-.424.256-.96.504-1.456.504-.648 0-1.16-.352-1.16-1.32v-2.832h2.808zm13.2296 0h-2.04v.856c-.5117-.632-1.2557-1.064-2.3197-1.064-2.136 0-3.752 1.752-3.752 4.08s1.616 4.08 3.752 4.08c1.064 0 1.816-.432 2.3197-1.056v.856h2.04zm-3.9757 1.736c1.192 0 1.9997.912 1.9997 2.136s-.8077 2.136-1.9997 2.136c-1.224 0-2-.952-2-2.136s.776-2.136 2-2.136zm16.1897-1.2c-1.032-.504-2-.736-3.24-.736-2.04 0-3.272.944-3.272 2.536 0 1.32.888 2.104 2.68 2.352l.632.088c.896.128 1.288.336 1.288.712 0 .456-.464.728-1.432.728-1.168 0-1.976-.32-2.64-.76l-.824 1.584c1.008.712 2.392.912 3.448.912 2.248 0 3.56-1.032 3.56-2.632 0-1.312-.936-2.064-2.616-2.32l-.688-.104c-.704-.104-1.264-.216-1.264-.664 0-.424.4-.704 1.192-.704.872.008 1.856.328 2.472.632zm7.306-.536h-2.808v-2.304h-2.088v2.304h-1.496v1.856h1.496v3c0 2.008.984 3.096 2.904 3.096 1.104 0 1.888-.352 2.568-.816l-.768-1.632c-.424.256-.96.504-1.456.504-.648 0-1.16-.352-1.16-1.32v-2.832h2.808zm9.283 0h-2.04v.856c-.512-.632-1.256-1.064-2.32-1.064-2.136 0-3.752 1.752-3.752 4.08s1.616 4.08 3.752 4.08c1.064 0 1.816-.432 2.32-1.056v.856h2.04zm-3.976 1.736c1.192 0 2 .912 2 2.136s-.808 2.136-2 2.136c-1.224 0-2-.952-2-2.136s.776-2.136 2-2.136zm10.281-1.944c-.952 0-1.696.328-2.184 1.056v-.848h-2.024v7.752h2.088v-4.224c0-1.152.664-1.744 1.632-1.744.424 0 .92.096 1.264.248l.312-2.072c-.288-.104-.64-.168-1.088-.168zm8.191.208h-2.808v-2.304h-2.088v2.304h-1.496v1.856h1.496v3c0 2.008.984 3.096 2.904 3.096 1.104 0 1.888-.352 2.568-.816l-.768-1.632c-.424.256-.96.504-1.456.504-.648 0-1.16-.352-1.16-1.32v-2.832h2.808zm5.091-.208c-2.32 0-3.92 1.664-3.92 4.104s1.648 4.056 4.024 4.056c1.304 0 2.424-.368 3.304-1.176l-1.224-1.344c-.56.472-1.288.744-1.96.744-.984 0-1.768-.488-1.992-1.608h5.496c.024-.176.04-.464.04-.704-.008-2.416-1.536-4.072-3.768-4.072zm-.016 1.8c.896 0 1.496.56 1.688 1.552h-3.432c.184-.96.76-1.552 1.744-1.552zm9.59-1.8c-.952 0-1.696.328-2.184 1.056v-.848h-2.024v7.752h2.088v-4.224c0-1.152.664-1.744 1.632-1.744.424 0 .92.096 1.264.248l.312-2.072c-.288-.104-.64-.168-1.088-.168zm11.716.208h-2.808v-2.304h-2.088v2.304h-1.496v1.856h1.496v3c0 2.008.984 3.096 2.904 3.096 1.104 0 1.888-.352 2.568-.816l-.768-1.632c-.424.256-.96.504-1.456.504-.648 0-1.16-.352-1.16-1.32v-2.832h2.808zm5.091-.208c-2.32 0-3.92 1.664-3.92 4.104s1.648 4.056 4.024 4.056c1.304 0 2.424-.368 3.304-1.176l-1.224-1.344c-.56.472-1.288.744-1.96.744-.984 0-1.768-.488-1.992-1.608h5.496c.024-.176.04-.464.04-.704-.008-2.416-1.536-4.072-3.768-4.072zm-.016 1.8c.896 0 1.496.56 1.688 1.552h-3.432c.184-.96.76-1.552 1.744-1.552zm14.886-1.8c-1.016 0-2.032.344-2.632 1.328-.52-.824-1.44-1.328-2.56-1.328-.88 0-1.728.296-2.28 1.12v-.912h-2.032v7.752h2.088v-4.248c0-1.168.744-1.752 1.64-1.752.952 0 1.512.616 1.512 1.736v4.264h2.088v-4.248c0-1.168.744-1.752 1.64-1.752.944 0 1.512.616 1.512 1.736v4.264h2.08v-4.936c0-1.8-1.232-3.024-3.056-3.024zm9.435 0c-1.064 0-1.808.432-2.312 1.064v-.856h-2.04v10.952h2.08v-4.008c.504.6 1.24 1.008 2.28 1.008 2.136 0 3.752-1.752 3.752-4.08s-1.616-4.08-3.76-4.08zm-.384 1.944c1.232 0 2 .952 2 2.136s-.768 2.136-2 2.136c-1.184 0-1.992-.912-1.992-2.136s.808-2.136 1.992-2.136zm7.833-5.504h-2.088v11.52h2.088zm9.725 3.768h-2.04v.856c-.512-.632-1.256-1.064-2.32-1.064-2.136 0-3.752 1.752-3.752 4.08s1.616 4.08 3.752 4.08c1.064 0 1.816-.432 2.32-1.056v.856h2.04zm-3.976 1.736c1.192 0 2 .912 2 2.136s-.808 2.136-2 2.136c-1.224 0-2-.952-2-2.136s.776-2.136 2-2.136zm11.696-1.736h-2.808v-2.304h-2.088v2.304h-1.496v1.856h1.496v3c0 2.008.984 3.096 2.904 3.096 1.104 0 1.888-.352 2.568-.816l-.768-1.632c-.424.256-.96.504-1.456.504-.648 0-1.16-.352-1.16-1.32v-2.832h2.808zm5.091-.208c-2.32 0-3.92 1.664-3.92 4.104s1.648 4.056 4.024 4.056c1.304 0 2.424-.368 3.304-1.176l-1.224-1.344c-.56.472-1.288.744-1.96.744-.984 0-1.768-.488-1.992-1.608h5.496c.024-.176.04-.464.04-.704-.008-2.416-1.536-4.072-3.768-4.072zm-.016 1.8c.896 0 1.496.56 1.688 1.552h-3.432c.184-.96.76-1.552 1.744-1.552z" fill="#141721"/><g clip-path="url(#b)"><path d="m24 186.5h580v1h-580z" fill="#c6c8ce"/><g clip-path="url(#c)" fill="#1738fa"><path d="m41.1962 166.1h-1.314l-3.414 8.4h1.098l.918-2.292h4.074l.924 2.292h1.134zm-.672 1.044 1.632 4.062h-3.27zm6.2164-1.284h-.978v8.64h.978zm2.9586 0h-.978v8.64h.978z"/><path d="m24 185.5h39v2h-39z"/></g><g clip-path="url(#d)"><path d="m86.1648 169.772h-4.566v-2.67h4.806v-1.002h-5.862v8.4h1.056v-3.732h4.566zm4.2958-1.092c-1.728 0-3.012 1.278-3.012 2.97s1.284 2.97 3.012 2.97 3.018-1.278 3.018-2.97-1.29-2.97-3.018-2.97zm0 .924c1.14 0 2.01.852 2.01 2.046s-.87 2.052-2.01 2.052c-1.146 0-2.01-.858-2.01-2.052s.864-2.046 2.01-2.046zm7.1962-.924c-.678 0-1.272.312-1.668.87v-.75h-.966v5.7h.978v-3.174c0-1.05.612-1.716 1.482-1.716.324 0 .708.078.978.222l.24-.966c-.306-.132-.636-.186-1.044-.186zm11.4552-1.782c-.792-.546-1.758-.918-3.024-.918-1.77 0-3.21.906-3.21 2.526 0 1.434 1.104 2.076 2.49 2.244l.78.096c1.308.162 2.01.534 2.01 1.314 0 .948-.984 1.458-2.238 1.458-1.068 0-2.154-.426-2.736-.93l-.576.84c.81.678 2.118 1.092 3.312 1.092 1.818 0 3.336-.876 3.336-2.55 0-1.482-1.218-2.058-2.64-2.232l-.738-.09c-1.26-.156-1.902-.546-1.902-1.308 0-.906.876-1.458 2.106-1.458.972 0 1.806.312 2.49.774zm6.948 1.902h-.984v3.222c0 1.164-.69 1.68-1.614 1.68-.93 0-1.62-.516-1.62-1.68v-3.222h-.984v3.312c0 1.722 1.23 2.508 2.604 2.508 1.362 0 2.598-.786 2.598-2.508zm4.906-.12c-.9 0-1.566.348-2.01.882v-.762h-.978v8.1h.978v-3.162c.444.534 1.11.882 2.01.882 1.596 0 2.85-1.248 2.85-2.97s-1.254-2.97-2.85-2.97zm-.114.924c1.164 0 1.956.912 1.956 2.046s-.774 2.052-1.956 2.052c-1.152 0-1.956-.882-1.956-2.052 0-1.164.804-2.046 1.956-2.046zm7.491-.924c-.9 0-1.566.348-2.01.882v-.762h-.978v8.1h.978v-3.162c.444.534 1.11.882 2.01.882 1.596 0 2.85-1.248 2.85-2.97s-1.254-2.97-2.85-2.97zm-.114.924c1.164 0 1.956.912 1.956 2.046s-.774 2.052-1.956 2.052c-1.152 0-1.956-.882-1.956-2.052 0-1.164.804-2.046 1.956-2.046zm7.082-.924c-1.728 0-3.012 1.278-3.012 2.97s1.284 2.97 3.012 2.97 3.018-1.278 3.018-2.97-1.29-2.97-3.018-2.97zm0 .924c1.14 0 2.01.852 2.01 2.046s-.87 2.052-2.01 2.052c-1.146 0-2.01-.858-2.01-2.052s.864-2.046 2.01-2.046zm7.197-.924c-.678 0-1.272.312-1.668.87v-.75h-.966v5.7h.978v-3.174c0-1.05.612-1.716 1.482-1.716.324 0 .708.078.978.222l.24-.966c-.306-.132-.636-.186-1.044-.186zm6.28.12h-2.394v-1.788h-.984v1.788h-1.218v.894h1.218v2.796c0 1.452.738 2.13 1.974 2.13.702 0 1.272-.246 1.71-.564l-.462-.738c-.324.222-.744.384-1.164.384-.618 0-1.074-.372-1.074-1.23v-2.778h2.394zm10.344-2.7h-6.786v1.002h2.868v7.398h1.056v-7.398h2.862zm2.617 2.58c-1.638 0-2.832 1.218-2.832 2.97 0 1.776 1.2 2.97 2.892 2.97.84 0 1.632-.204 2.34-.864l-.522-.672c-.486.42-1.092.678-1.758.678-.978 0-1.8-.582-1.938-1.764h4.482c.006-.108.018-.24.018-.366-.012-1.746-1.128-2.952-2.682-2.952zm-.018.87c.924 0 1.578.648 1.698 1.656h-3.486c.15-.972.78-1.656 1.788-1.656zm9.656-.75h-.984v.768c-.45-.54-1.116-.888-2.01-.888-1.602 0-2.85 1.248-2.85 2.97s1.248 2.97 2.85 2.97c.894 0 1.56-.348 2.01-.882v.762h.984zm-2.88.804c1.152 0 1.956.882 1.956 2.046 0 1.17-.804 2.052-1.956 2.052-1.17 0-1.962-.918-1.962-2.052s.774-2.046 1.962-2.046zm11.924-.924c-.774 0-1.656.282-2.124 1.146-.378-.714-1.14-1.146-2.106-1.146-.66 0-1.398.222-1.866.864v-.744h-.972v5.7h.978v-3.198c0-1.062.768-1.692 1.686-1.692.99 0 1.566.618 1.566 1.668v3.222h.984v-3.198c0-1.038.738-1.692 1.68-1.692.99 0 1.566.618 1.566 1.668v3.222h.984v-3.54c0-1.368-.966-2.28-2.376-2.28zm8.559.624c-.552-.378-1.374-.618-2.274-.618-1.386 0-2.292.66-2.292 1.752 0 .864.618 1.44 1.896 1.596l.66.078c.774.096 1.146.36 1.146.78 0 .564-.576.87-1.512.87-.954 0-1.524-.276-1.95-.606l-.456.732c.75.564 1.698.732 2.4.732 1.554 0 2.526-.702 2.526-1.788 0-.942-.714-1.452-1.926-1.614l-.66-.084c-.69-.084-1.104-.294-1.104-.75 0-.516.504-.846 1.284-.846.75 0 1.476.282 1.836.528z" fill="#141721"/></g><g clip-path="url(#e)"><path d="m224.885 169.772h-4.566v-2.67h4.806v-1.002h-5.862v8.4h1.056v-3.732h4.566zm4.296-1.092c-1.728 0-3.012 1.278-3.012 2.97s1.284 2.97 3.012 2.97 3.018-1.278 3.018-2.97-1.29-2.97-3.018-2.97zm0 .924c1.14 0 2.01.852 2.01 2.046s-.87 2.052-2.01 2.052c-1.146 0-2.01-.858-2.01-2.052s.864-2.046 2.01-2.046zm7.196-.924c-.678 0-1.272.312-1.668.87v-.75h-.966v5.7h.978v-3.174c0-1.05.612-1.716 1.482-1.716.324 0 .708.078.978.222l.24-.966c-.306-.132-.636-.186-1.044-.186zm11.455-1.782c-.792-.546-1.758-.918-3.024-.918-1.77 0-3.21.906-3.21 2.526 0 1.434 1.104 2.076 2.49 2.244l.78.096c1.308.162 2.01.534 2.01 1.314 0 .948-.984 1.458-2.238 1.458-1.068 0-2.154-.426-2.736-.93l-.576.84c.81.678 2.118 1.092 3.312 1.092 1.818 0 3.336-.876 3.336-2.55 0-1.482-1.218-2.058-2.64-2.232l-.738-.09c-1.26-.156-1.902-.546-1.902-1.308 0-.906.876-1.458 2.106-1.458.972 0 1.806.312 2.49.774zm7.277 1.902h-.984v.768c-.45-.54-1.116-.888-2.01-.888-1.602 0-2.85 1.248-2.85 2.97s1.248 2.97 2.85 2.97c.894 0 1.56-.348 2.01-.882v.762h.984zm-2.88.804c1.152 0 1.956.882 1.956 2.046 0 1.17-.804 2.052-1.956 2.052-1.17 0-1.962-.918-1.962-2.052s.774-2.046 1.962-2.046zm5.834-3.744h-.978v8.64h.978zm4.381 2.82c-1.638 0-2.832 1.218-2.832 2.97 0 1.776 1.2 2.97 2.892 2.97.84 0 1.632-.204 2.34-.864l-.522-.672c-.486.42-1.092.678-1.758.678-.978 0-1.8-.582-1.938-1.764h4.482c.006-.108.018-.24.018-.366-.012-1.746-1.128-2.952-2.682-2.952zm-.018.87c.924 0 1.578.648 1.698 1.656h-3.486c.15-.972.78-1.656 1.788-1.656zm8.51-.246c-.552-.378-1.374-.618-2.274-.618-1.386 0-2.292.66-2.292 1.752 0 .864.618 1.44 1.896 1.596l.66.078c.774.096 1.146.36 1.146.78 0 .564-.576.87-1.512.87-.954 0-1.524-.276-1.95-.606l-.456.732c.75.564 1.698.732 2.4.732 1.554 0 2.526-.702 2.526-1.788 0-.942-.714-1.452-1.926-1.614l-.66-.084c-.69-.084-1.104-.294-1.104-.75 0-.516.504-.846 1.284-.846.75 0 1.476.282 1.836.528zm10.476-3.204h-6.786v1.002h2.868v7.398h1.056v-7.398h2.862zm2.616 2.58c-1.638 0-2.832 1.218-2.832 2.97 0 1.776 1.2 2.97 2.892 2.97.84 0 1.632-.204 2.34-.864l-.522-.672c-.486.42-1.092.678-1.758.678-.978 0-1.8-.582-1.938-1.764h4.482c.006-.108.018-.24.018-.366-.012-1.746-1.128-2.952-2.682-2.952zm-.018.87c.924 0 1.578.648 1.698 1.656h-3.486c.15-.972.78-1.656 1.788-1.656zm9.657-.75h-.984v.768c-.45-.54-1.116-.888-2.01-.888-1.602 0-2.85 1.248-2.85 2.97s1.248 2.97 2.85 2.97c.894 0 1.56-.348 2.01-.882v.762h.984zm-2.88.804c1.152 0 1.956.882 1.956 2.046 0 1.17-.804 2.052-1.956 2.052-1.17 0-1.962-.918-1.962-2.052s.774-2.046 1.962-2.046zm11.924-.924c-.774 0-1.656.282-2.124 1.146-.378-.714-1.14-1.146-2.106-1.146-.66 0-1.398.222-1.866.864v-.744h-.972v5.7h.978v-3.198c0-1.062.768-1.692 1.686-1.692.99 0 1.566.618 1.566 1.668v3.222h.984v-3.198c0-1.038.738-1.692 1.68-1.692.99 0 1.566.618 1.566 1.668v3.222h.984v-3.54c0-1.368-.966-2.28-2.376-2.28zm8.559.624c-.552-.378-1.374-.618-2.274-.618-1.386 0-2.292.66-2.292 1.752 0 .864.618 1.44 1.896 1.596l.66.078c.774.096 1.146.36 1.146.78 0 .564-.576.87-1.512.87-.954 0-1.524-.276-1.95-.606l-.456.732c.75.564 1.698.732 2.4.732 1.554 0 2.526-.702 2.526-1.788 0-.942-.714-1.452-1.926-1.614l-.66-.084c-.69-.084-1.104-.294-1.104-.75 0-.516.504-.846 1.284-.846.75 0 1.476.282 1.836.528z" fill="#141721"/></g></g><rect fill="#fff" height="49" rx="3.5" width="579" x="24.5" y="200"/><path d="m41.789 211.518c-3.017 0-5.145 2.135-5.145 5.082s2.128 5.082 5.145 5.082c1.792 0 3.269-.798 4.137-2.072l-1.596-1.148c-.588.854-1.47 1.344-2.555 1.344-1.729 0-3.087-1.239-3.094-3.206 0-1.904 1.316-3.206 3.094-3.206 1.092 0 1.981.504 2.534 1.351l1.68-1.029c-.798-1.372-2.394-2.198-4.2-2.198zm7.4654-.105h-1.827v10.087h1.827v-3.717c0-1.022.651-1.533 1.435-1.533.833 0 1.323.539 1.323 1.519v3.731h1.827v-4.319c0-1.575-1.099-2.646-2.639-2.646-.742 0-1.463.238-1.946.91zm13.0224 3.304h-1.785v.749c-.448-.553-1.099-.931-2.03-.931-1.869 0-3.283 1.533-3.283 3.57s1.414 3.57 3.283 3.57c.931 0 1.589-.378 2.03-.924v.749h1.785zm-3.479 1.519c1.043 0 1.75.798 1.75 1.869s-.707 1.869-1.75 1.869c-1.071 0-1.75-.833-1.75-1.869s.679-1.869 1.75-1.869zm7.1277-4.816h-1.827v10.08h1.827zm3.646 0h-1.827v10.08h1.827zm4.8291 3.115c-2.03 0-3.43 1.456-3.43 3.591s1.442 3.549 3.521 3.549c1.141 0 2.121-.322 2.891-1.029l-1.071-1.176c-.49.413-1.127.651-1.715.651-.861 0-1.547-.427-1.743-1.407h4.809c.021-.154.035-.406.035-.616-.007-2.114-1.344-3.563-3.297-3.563zm-.014 1.575c.784 0 1.309.49 1.477 1.358h-3.003c.161-.84.665-1.358 1.526-1.358zm8.47-1.575c-.77 0-1.512.259-1.995.98v-.798h-1.778v6.783h1.827v-3.717c0-1.022.651-1.533 1.435-1.533.833 0 1.323.539 1.323 1.519v3.731h1.827v-4.319c0-1.575-1.099-2.646-2.639-2.646zm7.1005 0c-1.652 0-3.122 1.379-3.122 3.465 0 2.079 1.47 3.458 3.122 3.458.938 0 1.624-.35 2.086-.917v.476c0 1.169-.798 1.799-1.932 1.799-.812 0-1.561-.245-2.24-.693l-.651 1.491c.763.539 1.897.819 2.968.819 2.24 0 3.661-1.316 3.661-3.493v-6.223h-1.792v.756c-.462-.574-1.155-.938-2.1-.938zm.462 1.68c1.015 0 1.701.77 1.701 1.785 0 1.008-.686 1.778-1.701 1.778-1.043 0-1.708-.798-1.708-1.778 0-.987.665-1.785 1.708-1.785zm7.0806-1.498h-1.827v6.783h1.827zm-.924-3.395c-.658 0-1.162.518-1.162 1.176s.504 1.162 1.162 1.162 1.169-.504 1.169-1.162-.511-1.176-1.169-1.176zm6.5163 3.213c-.77 0-1.512.259-1.995.98v-.798h-1.7782v6.783h1.8272v-3.717c0-1.022.651-1.533 1.435-1.533.833 0 1.323.539 1.323 1.519v3.731h1.827v-4.319c0-1.575-1.099-2.646-2.639-2.646zm7.1 0c-1.652 0-3.122 1.379-3.122 3.465 0 2.079 1.47 3.458 3.122 3.458.938 0 1.624-.35 2.086-.917v.476c0 1.169-.798 1.799-1.932 1.799-.812 0-1.561-.245-2.24-.693l-.651 1.491c.763.539 1.897.819 2.968.819 2.24 0 3.661-1.316 3.661-3.493v-6.223h-1.792v.756c-.462-.574-1.155-.938-2.1-.938zm.462 1.68c1.015 0 1.701.77 1.701 1.785 0 1.008-.686 1.778-1.701 1.778-1.043 0-1.708-.798-1.708-1.778 0-.987.665-1.785 1.708-1.785z" fill="#141721"/><path d="m48.834 233.1h-.99l-2.328 7.314-2.37-7.314h-1.092l-2.376 7.308-2.322-7.308h-1.008l2.73 8.4h1.182l2.328-7.116 2.328 7.116h1.188zm2.1996-.24h-.9v8.64h.9v-3.204c0-1.08.786-1.74 1.74-1.74 1.038 0 1.638.636 1.638 1.716v3.228h.894v-3.522c0-1.374-.966-2.274-2.37-2.274-.69 0-1.434.246-1.902.906zm8.595 2.844c-1.62 0-2.82 1.218-2.82 2.958 0 1.758 1.194 2.952 2.874 2.952.834 0 1.626-.21 2.334-.888l-.48-.612c-.486.444-1.098.714-1.8.714-1.026 0-1.884-.63-2.01-1.854h4.554c.012-.102.018-.222.018-.336-.012-1.728-1.128-2.934-2.67-2.934zm-.018.798c.966 0 1.662.684 1.776 1.746h-3.648c.144-1.026.822-1.746 1.872-1.746zm7.0586-.798c-.696 0-1.452.246-1.914.924v-.81h-.888v5.682h.9v-3.204c0-1.08.786-1.74 1.74-1.74 1.038 0 1.638.636 1.638 1.716v3.228h.894v-3.522c0-1.374-.966-2.274-2.37-2.274zm11.1685.114h-2.454v-1.806h-.894v1.806h-1.242v.81h1.242v2.886c0 1.428.726 2.1 1.95 2.1.696 0 1.26-.24 1.686-.564l-.42-.678c-.33.24-.756.402-1.194.402-.66 0-1.128-.39-1.128-1.278v-2.868h2.454zm2.3795-2.958h-.9v8.64h.9v-3.204c0-1.08.786-1.74 1.74-1.74 1.038 0 1.638.636 1.638 1.716v3.228h.894v-3.522c0-1.374-.966-2.274-2.37-2.274-.69 0-1.434.246-1.902.906zm8.595 2.844c-1.62 0-2.82 1.218-2.82 2.958 0 1.758 1.194 2.952 2.874 2.952.834 0 1.626-.21 2.334-.888l-.48-.612c-.486.444-1.098.714-1.8.714-1.026 0-1.884-.63-2.01-1.854h4.554c.012-.102.018-.222.018-.336-.012-1.728-1.128-2.934-2.67-2.934zm-.018.798c.966 0 1.662.684 1.776 1.746h-3.648c.144-1.026.822-1.746 1.872-1.746zm9.8638-.798c-1.746 0-2.94 1.272-2.94 2.952 0 1.686 1.194 2.958 2.94 2.958.84 0 1.59-.312 2.106-.894l-.558-.612c-.402.39-.954.666-1.572.666-1.14 0-2.004-.888-2.004-2.118 0-1.224.864-2.112 2.004-2.112.618 0 1.128.246 1.554.66l.576-.606c-.51-.582-1.266-.894-2.106-.894zm8.803.114h-.894v.846c-.45-.576-1.14-.96-2.076-.96-1.596 0-2.838 1.248-2.838 2.952 0 1.71 1.242 2.958 2.838 2.958.936 0 1.626-.378 2.076-.96v.846h.894zm-2.862.726c1.182 0 2.022.912 2.022 2.112 0 1.206-.84 2.118-2.022 2.118-1.206 0-2.034-.942-2.034-2.118 0-1.17.816-2.112 2.034-2.112zm5.763-3.684h-.9v8.64h.9zm2.9 0h-.9v8.64h.9zm4.388 2.844c-1.62 0-2.82 1.218-2.82 2.958 0 1.758 1.194 2.952 2.874 2.952.834 0 1.626-.21 2.334-.888l-.48-.612c-.486.444-1.098.714-1.8.714-1.026 0-1.884-.63-2.01-1.854h4.554c.012-.102.018-.222.018-.336-.012-1.728-1.128-2.934-2.67-2.934zm-.018.798c.966 0 1.662.684 1.776 1.746h-3.648c.144-1.026.822-1.746 1.872-1.746zm6.83-.798c-.696 0-1.296.33-1.686.912v-.798h-.888v5.682h.894v-3.18c0-1.074.636-1.77 1.524-1.77.33 0 .708.078.984.228l.216-.882c-.3-.138-.636-.192-1.044-.192zm2.613-2.844-.36 3.042h.774l.63-3.042zm6.39 3.468c-.546-.366-1.362-.618-2.256-.618-1.362 0-2.268.648-2.268 1.722 0 .846.6 1.416 1.878 1.572l.678.078c.804.096 1.188.372 1.188.828 0 .6-.606.918-1.566.918s-1.536-.282-1.968-.618l-.414.672c.72.546 1.638.726 2.37.726 1.53 0 2.502-.678 2.502-1.758 0-.93-.702-1.428-1.908-1.584l-.672-.084c-.744-.09-1.158-.324-1.158-.798 0-.552.534-.894 1.344-.894.768 0 1.494.282 1.86.534zm5.611-.51h-.9v5.682h.9zm-.45-2.652c-.36 0-.63.276-.63.636s.27.63.63.63c.354 0 .636-.27.636-.63s-.282-.636-.636-.636zm6.656 3.162c-.546-.366-1.362-.618-2.256-.618-1.362 0-2.268.648-2.268 1.722 0 .846.6 1.416 1.878 1.572l.678.078c.804.096 1.188.372 1.188.828 0 .6-.606.918-1.566.918s-1.536-.282-1.968-.618l-.414.672c.72.546 1.638.726 2.37.726 1.53 0 2.502-.678 2.502-1.758 0-.93-.702-1.428-1.908-1.584l-.672-.084c-.744-.09-1.158-.324-1.158-.798 0-.552.534-.894 1.344-.894.768 0 1.494.282 1.86.534zm5.818 0c-.546-.366-1.362-.618-2.256-.618-1.362 0-2.268.648-2.268 1.722 0 .846.6 1.416 1.878 1.572l.678.078c.804.096 1.188.372 1.188.828 0 .6-.606.918-1.566.918s-1.536-.282-1.968-.618l-.414.672c.72.546 1.638.726 2.37.726 1.53 0 2.502-.678 2.502-1.758 0-.93-.702-1.428-1.908-1.584l-.672-.084c-.744-.09-1.158-.324-1.158-.798 0-.552.534-.894 1.344-.894.768 0 1.494.282 1.86.534zm6.706-.51h-.9v3.228c0 1.176-.708 1.728-1.68 1.728s-1.686-.552-1.686-1.728v-3.228h-.894v3.312c0 1.686 1.206 2.484 2.58 2.484 1.368 0 2.58-.798 2.58-2.484zm4.319-.114c-1.62 0-2.82 1.218-2.82 2.958 0 1.758 1.194 2.952 2.874 2.952.834 0 1.626-.21 2.334-.888l-.48-.612c-.486.444-1.098.714-1.8.714-1.026 0-1.884-.63-2.01-1.854h4.554c.012-.102.018-.222.018-.336-.012-1.728-1.128-2.934-2.67-2.934zm-.018.798c.966 0 1.662.684 1.776 1.746h-3.648c.144-1.026.822-1.746 1.872-1.746zm8.462-.174c-.546-.366-1.362-.618-2.256-.618-1.362 0-2.268.648-2.268 1.722 0 .846.6 1.416 1.878 1.572l.678.078c.804.096 1.188.372 1.188.828 0 .6-.606.918-1.566.918s-1.536-.282-1.968-.618l-.414.672c.72.546 1.638.726 2.37.726 1.53 0 2.502-.678 2.502-1.758 0-.93-.702-1.428-1.908-1.584l-.672-.084c-.744-.09-1.158-.324-1.158-.798 0-.552.534-.894 1.344-.894.768 0 1.494.282 1.86.534zm5.611-.51h-.9v5.682h.9zm-.45-2.652c-.36 0-.63.276-.63.636s.27.63.63.63c.354 0 .636-.27.636-.63s-.282-.636-.636-.636zm6.656 3.162c-.546-.366-1.362-.618-2.256-.618-1.362 0-2.268.648-2.268 1.722 0 .846.6 1.416 1.878 1.572l.678.078c.804.096 1.188.372 1.188.828 0 .6-.606.918-1.566.918s-1.536-.282-1.968-.618l-.414.672c.72.546 1.638.726 2.37.726 1.53 0 2.502-.678 2.502-1.758 0-.93-.702-1.428-1.908-1.584l-.672-.084c-.744-.09-1.158-.324-1.158-.798 0-.552.534-.894 1.344-.894.768 0 1.494.282 1.86.534zm4.414-.624c-.696 0-1.452.246-1.914.924v-.81h-.888v5.682h.9v-3.204c0-1.08.786-1.74 1.74-1.74 1.038 0 1.638.636 1.638 1.716v3.228h.894v-3.522c0-1.374-.966-2.274-2.37-2.274zm4.295-2.844-.36 3.042h.774l.63-3.042zm6.78 2.958h-2.454v-1.806h-.894v1.806h-1.242v.81h1.242v2.886c0 1.428.726 2.1 1.95 2.1.696 0 1.26-.24 1.686-.564l-.42-.678c-.33.24-.756.402-1.194.402-.66 0-1.128-.39-1.128-1.278v-2.868h2.454zm7.153-.114c-.696 0-1.296.33-1.686.912v-.798h-.888v5.682h.894v-3.18c0-1.074.636-1.77 1.524-1.77.33 0 .708.078.984.228l.216-.882c-.3-.138-.636-.192-1.044-.192zm4.46 0c-1.62 0-2.82 1.218-2.82 2.958 0 1.758 1.194 2.952 2.874 2.952.834 0 1.626-.21 2.334-.888l-.48-.612c-.486.444-1.098.714-1.8.714-1.026 0-1.884-.63-2.01-1.854h4.554c.012-.102.018-.222.018-.336-.012-1.728-1.128-2.934-2.67-2.934zm-.018.798c.966 0 1.662.684 1.776 1.746h-3.648c.144-1.026.822-1.746 1.872-1.746zm8.463-.174c-.546-.366-1.362-.618-2.256-.618-1.362 0-2.268.648-2.268 1.722 0 .846.6 1.416 1.878 1.572l.678.078c.804.096 1.188.372 1.188.828 0 .6-.606.918-1.566.918s-1.536-.282-1.968-.618l-.414.672c.72.546 1.638.726 2.37.726 1.53 0 2.502-.678 2.502-1.758 0-.93-.702-1.428-1.908-1.584l-.672-.084c-.744-.09-1.158-.324-1.158-.798 0-.552.534-.894 1.344-.894.768 0 1.494.282 1.86.534zm4.168-.624c-1.71 0-2.988 1.272-2.988 2.952 0 1.686 1.278 2.958 2.988 2.958s2.994-1.272 2.994-2.958c0-1.68-1.284-2.952-2.994-2.952zm0 .84c1.176 0 2.076.888 2.076 2.112 0 1.23-.9 2.118-2.076 2.118-1.182 0-2.076-.888-2.076-2.118 0-1.224.894-2.112 2.076-2.112zm5.462-3.684h-.9v8.64h.9zm7.022 2.958h-.948l-1.986 4.782-1.986-4.782h-.972l2.424 5.694h1.05zm3.43-.114c-1.62 0-2.82 1.218-2.82 2.958 0 1.758 1.194 2.952 2.874 2.952.834 0 1.626-.21 2.334-.888l-.48-.612c-.486.444-1.098.714-1.8.714-1.026 0-1.884-.63-2.01-1.854h4.554c.012-.102.018-.222.018-.336-.012-1.728-1.128-2.934-2.67-2.934zm-.018.798c.966 0 1.662.684 1.776 1.746h-3.648c.144-1.026.822-1.746 1.872-1.746zm6.663-.798c-1.596 0-2.838 1.248-2.838 2.952 0 1.71 1.242 2.958 2.838 2.958.936 0 1.626-.378 2.076-.96v.846h.894v-8.64h-.894v3.804c-.45-.576-1.14-.96-2.076-.96zm.108.84c1.182 0 2.022.912 2.022 2.112 0 1.206-.84 2.118-2.022 2.118-1.206 0-2.034-.942-2.034-2.118 0-1.17.816-2.112 2.034-2.112zm10.932-.84c-.936 0-1.62.378-2.07.954v-3.798h-.9v8.64h.9v-.84c.45.576 1.134.954 2.07.954 1.596 0 2.838-1.248 2.838-2.958 0-1.704-1.242-2.952-2.838-2.952zm-.108.84c1.206 0 2.028.942 2.028 2.112 0 1.176-.81 2.118-2.028 2.118-1.188 0-2.022-.912-2.022-2.118 0-1.2.834-2.112 2.022-2.112zm9.522-.726h-.984l-2.004 3.564-2.118-3.564h-1.002l2.61 4.452-2.118 3.654h.99zm8.069.51c-.546-.366-1.362-.618-2.256-.618-1.362 0-2.268.648-2.268 1.722 0 .846.6 1.416 1.878 1.572l.678.078c.804.096 1.188.372 1.188.828 0 .6-.606.918-1.566.918s-1.536-.282-1.968-.618l-.414.672c.72.546 1.638.726 2.37.726 1.53 0 2.502-.678 2.502-1.758 0-.93-.702-1.428-1.908-1.584l-.672-.084c-.744-.09-1.158-.324-1.158-.798 0-.552.534-.894 1.344-.894.768 0 1.494.282 1.86.534zm2.512-.51h-.9v5.682h.9zm-.45-2.652c-.36 0-.63.276-.63.636s.27.63.63.63c.354 0 .636-.27.636-.63s-.282-.636-.636-.636zm9.524 2.538c-.798 0-1.686.312-2.142 1.194-.366-.744-1.14-1.194-2.13-1.194-.696 0-1.452.246-1.914.924v-.81h-.888v5.682h.9v-3.204c0-1.08.786-1.74 1.74-1.74 1.038 0 1.638.636 1.638 1.716v3.228h.894v-3.204c0-1.08.786-1.74 1.74-1.74 1.044 0 1.644.636 1.644 1.716v3.228h.894v-3.522c0-1.374-.966-2.274-2.376-2.274zm7.28 0c-.936 0-1.62.378-2.07.954v-.84h-.9v8.082h.9v-3.24c.45.576 1.134.954 2.07.954 1.596 0 2.838-1.248 2.838-2.958 0-1.704-1.242-2.952-2.838-2.952zm-.108.84c1.206 0 2.028.942 2.028 2.112 0 1.176-.81 2.118-2.028 2.118-1.188 0-2.022-.912-2.022-2.118 0-1.2.834-2.112 2.022-2.112zm5.414-3.684h-.9v8.64h.9zm4.388 2.844c-1.62 0-2.82 1.218-2.82 2.958 0 1.758 1.194 2.952 2.874 2.952.834 0 1.626-.21 2.334-.888l-.48-.612c-.486.444-1.098.714-1.8.714-1.026 0-1.884-.63-2.01-1.854h4.554c.012-.102.018-.222.018-.336-.012-1.728-1.128-2.934-2.67-2.934zm-.018.798c.966 0 1.662.684 1.776 1.746h-3.648c.144-1.026.822-1.746 1.872-1.746zm11.562-.174c-.546-.366-1.362-.618-2.256-.618-1.362 0-2.268.648-2.268 1.722 0 .846.6 1.416 1.878 1.572l.678.078c.804.096 1.188.372 1.188.828 0 .6-.606.918-1.566.918s-1.536-.282-1.968-.618l-.414.672c.72.546 1.638.726 2.37.726 1.53 0 2.502-.678 2.502-1.758 0-.93-.702-1.428-1.908-1.584l-.672-.084c-.744-.09-1.158-.324-1.158-.798 0-.552.534-.894 1.344-.894.768 0 1.494.282 1.86.534zm5.47-.51h-2.454v-1.806h-.894v1.806h-1.242v.81h1.242v2.886c0 1.428.726 2.1 1.95 2.1.696 0 1.26-.24 1.686-.564l-.42-.678c-.33.24-.756.402-1.194.402-.66 0-1.128-.39-1.128-1.278v-2.868h2.454zm3.844-.114c-1.62 0-2.82 1.218-2.82 2.958 0 1.758 1.194 2.952 2.874 2.952.834 0 1.626-.21 2.334-.888l-.48-.612c-.486.444-1.098.714-1.8.714-1.026 0-1.884-.63-2.01-1.854h4.554c.012-.102.018-.222.018-.336-.012-1.728-1.128-2.934-2.67-2.934zm-.018.798c.966 0 1.662.684 1.776 1.746h-3.648c.144-1.026.822-1.746 1.872-1.746zm7.227-.798c-.936 0-1.62.378-2.07.954v-.84h-.9v8.082h.9v-3.24c.45.576 1.134.954 2.07.954 1.596 0 2.838-1.248 2.838-2.958 0-1.704-1.242-2.952-2.838-2.952zm-.108.84c1.206 0 2.028.942 2.028 2.112 0 1.176-.81 2.118-2.028 2.118-1.188 0-2.022-.912-2.022-2.118 0-1.2.834-2.112 2.022-2.112zm8.72-.216c-.546-.366-1.362-.618-2.256-.618-1.362 0-2.268.648-2.268 1.722 0 .846.6 1.416 1.878 1.572l.678.078c.804.096 1.188.372 1.188.828 0 .6-.606.918-1.566.918s-1.536-.282-1.968-.618l-.414.672c.72.546 1.638.726 2.37.726 1.53 0 2.502-.678 2.502-1.758 0-.93-.702-1.428-1.908-1.584l-.672-.084c-.744-.09-1.158-.324-1.158-.798 0-.552.534-.894 1.344-.894.768 0 1.494.282 1.86.534z" fill="#6c6e75"/><rect height="49" rx="3.5" stroke="#e3e5e8" width="579" x="24.5" y="200"/><rect fill="#fff" height="49" rx="3.5" width="579" x="24.5" y="262"/><path d="m41.789 273.518c-3.017 0-5.145 2.135-5.145 5.082s2.128 5.082 5.145 5.082c1.792 0 3.269-.798 4.137-2.072l-1.596-1.148c-.588.854-1.47 1.344-2.555 1.344-1.729 0-3.087-1.239-3.094-3.206 0-1.904 1.316-3.206 3.094-3.206 1.092 0 1.981.504 2.534 1.351l1.68-1.029c-.798-1.372-2.394-2.198-4.2-2.198zm8.7016 3.017c-2.107 0-3.661 1.526-3.661 3.57s1.554 3.57 3.661 3.57c2.114 0 3.675-1.526 3.675-3.57s-1.561-3.57-3.675-3.57zm0 1.701c1.029 0 1.806.77 1.806 1.869s-.777 1.869-1.806 1.869-1.799-.77-1.799-1.869.77-1.869 1.799-1.869zm8.8402-1.701c-.77 0-1.512.259-1.995.98v-.798h-1.778v6.783h1.827v-3.717c0-1.022.651-1.533 1.435-1.533.833 0 1.323.539 1.323 1.519v3.731h1.827v-4.319c0-1.575-1.099-2.646-2.639-2.646zm8.7908.182h-2.107v-.819c0-.63.273-.952.798-.952.427 0 .826.147 1.162.329l.728-1.421c-.518-.343-1.162-.609-2.086-.609-1.582 0-2.429 1.043-2.429 2.632v.84h-1.267v1.624h1.267v5.159h1.827v-5.159h2.107zm7.5445 0h-1.82v3.731c0 1.085-.602 1.526-1.386 1.526-.791 0-1.386-.441-1.386-1.526v-3.731h-1.827v3.892c0 2.142 1.512 3.066 3.213 3.066 1.694 0 3.206-.924 3.206-3.066zm7.2212.469c-.903-.441-1.75-.644-2.835-.644-1.785 0-2.863.826-2.863 2.219 0 1.155.777 1.841 2.345 2.058l.553.077c.784.112 1.127.294 1.127.623 0 .399-.406.637-1.253.637-1.022 0-1.729-.28-2.31-.665l-.721 1.386c.882.623 2.093.798 3.017.798 1.967 0 3.115-.903 3.115-2.303 0-1.148-.819-1.806-2.289-2.03l-.602-.091c-.616-.091-1.106-.189-1.106-.581 0-.371.35-.616 1.043-.616.763.007 1.624.287 2.163.553zm3.3417-.469h-1.827v6.783h1.827zm-.924-3.395c-.658 0-1.162.518-1.162 1.176s.504 1.162 1.162 1.162 1.169-.504 1.169-1.162-.511-1.176-1.169-1.176zm5.9841 3.213c-2.107 0-3.661 1.526-3.661 3.57s1.554 3.57 3.661 3.57c2.114 0 3.675-1.526 3.675-3.57s-1.561-3.57-3.675-3.57zm0 1.701c1.029 0 1.806.77 1.806 1.869s-.777 1.869-1.806 1.869-1.799-.77-1.799-1.869.77-1.869 1.799-1.869zm8.8399-1.701c-.7697 0-1.5117.259-1.9947.98v-.798h-1.778v6.783h1.827v-3.717c0-1.022.651-1.533 1.435-1.533.8327 0 1.3227.539 1.3227 1.519v3.731h1.827v-4.319c0-1.575-1.099-2.646-2.639-2.646z" fill="#141721"/><path d="m48.834 295.1h-.99l-2.328 7.314-2.37-7.314h-1.092l-2.376 7.308-2.322-7.308h-1.008l2.73 8.4h1.182l2.328-7.116 2.328 7.116h1.188zm2.1996-.24h-.9v8.64h.9v-3.204c0-1.08.786-1.74 1.74-1.74 1.038 0 1.638.636 1.638 1.716v3.228h.894v-3.522c0-1.374-.966-2.274-2.37-2.274-.69 0-1.434.246-1.902.906zm8.595 2.844c-1.62 0-2.82 1.218-2.82 2.958 0 1.758 1.194 2.952 2.874 2.952.834 0 1.626-.21 2.334-.888l-.48-.612c-.486.444-1.098.714-1.8.714-1.026 0-1.884-.63-2.01-1.854h4.554c.012-.102.018-.222.018-.336-.012-1.728-1.128-2.934-2.67-2.934zm-.018.798c.966 0 1.662.684 1.776 1.746h-3.648c.144-1.026.822-1.746 1.872-1.746zm7.0586-.798c-.696 0-1.452.246-1.914.924v-.81h-.888v5.682h.9v-3.204c0-1.08.786-1.74 1.74-1.74 1.038 0 1.638.636 1.638 1.716v3.228h.894v-3.522c0-1.374-.966-2.274-2.37-2.274zm11.1685.114h-2.454v-1.806h-.894v1.806h-1.242v.81h1.242v2.886c0 1.428.726 2.1 1.95 2.1.696 0 1.26-.24 1.686-.564l-.42-.678c-.33.24-.756.402-1.194.402-.66 0-1.128-.39-1.128-1.278v-2.868h2.454zm2.3795-2.958h-.9v8.64h.9v-3.204c0-1.08.786-1.74 1.74-1.74 1.038 0 1.638.636 1.638 1.716v3.228h.894v-3.522c0-1.374-.966-2.274-2.37-2.274-.69 0-1.434.246-1.902.906zm8.595 2.844c-1.62 0-2.82 1.218-2.82 2.958 0 1.758 1.194 2.952 2.874 2.952.834 0 1.626-.21 2.334-.888l-.48-.612c-.486.444-1.098.714-1.8.714-1.026 0-1.884-.63-2.01-1.854h4.554c.012-.102.018-.222.018-.336-.012-1.728-1.128-2.934-2.67-2.934zm-.018.798c.966 0 1.662.684 1.776 1.746h-3.648c.144-1.026.822-1.746 1.872-1.746zm9.8638-.798c-1.746 0-2.94 1.272-2.94 2.952 0 1.686 1.194 2.958 2.94 2.958.84 0 1.59-.312 2.106-.894l-.558-.612c-.402.39-.954.666-1.572.666-1.14 0-2.004-.888-2.004-2.118 0-1.224.864-2.112 2.004-2.112.618 0 1.128.246 1.554.66l.576-.606c-.51-.582-1.266-.894-2.106-.894zm8.803.114h-.894v.846c-.45-.576-1.14-.96-2.076-.96-1.596 0-2.838 1.248-2.838 2.952 0 1.71 1.242 2.958 2.838 2.958.936 0 1.626-.378 2.076-.96v.846h.894zm-2.862.726c1.182 0 2.022.912 2.022 2.112 0 1.206-.84 2.118-2.022 2.118-1.206 0-2.034-.942-2.034-2.118 0-1.17.816-2.112 2.034-2.112zm5.763-3.684h-.9v8.64h.9zm2.9 0h-.9v8.64h.9zm4.388 2.844c-1.62 0-2.82 1.218-2.82 2.958 0 1.758 1.194 2.952 2.874 2.952.834 0 1.626-.21 2.334-.888l-.48-.612c-.486.444-1.098.714-1.8.714-1.026 0-1.884-.63-2.01-1.854h4.554c.012-.102.018-.222.018-.336-.012-1.728-1.128-2.934-2.67-2.934zm-.018.798c.966 0 1.662.684 1.776 1.746h-3.648c.144-1.026.822-1.746 1.872-1.746zm6.83-.798c-.696 0-1.296.33-1.686.912v-.798h-.888v5.682h.894v-3.18c0-1.074.636-1.77 1.524-1.77.33 0 .708.078.984.228l.216-.882c-.3-.138-.636-.192-1.044-.192zm7.671 0c-1.596 0-2.838 1.248-2.838 2.952 0 1.71 1.242 2.958 2.838 2.958.936 0 1.626-.378 2.076-.96v.846h.894v-8.64h-.894v3.804c-.45-.576-1.14-.96-2.076-.96zm.108.84c1.182 0 2.022.912 2.022 2.112 0 1.206-.84 2.118-2.022 2.118-1.206 0-2.034-.942-2.034-2.118 0-1.17.816-2.112 2.034-2.112zm7.419-.84c-1.71 0-2.988 1.272-2.988 2.952 0 1.686 1.278 2.958 2.988 2.958s2.994-1.272 2.994-2.958c0-1.68-1.284-2.952-2.994-2.952zm0 .84c1.176 0 2.076.888 2.076 2.112 0 1.23-.9 2.118-2.076 2.118-1.182 0-2.076-.888-2.076-2.118 0-1.224.894-2.112 2.076-2.112zm6.951-.84c-1.62 0-2.82 1.218-2.82 2.958 0 1.758 1.194 2.952 2.874 2.952.834 0 1.626-.21 2.334-.888l-.48-.612c-.486.444-1.098.714-1.8.714-1.026 0-1.884-.63-2.01-1.854h4.554c.012-.102.018-.222.018-.336-.012-1.728-1.128-2.934-2.67-2.934zm-.018.798c.966 0 1.662.684 1.776 1.746h-3.648c.144-1.026.822-1.746 1.872-1.746zm8.462-.174c-.546-.366-1.362-.618-2.256-.618-1.362 0-2.268.648-2.268 1.722 0 .846.6 1.416 1.878 1.572l.678.078c.804.096 1.188.372 1.188.828 0 .6-.606.918-1.566.918s-1.536-.282-1.968-.618l-.414.672c.72.546 1.638.726 2.37.726 1.53 0 2.502-.678 2.502-1.758 0-.93-.702-1.428-1.908-1.584l-.672-.084c-.744-.09-1.158-.324-1.158-.798 0-.552.534-.894 1.344-.894.768 0 1.494.282 1.86.534zm4.414-.624c-.696 0-1.452.246-1.914.924v-.81h-.888v5.682h.9v-3.204c0-1.08.786-1.74 1.74-1.74 1.038 0 1.638.636 1.638 1.716v3.228h.894v-3.522c0-1.374-.966-2.274-2.37-2.274zm4.295-2.844-.36 3.042h.774l.63-3.042zm6.78 2.958h-2.454v-1.806h-.894v1.806h-1.242v.81h1.242v2.886c0 1.428.726 2.1 1.95 2.1.696 0 1.26-.24 1.686-.564l-.42-.678c-.33.24-.756.402-1.194.402-.66 0-1.128-.39-1.128-1.278v-2.868h2.454zm9.673 0h-.9v3.228c0 1.176-.708 1.728-1.68 1.728s-1.686-.552-1.686-1.728v-3.228h-.894v3.312c0 1.686 1.206 2.484 2.58 2.484 1.368 0 2.58-.798 2.58-2.484zm4.733-.114c-.696 0-1.452.246-1.914.924v-.81h-.888v5.682h.9v-3.204c0-1.08.786-1.74 1.74-1.74 1.038 0 1.638.636 1.638 1.716v3.228h.894v-3.522c0-1.374-.966-2.274-2.37-2.274zm6.711 0c-1.596 0-2.838 1.248-2.838 2.952 0 1.71 1.242 2.958 2.838 2.958.936 0 1.626-.378 2.076-.96v.846h.894v-8.64h-.894v3.804c-.45-.576-1.14-.96-2.076-.96zm.108.84c1.182 0 2.022.912 2.022 2.112 0 1.206-.84 2.118-2.022 2.118-1.206 0-2.034-.942-2.034-2.118 0-1.17.816-2.112 2.034-2.112zm7.25-.84c-1.62 0-2.82 1.218-2.82 2.958 0 1.758 1.194 2.952 2.874 2.952.834 0 1.626-.21 2.334-.888l-.48-.612c-.486.444-1.098.714-1.8.714-1.026 0-1.884-.63-2.01-1.854h4.554c.012-.102.018-.222.018-.336-.012-1.728-1.128-2.934-2.67-2.934zm-.018.798c.966 0 1.662.684 1.776 1.746h-3.648c.144-1.026.822-1.746 1.872-1.746zm6.831-.798c-.696 0-1.296.33-1.686.912v-.798h-.888v5.682h.894v-3.18c0-1.074.636-1.77 1.524-1.77.33 0 .708.078.984.228l.216-.882c-.3-.138-.636-.192-1.044-.192zm6.407.624c-.546-.366-1.362-.618-2.256-.618-1.362 0-2.268.648-2.268 1.722 0 .846.6 1.416 1.878 1.572l.678.078c.804.096 1.188.372 1.188.828 0 .6-.606.918-1.566.918s-1.536-.282-1.968-.618l-.414.672c.72.546 1.638.726 2.37.726 1.53 0 2.502-.678 2.502-1.758 0-.93-.702-1.428-1.908-1.584l-.672-.084c-.744-.09-1.158-.324-1.158-.798 0-.552.534-.894 1.344-.894.768 0 1.494.282 1.86.534zm5.47-.51h-2.454v-1.806h-.894v1.806h-1.242v.81h1.242v2.886c0 1.428.726 2.1 1.95 2.1.696 0 1.26-.24 1.686-.564l-.42-.678c-.33.24-.756.402-1.194.402-.66 0-1.128-.39-1.128-1.278v-2.868h2.454zm6.832 0h-.894v.846c-.45-.576-1.14-.96-2.076-.96-1.596 0-2.838 1.248-2.838 2.952 0 1.71 1.242 2.958 2.838 2.958.936 0 1.626-.378 2.076-.96v.846h.894zm-2.862.726c1.182 0 2.022.912 2.022 2.112 0 1.206-.84 2.118-2.022 2.118-1.206 0-2.034-.942-2.034-2.118 0-1.17.816-2.112 2.034-2.112zm7.664-.84c-.696 0-1.452.246-1.914.924v-.81h-.888v5.682h.9v-3.204c0-1.08.786-1.74 1.74-1.74 1.038 0 1.638.636 1.638 1.716v3.228h.894v-3.522c0-1.374-.966-2.274-2.37-2.274zm6.711 0c-1.596 0-2.838 1.248-2.838 2.952 0 1.71 1.242 2.958 2.838 2.958.936 0 1.626-.378 2.076-.96v.846h.894v-8.64h-.894v3.804c-.45-.576-1.14-.96-2.076-.96zm.108.84c1.182 0 2.022.912 2.022 2.112 0 1.206-.84 2.118-2.022 2.118-1.206 0-2.034-.942-2.034-2.118 0-1.17.816-2.112 2.034-2.112zm11.726-.726h-2.454v-1.806h-.894v1.806h-1.242v.81h1.242v2.886c0 1.428.726 2.1 1.95 2.1.696 0 1.26-.24 1.686-.564l-.42-.678c-.33.24-.756.402-1.194.402-.66 0-1.128-.39-1.128-1.278v-2.868h2.454zm2.38-2.958h-.9v8.64h.9v-3.204c0-1.08.786-1.74 1.74-1.74 1.038 0 1.638.636 1.638 1.716v3.228h.894v-3.522c0-1.374-.966-2.274-2.37-2.274-.69 0-1.434.246-1.902.906zm8.595 2.844c-1.62 0-2.82 1.218-2.82 2.958 0 1.758 1.194 2.952 2.874 2.952.834 0 1.626-.21 2.334-.888l-.48-.612c-.486.444-1.098.714-1.8.714-1.026 0-1.884-.63-2.01-1.854h4.554c.012-.102.018-.222.018-.336-.012-1.728-1.128-2.934-2.67-2.934zm-.018.798c.966 0 1.662.684 1.776 1.746h-3.648c.144-1.026.822-1.746 1.872-1.746zm12.732-.684h-.894v.846c-.45-.576-1.14-.96-2.076-.96-1.596 0-2.838 1.248-2.838 2.952 0 1.71 1.242 2.958 2.838 2.958.936 0 1.626-.378 2.076-.96v.846h.894zm-2.862.726c1.182 0 2.022.912 2.022 2.112 0 1.206-.84 2.118-2.022 2.118-1.206 0-2.034-.942-2.034-2.118 0-1.17.816-2.112 2.034-2.112zm7.244-.84c-1.596 0-2.814 1.194-2.814 2.91 0 1.722 1.218 2.916 2.814 2.916.918 0 1.596-.372 2.028-.966v.582c0 1.326-.876 2.028-2.106 2.028-.768 0-1.458-.258-1.998-.666l-.396.72c.576.48 1.488.762 2.394.762 1.758 0 3.006-1.026 3.006-2.88v-5.292h-.9v.852c-.432-.588-1.11-.966-2.028-.966zm.102.84c1.17 0 2.004.9 2.004 2.07 0 1.182-.834 2.076-2.004 2.076-1.206 0-2.004-.924-2.004-2.076 0-1.146.798-2.07 2.004-2.07zm7.211-.84c-1.62 0-2.82 1.218-2.82 2.958 0 1.758 1.194 2.952 2.874 2.952.834 0 1.626-.21 2.334-.888l-.48-.612c-.486.444-1.098.714-1.8.714-1.026 0-1.884-.63-2.01-1.854h4.554c.012-.102.018-.222.018-.336-.012-1.728-1.128-2.934-2.67-2.934zm-.018.798c.966 0 1.662.684 1.776 1.746h-3.648c.144-1.026.822-1.746 1.872-1.746zm7.058-.798c-.696 0-1.452.246-1.914.924v-.81h-.888v5.682h.9v-3.204c0-1.08.786-1.74 1.74-1.74 1.038 0 1.638.636 1.638 1.716v3.228h.894v-3.522c0-1.374-.966-2.274-2.37-2.274zm8.081.114h-2.454v-1.806h-.894v1.806h-1.242v.81h1.242v2.886c0 1.428.726 2.1 1.95 2.1.696 0 1.26-.24 1.686-.564l-.42-.678c-.33.24-.756.402-1.194.402-.66 0-1.128-.39-1.128-1.278v-2.868h2.454zm1.552-2.958-.36 3.042h.774l.63-3.042zm6.389 3.468c-.546-.366-1.362-.618-2.256-.618-1.362 0-2.268.648-2.268 1.722 0 .846.6 1.416 1.878 1.572l.678.078c.804.096 1.188.372 1.188.828 0 .6-.606.918-1.566.918s-1.536-.282-1.968-.618l-.414.672c.72.546 1.638.726 2.37.726 1.53 0 2.502-.678 2.502-1.758 0-.93-.702-1.428-1.908-1.584l-.672-.084c-.744-.09-1.158-.324-1.158-.798 0-.552.534-.894 1.344-.894.768 0 1.494.282 1.86.534zm8.917 0c-.546-.366-1.362-.618-2.256-.618-1.362 0-2.268.648-2.268 1.722 0 .846.6 1.416 1.878 1.572l.678.078c.804.096 1.188.372 1.188.828 0 .6-.606.918-1.566.918s-1.536-.282-1.968-.618l-.414.672c.72.546 1.638.726 2.37.726 1.53 0 2.502-.678 2.502-1.758 0-.93-.702-1.428-1.908-1.584l-.672-.084c-.744-.09-1.158-.324-1.158-.798 0-.552.534-.894 1.344-.894.768 0 1.494.282 1.86.534zm6.706-.51h-.9v3.228c0 1.176-.708 1.728-1.68 1.728s-1.686-.552-1.686-1.728v-3.228h-.894v3.312c0 1.686 1.206 2.484 2.58 2.484 1.368 0 2.58-.798 2.58-2.484zm4.313-.114c-1.596 0-2.814 1.194-2.814 2.91 0 1.722 1.218 2.916 2.814 2.916.918 0 1.596-.372 2.028-.966v.582c0 1.326-.876 2.028-2.106 2.028-.768 0-1.458-.258-1.998-.666l-.396.72c.576.48 1.488.762 2.394.762 1.758 0 3.006-1.026 3.006-2.88v-5.292h-.9v.852c-.432-.588-1.11-.966-2.028-.966zm.102.84c1.17 0 2.004.9 2.004 2.07 0 1.182-.834 2.076-2.004 2.076-1.206 0-2.004-.924-2.004-2.076 0-1.146.798-2.07 2.004-2.07zm7.205-.84c-1.596 0-2.814 1.194-2.814 2.91 0 1.722 1.218 2.916 2.814 2.916.918 0 1.596-.372 2.028-.966v.582c0 1.326-.876 2.028-2.106 2.028-.768 0-1.458-.258-1.998-.666l-.396.72c.576.48 1.488.762 2.394.762 1.758 0 3.006-1.026 3.006-2.88v-5.292h-.9v.852c-.432-.588-1.11-.966-2.028-.966zm.102.84c1.17 0 2.004.9 2.004 2.07 0 1.182-.834 2.076-2.004 2.076-1.206 0-2.004-.924-2.004-2.076 0-1.146.798-2.07 2.004-2.07zm7.21-.84c-1.62 0-2.82 1.218-2.82 2.958 0 1.758 1.194 2.952 2.874 2.952.834 0 1.626-.21 2.334-.888l-.48-.612c-.486.444-1.098.714-1.8.714-1.026 0-1.884-.63-2.01-1.854h4.554c.012-.102.018-.222.018-.336-.012-1.728-1.128-2.934-2.67-2.934zm-.018.798c.966 0 1.662.684 1.776 1.746h-3.648c.144-1.026.822-1.746 1.872-1.746zm8.462-.174c-.546-.366-1.362-.618-2.256-.618-1.362 0-2.268.648-2.268 1.722 0 .846.6 1.416 1.878 1.572l.678.078c.804.096 1.188.372 1.188.828 0 .6-.606.918-1.566.918s-1.536-.282-1.968-.618l-.414.672c.72.546 1.638.726 2.37.726 1.53 0 2.502-.678 2.502-1.758 0-.93-.702-1.428-1.908-1.584l-.672-.084c-.744-.09-1.158-.324-1.158-.798 0-.552.534-.894 1.344-.894.768 0 1.494.282 1.86.534zm5.47-.51h-2.454v-1.806h-.894v1.806h-1.242v.81h1.242v2.886c0 1.428.726 2.1 1.95 2.1.696 0 1.26-.24 1.686-.564l-.42-.678c-.33.24-.756.402-1.194.402-.66 0-1.128-.39-1.128-1.278v-2.868h2.454zm2.38 0h-.9v5.682h.9zm-.45-2.652c-.36 0-.63.276-.63.636s.27.63.63.63c.354 0 .636-.27.636-.63s-.282-.636-.636-.636zm5.006 2.538c-1.71 0-2.988 1.272-2.988 2.952 0 1.686 1.278 2.958 2.988 2.958s2.994-1.272 2.994-2.958c0-1.68-1.284-2.952-2.994-2.952zm0 .84c1.176 0 2.076.888 2.076 2.112 0 1.23-.9 2.118-2.076 2.118-1.182 0-2.076-.888-2.076-2.118 0-1.224.894-2.112 2.076-2.112zm7.365-.84c-.696 0-1.452.246-1.914.924v-.81h-.888v5.682h.9v-3.204c0-1.08.786-1.74 1.74-1.74 1.038 0 1.638.636 1.638 1.716v3.228h.894v-3.522c0-1.374-.966-2.274-2.37-2.274zm8.511.624c-.546-.366-1.362-.618-2.256-.618-1.362 0-2.268.648-2.268 1.722 0 .846.6 1.416 1.878 1.572l.678.078c.804.096 1.188.372 1.188.828 0 .6-.606.918-1.566.918s-1.536-.282-1.968-.618l-.414.672c.72.546 1.638.726 2.37.726 1.53 0 2.502-.678 2.502-1.758 0-.93-.702-1.428-1.908-1.584l-.672-.084c-.744-.09-1.158-.324-1.158-.798 0-.552.534-.894 1.344-.894.768 0 1.494.282 1.86.534z" fill="#6c6e75"/><rect height="49" rx="3.5" stroke="#e3e5e8" width="579" x="24.5" y="262"/><rect fill="#fff" height="49" rx="3.5" width="579" x="24.5" y="324"/><path d="m44.435 343.708h-5.369v-2.254h5.068v-1.792h-5.068v-2.17h5.313v-1.792h-7.266v9.8h7.322zm7.2292-4.522c-.903-.441-1.75-.644-2.835-.644-1.785 0-2.863.826-2.863 2.219 0 1.155.777 1.841 2.345 2.058l.553.077c.784.112 1.127.294 1.127.623 0 .399-.406.637-1.253.637-1.022 0-1.729-.28-2.31-.665l-.721 1.386c.882.623 2.093.798 3.017.798 1.967 0 3.115-.903 3.115-2.303 0-1.148-.819-1.806-2.289-2.03l-.602-.091c-.616-.091-1.106-.189-1.106-.581 0-.371.35-.616 1.043-.616.763.007 1.624.287 2.163.553zm4.6794-.651c-2.163 0-3.612 1.519-3.612 3.57 0 2.058 1.449 3.57 3.612 3.57 1.134 0 2.086-.455 2.723-1.274l-1.302-1.113c-.385.42-.889.686-1.477.686-.945 0-1.694-.735-1.694-1.869 0-1.127.756-1.869 1.701-1.869.595 0 1.036.238 1.449.679l1.316-1.099c-.623-.819-1.582-1.281-2.716-1.281zm10.4817.182h-1.785v.749c-.448-.553-1.099-.931-2.03-.931-1.869 0-3.283 1.533-3.283 3.57s1.414 3.57 3.283 3.57c.931 0 1.589-.378 2.03-.924v.749h1.785zm-3.479 1.519c1.043 0 1.75.798 1.75 1.869s-.707 1.869-1.75 1.869c-1.071 0-1.75-.833-1.75-1.869s.679-1.869 1.75-1.869zm7.1276-4.816h-1.827v10.08h1.827zm8.4971 3.297h-1.785v.749c-.448-.553-1.099-.931-2.03-.931-1.869 0-3.283 1.533-3.283 3.57s1.414 3.57 3.283 3.57c.931 0 1.589-.378 2.03-.924v.749h1.785zm-3.479 1.519c1.043 0 1.75.798 1.75 1.869s-.707 1.869-1.75 1.869c-1.071 0-1.75-.833-1.75-1.869s.679-1.869 1.75-1.869zm10.2216-1.519h-2.457v-2.016h-1.827v2.016h-1.309v1.624h1.309v2.625c0 1.757.861 2.709 2.541 2.709.966 0 1.652-.308 2.247-.714l-.672-1.428c-.371.224-.84.441-1.274.441-.567 0-1.015-.308-1.015-1.155v-2.478h2.457zm3.3411 0h-1.827v6.783h1.827zm-.924-3.395c-.658 0-1.162.518-1.162 1.176s.504 1.162 1.162 1.162 1.169-.504 1.169-1.162-.511-1.176-1.169-1.176zm5.9841 3.213c-2.107 0-3.661 1.526-3.661 3.57s1.554 3.57 3.661 3.57c2.114 0 3.675-1.526 3.675-3.57s-1.561-3.57-3.675-3.57zm0 1.701c1.029 0 1.806.77 1.806 1.869s-.777 1.869-1.806 1.869-1.799-.77-1.799-1.869.77-1.869 1.799-1.869zm8.8402-1.701c-.77 0-1.512.259-1.995.98v-.798h-1.778v6.783h1.827v-3.717c0-1.022.651-1.533 1.435-1.533.833 0 1.323.539 1.323 1.519v3.731h1.827v-4.319c0-1.575-1.099-2.646-2.639-2.646z" fill="#141721"/><path d="m48.834 357.1h-.99l-2.328 7.314-2.37-7.314h-1.092l-2.376 7.308-2.322-7.308h-1.008l2.73 8.4h1.182l2.328-7.116 2.328 7.116h1.188zm2.1996-.24h-.9v8.64h.9v-3.204c0-1.08.786-1.74 1.74-1.74 1.038 0 1.638.636 1.638 1.716v3.228h.894v-3.522c0-1.374-.966-2.274-2.37-2.274-.69 0-1.434.246-1.902.906zm8.595 2.844c-1.62 0-2.82 1.218-2.82 2.958 0 1.758 1.194 2.952 2.874 2.952.834 0 1.626-.21 2.334-.888l-.48-.612c-.486.444-1.098.714-1.8.714-1.026 0-1.884-.63-2.01-1.854h4.554c.012-.102.018-.222.018-.336-.012-1.728-1.128-2.934-2.67-2.934zm-.018.798c.966 0 1.662.684 1.776 1.746h-3.648c.144-1.026.822-1.746 1.872-1.746zm7.0586-.798c-.696 0-1.452.246-1.914.924v-.81h-.888v5.682h.9v-3.204c0-1.08.786-1.74 1.74-1.74 1.038 0 1.638.636 1.638 1.716v3.228h.894v-3.522c0-1.374-.966-2.274-2.37-2.274zm11.1685.114h-2.454v-1.806h-.894v1.806h-1.242v.81h1.242v2.886c0 1.428.726 2.1 1.95 2.1.696 0 1.26-.24 1.686-.564l-.42-.678c-.33.24-.756.402-1.194.402-.66 0-1.128-.39-1.128-1.278v-2.868h2.454zm2.3795-2.958h-.9v8.64h.9v-3.204c0-1.08.786-1.74 1.74-1.74 1.038 0 1.638.636 1.638 1.716v3.228h.894v-3.522c0-1.374-.966-2.274-2.37-2.274-.69 0-1.434.246-1.902.906zm8.595 2.844c-1.62 0-2.82 1.218-2.82 2.958 0 1.758 1.194 2.952 2.874 2.952.834 0 1.626-.21 2.334-.888l-.48-.612c-.486.444-1.098.714-1.8.714-1.026 0-1.884-.63-2.01-1.854h4.554c.012-.102.018-.222.018-.336-.012-1.728-1.128-2.934-2.67-2.934zm-.018.798c.966 0 1.662.684 1.776 1.746h-3.648c.144-1.026.822-1.746 1.872-1.746zm9.8638-.798c-1.746 0-2.94 1.272-2.94 2.952 0 1.686 1.194 2.958 2.94 2.958.84 0 1.59-.312 2.106-.894l-.558-.612c-.402.39-.954.666-1.572.666-1.14 0-2.004-.888-2.004-2.118 0-1.224.864-2.112 2.004-2.112.618 0 1.128.246 1.554.66l.576-.606c-.51-.582-1.266-.894-2.106-.894zm8.803.114h-.894v.846c-.45-.576-1.14-.96-2.076-.96-1.596 0-2.838 1.248-2.838 2.952 0 1.71 1.242 2.958 2.838 2.958.936 0 1.626-.378 2.076-.96v.846h.894zm-2.862.726c1.182 0 2.022.912 2.022 2.112 0 1.206-.84 2.118-2.022 2.118-1.206 0-2.034-.942-2.034-2.118 0-1.17.816-2.112 2.034-2.112zm5.763-3.684h-.9v8.64h.9zm2.9 0h-.9v8.64h.9zm4.388 2.844c-1.62 0-2.82 1.218-2.82 2.958 0 1.758 1.194 2.952 2.874 2.952.834 0 1.626-.21 2.334-.888l-.48-.612c-.486.444-1.098.714-1.8.714-1.026 0-1.884-.63-2.01-1.854h4.554c.012-.102.018-.222.018-.336-.012-1.728-1.128-2.934-2.67-2.934zm-.018.798c.966 0 1.662.684 1.776 1.746h-3.648c.144-1.026.822-1.746 1.872-1.746zm6.83-.798c-.696 0-1.296.33-1.686.912v-.798h-.888v5.682h.894v-3.18c0-1.074.636-1.77 1.524-1.77.33 0 .708.078.984.228l.216-.882c-.3-.138-.636-.192-1.044-.192zm10.641.114h-.894v.846c-.45-.576-1.14-.96-2.076-.96-1.596 0-2.838 1.248-2.838 2.952 0 1.71 1.242 2.958 2.838 2.958.936 0 1.626-.378 2.076-.96v.846h.894zm-2.862.726c1.182 0 2.022.912 2.022 2.112 0 1.206-.84 2.118-2.022 2.118-1.206 0-2.034-.942-2.034-2.118 0-1.17.816-2.112 2.034-2.112zm9.069-.216c-.546-.366-1.362-.618-2.256-.618-1.362 0-2.268.648-2.268 1.722 0 .846.6 1.416 1.878 1.572l.678.078c.804.096 1.188.372 1.188.828 0 .6-.606.918-1.566.918s-1.536-.282-1.968-.618l-.414.672c.72.546 1.638.726 2.37.726 1.53 0 2.502-.678 2.502-1.758 0-.93-.702-1.428-1.908-1.584l-.672-.084c-.744-.09-1.158-.324-1.158-.798 0-.552.534-.894 1.344-.894.768 0 1.494.282 1.86.534zm2.512-3.468h-.9v8.64h.9v-2.562h.816l2.226 2.562h1.134l-2.622-3.006 2.58-2.676h-1.122l-2.19 2.304h-.822zm9.557 3.468c-.546-.366-1.362-.618-2.256-.618-1.362 0-2.268.648-2.268 1.722 0 .846.6 1.416 1.878 1.572l.678.078c.804.096 1.188.372 1.188.828 0 .6-.606.918-1.566.918s-1.536-.282-1.968-.618l-.414.672c.72.546 1.638.726 2.37.726 1.53 0 2.502-.678 2.502-1.758 0-.93-.702-1.428-1.908-1.584l-.672-.084c-.744-.09-1.158-.324-1.158-.798 0-.552.534-.894 1.344-.894.768 0 1.494.282 1.86.534zm8.476-.51h-2.454v-1.806h-.894v1.806h-1.242v.81h1.242v2.886c0 1.428.726 2.1 1.95 2.1.696 0 1.26-.24 1.686-.564l-.42-.678c-.33.24-.756.402-1.194.402-.66 0-1.128-.39-1.128-1.278v-2.868h2.454zm4.012-.114c-1.71 0-2.988 1.272-2.988 2.952 0 1.686 1.278 2.958 2.988 2.958s2.994-1.272 2.994-2.958c0-1.68-1.284-2.952-2.994-2.952zm0 .84c1.176 0 2.076.888 2.076 2.112 0 1.23-.9 2.118-2.076 2.118-1.182 0-2.076-.888-2.076-2.118 0-1.224.894-2.112 2.076-2.112zm11.868-.216c-.546-.366-1.362-.618-2.256-.618-1.362 0-2.268.648-2.268 1.722 0 .846.6 1.416 1.878 1.572l.678.078c.804.096 1.188.372 1.188.828 0 .6-.606.918-1.566.918s-1.536-.282-1.968-.618l-.414.672c.72.546 1.638.726 2.37.726 1.53 0 2.502-.678 2.502-1.758 0-.93-.702-1.428-1.908-1.584l-.672-.084c-.744-.09-1.158-.324-1.158-.798 0-.552.534-.894 1.344-.894.768 0 1.494.282 1.86.534zm4.582-.624c-.936 0-1.62.378-2.07.954v-.84h-.9v8.082h.9v-3.24c.45.576 1.134.954 2.07.954 1.596 0 2.838-1.248 2.838-2.958 0-1.704-1.242-2.952-2.838-2.952zm-.108.84c1.206 0 2.028.942 2.028 2.112 0 1.176-.81 2.118-2.028 2.118-1.188 0-2.022-.912-2.022-2.118 0-1.2.834-2.112 2.022-2.112zm6.902-.84c-1.62 0-2.82 1.218-2.82 2.958 0 1.758 1.194 2.952 2.874 2.952.834 0 1.626-.21 2.334-.888l-.48-.612c-.486.444-1.098.714-1.8.714-1.026 0-1.884-.63-2.01-1.854h4.554c.012-.102.018-.222.018-.336-.012-1.728-1.128-2.934-2.67-2.934zm-.018.798c.966 0 1.662.684 1.776 1.746h-3.648c.144-1.026.822-1.746 1.872-1.746zm9.633-.684h-.894v.846c-.45-.576-1.14-.96-2.076-.96-1.596 0-2.838 1.248-2.838 2.952 0 1.71 1.242 2.958 2.838 2.958.936 0 1.626-.378 2.076-.96v.846h.894zm-2.862.726c1.182 0 2.022.912 2.022 2.112 0 1.206-.84 2.118-2.022 2.118-1.206 0-2.034-.942-2.034-2.118 0-1.17.816-2.112 2.034-2.112zm5.763-3.684h-.9v8.64h.9v-2.562h.816l2.226 2.562h1.134l-2.622-3.006 2.58-2.676h-1.122l-2.19 2.304h-.822zm12.133 2.958h-2.454v-1.806h-.894v1.806h-1.242v.81h1.242v2.886c0 1.428.726 2.1 1.95 2.1.696 0 1.26-.24 1.686-.564l-.42-.678c-.33.24-.756.402-1.194.402-.66 0-1.128-.39-1.128-1.278v-2.868h2.454zm4.012-.114c-1.71 0-2.988 1.272-2.988 2.952 0 1.686 1.278 2.958 2.988 2.958s2.994-1.272 2.994-2.958c0-1.68-1.284-2.952-2.994-2.952zm0 .84c1.176 0 2.076.888 2.076 2.112 0 1.23-.9 2.118-2.076 2.118-1.182 0-2.076-.888-2.076-2.118 0-1.224.894-2.112 2.076-2.112zm13.038-.726h-.894v.846c-.45-.576-1.14-.96-2.076-.96-1.596 0-2.838 1.248-2.838 2.952 0 1.71 1.242 2.958 2.838 2.958.936 0 1.626-.378 2.076-.96v.846h.894zm-2.862.726c1.182 0 2.022.912 2.022 2.112 0 1.206-.84 2.118-2.022 2.118-1.206 0-2.034-.942-2.034-2.118 0-1.17.816-2.112 2.034-2.112zm12.167-.216c-.546-.366-1.362-.618-2.256-.618-1.362 0-2.268.648-2.268 1.722 0 .846.6 1.416 1.878 1.572l.678.078c.804.096 1.188.372 1.188.828 0 .6-.606.918-1.566.918s-1.536-.282-1.968-.618l-.414.672c.72.546 1.638.726 2.37.726 1.53 0 2.502-.678 2.502-1.758 0-.93-.702-1.428-1.908-1.584l-.672-.084c-.744-.09-1.158-.324-1.158-.798 0-.552.534-.894 1.344-.894.768 0 1.494.282 1.86.534zm6.706-.51h-.9v3.228c0 1.176-.708 1.728-1.68 1.728s-1.686-.552-1.686-1.728v-3.228h-.894v3.312c0 1.686 1.206 2.484 2.58 2.484 1.368 0 2.58-.798 2.58-2.484zm4.901-.114c-.936 0-1.62.378-2.07.954v-.84h-.9v8.082h.9v-3.24c.45.576 1.134.954 2.07.954 1.596 0 2.838-1.248 2.838-2.958 0-1.704-1.242-2.952-2.838-2.952zm-.108.84c1.206 0 2.028.942 2.028 2.112 0 1.176-.81 2.118-2.028 2.118-1.188 0-2.022-.912-2.022-2.118 0-1.2.834-2.112 2.022-2.112zm6.903-.84c-1.62 0-2.82 1.218-2.82 2.958 0 1.758 1.194 2.952 2.874 2.952.834 0 1.626-.21 2.334-.888l-.48-.612c-.486.444-1.098.714-1.8.714-1.026 0-1.884-.63-2.01-1.854h4.554c.012-.102.018-.222.018-.336-.012-1.728-1.128-2.934-2.67-2.934zm-.018.798c.966 0 1.662.684 1.776 1.746h-3.648c.144-1.026.822-1.746 1.872-1.746zm6.83-.798c-.696 0-1.296.33-1.686.912v-.798h-.888v5.682h.894v-3.18c0-1.074.636-1.77 1.524-1.77.33 0 .708.078.984.228l.216-.882c-.3-.138-.636-.192-1.044-.192zm3.207.114h-.9v5.682h.9zm-.45-2.652c-.36 0-.63.276-.63.636s.27.63.63.63c.354 0 .636-.27.636-.63s-.282-.636-.636-.636zm5.006 2.538c-1.71 0-2.988 1.272-2.988 2.952 0 1.686 1.278 2.958 2.988 2.958s2.994-1.272 2.994-2.958c0-1.68-1.284-2.952-2.994-2.952zm0 .84c1.176 0 2.076.888 2.076 2.112 0 1.23-.9 2.118-2.076 2.118-1.182 0-2.076-.888-2.076-2.118 0-1.224.894-2.112 2.076-2.112zm7.137-.84c-.696 0-1.296.33-1.686.912v-.798h-.888v5.682h.894v-3.18c0-1.074.636-1.77 1.524-1.77.33 0 .708.078.984.228l.216-.882c-.3-.138-.636-.192-1.044-.192z" fill="#6c6e75"/><rect height="49" rx="3.5" stroke="#e3e5e8" width="579" x="24.5" y="324"/><rect fill="#fff" height="49" rx="3.5" width="579" x="24.5" y="386"/><path d="m44.687 398.575c-1.232-.735-2.373-1.043-3.745-1.043-2.086 0-3.906 1.064-3.906 3.108 0 1.771 1.26 2.534 2.989 2.807l.623.098c1.365.217 2.079.469 2.079 1.148 0 .756-.84 1.183-1.925 1.183-1.26 0-2.415-.49-3.122-1.057l-1.015 1.575c1.05.847 2.646 1.281 4.13 1.281 2.107 0 4.011-1.029 4.011-3.192 0-1.708-1.372-2.457-3.122-2.744l-.553-.091c-1.176-.196-2.023-.413-2.023-1.134 0-.742.777-1.176 1.876-1.176 1.071 0 2.009.357 2.779.833zm8.0096 2.142h-1.82v3.731c0 1.085-.602 1.526-1.386 1.526-.791 0-1.386-.441-1.386-1.526v-3.731h-1.827v3.892c0 2.142 1.512 3.066 3.213 3.066 1.694 0 3.206-.924 3.206-3.066zm4.9595-.182c-2.163 0-3.612 1.519-3.612 3.57 0 2.058 1.449 3.57 3.612 3.57 1.134 0 2.086-.455 2.723-1.274l-1.302-1.113c-.385.42-.889.686-1.477.686-.945 0-1.694-.735-1.694-1.869 0-1.127.756-1.869 1.701-1.869.595 0 1.036.238 1.449.679l1.316-1.099c-.623-.819-1.582-1.281-2.716-1.281zm6.9957 0c-2.163 0-3.612 1.519-3.612 3.57 0 2.058 1.449 3.57 3.612 3.57 1.134 0 2.086-.455 2.723-1.274l-1.302-1.113c-.385.42-.889.686-1.477.686-.945 0-1.694-.735-1.694-1.869 0-1.127.756-1.869 1.701-1.869.595 0 1.036.238 1.449.679l1.316-1.099c-.623-.819-1.582-1.281-2.716-1.281zm6.8137 0c-2.03 0-3.43 1.456-3.43 3.591s1.442 3.549 3.521 3.549c1.141 0 2.121-.322 2.891-1.029l-1.071-1.176c-.49.413-1.127.651-1.715.651-.861 0-1.547-.427-1.743-1.407h4.809c.021-.154.035-.406.035-.616-.007-2.114-1.344-3.563-3.297-3.563zm-.014 1.575c.784 0 1.309.49 1.477 1.358h-3.003c.161-.84.665-1.358 1.526-1.358zm10.1233-.924c-.903-.441-1.75-.644-2.835-.644-1.785 0-2.863.826-2.863 2.219 0 1.155.777 1.841 2.345 2.058l.553.077c.784.112 1.127.294 1.127.623 0 .399-.406.637-1.253.637-1.022 0-1.729-.28-2.31-.665l-.721 1.386c.882.623 2.093.798 3.017.798 1.967 0 3.115-.903 3.115-2.303 0-1.148-.819-1.806-2.289-2.03l-.602-.091c-.616-.091-1.106-.189-1.106-.581 0-.371.35-.616 1.043-.616.763.007 1.624.287 2.163.553zm6.941 0c-.903-.441-1.75-.644-2.835-.644-1.785 0-2.863.826-2.863 2.219 0 1.155.777 1.841 2.345 2.058l.553.077c.784.112 1.127.294 1.127.623 0 .399-.406.637-1.253.637-1.022 0-1.729-.28-2.31-.665l-.721 1.386c.882.623 2.093.798 3.017.798 1.967 0 3.115-.903 3.115-2.303 0-1.148-.819-1.806-2.289-2.03l-.602-.091c-.616-.091-1.106-.189-1.106-.581 0-.371.35-.616 1.043-.616.763.007 1.624.287 2.163.553zm4.4973-.651c-2.03 0-3.43 1.456-3.43 3.591s1.442 3.549 3.521 3.549c1.141 0 2.121-.322 2.891-1.029l-1.071-1.176c-.49.413-1.127.651-1.715.651-.861 0-1.547-.427-1.743-1.407h4.809c.021-.154.035-.406.035-.616-.007-2.114-1.344-3.563-3.297-3.563zm-.014 1.575c.784 0 1.309.49 1.477 1.358h-3.003c.161-.84.665-1.358 1.526-1.358zm10.1229-.924c-.903-.441-1.75-.644-2.835-.644-1.7846 0-2.8626.826-2.8626 2.219 0 1.155.777 1.841 2.345 2.058l.5526.077c.784.112 1.127.294 1.127.623 0 .399-.406.637-1.253.637-1.0216 0-1.7286-.28-2.3096-.665l-.721 1.386c.882.623 2.093.798 3.0166.798 1.967 0 3.115-.903 3.115-2.303 0-1.148-.819-1.806-2.289-2.03l-.602-.091c-.6156-.091-1.1056-.189-1.1056-.581 0-.371.35-.616 1.0426-.616.763.007 1.624.287 2.163.553z" fill="#141721"/><path d="m48.834 419.1h-.99l-2.328 7.314-2.37-7.314h-1.092l-2.376 7.308-2.322-7.308h-1.008l2.73 8.4h1.182l2.328-7.116 2.328 7.116h1.188zm2.1996-.24h-.9v8.64h.9v-3.204c0-1.08.786-1.74 1.74-1.74 1.038 0 1.638.636 1.638 1.716v3.228h.894v-3.522c0-1.374-.966-2.274-2.37-2.274-.69 0-1.434.246-1.902.906zm8.595 2.844c-1.62 0-2.82 1.218-2.82 2.958 0 1.758 1.194 2.952 2.874 2.952.834 0 1.626-.21 2.334-.888l-.48-.612c-.486.444-1.098.714-1.8.714-1.026 0-1.884-.63-2.01-1.854h4.554c.012-.102.018-.222.018-.336-.012-1.728-1.128-2.934-2.67-2.934zm-.018.798c.966 0 1.662.684 1.776 1.746h-3.648c.144-1.026.822-1.746 1.872-1.746zm7.0586-.798c-.696 0-1.452.246-1.914.924v-.81h-.888v5.682h.9v-3.204c0-1.08.786-1.74 1.74-1.74 1.038 0 1.638.636 1.638 1.716v3.228h.894v-3.522c0-1.374-.966-2.274-2.37-2.274zm11.1685.114h-2.454v-1.806h-.894v1.806h-1.242v.81h1.242v2.886c0 1.428.726 2.1 1.95 2.1.696 0 1.26-.24 1.686-.564l-.42-.678c-.33.24-.756.402-1.194.402-.66 0-1.128-.39-1.128-1.278v-2.868h2.454zm2.3795-2.958h-.9v8.64h.9v-3.204c0-1.08.786-1.74 1.74-1.74 1.038 0 1.638.636 1.638 1.716v3.228h.894v-3.522c0-1.374-.966-2.274-2.37-2.274-.69 0-1.434.246-1.902.906zm8.595 2.844c-1.62 0-2.82 1.218-2.82 2.958 0 1.758 1.194 2.952 2.874 2.952.834 0 1.626-.21 2.334-.888l-.48-.612c-.486.444-1.098.714-1.8.714-1.026 0-1.884-.63-2.01-1.854h4.554c.012-.102.018-.222.018-.336-.012-1.728-1.128-2.934-2.67-2.934zm-.018.798c.966 0 1.662.684 1.776 1.746h-3.648c.144-1.026.822-1.746 1.872-1.746zm9.8638-.798c-1.746 0-2.94 1.272-2.94 2.952 0 1.686 1.194 2.958 2.94 2.958.84 0 1.59-.312 2.106-.894l-.558-.612c-.402.39-.954.666-1.572.666-1.14 0-2.004-.888-2.004-2.118 0-1.224.864-2.112 2.004-2.112.618 0 1.128.246 1.554.66l.576-.606c-.51-.582-1.266-.894-2.106-.894zm8.803.114h-.894v.846c-.45-.576-1.14-.96-2.076-.96-1.596 0-2.838 1.248-2.838 2.952 0 1.71 1.242 2.958 2.838 2.958.936 0 1.626-.378 2.076-.96v.846h.894zm-2.862.726c1.182 0 2.022.912 2.022 2.112 0 1.206-.84 2.118-2.022 2.118-1.206 0-2.034-.942-2.034-2.118 0-1.17.816-2.112 2.034-2.112zm5.763-3.684h-.9v8.64h.9zm2.9 0h-.9v8.64h.9zm4.388 2.844c-1.62 0-2.82 1.218-2.82 2.958 0 1.758 1.194 2.952 2.874 2.952.834 0 1.626-.21 2.334-.888l-.48-.612c-.486.444-1.098.714-1.8.714-1.026 0-1.884-.63-2.01-1.854h4.554c.012-.102.018-.222.018-.336-.012-1.728-1.128-2.934-2.67-2.934zm-.018.798c.966 0 1.662.684 1.776 1.746h-3.648c.144-1.026.822-1.746 1.872-1.746zm6.83-.798c-.696 0-1.296.33-1.686.912v-.798h-.888v5.682h.894v-3.18c0-1.074.636-1.77 1.524-1.77.33 0 .708.078.984.228l.216-.882c-.3-.138-.636-.192-1.044-.192zm2.613-2.844-.36 3.042h.774l.63-3.042zm6.39 3.468c-.546-.366-1.362-.618-2.256-.618-1.362 0-2.268.648-2.268 1.722 0 .846.6 1.416 1.878 1.572l.678.078c.804.096 1.188.372 1.188.828 0 .6-.606.918-1.566.918s-1.536-.282-1.968-.618l-.414.672c.72.546 1.638.726 2.37.726 1.53 0 2.502-.678 2.502-1.758 0-.93-.702-1.428-1.908-1.584l-.672-.084c-.744-.09-1.158-.324-1.158-.798 0-.552.534-.894 1.344-.894.768 0 1.494.282 1.86.534zm5.611-.51h-.9v5.682h.9zm-.45-2.652c-.36 0-.63.276-.63.636s.27.63.63.63c.354 0 .636-.27.636-.63s-.282-.636-.636-.636zm6.656 3.162c-.546-.366-1.362-.618-2.256-.618-1.362 0-2.268.648-2.268 1.722 0 .846.6 1.416 1.878 1.572l.678.078c.804.096 1.188.372 1.188.828 0 .6-.606.918-1.566.918s-1.536-.282-1.968-.618l-.414.672c.72.546 1.638.726 2.37.726 1.53 0 2.502-.678 2.502-1.758 0-.93-.702-1.428-1.908-1.584l-.672-.084c-.744-.09-1.158-.324-1.158-.798 0-.552.534-.894 1.344-.894.768 0 1.494.282 1.86.534zm5.818 0c-.546-.366-1.362-.618-2.256-.618-1.362 0-2.268.648-2.268 1.722 0 .846.6 1.416 1.878 1.572l.678.078c.804.096 1.188.372 1.188.828 0 .6-.606.918-1.566.918s-1.536-.282-1.968-.618l-.414.672c.72.546 1.638.726 2.37.726 1.53 0 2.502-.678 2.502-1.758 0-.93-.702-1.428-1.908-1.584l-.672-.084c-.744-.09-1.158-.324-1.158-.798 0-.552.534-.894 1.344-.894.768 0 1.494.282 1.86.534zm6.706-.51h-.9v3.228c0 1.176-.708 1.728-1.68 1.728s-1.686-.552-1.686-1.728v-3.228h-.894v3.312c0 1.686 1.206 2.484 2.58 2.484 1.368 0 2.58-.798 2.58-2.484zm4.319-.114c-1.62 0-2.82 1.218-2.82 2.958 0 1.758 1.194 2.952 2.874 2.952.834 0 1.626-.21 2.334-.888l-.48-.612c-.486.444-1.098.714-1.8.714-1.026 0-1.884-.63-2.01-1.854h4.554c.012-.102.018-.222.018-.336-.012-1.728-1.128-2.934-2.67-2.934zm-.018.798c.966 0 1.662.684 1.776 1.746h-3.648c.144-1.026.822-1.746 1.872-1.746zm8.462-.174c-.546-.366-1.362-.618-2.256-.618-1.362 0-2.268.648-2.268 1.722 0 .846.6 1.416 1.878 1.572l.678.078c.804.096 1.188.372 1.188.828 0 .6-.606.918-1.566.918s-1.536-.282-1.968-.618l-.414.672c.72.546 1.638.726 2.37.726 1.53 0 2.502-.678 2.502-1.758 0-.93-.702-1.428-1.908-1.584l-.672-.084c-.744-.09-1.158-.324-1.158-.798 0-.552.534-.894 1.344-.894.768 0 1.494.282 1.86.534zm10.087-.51h-.894v.846c-.45-.576-1.14-.96-2.076-.96-1.596 0-2.838 1.248-2.838 2.952 0 1.71 1.242 2.958 2.838 2.958.936 0 1.626-.378 2.076-.96v.846h.894zm-2.862.726c1.182 0 2.022.912 2.022 2.112 0 1.206-.84 2.118-2.022 2.118-1.206 0-2.034-.942-2.034-2.118 0-1.17.816-2.112 2.034-2.112zm7.437-.84c-.696 0-1.296.33-1.686.912v-.798h-.888v5.682h.894v-3.18c0-1.074.636-1.77 1.524-1.77.33 0 .708.078.984.228l.216-.882c-.3-.138-.636-.192-1.044-.192zm4.46 0c-1.62 0-2.82 1.218-2.82 2.958 0 1.758 1.194 2.952 2.874 2.952.834 0 1.626-.21 2.334-.888l-.48-.612c-.486.444-1.098.714-1.8.714-1.026 0-1.884-.63-2.01-1.854h4.554c.012-.102.018-.222.018-.336-.012-1.728-1.128-2.934-2.67-2.934zm-.018.798c.966 0 1.662.684 1.776 1.746h-3.648c.144-1.026.822-1.746 1.872-1.746zm11.562-.174c-.546-.366-1.362-.618-2.256-.618-1.362 0-2.268.648-2.268 1.722 0 .846.6 1.416 1.878 1.572l.678.078c.804.096 1.188.372 1.188.828 0 .6-.606.918-1.566.918s-1.536-.282-1.968-.618l-.414.672c.72.546 1.638.726 2.37.726 1.53 0 2.502-.678 2.502-1.758 0-.93-.702-1.428-1.908-1.584l-.672-.084c-.744-.09-1.158-.324-1.158-.798 0-.552.534-.894 1.344-.894.768 0 1.494.282 1.86.534zm6.706-.51h-.9v3.228c0 1.176-.708 1.728-1.68 1.728s-1.686-.552-1.686-1.728v-3.228h-.894v3.312c0 1.686 1.206 2.484 2.58 2.484 1.368 0 2.58-.798 2.58-2.484zm4.439-.114c-1.746 0-2.94 1.272-2.94 2.952 0 1.686 1.194 2.958 2.94 2.958.84 0 1.59-.312 2.106-.894l-.558-.612c-.402.39-.954.666-1.572.666-1.14 0-2.004-.888-2.004-2.118 0-1.224.864-2.112 2.004-2.112.618 0 1.128.246 1.554.66l.576-.606c-.51-.582-1.266-.894-2.106-.894zm5.935 0c-1.746 0-2.94 1.272-2.94 2.952 0 1.686 1.194 2.958 2.94 2.958.84 0 1.59-.312 2.106-.894l-.558-.612c-.402.39-.954.666-1.572.666-1.14 0-2.004-.888-2.004-2.118 0-1.224.864-2.112 2.004-2.112.618 0 1.128.246 1.554.66l.576-.606c-.51-.582-1.266-.894-2.106-.894zm5.815 0c-1.62 0-2.82 1.218-2.82 2.958 0 1.758 1.194 2.952 2.874 2.952.834 0 1.626-.21 2.334-.888l-.48-.612c-.486.444-1.098.714-1.8.714-1.026 0-1.884-.63-2.01-1.854h4.554c.012-.102.018-.222.018-.336-.012-1.728-1.128-2.934-2.67-2.934zm-.018.798c.966 0 1.662.684 1.776 1.746h-3.648c.144-1.026.822-1.746 1.872-1.746zm8.463-.174c-.546-.366-1.362-.618-2.256-.618-1.362 0-2.268.648-2.268 1.722 0 .846.6 1.416 1.878 1.572l.678.078c.804.096 1.188.372 1.188.828 0 .6-.606.918-1.566.918s-1.536-.282-1.968-.618l-.414.672c.72.546 1.638.726 2.37.726 1.53 0 2.502-.678 2.502-1.758 0-.93-.702-1.428-1.908-1.584l-.672-.084c-.744-.09-1.158-.324-1.158-.798 0-.552.534-.894 1.344-.894.768 0 1.494.282 1.86.534zm5.818 0c-.546-.366-1.362-.618-2.256-.618-1.362 0-2.268.648-2.268 1.722 0 .846.6 1.416 1.878 1.572l.678.078c.804.096 1.188.372 1.188.828 0 .6-.606.918-1.566.918s-1.536-.282-1.968-.618l-.414.672c.72.546 1.638.726 2.37.726 1.53 0 2.502-.678 2.502-1.758 0-.93-.702-1.428-1.908-1.584l-.672-.084c-.744-.09-1.158-.324-1.158-.798 0-.552.534-.894 1.344-.894.768 0 1.494.282 1.86.534zm5.338-.51h-2.262v-.972c0-.792.318-1.26 1.05-1.26.432 0 .864.156 1.17.336l.324-.75c-.402-.246-.912-.426-1.554-.426-1.344 0-1.89.888-1.89 2.1v.972h-1.296v.81h1.296v4.872h.9v-4.872h2.262zm6.354 0h-.9v3.228c0 1.176-.708 1.728-1.68 1.728s-1.686-.552-1.686-1.728v-3.228h-.894v3.312c0 1.686 1.206 2.484 2.58 2.484 1.368 0 2.58-.798 2.58-2.484zm2.831-2.958h-.9v8.64h.9zm2.9 0h-.9v8.64h.9zm7.184 2.958h-.984l-2.004 3.564-2.118-3.564h-1.002l2.61 4.452-2.118 3.654h.99zm6.436-.114c-.696 0-1.296.33-1.686.912v-.798h-.888v5.682h.894v-3.18c0-1.074.636-1.77 1.524-1.77.33 0 .708.078.984.228l.216-.882c-.3-.138-.636-.192-1.044-.192zm4.46 0c-1.62 0-2.82 1.218-2.82 2.958 0 1.758 1.194 2.952 2.874 2.952.834 0 1.626-.21 2.334-.888l-.48-.612c-.486.444-1.098.714-1.8.714-1.026 0-1.884-.63-2.01-1.854h4.554c.012-.102.018-.222.018-.336-.012-1.728-1.128-2.934-2.67-2.934zm-.018.798c.966 0 1.662.684 1.776 1.746h-3.648c.144-1.026.822-1.746 1.872-1.746zm8.462-.174c-.546-.366-1.362-.618-2.256-.618-1.362 0-2.268.648-2.268 1.722 0 .846.6 1.416 1.878 1.572l.678.078c.804.096 1.188.372 1.188.828 0 .6-.606.918-1.566.918s-1.536-.282-1.968-.618l-.414.672c.72.546 1.638.726 2.37.726 1.53 0 2.502-.678 2.502-1.758 0-.93-.702-1.428-1.908-1.584l-.672-.084c-.744-.09-1.158-.324-1.158-.798 0-.552.534-.894 1.344-.894.768 0 1.494.282 1.86.534zm4.168-.624c-1.71 0-2.988 1.272-2.988 2.952 0 1.686 1.278 2.958 2.988 2.958s2.994-1.272 2.994-2.958c0-1.68-1.284-2.952-2.994-2.952zm0 .84c1.176 0 2.076.888 2.076 2.112 0 1.23-.9 2.118-2.076 2.118-1.182 0-2.076-.888-2.076-2.118 0-1.224.894-2.112 2.076-2.112zm5.463-3.684h-.9v8.64h.9zm7.022 2.958h-.948l-1.986 4.782-1.986-4.782h-.972l2.424 5.694h1.05zm3.43-.114c-1.62 0-2.82 1.218-2.82 2.958 0 1.758 1.194 2.952 2.874 2.952.834 0 1.626-.21 2.334-.888l-.48-.612c-.486.444-1.098.714-1.8.714-1.026 0-1.884-.63-2.01-1.854h4.554c.012-.102.018-.222.018-.336-.012-1.728-1.128-2.934-2.67-2.934zm-.018.798c.966 0 1.662.684 1.776 1.746h-3.648c.144-1.026.822-1.746 1.872-1.746zm6.663-.798c-1.596 0-2.838 1.248-2.838 2.952 0 1.71 1.242 2.958 2.838 2.958.936 0 1.626-.378 2.076-.96v.846h.894v-8.64h-.894v3.804c-.45-.576-1.14-.96-2.076-.96zm.108.84c1.182 0 2.022.912 2.022 2.112 0 1.206-.84 2.118-2.022 2.118-1.206 0-2.034-.942-2.034-2.118 0-1.17.816-2.112 2.034-2.112z" fill="#6c6e75"/><path d="m582 402.167c-4.6 0-8.333 3.733-8.333 8.333s3.733 8.334 8.333 8.334 8.333-3.734 8.333-8.334-3.733-8.333-8.333-8.333zm-1.667 12.5-4.166-4.167 1.175-1.175 2.991 2.984 6.325-6.325 1.175 1.183z" fill="#1738fa"/><rect height="49" rx="3.5" stroke="#1738fa" width="579" x="24.5" y="386"/><rect height="54" rx="6" stroke="#1738fa" stroke-opacity=".15" stroke-width="4" width="584" x="22" y="383.5"/><path d="m29.064 461.98c-2.478 0-4.338 1.794-4.338 4.32 0 2.718 2.088 4.314 4.296 4.314 2.532 0 4.08-1.908 4.08-4.356 0-.078-.006-.162-.012-.246h-3.66v.9h2.616c-.15 1.722-1.248 2.778-3.024 2.778-1.842 0-3.282-1.368-3.282-3.39s1.44-3.39 3.324-3.39c1.044 0 1.95.444 2.544 1.164l.714-.684c-.768-.882-1.926-1.41-3.258-1.41zm6.618 2.838h-.9v5.682h.9zm-.45-2.652c-.36 0-.63.276-.63.636s.27.63.63.63c.354 0 .636-.27.636-.63s-.282-.636-.636-.636zm7.472 2.652h-.948l-1.986 4.782-1.986-4.782h-.972l2.424 5.694h1.05zm3.4301-.114c-1.62 0-2.82 1.218-2.82 2.958 0 1.758 1.194 2.952 2.874 2.952.834 0 1.626-.21 2.334-.888l-.48-.612c-.486.444-1.098.714-1.8.714-1.026 0-1.884-.63-2.01-1.854h4.554c.012-.102.018-.222.018-.336-.012-1.728-1.128-2.934-2.67-2.934zm-.018.798c.966 0 1.662.684 1.776 1.746h-3.648c.144-1.026.822-1.746 1.872-1.746zm10.988-.684h-2.262v-.972c0-.792.318-1.26 1.05-1.26.432 0 .864.156 1.17.336l.324-.75c-.402-.246-.912-.426-1.554-.426-1.344 0-1.89.888-1.89 2.1v.972h-1.296v.81h1.296v4.872h.9v-4.872h2.262zm3.4956-.114c-1.62 0-2.82 1.218-2.82 2.958 0 1.758 1.194 2.952 2.874 2.952.834 0 1.626-.21 2.334-.888l-.48-.612c-.486.444-1.098.714-1.8.714-1.026 0-1.884-.63-2.01-1.854h4.554c.012-.102.018-.222.018-.336-.012-1.728-1.128-2.934-2.67-2.934zm-.018.798c.966 0 1.662.684 1.776 1.746h-3.648c.144-1.026.822-1.746 1.872-1.746zm6.6446-.798c-1.62 0-2.82 1.218-2.82 2.958 0 1.758 1.194 2.952 2.874 2.952.834 0 1.626-.21 2.334-.888l-.48-.612c-.486.444-1.098.714-1.8.714-1.026 0-1.884-.63-2.01-1.854h4.554c.012-.102.018-.222.018-.336-.012-1.728-1.128-2.934-2.67-2.934zm-.018.798c.966 0 1.662.684 1.776 1.746h-3.648c.144-1.026.822-1.746 1.872-1.746zm6.6625-.798c-1.596 0-2.838 1.248-2.838 2.952 0 1.71 1.242 2.958 2.838 2.958.936 0 1.626-.378 2.076-.96v.846h.894v-8.64h-.894v3.804c-.45-.576-1.14-.96-2.076-.96zm.108.84c1.182 0 2.022.912 2.022 2.112 0 1.206-.84 2.118-2.022 2.118-1.206 0-2.034-.942-2.034-2.118 0-1.17.816-2.112 2.034-2.112zm7.8326-.84c-.936 0-1.62.378-2.07.954v-3.798h-.9v8.64h.9v-.84c.45.576 1.134.954 2.07.954 1.596 0 2.838-1.248 2.838-2.958 0-1.704-1.242-2.952-2.838-2.952zm-.108.84c1.206 0 2.028.942 2.028 2.112 0 1.176-.81 2.118-2.028 2.118-1.188 0-2.022-.912-2.022-2.118 0-1.2.834-2.112 2.022-2.112zm9.8906-.726h-.894v.846c-.45-.576-1.14-.96-2.076-.96-1.596 0-2.838 1.248-2.838 2.952 0 1.71 1.242 2.958 2.838 2.958.936 0 1.626-.378 2.076-.96v.846h.894zm-2.862.726c1.182 0 2.022.912 2.022 2.112 0 1.206-.84 2.118-2.022 2.118-1.206 0-2.034-.942-2.034-2.118 0-1.17.816-2.112 2.034-2.112zm7.3705-.84c-1.746 0-2.94 1.272-2.94 2.952 0 1.686 1.194 2.958 2.94 2.958.84 0 1.59-.312 2.106-.894l-.558-.612c-.402.39-.954.666-1.572.666-1.14 0-2.004-.888-2.004-2.118 0-1.224.864-2.112 2.004-2.112.618 0 1.128.246 1.554.66l.576-.606c-.51-.582-1.266-.894-2.106-.894zm4.4325-2.844h-.8998v8.64h.8998v-2.562h.816l2.226 2.562h1.134l-2.622-3.006 2.58-2.676h-1.122l-2.19 2.304h-.822zm13.745 2.958h-.894v.846c-.45-.576-1.14-.96-2.076-.96-1.596 0-2.838 1.248-2.838 2.952 0 1.71 1.242 2.958 2.838 2.958.936 0 1.626-.378 2.076-.96v.846h.894zm-2.862.726c1.182 0 2.022.912 2.022 2.112 0 1.206-.84 2.118-2.022 2.118-1.206 0-2.034-.942-2.034-2.118 0-1.17.816-2.112 2.034-2.112zm7.832-.84c-.936 0-1.62.378-2.07.954v-3.798h-.9v8.64h.9v-.84c.45.576 1.134.954 2.07.954 1.596 0 2.838-1.248 2.838-2.958 0-1.704-1.242-2.952-2.838-2.952zm-.108.84c1.206 0 2.028.942 2.028 2.112 0 1.176-.81 2.118-2.028 2.118-1.188 0-2.022-.912-2.022-2.118 0-1.2.834-2.112 2.022-2.112zm7.071-.84c-1.71 0-2.988 1.272-2.988 2.952 0 1.686 1.278 2.958 2.988 2.958s2.994-1.272 2.994-2.958c0-1.68-1.284-2.952-2.994-2.952zm0 .84c1.176 0 2.076.888 2.076 2.112 0 1.23-.9 2.118-2.076 2.118-1.182 0-2.076-.888-2.076-2.118 0-1.224.894-2.112 2.076-2.112zm9.657-.726h-.9v3.228c0 1.176-.708 1.728-1.68 1.728s-1.686-.552-1.686-1.728v-3.228h-.894v3.312c0 1.686 1.206 2.484 2.58 2.484 1.368 0 2.58-.798 2.58-2.484zm5.789 0h-2.454v-1.806h-.894v1.806h-1.242v.81h1.242v2.886c0 1.428.726 2.1 1.95 2.1.696 0 1.26-.24 1.686-.564l-.42-.678c-.33.24-.756.402-1.194.402-.66 0-1.128-.39-1.128-1.278v-2.868h2.454zm8.343 0h-2.454v-1.806h-.894v1.806h-1.242v.81h1.242v2.886c0 1.428.726 2.1 1.95 2.1.696 0 1.26-.24 1.686-.564l-.42-.678c-.33.24-.756.402-1.194.402-.66 0-1.128-.39-1.128-1.278v-2.868h2.454zm2.379-2.958h-.9v8.64h.9v-3.204c0-1.08.786-1.74 1.74-1.74 1.038 0 1.638.636 1.638 1.716v3.228h.894v-3.522c0-1.374-.966-2.274-2.37-2.274-.69 0-1.434.246-1.902.906zm8.595 2.844c-1.62 0-2.82 1.218-2.82 2.958 0 1.758 1.194 2.952 2.874 2.952.834 0 1.626-.21 2.334-.888l-.48-.612c-.486.444-1.098.714-1.8.714-1.026 0-1.884-.63-2.01-1.854h4.554c.012-.102.018-.222.018-.336-.012-1.728-1.128-2.934-2.67-2.934zm-.018.798c.966 0 1.662.684 1.776 1.746h-3.648c.144-1.026.822-1.746 1.872-1.746zm8.463-.174c-.546-.366-1.362-.618-2.256-.618-1.362 0-2.268.648-2.268 1.722 0 .846.6 1.416 1.878 1.572l.678.078c.804.096 1.188.372 1.188.828 0 .6-.606.918-1.566.918s-1.536-.282-1.968-.618l-.414.672c.72.546 1.638.726 2.37.726 1.53 0 2.502-.678 2.502-1.758 0-.93-.702-1.428-1.908-1.584l-.672-.084c-.744-.09-1.158-.324-1.158-.798 0-.552.534-.894 1.344-.894.768 0 1.494.282 1.86.534zm4-.624c-1.62 0-2.82 1.218-2.82 2.958 0 1.758 1.194 2.952 2.874 2.952.834 0 1.626-.21 2.334-.888l-.48-.612c-.486.444-1.098.714-1.8.714-1.026 0-1.884-.63-2.01-1.854h4.554c.012-.102.018-.222.018-.336-.012-1.728-1.128-2.934-2.67-2.934zm-.018.798c.966 0 1.662.684 1.776 1.746h-3.648c.144-1.026.822-1.746 1.872-1.746zm11.12-.684h-2.454v-1.806h-.894v1.806h-1.242v.81h1.242v2.886c0 1.428.726 2.1 1.95 2.1.696 0 1.26-.24 1.686-.564l-.42-.678c-.33.24-.756.402-1.194.402-.66 0-1.128-.39-1.128-1.278v-2.868h2.454zm3.844-.114c-1.62 0-2.82 1.218-2.82 2.958 0 1.758 1.194 2.952 2.874 2.952.834 0 1.626-.21 2.334-.888l-.48-.612c-.486.444-1.098.714-1.8.714-1.026 0-1.884-.63-2.01-1.854h4.554c.012-.102.018-.222.018-.336-.012-1.728-1.128-2.934-2.67-2.934zm-.018.798c.966 0 1.662.684 1.776 1.746h-3.648c.144-1.026.822-1.746 1.872-1.746zm11.33-.798c-.798 0-1.686.312-2.142 1.194-.366-.744-1.14-1.194-2.13-1.194-.696 0-1.452.246-1.914.924v-.81h-.888v5.682h.9v-3.204c0-1.08.786-1.74 1.74-1.74 1.038 0 1.638.636 1.638 1.716v3.228h.894v-3.204c0-1.08.786-1.74 1.74-1.74 1.044 0 1.644.636 1.644 1.716v3.228h.894v-3.522c0-1.374-.966-2.274-2.376-2.274zm7.281 0c-.936 0-1.62.378-2.07.954v-.84h-.9v8.082h.9v-3.24c.45.576 1.134.954 2.07.954 1.596 0 2.838-1.248 2.838-2.958 0-1.704-1.242-2.952-2.838-2.952zm-.108.84c1.206 0 2.028.942 2.028 2.112 0 1.176-.81 2.118-2.028 2.118-1.188 0-2.022-.912-2.022-2.118 0-1.2.834-2.112 2.022-2.112zm5.414-3.684h-.9v8.64h.9zm7.376 2.958h-.894v.846c-.45-.576-1.14-.96-2.076-.96-1.596 0-2.838 1.248-2.838 2.952 0 1.71 1.242 2.958 2.838 2.958.936 0 1.626-.378 2.076-.96v.846h.894zm-2.862.726c1.182 0 2.022.912 2.022 2.112 0 1.206-.84 2.118-2.022 2.118-1.206 0-2.034-.942-2.034-2.118 0-1.17.816-2.112 2.034-2.112zm8.721-.726h-2.454v-1.806h-.894v1.806h-1.242v.81h1.242v2.886c0 1.428.726 2.1 1.95 2.1.696 0 1.26-.24 1.686-.564l-.42-.678c-.33.24-.756.402-1.194.402-.66 0-1.128-.39-1.128-1.278v-2.868h2.454zm3.844-.114c-1.62 0-2.82 1.218-2.82 2.958 0 1.758 1.194 2.952 2.874 2.952.834 0 1.626-.21 2.334-.888l-.48-.612c-.486.444-1.098.714-1.8.714-1.026 0-1.884-.63-2.01-1.854h4.554c.012-.102.018-.222.018-.336-.012-1.728-1.128-2.934-2.67-2.934zm-.018.798c.966 0 1.662.684 1.776 1.746h-3.648c.144-1.026.822-1.746 1.872-1.746zm8.463-.174c-.546-.366-1.362-.618-2.256-.618-1.362 0-2.268.648-2.268 1.722 0 .846.6 1.416 1.878 1.572l.678.078c.804.096 1.188.372 1.188.828 0 .6-.606.918-1.566.918s-1.536-.282-1.968-.618l-.414.672c.72.546 1.638.726 2.37.726 1.53 0 2.502-.678 2.502-1.758 0-.93-.702-1.428-1.908-1.584l-.672-.084c-.744-.09-1.158-.324-1.158-.798 0-.552.534-.894 1.344-.894.768 0 1.494.282 1.86.534z" fill="#1738fa"/><path d="m411.096 460.132c-3.36 0-5.8 2.416-5.8 5.768s2.44 5.768 5.8 5.768c1.936 0 3.608-.864 4.552-2.264l-1.152-.84c-.736 1.096-1.96 1.752-3.4 1.752-2.464 0-4.328-1.784-4.328-4.416s1.864-4.416 4.328-4.416c1.448 0 2.68.68 3.408 1.76l1.176-.792c-.88-1.44-2.624-2.32-4.584-2.32zm13.834 3.768h-1.312v1.024c-.6-.72-1.488-1.184-2.68-1.184-2.136 0-3.8 1.664-3.8 3.96s1.664 3.96 3.8 3.96c1.192 0 2.08-.464 2.68-1.176v1.016h1.312zm-3.84 1.072c1.536 0 2.608 1.176 2.608 2.728 0 1.56-1.072 2.736-2.608 2.736-1.56 0-2.616-1.224-2.616-2.736s1.032-2.728 2.616-2.728zm10.292-1.232c-.88 0-1.864.296-2.488 1.152v-.992h-1.296v7.6h1.304v-4.264c0-1.416 1.024-2.256 2.248-2.256 1.32 0 2.088.824 2.088 2.224v4.296h1.312v-4.72c0-1.824-1.296-3.04-3.168-3.04zm9.125 0c-2.352 0-3.944 1.704-3.944 3.96s1.592 3.96 3.944 3.96c1.128 0 2.136-.416 2.824-1.192l-.808-.904c-.528.512-1.24.872-2.048.872-1.464 0-2.576-1.144-2.576-2.736s1.112-2.728 2.576-2.728c.808 0 1.456.312 2.016.856l.84-.888c-.68-.784-1.696-1.2-2.824-1.2zm7.794 0c-2.184 0-3.776 1.624-3.776 3.96 0 2.368 1.6 3.96 3.856 3.96 1.12 0 2.176-.272 3.12-1.152l-.696-.896c-.648.56-1.456.904-2.344.904-1.304 0-2.4-.776-2.584-2.352h5.976c.008-.144.024-.32.024-.488-.016-2.328-1.504-3.936-3.576-3.936zm-.024 1.16c1.232 0 2.104.864 2.264 2.208h-4.648c.2-1.296 1.04-2.208 2.384-2.208zm6.997-4.92h-1.304v11.52h1.304z" fill="#d2103e"/><path d="m469 451.5c0-2.209 1.791-4 4-4h127c2.209 0 4 1.791 4 4v28c0 2.209-1.791 4-4 4h-127c-2.209 0-4-1.791-4-4z" fill="#1738fa"/><path d="m483.584 460.3h-1.752l-4.552 11.2h1.464l1.224-3.056h5.432l1.232 3.056h1.512zm-.896 1.392 2.176 5.416h-4.36zm11.002 2.048c-1.2 0-2.088.464-2.68 1.176v-1.016h-1.304v10.8h1.304v-4.216c.592.712 1.48 1.176 2.68 1.176 2.128 0 3.8-1.664 3.8-3.96s-1.672-3.96-3.8-3.96zm-.152 1.232c1.552 0 2.608 1.216 2.608 2.728s-1.032 2.736-2.608 2.736c-1.536 0-2.608-1.176-2.608-2.736 0-1.552 1.072-2.728 2.608-2.728zm10.021-1.232c-1.2 0-2.088.464-2.68 1.176v-1.016h-1.304v10.8h1.304v-4.216c.592.712 1.48 1.176 2.68 1.176 2.128 0 3.8-1.664 3.8-3.96s-1.672-3.96-3.8-3.96zm-.152 1.232c1.552 0 2.608 1.216 2.608 2.728s-1.032 2.736-2.608 2.736c-1.536 0-2.608-1.176-2.608-2.736 0-1.552 1.072-2.728 2.608-2.728zm7.34-4.992h-1.304v11.52h1.304zm9.69 3.92h-1.44l-2.6 4.672-2.736-4.672h-1.464l3.464 5.976-2.808 4.864h1.448zm10.257 0h-3.192v-2.384h-1.312v2.384h-1.624v1.192h1.624v3.728c0 1.936.984 2.84 2.632 2.84.936 0 1.696-.328 2.28-.752l-.616-.984c-.432.296-.992.512-1.552.512-.824 0-1.432-.496-1.432-1.64v-3.704h3.192zm5.174-.16c-2.184 0-3.776 1.624-3.776 3.96 0 2.368 1.6 3.96 3.856 3.96 1.12 0 2.176-.272 3.12-1.152l-.696-.896c-.648.56-1.456.904-2.344.904-1.304 0-2.4-.776-2.584-2.352h5.976c.008-.144.024-.32.024-.488-.016-2.328-1.504-3.936-3.576-3.936zm-.024 1.16c1.232 0 2.104.864 2.264 2.208h-4.648c.2-1.296 1.04-2.208 2.384-2.208zm15.117-1.16c-1.032 0-2.208.376-2.832 1.528-.504-.952-1.52-1.528-2.808-1.528-.88 0-1.864.296-2.488 1.152v-.992h-1.296v7.6h1.304v-4.264c0-1.416 1.024-2.256 2.248-2.256 1.32 0 2.088.824 2.088 2.224v4.296h1.312v-4.264c0-1.384.984-2.256 2.24-2.256 1.32 0 2.088.824 2.088 2.224v4.296h1.312v-4.72c0-1.824-1.288-3.04-3.168-3.04zm9.741 0c-1.2 0-2.088.464-2.68 1.176v-1.016h-1.304v10.8h1.304v-4.216c.592.712 1.48 1.176 2.68 1.176 2.128 0 3.8-1.664 3.8-3.96s-1.672-3.96-3.8-3.96zm-.152 1.232c1.552 0 2.608 1.216 2.608 2.728s-1.032 2.736-2.608 2.736c-1.536 0-2.608-1.176-2.608-2.736 0-1.552 1.072-2.728 2.608-2.728zm7.341-4.992h-1.304v11.52h1.304zm9.89 3.92h-1.312v1.024c-.6-.72-1.488-1.184-2.68-1.184-2.136 0-3.8 1.664-3.8 3.96s1.664 3.96 3.8 3.96c1.192 0 2.08-.464 2.68-1.176v1.016h1.312zm-3.84 1.072c1.536 0 2.608 1.176 2.608 2.728 0 1.56-1.072 2.736-2.608 2.736-1.56 0-2.616-1.224-2.616-2.736s1.032-2.728 2.616-2.728zm11.669-1.072h-3.192v-2.384h-1.312v2.384h-1.624v1.192h1.624v3.728c0 1.936.984 2.84 2.632 2.84.936 0 1.696-.328 2.28-.752l-.616-.984c-.432.296-.992.512-1.552.512-.824 0-1.432-.496-1.432-1.64v-3.704h3.192zm5.174-.16c-2.184 0-3.776 1.624-3.776 3.96 0 2.368 1.6 3.96 3.856 3.96 1.12 0 2.176-.272 3.12-1.152l-.696-.896c-.648.56-1.456.904-2.344.904-1.304 0-2.4-.776-2.584-2.352h5.976c.008-.144.024-.32.024-.488-.016-2.328-1.504-3.936-3.576-3.936zm-.024 1.16c1.232 0 2.104.864 2.264 2.208h-4.648c.2-1.296 1.04-2.208 2.384-2.208z" fill="#fff"/><path d="m599.25 30.8075-1.057-1.0575-4.193 4.1925-4.193-4.1925-1.057 1.0575 4.193 4.1925-4.193 4.1925 1.057 1.0575 4.193-4.1925 4.193 4.1925 1.057-1.0575-4.193-4.1925z" fill="#141721"/></svg>