<svg fill="none" height="427" viewBox="0 0 500 427" width="500" xmlns="http://www.w3.org/2000/svg" xmlns:xlink="http://www.w3.org/1999/xlink"><filter id="a" color-interpolation-filters="sRGB" filterUnits="userSpaceOnUse" height="34" width="64" x="161" y="305.5"><feFlood flood-opacity="0" result="BackgroundImageFix"/><feBlend in="SourceGraphic" in2="BackgroundImageFix" mode="normal" result="shape"/><feColorMatrix in="SourceAlpha" result="hardAlpha" type="matrix" values="0 0 0 0 0 0 0 0 0 0 0 0 0 0 0 0 0 0 127 0"/><feOffset dy="2"/><feGaussianBlur stdDeviation="1.5"/><feComposite in2="hardAlpha" k2="-1" k3="1" operator="arithmetic"/><feColorMatrix type="matrix" values="0 0 0 0 0.0784314 0 0 0 0 0.0901961 0 0 0 0 0.129412 0 0 0 0.15 0"/><feBlend in2="shape" mode="normal" result="effect1_innerShadow"/></filter><filter id="b" color-interpolation-filters="sRGB" filterUnits="userSpaceOnUse" height="34" width="64" x="294" y="305.5"><feFlood flood-opacity="0" result="BackgroundImageFix"/><feBlend in="SourceGraphic" in2="BackgroundImageFix" mode="normal" result="shape"/><feColorMatrix in="SourceAlpha" result="hardAlpha" type="matrix" values="0 0 0 0 0 0 0 0 0 0 0 0 0 0 0 0 0 0 127 0"/><feOffset dy="2"/><feGaussianBlur stdDeviation="1.5"/><feComposite in2="hardAlpha" k2="-1" k3="1" operator="arithmetic"/><feColorMatrix type="matrix" values="0 0 0 0 0.0784314 0 0 0 0 0.0901961 0 0 0 0 0.129412 0 0 0 0.15 0"/><feBlend in2="shape" mode="normal" result="effect1_innerShadow"/></filter><clipPath id="c"><path d="m458 6h36v36h-36z"/></clipPath><rect fill="#fff" height="427" rx="12" width="500"/><path d="m0 12c0-6.62742 5.37258-12 12-12h476c6.627 0 12 5.37258 12 12v36h-500z" fill="#fff"/><path d="m24.3672 27.3633h-4.6231l-.8789 2.6367h-2.8037l4.7637-12.7969h2.4434l4.79 12.7969h-2.8037zm-3.9111-2.1358h3.1992l-1.6084-4.79zm8.2353-.0527c0-1.4824.3311-2.6631.9932-3.542.6679-.8789 1.5791-1.3183 2.7334-1.3183.9258 0 1.6904.3457 2.2939 1.0371v-4.8516h2.5488v13.5h-2.2939l-.123-1.0107c-.6329.791-1.4473 1.1865-2.4434 1.1865-1.1192 0-2.0186-.4395-2.6983-1.3184-.6738-.8847-1.0107-2.1123-1.0107-3.6826zm2.54.1846c0 .8906.1553 1.5732.4659 2.0478.3105.4746.7617.7119 1.3535.7119.7851 0 1.3388-.331 1.6611-.9931v-3.753c-.3164-.6621-.8642-.9931-1.6435-.9931-1.2246 0-1.837.9931-1.837 2.9795zm7.6026-.1846c0-1.4824.331-2.6631.9931-3.542.668-.8789 1.5791-1.3183 2.7334-1.3183.9258 0 1.6905.3457 2.294 1.0371v-4.8516h2.5488v13.5h-2.2939l-.1231-1.0107c-.6328.791-1.4472 1.1865-2.4433 1.1865-1.1192 0-2.0186-.4395-2.6983-1.3184-.6738-.8847-1.0107-2.1123-1.0107-3.6826zm2.54.1846c0 .8906.1553 1.5732.4658 2.0478.3106.4746.7618.7119 1.3536.7119.7851 0 1.3388-.331 1.6611-.9931v-3.753c-.3164-.6621-.8643-.9931-1.6436-.9931-1.2246 0-1.8369.9931-1.8369 2.9795zm15.5215-7.2071v2.3379h1.626v1.8633h-1.626v4.7461c0 .3516.0674.6035.2022.7559.1347.1523.3925.2285.7734.2285.2812 0 .5303-.0205.7471-.0615v1.9248c-.4981.1523-1.0108.2285-1.5381.2285-1.7813 0-2.6895-.8994-2.7246-2.6983v-5.124h-1.3887v-1.8633h1.3887v-2.3379zm2.3818 7.0049c0-.9433.1817-1.7842.545-2.5224.3632-.7383.8847-1.3096 1.5644-1.7139.6856-.4043 1.4795-.6064 2.3819-.6064 1.2832 0 2.3291.3925 3.1376 1.1777.8145.7851 1.2686 1.8516 1.3624 3.1992l.0175.6504c0 1.459-.4072 2.6309-1.2216 3.5156-.8145.8789-1.9073 1.3184-3.2784 1.3184s-2.4668-.4395-3.2871-1.3184c-.8144-.8789-1.2217-2.0742-1.2217-3.5859zm2.5401.1846c0 .9023.1699 1.5937.5097 2.0742.3399.4746.8262.7119 1.459.7119.6153 0 1.0957-.2343 1.4414-.7031.3457-.4746.5186-1.2305.5186-2.2676 0-.8847-.1729-1.5703-.5186-2.0566s-.832-.7295-1.4589-.7295c-.6211 0-1.1016.2432-1.4415.7295-.3398.4805-.5097 1.2275-.5097 2.2412zm21.0762-.0088c0 1.4649-.334 2.6397-1.002 3.5244-.6621.8789-1.5586 1.3184-2.6895 1.3184-.9609 0-1.7373-.334-2.3291-1.002v4.4824h-2.54v-13.166h2.3555l.0879.9317c.6152-.7383 1.4179-1.1074 2.4082-1.1074 1.1718 0 2.083.4335 2.7334 1.3007s.9756 2.0625.9756 3.586zm-2.5401-.1846c0-.8847-.1582-1.5673-.4746-2.0478-.3105-.4805-.7646-.7207-1.3623-.7207-.7969 0-1.3447.3047-1.6436.914v3.8936c.3106.627.8643.9404 1.6612.9404 1.2129 0 1.8193-.9931 1.8193-2.9795zm6.8027 4.8516h-2.5488v-13.5h2.5488zm7.6114 0c-.1172-.2285-.2022-.5127-.2549-.8525-.6152.6855-1.415 1.0283-2.3994 1.0283-.9317 0-1.7051-.2696-2.3203-.8086-.6094-.5391-.9141-1.2188-.9141-2.0391 0-1.0078.3721-1.7812 1.1162-2.3203.75-.539 1.8311-.8115 3.2432-.8174h1.1689v-.5449c0-.4394-.1142-.791-.3427-1.0547-.2227-.2637-.5772-.3955-1.0635-.3955-.4278 0-.7647.1026-1.0108.3076-.2402.2051-.3603.4864-.3603.8438h-2.5401c0-.5508.17-1.0606.5098-1.5293.3399-.4688.8203-.835 1.4414-1.0986.6211-.2696 1.3184-.4043 2.0918-.4043 1.1719 0 2.1006.2959 2.7861.8876.6915.586 1.0372 1.4122 1.0372 2.4786v4.122c.0058.9024.1318 1.585.3779 2.0479v.1494zm-2.1006-1.7666c.375 0 .7207-.082 1.0371-.2461.3164-.1699.5508-.3955.7031-.6768v-1.6347h-.9492c-1.2715 0-1.9482.4394-2.0303 1.3183l-.0088.1495c0 .3164.1114.5771.334.7822.2227.2051.5274.3076.9141.3076zm9.65-1.8281 1.758-5.9151h2.725l-3.823 10.9864-.211.5009c-.569 1.2422-1.506 1.8633-2.8129 1.8633-.3691 0-.7441-.0556-1.125-.167v-1.9248l.3867.0088c.4805 0 .8382-.0732 1.0722-.2197.24-.1465.428-.3897.563-.7295l.298-.7822-3.3306-9.5362h2.7336zm8.165 3.5947h-2.548v-13.5h2.548zm4.782 0h-2.549v-9.5098h2.549zm-2.699-11.9707c0-.3809.126-.6943.378-.9404.258-.2461.607-.3692 1.046-.3692.434 0 .78.1231 1.037.3692.258.2461.387.5595.387.9404 0 .3867-.132.7031-.395.9492-.258.2461-.601.3692-1.029.3692-.427 0-.773-.1231-1.037-.3692-.258-.2461-.387-.5625-.387-.9492zm9.95 9.3428c0-.3106-.156-.5537-.466-.7295-.305-.1817-.797-.3428-1.477-.4834-2.261-.4746-3.392-1.4356-3.392-2.8828 0-.8438.348-1.5469 1.046-2.1094.703-.5684 1.62-.8525 2.751-.8525 1.207 0 2.17.2841 2.891.8525.727.5684 1.09 1.3066 1.09 2.2148h-2.54c0-.3632-.117-.6621-.352-.8964-.234-.2403-.6-.3604-1.098-.3604-.428 0-.759.0967-.993.29-.235.1934-.352.4395-.352.7383 0 .2813.132.5098.396.6856.269.1699.72.3193 1.353.4482.633.1231 1.166.2637 1.6.4219 1.341.4922 2.012 1.3447 2.012 2.5576 0 .8672-.372 1.5703-1.116 2.1094-.744.5332-1.705.7998-2.883.7998-.797 0-1.506-.1406-2.127-.4219-.615-.2871-1.098-.6768-1.45-1.1689-.351-.4981-.527-1.0342-.527-1.6084h2.408c.023.4511.19.7968.501 1.0371.311.2402.727.3603 1.248.3603.486 0 .853-.0908 1.099-.2724.252-.1875.378-.4307.378-.7295zm7.154-9.2198v2.3379h1.626v1.8633h-1.626v4.7461c0 .3516.067.6035.202.7559.135.1523.393.2285.774.2285.281 0 .53-.0205.747-.0615v1.9248c-.498.1523-1.011.2285-1.538.2285-1.782 0-2.69-.8994-2.725-2.6983v-5.124h-1.389v-1.8633h1.389v-2.3379z" fill="#141721"/><g clip-path="url(#c)"><path d="m481.833 19.342-1.175-1.175-4.658 4.6583-4.658-4.6583-1.175 1.175 4.658 4.6583-4.658 4.6584 1.175 1.175 4.658-4.6584 4.658 4.6584 1.175-1.175-4.658-4.6584z" fill="#141721"/></g><path d="m.25 48.25h499.5v.5h-499.5z" fill="#fff" stroke="#e3e5e8" stroke-width=".5"/><path d="m43.915 69.053c-2.94 0-5.075 2.114-5.075 5.047s2.135 5.047 5.075 5.047c1.694 0 3.157-.756 3.983-1.981l-1.008-.735c-.644.959-1.715 1.533-2.975 1.533-2.156 0-3.787-1.561-3.787-3.864s1.631-3.864 3.787-3.864c1.267 0 2.345.595 2.982 1.54l1.029-.693c-.77-1.26-2.296-2.03-4.011-2.03zm11.9001 3.297h-1.148v3.759c0 1.358-.805 1.96-1.883 1.96-1.085 0-1.89-.602-1.89-1.96v-3.759h-1.148v3.864c0 2.009 1.435 2.926 3.038 2.926 1.589 0 3.031-.917 3.031-2.926zm7.2315.588c-.644-.441-1.603-.721-2.653-.721-1.617 0-2.674.77-2.674 2.044 0 1.008.721 1.68 2.212 1.862l.77.091c.903.112 1.337.42 1.337.91 0 .658-.672 1.015-1.764 1.015-1.113 0-1.778-.322-2.275-.707l-.532.854c.875.658 1.981.854 2.8.854 1.813 0 2.947-.819 2.947-2.086 0-1.099-.833-1.694-2.247-1.883l-.77-.098c-.805-.098-1.288-.343-1.288-.875 0-.602.588-.987 1.498-.987.875 0 1.722.329 2.142.616zm6.397-.588h-2.793v-2.086h-1.148v2.086h-1.421v1.043h1.421v3.262c0 1.694.861 2.485 2.303 2.485.819 0 1.484-.287 1.995-.658l-.539-.861c-.378.259-.868.448-1.358.448-.721 0-1.253-.434-1.253-1.435v-3.241h2.793zm4.7251-.14c-2.016 0-3.514 1.491-3.514 3.465s1.498 3.465 3.514 3.465 3.521-1.491 3.521-3.465-1.505-3.465-3.521-3.465zm0 1.078c1.33 0 2.345.994 2.345 2.387s-1.015 2.394-2.345 2.394c-1.337 0-2.345-1.001-2.345-2.394s1.008-2.387 2.345-2.387zm13.5852-1.078c-.903 0-1.932.329-2.478 1.337-.441-.833-1.33-1.337-2.457-1.337-.77 0-1.631.259-2.177 1.008v-.868h-1.134v6.65h1.141v-3.731c0-1.239.896-1.974 1.967-1.974 1.155 0 1.827.721 1.827 1.946v3.759h1.148v-3.731c0-1.211.861-1.974 1.96-1.974 1.155 0 1.827.721 1.827 1.946v3.759h1.148v-4.13c0-1.596-1.127-2.66-2.772-2.66zm7.8251 0c-1.911 0-3.304 1.421-3.304 3.465 0 2.072 1.4 3.465 3.374 3.465.98 0 1.904-.238 2.73-1.008l-.609-.784c-.567.49-1.274.791-2.051.791-1.141 0-2.1-.679-2.261-2.058h5.229c.007-.126.021-.28.021-.427-.014-2.037-1.316-3.444-3.129-3.444zm-.021 1.015c1.078 0 1.841.756 1.981 1.932h-4.067c.175-1.134.91-1.932 2.086-1.932zm8.042-1.015c-.791 0-1.484.364-1.946 1.015v-.875h-1.127v6.65h1.141v-3.703c0-1.225.714-2.002 1.729-2.002.378 0 .826.091 1.141.259l.28-1.127c-.357-.154-.742-.217-1.218-.217zm9.135 0c-2.058 0-3.451 1.491-3.451 3.465s1.393 3.465 3.451 3.465c.987 0 1.869-.364 2.471-1.043l-.707-.791c-.462.448-1.085.763-1.792.763-1.281 0-2.254-1.001-2.254-2.394s.973-2.387 2.254-2.387c.707 0 1.274.273 1.764.749l.735-.777c-.595-.686-1.484-1.05-2.471-1.05zm7.017 0c-2.016 0-3.514 1.491-3.514 3.465s1.498 3.465 3.514 3.465 3.521-1.491 3.521-3.465-1.505-3.465-3.521-3.465zm0 1.078c1.33 0 2.345.994 2.345 2.387s-1.015 2.394-2.345 2.394c-1.337 0-2.345-1.001-2.345-2.394s1.008-2.387 2.345-2.387zm8.65-1.078c-.77 0-1.631.259-2.177 1.008v-.868h-1.134v6.65h1.141v-3.731c0-1.239.896-1.974 1.967-1.974 1.155 0 1.827.721 1.827 1.946v3.759h1.148v-4.13c0-1.596-1.134-2.66-2.772-2.66zm9.167.14h-2.555v-1.134c0-.861.35-1.365 1.141-1.365.49 0 .987.175 1.337.385l.413-.959c-.476-.287-1.071-.497-1.827-.497-1.568 0-2.212 1.043-2.212 2.436v1.134h-1.477v1.043h1.477v5.607h1.148v-5.607h2.555zm7.458 0h-1.148v3.759c0 1.358-.805 1.96-1.883 1.96-1.085 0-1.89-.602-1.89-1.96v-3.759h-1.148v3.864c0 2.009 1.435 2.926 3.038 2.926 1.589 0 3.031-.917 3.031-2.926zm7.232.588c-.644-.441-1.603-.721-2.653-.721-1.617 0-2.674.77-2.674 2.044 0 1.008.721 1.68 2.212 1.862l.77.091c.903.112 1.337.42 1.337.91 0 .658-.672 1.015-1.764 1.015-1.113 0-1.778-.322-2.275-.707l-.532.854c.875.658 1.981.854 2.8.854 1.813 0 2.947-.819 2.947-2.086 0-1.099-.833-1.694-2.247-1.883l-.77-.098c-.805-.098-1.288-.343-1.288-.875 0-.602.588-.987 1.498-.987.875 0 1.722.329 2.142.616zm4.682-.728c-1.911 0-3.304 1.421-3.304 3.465 0 2.072 1.4 3.465 3.374 3.465.98 0 1.904-.238 2.73-1.008l-.609-.784c-.567.49-1.274.791-2.051.791-1.141 0-2.1-.679-2.261-2.058h5.229c.007-.126.021-.28.021-.427-.014-2.037-1.316-3.444-3.129-3.444zm-.021 1.015c1.078 0 1.841.756 1.981 1.932h-4.067c.175-1.134.91-1.932 2.086-1.932zm7.789-1.015c-1.869 0-3.325 1.456-3.325 3.465s1.456 3.465 3.325 3.465c1.043 0 1.82-.406 2.345-1.029v.889h1.148v-10.08h-1.148v4.326c-.525-.63-1.302-1.036-2.345-1.036zm.133 1.078c1.344 0 2.282 1.029 2.282 2.387 0 1.365-.938 2.394-2.282 2.394-1.365 0-2.289-1.071-2.289-2.394s.903-2.387 2.289-2.387z" fill="#141721"/><path d="m18 68h10v-2h-10zm11 1v10h2v-10zm-1 11h-10v2h10zm-11-1v-10h-2v10zm1 1c-.5523 0-1-.4477-1-1h-2c0 1.6569 1.3431 3 3 3zm11-1c0 .5523-.4477 1-1 1v2c1.6569 0 3-1.3431 3-3zm-1-11c.5523 0 1 .4477 1 1h2c0-1.6569-1.3431-3-3-3zm-10-2c-1.6569 0-3 1.3431-3 3h2c0-.5523.4477-1 1-1z" fill="#6c6e75"/><path d="m45.952 101.484h-5.327v-3.115h5.607v-1.169h-6.839v9.8h1.232v-4.354h5.327zm5.0284-1.274c-2.016 0-3.514 1.491-3.514 3.465s1.498 3.465 3.514 3.465 3.521-1.491 3.521-3.465-1.505-3.465-3.521-3.465zm0 1.078c1.33 0 2.345.994 2.345 2.387s-1.015 2.394-2.345 2.394c-1.337 0-2.345-1.001-2.345-2.394s1.008-2.387 2.345-2.387zm8.4122-1.078c-.791 0-1.484.364-1.946 1.015v-.875h-1.127v6.65h1.141v-3.703c0-1.225.714-2.002 1.729-2.002.378 0 .826.091 1.141.259l.28-1.127c-.357-.154-.742-.217-1.218-.217zm10.4116.14h-2.555v-1.134c0-.861.35-1.365 1.141-1.365.49 0 .987.175 1.337.385l.413-.959c-.476-.287-1.071-.497-1.827-.497-1.568 0-2.212 1.043-2.212 2.436v1.134h-1.477v1.043h1.477v5.607h1.148v-5.607h2.555zm4.3328-.14c-2.016 0-3.514 1.491-3.514 3.465s1.498 3.465 3.514 3.465 3.521-1.491 3.521-3.465-1.505-3.465-3.521-3.465zm0 1.078c1.33 0 2.345.994 2.345 2.387s-1.015 2.394-2.345 2.394c-1.337 0-2.345-1.001-2.345-2.394s1.008-2.387 2.345-2.387zm6.4802-4.368h-1.141v10.08h1.141zm3.4684 0h-1.141v10.08h1.141zm5.3374 3.29c-2.016 0-3.514 1.491-3.514 3.465s1.498 3.465 3.514 3.465 3.521-1.491 3.521-3.465-1.505-3.465-3.521-3.465zm0 1.078c1.33 0 2.345.994 2.345 2.387s-1.015 2.394-2.345 2.394c-1.337 0-2.345-1.001-2.345-2.394s1.008-2.387 2.345-2.387zm10.681-.938h-1.2948l-1.897 5.439-1.883-5.439h-1.225l2.394 6.65h1.344l1.897-5.411 1.9038 5.411h1.365l2.394-6.65h-1.197l-1.89 5.453zm10.019 2.422h-3.934v1.036h3.934zm8.089-2.422h-1.148v3.759c0 1.358-.805 1.96-1.883 1.96-1.085 0-1.89-.602-1.89-1.96v-3.759h-1.148v3.864c0 2.009 1.435 2.926 3.038 2.926 1.589 0 3.031-.917 3.031-2.926zm5.74-.14c-1.05 0-1.827.406-2.345 1.029v-.889h-1.141v9.45h1.141v-3.689c.518.623 1.295 1.029 2.345 1.029 1.862 0 3.325-1.456 3.325-3.465s-1.463-3.465-3.325-3.465zm-.133 1.078c1.358 0 2.282 1.064 2.282 2.387s-.903 2.394-2.282 2.394c-1.344 0-2.282-1.029-2.282-2.394 0-1.358.938-2.387 2.282-2.387z" fill="#141721"/><path d="m18 96h10v-2h-10zm11 1v10h2v-10zm-1 11h-10v2h10zm-11-1v-10h-2v10zm1 1c-.5523 0-1-.448-1-1h-2c0 1.657 1.3431 3 3 3zm11-1c0 .552-.4477 1-1 1v2c1.6569 0 3-1.343 3-3zm-1-11c.5523 0 1 .4477 1 1h2c0-1.6569-1.3431-3-3-3zm-10-2c-1.6569 0-3 1.3431-3 3h2c0-.5523.4477-1 1-1z" fill="#6c6e75"/><path d="m45.952 129.484h-5.327v-3.115h5.607v-1.169h-6.839v9.8h1.232v-4.354h5.327zm5.0284-1.274c-2.016 0-3.514 1.491-3.514 3.465s1.498 3.465 3.514 3.465 3.521-1.491 3.521-3.465-1.505-3.465-3.521-3.465zm0 1.078c1.33 0 2.345.994 2.345 2.387s-1.015 2.394-2.345 2.394c-1.337 0-2.345-1.001-2.345-2.394s1.008-2.387 2.345-2.387zm8.4122-1.078c-.791 0-1.484.364-1.946 1.015v-.875h-1.127v6.65h1.141v-3.703c0-1.225.714-2.002 1.729-2.002.378 0 .826.091 1.141.259l.28-1.127c-.357-.154-.742-.217-1.218-.217zm9.2609 0c-.791 0-1.484.364-1.946 1.015v-.875h-1.127v6.65h1.141v-3.703c0-1.225.714-2.002 1.729-2.002.378 0 .826.091 1.141.259l.28-1.127c-.357-.154-.742-.217-1.218-.217zm5.2188 0c-1.911 0-3.304 1.421-3.304 3.465 0 2.072 1.4 3.465 3.374 3.465.98 0 1.904-.238 2.73-1.008l-.609-.784c-.567.49-1.274.791-2.051.791-1.141 0-2.1-.679-2.261-2.058h5.229c.007-.126.021-.28.021-.427-.014-2.037-1.316-3.444-3.129-3.444zm-.021 1.015c1.078 0 1.841.756 1.981 1.932h-4.067c.175-1.134.91-1.932 2.086-1.932zm10.788-.875h-1.211l-2.24 5.495-2.233-5.495h-1.246l2.8 6.657h1.344zm2.4541 0h-1.141v6.65h1.141zm-.581-3.157c-.455 0-.805.357-.805.819 0 .455.35.798.805.798s.819-.343.819-.798c0-.462-.364-.819-.819-.819zm5.7084 3.017c-1.911 0-3.304 1.421-3.304 3.465 0 2.072 1.4 3.465 3.374 3.465.98 0 1.904-.238 2.73-1.008l-.609-.784c-.567.49-1.274.791-2.051.791-1.141 0-2.1-.679-2.261-2.058h5.229c.007-.126.021-.28.021-.427-.014-2.037-1.316-3.444-3.129-3.444zm-.021 1.015c1.078 0 1.841.756 1.981 1.932h-4.067c.175-1.134.91-1.932 2.086-1.932zm10.3102-.875h-1.295l-1.8966 5.439-1.883-5.439h-1.225l2.394 6.65h1.344l1.8966-5.411 1.904 5.411h1.365l2.394-6.65h-1.197l-1.89 5.453z" fill="#141721"/><path d="m18 124h10v-2h-10zm11 1v10h2v-10zm-1 11h-10v2h10zm-11-1v-10h-2v10zm1 1c-.5523 0-1-.448-1-1h-2c0 1.657 1.3431 3 3 3zm11-1c0 .552-.4477 1-1 1v2c1.6569 0 3-1.343 3-3zm-1-11c.5523 0 1 .448 1 1h2c0-1.657-1.3431-3-3-3zm-10-2c-1.6569 0-3 1.343-3 3h2c0-.552.4477-1 1-1z" fill="#6c6e75"/><path d="m43.915 153.053c-2.912 0-5.075 2.1-5.075 5.047 0 3.199 2.45 5.04 5.019 5.04 2.968 0 4.774-2.247 4.774-5.096 0-.098-.007-.203-.014-.308h-4.277v1.148h2.94c-.189 1.918-1.421 3.08-3.423 3.08-2.1 0-3.731-1.561-3.731-3.864s1.631-3.864 3.787-3.864c1.183 0 2.212.504 2.891 1.316l.903-.875c-.889-1.015-2.24-1.624-3.794-1.624zm9.6904 3.157c-2.016 0-3.514 1.491-3.514 3.465s1.498 3.465 3.514 3.465 3.521-1.491 3.521-3.465-1.505-3.465-3.521-3.465zm0 1.078c1.33 0 2.345.994 2.345 2.387s-1.015 2.394-2.345 2.394c-1.337 0-2.345-1.001-2.345-2.394s1.008-2.387 2.345-2.387zm8.3492-1.078c-2.016 0-3.514 1.491-3.514 3.465s1.498 3.465 3.514 3.465 3.521-1.491 3.521-3.465-1.505-3.465-3.521-3.465zm0 1.078c1.33 0 2.345.994 2.345 2.387s-1.015 2.394-2.345 2.394c-1.337 0-2.345-1.001-2.345-2.394s1.008-2.387 2.345-2.387zm8.1602-1.078c-1.869 0-3.325 1.456-3.325 3.465s1.456 3.465 3.325 3.465c1.043 0 1.82-.406 2.345-1.029v.889h1.148v-10.08h-1.148v4.326c-.525-.63-1.302-1.036-2.345-1.036zm.133 1.078c1.344 0 2.282 1.029 2.282 2.387 0 1.365-.938 2.394-2.282 2.394-1.365 0-2.289-1.071-2.289-2.394s.903-2.387 2.289-2.387zm12.2754-1.078c-2.058 0-3.451 1.491-3.451 3.465s1.393 3.465 3.451 3.465c.987 0 1.869-.364 2.471-1.043l-.707-.791c-.462.448-1.085.763-1.792.763-1.281 0-2.254-1.001-2.254-2.394s.973-2.387 2.254-2.387c.707 0 1.274.273 1.764.749l.735-.777c-.595-.686-1.484-1.05-2.471-1.05zm10.3217.14h-1.148v.896c-.525-.63-1.302-1.036-2.345-1.036-1.869 0-3.325 1.456-3.325 3.465s1.456 3.465 3.325 3.465c1.043 0 1.82-.406 2.345-1.029v.889h1.148zm-3.36.938c1.344 0 2.282 1.029 2.282 2.387 0 1.365-.938 2.394-2.282 2.394-1.365 0-2.289-1.071-2.289-2.394s.903-2.387 2.289-2.387zm6.8233-4.368h-1.141v10.08h1.141zm3.4684 0h-1.141v10.08h1.141zm7.3044 4.018c-.644-.441-1.603-.721-2.653-.721-1.617 0-2.674.77-2.674 2.044 0 1.008.721 1.68 2.212 1.862l.77.091c.903.112 1.337.42 1.337.91 0 .658-.672 1.015-1.764 1.015-1.113 0-1.778-.322-2.275-.707l-.532.854c.875.658 1.981.854 2.8.854 1.813 0 2.947-.819 2.947-2.086 0-1.099-.833-1.694-2.247-1.883l-.77-.098c-.805-.098-1.288-.343-1.288-.875 0-.602.588-.987 1.498-.987.875 0 1.722.329 2.142.616zm9.934-.588h-2.793v-2.086h-1.148v2.086h-1.421v1.043h1.421v3.262c0 1.694.861 2.485 2.303 2.485.819 0 1.484-.287 1.995-.658l-.539-.861c-.378.259-.868.448-1.358.448-.721 0-1.253-.434-1.253-1.435v-3.241h2.793zm4.725-.14c-2.016 0-3.514 1.491-3.514 3.465s1.498 3.465 3.514 3.465 3.521-1.491 3.521-3.465-1.505-3.465-3.521-3.465zm0 1.078c1.33 0 2.345.994 2.345 2.387s-1.015 2.394-2.345 2.394c-1.337 0-2.345-1.001-2.345-2.394s1.008-2.387 2.345-2.387zm13.962-.35c-.644-.441-1.603-.721-2.653-.721-1.617 0-2.674.77-2.674 2.044 0 1.008.721 1.68 2.212 1.862l.77.091c.903.112 1.337.42 1.337.91 0 .658-.672 1.015-1.764 1.015-1.113 0-1.778-.322-2.275-.707l-.532.854c.875.658 1.981.854 2.8.854 1.813 0 2.947-.819 2.947-2.086 0-1.099-.833-1.694-2.247-1.883l-.77-.098c-.805-.098-1.288-.343-1.288-.875 0-.602.588-.987 1.498-.987.875 0 1.722.329 2.142.616zm4.829-.728c-2.058 0-3.451 1.491-3.451 3.465s1.393 3.465 3.451 3.465c.987 0 1.869-.364 2.471-1.043l-.707-.791c-.462.448-1.085.763-1.792.763-1.281 0-2.254-1.001-2.254-2.394s.973-2.387 2.254-2.387c.707 0 1.274.273 1.764.749l.735-.777c-.595-.686-1.484-1.05-2.471-1.05zm7.018 0c-2.016 0-3.514 1.491-3.514 3.465s1.498 3.465 3.514 3.465 3.521-1.491 3.521-3.465-1.505-3.465-3.521-3.465zm0 1.078c1.33 0 2.345.994 2.345 2.387s-1.015 2.394-2.345 2.394c-1.337 0-2.345-1.001-2.345-2.394s1.008-2.387 2.345-2.387zm8.412-1.078c-.791 0-1.484.364-1.946 1.015v-.875h-1.127v6.65h1.141v-3.703c0-1.225.714-2.002 1.729-2.002.378 0 .826.091 1.141.259l.28-1.127c-.357-.154-.742-.217-1.218-.217zm5.219 0c-1.911 0-3.304 1.421-3.304 3.465 0 2.072 1.4 3.465 3.374 3.465.98 0 1.904-.238 2.73-1.008l-.609-.784c-.567.49-1.274.791-2.051.791-1.141 0-2.1-.679-2.261-2.058h5.229c.007-.126.021-.28.021-.427-.014-2.037-1.316-3.444-3.129-3.444zm-.021 1.015c1.078 0 1.841.756 1.981 1.932h-4.067c.175-1.134.91-1.932 2.086-1.932z" fill="#141721"/><path d="m18 152h10v-2h-10zm11 1v10h2v-10zm-1 11h-10v2h10zm-11-1v-10h-2v10zm1 1c-.5523 0-1-.448-1-1h-2c0 1.657 1.3431 3 3 3zm11-1c0 .552-.4477 1-1 1v2c1.6569 0 3-1.343 3-3zm-1-11c.5523 0 1 .448 1 1h2c0-1.657-1.3431-3-3-3zm-10-2c-1.6569 0-3 1.343-3 3h2c0-.552.4477-1 1-1z" fill="#6c6e75"/><path d="m52.966 181.2h-1.267l-2.618 8.414-2.688-8.421h-1.4l-2.681 8.421-2.625-8.414h-1.295l3.143 9.807h1.519l2.625-8.183 2.625 8.183h1.526zm2.6395 3.15h-1.141v6.65h1.141zm-.581-3.157c-.455 0-.805.357-.805.819 0 .455.35.798.805.798s.819-.343.819-.798c0-.462-.364-.819-.819-.819zm6.2194 3.017c-.77 0-1.631.259-2.177 1.008v-.868h-1.134v6.65h1.141v-3.731c0-1.239.896-1.974 1.967-1.974 1.155 0 1.827.721 1.827 1.946v3.759h1.148v-4.13c0-1.596-1.134-2.66-2.772-2.66zm8.5105 0c-1.05 0-1.827.406-2.345 1.029v-4.319h-1.141v10.08h1.141v-.889c.518.623 1.295 1.029 2.345 1.029 1.862 0 3.325-1.456 3.325-3.465s-1.463-3.465-3.325-3.465zm-.133 1.078c1.358 0 2.282 1.064 2.282 2.387s-.903 2.394-2.282 2.394c-1.344 0-2.282-1.029-2.282-2.394 0-1.358.938-2.387 2.282-2.387zm11.5837-.938h-1.148v.896c-.525-.63-1.302-1.036-2.345-1.036-1.869 0-3.325 1.456-3.325 3.465s1.456 3.465 3.325 3.465c1.043 0 1.82-.406 2.345-1.029v.889h1.148zm-3.36.938c1.344 0 2.282 1.029 2.282 2.387 0 1.365-.938 2.394-2.282 2.394-1.365 0-2.289-1.071-2.289-2.394s.903-2.387 2.289-2.387zm8.6293-1.078c-2.058 0-3.451 1.491-3.451 3.465s1.393 3.465 3.451 3.465c.987 0 1.869-.364 2.471-1.043l-.707-.791c-.462.448-1.085.763-1.792.763-1.281 0-2.254-1.001-2.254-2.394s.973-2.387 2.254-2.387c.707 0 1.274.273 1.764.749l.735-.777c-.595-.686-1.484-1.05-2.471-1.05zm5.2717-3.29h-1.141v10.08h1.141v-2.954h.903l2.513 2.954h1.449l-3.01-3.514 2.968-3.136h-1.442l-2.471 2.66h-.91zm11.1869 4.018c-.644-.441-1.603-.721-2.653-.721-1.6167 0-2.6737.77-2.6737 2.044 0 1.008.721 1.68 2.212 1.862l.7697.091c.903.112 1.337.42 1.337.91 0 .658-.672 1.015-1.764 1.015-1.1127 0-1.7777-.322-2.2747-.707l-.532.854c.875.658 1.981.854 2.7997.854 1.813 0 2.947-.819 2.947-2.086 0-1.099-.833-1.694-2.247-1.883l-.77-.098c-.8047-.098-1.2877-.343-1.2877-.875 0-.602.588-.987 1.4977-.987.875 0 1.722.329 2.142.616z" fill="#141721"/><path d="m18 180h10v-2h-10zm11 1v10h2v-10zm-1 11h-10v2h10zm-11-1v-10h-2v10zm1 1c-.5523 0-1-.448-1-1h-2c0 1.657 1.3431 3 3 3zm11-1c0 .552-.4477 1-1 1v2c1.6569 0 3-1.343 3-3zm-1-11c.5523 0 1 .448 1 1h2c0-1.657-1.3431-3-3-3zm-10-2c-1.6569 0-3 1.343-3 3h2c0-.552.4477-1 1-1z" fill="#6c6e75"/><path d="m21.915 213.053c-2.94 0-5.075 2.114-5.075 5.047s2.135 5.047 5.075 5.047c1.694 0 3.157-.756 3.983-1.981l-1.008-.735c-.644.959-1.715 1.533-2.975 1.533-2.156 0-3.787-1.561-3.787-3.864s1.631-3.864 3.787-3.864c1.267 0 2.345.595 2.982 1.54l1.029-.693c-.77-1.26-2.296-2.03-4.011-2.03zm8.9741 3.157c-.791 0-1.484.364-1.946 1.015v-.875h-1.127v6.65h1.141v-3.703c0-1.225.714-2.002 1.729-2.002.378 0 .826.091 1.141.259l.28-1.127c-.357-.154-.742-.217-1.218-.217zm5.2188 0c-1.911 0-3.304 1.421-3.304 3.465 0 2.072 1.4 3.465 3.374 3.465.98 0 1.904-.238 2.73-1.008l-.609-.784c-.567.49-1.274.791-2.051.791-1.141 0-2.1-.679-2.261-2.058h5.229c.007-.126.021-.28.021-.427-.014-2.037-1.316-3.444-3.129-3.444zm-.021 1.015c1.078 0 1.841.756 1.981 1.932h-4.067c.175-1.134.91-1.932 2.086-1.932zm11.2826-.875h-1.148v.896c-.525-.63-1.302-1.036-2.345-1.036-1.869 0-3.325 1.456-3.325 3.465s1.456 3.465 3.325 3.465c1.043 0 1.82-.406 2.345-1.029v.889h1.148zm-3.36.938c1.344 0 2.282 1.029 2.282 2.387 0 1.365-.938 2.394-2.282 2.394-1.365 0-2.289-1.071-2.289-2.394s.903-2.387 2.289-2.387zm10.1974-.938h-2.793v-2.086h-1.148v2.086h-1.421v1.043h1.421v3.262c0 1.694.861 2.485 2.303 2.485.819 0 1.484-.287 1.995-.658l-.539-.861c-.378.259-.868.448-1.358.448-.721 0-1.253-.434-1.253-1.435v-3.241h2.793zm4.515-.14c-1.911 0-3.304 1.421-3.304 3.465 0 2.072 1.4 3.465 3.374 3.465.98 0 1.904-.238 2.73-1.008l-.609-.784c-.567.49-1.274.791-2.051.791-1.141 0-2.1-.679-2.261-2.058h5.229c.007-.126.021-.28.021-.427-.014-2.037-1.316-3.444-3.129-3.444zm-.021 1.015c1.078 0 1.841.756 1.981 1.932h-4.067c.175-1.134.91-1.932 2.086-1.932zm11.9258-1.015c-.77 0-1.631.259-2.177 1.008v-.868h-1.134v6.65h1.141v-3.731c0-1.239.896-1.974 1.967-1.974 1.155 0 1.827.721 1.827 1.946v3.759h1.148v-4.13c0-1.596-1.134-2.66-2.772-2.66zm7.8245 0c-1.911 0-3.304 1.421-3.304 3.465 0 2.072 1.4 3.465 3.374 3.465.98 0 1.904-.238 2.73-1.008l-.609-.784c-.567.49-1.274.791-2.051.791-1.141 0-2.1-.679-2.261-2.058h5.229c.007-.126.021-.28.021-.427-.014-2.037-1.316-3.444-3.129-3.444zm-.021 1.015c1.078 0 1.841.756 1.981 1.932h-4.067c.175-1.134.91-1.932 2.086-1.932zm10.3107-.875h-1.295l-1.897 5.439-1.883-5.439h-1.225l2.394 6.65h1.344l1.897-5.411 1.904 5.411h1.365l2.394-6.65h-1.197l-1.89 5.453zm13.4341-.14c-1.05 0-1.827.406-2.3449 1.029v-.889h-1.141v9.45h1.141v-3.689c.5179.623 1.2949 1.029 2.3449 1.029 1.862 0 3.325-1.456 3.325-3.465s-1.463-3.465-3.325-3.465zm-.133 1.078c1.358 0 2.282 1.064 2.282 2.387s-.903 2.394-2.282 2.394c-1.344 0-2.2819-1.029-2.2819-2.394 0-1.358.9379-2.387 2.2819-2.387zm6.411-4.368h-1.141v10.08h1.141zm8.641 3.43h-1.148v.896c-.525-.63-1.302-1.036-2.345-1.036-1.869 0-3.325 1.456-3.325 3.465s1.456 3.465 3.325 3.465c1.043 0 1.82-.406 2.345-1.029v.889h1.148zm-3.36.938c1.344 0 2.282 1.029 2.282 2.387 0 1.365-.938 2.394-2.282 2.394-1.365 0-2.289-1.071-2.289-2.394s.903-2.387 2.289-2.387zm11.821-.938h-1.26l-2.275 4.088-2.394-4.088h-1.281l3.031 5.229-2.457 4.256h1.267zm2.354-3.43h-1.141v10.08h1.141zm3.468 3.43h-1.141v6.65h1.141zm-.581-3.157c-.455 0-.805.357-.805.819 0 .455.35.798.805.798s.819-.343.819-.798c0-.462-.364-.819-.819-.819zm7.885 3.745c-.644-.441-1.603-.721-2.653-.721-1.617 0-2.674.77-2.674 2.044 0 1.008.721 1.68 2.212 1.862l.77.091c.903.112 1.337.42 1.337.91 0 .658-.672 1.015-1.764 1.015-1.113 0-1.778-.322-2.275-.707l-.532.854c.875.658 1.981.854 2.8.854 1.813 0 2.947-.819 2.947-2.086 0-1.099-.833-1.694-2.247-1.883l-.77-.098c-.805-.098-1.288-.343-1.288-.875 0-.602.588-.987 1.498-.987.875 0 1.722.329 2.142.616zm6.397-.588h-2.793v-2.086h-1.148v2.086h-1.421v1.043h1.421v3.262c0 1.694.861 2.485 2.303 2.485.819 0 1.484-.287 1.995-.658l-.539-.861c-.378.259-.868.448-1.358.448-.721 0-1.253-.434-1.253-1.435v-3.241h2.793z" fill="#1738fa"/><path d="m.25 243.25h499.5v.5h-499.5z" fill="#fff" stroke="#e3e5e8" stroke-width=".5"/><path clip-rule="evenodd" d="m133 269.134-5.928-5.134h13.856l-5.928 5.134v19.866h-2z" fill="#a4a7ae" fill-rule="evenodd"/><rect fill="#1738fa" height="48" rx="24" width="48" x="17" y="260"/><path d="m37 277v14l11-7z" fill="#fff"/><rect fill="#e3e5e8" height="5" rx="2.5" width="402" x="81" y="276"/><rect fill="#a4a7ae" height="5" opacity=".25" rx="2.5" width="336" x="81" y="276"/><g fill="#1738fa"><rect height="5" rx="2.5" transform="matrix(-1 0 0 1 212 276)" width="125"/><circle cx="87" cy="278.5" r="6"/><circle cx="206" cy="278.5" r="6"/></g><path d="m88.0684 296.255c0 1.481-.253 2.582-.7588 3.302-.5059.72-1.2966 1.08-2.3721 1.08-1.0618 0-1.848-.351-2.3584-1.053-.5104-.706-.7747-1.759-.793-3.158v-1.689c0-1.463.253-2.549.7588-3.26.5059-.711 1.2989-1.067 2.3789-1.067 1.071 0 1.8594.344 2.3653 1.032.5058.684.7656 1.741.7793 3.172zm-1.2647-1.73c0-1.071-.1504-1.85-.4512-2.337-.3007-.493-.777-.739-1.4287-.739-.6471 0-1.1188.244-1.415.732-.2962.487-.4489 1.237-.458 2.249v2.023c0 1.076.1549 1.871.4648 2.386.3145.51.7884.765 1.4219.765.6243 0 1.0869-.241 1.3877-.724.3053-.483.4648-1.244.4785-2.283zm2.9736 5.312c0-.219.0638-.401.1915-.547.1321-.146.3281-.219.5878-.219.2598 0 .4558.073.5879.219.1367.146.2051.328.2051.547 0 .21-.0684.385-.2051.526-.1321.142-.3281.212-.5879.212-.2597 0-.4557-.07-.5878-.212-.1277-.141-.1915-.316-.1915-.526zm.0069-6.036c0-.219.0638-.401.1914-.547.1321-.146.3281-.219.5879-.219.2597 0 .4557.073.5879.219.1367.146.205.328.205.547 0 .209-.0683.385-.205.526-.1322.141-.3282.212-.5879.212-.2598 0-.4558-.071-.5879-.212-.1276-.141-.1914-.317-.1914-.526zm9.5361 2.454c0 1.481-.2529 2.582-.7588 3.302-.5058.72-1.2965 1.08-2.372 1.08-1.0619 0-1.848-.351-2.3584-1.053-.5105-.706-.7748-1.759-.793-3.158v-1.689c0-1.463.2529-2.549.7588-3.26.5058-.711 1.2988-1.067 2.3789-1.067 1.0709 0 1.8594.344 2.3652 1.032.5059.684.7656 1.741.7793 3.172zm-1.2646-1.73c0-1.071-.1504-1.85-.4512-2.337-.3008-.493-.777-.739-1.4287-.739-.6472 0-1.1188.244-1.4151.732-.2962.487-.4489 1.237-.458 2.249v2.023c0 1.076.155 1.871.4649 2.386.3144.51.7884.765 1.4219.765.6243 0 1.0869-.241 1.3876-.724.3054-.483.4649-1.244.4786-2.283zm9.1263 1.73c0 1.481-.253 2.582-.759 3.302s-1.297 1.08-2.372 1.08c-1.062 0-1.848-.351-2.359-1.053-.51-.706-.774-1.759-.793-3.158v-1.689c0-1.463.253-2.549.759-3.26s1.299-1.067 2.379-1.067c1.071 0 1.859.344 2.365 1.032.506.684.766 1.741.78 3.172zm-1.265-1.73c0-1.071-.15-1.85-.451-2.337-.301-.493-.777-.739-1.429-.739-.647 0-1.119.244-1.415.732-.296.487-.449 1.237-.458 2.249v2.023c0 1.076.155 1.871.465 2.386.314.51.788.765 1.422.765.624 0 1.087-.241 1.387-.724.306-.483.465-1.244.479-2.283z" fill="#4c4e56"/><path d="m447.884 296.788h-3.336v-1.032h3.336zm7.629 3.712h-6.522v-.909l3.446-3.828c.51-.579.861-1.048 1.052-1.409.196-.364.294-.74.294-1.127 0-.52-.157-.946-.471-1.279-.315-.332-.734-.499-1.258-.499-.629 0-1.119.18-1.47.54-.346.356-.52.852-.52 1.49h-1.264c0-.916.294-1.656.882-2.221.592-.565 1.383-.848 2.372-.848.925 0 1.656.244 2.194.732.538.483.807 1.128.807 1.934 0 .98-.625 2.147-1.873 3.5l-2.666 2.892h4.997zm5.496 0h-1.272v-8.429l-2.549.937v-1.149l3.623-1.36h.198zm3.794-.663c0-.219.064-.401.191-.547.132-.146.328-.219.588-.219s.456.073.588.219c.137.146.205.328.205.547 0 .21-.068.385-.205.526-.132.142-.328.212-.588.212s-.456-.07-.588-.212c-.127-.141-.191-.316-.191-.526zm.007-6.036c0-.219.063-.401.191-.547.132-.146.328-.219.588-.219s.456.073.588.219c.136.146.205.328.205.547 0 .209-.069.385-.205.526-.132.141-.328.212-.588.212s-.456-.071-.588-.212c-.128-.141-.191-.317-.191-.526zm7.451 6.699h-1.272v-8.429l-2.55.937v-1.149l3.623-1.36h.199zm9.044-3.343h1.381v1.032h-1.381v2.311h-1.272v-2.311h-4.532v-.745l4.457-6.897h1.347zm-4.368 0h3.096v-4.881l-.15.274z" fill="#4c4e56"/><path d="m85.0879 322.063c-1.1257-.323-1.946-.72-2.4609-1.189-.5105-.474-.7657-1.057-.7657-1.75 0-.784.3122-1.431.9366-1.941.6289-.515 1.4446-.773 2.4472-.773.6836 0 1.292.132 1.8252.397.5378.264.9525.629 1.2442 1.093.2962.465.4443.973.4443 1.525h-1.3193c0-.602-.1915-1.073-.5743-1.415-.3828-.347-.9228-.52-1.6201-.52-.6471 0-1.153.144-1.5176.431-.36.282-.54.677-.54 1.183 0 .405.1709.749.5127 1.032.3463.278.932.533 1.7568.765.8295.233 1.4766.49 1.9414.773.4694.278.8158.604 1.0391.977.2279.374.3418.814.3418 1.32 0 .806-.3145 1.453-.9434 1.941-.6289.483-1.4697.725-2.5224.725-.6836 0-1.3216-.13-1.9141-.39-.5924-.264-1.0504-.624-1.374-1.08-.319-.456-.4785-.973-.4785-1.552h1.3193c0 .602.221 1.078.6631 1.429.4466.346 1.0413.519 1.7842.519.6927 0 1.2236-.141 1.5927-.423.3692-.283.5538-.668.5538-1.156 0-.487-.1709-.863-.5127-1.128-.3418-.268-.9616-.533-1.8594-.793zm6.8975-4.751v1.792h1.3808v.977h-1.3808v4.587c0 .296.0615.52.1845.67.1231.146.3327.219.6289.219.1459 0 .3464-.028.6016-.082v1.025c-.3327.091-.6563.137-.9707.137-.5651 0-.9912-.171-1.2783-.513s-.4307-.827-.4307-1.456v-4.587h-1.3467v-.977h1.3467v-1.792zm7.4306 9.188c-.0729-.146-.1321-.406-.1777-.779-.5879.61-1.2897.916-2.1055.916-.7292 0-1.3284-.205-1.7978-.616-.4649-.414-.6973-.938-.6973-1.572 0-.77.2917-1.367.875-1.791.5879-.428 1.4128-.642 2.4746-.642h1.2305v-.581c0-.442-.1322-.793-.3965-1.053-.2643-.264-.654-.397-1.169-.397-.4511 0-.8294.114-1.1347.342-.3054.228-.458.504-.458.827h-1.2715c0-.369.1299-.724.3896-1.066.2644-.346.6198-.62 1.0664-.82.4512-.201.9457-.301 1.4834-.301.8523 0 1.5199.214 2.003.642.4835.424.7335 1.01.7515 1.757v3.405c0 .679.087 1.219.26 1.62v.109zm-2.0986-.964c.3965 0 .7724-.102 1.1279-.307.3555-.206.613-.472.7725-.8v-1.518h-.9912c-1.5495 0-2.3243.454-2.3243 1.36 0 .397.1322.707.3965.93.2644.223.6039.335 1.0186.335zm8.7226-5.298c-.191-.032-.399-.048-.622-.048-.829 0-1.392.354-1.689 1.06v5.25h-1.264v-7.396h1.23l.021.854c.415-.661 1.002-.991 1.763-.991.247 0 .433.032.561.095zm3.227-2.926v1.792h1.38v.977h-1.38v4.587c0 .296.061.52.184.67.123.146.333.219.629.219.146 0 .346-.028.602-.082v1.025c-.333.091-.657.137-.971.137-.565 0-.991-.171-1.278-.513s-.431-.827-.431-1.456v-4.587h-1.347v-.977h1.347v-1.792zm9.303 8.292c.451 0 .846-.136 1.183-.41.337-.273.524-.615.56-1.025h1.197c-.023.424-.169.827-.438 1.21s-.629.688-1.08.916c-.446.228-.92.342-1.422.342-1.007 0-1.809-.335-2.406-1.005-.592-.675-.889-1.595-.889-2.762v-.212c0-.72.133-1.36.397-1.921.264-.56.642-.995 1.135-1.305.496-.31 1.082-.465 1.756-.465.83 0 1.518.248 2.065.745.551.497.845 1.142.882 1.934h-1.197c-.036-.478-.218-.87-.546-1.175-.324-.31-.725-.465-1.204-.465-.642 0-1.141.232-1.497.697-.351.46-.526 1.128-.526 2.003v.239c0 .853.175 1.509.526 1.969s.853.69 1.504.69zm8.928.896c-.073-.146-.132-.406-.178-.779-.588.61-1.289.916-2.105.916-.729 0-1.329-.205-1.798-.616-.465-.414-.697-.938-.697-1.572 0-.77.291-1.367.875-1.791.588-.428 1.412-.642 2.474-.642h1.231v-.581c0-.442-.132-.793-.397-1.053-.264-.264-.654-.397-1.169-.397-.451 0-.829.114-1.134.342-.306.228-.458.504-.458.827h-1.272c0-.369.13-.724.39-1.066.264-.346.62-.62 1.066-.82.451-.201.946-.301 1.484-.301.852 0 1.519.214 2.002.642.484.424.734 1.01.752 1.757v3.405c0 .679.087 1.219.26 1.62v.109zm-2.099-.964c.397 0 .773-.102 1.128-.307.356-.206.613-.472.773-.8v-1.518h-.991c-1.55 0-2.325.454-2.325 1.36 0 .397.133.707.397.93s.604.335 1.018.335zm6.522.964h-1.265v-10.5h1.265zm3.404 0h-1.264v-10.5h1.264zm10.07 0c-.073-.146-.133-.406-.178-.779-.588.61-1.29.916-2.106.916-.729 0-1.328-.205-1.798-.616-.464-.414-.697-.938-.697-1.572 0-.77.292-1.367.875-1.791.588-.428 1.413-.642 2.475-.642h1.23v-.581c0-.442-.132-.793-.396-1.053-.265-.264-.654-.397-1.169-.397-.451 0-.83.114-1.135.342s-.458.504-.458.827h-1.271c0-.369.129-.724.389-1.066.265-.346.62-.62 1.067-.82.451-.201.945-.301 1.483-.301.852 0 1.52.214 2.003.642.483.424.734 1.01.752 1.757v3.405c0 .679.087 1.219.26 1.62v.109zm-2.099-.964c.396 0 .772-.102 1.128-.307.355-.206.613-.472.772-.8v-1.518h-.991c-1.549 0-2.324.454-2.324 1.36 0 .397.132.707.396.93.265.223.604.335 1.019.335zm6.863-8.224v1.792h1.381v.977h-1.381v4.587c0 .296.062.52.185.67.123.146.332.219.629.219.145 0 .346-.028.601-.082v1.025c-.332.091-.656.137-.97.137-.566 0-.992-.171-1.279-.513s-.43-.827-.43-1.456v-4.587h-1.347v-.977h1.347v-1.792z" fill="#212529"/><g filter="url(#a)"><rect fill="#fff" height="32" rx="4" transform="matrix(-1 0 0 1 225 305.5)" width="64"/></g><rect height="31" rx="3.5" stroke="#c6c8ce" transform="matrix(-1 0 0 1 224 305.5)" width="63" x="-.5" y=".5"/><path d="m189.632 322.255c0 1.481-.253 2.582-.758 3.302-.506.72-1.297 1.08-2.372 1.08-1.062 0-1.848-.351-2.359-1.053-.51-.706-.775-1.759-.793-3.158v-1.689c0-1.463.253-2.549.759-3.26s1.299-1.067 2.379-1.067c1.071 0 1.859.344 2.365 1.032.506.684.766 1.741.779 3.172zm-1.264-1.73c0-1.071-.151-1.85-.451-2.337-.301-.493-.777-.739-1.429-.739-.647 0-1.119.244-1.415.732-.296.487-.449 1.237-.458 2.249v2.023c0 1.076.155 1.871.465 2.386.314.51.788.765 1.422.765.624 0 1.086-.241 1.387-.724.306-.483.465-1.244.479-2.283zm9.026 1.73c0 1.481-.253 2.582-.759 3.302s-1.297 1.08-2.372 1.08c-1.062 0-1.848-.351-2.359-1.053-.51-.706-.774-1.759-.792-3.158v-1.689c0-1.463.252-2.549.758-3.26s1.299-1.067 2.379-1.067c1.071 0 1.86.344 2.365 1.032.506.684.766 1.741.78 3.172zm-1.265-1.73c0-1.071-.15-1.85-.451-2.337-.301-.493-.777-.739-1.429-.739-.647 0-1.119.244-1.415.732-.296.487-.449 1.237-.458 2.249v2.023c0 1.076.155 1.871.465 2.386.314.51.788.765 1.422.765.624 0 1.087-.241 1.388-.724.305-.483.464-1.244.478-2.283zm2.874 5.312c0-.219.064-.401.191-.547.132-.146.328-.219.588-.219s.456.073.588.219c.137.146.205.328.205.547 0 .21-.068.385-.205.526-.132.142-.328.212-.588.212s-.456-.07-.588-.212c-.127-.141-.191-.316-.191-.526zm.007-6.036c0-.219.063-.401.191-.547.132-.146.328-.219.588-.219s.456.073.588.219c.136.146.205.328.205.547 0 .209-.069.385-.205.526-.132.141-.328.212-.588.212s-.456-.071-.588-.212c-.128-.141-.191-.317-.191-.526zm9.436 2.454c0 1.481-.253 2.582-.759 3.302s-1.297 1.08-2.372 1.08c-1.062 0-1.848-.351-2.359-1.053-.51-.706-.774-1.759-.793-3.158v-1.689c0-1.463.253-2.549.759-3.26s1.299-1.067 2.379-1.067c1.071 0 1.86.344 2.365 1.032.506.684.766 1.741.78 3.172zm-1.265-1.73c0-1.071-.15-1.85-.451-2.337-.301-.493-.777-.739-1.429-.739-.647 0-1.119.244-1.415.732-.296.487-.449 1.237-.458 2.249v2.023c0 1.076.155 1.871.465 2.386.314.51.788.765 1.422.765.624 0 1.087-.241 1.388-.724.305-.483.464-1.244.478-2.283zm9.026 1.73c0 1.481-.253 2.582-.759 3.302s-1.296 1.08-2.372 1.08c-1.062 0-1.848-.351-2.358-1.053-.511-.706-.775-1.759-.793-3.158v-1.689c0-1.463.253-2.549.759-3.26.505-.711 1.298-1.067 2.378-1.067 1.071 0 1.86.344 2.366 1.032.506.684.765 1.741.779 3.172zm-1.265-1.73c0-1.071-.15-1.85-.451-2.337-.301-.493-.777-.739-1.429-.739-.647 0-1.118.244-1.415.732-.296.487-.448 1.237-.458 2.249v2.023c0 1.076.155 1.871.465 2.386.315.51.789.765 1.422.765.625 0 1.087-.241 1.388-.724.305-.483.465-1.244.478-2.283z" fill="#141721"/><path d="m245.088 322.063c-1.126-.323-1.946-.72-2.461-1.189-.51-.474-.766-1.057-.766-1.75 0-.784.313-1.431.937-1.941.629-.515 1.445-.773 2.447-.773.684 0 1.292.132 1.825.397.538.264.953.629 1.244 1.093.297.465.445.973.445 1.525h-1.32c0-.602-.191-1.073-.574-1.415-.383-.347-.923-.52-1.62-.52-.647 0-1.153.144-1.517.431-.36.282-.54.677-.54 1.183 0 .405.17.749.512 1.032.347.278.932.533 1.757.765.829.233 1.477.49 1.941.773.47.278.816.604 1.04.977.227.374.341.814.341 1.32 0 .806-.314 1.453-.943 1.941-.629.483-1.47.725-2.523.725-.683 0-1.321-.13-1.914-.39-.592-.264-1.05-.624-1.374-1.08-.319-.456-.478-.973-.478-1.552h1.319c0 .602.221 1.078.663 1.429.447.346 1.042.519 1.784.519.693 0 1.224-.141 1.593-.423.369-.283.554-.668.554-1.156 0-.487-.171-.863-.513-1.128-.342-.268-.961-.533-1.859-.793zm6.897-4.751v1.792h1.381v.977h-1.381v4.587c0 .296.062.52.185.67.123.146.333.219.629.219.146 0 .346-.028.601-.082v1.025c-.332.091-.656.137-.97.137-.565 0-.992-.171-1.279-.513s-.43-.827-.43-1.456v-4.587h-1.347v-.977h1.347v-1.792zm2.393 5.421c0-.724.141-1.376.424-1.955.287-.578.683-1.025 1.189-1.34.511-.314 1.092-.471 1.743-.471 1.008 0 1.821.348 2.441 1.046.624.697.936 1.624.936 2.782v.089c0 .72-.139 1.367-.417 1.941-.273.57-.667 1.014-1.182 1.333-.511.319-1.099.479-1.764.479-1.003 0-1.816-.349-2.44-1.046-.62-.697-.93-1.62-.93-2.769zm1.271.151c0 .82.19 1.479.568 1.975.383.497.893.745 1.531.745.643 0 1.153-.25 1.531-.751.379-.506.568-1.213.568-2.12 0-.811-.194-1.467-.581-1.968-.383-.506-.894-.759-1.532-.759-.624 0-1.128.248-1.51.745-.383.497-.575 1.208-.575 2.133zm13.296 0c0 1.125-.257 2.032-.772 2.72-.515.689-1.212 1.033-2.092 1.033-.898 0-1.604-.285-2.119-.855v3.562h-1.265v-10.24h1.156l.061.82c.515-.638 1.231-.957 2.147-.957.888 0 1.59.335 2.105 1.005.52.67.779 1.602.779 2.796zm-1.264-.144c0-.834-.178-1.492-.534-1.975-.355-.483-.843-.725-1.462-.725-.766 0-1.34.34-1.723 1.019v3.534c.378.674.957 1.011 1.736 1.011.606 0 1.087-.239 1.443-.717.36-.483.54-1.199.54-2.147zm10.917 3.76c-.073-.146-.133-.406-.178-.779-.588.61-1.29.916-2.106.916-.729 0-1.328-.205-1.797-.616-.465-.414-.698-.938-.698-1.572 0-.77.292-1.367.875-1.791.588-.428 1.413-.642 2.475-.642h1.23v-.581c0-.442-.132-.793-.396-1.053-.264-.264-.654-.397-1.169-.397-.451 0-.829.114-1.135.342-.305.228-.458.504-.458.827h-1.271c0-.369.13-.724.389-1.066.265-.346.62-.62 1.067-.82.451-.201.945-.301 1.483-.301.852 0 1.52.214 2.003.642.483.424.734 1.01.752 1.757v3.405c0 .679.087 1.219.26 1.62v.109zm-2.099-.964c.397 0 .772-.102 1.128-.307.355-.206.613-.472.772-.8v-1.518h-.991c-1.549 0-2.324.454-2.324 1.36 0 .397.132.707.396.93.265.223.604.335 1.019.335zm6.863-8.224v1.792h1.381v.977h-1.381v4.587c0 .296.062.52.185.67.123.146.333.219.629.219.146 0 .346-.028.601-.082v1.025c-.332.091-.656.137-.97.137-.565 0-.992-.171-1.279-.513s-.43-.827-.43-1.456v-4.587h-1.347v-.977h1.347v-1.792z" fill="#212529"/><g filter="url(#b)"><rect fill="#fff" height="32" rx="4" transform="matrix(-1 0 0 1 358 305.5)" width="64"/></g><rect height="31" rx="3.5" stroke="#c6c8ce" transform="matrix(-1 0 0 1 357 305.5)" width="63" x="-.5" y=".5"/><path d="m329.115 316.54v1.073h-.232c-.984.019-1.768.31-2.352.875-.583.565-.92 1.361-1.011 2.386.524-.602 1.239-.902 2.146-.902.866 0 1.557.305 2.071.916.52.61.78 1.399.78 2.365 0 1.025-.28 1.846-.841 2.461-.556.615-1.303.923-2.242.923-.953 0-1.725-.365-2.318-1.094-.592-.734-.888-1.677-.888-2.83v-.485c0-1.832.389-3.232 1.169-4.198.784-.97 1.948-1.467 3.493-1.49zm-1.661 4.484c-.433 0-.831.13-1.196.39s-.618.586-.759.978v.464c0 .821.185 1.482.554 1.983s.829.752 1.381.752c.569 0 1.016-.21 1.34-.629.328-.419.492-.969.492-1.648 0-.683-.167-1.235-.499-1.654-.328-.424-.766-.636-1.313-.636zm4.549 4.813c0-.219.064-.401.191-.547.132-.146.328-.219.588-.219s.456.073.588.219c.137.146.205.328.205.547 0 .21-.068.385-.205.526-.132.142-.328.212-.588.212s-.456-.07-.588-.212c-.127-.141-.191-.316-.191-.526zm.007-6.036c0-.219.063-.401.191-.547.132-.146.328-.219.588-.219s.456.073.588.219c.136.146.205.328.205.547 0 .209-.069.385-.205.526-.132.141-.328.212-.588.212s-.456-.071-.588-.212c-.128-.141-.191-.317-.191-.526zm7.351 6.699h-1.272v-8.429l-2.55.937v-1.149l3.623-1.36h.199zm8.944-3.343h1.381v1.032h-1.381v2.311h-1.272v-2.311h-4.532v-.745l4.457-6.897h1.347zm-4.368 0h3.096v-4.881l-.15.274z" fill="#141721"/><path d="m.25 354.25h499.5v.5h-499.5z" fill="#fff" stroke="#e3e5e8" stroke-width=".5"/><path d="m0 355h500v60c0 6.627-5.373 12-12 12h-476c-6.62742 0-12-5.373-12-12z" fill="#fff"/><path d="m306.096 385.632c-3.36 0-5.8 2.416-5.8 5.768s2.44 5.768 5.8 5.768c1.936 0 3.608-.864 4.552-2.264l-1.152-.84c-.736 1.096-1.96 1.752-3.4 1.752-2.464 0-4.328-1.784-4.328-4.416s1.864-4.416 4.328-4.416c1.448 0 2.68.68 3.408 1.76l1.176-.792c-.88-1.44-2.624-2.32-4.584-2.32zm13.834 3.768h-1.312v1.024c-.6-.72-1.488-1.184-2.68-1.184-2.136 0-3.8 1.664-3.8 3.96s1.664 3.96 3.8 3.96c1.192 0 2.08-.464 2.68-1.176v1.016h1.312zm-3.84 1.072c1.536 0 2.608 1.176 2.608 2.728 0 1.56-1.072 2.736-2.608 2.736-1.56 0-2.616-1.224-2.616-2.736s1.032-2.728 2.616-2.728zm10.292-1.232c-.88 0-1.864.296-2.488 1.152v-.992h-1.296v7.6h1.304v-4.264c0-1.416 1.024-2.256 2.248-2.256 1.32 0 2.088.824 2.088 2.224v4.296h1.312v-4.72c0-1.824-1.296-3.04-3.168-3.04zm9.125 0c-2.352 0-3.944 1.704-3.944 3.96s1.592 3.96 3.944 3.96c1.128 0 2.136-.416 2.824-1.192l-.808-.904c-.528.512-1.24.872-2.048.872-1.464 0-2.576-1.144-2.576-2.736s1.112-2.728 2.576-2.728c.808 0 1.456.312 2.016.856l.84-.888c-.68-.784-1.696-1.2-2.824-1.2zm7.794 0c-2.184 0-3.776 1.624-3.776 3.96 0 2.368 1.6 3.96 3.856 3.96 1.12 0 2.176-.272 3.12-1.152l-.696-.896c-.648.56-1.456.904-2.344.904-1.304 0-2.4-.776-2.584-2.352h5.976c.008-.144.024-.32.024-.488-.016-2.328-1.504-3.936-3.576-3.936zm-.024 1.16c1.232 0 2.104.864 2.264 2.208h-4.648c.2-1.296 1.04-2.208 2.384-2.208zm6.997-4.92h-1.304v11.52h1.304z" fill="#292c33"/><path d="m368 377c0-2.209 1.791-4 4-4h108c2.209 0 4 1.791 4 4v28c0 2.209-1.791 4-4 4h-108c-2.209 0-4-1.791-4-4z" fill="#1738fa"/><path d="m383.602 393.031h-4.766l-1.07 2.969h-1.547l4.343-11.375h1.313l4.352 11.375h-1.539zm-4.313-1.234h3.867l-1.937-5.32zm7.791-.094c0-1.297.307-2.338.922-3.125.614-.792 1.419-1.187 2.414-1.187.989 0 1.773.338 2.351 1.015v-4.406h1.445v12h-1.328l-.07-.906c-.578.708-1.383 1.062-2.414 1.062-.979 0-1.779-.401-2.398-1.203-.615-.802-.922-1.849-.922-3.141zm1.445.164c0 .959.198 1.709.594 2.25.396.542.942.813 1.64.813.917 0 1.586-.412 2.008-1.235v-3.883c-.432-.796-1.096-1.195-1.992-1.195-.708 0-1.26.274-1.656.821-.396.546-.594 1.356-.594 2.429zm7.486-.164c0-1.297.307-2.338.922-3.125.614-.792 1.419-1.187 2.414-1.187.989 0 1.773.338 2.351 1.015v-4.406h1.446v12h-1.328l-.071-.906c-.578.708-1.383 1.062-2.414 1.062-.979 0-1.778-.401-2.398-1.203-.615-.802-.922-1.849-.922-3.141zm1.445.164c0 .959.198 1.709.594 2.25.396.542.943.813 1.641.813.916 0 1.586-.412 2.007-1.235v-3.883c-.432-.796-1.096-1.195-1.992-1.195-.708 0-1.26.274-1.656.821-.396.546-.594 1.356-.594 2.429zm13.667-6.367v2.047h1.579v1.117h-1.579v5.242c0 .339.071.594.211.766.141.167.381.25.719.25.167 0 .396-.031.688-.094v1.172c-.381.104-.75.156-1.11.156-.646 0-1.133-.195-1.461-.586-.328-.39-.492-.945-.492-1.664v-5.242h-1.539v-1.117h1.539v-2.047zm2.635 6.195c0-.828.161-1.573.484-2.234.328-.662.781-1.172 1.36-1.531.583-.36 1.247-.539 1.992-.539 1.151 0 2.08.398 2.789 1.195.713.797 1.07 1.857 1.07 3.18v.101c0 .823-.159 1.563-.476 2.219-.313.651-.763 1.159-1.352 1.523-.583.365-1.255.547-2.016.547-1.145 0-2.075-.398-2.789-1.195-.708-.797-1.062-1.852-1.062-3.164zm1.453.172c0 .938.216 1.69.648 2.258.438.568 1.021.852 1.75.852.735 0 1.318-.287 1.75-.86.433-.578.649-1.385.649-2.422 0-.927-.222-1.677-.664-2.25-.438-.578-1.021-.867-1.75-.867-.714 0-1.289.284-1.727.852-.437.567-.656 1.38-.656 2.437zm18.964 0c0 1.287-.294 2.323-.883 3.11-.588.786-1.385 1.179-2.39 1.179-1.026 0-1.834-.325-2.422-.976v4.07h-1.446v-11.703h1.321l.07.937c.589-.729 1.406-1.093 2.453-1.093 1.016 0 1.818.382 2.406 1.148.594.766.891 1.831.891 3.195zm-1.445-.164c0-.953-.203-1.706-.61-2.258-.406-.552-.963-.828-1.672-.828-.875 0-1.531.388-1.968 1.164v4.039c.432.771 1.093 1.157 1.984 1.157.693 0 1.242-.274 1.648-.821.412-.552.618-1.37.618-2.453zm4.759 4.297h-1.445v-12h1.445zm7.439 0c-.083-.167-.151-.464-.203-.891-.672.698-1.474 1.047-2.406 1.047-.834 0-1.518-.234-2.055-.703-.531-.474-.797-1.073-.797-1.797 0-.88.334-1.562 1-2.047.672-.489 1.615-.734 2.828-.734h1.407v-.664c0-.505-.151-.906-.454-1.203-.302-.302-.747-.453-1.336-.453-.515 0-.947.13-1.296.39-.349.261-.524.576-.524.946h-1.453c0-.422.148-.829.445-1.219.302-.396.709-.708 1.219-.938.516-.229 1.081-.343 1.695-.343.974 0 1.737.244 2.289.734.553.484.839 1.154.86 2.008v3.89c0 .776.099 1.394.297 1.852v.125zm-2.398-1.102c.453 0 .882-.117 1.289-.351.406-.235.7-.539.883-.914v-1.735h-1.133c-1.771 0-2.657.519-2.657 1.555 0 .453.152.807.454 1.063.302.255.69.382 1.164.382zm8.423-1.015 1.969-6.336h1.547l-3.399 9.758c-.526 1.406-1.362 2.109-2.508 2.109l-.273-.023-.539-.102v-1.172l.391.031c.489 0 .869-.099 1.14-.296.276-.198.503-.56.68-1.086l.32-.86-3.015-8.359h1.578zm6.283 2.117h-1.445v-12h1.445zm3.791 0h-1.446v-8.453h1.446zm-1.563-10.695c0-.235.07-.433.211-.594.146-.162.359-.242.641-.242.281 0 .494.08.64.242.146.161.219.359.219.594 0 .234-.073.429-.219.586-.146.156-.359.234-.64.234-.282 0-.495-.078-.641-.234-.141-.157-.211-.352-.211-.586zm8.705 8.453c0-.391-.149-.693-.446-.906-.291-.219-.804-.407-1.539-.563-.729-.156-1.31-.344-1.742-.562-.427-.219-.745-.48-.953-.782-.203-.302-.305-.661-.305-1.078 0-.693.292-1.278.875-1.758.589-.479 1.339-.718 2.25-.718.959 0 1.735.247 2.328.742.599.495.899 1.127.899 1.898h-1.453c0-.396-.169-.737-.508-1.023-.333-.287-.755-.43-1.266-.43-.526 0-.937.115-1.234.344s-.445.529-.445.898c0 .349.138.612.414.789s.773.347 1.492.508c.724.162 1.31.354 1.758.578s.778.495.992.813c.219.312.328.695.328 1.148 0 .755-.302 1.362-.906 1.821-.604.453-1.388.679-2.352.679-.677 0-1.276-.12-1.797-.359-.52-.24-.929-.573-1.226-1-.292-.432-.438-.899-.438-1.399h1.446c.026.485.218.87.578 1.157.364.281.843.422 1.437.422.547 0 .985-.11 1.313-.329.333-.224.5-.52.5-.89zm5.189-8.258v2.047h1.578v1.117h-1.578v5.242c0 .339.07.594.211.766.14.167.38.25.718.25.167 0 .396-.031.688-.094v1.172c-.38.104-.75.156-1.109.156-.646 0-1.133-.195-1.461-.586-.328-.39-.493-.945-.493-1.664v-5.242h-1.539v-1.117h1.539v-2.047z" fill="#fff"/></svg>