<svg width="80" height="36" viewBox="0 0 80 36" fill="none" xmlns="http://www.w3.org/2000/svg">
<path fill-rule="evenodd" clip-rule="evenodd" d="M30.6814 4.36479C24.4879 4.38927 18.8774 6.00495 13.6709 8.30901C7.93704 10.8471 4.94611 14.8334 4.35519 19.8352C3.99804 22.8531 5.40715 25.3216 8.30848 27.3779C10.1643 28.692 12.354 29.5606 14.7124 30.1696C17.6566 30.9305 20.6852 31.5239 23.8151 31.5542C31.058 31.6257 45.4215 31.8536 55.8743 30.1696C66.3272 28.4857 68.6788 28.7862 71.8835 26.8696C76.791 23.9345 76.838 22.2631 76.838 17.8905C76.838 16.1716 75.7367 14.8367 73.617 12.9691C71.4972 11.1016 65.2944 7.7324 64.7268 7.54733C56.106 4.73213 45.2699 3.4982 34.3347 4.36382C33.9931 4.36382 32.3373 4.35892 30.6814 4.36479ZM65.6752 4.36479C69.1662 5.5369 73.4611 8.62471 75.9091 10.7789C78.0663 12.6786 82.67 19.8352 77.941 26.2379C73.2121 32.6407 70.3321 31.5542 57.2941 33.7497C49.1224 35.1257 27.7801 35.6894 19.267 34.4781C16.3956 34.0698 13.6163 33.4705 10.9423 32.5981C8.03575 31.6502 5.5578 30.2539 3.55388 28.4002C1.24737 26.2666 -0.0318646 23.8332 0.000603285 21.0592C0.0785261 14.2576 3.82402 8.8789 11.615 5.45856C17.3709 2.93027 23.6268 1.20002 30.4775 1.21177C31.9295 1.21373 33.3827 1.21177 33.7698 1.21177C45.3218 0.254115 56.2868 1.21373 65.6752 4.36479Z" fill="#3BC9DB"/>
</svg>
