<svg width="11" height="11" viewBox="0 0 11 11" fill="none" xmlns="http://www.w3.org/2000/svg">
<g clip-path="url(#clip0)">
<path fill-rule="evenodd" clip-rule="evenodd" d="M12 12.3343C11.5357 13.9312 11.1677 14.262 10.296 13.8215C9.36874 13.3531 8.46627 12.8174 7.6033 12.2363C5.68168 10.9438 3.75867 9.64699 1.90276 8.26234C1.18142 7.72223 0.601661 6.96549 0.0467869 6.2395C-0.0802501 6.07264 0.0716759 5.54132 0.260041 5.32323C0.444026 5.11099 0.851392 4.97927 1.14343 5.00268C1.46467 5.02903 1.79616 5.23395 2.07359 5.42716C5.397 7.72809 8.71456 10.0451 12 12.3343" fill="#F8F9FA"/>
<path fill-rule="evenodd" clip-rule="evenodd" d="M-0.397045 -4C0.719675 -3.35259 1.71576 -2.81799 2.66293 -2.21538C5.55662 -0.373586 8.43565 1.48985 11.313 3.35328C11.8412 3.6963 12.3988 4.03159 12.821 4.4735C13.0183 4.68055 13.0541 5.19816 12.9204 5.46546C12.7851 5.72814 12.3287 6.02327 12.0434 5.99855C11.4255 5.94292 10.731 5.82549 10.2354 5.50102C6.72872 3.21731 3.25637 0.887246 -0.204647 -1.45826C-1.01651 -2.00833 -1.40454 -2.73608 -0.397045 -4Z" fill="#F8F9FA"/>
</g>
<defs>
<clipPath id="clip0">
<rect x="10.9922" y="0.249023" width="10" height="10" transform="rotate(90 10.9922 0.249023)" fill="white"/>
</clipPath>
</defs>
</svg>
