<svg width="5" height="290" viewBox="0 0 5 290" fill="none" xmlns="http://www.w3.org/2000/svg">
<g clip-path="url(#clip0)">
<g clip-path="url(#clip1)">
<path fill-rule="evenodd" clip-rule="evenodd" d="M4.67235 241.514C4.60835 243.149 4.56563 244.25 3.38563 244.753C2.57496 245.098 1.50969 244.1 1.27769 242.46C1.07369 241.014 1.12832 239.509 1.27365 238.05C1.32298 237.558 1.927 236.996 2.42033 236.709C2.88166 236.442 3.74831 237.152 3.96564 238.009C4.30298 239.337 4.51368 240.697 4.67235 241.514" fill="#858C93"/>
<path fill-rule="evenodd" clip-rule="evenodd" d="M1.34703 191.215C2.40836 190.729 3.21897 190.976 3.48564 191.95C4.07497 194.092 4.43765 196.288 4.13498 198.529C4.09498 198.829 3.93768 199.121 3.79501 199.398C3.50168 199.968 2.53369 200.129 2.17502 199.629C1.80969 199.122 1.41633 198.572 1.27633 197.981C0.734992 195.706 0.588362 193.418 1.34703 191.215" fill="#858C93"/>
<path fill-rule="evenodd" clip-rule="evenodd" d="M0.426946 208.957C0.642946 207.97 0.75099 207.13 1.03899 206.358C1.14566 206.074 1.66565 205.856 2.02831 205.79C2.24965 205.75 2.65762 206.004 2.76829 206.229C3.79629 208.326 4.66564 210.47 3.7843 212.861C3.55497 213.482 3.16165 213.994 2.42831 213.974C1.71898 213.957 1.23495 213.504 1.09628 212.845C0.817615 211.513 0.629613 210.162 0.426946 208.957Z" fill="#858C93"/>
<path fill-rule="evenodd" clip-rule="evenodd" d="M2.02567 144.294C2.319 144.749 2.547 144.993 2.65366 145.285C3.32433 147.097 3.61099 148.985 3.50965 150.905C3.48032 151.479 3.17102 152.11 2.81636 152.582C2.30702 153.258 1.31233 153.084 1.023 152.324C0.206999 150.184 0.0883165 147.971 0.640316 145.769C0.762983 145.281 1.41233 144.924 2.02567 144.294" fill="#858C93"/>
<path fill-rule="evenodd" clip-rule="evenodd" d="M1.48165 129.736C2.71765 130.485 3.04563 131.676 3.29629 132.948C3.54963 134.23 3.58165 135.488 2.98965 136.669C2.82565 136.996 2.37766 137.332 2.02833 137.368C1.67766 137.405 1.08565 137.173 0.948313 136.889C-0.0970205 134.717 -0.403664 132.472 0.672336 130.21C0.779003 129.984 1.18565 129.902 1.48165 129.736" fill="#858C93"/>
<path fill-rule="evenodd" clip-rule="evenodd" d="M4.26968 180.465C4.17635 181.326 4.16164 181.534 4.12964 181.744C3.98831 182.624 3.44431 183.249 2.79631 183.28C2.12031 183.312 1.44032 182.738 1.33498 181.894C1.14032 180.332 0.951028 178.761 0.913694 177.192C0.899028 176.616 1.26701 176.001 1.55901 175.457C1.86167 174.897 2.93369 174.962 3.10569 175.586C3.60302 177.398 3.98302 179.241 4.26968 180.465Z" fill="#858C93"/>
<path fill-rule="evenodd" clip-rule="evenodd" d="M1.02832 224.787C1.16566 223.725 1.26562 222.67 1.46296 221.635C1.50829 221.397 1.87232 221.094 2.12565 221.058C2.38032 221.021 2.73767 221.216 2.94167 221.417C3.15234 221.626 3.31095 221.957 3.35762 222.253C3.62829 224.033 3.87362 225.817 4.09095 227.605C4.12829 227.905 4.06967 228.274 3.91367 228.525C3.70567 228.856 3.359 229.326 3.06966 229.329C2.61366 229.332 2.07498 229.086 1.72298 228.774C1.44432 228.526 1.31499 228.033 1.26166 227.63C1.13766 226.686 1.10032 225.73 1.02832 224.787Z" fill="#858C93"/>
<path fill-rule="evenodd" clip-rule="evenodd" d="M3.38034 266.061C4.66968 267.9 4.46964 269.973 4.1403 272.04C4.0843 272.39 3.68034 272.725 3.37234 272.99C2.77367 273.506 1.807 273.278 1.53633 272.544C0.904334 270.818 0.918985 269.014 1.28698 267.269C1.45632 266.468 2.32301 266.02 3.38034 266.061" fill="#858C93"/>
<path fill-rule="evenodd" clip-rule="evenodd" d="M4.17632 165.186C4.04432 166.19 4.08298 166.868 3.84031 167.425C3.66698 167.82 3.10834 168.297 2.73367 168.285C2.33367 168.274 1.943 167.742 1.56167 167.42C1.49367 167.362 1.47097 167.225 1.46564 167.123C1.35764 165.117 1.24031 163.11 1.16831 161.099C1.15764 160.807 1.35498 160.504 1.47898 160.214C1.69232 159.725 2.46964 159.65 2.79897 160.103C3.0443 160.438 3.347 160.79 3.431 161.177C3.743 162.618 3.97632 164.076 4.17632 165.186" fill="#858C93"/>
<path fill-rule="evenodd" clip-rule="evenodd" d="M2.99236 123.769C2.49636 123.365 2.0057 123.17 1.9057 122.851C1.13104 120.375 0.96436 117.85 1.56169 115.307C1.61369 115.083 2.00169 114.818 2.25636 114.793C2.50836 114.765 2.96303 114.957 3.03103 115.156C3.9057 117.681 4.66702 120.233 3.58969 122.897C3.47769 123.175 3.24569 123.407 2.99236 123.769" fill="#858C93"/>
<path fill-rule="evenodd" clip-rule="evenodd" d="M2.10963 278.54C2.72163 278.99 3.0923 279.116 3.1763 279.348C3.9883 281.564 4.35895 283.838 3.76562 286.17C3.68162 286.501 3.19363 287.012 2.98163 286.97C2.5323 286.884 1.91498 286.581 1.76432 286.206C0.780317 283.749 0.856296 281.298 2.10963 278.54" fill="#858C93"/>
<path fill-rule="evenodd" clip-rule="evenodd" d="M1.13367 255.107C1.44167 254.117 1.68432 253.098 2.08165 252.145C2.32699 251.555 3.447 251.615 3.66167 252.217C4.41767 254.345 4.88033 256.509 3.92033 258.702C3.81233 258.951 3.4563 259.259 3.22697 259.25C2.85897 259.235 2.38964 259.071 2.16297 258.803C1.27764 257.753 1.28701 256.457 1.13367 255.107" fill="#858C93"/>
<path fill-rule="evenodd" clip-rule="evenodd" d="M1.13367 3.19947C1.44167 2.20881 1.68432 1.19148 2.08165 0.238145C2.32699 -0.352522 3.447 -0.292485 3.66167 0.308848C4.41767 2.43685 4.88033 4.60083 3.92033 6.7955C3.81233 7.0435 3.4563 7.35282 3.22697 7.34348C2.85897 7.32748 2.38964 7.1635 2.16297 6.8955C1.27764 5.84617 1.28701 4.54881 1.13367 3.19947" fill="#858C93"/>
<path fill-rule="evenodd" clip-rule="evenodd" d="M4.67235 61.8128C4.60835 63.4488 4.56563 64.5502 3.38563 65.0529C2.57496 65.3982 1.50969 64.3995 1.27769 62.7582C1.07369 61.3129 1.12832 59.8075 1.27365 58.3502C1.32298 57.8582 1.927 57.2955 2.42033 57.0088C2.88166 56.7422 3.74831 57.4515 3.96564 58.3075C4.30298 59.6368 4.51368 60.9968 4.67235 61.8128" fill="#858C93"/>
<path fill-rule="evenodd" clip-rule="evenodd" d="M3.38034 86.3595C4.66968 88.1982 4.46964 90.2729 4.1403 92.3396C4.0843 92.6902 3.68034 93.0249 3.37234 93.2902C2.77367 93.8049 1.807 93.5782 1.53633 92.8435C0.904334 91.1182 0.918985 89.3129 1.28698 87.5689C1.45632 86.7662 2.32301 86.3182 3.38034 86.3595" fill="#858C93"/>
<path fill-rule="evenodd" clip-rule="evenodd" d="M2.10963 98.8395C2.72163 99.2902 3.0923 99.4155 3.1763 99.6462C3.9883 101.862 4.35895 104.137 3.76562 106.47C3.68162 106.801 3.19363 107.31 2.98163 107.27C2.5323 107.184 1.91498 106.88 1.76432 106.506C0.780317 104.048 0.856296 101.597 2.10963 98.8395" fill="#858C93"/>
<path fill-rule="evenodd" clip-rule="evenodd" d="M1.13367 75.4075C1.44167 74.4155 1.68432 73.3982 2.08165 72.4449C2.32699 71.8555 3.447 71.9155 3.66167 72.5169C4.41767 74.6435 4.88033 76.8075 3.92033 79.0022C3.81233 79.2502 3.4563 79.5595 3.22697 79.5502C2.85897 79.5342 2.38964 79.3702 2.16297 79.1022C1.27764 78.0528 1.28701 76.7555 1.13367 75.4075Z" fill="#858C93"/>
<path fill-rule="evenodd" clip-rule="evenodd" d="M1.08431 44.8222C1.19097 43.9089 1.25229 42.8488 1.47096 41.8208C1.53763 41.5115 2.01897 41.1289 2.35097 41.0835C2.68831 41.0369 3.27763 41.2689 3.4123 41.5449C4.35497 43.4982 4.70961 45.5528 4.18828 47.7008C4.14161 47.8968 4.03096 48.1275 3.8763 48.2382C3.46963 48.5328 3.00295 49.0035 2.59628 48.9702C2.17095 48.9355 1.71233 48.4515 1.41367 48.0555C1.179 47.7462 1.10166 47.2768 1.06966 46.8675C1.02299 46.2382 1.07364 45.5982 1.08431 44.8222" fill="#858C93"/>
<path fill-rule="evenodd" clip-rule="evenodd" d="M3.53101 19.4701C3.40567 19.8421 3.2203 20.6595 2.85763 21.3888C2.4923 22.1235 1.44832 22.0262 1.08166 21.2835C0.30699 19.7088 0.0296493 18.0608 0.573649 16.3701C0.849649 15.5155 0.713665 14.3808 1.85633 13.9928C2.48166 13.7808 2.97096 14.6315 3.28563 16.4782C3.35629 16.8942 3.39367 17.3154 3.43101 17.7381C3.46701 18.1568 3.48034 18.5821 3.53101 19.4701Z" fill="#858C93"/>
<path fill-rule="evenodd" clip-rule="evenodd" d="M1.65098 35.9675C1.35231 35.7315 1.10696 35.6369 1.03763 35.4702C0.094963 33.2022 0.276307 30.8968 0.948307 28.6209C1.05897 28.2462 1.66562 27.8822 2.09896 27.7929C2.34562 27.7409 2.88832 28.2009 2.99232 28.5262C3.69365 30.7275 3.39497 32.9356 2.7763 35.0942C2.66697 35.4716 2.01764 35.6955 1.65098 35.9675" fill="#858C93"/>
</g>
</g>
<defs>
<clipPath id="clip0">
<rect width="5" height="290" fill="white"/>
</clipPath>
<clipPath id="clip1">
<rect width="749.175" height="4.67232" fill="white" transform="translate(3.05176e-05 749) rotate(-90)"/>
</clipPath>
</defs>
</svg>
