<svg fill="none" height="8" viewBox="0 0 758 8" width="758" xmlns="http://www.w3.org/2000/svg" xmlns:xlink="http://www.w3.org/1999/xlink"><clipPath id="a"><path d="m0 0h757.916v7.18226h-757.916z"/></clipPath><g clip-path="url(#a)" clip-rule="evenodd" fill="#495057" fill-rule="evenodd"><path d="m85.7565 3.05781c.0227 2.30933-2.7253 4.47067-4.8627 3.904-.3986-.10533-.7693-.328-1.152-.50267-1.9573-.88133-2.5666-2.06799-1.1453-4.32532 1.1934-1.898667 3.5747-2.534674 5.5587-1.540007 1.016.510667 1.4786 1.455997 1.6013 2.463997z"/><path d="m236.71 3.63109c-.048-1.20133.429-2.07867 1.487-2.62534.284-.146665.554-.319997.846-.447997 2.228-.986666 3.94-.221333 4.611 2.166667.155.54933.061 1.29201-.189 1.81201-.827 1.71333-2.456 2.27867-4.187 2.5-.441.05733-1.036-.26534-1.403-.59067-.825-.732-1.274-1.69067-1.165-2.81467z"/><path d="m164.241 3.60979c-.083.36666-.136.904-.324 1.388-.61 1.576-2.298 2.48133-3.818 2.096-1.509-.38534-2.668-2.41334-2.254-4.05467.357-1.42667 1.325-2.385336 2.645-2.9480022.348-.148.845-.09600067 1.228.0159992 1.324.393333 2.476 1.970673 2.523 3.502673"/><path d="m283.667 3.50315c-.034.17466-.05.49733-.164.784-.788 1.98933-4.159 2.956-5.885 1.69733-2.312-1.684-2.181-3.48401.323-4.80934 1.42-.753337 2.848-.66399 4.266-.08666.858.34934 1.419 1.316 1.46 2.41467z"/><path d="m197.601 2.71116c.45-.804 1.33-1.37999 2.138-1.822661 1.306-.716 2.502-.369347 3.412.751981 1.522 1.87867 1.119 3.54001-1.009 4.67201-1.968 1.04667-6.425-.244-4.541-3.60133z"/><path d="m121.014 6.82579c-2.455-.05467-3.629-1.83334-2.696-4.08534.664-1.60266 1.963-2.515985 3.367-2.370652 1.317.138667 2.732 1.362662 3.052 2.841322.12.55734.032 1.308-.264 1.77866-.772 1.22934-1.964 1.86934-3.459 1.83601"/><path d="m137.934 3.36984c.035 1.54133-1.945 3.50532-3.567 3.53732-1.513.03067-3.138-1.57066-3.109-3.06266.032-1.71334 2.115-3.622671 3.895-3.568005 1.233.036 2.75 1.724015 2.781 3.093345z"/><path d="m171.789 6.13779c-1.076-.57466-1.394-1.99467-.787-3.072.591-1.052 1.485-1.81335 2.584-2.292012 1.329-.578667 2.827.109334 3.725 1.650672.708 1.21333.476 2.48267-.788 3.34134-.765.52133-2.837 1.39067-4.734.372z"/><path d="m58.6378 3.67512c.0334 1.45866-1.484 3.11734-2.9573 3.22934-1.8293.13733-3.5133-1.21734-3.552-2.85734-.0373-1.59867 1.82-3.746662 3.2667-3.778662 1.3706-.028 3.2066 1.901322 3.2426 3.406662"/><path d="m252.744 6.89642c-.404-.024-.835-.19867-1.183-.41467-1.643-1.03333-1.916-3.09066-.663-4.72933 1.264-1.650664 3.333-1.994662 4.736-.68133.917.80933 2.89 6.18399-2.89 5.82533"/><path d="m13.9165 1.56852c.916-1.6226677 2.2987-1.763998 3.6827-.49733 1.54 1.40533 1.792 3.16665.644 4.51998-1.2027 1.41734-3.18 1.81601-4.5693.80534-2.276-1.544-.3214-3.82799.2426-4.82799"/><path d="m45.4032 3.61514c-.0427 1.58266-1.816 3.30933-3.3427 3.252-1.6693-.06-3.2173-1.56267-3.096-3.00534.1507-1.80933 1.988-3.675992 3.484-3.543992 1.4333.130667 2.9933 1.872002 2.9547 3.297332"/><path d="m230.255 3.17785c.068 1.692-.797 2.75999-2.766 3.41333-1.171.388-2.272.01067-3.075-1.05466-.933-1.23867-.863-2.62266.197-3.76533.674-.724 1.471-1.194671 2.484-1.304005 1.858-.204 3.086.833325 3.16 2.710665"/><path d="m95.1258 6.89378c-1.2373.03334-2.9746-1.58933-3.0226-2.81733-.0734-1.89334 1.7133-3.826672 3.5613-3.786672.3973.008.892.161343 1.168.426676 1.0947 1.059996 1.0973 2.484006 1.0133 3.854676-.0626 1.028-1.2746 2.06265-2.4026 2.28531-.104.01867-.2107.02401-.3174.03734"/><path d="m184.218 3.80986c-.011-1.872 1.442-3.453329 3.096-3.363996 1.504.08 3.259 1.924006 3.276 3.442676.016 1.45333-1.888 2.924-3.687 2.84933-1.717-.076-2.673-1.11468-2.685-2.92801"/><path d="m108.338 6.83381c-1.537.03067-3.08-1.62268-3.153-3.37735-.063-1.46933 1.265-3.065319 2.584-3.106652 1.52-.052 3.518 2.022662 3.429 3.557322-.081 1.416-1.531 2.89735-2.86 2.92668"/><path d="m266.031 6.77384c-1.762-.05467-2.902-1.60666-2.436-3.312.428-1.56 2.124-2.942662 3.743-3.050662.989-.066667 1.984.753332 2.279 1.878662.62 2.364-1.136 4.56-3.586 4.484"/><path d="m214.129.680516c1.597-.037333 2.798 1.106674 2.853 2.721334.056 1.62667-1.4 2.976-3.341 3.09333-1.56.096-2.942-1.09333-3.007-2.58533-.079-1.84134 1.365-3.177334 3.495-3.229334z"/><path d="m150.866 3.52576c-.007 1.8-1.573 3.14934-3.64 3.13601-1.344-.008-2.469-1.06266-2.496-2.344-.037-1.88 1.541-3.817329 3.099-3.798662 1.64.02 3.044 1.407992 3.037 3.006652z"/><path d="m291.943 6.65386c-1.367-.01867-2.293-.99734-1.98-2.27067.224-.91467.583-1.84133 1.084-2.63067.696-1.093329 1.836-1.380001 3.091-1.156001 1.107.198666 1.551 1.038661 1.855 1.980001.368 1.13733.018 2.096-.834 2.88533-.846.78533-2.012 1.20801-3.216 1.19201z"/><path d="m65.5792 4.39651c-.028-1.48534 1.1026-3.216 2.4826-3.729331.9894-.366667 1.88-.086675 2.6094.625321.8133.79067 1.132 1.768.776 2.88267-.468 1.46-2.1493 2.59068-3.6653 2.49468-1.1827-.07334-2.18-1.10401-2.2027-2.27334"/><path d="m309.009 3.88849c-.112 1.812-1.219 2.904-2.789 2.74933-1.634-.15866-2.895-1.62134-2.818-3.276.071-1.53334 1.752-2.973344 3.241-2.822677 1.003.101333 2.676 1.953347 2.366 3.349347"/><path d="m319.577 6.58046c-1.306.1-2.034-.776-2.646-1.82-.549-.94267-.352-1.82533.226-2.67199.06-.08534.133-.16401.2-.24668 1.318-1.641335 2.902-1.674667 4.225-.04933.815 1.00266.823 2.132.303 3.27334-.434.948-1.188 1.45466-2.308 1.51466z"/><path d="m28.8738 6.56046c-1.5106.06-2.7946-1.07065-2.7933-2.45599.0027-1.48933 1.4507-3.281335 2.804-3.470668 1.18-.166667 2.86 1.426658 2.9827 2.827998.1373 1.56133-1.28 3.03066-2.9934 3.09866"/><path d="m2.37518 6.13385c-1.30533.044-2.4026557-.86801-2.3746557-1.97735.0466667-1.82533 1.0519857-3.10932 2.4359857-3.10932 1.692 0 2.65201.84667 2.71068 2.388.06133 1.65867-.94267 2.63333-2.77201 2.69867"/><path d="m415.807 3.05781c.023 2.30933-2.725 4.47067-4.862 3.904-.399-.10533-.77-.328-1.152-.50267-1.958-.88133-2.567-2.06799-1.146-4.32532 1.194-1.898667 3.575-2.534674 5.559-1.540007 1.016.510667 1.479 1.455997 1.601 2.463997"/><path d="m566.762 3.63109c-.048-1.20133.429-2.07867 1.486-2.62534.284-.146665.555-.319997.847-.447997 2.228-.986666 3.94-.221333 4.611 2.166667.155.54933.061 1.29201-.191 1.81201-.825 1.71333-2.456 2.27867-4.187 2.5-.441.05733-1.036-.26534-1.401-.59067-.825-.732-1.275-1.69067-1.165-2.81467z"/><path d="m494.291 3.60979c-.081.36666-.135.904-.323 1.388-.609 1.576-2.298 2.48133-3.817 2.096-1.509-.38534-2.668-2.41334-2.256-4.05467.359-1.42667 1.325-2.385336 2.647-2.9480022.346-.148.844-.09600067 1.228.0159992 1.324.393333 2.476 1.970673 2.521 3.502673z"/><path d="m613.718 3.50315c-.035.17466-.051.49733-.164.784-.787 1.98933-4.159 2.956-5.886 1.69733-2.31-1.684-2.18-3.48401.324-4.80934 1.42-.753337 2.847-.66399 4.267-.08666.856.34934 1.417 1.316 1.459 2.41467z"/><path d="m527.651 2.71116c.454-.804 1.331-1.37999 2.14-1.822661 1.306-.716 2.5-.369347 3.412.751981 1.52 1.87867 1.119 3.54001-1.01 4.67201-1.967 1.04667-6.424-.244-4.542-3.60133z"/><path d="m451.066 6.82579c-2.456-.05467-3.63-1.83334-2.698-4.08534.664-1.60266 1.963-2.515985 3.367-2.370652 1.317.138667 2.732 1.362662 3.052 2.841322.12.55734.032 1.308-.264 1.77866-.772 1.22934-1.964 1.86934-3.457 1.83601"/><path d="m467.985 3.36984c.036 1.54133-1.946 3.50532-3.566 3.53732-1.513.03067-3.138-1.57066-3.109-3.06266.031-1.71334 2.115-3.622671 3.893-3.568005 1.235.036 2.752 1.724015 2.782 3.093345z"/><path d="m501.839 6.13779c-1.074-.57466-1.393-1.99467-.786-3.072.592-1.052 1.486-1.81335 2.585-2.292012 1.329-.578667 2.826.109334 3.725 1.650672.707 1.21333.475 2.48267-.788 3.34134-.765.52133-2.838 1.39067-4.736.372z"/><path d="m388.689 3.67512c.033 1.45866-1.484 3.11734-2.956 3.22934-1.831.13733-3.514-1.21734-3.552-2.85734-.039-1.59867 1.82-3.746662 3.265-3.778662 1.371-.028 3.207 1.901322 3.243 3.406662z"/><path d="m582.797 6.89642c-.404-.024-.836-.19867-1.184-.41467-1.643-1.03333-1.916-3.09066-.663-4.72933 1.265-1.650664 3.333-1.994662 4.736-.68133.919.80933 2.891 6.18399-2.889 5.82533"/><path d="m343.967 1.56852c.918-1.6226677 2.3-1.763998 3.683-.49733 1.541 1.40533 1.79 3.16665.642 4.51998-1.2 1.41734-3.18 1.81601-4.568.80534-2.276-1.544-.322-3.82799.243-4.82799z"/><path d="m375.454 3.61514c-.042 1.58266-1.815 3.30933-3.342 3.252-1.669-.06-3.218-1.56267-3.096-3.00534.151-1.80933 1.987-3.675992 3.484-3.543992 1.434.130667 2.994 1.872002 2.954 3.297332"/><path d="m560.306 3.17785c.068 1.692-.798 2.75999-2.766 3.41333-1.172.388-2.273.01067-3.075-1.05466-.932-1.23867-.862-2.62266.197-3.76533.675-.724 1.472-1.194671 2.485-1.304005 1.856-.204 3.086.833325 3.159 2.710665"/><path d="m425.178 6.89378c-1.237.03334-2.976-1.58933-3.023-2.81733-.073-1.89334 1.713-3.826672 3.563-3.786672.394.008.889.161343 1.166.426676 1.094 1.059996 1.096 2.484006 1.012 3.854676-.062 1.028-1.273 2.06265-2.401 2.28531-.104.01867-.21.02401-.317.03734z"/><path d="m514.271 3.80986c-.013-1.872 1.44-3.453329 3.094-3.363996 1.505.08 3.259 1.924006 3.275 3.442676.019 1.45333-1.887 2.924-3.685 2.84933-1.718-.076-2.675-1.11468-2.684-2.92801"/><path d="m438.388 6.83381c-1.536.03067-3.078-1.62268-3.153-3.37735-.063-1.46933 1.265-3.065319 2.585-3.106652 1.519-.052 3.518 2.022662 3.43 3.557322-.083 1.416-1.532 2.89735-2.862 2.92668"/><path d="m596.083 6.77384c-1.762-.05467-2.904-1.60666-2.436-3.312.428-1.56 2.124-2.942662 3.742-3.050662.99-.066667 1.985.753332 2.278 1.878662.62 2.364-1.134 4.56-3.584 4.484z"/><path d="m544.181.680516c1.596-.037333 2.799 1.106674 2.854 2.721334.055 1.62667-1.401 2.976-3.341 3.09333-1.56.096-2.943-1.09333-3.008-2.58533-.079-1.84134 1.365-3.177334 3.495-3.229334"/><path d="m480.916 3.52576c-.006 1.8-1.573 3.14934-3.64 3.13601-1.344-.008-2.469-1.06266-2.496-2.344-.037-1.88 1.542-3.817329 3.099-3.798662 1.64.02 3.044 1.407992 3.037 3.006652"/><path d="m718.726 3.60979c-.082.36666-.135.904-.323 1.388-.609 1.576-2.297 2.48133-3.817 2.096-1.51-.38534-2.668-2.41334-2.256-4.05467.358-1.42667 1.326-2.385336 2.646-2.9480022.348-.148.846-.09600067 1.228.0159992 1.324.393333 2.476 1.970673 2.522 3.502673z"/><path d="m675.499 6.82579c-2.453-.05467-3.628-1.83334-2.696-4.08534.664-1.60266 1.964-2.515985 3.367-2.370652 1.318.138667 2.732 1.362662 3.052 2.841322.12.55734.032 1.308-.264 1.77866-.772 1.22934-1.963 1.86934-3.459 1.83601"/><path d="m692.419 3.36984c.036 1.54133-1.945 3.50532-3.565 3.53732-1.513.03067-3.137-1.57066-3.109-3.06266.03-1.71334 2.114-3.622671 3.893-3.568005 1.235.036 2.752 1.724015 2.781 3.093345z"/><path d="m726.274 6.13779c-1.075-.57466-1.392-1.99467-.785-3.072.59-1.052 1.485-1.81335 2.584-2.292012 1.329-.578667 2.826.109334 3.725 1.650672.706 1.21333.474 2.48267-.788 3.34134-.766.52133-2.839 1.39067-4.736.372"/><path d="m738.706 3.80986c-.013-1.872 1.44-3.453329 3.093-3.363996 1.505.08 3.26 1.924006 3.276 3.442676.019 1.45333-1.888 2.924-3.685 2.84933-1.719-.076-2.673-1.11468-2.684-2.92801"/><path d="m662.824 6.83381c-1.537.03067-3.08-1.62268-3.154-3.37735-.063-1.46933 1.266-3.065319 2.585-3.106652 1.519-.052 3.517 2.022662 3.429 3.557322-.081 1.416-1.53 2.89735-2.86 2.92668"/><path d="m705.351 3.52576c-.007 1.8-1.573 3.14934-3.639 3.13601-1.345-.008-2.47-1.06266-2.495-2.344-.039-1.88 1.54-3.817329 3.097-3.798662 1.64.02 3.044 1.407992 3.037 3.006652"/><path d="m621.995 6.65386c-1.368-.01867-2.293-.99734-1.981-2.27067.224-.91467.584-1.84133 1.085-2.63067.695-1.093329 1.836-1.380001 3.091-1.156001 1.105.198666 1.549 1.038661 1.855 1.980001.368 1.13733.017 2.096-.834 2.88533-.846.78533-2.012 1.20801-3.216 1.19201"/><path d="m395.631 4.39651c-.028-1.48534 1.102-3.216 2.482-3.729331.99-.366667 1.881-.086675 2.609.625321.815.79067 1.133 1.768.776 2.88267-.467 1.46-2.15 2.59068-3.666 2.49468-1.181-.07334-2.178-1.10401-2.201-2.27334"/><path d="m639.058 3.88849c-.112 1.812-1.219 2.904-2.785 2.74933-1.636-.15866-2.897-1.62134-2.822-3.276.073-1.53334 1.753-2.973344 3.243-2.822677 1.002.101333 2.677 1.953347 2.364 3.349347"/><path d="m757.878 3.88849c-.112 1.812-1.219 2.904-2.787 2.74933-1.636-.15866-2.896-1.62134-2.82-3.276.072-1.53334 1.752-2.973344 3.241-2.822677 1.003.101333 2.678 1.953347 2.366 3.349347"/><path d="m649.627 6.58046c-1.304.1-2.032-.776-2.644-1.82-.549-.94267-.352-1.82533.225-2.67199.06-.08534.132-.16401.199-.24668 1.319-1.641335 2.904-1.674667 4.225-.04933.816 1.00266.824 2.132.304 3.27334-.433.948-1.188 1.45466-2.309 1.51466"/><path d="m358.926 6.56046c-1.511.06-2.795-1.07065-2.793-2.45599.002-1.48933 1.45-3.281335 2.804-3.470668 1.178-.166667 2.858 1.426658 2.982 2.827998.136 1.56133-1.28 3.03066-2.993 3.09866"/><path d="m332.426 6.13385c-1.305.044-2.402-.86801-2.374-1.97735.046-1.82533 1.054-3.10932 2.436-3.10932 1.692 0 2.651.84667 2.711 2.388.06 1.65867-.942 2.63333-2.773 2.69867"/></g></svg>