<svg width="12" height="759" viewBox="0 0 12 759" fill="none" xmlns="http://www.w3.org/2000/svg">
<g clip-path="url(#clip0)">
<path fill-rule="evenodd" clip-rule="evenodd" d="M0.85915 757.437C2.90315 755.379 4.98981 753.277 7.10715 751.146C5.83115 748.362 2.55783 747.358 1.66983 744.291C2.89383 742.51 4.90049 741.254 5.67915 739.006C4.07782 736.743 0.919161 735.65 0.419161 732.213C2.40049 730.486 4.46583 728.691 6.70049 726.749C5.70849 725.658 4.92182 724.733 3.84582 724.009C2.79382 723.302 1.86449 722.407 0.935161 721.535C0.301827 720.939 -0.116849 720.195 0.0418177 719.121C1.82582 717.342 4.54183 716.443 6.00316 713.954C4.67916 711.654 1.50848 710.817 1.15648 707.662C2.83382 705.639 5.49248 704.459 7.10715 702.183C5.53915 699.363 2.46582 697.645 1.79382 694.282C3.74182 692.495 5.83382 691.019 7.64582 689.006C7.16182 688.366 6.82848 687.845 6.42182 687.391C5.28715 686.126 4.05249 684.943 2.99249 683.622C1.96315 682.342 2.08849 681.093 3.29382 679.929C4.50982 678.751 5.82316 677.677 7.14582 676.51C6.58849 675.303 5.44048 674.855 4.58848 674.11C3.95115 673.55 3.13515 673.17 2.57515 672.55C1.44315 671.302 1.43516 669.921 2.79649 669.001C3.76849 668.347 4.70316 667.63 5.59382 666.869C6.14849 666.393 6.58583 665.782 7.19783 665.101C6.64049 664.025 5.80183 663.267 4.97117 662.465C3.97917 661.506 3.01515 660.498 2.18982 659.399C1.70848 658.762 1.51783 657.902 1.21916 657.186C2.03916 656.217 2.71383 655.399 3.41383 654.603C4.10983 653.81 4.83382 653.038 5.64049 652.153C4.52049 650.971 3.50315 649.911 2.50582 648.83C2.00048 648.285 1.48983 647.733 1.06983 647.123C0.596499 646.431 0.689819 645.694 1.32315 645.11C2.49782 644.03 3.73383 643.011 4.9165 641.935C5.45383 641.446 5.9245 640.883 6.51783 640.254C5.18183 638.021 2.17649 637.202 1.79382 634.191C3.69249 632.629 5.95382 631.366 7.48982 629.181C6.46582 626.489 2.9765 625.945 2.1045 622.905C2.56717 622.491 3.09116 622.006 3.6325 621.541C4.74183 620.585 6.09383 619.863 6.8205 618.334C5.76317 616.939 4.44849 615.901 3.12983 614.85C2.14049 614.059 1.03917 613.314 1.10183 611.725C3.0285 610.137 4.98183 608.519 7.1045 606.77C6.63517 606.186 6.27116 605.719 5.89382 605.266C4.94049 604.117 3.97649 602.975 3.02849 601.825C1.33383 599.769 1.38849 599.286 3.41383 597.373C4.33916 596.503 5.22716 595.598 6.1325 594.707C5.8205 593.314 4.77116 592.685 3.99783 591.85C3.20316 590.994 2.32584 590.199 1.63784 589.262C0.697836 587.981 0.843164 587.033 2.06583 585.918C3.55516 584.558 5.10183 583.261 6.71116 581.861C5.25249 579.003 1.72449 577.717 1.17916 574.371C1.52849 573.702 4.84316 569.931 6.22983 568.207C5.72983 567.71 4.46317 566.475 4.0205 566.061C3.32317 565.41 2.55783 564.825 1.91383 564.123C0.399163 562.475 0.457822 562.025 2.17249 560.514C3.20049 559.607 4.20049 558.673 5.32849 557.647C4.79116 557.009 4.40316 556.541 4.00849 556.077C2.83916 554.705 1.56716 553.399 0.525826 551.937C-0.323508 550.743 -0.130178 549.894 1.00582 548.839C2.56582 547.386 4.2005 546.017 5.80183 544.607C6.34317 544.129 6.87516 543.637 7.5805 543.001C6.7165 542.022 5.9565 541.165 5.19783 540.309C4.21383 539.194 3.17649 538.121 2.26049 536.954C1.30183 535.735 1.47382 534.934 2.73916 534.046C4.30449 532.943 5.88317 531.861 7.63517 530.642C7.11517 530.103 6.73383 529.634 6.28183 529.254C5.38317 528.501 4.43249 527.814 3.52316 527.074C2.58582 526.311 1.92716 525.369 1.77382 524.022C3.35116 521.994 6.09649 521.014 7.44316 518.459C6.89116 517.921 6.36983 517.41 5.84316 516.899C4.70049 515.785 3.51783 514.705 2.4165 513.549C0.711168 511.759 0.757829 511.043 2.71116 509.397C3.5205 508.713 4.46316 508.186 5.32583 507.563C5.73649 507.267 6.10984 506.91 6.56717 506.519C5.15117 504.123 2.87249 502.491 1.95783 499.915C3.40849 498.147 5.36717 496.926 6.53384 494.941C5.10717 492.374 1.59117 491.259 1.65117 487.634C3.13784 486.379 4.66983 485.085 6.33916 483.67C5.21383 481.957 4.14583 480.41 2.59383 479.27C1.48983 478.457 0.875162 477.421 0.859162 475.967C2.90316 473.907 4.98983 471.809 7.10716 469.675C5.83116 466.891 2.55784 465.889 1.66984 462.822C2.89384 461.041 4.9005 459.785 5.67917 457.535C4.07783 455.274 0.919173 454.181 0.419173 450.741C2.40051 449.017 4.46584 447.219 6.7005 445.277C5.7085 444.186 4.92183 443.265 3.84583 442.541C2.79383 441.831 1.86451 440.937 0.935173 440.066C0.30184 439.47 -0.116837 438.723 0.04183 437.651C1.82583 435.873 4.54184 434.974 6.00317 432.485C4.67917 430.183 1.5085 429.346 1.1565 426.193C2.83383 424.169 5.4925 422.99 7.10716 420.714C5.53916 417.893 2.46583 416.174 1.79383 412.813C3.74183 411.026 5.83383 409.55 7.64583 407.537C7.16183 406.895 6.82849 406.375 6.42183 405.922C5.28716 404.657 4.0525 403.474 2.9925 402.153C1.96317 400.873 2.0885 399.622 3.29383 398.458C4.50983 397.281 5.82317 396.207 7.14584 395.041C6.5885 393.833 5.4405 393.385 4.5885 392.641C3.95116 392.081 3.13517 391.701 2.57517 391.081C1.44317 389.831 1.43517 388.45 2.7965 387.531C3.7685 386.878 4.70317 386.161 5.59383 385.398C6.1485 384.923 6.58584 384.313 7.19784 383.63C6.6405 382.554 5.80184 381.797 4.97118 380.995C3.97918 380.037 3.01516 379.029 2.18983 377.93C1.7085 377.291 1.51784 376.433 1.21918 375.717C2.03918 374.747 2.71384 373.93 3.41384 373.133C4.10984 372.339 4.83383 371.567 5.6405 370.682C4.5205 369.501 3.50316 368.441 2.50583 367.361C2.0005 366.815 1.48984 366.263 1.06984 365.654C0.596511 364.961 0.689831 364.223 1.32316 363.641C2.49783 362.559 3.73384 361.542 4.91651 360.465C5.45384 359.977 5.92451 359.414 6.51784 358.783C5.18184 356.55 2.1765 355.731 1.79384 352.721C3.6925 351.159 5.95383 349.895 7.48983 347.711C6.46583 345.018 2.97651 344.475 2.10451 341.435C2.56718 341.021 3.09117 340.537 3.63251 340.07C4.74184 339.114 6.09385 338.393 6.82051 336.865C5.76318 335.47 4.44851 334.431 3.12984 333.381C2.14051 332.59 1.03918 331.843 1.10184 330.255C3.02851 328.666 4.98185 327.05 7.10451 325.299C6.63518 324.717 6.27117 324.25 5.89384 323.795C4.9405 322.647 3.9765 321.505 3.0285 320.354C1.33384 318.298 1.38851 317.817 3.41384 315.902C4.33917 315.034 5.22718 314.127 6.13251 313.237C5.82051 311.843 4.77117 311.215 3.99784 310.381C3.20317 309.523 2.32585 308.729 1.63785 307.791C0.697848 306.511 0.843176 305.562 2.06584 304.449C3.55518 303.089 5.10184 301.79 6.71117 300.39C5.25251 297.534 1.72451 296.247 1.17917 292.901C2.49251 290.393 4.76051 288.837 6.50051 286.586L5.38318 285.829C4.88318 285.33 4.46318 284.894 4.02051 284.482C3.32318 283.83 2.55784 283.245 1.91384 282.543C0.399175 280.897 0.457834 280.445 2.1725 278.935C3.2005 278.029 4.20051 277.093 5.32851 276.066C4.79117 275.43 4.40317 274.962 4.0085 274.497C2.83917 273.125 1.56717 271.821 0.525838 270.355C-0.323495 269.163 -0.130165 268.315 1.00583 267.261C2.56583 265.807 4.20051 264.438 5.80185 263.027C6.34318 262.55 6.87518 262.057 7.58051 261.421C6.71651 260.442 5.95651 259.586 5.19784 258.727C4.21384 257.615 3.17651 256.542 2.26051 255.375C1.30184 254.155 1.47384 253.355 2.73917 252.465C4.3045 251.363 5.88318 250.281 7.63518 249.062C7.11518 248.523 6.73384 248.053 6.28184 247.673C5.38318 246.922 4.4325 246.234 3.52317 245.495C2.58584 244.731 1.92717 243.79 1.77384 242.443C3.35117 240.413 6.09651 239.435 7.44317 236.881C6.89117 236.342 6.36984 235.83 5.84317 235.321C4.70051 234.205 3.51785 233.123 2.41651 231.967C0.71118 230.179 0.757842 229.463 2.71117 227.817C3.52051 227.133 4.46317 226.606 5.32584 225.985C5.73651 225.687 6.10985 225.331 6.56718 224.941C5.15118 222.545 2.87251 220.911 1.95784 218.335C3.40851 216.567 5.36718 215.347 6.53385 213.362C5.10718 210.794 1.59118 209.679 1.65118 206.053C3.13785 204.798 4.66984 203.503 6.33917 202.091C5.21384 200.377 4.14584 198.829 2.59384 197.689C1.48984 196.878 0.875174 195.842 0.859175 194.387C2.90317 192.329 4.98984 190.229 7.10717 188.097C5.83117 185.313 2.55785 184.309 1.66985 181.242C2.89385 179.461 4.90051 178.205 5.67918 175.957C4.07785 173.694 0.919185 172.601 0.419185 169.162C2.40052 167.437 4.46585 165.641 6.70052 163.698C5.70852 162.607 4.92185 161.685 3.84585 160.959C2.79385 160.253 1.86452 159.357 0.935185 158.486C0.301852 157.89 -0.116824 157.146 0.0418423 156.071C1.82584 154.294 4.54185 153.394 6.00319 150.906C4.67919 148.605 1.50851 147.767 1.15651 144.613C2.83384 142.59 5.49251 141.411 7.10717 139.134C5.53917 136.314 2.46585 134.594 1.79385 131.234C3.74185 129.446 5.83385 127.97 7.64585 125.958C7.16185 125.315 6.82851 124.797 6.42184 124.342C5.28717 123.077 4.05251 121.895 2.99251 120.573C1.96318 119.293 2.08851 118.043 3.29385 116.878C4.50985 115.702 5.82318 114.627 7.14585 113.461C6.58851 112.253 5.44051 111.806 4.58851 111.061C3.95117 110.501 3.13518 110.122 2.57518 109.501C1.44318 108.253 1.43518 106.87 2.79652 105.953C3.76852 105.298 4.70318 104.581 5.59385 103.819C6.14851 103.343 6.58585 102.733 7.19785 102.05C6.64052 100.975 5.80186 100.217 4.97119 99.4153C3.97919 98.4566 3.01518 97.4486 2.18984 96.3513C1.70851 95.7113 1.51786 94.8526 1.21919 94.1366C2.03919 93.1673 2.71385 92.3499 3.41385 91.5539C4.10985 90.7606 4.83384 89.9886 5.64051 89.1033C4.52051 87.9219 3.50318 86.8619 2.50584 85.7806C2.00051 85.2353 1.48986 84.6846 1.06986 84.0739C0.596523 83.3819 0.689844 82.6433 1.32318 82.0619C2.49784 80.9793 3.73385 79.9619 4.91652 78.8846C5.45385 78.3979 5.92452 77.8339 6.51785 77.2046C5.18185 74.9713 2.17651 74.1526 1.79385 71.1419C3.69251 69.5793 5.95384 68.3166 7.48984 66.1326C6.46584 63.4393 2.97653 62.8953 2.10453 59.8553C2.56719 59.4406 3.09119 58.9566 3.63252 58.4913C4.74185 57.5353 6.09386 56.8139 6.82052 55.2846C5.76319 53.8899 4.44852 52.8513 3.12985 51.8006C2.14052 51.0099 1.03919 50.2646 1.10186 48.6766C3.02852 47.0859 4.98186 45.4699 7.10453 43.7193C6.63519 43.1353 6.27118 42.6699 5.89385 42.2166C4.94052 41.0673 3.97652 39.9259 3.02852 38.7739C1.33385 36.7179 1.38852 36.2366 3.41385 34.3233C4.33919 33.4539 5.22719 32.5486 6.13252 31.6579C5.82052 30.2633 4.77119 29.6353 3.99785 28.8006C3.20319 27.9433 2.32586 27.1486 1.63786 26.2126C0.69786 24.9313 0.843189 23.9833 2.06586 22.8686C3.55519 21.5086 5.10185 20.2113 6.71118 18.8099C5.25252 15.9553 1.72452 14.6686 1.17919 11.3219C2.49252 8.81261 4.76052 7.25661 6.50052 5.00594C6.03386 4.59927 5.58852 4.19661 5.12985 3.81128C4.15119 2.99128 3.11785 2.22726 2.22185 1.3286C2.02318 1.13126 2.29386 0.464598 2.34852 0.0459314C2.78452 0.036598 3.04185 -0.0500562 3.17652 0.0419438C5.37518 1.52728 7.55785 3.03795 9.98985 4.71128C8.50318 7.79395 5.84852 9.45795 4.11252 12.0779C4.56585 12.6393 4.95786 13.2433 5.46586 13.7286C6.69519 14.9099 7.99786 16.0166 9.23386 17.1899C9.67919 17.6153 10.0178 18.1486 10.4565 18.6939C8.82051 21.3326 5.71385 22.4526 4.24719 25.2033C4.78185 26.6419 6.17518 27.1739 7.14318 28.1073C8.05518 28.9873 8.98452 29.8459 9.93519 30.7419C8.64586 33.4139 6.11786 34.9339 4.78452 37.4019C5.66986 39.1393 6.96052 40.3939 8.29652 41.6059C8.76852 42.0366 9.30185 42.3993 9.76585 42.8366C10.4032 43.4366 10.3805 44.1873 9.68984 44.7553C8.45784 45.7713 7.18719 46.7446 5.95119 47.7579C5.55519 48.0779 5.21386 48.4633 4.80186 48.8606C5.38319 50.3126 6.49252 51.1833 7.40319 52.1939C7.83119 52.6646 8.33652 53.0673 8.79652 53.5113C10.4299 55.0739 10.4245 55.2379 8.92451 56.7766C7.80718 57.9193 6.72452 59.0926 5.63252 60.2619C5.57519 60.3259 5.59652 60.4619 5.56318 60.6593C6.76052 62.7793 9.22452 63.7126 10.7032 65.5326C10.6099 67.0553 9.28985 67.4526 8.56051 68.3126C7.80985 69.1953 6.97919 70.0086 6.18185 70.8553C6.49252 72.3259 7.40851 73.2153 8.42451 73.9766C12.2445 76.8499 10.8778 77.1499 8.36185 79.3446C7.24185 80.3206 6.21385 81.3873 5.24718 82.4713C5.99785 84.6046 7.32852 86.0873 8.78452 87.5206C10.7899 89.4939 10.7325 89.8459 8.46318 91.2913C6.93518 92.2659 5.54185 93.3913 4.24985 94.7633C5.67519 98.0926 8.85918 100.095 10.4245 103.215C9.35651 105.303 7.11252 106.126 6.06986 108.029C7.05252 110.381 9.56718 111.125 11.0832 113.01C10.1952 115.783 7.21652 116.943 6.05252 119.475C6.98719 122.377 9.51785 124.01 11.2845 126.023C10.7912 127.662 9.47652 128.146 8.61785 129.053C7.74452 129.975 6.87784 130.901 5.87518 131.965C7.65384 134.362 9.34852 136.646 10.9712 138.833C10.4032 140.51 8.93518 140.939 7.93252 141.85C6.99518 142.698 5.96585 143.449 5.02851 144.201C5.65118 147.495 8.49252 149.194 9.76852 151.939C8.55785 154.15 5.82318 154.915 4.74184 157.405C6.22718 159.895 8.90051 161.438 10.7578 163.857C9.41917 166.562 6.65118 167.889 4.97651 170.215C5.47384 173.166 8.89384 173.295 10.1792 175.577C8.94584 177.838 6.20852 178.849 5.33385 181.523C6.45785 183.887 8.62051 185.534 10.3458 187.457C9.91918 189.326 8.24985 190.015 7.41651 191.35C6.58051 192.689 5.54984 193.906 4.65917 195.101C5.93251 197.926 8.28451 199.685 10.2445 202.01C8.46851 203.746 6.81252 205.365 5.08585 207.051C5.85918 210.003 8.98184 210.907 10.5472 213.313C10.0338 213.818 9.64318 214.291 9.16985 214.654C7.72718 215.758 6.32584 216.883 5.72184 218.835C7.32317 220.97 8.90851 223.087 10.4272 225.117C10.4978 226.073 10.1405 226.671 9.45118 227.103C8.46051 227.726 7.45651 228.333 6.49518 229.001C5.98984 229.354 5.56584 229.823 5.09651 230.245C5.62718 232.065 6.55518 233.419 7.91384 234.541C8.72984 235.213 9.47651 235.993 10.1298 236.821C10.7578 237.618 10.5152 238.362 9.63785 238.975C8.25252 239.941 6.88318 240.927 5.32052 242.037C6.12318 243.035 6.75518 243.87 7.43785 244.661C8.20585 245.546 8.98717 246.423 9.82317 247.246C11.5032 248.905 11.0938 249.641 9.53917 250.766C7.91383 251.941 6.43517 253.321 4.84317 254.653C5.74184 256.365 6.77384 257.691 8.02317 258.858C8.48984 259.294 9.02051 259.665 9.46317 260.123C11.1272 261.838 11.0658 262.969 9.04184 264.146C6.66717 265.527 5.12985 267.682 3.30185 269.699C4.65918 272.445 7.56583 273.586 9.40583 275.978C8.91917 276.473 8.55785 276.99 8.06985 277.311C6.45785 278.367 5.01784 279.587 3.71651 281.283C4.23251 281.773 4.64584 282.217 5.10984 282.594C5.93784 283.265 6.86451 283.822 7.61785 284.565C8.13518 285.078 9.98983 286.29 9.98983 286.29C11.6645 287.093 5.84851 291.037 4.11251 293.657C4.56584 294.218 4.95784 294.823 5.46584 295.309C6.69518 296.49 7.99784 297.595 9.23384 298.77C9.67918 299.194 10.0178 299.727 10.4565 300.274C8.8205 302.913 5.71384 304.031 4.24717 306.783C4.78184 308.222 6.17517 308.754 7.14317 309.687C8.05517 310.566 8.98451 311.426 9.93518 312.322C8.64584 314.994 6.11784 316.513 4.78451 318.982C5.66984 320.718 6.96051 321.974 8.29651 323.185C8.76851 323.615 9.30184 323.979 9.76584 324.417C10.4032 325.015 10.3805 325.767 9.68983 326.334C8.45783 327.351 7.18718 328.326 5.95118 329.337C5.55518 329.659 5.21384 330.042 4.80184 330.439C5.38318 331.893 6.49251 332.763 7.40318 333.773C7.83118 334.245 8.3365 334.647 8.7965 335.091C10.4298 336.654 10.4245 336.818 8.9245 338.357C7.80717 339.498 6.72451 340.671 5.63251 341.841C5.57517 341.905 5.59651 342.042 5.56317 342.239C6.7605 344.359 9.22451 345.291 10.7032 347.111C10.6098 348.635 9.28983 349.033 8.5605 349.891C7.80983 350.774 6.97917 351.589 6.18184 352.435C6.49251 353.906 7.4085 354.794 8.4245 355.557C12.2445 358.43 10.8778 358.729 8.36184 360.925C7.24184 361.901 6.21384 362.967 5.24717 364.051C5.99784 366.183 7.32851 367.666 8.78451 369.101C10.7898 371.073 10.7325 371.426 8.46317 372.871C6.93517 373.845 5.54184 374.971 4.24984 376.343C5.67517 379.671 8.85916 381.674 10.4245 384.794C9.3565 386.883 7.11251 387.706 6.06984 389.607C7.05251 391.961 9.56717 392.703 11.0832 394.59C10.1952 397.362 7.21651 398.523 6.05251 401.054C6.98717 403.955 9.51784 405.589 11.2845 407.605C10.7912 409.241 9.47651 409.725 8.61784 410.633C7.74451 411.554 6.87783 412.479 5.87516 413.545C7.65383 415.942 9.34851 418.226 10.9712 420.413C10.4032 422.089 8.93517 422.519 7.9325 423.43C6.99517 424.278 5.96583 425.029 5.0285 425.781C5.65117 429.074 8.49251 430.773 9.76851 433.518C8.55784 435.729 5.82316 436.495 4.74183 438.985C6.22716 441.475 8.90049 443.017 10.7578 445.437C9.41916 448.142 6.65116 449.467 4.9765 451.795C5.47383 454.746 8.89383 454.877 10.1792 457.155C8.94583 459.418 6.2085 460.429 5.33384 463.103C6.45784 465.467 8.6205 467.113 10.3458 469.035C9.91916 470.905 8.24984 471.595 7.4165 472.929C6.5805 474.27 5.54983 475.486 4.65916 476.681C5.9325 479.506 8.2845 481.265 10.2445 483.59C8.4685 485.327 6.8125 486.943 5.08584 488.631C5.85917 491.582 8.98183 492.486 10.5472 494.891C10.0338 495.397 9.64317 495.871 9.16984 496.233C7.72717 497.337 6.32582 498.465 5.72182 500.415C7.32316 502.55 8.90849 504.667 10.4272 506.697C10.4978 507.653 10.1405 508.251 9.45117 508.683C8.4605 509.306 7.4565 509.913 6.49516 510.582C5.98983 510.934 5.56583 511.402 5.0965 511.825C5.62716 513.645 6.55516 514.998 7.91383 516.121C8.72983 516.793 9.4765 517.571 10.1298 518.399C10.7578 519.199 10.5152 519.941 9.63784 520.555C8.2525 521.522 6.88317 522.506 5.3205 523.615C6.12317 524.615 6.75517 525.449 7.43784 526.241C8.20584 527.126 8.98716 528.003 9.82316 528.827C11.5032 530.486 11.0938 531.219 9.53916 532.345C7.91382 533.519 6.43516 534.899 4.84316 536.233C5.74183 537.943 6.77382 539.273 8.02316 540.439C8.48982 540.874 9.0205 541.246 9.46316 541.702C11.1272 543.418 11.0658 544.549 9.04182 545.725C6.66716 547.107 5.12983 549.262 3.30183 551.279C4.65917 554.025 7.56582 555.165 9.40582 557.558C8.91915 558.053 8.55784 558.569 8.06984 558.891C6.45784 559.946 5.01783 561.167 3.7165 562.863C4.2325 563.353 4.64583 563.798 5.10983 564.173C5.89383 564.81 6.75784 565.351 7.48717 566.038C8.29917 566.597 9.12449 567.165 9.98982 567.761C8.50315 570.843 5.84849 572.506 4.11249 575.126C4.56583 575.689 4.95783 576.293 5.46583 576.778C6.69516 577.959 7.99783 579.066 9.23383 580.241C9.67916 580.665 10.0178 581.198 10.4565 581.743C8.82049 584.383 5.71383 585.501 4.24716 588.254C4.78183 589.691 6.17516 590.223 7.14316 591.158C8.05516 592.037 8.9845 592.895 9.93517 593.791C8.64583 596.463 6.11783 597.983 4.7845 600.451C5.66983 602.189 6.96049 603.443 8.29649 604.655C8.76849 605.086 9.30183 605.449 9.76583 605.886C10.4032 606.486 10.3805 607.237 9.68982 607.805C8.45782 608.822 7.18716 609.795 5.95116 610.807C5.55516 611.129 5.21383 611.511 4.80183 611.91C5.38317 613.363 6.4925 614.233 7.40317 615.243C7.83117 615.715 8.33649 616.117 8.79649 616.561C10.4298 618.123 10.4245 618.287 8.92449 619.827C7.80715 620.969 6.7245 622.142 5.6325 623.311C5.57516 623.375 5.59649 623.511 5.56316 623.71C6.76049 625.829 9.2245 626.762 10.7032 628.582C10.6098 630.106 9.28982 630.502 8.56049 631.362C7.80982 632.245 6.97916 633.058 6.18183 633.905C6.49249 635.377 7.40849 636.265 8.42449 637.027C12.2445 639.899 10.8778 640.199 8.36182 642.394C7.24182 643.371 6.21383 644.438 5.24716 645.522C5.99783 647.654 7.3285 649.137 8.7845 650.57C10.7898 652.543 10.7325 652.895 8.46316 654.341C6.93516 655.315 5.54183 656.441 4.24983 657.814C5.67516 661.142 8.85915 663.145 10.4245 666.265C9.35648 668.353 7.1125 669.175 6.06983 671.078C7.0525 673.431 9.56716 674.173 11.0832 676.059C10.1952 678.831 7.2165 679.994 6.0525 682.525C6.98716 685.426 9.51783 687.058 11.2845 689.074C10.7912 690.711 9.47649 691.195 8.61783 692.103C7.74449 693.025 6.87782 693.949 5.87515 695.014C7.65382 697.413 9.3485 699.697 10.9712 701.883C10.4032 703.558 8.93516 703.99 7.93249 704.899C6.99516 705.749 5.96582 706.498 5.02849 707.251C5.65115 710.545 8.49249 712.243 9.76849 714.989C8.55783 717.199 5.82315 717.965 4.74182 720.454C6.22715 722.943 8.90048 724.487 10.7578 726.906C9.41915 729.611 6.65115 730.939 4.97648 733.265C5.47382 736.217 8.89382 736.345 10.1792 738.626C8.94582 740.886 6.20849 741.897 5.33382 744.571C6.45782 746.937 8.62049 748.585 10.3458 750.506C9.91915 752.375 8.24982 753.065 7.41649 754.399C6.58049 755.738 5.54982 756.955 4.65915 758.15L0.85915 757.437" fill="#FCC419"/>
</g>
<defs>
<clipPath id="clip0">
<rect x="11.2845" width="758.15" height="11.2845" transform="rotate(90 11.2845 0)" fill="white"/>
</clipPath>
</defs>
</svg>
