<svg fill="none" height="759" viewBox="0 0 12 759" width="12" xmlns="http://www.w3.org/2000/svg" xmlns:xlink="http://www.w3.org/1999/xlink"><clipPath id="a"><path d="m11.2845 0h758.15v11.2845h-758.15z" transform="matrix(0 1 -1 0 11.2845 -11.2845)"/></clipPath><g clip-path="url(#a)"><path clip-rule="evenodd" d="m.85915 757.437c2.044-2.058 4.13066-4.16 6.248-6.291-1.276-2.784-4.54932-3.788-5.43732-6.855 1.224-1.781 3.23066-3.037 4.00932-5.285-1.60133-2.263-4.759989-3.356-5.259989-6.793 1.981329-1.727 4.046669-3.522 6.281329-5.464-.992-1.091-1.77867-2.016-2.85467-2.74-1.052-.707-1.98133-1.602-2.910659-2.474-.633334-.596-1.05201-1.34-.8933433-2.414 1.7840023-1.779 4.5000123-2.678 5.9613423-5.167-1.324-2.3-4.49468-3.137-4.84668-6.292 1.67734-2.023 4.336-3.203 5.95067-5.479-1.568-2.82-4.64133-4.538-5.31333-7.901 1.948-1.787 4.04-3.263 5.852-5.276-.484-.64-.81734-1.161-1.224-1.615-1.13467-1.265-2.36933-2.448-3.42933-3.769-1.02934-1.28-.904-2.529.30133-3.693 1.216-1.178 2.52934-2.252 3.852-3.419-.55733-1.207-1.70534-1.655-2.55734-2.4-.63733-.56-1.45333-.94-2.01333-1.56-1.132-1.248-1.13999-2.629.22134-3.549.972-.654 1.90667-1.371 2.79733-2.132.55467-.476.99201-1.087 1.60401-1.768-.55734-1.076-1.396-1.834-2.22666-2.636-.992-.959-1.95602-1.967-2.78135-3.066-.48134-.637-.67199-1.497-.97066-2.213.82-.969 1.49467-1.787 2.19467-2.583.696-.793 1.41999-1.565 2.22666-2.45-1.12-1.182-2.13734-2.242-3.13467-3.323-.50534-.545-1.01599-1.097-1.43599-1.707-.473331-.692-.380011-1.429.25332-2.013 1.17467-1.08 2.41068-2.099 3.59335-3.175.53733-.489 1.008-1.052 1.60133-1.681-1.336-2.233-4.34134-3.052-4.72401-6.063 1.89867-1.562 4.16-2.825 5.696-5.01-1.024-2.692-4.51332-3.236-5.38532-6.276.46267-.414.98666-.899 1.528-1.364 1.10933-.956 2.46133-1.678 3.188-3.207-1.05733-1.395-2.37201-2.433-3.69067-3.484-.98934-.791-2.09066-1.536-2.028-3.125 1.92667-1.588 3.88-3.206 6.00267-4.955-.46933-.584-.83334-1.051-1.21068-1.504-.95333-1.149-1.91733-2.291-2.86533-3.441-1.69466-2.056-1.64-2.539.38534-4.452.92533-.87 1.81333-1.775 2.71867-2.666-.312-1.393-1.36134-2.022-2.13467-2.857-.79467-.856-1.67199-1.651-2.35999-2.588-.940004-1.281-.794676-2.229.42799-3.344 1.48933-1.36 3.036-2.657 4.64533-4.057-1.45867-2.858-4.98667-4.144-5.532-7.49.34933-.669 3.664-4.44 5.05067-6.164-.5-.497-1.76666-1.732-2.20933-2.146-.69733-.651-1.46267-1.236-2.10667-1.938-1.514667-1.648-1.456008-2.098.25866-3.609 1.028-.907 2.028-1.841 3.156-2.867-.53733-.638-.92533-1.106-1.32-1.57-1.16933-1.372-2.44133-2.678-3.482664-4.14-.849334-1.194-.656004-2.043.479994-3.098 1.56-1.453 3.19468-2.822 4.79601-4.232.54134-.478 1.07333-.97 1.77867-1.606-.864-.979-1.624-1.836-2.38267-2.692-.984-1.115-2.02134-2.188-2.93734-3.355-.95866-1.219-.78667-2.02.47867-2.908 1.56533-1.103 3.14401-2.185 4.89601-3.404-.52-.539-.90134-1.008-1.35334-1.388-.89866-.753-1.84934-1.44-2.75867-2.18-.93734-.763-1.596-1.705-1.74934-3.052 1.57734-2.028 4.32267-3.008 5.66934-5.563-.552-.538-1.07333-1.049-1.6-1.56-1.14267-1.114-2.32533-2.194-3.42666-3.35-1.705332-1.79-1.658671-2.506.29466-4.152.80934-.684 1.752-1.211 2.61467-1.834.41066-.296.78401-.653 1.24134-1.044-1.416-2.396-3.69468-4.028-4.60934-6.604 1.45066-1.768 3.40934-2.989 4.57601-4.974-1.42667-2.567-4.94267-3.682-4.88267-7.307 1.48667-1.255 3.01866-2.549 4.68799-3.964-1.12533-1.713-2.19333-3.26-3.74533-4.4-1.104-.813-1.718668-1.849-1.734668-3.303 2.043998-2.06 4.130668-4.158 6.247998-6.292-1.276-2.784-4.54932-3.786-5.43732-6.853 1.224-1.781 3.23066-3.037 4.00933-5.287-1.60134-2.261-4.759997-3.354-5.259997-6.794 1.981337-1.724 4.046667-3.522 6.281327-5.464-.992-1.091-1.77867-2.012-2.85467-2.736-1.052-.71-1.98132-1.604-2.910657-2.475-.633333-.596-1.05201-1.343-.893343-2.415 1.784-1.778 4.50001-2.677 5.96134-5.166-1.324-2.302-4.49467-3.139-4.84667-6.292 1.67733-2.024 4.336-3.203 5.95066-5.479-1.568-2.821-4.64133-4.54-5.31333-7.901 1.948-1.787 4.04-3.263 5.852-5.276-.484-.642-.81734-1.162-1.224-1.615-1.13467-1.265-2.36933-2.448-3.42933-3.769-1.02933-1.28-.904-2.531.30133-3.695 1.216-1.177 2.52934-2.251 3.85201-3.417-.55734-1.208-1.70534-1.656-2.55734-2.4-.63734-.56-1.45333-.94-2.01333-1.56-1.132-1.25-1.14-2.631.22133-3.55.972-.653 1.90667-1.37 2.79733-2.133.55467-.475.99201-1.085 1.60401-1.768-.55734-1.076-1.396-1.833-2.22666-2.635-.992-.958-1.95602-1.966-2.78135-3.065-.48133-.639-.67199-1.497-.97065-2.213.82-.97 1.49466-1.787 2.19466-2.584.696-.794 1.41999-1.566 2.22666-2.451-1.12-1.181-2.13734-2.241-3.13467-3.321-.50533-.546-1.01599-1.098-1.43599-1.707-.473329-.693-.380009-1.431.25332-2.013 1.17467-1.082 2.41068-2.099 3.59335-3.176.53733-.488 1.008-1.051 1.60133-1.682-1.336-2.233-4.34134-3.052-4.724-6.062 1.89866-1.562 4.15999-2.826 5.69599-5.01-1.024-2.693-4.51332-3.236-5.38532-6.276.46267-.414.98666-.898 1.528-1.365 1.10933-.956 2.46134-1.677 3.188-3.205-1.05733-1.395-2.372-2.434-3.69067-3.484-.98933-.791-2.09066-1.538-2.028-3.126 1.92667-1.589 3.88001-3.205 6.00267-4.956-.46933-.582-.83334-1.049-1.21067-1.504-.95334-1.148-1.91734-2.29-2.86534-3.441-1.69466-2.056-1.63999-2.537.38534-4.452.92533-.868 1.81334-1.775 2.71867-2.665-.312-1.394-1.36134-2.022-2.13467-2.856-.79467-.858-1.67199-1.652-2.35999-2.59-.940002-1.28-.794674-2.229.42799-3.342 1.48934-1.36 3.036-2.659 4.64533-4.059-1.45866-2.856-4.98666-4.143-5.532-7.489 1.31334-2.508 3.58134-4.064 5.32134-6.315l-1.11733-.757c-.5-.499-.92-.935-1.36267-1.347-.69733-.652-1.46267-1.237-2.10667-1.939-1.514665-1.646-1.456006-2.098.25866-3.608 1.028-.906 2.02801-1.842 3.15601-2.869-.53734-.636-.92534-1.104-1.32001-1.569-1.16933-1.372-2.44133-2.676-3.482662-4.142-.849333-1.192-.656003-2.04.479992-3.094 1.56-1.454 3.19468-2.823 4.79602-4.234.54133-.477 1.07333-.97 1.77866-1.606-.864-.979-1.624-1.835-2.38267-2.694-.984-1.112-2.02133-2.185-2.93733-3.352-.95867-1.22-.78667-2.02.47866-2.91 1.56533-1.102 3.14401-2.184 4.89601-3.403-.52-.539-.90134-1.009-1.35334-1.389-.89866-.751-1.84934-1.439-2.75867-2.178-.93733-.764-1.596-1.705-1.74933-3.052 1.57733-2.03 4.32267-3.008 5.66933-5.562-.552-.539-1.07333-1.051-1.6-1.56-1.14266-1.116-2.32532-2.198-3.42666-3.354-1.70533-1.788-1.658668-2.504.29466-4.15.80934-.684 1.752-1.211 2.61467-1.832.41067-.298.78401-.654 1.24134-1.044-1.416-2.396-3.69467-4.03-4.60934-6.606 1.45067-1.768 3.40934-2.988 4.57601-4.973-1.42667-2.568-4.94267-3.683-4.88267-7.309 1.48667-1.255 3.01866-2.55 4.68799-3.962-1.12533-1.714-2.19333-3.262-3.74533-4.402-1.104-.811-1.718666-1.847-1.734665-3.302 2.043995-2.058 4.130665-4.158 6.247995-6.29-1.276-2.784-4.54932-3.788-5.43732-6.855 1.224-1.781 3.23066-3.037 4.00933-5.285-1.60133-2.263-4.759995-3.356-5.259995-6.795 1.981335-1.725 4.046665-3.521 6.281335-5.464-.992-1.091-1.77867-2.013-2.85467-2.739-1.052-.706-1.98133-1.602-2.910665-2.473-.633333-.596-1.052009-1.34-.8933427-2.415 1.7839977-1.777 4.5000077-2.677 5.9613477-5.165-1.324-2.301-4.49468-3.139-4.84668-6.293 1.67733-2.023 4.336-3.202 5.95066-5.479-1.568-2.82-4.64132-4.54-5.31332-7.9 1.948-1.788 4.04-3.264 5.852-5.276-.484-.643-.81734-1.161-1.22401-1.616-1.13467-1.265-2.36933-2.447-3.42933-3.769-1.02933-1.28-.904-2.53.30134-3.695 1.216-1.176 2.52933-2.251 3.852-3.417-.55734-1.208-1.70534-1.655-2.55734-2.4-.63734-.56-1.45333-.939-2.01333-1.56-1.132-1.248-1.14-2.631.22134-3.548.972-.655 1.90666-1.372 2.79733-2.134.55466-.476.992-1.086 1.604-1.769-.55733-1.075-1.39599-1.833-2.22666-2.6347-.992-.9587-1.95601-1.9667-2.78135-3.064-.48133-.64-.67198-1.4987-.97065-2.2147.82-.9693 1.49466-1.7867 2.19466-2.5827.696-.7933 1.41999-1.5653 2.22666-2.4506-1.12-1.1814-2.13733-2.2414-3.13467-3.3227-.50533-.5453-1.01598-1.096-1.43598-1.7067-.473337-.692-.380016-1.4306.25332-2.012 1.17466-1.0826 2.41067-2.1 3.59334-3.1773.53733-.4867 1.008-1.0507 1.60133-1.68-1.336-2.2333-4.34134-3.052-4.724-6.0627 1.89866-1.5626 4.15999-2.8253 5.69599-5.0093-1.024-2.6933-4.51331-3.2373-5.38531-6.2773.46266-.4147.98666-.8987 1.52799-1.364 1.10933-.956 2.46134-1.6774 3.188-3.2067-1.05733-1.3947-2.372-2.4333-3.69067-3.484-.98933-.7907-2.09066-1.536-2.02799-3.124 1.92666-1.5907 3.88-3.2067 6.00267-4.9573-.46934-.584-.83335-1.0494-1.21068-1.5027-.95333-1.1493-1.91733-2.2907-2.86533-3.4427-1.69467-2.056-1.64-2.5373.38533-4.4506.92534-.8694 1.81334-1.7747 2.71867-2.6654-.312-1.3946-1.36133-2.0226-2.13467-2.8573-.79466-.8573-1.67199-1.652-2.35999-2.588-.94-1.2813-.794671-2.2293.428-3.344 1.48933-1.36 3.03599-2.6573 4.64532-4.0587-1.45866-2.8546-4.98666-4.1413-5.53199-7.488 1.31333-2.50929 3.58133-4.06529 5.32133-6.31596-.46666-.40667-.912-.80933-1.37067-1.19466-.97866-.82-2.012-1.58402-2.908-2.48268-.19867-.19734.07201-.864002.12667-1.2826686.436-.0093334.69333-.0959876.828-.0039876 2.19866 1.4853362 4.38133 2.9960062 6.81333 4.6693362-1.48667 3.08267-4.14133 4.74667-5.87733 7.36662.45333.5614.84534 1.1654 1.35334 1.6507 1.22933 1.1813 2.532 2.288 3.768 3.4613.44533.4254.78394.9587 1.22264 1.504-1.63599 2.6387-4.74265 3.7587-6.20931 6.5094.53466 1.4386 1.92799 1.9706 2.89599 2.904.912.88 1.84134 1.7386 2.79201 2.6346-1.28933 2.672-3.81733 4.192-5.15067 6.66.88534 1.7374 2.176 2.992 3.512 4.204.472.4307 1.00533.7934 1.46933 1.2307.63735.6.61465 1.3507-.07601 1.9187-1.232 1.016-2.50265 1.9893-3.73865 3.0026-.396.32-.73733.7054-1.14933 1.1027.58133 1.452 1.69066 2.3227 2.60133 3.3333.428.4707.93333.8734 1.39333 1.3174 1.63338 1.5626 1.62798 1.7266.12799 3.2653-1.11733 1.1427-2.19999 2.316-3.29199 3.4853-.05733.064-.036.2-.06934.3974 1.19734 2.12 3.66134 3.0533 5.14002 4.8733-.0933 1.5227-1.41335 1.92-2.14269 2.78-.75066.8827-1.58132 1.696-2.37866 2.5427.31067 1.4706 1.22666 2.36 2.24266 3.1213 3.81999 2.8733 2.45329 3.1733-.06266 5.368-1.12.976-2.148 2.0427-3.11467 3.1267.75067 2.1333 2.08134 3.616 3.53734 5.0493 2.00538 1.9733 1.94798 2.3253-.32134 3.7707-1.528.9746-2.92133 2.1-4.21333 3.472 1.42534 3.3293 4.60933 5.3317 6.17465 8.4517-1.06799 2.088-3.31198 2.911-4.35464 4.814.98266 2.352 3.49732 3.096 5.01334 4.981-.888 2.773-3.86668 3.933-5.03068 6.465.93467 2.902 3.46533 4.535 5.23198 6.548-.4933 1.639-1.80798 2.123-2.66665 3.03-.87333.922-1.74001 1.848-2.74267 2.912 1.77866 2.397 3.47334 4.681 5.09602 6.868-.568 1.677-2.03602 2.106-3.03868 3.017-.93734.848-1.96667 1.599-2.90401 2.351.62267 3.294 3.46401 4.993 4.74001 7.738-1.21067 2.211-3.94534 2.976-5.02668 5.466 1.48534 2.49 4.15867 4.033 6.01596 6.452-1.33863 2.705-4.10662 4.032-5.78129 6.358.49733 2.951 3.91733 3.08 5.20269 5.362-1.23336 2.261-3.97068 3.272-4.84535 5.946 1.124 2.364 3.28666 4.011 5.01195 5.934-.42662 1.869-2.09595 2.558-2.92929 3.893-.836 1.339-1.86667 2.556-2.75734 3.751 1.27334 2.825 3.62534 4.584 5.58533 6.909-1.77599 1.736-3.43198 3.355-5.15865 5.041.77333 2.952 3.89599 3.856 5.46135 6.262-.5134.505-.90402.978-1.37735 1.341-1.44267 1.104-2.84401 2.229-3.44801 4.181 1.60133 2.135 3.18667 4.252 4.70536 6.282.0706.956-.2867 1.554-.97602 1.986-.99067.623-1.99467 1.23-2.956 1.898-.50534.353-.92934.822-1.39867 1.244.53067 1.82 1.45867 3.174 2.81733 4.296.816.672 1.56267 1.452 2.21596 2.28.628.797.3854 1.541-.49195 2.154-1.38533.966-2.75467 1.952-4.31733 3.062.80266.998 1.43466 1.833 2.11733 2.624.768.885 1.54932 1.762 2.38532 2.585 1.68003 1.659 1.27063 2.395-.284 3.52-1.62534 1.175-3.104 2.555-4.696 3.887.89867 1.712 1.93067 3.038 3.18 4.205.46667.436.99734.807 1.44 1.265 1.66403 1.715 1.60263 2.846-.42133 4.023-2.37467 1.381-3.91199 3.536-5.73999 5.553 1.35733 2.746 4.26398 3.887 6.10398 6.279-.48666.495-.84798 1.012-1.33598 1.333-1.612 1.056-3.05201 2.276-4.35334 3.972.516.49.92933.934 1.39333 1.311.828.671 1.75467 1.228 2.50801 1.971.51733.513 2.37198 1.725 2.37198 1.725 1.67467.803-4.14132 4.747-5.87732 7.367.45333.561.84533 1.166 1.35333 1.652 1.22934 1.181 2.532 2.286 3.768 3.461.44534.424.78396.957 1.22266 1.504-1.636 2.639-4.74266 3.757-6.20933 6.509.53467 1.439 1.928 1.971 2.896 2.904.912.879 1.84134 1.739 2.79201 2.635-1.28934 2.672-3.81734 4.191-5.15067 6.66.88533 1.736 2.176 2.992 3.512 4.203.472.43 1.00533.794 1.46933 1.232.63736.598.61466 1.35-.07601 1.917-1.232 1.017-2.50265 1.992-3.73865 3.003-.396.322-.73734.705-1.14934 1.102.58134 1.454 1.69067 2.324 2.60134 3.334.428.472.93332.874 1.39332 1.318 1.6333 1.563 1.628 1.727.128 3.266-1.11733 1.141-2.19999 2.314-3.29199 3.484-.05734.064-.036.201-.06934.398 1.19733 2.12 3.66134 3.052 5.14003 4.872-.0934 1.524-1.41337 1.922-2.1427 2.78-.75067.883-1.58133 1.698-2.37866 2.544.31067 1.471 1.22666 2.359 2.24266 3.122 3.82 2.873 2.4533 3.172-.06266 5.368-1.12.976-2.148 2.042-3.11467 3.126.75067 2.132 2.08134 3.615 3.53734 5.05 2.00529 1.972 1.94799 2.325-.32134 3.77-1.528.974-2.92133 2.1-4.21333 3.472 1.42533 3.328 4.60932 5.331 6.17466 8.451-1.068 2.089-3.31199 2.912-4.35466 4.813.98267 2.354 3.49733 3.096 5.01336 4.983-.888 2.772-3.86669 3.933-5.03069 6.464.93466 2.901 3.46533 4.535 5.23199 6.551-.4933 1.636-1.80799 2.12-2.66666 3.028-.87333.921-1.74001 1.846-2.74268 2.912 1.77867 2.397 3.47335 4.681 5.09604 6.868-.568 1.676-2.03603 2.106-3.0387 3.017-.93733.848-1.96667 1.599-2.904 2.351.62267 3.293 3.46401 4.992 4.74001 7.737-1.21067 2.211-3.94535 2.977-5.02668 5.467 1.48533 2.49 4.15866 4.032 6.01597 6.452-1.33864 2.705-4.10664 4.03-5.7813 6.358.49733 2.951 3.91733 3.082 5.2027 5.36-1.23337 2.263-3.9707 3.274-4.84536 5.948 1.124 2.364 3.28666 4.01 5.01196 5.932-.42664 1.87-2.09596 2.56-2.9293 3.894-.836 1.341-1.86667 2.557-2.75734 3.752 1.27334 2.825 3.62534 4.584 5.58534 6.909-1.776 1.737-3.432 3.353-5.15866 5.041.77333 2.951 3.89599 3.855 5.46136 6.26-.5134.506-.90403.98-1.37736 1.342-1.44267 1.104-2.84402 2.232-3.44802 4.182 1.60134 2.135 3.18667 4.252 4.70538 6.282.0706.956-.2867 1.554-.97603 1.986-.99067.623-1.99467 1.23-2.95601 1.899-.50533.352-.92933.82-1.39866 1.243.53066 1.82 1.45866 3.173 2.81733 4.296.816.672 1.56267 1.45 2.21597 2.278.628.8.3854 1.542-.49196 2.156-1.38534.967-2.75467 1.951-4.31734 3.06.80267 1 1.43467 1.834 2.11734 2.626.768.885 1.54932 1.762 2.38532 2.586 1.68004 1.659 1.27064 2.392-.284 3.518-1.62534 1.174-3.104 2.554-4.696 3.888.89867 1.71 1.93066 3.04 3.18 4.206.46666.435.99734.807 1.44 1.263 1.66404 1.716 1.60264 2.847-.42134 4.023-2.37466 1.382-3.91199 3.537-5.73999 5.554 1.35734 2.746 4.26399 3.886 6.10399 6.279-.48667.495-.84798 1.011-1.33598 1.333-1.612 1.055-3.05201 2.276-4.35334 3.972.516.49.92933.935 1.39333 1.31.784.637 1.64801 1.178 2.37734 1.865.812.559 1.63732 1.127 2.50265 1.723-1.48667 3.082-4.14133 4.745-5.87733 7.365.45334.563.84534 1.167 1.35334 1.652 1.22933 1.181 2.532 2.288 3.768 3.463.44533.424.78397.957 1.22267 1.502-1.63601 2.64-4.74267 3.758-6.20934 6.511.53467 1.437 1.928 1.969 2.896 2.904.912.879 1.84134 1.737 2.79201 2.633-1.28934 2.672-3.81734 4.192-5.15067 6.66.88533 1.738 2.17599 2.992 3.51199 4.204.472.431 1.00534.794 1.46934 1.231.63737.6.61467 1.351-.07601 1.919-1.232 1.017-2.50266 1.99-3.73866 3.002-.396.322-.73733.704-1.14933 1.103.58134 1.453 1.69067 2.323 2.60134 3.333.428.472.93332.874 1.39332 1.318 1.63331 1.562 1.62801 1.726.128 3.266-1.11734 1.142-2.19999 2.315-3.29199 3.484-.05734.064-.03601.2-.06934.399 1.19733 2.119 3.66134 3.052 5.14004 4.872-.0934 1.524-1.41338 1.92-2.14271 2.78-.75067.883-1.58133 1.696-2.37866 2.543.31066 1.472 1.22666 2.36 2.24266 3.122 3.82001 2.872 2.45331 3.172-.06267 5.367-1.12.977-2.14799 2.044-3.11466 3.128.75067 2.132 2.08134 3.615 3.53734 5.048 2.0053 1.973 1.948 2.325-.32134 3.771-1.528.974-2.92133 2.1-4.21333 3.473 1.42533 3.328 4.60932 5.331 6.17467 8.451-1.06802 2.088-3.312 2.91-4.35467 4.813.98267 2.353 3.49733 3.095 5.01337 4.981-.888 2.772-3.8667 3.935-5.0307 6.466.93466 2.901 3.46533 4.533 5.232 6.549-.4933 1.637-1.80801 2.121-2.66667 3.029-.87334.922-1.74001 1.846-2.74268 2.911 1.77867 2.399 3.47335 4.683 5.09605 6.869-.568 1.675-2.03604 2.107-3.03871 3.016-.93733.85-1.96667 1.599-2.904 2.352.62266 3.294 3.464 4.992 4.74 7.738-1.21066 2.21-3.94534 2.976-5.02667 5.465 1.48533 2.489 4.15866 4.033 6.01598 6.452-1.33865 2.705-4.10665 4.033-5.78132 6.359.49734 2.952 3.91734 3.08 5.20272 5.361-1.23338 2.26-3.97071 3.271-4.84538 5.945 1.124 2.366 3.28667 4.014 5.01198 5.935-.42665 1.869-2.09598 2.559-2.92931 3.893-.836 1.339-1.86667 2.556-2.75734 3.751z" fill="#fcc419" fill-rule="evenodd"/></g></svg>