<svg width="188" height="59" viewBox="0 0 188 59" fill="none" xmlns="http://www.w3.org/2000/svg">
<path fill-rule="evenodd" clip-rule="evenodd" d="M49.2437 57.9414C49.1887 57.9845 49.074 57.8136 48.9894 57.5641C48.9002 57.2992 48.7635 57.1082 48.6621 57.1082C48.5248 57.1082 48.5138 57.0697 48.6099 56.9273C48.7026 56.7887 48.6992 56.734 48.596 56.6909C48.4906 56.647 48.4952 56.5854 48.6181 56.4006C48.7362 56.2211 48.7426 56.1526 48.6435 56.111C48.5723 56.0818 48.5138 56.0009 48.5138 55.9316C48.5138 55.8623 48.5601 55.8415 48.6169 55.8854C48.6754 55.9301 48.6928 55.8777 48.6575 55.7637C48.6233 55.6536 48.6488 55.5635 48.7142 55.5635C48.8005 55.5635 48.8029 55.4942 48.7218 55.3063C48.6325 55.1 48.6424 55.0492 48.7739 55.0492C48.906 55.0492 48.9129 55.016 48.8075 54.8767C48.6731 54.6988 48.4118 54.8582 48.446 55.0977C48.4547 55.1593 48.4072 55.2355 48.3405 55.2655C48.2606 55.3025 48.2397 55.2239 48.2791 55.0368C48.3122 54.8797 48.2965 54.7827 48.2444 54.8204C48.1928 54.8574 48.0572 54.8459 47.9431 54.7935C47.7786 54.7188 47.8272 54.6795 48.1766 54.6056C48.4518 54.5471 48.6181 54.4439 48.6181 54.3307C48.6181 54.2306 48.7084 54.149 48.8197 54.149C48.9303 54.149 49.085 54.0358 49.1632 53.8972C49.3034 53.65 49.8318 53.312 50.0033 53.3605C50.0519 53.3736 50.3555 53.3027 50.6782 53.2018C51.0863 53.082 51.4987 52.9905 51.914 52.9277C52.2708 52.8776 52.5889 52.7845 52.6208 52.7206C52.6526 52.6566 52.7812 52.6035 52.9064 52.602C53.0309 52.6004 53.4139 52.4279 53.7563 52.2185C54.0993 52.0098 54.4585 51.8373 54.5546 51.8358C54.6514 51.8342 54.7591 51.7742 54.7945 51.7041C54.8298 51.6333 54.8061 51.5755 54.7418 51.5755C54.5975 51.5755 54.6491 51.0003 54.7945 50.9872C54.8518 50.9826 55.1033 50.9056 55.3536 50.8178C55.6038 50.7285 55.9225 50.6907 56.0621 50.7346C56.2011 50.7778 56.4636 50.7562 56.6449 50.6869C56.8263 50.6176 57.2353 50.4982 57.5539 50.4205C58.4287 50.2087 58.8951 50.0316 58.8951 49.9122C58.8951 49.7875 53.5697 49.8737 52.2511 50.02C51.5565 50.097 51.2917 50.0755 51.0055 49.9215C50.8057 49.8137 50.6185 49.7174 50.5902 49.7066C50.5612 49.6966 50.4019 49.6181 50.235 49.5334C50.0682 49.4479 49.8579 49.4132 49.7675 49.4564C49.6777 49.5003 48.2959 49.5565 46.6969 49.5819C45.0985 49.6073 43.58 49.6858 43.3234 49.7559C43.0667 49.8268 42.2968 49.9515 41.6126 50.0331C40.9284 50.1163 40.2789 50.2426 40.17 50.315C40.0605 50.3873 39.743 50.4197 39.4644 50.3866C39.1851 50.3527 38.9319 50.3766 38.9012 50.4382C38.8705 50.4998 38.8016 50.5167 38.7483 50.4767C38.6956 50.4359 38.6521 50.4636 38.6521 50.5383C38.6521 50.6137 38.6174 50.663 38.5739 50.6492C38.4013 50.5929 37.5102 50.8263 37.5102 50.9287C37.5102 51.0542 36.7258 51.2629 36.4292 51.2167C36.3202 51.199 36.143 51.3014 36.0358 51.4446C35.9286 51.5871 35.7612 51.711 35.6633 51.7195C35.5653 51.7272 35.2056 51.7472 34.8626 51.7626C34.5208 51.778 34.0532 51.8566 33.825 51.9382C33.5961 52.0206 33.2329 52.1199 33.0174 52.1592C32.8019 52.1992 32.6507 52.2824 32.6814 52.344C32.7781 52.5381 32.5475 52.5889 30.744 52.7706C30.6478 52.7806 30.5777 52.8438 30.5876 52.9108C30.598 52.9778 30.5129 53.0663 30.3987 53.1079C30.2339 53.1814 30.0764 53.2809 29.9295 53.4044C29.7406 53.5638 29.3472 53.6492 28.5274 53.7085C27.9012 53.7539 27.2807 53.7855 27.1486 53.7778C27.0165 53.7701 26.7651 53.8564 26.5895 53.9688C26.4088 54.0843 26.2431 54.122 26.2071 54.055C26.1173 53.8902 25.7518 53.7316 25.8317 53.8933C25.9163 54.0627 25.8155 54.0535 25.5392 53.8679C24.9812 53.4929 22.34 53.7778 22.0642 54.2422C21.9791 54.3862 21.9698 54.4832 22.0387 54.5117C22.0978 54.5363 22.1459 54.6072 22.1459 54.6703C22.1459 54.7327 22.0805 54.7527 22.0011 54.715C21.9211 54.6765 21.825 54.7073 21.7867 54.7835C21.6865 54.9852 22.3081 54.956 22.6442 54.7427C22.7983 54.6449 23.1349 54.5224 23.3915 54.4701C23.6487 54.4185 23.9407 54.3569 24.0404 54.3338C24.1406 54.3107 24.2223 54.3677 24.2223 54.4608C24.2223 54.5802 24.3515 54.6164 24.6632 54.5864C25.0044 54.5532 25.0629 54.5733 24.921 54.6757C24.8196 54.7481 24.7605 54.8543 24.7889 54.9121C24.8503 55.0353 24.2698 55.16 23.1465 55.264C22.515 55.3217 22.3093 55.2986 22.2398 55.1623C22.1737 55.0338 22.1488 55.0291 22.1471 55.1462C22.1453 55.3826 21.5214 55.3441 21.2978 55.0938C21.1935 54.9768 21.1077 54.9352 21.1077 55.0022C21.1077 55.0761 20.7711 55.0892 20.2514 55.0361C19.7804 54.9868 19.0447 54.9152 18.6165 54.8767C18.1878 54.8382 17.6844 54.7381 17.4966 54.6557C17.3095 54.574 17.0395 54.534 16.8976 54.5679C16.7551 54.601 16.6097 54.5694 16.5732 54.4978C16.5332 54.417 16.5604 54.4062 16.6438 54.4701C16.7284 54.5348 16.7545 54.524 16.7134 54.4408C16.6352 54.2837 16.1398 54.142 15.5541 54.1082C15.2082 54.0881 15.137 54.0381 15.1277 53.8078C15.1173 53.5614 15.1891 53.5214 15.8021 53.4328C16.1798 53.3789 16.605 53.3466 16.7476 53.362L17.0071 53.3897L16.7319 53.2049C16.2539 52.883 15.7887 52.7467 14.8792 52.6643C14.3937 52.6205 13.6932 52.4895 13.3219 52.374C12.4685 52.1084 9.50686 52.0876 9.37767 52.3471C9.33354 52.4361 9.24566 52.4658 9.1749 52.4156C9.00109 52.2824 7.0904 52.2385 7.15587 52.3679C7.21612 52.4903 7.20106 52.4919 5.84307 52.5434C4.88425 52.5796 4.47986 52.6235 3.04482 52.8476C2.39016 52.9493 2.00779 52.8907 1.63353 52.632C1.4771 52.5227 1.51071 52.4611 1.88844 52.1661C2.19202 51.9274 2.56396 51.788 3.12477 51.7003C4.08243 51.5501 4.99606 51.3614 5.6542 51.1766C6.04816 51.0665 6.12637 50.9988 6.08524 50.8032C6.05569 50.663 5.97516 50.5922 5.88942 50.6338C5.80947 50.6715 5.744 50.6384 5.744 50.5598C5.744 50.4813 5.82511 50.4166 5.92534 50.4158C6.0806 50.4143 6.08466 50.3958 5.95141 50.2888C5.85292 50.2102 5.84191 50.1633 5.92244 50.1625C5.99196 50.161 6.02209 50.0732 5.98849 49.9661C5.94677 49.8314 6.05048 49.7059 6.32914 49.5519L6.73005 49.3316L5.71619 49.2546C5.17161 49.212 4.62622 49.1901 4.08069 49.1892C3.73888 49.1969 3.46021 49.1953 3.46021 49.1861C3.46021 49.1776 3.55291 49.0367 3.66762 48.8734C3.78175 48.7102 3.87502 48.6163 3.87502 48.664C3.87502 48.7117 3.98047 48.6655 4.10908 48.5608C4.2377 48.4569 4.68901 48.3044 5.11251 48.2235C5.53543 48.1419 6.0667 47.9941 6.29322 47.8955C6.54867 47.7896 6.81326 47.7275 7.08056 47.7107C7.65874 47.7038 9.11465 47.2348 8.69404 47.1909C8.59226 47.1743 8.49114 47.1512 8.39104 47.1216C8.2797 47.09 8.16827 47.0589 8.05676 47.0284C7.81922 46.9638 7.80416 46.839 8.02315 46.7528C8.14366 46.705 8.36381 46.5264 8.51328 46.3547C8.66275 46.1829 8.8887 46.0428 9.01616 46.0428C9.14361 46.0428 9.3012 45.9635 9.36666 45.8657C9.46399 45.7209 9.37825 45.6739 8.8858 45.6046C8.58203 45.5625 8.27879 45.5137 7.97623 45.4583C7.56837 45.3767 5.94677 45.3883 5.83554 45.4737C5.68491 45.5892 4.49782 45.6431 4.49782 45.5353C4.49782 45.4776 4.56792 45.359 4.65425 45.2712C4.73941 45.1827 4.80951 45.0502 4.80951 44.9763C4.80951 44.9024 4.77881 44.88 4.74115 44.927C4.70349 44.9732 4.61022 44.947 4.53374 44.8685C4.45669 44.7892 4.3947 44.7799 4.3947 44.8477C4.3947 44.9155 4.32402 44.9709 4.23828 44.9709C3.98916 44.9709 4.05752 44.8331 4.40049 44.6452C4.78576 44.4334 4.73072 44.3449 4.10908 44.1778C3.54248 44.0238 3.43472 43.785 3.84084 43.5817C4.26145 43.3715 6.23645 43.0989 7.36559 43.0951C7.89512 43.0935 8.45187 43.0535 8.60308 43.0065L8.87885 42.9211L8.58338 42.6207C8.42001 42.456 8.20797 42.3189 8.11179 42.3166C7.86557 42.3096 7.79084 42.1056 7.92293 41.7999C8.06197 41.4765 8.96517 40.8966 9.32785 40.8966C9.48079 40.8966 9.56943 40.8412 9.53293 40.768C9.49759 40.6972 9.38288 40.6394 9.27802 40.6394C9.10248 40.6394 8.90724 40.3183 8.94548 40.0927C8.98487 39.8632 7.33779 40.1197 7.1999 40.3645C7.09446 40.5509 4.44336 41.0399 4.18324 40.9197L3.9347 40.8065L4.17629 40.6464C4.30896 40.5578 5.1716 40.3307 6.09277 40.1397C7.77867 39.7916 8.18943 39.546 7.08461 39.546C6.74511 39.546 6.43285 39.4721 6.33146 39.3689C6.18662 39.221 5.98733 39.2172 5.14611 39.3442C3.59925 39.5783 2.70127 39.7393 2.49038 39.8193C2.35076 39.8725 2.30847 39.8347 2.33396 39.6777C2.3722 39.4497 2.69316 39.1825 3.19719 38.9592C3.63054 38.7675 3.36114 38.5988 2.80671 38.7143C2.56628 38.7652 2.15958 38.8468 1.90292 38.8968L1.43539 38.9869L1.82471 38.5249C2.03907 38.2708 2.21403 38.0421 2.21403 38.0167C2.21403 37.9913 1.92436 37.9297 1.57096 37.8804C0.732642 37.7626 0.285386 37.4723 0.291069 37.0495C0.294076 36.8262 0.96612 36.5282 1.59066 36.472C1.84789 36.4481 2.43245 36.3372 2.88897 36.2248C3.3455 36.1124 4.04651 35.9938 4.44626 35.9622C4.89806 35.923 5.34842 35.8585 5.79614 35.7689C7.92293 35.3062 8.40147 35.1914 8.49358 35.1267C8.54978 35.0867 8.38641 34.9904 8.13033 34.9134C7.87252 34.8357 7.66454 34.6978 7.66454 34.6039C7.66454 34.3875 8.71084 33.917 9.66039 33.7068C10.1221 33.6044 10.4639 33.4527 10.5758 33.2987C10.676 33.1616 11.0236 32.9891 11.3672 32.9052C12.1475 32.715 12.1261 32.534 11.2785 32.1459C11.0972 32.0628 10.9691 31.928 10.9946 31.8456C11.0537 31.66 11.5346 31.3759 11.7918 31.3759C11.8978 31.3759 11.9558 31.3174 11.9204 31.2473C11.8857 31.1764 11.5091 31.1179 11.0838 31.1179C10.384 31.1179 10.103 30.987 10.4408 30.8176C10.7438 30.6659 9.22878 30.7483 8.48026 30.9231C7.54867 31.1418 7.04116 31.0502 7.04116 30.6644C7.04116 30.4857 7.31287 30.2524 8.06081 29.7858C8.76472 29.3461 9.03701 29.1158 8.94258 29.0404C8.76298 28.8971 8.94026 28.75 9.63664 28.4651C10.6192 28.0624 11.399 27.3886 11.2965 27.029C11.2269 26.7841 11.6099 26.6502 13.1927 26.3668C13.9788 26.2259 14.7668 26.0218 14.9429 25.9125C15.119 25.8047 15.4921 25.6814 15.7719 25.6391C16.5436 25.5244 18.0198 25.0616 18.2504 24.8621C18.3628 24.7651 18.5963 24.6812 18.7695 24.6758C18.9421 24.6712 19.1768 24.6173 19.2909 24.5564C19.4566 24.4686 19.4143 24.4425 19.0835 24.4271C18.1988 24.3862 17.729 24.2784 17.6119 24.0882C17.532 23.9581 17.4069 23.9188 17.2487 23.9727C17.0407 24.042 17.0332 24.0343 17.1908 23.9111C17.2916 23.8334 17.4555 23.7856 17.554 23.8056C17.6636 23.8236 17.7747 23.7987 17.8738 23.734C17.9561 23.6701 18.1177 23.6955 18.2695 23.7956C18.4688 23.9281 18.5684 23.9319 18.7214 23.8133C18.846 23.7171 18.9415 23.7078 18.9809 23.7872C19.0157 23.8565 19.31 23.915 19.6344 23.9181C19.9595 23.9204 20.3424 24.0051 20.4849 24.1059C20.796 24.3262 20.9003 24.3424 20.9003 24.1706C20.9003 24.0998 20.8273 24.042 20.7381 24.042C20.6495 24.042 20.602 23.9904 20.6338 23.9281C20.6645 23.8649 20.5927 23.7818 20.4728 23.7433C20.3534 23.7048 20.2758 23.597 20.3007 23.5038C20.3465 23.3321 20.8111 23.2312 22.2496 23.0818C23.5491 22.9463 23.9106 22.8739 23.9106 22.7476C23.9106 22.6806 23.8411 22.6267 23.7548 22.6267C23.6684 22.6267 23.5995 22.512 23.5995 22.3695C23.5995 22.1809 23.669 22.1123 23.859 22.1123C24.1574 22.1123 24.2084 21.9137 23.9326 21.8243C23.8307 21.7912 23.3052 21.7951 22.7647 21.8328C21.1917 21.9429 20.562 21.9067 20.2329 21.6857C20.0655 21.5733 19.8992 21.5048 19.8621 21.5325C19.8256 21.561 19.8152 21.4208 19.839 21.2214C19.8905 20.7871 19.7439 20.7193 18.6785 20.6824C18.0407 20.6608 17.9908 20.6416 18.2127 20.4991C18.5777 20.265 19.9154 19.9293 20.7132 19.8707C21.121 19.8407 21.5057 19.7352 21.6442 19.6151C21.9397 19.3594 22.1169 19.3556 22.3162 19.6028C22.406 19.7144 22.6563 19.7953 22.906 19.793C23.6754 19.7883 26.5461 19.4264 26.936 19.2847C27.2998 19.1538 27.3108 19.1323 27.2343 18.7103C27.1857 18.4446 27.1967 18.2198 27.2616 18.1389C27.3357 18.0465 27.3328 17.951 27.2517 17.8301C27.0037 17.4598 27.3189 17.3835 28.8339 17.4451C30.0111 17.4936 30.3784 17.4675 30.6171 17.3165C30.8697 17.1564 32.0093 16.9361 32.7868 16.8969C32.9009 16.8907 33.2277 16.8345 33.5133 16.7713L34.0324 16.6558L33.5654 16.5627C33.3082 16.5111 32.5377 16.4987 31.8523 16.5349C31.126 16.572 30.3991 16.5882 29.6722 16.5835C29.1583 16.5734 28.1543 16.6605 27.4406 16.776C26.0281 17.0039 24.5716 17.1633 23.9448 17.1587C23.7264 17.1571 23.5178 17.2064 23.4825 17.268C23.4466 17.3296 23.271 17.3874 23.0932 17.3966C22.9147 17.4059 22.7687 17.4613 22.7687 17.5198C22.7687 17.5783 22.6639 17.5891 22.5352 17.5445C22.3522 17.4813 22.3354 17.4929 22.4576 17.5984C22.5914 17.7146 22.588 17.7339 22.4315 17.7354C22.3313 17.737 22.2496 17.8017 22.2496 17.881C22.2496 17.9687 22.1511 17.9441 21.9941 17.8163C21.7102 17.5853 21.5851 17.5498 21.6714 17.7231C21.7027 17.7855 21.6355 17.8671 21.522 17.9041C21.4038 17.9426 21.3157 17.9071 21.3157 17.8217C21.3157 17.7354 21.1518 17.6731 20.9264 17.6731C20.679 17.6731 20.5458 17.7293 20.5614 17.8278C20.5782 17.9341 20.4658 17.9634 20.2022 17.9218C19.77 17.8525 19.3436 17.5537 19.3413 17.3165C19.3401 17.2149 19.3036 17.228 19.2393 17.3512C19.1611 17.5013 19.1385 17.4636 19.1368 17.1818C19.135 16.7182 19.306 16.3224 19.5087 16.3224C19.5956 16.3224 19.6379 16.2647 19.6026 16.1938C19.5678 16.123 19.6229 16.0606 19.726 16.0552C20.0678 16.0367 20.2856 15.959 20.5168 15.7711C20.7242 15.6032 21.212 15.6679 21.212 15.8635C21.212 15.8989 21.1489 15.8981 21.073 15.8619C20.9959 15.8257 20.8679 15.8966 20.7873 16.019C20.661 16.2115 20.661 16.2269 20.7885 16.133C20.9015 16.0483 20.9189 16.0768 20.8627 16.2585C20.8186 16.3994 20.843 16.5365 20.9229 16.5996C21.1216 16.7552 21.2885 16.7259 21.1083 16.5665C20.9907 16.4633 21.0509 16.4464 21.3511 16.498C21.5712 16.5365 21.8342 16.5011 21.9397 16.4202C22.0833 16.3085 22.1656 16.3109 22.2815 16.4294C22.4037 16.5557 22.4489 16.5419 22.5132 16.3578C22.5578 16.2315 22.5868 16.086 22.5775 16.0329C22.5688 15.979 22.6274 15.9358 22.7085 15.9358C22.7896 15.9358 22.873 15.8696 22.895 15.7895C22.917 15.7079 23.0717 15.624 23.2391 15.6017C23.4072 15.5793 23.596 15.4731 23.6597 15.3645C23.7235 15.2567 23.8133 15.2105 23.8596 15.2628C23.906 15.3144 23.9147 15.2551 23.8787 15.1319C23.7988 14.8547 23.9969 14.8285 24.0827 15.105C24.1371 15.2813 24.1667 15.279 24.3387 15.0857C24.523 14.8786 24.534 14.8801 24.5357 15.1119C24.5369 15.3175 24.5531 15.326 24.6377 15.1643C24.7877 14.8763 24.7663 14.8139 24.4882 14.7277C24.3121 14.6722 24.2403 14.566 24.2518 14.3773C24.2698 14.077 24.6313 13.8529 25.0484 13.8829C25.4366 13.9114 25.7796 13.7459 25.7796 13.5295C25.7796 13.3909 25.8827 13.3501 26.1689 13.3755C26.5872 13.414 27.2911 13.2692 27.5443 13.0929C27.67 13.0059 27.6601 12.9828 27.4921 12.9743C27.2497 12.9569 27.0075 12.9338 26.7656 12.905C25.8827 12.8018 24.709 12.8049 24.2849 12.9111C23.9946 12.9843 23.9013 12.972 23.9529 12.8672C23.9981 12.7779 23.9703 12.7487 23.8799 12.7918C23.7942 12.8326 23.6563 12.7148 23.5468 12.5069C23.4135 12.2543 23.3961 12.1388 23.4854 12.1018C23.5694 12.0672 23.5491 11.9902 23.4234 11.8685C23.2525 11.7022 23.2635 11.6922 23.5474 11.753C23.7188 11.79 23.8005 11.7861 23.7293 11.7453C23.4662 11.5913 23.6111 11.4327 24.0149 11.4327C24.2768 11.4327 24.4303 11.492 24.432 11.5944C24.4326 11.7122 24.4564 11.7083 24.5224 11.5797C24.5786 11.4704 24.636 11.4542 24.6771 11.5366C24.7466 11.676 24.8787 11.6652 25.2031 11.4927C25.3144 11.4342 25.5589 11.3818 25.7466 11.3772C26.177 11.3664 26.3166 11.0469 25.8914 11.0469C25.7228 11.0469 25.5681 10.9629 25.5345 10.8544C25.494 10.7235 25.5392 10.6611 25.6736 10.6611C25.7836 10.6611 25.9105 10.5887 25.9557 10.4994C26.0751 10.2691 26.498 9.99655 26.6069 10.0797C26.6579 10.1182 26.7286 10.092 26.7645 10.0196C26.8004 9.94804 26.9586 9.88874 27.1161 9.88874C27.2737 9.88874 27.6567 9.7948 27.9666 9.68006C28.4562 9.49833 28.4996 9.45675 28.3003 9.36435C28.1729 9.30505 27.3067 9.26424 26.374 9.27425C25.4412 9.28426 24.6168 9.24499 24.5421 9.18801C24.465 9.12871 24.3758 9.14566 24.3359 9.22651C24.2524 9.39361 21.0249 9.52066 20.9449 9.35973C20.9165 9.30351 20.8209 9.29119 20.7323 9.33354C20.6234 9.38514 20.6089 9.43904 20.6883 9.4991C20.752 9.54838 20.6628 9.58843 20.489 9.58843C20.3152 9.58843 20.1738 9.53375 20.1738 9.46522C20.1738 9.39823 20.1026 9.41594 20.0157 9.50526C19.9288 9.59536 19.8245 9.62693 19.7839 9.57688C19.7428 9.52682 19.8256 9.3759 19.9676 9.24191L20.2254 8.99858L19.9658 9.06018C19.7387 9.11408 19.7324 9.10715 19.9137 9.00012C20.2132 8.82301 20.7057 8.84226 20.9942 9.04016C21.2752 9.23267 21.6268 9.16953 21.6268 8.92542C21.6268 8.813 21.8319 8.76295 22.3018 8.75987C22.7247 8.75679 22.9767 8.80761 22.9767 8.89616C22.9767 8.97394 23.0346 8.94237 23.1065 8.82686C23.1997 8.67439 23.4813 8.59277 24.1186 8.53347C24.6035 8.48727 25.2958 8.36869 25.6562 8.26935C26.0165 8.16925 26.4603 8.08223 26.6422 8.0753C26.8241 8.06837 27.2071 7.98367 27.4921 7.88741C27.9788 7.72262 27.9243 7.71569 26.6098 7.78192C25.8393 7.82042 25.1382 7.85276 25.0525 7.8543C24.9673 7.85507 23.8927 7.99214 22.6656 8.1577C21.4374 8.32403 20.0991 8.47726 19.6912 8.49882C19.2828 8.52038 18.9705 8.58122 18.996 8.63435C19.0227 8.68825 18.8425 8.73137 18.5963 8.73137C18.3506 8.73137 17.729 8.81608 17.2151 8.91849C16.3339 9.09406 14.261 9.27579 14.5426 9.15182C14.6144 9.12101 14.6468 9.0417 14.6144 8.97702C14.582 8.91233 14.6868 8.85689 14.8473 8.85381C15.0078 8.84996 15.3021 8.73753 15.502 8.60355C15.7018 8.46879 15.9591 8.30477 16.0732 8.23932C16.4486 8.02217 22.5712 6.76701 24.0149 6.61069C24.443 6.56449 25.6811 6.41202 26.7656 6.27187C27.8508 6.13173 29.2823 5.96078 29.9474 5.89225C30.6125 5.82294 31.3819 5.68356 31.6565 5.58115C32.0174 5.44639 32.1756 5.43484 32.2277 5.53803C32.2932 5.66893 33.3853 5.63351 34.7073 5.4564C35.174 5.4047 35.6412 5.36158 36.1088 5.32704C37.1331 5.24772 38.6938 4.98052 39.5675 4.73565C39.8143 4.66635 40.0599 4.64324 40.1132 4.68406C40.1671 4.72564 40.8901 4.63092 41.7209 4.47538C42.9491 4.24436 43.2753 4.22126 43.4682 4.34909C43.6629 4.47846 43.912 4.45689 44.8384 4.2305C46.3806 3.85318 48.3933 3.36344 49.3967 3.12165C49.8532 3.01076 50.5166 2.83827 50.8711 2.7374C51.2257 2.63729 51.6695 2.55567 51.8572 2.55567C52.0455 2.55567 52.4093 2.47328 52.6665 2.37086C53.0993 2.19914 53.9863 2.00894 56.3518 1.57849C57.255 1.42257 58.1551 1.23513 59.0509 1.01637C59.6216 0.882379 60.5561 0.677549 61.1273 0.561273L62.4772 0.284059C63.6886 0.036107 63.9198 0.0407272 64.1608 0.318711C64.2906 0.468098 64.3972 0.655987 64.3972 0.736841C64.3972 0.816925 64.4319 0.875448 64.4748 0.867748C64.5177 0.859277 64.6602 0.859277 64.79 0.867748C64.9887 0.880068 65.0101 0.921651 64.9232 1.1234C64.7963 1.41755 64.8983 1.57618 65.0883 1.38059C65.3027 1.16036 65.2534 1.35826 65.0072 1.7094C64.878 1.89344 64.6191 2.05823 64.3798 2.10828C64.0316 2.18143 63.9916 2.22147 64.1034 2.38857C64.2709 2.63883 64.1295 2.65424 70.7816 1.65704C71.2381 1.58773 72.0561 1.50457 72.5984 1.47069C73.1407 1.43604 74.1221 1.34748 74.7785 1.27356C75.4349 1.19886 76.2993 1.11493 76.699 1.08644C77.0988 1.05872 77.6104 0.975553 77.8357 0.9024C78.0617 0.829246 78.9573 0.765333 79.8264 0.761483C80.6954 0.756862 81.4682 0.727601 81.5441 0.696029C81.7307 0.618256 84.1634 0.460398 84.7421 0.488119C84.9982 0.50121 85.2792 0.591304 85.3667 0.689099C85.5619 0.90856 86.0601 0.930121 88.3775 0.822316C89.443 0.772263 90.4209 0.659068 90.7419 0.548182C91.1613 0.403415 91.8565 0.363373 93.7006 0.378774C95.0267 0.391094 97.2329 0.355673 98.603 0.30254C101.38 0.194735 101.232 0.193195 104.105 0.347972C105.965 0.448077 107.039 0.451927 108.673 0.365683C108.958 0.350282 109.11 0.311781 109.01 0.279439C108.91 0.247097 108.829 0.160083 108.829 0.0861594C108.829 -0.00239494 109.12 -0.023186 109.685 0.0260965C110.156 0.0676785 111.569 0.160083 112.825 0.231697C114.081 0.30331 115.693 0.421896 116.406 0.493509C119.274 0.786124 120.367 0.888539 121.857 1.00635C125.581 1.30128 127.544 1.41832 129.591 1.46838C130.533 1.49225 131.701 1.55077 132.186 1.59928C132.722 1.64969 133.258 1.67486 133.795 1.67475C134.195 1.66859 134.988 1.72095 135.56 1.79025C136.131 1.85956 137.98 1.94195 139.669 1.97352C141.358 2.00432 142.946 2.08595 143.198 2.15525C143.451 2.22455 144.024 2.31234 144.473 2.35007C144.921 2.38857 145.435 2.45018 145.614 2.48637C146.228 2.61111 147.187 2.69505 148.588 2.74818C149.822 2.79592 151.021 2.90912 152.792 3.14552C153.078 3.18402 153.475 3.23022 153.675 3.25025C153.875 3.27027 154.388 3.3234 154.817 3.36883C155.245 3.41503 155.969 3.48665 156.425 3.53054C156.883 3.57366 157.279 3.62679 157.308 3.64835C157.337 3.67069 157.626 3.72305 157.951 3.76617C158.275 3.80852 158.61 3.87629 158.692 3.91633C158.776 3.9556 159.258 4.00565 159.764 4.02644C161.151 4.08497 161.149 4.0842 161.149 4.29211C161.149 4.39837 161.199 4.48462 161.259 4.48462C161.32 4.48462 161.335 4.41762 161.294 4.33446C161.243 4.23204 161.277 4.21125 161.4 4.27055C161.5 4.31752 161.684 4.35679 161.81 4.35679C161.965 4.35679 162.044 4.43995 162.055 4.61398C162.073 4.922 162.017 4.93586 161.809 4.6779C161.592 4.40838 161.349 4.42917 161.422 4.71024C161.458 4.84884 161.447 4.87965 161.393 4.79186C161.333 4.69407 161.04 4.67559 160.474 4.73411C159.5 4.83421 158.765 4.80726 157.412 4.6186C156.87 4.54237 156.169 4.44919 155.855 4.41146C155.541 4.37296 155.229 4.31983 155.162 4.29288C155.096 4.26592 155.014 4.33138 154.981 4.43918C154.936 4.58395 154.838 4.61167 154.601 4.54699C154.229 4.44611 153.99 4.40761 153 4.2898C152.6 4.24205 152.245 4.18199 152.211 4.15581C152.138 4.10037 150.75 4.09113 148.848 4.13271C147.641 4.16043 146.79 4.08651 146.155 3.90016C145.797 3.79543 143.294 3.75 143.294 3.84856C143.294 3.89939 143.609 3.98255 143.995 4.03337C144.38 4.08497 144.789 4.14888 144.903 4.17737C145.704 4.37296 147.849 4.59319 149.574 4.65479C149.974 4.67019 150.35 4.72102 150.411 4.76876C150.511 4.84807 153.69 5.15532 153.861 5.10219C153.901 5.0891 154.285 5.11913 154.713 5.16918C155.375 5.24541 157.066 5.39942 157.49 5.42175C157.643 5.42945 157.661 5.59578 157.52 5.70359C157.42 5.78059 156.637 5.79907 155.929 5.74055C155.713 5.72207 155.498 5.6312 155.452 5.53803C155.388 5.41251 155.21 5.39172 154.755 5.45563C154.417 5.50415 154.111 5.56652 154.073 5.59424C154.034 5.62273 153.932 5.55805 153.846 5.45024C153.759 5.34244 153.663 5.30471 153.633 5.36554C153.574 5.48258 151.479 5.43253 150.872 5.29932C150.672 5.25542 150.32 5.20691 150.089 5.19305C149.858 5.17765 149.567 5.09834 149.44 5.0144C149.257 4.89274 149.211 4.89659 149.211 5.03365C149.211 5.1353 149.072 5.21923 148.874 5.23925C148.053 5.32165 146.904 5.31395 145.993 5.22C145.338 5.15224 145.058 5.16071 145.159 5.24541C145.568 5.58423 144.8 5.7521 143.605 5.58423C142.545 5.43484 142.356 5.42714 141.898 5.51339C141.661 5.55805 141.33 5.54881 141.161 5.4926C140.716 5.34475 138.405 5.08371 137.376 5.06445C136.857 5.05308 136.337 5.01816 135.819 4.95973C135.448 4.91122 134.701 4.84191 134.158 4.80572C133.206 4.73314 132.255 4.64818 131.304 4.55084C130.172 4.43833 129.04 4.34643 127.906 4.27517C126.537 4.19816 126.371 4.21048 126.311 4.40299C126.255 4.58549 126.075 4.61629 125.089 4.61167C124.453 4.60859 123.722 4.65325 123.466 4.71024L122.999 4.81496L123.777 4.95819C124.206 5.0375 124.719 5.10065 124.919 5.09834C125.119 5.09603 125.937 5.18458 126.736 5.29393C127.535 5.40327 129.053 5.55805 130.11 5.63659C131.166 5.71591 132.134 5.80831 132.261 5.84219C132.388 5.87607 133.439 5.96001 134.597 6.02931C136.677 6.15252 138.135 6.25416 139.245 6.35119C139.559 6.37891 140.636 6.45976 141.639 6.53138C142.642 6.60299 143.529 6.68769 143.611 6.71927C143.694 6.75007 143.855 6.82014 143.968 6.87327C144.082 6.92718 144.356 6.98724 144.575 7.00649C144.794 7.02651 145.028 7.13432 145.095 7.24674C145.19 7.40845 145.461 7.45696 146.408 7.48391C147.065 7.50239 147.648 7.55322 147.706 7.59634C147.763 7.63946 148.16 7.70953 148.588 7.75035C150.635 7.94902 152.682 8.11072 153.623 8.14769C154.194 8.17002 155.409 8.28937 156.322 8.41258C157.235 8.53579 158.403 8.65668 158.918 8.68055C162.474 8.84226 165.314 9.04786 166.807 9.24884C167.321 9.31814 168.221 9.41209 168.808 9.45752C169.395 9.50372 169.9 9.58997 169.931 9.65003C169.961 9.71086 169.831 9.76554 169.642 9.77093C169.453 9.77632 169.167 9.79326 169.005 9.80789C168.844 9.82175 168.692 9.79326 168.667 9.7432C168.642 9.69392 168.449 9.7124 168.238 9.78402C168.024 9.85717 167.555 9.87796 167.175 9.83022C166.802 9.78402 164.814 9.72241 162.758 9.69546C160.703 9.66774 158.25 9.60768 157.308 9.56147C155.629 9.48062 155.153 9.53067 156.254 9.67236C156.56 9.71086 156.833 9.7717 156.86 9.80558C156.935 9.89798 156.555 10.1244 156.24 10.1767C155.873 10.2383 155.757 10.4008 156.071 10.4154C156.209 10.4208 156.929 10.4801 157.672 10.5464C158.414 10.6118 159.873 10.7004 160.916 10.7419C162.628 10.8112 162.81 10.8397 162.81 11.043C162.81 11.3264 163.228 11.3934 165.747 11.5135C166.762 11.562 167.618 11.6506 167.647 11.7107C167.677 11.7699 167.906 11.8185 168.157 11.8185C169.009 11.8185 168.771 12.1742 167.722 12.4637C167.427 12.5454 167.03 12.6016 166.84 12.5885C165.576 12.5015 165.908 12.7548 167.326 12.9597C167.897 13.042 168.691 13.1368 169.091 13.1714C169.49 13.2061 170.214 13.2915 170.7 13.3624C171.185 13.4325 172.166 13.5287 172.88 13.5749C173.759 13.6327 174.211 13.7143 174.281 13.829C174.339 13.9214 174.709 14.0346 175.112 14.0808C175.511 14.127 175.885 14.2348 175.942 14.3218C175.999 14.4081 176.387 14.5182 176.804 14.566C177.221 14.6137 177.667 14.7377 177.795 14.8416C177.942 14.961 178.391 15.0511 179.01 15.0873C180.343 15.1643 181.388 15.309 181.446 15.4253C181.507 15.547 180.598 15.7218 180.458 15.6147C180.401 15.5709 180.354 15.5901 180.354 15.6571C180.354 15.7241 180.518 15.8165 180.717 15.8635C181.112 15.9551 181.187 16.1153 180.899 16.2531C180.56 16.4164 181.035 16.6743 182.102 16.9076C182.998 17.1025 183.565 17.3442 183.152 17.355C182.764 17.365 183.363 17.5922 183.986 17.6707C184.357 17.7185 184.714 17.8124 184.78 17.881C184.847 17.9487 185.196 18.0635 185.558 18.1358C186.561 18.3361 186.55 18.4978 185.527 18.5971C185.144 18.6341 184.795 18.7442 184.689 18.8612C184.542 19.0245 184.362 19.0445 183.703 18.9683C182.365 18.8135 182.1 18.8435 181.899 19.1731C181.8 19.3348 181.74 19.5073 181.765 19.5573C181.79 19.6066 182.124 19.6882 182.509 19.7375C182.894 19.7868 183.256 19.8723 183.313 19.9285C183.37 19.9839 183.639 20.0702 183.91 20.1202C184.654 20.2573 184.501 20.439 183.641 20.439C183.223 20.439 182.845 20.4829 182.801 20.5361C182.758 20.5892 182.323 20.6323 181.834 20.6323C181.216 20.6323 180.931 20.6816 180.901 20.7932C180.87 20.9034 180.982 20.9542 181.254 20.955C181.473 20.955 181.816 21.0089 182.015 21.0735C182.215 21.1382 182.774 21.2276 183.257 21.273C183.74 21.3176 184.189 21.4085 184.253 21.4747C184.317 21.541 184.397 21.561 184.43 21.5202C184.464 21.4786 184.6 21.4932 184.732 21.5517C184.919 21.6341 184.808 21.6772 184.247 21.7404C183.585 21.8151 182.83 22.003 182.431 22.1924C182.177 22.3125 182.571 22.445 183.754 22.6359C184.339 22.7307 184.818 22.8423 184.818 22.8839C184.818 22.9263 185.122 22.9363 185.493 22.907C186.035 22.8647 186.167 22.8908 186.167 23.0418C186.167 23.2751 185.839 23.6562 185.64 23.6539C185.519 23.6524 185.52 23.6308 185.648 23.5269C185.782 23.4206 185.777 23.4021 185.619 23.4006C185.517 23.3991 185.407 23.4884 185.373 23.5985C185.32 23.7679 185.132 23.7879 184.104 23.7302C182.816 23.6586 182.499 23.744 182.736 24.0982C183.134 24.6912 184.755 25.3288 185.87 25.3288C186.543 25.3288 186.894 25.4843 186.894 25.7831C186.894 25.9325 186.728 25.971 186.09 25.9679C185.647 25.9671 185.098 25.9048 184.87 25.8301C184.641 25.7554 183.566 25.6684 182.479 25.636C180.557 25.5798 180.502 25.5852 180.487 25.8362C180.472 26.0842 180.599 26.2621 180.821 26.3067C180.879 26.3183 181.326 26.4215 181.816 26.5362C183.421 26.9104 184.846 27.1391 186.304 27.2546C187.655 27.3624 188.116 27.5095 187.976 27.7898C187.944 27.8537 187.874 27.8714 187.819 27.8299C187.764 27.7883 187.732 27.8299 187.748 27.9246C187.764 28.0185 187.696 28.0863 187.596 28.077C187.497 28.067 187.438 28.104 187.466 28.1594C187.493 28.2141 187.357 28.2965 187.163 28.3412C186.744 28.439 186.645 28.6707 186.859 29.0504C186.973 29.2529 186.986 29.3738 186.904 29.4954C186.77 29.6949 186.858 29.8312 187.119 29.8312C187.224 29.8312 187.31 29.8558 187.31 29.8851C187.31 29.9151 187.341 30.0391 187.378 30.1623C187.442 30.3664 187.372 30.3779 186.522 30.2986C186.013 30.2524 185.421 30.1792 185.207 30.1369C184.897 30.0761 184.818 30.1015 184.818 30.2616C184.818 30.3717 184.743 30.5142 184.651 30.5781C184.413 30.7429 184.556 31.4845 184.853 31.6331C185.067 31.7401 185.068 31.7463 184.87 31.7624C184.662 31.7794 184.662 31.7794 184.87 31.8903C185.073 31.9981 184.789 32.0443 183.728 32.0766C183.285 32.0897 182.95 32.263 182.95 32.4778C182.95 32.5933 182.842 32.6626 182.664 32.6642C182.489 32.668 182.314 32.6948 182.143 32.7442C181.921 32.8174 181.918 32.8328 182.09 32.9953C182.192 33.0908 182.402 33.1701 182.559 33.1724C182.715 33.1747 183.151 33.3795 183.527 33.6267C183.907 33.877 184.363 34.0772 184.552 34.0772C185.181 34.0772 186.163 34.2412 186.114 34.3382C186.087 34.3913 186.145 34.426 186.243 34.4168C186.341 34.4087 186.43 34.494 186.456 34.6208C186.503 34.9042 185.89 35.3916 185.574 35.3231C185.448 35.2954 185.327 35.3362 185.306 35.4132C185.258 35.5949 184.046 35.6465 183.561 35.4871C183.356 35.4193 182.293 35.3485 181.2 35.3293C179.352 35.2969 178.807 35.3624 179.498 35.5349C179.654 35.5734 179.993 35.6642 180.251 35.7366C180.55 35.815 180.854 35.8605 181.159 35.8729C181.401 35.876 181.6 35.9368 181.6 36.0077C181.6 36.0777 181.673 36.1363 181.762 36.1363C181.852 36.1363 182.021 36.1994 182.139 36.2772C182.349 36.4173 182.348 36.4204 182.106 36.5706C181.679 36.8339 181.811 37.0819 182.527 37.3637C182.894 37.5085 183.217 37.7118 183.243 37.8142C183.27 37.9174 183.333 38.0352 183.384 38.076C183.542 38.2053 183.352 38.6019 183.173 38.5164C183.082 38.4733 183.037 38.4741 183.071 38.5172C183.106 38.5603 183.017 38.7421 182.873 38.9207C182.684 39.1548 182.489 39.2511 182.168 39.2665C181.923 39.278 181.742 39.325 181.765 39.372C181.788 39.4182 181.36 39.4274 180.814 39.3927C180.019 39.3419 179.785 39.3689 179.646 39.5244C179.453 39.7416 178.433 39.8309 177.901 39.6777C177.698 39.6191 177.55 39.6368 177.506 39.7254C177.467 39.8032 177.325 39.8671 177.19 39.8671C176.878 39.8671 176.617 39.9903 176.617 40.1381C176.617 40.2013 176.685 40.2536 176.767 40.2536C176.85 40.2536 176.957 40.3407 177.006 40.4485C177.061 40.5694 177.467 40.7334 178.076 40.8797C179.275 41.1692 180.158 41.6112 180.074 41.8807C180.04 41.9862 179.95 42.0381 179.868 41.9993C179.787 41.9608 179.746 41.9808 179.778 42.0455C179.81 42.1087 179.714 42.342 179.564 42.5622C179.364 42.8571 179.237 42.9411 179.083 42.881C178.968 42.8348 178.901 42.851 178.933 42.9157C178.965 42.9803 178.829 43.0389 178.631 43.0466C178.432 43.0527 177.941 43.1582 177.541 43.2799L176.812 43.5009L177.044 43.8074C177.171 43.9752 177.319 44.1131 177.372 44.1131C177.425 44.1131 177.628 44.207 177.824 44.3225C178.166 44.5235 178.174 44.5443 178.023 44.8307C177.923 45.0186 177.904 45.1588 177.97 45.2088C177.997 45.2292 178.017 45.2639 178.024 45.3045C178.031 45.345 178.025 45.3877 178.007 45.4221C177.964 45.5084 177.909 45.4938 177.85 45.3813C177.791 45.2681 177.731 45.2527 177.681 45.3382C177.638 45.4098 177.463 45.553 177.292 45.6555L176.98 45.8418L177.309 45.8849C177.664 45.9327 177.855 46.2622 177.597 46.3855C177.51 46.427 177.413 46.4286 177.381 46.3893C177.35 46.3508 177.168 46.427 176.978 46.5587C176.743 46.7113 176.494 46.8231 176.238 46.8914C176.021 46.9422 175.78 47.0608 175.704 47.1563C175.522 47.3819 175.451 47.3773 174.486 47.0716C173.62 46.7967 173.376 46.8228 173.021 47.2256C172.82 47.452 172.74 47.4627 172.198 47.3388C171.486 47.1755 170.146 47.1547 170.222 47.308C170.251 47.3665 170.616 47.4866 171.032 47.5752C172.094 47.7992 172.213 47.8478 172.039 47.981C171.737 48.212 173.089 48.7587 174.411 48.9389C174.768 48.9874 175.083 49.0729 175.111 49.1283C175.138 49.1838 175.063 49.384 174.943 49.5726C174.742 49.8891 174.738 49.933 174.893 50.144C174.984 50.2703 175.06 50.4051 175.06 50.4443C175.06 50.603 173.302 50.3743 172.724 50.1394C171.893 49.8029 170.21 49.5572 170.055 49.7498C169.973 49.8514 169.972 49.9392 170.052 50.0593C170.161 50.221 170.327 50.2903 171.712 50.7508C172.144 50.894 172.361 51.0311 172.361 51.1597C172.361 51.3229 172.238 51.3399 171.59 51.2675C171.097 51.2113 170.797 51.229 170.754 51.3137C170.717 51.3869 170.745 51.4469 170.815 51.4469C170.884 51.4469 170.918 51.4769 170.888 51.5131C170.819 51.5994 169.348 51.2174 169.202 51.0742C169.087 50.9626 167.571 50.6738 167.248 50.7015C167.148 50.7108 167.066 50.7901 167.066 50.8786C167.066 50.9672 167.042 51.1173 167.012 51.2128C166.961 51.3776 168.229 51.711 170.414 52.1068C170.742 52.1661 171.18 52.3024 171.387 52.4102C171.594 52.5173 171.909 52.6051 172.088 52.6051C172.558 52.6066 173.233 52.8615 173.124 52.9962C173.074 53.0594 172.441 53.1271 171.719 53.1472C170.997 53.1672 170.414 53.1934 170.424 53.2057C170.433 53.2172 170.672 53.3397 170.954 53.4767C171.445 53.7162 171.457 53.7332 171.232 53.8825C171.056 53.9988 170.869 54.0034 170.48 53.9003C169.849 53.7324 169.765 53.7301 169.765 53.881C169.765 53.9465 169.904 54.0373 170.075 54.0843C170.643 54.2383 170.52 54.4062 169.84 54.4062C169.443 54.4062 169.042 54.4878 168.848 54.6079C168.651 54.7296 168.43 54.7743 168.292 54.7196C167.995 54.6033 163.121 54.5579 163.178 54.6734C163.299 54.9152 161.937 54.9136 160.775 54.6703C158.422 54.1782 156.42 53.8987 155.128 53.881C154.414 53.8718 153.34 53.7847 152.74 53.687C151.951 53.5649 151.159 53.4617 150.367 53.3774C149.661 53.305 149.054 53.2234 149.017 53.1957C148.981 53.1687 148.601 53.1094 148.173 53.064C147.792 53.0247 147.411 52.9792 147.031 52.9277C146.615 52.8653 144.721 52.7344 143.345 52.6728C142.168 52.614 140.991 52.5218 139.816 52.3964C139.473 52.3579 138.142 52.3024 136.857 52.2732C135.572 52.2424 134.054 52.17 133.483 52.1115C132.913 52.0545 131.334 52.0121 129.974 52.0191C127.919 52.0298 127.487 52.0645 127.405 52.2216C127.321 52.3833 127.292 52.3841 127.214 52.2324C127.151 52.1122 127.018 52.0783 126.813 52.1284C126.644 52.1707 126.455 52.1415 126.393 52.0637C126.33 51.9867 126.125 51.9105 125.937 51.8958C125.751 51.8818 125.567 51.8472 125.386 51.7927C124.764 51.564 124.116 51.4977 123.854 51.6356C123.645 51.7465 123.122 51.6156 123.194 51.4708C123.221 51.4169 122.721 51.3576 122.082 51.3391C120.364 51.2875 120.186 51.2644 119.991 51.0642C119.833 50.9017 119.818 50.9094 119.849 51.132C119.873 51.3014 119.834 51.3676 119.728 51.3368C119.6 51.3062 119.47 51.2899 119.339 51.2883C119.21 51.2867 119.106 51.2413 119.106 51.1866C119.106 51.1327 119.03 51.0527 118.938 51.0088C118.816 50.951 118.787 50.9841 118.833 51.1304C118.876 51.269 118.855 51.2998 118.767 51.2305C118.696 51.1743 118.195 51.1104 117.652 51.0881C116.511 51.0419 116.681 51.0419 111.32 51.065C109.064 51.0758 106.931 51.0419 106.577 50.9911C106.224 50.9395 105.857 50.9348 105.761 50.981C105.584 51.065 102.193 51.2305 101.151 51.2067C100.336 51.1874 99.4124 51.7811 99.9263 51.9936C100.003 52.0244 99.9494 52.1161 99.7965 52.217C99.654 52.3094 99.5114 52.4349 99.4796 52.4942C99.3649 52.7098 98.4831 52.8307 98.2334 52.6643C98.0752 52.5596 97.6575 52.5227 97 52.5535C96.4531 52.5796 94.6565 52.632 93.0083 52.669C91.3594 52.7067 89.8972 52.7722 89.7581 52.8153C89.6197 52.8584 89.0305 52.9031 88.4488 52.9138C87.8671 52.9246 87.2976 52.9985 87.1835 53.0779C86.9796 53.2203 86.0167 53.4536 85.8556 53.3997C85.6569 53.3343 85.2879 53.3504 84.9519 53.4405C84.752 53.4944 84.4947 53.5283 84.3806 53.5168C84.2665 53.5052 84.0793 53.4852 83.9652 53.4721C83.8511 53.4598 83.314 53.5183 82.7718 53.6007C82.2295 53.6839 81.5835 53.7509 81.3367 53.7493C81.0899 53.7478 80.8327 53.8017 80.7655 53.8687C80.6983 53.9357 80.4915 54.0304 80.3061 54.0797C80.0297 54.1528 79.9689 54.1297 79.9689 53.9511C79.9689 53.7586 79.8831 53.7432 79.2157 53.8248C78.8021 53.8748 77.7158 53.9287 76.8027 53.9449C75.8891 53.9619 74.8897 54.0427 74.5821 54.1259C74.38 54.1837 74.1768 54.2341 73.9726 54.2768C73.9448 54.2768 73.9802 54.3638 74.0514 54.4701C74.1227 54.5764 74.3388 54.6626 74.5311 54.6626C74.724 54.6626 74.8822 54.6872 74.8822 54.7165C74.8822 54.7465 74.9106 54.8628 74.9448 54.9745C75.0317 55.2532 74.7391 55.2394 74.5085 54.9537C74.3776 54.792 74.3156 54.7743 74.2843 54.8905C74.2611 54.9783 74.1986 55.0176 74.1464 54.9783C74.0943 54.9383 74.0514 54.9521 74.0514 55.0091C74.0514 55.0669 73.9466 55.1208 73.8179 55.1292C73.6893 55.1377 72.9773 55.2109 72.2346 55.2909C71.493 55.371 69.9977 55.4596 68.9126 55.4881C67.8281 55.5158 66.8235 55.5712 66.681 55.6097C66.1972 55.7407 63.538 56.0464 62.1134 56.1334C59.4727 56.2951 57.4711 56.7633 57.0586 57.3154C56.9294 57.4879 56.7017 57.6272 56.5383 57.6342C55.1948 57.6881 53.3293 57.8613 52.5107 58.0084C52.0666 58.0843 51.6214 58.148 51.1753 58.1994C50.7622 58.246 50.3506 58.313 49.9413 58.4004C49.6545 58.4681 49.4025 58.5236 49.3822 58.5236C49.3614 58.5236 49.3446 58.3749 49.3446 58.194C49.3446 58.013 49.2994 57.8991 49.2437 57.9414Z" fill="#FCC419"/>
<path fill-rule="evenodd" clip-rule="evenodd" d="M130.503 0.542812C130.551 0.507339 130.653 0.647964 130.727 0.853207C130.806 1.07111 130.927 1.22821 131.016 1.22821C131.138 1.22821 131.147 1.25989 131.062 1.37708C130.98 1.4911 130.984 1.53607 131.075 1.57154C131.168 1.60765 131.164 1.65833 131.055 1.81036C130.951 1.95795 130.945 2.01433 131.033 2.04854C131.096 2.07261 131.147 2.13912 131.147 2.19613C131.147 2.25314 131.106 2.27025 131.056 2.23414C131.005 2.1974 130.989 2.24047 131.02 2.33422C131.051 2.42481 131.028 2.49893 130.97 2.49893C130.894 2.49893 130.892 2.55593 130.964 2.7105C131.042 2.88026 131.034 2.92207 130.918 2.92207C130.801 2.92207 130.795 2.94931 130.888 3.06397C131.007 3.2103 131.237 3.07917 131.207 2.88216C131.199 2.83149 131.241 2.76878 131.3 2.74407C131.371 2.71367 131.389 2.77828 131.354 2.93221C131.325 3.06144 131.339 3.14125 131.385 3.11021C131.431 3.07981 131.55 3.08931 131.651 3.13238C131.796 3.19383 131.753 3.22614 131.445 3.28695C131.202 3.33509 131.055 3.41997 131.055 3.51309C131.055 3.59544 130.975 3.66259 130.877 3.66259C130.779 3.66259 130.643 3.7557 130.574 3.86972C130.45 4.07307 129.983 4.35115 129.832 4.31124C129.789 4.30047 129.521 4.35875 129.236 4.44173C128.876 4.54033 128.511 4.6156 128.145 4.66725C127.83 4.70842 127.549 4.78507 127.521 4.83765C127.492 4.89022 127.379 4.93393 127.268 4.9352C127.158 4.93647 126.82 5.07836 126.518 5.25066C126.215 5.42233 125.898 5.56422 125.813 5.56549C125.727 5.56676 125.632 5.61617 125.601 5.67381C125.57 5.73209 125.591 5.77959 125.648 5.77959C125.775 5.77959 125.73 6.25278 125.601 6.26355C125.55 6.26735 125.328 6.3307 125.107 6.40292C124.886 6.47639 124.605 6.50743 124.482 6.47133C124.359 6.43586 124.127 6.45359 123.967 6.5106C123.807 6.56762 123.446 6.6658 123.164 6.72978C122.392 6.90398 121.98 7.04967 121.98 7.14786C121.98 7.25048 126.683 7.17953 127.847 7.05918C128.46 6.99583 128.694 7.01357 128.947 7.14026C129.123 7.22894 129.289 7.30812 129.314 7.31699C129.339 7.32523 129.48 7.38984 129.627 7.45952C129.775 7.52983 129.96 7.55834 130.04 7.52287C130.119 7.48676 131.34 7.44052 132.752 7.41961C134.163 7.39871 135.504 7.3341 135.731 7.27645C135.957 7.21817 136.637 7.11555 137.241 7.04841C137.845 6.98 138.419 6.87611 138.515 6.81656C138.612 6.75702 138.892 6.73041 139.138 6.75765C139.385 6.78552 139.608 6.76589 139.636 6.71521C139.663 6.66454 139.723 6.6506 139.771 6.68354C139.817 6.71711 139.855 6.69431 139.855 6.63286C139.855 6.57078 139.886 6.53024 139.925 6.54164C140.077 6.58788 140.864 6.39595 140.864 6.3117C140.864 6.20844 141.557 6.03678 141.818 6.07479C141.915 6.08936 142.071 6.0051 142.166 5.88728C142.26 5.77009 142.408 5.66811 142.495 5.66114C142.581 5.6548 142.899 5.63834 143.202 5.62566C143.504 5.613 143.916 5.54838 144.118 5.48124C144.32 5.41346 144.641 5.33174 144.831 5.29943C145.022 5.26649 145.155 5.19808 145.128 5.1474C145.042 4.98777 145.246 4.94597 146.839 4.79647C146.924 4.78824 146.985 4.73629 146.977 4.68118C146.968 4.62607 147.043 4.55323 147.144 4.51902C147.289 4.45855 147.428 4.37667 147.558 4.27514C147.725 4.14401 148.072 4.0737 148.796 4.02492C149.349 3.98755 149.897 3.96157 150.014 3.96791C150.13 3.97424 150.352 3.9033 150.507 3.81081C150.667 3.71579 150.813 3.68476 150.845 3.73987C150.924 3.87543 151.247 4.00592 151.176 3.87289C151.102 3.73353 151.191 3.74113 151.435 3.8938C151.927 4.20229 154.26 3.96791 154.503 3.58594C154.578 3.46748 154.587 3.38767 154.526 3.36423C154.474 3.34396 154.431 3.28568 154.431 3.23373C154.431 3.18243 154.489 3.16596 154.559 3.19699C154.63 3.22867 154.715 3.20333 154.748 3.14061C154.837 2.97465 154.288 2.99872 153.991 3.17419C153.855 3.25464 153.558 3.35536 153.331 3.39843C153.104 3.44087 152.846 3.49155 152.758 3.51056C152.67 3.52956 152.598 3.48269 152.598 3.40604C152.598 3.30785 152.484 3.27808 152.208 3.30278C151.907 3.33002 151.855 3.31355 151.981 3.2293C152.07 3.16976 152.122 3.08234 152.097 3.03483C152.043 2.93348 152.556 2.83086 153.548 2.74534C154.105 2.69783 154.287 2.71684 154.348 2.82896C154.407 2.93475 154.429 2.93855 154.43 2.84226C154.432 2.64779 154.983 2.67946 155.18 2.88533C155.272 2.98162 155.348 3.01583 155.348 2.96072C155.348 2.8999 155.645 2.88913 156.104 2.93284C156.52 2.97338 157.17 3.0323 157.548 3.06397C157.926 3.09564 158.371 3.17799 158.537 3.24577C158.702 3.31292 158.94 3.34586 159.066 3.31798C159.191 3.29074 159.32 3.31672 159.352 3.37563C159.387 3.44214 159.363 3.45101 159.29 3.39843C159.215 3.34522 159.192 3.35409 159.228 3.4225C159.297 3.55173 159.735 3.66829 160.252 3.69616C160.557 3.71263 160.62 3.7538 160.629 3.9432C160.638 4.14591 160.574 4.17885 160.033 4.2517C159.699 4.29604 159.324 4.32264 159.198 4.30997L158.969 4.28717L159.212 4.4392C159.634 4.70398 160.045 4.81611 160.848 4.88389C161.277 4.91999 161.895 5.02768 162.223 5.1227C162.977 5.34124 165.592 5.35835 165.706 5.14487C165.745 5.07163 165.823 5.0472 165.885 5.08849C166.039 5.19808 167.726 5.23419 167.668 5.12777C167.615 5.02705 167.628 5.02578 168.827 4.98334C169.674 4.95357 170.031 4.91746 171.298 4.73313C171.876 4.64951 172.214 4.69765 172.544 4.9105C172.683 5.00045 172.653 5.05112 172.319 5.29373C172.051 5.4901 171.723 5.60476 171.228 5.67698C170.382 5.8005 169.575 5.9557 168.994 6.10772C168.646 6.19831 168.577 6.25406 168.613 6.41495C168.639 6.53024 168.711 6.58852 168.786 6.55431C168.857 6.52327 168.915 6.55051 168.915 6.61512C168.915 6.67974 168.843 6.73295 168.755 6.73358C168.617 6.73485 168.614 6.75005 168.732 6.8381C168.819 6.90271 168.828 6.94135 168.757 6.94199C168.696 6.94325 168.669 7.01547 168.699 7.10352C168.736 7.21437 168.644 7.31763 168.398 7.44432L168.044 7.62548L168.939 7.68883C169.42 7.72392 169.902 7.74188 170.383 7.74268C170.685 7.73634 170.931 7.73761 170.931 7.74521C170.931 7.75218 170.85 7.8681 170.748 8.00239C170.647 8.13668 170.565 8.21397 170.565 8.17469C170.565 8.13542 170.472 8.17342 170.358 8.25957C170.245 8.34509 169.846 8.47052 169.472 8.53703C169.099 8.60418 168.63 8.7258 168.43 8.80688C168.204 8.89403 167.97 8.94512 167.734 8.95891C167.224 8.96461 165.938 9.35038 166.31 9.38649C166.4 9.40013 166.489 9.41916 166.577 9.44351C166.676 9.46952 166.774 9.49507 166.872 9.52015C167.082 9.57336 167.095 9.67598 166.902 9.74693C166.796 9.78621 166.601 9.93317 166.469 10.0744C166.337 10.2157 166.138 10.331 166.025 10.331C165.913 10.331 165.774 10.3962 165.716 10.4767C165.63 10.5958 165.705 10.6344 166.14 10.6914C166.409 10.7261 166.676 10.7662 166.944 10.8118C167.304 10.8789 168.736 10.8694 168.834 10.7991C168.967 10.7041 170.015 10.6597 170.015 10.7484C170.015 10.7959 169.953 10.8935 169.877 10.9657C169.802 11.0385 169.74 11.1475 169.74 11.2083C169.74 11.2691 169.767 11.2875 169.8 11.2489C169.833 11.2108 169.916 11.2324 169.983 11.297C170.051 11.3622 170.106 11.3698 170.106 11.3141C170.106 11.2584 170.169 11.2127 170.244 11.2127C170.464 11.2127 170.404 11.3261 170.101 11.4807C169.761 11.6549 169.809 11.7277 170.358 11.8652C170.859 11.9919 170.954 12.1883 170.595 12.3555C170.224 12.5284 168.48 12.7527 167.483 12.7559C167.015 12.7571 166.524 12.7901 166.39 12.8287L166.146 12.899L166.407 13.1461C166.552 13.2816 166.739 13.3944 166.824 13.3963C167.041 13.402 167.107 13.5698 166.991 13.8213C166.868 14.0874 166.07 14.5644 165.75 14.5644C165.615 14.5644 165.537 14.61 165.569 14.6702C165.6 14.7284 165.701 14.7759 165.794 14.7759C165.949 14.7759 166.121 15.0401 166.088 15.2257C166.053 15.4145 167.507 15.2035 167.629 15.0021C167.722 14.8488 170.063 14.4465 170.293 14.5454L170.512 14.6385L170.299 14.7702C170.182 14.8431 169.42 15.03 168.607 15.1871C167.118 15.4734 166.755 15.6754 167.731 15.6754C168.031 15.6754 168.306 15.7363 168.396 15.8211C168.524 15.9428 168.7 15.9459 169.443 15.8414C170.809 15.6488 171.602 15.5165 171.788 15.4506C171.911 15.4069 171.948 15.4379 171.926 15.5671C171.892 15.7546 171.609 15.9744 171.164 16.1581C170.781 16.3159 171.019 16.4546 171.508 16.3596C171.721 16.3178 172.08 16.2506 172.307 16.2095L172.719 16.1353L172.376 16.5154C172.186 16.7245 172.032 16.9126 172.032 16.9335C172.032 16.9544 172.288 17.0051 172.6 17.0456C173.34 17.1425 173.735 17.3813 173.73 17.7291C173.727 17.9128 173.134 18.158 172.582 18.2042C172.355 18.2238 171.839 18.3151 171.436 18.4075C171.033 18.5 170.414 18.5976 170.061 18.6236C169.662 18.6558 169.264 18.7089 168.869 18.7826C166.991 19.1633 166.568 19.2576 166.487 19.3109C166.437 19.3438 166.581 19.423 166.807 19.4863C167.035 19.5503 167.219 19.6637 167.219 19.741C167.219 19.919 166.295 20.306 165.456 20.4789C165.049 20.5632 164.747 20.688 164.648 20.8147C164.56 20.9274 164.253 21.0693 163.949 21.1384C163.26 21.2948 163.279 21.4437 164.027 21.763C164.188 21.8314 164.301 21.9422 164.278 22.01C164.226 22.1627 163.801 22.3964 163.574 22.3964C163.481 22.3964 163.429 22.4446 163.461 22.5022C163.491 22.5605 163.824 22.6086 164.199 22.6086C164.817 22.6086 165.065 22.7163 164.767 22.8557C164.5 22.9805 165.837 22.9127 166.498 22.7689C167.321 22.589 167.769 22.6644 167.769 22.9817C167.769 23.1287 167.529 23.3206 166.869 23.7045C166.247 24.0662 166.007 24.2556 166.09 24.3177C166.249 24.4355 166.092 24.5565 165.477 24.7909C164.61 25.1222 163.921 25.6765 164.012 25.9723C164.073 26.1737 163.735 26.2839 162.337 26.5171C161.643 26.633 160.947 26.8008 160.792 26.8908C160.636 26.9795 160.307 27.0808 160.06 27.1157C159.378 27.2101 158.075 27.5908 157.871 27.7548C157.772 27.8346 157.566 27.9037 157.413 27.9081C157.26 27.9119 157.053 27.9563 156.952 28.0063C156.806 28.0785 156.843 28.1001 157.135 28.1127C157.917 28.1463 158.331 28.235 158.435 28.3914C158.505 28.4985 158.616 28.5308 158.756 28.4865C158.939 28.4295 158.946 28.4358 158.807 28.5371C158.718 28.6011 158.573 28.6404 158.486 28.6239C158.389 28.6091 158.291 28.6296 158.204 28.6828C158.131 28.7354 157.988 28.7145 157.854 28.6322C157.678 28.5232 157.59 28.52 157.455 28.6176C157.345 28.6968 157.261 28.7044 157.226 28.6391C157.195 28.5821 156.935 28.534 156.649 28.5314C156.362 28.5295 156.024 28.4599 155.898 28.3769C155.623 28.1957 155.531 28.1824 155.531 28.3237C155.531 28.3819 155.596 28.4295 155.674 28.4295C155.753 28.4295 155.795 28.4719 155.766 28.5232C155.739 28.5752 155.803 28.6436 155.909 28.6752C156.014 28.7069 156.083 28.7956 156.061 28.8722C156.02 29.0135 155.61 29.0965 154.34 29.2194C153.192 29.3309 152.873 29.3904 152.873 29.4943C152.873 29.5494 152.934 29.5937 153.01 29.5937C153.087 29.5937 153.148 29.6881 153.148 29.8053C153.148 29.9605 153.086 30.0169 152.918 30.0169C152.655 30.0169 152.61 30.1803 152.853 30.2538C152.943 30.281 153.407 30.2779 153.885 30.2468C155.274 30.1563 155.83 30.186 156.12 30.3678C156.268 30.4603 156.415 30.5167 156.448 30.4939C156.48 30.4705 156.489 30.5857 156.468 30.7498C156.423 31.1071 156.552 31.1628 157.493 31.1932C158.056 31.211 158.1 31.2268 157.904 31.344C157.582 31.5366 156.401 31.8127 155.696 31.8609C155.336 31.8856 154.996 31.9724 154.874 32.0712C154.613 32.2815 154.457 32.2847 154.281 32.0813C154.201 31.9895 153.98 31.923 153.76 31.9249C153.081 31.9287 150.546 32.2264 150.201 32.3429C149.88 32.4506 149.87 32.4684 149.938 32.8155C149.981 33.034 149.971 33.219 149.914 33.2855C149.848 33.3615 149.851 33.4401 149.923 33.5395C150.141 33.8442 149.863 33.9069 148.525 33.8563C147.486 33.8164 147.161 33.8379 146.951 33.9621C146.728 34.0938 145.721 34.275 145.035 34.3073C144.934 34.3124 144.645 34.3586 144.393 34.4105L143.935 34.5056L144.347 34.5822C144.574 34.6247 145.255 34.6348 145.86 34.605C146.501 34.5745 147.143 34.5612 147.785 34.5651C148.239 34.5733 149.125 34.5018 149.756 34.4067C151.003 34.2192 152.289 34.0881 152.843 34.0919C153.036 34.0932 153.22 34.0526 153.251 34.002C153.283 33.9513 153.438 33.9038 153.595 33.8962C153.752 33.8886 153.881 33.843 153.881 33.7948C153.881 33.7467 153.974 33.7378 154.087 33.7746C154.249 33.8265 154.264 33.817 154.156 33.7302C154.038 33.6346 154.041 33.6187 154.179 33.6175C154.267 33.6162 154.34 33.563 154.34 33.4977C154.34 33.4255 154.427 33.4458 154.565 33.5509C154.816 33.741 154.926 33.7701 154.85 33.6276C154.822 33.5763 154.882 33.5091 154.982 33.4787C155.086 33.4471 155.164 33.4762 155.164 33.5465C155.164 33.6175 155.309 33.6688 155.508 33.6688C155.726 33.6688 155.844 33.6225 155.83 33.5414C155.815 33.454 155.915 33.43 156.148 33.4642C156.529 33.5212 156.906 33.767 156.908 33.9621C156.909 34.0457 156.941 34.0349 156.998 33.9336C157.067 33.81 157.087 33.8411 157.088 34.0729C157.09 34.4543 156.939 34.7799 156.76 34.7799C156.683 34.7799 156.646 34.8274 156.677 34.8856C156.708 34.9439 156.659 34.9952 156.568 34.9997C156.266 35.0149 156.074 35.0788 155.87 35.2334C155.687 35.3715 155.256 35.3183 155.256 35.1574C155.256 35.1283 155.312 35.1289 155.379 35.1587C155.447 35.1884 155.56 35.1302 155.631 35.0294C155.742 34.8711 155.742 34.8584 155.63 34.9357C155.53 35.0054 155.515 34.9819 155.564 34.8324C155.603 34.7165 155.582 34.6038 155.511 34.5518C155.336 34.4239 155.188 34.4479 155.347 34.579C155.451 34.6639 155.398 34.6779 155.133 34.6354C154.939 34.6038 154.706 34.6329 154.613 34.6994C154.486 34.7913 154.414 34.7894 154.311 34.6918C154.203 34.5879 154.164 34.5993 154.107 34.7507C154.067 34.8546 154.042 34.9743 154.05 35.018C154.058 35.0624 154.006 35.0978 153.934 35.0978C153.863 35.0978 153.789 35.1523 153.77 35.2182C153.75 35.2854 153.614 35.3544 153.466 35.3728C153.317 35.3911 153.151 35.4786 153.094 35.5679C153.038 35.6566 152.959 35.6946 152.918 35.6515C152.877 35.609 152.869 35.6578 152.901 35.7592C152.972 35.9872 152.797 36.0088 152.721 35.7813C152.673 35.6363 152.647 35.6382 152.495 35.7972C152.332 35.9676 152.322 35.9663 152.321 35.7756C152.32 35.6065 152.305 35.5995 152.231 35.7326C152.098 35.9695 152.117 36.0208 152.363 36.0917C152.518 36.1374 152.582 36.2248 152.572 36.38C152.556 36.627 152.236 36.8113 151.868 36.7866C151.525 36.7632 151.222 36.8994 151.222 37.0774C151.222 37.1914 151.131 37.225 150.879 37.2041C150.509 37.1724 149.888 37.2915 149.664 37.4366C149.553 37.5081 149.562 37.5272 149.71 37.5341C149.924 37.5484 150.138 37.5674 150.352 37.5911C151.131 37.676 152.168 37.6735 152.542 37.5861C152.799 37.5259 152.881 37.536 152.835 37.6222C152.796 37.6957 152.82 37.7197 152.9 37.6842C152.976 37.6507 153.097 37.7476 153.194 37.9186C153.312 38.1264 153.327 38.2214 153.248 38.2518C153.174 38.2803 153.192 38.3437 153.303 38.4438C153.454 38.5806 153.444 38.5888 153.194 38.5388C153.042 38.5084 152.97 38.5115 153.033 38.5451C153.265 38.6718 153.137 38.8023 152.781 38.8023C152.55 38.8023 152.414 38.7535 152.412 38.6693C152.412 38.5724 152.391 38.5755 152.333 38.6813C152.283 38.7713 152.232 38.7846 152.196 38.7168C152.135 38.6021 152.018 38.611 151.731 38.7529C151.633 38.801 151.417 38.8441 151.252 38.8479C150.872 38.8568 150.748 39.1197 151.124 39.1197C151.273 39.1197 151.409 39.1887 151.439 39.278C151.475 39.3857 151.435 39.437 151.316 39.437C151.219 39.437 151.107 39.4966 151.067 39.57C150.962 39.7595 150.588 39.9837 150.492 39.9153C150.447 39.8836 150.384 39.9051 150.353 39.9647C150.321 40.0236 150.181 40.0724 150.042 40.0724C149.903 40.0724 149.565 40.1497 149.291 40.244C148.859 40.3935 148.821 40.4277 148.997 40.5038C149.109 40.5525 149.874 40.5861 150.698 40.5779C151.521 40.5696 152.249 40.6019 152.315 40.6488C152.383 40.6976 152.462 40.6837 152.497 40.6172C152.571 40.4797 155.421 40.3752 155.492 40.5076C155.517 40.5538 155.601 40.5639 155.679 40.5291C155.776 40.4867 155.788 40.4423 155.718 40.3929C155.662 40.3524 155.741 40.3194 155.894 40.3194C156.048 40.3194 156.173 40.3644 156.173 40.4208C156.173 40.4759 156.236 40.4613 156.312 40.3878C156.389 40.3137 156.481 40.2878 156.517 40.3289C156.553 40.3701 156.48 40.4943 156.355 40.6045L156.127 40.8047L156.356 40.754C156.557 40.7096 156.562 40.7153 156.402 40.8034C156.138 40.9491 155.703 40.9332 155.448 40.7704C155.2 40.6121 154.89 40.664 154.89 40.8648C154.89 40.9573 154.708 40.9985 154.294 41.001C153.92 41.0036 153.698 40.9618 153.698 40.8889C153.698 40.8249 153.646 40.8509 153.583 40.9459C153.501 41.0713 153.252 41.1385 152.689 41.1873C152.261 41.2253 151.65 41.3228 151.331 41.4045C151.013 41.4869 150.621 41.5585 150.461 41.5642C150.3 41.5699 149.962 41.6395 149.71 41.7187C149.28 41.8543 149.329 41.86 150.489 41.8055C151.17 41.7738 151.789 41.7472 151.864 41.746C151.94 41.7453 152.889 41.6326 153.972 41.4964C155.057 41.3596 156.239 41.2335 156.599 41.2158C156.959 41.198 157.235 41.148 157.213 41.1043C157.189 41.0599 157.348 41.0245 157.566 41.0245C157.783 41.0245 158.331 40.9548 158.785 40.8705C159.563 40.7261 161.394 40.5766 161.145 40.6786C161.082 40.7039 161.053 40.7692 161.082 40.8224C161.11 40.8756 161.018 40.9212 160.876 40.9237C160.734 40.9269 160.475 41.0194 160.298 41.1296C160.122 41.2405 159.894 41.3754 159.794 41.4292C159.462 41.6079 154.056 42.6404 152.781 42.769C152.403 42.807 151.309 42.9324 150.352 43.0477C149.394 43.163 148.129 43.3036 147.542 43.36C146.955 43.417 146.275 43.5317 146.033 43.6159C145.714 43.7268 145.575 43.7363 145.528 43.6514C145.471 43.5437 144.506 43.5729 143.339 43.7186C142.927 43.7611 142.514 43.7966 142.101 43.825C141.197 43.8902 139.819 44.11 139.047 44.3115C138.829 44.3685 138.612 44.3875 138.565 44.3539C138.518 44.3197 137.879 44.3976 137.146 44.5256C136.061 44.7156 135.773 44.7346 135.603 44.6295C135.431 44.523 135.211 44.5408 134.393 44.727C133.031 45.0374 131.254 45.4403 130.368 45.6392C129.964 45.7304 129.379 45.8723 129.066 45.9553C128.753 46.0376 128.361 46.1048 128.195 46.1048C128.029 46.1048 127.707 46.1726 127.48 46.2568C127.098 46.3981 126.315 46.5545 124.226 46.9086C123.428 47.0369 122.634 47.1911 121.842 47.3711C121.339 47.4813 120.513 47.6498 120.009 47.7454L118.817 47.9735C117.747 48.1775 117.543 48.1736 117.33 47.945C117.216 47.8221 117.122 47.6675 117.122 47.601C117.122 47.5351 117.091 47.487 117.053 47.4933C117.015 47.5003 116.889 47.5003 116.775 47.4933C116.599 47.4832 116.58 47.449 116.657 47.283C116.769 47.041 116.679 46.9105 116.511 47.0714C116.322 47.2526 116.365 47.0898 116.583 46.801C116.697 46.6496 116.926 46.514 117.137 46.4728C117.444 46.4126 117.48 46.3797 117.381 46.2422C117.233 46.0364 117.358 46.0237 111.484 46.844C111.081 46.901 110.358 46.9694 109.88 46.9973C109.401 47.0258 108.534 47.0987 107.954 47.1595C107.375 47.2209 106.612 47.29 106.259 47.3134C105.906 47.3362 105.454 47.4046 105.255 47.4648C105.055 47.525 104.264 47.5776 103.497 47.5807C102.73 47.5845 102.047 47.6086 101.98 47.6346C101.815 47.6986 99.6672 47.8284 99.1561 47.8056C98.93 47.7948 98.6819 47.7207 98.6047 47.6403C98.4323 47.4597 97.9923 47.442 95.9459 47.5307C95.0051 47.5719 94.1416 47.665 93.8581 47.7562C93.4878 47.8753 92.8738 47.9082 91.2455 47.8956C90.0744 47.8854 88.1263 47.9146 86.9164 47.9583C84.4644 48.047 84.5953 48.0482 82.0579 47.9209C80.4152 47.8386 79.4672 47.8354 78.0245 47.9063C77.7723 47.919 77.6383 47.9507 77.7268 47.9773C77.8148 48.0039 77.8869 48.0755 77.8869 48.1363C77.8869 48.2091 77.6296 48.2262 77.1308 48.1857C76.7149 48.1515 75.4671 48.0755 74.358 48.0166C73.2483 47.9576 71.8256 47.8601 71.1953 47.8012C68.663 47.5605 67.6976 47.4762 66.3823 47.3793C63.0938 47.1367 61.3601 47.0404 59.5531 46.9992C58.7213 46.9796 57.6899 46.9314 57.2612 46.8915C56.7884 46.8501 56.3145 46.8294 55.8405 46.8295C55.4875 46.8345 54.7867 46.7914 54.2822 46.7344C53.7778 46.6774 52.1453 46.6096 50.6536 46.5837C49.1623 46.5583 47.7595 46.4912 47.537 46.4342C47.3139 46.3772 46.808 46.305 46.4115 46.2739C46.0155 46.2422 45.5622 46.1916 45.4036 46.1618C44.8614 46.0592 44.0152 45.9901 42.7777 45.9464C41.688 45.9071 40.629 45.814 39.0651 45.6196C38.8129 45.5879 38.4624 45.5499 38.2859 45.5334C38.1094 45.5169 37.6557 45.4732 37.2776 45.4359C36.899 45.3978 36.2595 45.3389 35.8569 45.3028C35.4533 45.2674 35.1028 45.2236 35.0778 45.2059C35.0522 45.1875 34.7969 45.1445 34.5099 45.109C34.2234 45.0741 33.9282 45.0184 33.8551 44.9855C33.7809 44.9532 33.3553 44.912 32.9091 44.8949C31.6839 44.8467 31.6854 44.8474 31.6854 44.6763C31.6854 44.5889 31.6419 44.518 31.5882 44.518C31.535 44.518 31.5217 44.5731 31.5575 44.6415C31.6031 44.7257 31.5729 44.7429 31.4639 44.6941C31.3759 44.6554 31.2132 44.6231 31.1017 44.6231C30.9651 44.6231 30.895 44.5547 30.8858 44.4116C30.8695 44.1582 30.9191 44.1468 31.1027 44.359C31.2946 44.5807 31.5094 44.5636 31.445 44.3324C31.4133 44.2183 31.423 44.193 31.4706 44.2652C31.5233 44.3457 31.7816 44.3609 32.2814 44.3127C33.1419 44.2304 33.7911 44.2526 34.9857 44.4078C35.4645 44.4705 36.0836 44.5471 36.3608 44.5782C36.6381 44.6098 36.9133 44.6535 36.9722 44.6757C37.031 44.6979 37.1031 44.644 37.1323 44.5553C37.1717 44.4363 37.2587 44.4135 37.4679 44.4667C37.7964 44.5496 38.0071 44.5813 38.8819 44.6782C39.2349 44.7175 39.548 44.7669 39.5782 44.7885C39.6427 44.8341 40.8684 44.8417 42.5485 44.8075C43.6141 44.7847 44.3656 44.8455 44.9263 44.9988C45.2425 45.0849 47.4526 45.1223 47.4526 45.0412C47.4526 44.9994 47.1742 44.931 46.8335 44.8892C46.4938 44.8467 46.1327 44.7942 46.0319 44.7707C45.3244 44.6098 43.4305 44.4287 41.907 44.378C41.554 44.3653 41.2214 44.3235 41.1682 44.2842C41.0797 44.219 38.2726 43.9662 38.1217 44.0099C38.0859 44.0207 37.7472 43.996 37.3692 43.9548C36.7844 43.8921 35.2916 43.7654 34.9171 43.7471C34.7816 43.7407 34.7657 43.6039 34.89 43.5152C34.979 43.4519 35.6702 43.4367 36.2953 43.4848C36.4862 43.5 36.676 43.5748 36.7169 43.6514C36.7726 43.7547 36.9302 43.7718 37.3323 43.7192C37.6301 43.6793 37.9007 43.628 37.9345 43.6052C37.9682 43.5817 38.0588 43.6349 38.135 43.7236C38.2118 43.8123 38.2962 43.8433 38.3228 43.7933C38.3744 43.697 40.2249 43.7382 40.761 43.8478C40.9375 43.8839 41.2485 43.9238 41.4521 43.9352C41.6558 43.9479 41.9136 44.0131 42.0251 44.0822C42.1868 44.1822 42.2277 44.1791 42.2277 44.0663C42.2277 43.9827 42.3505 43.9137 42.5255 43.8972C43.2504 43.8294 44.2649 43.8357 45.0696 43.913C45.6477 43.9688 45.8948 43.9618 45.8053 43.8921C45.4441 43.6134 46.1224 43.4753 47.1778 43.6134C48.114 43.7363 48.2808 43.7426 48.6855 43.6717C48.8942 43.6349 49.1868 43.6425 49.3362 43.6888C49.7286 43.8104 51.7693 44.0251 52.6779 44.041C53.1369 44.0503 53.5956 44.0791 54.0531 44.1271C54.3805 44.167 55.0404 44.2241 55.5198 44.2538C56.3605 44.3135 57.2007 44.3834 58.0404 44.4635C59.0395 44.5561 60.0396 44.6317 61.0403 44.6903C62.2497 44.7536 62.396 44.7435 62.4487 44.5851C62.4983 44.435 62.658 44.4097 63.5282 44.4135C64.0899 44.416 64.735 44.3792 64.9616 44.3324L65.374 44.2462L64.6864 44.1284C64.3083 44.0632 63.8546 44.0112 63.6786 44.0131C63.5016 44.015 62.7797 43.9422 62.0742 43.8522C61.3682 43.7623 60.0279 43.6349 59.0947 43.5703C58.1621 43.5051 57.3073 43.4291 57.1952 43.4012C57.0827 43.3733 56.1547 43.3043 55.1325 43.2473C53.2954 43.1459 52.0077 43.0623 51.028 42.9825C50.7508 42.9597 49.7992 42.8932 48.9142 42.8342C48.0286 42.7753 47.2449 42.7057 47.1722 42.6797C47.0996 42.6543 46.9573 42.5967 46.8571 42.553C46.7563 42.5087 46.5148 42.4592 46.3209 42.4434C46.1275 42.4269 45.9209 42.3383 45.8625 42.2458C45.7781 42.1127 45.5392 42.0728 44.7023 42.0507C44.1226 42.0355 43.6075 41.9937 43.5568 41.9582C43.5062 41.9227 43.1557 41.8651 42.7777 41.8315C40.9702 41.6681 39.1628 41.535 38.332 41.5046C37.8276 41.4863 36.7547 41.3881 35.948 41.2867C35.1417 41.1854 34.1104 41.0859 33.6561 41.0663C30.5159 40.9332 28.0076 40.7641 26.6898 40.5988C26.236 40.5418 25.4405 40.4645 24.9222 40.4271C24.404 40.3891 23.9579 40.3182 23.9313 40.2688C23.9047 40.2187 24.0193 40.1737 24.1861 40.1693C24.3528 40.1649 24.6056 40.1509 24.7488 40.1389C24.8905 40.1275 25.0251 40.1509 25.0471 40.1921C25.0691 40.2326 25.2394 40.2174 25.4257 40.1585C25.6149 40.0984 26.0293 40.0812 26.3644 40.1205C26.6944 40.1585 28.4496 40.2092 30.2647 40.2314C32.0798 40.2542 34.2454 40.3036 35.0773 40.3416C36.5603 40.4081 36.9804 40.3669 36.0078 40.2504C35.7377 40.2187 35.4973 40.1687 35.4727 40.1408C35.4072 40.0648 35.7423 39.8785 36.0206 39.8355C36.3445 39.7848 36.4468 39.6511 36.17 39.6391C36.0477 39.6347 35.4118 39.5859 34.7565 39.5314C34.1012 39.4776 32.8125 39.4047 31.8916 39.3705C30.3793 39.3135 30.2187 39.2901 30.2187 39.1228C30.2187 38.8897 29.8504 38.8346 27.626 38.7358C26.7292 38.6959 25.9736 38.623 25.9475 38.5736C25.9214 38.5248 25.7188 38.4849 25.4978 38.4849C24.7447 38.4849 24.9555 38.1923 25.8815 37.9541C26.1424 37.887 26.4928 37.8407 26.6601 37.8515C27.7769 37.9231 27.4838 37.7147 26.2314 37.5462C25.727 37.4784 25.0261 37.4005 24.6731 37.372C24.3201 37.3435 23.6806 37.2731 23.2519 37.2149C22.8237 37.1572 21.9576 37.078 21.3268 37.04C20.5507 36.9925 20.1517 36.9254 20.0893 36.831C20.0386 36.755 19.7117 36.6619 19.3562 36.6238C19.0032 36.5858 18.6732 36.4972 18.6226 36.4256C18.5724 36.3546 18.2297 36.264 17.8618 36.2248C17.4935 36.1855 17.0996 36.0835 16.987 35.998C16.8571 35.8998 16.4606 35.8257 15.9142 35.7959C14.7365 35.7326 13.8136 35.6135 13.7625 35.5178C13.7088 35.4177 14.5114 35.2739 14.6347 35.362C14.6859 35.3981 14.7268 35.3823 14.7268 35.3272C14.7268 35.272 14.5826 35.196 14.4061 35.1574C14.0577 35.082 13.9917 34.9503 14.2454 34.8369C14.5452 34.7026 14.1257 34.4904 13.1833 34.2984C12.3919 34.1382 11.8916 33.9393 12.2563 33.9304C12.5991 33.9222 12.0701 33.7353 11.5197 33.6707C11.1923 33.6314 10.8766 33.5541 10.8183 33.4977C10.7595 33.442 10.451 33.3476 10.1317 33.2881C9.24567 33.1234 9.25539 32.9903 10.1594 32.9086C10.497 32.8782 10.8055 32.7876 10.8986 32.6913C11.0291 32.5571 11.1882 32.5406 11.7693 32.6033C12.9511 32.7306 13.1854 32.7059 13.3629 32.4348C13.4499 32.3018 13.5031 32.1599 13.4811 32.1187C13.4591 32.0782 13.1639 32.011 12.8237 31.9705C12.484 31.9299 12.1648 31.8596 12.1141 31.8134C12.064 31.7678 11.8266 31.6968 11.5872 31.6556C10.9298 31.5429 11.0649 31.3934 11.8241 31.3934C12.1934 31.3934 12.5275 31.3573 12.5659 31.3136C12.6037 31.2699 12.9884 31.2344 13.4202 31.2344C13.9661 31.2344 14.2173 31.1939 14.2444 31.102C14.2715 31.0114 14.1728 30.9696 13.9323 30.969C13.7389 30.969 13.4361 30.9246 13.2601 30.8714C13.0836 30.8182 12.5899 30.7447 12.1633 30.7074C11.7366 30.6706 11.3406 30.5959 11.2838 30.5414C11.2276 30.4869 11.1564 30.4705 11.1273 30.504C11.0976 30.5382 10.9779 30.5262 10.8607 30.4781C10.696 30.4103 10.7937 30.3748 11.289 30.3229C11.8737 30.2614 12.5408 30.1068 12.8933 29.951C13.1174 29.8522 12.769 29.7432 11.7248 29.5861C11.2081 29.5082 10.785 29.4164 10.785 29.3822C10.785 29.3473 10.517 29.3391 10.189 29.3632C9.71019 29.398 9.59355 29.3765 9.59355 29.2523C9.59355 29.0604 9.88361 28.7468 10.0591 28.7487C10.1665 28.75 10.1655 28.7677 10.0519 28.8532C9.93427 28.9407 9.93835 28.9559 10.0775 28.9571C10.1676 28.9584 10.2653 28.8849 10.2954 28.7943C10.3415 28.655 10.5078 28.6385 11.4158 28.686C12.5531 28.7449 12.8329 28.6746 12.6232 28.3832C12.2722 27.8955 10.8408 27.371 9.85651 27.371C9.26204 27.371 8.95151 27.243 8.95151 26.9972C8.95151 26.8743 9.09833 26.8426 9.66209 26.8452C10.0529 26.8458 10.5374 26.8971 10.739 26.9586C10.9411 27.02 11.8911 27.0916 12.8508 27.1182C14.5478 27.1644 14.5964 27.16 14.6097 26.9535C14.623 26.7495 14.5109 26.6032 14.3145 26.5665C14.2638 26.557 13.8684 26.4721 13.4356 26.3777C12.0185 26.0698 10.7605 25.8817 9.47281 25.7867C8.2803 25.698 7.87308 25.577 7.99637 25.3464C8.02451 25.2938 8.08693 25.2793 8.13553 25.3135C8.18362 25.3477 8.21175 25.3135 8.19794 25.2356C8.18361 25.1583 8.24397 25.1025 8.33197 25.1101C8.41945 25.1184 8.47163 25.088 8.44707 25.0424C8.42303 24.9974 8.54326 24.9296 8.71463 24.8929C9.08452 24.8124 9.172 24.6217 8.98271 24.3095C8.88193 24.1429 8.87068 24.0434 8.94281 23.9433C9.06099 23.7793 8.98373 23.6671 8.75352 23.6671C8.66042 23.6671 8.58469 23.6469 8.58469 23.6228C8.58469 23.5981 8.55757 23.4961 8.52432 23.3947C8.46805 23.2269 8.52945 23.2174 9.28046 23.2826C9.72963 23.3206 10.2525 23.3808 10.4418 23.4157C10.7149 23.4657 10.785 23.4448 10.785 23.313C10.785 23.2224 10.8515 23.1053 10.9329 23.0527C11.1426 22.9171 11.0168 22.3071 10.7538 22.1848C10.5656 22.0968 10.5645 22.0917 10.739 22.0784C10.9227 22.0645 10.9227 22.0645 10.739 21.9733C10.5599 21.8846 10.8106 21.8466 11.7478 21.82C12.1387 21.8092 12.4349 21.6667 12.4349 21.4899C12.4349 21.3949 12.5301 21.3379 12.6871 21.3366C12.842 21.3335 12.9962 21.3114 13.1475 21.2708C13.343 21.2106 13.346 21.1979 13.1936 21.0643C13.1041 20.9857 12.9184 20.9205 12.7802 20.9186C12.6421 20.9167 12.2574 20.7482 11.9249 20.5448C11.5893 20.339 11.1866 20.1743 11.0199 20.1743C10.4648 20.1743 9.59764 20.0393 9.64061 19.9595C9.66414 19.9158 9.61299 19.8873 9.52705 19.8949C9.44002 19.9016 9.36127 19.8313 9.33878 19.727C9.29683 19.4939 9.83809 19.0929 10.1174 19.1493C10.2289 19.1721 10.3353 19.1386 10.3538 19.0752C10.3967 18.9257 11.467 18.8833 11.8947 19.0144C12.0763 19.0701 13.015 19.1284 13.9799 19.1443C15.6119 19.1709 16.0933 19.117 15.4829 18.9751C15.3448 18.9434 15.0455 18.8687 14.8184 18.8092C14.5539 18.7447 14.2856 18.7072 14.0162 18.697C13.8024 18.6945 13.6269 18.6445 13.6269 18.5862C13.6269 18.5285 13.5624 18.4804 13.4837 18.4804C13.4044 18.4804 13.255 18.4284 13.1511 18.3645C12.9654 18.2492 12.9659 18.2466 13.1803 18.1231C13.5568 17.9065 13.4402 17.7025 12.8079 17.4707C12.484 17.3516 12.1991 17.1843 12.1755 17.1001C12.152 17.0152 12.0962 16.9183 12.0517 16.8847C11.9115 16.7783 12.0794 16.4521 12.2379 16.5224C12.3183 16.5579 12.3582 16.5572 12.3275 16.5217C12.2968 16.4863 12.3751 16.3368 12.5024 16.1898C12.6697 15.9972 12.8416 15.9181 13.1255 15.9054C13.3414 15.8959 13.5016 15.8573 13.4811 15.8186C13.4606 15.7806 13.8387 15.773 14.3211 15.8015C15.0225 15.8433 15.2292 15.8211 15.3525 15.6932C15.5228 15.5146 16.4232 15.4411 16.8929 15.5671C17.0719 15.6153 17.2029 15.6007 17.2423 15.5279C17.2766 15.4639 17.4019 15.4113 17.5206 15.4113C17.7969 15.4113 18.0271 15.3099 18.0271 15.1883C18.0271 15.1364 17.9672 15.0933 17.8941 15.0933C17.8209 15.0933 17.7263 15.0217 17.6833 14.933C17.6352 14.8336 17.2766 14.6987 16.7389 14.5783C15.6799 14.3401 14.9003 13.9765 14.9739 13.7548C15.0045 13.668 15.0841 13.6254 15.156 13.6573C15.2277 13.6889 15.2635 13.6725 15.2353 13.6193C15.2072 13.5673 15.2921 13.3754 15.4246 13.1942C15.6011 12.9516 15.7132 12.8825 15.8492 12.9319C15.951 12.97 16.0104 12.9567 15.9817 12.9034C15.9531 12.8502 16.0738 12.8021 16.2488 12.7958C16.4243 12.7907 16.8576 12.7039 17.2111 12.6038L17.8547 12.422L17.65 12.1699C17.5375 12.0318 17.407 11.9184 17.3605 11.9184C17.3134 11.9184 17.1339 11.8411 16.9609 11.7461C16.6591 11.5808 16.6519 11.5637 16.7854 11.328C16.8734 11.1735 16.8908 11.0582 16.8325 11.017C16.8084 11.0002 16.791 10.9717 16.7847 10.9383C16.7784 10.905 16.7837 10.8699 16.7993 10.8415C16.8371 10.7706 16.8862 10.7826 16.9384 10.8751C16.9906 10.9682 17.0428 10.9809 17.0873 10.9106C17.1252 10.8517 17.2796 10.7339 17.4311 10.6496L17.7063 10.4963L17.4162 10.4608C17.1021 10.4216 16.9338 10.1504 17.1615 10.0491C17.2382 10.0149 17.3241 10.0136 17.3523 10.0459C17.3799 10.0776 17.54 10.0149 17.7078 9.90656C17.9154 9.78101 18.1351 9.68903 18.3616 9.63291C18.553 9.5911 18.7658 9.49355 18.8333 9.415C18.994 9.2294 19.0569 9.2332 19.9087 9.48468C20.6735 9.71082 20.8889 9.68929 21.2025 9.35799C21.3795 9.17175 21.4506 9.16288 21.9295 9.26487C22.5582 9.39916 23.7415 9.41627 23.674 9.29021C23.6484 9.24207 23.3261 9.14325 22.9583 9.0704C22.021 8.88607 21.9156 8.84616 22.0696 8.73657C22.3362 8.54653 21.1421 8.09678 19.9747 7.94855C19.6595 7.90864 19.3812 7.83833 19.3572 7.79272C19.3326 7.74711 19.3991 7.58241 19.5056 7.42722C19.6826 7.16687 19.6861 7.13076 19.5496 6.95719C19.4687 6.8533 19.4022 6.74245 19.4022 6.71014C19.4022 6.57965 20.9544 6.76778 21.4644 6.96099C22.1985 7.23781 23.6842 7.43988 23.8213 7.28152C23.894 7.1979 23.895 7.12569 23.8239 7.02687C23.7277 6.89384 23.5809 6.83683 22.3582 6.45803C21.977 6.34021 21.7852 6.22745 21.7852 6.12166C21.7852 5.98737 21.8936 5.97343 22.4656 6.03298C22.9015 6.07922 23.1665 6.06465 23.2043 5.99497C23.2366 5.93479 23.2125 5.88538 23.1506 5.88538C23.0892 5.88538 23.0596 5.86068 23.0856 5.83091C23.147 5.75996 24.4454 6.07415 24.5744 6.19197C24.6762 6.28382 26.0145 6.52137 26.2999 6.49857C26.3884 6.49097 26.4606 6.42572 26.4606 6.35287C26.4606 6.28003 26.4821 6.1565 26.5082 6.07795C26.5532 5.94239 25.4338 5.66811 23.5046 5.34251C23.2146 5.29373 22.8278 5.18161 22.6452 5.09293C22.4625 5.00488 22.1842 4.93266 22.0261 4.93266C21.6112 4.9314 21.0147 4.72172 21.1114 4.61087C21.1559 4.55892 21.7141 4.50318 22.352 4.48671C22.9895 4.47024 23.5046 4.4487 23.4959 4.43857C23.4877 4.42907 23.277 4.32835 23.0278 4.21559C22.594 4.01859 22.5838 4.00465 22.7823 3.88176C22.9373 3.78611 23.103 3.78231 23.4458 3.86719C24.0034 4.00528 24.0771 4.00719 24.0771 3.88303C24.0771 3.82919 23.9543 3.75444 23.8034 3.71579C23.302 3.5891 23.4105 3.45101 24.0116 3.45101C24.3615 3.45101 24.7156 3.38386 24.8875 3.28505C25.0614 3.18496 25.2563 3.14822 25.3786 3.19319C25.6405 3.28885 29.9445 3.32622 29.8939 3.2312C29.7874 3.0323 30.9897 3.03356 32.0159 3.23373C34.094 3.63852 35.862 3.86846 37.0023 3.88303C37.6326 3.89063 38.5816 3.96221 39.1111 4.04266C39.8083 4.14309 40.5069 4.22798 41.2066 4.29731C41.8302 4.35685 42.3663 4.424 42.3986 4.4468C42.4308 4.46898 42.7664 4.51775 43.1445 4.55512C43.4808 4.58746 43.8167 4.62484 44.1523 4.66725C44.5201 4.71856 46.1925 4.82624 47.407 4.87692C48.4471 4.92532 49.4862 5.00114 50.5236 5.10433C50.8265 5.136 52.0021 5.18161 53.1363 5.20568C54.271 5.23102 55.6114 5.29057 56.1158 5.33871C56.6197 5.38559 58.0138 5.42043 59.2145 5.41472C61.0291 5.40586 61.4107 5.37735 61.4834 5.24813C61.557 5.1151 61.5826 5.11447 61.6522 5.23926C61.7074 5.33808 61.8251 5.36595 62.0057 5.32477C62.1551 5.28993 62.3218 5.31401 62.3771 5.37798C62.4324 5.44133 62.6134 5.50404 62.7797 5.51608C62.9433 5.52767 63.1059 5.55606 63.2657 5.60096C63.8152 5.7891 64.3876 5.84357 64.6184 5.73019C64.8036 5.63897 65.2655 5.74666 65.2016 5.86575C65.178 5.91009 65.6195 5.95886 66.1833 5.97407C67.7007 6.01651 67.8577 6.03551 68.0296 6.20021C68.1693 6.33387 68.1831 6.32753 68.1555 6.14446C68.1345 6.0051 68.1688 5.95063 68.2619 5.97597C68.3754 6.00117 68.4904 6.01451 68.6057 6.01587C68.7193 6.01714 68.8118 6.05452 68.8118 6.09949C68.8118 6.14383 68.8783 6.20971 68.9597 6.24582C69.0671 6.29333 69.0927 6.26609 69.0523 6.14573C69.0144 6.03171 69.0329 6.00637 69.1106 6.06338C69.1735 6.10962 69.6161 6.1622 70.0954 6.18057C71.1027 6.21858 70.9528 6.21858 75.6871 6.19958C77.6787 6.19071 79.5629 6.21858 79.8749 6.26039C80.187 6.30283 80.5108 6.30663 80.5957 6.26862C80.7518 6.19957 83.7461 6.06338 84.6665 6.08302C85.3857 6.09885 86.2017 5.61046 85.748 5.43563C85.6804 5.41029 85.7275 5.33491 85.8625 5.25193C85.9884 5.17591 86.1143 5.07266 86.1424 5.02388C86.2437 4.84652 87.0223 4.74706 87.2428 4.88389C87.3825 4.97004 87.7513 5.00044 88.332 4.97511C88.8149 4.95357 90.4014 4.91049 91.8568 4.88008C93.3128 4.84905 94.604 4.7952 94.7268 4.75973C94.8491 4.72425 95.3694 4.68752 95.883 4.67865C96.3966 4.66978 96.8995 4.60897 97.0003 4.54372C97.1804 4.42653 98.0307 4.2346 98.1729 4.27894C98.3484 4.33278 98.6742 4.31948 98.971 4.24537C99.1475 4.20102 99.3746 4.17315 99.4754 4.18265C99.5762 4.19215 99.7414 4.20862 99.8422 4.21939C99.943 4.22953 100.417 4.18139 100.896 4.11361C101.375 4.04519 101.945 3.99008 102.163 3.99135C102.381 3.99261 102.608 3.94827 102.668 3.89316C102.727 3.83805 102.91 3.76014 103.073 3.7196C103.317 3.65942 103.371 3.67842 103.371 3.82538C103.371 3.98375 103.447 3.99641 104.036 3.92927C104.401 3.8881 105.361 3.84375 106.167 3.83045C106.974 3.81651 107.856 3.75 108.128 3.68159C108.306 3.634 108.486 3.5926 108.666 3.55743C108.691 3.55743 108.659 3.48585 108.596 3.39843C108.534 3.31102 108.343 3.24007 108.173 3.24007C108.003 3.24007 107.863 3.2198 107.863 3.19573C107.863 3.17102 107.838 3.07537 107.808 2.98352C107.731 2.75421 107.989 2.76561 108.193 3.00063C108.308 3.13365 108.363 3.14822 108.391 3.05257C108.411 2.98035 108.467 2.94805 108.513 2.98035C108.559 3.01329 108.596 3.00189 108.596 2.95501C108.596 2.90751 108.689 2.86316 108.803 2.85619C108.916 2.84923 109.545 2.78905 110.201 2.72317C110.856 2.65729 112.176 2.58444 113.134 2.561C114.092 2.5382 114.979 2.49259 115.105 2.46092C115.532 2.35323 117.88 2.10175 119.138 2.03017C121.47 1.89714 123.238 1.512 123.602 1.05781C123.716 0.915916 123.917 0.801262 124.061 0.795559C125.248 0.751217 126.895 0.608692 127.618 0.487701C128.01 0.42527 128.403 0.372894 128.797 0.330605C129.162 0.292263 129.525 0.237114 129.887 0.165272C130.14 0.109528 130.362 0.0639229 130.38 0.0639229C130.399 0.0639229 130.414 0.186176 130.414 0.335041C130.414 0.483902 130.454 0.577652 130.503 0.542812Z" fill="#FCC419"/>
</svg>
