<svg fill="none" height="59" viewBox="0 0 188 59" width="188" xmlns="http://www.w3.org/2000/svg"><g clip-rule="evenodd" fill="#fcc419" fill-rule="evenodd"><path d="m48.9527 57.9414c-.055.0431-.1697-.1278-.2543-.3773-.0892-.2649-.2259-.4559-.3273-.4559-.1373 0-.1483-.0385-.0522-.1809.0927-.1386.0892-.1933-.0139-.2364-.1054-.0439-.1008-.1055.022-.2903.1182-.1795.1246-.248.0255-.2896-.0712-.0292-.1297-.1101-.1297-.1794s.0463-.0901.1031-.0462c.0585.0447.0759-.0077.0405-.1217-.0341-.1101-.0087-.2002.0568-.2002.0863 0 .0887-.0693.0075-.2572-.0892-.2063-.0793-.2571.0522-.2571.1321 0 .139-.0332.0336-.1725-.1344-.1779-.3957-.0185-.3615.221.0087.0616-.0388.1378-.1055.1678-.0799.037-.1008-.0415-.0614-.2287.033-.1571.0174-.2541-.0347-.2164-.0516.037-.1872.0255-.3013-.0269-.1645-.0747-.1159-.114.2335-.1879.2752-.0585.4414-.1617.4414-.2749 0-.1001.0904-.1817.2017-.1817.1106 0 .2653-.1132.3435-.2518.1402-.2472.6686-.5853.8401-.5367.0486.0131.3522-.0578.6749-.1587.4081-.1198.8205-.2113 1.2357-.2741.3569-.0501.675-.1432.7069-.2071.0318-.064.1604-.1171.2856-.1186.1245-.0016.5075-.1741.8499-.3835.3429-.2087.7021-.3812.7983-.3827.0968-.0016.2045-.0616.2399-.1317.0353-.0708.0116-.1286-.0528-.1286-.1442 0-.0927-.5752.0528-.5883.0573-.0046.3088-.0816.559-.1694.2503-.0893.569-.1271.7086-.0832.139.0432.4015.0216.5828-.0477s.5904-.1887.909-.2664c.8748-.2118 1.3412-.3889 1.3412-.5083 0-.1247-5.3254-.0385-6.644.1078-.6946.077-.9594.0555-1.2456-.0985-.1998-.1078-.387-.2041-.4154-.2149-.0289-.01-.1883-.0885-.3551-.1732-.1669-.0855-.3772-.1202-.4675-.077-.0898.0439-1.4716.1001-3.0706.1255-1.5984.0254-3.1169.1039-3.3735.174-.2567.0709-1.0266.1956-1.7108.2772-.6842.0832-1.3337.2095-1.4426.2819-.1095.0723-.427.1047-.7057.0716-.2792-.0339-.5324-.01-.5631.0516s-.0996.0785-.1529.0385c-.0528-.0408-.0962-.0131-.0962.0616 0 .0754-.0348.1247-.0782.1109-.1727-.0563-1.0637.1771-1.0637.2795 0 .1255-.7844.3342-1.0811.288-.1089-.0177-.2862.0847-.3933.2279-.1072.1425-.2746.2664-.3726.2749-.0979.0077-.4576.0277-.8006.0431-.3418.0154-.8094.094-1.0376.1756-.2289.0824-.5921.1817-.8076.221-.2156.04-.3668.1232-.3361.1848.0968.1941-.1338.2449-1.9373.4266-.0962.01-.1663.0732-.1564.1402.0104.067-.0748.1555-.1889.1971-.1648.0735-.3223.173-.4693.2965-.1888.1594-.5822.2448-1.402.3041-.6263.0454-1.2467.077-1.3788.0693s-.3836.0786-.5591.191c-.1808.1155-.3465.1532-.3824.0862-.0898-.1648-.4553-.3234-.3754-.1617.0846.1694-.0162.1602-.2926-.0254-.5579-.375-3.1991-.0901-3.4749.3743-.0852.1439-.0944.241-.0255.2695.0591.0246.1072.0954.1072.1586 0 .0624-.0655.0824-.1448.0447-.08-.0385-.1762-.0077-.2144.0685-.1002.2017.5214.1725.8574-.0408.1541-.0978.4907-.2203.7474-.2726.2572-.0516.5492-.1132.6489-.1363.1002-.0231.1819.0339.1819.127 0 .1194.1292.1556.4409.1256.3412-.0332.3997-.0131.2578.0893-.1014.0724-.1605.1786-.1321.2364.0614.1232-.5191.2479-1.6425.3519-.6315.0577-.8371.0346-.9066-.1017-.0661-.1285-.091-.1332-.0927-.0161-.0018.2364-.6257.1979-.8494-.0524-.1042-.117-.19-.1586-.19-.0916 0 .0739-.3366.087-.8563.0339-.471-.0493-1.2067-.1209-1.6349-.1594-.4287-.0385-.9322-.1386-1.1199-.221-.1871-.0817-.4571-.1217-.599-.0878-.1425.0331-.2879.0015-.3244-.0701-.04-.0808-.0128-.0916.0706-.0277.0846.0647.1107.0539.0696-.0293-.0783-.1571-.5736-.2988-1.1593-.3326-.3459-.0201-.4172-.0701-.4264-.3003-.0104-.2465.0614-.2865.6743-.3751.3778-.0539.803-.0862.9455-.0708l.2596.0277-.2752-.1848c-.478-.3219-.9432-.4582-1.8528-.5406-.4855-.0438-1.1859-.1748-1.5572-.2903-.8534-.2656-3.81505-.2864-3.94425-.0269-.04412.089-.13201.1187-.20277.0685-.1738-.1332-2.08449-.1771-2.01903-.0477.06026.1224.04519.124-1.3128.1756-.95882.0361-1.3632.08-2.79825.3041-.65466.1017-1.03703.0431-1.41129-.2156-.15642-.1093-.12282-.1709.25492-.4659.30357-.2387.67552-.3781 1.23632-.4658.95767-.1502 1.8713-.3389 2.52944-.5237.39395-.1101.47216-.1778.43103-.3734-.02955-.1402-.11008-.211-.19582-.1694-.07995.0377-.14542.0046-.14542-.074 0-.0785.08111-.1432.18134-.144.15527-.0015.15932-.02.02607-.127-.09849-.0786-.1095-.1255-.02897-.1263.06953-.0015.09965-.0893.06605-.1964-.04171-.1347.06199-.2602.34066-.4142l.4009-.2203-1.01385-.077c-.54459-.0426-1.08998-.0645-1.6355-.0654-.34182.0077-.62048.0061-.62048-.0031 0-.0085.09269-.1494.2074-.3127.11413-.1632.20741-.2571.20741-.2094s.10544.0015.23406-.1032c.12861-.1039.57992-.2564 1.00343-.3373.42292-.0816.95418-.2294 1.18071-.328.25544-.1059.52003-.168.78733-.1848.57819-.0069 2.03409-.4759 1.61348-.5198-.10178-.0166-.2029-.0397-.303-.0693-.11133-.0316-.22276-.0627-.33428-.0932-.23753-.0646-.25259-.1894-.0336-.2756.1205-.0478.34066-.2264.49013-.3981.14947-.1718.37541-.3119.50287-.3119s.28504-.0793.35051-.1771c.09733-.1448.01158-.1918-.48086-.2611-.30378-.0421-.60701-.0909-.90958-.1463-.40786-.0816-2.02945-.07-2.14069.0154-.15063.1155-1.33771.1694-1.33771.0616 0-.0577.0701-.1763.15642-.2641.08517-.0885.15527-.221.15527-.2949s-.03071-.0963-.06837-.0493c-.03765.0462-.13093.02-.2074-.0585-.07706-.0793-.13905-.0886-.13905-.0208s-.07068.1232-.15642.1232c-.24912 0-.18076-.1378.16222-.3257.38526-.2118.33023-.3003-.29141-.4674-.56661-.154-.67437-.3928-.26824-.5961.4206-.2102 2.3956-.4828 3.52475-.4866.52952-.0016 1.08628-.0416 1.23749-.0886l.27577-.0854-.29547-.3004c-.16338-.1647-.37542-.3018-.47159-.3041-.24622-.007-.32096-.211-.18887-.5167.13905-.3234 1.04225-.9033 1.40492-.9033.15295 0 .24159-.0554.20509-.1286-.03534-.0708-.15005-.1286-.25491-.1286-.17555 0-.37079-.3211-.33255-.5467.0394-.2295-1.60769.027-1.74557.2718-.10545.1864-2.75654.6754-3.01667.5552l-.24854-.1132.24159-.1601c.13267-.0886.99532-.3158 1.91648-.5067 1.6859-.3481 2.09666-.5937.99185-.5937-.3395 0-.65177-.0739-.75316-.1771-.14483-.1479-.34413-.1517-1.18534-.0247-1.54686.2341-2.44485.3951-2.65573.4751-.13963.0532-.18192.0154-.15643-.1416.03824-.228.3592-.4952.86323-.7185.43335-.1917.16396-.3604-.39048-.2449-.24043.0509-.64713.1325-.90378.1825l-.46753.0901.38932-.462c.21436-.2541.38932-.4828.38932-.5082s-.28967-.087-.64308-.1363c-.838313-.1178-1.28556987-.4081-1.2798865-.8309.00300684-.2233.6750505-.5213 1.2995865-.5775.25723-.0239.84179-.1348 1.29832-.2472s1.15754-.231 1.55729-.2626c.4518-.0392.90216-.1037 1.34988-.1933 2.12678-.4627 2.60532-.5775 2.69744-.6422.0562-.04-.10718-.1363-.36325-.2133-.25781-.0777-.4658-.2156-.4658-.3095 0-.2164 1.04631-.6869 1.99586-.8971.46174-.1024.80352-.2541.91532-.4081.1003-.1371.4479-.3096.7914-.3935.7804-.1902.759-.3712-.0886-.7593-.1813-.0831-.3094-.2179-.2839-.3003.0591-.1856.54-.4697.7972-.4697.106 0 .164-.0585.1286-.1286-.0347-.0709-.4113-.1294-.8366-.1294-.6998 0-.9808-.1309-.643-.3003.303-.1517-1.21204-.0693-1.96056.1055-.93159.2187-1.4391.1271-1.4391-.2587 0-.1787.27172-.412 1.01966-.8786.7039-.4397.9762-.67.88176-.7454-.17959-.1433-.00231-.2904.69406-.5753.98258-.4027 1.76238-1.0765 1.65988-1.4361-.0696-.2449.3134-.3788 1.8962-.6622.7861-.1409 1.574-.345 1.7502-.4543.1761-.1078.5492-.2311.829-.2734.7717-.1147 2.2479-.5775 2.4785-.777.1124-.097.3458-.1809.5191-.1863.1726-.0046.4072-.0585.5214-.1194.1657-.0878.1234-.1139-.2074-.1293-.8847-.0409-1.3545-.1487-1.4716-.3389-.0799-.1301-.2051-.1694-.3632-.1155-.208.0693-.2155.0616-.058-.0616.1008-.0777.2648-.1255.3633-.1055.1096.018.2207-.0069.3198-.0716.0823-.0639.2439-.0385.3957.0616.1993.1325.2989.1363.4519.0177.1245-.0962.2201-.1055.2595-.0261.0348.0693.3291.1278.6535.1309.325.0023.708.087.8505.1878.3111.2203.4154.2365.4154.0647 0-.0708-.073-.1286-.1622-.1286-.0887 0-.1362-.0516-.1043-.1139.0307-.0632-.0411-.1463-.1611-.1848-.1193-.0385-.1969-.1463-.172-.2395.0457-.1717.5104-.2726 1.9489-.422 1.2995-.1355 1.661-.2079 1.661-.3342 0-.067-.0695-.1209-.1559-.1209-.0863 0-.1552-.1147-.1552-.2572 0-.1886.0695-.2572.2595-.2572.2984 0 .3494-.1986.0736-.288-.102-.0331-.6274-.0292-1.168.0085-1.5729.1101-2.2026.0739-2.5317-.1471-.1674-.1124-.3337-.1809-.3708-.1532-.0365.0285-.0469-.1117-.0232-.3111.0516-.4343-.095-.5021-1.1604-.539-.6379-.0216-.6877-.0408-.4658-.1833.365-.2341 1.7027-.5698 2.5005-.6284.4078-.03.7925-.1355.931-.2556.2955-.2557.4727-.2595.672-.0123.0898.1116.3401.1925.5898.1902.7694-.0047 3.64-.3666 4.0299-.5083.3639-.1309.3749-.1524.2984-.5744-.0487-.2657-.0376-.4905.0272-.5714.0742-.0924.0713-.1879-.0098-.3088-.248-.3703.0672-.4466 1.5822-.385 1.1772.0485 1.5445.0224 1.7832-.1286.2526-.1601 1.3922-.3804 2.1697-.4196.1141-.0062.4409-.0624.7265-.1256l.5191-.1155-.467-.0931c-.2572-.0516-1.0277-.064-1.7131-.0278-.7264.0371-1.4532.0533-2.1801.0486-.5139-.0101-1.5179.077-2.2316.1925-1.4125.2279-2.869.3873-3.4958.3827-.2184-.0016-.427.0477-.4623.1093-.036.0616-.2115.1194-.3894.1286-.1784.0093-.3244.0647-.3244.1232s-.1049.0693-.2335.0247c-.1831-.0632-.1999-.0516-.0776.0539.1338.1162.1303.1355-.0261.137-.1002.0016-.1819.0663-.1819.1456 0 .0877-.0985.0631-.2555-.0647-.2839-.231-.409-.2665-.3227-.0932.0313.0624-.0359.144-.1495.181-.1181.0385-.2062.003-.2062-.0824 0-.0863-.164-.1486-.3893-.1486-.2474 0-.3807.0562-.365.1547.0168.1063-.0956.1356-.3592.094-.4322-.0693-.8586-.3681-.8609-.6053-.0012-.1016-.0377-.0885-.102.0347-.0782.1501-.1008.1124-.1025-.1694-.0018-.4636.1691-.8594.3719-.8594.0869 0 .1292-.0577.0939-.1286-.0348-.0708.0202-.1332.1234-.1386.3418-.0185.5596-.0962.7908-.2841.2074-.1679.6952-.1032.6952.0924 0 .0354-.0632.0346-.1391-.0016-.077-.0362-.205.0347-.2856.1571-.1263.1925-.1263.2079.0012.114.113-.0847.1303-.0562.0741.1255-.044.1409-.0197.278.0603.3411.1987.1556.3656.1263.1854-.0331-.1176-.1032-.0574-.1201.2427-.0685.2202.0385.4832.0031.5887-.0778.1436-.1117.2259-.1093.3418.0092.1222.1263.1674.1125.2317-.0716.0446-.1263.0736-.2718.0643-.3249-.0087-.0539.0498-.0971.1309-.0971.0812 0 .1646-.0662.1866-.1463.022-.0816.1767-.1655.3441-.1878.168-.0224.3569-.1286.4206-.2372.0638-.1078.1536-.154.1999-.1017.0464.0516.055-.0077.0191-.1309-.0799-.2772.1182-.3034.204-.0269.0544.1763.084.174.256-.0193.1843-.2071.1953-.2056.197.0262.0012.2056.0174.2141.102.0524.15-.288.1286-.3504-.1495-.4366-.1761-.0555-.248-.1617-.2364-.3504.018-.3003.3795-.5244.7966-.4944.3882.0285.7312-.137.7312-.3534 0-.1386.1031-.1794.3893-.154.4183.0385 1.1222-.1063 1.3754-.2826.1257-.087.1158-.1101-.0522-.1186-.2424-.0174-.4846-.0405-.7265-.0693-.8829-.1032-2.0567-.1001-2.4807.0061-.2903.0732-.3836.0609-.332-.0439.0452-.0893.0174-.1185-.073-.0754-.0858.0408-.2236-.077-.3331-.2849-.1333-.2526-.1507-.3681-.0614-.4051.084-.0346.0637-.1116-.062-.2333-.1709-.1663-.1599-.1763.1239-.1155.1715.037.2532.0331.182-.0077-.2631-.154-.1182-.3126.2856-.3126.2618 0 .4154.0593.4171.1617.0006.1178.0243.1139.0904-.0147.0562-.1093.1135-.1255.1547-.0431.0695.1394.2016.1286.526-.0439.1113-.0585.3557-.1109.5434-.1155.4305-.0108.5701-.3303.1449-.3303-.1686 0-.3233-.084-.3569-.1925-.0405-.1309.0046-.1933.139-.1933.1101 0 .237-.0724.2822-.1617.1193-.2303.5423-.50285.6512-.4197.051.0385.1216.0123.1576-.0601.0359-.07157.194-.13086.3516-.13086s.5406-.09394.8505-.20868c.4896-.18173.533-.22331.3337-.31571-.1274-.0593-.9936-.10011-1.9263-.0901-.9328.01001-1.7572-.02926-1.8319-.08624-.0771-.0593-.1663-.04235-.2063.0385-.0834.1671-3.3109.29415-3.3909.13322-.0284-.05622-.124-.06854-.2126-.02619-.1089.0516-.1234.1055-.044.16556.0637.04928-.0255.08933-.1993.08933s-.3152-.05468-.3152-.12321c0-.06699-.0713-.04928-.1582.04004-.0869.0901-.1911.12167-.2317.07162-.0411-.05006.0417-.20098.1837-.33497l.2578-.24333-.2596.0616c-.2271.0539-.2335.04697-.0521-.06006.2995-.17711.7919-.15786 1.0805.04004.2809.19251.6326.12937.6326-.11474 0-.11242.2051-.16247.6749-.16555.423-.00308.675.04774.675.13629 0 .07778.0579.04621.1298-.0693.0932-.15247.3748-.23409 1.0121-.29338.4849-.04621 1.1772-.16479 1.5376-.26413.3603-.1001.8041-.18712.986-.19405s.5649-.09163.8499-.18789c.4867-.16478.4322-.17172-.8823-.10549-.7706.0385-1.4716.07084-1.5573.07238-.0852.00077-1.1599.13784-2.3869.3034-1.2282.16632-2.5665.31956-2.9744.34112-.4084.02156-.7207.0824-.6952.13553.0266.0539-.1535.09702-.3998.09702-.2456 0-.8672.08471-1.3811.18712-.8812.17557-2.9541.3573-2.6726.23333.0719-.03081.1043-.11012.0719-.1748-.0325-.06469.0724-.12013.2329-.12321.1605-.00385.4548-.11628.6546-.25026.1999-.13476.4571-.29878.5713-.36423.3754-.21715 6.4979-1.47231 7.9417-1.62863.4281-.0462 1.6662-.19867 2.7507-.33882 1.0851-.14014 2.5167-.31109 3.1818-.37962.6651-.06931 1.4345-.20869 1.7091-.3111.3609-.13476.5191-.14631.5712-.04312.0655.1309 1.1575.09548 2.4796-.08163.4667-.0517.9339-.09482 1.4015-.12936 1.0242-.07932 2.585-.34652 3.4587-.59139.2468-.06931.4924-.09241.5457-.05159.0539.04158.7769-.05314 1.6077-.20868 1.2282-.23102 1.5544-.25412 1.7473-.12629.1947.12937.4438.1078 1.3702-.11859 1.5422-.37732 3.5549-.86706 4.5583-1.10885.4565-.11089 1.1199-.28338 1.4744-.38425.3546-.10011.7984-.18173.9861-.18173.1883 0 .5521-.08239.8093-.18481.4328-.17172 1.3198-.36192 3.6853-.79237.9032-.15592 1.8033-.34336 2.6991-.56212.5707-.133991 1.5052-.338821 2.0764-.455097l1.3499-.277214c1.2114-.247952 1.4426-.2433318 1.6836.034652.1298.149387.2364.337276.2364.41813 0 .080084.0347.138607.0776.130907.0429-.008471.1854-.008471.3152 0 .1987.01232.2201.053903.1332.255652-.1269.29415-.0249.45278.1651.25719.2144-.22023.1651-.02233-.0811.32881-.1292.18404-.3882.34883-.6274.39888-.3482.07315-.3882.11319-.2764.28029.1675.25027.0261.26567 6.6782-.73153.4565-.06931 1.2745-.15247 1.8168-.18635.5423-.03465 1.5237-.12321 2.1801-.19713.6564-.0747 1.5208-.15863 1.9205-.18712.3998-.02772.9113-.110887 1.1367-.18404.226-.073154 1.1216-.137067 1.9906-.140917.8691-.004621 1.6419-.033882 1.7178-.065454.1866-.077773 2.6192-.235631 3.198-.20791.2561.013091.5371.103185.6245.20098.1953.219461.6935.241022 3.0109.133217 1.0654-.050053 2.0434-.163248 2.3643-.274134.4195-.144767 1.1147-.184809 2.9588-.169408 1.3261.01232 3.5322-.023101 4.9024-.076234 2.777-.107805 2.629-.109345 5.502.045432 1.86.100105 2.934.103955 4.568.017711.285-.015401.437-.053902.337-.086244s-.182-.119356-.182-.1932796c0-.08855434.292-.1093454.857-.0600629.471.041582 1.884.1339865 3.14.2056005 1.256.071613 2.868.190199 3.581.261812 2.868.292615 3.961.39503 5.451.512841 3.724.29493 5.687.41197 7.734.46203.942.02387 2.11.08239 2.595.1309.535.05041 1.072.07558 1.609.07547.4-.00616 1.193.0462 1.765.1155.571.06931 2.42.1517 4.109.18327 1.689.0308 3.277.11243 3.529.18173.253.0693.826.15709 1.275.19482.448.0385.962.10011 1.141.1363.614.12474 1.573.20868 2.974.26181 1.234.04774 2.433.16094 4.204.39734.286.0385.683.0847.883.10473.2.02002.713.07315 1.142.11858.428.0462 1.152.11782 1.608.16171.457.04312.854.09625.883.11781.029.02234.318.0747.643.11782.324.04235.659.11012.741.15016.084.03927.566.08932 1.072.11011 1.387.05853 1.385.05776 1.385.26567 0 .10626.05.19251.11.19251.061 0 .076-.067.035-.15016-.051-.10242-.017-.12321.106-.06391.1.04697.284.08624.41.08624.155 0 .234.08316.245.25719.018.30802-.038.32188-.246.06392-.217-.26952-.46-.24873-.387.03234.036.1386.025.16941-.029.08162-.06-.09779-.353-.11627-.919-.05775-.974.1001-1.709.07315-3.062-.11551-.542-.07623-1.243-.16941-1.557-.20714-.314-.0385-.626-.09163-.693-.11858-.066-.02696-.148.0385-.181.1463-.045.14477-.143.17249-.38.10781-.372-.10088-.611-.13938-1.601-.25719-.4-.04775-.755-.10781-.789-.13399-.073-.05544-1.461-.06468-3.363-.0231-1.207.02772-2.058-.0462-2.693-.23255-.358-.10473-2.861-.15016-2.861-.0516 0 .05083.315.13399.701.18481.385.0516.794.11551.908.144.801.19559 2.946.41582 4.671.47742.4.0154.776.06623.837.11397.1.07931 3.279.38656 3.45.33343.04-.01309.424.01694.852.06699.662.07623 2.353.23024 2.777.25257.153.0077.171.17403.03.28184-.1.077-.883.09548-1.591.03696-.216-.01848-.431-.10935-.478-.20252-.063-.12552-.241-.14631-.696-.0824-.338.04852-.644.11089-.682.13861-.039.02849-.141-.03619-.227-.144-.087-.1078-.183-.14553-.213-.0847-.059.11704-2.154.06699-2.761-.06622-.2-.0439-.552-.09241-.783-.10627-.231-.0154-.523-.09471-.649-.17865-.183-.12166-.229-.11781-.229.01925 0 .10165-.139.18558-.337.2056-.821.0824-1.97.0747-2.882-.01925-.654-.06776-.934-.05929-.833.02541.409.33882-.359.50669-1.554.33882-1.06-.14939-1.249-.15709-1.707-.07084-.237.04466-.568.03542-.737-.02079-.445-.14785-2.756-.40889-3.785-.42815-.519-.01137-1.039-.04629-1.557-.10472-.371-.04851-1.118-.11782-1.661-.15401-.952-.07258-1.903-.15754-2.854-.25488-1.132-.11251-2.264-.20441-3.398-.27567-1.369-.07701-1.535-.06469-1.595.12782-.056.1825-.236.2133-1.222.20868-.636-.00308-1.367.04158-1.623.09857l-.467.10472.778.14323c.429.07931.942.14246 1.142.14015s1.018.08624 1.817.19559c.799.10934 2.317.26412 3.374.34266 1.056.07932 2.024.17172 2.151.2056s1.178.11782 2.336.18712c2.08.12321 3.538.22485 4.648.32188.314.02772 1.391.10857 2.394.18019 1.003.07161 1.89.15631 1.972.18789.083.0308.244.10087.357.154.114.05391.388.11397.607.13322.219.02002.453.12783.519.24025.096.16171.367.21022 1.314.23717.657.01848 1.24.06931 1.298.11243.057.04312.454.11319.882.15401 2.047.19867 4.094.36037 5.034.39734.572.02233 1.787.14168 2.7.26489s2.081.2441 2.596.26797c3.556.16171 6.396.36731 7.889.56829.514.0693 1.414.16325 2.001.20868.587.0462 1.092.13245 1.123.19251.03.06083-.1.11551-.289.1209s-.475.02233-.637.03696c-.161.01386-.313-.01463-.338-.06469-.025-.04928-.218-.0308-.429.04082-.214.07315-.683.09394-1.063.0462-.373-.0462-2.361-.10781-4.417-.13476-2.055-.02772-4.508-.08778-5.45-.13398-1.679-.08086-2.155-.03081-1.054.11088.306.0385.579.09934.606.13322.075.0924-.305.31882-.62.37112-.367.0616-.483.2241-.169.2387.138.0054.858.0647 1.601.131.742.0654 2.201.154 3.244.1955 1.712.0693 1.894.0978 1.894.3011 0 .2834.418.3504 2.937.4705 1.015.0485 1.871.1371 1.9.1972.03.0592.259.1078.51.1078.852 0 .614.3557-.435.6452-.295.0817-.692.1379-.882.1248-1.264-.087-.932.1663.486.3712.571.0823 1.365.1771 1.764.2117.4.0347 1.124.1201 1.61.191.485.0701 1.466.1663 2.18.2125.879.0578 1.331.1394 1.401.2541.058.0924.428.2056.831.2518.399.0462.773.154.83.241.057.0863.445.1964.862.2442.417.0477.863.1717.991.2756.147.1194.596.2095 1.215.2457 1.333.077 2.378.2217 2.436.338.061.1217-.848.2965-.988.1894-.057-.0438-.104-.0246-.104.0424s.164.1594.363.2064c.395.0916.47.2518.182.3896-.339.1633.136.4212 1.203.6545.896.1949 1.463.4366 1.05.4474-.388.01.211.2372.834.3157.371.0478.728.1417.794.2103.067.0677.416.1825.778.2548 1.003.2003.992.362-.031.4613-.383.037-.732.1471-.838.2641-.147.1633-.327.1833-.986.1071-1.338-.1548-1.603-.1248-1.804.2048-.099.1617-.159.3342-.134.3842.025.0493.359.1309.744.1802s.747.1348.804.191c.057.0554.326.1417.597.1917.744.1371.591.3188-.269.3188-.418 0-.796.0439-.84.0971-.043.0531-.478.0962-.967.0962-.618 0-.903.0493-.933.1609-.031.1102.081.161.353.1618.219 0 .562.0539.761.1185.2.0647.759.154 1.242.1995.483.0446.932.1355.996.2017.064.0663.144.0863.177.0455.034-.0416.17-.027.302.0315.187.0824.076.1256-.485.1887-.662.0747-1.417.2626-1.816.452-.254.1201.14.2526 1.323.4435.585.0948 1.064.2064 1.064.248 0 .0424.304.0524.675.0231.542-.0423.674-.0162.674.1348 0 .2333-.328.6144-.527.6121-.122-.0015-.12-.0231.008-.127.134-.1063.129-.1248-.029-.1263-.102-.0015-.212.0878-.247.1979-.052.1694-.24.1894-1.268.1317-1.288-.0716-1.605.0138-1.368.368.398.593 2.019 1.2306 3.134 1.2306.673 0 1.024.1555 1.024.4543 0 .1494-.166.1879-.804.1848-.443-.0008-.992-.0631-1.22-.1378-.229-.0747-1.304-.1617-2.391-.1941-1.922-.0562-1.977-.0508-1.992.2002-.015.248.112.4259.334.4705.057.0116.505.1148.995.2295 1.605.3742 3.03.6029 4.488.7184 1.351.1078 1.812.2549 1.672.5352-.032.0639-.102.0816-.158.0401-.054-.0416-.086 0-.07.0947.016.0939-.052.1617-.152.1524-.099-.01-.158.027-.13.0824.027.0547-.109.1371-.303.1818-.419.0978-.518.3295-.304.7092.114.2025.127.3234.045.445-.134.1995-.046.3358.215.3358.105 0 .191.0246.191.0539 0 .03.031.154.068.2772.064.2041-.006.2156-.856.1363-.509-.0462-1.101-.1194-1.315-.1617-.31-.0608-.389-.0354-.389.1247 0 .1101-.075.2526-.167.3165-.238.1648-.095.9064.202 1.055.214.107.215.1132.017.1293-.208.017-.208.017 0 .1279.203.1078-.081.154-1.142.1863-.443.0131-.778.1864-.778.4012 0 .1155-.108.1848-.286.1864-.175.0038-.35.0306-.521.08-.222.0732-.225.0886-.053.2511.102.0955.312.1748.469.1771.156.0023.592.2071.968.4543.38.2503.836.4505 1.025.4505.629 0 1.611.164 1.562.261-.027.0531.031.0878.129.0786.098-.0081.187.0772.213.204.047.2834-.566.7708-.882.7023-.126-.0277-.247.0131-.268.0901-.048.1817-1.26.2333-1.745.0739-.205-.0678-1.268-.1386-2.361-.1578-1.848-.0324-2.393.0331-1.702.2056.156.0385.495.1293.752.2017.3.0784.604.1239.909.1363.242.0031.441.0639.441.1348 0 .07.073.1286.162.1286.09 0 .259.0631.377.1409.21.1401.209.1432-.033.2934-.427.2633-.295.5113.421.7931.367.1448.69.3481.716.4505.027.1032.09.221.141.2618.158.1293-.032.5259-.211.4404-.091-.0431-.136-.0423-.102.0008.035.0431-.054.2249-.198.4035-.189.2341-.384.3304-.705.3458-.245.0115-.426.0585-.403.1055.023.0462-.405.0554-.951.0207-.795-.0508-1.029-.0238-1.168.1317-.193.2172-1.213.3065-1.745.1533-.203-.0586-.351-.0409-.395.0477-.039.0778-.181.1417-.316.1417-.312 0-.573.1232-.573.271 0 .0632.068.1155.15.1155.083 0 .19.0871.239.1949.055.1209.461.2849 1.07.4312 1.199.2895 2.082.7315 1.998 1.001-.034.1055-.124.1574-.206.1186-.081-.0385-.122-.0185-.09.0462.032.0632-.064.2965-.214.5167-.2.2949-.327.3789-.481.3188-.115-.0462-.182-.03-.15.0347.032.0646-.104.1232-.302.1309-.199.0061-.69.1116-1.09.2333l-.729.221.232.3065c.127.1678.275.3057.328.3057s.256.0939.452.2094c.342.201.35.2218.199.5083-.1.1878-.119.328-.053.378.027.0204.047.0551.054.0957.007.0405.001.0832-.017.1176-.043.0863-.098.0717-.157-.0408-.059-.1132-.119-.1286-.169-.0431-.043.0716-.218.2148-.389.3173l-.312.1863.329.0431c.355.0478.546.3773.288.5006-.087.0415-.184.0431-.216.0038-.031-.0385-.213.0377-.403.1694-.235.1526-.484.2644-.74.3327-.217.0508-.458.1694-.534.2649-.182.2256-.253.221-1.218-.0847-.866-.2749-1.11-.2488-1.465.154-.201.2264-.281.2371-.823.1132-.712-.1633-2.053-.1841-1.976-.0308.029.0585.394.1786.81.2672 1.062.224 1.181.2726 1.007.4058-.302.231 1.05.7777 2.372.9579.357.0485.672.134.699.1894.028.0555-.047.2557-.168.4443-.2.3165-.204.3604-.049.5714.091.1263.167.2611.167.3003 0 .1587-1.758-.07-2.336-.3049-.831-.3365-2.514-.5822-2.669-.3896-.082.1016-.083.1894-.003.3095.109.1617.275.231 1.66.6915.432.1432.649.2803.649.4089 0 .1632-.123.1802-.771.1078-.493-.0562-.793-.0385-.836.0462-.037.0732-.009.1332.061.1332.069 0 .103.03.073.0662-.069.0863-1.54-.2957-1.686-.4389-.115-.1116-1.631-.4004-1.954-.3727-.1.0093-.182.0886-.182.1771 0 .0886-.024.2387-.054.3342-.051.1648 1.217.4982 3.402.894.328.0593.766.1956.973.3034.207.1071.522.1949.701.1949.47.0015 1.145.2564 1.036.3911-.05.0632-.683.1309-1.405.151-.722.02-1.305.0462-1.295.0585.009.0115.248.134.53.271.491.2395.503.2565.278.4058-.176.1163-.363.1209-.752.0178-.631-.1679-.715-.1702-.715-.0193 0 .0655.139.1563.31.2033.568.154.445.3219-.235.3219-.397 0-.798.0816-.992.2017-.197.1217-.418.1663-.556.1117-.297-.1163-5.171-.1617-5.114-.0462.121.2418-1.241.2402-2.403-.0031-2.353-.4921-4.355-.7716-5.647-.7893-.714-.0092-1.788-.0963-2.388-.194-.789-.1221-1.581-.2253-2.373-.3096-.706-.0724-1.313-.154-1.35-.1817-.036-.027-.416-.0863-.844-.1317-.381-.0393-.762-.0848-1.142-.1363-.416-.0624-2.31-.1933-3.686-.2549-1.177-.0588-2.354-.151-3.529-.2764-.343-.0385-1.674-.094-2.959-.1232-1.285-.0308-2.803-.1032-3.374-.1617-.57-.057-2.149-.0994-3.509-.0924-2.055.0107-2.487.0454-2.569.2025-.084.1617-.113.1625-.191.0108-.063-.1202-.196-.1541-.401-.104-.169.0423-.358.0131-.42-.0647-.063-.077-.268-.1532-.456-.1679-.186-.014-.37-.0486-.551-.1031-.622-.2287-1.27-.295-1.532-.1571-.209.1109-.732-.02-.66-.1648.027-.0539-.473-.1132-1.112-.1317-1.718-.0516-1.896-.0747-2.091-.2749-.158-.1625-.173-.1548-.142.0678.024.1694-.015.2356-.121.2048-.128-.0306-.258-.0469-.389-.0485-.129-.0016-.233-.047-.233-.1017 0-.0539-.076-.1339-.168-.1778-.122-.0578-.151-.0247-.105.1216.043.1386.022.1694-.066.1001-.071-.0562-.572-.1201-1.115-.1424-1.141-.0462-.971-.0462-6.332-.0231-2.256.0108-4.389-.0231-4.743-.0739-.353-.0516-.72-.0563-.816-.0101-.177.084-3.568.2495-4.61.2257-.815-.0193-1.7386.5744-1.2248.7869.0765.0308.0232.1225-.1297.2234-.1426.0924-.2851.2179-.3169.2772-.1148.2156-.9965.3365-1.2462.1701-.1582-.1047-.5759-.1416-1.2334-.1108-.547.0261-2.3435.0785-3.9918.1155-1.6488.0377-3.1111.1032-3.2501.1463-.1385.0431-.7277.0878-1.3093.0985-.5817.0108-1.1512.0847-1.2653.1641-.2039.1424-1.1668.3757-1.3279.3218-.1987-.0654-.5677-.0493-.9038.0408-.1998.0539-.4571.0878-.5712.0763-.1141-.0116-.3013-.0316-.4154-.0447-.1141-.0123-.6512.0462-1.1935.1286-.5422.0832-1.1882.1502-1.435.1486-.2468-.0015-.504.0524-.5712.1194s-.2741.1617-.4595.211c-.2763.0731-.3371.05-.3371-.1286 0-.1925-.0858-.2079-.7532-.1263-.4136.05-1.4999.1039-2.413.1201-.9136.017-1.913.0978-2.2206.181-.2021.0578-.4053.1082-.6095.1509-.0278 0 .0075.087.0788.1933s.2874.1925.4797.1925c.1929 0 .3511.0246.3511.0539 0 .03.0284.1463.0626.258.0869.2787-.2057.2649-.4363-.0208-.1309-.1617-.1929-.1794-.2242-.0632-.0232.0878-.0857.1271-.1379.0878-.0521-.04-.095-.0262-.095.0308 0 .0578-.1049.1117-.2335.1201-.1286.0085-.8406.0817-1.5833.1617-.7416.0801-2.2369.1687-3.322.1972-1.0845.0277-2.0891.0831-2.2317.1216-.4837.1309-3.1429.4367-4.5675.5237-2.6407.1617-4.6424.6299-5.0548 1.182-.1292.1725-.3569.3118-.5203.3188-1.3435.0539-3.209.2271-4.0276.3742-.4441.0759-.8893.1396-1.3354.191-.4131.0466-.8247.1136-1.234.201-.2868.0677-.5388.1232-.5591.1232-.0209 0-.0377-.1487-.0377-.3296 0-.181-.0452-.2949-.1008-.2526z"/><path d="m130.212.542812c.048-.035474.15.105153.224.310393.079.217905.2.375005.289.375005.122 0 .131.03168.046.14887-.082.11402-.078.15899.013.19447.093.0361.089.08678-.02.23881-.104.14759-.11.20397-.022.23818.063.02407.114.09058.114.14759s-.041.07412-.091.03801c-.051-.03674-.067.00633-.036.10009.031.09058.008.1647-.05.1647-.076 0-.078.057-.006.21157.078.16976.07.21157-.046.21157-.117 0-.123.02724-.03.1419.119.14633.349.0152.319-.18181-.008-.05067.034-.11338.093-.13809.071-.0304.089.03421.054.18814-.029.12922-.015.20904.031.178.046-.0304.165-.0209.266.02217.145.06145.102.09375-.206.15457-.243.04814-.39.13302-.39.22614 0 .08235-.08.14949-.178.14949s-.234.09312-.303.20715c-.124.20334-.591.48142-.742.44151-.043-.01077-.311.04751-.596.1305-.36.09859-.725.17386-1.091.22551-.315.04117-.596.11782-.624.1704-.029.05257-.142.09628-.253.09755-.11.00127-.448.14316-.75.31546-.303.17167-.62.31356-.705.31483-.086.00127-.181.05067-.212.10832-.031.05828-.01.10579.047.10579.127 0 .082.47318-.047.48395-.051.0038-.273.06715-.494.13936-.221.07349-.502.10453-.625.06842-.123-.03547-.355-.01774-.515.03927-.16.05702-.521.1552-.803.21918-.772.1742-1.184.31989-1.184.41808 0 .10262 4.703.03167 5.867-.08868.613-.06335.847-.04561 1.1.08108.176.08868.342.16787.367.17673.025.00824.166.07285.313.14253.148.07031.333.09882.413.06335.079-.03611 1.3-.08235 2.712-.10326 1.411-.0209 2.752-.08551 2.979-.14316.226-.05828.906-.1609 1.51-.22804.604-.06842 1.178-.1723 1.274-.23185.097-.05954.377-.08615.623-.05891.247.02787.47.00824.497-.04244.028-.05068.088-.06461.136-.03168.046.03358.084.01078.084-.05067 0-.06208.031-.10262.07-.09122.152.04624.939-.14569.939-.22994 0-.10326.693-.27492.954-.23691.097.01457.253-.06969.348-.18751.094-.11719.242-.21917.329-.22614.086-.00633.404-.02281.707-.03547.302-.01267.714-.07729.916-.14443.202-.06778.523-.1495.713-.18181.19-.03294.324-.10135.297-.15202-.086-.15964.118-.20144 1.711-.35094.085-.00823.146-.06018.138-.11529-.009-.05511.066-.12795.167-.16216.145-.06047.284-.14235.414-.24388.167-.13113.514-.20144 1.238-.25022.553-.03737 1.101-.06334 1.218-.05701.116.00633.338-.06461.493-.1571.16-.09502.306-.12605.338-.07094.079.13556.402.26605.331.13302-.074-.13936.015-.13176.259.02091.492.30849 2.825.07411 3.068-.30786.075-.11846.084-.19827.023-.22171-.052-.02027-.095-.07855-.095-.13049 0-.05131.058-.06778.128-.03674.071.03167.156.00633.189-.05638.089-.16597-.46-.1419-.757.03357-.136.08045-.433.18117-.66.22424-.227.04244-.485.09312-.573.11213-.088.019-.16-.02788-.16-.10452 0-.09819-.115-.12797-.39-.10326-.301.02724-.353.01077-.227-.07348.089-.05954.141-.14696.116-.19447-.054-.10135.459-.20397 1.451-.28949.557-.04751.739-.0285.8.08362.059.10579.081.10959.082.0133.002-.19447.553-.1628.75.04307.092.09629.168.1305.168.07539 0-.06082.297-.07158.756-.02788.416.04054 1.066.09945 1.444.13113.378.03167.823.11402.989.1818.165.06715.403.10009.529.07221.125-.02724.254-.00126.286.05765.035.06651.011.07538-.062.0228-.075-.05321-.098-.04434-.062.02407.069.12923.507.24579 1.024.27366.305.01647.368.05764.376.24704.01.20271-.054.23565-.595.3085-.334.04434-.709.07094-.835.05827l-.229-.0228.243.15203c.422.26478.833.37691 1.636.44469.429.0361 1.047.14379 1.375.23881.754.21854 3.369.23565 3.483.02217.039-.07324.117-.09767.179-.05638.154.10959 1.841.1457 1.783.03928-.053-.10072-.04-.10199 1.159-.14443.847-.02977 1.204-.06588 2.471-.25021.578-.08362.916-.03548 1.246.17736.139.08996.109.14063-.225.38324-.268.19637-.596.31103-1.091.38324-.846.12353-1.653.27873-2.234.43076-.348.09058-.417.14632-.381.30722.026.11529.098.17357.173.13936.071-.03104.129-.0038.129.06081 0 .06462-.072.11783-.16.11846-.138.00127-.141.01647-.023.10452.086.06461.096.10325.025.10389-.061.00126-.088.07348-.058.16153.037.11086-.055.21411-.301.3408l-.354.18117.895.06334c.481.03509.963.05305 1.444.05385.302-.00634.548-.00507.548.00253 0 .00697-.082.12289-.183.25718s-.183.21158-.183.1723c0-.03927-.093-.00127-.207.08488-.113.08552-.512.21095-.886.27746-.373.06714-.842.18877-1.042.26985-.226.08715-.46.13824-.696.15203-.51.0057-1.796.39148-1.424.42758.09.01364.179.03267.267.05702.099.02601.197.05156.295.07664.21.05321.223.15583.03.22678-.106.03928-.301.18624-.433.32747-.132.1413-.331.2566-.444.2566-.112 0-.251.0652-.309.1457-.086.1191-.011.1577.424.2147.269.0347.536.0748.804.1204.36.0671 1.792.0576 1.89-.0127.133-.095 1.181-.1394 1.181-.0507 0 .0475-.062.1451-.138.2173-.075.0728-.137.1818-.137.2426s.027.0792.06.0406c.033-.038.116-.0165.183.0481.068.0652.123.0728.123.0171s.063-.1014.138-.1014c.22 0 .16.1134-.143.268-.34.1742-.292.2471.257.3845.501.1267.596.3231.237.4903-.371.1729-2.115.3972-3.112.4004-.468.0012-.959.0342-1.093.0728l-.244.0703.261.2471c.145.1355.332.2483.417.2502.217.0057.283.1735.167.425-.123.2661-.921.7431-1.241.7431-.135 0-.213.0456-.181.1058.031.0582.132.1057.225.1057.155 0 .327.2642.294.4498-.035.1888 1.419-.0222 1.541-.2236.093-.1533 2.434-.5556 2.664-.4567l.219.0931-.213.1317c-.117.0729-.879.2598-1.692.4169-1.489.2863-1.852.4883-.876.4883.3 0 .575.0609.665.1457.128.1217.304.1248 1.047.0203 1.366-.1926 2.159-.3249 2.345-.3908.123-.0437.16-.0127.138.1165-.034.1875-.317.4073-.762.591-.383.1578-.145.2965.344.2015.213-.0418.572-.109.798-.1501l.413-.0742-.343.3801c-.19.2091-.344.3972-.344.4181s.256.0716.568.1121c.74.0969 1.135.3357 1.13.6835-.003.1837-.596.4289-1.148.4751-.227.0196-.743.1109-1.146.2033-.403.0925-1.022.1901-1.375.2161-.399.0322-.797.0853-1.192.159-1.878.3807-2.301.475-2.382.5283-.05.0329.094.1121.32.1754.228.064.412.1774.412.2547 0 .178-.924.565-1.763.7379-.407.0843-.709.2091-.808.3358-.088.1127-.395.2546-.699.3237-.689.1564-.67.3053.078.6246.161.0684.274.1792.251.247-.052.1527-.477.3864-.704.3864-.093 0-.145.0482-.113.1058.03.0583.363.1064.738.1064.618 0 .866.1077.568.2471-.267.1248 1.07.057 1.731-.0868.823-.1799 1.271-.1045 1.271.2128 0 .147-.24.3389-.9.7228-.622.3617-.862.5511-.779.6132.159.1178.002.2388-.613.4732-.867.3313-1.556.8856-1.465 1.1814.061.2014-.277.3116-1.675.5448-.694.1159-1.39.2837-1.545.3737-.156.0887-.485.19-.732.2249-.682.0944-1.985.4751-2.189.6391-.099.0798-.305.1489-.458.1533-.153.0038-.36.0482-.461.0982-.146.0722-.109.0938.183.1064.782.0336 1.196.1223 1.3.2787.07.1071.181.1394.321.0951.183-.057.19-.0507.051.0506-.089.064-.234.1033-.321.0868-.097-.0148-.195.0057-.282.0589-.073.0526-.216.0317-.35-.0506-.176-.109-.264-.1122-.399-.0146-.11.0792-.194.0868-.229.0215-.031-.057-.291-.1051-.577-.1077-.287-.0019-.625-.0715-.751-.1545-.275-.1812-.367-.1945-.367-.0532 0 .0582.064.1058.143.1058s.12.0424.092.0937c-.027.052.037.1204.143.152.105.0317.174.1204.152.197-.041.1413-.451.2243-1.721.3472-1.148.1115-1.467.171-1.467.2749 0 .0551.061.0994.137.0994.077 0 .138.0944.138.2116 0 .1552-.062.2116-.23.2116-.263 0-.308.1634-.065.2369.09.0272.554.0241 1.032-.007 1.389-.0905 1.945-.0608 2.235.121.148.0925.295.1489.328.1261.032-.0234.041.0918.02.2559-.045.3573.084.413 1.025.4434.563.0178.607.0336.411.1508-.322.1926-1.503.4687-2.208.5169-.36.0247-.7.1115-.822.2103-.261.2103-.417.2135-.593.0101-.08-.0918-.301-.1583-.521-.1564-.679.0038-3.214.3015-3.559.418-.321.1077-.331.1255-.263.4726.043.2185.033.4035-.024.47-.066.076-.063.1546.008.254.219.3047-.059.3675-1.397.3168-1.039-.0399-1.364-.0184-1.574.1058-.223.1317-1.23.3129-1.916.3452-.101.0051-.39.0513-.642.1032l-.458.0951.412.0766c.227.0425.908.0526 1.513.0228.641-.0305 1.283-.0438 1.925-.0399.454.0082 1.34-.0633 1.971-.1584 1.247-.1875 2.533-.3186 3.087-.3148.193.0013.377-.0393.408-.0899.032-.0507.187-.0982.344-.1058s.286-.0532.286-.1014c0-.0481.093-.057.206-.0202.162.0519.177.0424.069-.0444-.118-.0956-.115-.1115.023-.1127.088-.0013.161-.0545.161-.1198 0-.0722.087-.0519.225.0532.251.1901.361.2192.285.0767-.028-.0513.032-.1185.132-.1489.104-.0316.182-.0025.182.0678 0 .071.145.1223.344.1223.218 0 .336-.0463.322-.1274-.015-.0874.085-.1114.317-.0772.382.057.759.3028.761.4979.001.0836.033.0728.09-.0285.069-.1236.089-.0925.09.1393.002.3814-.149.707-.328.707-.077 0-.114.0475-.083.1057.031.0583-.018.1096-.109.1141-.302.0152-.494.0791-.698.2337-.183.1381-.614.0849-.614-.076 0-.0291.056-.0285.123.0013.068.0297.181-.0285.252-.1293.111-.1583.111-.171-.001-.0937-.1.0697-.115.0462-.066-.1033.039-.1159.018-.2286-.053-.2806-.175-.1279-.323-.1039-.164.0272.104.0849.051.0989-.214.0564-.194-.0316-.427-.0025-.52.064-.127.0919-.199.09-.302-.0076-.108-.1039-.147-.0925-.204.0589-.04.1039-.065.2236-.057.2673.008.0444-.044.0798-.116.0798-.071 0-.145.0545-.164.1204-.02.0672-.156.1362-.304.1546-.149.0183-.315.1058-.372.1951-.056.0887-.135.1267-.176.0836-.041-.0425-.049.0063-.017.1077.071.228-.104.2496-.18.0221-.048-.145-.074-.1431-.226.0159-.163.1704-.173.1691-.174-.0216-.001-.1691-.016-.1761-.09-.043-.133.2369-.114.2882.132.3591.155.0456.219.1331.208.2883-.015.247-.335.4313-.703.4066-.343-.0234-.646.1128-.646.2908 0 .114-.091.1476-.343.1267-.37-.0317-.991.0874-1.215.2325-.111.0715-.102.0906.046.0975.214.0143.428.0333.642.057.779.0849 1.816.0824 2.19-.005.257-.0602.339-.0501.293.0361-.039.0735-.015.0975.065.062.076-.0335.197.0634.294.2344.118.2078.133.3028.054.3332-.074.0285-.056.0919.055.192.151.1368.141.145-.109.095-.152-.0304-.224-.0273-.161.0063.232.1267.104.2572-.252.2572-.232 0-.367-.0488-.369-.133 0-.0969-.021-.0938-.079.012-.05.09-.101.1033-.137.0355-.061-.1147-.178-.1058-.465.0361-.098.0481-.314.0912-.479.095-.381.0089-.504.2718-.128.2718.149 0 .285.069.315.1583.036.1077-.004.159-.123.159-.097 0-.209.0596-.249.133-.105.1895-.479.4137-.575.3453-.045-.0317-.108-.0102-.139.0494-.032.0589-.172.1077-.311.1077s-.477.0773-.751.1716c-.432.1495-.47.1837-.294.2598.112.0487.877.0823 1.701.0741.823-.0083 1.551.024 1.617.0709.068.0488.147.0349.182-.0316.074-.1375 2.924-.242 2.995-.1096.025.0462.109.0563.187.0215.097-.0424.109-.0868.039-.1362-.056-.0405.023-.0735.176-.0735.154 0 .279.045.279.1014 0 .0551.062.0405.139-.033.077-.0741.169-.1.205-.0589.036.0412-.037.1654-.162.2756l-.228.2002.229-.0507c.201-.0444.206-.0387.046.0494-.264.1457-.699.1298-.954-.033-.248-.1583-.559-.1064-.559.0944 0 .0925-.181.1337-.596.1362-.373.0026-.596-.0392-.596-.1121 0-.064-.051-.038-.114.057-.082.1254-.331.1926-.894.2414-.428.038-1.039.1355-1.358.2172-.318.0824-.71.154-.87.1597-.161.0057-.499.0753-.751.1545-.43.1356-.381.1413.779.0868.681-.0317 1.3-.0583 1.375-.0595.076-.0007 1.025-.1134 2.108-.2496 1.085-.1368 2.267-.2629 2.627-.2806.36-.0178.636-.0678.614-.1115-.024-.0444.135-.0798.353-.0798.217 0 .765-.0697 1.219-.154.778-.1444 2.609-.2939 2.36-.1919-.063.0253-.092.0906-.063.1438.028.0532-.064.0988-.206.1013-.142.0032-.402.0957-.578.2059-.176.1109-.404.2458-.504.2996-.332.1787-5.738 1.2112-7.013 1.3398-.378.038-1.472.1634-2.429.2787-.958.1153-2.223.2559-2.81.3123-.587.057-1.267.1717-1.509.2559-.319.1109-.458.1204-.505.0355-.057-.1077-1.022-.0785-2.189.0672-.412.0425-.825.078-1.238.1064-.904.0652-2.282.285-3.054.4865-.218.057-.435.076-.482.0424-.047-.0342-.686.0437-1.419.1717-1.085.19-1.373.209-1.543.1039-.172-.1065-.392-.0887-1.21.0975-1.362.3104-3.139.7133-4.025.9122-.404.0912-.989.2331-1.302.3161-.314.0823-.705.1495-.871.1495s-.488.0678-.715.152c-.382.1413-1.165.2977-3.254.6518-.798.1283-1.592.2825-2.384.4625-.503.1102-1.329.2787-1.833.3743l-1.192.2281c-1.07.204-1.274.2001-1.487-.0285-.114-.1229-.208-.2775-.208-.344 0-.0659-.031-.114-.069-.1077-.038.007-.164.007-.278 0-.176-.0101-.195-.0443-.118-.2103.112-.242.022-.3725-.146-.2116-.189.1812-.146.0184.072-.2704.114-.1514.343-.287.554-.3282.307-.0602.343-.0931.244-.2306-.148-.2058-.023-.2185-5.897.6018-.403.057-1.126.1254-1.604.1533-.479.0285-1.346.1014-1.926.1622-.579.0614-1.343.1305-1.695.1539-.353.0228-.805.0912-1.004.1514-.2.0602-.991.1128-1.758.1159-.767.0038-1.45.0279-1.517.0539-.165.064-2.3128.1938-2.8239.171-.2261-.0108-.4742-.0849-.5515-.1653-.1724-.1806-.6123-.1983-2.6587-.1096-.9408.0412-1.8043.1343-2.0878.2255-.3704.1191-.9843.152-2.6126.1394-1.1711-.0102-3.1192.019-4.3291.0627-2.452.0887-2.3211.0899-4.8585-.0374-1.6428-.0823-2.5907-.0855-4.0334-.0146-.2522.0127-.3863.0444-.2977.071.0879.0266.1601.0982.1601.159 0 .0728-.2573.0899-.7561.0494-.416-.0342-1.6637-.1102-2.7729-.1691-1.1096-.059-2.5323-.1565-3.1626-.2154-2.5323-.2407-3.4977-.325-4.813-.4219-3.2885-.2426-5.0223-.3389-6.8292-.3801-.8318-.0196-1.8632-.0678-2.2919-.1077-.4728-.0414-.9467-.0621-1.4207-.062-.353.005-1.0538-.0381-1.5583-.0951-.5044-.057-2.1369-.1248-3.6287-.1507-1.4912-.0254-2.894-.0925-3.1165-.1495-.2231-.057-.7291-.1292-1.1255-.1603-.396-.0317-.8493-.0823-1.0079-.1121-.5422-.1026-1.3884-.1717-2.6259-.2154-1.0897-.0393-2.1487-.1324-3.7126-.3268-.2522-.0317-.6027-.0697-.7792-.0862s-.6303-.0602-1.0083-.0975c-.3786-.0381-1.0181-.097-1.4207-.1331-.4036-.0354-.7541-.0792-.7791-.0969-.0256-.0184-.2809-.0614-.5679-.0969-.2865-.0349-.5817-.0906-.6548-.1235-.0742-.0323-.4999-.0735-.946-.0906-1.2252-.0482-1.2237-.0475-1.2237-.2186 0-.0874-.0435-.1583-.0972-.1583-.0532 0-.0665.0551-.0307.1235.0456.0842.0154.1014-.0936.0526-.088-.0387-.2507-.071-.3622-.071-.1366 0-.2067-.0684-.2159-.2115-.0164-.2534.0333-.2648.2169-.0526.1919.2217.4067.2046.3423-.0266-.0318-.1141-.022-.1394.0255-.0672.0527.0805.3111.0957.8109.0475.8605-.0823 1.5097-.0601 2.7043.0951.4788.0627 1.0978.1393 1.3751.1704.2773.0316.5525.0753.6114.0975.0588.0222.1309-.0317.1601-.1204.0394-.119.1264-.1418.3356-.0886.3284.0829.5392.1146 1.414.2115.353.0393.6661.0887.6963.1103.0644.0456 1.2902.0532 2.9703.019 1.0656-.0228 1.8171.038 2.3778.1913.3162.0861 2.5262.1235 2.5262.0424 0-.0418-.2783-.1102-.619-.152-.3397-.0425-.7009-.095-.8016-.1185-.7076-.1609-2.6015-.342-4.125-.3927-.353-.0127-.6855-.0545-.7387-.0938-.0885-.0652-2.8956-.318-3.0465-.2743-.0358.0108-.3745-.0139-.7525-.0551-.5848-.0627-2.0776-.1894-2.4521-.2077-.1356-.0064-.1514-.1432-.0271-.2319.089-.0633.7802-.0785 1.4053-.0304.1909.0152.3806.09.4216.1666.0557.1033.2133.1204.6154.0678.2978-.0399.5684-.0912.6022-.114.0337-.0235.1243.0297.2005.1184.0767.0887.1612.1197.1878.0697.0516-.0963 1.902-.0551 2.4382.0545.1765.0361.4875.076.6911.0874.2036.0127.4615.0779.573.147.1617.1.2026.0969.2026-.0159 0-.0836.1228-.1526.2977-.1691.725-.0678 1.7394-.0615 2.5442.0158.5781.0558.8252.0488.7356-.0209-.3611-.2787.3172-.4168 1.3726-.2787.9362.1229 1.103.1292 1.5077.0583.2087-.0368.5013-.0292.6507.0171.3924.1216 2.4331.3363 3.3417.3522.459.0093.9177.0381 1.3751.0861.3275.0399.9874.097 1.4668.1267.8407.0597 1.6809.1296 2.5206.2097.9991.0926 1.9991.1682 2.9999.2268 1.2094.0633 1.3557.0532 1.4084-.1052.0496-.1501.2092-.1754 1.0795-.1716.5617.0025 1.2068-.0343 1.4334-.0811l.4124-.0862-.6876-.1178c-.3781-.0652-.8319-.1172-1.0078-.1153-.177.0019-.8989-.0709-1.6044-.1609-.706-.0899-2.0463-.2173-2.9795-.2819-.9326-.0652-1.7874-.1412-1.8995-.1691-.1125-.0279-1.0406-.0969-2.0627-.1539-1.8371-.1014-3.1248-.185-4.1045-.2648-.2773-.0228-1.2288-.0893-2.1139-.1483-.8855-.0589-1.6693-.1285-1.7419-.1545-.0727-.0254-.2149-.083-.3151-.1267-.1008-.0443-.3423-.0938-.5362-.1096-.1934-.0165-.4001-.1051-.4584-.1976-.0844-.1331-.3233-.173-1.1603-.1951-.5796-.0152-1.0947-.057-1.1454-.0925-.0506-.0355-.4011-.0931-.7791-.1267-1.8075-.1634-3.6149-.2965-4.4457-.3269-.5045-.0183-1.5773-.1165-2.384-.2179-.8063-.1013-1.8377-.2008-2.2919-.2204-3.1402-.1331-5.6485-.3022-6.9663-.4675-.4538-.057-1.2493-.1343-1.7676-.1717-.5182-.038-.9643-.1089-.9909-.1583-.0266-.0501.088-.0951.2548-.0995.1667-.0044.4195-.0184.5627-.0304.1417-.0114.2763.012.2983.0532.022.0405.1923.0253.3785-.0336.1893-.0601.6037-.0773.9388-.038.33.038 2.0852.0887 3.9003.1109 1.8151.0228 3.9807.0722 4.8125.1102 1.4831.0665 1.9031.0253.9306-.0912-.2701-.0317-.5105-.0817-.5351-.1096-.0655-.076.2696-.2623.5479-.3053.3238-.0507.4262-.1844.1494-.1964-.1223-.0044-.7582-.0532-1.4135-.1077-.6554-.0538-1.9441-.1267-2.8649-.1609-1.5123-.057-1.6729-.0804-1.6729-.2477 0-.2331-.3683-.2882-2.5927-.387-.8968-.0399-1.6525-.1128-1.6786-.1622-.026-.0488-.2286-.0887-.4496-.0887-.7531 0-.5423-.2926.3836-.5308.261-.0671.6114-.1134.7787-.1026 1.1168.0716.8237-.1368-.4287-.3053-.5044-.0678-1.2053-.1457-1.5583-.1742s-.9925-.0989-1.4212-.1571c-.4282-.0577-1.2943-.1369-1.9251-.1749-.7761-.0475-1.1751-.1146-1.2375-.209-.0507-.076-.3776-.1691-.7331-.2072-.353-.038-.683-.1266-.7337-.1982-.0501-.071-.3929-.1616-.7607-.2008-.3683-.0393-.7623-.1413-.8748-.2268-.13-.0982-.5264-.1723-1.0728-.2021-1.1777-.0633-2.1006-.1824-2.1517-.2781-.0538-.1001.7489-.2439.8722-.1558.0512.0361.0921.0203.0921-.0348 0-.0552-.1443-.1312-.3208-.1698-.3484-.0754-.4144-.2071-.1606-.3205.2998-.1343-.1197-.3465-1.0621-.5385-.7914-.1602-1.2917-.3591-.927-.368.3428-.0082-.1862-.1951-.7366-.2597-.3274-.0393-.6431-.1166-.7014-.173-.0589-.0557-.3674-.1501-.68658-.2096-.88607-.1647-.87634-.2978.02763-.3795.33765-.0304.64615-.121.73925-.2173.1304-.1342.2896-.1507.8707-.088 1.1818.1273 1.4161.1026 1.5936-.1685.087-.133.1402-.2749.1182-.3161-.022-.0405-.3172-.1077-.6574-.1482-.3397-.0406-.6589-.1109-.7096-.1571-.0501-.0456-.2875-.1166-.5269-.1578-.6574-.1127-.5223-.2622.2369-.2622.3693 0 .7034-.0361.7418-.0798.0378-.0437.4225-.0792.8543-.0792.5459 0 .7971-.0405.8242-.1324.0271-.0906-.0716-.1324-.3121-.133-.1934 0-.4962-.0444-.6722-.0976-.1765-.0532-.6702-.1267-1.0969-.164-.4266-.0368-.8226-.1115-.8794-.166-.0563-.0545-.1274-.0709-.1565-.0374-.0297.0342-.1494.0222-.2666-.0259-.1647-.0678-.067-.1033.4282-.1552.5848-.0615 1.2519-.2161 1.6044-.3719.224-.0988-.1243-.2078-1.1685-.3649-.5167-.0779-.9398-.1697-.9398-.2039 0-.0349-.2681-.0431-.59598-.019-.47885.0348-.59549.0133-.59549-.1109 0-.1919.29007-.5055.46554-.5036.10744.0013.10642.019-.00715.1045-.11766.0875-.11358.1027.02558.1039.09004.0013.18775-.0722.2179-.1628.0461-.1393.2123-.1558 1.1204-.1083 1.1373.0589 1.4171-.0114 1.2074-.3028-.351-.4877-1.7824-1.0123-2.76672-1.0123-.59446 0-.90499-.1279-.90499-.3737 0-.1229.14683-.1546.7106-.152.39085.0006.87531.0519 1.07691.1134.2021.0614 1.1521.133 2.1118.1596 1.6969.0462 1.7455.0418 1.7588-.1647.0133-.204-.0987-.3503-.2951-.387-.0507-.0095-.4461-.0944-.8789-.1888-1.4171-.3079-2.6751-.496-3.9628-.591-1.19251-.0887-1.59974-.2097-1.47644-.4403.02813-.0526.09055-.0671.13915-.0329.04809.0342.07622 0 .06241-.0779-.01432-.0773.04604-.1331.13403-.1255.08749.0083.13967-.0221.11511-.0677-.02405-.045.09618-.1128.26756-.1495.36988-.0805.45737-.2712.26808-.5834-.10078-.1666-.11203-.2661-.0399-.3662.11818-.164.04093-.2762-.18929-.2762-.09311 0-.16884-.0202-.16884-.0443 0-.0247-.02711-.1267-.06036-.2281-.05628-.1678.00512-.1773.75613-.1121.44918.038.97201.0982 1.16126.1331.2732.05.3433.0291.3433-.1027 0-.0906.0665-.2077.1479-.2603.2097-.1356.0839-.7456-.1791-.8679-.1882-.088-.1893-.0931-.0148-.1064.1836-.0139.1836-.0139 0-.1051-.1791-.0887.0716-.1267 1.0088-.1533.3909-.0108.6871-.1533.6871-.3301 0-.095.0952-.152.2522-.1533.1549-.0031.3091-.0252.4604-.0658.1955-.0602.1985-.0729.0461-.2065-.0896-.0786-.2753-.1438-.4134-.1457s-.5228-.1704-.8554-.3738c-.3356-.2058-.7382-.3705-.905-.3705-.555 0-1.42218-.135-1.3792-.2148.02353-.0437-.02762-.0722-.11357-.0646-.08702.0067-.16578-.0636-.18826-.1679-.04195-.2331.4993-.6341.77862-.5777.11153.0228.21791-.0107.23641-.0741.0429-.1495 1.1132-.1919 1.5409-.0608.1816.0557 1.1203.114 2.0852.1299 1.632.0266 2.1134-.0273 1.503-.1692-.1381-.0317-.4374-.1064-.6645-.1659-.2645-.0645-.5328-.102-.8022-.1122-.2138-.0025-.3893-.0525-.3893-.1108 0-.0577-.0645-.1058-.1433-.1058-.0793 0-.2286-.052-.3325-.1159-.1857-.1153-.1852-.1179.0292-.2414.3765-.2166.2599-.4206-.3725-.6524-.3238-.1191-.6087-.2864-.6323-.3706-.0235-.0849-.0793-.1818-.1238-.2154-.1402-.1064.0276-.4326.1862-.3623.0804.0355.1203.0348.0896-.0007-.0307-.0354.0475-.1849.1749-.3319.1673-.1926.3392-.2717.6231-.2844.2159-.0095.376-.0481.3556-.0868-.0205-.038.3576-.0456.84-.0171.7014.0418.9081.0196 1.0314-.1083.1703-.1786 1.0707-.2521 1.5404-.1261.179.0482.31.0336.3494-.0392.0343-.064.1596-.1166.2783-.1166.2762 0 .5065-.1014.5065-.223 0-.0519-.0599-.095-.1331-.095-.0731 0-.1678-.0716-.2107-.1603-.0481-.0994-.4067-.2343-.9444-.3547-1.059-.2382-1.8387-.6018-1.765-.8235.0305-.0868.1101-.1294.1821-.0975.0716.0316.1075.0152.0793-.0381-.0281-.0519.0568-.2438.1893-.425.1765-.2426.2885-.3117.4246-.2622.1018.038.1612.0247.1325-.0286-.0286-.0532.0921-.1013.2671-.1076.1755-.0051.6088-.0919.9623-.192l.6435-.1818-.2046-.2521c-.1125-.1381-.243-.2515-.2895-.2515-.0471 0-.2267-.0773-.3996-.1723-.3018-.1653-.309-.1824-.1755-.4181.088-.1545.1054-.2698.0471-.311-.0241-.0168-.0415-.0453-.0478-.0787-.0063-.0333-.001-.0684.0145-.0968.0379-.0709.087-.0589.1392.0336.0522.0931.1044.1058.1489.0355.0378-.0589.1923-.1767.3438-.261l.2752-.1533-.2901-.0355c-.3141-.0392-.4824-.3104-.2548-.4117.0768-.0342.1627-.0355.1909-.0032.0276.0317.1877-.031.3555-.13934.2076-.12555.4273-.21753.6538-.27365.1914-.04181.4042-.13936.4717-.21791.1607-.1856.2236-.1818 1.0754.06968.7648.22614.9802.2046 1.2938-.12669.177-.18624.2481-.19511.7269-.09312.6288.13429 1.8121.1514 1.7445.02534-.0255-.04814-.3478-.14696-.7157-.21981-.9372-.18433-1.0426-.22424-.8886-.33383.2666-.19004-.9275-.63979-2.0949-.78802-.3152-.03991-.5935-.11022-.6175-.15583-.0246-.04561.0419-.21031.1483-.3655.177-.26035.1806-.29646.044-.47003-.0808-.10389-.1473-.21474-.1473-.24705 0-.13049 1.5522.05764 2.0622.25085.7341.27682 2.2198.47889 2.3569.32053.0726-.08362.0737-.15583.0025-.25465-.0961-.13302-.243-.19004-1.4656-.56884-.3812-.11782-.573-.23058-.573-.33637 0-.13429.1084-.14823.6804-.08868.4359.04624.7009.03167.7387-.03801.0322-.06018.0082-.10959-.0537-.10959-.0614 0-.0911-.0247-.065-.05448.0614-.07094 1.3598.24325 1.4887.36107.1019.09185 1.4402.3294 1.7256.3066.0885-.0076.1607-.07285.1607-.1457 0-.07284.0215-.19637.0475-.27492.0451-.13556-1.0743-.40984-3.0035-.73544-.29-.04878-.6768-.1609-.8595-.24958-.1826-.08805-.4609-.16027-.619-.16027-.4149-.00126-1.0114-.21094-.9147-.32179.0445-.05195.6027-.10769 1.2406-.12416.6374-.01647 1.1526-.038 1.1439-.04814-.0082-.0095-.2189-.11022-.4681-.22298-.4338-.197-.444-.21094-.2455-.33383.155-.09565.3207-.09945.6635-.01457.5576.13809.6313.14.6313.01584 0-.05385-.1228-.12859-.2737-.16723-.5014-.1267-.3929-.26479.2082-.26479.3499 0 .7039-.06715.8758-.16597.174-.10008.3689-.13682.4912-.09185.2619.09565 4.5659.13303 4.5152.03801-.1064-.19891 1.0959-.19764 2.1221.00254 2.0781.40477 3.8461.63472 4.9864.64929.6303.0076 1.5793.07918 2.1088.15963.6972.10043 1.3958.18532 2.0955.25465.6236.05954 1.1597.12669 1.192.14949.0322.02218.3678.07095.7459.10832.3363.03234.6722.06972 1.0078.11213.3678.05131 2.0402.15899 3.2547.20967 1.0401.0484 2.0792.12422 3.1166.22741.3029.03167 1.4785.07728 2.6127.10135 1.1347.02534 2.475.08489 2.9795.13303.5039.04688 1.898.08171 3.0986.07601 1.8146-.00886 2.1963-.03737 2.2689-.16659.0737-.13303.0993-.13366.1689-.00887.0552.09882.1729.12669.3535.08551.1494-.03484.3161-.01076.3714.05321.0552.06335.2363.12606.4026.1381.1636.01159.3262.03998.486.08488.5495.18814 1.1219.24261 1.3526.12923.1852-.09122.6472.01647.5833.13556-.0236.04434.4179.09311.9817.10832 1.5174.04244 1.6744.06144 1.8463.22614.1397.13366.1535.12732.1259-.05575-.021-.13936.0133-.19383.1064-.16849.1135.0252.2285.03854.3438.0399.1135.00127.2061.03865.2061.08362 0 .04434.0665.11022.1479.14633.1074.04751.133.02027.0926-.10009-.0379-.11402-.0195-.13936.0583-.08235.0629.04624.5054.09882.9848.11719 1.0073.03801.8574.03801 5.5917.01901 1.9916-.00887 3.8757.019 4.1878.06081.3121.04244.6359.04624.7208.00823.1561-.06905 3.1504-.20524 4.0707-.1856.7193.01584 1.5353-.47256 1.0815-.64739-.0675-.02534-.0204-.10072.1146-.18371.1259-.07601.2517-.17926.2799-.22804.1013-.17737.8799-.27682 1.1004-.13999.1397.08615.5085.11655 1.0892.09121.4829-.02153 2.0693-.06461 3.5248-.09501 1.456-.03104 2.7472-.08489 2.87-.12036.1223-.03547.6426-.07221 1.1562-.08108s1.0165-.06968 1.1173-.13493c.1801-.11719 1.0303-.30912 1.1726-.26478.1754.05384.5013.04054.798-.03358.1765-.04434.4037-.07221.5045-.06271.1007.0095.266.02597.3668.03674.1008.01014.5748-.038 1.0538-.10578.479-.06842 1.049-.12353 1.267-.12226.218.00126.445-.04308.505-.09819.059-.05511.242-.13302.405-.17356.244-.06018.298-.04118.298.10578 0 .15837.076.17104.665.10389.365-.04118 1.325-.08552 2.131-.09882.807-.01394 1.689-.08045 1.961-.14886.178-.04759.358-.08899.538-.12416.025 0-.007-.07158-.07-.159-.062-.08742-.253-.15836-.423-.15836s-.31-.02027-.31-.04434c0-.02471-.025-.12036-.055-.21221-.077-.22931.181-.21791.385.0171.115.13303.17.1476.198.05195.02-.07222.076-.10452.122-.07222.046.03294.083.02154.083-.02534 0-.04751.093-.09185.207-.09881.113-.00697.742-.06715 1.398-.13303.655-.06588 1.975-.13873 2.933-.16216.958-.02281 1.845-.06842 1.971-.10009.427-.10769 2.775-.35917 4.033-.43075 2.332-.13303 4.1-.51817 4.464-.97236.114-.141893.315-.256549.459-.26225 1.187-.044342 2.834-.186867 3.557-.307857.392-.062432.785-.114809 1.179-.157097.365-.038341.728-.093493 1.09-.165334.253-.055745.475-.1013501.493-.1013501.019 0 .034.1222561.034.2711181s.04.242612.089.207772z"/></g></svg>