<svg width="250" height="50" viewBox="0 0 250 50" fill="none" xmlns="http://www.w3.org/2000/svg">
<path fill-rule="evenodd" clip-rule="evenodd" d="M65.0971 49.1178C65.0239 49.1538 64.8714 49.0113 64.7589 48.8034C64.6402 48.5826 64.4584 48.4235 64.3236 48.4235C64.141 48.4235 64.1264 48.3914 64.2543 48.2727C64.3775 48.1572 64.3729 48.1116 64.2358 48.0757C64.0955 48.0391 64.1017 47.9878 64.265 47.8338C64.4222 47.6843 64.4307 47.6272 64.2989 47.5925C64.2042 47.5681 64.1264 47.5007 64.1264 47.443C64.1264 47.3852 64.188 47.3679 64.2635 47.4045C64.3413 47.4417 64.3644 47.3981 64.3174 47.3031C64.272 47.2113 64.3059 47.1363 64.3929 47.1363C64.5077 47.1363 64.5108 47.0785 64.4029 46.9219C64.2843 46.75 64.2974 46.7076 64.4723 46.7076C64.6479 46.7076 64.6572 46.68 64.517 46.5639C64.3382 46.4156 63.9908 46.5485 64.0362 46.748C64.0478 46.7994 63.9846 46.8629 63.896 46.8879C63.7897 46.9187 63.762 46.8533 63.8143 46.6973C63.8583 46.5664 63.8375 46.4856 63.7681 46.517C63.6996 46.5478 63.5193 46.5382 63.3675 46.4946C63.1487 46.4323 63.2134 46.3996 63.678 46.338C64.0439 46.2892 64.265 46.2032 64.265 46.1089C64.265 46.0255 64.3852 45.9575 64.5331 45.9575C64.6803 45.9575 64.886 45.8631 64.99 45.7476C65.1764 45.5416 65.8791 45.2599 66.1071 45.3004C66.1718 45.3113 66.5755 45.2522 67.0046 45.1682C67.5473 45.0683 68.0958 44.992 68.6479 44.9397C69.1225 44.898 69.5455 44.8204 69.5878 44.7671C69.6302 44.7138 69.8012 44.6696 69.9676 44.6683C70.1333 44.667 70.6425 44.5233 71.0978 44.3487C71.5539 44.1748 72.0316 44.0311 72.1595 44.0298C72.2881 44.0285 72.4314 43.9785 72.4784 43.9201C72.5254 43.861 72.4938 43.8129 72.4083 43.8129C72.2165 43.8129 72.285 43.3336 72.4784 43.3226C72.5547 43.3188 72.889 43.2546 73.2219 43.1815C73.5547 43.107 73.9784 43.0756 74.1641 43.1122C74.349 43.1481 74.698 43.1301 74.9391 43.0724C75.1803 43.0146 75.7242 42.9152 76.1479 42.8504C77.3112 42.6739 77.9314 42.5263 77.9314 42.4268C77.9314 42.3229 70.8498 42.3948 69.0963 42.5167C68.1726 42.5808 67.8205 42.5629 67.4399 42.4345C67.1741 42.3447 66.9253 42.2645 66.8875 42.2555C66.849 42.2472 66.6371 42.1817 66.4153 42.1111C66.1934 42.0399 65.9137 42.011 65.7935 42.047C65.6741 42.0835 63.8367 42.1304 61.7103 42.1516C59.5848 42.1727 57.5655 42.2382 57.2242 42.2966C56.8829 42.3556 55.8591 42.4596 54.9492 42.5276C54.0393 42.5969 53.1757 42.7021 53.0309 42.7624C52.8853 42.8228 52.4631 42.8497 52.0925 42.8221C51.7212 42.7939 51.3845 42.8138 51.3437 42.8651C51.3028 42.9165 51.2111 42.9306 51.1403 42.8972C51.0702 42.8632 51.0124 42.8863 51.0124 42.9485C51.0124 43.0114 50.9662 43.0525 50.9084 43.0409C50.6788 42.9941 49.4939 43.1885 49.4939 43.2739C49.4939 43.3785 48.4508 43.5524 48.0563 43.5139C47.9115 43.4991 47.6757 43.5845 47.5332 43.7038C47.3907 43.8225 47.168 43.9258 47.0378 43.9329C46.9076 43.9393 46.4292 43.956 45.9731 43.9688C45.5186 43.9817 44.8968 44.0471 44.5933 44.1151C44.289 44.1838 43.8059 44.2666 43.5193 44.2993C43.2327 44.3327 43.0317 44.402 43.0725 44.4533C43.2012 44.615 42.8945 44.6574 40.4962 44.8088C40.3683 44.8172 40.2751 44.8698 40.2882 44.9256C40.3021 44.9814 40.1888 45.0552 40.0371 45.0899C39.8179 45.1511 39.6084 45.2341 39.413 45.3369C39.1619 45.4698 38.6388 45.541 37.5486 45.5904C36.7158 45.6283 35.8907 45.6546 35.715 45.6482C35.5394 45.6417 35.205 45.7136 34.9716 45.8073C34.7312 45.9036 34.5109 45.935 34.4631 45.8792C34.3437 45.7419 33.8576 45.6097 33.9639 45.7444C34.0764 45.8856 33.9423 45.8779 33.5748 45.7232C32.8329 45.4107 29.3206 45.6482 28.9539 46.0351C28.8407 46.1551 28.8283 46.236 28.92 46.2597C28.9986 46.2802 29.0625 46.3393 29.0625 46.3919C29.0625 46.4439 28.9755 46.4606 28.8699 46.4291C28.7636 46.397 28.6357 46.4227 28.5849 46.4862C28.4516 46.6543 29.2782 46.63 29.7251 46.4522C29.93 46.3707 30.3776 46.2687 30.7189 46.2251C31.061 46.1821 31.4493 46.1307 31.5818 46.1115C31.7151 46.0922 31.8237 46.1397 31.8237 46.2173C31.8237 46.3168 31.9955 46.347 32.41 46.3219C32.8637 46.2944 32.9416 46.311 32.7528 46.3964C32.618 46.4567 32.5394 46.5453 32.5772 46.5934C32.6588 46.6961 31.8869 46.8 30.393 46.8866C29.5533 46.9348 29.2798 46.9155 29.1873 46.8019C29.0995 46.6948 29.0664 46.6909 29.0641 46.7885C29.0618 46.9855 28.232 46.9534 27.9346 46.7448C27.796 46.6473 27.6819 46.6126 27.6819 46.6685C27.6819 46.7301 27.2343 46.741 26.5433 46.6967C25.9169 46.6556 24.9385 46.596 24.3692 46.5639C23.7991 46.5318 23.1296 46.4484 22.88 46.3797C22.6311 46.3117 22.2721 46.2783 22.0834 46.3065C21.8938 46.3341 21.7005 46.3078 21.6519 46.2481C21.5988 46.1808 21.635 46.1718 21.7459 46.2251C21.8584 46.279 21.8931 46.27 21.8384 46.2007C21.7344 46.0698 21.0756 45.9517 20.2968 45.9235C19.8368 45.9068 19.7421 45.8651 19.7297 45.6732C19.7159 45.4678 19.8114 45.4345 20.6265 45.3607C21.1288 45.3158 21.6943 45.2888 21.8838 45.3016L22.229 45.3247L21.863 45.1707C21.2274 44.9025 20.6088 44.7889 19.3992 44.7203C18.7536 44.6837 17.8222 44.5746 17.3284 44.4783C16.1935 44.257 12.2552 44.2396 12.0834 44.4559C12.0247 44.5301 11.9078 44.5548 11.8137 44.513C11.5826 44.402 9.04179 44.3654 9.12885 44.4732C9.20897 44.5752 9.18894 44.5765 7.38309 44.6195C6.10806 44.6497 5.57031 44.6863 3.66199 44.873C2.79143 44.9577 2.28295 44.9089 1.78527 44.6933C1.57725 44.6022 1.62194 44.5509 2.12425 44.3051C2.52794 44.1062 3.02255 43.99 3.76831 43.9169C5.0418 43.7917 6.25675 43.6345 7.13194 43.4805C7.65582 43.3887 7.75982 43.3323 7.70512 43.1693C7.66583 43.0525 7.55874 42.9935 7.44472 43.0281C7.33841 43.0596 7.25135 43.032 7.25135 42.9665C7.25135 42.9011 7.35921 42.8472 7.49249 42.8465C7.69896 42.8452 7.70435 42.8298 7.52716 42.7406C7.39619 42.6752 7.38155 42.636 7.48864 42.6354C7.58109 42.6341 7.62115 42.561 7.57646 42.4718C7.52099 42.3595 7.6589 42.2549 8.02947 42.1265L8.56259 41.943L7.21437 41.8788C6.49019 41.8433 5.76493 41.8251 5.03949 41.8243C4.58495 41.8307 4.21438 41.8294 4.21438 41.8217C4.21438 41.8147 4.33765 41.6972 4.49019 41.5612C4.64196 41.4251 4.766 41.3469 4.766 41.3866C4.766 41.4264 4.90621 41.3879 5.07724 41.3007C5.24827 41.214 5.84843 41.087 6.4116 41.0196C6.974 40.9516 7.68047 40.8284 7.9817 40.7462C8.3214 40.6579 8.67324 40.6062 9.02869 40.5922C9.79757 40.5864 11.7336 40.1957 11.1743 40.1591C11.0389 40.1453 10.9045 40.126 10.7714 40.1013C10.6233 40.075 10.4751 40.0491 10.3268 40.0237C10.011 39.9698 9.99094 39.8658 10.2822 39.7939C10.4424 39.7542 10.7352 39.6053 10.9339 39.4622C11.1327 39.3191 11.4332 39.2023 11.6026 39.2023C11.7721 39.2023 11.9817 39.1362 12.0687 39.0547C12.1982 38.9341 12.0842 38.8949 11.4293 38.8372C11.0253 38.8021 10.6221 38.7614 10.2198 38.7153C9.67738 38.6472 7.52099 38.6569 7.37308 38.7281C7.17277 38.8243 5.59419 38.8693 5.59419 38.7794C5.59419 38.7313 5.68741 38.6325 5.8022 38.5593C5.91545 38.4855 6.00867 38.3752 6.00867 38.3136C6.00867 38.2519 5.96784 38.2333 5.91776 38.2725C5.86769 38.311 5.74365 38.2892 5.64196 38.2237C5.53949 38.1576 5.45706 38.1499 5.45706 38.2064C5.45706 38.2629 5.36307 38.3091 5.24905 38.3091C4.91777 38.3091 5.00868 38.1942 5.46476 38.0376C5.97709 37.8612 5.9039 37.7874 5.07724 37.6481C4.32378 37.5198 4.18048 37.3208 4.72054 37.1514C5.27986 36.9763 7.9062 36.7491 9.40774 36.7459C10.1119 36.7446 10.8523 36.7112 11.0533 36.6721L11.4201 36.6009L11.0271 36.3506C10.8099 36.2133 10.5279 36.0991 10.4 36.0971C10.0726 36.0913 9.97322 35.9213 10.1489 35.6665C10.3338 35.397 11.5348 34.9138 12.0171 34.9138C12.2205 34.9138 12.3384 34.8676 12.2899 34.8067C12.2429 34.7476 12.0903 34.6995 11.9509 34.6995C11.7174 34.6995 11.4578 34.4319 11.5087 34.2439C11.561 34.0527 9.37076 34.2664 9.1874 34.4704C9.04718 34.6257 5.52177 35.0332 5.17586 34.9331L4.84535 34.8388L5.16661 34.7053C5.34304 34.6315 6.49018 34.4422 7.71514 34.283C9.95704 33.993 10.5033 33.7883 9.03409 33.7883C8.58262 33.7883 8.16737 33.7267 8.03255 33.6407C7.83995 33.5175 7.57492 33.5143 6.45628 33.6202C4.39928 33.8152 3.20514 33.9494 2.92471 34.0161C2.73904 34.0604 2.6828 34.0289 2.7167 33.898C2.76754 33.7081 3.19435 33.4854 3.86461 33.2993C4.44088 33.1395 4.08264 32.999 3.34535 33.0953C3.02563 33.1376 2.4848 33.2056 2.14351 33.2473L1.52178 33.3224L2.0395 32.9374C2.32456 32.7256 2.55722 32.5351 2.55722 32.5139C2.55722 32.4927 2.17201 32.4414 1.70206 32.4003C0.587273 32.3021 -0.00748657 32.0602 7.11445e-05 31.7079C0.00406963 31.5218 0.89775 31.2735 1.72826 31.2266C2.07032 31.2067 2.84767 31.1143 3.45475 31.0207C4.06184 30.927 4.99404 30.8281 5.52562 30.8018C6.12643 30.7692 6.72531 30.7154 7.32069 30.6408C10.1489 30.2551 10.7852 30.1595 10.9077 30.1056C10.9825 30.0722 10.7652 29.992 10.4247 29.9278C10.0818 29.863 9.80527 29.7482 9.80527 29.6699C9.80527 29.4896 11.1966 29.0975 12.4593 28.9223C13.0734 28.837 13.5279 28.7105 13.6766 28.5822C13.8099 28.468 14.2721 28.3242 14.729 28.2543C15.7667 28.0958 15.7382 27.945 14.6111 27.6216C14.37 27.5523 14.1997 27.44 14.2336 27.3713C14.3122 27.2167 14.9516 26.9799 15.2937 26.9799C15.4347 26.9799 15.5117 26.9311 15.4647 26.8727C15.4185 26.8137 14.9177 26.7649 14.3523 26.7649C13.4216 26.7649 13.0479 26.6558 13.4971 26.5146C13.9 26.3882 11.8854 26.4569 10.89 26.6026C9.65119 26.7848 8.97631 26.7084 8.97631 26.3869C8.97631 26.2381 9.33763 26.0436 10.3322 25.6548C11.2683 25.2884 11.6304 25.0965 11.5048 25.0336C11.266 24.9143 11.5017 24.7917 12.4278 24.5543C13.7344 24.2187 14.7714 23.6572 14.635 23.3575C14.5425 23.1534 15.0518 23.0418 17.1566 22.8056C18.202 22.6882 19.2498 22.5181 19.484 22.427C19.7182 22.3372 20.2143 22.2345 20.5864 22.1992C21.6126 22.1036 23.5756 21.718 23.8823 21.5518C24.0317 21.4709 24.3422 21.401 24.5726 21.3965C24.8021 21.3926 25.1142 21.3477 25.2659 21.297C25.4863 21.2238 25.43 21.202 24.9901 21.1892C23.8137 21.1552 23.1889 21.0653 23.0333 20.9068C22.927 20.7984 22.7605 20.7657 22.5502 20.8106C22.2736 20.8683 22.2636 20.8619 22.4732 20.7593C22.6072 20.6944 22.8253 20.6547 22.9562 20.6713C23.1019 20.6863 23.2497 20.6656 23.3815 20.6117C23.4909 20.5584 23.7058 20.5796 23.9077 20.663C24.1727 20.7734 24.3052 20.7766 24.5086 20.6778C24.6743 20.5975 24.8014 20.5898 24.8538 20.6559C24.9 20.7137 25.2914 20.7625 25.7228 20.765C26.155 20.767 26.6642 20.8375 26.8538 20.9216C27.2675 21.1051 27.4061 21.1186 27.4061 20.9755C27.4061 20.9165 27.3091 20.8683 27.1904 20.8683C27.0726 20.8683 27.0094 20.8254 27.0517 20.7734C27.0926 20.7208 26.9971 20.6515 26.8376 20.6194C26.6789 20.5873 26.5756 20.4974 26.6088 20.4198C26.6696 20.2767 27.2875 20.1926 29.2004 20.0681C30.9285 19.9552 31.4092 19.8949 31.4092 19.7896C31.4092 19.7338 31.3168 19.6889 31.202 19.6889C31.0872 19.6889 30.9955 19.5933 30.9955 19.4746C30.9955 19.3174 31.0879 19.2602 31.3406 19.2602C31.7374 19.2602 31.8052 19.0947 31.4385 19.0203C31.3029 18.9927 30.6041 18.9959 29.8853 19.0273C27.7937 19.1191 26.9562 19.0889 26.5186 18.9047C26.296 18.8111 26.0749 18.7539 26.0256 18.7771C25.977 18.8008 25.9632 18.684 25.9947 18.5178C26.0633 18.1559 25.8684 18.0994 24.4516 18.0686C23.6034 18.0506 23.5371 18.0346 23.8322 17.9159C24.3176 17.7208 26.0964 17.441 27.1573 17.3923C27.6997 17.3672 28.2112 17.2793 28.3954 17.1792C28.7883 16.9662 29.024 16.963 29.289 17.169C29.4084 17.262 29.7413 17.3294 30.0733 17.3275C31.0964 17.3236 34.9138 17.022 35.4323 16.9039C35.9161 16.7948 35.9308 16.7769 35.8291 16.4252C35.7644 16.2038 35.779 16.0165 35.8653 15.9491C35.9639 15.8721 35.96 15.7925 35.8522 15.6918C35.5224 15.3831 35.9416 15.3196 37.9562 15.3709C39.5217 15.4113 40.0101 15.3895 40.3275 15.2638C40.6634 15.1303 42.1788 14.9468 43.2127 14.914C43.3645 14.9089 43.799 14.862 44.1788 14.8094L44.8691 14.7132L44.2482 14.6355C43.9061 14.5925 42.8814 14.5823 41.97 14.6124C41.0041 14.6433 40.0376 14.6568 39.071 14.6529C38.3876 14.6445 37.0525 14.717 36.1033 14.8133C34.2251 15.0032 32.2882 15.1361 31.4547 15.1322C31.1642 15.1309 30.8869 15.172 30.8399 15.2233C30.7921 15.2747 30.5587 15.3228 30.3222 15.3305C30.0849 15.3382 29.8907 15.3844 29.8907 15.4332C29.8907 15.4819 29.7513 15.4909 29.5802 15.4537C29.3368 15.4011 29.3145 15.4107 29.477 15.4986C29.655 15.5955 29.6504 15.6116 29.4423 15.6128C29.3091 15.6141 29.2004 15.668 29.2004 15.7341C29.2004 15.8073 29.0695 15.7867 28.8607 15.6802C28.4832 15.4877 28.3168 15.4582 28.4316 15.6026C28.4732 15.6545 28.3838 15.7226 28.2328 15.7534C28.0756 15.7855 27.9585 15.7559 27.9585 15.6847C27.9585 15.6128 27.7405 15.5609 27.4408 15.5609C27.1118 15.5609 26.9346 15.6077 26.9554 15.6898C26.9778 15.7784 26.8283 15.8028 26.4778 15.7681C25.9031 15.7104 25.336 15.4614 25.333 15.2638C25.3314 15.179 25.2829 15.19 25.1974 15.2926C25.0934 15.4178 25.0633 15.3863 25.061 15.1515C25.0587 14.7652 25.286 14.4353 25.5556 14.4353C25.6712 14.4353 25.7274 14.3872 25.6804 14.3282C25.6342 14.2691 25.7074 14.2171 25.8445 14.2127C26.2991 14.1972 26.5887 14.1324 26.8961 13.9759C27.1719 13.836 27.8206 13.8899 27.8206 14.0529C27.8206 14.0824 27.7366 14.0817 27.6357 14.0516C27.5333 14.0214 27.363 14.0805 27.2559 14.1825C27.088 14.3429 27.088 14.3557 27.2574 14.2775C27.4077 14.2069 27.4308 14.2306 27.3561 14.3821C27.2975 14.4995 27.3299 14.6137 27.4362 14.6663C27.7004 14.796 27.9223 14.7716 27.6827 14.6387C27.5263 14.5528 27.6064 14.5386 28.0055 14.5816C28.2983 14.6137 28.648 14.5842 28.7883 14.5168C28.9793 14.4238 29.0887 14.4257 29.2428 14.5245C29.4054 14.6298 29.4655 14.6182 29.551 14.4648C29.6103 14.3596 29.6488 14.2383 29.6365 14.194C29.6249 14.1491 29.7027 14.1132 29.8106 14.1132C29.9185 14.1132 30.0294 14.058 30.0587 13.9913C30.088 13.9232 30.2937 13.8533 30.5163 13.8347C30.7397 13.8161 30.9909 13.7275 31.0756 13.637C31.1604 13.5472 31.2798 13.5087 31.3414 13.5523C31.403 13.5953 31.4146 13.5459 31.3668 13.4433C31.2605 13.2122 31.524 13.1904 31.638 13.4208C31.7104 13.5677 31.7497 13.5658 31.9785 13.4048C32.2235 13.2321 32.2382 13.2334 32.2405 13.4266C32.242 13.5979 32.2636 13.605 32.3761 13.4702C32.5756 13.2302 32.5471 13.1782 32.1773 13.1064C31.9431 13.0602 31.8476 12.9716 31.863 12.8144C31.8869 12.5641 32.3676 12.3774 32.9223 12.4024C33.4385 12.4262 33.8946 12.2882 33.8946 12.1079C33.8946 11.9924 34.0317 11.9584 34.4123 11.9795C34.9685 12.0116 35.9046 11.891 36.2412 11.744C36.4084 11.6715 36.3953 11.6523 36.1719 11.6452C35.8495 11.6307 35.5274 11.6115 35.2058 11.5875C34.0317 11.5015 32.4708 11.504 31.9069 11.5926C31.5209 11.6536 31.3969 11.6433 31.4654 11.556C31.5255 11.4816 31.4886 11.4572 31.3684 11.4931C31.2544 11.5271 31.071 11.429 30.9254 11.2557C30.7482 11.0452 30.7251 10.949 30.8437 10.9182C30.9554 10.8893 30.9285 10.8251 30.7613 10.7237C30.534 10.5851 30.5487 10.5768 30.9262 10.6275C31.1542 10.6583 31.2628 10.6551 31.1681 10.6211C30.8183 10.4927 31.0109 10.3605 31.5479 10.3605C31.8961 10.3605 32.1003 10.4099 32.1026 10.4953C32.1034 10.5935 32.1349 10.5903 32.2228 10.4831C32.2975 10.392 32.3738 10.3785 32.4285 10.4472C32.5209 10.5633 32.6966 10.5543 33.128 10.4106C33.2759 10.3618 33.601 10.3182 33.8506 10.3143C34.4231 10.3053 34.6087 10.039 34.0433 10.039C33.8191 10.039 33.6134 9.9691 33.5687 9.87862C33.5147 9.76953 33.5748 9.71755 33.7536 9.71755C33.9 9.71755 34.0687 9.65723 34.1288 9.5828C34.2875 9.39093 34.8499 9.16377 34.9947 9.23307C35.0625 9.26516 35.1565 9.24334 35.2043 9.18302C35.252 9.12334 35.4624 9.07393 35.6719 9.07393C35.8815 9.07393 36.3907 8.99564 36.8029 8.90003C37.4539 8.74859 37.5117 8.71394 37.2466 8.63693C37.0771 8.58752 35.9254 8.55351 34.685 8.56186C33.4446 8.5702 32.3483 8.53747 32.249 8.48999C32.1465 8.44057 32.0279 8.45469 31.9747 8.52207C31.8638 8.66132 27.5718 8.7672 27.4655 8.63308C27.4277 8.58624 27.3006 8.57597 27.1827 8.61127C27.0379 8.65426 27.0186 8.69918 27.1242 8.74923C27.2089 8.7903 27.0903 8.82367 26.8591 8.82367C26.628 8.82367 26.44 8.77811 26.44 8.721C26.44 8.66517 26.3453 8.67993 26.2297 8.75436C26.1142 8.82944 25.9755 8.85575 25.9216 8.81404C25.8669 8.77233 25.977 8.64656 26.1658 8.5349L26.5086 8.33213L26.1635 8.38346C25.8615 8.42838 25.853 8.42261 26.0941 8.33341C26.4924 8.18582 27.1473 8.20186 27.5309 8.36678C27.9046 8.5272 28.3722 8.47458 28.3722 8.27117C28.3722 8.17748 28.645 8.13577 29.2698 8.1332C29.8322 8.13063 30.1673 8.17299 30.1673 8.24678C30.1673 8.31159 30.2443 8.28528 30.3399 8.18903C30.4639 8.06197 30.8383 7.99395 31.6858 7.94454C32.3306 7.90604 33.2513 7.80722 33.7305 7.72444C34.2097 7.64102 34.7998 7.56851 35.0417 7.56273C35.2836 7.55696 35.7929 7.48637 36.1719 7.40616C36.8191 7.26883 36.7466 7.26306 34.9986 7.31824C33.9739 7.35033 33.0417 7.37728 32.9277 7.37856C32.8144 7.37921 31.3853 7.49343 29.7536 7.63139C28.1203 7.77 26.3407 7.8977 25.7983 7.91567C25.2551 7.93363 24.8399 7.98433 24.8738 8.0286C24.9092 8.07352 24.6696 8.10946 24.3422 8.10946C24.0156 8.10946 23.1889 8.18005 22.5055 8.26539C21.3337 8.4117 18.5772 8.56314 18.9516 8.45983C19.0472 8.43416 19.0903 8.36806 19.0472 8.31416C19.004 8.26026 19.1435 8.21406 19.3569 8.21149C19.5703 8.20828 19.9616 8.11459 20.2274 8.00294C20.4932 7.89064 20.8353 7.75396 20.9871 7.69941C21.4863 7.51845 29.628 6.47249 31.5479 6.34222C32.1172 6.30372 33.7636 6.17666 35.2058 6.05987C36.6488 5.94309 38.5525 5.80063 39.4369 5.74352C40.3214 5.68576 41.3445 5.56962 41.7096 5.48427C42.1896 5.37197 42.3999 5.36235 42.4693 5.44834C42.5563 5.55742 44.0086 5.52791 45.7666 5.38032C46.3872 5.33723 47.0085 5.30129 47.6303 5.27251C48.9924 5.20642 51.0679 4.98375 52.2296 4.77969C52.5578 4.72193 52.8845 4.70268 52.9554 4.73669C53.027 4.77134 53.9885 4.69242 55.0933 4.56279C56.7265 4.37028 57.1603 4.35103 57.4168 4.45755C57.6757 4.56536 58.007 4.54739 59.2389 4.35873C61.2897 4.0443 63.9661 3.63618 65.3005 3.43469C65.9076 3.34228 66.7897 3.19854 67.2612 3.11448C67.7327 3.03106 68.3228 2.96304 68.5724 2.96304C68.8228 2.96304 69.3066 2.89438 69.6487 2.80903C70.2242 2.66593 71.4037 2.50743 74.5493 2.14872C75.7505 2.01879 76.9473 1.86259 78.1386 1.68028C78.8975 1.56863 80.1402 1.39794 80.8998 1.30104L82.6949 1.07003C84.3058 0.863402 84.6132 0.867252 84.9337 1.09891C85.1063 1.22339 85.248 1.37997 85.248 1.44735C85.248 1.51408 85.2942 1.56285 85.3513 1.55644C85.4083 1.54938 85.5978 1.54938 85.7704 1.55644C86.0346 1.5667 86.0631 1.60136 85.9476 1.76948C85.7788 2.01461 85.9144 2.1468 86.1671 1.98381C86.4522 1.80028 86.3867 1.9652 86.0593 2.25781C85.8875 2.41118 85.5431 2.5485 85.2249 2.59021C84.7619 2.65117 84.7087 2.68454 84.8574 2.82379C85.0801 3.03234 84.8921 3.04518 93.738 2.21418C94.3451 2.15642 95.4329 2.08712 96.154 2.05889C96.8751 2.03001 98.1802 1.95621 99.0531 1.89461C99.9259 1.83237 101.075 1.76242 101.607 1.73868C102.139 1.71558 102.819 1.64627 103.119 1.58531C103.419 1.52435 104.61 1.47109 105.766 1.46788C106.921 1.46403 107.949 1.43965 108.05 1.41334C108.298 1.34853 111.533 1.21698 112.303 1.24008C112.643 1.25099 113.017 1.32607 113.133 1.40756C113.393 1.59045 114.055 1.60841 117.137 1.51858C118.554 1.47687 119.854 1.38254 120.281 1.29013C120.839 1.16949 121.763 1.13612 124.216 1.14896C125.979 1.15923 128.913 1.12971 130.735 1.08543C134.427 0.995592 134.23 0.994309 138.051 1.12329C140.525 1.20671 141.953 1.20992 144.125 1.13805C144.505 1.12521 144.707 1.09313 144.574 1.06618C144.441 1.03923 144.333 0.966716 144.333 0.905113C144.333 0.831317 144.72 0.813991 145.471 0.85506C146.098 0.889712 147.977 0.966716 149.647 1.02639C151.318 1.08607 153.46 1.18489 154.41 1.24457C158.223 1.48842 159.677 1.57376 161.658 1.67194C166.61 1.91771 169.221 2.01525 171.942 2.05696C173.195 2.07685 174.748 2.12562 175.393 2.16605C176.105 2.20805 176.819 2.22903 177.533 2.22894C178.064 2.2238 179.12 2.26744 179.879 2.32519C180.639 2.38294 183.097 2.45161 185.344 2.47791C187.59 2.50358 189.702 2.5716 190.037 2.62936C190.373 2.68711 191.135 2.76026 191.732 2.79171C192.329 2.82379 193.011 2.87513 193.25 2.90529C194.067 3.00924 195.341 3.07919 197.205 3.12346C198.845 3.16325 200.44 3.25758 202.795 3.45458C203.175 3.48666 203.703 3.52517 203.969 3.54185C204.235 3.55853 204.918 3.60281 205.487 3.64067C206.057 3.67917 207.02 3.73885 207.627 3.77543C208.235 3.81136 208.762 3.85564 208.8 3.87361C208.839 3.89222 209.223 3.93585 209.655 3.97179C210.087 4.00708 210.531 4.06355 210.641 4.09692C210.753 4.12965 211.394 4.17136 212.066 4.18868C213.911 4.23745 213.909 4.23681 213.909 4.41007C213.909 4.49862 213.974 4.57049 214.055 4.57049C214.135 4.57049 214.155 4.51467 214.101 4.44536C214.033 4.36002 214.078 4.34269 214.242 4.3921C214.375 4.43124 214.62 4.46397 214.788 4.46397C214.993 4.46397 215.099 4.53327 215.113 4.6783C215.137 4.93498 215.063 4.94653 214.786 4.73156C214.497 4.50696 214.174 4.52429 214.271 4.75851C214.318 4.87402 214.304 4.89968 214.232 4.82653C214.153 4.74503 213.764 4.72963 213.011 4.7784C211.715 4.86182 210.738 4.83936 208.939 4.68215C208.218 4.61862 207.285 4.54097 206.868 4.50953C206.45 4.47745 206.036 4.43317 205.947 4.41071C205.859 4.38825 205.75 4.44279 205.706 4.53263C205.647 4.65327 205.516 4.67637 205.201 4.62247C204.706 4.53841 204.389 4.50632 203.071 4.40814C202.54 4.36836 202.068 4.31831 202.023 4.29649C201.926 4.25029 200.08 4.24258 197.55 4.27724C195.945 4.30034 194.813 4.23873 193.969 4.08344C193.493 3.99617 190.164 3.95831 190.164 4.04045C190.164 4.0828 190.584 4.15211 191.097 4.19446C191.608 4.23745 192.152 4.29071 192.304 4.31446C193.369 4.47745 196.221 4.66097 198.516 4.71231C199.047 4.72514 199.548 4.76749 199.628 4.80728C199.762 4.87337 203.989 5.12941 204.216 5.08513C204.27 5.07423 204.78 5.09925 205.349 5.14096C206.23 5.20449 208.478 5.33283 209.042 5.35144C209.246 5.35786 209.27 5.49646 209.083 5.5863C208.949 5.65047 207.908 5.66587 206.966 5.6171C206.679 5.6017 206.393 5.52598 206.332 5.44834C206.248 5.34374 206.01 5.32641 205.405 5.37967C204.956 5.4201 204.549 5.47208 204.498 5.49518C204.447 5.51892 204.311 5.46502 204.196 5.37518C204.08 5.28534 203.953 5.2539 203.913 5.3046C203.835 5.40213 201.049 5.36042 200.241 5.24941C199.976 5.21283 199.507 5.17241 199.201 5.16086C198.894 5.14802 198.506 5.08193 198.338 5.01198C198.094 4.91059 198.033 4.9138 198.033 5.02802C198.033 5.11273 197.848 5.18267 197.584 5.19936C196.493 5.26802 194.965 5.2616 193.753 5.18331C192.882 5.12685 192.51 5.1339 192.645 5.20449C193.189 5.48684 192.168 5.62673 190.578 5.48684C189.168 5.36235 188.917 5.35593 188.308 5.4278C187.993 5.46502 187.553 5.45732 187.328 5.41048C186.737 5.28727 183.664 5.06973 182.295 5.05369C181.604 5.04422 180.914 5.01511 180.225 4.96642C179.732 4.92599 178.738 4.86824 178.016 4.83808C176.75 4.7776 175.484 4.70679 174.22 4.62568C172.715 4.53192 171.209 4.45534 169.702 4.39595C167.881 4.33178 167.661 4.34205 167.581 4.50247C167.507 4.65456 167.266 4.68022 165.956 4.67637C165.11 4.67381 164.138 4.71102 163.797 4.75851L163.176 4.84578L164.212 4.96514C164.781 5.03123 165.464 5.08385 165.729 5.08193C165.996 5.08 167.083 5.1538 168.145 5.24492C169.208 5.33604 171.227 5.46502 172.632 5.53047C174.037 5.59657 175.324 5.67357 175.493 5.70181C175.662 5.73004 177.06 5.79999 178.599 5.85774C181.366 5.96041 183.305 6.04512 184.78 6.12597C185.198 6.14907 186.631 6.21645 187.963 6.27613C189.297 6.3358 190.477 6.40639 190.587 6.4327C190.696 6.45837 190.91 6.51676 191.061 6.56104C191.213 6.60596 191.577 6.65601 191.869 6.67205C192.16 6.68874 192.471 6.77858 192.559 6.87226C192.686 7.00702 193.046 7.04745 194.306 7.06991C195.179 7.08531 195.955 7.12766 196.031 7.1636C196.107 7.19953 196.635 7.25793 197.205 7.29194C199.926 7.45749 202.648 7.59225 203.899 7.62305C204.659 7.64166 206.275 7.74112 207.49 7.8438C208.704 7.94647 210.257 8.04721 210.941 8.06711C215.67 8.20186 219.447 8.3732 221.432 8.54068C222.115 8.59843 223.313 8.67672 224.093 8.71458C224.874 8.75308 225.546 8.82495 225.586 8.875C225.626 8.9257 225.453 8.97126 225.202 8.97575C224.951 8.98024 224.57 8.99436 224.355 9.00655C224.141 9.0181 223.939 8.99436 223.905 8.95265C223.872 8.91158 223.616 8.92698 223.335 8.98666C223.05 9.04762 222.426 9.06495 221.922 9.02516C221.425 8.98666 218.781 8.93532 216.048 8.91286C213.315 8.88976 210.053 8.83971 208.801 8.80121C206.567 8.73383 205.935 8.77554 207.399 8.89361C207.806 8.9257 208.168 8.97639 208.205 9.00463C208.304 9.08163 207.799 9.27029 207.38 9.31393C206.892 9.36526 206.738 9.50066 207.155 9.51285C207.339 9.51734 208.297 9.56676 209.284 9.62194C210.271 9.67649 212.211 9.75028 213.598 9.78493C215.875 9.84269 216.117 9.86643 216.117 10.0358C216.117 10.272 216.672 10.3278 220.022 10.4279C221.372 10.4683 222.51 10.5421 222.55 10.5922C222.589 10.6416 222.894 10.682 223.227 10.682C224.361 10.682 224.043 10.9785 222.649 11.2198C222.256 11.2878 221.728 11.3346 221.476 11.3237C219.795 11.2512 220.236 11.4623 222.122 11.633C222.882 11.7017 223.937 11.7806 224.469 11.8095C225 11.8384 225.963 11.9096 226.609 11.9686C227.254 12.027 228.558 12.1072 229.508 12.1457C230.677 12.1939 231.278 12.2619 231.372 12.3575C231.448 12.4345 231.94 12.5288 232.476 12.5673C233.007 12.6058 233.504 12.6957 233.58 12.7682C233.656 12.8401 234.172 12.9318 234.726 12.9716C235.281 13.0114 235.874 13.1147 236.043 13.2013C236.239 13.3008 236.836 13.3759 237.659 13.406C239.432 13.4702 240.822 13.5908 240.899 13.6877C240.98 13.7891 239.771 13.9348 239.586 13.8456C239.509 13.809 239.447 13.8251 239.447 13.8809C239.447 13.9367 239.664 14.0137 239.93 14.0529C240.455 14.1292 240.554 14.2627 240.172 14.3776C239.721 14.5136 240.352 14.7286 241.771 14.923C242.963 15.0854 243.717 15.2869 243.167 15.2958C242.651 15.3042 243.448 15.4935 244.277 15.5589C244.77 15.5987 245.245 15.677 245.333 15.7341C245.422 15.7906 245.886 15.8862 246.367 15.9465C247.701 16.1134 247.687 16.2481 246.325 16.3309C245.817 16.3617 245.352 16.4535 245.212 16.551C245.016 16.687 244.776 16.7037 243.901 16.6402C242.121 16.5112 241.768 16.5362 241.501 16.8109C241.37 16.9456 241.29 17.0894 241.323 17.1311C241.356 17.1722 241.801 17.2402 242.313 17.2813C242.825 17.3223 243.305 17.3935 243.382 17.4404C243.457 17.4866 243.815 17.5585 244.175 17.6002C245.165 17.7144 244.962 17.8658 243.818 17.8658C243.262 17.8658 242.759 17.9024 242.701 17.9467C242.644 17.991 242.065 18.0269 241.415 18.0269C240.593 18.0269 240.214 18.068 240.174 18.161C240.133 18.2528 240.281 18.2951 240.644 18.2958C240.935 18.2958 241.391 18.3407 241.656 18.3946C241.922 18.4485 242.665 18.5229 243.308 18.5608C243.95 18.598 244.546 18.6737 244.632 18.7289C244.717 18.7841 244.824 18.8008 244.868 18.7668C244.912 18.7321 245.093 18.7443 245.269 18.7931C245.517 18.8618 245.37 18.8977 244.624 18.9503C243.744 19.0126 242.739 19.1691 242.208 19.327C241.871 19.4271 242.395 19.5375 243.968 19.6966C244.746 19.7755 245.383 19.8686 245.383 19.9032C245.383 19.9385 245.787 19.9469 246.281 19.9225C247.002 19.8872 247.177 19.909 247.177 20.0348C247.177 20.2292 246.741 20.5469 246.476 20.5449C246.315 20.5436 246.316 20.5257 246.487 20.439C246.664 20.3505 246.658 20.3351 246.449 20.3338C246.313 20.3325 246.166 20.407 246.12 20.4987C246.051 20.6399 245.801 20.6566 244.433 20.6085C242.721 20.5488 242.299 20.62 242.615 20.9152C243.143 21.4093 245.299 21.9406 246.781 21.9406C247.677 21.9406 248.144 22.0702 248.144 22.3192C248.144 22.4437 247.923 22.4758 247.074 22.4732C246.486 22.4726 245.756 22.4206 245.452 22.3584C245.148 22.2961 243.717 22.2236 242.272 22.1967C239.717 22.1498 239.644 22.1543 239.623 22.3635C239.603 22.5701 239.772 22.7184 240.068 22.7556C240.144 22.7652 240.74 22.8512 241.392 22.9468C243.526 23.2587 245.42 23.4493 247.359 23.5455C249.155 23.6353 249.768 23.7579 249.583 23.9915C249.54 24.0448 249.446 24.0595 249.373 24.0249C249.301 23.9902 249.258 24.0249 249.279 24.1038C249.301 24.1821 249.21 24.2385 249.077 24.2308C248.945 24.2225 248.867 24.2533 248.904 24.2995C248.94 24.3451 248.759 24.4137 248.501 24.4509C247.944 24.5324 247.812 24.7256 248.097 25.042C248.249 25.2107 248.266 25.3115 248.157 25.4129C247.979 25.5791 248.096 25.6926 248.442 25.6926C248.583 25.6926 248.697 25.7132 248.697 25.7376C248.697 25.7626 248.737 25.8659 248.788 25.9686C248.872 26.1386 248.78 26.1482 247.649 26.0821C246.972 26.0436 246.185 25.9827 245.9 25.9474C245.489 25.8967 245.383 25.9179 245.383 26.0513C245.383 26.1431 245.283 26.2618 245.16 26.3151C244.845 26.4524 245.034 27.0704 245.43 27.1942C245.714 27.2834 245.715 27.2885 245.452 27.302C245.176 27.3161 245.176 27.3161 245.452 27.4085C245.722 27.4984 245.345 27.5369 243.933 27.5638C243.345 27.5747 242.899 27.7191 242.899 27.8981C242.899 27.9944 242.755 28.0522 242.519 28.0534C242.285 28.0567 242.053 28.079 241.825 28.1202C241.531 28.1811 241.526 28.194 241.756 28.3294C241.891 28.4089 242.17 28.475 242.378 28.477C242.586 28.4789 243.166 28.6496 243.667 28.8556C244.172 29.0641 244.778 29.231 245.029 29.231C245.865 29.231 247.171 29.3676 247.107 29.4485C247.071 29.4928 247.148 29.5216 247.278 29.5139C247.409 29.5072 247.527 29.5783 247.561 29.684C247.624 29.9201 246.809 30.3263 246.388 30.2692C246.221 30.2461 246.06 30.2801 246.033 30.3443C245.968 30.4957 244.356 30.5387 243.712 30.4059C243.439 30.3494 242.025 30.2904 240.572 30.2744C238.114 30.2474 237.389 30.302 238.308 30.4457C238.516 30.4778 238.967 30.5535 239.309 30.6138C239.707 30.6791 240.111 30.7171 240.517 30.7274C240.839 30.73 241.103 30.7807 241.103 30.8397C241.103 30.8981 241.201 30.9469 241.319 30.9469C241.439 30.9469 241.664 30.9995 241.82 31.0643C242.1 31.1811 242.099 31.1836 241.776 31.3088C241.209 31.5282 241.385 31.7349 242.337 31.9697C242.825 32.0904 243.254 32.2598 243.289 32.3451C243.325 32.4311 243.409 32.5293 243.476 32.5633C243.687 32.6711 243.434 33.0016 243.195 32.9303C243.074 32.8944 243.014 32.8951 243.06 32.931C243.107 32.9669 242.989 33.1184 242.797 33.2672C242.545 33.4623 242.286 33.5425 241.858 33.5554C241.533 33.565 241.292 33.6041 241.323 33.6433C241.354 33.6818 240.784 33.6895 240.058 33.6606C239.002 33.6182 238.69 33.6407 238.505 33.7703C238.248 33.9513 236.892 34.0257 236.185 33.898C235.915 33.8493 235.718 33.864 235.659 33.9378C235.607 34.0026 235.419 34.0559 235.24 34.0559C234.824 34.0559 234.477 34.1586 234.477 34.2818C234.477 34.3344 234.567 34.378 234.677 34.378C234.788 34.378 234.93 34.4505 234.995 34.5404C235.067 34.6411 235.607 34.7778 236.417 34.8997C238.012 35.141 239.186 35.5093 239.075 35.7339C239.029 35.8218 238.909 35.865 238.801 35.8327C238.693 35.8007 238.639 35.8173 238.681 35.8712C238.724 35.9239 238.596 36.1183 238.396 36.3018C238.13 36.5476 237.962 36.6175 237.757 36.5675C237.603 36.529 237.514 36.5425 237.557 36.5964C237.6 36.6503 237.419 36.699 237.155 36.7055C236.891 36.7106 236.238 36.7985 235.706 36.8999L234.737 37.0841L235.045 37.3395C235.214 37.4793 235.411 37.5942 235.481 37.5942C235.552 37.5942 235.822 37.6725 236.083 37.7688C236.537 37.9362 236.548 37.9536 236.347 38.1923C236.214 38.3488 236.188 38.4656 236.276 38.5073C236.312 38.5243 236.338 38.5533 236.348 38.587C236.358 38.6208 236.35 38.6564 236.326 38.6851C236.269 38.757 236.195 38.7448 236.117 38.6511C236.038 38.5568 235.959 38.5439 235.892 38.6152C235.835 38.6748 235.603 38.7942 235.375 38.8795L234.96 39.0348L235.397 39.0708C235.87 39.1105 236.123 39.3852 235.781 39.4879C235.665 39.5225 235.536 39.5238 235.493 39.4911C235.452 39.459 235.211 39.5225 234.958 39.6322C234.645 39.7594 234.314 39.8526 233.973 39.9095C233.685 39.9518 233.365 40.0506 233.263 40.1302C233.021 40.3182 232.926 40.3144 231.644 40.0596C230.492 39.8305 230.167 39.8523 229.695 40.188C229.429 40.3766 229.322 40.3856 228.6 40.2823C227.654 40.1462 225.872 40.1289 225.973 40.2566C226.012 40.3054 226.497 40.4055 227.051 40.4793C228.462 40.666 228.621 40.7064 228.389 40.8175C227.988 41.01 229.786 41.4656 231.544 41.6157C232.019 41.6562 232.438 41.7274 232.474 41.7736C232.511 41.8198 232.411 41.9866 232.251 42.1438C231.984 42.4076 231.979 42.4442 232.184 42.62C232.306 42.7252 232.406 42.8375 232.406 42.8703C232.406 43.0024 230.069 42.8119 229.301 42.6161C228.195 42.3357 225.958 42.131 225.751 42.2914C225.642 42.3761 225.64 42.4493 225.748 42.5494C225.892 42.6842 226.114 42.7419 227.955 43.1256C228.529 43.245 228.818 43.3592 228.818 43.4664C228.818 43.6024 228.654 43.6165 227.793 43.5562C227.137 43.5094 226.738 43.5241 226.681 43.5947C226.632 43.6557 226.668 43.7057 226.761 43.7057C226.854 43.7057 226.899 43.7308 226.859 43.7609C226.767 43.8328 224.812 43.5145 224.617 43.3952C224.464 43.3021 222.449 43.0615 222.019 43.0846C221.885 43.0923 221.777 43.1584 221.777 43.2322C221.777 43.306 221.744 43.4311 221.705 43.5107C221.637 43.648 223.323 43.9258 226.228 44.2557C226.665 44.3051 227.248 44.4187 227.523 44.5085C227.798 44.5977 228.217 44.6709 228.455 44.6709C229.08 44.6721 229.978 44.8845 229.832 44.9968C229.765 45.0495 228.925 45.1059 227.964 45.1226C227.004 45.1393 226.228 45.1611 226.241 45.1714C226.254 45.181 226.571 45.283 226.946 45.3973C227.6 45.5968 227.615 45.6109 227.316 45.7354C227.083 45.8323 226.833 45.8362 226.317 45.7502C225.477 45.6103 225.366 45.6084 225.366 45.7342C225.366 45.7887 225.551 45.8644 225.778 45.9036C226.533 46.0319 226.37 46.1718 225.465 46.1718C224.938 46.1718 224.405 46.2398 224.146 46.3399C223.884 46.4413 223.59 46.4785 223.406 46.433C223.012 46.3361 216.53 46.2982 216.607 46.3945C216.767 46.596 214.956 46.5947 213.411 46.3919C210.282 45.9818 207.619 45.7489 205.902 45.7342C204.953 45.7265 203.523 45.6539 202.726 45.5724C201.676 45.4707 200.624 45.3847 199.57 45.3145C198.631 45.2542 197.824 45.1861 197.775 45.163C197.727 45.1406 197.221 45.0912 196.652 45.0533C196.146 45.0205 195.64 44.9827 195.134 44.9397C194.58 44.8878 192.062 44.7787 190.233 44.7273C188.667 44.6783 187.102 44.6015 185.54 44.497C185.084 44.4649 183.313 44.4187 181.605 44.3943C179.896 44.3686 177.878 44.3083 177.118 44.2595C176.359 44.212 174.26 44.1768 172.452 44.1825C169.719 44.1915 169.145 44.2204 169.035 44.3513C168.924 44.486 168.886 44.4867 168.781 44.3603C168.698 44.2602 168.52 44.2319 168.249 44.2736C168.024 44.3089 167.772 44.2846 167.689 44.2197C167.606 44.1556 167.333 44.092 167.083 44.0799C166.836 44.0681 166.592 44.0394 166.351 43.9939C165.524 43.8033 164.661 43.7481 164.314 43.863C164.035 43.9554 163.339 43.8463 163.436 43.7256C163.471 43.6807 162.806 43.6313 161.957 43.6159C159.672 43.5729 159.436 43.5537 159.177 43.3868C158.967 43.2514 158.946 43.2578 158.987 43.4433C159.019 43.5845 158.967 43.6396 158.827 43.614C158.656 43.5885 158.483 43.5749 158.309 43.5736C158.138 43.5723 157.999 43.5344 157.999 43.4888C157.999 43.4439 157.899 43.3772 157.776 43.3406C157.615 43.2925 157.576 43.3201 157.637 43.442C157.694 43.5575 157.666 43.5832 157.549 43.5254C157.454 43.4786 156.788 43.4253 156.066 43.4067C154.549 43.3682 154.775 43.3682 147.645 43.3875C144.646 43.3964 141.809 43.3682 141.339 43.3259C140.869 43.2829 140.381 43.279 140.253 43.3175C140.018 43.3875 135.509 43.5254 134.123 43.5055C133.04 43.4895 131.811 43.9842 132.494 44.1613C132.596 44.187 132.525 44.2634 132.322 44.3474C132.132 44.4244 131.943 44.529 131.9 44.5785C131.748 44.7581 130.575 44.8589 130.243 44.7203C130.033 44.633 129.477 44.6022 128.603 44.6279C127.876 44.6497 125.487 44.6933 123.295 44.7241C121.102 44.7556 119.158 44.8101 118.973 44.846C118.789 44.882 118.005 44.9192 117.232 44.9282C116.458 44.9372 115.701 44.9988 115.549 45.0649C115.278 45.1836 113.998 45.378 113.783 45.3331C113.519 45.2785 113.028 45.292 112.582 45.3671C112.316 45.412 111.974 45.4403 111.822 45.4306C111.67 45.421 111.421 45.4043 111.27 45.3934C111.118 45.3831 110.404 45.4319 109.682 45.5006C108.961 45.5699 108.102 45.6257 107.774 45.6244C107.446 45.6231 107.104 45.6681 107.015 45.7239C106.925 45.7797 106.65 45.8586 106.404 45.8997C106.036 45.9607 105.955 45.9414 105.955 45.7925C105.955 45.6321 105.841 45.6193 104.954 45.6873C104.404 45.729 102.959 45.7739 101.745 45.7874C100.53 45.8015 99.201 45.8689 98.7919 45.9382C98.5232 45.9864 98.2529 46.0284 97.9814 46.064C97.9444 46.064 97.9914 46.1365 98.0862 46.2251C98.181 46.3136 98.4683 46.3855 98.7241 46.3855C98.9806 46.3855 99.191 46.406 99.191 46.4304C99.191 46.4554 99.2287 46.5523 99.2742 46.6454C99.3897 46.8777 99.0007 46.8661 98.694 46.628C98.5199 46.4933 98.4375 46.4785 98.3959 46.5754C98.3651 46.6486 98.2819 46.6813 98.2125 46.6486C98.1432 46.6152 98.0862 46.6268 98.0862 46.6742C98.0862 46.7224 97.9468 46.7673 97.7757 46.7743C97.6047 46.7814 96.6578 46.8424 95.6702 46.9091C94.684 46.9758 92.6956 47.0496 91.2526 47.0734C89.8104 47.0965 88.4745 47.1427 88.285 47.1748C87.6417 47.2839 84.1055 47.5386 82.211 47.6111C78.6995 47.7459 76.0377 48.136 75.4892 48.5961C75.3174 48.7399 75.0146 48.856 74.7974 48.8618C73.0108 48.9067 70.53 49.0511 69.4414 49.1737C68.8509 49.2369 68.2588 49.29 67.6656 49.3328C67.1163 49.3716 66.569 49.4275 66.0247 49.5003C65.6433 49.5567 65.3082 49.6029 65.2812 49.6029C65.2535 49.6029 65.2311 49.4791 65.2311 49.3283C65.2311 49.1775 65.171 49.0825 65.0971 49.1178Z" fill="#FCC419"/>
<path fill-rule="evenodd" clip-rule="evenodd" d="M170.549 0.41449C170.617 0.383789 170.758 0.505498 170.862 0.683127C170.971 0.871722 171.139 1.00769 171.264 1.00769C171.433 1.00769 171.446 1.0351 171.328 1.13652C171.214 1.23521 171.218 1.27413 171.345 1.30483C171.475 1.33608 171.469 1.37994 171.318 1.51152C171.173 1.63926 171.165 1.68805 171.287 1.71766C171.374 1.73849 171.446 1.79605 171.446 1.8454C171.446 1.89474 171.389 1.90954 171.319 1.87829C171.248 1.84649 171.226 1.88377 171.27 1.96491C171.312 2.04331 171.28 2.10745 171.2 2.10745C171.094 2.10745 171.091 2.15679 171.191 2.29056C171.3 2.43749 171.288 2.47368 171.126 2.47368C170.964 2.47368 170.956 2.49725 171.085 2.59648C171.25 2.72312 171.572 2.60964 171.53 2.43914C171.519 2.39528 171.577 2.341 171.659 2.31962C171.757 2.29331 171.783 2.34923 171.735 2.48245C171.694 2.59429 171.713 2.66337 171.777 2.63651C171.841 2.61019 172.007 2.61841 172.148 2.65569C172.35 2.70887 172.29 2.73683 171.861 2.78946C171.522 2.83113 171.318 2.90459 171.318 2.98518C171.318 3.05645 171.207 3.11457 171.07 3.11457C170.934 3.11457 170.744 3.19516 170.648 3.29384C170.476 3.46983 169.826 3.7105 169.615 3.67597C169.556 3.66665 169.182 3.71708 168.786 3.7889C168.284 3.87423 167.777 3.93938 167.267 3.98408C166.828 4.01971 166.437 4.08605 166.398 4.13155C166.359 4.17706 166.201 4.21489 166.047 4.21598C165.894 4.21708 165.423 4.33989 165.003 4.48901C164.581 4.63758 164.139 4.76038 164.021 4.76148C163.902 4.76258 163.77 4.80534 163.726 4.85523C163.683 4.90567 163.712 4.94679 163.791 4.94679C163.969 4.94679 163.905 5.35632 163.726 5.36564C163.656 5.36893 163.347 5.42375 163.039 5.48625C162.732 5.54985 162.34 5.57671 162.168 5.54546C161.997 5.51476 161.675 5.53011 161.452 5.57945C161.229 5.6288 160.726 5.71377 160.335 5.76914C159.259 5.91991 158.686 6.046 158.686 6.13098C158.686 6.21979 165.232 6.15839 166.853 6.05423C167.706 5.9994 168.032 6.01475 168.384 6.1244C168.629 6.20116 168.859 6.26969 168.894 6.27736C168.93 6.28449 169.126 6.34041 169.331 6.40071C169.536 6.46157 169.794 6.48624 169.905 6.45554C170.016 6.42429 171.714 6.38427 173.679 6.36617C175.644 6.34808 177.51 6.29216 177.826 6.24227C178.141 6.19183 179.088 6.10302 179.929 6.04491C180.77 5.9857 181.568 5.89579 181.702 5.84425C181.836 5.79272 182.227 5.76969 182.569 5.79327C182.912 5.81739 183.224 5.80039 183.261 5.75653C183.299 5.71268 183.384 5.70061 183.449 5.72912C183.514 5.75818 183.567 5.73844 183.567 5.68526C183.567 5.63153 183.61 5.59645 183.664 5.60632C183.876 5.64634 184.971 5.48022 184.971 5.4073C184.971 5.31794 185.935 5.16937 186.3 5.20226C186.434 5.21487 186.652 5.14196 186.783 5.03998C186.915 4.93856 187.121 4.8503 187.241 4.84427C187.361 4.83878 187.804 4.82453 188.225 4.81356C188.645 4.8026 189.22 4.74668 189.501 4.68856C189.782 4.6299 190.228 4.55918 190.493 4.53122C190.758 4.50271 190.944 4.4435 190.906 4.39964C190.787 4.26148 191.071 4.2253 193.287 4.09592C193.406 4.08879 193.492 4.04384 193.48 3.99614C193.467 3.94844 193.572 3.88539 193.712 3.85579C193.914 3.80346 194.108 3.73259 194.289 3.64472C194.521 3.53123 195.004 3.47038 196.012 3.42816C196.782 3.39582 197.544 3.37334 197.707 3.37882C197.869 3.3843 198.178 3.3229 198.394 3.24286C198.616 3.16062 198.82 3.13376 198.864 3.18145C198.974 3.29878 199.424 3.41171 199.325 3.29658C199.221 3.17597 199.345 3.18255 199.685 3.31468C200.371 3.58167 203.617 3.37882 203.956 3.04823C204.061 2.94571 204.072 2.87664 203.987 2.85635C203.915 2.83881 203.856 2.78837 203.856 2.74341C203.856 2.699 203.936 2.68475 204.034 2.71162C204.132 2.73903 204.25 2.71709 204.297 2.66282C204.42 2.51918 203.656 2.54001 203.243 2.69188C203.054 2.7615 202.64 2.84867 202.325 2.88595C202.008 2.92268 201.65 2.96655 201.527 2.98299C201.404 2.99944 201.304 2.95887 201.304 2.89253C201.304 2.80756 201.145 2.78179 200.762 2.80317C200.342 2.82674 200.27 2.81249 200.445 2.73957C200.569 2.68804 200.642 2.61238 200.607 2.57127C200.532 2.48355 201.245 2.39473 202.626 2.32072C203.402 2.2796 203.655 2.29605 203.74 2.39309C203.821 2.48464 203.852 2.48793 203.854 2.4046C203.856 2.23629 204.623 2.2637 204.898 2.44188C205.026 2.52521 205.132 2.55482 205.132 2.50712C205.132 2.45449 205.545 2.44517 206.184 2.483C206.763 2.51809 207.667 2.56907 208.194 2.59648C208.721 2.62389 209.339 2.69517 209.57 2.75383C209.8 2.81194 210.132 2.84045 210.306 2.81633C210.482 2.79275 210.66 2.81523 210.705 2.86622C210.754 2.92378 210.721 2.93146 210.618 2.88595C210.514 2.8399 210.482 2.84758 210.533 2.90679C210.629 3.01863 211.238 3.1195 211.958 3.14363C212.383 3.15788 212.471 3.19351 212.482 3.35744C212.495 3.53287 212.406 3.56139 211.653 3.62443C211.189 3.66281 210.666 3.68583 210.491 3.67487L210.172 3.65513L210.51 3.78671C211.098 4.01587 211.669 4.11291 212.787 4.17157C213.384 4.20282 214.245 4.29602 214.702 4.37826C215.75 4.5674 219.391 4.58221 219.549 4.39745C219.604 4.33406 219.712 4.31291 219.799 4.34865C220.012 4.4435 222.361 4.47475 222.28 4.38265C222.206 4.29548 222.225 4.29438 223.894 4.25765C225.072 4.23188 225.569 4.20063 227.333 4.04109C228.138 3.96873 228.608 4.01039 229.068 4.1946C229.26 4.27245 229.219 4.31631 228.755 4.52628C228.382 4.69624 227.924 4.79547 227.235 4.85797C226.058 4.96488 224.935 5.09919 224.126 5.23077C223.642 5.30917 223.546 5.35742 223.596 5.49667C223.633 5.59645 223.732 5.64689 223.837 5.61728C223.935 5.59042 224.016 5.61399 224.016 5.66991C224.016 5.72583 223.916 5.77188 223.793 5.77243C223.602 5.77353 223.597 5.78669 223.761 5.86289C223.882 5.91881 223.895 5.95225 223.796 5.9528C223.711 5.9539 223.674 6.0164 223.715 6.09261C223.766 6.18855 223.639 6.27791 223.296 6.38756L222.804 6.54435L224.05 6.59918C224.719 6.62955 225.39 6.64509 226.06 6.64578C226.48 6.6403 226.823 6.64139 226.823 6.64797C226.823 6.654 226.709 6.75433 226.568 6.87055C226.428 6.98678 226.313 7.05367 226.313 7.01968C226.313 6.98568 226.183 7.01858 226.025 7.09314C225.867 7.16715 225.312 7.2757 224.792 7.33327C224.272 7.39138 223.619 7.49665 223.341 7.56682C223.027 7.64225 222.701 7.68646 222.373 7.6984C221.662 7.70333 219.873 8.03721 220.39 8.06846C220.515 8.08026 220.639 8.09673 220.762 8.1178C220.899 8.14031 221.036 8.16242 221.173 8.18413C221.465 8.23019 221.483 8.319 221.214 8.38041C221.066 8.4144 220.796 8.54159 220.612 8.66384C220.428 8.7861 220.15 8.88588 219.994 8.88588C219.837 8.88588 219.643 8.94235 219.563 9.01198C219.443 9.11505 219.549 9.14849 220.154 9.19783C220.527 9.22782 220.9 9.26255 221.272 9.302C221.773 9.36011 223.766 9.35189 223.903 9.29103C224.088 9.2088 225.547 9.17042 225.547 9.24717C225.547 9.28829 225.461 9.37272 225.355 9.43522C225.25 9.49827 225.164 9.59256 225.164 9.64519C225.164 9.69782 225.202 9.71373 225.248 9.68028C225.295 9.64739 225.409 9.66603 225.503 9.72195C225.598 9.77841 225.674 9.785 225.674 9.73675C225.674 9.68851 225.761 9.64903 225.866 9.64903C226.173 9.64903 226.089 9.74717 225.667 9.88094C225.193 10.0317 225.261 10.0948 226.025 10.2137C226.722 10.3234 226.854 10.4933 226.355 10.6381C225.838 10.7877 223.41 10.9818 222.023 10.9845C221.372 10.9856 220.687 11.0141 220.501 11.0476L220.163 11.1084L220.526 11.3223C220.727 11.4396 220.987 11.5372 221.105 11.5388C221.408 11.5437 221.5 11.689 221.337 11.9067C221.167 12.1369 220.056 12.5498 219.611 12.5498C219.423 12.5498 219.314 12.5892 219.359 12.6413C219.402 12.6918 219.543 12.7329 219.672 12.7329C219.888 12.7329 220.128 12.9615 220.081 13.1221C220.032 13.2855 222.057 13.1029 222.226 12.9286C222.356 12.7959 225.614 12.4478 225.934 12.5333L226.24 12.6139L225.943 12.7279C225.78 12.791 224.719 12.9527 223.587 13.0887C221.515 13.3365 221.01 13.5114 222.368 13.5114C222.785 13.5114 223.169 13.564 223.294 13.6375C223.472 13.7427 223.717 13.7455 224.751 13.655C226.652 13.4884 227.756 13.3738 228.015 13.3168C228.186 13.2789 228.238 13.3058 228.207 13.4176C228.16 13.5799 227.766 13.7701 227.146 13.9291C226.613 14.0656 226.945 14.1857 227.626 14.1035C227.921 14.0673 228.421 14.0092 228.737 13.9735L229.311 13.9094L228.833 14.2383C228.569 14.4193 228.354 14.5821 228.354 14.6002C228.354 14.6183 228.71 14.6621 229.145 14.6972C230.175 14.7811 230.725 14.9878 230.718 15.2888C230.714 15.4478 229.888 15.6599 229.121 15.6999C228.804 15.7169 228.086 15.7959 227.525 15.8759C226.964 15.956 226.102 16.0404 225.611 16.0629C225.055 16.0908 224.502 16.1367 223.952 16.2005C221.337 16.53 220.749 16.6117 220.636 16.6577C220.567 16.6862 220.768 16.7548 221.083 16.8096C221.399 16.865 221.655 16.9631 221.655 17.03C221.655 17.184 220.369 17.519 219.202 17.6687C218.634 17.7416 218.214 17.8496 218.077 17.9592C217.954 18.0568 217.526 18.1796 217.104 18.2394C216.145 18.3748 216.171 18.5036 217.213 18.78C217.436 18.8392 217.593 18.9351 217.562 18.9938C217.489 19.1259 216.898 19.3282 216.582 19.3282C216.452 19.3282 216.381 19.3699 216.424 19.4198C216.467 19.4702 216.93 19.5119 217.452 19.5119C218.313 19.5119 218.658 19.6051 218.243 19.7257C217.87 19.8337 219.732 19.775 220.652 19.6506C221.798 19.4949 222.421 19.5601 222.421 19.8348C222.421 19.962 222.087 20.1281 221.168 20.4603C220.303 20.7734 219.968 20.9373 220.084 20.991C220.305 21.093 220.087 21.1977 219.231 21.4005C218.023 21.6873 217.065 22.167 217.191 22.423C217.276 22.5973 216.806 22.6927 214.86 22.8945C213.894 22.9948 212.926 23.1401 212.709 23.218C212.493 23.2947 212.034 23.3824 211.69 23.4126C210.742 23.4943 208.927 23.8238 208.644 23.9657C208.506 24.0348 208.219 24.0946 208.006 24.0984C207.794 24.1017 207.505 24.1401 207.365 24.1834C207.161 24.2459 207.213 24.2645 207.62 24.2755C208.707 24.3046 209.285 24.3813 209.428 24.5167C209.527 24.6094 209.681 24.6373 209.875 24.599C210.131 24.5496 210.14 24.5551 209.946 24.6428C209.822 24.6982 209.621 24.7322 209.5 24.7179C209.365 24.7051 209.228 24.7229 209.107 24.7689C209.005 24.8144 208.807 24.7963 208.62 24.7251C208.375 24.6308 208.253 24.628 208.065 24.7125C207.912 24.781 207.794 24.7876 207.746 24.7311C207.703 24.6818 207.341 24.6401 206.943 24.6379C206.543 24.6362 206.072 24.5759 205.897 24.5041C205.515 24.3473 205.387 24.3358 205.387 24.4581C205.387 24.5085 205.476 24.5496 205.586 24.5496C205.695 24.5496 205.753 24.5864 205.714 24.6308C205.676 24.6757 205.765 24.7349 205.912 24.7623C206.059 24.7898 206.154 24.8665 206.124 24.9328C206.067 25.0551 205.496 25.1269 203.728 25.2333C202.131 25.3298 201.687 25.3813 201.687 25.4712C201.687 25.5189 201.772 25.5573 201.878 25.5573C201.984 25.5573 202.069 25.639 202.069 25.7404C202.069 25.8747 201.984 25.9235 201.75 25.9235C201.383 25.9235 201.321 26.065 201.66 26.1286C201.785 26.1521 202.431 26.1494 203.095 26.1225C205.028 26.0441 205.803 26.0699 206.207 26.2272C206.413 26.3073 206.617 26.3561 206.663 26.3363C206.708 26.3161 206.72 26.4158 206.691 26.5578C206.628 26.867 206.808 26.9153 208.118 26.9416C208.902 26.9569 208.963 26.9706 208.69 27.0721C208.241 27.2387 206.597 27.4778 205.617 27.5194C205.115 27.5408 204.643 27.6159 204.472 27.7015C204.109 27.8835 203.891 27.8862 203.646 27.7102C203.536 27.6307 203.228 27.5732 202.921 27.5748C201.976 27.5781 198.447 27.8358 197.968 27.9366C197.521 28.0298 197.507 28.0452 197.601 28.3456C197.661 28.5348 197.648 28.6949 197.568 28.7524C197.477 28.8182 197.48 28.8862 197.58 28.9723C197.885 29.236 197.497 29.2902 195.635 29.2464C194.188 29.2119 193.737 29.2305 193.443 29.3379C193.133 29.452 191.732 29.6088 190.777 29.6367C190.636 29.6411 190.235 29.6811 189.884 29.7261L189.246 29.8083L189.82 29.8747C190.136 29.9114 191.083 29.9202 191.925 29.8944C192.818 29.868 193.711 29.8565 194.605 29.8599C195.236 29.867 196.471 29.805 197.348 29.7228C199.084 29.5605 200.874 29.447 201.645 29.4503C201.913 29.4514 202.169 29.4163 202.213 29.3725C202.257 29.3286 202.473 29.2875 202.691 29.2809C202.911 29.2744 203.09 29.2349 203.09 29.1932C203.09 29.1515 203.219 29.1439 203.377 29.1757C203.602 29.2206 203.623 29.2124 203.473 29.1373C203.308 29.0545 203.312 29.0408 203.505 29.0397C203.628 29.0386 203.728 28.9926 203.728 28.9361C203.728 28.8736 203.849 28.8911 204.042 28.9821C204.391 29.1466 204.545 29.1718 204.439 29.0485C204.4 29.0041 204.483 28.946 204.623 28.9196C204.768 28.8922 204.876 28.9174 204.876 28.9783C204.876 29.0397 205.078 29.0841 205.355 29.0841C205.659 29.0841 205.822 29.0441 205.803 28.9739C205.783 28.8983 205.921 28.8774 206.245 28.907C206.776 28.9564 207.3 29.1691 207.303 29.3379C207.304 29.4103 207.349 29.401 207.428 29.3133C207.524 29.2064 207.552 29.2332 207.554 29.4339C207.556 29.7639 207.346 30.0457 207.097 30.0457C206.99 30.0457 206.938 30.0868 206.982 30.1373C207.024 30.1877 206.957 30.2321 206.83 30.236C206.41 30.2491 206.142 30.3045 205.858 30.4383C205.603 30.5578 205.004 30.5117 205.004 30.3725C205.004 30.3473 205.081 30.3478 205.174 30.3736C205.269 30.3993 205.427 30.3489 205.525 30.2617C205.681 30.1247 205.681 30.1137 205.524 30.1806C205.385 30.2409 205.364 30.2206 205.433 30.0912C205.487 29.9909 205.457 29.8933 205.359 29.8484C205.115 29.7376 204.91 29.7584 205.131 29.8719C205.276 29.9454 205.201 29.9575 204.833 29.9207C204.562 29.8933 204.239 29.9185 204.109 29.9761C203.933 30.0556 203.831 30.0539 203.689 29.9695C203.539 29.8796 203.483 29.8895 203.404 30.0205C203.349 30.1104 203.314 30.214 203.325 30.2519C203.336 30.2902 203.264 30.3209 203.164 30.3209C203.065 30.3209 202.962 30.3681 202.935 30.4251C202.908 30.4832 202.718 30.543 202.512 30.5589C202.305 30.5748 202.073 30.6504 201.995 30.7277C201.917 30.8045 201.806 30.8374 201.749 30.8001C201.692 30.7634 201.682 30.8056 201.726 30.8933C201.824 31.0907 201.581 31.1093 201.475 30.9125C201.408 30.7869 201.372 30.7886 201.16 30.9262C200.934 31.0737 200.92 31.0726 200.918 30.9076C200.917 30.7612 200.897 30.7551 200.793 30.8703C200.609 31.0753 200.635 31.1197 200.977 31.1811C201.193 31.2206 201.281 31.2963 201.267 31.4306C201.245 31.6444 200.801 31.8039 200.288 31.7825C199.811 31.7623 199.389 31.8801 199.389 32.0342C199.389 32.1329 199.263 32.1619 198.911 32.1438C198.397 32.1164 197.532 32.2195 197.22 32.345C197.066 32.407 197.078 32.4234 197.284 32.4295C197.582 32.4418 197.88 32.4583 198.177 32.4788C199.263 32.5523 200.705 32.5501 201.227 32.4744C201.583 32.4223 201.698 32.4311 201.635 32.5057C201.579 32.5693 201.613 32.5901 201.724 32.5594C201.83 32.5303 201.999 32.6142 202.134 32.7622C202.298 32.9421 202.319 33.0243 202.209 33.0506C202.106 33.0753 202.131 33.1301 202.285 33.2167C202.496 33.3352 202.482 33.3423 202.133 33.299C201.922 33.2727 201.822 33.2754 201.909 33.3045C202.233 33.4141 202.055 33.527 201.558 33.527C201.237 33.527 201.048 33.4848 201.046 33.4119C201.045 33.328 201.016 33.3308 200.935 33.4223C200.866 33.5002 200.795 33.5117 200.745 33.453C200.659 33.3538 200.497 33.3615 200.098 33.4843C199.961 33.5259 199.661 33.5632 199.43 33.5665C198.901 33.5742 198.729 33.8017 199.252 33.8017C199.459 33.8017 199.649 33.8615 199.691 33.9388C199.74 34.032 199.685 34.0764 199.52 34.0764C199.384 34.0764 199.228 34.1279 199.173 34.1915C199.026 34.3554 198.506 34.5495 198.373 34.4903C198.31 34.4629 198.223 34.4815 198.179 34.5331C198.135 34.584 197.94 34.6263 197.747 34.6263C197.553 34.6263 197.082 34.6931 196.701 34.7748C196.1 34.9042 196.046 34.9338 196.291 34.9996C196.448 35.0418 197.512 35.0709 198.659 35.0638C199.805 35.0566 200.819 35.0846 200.91 35.1252C201.005 35.1674 201.115 35.1553 201.164 35.0977C201.266 34.9788 205.234 34.8883 205.332 35.0029C205.367 35.0429 205.484 35.0517 205.593 35.0215C205.727 34.9848 205.745 34.9464 205.647 34.9037C205.569 34.8686 205.679 34.8401 205.892 34.8401C206.106 34.8401 206.28 34.879 206.28 34.9278C206.28 34.9755 206.367 34.9629 206.474 34.8993C206.581 34.8351 206.709 34.8127 206.759 34.8483C206.809 34.8839 206.708 34.9914 206.533 35.0868L206.216 35.26L206.535 35.2162C206.814 35.1778 206.822 35.1827 206.599 35.2589C206.231 35.385 205.626 35.3713 205.271 35.2304C204.926 35.0934 204.494 35.1383 204.494 35.3121C204.494 35.3922 204.242 35.4278 203.664 35.43C203.144 35.4322 202.835 35.396 202.835 35.3329C202.835 35.2776 202.763 35.3 202.675 35.3823C202.56 35.4908 202.214 35.5489 201.431 35.5912C200.835 35.6241 199.984 35.7085 199.541 35.7792C199.098 35.8505 198.553 35.9124 198.329 35.9174C198.106 35.9223 197.635 35.9826 197.284 36.0511C196.686 36.1685 196.753 36.1734 198.369 36.1262C199.316 36.0988 200.178 36.0758 200.283 36.0747C200.388 36.0742 201.709 35.9766 203.217 35.8587C204.727 35.7403 206.371 35.6312 206.873 35.6158C207.375 35.6005 207.759 35.5572 207.727 35.5193C207.695 35.481 207.916 35.4503 208.219 35.4503C208.521 35.4503 209.285 35.39 209.916 35.317C210.999 35.192 213.547 35.0627 213.201 35.1509C213.113 35.1729 213.073 35.2293 213.113 35.2754C213.153 35.3214 213.024 35.3609 212.827 35.3631C212.629 35.3658 212.268 35.4459 212.022 35.5413C211.776 35.6372 211.46 35.754 211.32 35.8006C210.858 35.9552 203.333 36.8488 201.558 36.9601C201.032 36.993 199.51 37.1016 198.177 37.2013C196.844 37.3011 195.084 37.4228 194.267 37.4716C193.449 37.521 192.503 37.6202 192.166 37.6931C191.722 37.7891 191.528 37.7973 191.464 37.7238C191.383 37.6306 190.041 37.6558 188.416 37.7819C187.842 37.8187 187.268 37.8494 186.694 37.874C185.435 37.9305 183.516 38.1207 182.442 38.2951C182.139 38.3444 181.837 38.3609 181.772 38.3318C181.705 38.3022 180.817 38.3696 179.795 38.4804C178.286 38.6449 177.885 38.6613 177.648 38.5703C177.409 38.4782 177.102 38.4935 175.964 38.6547C174.068 38.9234 171.594 39.272 170.361 39.4442C169.8 39.5231 168.985 39.6459 168.549 39.7178C168.113 39.789 167.567 39.8471 167.337 39.8471C167.105 39.8471 166.658 39.9058 166.342 39.9787C165.81 40.101 164.72 40.2364 161.812 40.5429C160.702 40.6539 159.596 40.7873 158.495 40.9431C157.793 41.0385 156.645 41.1843 155.943 41.2671L154.283 41.4644C152.794 41.641 152.51 41.6377 152.214 41.4398C152.055 41.3334 151.924 41.1996 151.924 41.1421C151.924 41.0851 151.881 41.0434 151.828 41.0489C151.775 41.0549 151.6 41.0549 151.441 41.0489C151.196 41.0401 151.17 41.0105 151.277 40.8669C151.433 40.6574 151.308 40.5445 151.074 40.6838C150.811 40.8406 150.871 40.6997 151.174 40.4497C151.332 40.3186 151.651 40.2013 151.945 40.1657C152.373 40.1136 152.422 40.0851 152.285 39.9661C152.079 39.7879 152.253 39.777 144.076 40.4869C143.515 40.5363 142.51 40.5955 141.843 40.6196C141.177 40.6443 139.97 40.7073 139.164 40.76C138.357 40.8131 137.294 40.8729 136.803 40.8932C136.312 40.9129 135.683 40.9721 135.406 41.0242C135.128 41.0763 134.027 41.1218 132.959 41.1245C131.891 41.1278 130.941 41.1487 130.848 41.1711C130.618 41.2265 127.628 41.3389 126.917 41.3192C126.602 41.3098 126.257 41.2457 126.149 41.1761C125.909 41.0198 125.297 41.0045 122.449 41.0812C121.139 41.1169 119.937 41.1975 119.543 41.2764C119.027 41.3795 118.173 41.408 115.906 41.397C114.276 41.3882 111.564 41.4135 109.88 41.4513C106.467 41.528 106.649 41.5291 103.117 41.4189C100.831 41.3477 99.5114 41.3449 97.5033 41.4063C97.1523 41.4173 96.9657 41.4447 97.0889 41.4677C97.2114 41.4908 97.3118 41.5527 97.3118 41.6053C97.3118 41.6684 96.9536 41.6832 96.2593 41.6481C95.6804 41.6185 93.9436 41.5527 92.3998 41.5017C90.8552 41.4507 88.8749 41.3663 87.9976 41.3153C84.4728 41.107 83.129 41.0341 81.2983 40.9502C76.7209 40.7402 74.3077 40.6569 71.7925 40.6213C70.6347 40.6043 69.1991 40.5626 68.6024 40.5281C67.9442 40.4922 67.2847 40.4742 66.6249 40.4743C66.1336 40.4787 65.158 40.4414 64.4559 40.3921C63.7538 40.3427 61.4815 40.2841 59.405 40.2616C57.3293 40.2397 55.3767 40.1816 55.0669 40.1322C54.7565 40.0829 54.0522 40.0204 53.5003 39.9935C52.9492 39.9661 52.3183 39.9223 52.0975 39.8965C51.3427 39.8077 50.1649 39.7479 48.4424 39.7101C46.9256 39.6761 45.4516 39.5955 43.2747 39.4272C42.9236 39.3998 42.4359 39.3669 42.1902 39.3526C41.9445 39.3384 41.3129 39.3005 40.7867 39.2682C40.2597 39.2353 39.3696 39.1843 38.8092 39.1531C38.2473 39.1224 37.7596 39.0845 37.7247 39.0692C37.6891 39.0533 37.3337 39.016 36.9342 38.9853C36.5355 38.9552 36.1246 38.9069 36.0228 38.8784C35.9195 38.8504 35.327 38.8148 34.7061 38.8C33.0006 38.7583 33.0028 38.7589 33.0028 38.6109C33.0028 38.5352 32.9422 38.4738 32.8675 38.4738C32.7934 38.4738 32.7749 38.5215 32.8248 38.5807C32.8881 38.6536 32.8461 38.6684 32.6944 38.6262C32.572 38.5928 32.3455 38.5648 32.1903 38.5648C32.0002 38.5648 31.9026 38.5056 31.8898 38.3817C31.867 38.1624 31.9361 38.1525 32.1917 38.3362C32.4587 38.5281 32.7578 38.5133 32.6681 38.3132C32.6239 38.2145 32.6375 38.1926 32.7037 38.2551C32.777 38.3247 33.1367 38.3378 33.8324 38.2962C35.0301 38.2249 35.9337 38.2441 37.5965 38.3784C38.263 38.4327 39.1246 38.499 39.5106 38.5259C39.8966 38.5533 40.2796 38.5911 40.3615 38.6103C40.4434 38.6295 40.5438 38.5829 40.5844 38.5061C40.6392 38.4031 40.7603 38.3833 41.0516 38.4294C41.5087 38.5012 41.8021 38.5286 43.0198 38.6125C43.5111 38.6465 43.9469 38.6893 43.9889 38.7079C44.0786 38.7474 45.7848 38.754 48.1233 38.7243C49.6066 38.7046 50.6527 38.7572 51.4331 38.8899C51.8732 38.9645 54.9494 38.9968 54.9494 38.9266C54.9494 38.8905 54.5621 38.8313 54.0878 38.7951C53.615 38.7583 53.1123 38.7128 52.972 38.6925C51.9871 38.5533 49.351 38.3965 47.2304 38.3526C46.739 38.3417 46.2762 38.3055 46.2021 38.2715C46.0789 38.215 42.1717 37.9963 41.9616 38.0341C41.9117 38.0434 41.4404 38.0221 40.9141 37.9864C40.1002 37.9321 38.0223 37.8225 37.5011 37.8066C37.3124 37.8011 37.2903 37.6827 37.4633 37.6059C37.5872 37.5511 38.5493 37.538 39.4194 37.5796C39.685 37.5928 39.9492 37.6575 40.0062 37.7238C40.0838 37.8132 40.3032 37.828 40.8629 37.7825C41.2773 37.7479 41.654 37.7035 41.701 37.6838C41.748 37.6635 41.874 37.7096 41.9801 37.7863C42.0869 37.8631 42.2044 37.8899 42.2415 37.8466C42.3134 37.7633 44.889 37.7989 45.6353 37.8938C45.881 37.925 46.3139 37.9596 46.5973 37.9694C46.8807 37.9804 47.2396 38.0369 47.3949 38.0966C47.6199 38.1832 47.6769 38.1805 47.6769 38.0829C47.6769 38.0105 47.8478 37.9508 48.0913 37.9365C49.1003 37.8779 50.5124 37.8833 51.6325 37.9502C52.4372 37.9985 52.7811 37.9924 52.6565 37.9321C52.1538 37.6909 53.098 37.5714 54.567 37.6909C55.8702 37.7973 56.1023 37.8028 56.6656 37.7414C56.9561 37.7096 57.3634 37.7161 57.5714 37.7562C58.1175 37.8614 60.9581 38.0473 62.2227 38.061C62.8617 38.0691 63.5001 38.0939 64.1369 38.1355C64.5926 38.1701 65.5112 38.2194 66.1784 38.2452C67.3487 38.2969 68.5182 38.3574 69.6869 38.4267C71.0776 38.5068 72.4696 38.5722 73.8626 38.6229C75.546 38.6777 75.7496 38.669 75.823 38.5319C75.8921 38.402 76.1142 38.3801 77.3255 38.3833C78.1074 38.3855 79.0053 38.3537 79.3208 38.3132L79.8947 38.2386L78.9377 38.1366C78.4114 38.0802 77.7798 38.0352 77.5349 38.0369C77.2885 38.0385 76.2837 37.9755 75.3017 37.8976C74.3191 37.8198 72.4534 37.7096 71.1545 37.6536C69.8564 37.5972 68.6665 37.5314 68.5105 37.5073C68.3539 37.4831 67.0621 37.4234 65.6394 37.374C63.0822 37.2863 61.2899 37.2139 59.9263 37.1449C59.5403 37.1251 58.2158 37.0676 56.9839 37.0166C55.7513 36.9656 54.6603 36.9053 54.5592 36.8828C54.4581 36.8609 54.2601 36.811 54.1206 36.7732C53.9803 36.7348 53.6442 36.692 53.3743 36.6783C53.1051 36.6641 52.8174 36.5873 52.7363 36.5073C52.6188 36.3921 52.2862 36.3576 51.1212 36.3384C50.3144 36.3253 49.5974 36.2891 49.5269 36.2584C49.4564 36.2277 48.9686 36.1778 48.4424 36.1487C45.9265 36.0073 43.4107 35.8921 42.2543 35.8658C41.5522 35.8499 40.0589 35.765 38.9359 35.6772C37.8137 35.5895 36.3781 35.5034 35.7458 35.4864C31.3749 35.3713 27.8835 35.2249 26.0492 35.0818C25.4176 35.0325 24.3103 34.9656 23.5889 34.9333C22.8676 34.9004 22.2466 34.839 22.2096 34.7962C22.1726 34.7529 22.3321 34.714 22.5642 34.7101C22.7964 34.7063 23.1481 34.6942 23.3475 34.6838C23.5448 34.674 23.7321 34.6942 23.7627 34.7299C23.7933 34.765 24.0304 34.7518 24.2896 34.7008C24.5531 34.6487 25.1299 34.6339 25.5963 34.6679C26.0556 34.7008 28.4988 34.7447 31.0253 34.7639C33.5518 34.7836 36.5661 34.8264 37.7239 34.8593C39.7883 34.9168 40.3729 34.8812 39.0192 34.7803C38.6433 34.7529 38.3086 34.7096 38.2744 34.6855C38.1832 34.6197 38.6497 34.4585 39.037 34.4212C39.4878 34.3774 39.6302 34.2617 39.245 34.2513C39.0748 34.2474 38.1897 34.2052 37.2775 34.1581C36.3653 34.1115 34.5715 34.0484 33.2898 34.0188C31.1848 33.9695 30.9612 33.9492 30.9612 33.8044C30.9612 33.6027 30.4485 33.555 27.3523 33.4695C26.104 33.4349 25.0523 33.3719 25.016 33.3291C24.9796 33.2869 24.6977 33.2524 24.39 33.2524C23.3418 33.2524 23.6352 32.9991 24.9241 32.7929C25.2873 32.7348 25.7751 32.6948 26.0079 32.7041C27.5624 32.7661 27.1544 32.5857 25.4112 32.4399C24.7091 32.3812 23.7335 32.3138 23.2421 32.2891C22.7508 32.2644 21.8607 32.2036 21.2639 32.1532C20.6679 32.1033 19.4624 32.0347 18.5843 32.0018C17.5041 31.9607 16.9487 31.9026 16.8618 31.8209C16.7913 31.7551 16.3363 31.6745 15.8414 31.6416C15.35 31.6088 14.8907 31.532 14.8202 31.47C14.7504 31.4086 14.2734 31.3302 13.7614 31.2963C13.2487 31.2623 12.7003 31.174 12.5437 31.1C12.3628 31.015 11.8109 30.9509 11.0504 30.9251C9.41119 30.8703 8.12657 30.7672 8.05536 30.6844C7.9806 30.5978 9.09787 30.4733 9.26949 30.5496C9.3407 30.5808 9.39765 30.5671 9.39765 30.5194C9.39765 30.4717 9.19685 30.4059 8.95117 30.3725C8.46624 30.3072 8.37437 30.1932 8.72757 30.0951C9.14485 29.9788 8.56094 29.7952 7.24927 29.6291C6.14766 29.4904 5.45123 29.3182 5.95896 29.3105C6.43606 29.3034 5.69977 29.1417 4.93356 29.0858C4.47783 29.0518 4.03845 28.9849 3.95727 28.9361C3.87538 28.8878 3.44598 28.8062 3.00164 28.7546C1.76829 28.6121 1.78184 28.4969 3.04011 28.4262C3.51009 28.3999 3.93946 28.3215 4.06907 28.2382C4.25065 28.122 4.47213 28.1077 5.28107 28.162C6.926 28.2722 7.25213 28.2508 7.49922 28.0161C7.62028 27.901 7.69433 27.7782 7.66371 27.7426C7.63309 27.7075 7.22223 27.6494 6.74868 27.6143C6.27586 27.5792 5.83149 27.5183 5.76099 27.4783C5.69121 27.4388 5.3608 27.3774 5.02754 27.3418C4.11251 27.2442 4.30051 27.1148 5.35726 27.1148C5.87139 27.1148 6.33638 27.0836 6.38978 27.0458C6.44248 27.0079 6.97798 26.9772 7.57898 26.9772C8.33878 26.9772 8.6884 26.9421 8.72614 26.8626C8.76388 26.7842 8.62646 26.7481 8.29177 26.7475C8.0226 26.7475 7.60106 26.7091 7.3561 26.6631C7.11042 26.617 6.42326 26.5534 5.82937 26.5211C5.23549 26.4893 4.68432 26.4246 4.60527 26.3775C4.52694 26.3303 4.42796 26.3161 4.38738 26.3451C4.34608 26.3747 4.17944 26.3643 4.01637 26.3226C3.78708 26.264 3.9231 26.2333 4.61241 26.1883C5.42633 26.1351 6.35488 26.0014 6.84551 25.8665C7.15741 25.781 6.67247 25.6867 5.2191 25.5507C4.49988 25.4833 3.91099 25.4038 3.91099 25.3742C3.91099 25.344 3.53785 25.3369 3.0814 25.3577C2.41488 25.3879 2.25252 25.3692 2.25252 25.2618C2.25252 25.0957 2.65628 24.8243 2.90052 24.8259C3.05006 24.827 3.04865 24.8424 2.89057 24.9164C2.72679 24.9921 2.73248 25.0052 2.92617 25.0063C3.0515 25.0074 3.1875 24.9438 3.22951 24.8654C3.2936 24.7448 3.52503 24.7305 4.78899 24.7717C6.37197 24.8226 6.7615 24.7618 6.46954 24.5096C5.98105 24.0875 3.9886 23.6335 2.61854 23.6335C1.79108 23.6335 1.35886 23.5228 1.35886 23.3101C1.35886 23.2037 1.56322 23.1763 2.34795 23.1785C2.89199 23.179 3.56634 23.2234 3.8469 23.2766C4.12818 23.3298 5.45052 23.3917 6.78641 23.4148C9.14842 23.4548 9.21607 23.451 9.23458 23.2722C9.2531 23.0957 9.09716 22.9691 8.82371 22.9373C8.75322 22.929 8.20277 22.8556 7.60034 22.7739C5.62784 22.5074 3.87681 22.3446 2.08447 22.2624C0.424586 22.1856 -0.142237 22.0809 0.0293756 21.8813C0.0685411 21.8358 0.155423 21.8232 0.223072 21.8528C0.290008 21.8824 0.329167 21.8528 0.309941 21.7854C0.290002 21.7185 0.374024 21.6703 0.496503 21.6769C0.618272 21.684 0.690901 21.6577 0.65672 21.6182C0.623252 21.5793 0.790593 21.5206 1.02914 21.4888C1.54399 21.4192 1.66577 21.2542 1.40229 20.9839C1.26201 20.8397 1.24635 20.7536 1.34676 20.667C1.51125 20.525 1.40372 20.428 1.08328 20.428C0.95368 20.428 0.848271 20.4104 0.848271 20.3896C0.848271 20.3682 0.810532 20.2799 0.764246 20.1922C0.685915 20.0469 0.771378 20.0387 1.81673 20.0952C2.44195 20.1281 3.16969 20.1802 3.43316 20.2103C3.81342 20.2536 3.91099 20.2355 3.91099 20.1215C3.91099 20.0431 4.00357 19.9417 4.11679 19.8962C4.40875 19.7788 4.23357 19.2509 3.86756 19.1451C3.60551 19.0689 3.60408 19.0645 3.8469 19.053C4.10254 19.0409 4.10254 19.0409 3.8469 18.962C3.59767 18.8852 3.9466 18.8523 5.25115 18.8293C5.79519 18.82 6.20749 18.6966 6.20749 18.5437C6.20749 18.4614 6.33994 18.4121 6.55856 18.411C6.7741 18.4082 6.98875 18.3891 7.19942 18.354C7.47144 18.3019 7.47572 18.2909 7.26351 18.1752C7.1389 18.1073 6.8804 18.0508 6.68814 18.0492C6.49587 18.0475 5.9604 17.9017 5.49754 17.7257C5.03041 17.5475 4.46998 17.405 4.23784 17.405C3.46522 17.405 2.25822 17.2882 2.31804 17.2191C2.35079 17.1813 2.27959 17.1566 2.15996 17.1632C2.03883 17.169 1.92921 17.1082 1.89791 17.0179C1.83952 16.8162 2.5929 16.4691 2.9817 16.5179C3.13694 16.5377 3.28506 16.5086 3.31069 16.4538C3.37051 16.3244 4.86022 16.2877 5.45553 16.4011C5.70832 16.4494 7.01501 16.4998 8.35801 16.5135C10.6296 16.5366 11.2997 16.49 10.4501 16.3672C10.2579 16.3397 9.8413 16.2751 9.52513 16.2235C9.15701 16.1677 8.78356 16.1353 8.40855 16.1265C8.1109 16.1243 7.86666 16.081 7.86666 16.0305C7.86666 15.9806 7.77694 15.939 7.66727 15.939C7.5569 15.939 7.34897 15.894 7.20441 15.8387C6.94592 15.7389 6.94664 15.7367 7.245 15.6298C7.7691 15.4423 7.60675 15.2657 6.72661 15.0651C6.27585 14.962 5.87922 14.8173 5.84646 14.7444C5.81371 14.6709 5.73607 14.587 5.67412 14.558C5.47901 14.4659 5.71258 14.1835 5.93333 14.2444C6.04513 14.2751 6.10067 14.2745 6.05795 14.2438C6.01522 14.2131 6.12418 14.0837 6.30149 13.9565C6.53434 13.7899 6.7736 13.7214 7.16881 13.7104C7.46931 13.7022 7.69219 13.6687 7.66371 13.6353C7.63522 13.6024 8.16147 13.5958 8.83297 13.6205C9.80925 13.6567 10.0969 13.6375 10.2685 13.5267C10.5057 13.3721 11.7589 13.3085 12.4126 13.4176C12.6619 13.4593 12.8442 13.4467 12.899 13.3836C12.9467 13.3283 13.1212 13.2828 13.2864 13.2828C13.6709 13.2828 13.9914 13.195 13.9914 13.0898C13.9914 13.0448 13.908 13.0075 13.8062 13.0075C13.7044 13.0075 13.5726 12.9456 13.5128 12.8688C13.4459 12.7828 12.9467 12.666 12.1983 12.5618C10.7243 12.3557 9.63906 12.041 9.7416 11.8491C9.7841 11.774 9.89491 11.7371 9.9951 11.7647C10.0948 11.7921 10.1446 11.7778 10.1055 11.7318C10.0663 11.6868 10.1845 11.5207 10.3689 11.3639C10.6146 11.1539 10.7706 11.0942 10.96 11.137C11.1017 11.1698 11.1843 11.1583 11.1444 11.1123C11.1045 11.0662 11.2726 11.0246 11.5161 11.0191C11.7604 11.0147 12.3635 10.9396 12.8556 10.853L13.7514 10.6956L13.4665 10.4774C13.3099 10.3579 13.1283 10.2598 13.0635 10.2598C12.998 10.2598 12.7481 10.1929 12.5074 10.1107C12.0872 9.96756 12.0772 9.95276 12.2631 9.74881C12.3856 9.61504 12.4098 9.51526 12.3286 9.47963C12.295 9.46511 12.2709 9.4404 12.2621 9.41153C12.2533 9.38266 12.2606 9.35227 12.2823 9.32776C12.335 9.26636 12.4034 9.27678 12.476 9.35682C12.5487 9.43741 12.6213 9.44837 12.6833 9.38752C12.7359 9.33653 12.951 9.23456 13.1618 9.16165L13.5449 9.02897L13.1411 8.99827C12.7039 8.96428 12.4696 8.72964 12.7865 8.64192C12.8933 8.61231 13.0129 8.61121 13.0521 8.63917C13.0906 8.66659 13.3134 8.61231 13.547 8.51856C13.8359 8.4099 14.1418 8.3303 14.4571 8.28172C14.7234 8.24554 15.0196 8.16111 15.1136 8.09313C15.3372 7.9325 15.4248 7.93578 16.6104 8.15344C17.675 8.34916 17.9748 8.33051 18.4113 8.04379C18.6577 7.8826 18.7567 7.87493 19.4232 7.9632C20.2984 8.07942 21.9454 8.09423 21.8514 7.98513C21.8158 7.94346 21.3672 7.85794 20.8552 7.79489C19.5507 7.63535 19.404 7.60081 19.6183 7.50597C19.9893 7.34149 18.3273 6.95224 16.7023 6.82396C16.2636 6.78942 15.8763 6.72856 15.8428 6.68909C15.8086 6.64961 15.9012 6.50707 16.0493 6.37276C16.2957 6.14743 16.3007 6.11618 16.1105 5.96596C15.998 5.87605 15.9055 5.78011 15.9055 5.75215C15.9055 5.63921 18.0659 5.80204 18.7759 5.96925C19.7977 6.20883 21.8657 6.38372 22.0565 6.24666C22.1576 6.17429 22.159 6.11179 22.0601 6.02627C21.9262 5.91114 21.7218 5.8618 20.0199 5.53395C19.4894 5.43198 19.2224 5.33439 19.2224 5.24283C19.2224 5.12661 19.3733 5.11455 20.1695 5.16608C20.7762 5.2061 21.145 5.19349 21.1977 5.13319C21.2426 5.0811 21.2091 5.03834 21.123 5.03834C21.0375 5.03834 20.9962 5.01696 21.0325 4.99119C21.118 4.92979 22.9253 5.20171 23.1047 5.30369C23.2464 5.38318 25.1092 5.58877 25.5066 5.56904C25.6298 5.56246 25.7302 5.50599 25.7302 5.44294C25.7302 5.37989 25.7601 5.27299 25.7964 5.205C25.8591 5.08768 24.301 4.85029 21.6157 4.5685C21.212 4.52628 20.6736 4.42925 20.4194 4.35249C20.1652 4.27629 19.7778 4.21379 19.5578 4.21379C18.9803 4.21269 18.15 4.03122 18.2846 3.93528C18.3465 3.89033 19.1234 3.84208 20.0114 3.82783C20.8986 3.81357 21.6157 3.79494 21.6036 3.78616C21.5922 3.77794 21.2989 3.69077 20.9521 3.59318C20.3482 3.42268 20.334 3.41062 20.6102 3.30426C20.826 3.22148 21.0567 3.21819 21.5338 3.29165C22.31 3.41117 22.4125 3.41281 22.4125 3.30536C22.4125 3.25876 22.2417 3.19406 22.0316 3.16062C21.3337 3.05097 21.4847 2.93146 22.3214 2.93146C22.8085 2.93146 23.3012 2.87334 23.5405 2.78782C23.7826 2.7012 24.0539 2.6694 24.2241 2.70832C24.5887 2.79111 30.5795 2.82345 30.509 2.74122C30.3609 2.56907 32.0343 2.57017 33.4628 2.74341C36.3553 3.09374 38.8163 3.29275 40.4035 3.30536C41.2808 3.31194 42.6018 3.37388 43.3388 3.44351C44.3092 3.53043 45.2816 3.60391 46.2555 3.6639C47.1236 3.71544 47.8698 3.77355 47.9147 3.79329C47.9595 3.81248 48.4267 3.85469 48.9529 3.88704C49.421 3.91503 49.8887 3.94738 50.3557 3.98408C50.8677 4.02848 53.1956 4.12169 54.8861 4.16554C56.3337 4.20744 57.7801 4.27306 59.2241 4.36236C59.6457 4.38977 61.2821 4.42925 62.8608 4.45008C64.4402 4.47201 66.3059 4.52354 67.008 4.56521C67.7094 4.60578 69.6499 4.63593 71.3211 4.631C73.8469 4.62332 74.3781 4.59865 74.4793 4.48681C74.5818 4.37168 74.6174 4.37113 74.7143 4.47914C74.7912 4.56466 74.9549 4.58878 75.2063 4.55315C75.4142 4.523 75.6464 4.54383 75.7233 4.5992C75.8002 4.65403 76.0523 4.7083 76.2837 4.71872C76.5115 4.72875 76.7377 4.75332 76.9602 4.79218C77.725 4.95501 78.5218 5.00216 78.843 4.90402C79.1007 4.82507 79.7438 4.91828 79.6548 5.02135C79.622 5.05972 80.2365 5.10194 81.0213 5.11509C83.1333 5.15183 83.3519 5.16827 83.5912 5.31082C83.7856 5.42649 83.8048 5.42101 83.7664 5.26257C83.7372 5.14196 83.7849 5.09481 83.9145 5.11674C84.0725 5.13855 84.2325 5.1501 84.393 5.15128C84.5511 5.15237 84.68 5.18472 84.68 5.22365C84.68 5.26202 84.7726 5.31904 84.8858 5.35029C85.0353 5.39141 85.0709 5.36783 85.0147 5.26367C84.962 5.16498 84.9876 5.14305 85.0958 5.19239C85.1834 5.23242 85.7994 5.27792 86.4666 5.29382C87.8687 5.32671 87.6601 5.32671 94.2498 5.31027C97.022 5.30259 99.6446 5.32671 100.079 5.3629C100.513 5.39963 100.964 5.40292 101.082 5.37002C101.299 5.31027 105.467 5.19239 106.748 5.20939C107.75 5.2231 108.885 4.80041 108.254 4.64909C108.16 4.62716 108.225 4.56192 108.413 4.4901C108.588 4.42431 108.764 4.33495 108.803 4.29274C108.944 4.13923 110.028 4.05315 110.335 4.17157C110.529 4.24613 111.042 4.27245 111.851 4.25052C112.523 4.23188 114.731 4.1946 116.757 4.16828C118.783 4.14142 120.581 4.09482 120.752 4.06412C120.922 4.03342 121.646 4.00162 122.361 3.99394C123.076 3.98627 123.776 3.93364 123.916 3.87717C124.167 3.77575 125.35 3.60963 125.548 3.64801C125.793 3.69461 126.246 3.68309 126.659 3.61895C126.905 3.58057 127.221 3.55645 127.361 3.56467C127.502 3.5729 127.732 3.58715 127.872 3.59647C128.012 3.60524 128.672 3.56358 129.339 3.50492C130.005 3.44571 130.799 3.39801 131.103 3.3991C131.406 3.4002 131.722 3.36183 131.805 3.31413C131.887 3.26643 132.142 3.199 132.369 3.16391C132.709 3.11183 132.784 3.12828 132.784 3.25547C132.784 3.39253 132.889 3.40349 133.71 3.34538C134.218 3.30974 135.553 3.27137 136.676 3.25985C137.798 3.24779 139.027 3.19023 139.405 3.13102C139.653 3.08983 139.903 3.054 140.154 3.02356C140.188 3.02356 140.145 2.96161 140.057 2.88595C139.97 2.8103 139.704 2.7489 139.468 2.7489C139.23 2.7489 139.036 2.73135 139.036 2.71052C139.036 2.68914 139.001 2.60635 138.959 2.52686C138.852 2.32839 139.212 2.33826 139.495 2.54166C139.656 2.65679 139.733 2.6694 139.771 2.58662C139.799 2.52412 139.876 2.49616 139.94 2.52412C140.005 2.55262 140.057 2.54275 140.057 2.50219C140.057 2.46107 140.186 2.42269 140.344 2.41666C140.502 2.41063 141.377 2.35855 142.29 2.30153C143.202 2.24451 145.04 2.18147 146.373 2.16118C147.707 2.14145 148.941 2.10197 149.116 2.07456C149.711 1.98136 152.98 1.76371 154.731 1.70176C157.976 1.58663 160.437 1.2533 160.944 0.860208C161.102 0.737402 161.382 0.638171 161.583 0.633237C163.234 0.594861 165.527 0.471509 166.533 0.366795C167.079 0.312762 167.627 0.267431 168.175 0.230832C168.683 0.197649 169.189 0.149916 169.692 0.0877394C170.044 0.0394944 170.354 2.40803e-05 170.379 2.40803e-05C170.404 2.40803e-05 170.425 0.105833 170.425 0.23467C170.425 0.363506 170.481 0.444643 170.549 0.41449Z" fill="#FCC419"/>
</svg>
