<svg width="188" height="59" viewBox="0 0 188 59" fill="none" xmlns="http://www.w3.org/2000/svg">
<path fill-rule="evenodd" clip-rule="evenodd" d="M48.9527 57.9414C48.8977 57.9845 48.783 57.8136 48.6984 57.5641C48.6092 57.2992 48.4725 57.1082 48.3711 57.1082C48.2338 57.1082 48.2228 57.0697 48.3189 56.9273C48.4116 56.7887 48.4081 56.734 48.305 56.6909C48.1996 56.647 48.2042 56.5854 48.327 56.4006C48.4452 56.2211 48.4516 56.1526 48.3525 56.111C48.2813 56.0818 48.2228 56.0009 48.2228 55.9316C48.2228 55.8623 48.2691 55.8415 48.3259 55.8854C48.3844 55.9301 48.4018 55.8777 48.3664 55.7637C48.3323 55.6536 48.3577 55.5635 48.4232 55.5635C48.5095 55.5635 48.5119 55.4942 48.4307 55.3063C48.3415 55.1 48.3514 55.0492 48.4829 55.0492C48.615 55.0492 48.6219 55.016 48.5165 54.8767C48.3821 54.6988 48.1208 54.8582 48.155 55.0977C48.1637 55.1593 48.1162 55.2355 48.0495 55.2655C47.9696 55.3025 47.9487 55.224 47.9881 55.0368C48.0211 54.8797 48.0055 54.7827 47.9534 54.8204C47.9018 54.8574 47.7662 54.8459 47.6521 54.7935C47.4876 54.7188 47.5362 54.6795 47.8856 54.6056C48.1608 54.5471 48.327 54.4439 48.327 54.3307C48.327 54.2306 48.4174 54.149 48.5287 54.149C48.6393 54.149 48.794 54.0358 48.8722 53.8972C49.0124 53.65 49.5408 53.3119 49.7123 53.3605C49.7609 53.3736 50.0645 53.3027 50.3872 53.2018C50.7953 53.082 51.2077 52.9905 51.6229 52.9277C51.9798 52.8776 52.2979 52.7845 52.3298 52.7206C52.3616 52.6566 52.4902 52.6035 52.6154 52.602C52.7399 52.6004 53.1229 52.4279 53.4653 52.2185C53.8082 52.0098 54.1674 51.8373 54.2636 51.8358C54.3604 51.8342 54.4681 51.7742 54.5035 51.7041C54.5388 51.6333 54.5151 51.5755 54.4507 51.5755C54.3065 51.5755 54.358 51.0003 54.5035 50.9872C54.5608 50.9826 54.8123 50.9056 55.0625 50.8178C55.3128 50.7285 55.6315 50.6907 55.7711 50.7346C55.9101 50.7778 56.1726 50.7562 56.3539 50.6869C56.5352 50.6176 56.9443 50.4982 57.2629 50.4205C58.1377 50.2087 58.6041 50.0316 58.6041 49.9122C58.6041 49.7875 53.2787 49.8737 51.9601 50.02C51.2655 50.097 51.0007 50.0755 50.7145 49.9215C50.5147 49.8137 50.3275 49.7174 50.2991 49.7066C50.2702 49.6966 50.1108 49.6181 49.944 49.5334C49.7771 49.4479 49.5668 49.4132 49.4765 49.4564C49.3867 49.5003 48.0049 49.5565 46.4059 49.5819C44.8075 49.6073 43.289 49.6858 43.0324 49.7559C42.7757 49.8268 42.0058 49.9515 41.3216 50.0331C40.6374 50.1163 39.9879 50.2426 39.879 50.315C39.7695 50.3873 39.452 50.4197 39.1733 50.3866C38.8941 50.3527 38.6409 50.3766 38.6102 50.4382C38.5795 50.4998 38.5106 50.5167 38.4573 50.4767C38.4045 50.4359 38.3611 50.4636 38.3611 50.5383C38.3611 50.6137 38.3263 50.663 38.2829 50.6492C38.1102 50.5929 37.2192 50.8263 37.2192 50.9287C37.2192 51.0542 36.4348 51.2629 36.1381 51.2167C36.0292 51.199 35.8519 51.3014 35.7448 51.4446C35.6376 51.5871 35.4702 51.711 35.3722 51.7195C35.2743 51.7272 34.9146 51.7472 34.5716 51.7626C34.2298 51.778 33.7622 51.8566 33.534 51.9382C33.3051 52.0206 32.9419 52.1199 32.7264 52.1592C32.5108 52.1992 32.3596 52.2824 32.3903 52.344C32.4871 52.5381 32.2565 52.5889 30.453 52.7706C30.3568 52.7806 30.2867 52.8438 30.2966 52.9108C30.307 52.9778 30.2218 53.0663 30.1077 53.1079C29.9429 53.1814 29.7854 53.2809 29.6384 53.4044C29.4496 53.5638 29.0562 53.6492 28.2364 53.7085C27.6101 53.7539 26.9897 53.7855 26.8576 53.7778C26.7255 53.7701 26.474 53.8564 26.2985 53.9688C26.1177 54.0843 25.952 54.122 25.9161 54.055C25.8263 53.8902 25.4608 53.7316 25.5407 53.8933C25.6253 54.0627 25.5245 54.0535 25.2481 53.8679C24.6902 53.4929 22.049 53.7778 21.7732 54.2422C21.688 54.3861 21.6788 54.4832 21.7477 54.5117C21.8068 54.5363 21.8549 54.6071 21.8549 54.6703C21.8549 54.7327 21.7894 54.7527 21.7101 54.715C21.6301 54.6765 21.5339 54.7073 21.4957 54.7835C21.3955 54.9852 22.0171 54.956 22.3531 54.7427C22.5072 54.6449 22.8438 54.5224 23.1005 54.4701C23.3577 54.4185 23.6497 54.3569 23.7494 54.3338C23.8496 54.3107 23.9313 54.3677 23.9313 54.4608C23.9313 54.5802 24.0605 54.6164 24.3722 54.5864C24.7134 54.5532 24.7719 54.5733 24.63 54.6757C24.5286 54.7481 24.4695 54.8543 24.4979 54.9121C24.5593 55.0353 23.9788 55.16 22.8554 55.264C22.2239 55.3217 22.0183 55.2986 21.9488 55.1623C21.8827 55.0338 21.8578 55.0291 21.8561 55.1462C21.8543 55.3826 21.2304 55.3441 21.0067 55.0938C20.9025 54.9768 20.8167 54.9352 20.8167 55.0022C20.8167 55.0761 20.4801 55.0892 19.9604 55.0361C19.4894 54.9868 18.7537 54.9152 18.3255 54.8767C17.8968 54.8382 17.3933 54.7381 17.2056 54.6557C17.0185 54.574 16.7485 54.534 16.6066 54.5679C16.4641 54.601 16.3187 54.5694 16.2822 54.4978C16.2422 54.417 16.2694 54.4062 16.3528 54.4701C16.4374 54.5348 16.4635 54.524 16.4224 54.4408C16.3441 54.2837 15.8488 54.142 15.2631 54.1082C14.9172 54.0881 14.8459 54.0381 14.8367 53.8079C14.8263 53.5614 14.8981 53.5214 15.511 53.4328C15.8888 53.3789 16.314 53.3466 16.4565 53.362L16.7161 53.3897L16.4409 53.2049C15.9629 52.883 15.4977 52.7467 14.5881 52.6643C14.1026 52.6205 13.4022 52.4895 13.0309 52.374C12.1775 52.1084 9.21585 52.0876 9.08665 52.3471C9.04253 52.4361 8.95464 52.4658 8.88388 52.4156C8.71008 52.2824 6.79939 52.2385 6.86485 52.3679C6.92511 52.4903 6.91004 52.4919 5.55205 52.5435C4.59323 52.5796 4.18885 52.6235 2.7538 52.8476C2.09914 52.9493 1.71677 52.8907 1.34251 52.632C1.18609 52.5227 1.21969 52.4611 1.59743 52.1661C1.901 51.9274 2.27295 51.788 2.83375 51.7003C3.79142 51.5501 4.70505 51.3614 5.36319 51.1766C5.75714 51.0665 5.83535 50.9988 5.79422 50.8032C5.76467 50.663 5.68414 50.5922 5.5984 50.6338C5.51845 50.6715 5.45298 50.6384 5.45298 50.5598C5.45298 50.4813 5.53409 50.4166 5.63432 50.4158C5.78959 50.4143 5.79364 50.3958 5.66039 50.2888C5.5619 50.2102 5.55089 50.1633 5.63142 50.1625C5.70095 50.161 5.73107 50.0732 5.69747 49.9661C5.65576 49.8314 5.75946 49.7059 6.03813 49.5519L6.43903 49.3316L5.42518 49.2546C4.88059 49.212 4.3352 49.1901 3.78968 49.1892C3.44786 49.1969 3.1692 49.1953 3.1692 49.1861C3.1692 49.1776 3.26189 49.0367 3.3766 48.8734C3.49073 48.7102 3.58401 48.6163 3.58401 48.664C3.58401 48.7117 3.68945 48.6655 3.81807 48.5608C3.94668 48.4569 4.39799 48.3044 4.8215 48.2235C5.24442 48.1419 5.77568 47.9941 6.00221 47.8955C6.25765 47.7896 6.52224 47.7275 6.78954 47.7107C7.36773 47.7038 8.82363 47.2348 8.40302 47.1909C8.30124 47.1743 8.20012 47.1512 8.10002 47.1216C7.98869 47.09 7.87726 47.0589 7.76574 47.0284C7.52821 46.9638 7.51315 46.839 7.73214 46.7528C7.85264 46.705 8.0728 46.5264 8.22227 46.3547C8.37174 46.1829 8.59768 46.0428 8.72514 46.0428C8.8526 46.0428 9.01018 45.9635 9.07565 45.8657C9.17298 45.7209 9.08723 45.6739 8.59479 45.6046C8.29101 45.5625 7.98778 45.5137 7.68521 45.4583C7.27735 45.3767 5.65576 45.3883 5.54452 45.4737C5.39389 45.5892 4.20681 45.6431 4.20681 45.5353C4.20681 45.4776 4.27691 45.359 4.36323 45.2712C4.4484 45.1827 4.5185 45.0502 4.5185 44.9763C4.5185 44.9024 4.48779 44.88 4.45013 44.927C4.41248 44.9732 4.3192 44.947 4.24273 44.8685C4.16567 44.7892 4.10368 44.7799 4.10368 44.8477C4.10368 44.9155 4.033 44.9709 3.94726 44.9709C3.69814 44.9709 3.7665 44.8331 4.10948 44.6452C4.49474 44.4334 4.43971 44.3449 3.81807 44.1778C3.25146 44.0238 3.1437 43.785 3.54983 43.5817C3.97043 43.3715 5.94543 43.0989 7.07458 43.0951C7.6041 43.0935 8.16086 43.0535 8.31207 43.0065L8.58784 42.9211L8.29237 42.6207C8.12899 42.456 7.91695 42.3189 7.82078 42.3166C7.57456 42.3096 7.49982 42.1056 7.63191 41.7999C7.77096 41.4765 8.67416 40.8966 9.03683 40.8966C9.18978 40.8966 9.27842 40.8412 9.24192 40.768C9.20658 40.6972 9.09187 40.6394 8.98701 40.6394C8.81146 40.6394 8.61622 40.3183 8.65446 40.0927C8.69386 39.8632 7.04677 40.1197 6.90889 40.3645C6.80344 40.5509 4.15235 41.0399 3.89222 40.9197L3.64368 40.8065L3.88527 40.6464C4.01794 40.5578 4.88059 40.3306 5.80175 40.1397C7.48765 39.7916 7.89841 39.546 6.7936 39.546C6.4541 39.546 6.14183 39.4721 6.04044 39.3689C5.89561 39.221 5.69631 39.2172 4.8551 39.3442C3.30824 39.5783 2.41025 39.7393 2.19937 39.8193C2.05974 39.8725 2.01745 39.8347 2.04294 39.6777C2.08118 39.4497 2.40214 39.1825 2.90617 38.9592C3.33952 38.7675 3.07013 38.5988 2.51569 38.7143C2.27526 38.7652 1.86856 38.8468 1.61191 38.8968L1.14438 38.9869L1.5337 38.5249C1.74806 38.2708 1.92302 38.0421 1.92302 38.0167C1.92302 37.9913 1.63335 37.9297 1.27994 37.8804C0.441627 37.7626 -0.00562987 37.4723 5.35004e-05 37.0495C0.00306034 36.8262 0.675104 36.5282 1.29964 36.472C1.55687 36.4481 2.14143 36.3372 2.59796 36.2248C3.05449 36.1124 3.7555 35.9938 4.15525 35.9622C4.60705 35.923 5.05741 35.8585 5.50513 35.7689C7.63191 35.3062 8.11045 35.1914 8.20257 35.1267C8.25877 35.0867 8.09539 34.9904 7.83932 34.9134C7.58151 34.8357 7.37352 34.6978 7.37352 34.6039C7.37352 34.3875 8.41983 33.917 9.36938 33.7068C9.83112 33.6044 10.1729 33.4527 10.2847 33.2987C10.385 33.1616 10.7326 32.9891 11.0761 32.9052C11.8565 32.715 11.8351 32.534 10.9875 32.1459C10.8062 32.0628 10.6781 31.928 10.7036 31.8456C10.7627 31.66 11.2436 31.3759 11.5008 31.3759C11.6068 31.3759 11.6648 31.3174 11.6294 31.2473C11.5947 31.1764 11.2181 31.1179 10.7928 31.1179C10.093 31.1179 9.812 30.987 10.1498 30.8176C10.4528 30.6659 8.93776 30.7483 8.18924 30.9231C7.25765 31.1418 6.75014 31.0502 6.75014 30.6644C6.75014 30.4857 7.02186 30.2524 7.7698 29.7858C8.4737 29.3461 8.746 29.1158 8.65156 29.0404C8.47197 28.8971 8.64925 28.75 9.34562 28.4651C10.3282 28.0624 11.108 27.3886 11.0055 27.029C10.9359 26.7841 11.3189 26.6502 12.9017 26.3668C13.6878 26.2259 14.4757 26.0218 14.6519 25.9125C14.828 25.8047 15.2011 25.6814 15.4809 25.6391C16.2526 25.5244 17.7288 25.0616 17.9594 24.8621C18.0718 24.7651 18.3052 24.6812 18.4785 24.6758C18.6511 24.6712 18.8857 24.6173 18.9999 24.5564C19.1656 24.4686 19.1233 24.4425 18.7925 24.4271C17.9078 24.3862 17.438 24.2784 17.3209 24.0882C17.241 23.9581 17.1158 23.9188 16.9577 23.9727C16.7497 24.042 16.7422 24.0343 16.8997 23.9111C17.0005 23.8334 17.1645 23.7856 17.263 23.8056C17.3726 23.8236 17.4837 23.7987 17.5828 23.734C17.6651 23.6701 17.8267 23.6955 17.9785 23.7956C18.1778 23.9281 18.2774 23.9319 18.4304 23.8133C18.5549 23.7171 18.6505 23.7078 18.6899 23.7872C18.7247 23.8565 19.019 23.915 19.3434 23.9181C19.6684 23.9204 20.0514 24.0051 20.1939 24.1059C20.505 24.3262 20.6093 24.3424 20.6093 24.1706C20.6093 24.0998 20.5363 24.042 20.4471 24.042C20.3584 24.042 20.3109 23.9904 20.3428 23.9281C20.3735 23.8649 20.3017 23.7818 20.1817 23.7433C20.0624 23.7048 19.9848 23.597 20.0097 23.5038C20.0554 23.3321 20.5201 23.2312 21.9586 23.0818C23.2581 22.9463 23.6196 22.8739 23.6196 22.7476C23.6196 22.6806 23.5501 22.6267 23.4637 22.6267C23.3774 22.6267 23.3085 22.512 23.3085 22.3695C23.3085 22.1809 23.378 22.1123 23.568 22.1123C23.8664 22.1123 23.9174 21.9137 23.6416 21.8243C23.5396 21.7912 23.0142 21.7951 22.4736 21.8328C20.9007 21.9429 20.271 21.9067 19.9419 21.6857C19.7745 21.5733 19.6082 21.5048 19.5711 21.5325C19.5346 21.561 19.5242 21.4208 19.5479 21.2214C19.5995 20.7871 19.4529 20.7193 18.3875 20.6824C17.7496 20.6608 17.6998 20.6416 17.9217 20.4991C18.2867 20.265 19.6244 19.9293 20.4222 19.8707C20.83 19.8407 21.2147 19.7352 21.3532 19.6151C21.6487 19.3594 21.8259 19.3556 22.0252 19.6028C22.115 19.7144 22.3653 19.7953 22.615 19.793C23.3844 19.7883 26.255 19.4264 26.6449 19.2847C27.0088 19.1538 27.0198 19.1323 26.9433 18.7103C26.8946 18.4446 26.9057 18.2198 26.9705 18.1389C27.0447 18.0465 27.0418 17.951 26.9607 17.8301C26.7127 17.4598 27.0279 17.3835 28.5429 17.4451C29.7201 17.4936 30.0874 17.4675 30.3261 17.3165C30.5787 17.1564 31.7183 16.9361 32.4958 16.8969C32.6099 16.8907 32.9367 16.8345 33.2223 16.7713L33.7414 16.6558L33.2744 16.5627C33.0172 16.5111 32.2467 16.4987 31.5613 16.5349C30.8349 16.572 30.1081 16.5882 29.3812 16.5835C28.8673 16.5734 27.8633 16.6605 27.1496 16.776C25.7371 17.0039 24.2806 17.1633 23.6538 17.1587C23.4354 17.1571 23.2268 17.2064 23.1915 17.268C23.1555 17.3296 22.98 17.3874 22.8021 17.3966C22.6237 17.4059 22.4777 17.4613 22.4777 17.5198C22.4777 17.5783 22.3728 17.5891 22.2442 17.5445C22.0611 17.4813 22.0443 17.4929 22.1666 17.5984C22.3004 17.7146 22.2969 17.7339 22.1405 17.7354C22.0403 17.737 21.9586 17.8017 21.9586 17.881C21.9586 17.9687 21.8601 17.9441 21.7031 17.8163C21.4192 17.5853 21.2941 17.5498 21.3804 17.7231C21.4117 17.7855 21.3445 17.8671 21.2309 17.9041C21.1128 17.9426 21.0247 17.9071 21.0247 17.8217C21.0247 17.7354 20.8607 17.6731 20.6354 17.6731C20.388 17.6731 20.2547 17.7293 20.2704 17.8278C20.2872 17.9341 20.1748 17.9634 19.9112 17.9218C19.479 17.8525 19.0526 17.5537 19.0503 17.3165C19.0491 17.2149 19.0126 17.228 18.9483 17.3512C18.8701 17.5013 18.8475 17.4636 18.8458 17.1818C18.844 16.7182 19.0149 16.3224 19.2177 16.3224C19.3046 16.3224 19.3469 16.2647 19.3116 16.1938C19.2768 16.123 19.3318 16.0606 19.435 16.0552C19.7768 16.0367 19.9946 15.959 20.2258 15.7711C20.4332 15.6032 20.921 15.6679 20.921 15.8635C20.921 15.8989 20.8578 15.8981 20.7819 15.8619C20.7049 15.8257 20.5769 15.8966 20.4963 16.019C20.37 16.2115 20.37 16.2269 20.4975 16.133C20.6105 16.0483 20.6278 16.0768 20.5716 16.2585C20.5276 16.3994 20.5519 16.5365 20.6319 16.5996C20.8306 16.7552 20.9975 16.7259 20.8173 16.5665C20.6997 16.4633 20.7599 16.4464 21.06 16.498C21.2802 16.5365 21.5432 16.5011 21.6487 16.4202C21.7923 16.3085 21.8746 16.3109 21.9905 16.4294C22.1127 16.5557 22.1579 16.5419 22.2222 16.3578C22.2668 16.2315 22.2958 16.086 22.2865 16.0329C22.2778 15.979 22.3363 15.9358 22.4174 15.9358C22.4986 15.9358 22.582 15.8696 22.604 15.7895C22.626 15.7079 22.7807 15.624 22.9481 15.6017C23.1161 15.5793 23.305 15.4731 23.3687 15.3645C23.4325 15.2567 23.5223 15.2105 23.5686 15.2628C23.615 15.3144 23.6236 15.2551 23.5877 15.1319C23.5078 14.8547 23.7059 14.8285 23.7917 15.105C23.8461 15.2813 23.8757 15.279 24.0477 15.0857C24.232 14.8786 24.243 14.8801 24.2447 15.1119C24.2459 15.3175 24.2621 15.326 24.3467 15.1643C24.4967 14.8763 24.4753 14.8139 24.1972 14.7277C24.0211 14.6722 23.9492 14.566 23.9608 14.3773C23.9788 14.077 24.3403 13.8529 24.7574 13.8829C25.1456 13.9114 25.4886 13.7459 25.4886 13.5295C25.4886 13.3909 25.5917 13.3501 25.8779 13.3755C26.2962 13.414 27.0001 13.2692 27.2533 13.0929C27.379 13.0059 27.3691 12.9828 27.2011 12.9743C26.9587 12.9569 26.7165 12.9338 26.4746 12.905C25.5917 12.8018 24.4179 12.8049 23.9939 12.9111C23.7036 12.9843 23.6103 12.972 23.6619 12.8672C23.7071 12.7779 23.6793 12.7487 23.5889 12.7918C23.5031 12.8326 23.3653 12.7148 23.2558 12.5069C23.1225 12.2543 23.1051 12.1388 23.1944 12.1018C23.2784 12.0672 23.2581 11.9902 23.1324 11.8685C22.9615 11.7022 22.9725 11.6922 23.2563 11.753C23.4278 11.79 23.5095 11.7861 23.4383 11.7453C23.1752 11.5913 23.3201 11.4327 23.7239 11.4327C23.9857 11.4327 24.1393 11.492 24.141 11.5944C24.1416 11.7122 24.1653 11.7083 24.2314 11.5797C24.2876 11.4704 24.3449 11.4542 24.3861 11.5366C24.4556 11.676 24.5877 11.6652 24.9121 11.4927C25.0234 11.4342 25.2678 11.3818 25.4555 11.3772C25.886 11.3664 26.0256 11.0469 25.6004 11.0469C25.4318 11.0469 25.2771 10.9629 25.2435 10.8544C25.203 10.7235 25.2481 10.6611 25.3825 10.6611C25.4926 10.6611 25.6195 10.5887 25.6647 10.4994C25.784 10.2691 26.207 9.99655 26.3159 10.0797C26.3669 10.1182 26.4375 10.092 26.4735 10.0196C26.5094 9.94803 26.6675 9.88874 26.8251 9.88874C26.9827 9.88874 27.3657 9.7948 27.6756 9.68006C28.1652 9.49833 28.2086 9.45675 28.0093 9.36435C27.8819 9.30505 27.0157 9.26424 26.083 9.27425C25.1502 9.28426 24.3258 9.24499 24.2511 9.18801C24.174 9.12871 24.0848 9.14566 24.0448 9.22651C23.9614 9.39361 20.7339 9.52066 20.6539 9.35973C20.6255 9.30351 20.5299 9.29119 20.4413 9.33354C20.3324 9.38514 20.3179 9.43904 20.3973 9.4991C20.461 9.54838 20.3718 9.58843 20.198 9.58843C20.0242 9.58843 19.8828 9.53375 19.8828 9.46522C19.8828 9.39823 19.8115 9.41594 19.7246 9.50526C19.6377 9.59536 19.5335 9.62693 19.4929 9.57688C19.4518 9.52682 19.5346 9.3759 19.6766 9.24191L19.9344 8.99858L19.6748 9.06018C19.4477 9.11408 19.4413 9.10715 19.6227 9.00012C19.9222 8.82301 20.4146 8.84226 20.7032 9.04016C20.9841 9.23267 21.3358 9.16953 21.3358 8.92542C21.3358 8.813 21.5409 8.76295 22.0107 8.75987C22.4337 8.75679 22.6857 8.80761 22.6857 8.89616C22.6857 8.97394 22.7436 8.94237 22.8155 8.82686C22.9087 8.67439 23.1903 8.59277 23.8276 8.53348C24.3125 8.48727 25.0048 8.36869 25.3652 8.26935C25.7255 8.16925 26.1693 8.08223 26.3512 8.0753C26.5331 8.06837 26.9161 7.98367 27.2011 7.88741C27.6878 7.72263 27.6333 7.71569 26.3188 7.78192C25.5482 7.82042 24.8472 7.85276 24.7615 7.8543C24.6763 7.85507 23.6016 7.99214 22.3746 8.1577C21.1464 8.32402 19.8081 8.47726 19.4002 8.49882C18.9918 8.52038 18.6795 8.58122 18.705 8.63435C18.7316 8.68825 18.5515 8.73137 18.3052 8.73137C18.0596 8.73137 17.438 8.81608 16.9241 8.91849C16.0429 9.09406 13.97 9.27579 14.2515 9.15182C14.3234 9.12101 14.3558 9.0417 14.3234 8.97702C14.2909 8.91233 14.3958 8.85689 14.5563 8.85381C14.7168 8.84996 15.0111 8.73753 15.2109 8.60355C15.4108 8.46879 15.668 8.30477 15.7822 8.23932C16.1576 8.02217 22.2801 6.76701 23.7239 6.61069C24.152 6.56449 25.3901 6.41202 26.4746 6.27187C27.5597 6.13173 28.9913 5.96078 29.6564 5.89225C30.3215 5.82294 31.0909 5.68356 31.3655 5.58115C31.7264 5.44639 31.8846 5.43484 31.9367 5.53803C32.0022 5.66893 33.0942 5.63351 34.4163 5.4564C34.883 5.4047 35.3502 5.36158 35.8178 5.32704C36.842 5.24772 38.4028 4.98052 39.2765 4.73565C39.5233 4.66634 39.7689 4.64324 39.8222 4.68406C39.8761 4.72564 40.5991 4.63092 41.4299 4.47538C42.6581 4.24436 42.9843 4.22126 43.1772 4.34909C43.3719 4.47846 43.621 4.45689 44.5474 4.2305C46.0896 3.85318 48.1023 3.36344 49.1057 3.12165C49.5622 3.01076 50.2256 2.83827 50.5801 2.7374C50.9347 2.63729 51.3785 2.55567 51.5662 2.55567C51.7545 2.55567 52.1183 2.47328 52.3755 2.37086C52.8083 2.19914 53.6953 2.00894 56.0608 1.57849C56.964 1.42257 57.8641 1.23513 58.7599 1.01637C59.3306 0.882379 60.2651 0.677549 60.8363 0.561273L62.1862 0.284059C63.3976 0.036107 63.6288 0.0407272 63.8698 0.318711C63.9996 0.468098 64.1062 0.655987 64.1062 0.736841C64.1062 0.816925 64.1409 0.875448 64.1838 0.867748C64.2267 0.859277 64.3692 0.859277 64.499 0.867748C64.6977 0.880068 64.7191 0.921651 64.6322 1.1234C64.5053 1.41755 64.6073 1.57618 64.7973 1.38059C65.0117 1.16036 64.9624 1.35826 64.7162 1.7094C64.587 1.89344 64.328 2.05823 64.0888 2.10828C63.7406 2.18143 63.7006 2.22147 63.8124 2.38857C63.9799 2.63884 63.8385 2.65424 70.4906 1.65704C70.9471 1.58773 71.7651 1.50457 72.3074 1.47069C72.8497 1.43604 73.8311 1.34748 74.4875 1.27356C75.1439 1.19886 76.0083 1.11493 76.408 1.08644C76.8078 1.05872 77.3193 0.975553 77.5447 0.9024C77.7707 0.829246 78.6663 0.765333 79.5353 0.761483C80.4044 0.756862 81.1772 0.727601 81.2531 0.696029C81.4397 0.618256 83.8723 0.460398 84.4511 0.488119C84.7072 0.50121 84.9882 0.591304 85.0756 0.689099C85.2709 0.90856 85.7691 0.930121 88.0865 0.822316C89.1519 0.772263 90.1299 0.659068 90.4508 0.548182C90.8703 0.403415 91.5655 0.363373 93.4096 0.378774C94.7357 0.391094 96.9418 0.355673 98.312 0.30254C101.089 0.194735 100.941 0.193195 103.814 0.347972C105.674 0.448077 106.748 0.451927 108.382 0.365683C108.667 0.350282 108.819 0.311781 108.719 0.279439C108.619 0.247097 108.537 0.160083 108.537 0.0861594C108.537 -0.00239494 108.829 -0.023186 109.394 0.0260965C109.865 0.0676785 111.278 0.160083 112.534 0.231697C113.79 0.30331 115.402 0.421896 116.115 0.493509C118.983 0.786124 120.076 0.888539 121.566 1.00635C125.29 1.30128 127.253 1.41832 129.3 1.46838C130.242 1.49225 131.41 1.55077 131.895 1.59928C132.43 1.64969 132.967 1.67486 133.504 1.67475C133.904 1.66859 134.697 1.72095 135.269 1.79025C135.84 1.85956 137.689 1.94195 139.378 1.97352C141.067 2.00432 142.655 2.08595 142.907 2.15525C143.16 2.22455 143.733 2.31234 144.182 2.35007C144.63 2.38857 145.144 2.45018 145.323 2.48637C145.937 2.61111 146.896 2.69505 148.297 2.74818C149.531 2.79592 150.73 2.90912 152.501 3.14552C152.787 3.18402 153.184 3.23022 153.384 3.25025C153.584 3.27027 154.097 3.3234 154.526 3.36883C154.954 3.41503 155.678 3.48665 156.134 3.53054C156.591 3.57366 156.988 3.62679 157.017 3.64835C157.046 3.67069 157.335 3.72305 157.66 3.76617C157.984 3.80852 158.319 3.87629 158.401 3.91633C158.485 3.9556 158.967 4.00565 159.473 4.02644C160.86 4.08497 160.858 4.0842 160.858 4.29211C160.858 4.39837 160.908 4.48462 160.968 4.48462C161.029 4.48462 161.044 4.41762 161.003 4.33446C160.952 4.23204 160.986 4.21125 161.109 4.27055C161.209 4.31752 161.393 4.35679 161.519 4.35679C161.674 4.35679 161.753 4.43995 161.764 4.61398C161.782 4.922 161.726 4.93586 161.518 4.6779C161.301 4.40838 161.058 4.42917 161.131 4.71024C161.167 4.84884 161.156 4.87965 161.102 4.79186C161.042 4.69407 160.749 4.67559 160.183 4.73411C159.209 4.83421 158.474 4.80726 157.121 4.6186C156.579 4.54237 155.878 4.44919 155.564 4.41146C155.25 4.37296 154.938 4.31983 154.871 4.29288C154.805 4.26592 154.723 4.33138 154.69 4.43918C154.645 4.58395 154.547 4.61167 154.31 4.54699C153.938 4.44611 153.699 4.40761 152.709 4.2898C152.309 4.24205 151.954 4.18199 151.92 4.15581C151.847 4.10037 150.459 4.09113 148.557 4.13271C147.35 4.16043 146.499 4.08651 145.864 3.90016C145.506 3.79543 143.003 3.75 143.003 3.84856C143.003 3.89939 143.318 3.98255 143.704 4.03337C144.089 4.08497 144.498 4.14888 144.612 4.17737C145.413 4.37296 147.558 4.59319 149.283 4.65479C149.683 4.67019 150.059 4.72102 150.12 4.76876C150.22 4.84807 153.399 5.15532 153.57 5.10219C153.61 5.0891 153.994 5.11913 154.422 5.16918C155.084 5.24541 156.775 5.39942 157.199 5.42175C157.352 5.42945 157.37 5.59578 157.229 5.70359C157.129 5.78059 156.346 5.79907 155.638 5.74055C155.422 5.72207 155.207 5.6312 155.16 5.53803C155.097 5.41251 154.919 5.39172 154.464 5.45563C154.126 5.50415 153.82 5.56652 153.782 5.59424C153.743 5.62273 153.641 5.55805 153.555 5.45024C153.468 5.34244 153.372 5.30471 153.342 5.36554C153.283 5.48258 151.188 5.43253 150.581 5.29932C150.381 5.25542 150.029 5.20691 149.798 5.19305C149.567 5.17765 149.275 5.09834 149.149 5.0144C148.966 4.89274 148.92 4.89659 148.92 5.03365C148.92 5.1353 148.781 5.21923 148.583 5.23925C147.762 5.32165 146.613 5.31395 145.701 5.22C145.047 5.15224 144.767 5.16071 144.868 5.24541C145.277 5.58423 144.509 5.7521 143.314 5.58423C142.254 5.43484 142.065 5.42714 141.607 5.51339C141.37 5.55805 141.039 5.54881 140.87 5.4926C140.425 5.34475 138.114 5.08371 137.085 5.06445C136.566 5.05308 136.046 5.01816 135.528 4.95973C135.157 4.91122 134.41 4.84191 133.867 4.80572C132.915 4.73314 131.964 4.64818 131.013 4.55084C129.881 4.43833 128.749 4.34643 127.615 4.27517C126.246 4.19816 126.08 4.21048 126.02 4.40299C125.964 4.58549 125.784 4.61629 124.798 4.61167C124.162 4.60859 123.431 4.65325 123.175 4.71024L122.708 4.81496L123.486 4.95819C123.915 5.0375 124.428 5.10065 124.628 5.09834C124.828 5.09603 125.646 5.18458 126.445 5.29393C127.244 5.40327 128.762 5.55805 129.819 5.63659C130.875 5.71591 131.843 5.80831 131.97 5.84219C132.097 5.87607 133.148 5.96001 134.306 6.02931C136.386 6.15252 137.844 6.25416 138.954 6.35119C139.268 6.37891 140.345 6.45976 141.348 6.53138C142.351 6.60299 143.238 6.68769 143.32 6.71927C143.403 6.75007 143.564 6.82014 143.677 6.87327C143.791 6.92718 144.065 6.98724 144.284 7.00649C144.503 7.02651 144.737 7.13432 144.803 7.24674C144.899 7.40845 145.17 7.45696 146.117 7.48391C146.774 7.50239 147.357 7.55322 147.415 7.59634C147.472 7.63946 147.869 7.70953 148.297 7.75035C150.344 7.94902 152.391 8.11072 153.331 8.14769C153.903 8.17002 155.118 8.28937 156.031 8.41258C156.944 8.53579 158.112 8.65668 158.627 8.68055C162.183 8.84226 165.023 9.04786 166.516 9.24884C167.03 9.31814 167.93 9.41209 168.517 9.45752C169.104 9.50372 169.609 9.58997 169.64 9.65003C169.67 9.71086 169.54 9.76554 169.351 9.77093C169.162 9.77632 168.876 9.79326 168.714 9.80789C168.553 9.82175 168.401 9.79326 168.376 9.7432C168.351 9.69392 168.158 9.7124 167.947 9.78402C167.733 9.85717 167.264 9.87796 166.884 9.83022C166.511 9.78402 164.523 9.72241 162.467 9.69546C160.412 9.66774 157.959 9.60768 157.017 9.56148C155.338 9.48062 154.862 9.53067 155.963 9.67236C156.269 9.71086 156.542 9.7717 156.569 9.80558C156.644 9.89798 156.264 10.1244 155.949 10.1767C155.582 10.2383 155.466 10.4008 155.78 10.4154C155.918 10.4208 156.638 10.4801 157.381 10.5464C158.123 10.6118 159.582 10.7004 160.625 10.7419C162.337 10.8112 162.519 10.8397 162.519 11.043C162.519 11.3264 162.937 11.3934 165.456 11.5135C166.471 11.562 167.327 11.6506 167.356 11.7107C167.386 11.7699 167.615 11.8185 167.866 11.8185C168.718 11.8185 168.48 12.1742 167.431 12.4637C167.136 12.5454 166.739 12.6016 166.549 12.5885C165.285 12.5015 165.617 12.7548 167.035 12.9597C167.606 13.042 168.4 13.1368 168.799 13.1714C169.199 13.2061 169.923 13.2915 170.409 13.3624C170.894 13.4325 171.875 13.5287 172.589 13.5749C173.468 13.6327 173.92 13.7143 173.99 13.829C174.048 13.9214 174.418 14.0346 174.821 14.0808C175.22 14.127 175.594 14.2348 175.651 14.3218C175.708 14.4081 176.096 14.5182 176.513 14.566C176.93 14.6137 177.376 14.7377 177.504 14.8416C177.651 14.961 178.1 15.0511 178.719 15.0873C180.052 15.1643 181.097 15.309 181.155 15.4253C181.216 15.547 180.307 15.7218 180.167 15.6147C180.11 15.5709 180.063 15.5901 180.063 15.6571C180.063 15.7241 180.227 15.8165 180.426 15.8635C180.821 15.9551 180.896 16.1153 180.608 16.2531C180.269 16.4164 180.744 16.6743 181.811 16.9076C182.707 17.1025 183.274 17.3442 182.861 17.355C182.473 17.365 183.072 17.5922 183.695 17.6707C184.066 17.7185 184.423 17.8124 184.489 17.881C184.556 17.9487 184.905 18.0635 185.267 18.1358C186.27 18.3361 186.259 18.4978 185.236 18.5971C184.853 18.6341 184.504 18.7442 184.398 18.8612C184.251 19.0245 184.071 19.0445 183.412 18.9683C182.074 18.8135 181.809 18.8435 181.608 19.1731C181.509 19.3348 181.449 19.5073 181.474 19.5573C181.499 19.6066 181.833 19.6882 182.218 19.7375C182.603 19.7868 182.965 19.8723 183.022 19.9285C183.079 19.9839 183.348 20.0702 183.619 20.1202C184.363 20.2573 184.21 20.439 183.35 20.439C182.932 20.439 182.554 20.4829 182.51 20.5361C182.467 20.5892 182.032 20.6323 181.543 20.6323C180.925 20.6323 180.64 20.6816 180.61 20.7932C180.579 20.9034 180.691 20.9542 180.963 20.955C181.182 20.955 181.525 21.0089 181.724 21.0735C181.924 21.1382 182.483 21.2275 182.966 21.273C183.449 21.3176 183.898 21.4085 183.962 21.4747C184.026 21.541 184.106 21.561 184.139 21.5202C184.173 21.4786 184.309 21.4932 184.441 21.5517C184.628 21.6341 184.517 21.6773 183.956 21.7404C183.294 21.8151 182.539 22.003 182.14 22.1924C181.886 22.3125 182.28 22.445 183.463 22.6359C184.048 22.7307 184.527 22.8423 184.527 22.8839C184.527 22.9263 184.831 22.9363 185.202 22.907C185.744 22.8647 185.876 22.8908 185.876 23.0418C185.876 23.2751 185.548 23.6562 185.349 23.6539C185.227 23.6524 185.229 23.6308 185.357 23.5269C185.491 23.4206 185.486 23.4021 185.328 23.4006C185.226 23.3991 185.116 23.4884 185.081 23.5985C185.029 23.7679 184.841 23.7879 183.813 23.7302C182.525 23.6586 182.208 23.744 182.445 24.0982C182.843 24.6912 184.464 25.3288 185.579 25.3288C186.252 25.3288 186.603 25.4843 186.603 25.7831C186.603 25.9325 186.437 25.971 185.799 25.9679C185.356 25.9671 184.807 25.9048 184.579 25.8301C184.35 25.7554 183.275 25.6684 182.188 25.636C180.266 25.5798 180.211 25.5852 180.196 25.8362C180.181 26.0842 180.308 26.2621 180.53 26.3067C180.587 26.3183 181.035 26.4215 181.525 26.5362C183.13 26.9104 184.555 27.1391 186.013 27.2546C187.364 27.3624 187.825 27.5095 187.685 27.7898C187.653 27.8537 187.583 27.8714 187.527 27.8299C187.473 27.7883 187.441 27.8299 187.457 27.9246C187.473 28.0185 187.405 28.0863 187.305 28.077C187.206 28.067 187.147 28.104 187.175 28.1594C187.202 28.2141 187.066 28.2965 186.872 28.3412C186.453 28.439 186.354 28.6707 186.568 29.0504C186.682 29.2529 186.695 29.3738 186.613 29.4954C186.479 29.6949 186.567 29.8312 186.828 29.8312C186.933 29.8312 187.019 29.8558 187.019 29.8851C187.019 29.9151 187.05 30.0391 187.087 30.1623C187.151 30.3664 187.081 30.3779 186.231 30.2986C185.722 30.2524 185.13 30.1792 184.916 30.1369C184.606 30.0761 184.527 30.1015 184.527 30.2616C184.527 30.3717 184.452 30.5142 184.36 30.5781C184.122 30.7429 184.265 31.4845 184.562 31.6331C184.776 31.7401 184.777 31.7463 184.579 31.7624C184.371 31.7794 184.371 31.7794 184.579 31.8903C184.782 31.9981 184.498 32.0443 183.437 32.0766C182.994 32.0897 182.659 32.263 182.659 32.4778C182.659 32.5933 182.551 32.6626 182.373 32.6642C182.198 32.668 182.023 32.6948 181.852 32.7442C181.63 32.8174 181.627 32.8328 181.799 32.9953C181.901 33.0908 182.111 33.1701 182.268 33.1724C182.424 33.1747 182.86 33.3795 183.236 33.6267C183.616 33.877 184.072 34.0772 184.261 34.0772C184.89 34.0772 185.872 34.2412 185.823 34.3382C185.796 34.3913 185.854 34.426 185.952 34.4168C186.05 34.4087 186.139 34.494 186.165 34.6208C186.212 34.9042 185.599 35.3916 185.283 35.3231C185.157 35.2954 185.036 35.3362 185.015 35.4132C184.967 35.5949 183.755 35.6465 183.27 35.4871C183.065 35.4193 182.002 35.3485 180.909 35.3293C179.061 35.2969 178.516 35.3624 179.207 35.5349C179.363 35.5734 179.702 35.6642 179.959 35.7366C180.259 35.815 180.563 35.8605 180.868 35.8729C181.11 35.876 181.309 35.9368 181.309 36.0077C181.309 36.0777 181.382 36.1363 181.471 36.1363C181.561 36.1363 181.73 36.1994 181.848 36.2772C182.058 36.4173 182.057 36.4204 181.815 36.5706C181.388 36.8339 181.52 37.0819 182.236 37.3637C182.603 37.5085 182.926 37.7118 182.952 37.8142C182.979 37.9174 183.042 38.0352 183.093 38.076C183.251 38.2053 183.061 38.6019 182.882 38.5164C182.791 38.4733 182.746 38.4741 182.78 38.5172C182.815 38.5603 182.726 38.7421 182.582 38.9207C182.393 39.1548 182.198 39.2511 181.877 39.2665C181.632 39.278 181.451 39.325 181.474 39.372C181.497 39.4182 181.069 39.4274 180.523 39.3927C179.728 39.3419 179.494 39.3689 179.355 39.5244C179.162 39.7416 178.142 39.8309 177.61 39.6777C177.407 39.6191 177.259 39.6368 177.215 39.7254C177.176 39.8032 177.034 39.8671 176.899 39.8671C176.587 39.8671 176.326 39.9903 176.326 40.1381C176.326 40.2013 176.394 40.2536 176.476 40.2536C176.559 40.2536 176.666 40.3407 176.715 40.4485C176.77 40.5694 177.176 40.7334 177.785 40.8797C178.984 41.1692 179.867 41.6112 179.783 41.8807C179.749 41.9862 179.659 42.0381 179.577 41.9993C179.496 41.9608 179.455 41.9808 179.487 42.0455C179.519 42.1087 179.423 42.342 179.273 42.5622C179.073 42.8571 178.946 42.9411 178.792 42.881C178.677 42.8348 178.61 42.851 178.642 42.9157C178.674 42.9803 178.538 43.0389 178.34 43.0466C178.141 43.0527 177.65 43.1582 177.25 43.2799L176.521 43.5009L176.753 43.8074C176.88 43.9752 177.028 44.1131 177.081 44.1131C177.134 44.1131 177.337 44.207 177.533 44.3225C177.875 44.5235 177.883 44.5443 177.732 44.8308C177.632 45.0186 177.613 45.1588 177.679 45.2088C177.706 45.2292 177.726 45.2639 177.733 45.3045C177.74 45.345 177.734 45.3877 177.716 45.4221C177.673 45.5084 177.618 45.4938 177.559 45.3813C177.5 45.2681 177.44 45.2527 177.39 45.3382C177.347 45.4098 177.172 45.553 177.001 45.6555L176.689 45.8418L177.018 45.8849C177.373 45.9327 177.564 46.2622 177.306 46.3855C177.219 46.427 177.122 46.4286 177.09 46.3893C177.059 46.3508 176.877 46.427 176.687 46.5587C176.452 46.7113 176.203 46.8231 175.947 46.8914C175.73 46.9422 175.489 47.0608 175.413 47.1563C175.231 47.3819 175.16 47.3773 174.195 47.0716C173.329 46.7967 173.085 46.8228 172.73 47.2256C172.529 47.452 172.449 47.4627 171.907 47.3388C171.195 47.1755 169.854 47.1547 169.931 47.308C169.96 47.3665 170.325 47.4866 170.741 47.5752C171.803 47.7992 171.922 47.8478 171.748 47.981C171.446 48.212 172.798 48.7587 174.12 48.9389C174.477 48.9874 174.792 49.0729 174.819 49.1283C174.847 49.1838 174.772 49.384 174.651 49.5726C174.451 49.8891 174.447 49.933 174.602 50.144C174.693 50.2703 174.769 50.4051 174.769 50.4443C174.769 50.603 173.011 50.3743 172.433 50.1394C171.602 49.8029 169.919 49.5572 169.764 49.7498C169.682 49.8514 169.681 49.9392 169.761 50.0593C169.87 50.221 170.036 50.2903 171.421 50.7508C171.853 50.894 172.07 51.0311 172.07 51.1597C172.07 51.3229 171.947 51.3399 171.299 51.2675C170.806 51.2113 170.506 51.229 170.463 51.3137C170.426 51.3869 170.454 51.4469 170.524 51.4469C170.593 51.4469 170.627 51.4769 170.597 51.5131C170.528 51.5994 169.057 51.2174 168.911 51.0742C168.796 50.9626 167.28 50.6738 166.957 50.7015C166.857 50.7108 166.775 50.7901 166.775 50.8786C166.775 50.9672 166.751 51.1173 166.721 51.2128C166.67 51.3776 167.938 51.711 170.123 52.1068C170.451 52.1661 170.889 52.3024 171.096 52.4102C171.303 52.5173 171.618 52.6051 171.797 52.6051C172.267 52.6066 172.942 52.8615 172.833 52.9962C172.783 53.0594 172.15 53.1271 171.428 53.1472C170.706 53.1672 170.123 53.1934 170.133 53.2057C170.142 53.2172 170.381 53.3397 170.663 53.4767C171.154 53.7162 171.166 53.7332 170.941 53.8825C170.765 53.9988 170.578 54.0034 170.189 53.9003C169.558 53.7324 169.474 53.7301 169.474 53.881C169.474 53.9465 169.613 54.0373 169.784 54.0843C170.352 54.2383 170.229 54.4062 169.549 54.4062C169.152 54.4062 168.751 54.4878 168.557 54.6079C168.36 54.7296 168.139 54.7742 168.001 54.7196C167.704 54.6033 162.83 54.5579 162.887 54.6734C163.008 54.9152 161.646 54.9136 160.484 54.6703C158.131 54.1782 156.129 53.8987 154.837 53.881C154.123 53.8718 153.049 53.7847 152.449 53.687C151.66 53.5649 150.868 53.4617 150.076 53.3774C149.37 53.305 148.763 53.2234 148.726 53.1957C148.69 53.1687 148.31 53.1094 147.882 53.064C147.501 53.0247 147.12 52.9792 146.74 52.9277C146.324 52.8653 144.43 52.7344 143.054 52.6728C141.877 52.614 140.7 52.5218 139.525 52.3964C139.182 52.3579 137.851 52.3024 136.566 52.2732C135.281 52.2424 133.763 52.17 133.192 52.1115C132.622 52.0545 131.043 52.0121 129.683 52.0191C127.628 52.0298 127.196 52.0645 127.114 52.2216C127.03 52.3833 127.001 52.3841 126.923 52.2324C126.86 52.1122 126.727 52.0783 126.522 52.1284C126.353 52.1707 126.164 52.1415 126.102 52.0637C126.039 51.9867 125.834 51.9105 125.646 51.8958C125.46 51.8818 125.276 51.8472 125.095 51.7927C124.473 51.564 123.825 51.4977 123.563 51.6356C123.354 51.7465 122.831 51.6156 122.903 51.4708C122.93 51.4169 122.43 51.3576 121.791 51.3391C120.073 51.2875 119.895 51.2644 119.7 51.0642C119.542 50.9017 119.527 50.9094 119.558 51.132C119.582 51.3014 119.543 51.3676 119.437 51.3368C119.309 51.3062 119.179 51.2899 119.048 51.2883C118.919 51.2867 118.815 51.2413 118.815 51.1866C118.815 51.1327 118.739 51.0527 118.647 51.0088C118.525 50.951 118.496 50.9841 118.542 51.1304C118.585 51.269 118.564 51.2998 118.476 51.2305C118.405 51.1743 117.904 51.1104 117.361 51.0881C116.22 51.0419 116.39 51.0419 111.029 51.065C108.773 51.0758 106.64 51.0419 106.286 50.9911C105.933 50.9395 105.566 50.9348 105.47 50.981C105.293 51.065 101.902 51.2305 100.86 51.2067C100.045 51.1874 99.1214 51.7811 99.6352 51.9936C99.7117 52.0244 99.6584 52.1161 99.5055 52.217C99.3629 52.3094 99.2204 52.4349 99.1886 52.4942C99.0738 52.7098 98.1921 52.8307 97.9424 52.6643C97.7842 52.5596 97.3665 52.5227 96.709 52.5535C96.162 52.5796 94.3655 52.632 92.7172 52.669C91.0684 52.7067 89.6061 52.7722 89.4671 52.8153C89.3286 52.8584 88.7394 52.9031 88.1578 52.9138C87.5761 52.9246 87.0066 52.9985 86.8925 53.0779C86.6886 53.2203 85.7257 53.4536 85.5646 53.3997C85.3659 53.3343 84.9969 53.3504 84.6608 53.4405C84.461 53.4944 84.2037 53.5283 84.0896 53.5168C83.9755 53.5052 83.7883 53.4852 83.6742 53.4721C83.5601 53.4598 83.023 53.5183 82.4807 53.6007C81.9385 53.6839 81.2925 53.7509 81.0457 53.7493C80.7989 53.7478 80.5417 53.8017 80.4745 53.8687C80.4073 53.9357 80.2004 54.0304 80.015 54.0797C79.7387 54.1528 79.6779 54.1297 79.6779 53.9511C79.6779 53.7586 79.5921 53.7432 78.9247 53.8248C78.5111 53.8748 77.4248 53.9287 76.5117 53.9449C75.5981 53.9619 74.5987 54.0427 74.2911 54.1259C74.089 54.1837 73.8858 54.2341 73.6816 54.2768C73.6538 54.2768 73.6891 54.3638 73.7604 54.4701C73.8317 54.5764 74.0478 54.6626 74.2401 54.6626C74.433 54.6626 74.5912 54.6872 74.5912 54.7165C74.5912 54.7465 74.6196 54.8628 74.6538 54.9745C74.7407 55.2532 74.4481 55.2394 74.2175 54.9537C74.0866 54.792 74.0246 54.7743 73.9933 54.8905C73.9701 54.9783 73.9076 55.0176 73.8554 54.9783C73.8033 54.9383 73.7604 54.9521 73.7604 55.0091C73.7604 55.0669 73.6555 55.1208 73.5269 55.1292C73.3983 55.1377 72.6863 55.2109 71.9436 55.2909C71.202 55.371 69.7067 55.4596 68.6216 55.4881C67.5371 55.5158 66.5325 55.5712 66.3899 55.6097C65.9062 55.7406 63.247 56.0464 61.8224 56.1334C59.1817 56.2951 57.18 56.7633 56.7676 57.3154C56.6384 57.4879 56.4107 57.6272 56.2473 57.6342C54.9038 57.6881 53.0383 57.8613 52.2197 58.0084C51.7756 58.0843 51.3304 58.148 50.8843 58.1994C50.4712 58.246 50.0596 58.313 49.6503 58.4004C49.3635 58.4681 49.1115 58.5236 49.0912 58.5236C49.0703 58.5236 49.0535 58.3749 49.0535 58.194C49.0535 58.013 49.0083 57.8991 48.9527 57.9414Z" fill="#FCC419"/>
<path fill-rule="evenodd" clip-rule="evenodd" d="M130.212 0.542812C130.26 0.507338 130.362 0.647965 130.436 0.853205C130.515 1.07111 130.636 1.22821 130.725 1.22821C130.847 1.22821 130.856 1.25989 130.771 1.37708C130.689 1.4911 130.693 1.53607 130.784 1.57155C130.877 1.60765 130.873 1.65833 130.764 1.81036C130.66 1.95795 130.654 2.01433 130.742 2.04854C130.805 2.07261 130.856 2.13912 130.856 2.19613C130.856 2.25314 130.815 2.27025 130.765 2.23414C130.714 2.1974 130.698 2.24047 130.729 2.33423C130.76 2.42481 130.737 2.49893 130.679 2.49893C130.603 2.49893 130.601 2.55593 130.673 2.7105C130.751 2.88026 130.743 2.92207 130.627 2.92207C130.51 2.92207 130.504 2.94931 130.597 3.06397C130.716 3.2103 130.946 3.07917 130.916 2.88216C130.908 2.83149 130.95 2.76878 131.009 2.74407C131.08 2.71367 131.098 2.77828 131.063 2.93221C131.034 3.06143 131.048 3.14125 131.094 3.11021C131.14 3.07981 131.259 3.08931 131.36 3.13238C131.505 3.19383 131.462 3.22613 131.154 3.28695C130.911 3.33509 130.764 3.41997 130.764 3.51309C130.764 3.59544 130.684 3.66258 130.586 3.66258C130.488 3.66258 130.352 3.7557 130.283 3.86973C130.159 4.07307 129.692 4.35115 129.541 4.31124C129.498 4.30047 129.23 4.35875 128.945 4.44174C128.585 4.54033 128.22 4.6156 127.854 4.66725C127.539 4.70842 127.258 4.78507 127.23 4.83765C127.201 4.89022 127.088 4.93393 126.977 4.9352C126.867 4.93647 126.529 5.07836 126.227 5.25066C125.924 5.42233 125.607 5.56422 125.522 5.56549C125.436 5.56676 125.341 5.61616 125.31 5.67381C125.279 5.73209 125.3 5.7796 125.357 5.7796C125.484 5.7796 125.439 6.25278 125.31 6.26355C125.259 6.26735 125.037 6.3307 124.816 6.40291C124.595 6.4764 124.314 6.50744 124.191 6.47133C124.068 6.43586 123.836 6.45359 123.676 6.5106C123.516 6.56762 123.155 6.6658 122.873 6.72978C122.101 6.90398 121.689 7.04967 121.689 7.14786C121.689 7.25048 126.392 7.17953 127.556 7.05918C128.169 6.99583 128.403 7.01357 128.656 7.14026C128.832 7.22894 128.998 7.30813 129.023 7.31699C129.048 7.32523 129.189 7.38984 129.336 7.45952C129.484 7.52983 129.669 7.55834 129.749 7.52287C129.828 7.48676 131.049 7.44052 132.461 7.41961C133.872 7.39871 135.213 7.3341 135.44 7.27645C135.666 7.21817 136.346 7.11555 136.95 7.04841C137.554 6.97999 138.128 6.87611 138.224 6.81656C138.321 6.75702 138.601 6.73041 138.847 6.75765C139.094 6.78552 139.317 6.76589 139.344 6.71521C139.372 6.66453 139.432 6.6506 139.48 6.68353C139.526 6.71711 139.564 6.69431 139.564 6.63286C139.564 6.57078 139.595 6.53024 139.634 6.54164C139.786 6.58788 140.573 6.39595 140.573 6.3117C140.573 6.20844 141.266 6.03678 141.527 6.07479C141.624 6.08936 141.78 6.0051 141.875 5.88728C141.969 5.77009 142.117 5.66811 142.204 5.66114C142.29 5.65481 142.608 5.63833 142.911 5.62567C143.213 5.613 143.625 5.54838 143.827 5.48124C144.029 5.41346 144.35 5.33174 144.54 5.29943C144.73 5.26649 144.864 5.19808 144.837 5.14741C144.751 4.98777 144.955 4.94597 146.548 4.79647C146.633 4.78824 146.694 4.73629 146.686 4.68118C146.677 4.62607 146.752 4.55323 146.853 4.51902C146.998 4.45855 147.137 4.37667 147.267 4.27514C147.434 4.14401 147.781 4.0737 148.505 4.02492C149.058 3.98755 149.606 3.96158 149.723 3.96791C149.839 3.97424 150.061 3.9033 150.216 3.81081C150.376 3.71579 150.522 3.68476 150.554 3.73987C150.633 3.87543 150.956 4.00592 150.885 3.87289C150.811 3.73353 150.9 3.74113 151.144 3.8938C151.636 4.20229 153.969 3.96791 154.212 3.58594C154.287 3.46748 154.296 3.38767 154.235 3.36423C154.183 3.34396 154.14 3.28568 154.14 3.23374C154.14 3.18243 154.198 3.16596 154.268 3.197C154.339 3.22867 154.424 3.20333 154.457 3.14062C154.546 2.97465 153.997 2.99872 153.7 3.17419C153.564 3.25464 153.267 3.35536 153.04 3.39843C152.813 3.44087 152.555 3.49155 152.467 3.51056C152.379 3.52956 152.307 3.48268 152.307 3.40604C152.307 3.30785 152.192 3.27807 151.917 3.30278C151.616 3.33002 151.564 3.31355 151.69 3.2293C151.779 3.16976 151.831 3.08234 151.806 3.03483C151.752 2.93348 152.265 2.83086 153.257 2.74534C153.814 2.69783 153.996 2.71684 154.057 2.82896C154.116 2.93475 154.138 2.93855 154.139 2.84226C154.141 2.64779 154.692 2.67946 154.889 2.88533C154.981 2.98162 155.057 3.01583 155.057 2.96072C155.057 2.8999 155.354 2.88914 155.813 2.93284C156.229 2.97338 156.879 3.03229 157.257 3.06397C157.635 3.09564 158.08 3.17799 158.246 3.24577C158.411 3.31292 158.649 3.34586 158.775 3.31798C158.9 3.29074 159.029 3.31672 159.061 3.37563C159.096 3.44214 159.072 3.45101 158.999 3.39843C158.924 3.34522 158.901 3.35409 158.937 3.4225C159.006 3.55173 159.444 3.66829 159.961 3.69616C160.266 3.71263 160.329 3.7538 160.337 3.9432C160.347 4.14591 160.283 4.17885 159.742 4.2517C159.408 4.29604 159.033 4.32264 158.907 4.30997L158.678 4.28717L158.921 4.4392C159.343 4.70398 159.754 4.81611 160.557 4.88389C160.986 4.91999 161.604 5.02768 161.932 5.1227C162.686 5.34124 165.301 5.35835 165.415 5.14487C165.454 5.07163 165.532 5.0472 165.594 5.08849C165.748 5.19808 167.435 5.23419 167.377 5.12777C167.324 5.02705 167.337 5.02578 168.536 4.98334C169.383 4.95357 169.74 4.91746 171.007 4.73313C171.585 4.64951 171.923 4.69765 172.253 4.91049C172.392 5.00045 172.362 5.05112 172.028 5.29373C171.76 5.4901 171.432 5.60476 170.937 5.67697C170.091 5.8005 169.284 5.9557 168.703 6.10773C168.355 6.19831 168.286 6.25405 168.322 6.41495C168.348 6.53024 168.42 6.58852 168.495 6.55431C168.566 6.52327 168.624 6.55051 168.624 6.61512C168.624 6.67974 168.552 6.73295 168.464 6.73358C168.326 6.73485 168.323 6.75005 168.441 6.8381C168.527 6.90271 168.537 6.94135 168.466 6.94199C168.405 6.94325 168.378 7.01547 168.408 7.10352C168.445 7.21438 168.353 7.31763 168.107 7.44432L167.753 7.62549L168.648 7.68883C169.129 7.72392 169.611 7.74188 170.092 7.74268C170.394 7.73634 170.64 7.73761 170.64 7.74521C170.64 7.75218 170.558 7.8681 170.457 8.00239C170.356 8.13668 170.274 8.21397 170.274 8.17469C170.274 8.13542 170.181 8.17342 170.067 8.25957C169.954 8.34509 169.555 8.47052 169.181 8.53703C168.808 8.60417 168.339 8.7258 168.139 8.80688C167.913 8.89403 167.679 8.94512 167.443 8.95891C166.933 8.96461 165.647 9.35039 166.019 9.38649C166.109 9.40013 166.198 9.41916 166.286 9.44351C166.385 9.46952 166.483 9.49507 166.581 9.52015C166.791 9.57336 166.804 9.67598 166.611 9.74693C166.505 9.78621 166.31 9.93317 166.178 10.0744C166.046 10.2157 165.847 10.331 165.734 10.331C165.622 10.331 165.483 10.3962 165.425 10.4767C165.339 10.5958 165.414 10.6344 165.849 10.6914C166.118 10.7261 166.385 10.7662 166.653 10.8118C167.013 10.8789 168.445 10.8694 168.543 10.7991C168.676 10.7041 169.724 10.6597 169.724 10.7484C169.724 10.7959 169.662 10.8935 169.586 10.9657C169.511 11.0385 169.449 11.1475 169.449 11.2083C169.449 11.2691 169.476 11.2875 169.509 11.2489C169.542 11.2109 169.625 11.2324 169.692 11.297C169.76 11.3622 169.815 11.3698 169.815 11.3141C169.815 11.2584 169.878 11.2127 169.953 11.2127C170.173 11.2127 170.113 11.3261 169.81 11.4807C169.47 11.6549 169.518 11.7278 170.067 11.8652C170.568 11.9919 170.663 12.1883 170.304 12.3555C169.933 12.5284 168.189 12.7527 167.192 12.7559C166.724 12.7571 166.233 12.7901 166.099 12.8287L165.855 12.899L166.116 13.1461C166.261 13.2816 166.448 13.3944 166.533 13.3963C166.75 13.402 166.816 13.5698 166.7 13.8213C166.577 14.0874 165.779 14.5644 165.459 14.5644C165.324 14.5644 165.246 14.61 165.278 14.6702C165.309 14.7284 165.41 14.7759 165.503 14.7759C165.658 14.7759 165.83 15.0401 165.797 15.2257C165.762 15.4145 167.216 15.2035 167.338 15.0021C167.431 14.8488 169.772 14.4465 170.002 14.5454L170.221 14.6385L170.008 14.7702C169.891 14.8431 169.129 15.03 168.316 15.1871C166.827 15.4734 166.464 15.6754 167.44 15.6754C167.74 15.6754 168.015 15.7363 168.105 15.8211C168.233 15.9428 168.409 15.9459 169.152 15.8414C170.518 15.6488 171.311 15.5165 171.497 15.4506C171.62 15.4069 171.657 15.4379 171.635 15.5671C171.601 15.7546 171.318 15.9744 170.873 16.1581C170.49 16.3159 170.728 16.4546 171.217 16.3596C171.43 16.3178 171.789 16.2506 172.015 16.2095L172.428 16.1353L172.085 16.5154C171.895 16.7245 171.741 16.9126 171.741 16.9335C171.741 16.9544 171.997 17.0051 172.309 17.0456C173.049 17.1425 173.444 17.3813 173.439 17.7291C173.436 17.9128 172.843 18.158 172.291 18.2042C172.064 18.2238 171.548 18.3151 171.145 18.4075C170.742 18.5 170.123 18.5976 169.77 18.6236C169.371 18.6558 168.973 18.7089 168.578 18.7826C166.7 19.1633 166.277 19.2576 166.196 19.3109C166.146 19.3438 166.29 19.423 166.516 19.4863C166.744 19.5503 166.928 19.6637 166.928 19.741C166.928 19.919 166.004 20.306 165.165 20.4789C164.758 20.5632 164.456 20.688 164.357 20.8147C164.269 20.9274 163.962 21.0693 163.658 21.1384C162.969 21.2948 162.988 21.4437 163.736 21.763C163.897 21.8314 164.01 21.9422 163.987 22.01C163.935 22.1627 163.51 22.3964 163.283 22.3964C163.19 22.3964 163.138 22.4446 163.17 22.5022C163.2 22.5605 163.533 22.6086 163.908 22.6086C164.526 22.6086 164.774 22.7163 164.476 22.8557C164.209 22.9805 165.546 22.9127 166.207 22.7689C167.03 22.589 167.478 22.6644 167.478 22.9817C167.478 23.1287 167.238 23.3206 166.578 23.7045C165.956 24.0662 165.716 24.2556 165.799 24.3177C165.958 24.4355 165.801 24.5565 165.186 24.7909C164.319 25.1222 163.63 25.6765 163.721 25.9723C163.782 26.1737 163.444 26.2839 162.046 26.5171C161.352 26.633 160.656 26.8008 160.501 26.8908C160.345 26.9795 160.016 27.0808 159.769 27.1157C159.087 27.2101 157.784 27.5908 157.58 27.7548C157.481 27.8346 157.275 27.9037 157.122 27.9081C156.969 27.9119 156.762 27.9563 156.661 28.0063C156.515 28.0785 156.552 28.1001 156.844 28.1127C157.626 28.1463 158.04 28.235 158.144 28.3914C158.214 28.4985 158.325 28.5308 158.465 28.4865C158.648 28.4295 158.655 28.4358 158.516 28.5371C158.427 28.6011 158.282 28.6404 158.195 28.6239C158.098 28.6091 158 28.6296 157.913 28.6828C157.84 28.7354 157.697 28.7145 157.563 28.6322C157.387 28.5232 157.299 28.52 157.164 28.6176C157.054 28.6968 156.97 28.7044 156.935 28.6391C156.904 28.5821 156.644 28.534 156.358 28.5314C156.071 28.5295 155.733 28.4599 155.607 28.3769C155.332 28.1957 155.24 28.1824 155.24 28.3237C155.24 28.3819 155.304 28.4295 155.383 28.4295C155.462 28.4295 155.503 28.4719 155.475 28.5232C155.448 28.5752 155.512 28.6436 155.618 28.6752C155.723 28.7069 155.792 28.7956 155.77 28.8722C155.729 29.0135 155.319 29.0965 154.049 29.2194C152.901 29.3309 152.582 29.3904 152.582 29.4943C152.582 29.5494 152.643 29.5937 152.719 29.5937C152.796 29.5937 152.857 29.6881 152.857 29.8053C152.857 29.9605 152.795 30.0169 152.627 30.0169C152.364 30.0169 152.319 30.1803 152.562 30.2538C152.652 30.281 153.116 30.2779 153.594 30.2468C154.983 30.1563 155.539 30.186 155.829 30.3678C155.977 30.4603 156.124 30.5167 156.157 30.4939C156.189 30.4705 156.198 30.5857 156.177 30.7498C156.132 31.1071 156.261 31.1628 157.202 31.1932C157.765 31.211 157.809 31.2268 157.613 31.344C157.291 31.5366 156.11 31.8127 155.405 31.8609C155.045 31.8856 154.705 31.9724 154.583 32.0712C154.322 32.2815 154.166 32.2847 153.99 32.0813C153.91 31.9895 153.689 31.923 153.469 31.9249C152.79 31.9287 150.255 32.2264 149.91 32.3429C149.589 32.4506 149.579 32.4684 149.647 32.8155C149.69 33.034 149.68 33.219 149.623 33.2855C149.557 33.3615 149.56 33.4401 149.631 33.5395C149.85 33.8442 149.572 33.907 148.234 33.8563C147.195 33.8164 146.87 33.8379 146.66 33.9621C146.437 34.0938 145.43 34.275 144.744 34.3073C144.643 34.3124 144.354 34.3586 144.102 34.4105L143.644 34.5056L144.056 34.5822C144.283 34.6247 144.964 34.6348 145.569 34.605C146.21 34.5745 146.852 34.5612 147.494 34.5651C147.948 34.5733 148.834 34.5018 149.465 34.4067C150.712 34.2192 151.998 34.0881 152.552 34.0919C152.745 34.0932 152.929 34.0526 152.96 34.002C152.992 33.9513 153.147 33.9038 153.304 33.8962C153.461 33.8886 153.59 33.843 153.59 33.7948C153.59 33.7467 153.683 33.7378 153.796 33.7746C153.958 33.8265 153.973 33.817 153.865 33.7302C153.747 33.6346 153.75 33.6187 153.888 33.6175C153.976 33.6162 154.049 33.563 154.049 33.4977C154.049 33.4255 154.136 33.4458 154.274 33.5509C154.525 33.741 154.635 33.7701 154.559 33.6276C154.531 33.5763 154.591 33.5091 154.691 33.4787C154.795 33.4471 154.873 33.4762 154.873 33.5465C154.873 33.6175 155.018 33.6688 155.217 33.6688C155.435 33.6688 155.553 33.6225 155.539 33.5414C155.524 33.454 155.624 33.43 155.856 33.4642C156.238 33.5212 156.615 33.767 156.617 33.9621C156.618 34.0457 156.65 34.0349 156.707 33.9336C156.776 33.81 156.796 33.8411 156.797 34.0729C156.799 34.4543 156.648 34.7799 156.469 34.7799C156.392 34.7799 156.355 34.8274 156.386 34.8856C156.417 34.9439 156.368 34.9952 156.277 34.9997C155.975 35.0149 155.783 35.0788 155.579 35.2334C155.396 35.3715 154.965 35.3183 154.965 35.1574C154.965 35.1283 155.021 35.1289 155.088 35.1587C155.156 35.1884 155.269 35.1302 155.34 35.0294C155.451 34.8711 155.451 34.8584 155.339 34.9357C155.239 35.0054 155.224 34.9819 155.273 34.8324C155.312 34.7165 155.291 34.6038 155.22 34.5518C155.045 34.4239 154.897 34.4479 155.056 34.579C155.16 34.6639 155.107 34.6779 154.842 34.6354C154.648 34.6038 154.415 34.6329 154.322 34.6994C154.195 34.7913 154.123 34.7894 154.02 34.6918C153.912 34.5879 153.873 34.5993 153.816 34.7507C153.776 34.8546 153.751 34.9743 153.759 35.018C153.767 35.0624 153.715 35.0978 153.643 35.0978C153.572 35.0978 153.498 35.1523 153.479 35.2182C153.459 35.2854 153.323 35.3544 153.175 35.3728C153.026 35.3911 152.86 35.4786 152.803 35.5679C152.747 35.6566 152.668 35.6946 152.627 35.6515C152.586 35.609 152.578 35.6578 152.61 35.7592C152.681 35.9872 152.506 36.0088 152.43 35.7813C152.382 35.6363 152.356 35.6382 152.204 35.7972C152.041 35.9676 152.031 35.9663 152.03 35.7756C152.029 35.6065 152.014 35.5995 151.94 35.7326C151.807 35.9695 151.826 36.0208 152.072 36.0917C152.227 36.1373 152.291 36.2248 152.28 36.38C152.265 36.627 151.945 36.8113 151.577 36.7866C151.234 36.7632 150.931 36.8994 150.931 37.0774C150.931 37.1914 150.84 37.225 150.588 37.2041C150.218 37.1724 149.597 37.2915 149.373 37.4366C149.262 37.5081 149.271 37.5272 149.419 37.5341C149.633 37.5484 149.847 37.5674 150.061 37.5911C150.84 37.676 151.877 37.6735 152.251 37.5861C152.508 37.5259 152.59 37.536 152.544 37.6222C152.505 37.6957 152.529 37.7197 152.609 37.6842C152.685 37.6507 152.806 37.7476 152.903 37.9186C153.021 38.1264 153.036 38.2214 152.957 38.2518C152.883 38.2803 152.901 38.3437 153.012 38.4438C153.163 38.5806 153.153 38.5888 152.903 38.5388C152.751 38.5084 152.679 38.5115 152.742 38.5451C152.974 38.6718 152.846 38.8023 152.49 38.8023C152.258 38.8023 152.123 38.7535 152.121 38.6693C152.121 38.5724 152.1 38.5755 152.042 38.6813C151.992 38.7713 151.941 38.7846 151.905 38.7168C151.844 38.6021 151.727 38.611 151.44 38.7529C151.342 38.801 151.126 38.8441 150.961 38.8479C150.58 38.8568 150.457 39.1197 150.833 39.1197C150.982 39.1197 151.118 39.1887 151.148 39.278C151.184 39.3857 151.144 39.437 151.025 39.437C150.928 39.437 150.816 39.4966 150.776 39.57C150.671 39.7595 150.297 39.9837 150.201 39.9153C150.156 39.8836 150.093 39.9051 150.062 39.9647C150.03 40.0236 149.89 40.0724 149.751 40.0724C149.612 40.0724 149.274 40.1497 149 40.244C148.568 40.3935 148.53 40.4277 148.706 40.5038C148.818 40.5525 149.583 40.5861 150.407 40.5779C151.23 40.5696 151.958 40.6019 152.024 40.6488C152.092 40.6976 152.171 40.6837 152.206 40.6172C152.28 40.4797 155.13 40.3752 155.201 40.5076C155.226 40.5538 155.31 40.5639 155.388 40.5291C155.485 40.4867 155.497 40.4423 155.427 40.3929C155.371 40.3524 155.45 40.3194 155.603 40.3194C155.757 40.3194 155.882 40.3644 155.882 40.4208C155.882 40.4759 155.944 40.4613 156.021 40.3878C156.098 40.3137 156.19 40.2878 156.226 40.3289C156.262 40.3701 156.189 40.4943 156.064 40.6045L155.836 40.8047L156.065 40.754C156.266 40.7096 156.271 40.7153 156.111 40.8034C155.847 40.9491 155.412 40.9332 155.157 40.7704C154.909 40.6121 154.598 40.664 154.598 40.8648C154.598 40.9573 154.417 40.9985 154.002 41.001C153.629 41.0036 153.406 40.9618 153.406 40.8889C153.406 40.8249 153.355 40.8509 153.292 40.9459C153.21 41.0713 152.961 41.1385 152.398 41.1873C151.97 41.2253 151.359 41.3228 151.04 41.4045C150.722 41.4869 150.33 41.5585 150.17 41.5642C150.009 41.5699 149.671 41.6395 149.419 41.7187C148.989 41.8543 149.038 41.86 150.198 41.8055C150.879 41.7738 151.498 41.7472 151.573 41.746C151.649 41.7453 152.598 41.6326 153.681 41.4964C154.766 41.3596 155.948 41.2335 156.308 41.2158C156.668 41.198 156.944 41.148 156.922 41.1043C156.898 41.0599 157.057 41.0245 157.275 41.0245C157.492 41.0245 158.04 40.9548 158.494 40.8705C159.272 40.7261 161.103 40.5766 160.854 40.6786C160.791 40.7039 160.762 40.7692 160.791 40.8224C160.819 40.8756 160.727 40.9212 160.585 40.9237C160.443 40.9269 160.183 41.0194 160.007 41.1296C159.831 41.2405 159.603 41.3754 159.503 41.4292C159.171 41.6079 153.765 42.6404 152.49 42.769C152.112 42.807 151.018 42.9324 150.061 43.0477C149.103 43.163 147.838 43.3036 147.251 43.36C146.664 43.417 145.984 43.5317 145.742 43.6159C145.423 43.7268 145.284 43.7363 145.237 43.6514C145.18 43.5437 144.215 43.5729 143.048 43.7186C142.636 43.7611 142.223 43.7966 141.81 43.825C140.906 43.8902 139.528 44.11 138.756 44.3115C138.538 44.3685 138.321 44.3875 138.274 44.3539C138.227 44.3197 137.588 44.3976 136.855 44.5256C135.77 44.7156 135.482 44.7346 135.312 44.6295C135.14 44.523 134.92 44.5408 134.102 44.727C132.74 45.0374 130.963 45.4403 130.077 45.6392C129.673 45.7304 129.088 45.8723 128.775 45.9553C128.461 46.0376 128.07 46.1048 127.904 46.1048C127.738 46.1048 127.416 46.1726 127.189 46.2568C126.807 46.3981 126.024 46.5545 123.935 46.9086C123.137 47.0369 122.343 47.1911 121.551 47.3711C121.048 47.4813 120.222 47.6498 119.718 47.7454L118.526 47.9735C117.456 48.1775 117.252 48.1736 117.039 47.945C116.925 47.8221 116.831 47.6675 116.831 47.601C116.831 47.5351 116.8 47.487 116.762 47.4933C116.724 47.5003 116.598 47.5003 116.484 47.4933C116.308 47.4832 116.289 47.449 116.366 47.283C116.478 47.041 116.388 46.9105 116.22 47.0714C116.031 47.2526 116.074 47.0898 116.292 46.801C116.406 46.6496 116.635 46.514 116.846 46.4728C117.153 46.4126 117.189 46.3797 117.09 46.2422C116.942 46.0364 117.067 46.0237 111.193 46.844C110.79 46.901 110.067 46.9694 109.589 46.9973C109.11 47.0258 108.243 47.0987 107.663 47.1595C107.084 47.2209 106.32 47.29 105.968 47.3134C105.615 47.3362 105.163 47.4046 104.964 47.4648C104.764 47.525 103.973 47.5776 103.206 47.5807C102.439 47.5845 101.756 47.6086 101.689 47.6346C101.524 47.6986 99.3762 47.8284 98.8651 47.8056C98.639 47.7948 98.3909 47.7207 98.3136 47.6403C98.1412 47.4597 97.7013 47.442 95.6549 47.5307C94.7141 47.5719 93.8506 47.665 93.5671 47.7562C93.1967 47.8753 92.5828 47.9082 90.9545 47.8956C89.7834 47.8854 87.8353 47.9146 86.6254 47.9583C84.1734 48.047 84.3043 48.0482 81.7669 47.9209C80.1241 47.8386 79.1762 47.8354 77.7335 47.9063C77.4813 47.919 77.3472 47.9507 77.4358 47.9773C77.5237 48.0039 77.5959 48.0755 77.5959 48.1363C77.5959 48.2091 77.3386 48.2262 76.8398 48.1857C76.4238 48.1515 75.1761 48.0755 74.0669 48.0166C72.9573 47.9576 71.5346 47.8601 70.9043 47.8012C68.372 47.5605 67.4066 47.4762 66.0913 47.3793C62.8028 47.1367 61.069 47.0404 59.2621 46.9992C58.4303 46.9796 57.3989 46.9314 56.9702 46.8915C56.4974 46.8501 56.0235 46.8294 55.5495 46.8295C55.1965 46.8345 54.4957 46.7914 53.9912 46.7344C53.4868 46.6774 51.8543 46.6096 50.3625 46.5837C48.8713 46.5583 47.4685 46.4912 47.246 46.4342C47.0229 46.3772 46.5169 46.305 46.1205 46.2739C45.7245 46.2422 45.2712 46.1916 45.1126 46.1618C44.5704 46.0592 43.7242 45.9901 42.4867 45.9464C41.397 45.9071 40.338 45.814 38.7741 45.6196C38.5219 45.5879 38.1714 45.5499 37.9949 45.5334C37.8184 45.5169 37.3646 45.4732 36.9866 45.4359C36.608 45.3978 35.9685 45.3389 35.5659 45.3028C35.1623 45.2674 34.8118 45.2236 34.7868 45.2059C34.7612 45.1875 34.5059 45.1445 34.2189 45.109C33.9324 45.0741 33.6372 45.0184 33.5641 44.9855C33.4899 44.9532 33.0642 44.912 32.6181 44.8949C31.3929 44.8467 31.3944 44.8474 31.3944 44.6763C31.3944 44.5889 31.3509 44.518 31.2972 44.518C31.244 44.518 31.2307 44.5731 31.2665 44.6415C31.3121 44.7257 31.2819 44.7429 31.1729 44.6941C31.0849 44.6554 30.9222 44.6231 30.8107 44.6231C30.6741 44.6231 30.604 44.5547 30.5948 44.4116C30.5784 44.1582 30.6281 44.1468 30.8117 44.359C31.0036 44.5807 31.2184 44.5636 31.154 44.3324C31.1222 44.2183 31.132 44.193 31.1795 44.2652C31.2322 44.3457 31.4906 44.3609 31.9904 44.3127C32.8509 44.2304 33.5001 44.2526 34.6947 44.4078C35.1735 44.4705 35.7925 44.5471 36.0698 44.5782C36.3471 44.6098 36.6223 44.6535 36.6812 44.6757C36.74 44.6979 36.8121 44.644 36.8413 44.5553C36.8807 44.4363 36.9677 44.4135 37.1769 44.4667C37.5053 44.5496 37.7161 44.5813 38.5909 44.6782C38.9439 44.7175 39.257 44.7669 39.2872 44.7885C39.3516 44.8341 40.5774 44.8417 42.2575 44.8075C43.3231 44.7847 44.0746 44.8455 44.6353 44.9988C44.9515 45.0849 47.1615 45.1223 47.1615 45.0412C47.1615 44.9994 46.8832 44.931 46.5425 44.8892C46.2028 44.8467 45.8416 44.7942 45.7409 44.7707C45.0333 44.6098 43.1394 44.4287 41.6159 44.378C41.2629 44.3653 40.9304 44.3235 40.8772 44.2842C40.7887 44.219 37.9816 43.9662 37.8307 44.0099C37.7949 44.0207 37.4562 43.996 37.0782 43.9548C36.4934 43.8921 35.0006 43.7654 34.6261 43.7471C34.4905 43.7407 34.4747 43.6039 34.599 43.5152C34.688 43.4519 35.3792 43.4367 36.0043 43.4848C36.1952 43.5 36.3849 43.5748 36.4259 43.6514C36.4816 43.7547 36.6392 43.7718 37.0413 43.7192C37.3391 43.6793 37.6097 43.628 37.6435 43.6052C37.6772 43.5817 37.7678 43.6349 37.844 43.7236C37.9207 43.8123 38.0052 43.8433 38.0318 43.7933C38.0834 43.697 39.9338 43.7382 40.47 43.8478C40.6465 43.8839 40.9575 43.9238 41.1611 43.9352C41.3647 43.9479 41.6226 44.0131 41.7341 44.0822C41.8958 44.1822 41.9367 44.1791 41.9367 44.0663C41.9367 43.9827 42.0595 43.9137 42.2344 43.8972C42.9594 43.8294 43.9738 43.8357 44.7786 43.913C45.3567 43.9688 45.6038 43.9618 45.5142 43.8921C45.1531 43.6134 45.8314 43.4753 46.8868 43.6134C47.823 43.7363 47.9898 43.7426 48.3945 43.6717C48.6032 43.6349 48.8958 43.6425 49.0452 43.6888C49.4376 43.8104 51.4783 44.0251 52.3869 44.041C52.8459 44.0503 53.3046 44.0791 53.762 44.1271C54.0895 44.167 54.7494 44.2241 55.2288 44.2538C56.0695 44.3135 56.9097 44.3834 57.7494 44.4635C58.7485 44.5561 59.7485 44.6317 60.7493 44.6903C61.9587 44.7536 62.105 44.7435 62.1577 44.5851C62.2073 44.435 62.3669 44.4097 63.2372 44.4135C63.7989 44.416 64.444 44.3792 64.6706 44.3324L65.083 44.2462L64.3954 44.1284C64.0173 44.0632 63.5635 44.0112 63.3876 44.0131C63.2106 44.015 62.4887 43.9422 61.7832 43.8522C61.0772 43.7623 59.7369 43.6349 58.8037 43.5703C57.8711 43.5051 57.0163 43.4291 56.9042 43.4012C56.7917 43.3733 55.8636 43.3043 54.8415 43.2473C53.0044 43.1459 51.7167 43.0623 50.737 42.9825C50.4597 42.9597 49.5082 42.8932 48.6231 42.8342C47.7376 42.7753 46.9538 42.7057 46.8812 42.6797C46.8085 42.6543 46.6663 42.5967 46.5661 42.553C46.4653 42.5087 46.2238 42.4592 46.0299 42.4434C45.8365 42.4269 45.6298 42.3383 45.5715 42.2458C45.4871 42.1127 45.2482 42.0728 44.4112 42.0507C43.8316 42.0355 43.3165 41.9937 43.2658 41.9582C43.2152 41.9227 42.8647 41.8651 42.4867 41.8315C40.6792 41.6681 38.8718 41.535 38.041 41.5046C37.5365 41.4863 36.4637 41.3881 35.657 41.2867C34.8507 41.1854 33.8193 41.0859 33.3651 41.0663C30.2249 40.9332 27.7166 40.7641 26.3988 40.5988C25.945 40.5418 25.1495 40.4645 24.6312 40.4271C24.113 40.3891 23.6669 40.3182 23.6403 40.2688C23.6137 40.2187 23.7283 40.1737 23.8951 40.1693C24.0618 40.1649 24.3146 40.1509 24.4578 40.1389C24.5995 40.1275 24.7341 40.1509 24.7561 40.1921C24.7781 40.2326 24.9484 40.2174 25.1346 40.1585C25.3239 40.0984 25.7383 40.0812 26.0734 40.1205C26.4034 40.1585 28.1586 40.2092 29.9737 40.2314C31.7888 40.2542 33.9544 40.3036 34.7862 40.3416C36.2693 40.4081 36.6893 40.3669 35.7168 40.2504C35.4467 40.2187 35.2063 40.1687 35.1817 40.1408C35.1162 40.0648 35.4513 39.8785 35.7296 39.8355C36.0534 39.7848 36.1558 39.6511 35.879 39.6391C35.7567 39.6347 35.1208 39.5859 34.4655 39.5314C33.8101 39.4776 32.5214 39.4047 31.6006 39.3705C30.0883 39.3135 29.9277 39.2901 29.9277 39.1228C29.9277 38.8897 29.5594 38.8346 27.335 38.7358C26.4382 38.6959 25.6825 38.623 25.6564 38.5736C25.6304 38.5248 25.4278 38.4849 25.2068 38.4849C24.4537 38.4849 24.6645 38.1923 25.5904 37.9541C25.8514 37.887 26.2018 37.8407 26.3691 37.8515C27.4859 37.9231 27.1928 37.7147 25.9404 37.5462C25.436 37.4784 24.7351 37.4005 24.3821 37.372C24.0291 37.3435 23.3896 37.2731 22.9609 37.2149C22.5327 37.1572 21.6666 37.078 21.0358 37.04C20.2597 36.9925 19.8607 36.9254 19.7983 36.831C19.7476 36.755 19.4207 36.6619 19.0652 36.6238C18.7122 36.5858 18.3822 36.4972 18.3315 36.4256C18.2814 36.3546 17.9386 36.264 17.5708 36.2248C17.2025 36.1855 16.8085 36.0835 16.696 35.998C16.566 35.8998 16.1696 35.8257 15.6232 35.7959C14.4455 35.7326 13.5226 35.6135 13.4715 35.5178C13.4177 35.4177 14.2204 35.2739 14.3437 35.362C14.3949 35.3981 14.4358 35.3823 14.4358 35.3272C14.4358 35.272 14.2915 35.196 14.115 35.1574C13.7666 35.082 13.7006 34.9503 13.9544 34.8369C14.2542 34.7026 13.8347 34.4904 12.8923 34.2984C12.1009 34.1382 11.6006 33.9393 11.9653 33.9304C12.3081 33.9222 11.7791 33.7353 11.2287 33.6707C10.9013 33.6314 10.5856 33.5541 10.5273 33.4977C10.4684 33.442 10.1599 33.3476 9.84072 33.2881C8.95465 33.1234 8.96438 32.9903 9.86835 32.9086C10.206 32.8782 10.5145 32.7876 10.6076 32.6913C10.738 32.5571 10.8972 32.5406 11.4783 32.6033C12.6601 32.7306 12.8944 32.7059 13.0719 32.4348C13.1589 32.3018 13.2121 32.1599 13.1901 32.1187C13.1681 32.0782 12.8729 32.011 12.5327 31.9705C12.193 31.9299 11.8738 31.8596 11.8231 31.8134C11.773 31.7678 11.5356 31.6968 11.2962 31.6556C10.6388 31.5429 10.7739 31.3934 11.5331 31.3934C11.9024 31.3934 12.2365 31.3573 12.2749 31.3136C12.3127 31.2699 12.6974 31.2344 13.1292 31.2344C13.6751 31.2344 13.9263 31.1939 13.9534 31.102C13.9805 31.0114 13.8818 30.9696 13.6413 30.969C13.4479 30.969 13.1451 30.9246 12.9691 30.8714C12.7926 30.8182 12.2989 30.7447 11.8722 30.7074C11.4456 30.6706 11.0496 30.5959 10.9928 30.5414C10.9365 30.4869 10.8654 30.4705 10.8363 30.504C10.8066 30.5382 10.6869 30.5262 10.5697 30.4781C10.405 30.4103 10.5027 30.3748 10.9979 30.3229C11.5827 30.2614 12.2498 30.1068 12.6023 29.951C12.8263 29.8522 12.478 29.7432 11.4338 29.5861C10.9171 29.5082 10.494 29.4164 10.494 29.3822C10.494 29.3473 10.2259 29.3391 9.89802 29.3632C9.41917 29.398 9.30253 29.3765 9.30253 29.2523C9.30253 29.0604 9.5926 28.7468 9.76807 28.7487C9.87551 28.75 9.87449 28.7677 9.76092 28.8532C9.64326 28.9407 9.64734 28.9559 9.7865 28.9571C9.87654 28.9584 9.97425 28.8849 10.0044 28.7943C10.0505 28.655 10.2167 28.6385 11.1248 28.686C12.2621 28.7449 12.5419 28.6746 12.3322 28.3832C11.9812 27.8955 10.5498 27.3709 9.56548 27.3709C8.97102 27.3709 8.66049 27.243 8.66049 26.9972C8.66049 26.8743 8.80732 26.8426 9.37109 26.8452C9.76194 26.8458 10.2464 26.8971 10.448 26.9586C10.6501 27.02 11.6001 27.0916 12.5598 27.1182C14.2567 27.1644 14.3053 27.16 14.3186 26.9535C14.3319 26.7495 14.2199 26.6032 14.0235 26.5665C13.9728 26.557 13.5774 26.4721 13.1446 26.3777C11.7275 26.0698 10.4695 25.8817 9.1818 25.7867C7.98929 25.698 7.58206 25.577 7.70536 25.3464C7.73349 25.2938 7.79591 25.2793 7.84451 25.3135C7.8926 25.3477 7.92073 25.3135 7.90692 25.2356C7.8926 25.1583 7.95296 25.1025 8.04095 25.1101C8.12844 25.1184 8.18062 25.088 8.15606 25.0424C8.13201 24.9974 8.25224 24.9296 8.42362 24.8929C8.7935 24.8124 8.88099 24.6217 8.6917 24.3095C8.59092 24.1429 8.57967 24.0434 8.6518 23.9433C8.76998 23.7793 8.69273 23.6671 8.46251 23.6671C8.3694 23.6671 8.29367 23.6469 8.29367 23.6228C8.29367 23.5981 8.26656 23.4961 8.23331 23.3947C8.17703 23.2269 8.23843 23.2174 8.98944 23.2826C9.43862 23.3206 9.96145 23.3808 10.1507 23.4157C10.4239 23.4657 10.494 23.4448 10.494 23.313C10.494 23.2224 10.5605 23.1053 10.6419 23.0527C10.8516 22.9171 10.7258 22.3071 10.4628 22.1848C10.2746 22.0968 10.2735 22.0917 10.448 22.0784C10.6316 22.0645 10.6316 22.0645 10.448 21.9733C10.2689 21.8846 10.5196 21.8466 11.4568 21.82C11.8477 21.8092 12.1439 21.6667 12.1439 21.4899C12.1439 21.3949 12.2391 21.3379 12.3961 21.3366C12.551 21.3335 12.7052 21.3114 12.8565 21.2708C13.052 21.2106 13.055 21.1979 12.9026 21.0643C12.813 20.9857 12.6273 20.9205 12.4892 20.9186C12.3511 20.9167 11.9664 20.7482 11.6338 20.5448C11.2982 20.339 10.8956 20.1743 10.7288 20.1743C10.1738 20.1743 9.30662 20.0393 9.3496 19.9595C9.37313 19.9158 9.32198 19.8873 9.23603 19.8949C9.14901 19.9016 9.07025 19.8313 9.04777 19.727C9.00582 19.4939 9.54707 19.0929 9.82639 19.1493C9.93792 19.1721 10.0443 19.1386 10.0628 19.0752C10.1057 18.9257 11.176 18.8833 11.6037 19.0144C11.7853 19.0701 12.724 19.1284 13.6889 19.1443C15.3209 19.1709 15.8023 19.117 15.1919 18.9751C15.0538 18.9434 14.7545 18.8687 14.5274 18.8092C14.2629 18.7447 13.9946 18.7072 13.7252 18.697C13.5114 18.6945 13.3359 18.6445 13.3359 18.5862C13.3359 18.5285 13.2714 18.4804 13.1926 18.4804C13.1133 18.4804 12.964 18.4284 12.8601 18.3645C12.6744 18.2492 12.6749 18.2466 12.8893 18.1231C13.2658 17.9065 13.1492 17.7025 12.5168 17.4707C12.193 17.3516 11.9081 17.1843 11.8845 17.1001C11.861 17.0152 11.8052 16.9183 11.7607 16.8847C11.6205 16.7783 11.7883 16.4521 11.9469 16.5224C12.0273 16.5579 12.0672 16.5572 12.0365 16.5217C12.0058 16.4863 12.084 16.3368 12.2114 16.1898C12.3787 15.9972 12.5506 15.9181 12.8345 15.9054C13.0504 15.8959 13.2105 15.8573 13.1901 15.8186C13.1696 15.7806 13.5477 15.773 14.0301 15.8015C14.7315 15.8433 14.9382 15.8211 15.0615 15.6932C15.2318 15.5146 16.1322 15.4411 16.6019 15.5671C16.7809 15.6153 16.9119 15.6007 16.9513 15.5279C16.9856 15.4639 17.1109 15.4113 17.2296 15.4113C17.5058 15.4113 17.7361 15.3099 17.7361 15.1883C17.7361 15.1364 17.6762 15.0933 17.603 15.0933C17.5299 15.0933 17.4352 15.0217 17.3923 14.933C17.3442 14.8336 16.9856 14.6987 16.4479 14.5783C15.3889 14.3401 14.6092 13.9765 14.6829 13.7548C14.7134 13.668 14.793 13.6254 14.865 13.6573C14.9366 13.6889 14.9725 13.6725 14.9443 13.6192C14.9162 13.5673 15.0011 13.3754 15.1336 13.1942C15.3101 12.9516 15.4221 12.8825 15.5582 12.932C15.66 12.97 15.7194 12.9567 15.6907 12.9034C15.6621 12.8502 15.7828 12.8021 15.9578 12.7958C16.1333 12.7907 16.5666 12.7039 16.9201 12.6038L17.5636 12.422L17.359 12.1699C17.2465 12.0318 17.116 11.9184 17.0695 11.9184C17.0224 11.9184 16.8428 11.8411 16.6699 11.7461C16.3681 11.5808 16.3609 11.5637 16.4944 11.328C16.5824 11.1735 16.5998 11.0582 16.5415 11.017C16.5174 11.0002 16.5 10.9717 16.4937 10.9383C16.4874 10.905 16.4927 10.8699 16.5082 10.8415C16.5461 10.7706 16.5952 10.7826 16.6474 10.8751C16.6996 10.9682 16.7518 10.9809 16.7963 10.9106C16.8341 10.8517 16.9886 10.7339 17.1401 10.6496L17.4153 10.4963L17.1252 10.4608C16.8111 10.4216 16.6428 10.1504 16.8704 10.0491C16.9472 10.0149 17.0331 10.0136 17.0613 10.0459C17.0889 10.0776 17.249 10.0149 17.4168 9.90656C17.6244 9.78101 17.8441 9.68903 18.0706 9.63291C18.262 9.5911 18.4748 9.49355 18.5423 9.415C18.703 9.2294 18.7659 9.2332 19.6177 9.48468C20.3825 9.71082 20.5979 9.68928 20.9115 9.35799C21.0885 9.17175 21.1596 9.16288 21.6384 9.26487C22.2672 9.39916 23.4505 9.41627 23.3829 9.29021C23.3574 9.24207 23.0351 9.14325 22.6672 9.0704C21.73 8.88607 21.6246 8.84616 21.7786 8.73657C22.0452 8.54653 20.8511 8.09678 19.6837 7.94855C19.3685 7.90864 19.0902 7.83833 19.0662 7.79272C19.0416 7.74711 19.1081 7.58241 19.2145 7.42722C19.3915 7.16687 19.3951 7.13076 19.2585 6.95719C19.1777 6.8533 19.1112 6.74245 19.1112 6.71014C19.1112 6.57965 20.6634 6.76778 21.1734 6.96099C21.9075 7.23781 23.3932 7.43988 23.5303 7.28152C23.6029 7.1979 23.604 7.12569 23.5328 7.02687C23.4367 6.89385 23.2898 6.83683 22.0672 6.45803C21.686 6.34021 21.4942 6.22745 21.4942 6.12166C21.4942 5.98737 21.6026 5.97343 22.1746 6.03298C22.6105 6.07922 22.8755 6.06465 22.9133 5.99497C22.9455 5.93479 22.9215 5.88538 22.8596 5.88538C22.7982 5.88538 22.7685 5.86068 22.7946 5.8309C22.856 5.75996 24.1544 6.07415 24.2833 6.19197C24.3852 6.28382 25.7235 6.52137 26.0089 6.49857C26.0974 6.49097 26.1696 6.42572 26.1696 6.35287C26.1696 6.28003 26.1911 6.1565 26.2171 6.07795C26.2622 5.94239 25.1428 5.66811 23.2136 5.34251C22.9236 5.29373 22.5368 5.18161 22.3541 5.09293C22.1715 5.00488 21.8932 4.93266 21.7351 4.93266C21.3202 4.9314 20.7237 4.72172 20.8204 4.61087C20.8649 4.55892 21.4231 4.50318 22.061 4.48671C22.6984 4.47024 23.2136 4.44871 23.2049 4.43857C23.1967 4.42907 22.986 4.32835 22.7368 4.21559C22.303 4.01859 22.2928 4.00465 22.4913 3.88176C22.6463 3.78611 22.812 3.78231 23.1548 3.86719C23.7124 4.00528 23.7861 4.00719 23.7861 3.88303C23.7861 3.82918 23.6633 3.75444 23.5124 3.7158C23.011 3.5891 23.1195 3.45101 23.7206 3.45101C24.0705 3.45101 24.4245 3.38386 24.5964 3.28504C24.7704 3.18496 24.9653 3.14822 25.0876 3.19319C25.3495 3.28884 29.6535 3.32622 29.6028 3.2312C29.4964 3.03229 30.6987 3.03356 31.7249 3.23374C33.803 3.63851 35.571 3.86846 36.7113 3.88303C37.3416 3.89063 38.2906 3.96221 38.8201 4.04266C39.5173 4.14309 40.2159 4.22798 40.9156 4.29731C41.5392 4.35685 42.0753 4.424 42.1076 4.4468C42.1398 4.46898 42.4754 4.51775 42.8535 4.55512C43.1898 4.58746 43.5257 4.62484 43.8613 4.66725C44.2291 4.71856 45.9015 4.82624 47.116 4.87692C48.1561 4.92532 49.1952 5.00114 50.2326 5.10433C50.5355 5.136 51.7111 5.18161 52.8453 5.20568C53.98 5.23102 55.3203 5.29057 55.8248 5.33871C56.3287 5.38559 57.7228 5.42042 58.9234 5.41472C60.738 5.40586 61.1197 5.37735 61.1923 5.24813C61.266 5.1151 61.2916 5.11447 61.3612 5.23926C61.4164 5.33808 61.5341 5.36595 61.7147 5.32477C61.8641 5.28993 62.0308 5.31401 62.0861 5.37798C62.1413 5.44133 62.3224 5.50404 62.4887 5.51608C62.6523 5.52767 62.8149 5.55606 62.9747 5.60096C63.5242 5.7891 64.0966 5.84357 64.3273 5.73019C64.5125 5.63897 64.9745 5.74666 64.9106 5.86575C64.887 5.91009 65.3285 5.95886 65.8923 5.97407C67.4097 6.01651 67.5667 6.03551 67.7386 6.20021C67.8783 6.33387 67.8921 6.32753 67.8645 6.14446C67.8435 6.0051 67.8778 5.95063 67.9709 5.97597C68.0844 6.00117 68.1994 6.01451 68.3147 6.01587C68.4282 6.01714 68.5208 6.05452 68.5208 6.09949C68.5208 6.14383 68.5873 6.20971 68.6687 6.24582C68.7761 6.29333 68.8017 6.26609 68.7613 6.14573C68.7234 6.03171 68.7418 6.00637 68.8196 6.06338C68.8825 6.10962 69.325 6.1622 69.8044 6.18057C70.8117 6.21858 70.6618 6.21858 75.3961 6.19958C77.3877 6.19071 79.2718 6.21858 79.5839 6.26039C79.896 6.30283 80.2198 6.30663 80.3047 6.26862C80.4608 6.19957 83.4551 6.06338 84.3754 6.08302C85.0947 6.09886 85.9107 5.61046 85.4569 5.43563C85.3894 5.41029 85.4365 5.33491 85.5715 5.25192C85.6974 5.17591 85.8232 5.07266 85.8514 5.02388C85.9527 4.84651 86.7313 4.74706 86.9518 4.88389C87.0915 4.97004 87.4603 5.00044 88.041 4.9751C88.5239 4.95357 90.1103 4.91049 91.5658 4.88009C93.0218 4.84905 94.313 4.7952 94.4358 4.75973C94.5581 4.72426 95.0784 4.68752 95.592 4.67865C96.1056 4.66978 96.6085 4.60897 96.7093 4.54372C96.8894 4.42653 97.7396 4.2346 97.8819 4.27894C98.0573 4.33278 98.3832 4.31948 98.6799 4.24536C98.8564 4.20102 99.0836 4.17315 99.1844 4.18265C99.2851 4.19215 99.4504 4.20862 99.5512 4.21939C99.652 4.22953 100.126 4.18139 100.605 4.11361C101.084 4.04519 101.654 3.99008 101.872 3.99135C102.09 3.99261 102.317 3.94827 102.377 3.89316C102.436 3.83805 102.619 3.76014 102.782 3.7196C103.026 3.65942 103.08 3.67842 103.08 3.82538C103.08 3.98375 103.156 3.99642 103.745 3.92927C104.11 3.88809 105.07 3.84375 105.876 3.83045C106.683 3.81651 107.565 3.75 107.837 3.68159C108.015 3.634 108.195 3.5926 108.375 3.55743C108.4 3.55743 108.368 3.48585 108.305 3.39843C108.243 3.31101 108.052 3.24007 107.882 3.24007C107.712 3.24007 107.572 3.2198 107.572 3.19573C107.572 3.17102 107.547 3.07537 107.517 2.98352C107.44 2.75421 107.698 2.76561 107.902 3.00062C108.017 3.13365 108.072 3.14822 108.1 3.05257C108.12 2.98035 108.176 2.94805 108.222 2.98035C108.268 3.01329 108.305 3.00189 108.305 2.95501C108.305 2.9075 108.398 2.86316 108.512 2.8562C108.625 2.84923 109.254 2.78905 109.91 2.72317C110.565 2.65729 111.885 2.58444 112.843 2.56101C113.801 2.5382 114.688 2.49259 114.814 2.46092C115.241 2.35323 117.589 2.10175 118.847 2.03017C121.179 1.89714 122.947 1.512 123.311 1.05781C123.425 0.915917 123.626 0.801261 123.77 0.79556C124.957 0.751218 126.604 0.608693 127.327 0.487703C127.719 0.425271 128.112 0.372894 128.506 0.330606C128.871 0.292265 129.234 0.237113 129.596 0.165272C129.849 0.109527 130.071 0.0639219 130.089 0.0639219C130.108 0.0639219 130.123 0.186178 130.123 0.33504C130.123 0.483902 130.163 0.577652 130.212 0.542812Z" fill="#FCC419"/>
</svg>
