<svg width="70" height="26" viewBox="0 0 70 26" fill="none" xmlns="http://www.w3.org/2000/svg">
<path fill-rule="evenodd" clip-rule="evenodd" d="M51.7448 -1.72147C51.7653 -1.7421 51.8081 -1.66031 51.8396 -1.54095C51.8729 -1.41421 51.9239 -1.32285 51.9617 -1.32285C52.0129 -1.32285 52.017 -1.30442 51.9811 -1.23627C51.9465 -1.16995 51.9478 -1.1438 51.9863 -1.12316C52.0256 -1.10216 52.0239 -1.07269 51.9781 -0.984268C51.934 -0.898428 51.9316 -0.865641 51.9686 -0.845745C51.9952 -0.831745 52.017 -0.793062 52.017 -0.759905C52.017 -0.726748 51.9997 -0.716799 51.9785 -0.737797C51.9567 -0.759167 51.9502 -0.734114 51.9634 -0.679588C51.9761 -0.626905 51.9666 -0.583801 51.9422 -0.583801C51.91 -0.583801 51.9092 -0.550642 51.9394 -0.460749C51.9727 -0.362013 51.969 -0.337698 51.92 -0.337698C51.8707 -0.337698 51.8681 -0.321856 51.9074 -0.255173C51.9576 -0.170069 52.055 -0.24633 52.0423 -0.360907C52.039 -0.390381 52.0567 -0.426855 52.0816 -0.441223C52.1114 -0.458908 52.1192 -0.421328 52.1045 -0.331802C52.0922 -0.256645 52.098 -0.210224 52.1174 -0.228277C52.1367 -0.245962 52.1872 -0.240437 52.2298 -0.215384C52.2911 -0.179647 52.273 -0.160858 52.1427 -0.12549C52.0401 -0.0974903 51.9781 -0.0481224 51.9781 0.00603485C51.9781 0.0539284 51.9444 0.0929813 51.9029 0.0929813C51.8616 0.0929813 51.8039 0.147139 51.7748 0.213453C51.7225 0.331717 51.5255 0.49345 51.4615 0.47024C51.4434 0.463976 51.3302 0.497871 51.2098 0.546135C51.0576 0.603476 50.9038 0.647253 50.749 0.67729C50.6159 0.701237 50.4973 0.745817 50.4854 0.776396C50.4735 0.806973 50.4256 0.832394 50.3789 0.833132C50.3324 0.833868 50.1896 0.916393 50.0619 1.0166C49.934 1.11644 49.8001 1.19897 49.7642 1.19971C49.7281 1.20044 49.688 1.22918 49.6748 1.2627C49.6616 1.2966 49.6705 1.32423 49.6944 1.32423C49.7482 1.32423 49.729 1.59944 49.6748 1.6057C49.6534 1.60791 49.5596 1.64475 49.4663 1.68675C49.373 1.72949 49.2541 1.74754 49.2021 1.72654C49.1502 1.70591 49.0523 1.71622 48.9847 1.74938C48.9171 1.78254 48.7646 1.83965 48.6457 1.87686C48.3195 1.97817 48.1456 2.0629 48.1456 2.12001C48.1456 2.17969 50.1315 2.13843 50.6232 2.06843C50.8823 2.03159 50.981 2.04191 51.0877 2.11559C51.1623 2.16717 51.2321 2.21322 51.2427 2.21838C51.2535 2.22317 51.3129 2.26075 51.3751 2.30127C51.4373 2.34216 51.5157 2.35874 51.5494 2.33811C51.5829 2.31711 52.0982 2.29022 52.6945 2.27806C53.2906 2.2659 53.8568 2.22832 53.9526 2.1948C54.0483 2.1609 54.3354 2.10122 54.5905 2.06217C54.8457 2.02238 55.0879 1.96196 55.1285 1.92733C55.1693 1.8927 55.2877 1.87722 55.3917 1.89306C55.4958 1.90928 55.5902 1.89785 55.6017 1.86838C55.6131 1.83891 55.6388 1.8308 55.6587 1.84996C55.6784 1.86949 55.6946 1.85622 55.6946 1.82049C55.6946 1.78438 55.7075 1.7608 55.7237 1.76744C55.7881 1.79433 56.1204 1.6827 56.1204 1.6337C56.1204 1.57365 56.4129 1.47381 56.5235 1.49591C56.5642 1.50438 56.6303 1.45539 56.6702 1.38686C56.7102 1.3187 56.7726 1.25939 56.8092 1.25533C56.8457 1.25165 56.9798 1.24207 57.1077 1.2347C57.2352 1.22733 57.4096 1.18976 57.4947 1.15071C57.58 1.11128 57.7155 1.06376 57.7959 1.04497C57.8762 1.02581 57.9326 0.986023 57.9212 0.956551C57.8851 0.863708 57.9711 0.839394 58.6436 0.752447C58.6795 0.747658 58.7056 0.717447 58.702 0.685394C58.6981 0.653343 58.7298 0.610975 58.7724 0.59108C58.8338 0.555914 58.8926 0.508293 58.9474 0.44924C59.0178 0.372976 59.1645 0.332085 59.4702 0.303715C59.7038 0.281979 59.9352 0.266874 59.9844 0.270559C60.0337 0.274242 60.1275 0.232979 60.1929 0.17919C60.2603 0.123928 60.3221 0.105877 60.3355 0.137928C60.369 0.21677 60.5053 0.292662 60.4755 0.215296C60.444 0.134243 60.4816 0.138666 60.5846 0.227453C60.7927 0.406874 61.7776 0.270559 61.8805 0.0484028C61.9122 -0.0204906 61.9157 -0.0669117 61.89 -0.0805435C61.8679 -0.0923328 61.85 -0.126226 61.85 -0.156437C61.85 -0.186277 61.8744 -0.195856 61.904 -0.177805C61.9338 -0.159384 61.9697 -0.17412 61.984 -0.210594C62.0213 -0.307119 61.7895 -0.293119 61.6642 -0.191069C61.6067 -0.144279 61.4812 -0.085701 61.3855 -0.0606499C61.2896 -0.035965 61.1807 -0.00649071 61.1435 0.00456238C61.1062 0.0156155 61.0757 -0.0116482 61.0757 -0.0562267C61.0757 -0.113331 61.0275 -0.130648 60.9113 -0.11628C60.784 -0.100437 60.7622 -0.110016 60.8151 -0.159016C60.8529 -0.193647 60.875 -0.24449 60.8644 -0.272121C60.8415 -0.331068 61.058 -0.390751 61.4769 -0.440487C61.7124 -0.468119 61.7891 -0.457066 61.815 -0.391855C61.8396 -0.33033 61.8489 -0.328119 61.8496 -0.384119C61.8502 -0.497223 62.0829 -0.478802 62.1663 -0.359066C62.2052 -0.303066 62.2372 -0.283173 62.2372 -0.315226C62.2372 -0.350594 62.3627 -0.356855 62.5565 -0.331434C62.7321 -0.307856 63.0065 -0.273594 63.1662 -0.255173C63.3261 -0.236752 63.5138 -0.188856 63.5838 -0.149437C63.6536 -0.110384 63.7543 -0.0912285 63.8072 -0.107439C63.8603 -0.12328 63.9146 -0.108173 63.9282 -0.0739117C63.9431 -0.0352268 63.9329 -0.0300713 63.9018 -0.0606499C63.8703 -0.0915966 63.8606 -0.0864391 63.8759 -0.0466499C63.9051 0.0285072 64.0898 0.0962982 64.3082 0.112509C64.4372 0.122087 64.4638 0.146034 64.4672 0.256191C64.4711 0.374084 64.4443 0.393242 64.2157 0.43561C64.0749 0.461399 63.9163 0.476871 63.8632 0.469503L63.7664 0.45624L63.869 0.544661C64.0472 0.698658 64.2207 0.763868 64.5599 0.803288C64.741 0.824287 65.0022 0.886919 65.1407 0.942183C65.4589 1.06929 66.5633 1.07923 66.6115 0.955078C66.628 0.912481 66.6607 0.898268 66.6871 0.922287C66.7519 0.986023 67.4645 1.00702 67.4401 0.945129C67.4176 0.886551 67.4232 0.885813 67.9296 0.86113C68.2872 0.843813 68.438 0.822815 68.9731 0.715607C69.2173 0.666975 69.3599 0.694975 69.4994 0.818764C69.5578 0.871078 69.5452 0.900551 69.4044 1.04165C69.2912 1.15586 69.1525 1.22255 68.9433 1.26455C68.5862 1.33639 68.2455 1.42665 68.0001 1.51507C67.8532 1.56775 67.824 1.60017 67.8393 1.69375C67.8503 1.7608 67.8804 1.7947 67.9123 1.7748C67.9422 1.75675 67.9666 1.77259 67.9666 1.81017C67.9666 1.84775 67.9363 1.8787 67.899 1.87906C67.8411 1.8798 67.8395 1.88865 67.8892 1.93985C67.926 1.97743 67.9301 1.99991 67.9 2.00027C67.8741 2.00101 67.8629 2.04301 67.8754 2.09422C67.891 2.15869 67.8523 2.21874 67.7484 2.29243L67.5989 2.3978L67.9769 2.43464C68.18 2.45505 68.3834 2.46549 68.5869 2.46595C68.7143 2.46227 68.8182 2.46301 68.8182 2.46743C68.8182 2.47148 68.7837 2.5389 68.7409 2.617C68.6983 2.69511 68.6636 2.74006 68.6636 2.71721C68.6636 2.69437 68.6242 2.71648 68.5763 2.76658C68.5283 2.81632 68.36 2.88927 68.2021 2.92795C68.0444 2.967 67.8462 3.03773 67.7618 3.08489C67.6665 3.13558 67.5678 3.16529 67.4682 3.17331C67.2525 3.17663 66.7096 3.401 66.8665 3.422C66.9044 3.42993 66.9421 3.44099 66.9794 3.45515C67.021 3.47028 67.0625 3.48514 67.1041 3.49973C67.1927 3.53068 67.1983 3.59036 67.1166 3.63162C67.0717 3.65447 66.9896 3.73994 66.9339 3.8221C66.8781 3.90425 66.7939 3.9713 66.7463 3.9713C66.6988 3.9713 66.64 4.00925 66.6156 4.05604C66.5793 4.1253 66.6113 4.14778 66.7949 4.18093C66.9082 4.20109 67.0213 4.22442 67.1341 4.25093C67.2862 4.28998 67.891 4.28446 67.9324 4.24356C67.9886 4.1883 68.4313 4.16251 68.4313 4.21409C68.4313 4.24172 68.4052 4.29846 68.373 4.34046C68.3412 4.38283 68.3151 4.44619 68.3151 4.48156C68.3151 4.51693 68.3265 4.52761 68.3406 4.50514C68.3546 4.48303 68.3894 4.49556 68.4179 4.53314C68.4466 4.57109 68.4698 4.57551 68.4698 4.54309C68.4698 4.51067 68.4961 4.48414 68.5281 4.48414C68.621 4.48414 68.5955 4.55009 68.4676 4.63998C68.3239 4.74129 68.3444 4.78366 68.5763 4.86361C68.7876 4.93729 68.8277 5.0515 68.6763 5.14877C68.5194 5.24934 67.7829 5.37976 67.3619 5.38161C67.1644 5.38234 66.9568 5.4015 66.9004 5.42397L66.7975 5.46487L66.9077 5.60855C66.9686 5.68739 67.0477 5.75297 67.0836 5.75407C67.1754 5.75739 67.2033 5.85502 67.154 6.00128C67.1022 6.15602 66.7653 6.43343 66.6301 6.43343C66.5731 6.43343 66.54 6.45996 66.5536 6.49496C66.5668 6.52885 66.6096 6.55648 66.6487 6.55648C66.7141 6.55648 66.7869 6.71011 66.7727 6.81806C66.758 6.92785 67.3722 6.80517 67.4236 6.68801C67.463 6.59885 68.4516 6.36491 68.5486 6.42238L68.6413 6.47654L68.5512 6.55317C68.5017 6.59554 68.18 6.70422 67.8365 6.79559C67.2078 6.96211 67.0546 7.07964 67.4666 7.07964C67.5932 7.07964 67.7097 7.11501 67.7475 7.16437C67.8015 7.23511 67.8758 7.23695 68.1895 7.17616C68.7664 7.06416 69.1013 6.98717 69.1799 6.94885C69.232 6.92343 69.2477 6.94148 69.2382 7.01664C69.224 7.12569 69.1043 7.25353 68.9163 7.36037C68.7547 7.4521 68.8552 7.53279 69.0619 7.47753C69.1516 7.45321 69.3033 7.41416 69.399 7.39021L69.5733 7.34711L69.4281 7.56816C69.3482 7.68973 69.283 7.79915 69.283 7.81131C69.283 7.82347 69.391 7.85294 69.5228 7.87652C69.8354 7.93289 70.0022 8.07178 70.0001 8.27404C69.999 8.38088 69.7483 8.52346 69.5154 8.55036C69.4195 8.56178 69.2015 8.61483 69.0313 8.66862C68.861 8.72241 68.5996 8.77914 68.4505 8.79425C68.282 8.81301 68.1141 8.84386 67.9471 8.88672C67.154 9.10814 66.9756 9.16303 66.9412 9.19398C66.9203 9.21314 66.9812 9.25919 67.0767 9.29603C67.1728 9.33324 67.2504 9.39919 67.2504 9.44414C67.2504 9.54766 66.8602 9.77276 66.5061 9.87334C66.3339 9.92234 66.2064 9.99492 66.1647 10.0686C66.1274 10.1342 65.9977 10.2167 65.8696 10.2569C65.5786 10.3479 65.5866 10.4344 65.9027 10.6201C65.9703 10.6599 66.018 10.7244 66.0085 10.7638C65.9865 10.8526 65.8072 10.9885 65.7112 10.9885C65.6717 10.9885 65.6501 11.0165 65.6633 11.0501C65.6762 11.084 65.8167 11.112 65.9753 11.112C66.2362 11.112 66.341 11.1746 66.2151 11.2556C66.1021 11.3282 66.667 11.2888 66.9462 11.2052C67.2936 11.1005 67.4828 11.1444 67.4828 11.329C67.4828 11.4144 67.3815 11.5261 67.1026 11.7493C66.8401 11.9597 66.7386 12.0698 66.7738 12.1059C66.8407 12.1745 66.7746 12.2448 66.5149 12.3812C66.1485 12.5738 65.8577 12.8962 65.896 13.0683C65.9219 13.1854 65.7791 13.2495 65.1888 13.3851C64.8957 13.4525 64.6018 13.5501 64.5362 13.6025C64.4705 13.654 64.3313 13.713 64.227 13.7332C63.9392 13.7881 63.3887 14.0096 63.3027 14.105C63.2608 14.1514 63.1737 14.1916 63.1091 14.1941C63.0448 14.1963 62.9573 14.2221 62.9147 14.2512C62.8529 14.2932 62.8687 14.3058 62.992 14.3131C63.322 14.3327 63.4972 14.3842 63.5408 14.4752C63.5706 14.5375 63.6173 14.5563 63.6763 14.5305C63.7538 14.4973 63.7566 14.501 63.6979 14.56C63.6603 14.5972 63.5991 14.62 63.5624 14.6104C63.5216 14.6018 63.4801 14.6138 63.4432 14.6447C63.4125 14.6753 63.3522 14.6631 63.2956 14.6152C63.2213 14.5519 63.1841 14.55 63.1271 14.6068C63.0806 14.6528 63.045 14.6572 63.0303 14.6193C63.0173 14.5861 62.9076 14.5581 62.7866 14.5567C62.6654 14.5555 62.5226 14.515 62.4694 14.4668C62.3534 14.3614 62.3145 14.3537 62.3145 14.4358C62.3145 14.4697 62.3417 14.4973 62.375 14.4973C62.4081 14.4973 62.4258 14.522 62.4139 14.5519C62.4025 14.5821 62.4292 14.6219 62.474 14.6403C62.5185 14.6587 62.5474 14.7103 62.5381 14.7549C62.5211 14.837 62.3478 14.8853 61.8113 14.9568C61.3267 15.0216 61.1919 15.0562 61.1919 15.1166C61.1919 15.1487 61.2179 15.1745 61.25 15.1745C61.2822 15.1745 61.3079 15.2294 61.3079 15.2975C61.3079 15.3878 61.282 15.4206 61.2112 15.4206C61.0999 15.4206 61.0809 15.5156 61.1837 15.5584C61.2217 15.5742 61.4177 15.5724 61.6193 15.5543C62.2058 15.5016 62.4407 15.519 62.5634 15.6247C62.6258 15.6785 62.6879 15.7113 62.7017 15.698C62.7153 15.6844 62.7192 15.7514 62.7103 15.8469C62.6911 16.0546 62.7458 16.0871 63.1431 16.1047C63.3809 16.1151 63.3995 16.1243 63.3168 16.1924C63.1807 16.3044 62.6818 16.4651 62.3843 16.4931C62.2322 16.5074 62.0887 16.5579 62.0371 16.6154C61.9269 16.7377 61.8608 16.7395 61.7865 16.6213C61.753 16.5678 61.6597 16.5292 61.5666 16.5303C61.2796 16.5325 60.2091 16.7056 60.0637 16.7734C59.928 16.8361 59.9239 16.8464 59.9525 17.0483C59.9706 17.1754 59.9665 17.2829 59.9423 17.3216C59.9146 17.3658 59.9157 17.4115 59.946 17.4694C60.0384 17.6466 59.9209 17.683 59.3559 17.6536C58.9169 17.6304 58.78 17.6429 58.6909 17.7151C58.5967 17.7917 58.1718 17.8971 57.8818 17.9159C57.8393 17.9188 57.7174 17.9457 57.6109 17.9759L57.4173 18.0312L57.5915 18.0758C57.6874 18.1005 57.9747 18.1064 58.2303 18.089C58.5012 18.0713 58.7723 18.0636 59.0433 18.0658C59.235 18.0706 59.6094 18.029 59.8755 17.9737C60.4023 17.8647 60.9454 17.7884 61.1792 17.7906C61.2606 17.7914 61.3384 17.7678 61.3516 17.7383C61.365 17.7088 61.4304 17.6812 61.4968 17.6768C61.5633 17.6724 61.6178 17.6458 61.6178 17.6178C61.6178 17.5898 61.6569 17.5847 61.7048 17.606C61.7731 17.6363 61.7794 17.6307 61.7338 17.5803C61.6839 17.5246 61.6852 17.5154 61.7435 17.5147C61.7809 17.5139 61.8113 17.483 61.8113 17.445C61.8113 17.403 61.8481 17.4148 61.9066 17.476C62.0125 17.5865 62.0591 17.6035 62.027 17.5206C62.0153 17.4907 62.0404 17.4517 62.0827 17.434C62.1268 17.4156 62.1596 17.4325 62.1596 17.4734C62.1596 17.5147 62.2208 17.5445 62.3048 17.5445C62.397 17.5445 62.4467 17.5176 62.4409 17.4705C62.4346 17.4196 62.4766 17.4056 62.5749 17.4255C62.736 17.4587 62.895 17.6016 62.8959 17.7151C62.8963 17.7637 62.9099 17.7575 62.9339 17.6985C62.9631 17.6267 62.9715 17.6447 62.9722 17.7796C62.9728 18.0014 62.9091 18.1907 62.8335 18.1907C62.8011 18.1907 62.7853 18.2183 62.7985 18.2522C62.8114 18.2861 62.7909 18.316 62.7524 18.3186C62.625 18.3274 62.5437 18.3646 62.4575 18.4545C62.3802 18.5348 62.1983 18.5039 62.1983 18.4103C62.1983 18.3933 62.2218 18.3937 62.2501 18.411C62.2789 18.4283 62.3266 18.3945 62.3566 18.3359C62.4037 18.2438 62.4037 18.2364 62.3562 18.2813C62.3141 18.3219 62.3076 18.3082 62.3286 18.2213C62.345 18.1539 62.3359 18.0883 62.3061 18.0581C62.232 17.9837 62.1698 17.9977 62.237 18.0739C62.2808 18.1233 62.2583 18.1314 62.1464 18.1067C62.0643 18.0883 61.9662 18.1052 61.9269 18.1439C61.8733 18.1973 61.8427 18.1962 61.7995 18.1395C61.7539 18.0791 61.737 18.0857 61.713 18.1738C61.6964 18.2342 61.6856 18.3038 61.6891 18.3292C61.6923 18.355 61.6705 18.3757 61.6402 18.3757C61.61 18.3757 61.5789 18.4073 61.5707 18.4457C61.5625 18.4847 61.5048 18.5249 61.4423 18.5356C61.3797 18.5462 61.3092 18.5971 61.2855 18.649C61.2617 18.7006 61.2282 18.7227 61.2109 18.6977C61.1937 18.673 61.1904 18.7013 61.2038 18.7603C61.2336 18.8929 61.1597 18.9054 61.1278 18.7732C61.1075 18.6888 61.0964 18.6899 61.0323 18.7824C60.9636 18.8815 60.9595 18.8808 60.9588 18.7699C60.9584 18.6715 60.9523 18.6674 60.9208 18.7448C60.8648 18.8826 60.8728 18.9124 60.9765 18.9537C61.0422 18.9802 61.069 19.0311 61.0647 19.1213C61.058 19.265 60.9232 19.3722 60.7676 19.3579C60.6229 19.3442 60.495 19.4234 60.495 19.527C60.495 19.5933 60.4565 19.6128 60.3498 19.6006C60.1938 19.5822 59.9313 19.6515 59.8369 19.7359C59.79 19.7775 59.7937 19.7885 59.8563 19.7926C59.9467 19.8009 60.0371 19.812 60.1272 19.8258C60.4565 19.8751 60.8942 19.8736 61.0524 19.8228C61.1606 19.7878 61.1954 19.7937 61.1762 19.8438C61.1593 19.8865 61.1697 19.9005 61.2034 19.8799C61.2354 19.8604 61.2868 19.9168 61.3276 20.0162C61.3773 20.1371 61.3838 20.1923 61.3505 20.21C61.3192 20.2266 61.3267 20.2634 61.3736 20.3216C61.4374 20.4012 61.4333 20.406 61.3274 20.3769C61.2634 20.3592 61.233 20.3611 61.2596 20.3806C61.3576 20.4543 61.3036 20.5302 61.153 20.5302C61.0554 20.5302 60.9981 20.5018 60.9975 20.4528C60.9973 20.3964 60.9884 20.3983 60.9638 20.4598C60.9428 20.5121 60.9214 20.5198 60.9061 20.4804C60.8802 20.4137 60.8309 20.4189 60.7099 20.5014C60.6684 20.5294 60.5773 20.5545 60.5073 20.5567C60.3467 20.5618 60.2947 20.7147 60.4533 20.7147C60.5161 20.7147 60.5738 20.7549 60.5863 20.8068C60.6015 20.8695 60.5846 20.8993 60.5345 20.8993C60.4934 20.8993 60.4461 20.9339 60.4293 20.9767C60.3848 21.0868 60.2271 21.2173 60.1864 21.1775C60.1674 21.1591 60.1411 21.1716 60.1277 21.2062C60.1143 21.2405 60.0553 21.2688 59.9965 21.2688C59.9378 21.2688 59.795 21.3138 59.6794 21.3687C59.4968 21.4556 59.4806 21.4755 59.5549 21.5197C59.6025 21.5481 59.9254 21.5676 60.2733 21.5628C60.6211 21.558 60.9286 21.5768 60.9564 21.6041C60.9852 21.6325 61.0184 21.6244 61.0333 21.5857C61.0645 21.5057 62.2681 21.4449 62.2979 21.5219C62.3085 21.5488 62.3441 21.5547 62.3772 21.5345C62.4178 21.5098 62.4232 21.484 62.3936 21.4553C62.3698 21.4317 62.4031 21.4125 62.4679 21.4125C62.5327 21.4125 62.5854 21.4387 62.5854 21.4715C62.5854 21.5035 62.612 21.495 62.6444 21.4523C62.6768 21.4092 62.7157 21.3941 62.7308 21.418C62.7462 21.442 62.7153 21.5142 62.6624 21.5783L62.5662 21.6947L62.663 21.6653C62.7477 21.6395 62.7501 21.6428 62.6824 21.694C62.5708 21.7787 62.3871 21.7695 62.2795 21.6748C62.1747 21.5827 62.0436 21.6129 62.0436 21.7297C62.0436 21.7835 61.9671 21.8075 61.7919 21.8089C61.6342 21.8104 61.5402 21.7861 61.5402 21.7437C61.5402 21.7065 61.5186 21.7216 61.4918 21.7769C61.457 21.8498 61.352 21.8889 61.1144 21.9173C60.9335 21.9394 60.6754 21.9961 60.541 22.0436C60.4066 22.0915 60.2411 22.1331 60.1733 22.1365C60.1054 22.1398 59.9626 22.1803 59.8563 22.2264C59.6748 22.3052 59.6951 22.3085 60.1854 22.2768C60.4727 22.2584 60.7341 22.2429 60.7661 22.2422C60.7979 22.2418 61.1986 22.1763 61.6562 22.097C62.1142 22.0175 62.6133 21.9441 62.7654 21.9338C62.9177 21.9235 63.0342 21.8944 63.0247 21.869C63.0147 21.8432 63.0819 21.8226 63.1737 21.8226C63.2653 21.8226 63.4972 21.782 63.6888 21.733C64.0174 21.649 64.7904 21.5621 64.6854 21.6214C64.6587 21.6362 64.6466 21.6741 64.6587 21.705C64.6707 21.736 64.6316 21.7625 64.5718 21.764C64.512 21.7658 64.4022 21.8196 64.3277 21.8837C64.2531 21.9482 64.1572 22.0267 64.1146 22.058C63.9746 22.1619 61.6914 22.7624 61.153 22.8372C60.9934 22.8593 60.5317 22.9322 60.1272 22.9993C59.7226 23.0663 59.1887 23.1481 58.9407 23.1809C58.6927 23.2141 58.4058 23.2808 58.3034 23.3298C58.1688 23.3942 58.1098 23.3998 58.0903 23.3504C58.0659 23.2878 57.6587 23.3047 57.1656 23.3894C56.9916 23.4142 56.8174 23.4348 56.643 23.4513C56.261 23.4893 55.679 23.6171 55.3532 23.7343C55.2612 23.7674 55.1696 23.7785 55.1497 23.759C55.1296 23.7391 54.86 23.7844 54.5501 23.8588C54.0921 23.9693 53.9705 23.9804 53.8985 23.9192C53.826 23.8573 53.7331 23.8677 53.3876 23.976C52.8125 24.1565 52.0619 24.3908 51.6877 24.5065C51.5175 24.5595 51.2701 24.6421 51.1379 24.6903C51.0056 24.7382 50.8402 24.7773 50.7702 24.7773C50.6999 24.7773 50.5643 24.8167 50.4683 24.8657C50.3069 24.9478 49.9762 25.0388 49.094 25.2448C48.7572 25.3194 48.4216 25.4091 48.0875 25.5137C47.8747 25.5778 47.5262 25.6758 47.3132 25.7315L46.8098 25.8641C46.358 25.9827 46.2718 25.9805 46.1819 25.8475C46.1335 25.7761 46.0938 25.6862 46.0938 25.6475C46.0938 25.6092 46.0808 25.5812 46.0648 25.5848C46.0488 25.5889 45.9957 25.5889 45.9473 25.5848C45.8732 25.5789 45.8652 25.5591 45.8976 25.4625C45.9449 25.3218 45.9069 25.2459 45.836 25.3395C45.7561 25.4448 45.7745 25.3502 45.8663 25.1822C45.9145 25.0941 46.011 25.0153 46.1003 24.9913C46.2301 24.9563 46.245 24.9372 46.2033 24.8572C46.1409 24.7375 46.1936 24.7301 43.7129 25.2072C43.5427 25.2404 43.2376 25.2802 43.0354 25.2964C42.8332 25.313 42.4672 25.3553 42.2224 25.3907C41.9776 25.4264 41.6553 25.4666 41.5062 25.4802C41.3571 25.4935 41.1663 25.5333 41.0823 25.5683C40.998 25.6033 40.664 25.6338 40.34 25.6357C40.0159 25.6379 39.7277 25.6519 39.6994 25.667C39.6298 25.7042 38.7226 25.7797 38.5068 25.7665C38.4113 25.7602 38.3065 25.7171 38.2739 25.6703C38.2011 25.5653 38.0153 25.555 37.1511 25.6066C36.7538 25.6305 36.3891 25.6847 36.2694 25.7377C36.113 25.807 35.8537 25.8262 35.166 25.8188C34.6715 25.8129 33.8488 25.8298 33.3378 25.8553C32.3023 25.9068 32.3576 25.9076 31.286 25.8335C30.5923 25.7856 30.1919 25.7838 29.5827 25.8251C29.4761 25.8324 29.4195 25.8508 29.4569 25.8663C29.4941 25.8818 29.5245 25.9234 29.5245 25.9588C29.5245 26.0012 29.4159 26.0111 29.2052 25.9875C29.0296 25.9676 28.5026 25.9234 28.0342 25.8892C27.5656 25.8549 26.9648 25.7982 26.6986 25.7639C25.6292 25.6239 25.2215 25.5749 24.666 25.5185C23.2773 25.3774 22.5451 25.3214 21.782 25.2975C21.4307 25.2861 20.9951 25.2581 20.8141 25.2348C20.6144 25.2107 20.4143 25.1987 20.2141 25.1987C20.0651 25.2017 19.7691 25.1766 19.556 25.1435C19.343 25.1103 18.6536 25.0709 18.0236 25.0558C17.3938 25.0411 16.8014 25.002 16.7074 24.9688C16.6132 24.9357 16.3996 24.8937 16.2321 24.8756C16.0649 24.8572 15.8735 24.8277 15.8065 24.8104C15.5775 24.7507 15.2202 24.7106 14.6975 24.6852C14.2373 24.6623 13.7901 24.6082 13.1297 24.4951C13.0232 24.4766 12.8752 24.4545 12.8006 24.445C12.7261 24.4354 12.5344 24.41 12.3748 24.3882C12.2149 24.3661 11.9449 24.3319 11.7748 24.3109C11.6044 24.2902 11.4564 24.2648 11.4458 24.2545C11.435 24.2438 11.3272 24.2188 11.206 24.1981C11.085 24.1779 10.9603 24.1454 10.9294 24.1263C10.8981 24.1075 10.7183 24.0835 10.5299 24.0736C10.0125 24.0456 10.0132 24.046 10.0132 23.9465C10.0132 23.8957 9.99479 23.8544 9.9721 23.8544C9.94963 23.8544 9.94402 23.8864 9.95914 23.9262C9.97837 23.9752 9.96562 23.9852 9.91961 23.9568C9.88244 23.9343 9.81374 23.9155 9.76664 23.9155C9.70896 23.9155 9.67936 23.8758 9.67547 23.7925C9.66856 23.6451 9.68951 23.6385 9.76707 23.7619C9.84809 23.8909 9.93884 23.8809 9.91161 23.7464C9.89822 23.6801 9.90232 23.6654 9.92241 23.7074C9.94467 23.7542 10.0538 23.763 10.2649 23.735C10.6283 23.6871 10.9024 23.7 11.4069 23.7903C11.6091 23.8268 11.8705 23.8713 11.9876 23.8894C12.1047 23.9078 12.221 23.9332 12.2458 23.9461C12.2707 23.959 12.3011 23.9277 12.3134 23.8761C12.3301 23.8069 12.3668 23.7936 12.4552 23.8245C12.5939 23.8728 12.6829 23.8912 13.0523 23.9476C13.2014 23.9704 13.3336 23.9992 13.3464 24.0117C13.3736 24.0382 13.8912 24.0426 14.6007 24.0228C15.0508 24.0095 15.3681 24.0449 15.6049 24.134C15.7385 24.1841 16.6718 24.2059 16.6718 24.1587C16.6718 24.1344 16.5543 24.0946 16.4104 24.0703C16.2669 24.0456 16.1144 24.015 16.0718 24.0014C15.773 23.9078 14.9732 23.8024 14.3298 23.773C14.1807 23.7656 14.0403 23.7413 14.0178 23.7184C13.9805 23.6805 12.795 23.5335 12.7313 23.5589C12.7161 23.5652 12.5731 23.5508 12.4135 23.5269C12.1665 23.4904 11.5361 23.4167 11.3779 23.406C11.3207 23.4023 11.314 23.3228 11.3665 23.2712C11.4041 23.2343 11.696 23.2255 11.96 23.2535C12.0406 23.2623 12.1207 23.3058 12.138 23.3504C12.1615 23.4104 12.2281 23.4204 12.3979 23.3898C12.5236 23.3666 12.6379 23.3368 12.6522 23.3235C12.6665 23.3099 12.7047 23.3408 12.7369 23.3924C12.7693 23.444 12.8049 23.462 12.8162 23.4329C12.838 23.3769 13.6194 23.4009 13.8459 23.4646C13.9204 23.4856 14.0518 23.5088 14.1377 23.5154C14.2237 23.5228 14.3326 23.5608 14.3797 23.6009C14.448 23.6591 14.4653 23.6573 14.4653 23.5917C14.4653 23.5431 14.5171 23.5029 14.591 23.4933C14.8972 23.4539 15.3256 23.4576 15.6654 23.5026C15.9096 23.535 16.0139 23.5309 15.9761 23.4904C15.8236 23.3283 16.1101 23.248 16.5558 23.3283C16.9511 23.3998 17.0216 23.4034 17.1925 23.3622C17.2806 23.3408 17.4042 23.3452 17.4673 23.3721C17.633 23.4429 18.4948 23.5678 18.8785 23.577C19.0724 23.5824 19.2661 23.5991 19.4592 23.6271C19.5975 23.6503 19.8762 23.6834 20.0787 23.7008C20.4337 23.7355 20.7886 23.7761 21.1431 23.8227C21.5651 23.8765 21.9874 23.9205 22.41 23.9546C22.9208 23.9914 22.9826 23.9855 23.0048 23.8934C23.0258 23.8061 23.0932 23.7914 23.4607 23.7936C23.6979 23.7951 23.9704 23.7737 24.0661 23.7464L24.2402 23.6963L23.9498 23.6278C23.7902 23.5899 23.5985 23.5597 23.5242 23.5608C23.4495 23.5619 23.1446 23.5195 22.8467 23.4672C22.5485 23.4149 21.9825 23.3408 21.5884 23.3032C21.1946 23.2653 20.8335 23.2211 20.7862 23.2049C20.7387 23.1887 20.3468 23.1485 19.9151 23.1153C19.1393 23.0564 18.5955 23.0078 18.1818 22.9613C18.0647 22.9481 17.6628 22.9094 17.289 22.8751C16.9151 22.8409 16.5841 22.8003 16.5534 22.7852C16.5227 22.7705 16.4627 22.737 16.4203 22.7116C16.3777 22.6858 16.2758 22.657 16.1939 22.6478C16.1122 22.6382 16.0249 22.5867 16.0003 22.5329C15.9647 22.4555 15.8638 22.4323 15.5103 22.4194C15.2655 22.4106 15.048 22.3862 15.0266 22.3656C15.0052 22.345 14.8572 22.3115 14.6975 22.2919C13.9342 22.1969 13.1709 22.1195 12.8201 22.1018C12.607 22.0911 12.154 22.034 11.8133 21.9751C11.4728 21.9161 11.0372 21.8583 10.8454 21.8469C9.51927 21.7695 8.45998 21.6712 7.90343 21.575C7.7118 21.5418 7.37584 21.4969 7.15699 21.4752C6.93813 21.453 6.74974 21.4118 6.7385 21.383C6.72727 21.3539 6.77566 21.3278 6.8461 21.3252C6.91653 21.3226 7.02325 21.3145 7.08375 21.3075C7.14359 21.3009 7.20041 21.3145 7.2097 21.3385C7.21899 21.362 7.29094 21.3532 7.36958 21.3189C7.44952 21.2839 7.62452 21.274 7.76603 21.2968C7.90538 21.3189 8.64664 21.3484 9.41319 21.3613C10.1797 21.3746 11.0943 21.4033 11.4456 21.4254C12.0719 21.4641 12.2493 21.4402 11.8386 21.3724C11.7245 21.3539 11.6229 21.3248 11.6126 21.3086C11.5849 21.2644 11.7264 21.1561 11.844 21.1311C11.9807 21.1016 12.0239 21.0238 11.907 21.0168C11.8554 21.0143 11.5869 20.9859 11.3101 20.9542C11.0333 20.9229 10.4891 20.8805 10.1002 20.8606C9.46158 20.8275 9.39374 20.8138 9.39374 20.7166C9.39374 20.581 9.23819 20.549 8.29881 20.4915C7.92007 20.4683 7.60097 20.4259 7.58995 20.3972C7.57893 20.3688 7.49337 20.3456 7.40004 20.3456C7.08202 20.3456 7.17103 20.1754 7.56208 20.0369C7.67227 19.9978 7.82026 19.9709 7.8909 19.9772C8.36254 20.0188 8.23874 19.8976 7.70985 19.7996C7.49683 19.7602 7.20085 19.7149 7.05177 19.6983C6.9027 19.6817 6.63263 19.6408 6.45158 19.6069C6.27075 19.5734 5.90498 19.5273 5.6386 19.5052C5.31084 19.4776 5.14233 19.4385 5.11597 19.3837C5.09458 19.3394 4.95653 19.2853 4.80637 19.2632C4.6573 19.2411 4.51795 19.1895 4.49656 19.1479C4.47539 19.1066 4.33064 19.0539 4.17529 19.0311C4.01974 19.0082 3.85339 18.9489 3.80585 18.8992C3.75098 18.8421 3.58353 18.799 3.3528 18.7817C2.85545 18.7448 2.4657 18.6756 2.44409 18.6199C2.42141 18.5617 2.76039 18.4781 2.81245 18.5293C2.83406 18.5503 2.85135 18.5411 2.85135 18.509C2.85135 18.477 2.79042 18.4328 2.71588 18.4103C2.56876 18.3665 2.54088 18.2898 2.64804 18.2239C2.77464 18.1458 2.59749 18.0224 2.19952 17.9107C1.8653 17.8175 1.65401 17.7018 1.80804 17.6967C1.9528 17.6919 1.7294 17.5832 1.49693 17.5456C1.35866 17.5228 1.22536 17.4778 1.20074 17.445C1.17589 17.4126 1.04561 17.3577 0.910797 17.3231C0.536598 17.2273 0.540703 17.1499 0.922462 17.1024C1.06506 17.0847 1.19533 17.032 1.23465 16.976C1.28974 16.8979 1.35693 16.8884 1.60236 16.9248C2.10144 16.9989 2.20039 16.9845 2.27536 16.8268C2.31209 16.7495 2.33456 16.6669 2.32526 16.643C2.31597 16.6194 2.19131 16.5804 2.04765 16.5568C1.90418 16.5332 1.76937 16.4923 1.74799 16.4654C1.72681 16.4389 1.62656 16.3976 1.52545 16.3737C1.24783 16.3081 1.30486 16.2212 1.62548 16.2212C1.78147 16.2212 1.92255 16.2002 1.93876 16.1747C1.95474 16.1493 2.11721 16.1287 2.29955 16.1287C2.53008 16.1287 2.63616 16.1051 2.64761 16.0517C2.65906 15.999 2.61736 15.9747 2.51582 15.9743C2.43415 15.9743 2.30625 15.9485 2.23193 15.9176C2.15739 15.8866 1.94891 15.8439 1.76873 15.8222C1.58854 15.8008 1.42132 15.7573 1.39734 15.7256C1.37357 15.694 1.34354 15.6844 1.33122 15.7039C1.3187 15.7238 1.26814 15.7168 1.21866 15.6888C1.14909 15.6494 1.19036 15.6287 1.3995 15.5985C1.64644 15.5628 1.92817 15.4729 2.07703 15.3823C2.17165 15.3248 2.02453 15.2614 1.58357 15.1701C1.36536 15.1248 1.18668 15.0713 1.18668 15.0514C1.18668 15.0312 1.07348 15.0264 0.93499 15.0404C0.732773 15.0606 0.68351 15.0481 0.68351 14.9759C0.68351 14.8643 0.806007 14.6819 0.880112 14.683C0.925484 14.6838 0.925049 14.6941 0.87709 14.7438C0.8274 14.7947 0.829132 14.8035 0.887894 14.8042C0.925919 14.805 0.967178 14.7622 0.979927 14.7095C0.999374 14.6285 1.06959 14.6189 1.45308 14.6465C1.93336 14.6808 2.05154 14.6399 1.96295 14.4704C1.81474 14.1868 1.21024 13.8817 0.794556 13.8817C0.54351 13.8817 0.412369 13.8073 0.412369 13.6643C0.412369 13.5929 0.474373 13.5745 0.712463 13.5759C0.877525 13.5763 1.08212 13.6061 1.16724 13.6419C1.25258 13.6776 1.65379 13.7192 2.05909 13.7347C2.77573 13.7616 2.79625 13.759 2.80187 13.6389C2.80749 13.5203 2.76018 13.4352 2.67722 13.4138C2.65582 13.4083 2.48882 13.3589 2.30604 13.304C1.70758 13.125 1.17632 13.0156 0.632523 12.9603C0.128914 12.9087 -0.0430603 12.8384 0.00900269 12.7043C0.0208893 12.6737 0.0472488 12.6652 0.0677719 12.6851C0.0880814 12.705 0.0999603 12.6851 0.0941315 12.6398C0.0880814 12.5948 0.113571 12.5624 0.150734 12.5668C0.187675 12.5716 0.209709 12.5539 0.199341 12.5274C0.189186 12.5013 0.23996 12.4618 0.31234 12.4405C0.468544 12.3937 0.505486 12.2828 0.425545 12.1012C0.38298 12.0043 0.378235 11.9464 0.408699 11.8882C0.458603 11.7928 0.42598 11.7276 0.328758 11.7276C0.289436 11.7276 0.257462 11.7158 0.257462 11.7018C0.257462 11.6874 0.24601 11.6281 0.231964 11.5692C0.208199 11.4715 0.234131 11.466 0.551292 11.504C0.740982 11.5261 0.961784 11.5611 1.04173 11.5813C1.15709 11.6104 1.18668 11.5983 1.18668 11.5216C1.18668 11.469 1.21478 11.4008 1.24912 11.3702C1.33771 11.2914 1.28455 10.9366 1.17351 10.8655C1.094 10.8143 1.09357 10.8113 1.16724 10.8036C1.2448 10.7955 1.2448 10.7955 1.16724 10.7424C1.09162 10.6909 1.19749 10.6688 1.59329 10.6533C1.75835 10.647 1.88345 10.5641 1.88345 10.4613C1.88345 10.4061 1.92363 10.3729 1.98996 10.3722C2.05535 10.3703 2.12048 10.3575 2.1844 10.3339C2.26694 10.2989 2.26823 10.2915 2.20385 10.2138C2.16604 10.1681 2.08761 10.1301 2.02928 10.129C1.97095 10.1279 1.80847 10.0299 1.66805 9.91166C1.52631 9.79192 1.35629 9.69613 1.28585 9.69613C1.05144 9.69613 0.685242 9.61766 0.703384 9.57124C0.713326 9.54582 0.691719 9.52924 0.655418 9.53366C0.618668 9.53754 0.585411 9.4967 0.57592 9.43603C0.558205 9.30045 0.786781 9.06725 0.904739 9.10003C0.951843 9.1133 0.99678 9.09377 1.00455 9.05693C1.02271 8.96998 1.47469 8.9453 1.6553 9.02156C1.73199 9.05398 2.12845 9.08788 2.53591 9.09709C3.22511 9.11256 3.42841 9.08125 3.17067 8.99872C3.11234 8.9803 2.98594 8.93683 2.89001 8.90219C2.77833 8.86471 2.66503 8.8429 2.55125 8.83698C2.46095 8.83551 2.38684 8.80641 2.38684 8.77251C2.38684 8.73899 2.35962 8.71099 2.32635 8.71099C2.29286 8.71099 2.22977 8.68077 2.18591 8.64357C2.10749 8.57651 2.1077 8.57504 2.19823 8.5032C2.35724 8.3772 2.30798 8.25857 2.04095 8.12373C1.90419 8.05447 1.78385 7.9572 1.77391 7.90821C1.76398 7.85884 1.74042 7.80247 1.72163 7.78294C1.66243 7.72105 1.73329 7.53131 1.80026 7.57221C1.83418 7.59284 1.85104 7.59247 1.83807 7.57184C1.82511 7.55121 1.85817 7.46426 1.91196 7.37879C1.98261 7.26679 2.05521 7.22074 2.17511 7.21337C2.26628 7.20785 2.33391 7.18537 2.32526 7.1629C2.31662 7.14079 2.47628 7.13637 2.68002 7.15295C2.97622 7.17727 3.06351 7.16437 3.11558 7.08995C3.18752 6.98606 3.56776 6.94332 3.7661 7.01664C3.84171 7.04464 3.89702 7.03616 3.91366 6.9938C3.92813 6.95658 3.98106 6.92601 4.03119 6.92601C4.14786 6.92601 4.24508 6.86706 4.24508 6.79632C4.24508 6.76611 4.2198 6.74106 4.1889 6.74106C4.15801 6.74106 4.11804 6.69943 4.09989 6.64785C4.07958 6.59001 3.92813 6.51154 3.70107 6.44154C3.25385 6.30301 2.92458 6.09154 2.9557 5.9626C2.96859 5.91213 3.00221 5.88732 3.03262 5.90586C3.06286 5.92428 3.07798 5.9147 3.0661 5.88376C3.05421 5.85355 3.09008 5.74192 3.14604 5.63655C3.22057 5.49545 3.26789 5.45529 3.32536 5.48402C3.36835 5.50613 3.39341 5.49839 3.38131 5.46745C3.36922 5.4365 3.4202 5.4085 3.49409 5.40481C3.5682 5.40187 3.75119 5.35139 3.90047 5.29318L4.17227 5.18745L4.08585 5.04082C4.03831 4.9605 3.98322 4.89456 3.96356 4.89456C3.94369 4.89456 3.86786 4.84961 3.79484 4.79435C3.66737 4.69819 3.66434 4.68824 3.72073 4.55119C3.75789 4.4613 3.76524 4.39425 3.7406 4.3703C3.73042 4.36054 3.72309 4.34394 3.72042 4.32454C3.71775 4.30514 3.71998 4.28472 3.72656 4.26825C3.74255 4.22699 3.76329 4.23399 3.78532 4.28778C3.80737 4.34193 3.8294 4.3493 3.8482 4.3084C3.86418 4.27414 3.92943 4.20562 3.99338 4.15662L4.10962 4.06746L3.98711 4.04683C3.85446 4.02399 3.78338 3.86631 3.87952 3.80736C3.91193 3.78746 3.94823 3.78673 3.96011 3.80552C3.97178 3.82394 4.0394 3.78747 4.11027 3.72447C4.19792 3.65144 4.29072 3.59795 4.38638 3.56531C4.46718 3.54099 4.55705 3.48426 4.58557 3.43857C4.65341 3.33063 4.67999 3.33284 5.0397 3.4791C5.3627 3.61062 5.45366 3.5981 5.5861 3.40542C5.66085 3.2971 5.69088 3.29194 5.8931 3.35126C6.15862 3.42937 6.65835 3.43931 6.62983 3.366C6.61903 3.338 6.48292 3.28052 6.32758 3.23816C5.93178 3.13095 5.88726 3.10774 5.95229 3.044C6.06486 2.93348 5.5606 2.6719 5.06758 2.58569C4.93449 2.56248 4.81696 2.52159 4.80681 2.49506C4.79644 2.46853 4.82452 2.37275 4.86946 2.28248C4.94421 2.13106 4.94572 2.11006 4.88804 2.00912C4.8539 1.9487 4.82582 1.88422 4.82582 1.86543C4.82582 1.78954 5.48131 1.89896 5.69671 2.01133C6.00674 2.17233 6.63415 2.28985 6.69205 2.19775C6.72273 2.14911 6.72316 2.10712 6.69313 2.04964C6.65251 1.97227 6.5905 1.93912 6.07415 1.7188C5.91319 1.65028 5.83218 1.5847 5.83218 1.52317C5.83218 1.44507 5.87798 1.43697 6.11952 1.4716C6.30359 1.49849 6.41551 1.49002 6.4315 1.44949C6.44511 1.41449 6.43495 1.38576 6.40881 1.38576C6.38288 1.38576 6.37035 1.37139 6.38137 1.35407C6.4073 1.31281 6.95563 1.49554 7.01007 1.56407C7.05307 1.61749 7.61825 1.75565 7.73881 1.74238C7.77618 1.73796 7.80665 1.70001 7.80665 1.65765C7.80665 1.61528 7.81572 1.54344 7.82674 1.49776C7.84575 1.41891 7.37304 1.25939 6.55832 1.07002C6.43582 1.04165 6.27248 0.976444 6.19535 0.924866C6.11822 0.873655 6.00069 0.831657 5.93393 0.831657C5.75871 0.830919 5.50681 0.708975 5.54764 0.644501C5.56643 0.61429 5.80214 0.581871 6.07156 0.572292C6.34075 0.562714 6.55832 0.550186 6.55464 0.544292C6.55119 0.538765 6.46218 0.480188 6.35696 0.41461C6.17375 0.300032 6.16943 0.291927 6.25325 0.220453C6.31872 0.164824 6.38871 0.162611 6.53347 0.211979C6.76896 0.292294 6.80007 0.2934 6.80007 0.221189C6.80007 0.189875 6.74823 0.146402 6.68449 0.123928C6.47276 0.0502453 6.51856 -0.0300694 6.77242 -0.0300694C6.9202 -0.0300694 7.0697 -0.0691223 7.14229 -0.126595C7.21575 -0.184805 7.29807 -0.206173 7.3497 -0.180016C7.46032 -0.124384 9.27794 -0.102648 9.25655 -0.157911C9.21162 -0.273594 9.71933 -0.272856 10.1527 -0.156437C11.0303 0.0789814 11.777 0.212717 12.2585 0.221189C12.5247 0.225611 12.9255 0.267242 13.1491 0.314032C13.4435 0.37244 13.7386 0.421816 14.034 0.462135C14.2974 0.496765 14.5238 0.535818 14.5374 0.54908C14.551 0.561975 14.6928 0.590343 14.8524 0.612082C14.9945 0.630888 15.1363 0.652626 15.2781 0.67729C15.4334 0.707132 16.1397 0.769762 16.6526 0.799236C17.0918 0.827387 17.5306 0.871485 17.9687 0.931498C18.0966 0.949919 18.5931 0.976444 19.0721 0.990444C19.5513 1.00518 20.1173 1.03981 20.3304 1.06781C20.5432 1.09508 21.1319 1.11534 21.639 1.11202C22.4053 1.10686 22.5665 1.09028 22.5971 1.01513C22.6283 0.937759 22.6391 0.937393 22.6684 1.00997C22.6918 1.06744 22.7415 1.08365 22.8177 1.05971C22.8808 1.03944 22.9512 1.05344 22.9746 1.09065C22.9979 1.12749 23.0744 1.16397 23.1446 1.17097C23.2137 1.17771 23.2824 1.19422 23.3499 1.22034C23.5819 1.32976 23.8237 1.36144 23.9211 1.29549C23.9993 1.24244 24.1944 1.30507 24.1674 1.37433C24.1575 1.40012 24.3439 1.42849 24.582 1.43733C25.2228 1.46202 25.2891 1.47307 25.3617 1.56886C25.4207 1.6466 25.4265 1.64291 25.4149 1.53644C25.406 1.45539 25.4205 1.4237 25.4598 1.43844C25.5077 1.45309 25.5563 1.46086 25.605 1.46165C25.6529 1.46239 25.692 1.48412 25.692 1.51028C25.692 1.53607 25.7201 1.57438 25.7545 1.59538C25.7999 1.62302 25.8107 1.60717 25.7936 1.53718C25.7776 1.47086 25.7854 1.45612 25.8182 1.48928C25.8448 1.51617 26.0317 1.54675 26.2341 1.55744C26.6595 1.57954 26.5962 1.57954 28.5955 1.56849C29.4366 1.56333 30.2323 1.57954 30.3641 1.60386C30.4959 1.62854 30.6327 1.63075 30.6685 1.60865C30.7344 1.56849 31.999 1.48928 32.3876 1.5007C32.6914 1.50991 33.036 1.22586 32.8443 1.12418C32.8158 1.10944 32.8357 1.0656 32.8927 1.01734C32.9459 0.973129 32.999 0.913076 33.0109 0.884708C33.0537 0.781551 33.3825 0.723711 33.4756 0.803288C33.5346 0.853394 33.6904 0.871077 33.9356 0.85634C34.1396 0.843815 34.8095 0.818764 35.4242 0.801079C36.0391 0.783026 36.5844 0.751711 36.6362 0.731079C36.6879 0.710447 36.9076 0.689079 37.1245 0.683922C37.3414 0.678764 37.5538 0.643396 37.5963 0.60545C37.6724 0.537292 38.0315 0.425661 38.0915 0.45145C38.1656 0.482765 38.3033 0.475031 38.4286 0.431925C38.5031 0.406136 38.599 0.389925 38.6416 0.395451C38.6842 0.400976 38.7539 0.410555 38.7965 0.416819C38.8391 0.422712 39.0393 0.394714 39.2416 0.355293C39.4438 0.315504 39.6847 0.283451 39.7767 0.284189C39.8688 0.284925 39.9647 0.259138 39.9897 0.227085C40.0148 0.195034 40.0919 0.149717 40.1611 0.126139C40.2641 0.0911388 40.2868 0.102192 40.2868 0.187666C40.2868 0.27977 40.3188 0.287136 40.5677 0.248083C40.7219 0.224136 41.127 0.198347 41.4675 0.190611C41.8082 0.182505 42.1809 0.143822 42.2956 0.104033C42.371 0.076355 42.4468 0.0522766 42.5229 0.0318241C42.5333 0.0318241 42.5201 -0.00980759 42.4935 -0.0606499C42.467 -0.11149 42.3864 -0.152752 42.3146 -0.152752C42.2427 -0.152752 42.1837 -0.164543 42.1837 -0.178543C42.1837 -0.192911 42.1731 -0.248541 42.1604 -0.301962C42.128 -0.435329 42.2371 -0.428696 42.3231 -0.292013C42.3719 -0.214647 42.395 -0.206173 42.4067 -0.261805C42.4153 -0.303804 42.4387 -0.322592 42.4581 -0.303802C42.4775 -0.284645 42.4935 -0.291279 42.4935 -0.318541C42.4935 -0.346172 42.5326 -0.371962 42.5806 -0.376015C42.6286 -0.380066 42.8941 -0.415066 43.1711 -0.453381C43.4476 -0.491695 44.0052 -0.534063 44.4099 -0.547695C44.8143 -0.560957 45.189 -0.587484 45.2421 -0.605906C45.4225 -0.668537 46.4142 -0.814798 46.9454 -0.85643C47.9302 -0.933798 48.6766 -1.15779 48.8305 -1.42195C48.8786 -1.50447 48.9636 -1.57116 49.0245 -1.57447C49.5255 -1.60026 50.2212 -1.68316 50.5265 -1.75352C50.6921 -1.78983 50.8581 -1.8203 51.0244 -1.84489C51.1785 -1.86719 51.332 -1.89927 51.4846 -1.94105C51.5916 -1.97347 51.6856 -1.99999 51.6931 -1.99999C51.7009 -1.99999 51.7072 -1.92889 51.7072 -1.84231C51.7072 -1.75573 51.724 -1.70121 51.7448 -1.72147Z" fill="#FCC419"/>
<path fill-rule="evenodd" clip-rule="evenodd" d="M21.4419 25.7403C21.4237 25.7573 21.386 25.69 21.3581 25.5918C21.3287 25.4875 21.2837 25.4124 21.2503 25.4124C21.2051 25.4124 21.2015 25.3972 21.2331 25.3412C21.2637 25.2866 21.2625 25.2651 21.2286 25.2481C21.1938 25.2308 21.1954 25.2066 21.2358 25.1339C21.2747 25.0632 21.2768 25.0363 21.2442 25.0199C21.2207 25.0084 21.2015 24.9766 21.2015 24.9493C21.2015 24.922 21.2167 24.9138 21.2354 24.9311C21.2547 24.9487 21.2604 24.9281 21.2488 24.8832C21.2375 24.8399 21.2459 24.8044 21.2675 24.8044C21.2959 24.8044 21.2967 24.7771 21.27 24.7032C21.2406 24.622 21.2438 24.602 21.2871 24.602C21.3306 24.602 21.3329 24.5889 21.2982 24.5341C21.2539 24.4641 21.1679 24.5268 21.1792 24.6211C21.182 24.6453 21.1664 24.6753 21.1444 24.6871C21.1181 24.7017 21.1112 24.6708 21.1242 24.5971C21.1351 24.5353 21.1299 24.4971 21.1128 24.512C21.0958 24.5265 21.0511 24.522 21.0136 24.5014C20.9594 24.472 20.9754 24.4565 21.0904 24.4274C21.1811 24.4044 21.2358 24.3638 21.2358 24.3192C21.2358 24.2798 21.2656 24.2477 21.3022 24.2477C21.3386 24.2477 21.3896 24.2031 21.4153 24.1486C21.4615 24.0513 21.6355 23.9182 21.692 23.9373C21.708 23.9425 21.808 23.9146 21.9142 23.8749C22.0486 23.8277 22.1844 23.7917 22.3212 23.767C22.4387 23.7473 22.5434 23.7106 22.5539 23.6855C22.5644 23.6603 22.6068 23.6394 22.648 23.6388C22.689 23.6382 22.8151 23.5703 22.9278 23.4879C23.0408 23.4058 23.1591 23.3379 23.1907 23.3373C23.2226 23.3367 23.2581 23.313 23.2697 23.2854C23.2814 23.2576 23.2735 23.2348 23.2524 23.2348C23.2049 23.2348 23.2218 23.0084 23.2697 23.0033C23.2886 23.0015 23.3714 22.9711 23.4538 22.9366C23.5362 22.9014 23.6412 22.8866 23.6872 22.9039C23.7329 22.9208 23.8194 22.9124 23.8791 22.8851C23.9388 22.8578 24.0735 22.8108 24.1784 22.7802C24.4665 22.6969 24.6201 22.6272 24.6201 22.5802C24.6201 22.5311 22.8664 22.565 22.4322 22.6226C22.2035 22.6529 22.1163 22.6444 22.022 22.5838C21.9562 22.5414 21.8946 22.5035 21.8852 22.4993C21.8757 22.4953 21.8232 22.4644 21.7683 22.4311C21.7133 22.3974 21.6441 22.3838 21.6143 22.4008C21.5848 22.418 21.1297 22.4402 20.6032 22.4502C20.0768 22.4602 19.5768 22.4911 19.4923 22.5187C19.4078 22.5465 19.1542 22.5956 18.9289 22.6278C18.7036 22.6605 18.4897 22.7102 18.4539 22.7387C18.4178 22.7672 18.3133 22.7799 18.2215 22.7669C18.1295 22.7535 18.0462 22.7629 18.0361 22.7872C18.0259 22.8114 18.0032 22.8181 17.9857 22.8023C17.9683 22.7863 17.954 22.7972 17.954 22.8266C17.954 22.8563 17.9426 22.8757 17.9283 22.8702C17.8714 22.8481 17.578 22.9399 17.578 22.9802C17.578 23.0296 17.3197 23.1118 17.222 23.0936C17.1861 23.0866 17.1278 23.1269 17.0925 23.1833C17.0572 23.2394 17.002 23.2882 16.9698 23.2915C16.9375 23.2945 16.8191 23.3024 16.7061 23.3085C16.5936 23.3145 16.4396 23.3454 16.3644 23.3776C16.2891 23.41 16.1695 23.4491 16.0985 23.4646C16.0275 23.4803 15.9777 23.513 15.9878 23.5373C16.0197 23.6137 15.9438 23.6337 15.3499 23.7052C15.3182 23.7091 15.2951 23.734 15.2984 23.7603C15.3018 23.7867 15.2738 23.8216 15.2362 23.8379C15.1819 23.8669 15.13 23.906 15.0816 23.9546C15.0194 24.0173 14.8899 24.051 14.6199 24.0743C14.4137 24.0922 14.2094 24.1046 14.1659 24.1016C14.1224 24.0986 14.0396 24.1325 13.9818 24.1768C13.9223 24.2222 13.8677 24.2371 13.8559 24.2107C13.8263 24.1459 13.7059 24.0834 13.7322 24.1471C13.7601 24.2137 13.7269 24.2101 13.6359 24.1371C13.4522 23.9895 12.5824 24.1016 12.4916 24.2844C12.4636 24.341 12.4605 24.3792 12.4832 24.3904C12.5027 24.4001 12.5185 24.428 12.5185 24.4529C12.5185 24.4774 12.4969 24.4853 12.4708 24.4704C12.4445 24.4553 12.4128 24.4674 12.4002 24.4974C12.3672 24.5768 12.5719 24.5653 12.6826 24.4814C12.7333 24.4429 12.8442 24.3947 12.9287 24.3741C13.0134 24.3538 13.1095 24.3295 13.1424 24.3204C13.1754 24.3113 13.2023 24.3338 13.2023 24.3704C13.2023 24.4174 13.2448 24.4316 13.3474 24.4198C13.4598 24.4068 13.4791 24.4147 13.4323 24.455C13.399 24.4835 13.3795 24.5253 13.3888 24.548C13.4091 24.5965 13.2179 24.6456 12.848 24.6865C12.64 24.7093 12.5723 24.7002 12.5494 24.6465C12.5277 24.5959 12.5195 24.5941 12.5189 24.6402C12.5183 24.7332 12.3128 24.718 12.2392 24.6196C12.2049 24.5735 12.1766 24.5571 12.1766 24.5835C12.1766 24.6126 12.0658 24.6177 11.8947 24.5968C11.7396 24.5774 11.4973 24.5492 11.3563 24.5341C11.2151 24.5189 11.0493 24.4795 10.9875 24.4471C10.9259 24.415 10.837 24.3992 10.7902 24.4126C10.7433 24.4256 10.6954 24.4132 10.6834 24.385C10.6702 24.3532 10.6792 24.3489 10.7067 24.3741C10.7345 24.3995 10.7431 24.3953 10.7296 24.3625C10.7038 24.3007 10.5407 24.245 10.3478 24.2316C10.2339 24.2237 10.2104 24.204 10.2074 24.1134C10.204 24.0164 10.2276 24.0007 10.4295 23.9658C10.5539 23.9446 10.6939 23.9319 10.7408 23.9379L10.8263 23.9489L10.7357 23.8761C10.5783 23.7494 10.4251 23.6958 10.1256 23.6634C9.96568 23.6461 9.73502 23.5946 9.61273 23.5491C9.33172 23.4445 8.35645 23.4364 8.3139 23.5385C8.29937 23.5735 8.27043 23.5852 8.24713 23.5655C8.1899 23.513 7.5607 23.4958 7.58226 23.5467C7.6021 23.5949 7.59714 23.5955 7.14995 23.6158C6.83421 23.63 6.70105 23.6473 6.22849 23.7355C6.01291 23.7755 5.88699 23.7525 5.76375 23.6506C5.71224 23.6076 5.7233 23.5834 5.84769 23.4673C5.94766 23.3733 6.07014 23.3185 6.25481 23.2839C6.57017 23.2248 6.87103 23.1506 7.08776 23.0778C7.21749 23.0345 7.24325 23.0078 7.2297 22.9308C7.21997 22.8757 7.19345 22.8478 7.16522 22.8642C7.13889 22.879 7.11733 22.866 7.11733 22.8351C7.11733 22.8042 7.14404 22.7787 7.17705 22.7784C7.22817 22.7778 7.22951 22.7705 7.18563 22.7284C7.1532 22.6975 7.14957 22.679 7.17609 22.6787C7.19899 22.6781 7.20891 22.6435 7.19784 22.6014C7.1841 22.5484 7.21825 22.499 7.31002 22.4384L7.44204 22.3517L7.10817 22.3214C6.92884 22.3046 6.74924 22.296 6.5696 22.2956C6.45704 22.2986 6.36528 22.298 6.36528 22.2944C6.36528 22.2911 6.3958 22.2356 6.43358 22.1713C6.47116 22.1071 6.50187 22.0701 6.50187 22.0889C6.50187 22.1077 6.5366 22.0895 6.57895 22.0483C6.6213 22.0074 6.76992 21.9474 6.90938 21.9156C7.04865 21.8834 7.2236 21.8252 7.29819 21.7864C7.38231 21.7448 7.46944 21.7203 7.55746 21.7137C7.74786 21.711 8.22729 21.5264 8.08878 21.5091C8.05527 21.5026 8.02197 21.4935 7.98901 21.4819C7.95234 21.4694 7.91565 21.4572 7.87893 21.4452C7.80071 21.4197 7.79575 21.3706 7.86786 21.3367C7.90754 21.3179 7.98004 21.2476 8.02926 21.18C8.07848 21.1124 8.15289 21.0573 8.19486 21.0573C8.23683 21.0573 8.28872 21.026 8.31028 20.9876C8.34233 20.9306 8.31409 20.9121 8.15193 20.8848C8.0519 20.8682 7.95204 20.849 7.85241 20.8272C7.7181 20.7951 7.1841 20.7996 7.14747 20.8333C7.09787 20.8787 6.70696 20.9 6.70696 20.8575C6.70696 20.8348 6.73005 20.7881 6.75847 20.7536C6.78652 20.7187 6.8096 20.6666 6.8096 20.6375C6.8096 20.6084 6.79949 20.5996 6.78709 20.6181C6.77469 20.6363 6.74397 20.626 6.71879 20.5951C6.69342 20.5639 6.673 20.5602 6.673 20.5869C6.673 20.6136 6.64973 20.6354 6.62149 20.6354C6.53946 20.6354 6.56197 20.5811 6.67491 20.5072C6.80178 20.4238 6.78366 20.389 6.57895 20.3232C6.39237 20.2626 6.35688 20.1687 6.49062 20.0886C6.62912 20.0059 7.27949 19.8986 7.65132 19.8971C7.8257 19.8965 8.00904 19.8807 8.05883 19.8623L8.14964 19.8286L8.05234 19.7104C7.99854 19.6456 7.92872 19.5916 7.89705 19.5907C7.81597 19.588 7.79136 19.5077 7.83486 19.3873C7.88064 19.26 8.17807 19.0318 8.2975 19.0318C8.34786 19.0318 8.37705 19.01 8.36503 18.9812C8.35339 18.9533 8.31562 18.9306 8.28109 18.9306C8.22328 18.9306 8.15899 18.8042 8.17158 18.7154C8.18455 18.6251 7.64217 18.726 7.59676 18.8224C7.56204 18.8958 6.68903 19.0882 6.60337 19.0409L6.52153 18.9964L6.60108 18.9333C6.64477 18.8985 6.92884 18.8091 7.23218 18.7339C7.78735 18.5969 7.92261 18.5003 7.5588 18.5003C7.447 18.5003 7.34417 18.4712 7.31078 18.4305C7.26309 18.3724 7.19746 18.3708 6.92045 18.4208C6.41106 18.513 6.11535 18.5763 6.04591 18.6078C5.99993 18.6288 5.98601 18.6139 5.9944 18.5521C6.00699 18.4624 6.11268 18.3572 6.27866 18.2693C6.42137 18.1938 6.33265 18.1275 6.15008 18.1729C6.0709 18.1929 5.93698 18.2251 5.85246 18.2448L5.6985 18.2802L5.8267 18.0984C5.89729 17.9984 5.95491 17.9084 5.95491 17.8984C5.95491 17.8884 5.85952 17.8641 5.74314 17.8447C5.46708 17.7983 5.3198 17.6841 5.32167 17.5177C5.32266 17.4298 5.54397 17.3125 5.74963 17.2904C5.83434 17.281 6.02683 17.2374 6.17717 17.1931C6.3275 17.1489 6.55835 17.1022 6.68998 17.0898C6.83876 17.0743 6.98707 17.049 7.1345 17.0137C7.83486 16.8315 7.99244 16.7864 8.02277 16.7609C8.04128 16.7452 7.98748 16.7073 7.90315 16.677C7.81826 16.6464 7.74977 16.5921 7.74977 16.5551C7.74977 16.47 8.09432 16.2848 8.407 16.2021C8.55906 16.1618 8.67162 16.1021 8.70844 16.0414C8.74144 15.9875 8.85591 15.9196 8.96904 15.8866C9.22602 15.8117 9.21896 15.7405 8.93985 15.5877C8.88014 15.555 8.83798 15.502 8.84637 15.4695C8.86583 15.3965 9.02418 15.2847 9.10888 15.2847C9.1438 15.2847 9.16288 15.2616 9.15124 15.2341C9.13979 15.2062 9.01578 15.1831 8.87575 15.1831C8.64529 15.1831 8.55276 15.1316 8.66399 15.0649C8.76376 15.0052 8.26487 15.0377 8.01839 15.1065C7.71161 15.1925 7.54449 15.1565 7.54449 15.0046C7.54449 14.9343 7.63396 14.8425 7.88026 14.6588C8.11206 14.4858 8.20173 14.3952 8.17063 14.3655C8.11149 14.3091 8.16986 14.2512 8.39918 14.1391C8.72275 13.9806 8.97954 13.7154 8.94577 13.5738C8.92287 13.4775 9.04898 13.4247 9.57019 13.3132C9.82908 13.2577 10.0885 13.1774 10.1465 13.1344C10.2045 13.092 10.3274 13.0435 10.4195 13.0268C10.6737 12.9816 11.1598 12.7995 11.2357 12.721C11.2727 12.6828 11.3496 12.6498 11.4066 12.6477C11.4635 12.6458 11.5408 12.6246 11.5783 12.6007C11.6329 12.5661 11.619 12.5558 11.51 12.5498C11.2187 12.5337 11.064 12.4913 11.0255 12.4164C10.9991 12.3652 10.9579 12.3497 10.9058 12.371C10.8374 12.3982 10.8349 12.3952 10.8868 12.3467C10.92 12.3161 10.974 12.2973 11.0064 12.3052C11.0425 12.3123 11.0791 12.3025 11.1117 12.277C11.1388 12.2518 11.192 12.2618 11.242 12.3012C11.3076 12.3534 11.3404 12.3549 11.3908 12.3082C11.4318 12.2703 11.4633 12.2667 11.4763 12.2979C11.4877 12.3252 11.5846 12.3482 11.6915 12.3494C11.7985 12.3503 11.9246 12.3837 11.9715 12.4234C12.074 12.5101 12.1083 12.5164 12.1083 12.4488C12.1083 12.421 12.0843 12.3982 12.0549 12.3982C12.0257 12.3982 12.0101 12.3779 12.0206 12.3534C12.0307 12.3285 12.007 12.2958 11.9675 12.2806C11.9282 12.2655 11.9027 12.2231 11.9109 12.1864C11.9259 12.1188 12.0789 12.0791 12.5527 12.0203C12.9806 11.967 13.0996 11.9385 13.0996 11.8888C13.0996 11.8624 13.0767 11.8412 13.0483 11.8412C13.0199 11.8412 12.9972 11.796 12.9972 11.74C12.9972 11.6657 13.0201 11.6387 13.0826 11.6387C13.1809 11.6387 13.1977 11.5605 13.1069 11.5254C13.0733 11.5124 12.9003 11.5139 12.7223 11.5287C12.2043 11.5721 11.9969 11.5578 11.8886 11.4708C11.8334 11.4266 11.7787 11.3996 11.7665 11.4105C11.7544 11.4217 11.751 11.3666 11.7588 11.2881C11.7758 11.1171 11.7275 11.0905 11.3767 11.0759C11.1666 11.0674 11.1502 11.0599 11.2233 11.0038C11.3435 10.9117 11.784 10.7795 12.0467 10.7565C12.181 10.7447 12.3077 10.7032 12.3533 10.6559C12.4506 10.5553 12.509 10.5537 12.5746 10.651C12.6042 10.695 12.6866 10.7268 12.7688 10.7259C13.0222 10.7241 13.9675 10.5816 14.0959 10.5259C14.2157 10.4743 14.2193 10.4658 14.1941 10.2998C14.1781 10.1952 14.1817 10.1067 14.2031 10.0749C14.2275 10.0385 14.2266 10.0009 14.1999 9.95336C14.1182 9.80758 14.222 9.77758 14.7209 9.80182C15.1085 9.82092 15.2295 9.81061 15.3081 9.75121C15.3913 9.68817 15.7665 9.60149 16.0226 9.58604C16.0601 9.58361 16.1677 9.56149 16.2618 9.53664L16.4327 9.49117L16.279 9.4545C16.1943 9.4342 15.9405 9.42935 15.7148 9.44359C15.4756 9.45819 15.2363 9.46455 14.9969 9.46269C14.8277 9.45875 14.4971 9.49299 14.262 9.53845C13.7969 9.62816 13.3173 9.6909 13.1109 9.68908C13.039 9.68847 12.9703 9.70787 12.9586 9.73212C12.9468 9.75636 12.889 9.77909 12.8304 9.78273C12.7717 9.78637 12.7236 9.80819 12.7236 9.83122C12.7236 9.85425 12.6891 9.8585 12.6467 9.84092C12.5864 9.81607 12.5809 9.82061 12.6211 9.86213C12.6652 9.9079 12.6641 9.91547 12.6126 9.91608C12.5796 9.91669 12.5527 9.94214 12.5527 9.97336C12.5527 10.0079 12.5202 9.99821 12.4685 9.9479C12.375 9.85698 12.3338 9.84304 12.3623 9.91123C12.3726 9.93578 12.3504 9.9679 12.313 9.98245C12.2741 9.99761 12.2451 9.98366 12.2451 9.95002C12.2451 9.91608 12.1911 9.89153 12.1169 9.89153C12.0355 9.89153 11.9916 9.91365 11.9967 9.95245C12.0023 9.99427 11.9652 10.0058 11.8784 9.98942C11.7361 9.96215 11.5957 9.84455 11.5949 9.75121C11.5946 9.7112 11.5825 9.71636 11.5614 9.76485C11.5356 9.82395 11.5282 9.8091 11.5276 9.69817C11.527 9.51572 11.5833 9.35994 11.6501 9.35994C11.6787 9.35994 11.6926 9.33721 11.681 9.30933C11.6695 9.28145 11.6877 9.2569 11.7216 9.25478C11.8342 9.24751 11.9059 9.2169 11.982 9.14295C12.0503 9.07688 12.211 9.10233 12.211 9.17931C12.211 9.19326 12.1902 9.19295 12.1652 9.17871C12.1398 9.16446 12.0976 9.19235 12.0711 9.24054C12.0295 9.3163 12.0295 9.32236 12.0715 9.28539C12.1087 9.25205 12.1144 9.26327 12.0959 9.33479C12.0814 9.39025 12.0894 9.4442 12.1158 9.46905C12.1812 9.53027 12.2362 9.51875 12.1768 9.45602C12.1381 9.41541 12.1579 9.40874 12.2568 9.42905C12.3293 9.4442 12.4159 9.43026 12.4506 9.39844C12.4979 9.35449 12.525 9.3554 12.5631 9.40207C12.6034 9.45178 12.6183 9.44632 12.6395 9.37389C12.6542 9.32418 12.6637 9.2669 12.6606 9.24599C12.6578 9.22478 12.677 9.2078 12.7038 9.2078C12.7305 9.2078 12.7579 9.18174 12.7652 9.15022C12.7724 9.11809 12.8234 9.08506 12.8785 9.07627C12.9338 9.06748 12.996 9.02566 13.017 8.98292C13.038 8.9405 13.0676 8.92231 13.0828 8.94292C13.0981 8.96323 13.101 8.93989 13.0891 8.8914C13.0628 8.78229 13.128 8.77199 13.1563 8.88079C13.1742 8.95019 13.1839 8.94928 13.2406 8.87321C13.3013 8.79169 13.3049 8.79229 13.3055 8.88352C13.3059 8.96444 13.3112 8.96777 13.3391 8.90413C13.3885 8.79078 13.3814 8.76623 13.2898 8.73229C13.2318 8.71046 13.2082 8.66864 13.212 8.59439C13.2179 8.47619 13.337 8.388 13.4743 8.39982C13.6021 8.41103 13.7151 8.34587 13.7151 8.26071C13.7151 8.20616 13.749 8.19009 13.8433 8.20009C13.981 8.21525 14.2128 8.15827 14.2962 8.08887C14.3376 8.05462 14.3344 8.04553 14.279 8.04219C14.1992 8.03535 14.1194 8.02626 14.0398 8.01492C13.749 7.97431 13.3625 7.97552 13.2229 8.01734C13.1273 8.04613 13.0966 8.04129 13.1135 8.00007C13.1284 7.96491 13.1193 7.95339 13.0895 7.97037C13.0613 7.98643 13.0159 7.94006 12.9798 7.85823C12.9359 7.75882 12.9302 7.71336 12.9596 7.69881C12.9873 7.68518 12.9806 7.65487 12.9392 7.60698C12.8829 7.54152 12.8865 7.53758 12.98 7.56152C13.0365 7.57607 13.0634 7.57456 13.0399 7.55849C12.9533 7.49788 13.001 7.43545 13.134 7.43545C13.2202 7.43545 13.2708 7.45878 13.2713 7.49909C13.2715 7.54546 13.2793 7.54395 13.3011 7.49333C13.3196 7.4503 13.3385 7.44393 13.352 7.47636C13.3749 7.53122 13.4184 7.52697 13.5253 7.45909C13.5619 7.43605 13.6424 7.41544 13.7042 7.41363C13.846 7.40938 13.8919 7.28361 13.7519 7.28361C13.6964 7.28361 13.6454 7.25057 13.6344 7.20784C13.621 7.15632 13.6359 7.13177 13.6802 7.13177C13.7164 7.13177 13.7582 7.10328 13.7731 7.06813C13.8124 6.97751 13.9516 6.87022 13.9875 6.90295C14.0043 6.91811 14.0276 6.9078 14.0394 6.87931C14.0512 6.85113 14.1033 6.82779 14.1552 6.82779C14.2071 6.82779 14.3332 6.79082 14.4353 6.74566C14.5965 6.67413 14.6108 6.65777 14.5452 6.6214C14.5032 6.59806 14.218 6.582 13.9108 6.58594C13.6037 6.58988 13.3322 6.57442 13.3076 6.552C13.2822 6.52866 13.2528 6.53533 13.2397 6.56715C13.2122 6.63292 12.1493 6.68292 12.123 6.61958C12.1137 6.59746 12.0822 6.59261 12.053 6.60928C12.0171 6.62958 12.0124 6.6508 12.0385 6.67444C12.0595 6.69383 12.0301 6.70959 11.9729 6.70959C11.9156 6.70959 11.8691 6.68807 11.8691 6.6611C11.8691 6.63473 11.8456 6.64171 11.817 6.67686C11.7884 6.71232 11.7541 6.72475 11.7407 6.70505C11.7271 6.68535 11.7544 6.62595 11.8012 6.57321L11.8861 6.47744L11.8006 6.50169C11.7258 6.5229 11.7237 6.52017 11.7834 6.47805C11.8821 6.40834 12.0442 6.41592 12.1392 6.49381C12.2318 6.56957 12.3476 6.54472 12.3476 6.44865C12.3476 6.4044 12.4151 6.3847 12.5698 6.38349C12.7091 6.38228 12.7921 6.40228 12.7921 6.43713C12.7921 6.46774 12.8112 6.45532 12.8348 6.40986C12.8655 6.34985 12.9583 6.31772 13.1681 6.29439C13.3278 6.2762 13.5558 6.22953 13.6744 6.19043C13.7931 6.15103 13.9392 6.11679 13.9992 6.11406C14.0591 6.11133 14.1852 6.07799 14.279 6.04011C14.4393 5.97525 14.4213 5.97253 13.9885 5.99859C13.7347 6.01374 13.5039 6.02647 13.4756 6.02708C13.4476 6.02738 13.0937 6.08133 12.6896 6.14649C12.2852 6.21195 11.8445 6.27226 11.7102 6.28075C11.5757 6.28923 11.4728 6.31318 11.4812 6.33409C11.49 6.3553 11.4307 6.37228 11.3496 6.37228C11.2687 6.37228 11.064 6.40561 10.8948 6.44592C10.6046 6.51502 9.92199 6.58655 10.0147 6.53775C10.0384 6.52563 10.049 6.49441 10.0384 6.46895C10.0277 6.4435 10.0622 6.42168 10.1151 6.42046C10.1679 6.41895 10.2648 6.3747 10.3306 6.32197C10.3965 6.26893 10.4812 6.20437 10.5187 6.17861C10.6424 6.09315 12.6585 5.59914 13.134 5.53762C13.2749 5.51943 13.6826 5.45943 14.0398 5.40427C14.3971 5.34911 14.8685 5.28183 15.0876 5.25485C15.3066 5.22758 15.5599 5.17272 15.6504 5.13241C15.7692 5.07938 15.8213 5.07483 15.8385 5.11544C15.86 5.16696 16.2196 5.15302 16.655 5.08332C16.8087 5.06297 16.9625 5.04599 17.1165 5.0324C17.4538 5.00118 17.9678 4.89602 18.2555 4.79964C18.3367 4.77237 18.4176 4.76327 18.4352 4.77934C18.4529 4.7957 18.691 4.75842 18.9646 4.6972C19.369 4.60628 19.4764 4.59719 19.54 4.6475C19.6041 4.69842 19.6861 4.68993 19.9912 4.60083C20.499 4.45232 21.1618 4.25957 21.4922 4.16441C21.6426 4.12076 21.861 4.05288 21.9778 4.01317C22.0945 3.97377 22.2407 3.94165 22.3025 3.94165C22.3645 3.94165 22.4843 3.90922 22.569 3.86891C22.7115 3.80133 23.0036 3.72647 23.7825 3.55705C24.08 3.49568 24.3764 3.42191 24.6714 3.33581C24.8593 3.28308 25.167 3.20246 25.3551 3.1567L25.7997 3.04759C26.1986 2.95 26.2747 2.95182 26.3541 3.06123C26.3968 3.12002 26.4319 3.19397 26.4319 3.2258C26.4319 3.25732 26.4434 3.28035 26.4575 3.27732C26.4716 3.27398 26.5185 3.27398 26.5613 3.27732C26.6267 3.28217 26.6337 3.29853 26.6051 3.37794C26.5634 3.49371 26.5969 3.55614 26.6595 3.47916C26.7301 3.39249 26.7139 3.47037 26.6328 3.60857C26.5903 3.68101 26.505 3.74587 26.4262 3.76556C26.3115 3.79436 26.2984 3.81012 26.3352 3.87588C26.3903 3.97438 26.3438 3.98044 28.5343 3.58797C28.6846 3.56069 28.954 3.52796 29.1326 3.51462C29.3112 3.50098 29.6343 3.46613 29.8505 3.43704C30.0666 3.40764 30.3513 3.3746 30.4829 3.36339C30.6146 3.35248 30.783 3.31975 30.8572 3.29096C30.9316 3.26216 31.2266 3.23701 31.5128 3.23549C31.7989 3.23368 32.0534 3.22216 32.0784 3.20973C32.1399 3.17912 32.9409 3.11699 33.1315 3.1279C33.2159 3.13306 33.3084 3.16852 33.3372 3.20701C33.4015 3.29338 33.5656 3.30187 34.3287 3.25944C34.6795 3.23974 35.0016 3.19519 35.1072 3.15154C35.2454 3.09457 35.4743 3.07881 36.0816 3.08487C36.5183 3.08972 37.2447 3.07578 37.6959 3.05486C38.6104 3.01243 38.5615 3.01183 39.5078 3.07275C40.1204 3.11214 40.4739 3.11366 41.0119 3.07972C41.1059 3.07365 41.1559 3.0585 41.1229 3.04577C41.0901 3.03304 41.0632 2.9988 41.0632 2.9697C41.0632 2.93485 41.1592 2.92667 41.3452 2.94606C41.5003 2.96243 41.9656 2.9988 42.3792 3.02698C42.793 3.05517 43.3236 3.10184 43.5586 3.13003C44.503 3.24519 44.863 3.2855 45.3535 3.33187C46.5798 3.44795 47.2264 3.49401 47.9002 3.51371C48.2104 3.52311 48.595 3.54614 48.7549 3.56524C48.9312 3.58507 49.1079 3.59498 49.2847 3.59494C49.4163 3.59251 49.6777 3.61312 49.8658 3.6404C50.0539 3.66767 50.6627 3.7001 51.219 3.71253C51.7751 3.72465 52.2982 3.75678 52.3812 3.78405C52.4644 3.81133 52.6531 3.84588 52.801 3.86073C52.9486 3.87588 53.1176 3.90013 53.1768 3.91437C53.379 3.96347 53.6946 3.9965 54.1561 4.01742C54.5624 4.03621 54.9573 4.08076 55.5406 4.1738C55.6346 4.18895 55.7653 4.20714 55.8311 4.21502C55.8969 4.2229 56.0662 4.24381 56.2071 4.26169C56.3483 4.27988 56.5868 4.30806 56.7369 4.32534C56.8875 4.34231 57.0181 4.36322 57.0275 4.37171C57.037 4.3805 57.1322 4.4011 57.2393 4.41808C57.3461 4.43474 57.4562 4.46142 57.4835 4.47717C57.5111 4.49263 57.6699 4.51233 57.8362 4.52051C58.2931 4.54355 58.2926 4.54324 58.2926 4.62507C58.2926 4.6669 58.3088 4.70084 58.3288 4.70084C58.3487 4.70084 58.3536 4.67447 58.3403 4.64174C58.3233 4.60143 58.3345 4.59325 58.3752 4.61659C58.408 4.63507 58.4686 4.65053 58.5102 4.65053C58.5612 4.65053 58.5873 4.68326 58.5907 4.75176C58.5969 4.87299 58.5783 4.87844 58.5099 4.77691C58.4383 4.67084 58.3582 4.67902 58.3822 4.78964C58.3941 4.84419 58.3904 4.85632 58.3727 4.82177C58.353 4.78328 58.2567 4.776 58.0703 4.79904C57.7494 4.83843 57.5073 4.82783 57.0618 4.75358C56.8833 4.72357 56.6524 4.6869 56.549 4.67205C56.4456 4.6569 56.343 4.63598 56.321 4.62538C56.2991 4.61477 56.2722 4.64053 56.2613 4.68296C56.2466 4.73994 56.2142 4.75085 56.1362 4.72539C56.0137 4.68569 55.9351 4.67053 55.6089 4.62416C55.4772 4.60537 55.3605 4.58173 55.3492 4.57143C55.3252 4.54961 54.8681 4.54597 54.2415 4.56234C53.8441 4.57325 53.5639 4.54415 53.3548 4.47081C53.2369 4.42959 52.4127 4.41171 52.4127 4.4505C52.4127 4.47051 52.5165 4.50324 52.6436 4.52324C52.7702 4.54355 52.9049 4.5687 52.9425 4.57992C53.2064 4.6569 53.9126 4.74357 54.4808 4.76782C54.6124 4.77388 54.7364 4.79388 54.7563 4.81267C54.7893 4.84389 55.8361 4.96482 55.8924 4.9439C55.9057 4.93875 56.032 4.95057 56.173 4.97027C56.3911 5.00027 56.9478 5.06089 57.0874 5.06968C57.138 5.07271 57.1439 5.13817 57.0975 5.1806C57.0643 5.21091 56.8066 5.21818 56.5734 5.19515C56.5023 5.18788 56.4315 5.15211 56.4162 5.11544C56.3954 5.06604 56.3367 5.05786 56.1867 5.08301C56.0757 5.10211 55.9748 5.12666 55.9622 5.13757C55.9496 5.14878 55.9158 5.12332 55.8874 5.08089C55.8588 5.03846 55.8273 5.02361 55.8174 5.04755C55.7981 5.09362 55.1081 5.07392 54.9081 5.02149C54.8423 5.00421 54.7263 4.98512 54.6504 4.97967C54.5744 4.9736 54.4783 4.94239 54.4367 4.90935C54.3764 4.86147 54.3612 4.86298 54.3612 4.91693C54.3612 4.95694 54.3154 4.98997 54.2501 4.99785C53.9798 5.03028 53.6015 5.02725 53.3014 4.99027C53.0858 4.9636 52.9936 4.96694 53.027 5.00027C53.1617 5.13363 52.9087 5.1997 52.5152 5.13363C52.166 5.07483 52.1038 5.0718 51.9529 5.10574C51.8751 5.12332 51.766 5.11968 51.7103 5.09756C51.5639 5.03937 50.8029 4.93663 50.4641 4.92905C50.2929 4.92458 50.1219 4.91083 49.9513 4.88784C49.8292 4.86874 49.5831 4.84147 49.4043 4.82722C49.0908 4.79866 48.7774 4.76521 48.4643 4.7269C48.0918 4.68262 47.7188 4.64645 47.3456 4.61841C46.8946 4.5881 46.84 4.59295 46.8204 4.66872C46.8019 4.74054 46.7424 4.75267 46.4178 4.75085C46.2084 4.74964 45.9678 4.76721 45.8833 4.78964L45.7295 4.83086L45.9859 4.88723C46.1269 4.91845 46.2961 4.9433 46.3617 4.94239C46.4278 4.94148 46.6969 4.97633 46.96 5.01937C47.2233 5.0624 47.7232 5.12332 48.0711 5.15423C48.4189 5.18545 48.7377 5.22182 48.7795 5.23515C48.8215 5.24849 49.1675 5.28152 49.5487 5.3088C50.2338 5.35729 50.714 5.3973 51.0794 5.43548C51.1828 5.44639 51.5376 5.47822 51.8677 5.5064C52.1979 5.53459 52.4902 5.56793 52.5173 5.58035C52.5444 5.59247 52.5974 5.62005 52.6348 5.64097C52.6724 5.66218 52.7624 5.68582 52.8347 5.6934C52.9068 5.70128 52.9839 5.74371 53.0057 5.78796C53.0371 5.8516 53.1262 5.87069 53.4384 5.8813C53.6545 5.88857 53.8466 5.90858 53.8655 5.92555C53.8844 5.94252 54.0151 5.9701 54.1561 5.98616C54.8301 6.06436 55.5041 6.128 55.8139 6.14255C56.0021 6.15134 56.4021 6.19831 56.703 6.2468C57.0037 6.2953 57.3883 6.34288 57.5577 6.35227C58.7287 6.41592 59.6641 6.49684 60.1555 6.57594C60.3247 6.60321 60.6214 6.64019 60.8147 6.65807C61.0079 6.67626 61.1743 6.7102 61.1842 6.73384C61.1941 6.75778 61.1514 6.7793 61.0892 6.78142C61.027 6.78354 60.9328 6.79021 60.8793 6.79597C60.8265 6.80142 60.7763 6.79021 60.7681 6.77051C60.7599 6.75111 60.6964 6.75839 60.6269 6.78657C60.5564 6.81536 60.4018 6.82355 60.2769 6.80476C60.1538 6.78657 59.4992 6.76233 58.8224 6.75172C58.1455 6.74081 57.3379 6.71717 57.0277 6.69899C56.4746 6.66716 56.318 6.68686 56.6807 6.74263C56.7814 6.75778 56.8711 6.78172 56.8802 6.79506C56.9046 6.83143 56.7797 6.92053 56.6759 6.94114C56.5551 6.96538 56.517 7.02933 56.6202 7.03509C56.6658 7.03721 56.9029 7.06055 57.1473 7.08661C57.3917 7.11237 57.8723 7.14723 58.2157 7.16359C58.7796 7.19087 58.8395 7.20208 58.8395 7.28209C58.8395 7.39362 58.9769 7.41999 59.8064 7.46727C60.1408 7.48636 60.4226 7.52122 60.4324 7.54486C60.4421 7.56819 60.5176 7.58729 60.6 7.58729C60.8809 7.58729 60.8023 7.7273 60.457 7.84126C60.3597 7.87338 60.229 7.89551 60.1666 7.89036C59.7501 7.85611 59.8594 7.95582 60.3265 8.03644C60.5146 8.06886 60.7759 8.10614 60.9076 8.11978C61.0392 8.13342 61.2777 8.16706 61.4376 8.19494C61.5973 8.22252 61.9202 8.2604 62.1555 8.27859C62.4449 8.30132 62.5937 8.33344 62.617 8.3786C62.6359 8.41497 62.7578 8.45952 62.8904 8.47771C63.022 8.49589 63.1451 8.53832 63.1639 8.57257C63.1826 8.60651 63.3105 8.64985 63.4476 8.66864C63.585 8.68743 63.7319 8.73623 63.7739 8.77714C63.8223 8.82412 63.9702 8.85958 64.1739 8.87382C64.6131 8.90413 64.9573 8.9611 64.9763 9.00687C64.9964 9.05475 64.697 9.12355 64.6511 9.08142C64.632 9.06415 64.6167 9.07172 64.6167 9.09809C64.6167 9.12446 64.6705 9.16083 64.7363 9.17931C64.8663 9.21538 64.8909 9.27842 64.7963 9.33267C64.6845 9.39692 64.8409 9.49845 65.1923 9.59028C65.4874 9.66696 65.674 9.76212 65.538 9.76636C65.4102 9.7703 65.6074 9.85971 65.8127 9.89062C65.9348 9.90941 66.0525 9.94639 66.0743 9.97336C66.0962 10 66.2113 10.0452 66.3303 10.0737C66.6607 10.1525 66.6571 10.2161 66.32 10.2552C66.1941 10.2698 66.0791 10.3131 66.0443 10.3592C65.9957 10.4234 65.9364 10.4313 65.7196 10.4013C65.2789 10.3404 65.1915 10.3522 65.1253 10.4819C65.0929 10.5456 65.0731 10.6134 65.0813 10.6331C65.0895 10.6525 65.1996 10.6847 65.3264 10.7041C65.4531 10.7235 65.5722 10.7571 65.591 10.7792C65.6097 10.801 65.6983 10.835 65.7875 10.8547C66.0327 10.9086 65.9823 10.9802 65.6992 10.9802C65.5615 10.9802 65.4369 10.9974 65.4226 11.0183C65.4085 11.0393 65.265 11.0562 65.104 11.0562C64.9004 11.0562 64.8067 11.0756 64.7966 11.1196C64.7865 11.1629 64.8233 11.1829 64.913 11.1832C64.9851 11.1832 65.0981 11.2044 65.1637 11.2299C65.2295 11.2553 65.4136 11.2905 65.5727 11.3084C65.7318 11.326 65.8795 11.3617 65.9007 11.3878C65.9217 11.4139 65.9482 11.4217 65.9591 11.4057C65.9701 11.3893 66.0148 11.3951 66.0585 11.4181C66.1199 11.4505 66.0834 11.4675 65.8988 11.4923C65.6807 11.5217 65.4319 11.5957 65.3005 11.6703C65.2169 11.7175 65.3468 11.7697 65.7362 11.8448C65.9289 11.8821 66.0867 11.926 66.0867 11.9424C66.0867 11.9591 66.1867 11.963 66.3089 11.9515C66.4875 11.9348 66.531 11.9451 66.531 12.0045C66.531 12.0964 66.4228 12.2464 66.3574 12.2455C66.3173 12.2449 66.3177 12.2364 66.3601 12.1955C66.404 12.1537 66.4024 12.1464 66.3505 12.1458C66.317 12.1452 66.2805 12.1803 66.2693 12.2237C66.2521 12.2903 66.1901 12.2982 65.8515 12.2755C65.4274 12.2473 65.323 12.2809 65.4012 12.4204C65.5321 12.6537 66.0659 12.9047 66.433 12.9047C66.6546 12.9047 66.7704 12.9659 66.7704 13.0835C66.7704 13.1423 66.7157 13.1574 66.5055 13.1562C66.3597 13.1559 66.179 13.1314 66.1039 13.102C66.0285 13.0726 65.6742 13.0383 65.3163 13.0256C64.6835 13.0035 64.6654 13.0056 64.6604 13.1044C64.6555 13.202 64.6972 13.272 64.7705 13.2896C64.7894 13.2941 64.9369 13.3347 65.0983 13.3799C65.6267 13.5272 66.0958 13.6172 66.576 13.6626C67.0207 13.7051 67.1726 13.763 67.1266 13.8733C67.1161 13.8984 67.0929 13.9054 67.0747 13.889C67.0568 13.8727 67.0463 13.889 67.0515 13.9263C67.0568 13.9633 67.0343 13.99 67.0015 13.9863C66.9689 13.9824 66.9494 13.9969 66.9586 14.0187C66.9675 14.0403 66.9227 14.0727 66.8588 14.0903C66.7208 14.1288 66.6882 14.22 66.7588 14.3694C66.7964 14.4491 66.8006 14.4967 66.7737 14.5446C66.7296 14.6231 66.7584 14.6767 66.8443 14.6767C66.879 14.6767 66.9072 14.6864 66.9072 14.6979C66.9072 14.7097 66.9173 14.7585 66.9297 14.807C66.9507 14.8873 66.9278 14.8919 66.6478 14.8607C66.4803 14.8425 66.2853 14.8137 66.2147 14.797C66.1128 14.7731 66.0867 14.7831 66.0867 14.8461C66.0867 14.8895 66.0619 14.9455 66.0316 14.9707C65.9533 15.0355 66.0003 15.3274 66.0983 15.3859C66.1685 15.428 66.1689 15.4304 66.1039 15.4368C66.0354 15.4435 66.0354 15.4435 66.1039 15.4871C66.1706 15.5296 66.0771 15.5477 65.7276 15.5605C65.5819 15.5656 65.4714 15.6338 65.4714 15.7184C65.4714 15.7638 65.4359 15.7911 65.3774 15.7917C65.3196 15.7932 65.2621 15.8038 65.2057 15.8232C65.1328 15.852 65.1316 15.8581 65.1885 15.922C65.2219 15.9596 65.2911 15.9908 65.3426 15.9917C65.3942 15.9926 65.5376 16.0733 65.6616 16.1705C65.7868 16.269 65.9369 16.3478 65.9991 16.3478C66.2061 16.3478 66.5295 16.4124 66.5135 16.4506C66.5047 16.4715 66.5238 16.4851 66.5558 16.4815C66.5883 16.4783 66.6176 16.5119 66.626 16.5618C66.6417 16.6733 66.4398 16.8652 66.3357 16.8382C66.2941 16.8273 66.2544 16.8434 66.2475 16.8737C66.2315 16.9452 65.8324 16.9655 65.6729 16.9028C65.6052 16.8761 65.2551 16.8482 64.8953 16.8406C64.2867 16.8279 64.1072 16.8537 64.3348 16.9216C64.3863 16.9367 64.4979 16.9725 64.5826 17.001C64.6812 17.0318 64.7813 17.0497 64.8817 17.0546C64.9615 17.0558 65.0269 17.0798 65.0269 17.1076C65.0269 17.1352 65.0509 17.1583 65.0803 17.1583C65.1099 17.1583 65.1656 17.1831 65.2043 17.2137C65.2736 17.2689 65.2734 17.2701 65.1935 17.3292C65.053 17.4328 65.0965 17.5304 65.3323 17.6413C65.4531 17.6983 65.5594 17.7783 65.5681 17.8186C65.5769 17.8593 65.5977 17.9056 65.6143 17.9217C65.6666 17.9726 65.604 18.1287 65.5449 18.095C65.5149 18.0781 65.5 18.0784 65.5115 18.0953C65.5229 18.1123 65.4937 18.1838 65.4462 18.2542C65.3839 18.3463 65.3198 18.3842 65.2139 18.3902C65.1334 18.3948 65.0736 18.4133 65.0813 18.4318C65.0889 18.4499 64.9479 18.4536 64.768 18.4399C64.5065 18.4199 64.4294 18.4305 64.3834 18.4918C64.3199 18.5772 63.9841 18.6124 63.809 18.5521C63.7422 18.529 63.6934 18.536 63.6787 18.5709C63.6659 18.6015 63.6191 18.6266 63.5749 18.6266C63.4719 18.6266 63.386 18.6751 63.386 18.7333C63.386 18.7582 63.4083 18.7788 63.4356 18.7788C63.4629 18.7788 63.4982 18.813 63.5142 18.8555C63.5321 18.903 63.6659 18.9676 63.8664 19.0252C64.2613 19.1391 64.5521 19.3131 64.5246 19.4192C64.5132 19.4607 64.4835 19.4811 64.4567 19.4658C64.43 19.4507 64.4166 19.4586 64.4271 19.484C64.4376 19.5089 64.4059 19.6007 64.3565 19.6874C64.2907 19.8035 64.2489 19.8365 64.1982 19.8129C64.1602 19.7947 64.1381 19.801 64.1487 19.8265C64.1594 19.8519 64.1144 19.875 64.0492 19.878C63.9837 19.8804 63.8221 19.922 63.6903 19.9698L63.4503 20.0568L63.5266 20.1774C63.5686 20.2435 63.6172 20.2978 63.6346 20.2978C63.6521 20.2978 63.7191 20.3347 63.7836 20.3802C63.8961 20.4593 63.8988 20.4675 63.849 20.5802C63.8162 20.6542 63.8097 20.7093 63.8315 20.729C63.8405 20.7371 63.8469 20.7507 63.8493 20.7667C63.8517 20.7826 63.8497 20.7994 63.8439 20.813C63.8298 20.8469 63.8114 20.8412 63.792 20.7969C63.7725 20.7524 63.7531 20.7463 63.7365 20.7799C63.7223 20.8081 63.6647 20.8645 63.6083 20.9048L63.5056 20.9782L63.6138 20.9951C63.7309 21.0139 63.7937 21.1436 63.7088 21.1921C63.6802 21.2085 63.6481 21.2091 63.6376 21.1936C63.6273 21.1785 63.5676 21.2085 63.5051 21.2603C63.4277 21.3204 63.3457 21.3644 63.2612 21.3912C63.1899 21.4112 63.1105 21.4579 63.0853 21.4955C63.0254 21.5843 63.002 21.5825 62.6843 21.4622C62.3991 21.354 62.3188 21.3643 62.2018 21.5228C62.1358 21.6119 62.1093 21.6161 61.9307 21.5673C61.6963 21.5031 61.255 21.4949 61.2802 21.5552C61.2897 21.5782 61.4099 21.6255 61.5471 21.6604C61.8966 21.7486 61.9359 21.7677 61.8785 21.8201C61.7791 21.911 62.2243 22.1262 62.6597 22.1971C62.7772 22.2162 62.881 22.2498 62.89 22.2717C62.8991 22.2935 62.8743 22.3723 62.8347 22.4465C62.7686 22.5711 62.7673 22.5884 62.8182 22.6714C62.8484 22.7211 62.8732 22.7742 62.8732 22.7896C62.8732 22.852 62.2944 22.762 62.1042 22.6696C61.8304 22.5372 61.2764 22.4405 61.2252 22.5162C61.1981 22.5562 61.1978 22.5908 61.2243 22.6381C61.2601 22.7017 61.3149 22.729 61.7709 22.9102C61.913 22.9666 61.9845 23.0205 61.9845 23.0712C61.9845 23.1354 61.9441 23.1421 61.7308 23.1136C61.5683 23.0915 61.4694 23.0984 61.4553 23.1318C61.4433 23.1606 61.4523 23.1842 61.4753 23.1842C61.4982 23.1842 61.5093 23.196 61.4996 23.2103C61.4767 23.2442 60.9925 23.0939 60.9444 23.0375C60.9064 22.9936 60.4074 22.8799 60.3009 22.8908C60.2679 22.8945 60.241 22.9257 60.241 22.9605C60.241 22.9954 60.233 23.0545 60.2233 23.0921C60.2065 23.1569 60.6239 23.2882 61.3433 23.4439C61.4515 23.4673 61.5957 23.5209 61.6638 23.5633C61.7319 23.6055 61.8357 23.64 61.8947 23.64C62.0494 23.6406 62.2718 23.7409 62.2358 23.794C62.2192 23.8188 62.0111 23.8455 61.7732 23.8534C61.5354 23.8613 61.3433 23.8716 61.3466 23.8764C61.3496 23.881 61.4282 23.9292 61.5211 23.9831C61.6829 24.0774 61.6867 24.084 61.6127 24.1428C61.5549 24.1886 61.4931 24.1904 61.3653 24.1498C61.1573 24.0837 61.1298 24.0828 61.1298 24.1422C61.1298 24.168 61.1756 24.2037 61.2319 24.2222C61.4189 24.2828 61.3784 24.3489 61.1543 24.3489C61.0238 24.3489 60.8918 24.381 60.8276 24.4283C60.7628 24.4762 60.6901 24.4938 60.6445 24.4723C60.5468 24.4265 58.9418 24.4086 58.9607 24.4541C59.0004 24.5492 58.552 24.5486 58.1693 24.4529C57.3944 24.2592 56.735 24.1492 56.3098 24.1422C56.0747 24.1386 55.7208 24.1043 55.5234 24.0658C55.2634 24.0178 55.0029 23.9772 54.742 23.944C54.5094 23.9155 54.3095 23.8834 54.2974 23.8725C54.2854 23.8619 54.1603 23.8385 54.0193 23.8207C53.8939 23.8052 53.7686 23.7873 53.6434 23.767C53.5063 23.7425 52.8826 23.6909 52.4297 23.6667C52.0418 23.6435 51.6543 23.6073 51.2675 23.5579C51.1545 23.5427 50.7161 23.5209 50.2932 23.5094C49.87 23.4973 49.3702 23.4688 49.182 23.4458C48.9941 23.4233 48.4743 23.4067 48.0265 23.4094C47.3498 23.4136 47.2075 23.4273 47.1804 23.4891C47.1529 23.5527 47.1434 23.553 47.1174 23.4933C47.0968 23.4461 47.0529 23.4327 46.9856 23.4524C46.9299 23.4691 46.8677 23.4576 46.8471 23.427C46.8265 23.3967 46.7589 23.3667 46.6969 23.3609C46.6359 23.3554 46.5753 23.3418 46.5157 23.3203C46.3108 23.2303 46.0973 23.2042 46.0113 23.2585C45.9422 23.3021 45.7699 23.2506 45.7938 23.1936C45.8026 23.1724 45.6379 23.1491 45.4277 23.1418C44.8618 23.1215 44.8033 23.1124 44.7392 23.0336C44.6871 22.9696 44.6819 22.9727 44.6922 23.0603C44.7001 23.1269 44.6873 23.153 44.6525 23.1409C44.6102 23.1288 44.5673 23.1224 44.5243 23.1218C44.482 23.1212 44.4475 23.1033 44.4475 23.0818C44.4475 23.0606 44.4227 23.029 44.3923 23.0118C44.3523 22.989 44.3427 23.0021 44.3578 23.0596C44.3719 23.1142 44.365 23.1263 44.336 23.099C44.3126 23.0769 44.1476 23.0518 43.9688 23.043C43.5931 23.0248 43.649 23.0248 41.8836 23.0339C41.1409 23.0381 40.4382 23.0248 40.3218 23.0048C40.2055 22.9845 40.0847 22.9827 40.053 23.0009C39.9948 23.0339 38.8782 23.099 38.535 23.0897C38.2668 23.0821 37.9625 23.3157 38.1317 23.3994C38.1569 23.4115 38.1393 23.4476 38.089 23.4873C38.042 23.5236 37.9951 23.573 37.9846 23.5964C37.9468 23.6812 37.6565 23.7288 37.5742 23.6634C37.5221 23.6221 37.3846 23.6076 37.1681 23.6197C36.988 23.63 36.3963 23.6506 35.8536 23.6652C35.3106 23.68 34.8291 23.7058 34.7833 23.7228C34.7377 23.7397 34.5437 23.7573 34.3521 23.7616C34.1606 23.7658 33.9731 23.7949 33.9355 23.8261C33.8683 23.8822 33.5512 23.974 33.4982 23.9528C33.4328 23.927 33.3112 23.9334 33.2006 23.9689C33.1348 23.9901 33.0501 24.0034 33.0125 23.9989C32.9749 23.9943 32.9133 23.9864 32.8757 23.9813C32.8381 23.9764 32.6613 23.9995 32.4827 24.0319C32.3041 24.0646 32.0914 24.091 32.0101 24.0904C31.9289 24.0898 31.8441 24.111 31.822 24.1374C31.7999 24.1637 31.7318 24.201 31.6707 24.2204C31.5797 24.2492 31.5597 24.2401 31.5597 24.1698C31.5597 24.094 31.5315 24.088 31.3117 24.1201C31.1755 24.1398 30.8177 24.161 30.5171 24.1674C30.2162 24.174 29.8871 24.2059 29.7858 24.2386C29.7193 24.2614 29.6524 24.2812 29.5851 24.298C29.576 24.298 29.5876 24.3322 29.6111 24.3741C29.6345 24.4159 29.7057 24.4498 29.769 24.4498C29.8326 24.4498 29.8846 24.4595 29.8846 24.471C29.8846 24.4829 29.894 24.5286 29.9052 24.5726C29.9339 24.6823 29.8375 24.6768 29.7616 24.5644C29.7185 24.5007 29.6981 24.4938 29.6878 24.5395C29.6801 24.5741 29.6595 24.5895 29.6424 24.5741C29.6252 24.5583 29.6111 24.5638 29.6111 24.5862C29.6111 24.6089 29.5765 24.6302 29.5342 24.6335C29.4918 24.6368 29.2574 24.6656 29.0128 24.6971C28.7686 24.7287 28.2762 24.7635 27.9188 24.7747C27.5617 24.7856 27.2309 24.8075 27.184 24.8226C27.0247 24.8741 26.149 24.9944 25.6798 25.0287C24.8103 25.0923 24.1511 25.2766 24.0153 25.4939C23.9727 25.5618 23.8978 25.6167 23.844 25.6194C23.4016 25.6406 22.7872 25.7088 22.5177 25.7667C22.3714 25.7965 22.2248 25.8216 22.0779 25.8418C21.9419 25.8602 21.8063 25.8866 21.6716 25.9209C21.5771 25.9476 21.4941 25.9694 21.4875 25.9694C21.4806 25.9694 21.4751 25.9109 21.4751 25.8397C21.4751 25.7685 21.4602 25.7236 21.4419 25.7403Z" fill="#FCC419"/>
</svg>
