<svg fill="none" height="70" viewBox="0 0 200 70" width="200" xmlns="http://www.w3.org/2000/svg"><g clip-rule="evenodd" fill="#fcc419" fill-rule="evenodd"><path d="m52.1581 69.3037c-.0586.0516-.1809-.1529-.271-.4513-.095-.3169-.2407-.5453-.3487-.5453-.1463 0-.1581-.046-.0556-.2164.0988-.1658.0951-.2312-.0148-.2828-.1124-.0525-.1074-.1262.0234-.3472.126-.2146.1328-.2966.0272-.3463-.0759-.035-.1383-.1317-.1383-.2146s.0494-.1078.1099-.0553c.0624.0534.0809-.0092.0432-.1455-.0364-.1317-.0092-.2395.0605-.2395.092 0 .0945-.0829.008-.3076-.095-.2469-.0845-.3076.0556-.3076.1407 0 .1481-.0396.0358-.2064-.1432-.2127-.4216-.0221-.3852.2644.0093.0737-.0413.1649-.1123.2008-.0852.0442-.1074-.0498-.0655-.2736.0352-.1879.0186-.3039-.037-.2588-.0549.0442-.1994.0304-.321-.0322-.1753-.0894-.1234-.1363.2488-.2248.2932-.07.4703-.1934.4703-.3288 0-.1197.0963-.2173.2149-.2173.1179 0 .2827-.1354.366-.3012.1494-.2957.7124-.7.8951-.642.0518.0157.3753-.0691.7191-.1897.4348-.1434.8743-.2528 1.3167-.3279.3802-.0599.7191-.1713.7531-.2478.0339-.0764.1709-.14.3043-.1418.1327-.0019.5407-.2082.9055-.4587.3655-.2496.7482-.4559.8506-.4578.1031-.0018.2179-.0736.2556-.1574.0377-.0848.0123-.1539-.0562-.1539-.1537 0-.0987-.688.0562-.7036.0611-.0056.329-.0977.5957-.2027.2666-.1068.6062-.1519.7549-.0994.1482.0515.4278.0258.621-.0571s.629-.2257.9685-.3187c.9321-.2533 1.429-.4651 1.429-.6079 0-.1492-5.674-.0461-7.079.1289-.7401.0921-1.0222.0663-1.3271-.1179-.213-.1289-.4124-.244-.4426-.2569-.0309-.012-.2006-.106-.3784-.2073-.1778-.1022-.4019-.1436-.4982-.0921-.0956.0525-1.5679.1198-3.2716.1502-1.703.0304-3.3209.1243-3.5944.2081-.2735.0848-1.0938.234-1.8228.3316-.729.0995-1.421.2505-1.5371.3371-.1166.0866-.4549.1253-.7518.0857-.2976-.0406-.5673-.012-.6.0617-.0327.0736-.1062.0939-.163.046-.0562-.0488-.1025-.0156-.1025.0737 0 .0903-.037.1492-.0833.1326-.1839-.0672-1.1333.2119-1.1333.3344 0 .1501-.8358.3997-1.1519.3444-.116-.0211-.3049.1013-.4191.2727-.1142.1704-.2926.3186-.3969.3288-.1043.0092-.4877.0331-.8531.0516-.3642.0184-.8623.1123-1.1056.2099-.2438.0986-.6308.2174-.8604.2644-.2297.0479-.3908.1474-.3581.221.1031.2321-.1426.2929-2.0642.5103-.1024.012-.1771.0875-.1666.1676.0111.0802-.0797.1861-.2013.2358-.1755.0879-.3434.207-.5.3546-.2012.1907-.6203.2929-1.4938.3638-.6673.0544-1.3284.0921-1.4691.0829-.1408-.0092-.4087.094-.5957.2284-.1926.1382-.3691.1833-.4074.1032-.0957-.1971-.4852-.3868-.4-.1934.0901.2026-.0173.1915-.3117-.0304-.5945-.4486-3.4087-.1078-3.7025.4476-.0907.1722-.1006.2883-.0272.3224.063.0294.1142.1142.1142.1897 0 .0746-.0697.0986-.1543.0534-.0852-.046-.1876-.0092-.2284.082-.1068.2413.5556.2063.9136-.0488.1642-.117.5228-.2634.7963-.3261.2741-.0617.5852-.1354.6914-.163.1067-.0276.1938.0405.1938.152 0 .1427.1376.186.4697.1501.3636-.0396.426-.0156.2747.1069-.108.0865-.171.2136-.1407.2827.0654.1474-.5531.2966-1.75.4209-.6729.0691-.892.0415-.9661-.1215-.0703-.1539-.0969-.1594-.0987-.0194-.0019.2828-.6667.2367-.905-.0626-.1111-.14-.2024-.1898-.2024-.1096 0 .0884-.3587.1041-.9124.0405-.5018-.0589-1.2858-.1446-1.7419-.1907-.4568-.046-.9933-.1657-1.1933-.2643-.1993-.0976-.487-.1455-.6382-.105-.1519.0396-.3068.0018-.3457-.0838-.0426-.0967-.0136-.1096.0753-.0332.0901.0774.1179.0645.0741-.035-.0834-.1879-.6111-.3573-1.2352-.3979-.3685-.0239-.4445-.0838-.4543-.3592-.0111-.2947.0654-.3426.7185-.4485.4025-.0645.8555-.1032 1.0074-.0847l.2765.0331-.2932-.221c-.5092-.385-1.0049-.5481-1.974-.6466-.5173-.0525-1.2636-.2091-1.6593-.3472-.9093-.3178-4.06481-.3427-4.20246-.0323-.04701.1065-.14065.142-.21605.082-.18518-.1593-2.22098-.2118-2.15123-.0571.0642.1464.04815.1483-1.39876.21-1.02161.0433-1.45247.0958-2.98148.3638-.69753.1216-1.10494.0516-1.5037-.2579-.16667-.1308-.13087-.2045.2716-.5572.32346-.2855.71976-.4523 1.31729-.5573 1.02036-.1796 1.99382-.4052 2.69505-.6263.41975-.1317.50309-.2127.45926-.4467-.03148-.1676-.11728-.2523-.20864-.2026-.08519.0451-.15494.0055-.15494-.0884 0-.094.08642-.1713.19321-.1722.16543-.0019.16975-.024.02778-.152-.10494-.094-.11667-.1502-.03087-.1511.07408-.0018.10618-.1068.07037-.2348-.04444-.1612.06605-.3113.36297-.4956l.42716-.2634-1.08025-.0921c-.58024-.051-1.16134-.0771-1.74259-.0783-.36419.0092-.66111.0074-.66111-.0037 0-.0101.09877-.1786.22099-.3739.1216-.1953.22099-.3076.22099-.2505s.11234.0018.24938-.1234c.13704-.1244.6179-.3067 1.06913-.4035.45062-.0976 1.01667-.2744 1.25803-.3923.27217-.1267.55408-.201.83888-.2211.61605-.0083 2.16728-.5692 1.71914-.6217-.10845-.0198-.21619-.0475-.32284-.0829-.11863-.0378-.23736-.0749-.35618-.1114-.25308-.0774-.26913-.2266-.0358-.3297.1284-.0572.36296-.2708.52222-.4762s.4-.373.53581-.373c.1358 0 .3037-.0949.37345-.2119.1037-.1731.01235-.2293-.51234-.3122-.32367-.0504-.64676-.1087-.96914-.175-.43456-.0976-2.16234-.0838-2.28086.0184-.16049.1382-1.4253.2026-1.4253.0737 0-.0691.07469-.2109.16666-.3159.09074-.1059.16543-.2644.16543-.3528s-.03271-.1151-.07284-.0589c-.04012.0552-.1395.0239-.22098-.07-.0821-.0949-.14815-.106-.14815-.0249 0 .081-.07531.1474-.16667.1474-.26543 0-.19259-.1649.17284-.3896.4105-.2533.35185-.3592-.31049-.5591-.6037-.1842-.71852-.4697-.2858-.7129.44814-.2514 2.55246-.5775 3.75555-.5821.56419-.0018 1.1574-.0497 1.31851-.1059l.29383-.1023-.31482-.3592c-.17407-.1971-.39999-.361-.50246-.3638-.26235-.0083-.34198-.2523-.20124-.618.14815-.3868 1.11049-1.0804 1.49691-1.0804.16297 0 .25741-.0663.21852-.1538-.03765-.0847-.15987-.1538-.2716-.1538-.18704 0-.39506-.3841-.35432-.6539.04197-.2745-1.71296.0322-1.85988.3251-.11234.2229-2.93703.8077-3.21419.6641l-.26481-.1354.2574-.1916c.14136-.1059 1.0605-.3776 2.04198-.6061 1.79629-.4163 2.23394-.7101 1.05678-.7101-.36172 0-.69444-.0884-.80246-.2118-.15432-.1769-.36667-.1815-1.26297-.0295-1.64814.28-2.60493.4725-2.82962.5683-.14876.0635-.19383.0184-.16667-.1695.04074-.2726.38272-.5922.91976-.8593.46172-.2293.17469-.4311-.41605-.2929-.25618.0608-.68951.1584-.96296.2183l-.49815.1077.41481-.5526c.2284-.3039.41482-.5775.41482-.6079s-.30865-.104-.68519-.163c-.893206-.1409-1.36974851-.4881-1.363693-.9938.00320373-.2671.719252-.6235 1.384683-.6908.27407-.0285.89691-.1612 1.38333-.2956.48642-.1345 1.23333-.2763 1.65926-.3141.48138-.0469.96123-.124 1.43827-.2312 2.26604-.5535 2.77592-.6908 2.87407-.7681.05987-.0479-.1142-.1631-.38704-.2552-.27469-.093-.4963-.2579-.4963-.3702 0-.2588 1.11482-.8216 2.12654-1.073.49193-.1225.85613-.304.97533-.4882.1068-.1639.4771-.3702.8432-.4706.8315-.2275.8086-.444-.0945-.9082-.1932-.0995-.3296-.2606-.3024-.3592.0629-.222.5753-.5618.8494-.5618.1129 0 .1746-.07.137-.1538-.037-.0848-.4383-.1548-.8914-.1548-.7456 0-1.045-.1566-.6851-.3592.3228-.1814-1.2914-.0829-2.08893.1262-.99259.2616-1.53333.152-1.53333-.3095 0-.2137.2895-.4927 1.08642-1.0509.74999-.5259 1.04012-.8013.9395-.8916-.19136-.1713-.00247-.3472.73951-.688 1.04693-.4817 1.87773-1.2876 1.76853-1.7177-.0741-.2929.3339-.4532 2.0203-.7921.8377-.1686 1.6772-.4126 1.8649-.5434.1876-.129.5851-.2763.8833-.327.8222-.1372 2.3951-.6908 2.6407-.9293.1198-.1161.3685-.2165.5531-.2229.184-.0055.434-.07.5556-.1428.1765-.105.1315-.1363-.221-.1547-.9426-.0488-1.4432-.1778-1.5679-.4053-.0852-.1556-.2185-.2026-.3871-.1381-.2216.0829-.2296.0737-.0617-.0737.1074-.093.2821-.1501.3871-.1262.1167.0215.2351-.0083.3407-.0857.0876-.0764.2599-.046.4216.0737.2123.1585.3185.1631.4815.0212.1327-.1151.2345-.1262.2765-.0313.0371.0829.3506.1529.6963.1566.3463.0027.7543.1041.9062.2247.3315.2634.4426.2828.4426.0774 0-.0848-.0778-.1538-.1729-.1538-.0944 0-.145-.0617-.1111-.1363.0327-.0756-.0438-.175-.1716-.2211-.1271-.046-.2098-.175-.1833-.2864.0488-.2054.5438-.3261 2.0765-.5048 1.3846-.1621 1.7698-.2487 1.7698-.3997 0-.0801-.0741-.1446-.1661-.1446-.0919 0-.1654-.1372-.1654-.3076 0-.2257.0741-.3077.2765-.3077.3179 0 .3723-.2376.0784-.3444-.1086-.0396-.6685-.035-1.2444.0101-1.6759.1317-2.3469.0884-2.6975-.1759-.1784-.1345-.3556-.2165-.3951-.1833-.0389.0341-.05-.1336-.0247-.3721.055-.5195-.1012-.6005-1.2364-.6447-.6796-.0258-.7327-.0489-.4963-.2192.3889-.28 1.8142-.6816 2.6642-.7516.4346-.0359.8444-.1621.992-.3058.3148-.3058.5037-.3104.716-.0147.0957.1335.3624.2302.6284.2275.8198-.0056 3.8784-.4385 4.2938-.6079.3877-.1566.3994-.1824.3179-.6871-.0518-.3178-.0401-.5867.029-.6834.0791-.1106.076-.2248-.0104-.3694-.2642-.443.0716-.5342 1.6858-.4605 1.2543.058 1.6456.0267 1.9-.1538.2691-.1916 1.4833-.455 2.3117-.502.1216-.0073.4697-.0746.774-.1501l.5531-.1382-.4975-.1114c-.2741-.0617-1.0951-.0765-1.8253-.0332-.7739.0444-1.5484.0637-2.3228.0581-.5476-.012-1.6173.0921-2.3778.2302-1.5049.2726-3.0568.4633-3.7247.4578-.2327-.0019-.4549.0571-.4926.1308-.0383.0736-.2253.1427-.4148.1538-.1901.011-.3457.0773-.3457.1473s-.1117.0829-.2487.0295c-.1951-.0755-.213-.0617-.0828.0645.1426.1391.1389.1621-.0277.1639-.1068.0019-.1939.0792-.1939.1741 0 .105-.1049.0755-.2722-.0774-.3025-.2763-.4358-.3186-.3438-.1114.0333.0746-.0383.1722-.1593.2164-.1259.0461-.2197.0037-.2197-.0985 0-.1032-.1747-.1778-.4148-.1778-.2636 0-.4056.0673-.3889.1852.0179.1271-.1019.1621-.3827.1123-.4605-.0829-.9149-.4402-.9173-.7239-.0013-.1216-.0402-.1059-.1087.0414-.0833.1796-.1074.1345-.1092-.2026-.0019-.5545.1802-1.0279.3963-1.0279.0926 0 .1376-.0691.1-.1538-.0371-.0847.0216-.1593.1314-.1658.3642-.0221.5963-.1151.8426-.3398.221-.2008.7408-.1235.7408.1105 0 .0423-.0673.0414-.1482-.0019-.0821-.0432-.2185.0415-.3043.1879-.1346.2303-.1346.2487.0012.1363.1204-.1013.1389-.0672.0791.1502-.047.1685-.021.3325.0642.408.2117.186.3895.151.1975-.0396-.1253-.1234-.0611-.1437.2586-.082.2346.0461.5148.0037.6272-.093.1531-.1336.2407-.1308.3642.011.1302.1511.1784.1345.2469-.0856.0475-.1511.0784-.3251.0685-.3887-.0092-.0645.0531-.116.1395-.116s.1753-.0793.1988-.175c.0234-.0977.1883-.1981.3667-.2248.179-.0267.3802-.1538.4481-.2837.0679-.1289.1636-.1842.213-.1215.0493.0617.0586-.0092.0203-.1566-.0852-.3316.126-.3629.2173-.0322.058.2109.0895.2081.2729-.0231.1963-.2477.208-.2459.2098.0313.0013.246.0185.2561.1087.0627.1598-.3445.137-.4191-.1593-.5223-.1876-.0663-.2642-.1934-.2518-.419.0191-.3592.4043-.6273.8487-.5913.4136.034.779-.164.779-.4228 0-.1658.1099-.2146.4149-.1842.4456.046 1.1956-.1271 1.4654-.338.1339-.1041.1234-.1317-.0556-.1419-.2583-.0208-.5164-.0484-.774-.0829-.9408-.1234-2.1914-.1197-2.6433.0074-.3092.0875-.4086.0728-.3537-.0525.0482-.1068.0186-.1418-.0777-.0903-.0914.0489-.2383-.0921-.355-.3407-.1419-.3021-.1605-.4403-.0654-.4845.0895-.0415.0679-.1336-.0661-.2791-.182-.1989-.1703-.2109.1321-.1381.1828.0442.2698.0396.1939-.0092-.2803-.1843-.126-.374.3043-.374.279 0 .4426.0709.4444.1934.0007.1409.026.1363.0963-.0175.0599-.1308.121-.1501.1648-.0516.0741.1668.2149.1539.5605-.0525.1186-.07.3791-.1326.5791-.1381.4586-.0129.6074-.3951.1543-.3951-.1797 0-.3445-.1004-.3803-.2303-.0432-.1566.005-.2312.1482-.2312.1173 0 .2524-.0866.3006-.1934.1272-.2754.5778-.6014.6938-.502.0543.0461.1296.0148.1679-.0718.0383-.0857.2068-.1566.3747-.1566s.5759-.1123.9062-.2496c.5216-.2173.5679-.2671.3555-.3776-.1358-.0709-1.0586-.1197-2.0524-.1078-.9939.012-1.8722-.035-1.9519-.1031-.0821-.071-.1771-.0507-.2197.046-.0889.1999-3.5278.3519-3.613.1594-.0302-.0673-.1321-.082-.2265-.0314-.1161.0618-.1315.1262-.0469.1981.0679.0589-.0272.1068-.2124.1068s-.3358-.0654-.3358-.1474c0-.0801-.0759-.0589-.1685.0479-.0926.1078-.2037.1456-.2469.0857-.0438-.0599.0444-.2404.1957-.4007l.2746-.291-.2765.0737c-.242.0645-.2488.0562-.0556-.0719.3192-.2118.8439-.1888 1.1513.0479.2994.2303.6741.1548.6741-.1372 0-.1345.2185-.1943.7191-.198.4506-.0037.7191.0571.7191.163 0 .093.0618.0553.1383-.0829.0994-.1824.3994-.28 1.0784-.3509.5167-.0553 1.2543-.1971 1.6383-.31593.3839-.11974.8567-.22382 1.0506-.23211.1938-.00828.6018-.1096.9055-.22473.5185-.1971.4605-.20539-.9401-.12618-.821.04605-1.5679.08473-1.6593.08658-.0907.00092-1.2358.16486-2.5432.36289-1.3086.19894-2.7345.38218-3.1691.40798-.4352.0258-.7679.0986-.7407.1621.0284.0645-.1636.1161-.426.1161-.2617 0-.924.1013-1.4716.2238-.9388.21-3.1475.4274-2.8475.2791.0766-.0369.1111-.1317.0766-.2091-.0346-.0774.0771-.1437.2481-.1474.171-.0046.4846-.139.6975-.2993.213-.1612.4871-.35736.6087-.43565.4-.25974 6.9234-1.76104 8.4617-1.94801.4562-.05526 1.7753-.23763 2.9309-.40526 1.1561-.16763 2.6814-.3721 3.3901-.45407.7086-.08289 1.5284-.2496 1.821-.3721.3845-.16118.553-.175.6086-.05158.0698.15658 1.2333.11421 2.642-.09763.4972-.06184.995-.11342 1.4932-.15473 1.0913-.09487 2.7543-.41447 3.6852-.70736.2629-.0829.5246-.11053.5814-.06171.0574.04973.8278-.06356 1.713-.24961 1.3086-.27631 1.6562-.30394 1.8617-.15105.2074.15474.4729.12895 1.4599-.14184 1.6432-.45131 3.7876-1.03709 4.8568-1.3263.4864-.13263 1.1932-.33894 1.571-.4596.3777-.11973.8506-.21736 1.0506-.21736.2006 0 .5883-.09856.8623-.22105.4611-.2054 1.4062-.43289 3.9266-.94776.9624-.1865 1.9214-.41069 2.8759-.67236.608-.16026 1.6037-.405255 2.2123-.544332l1.4383-.331575c1.2907-.2965755 1.537-.2910493 1.7938.041447.1383.178682.2519.403416.2519.500126 0 .095788.037.165784.0827.156574.0457-.01013.1975-.01013.3358 0 .2117.01474.2346.06448.142.30579-.1352.35184-.0266.54157.1759.30763.2284-.26342.1759-.02671-.0864.39328-.1377.22013-.4136.41723-.6686.4771-.3709.0875-.4135.13539-.2944.33526.1784.29934.0278.31776 7.1154-.87499.4864-.08289 1.358-.18237 1.9358-.22289.5778-.04145 1.6235-.14737 2.3229-.23579.6993-.08934 1.6203-.18973 2.0463-.22381.4259-.03316.9709-.13263 1.2111-.22013.2407-.087499 1.195-.163946 2.1209-.168551.926-.005526 1.7494-.040526 1.8303-.078289.1988-.093025 2.7907-.281838 3.4074-.248681.2728.015658.5722.12342.6654.240392.208.262499.7389.288289 3.208.15934 1.1352-.059867 2.1772-.195261 2.5192-.327891.4469-.173156 1.1876-.22105 3.1524-.202629 1.4131.014737 3.7641-.027631 5.2231-.091183 2.959-.128946 2.801-.130788 5.863.054341 1.982.119736 3.126.124341 4.866.021184.305-.01842.466-.064473.36-.103156-.107-.038684-.194-.142762-.194-.231182 0-.10591958.311-.1307877.913-.071841.502.0497362 2.007.160261 3.345.245918 1.339.085657 3.056.227497 3.816.313154 3.056.349996 4.221.472494 5.808.613414 3.968.35276 6.06.49276 8.24.55263 1.004.02855 2.248.09855 2.765.15657.571.06029 1.143.0904 1.715.09026.426-.00736 1.271.05527 1.88.13816s2.578.18145 4.378.21921c1.8.03684 3.492.13447 3.761.21736.269.0829.879.1879 1.358.23303.478.04605 1.024.11973 1.216.16302.654.14921 1.675.2496 3.168.31316 1.315.0571 2.593.19249 4.48.47525.304.04606.727.10132.94.12527.213.02394.761.0875 1.217.14184.457.05526 1.228.14092 1.714.19342.487.05157.91.11513.94.14091.031.02672.339.08935.685.14092.346.05066.702.13171.79.17961.09.04697.603.10684 1.142.13171 1.478.07 1.476.06907 1.476.31776 0 .1271.053.23026.118.23026.064 0 .08-.08013.037-.17961-.055-.1225-.019-.14736.113-.07644.106.05618.302.10315.437.10315.164 0 .249.09948.26.30763.02.36842-.04.385-.262.07645-.231-.32237-.49-.2975-.413.03868.039.16579.027.20263-.03.09763-.064-.11697-.376-.13908-.979-.06908-1.038.11974-1.821.0875-3.263-.13815-.578-.09119-1.325-.20263-1.659-.24776-.335-.04605-.667-.10961-.738-.14184-.071-.03224-.158.04605-.193.17499-.048.17316-.152.20632-.405.12895-.396-.12066-.651-.16671-1.706-.30763-.426-.0571-.804-.12894-.84-.16026-.078-.06631-1.557-.07737-3.584-.02763-1.286.03316-2.193-.05526-2.869-.27815-.382-.12527-3.048-.17961-3.048-.06171 0 .06078.335.16026.746.22105.41.06171.846.13815.968.17223.853.23395 3.139.49736 4.977.57105.426.01842.827.07921.891.13631.107.09487 3.494.46236 3.676.39881.043-.01566.452.02026.908.08013.706.09119 2.507.27539 2.959.3021.163.00921.183.20816.033.33711-.108.0921-.942.1142-1.696.04421-.23-.02211-.459-.13079-.509-.24224-.067-.15013-.257-.175-.742-.09855-.36.05803-.686.13263-.727.16579-.041.03408-.15-.04329-.242-.17224-.092-.12894-.194-.17407-.226-.10131-.063.14-2.295.08013-2.942-.07921-.213-.0525-.589-.11053-.834-.12711-.246-.01842-.557-.11328-.692-.21368-.195-.14552-.244-.14092-.244.02303 0 .12158-.148.22197-.359.24592-.875.09855-2.099.08934-3.07-.02303-.698-.08105-.996-.07092-.888.0304.436.40525-.382.60604-1.656.40525-1.13-.17868-1.331-.18789-1.819-.08473-.252.05342-.605.04237-.785-.02487-.474-.17684-2.936-.48907-4.032-.5121-.554-.0136-1.108-.05538-1.66-.12526-.395-.05803-1.191-.14092-1.769-.18421-1.015-.08681-2.029-.18844-3.042-.30486-1.205-.13458-2.412-.2445-3.619-.32974-1.46-.0921-1.636-.07736-1.7.1529-.06.21828-.252.25512-1.302.2496-.678-.00369-1.456.04973-1.73.11789l-.497.12526.829.17132c.456.09486 1.004.17039 1.216.16763.214-.00277 1.085.10315 1.936.23394.852.13079 2.469.31592 3.595.40986 1.125.09487 2.157.2054 2.292.24592.136.04053 1.256.14092 2.489.22382 2.217.14736 3.77.26894 4.952.38499.335.03316 1.483.12987 2.551.21553 1.069.08565 2.014.18697 2.102.22473.088.03684.259.12066.38.18421.122.06447.413.13631.647.15934.233.02395.483.15289.553.28736.102.19342.39.25145 1.4.28368.699.02211 1.321.0829 1.382.13448.061.05157.484.13539.94.1842 2.181.23763 4.362.43105 5.364.47526.609.02671 1.904.16947 2.877.31686.973.1473 2.217.292 2.765.3205 3.789.1934 6.816.4393 8.406.6797.548.0829 1.507.1953 2.133.2496.625.0553 1.163.1585 1.195.2303.032.0728-.106.1382-.307.1446s-.506.0267-.679.0442c-.171.0166-.333-.0175-.36-.0774-.026-.0589-.232-.0368-.457.0489-.228.0875-.728.1123-1.132.0552-.399-.0552-2.516-.1289-4.707-.1612-2.19-.0331-4.803-.105-5.806-.1602-1.79-.0967-2.297-.0369-1.123.1326.326.0461.616.1188.646.1593.079.1106-.326.3814-.662.444-.39.0737-.514.268-.18.2855.148.0065.915.0774 1.706.1566.79.0783 2.345.1842 3.456.2339 1.825.0829 2.019.117 2.019.3602 0 .3389.444.419 3.128.5627 1.082.058 1.994.164 2.026.2358.031.0709.276.1289.542.1289.909 0 .655.4256-.463.7719-.315.0976-.737.1648-.939.1492-1.348-.1041-.994.1989.517.4439.609.0986 1.454.2119 1.88.2533.426.0415 1.198.1437 1.715.2284.517.0839 1.562.199 2.323.2542.936.0691 1.418.1668 1.493.304.061.1105.456.2459.885.3012.426.0552.824.1842.885.2883.06.1031.474.2348.918.2919s.92.2054 1.055.3298c.157.1427.636.2505 1.295.2938 1.421.0921 2.534.2652 2.596.4043.065.1455-.904.3546-1.052.2266-.062-.0525-.111-.0295-.111.0506 0 .0802.174.1907.387.2469.42.1096.5.3012.193.466-.361.1953.145.5038 1.282.7829.955.233 1.559.5222 1.118.5351-.413.012.225.2837.889.3777.395.0571.776.1694.847.2514.071.0811.443.2183.828.3049 1.069.2394 1.057.4329-.033.5517-.408.0442-.78.1759-.892.3159-.158.1953-.35.2192-1.051.128-1.426-.1851-1.709-.1492-1.923.245-.105.1934-.169.3998-.142.4596.026.059.382.1566.793.2155.41.059.795.1612.856.2285.061.0663.347.1694.636.2293.793.1639.63.3813-.286.3813-.446 0-.849.0525-.895.1161-.046.0635-.51.1151-1.031.1151-.659 0-.962.0589-.994.1925-.033.1317.086.1925.376.1934.234 0 .599.0645.811.1418.213.0774.809.1843 1.324.2386.515.0534.992.1621 1.061.2413.068.0792.154.1032.189.0544.036-.0498.18-.0323.321.0377.199.0986.081.1501-.516.2257-.706.0893-1.511.314-1.936.5406-.27.1437.15.3021 1.41.5305.623.1133 1.134.2469 1.134.2966 0 .0507.323.0627.719.0277.578-.0507.718-.0194.718.1611 0 .2791-.35.735-.561.7323-.13-.0019-.129-.0277.008-.152.142-.1271.137-.1492-.031-.1511-.108-.0018-.226.105-.263.2367-.055.2027-.256.2266-1.351.1575-1.373-.0856-1.71.0166-1.457.4403.423.7092 2.15 1.4718 3.338 1.4718.717 0 1.092.1861 1.092.5434 0 .1787-.177.2248-.857.2211-.472-.0009-1.057-.0755-1.3-.1649-.244-.0893-1.39-.1934-2.548-.2321-2.047-.0672-2.106-.0608-2.122.2395-.016.2966.119.5093.356.5628.061.0138.538.1372 1.061.2744 1.709.4476 3.227.7212 4.781.8594 1.439.1289 1.93.3048 1.782.6401-.034.0764-.11.0976-.168.0479-.058-.0498-.092 0-.076.1133.018.1123-.055.1934-.161.1823-.106-.0119-.169.0323-.139.0986.029.0654-.116.1639-.323.2173-.446.117-.552.3943-.324.8483.122.2423.136.3869.049.5324-.143.2385-.05.4016.228.4016.112 0 .204.0294.204.0644 0 .036.032.1842.072.3316.068.2441-.006.2579-.912.163-.542-.0552-1.173-.1427-1.401-.1934-.33-.0728-.414-.0424-.414.1492 0 .1317-.081.3021-.179.3786-.253.1971-.101 1.084.216 1.2618.228.128.229.1354.018.1547-.221.0203-.221.0203 0 .1529.216.129-.086.1842-1.217.2229-.472.0157-.829.2229-.829.4799 0 .1381-.115.221-.304.2229-.187.0046-.373.0367-.556.0958-.236.0875-.239.1059-.055.3002.108.1142.332.2091.498.2119.167.0027.631.2477 1.032.5434.405.2993.891.5388 1.092.5388.67 0 1.716.1962 1.665.3122-.029.0636.033.105.137.094.105-.0097.2.0924.227.244.05.339-.603.922-.94.84-.134-.0331-.263.0157-.285.1078-.052.2174-1.343.2791-1.859.0884-.219-.081-1.352-.1658-2.516-.1888-1.969-.0387-2.55.0396-1.814.2459.167.0461.528.1548.802.2413.319.0937.643.1483.968.1631.258.0036.47.0764.47.1611 0 .0839.077.1538.173.1538.095 0 .275.0756.401.1686.224.1676.223.1713-.035.3509-.455.315-.314.6116.449.9487.391.1731.735.4163.763.5388.028.1234.096.2643.149.3132.169.1547-.033.629-.224.5268-.097-.0516-.145-.0507-.108.0009s-.058.269-.212.4826c-.201.28-.409.3952-.751.4136-.261.0138-.454.07-.429.1262.024.0552-.432.0663-1.014.0248-.846-.0608-1.096-.0285-1.244.1575-.206.2598-1.292.3666-1.859.1833-.216-.07-.374-.0488-.422.0571-.041.0931-.192.1695-.335.1695-.334 0-.612.1474-.612.3242 0 .0755.073.1382.161.1382s.202.104.254.233c.058.1446.491.3408 1.14.5158 1.278.3463 2.218.875 2.129 1.1973-.036.1262-.132.1882-.219.1419-.087-.0461-.13-.0221-.096.0552.034.0755-.069.3546-.228.618-.213.3528-.349.4532-.513.3814-.123-.0553-.194-.036-.16.0414.035.0774-.111.1474-.322.1566-.212.0073-.734.1335-1.161.2791l-.777.2643.247.3666c.136.2008.294.3656.35.3656.057 0 .273.1124.482.2505.364.2404.373.2653.212.6079-.107.2248-.128.3924-.057.4523.029.0244.05.0659.057.1144.008.0485.002.0995-.017.1407-.046.1032-.105.0856-.168-.0488-.063-.1354-.126-.1538-.18-.0516-.045.0857-.232.257-.414.3795l-.333.2229.351.0515c.379.0571.582.4513.307.5987-.093.0498-.196.0516-.23.0046-.034-.046-.227.0452-.429.2026-.251.1826-.516.3163-.789.3979-.231.0608-.488.2027-.569.3169-.194.2698-.27.2643-1.298-.1013-.923-.3288-1.183-.2975-1.561.1842-.214.2708-.299.2837-.877.1354-.759-.1953-2.187-.2202-2.105-.0369.031.07.42.2137.863.3196 1.131.268 1.259.3261 1.073.4854-.322.2763 1.119.9303 2.527 1.1458.381.058.717.1603.746.2266s-.051.3058-.179.5314c-.214.3786-.218.4311-.054.6834.098.1511.178.3123.178.3592 0 .1898-1.873-.0838-2.488-.3647-.886-.4025-2.678-.6963-2.844-.4661-.088.1216-.089.2266-.003.3703.116.1934.293.2763 1.769.8271.459.1713.691.3353.691.4891 0 .1952-.131.2155-.821.1289-.526-.0672-.846-.046-.891.0553-.039.0875-.01.1593.064.1593s.11.0359.079.0792c-.074.1032-1.641-.3536-1.797-.525-.122-.1335-1.737-.4789-2.082-.4457-.106.011-.193.1059-.193.2118s-.026.2855-.058.3997c-.054.1971 1.296.5959 3.624 1.0694.35.0709.817.2339 1.037.3628.221.1281.556.2331.747.2331.501.0018 1.221.3067 1.104.4679-.054.0755-.727.1565-1.497.1805-.769.0239-1.391.0552-1.38.07.01.0138.264.1602.565.3242.523.2864.535.3067.296.4854-.187.1391-.387.1446-.801.0212-.673-.2008-.762-.2036-.762-.0231 0 .0783.149.187.331.2432.605.1842.474.385-.252.385-.422 0-.849.0976-1.056.2413-.21.1455-.445.1989-.593.1336-.316-.1391-5.509-.1935-5.448-.0553.128.2892-1.322.2874-2.561-.0037-2.507-.5885-4.64-.9229-6.016-.9441-.761-.011-1.906-.1151-2.545-.2321-.841-.146-1.684-.2694-2.528-.3702-.752-.0866-1.399-.1842-1.438-.2174-.039-.0322-.444-.1031-.9-.1575-.406-.047-.811-.1014-1.216-.163-.444-.0746-2.462-.2312-3.927-.3049-1.255-.0704-2.509-.1806-3.761-.3306-.365-.0461-1.784-.1124-3.152-.1474-1.37-.0368-2.987-.1234-3.595-.1934-.609-.0682-2.291-.1188-3.739-.1105-2.19.0129-2.65.0543-2.738.2422-.089.1934-.12.1943-.204.0129-.066-.1437-.208-.1842-.426-.1244-.181.0507-.382.0157-.448-.0773-.067-.0921-.286-.1833-.486-.2008-.198-.0169-.394-.0581-.587-.1234-.663-.2736-1.353-.3528-1.632-.1879-.223.1326-.781-.024-.703-.1971.028-.0645-.505-.1354-1.185-.1575-1.831-.0617-2.02-.0894-2.228-.3288-.168-.1944-.185-.1852-.152.081.026.2026-.016.2819-.128.245-.137-.0366-.276-.056-.415-.058-.137-.0019-.249-.0562-.249-.1216 0-.0645-.08-.1602-.178-.2127-.13-.0691-.16-.0295-.112.1455.046.1658.024.2026-.07.1197-.076-.0672-.61-.1437-1.188-.1704-1.216-.0552-1.035-.0552-6.747-.0276-2.403.0129-4.677-.0276-5.053-.0884-.377-.0617-.768-.0673-.87-.012-.188.1004-3.801.2984-4.912.2699-.868-.0231-1.852.6871-1.305.9413.082.0368.025.1464-.138.2671-.152.1105-.304.2606-.338.3315-.122.2579-1.061.4025-1.327.2036-.169-.1253-.614-.1695-1.315-.1326-.582.0313-2.497.0939-4.2527.1381-1.7568.0451-3.3148.1234-3.463.175-.1475.0516-.7753.105-1.395.1179-.6198.0129-1.2266.1013-1.3482.1962-.2173.1704-1.2432.4495-1.4148.385-.2117-.0783-.6049-.059-.9629.0488-.213.0645-.4871.105-.6087.0912s-.321-.0378-.4426-.0534c-.1216-.0148-.6938.0552-1.2716.1538-.5778.0995-1.266.1796-1.529.1777-.263-.0018-.537.0627-.6086.1428s-.292.1934-.4895.2524c-.2945.0875-.3593.0598-.3593-.1538 0-.2303-.0914-.2487-.8025-.1511-.4407.0599-1.5981.1243-2.5709.1437-.9735.0202-2.0383.117-2.3661.2164-.2153.0692-.4318.1294-.6494.1806-.0296 0 .008.104.084.2311.0759.1271.3061.2303.5111.2303.2055 0 .374.0295.374.0645 0 .0359.0303.175.0667.3085.0926.3334-.2191.3169-.4648-.0249-.1395-.1934-.2055-.2146-.2389-.0755-.0247.105-.0913.152-.1469.105-.0555-.0479-.1012-.0313-.1012.0369 0 .069-.1118.1335-.2488.1436-.137.0102-.8957.0977-1.687.1935-.7902.0958-2.3834.2017-3.5395.2357-1.1556.0332-2.226.0995-2.3778.1456-.5154.1566-3.3488.5222-4.8667.6263-2.8135.1934-4.9463.7534-5.3858 1.4138-.1376.2063-.3802.373-.5543.3813-1.4315.0645-3.4191.2717-4.2913.4476-.4732.0908-.9476.167-1.4229.2284-.4401.0558-.8787.136-1.3148.2404-.3055.0811-.574.1474-.5957.1474-.0222 0-.0401-.1778-.0401-.3942 0-.2165-.0481-.3528-.1074-.3021z"/><path d="m138.738.649222c.052-.04243.159.125775.239.371258.084.26064.213.44855.308.44855.129 0 .14.03789.049.17806-.087.13638-.084.19017.013.2326.099.04319.095.1038-.021.28565-.111.17653-.117.24397-.024.28488.068.02879.123.10835.123.17654s-.044.08865-.097.04546c-.055-.04395-.072.00758-.039.11971.033.10835.009.197-.053.197-.081 0-.083.06819-.007.25306.084.20306.075.25307-.049.25307s-.131.03258-.032.16971c.127.17503.373.01819.34-.21745-.008-.06061.037-.13562.1-.16517.075-.03637.094.04091.057.22503-.031.15457-.016.25003.033.21291.049-.03637.176-.02501.283.02652.155.07349.11.11213-.219.18487-.259.05758-.416.15911-.416.27049 0 .0985-.085.17881-.189.17881s-.25.11138-.323.24776c-.132.24322-.629.57583-.791.5281-.046-.01288-.331.05683-.635.15608-.384.11793-.772.20797-1.163.26974-.335.04925-.635.14092-.665.20381s-.151.11517-.268.11669c-.117.00151-.478.17123-.8.37732-.323.20533-.661.37505-.751.37656-.091.00152-.192.06062-.226.12957-.033.0697-.011.12653.05.12653.136 0 .087.56598-.05.57886-.054.00455-.29.08031-.526.16669-.235.08789-.535.12502-.666.08183-.131-.04243-.378-.02121-.549.04698-.17.06819-.555.18563-.855.26215-.823.20836-1.262.38263-1.262.50007 0 .12274 5.011.03788 6.251-.10608.654-.07576.903-.05455 1.172.09699.188.10607.364.20078.391.21139.027.00985.177.08713.334.17048.157.0841.355.11819.44.07576.085-.04318 1.385-.0985 2.889-.1235s2.933-.10229 3.174-.17123c.241-.06971.966-.19245 1.61-.27277.643-.08183 1.254-.20608 1.357-.2773.103-.07123.402-.10305.664-.07047.263.03334.501.00985.53-.05076.029-.06062.093-.07729.144-.03789.049.04016.09.01288.09-.06061 0-.07426.033-.12275.074-.10911.162.05531 1-.17427 1-.27504 0-.1235.738-.32883 1.018-.28337.102.01743.269-.08334.37-.22427.1-.14017.258-.26215.35-.27049.092-.00757.431-.02728.753-.04243s.762-.09244.977-.17275c.215-.08107.557-.17881.76-.21745.202-.0394.345-.12123.316-.18185-.091-.19093.126-.24093 1.822-.41975.091-.00985.157-.07198.148-.13789-.01-.06592.07-.15305.177-.19397.155-.07232.304-.17026.442-.2917.178-.15684.548-.24095 1.319-.29929.589-.0447 1.173-.07577 1.297-.06819.125.00758.361-.07728.526-.1879.17-.11365.326-.15078.36-.08486.085.16214.428.31822.353.15911-.079-.16669.016-.15759.276.02501.524.36898 3.009.08864 3.269-.36824.08-.14168.089-.23715.024-.26518-.056-.02425-.101-.09396-.101-.15608 0-.06138.062-.08107.136-.04395.076.03789.166.00757.202-.06744.094-.19851-.491-.16972-.807.04016-.145.09623-.461.2167-.703.26822-.242.05076-.517.11138-.61.13411-.095.02273-.172-.03334-.172-.12502 0-.11744-.121-.15305-.414-.1235-.321.03258-.376.01288-.243-.08789.096-.07122.151-.17578.124-.2326-.057-.12123.489-.24398 1.546-.34626.594-.05683.787-.0341.853.10001.062.12653.085.13108.087.01591.002-.23261.589-.19472.799.05152.098.11517.179.15608.179.09017 0-.07274.317-.08562.806-.03334.443.04849 1.135.11895 1.538.15683.403.03789.877.13639 1.053.21746.176.08031.43.11971.564.08637.134-.03258.271-.00151.305.06895.038.07956.012.09017-.066.02728-.08-.06365-.104-.05304-.066.02879.074.15457.54.29398 1.091.32732.325.0197.393.06895.401.29549.01.24246-.058.28186-.634.36899-.356.05304-.756.08486-.89.0697l-.244-.02727.259.18184c.45.31671.887.45082 1.743.53189.457.04319 1.116.17199 1.465.28564.803.2614 3.59.28186 3.711.02653.042-.08761.124-.11684.191-.06744.164.13108 1.961.17427 1.9.04698-.057-.12047-.043-.12199 1.235-.17276.902-.03561 1.282-.07879 2.633-.29927.616-.10002.975-.04243 1.327.21215.148.10759.116.1682-.239.45839-.286.23488-.636.37202-1.164.45839-.901.14775-1.76.33338-2.38.51522-.37.10835-.444.17503-.405.36748.028.1379.104.2076.184.16669.075-.03713.137-.00455.137.07273 0 .07729-.076.14093-.171.14169-.146.00151-.15.0197-.024.12501.093.07729.103.1235.027.12426-.065.00152-.094.0879-.062.19321.039.1326-.058.25609-.321.40763l-.377.2167.954.07576c.513.04198 1.026.06345 1.539.06441.322-.00758.584-.00607.584.00303 0 .00833-.087.14699-.195.30761-.108.16063-.196.25307-.196.20609 0-.04697-.099-.00152-.22.10153-.121.10228-.545.25226-.944.33186-.398.0803-.898.2258-1.111.3228-.24.1042-.489.1653-.741.1818-.544.0068-1.913.4683-1.518.5114.096.0164.191.0391.286.0682.104.0312.209.0617.314.0917.224.0637.238.1864.032.2713-.114.0469-.321.2227-.462.3917-.14.1689-.353.3068-.473.3068s-.268.0781-.329.1743c-.092.1425-.011.1887.452.2569.286.0414.571.0894.856.1439.384.0803 1.909.069 2.014-.0151.142-.1137 1.258-.1667 1.258-.0606 0 .0568-.065.1735-.147.2598-.08.0872-.146.2175-.146.2902 0 .0728.029.0947.065.0485.035-.0454.123-.0197.195.0576.072.078.131.0871.131.0205 0-.0667.066-.1213.147-.1213.234 0 .17.1357-.153.3205-.362.2084-.311.2955.274.4599.533.1516.635.3865.253.5865-.396.2068-2.254.475-3.317.4788-.498.0015-1.022.0409-1.164.0872l-.259.0841.278.2955c.153.1621.353.297.443.2992.232.0069.302.2076.178.5084-.131.3183-.981.8888-1.322.8888-.144 0-.227.0546-.193.1265.033.0697.141.1266.24.1266.165 0 .349.3159.313.5379-.037.2258 1.512-.0265 1.642-.2674.099-.1834 2.594-.6645 2.838-.5463l.234.1113-.227.1576c-.125.0872-.936.3107-1.803.4986-1.586.3425-1.973.5842-.933.5842.319 0 .613.0727.708.1742.137.1455.324.1493 1.116.0243 1.455-.2304 2.3-.3887 2.498-.4675.132-.0523.171-.0152.147.1394-.036.2243-.338.4872-.812.7069-.408.1887-.154.3546.368.241.226-.0501.608-.1304.85-.1796l.44-.0887-.366.4546c-.202.2501-.367.4751-.367.5001s.273.0856.605.1341c.789.1159 1.21.4016 1.204.8176-.002.2197-.635.5129-1.222.5682-.242.0235-.792.1326-1.222.2432-.429.1106-1.089.2273-1.465.2584-.425.0386-.849.102-1.27.1902-2.001.4553-2.451.5682-2.538.6319-.053.0394.101.1341.342.2098.242.0766.438.2122.438.3046 0 .2129-.984.6759-1.878.8827-.434.1008-.756.2501-.861.4016-.094.1349-.421.3046-.745.3872-.734.1871-.714.3652.084.747.17.0819.291.2145.267.2955-.056.1826-.508.4622-.75.4622-.1 0-.154.0576-.121.1265.033.0698.387.1273.787.1273.658 0 .923.1288.605.2955-.285.1493 1.14.0682 1.845-.1038.876-.2152 1.354-.125 1.354.2546 0 .1758-.256.4054-.96.8645-.662.4326-.918.6592-.829.7334.169.141.002.2857-.653.566-.925.3963-1.659 1.0593-1.562 1.4131.065.2409-.295.3728-1.784.6516-.74.1387-1.481.3394-1.647.447-.166.1061-.517.2273-.78.269-.726.1129-2.115.5683-2.332.7645-.106.0955-.325.1781-.488.1834-.163.0045-.383.0575-.491.1174-.156.0864-.116.1121.195.1273.833.0401 1.275.1462 1.385.3334.075.128.193.1667.342.1136.195-.0682.202-.0606.054.0606-.095.0766-.249.1235-.342.1038-.103-.0176-.207.0068-.3.0705-.078.0629-.23.0379-.373-.0606-.187-.1303-.281-.1341-.425-.0174-.117.0947-.207.1038-.244.0257-.033-.0682-.31-.1258-.615-.1288-.306-.0023-.666-.0856-.8-.1849-.293-.2167-.391-.2326-.391-.0636 0 .0697.069.1265.153.1265.083 0 .128.0508.098.1122-.029.0621.038.1439.151.1818s.186.144.162.2356c-.043.169-.48.2683-1.833.4152-1.223.1334-1.563.2046-1.563.3289 0 .0659.065.1189.146.1189.082 0 .146.1129.146.2531 0 .1856-.065.2531-.244.2531-.28 0-.328.1954-.069.2833.096.0326.59.0288 1.099-.0083 1.48-.1083 2.072-.0727 2.382.1447.157.1106.314.1781.349.1508.034-.028.044.1099.022.3061-.049.4273.089.494 1.091.5304.601.0212.647.0401.439.1803-.344.2303-1.602.5607-2.353.6183-.384.0295-.746.1333-.876.2515-.278.2516-.445.2553-.632.0121-.085-.1098-.32-.1894-.555-.1871-.724.0045-3.425.3606-3.792.5001-.342.1288-.352.15-.28.5652.045.2614.035.4826-.026.5622-.07.0909-.067.1848.009.3038.234.3644-.063.4395-1.488.3788-1.108-.0477-1.454-.0219-1.678.1266-.238.1576-1.31.3743-2.042.4129-.107.0061-.414.0614-.683.1235l-.488.1137.439.0916c.242.0508.967.0629 1.612.0273.683-.0365 1.367-.0524 2.051-.0477.483.0098 1.428-.0758 2.1-.1894 1.328-.2243 2.699-.3811 3.289-.3766.205.0015.401-.047.435-.1076.033-.0606.199-.1174.366-.1265.168-.0091.305-.0637.305-.1213 0-.0575.099-.0681.22-.0242.172.0621.188.0508.073-.053-.126-.1144-.123-.1334.024-.1349.095-.0015.172-.0652.172-.1432 0-.0864.092-.0621.24.0636.267.2273.385.2622.304.0917-.03-.0614.033-.1417.14-.178.111-.0379.194-.0031.194.081 0 .0849.154.1463.366.1463.233 0 .359-.0553.344-.1523-.016-.1046.09-.1334.338-.0925.406.0682.808.3622.81.5956.001.1.035.0871.096-.0341.073-.1478.095-.1106.096.1667.002.4561-.159.8455-.35.8455-.081 0-.121.0569-.088.1266s-.019.131-.116.1363c-.322.0182-.527.0948-.744.2796-.195.1652-.654.1016-.654-.0909 0-.0348.059-.0341.131.0015s.193-.0341.268-.1545c.119-.1895.119-.2046-.001-.1122-.106.0834-.122.0553-.07-.1235.042-.1386.019-.2735-.056-.3356-.187-.1531-.344-.1243-.175.0326.111.1015.054.1181-.228.0674-.207-.0379-.455-.003-.554.0765-.135.1099-.212.1076-.321-.0091-.115-.1242-.158-.1106-.219.0705-.041.1242-.069.2674-.06.3197.008.0531-.047.0955-.123.0955-.077 0-.155.0651-.176.1439-.02.0804-.166.1629-.324.1849s-.335.1266-.395.2334c-.06.1061-.145.1515-.188.1-.044-.0508-.052.0076-.018.1288.075.2728-.111.2985-.192.0265-.051-.1735-.079-.1712-.241.019-.173.2038-.184.2023-.185-.0258-.001-.2023-.017-.2106-.096-.0515-.142.2834-.121.3447.14.4296.166.0545.234.1591.223.3447-.017.2955-.357.516-.75.4865-.365-.0281-.688.1348-.688.3477 0 .1364-.097.1766-.366.1516-.394-.0379-1.056.1045-1.294.278-.118.0856-.109.1084.049.1167.228.0171.456.0398.684.0682.83.1015 1.935.0985 2.334-.0061.273-.0719.36-.0598.312.0432-.043.0879-.016.1167.069.0743.08-.0402.21.0757.313.2803.125.2485.142.3622.058.3986-.079.0341-.06.1098.058.2295.161.1637.151.1735-.116.1137-.162-.0364-.239-.0326-.172.0076.248.1515.112.3076-.268.3076-.247 0-.391-.0584-.393-.1591 0-.116-.023-.1122-.085.0144-.053.1076-.107.1235-.145.0424-.066-.1371-.19-.1265-.495.0432-.105.0576-.335.1091-.512.1136-.405.0106-.536.3251-.136.3251.159 0 .304.0826.336.1894.038.1288-.004.1902-.131.1902-.104 0-.223.0712-.265.1591-.113.2265-.511.4947-.613.4129-.048-.0379-.115-.0121-.148.0591-.034.0705-.183.1288-.331.1288s-.509.0925-.8.2054c-.461.1788-.502.2197-.314.3106.12.0583.934.0985 1.812.0886.878-.0098 1.653.0288 1.724.0849.072.0583.156.0417.194-.0379.078-.1644 3.115-.2894 3.19-.1311.027.0554.117.0675.2.0258.103-.0508.116-.1038.042-.1629-.06-.0485.023-.0879.187-.0879s.297.0538.297.1212c0 .066.067.0485.148-.0394.082-.0886.18-.1197.218-.0704.039.0492-.039.1977-.172.3296l-.243.2394.244-.0606c.214-.0531.22-.0462.049.0591-.282.1742-.745.1553-1.016-.0394-.265-.1894-.596-.1273-.596.1129 0 .1106-.192.1598-.635.1629-.397.003-.635-.047-.635-.1341 0-.0766-.054-.0455-.122.0682-.087.15-.352.2303-.952.2886-.456.0455-1.108.1622-1.447.2599-.339.0985-.756.1841-.927.191-.171.0068-.532.0901-.8.1848-.458.1622-.407.169.83.1038.725-.0379 1.385-.0697 1.465-.0712.081-.0008 1.092-.1356 2.246-.2985 1.156-.1637 2.415-.3145 2.799-.3357s.678-.081.654-.1333c-.025-.0531.144-.0955.376-.0955.231 0 .816-.0833 1.299-.1841.829-.1728 2.78-.3516 2.515-.2296-.068.0303-.098.1084-.068.172.031.0637-.068.1182-.219.1212-.151.0038-.428.1144-.616.2463-.188.1326-.43.294-.537.3584-.354.2136-6.114 1.4486-7.472 1.6025-.403.0454-1.568.1954-2.588.3333-1.021.1379-2.368.3061-2.994.3736-.626.0682-1.35.2053-1.608.3061-.34.1326-.488.1439-.538.0424-.061-.1288-1.089-.094-2.332.0803-.44.0509-.879.0933-1.319.1273-.964.078-2.432.341-3.254.5819-.232.0682-.464.0909-.514.0508-.05-.041-.731.0522-1.512.2053-1.156.2273-1.463.25-1.644.1242-.183-.1272-.418-.106-1.289.1167-1.451.3713-3.345.8532-4.289 1.0911-.43.1091-1.054.2788-1.387.3781-.334.0985-.751.1788-.928.1788s-.52.081-.762.1818c-.407.169-1.241.3561-3.467.7797-.85.1534-1.697.3378-2.539.5531-.537.1318-1.417.3334-1.954.4478l-1.27.2727c-1.14.244-1.357.2394-1.584-.0341-.122-.147-.222-.3318-.222-.4114 0-.0788-.033-.1364-.074-.1288-.04.0083-.174.0083-.296 0-.187-.0121-.207-.053-.125-.2515.119-.2895.023-.4456-.156-.2531-.201.2167-.155.022.077-.3235.121-.1811.365-.3433.59-.3925.327-.072.365-.1114.26-.2758-.158-.2463-.025-.2614-6.283.7198-.43.0682-1.2.15-1.71.1833-.51.0341-1.433.1213-2.051.194-.617.0735-1.431.1561-1.807.1841-.376.0273-.857.1091-1.069.1811-.213.072-1.056.1349-1.873.1387-.818.0045-1.545.0333-1.616.0644-.176.0765-2.465.2318-3.009.2045-.241-.0128-.506-.1015-.588-.1977-.184-.216-.652-.2372-2.833-.1311-1.002.0493-1.9222.1606-2.2242.2697-.3946.1425-1.0487.1819-2.7837.1667-1.2477-.0121-3.3234.0228-4.6125.075-2.6126.1061-2.4731.1076-5.1767-.0447-1.7503-.0985-2.7603-.1023-4.2975-.0174-.2687.0152-.4115.053-.3172.0849.0937.0318.1706.1174.1706.1901 0 .0872-.2742.1076-.8056.0591-.4432-.0409-1.7727-.1318-2.9544-.2023-1.1823-.0704-2.6982-.1871-3.3697-.2576-2.6982-.2879-3.7268-.3887-5.1282-.5046-3.5038-.2902-5.3511-.4053-7.2763-.4546-.8864-.0235-1.9852-.0811-2.442-.1288-.5038-.0496-1.0087-.0744-1.5137-.0742-.3761.006-1.1229-.0455-1.6604-.1137-.5374-.0682-2.2768-.1493-3.8663-.1803-1.5889-.0303-3.0835-.1106-3.3206-.1788-.2377-.0682-.7768-.1546-1.1992-.1917-.4219-.0379-.9049-.0985-1.0738-.1341-.5778-.1228-1.4794-.2054-2.798-.2576-1.161-.047-2.2893-.1584-3.9556-.391-.2688-.0379-.6421-.0833-.8302-.103s-.6715-.072-1.0744-.1167c-.4033-.0455-1.0847-.116-1.5137-.1591-.43-.0425-.8034-.0948-.8301-.116-.0273-.0219-.2993-.0735-.6051-.1159-.3052-.0417-.6197-.1083-.6977-.1477-.079-.0387-.5325-.0879-1.0079-.1084-1.3054-.0576-1.3038-.0568-1.3038-.2614 0-.1045-.0463-.1894-.1036-.1894-.0567 0-.0708.0659-.0327.1477.0485.1008.0164.1213-.0997.0629-.0938-.0462-.2671-.0848-.3859-.0848-.1456 0-.2203-.0819-.2301-.2531-.0174-.3031.0355-.3167.2311-.0629.2045.2652.4334.2447.3647-.0318-.0338-.1364-.0234-.1667.0273-.0803.0561.0962.3314.1144.8639.0568.9169-.0985 1.6086-.072 2.8813.1137.5102.075 1.1698.1667 1.4652.2038.2955.0379.5887.0901.6514.1167.0627.0265.1396-.0379.1706-.144.042-.1424.1347-.1697.3576-.1061.35.0993.5745.1372 1.5066.2531.3761.047.7097.1061.7419.1318.0687.0546 1.3747.0637 3.1647.0228 1.1355-.0273 1.9362.0454 2.5336.2288.3369.103 2.6916.1477 2.6916.0507 0-.05-.2965-.1318-.6595-.1818-.362-.0508-.7468-.1137-.8542-.1417-.7538-.1924-2.7717-.4091-4.395-.4697-.3761-.0152-.7304-.0652-.7871-.1122-.0943-.078-3.0852-.3803-3.246-.3281-.0381.0129-.399-.0166-.8018-.0659-.623-.075-2.2136-.2265-2.6126-.2485-.1444-.0076-.1613-.1712-.0289-.2773.0949-.0758.8313-.094 1.4974-.0364.2033.0182.4055.1076.4491.1993.0594.1235.2273.144.6558.0811.3172-.0478.6055-.1091.6415-.1364.036-.028.1325.0356.2137.1417.0818.106.1717.1432.2.0833.0551-.1152 2.0267-.0659 2.5979.0652.1881.0432.5195.0909.7364.1045.217.0152.4917.0932.6105.1758.1723.1197.2159.1159.2159-.0189 0-.1.1308-.1826.3172-.2023.7724-.0811 1.8533-.0735 2.7107.0189.616.0667.8793.0584.7839-.025-.3849-.3334.3379-.4985 1.4624-.3334.9975.147 1.1752.1546 1.6064.0697.2224-.0439.5342-.0348.6933.0205.4181.1455 2.5925.4023 3.5605.4213.4891.0112.9778.0455 1.4652.103.3489.0477 1.0521.1159 1.5628.1515.8958.0715 1.791.1551 2.6856.2508 1.0646.1107 2.1301.2012 3.1964.2713 1.2886.0758 1.4445.0636 1.5006-.1258.0529-.1796.223-.2099 1.1502-.2053.5985.003 1.2858-.0409 1.5273-.097l.4393-.103-.7326-.141c-.4028-.078-.8863-.1401-1.0738-.1379-.1886.0023-.9577-.0848-1.7094-.1924-.7522-.1076-2.1803-.2599-3.1745-.3372-.9937-.078-1.9046-.1689-2.0239-.2023-.12-.0333-1.1088-.1159-2.1978-.1841-1.9574-.1212-3.3294-.2212-4.3733-.3167-.2954-.0273-1.3092-.1068-2.2522-.1773-.9436-.0705-1.7787-.1538-1.8561-.1849-.0774-.0303-.2289-.0992-.3357-.1515-.1074-.0531-.3647-.1122-.5713-.1311-.206-.0197-.4262-.1258-.4884-.2364-.0899-.1591-.3445-.2068-1.2362-.2334-.6176-.0181-1.1665-.0681-1.2205-.1106-.0539-.0424-.4273-.1114-.8302-.1515-1.9257-.1955-3.8515-.3546-4.7367-.391-.5375-.0219-1.6806-.1394-2.5402-.2606-.859-.1212-1.9579-.2402-2.4419-.2637-3.3458-.1591-6.0183-.3614-7.4225-.5591-.4835-.0682-1.3311-.1607-1.8832-.2054-.5522-.0454-1.0275-.1303-1.0559-.1894-.0283-.0599.0938-.1136.2715-.119.1777-.0053.447-.0219.5996-.0363.151-.0137.2943.0144.3178.0636.0234.0485.2049.0303.4033-.0401.2017-.072.6432-.0925 1.0003-.0455.3515.0455 2.2217.1061 4.1557.1326 1.934.0273 4.2413.0864 5.1276.1318 1.5802.0796 2.0277.0303.9915-.1091-.2878-.0379-.544-.0977-.5701-.131-.0698-.091.2872-.3137.5837-.3652.3451-.0607.4541-.2205.1592-.2349-.1303-.0053-.8078-.0637-1.506-.1288-.6983-.0644-2.0714-.1516-3.0525-.1925-1.6113-.0682-1.7825-.0962-1.7825-.2962 0-.2789-.3924-.3448-2.7625-.463-.9555-.0477-1.7606-.1348-1.7884-.1939-.0278-.0584-.2436-.1061-.4791-.1061-.8024 0-.5778-.3501.4088-.6349.278-.0804.6514-.1357.8296-.1228 1.1899.0856.8776-.1636-.4568-.3652-.5374-.0811-1.2842-.1743-1.6603-.2084-.3761-.034-1.0575-.1182-1.5142-.1879-.4563-.0689-1.3791-.1636-2.0512-.2091-.8269-.0568-1.2521-.1371-1.3186-.25-.0539-.0909-.4022-.2023-.7811-.2478-.3761-.0454-.7277-.1515-.7816-.2371-.0534-.0849-.4186-.1932-.8106-.2402-.3924-.047-.8121-.169-.9321-.2713-.1384-.1174-.5608-.206-1.143-.2417-1.2548-.0757-2.2381-.2182-2.2926-.3326-.0573-.1197.798-.2917.9293-.1864.0545.0432.0981.0243.0981-.0416 0-.066-.1537-.1569-.3417-.2031-.3712-.0902-.4415-.2478-.1712-.3834.3194-.1606-.1275-.4144-1.1316-.644-.8432-.1917-1.3763-.4296-.9877-.4402.3652-.0099-.1984-.2334-.7849-.3107-.3488-.0469-.6852-.1394-.7473-.2068-.0627-.0667-.3914-.1796-.7315-.2508-.94411-.197-.93374-.3561.0294-.4538.3598-.0364.6885-.1448.7877-.2599.139-.1607.3085-.1804.9277-.1053 1.2592.1523 1.5088.1227 1.698-.2016.0926-.1591.1493-.3288.1259-.3781-.0235-.0485-.338-.1288-.7005-.1773-.3619-.0485-.702-.1326-.756-.1879-.0534-.0545-.3063-.1394-.5614-.1886-.7005-.1349-.5566-.3137.2523-.3137.3936 0 .7495-.0432.7904-.0955.0403-.0523.4503-.0947.9103-.0947.5816 0 .8492-.0485.8781-.1583.0289-.1084-.0763-.1584-.3325-.1591-.206 0-.5287-.0531-.7162-.1167-.1881-.0637-.7141-.1516-1.1687-.1963-.4546-.0439-.8765-.1333-.937-.1985-.0599-.0651-.1357-.0848-.1668-.0447-.0316.0409-.1591.0265-.284-.031-.1755-.0811-.0714-.1235.4563-.1857.623-.0735 1.3338-.2583 1.7094-.4447.2387-.1182-.1325-.2486-1.245-.4365-.5506-.0932-1.0013-.203-1.0013-.2439 0-.0417-.2857-.0516-.6351-.0228-.5102.0417-.63445.016-.63445-.1326 0-.2295.30905-.6046.49605-.6023.1144.0015.1134.0227-.0076.125-.1254.1046-.1211.1228.0272.1243.0959.0015.2001-.0864.2322-.1948.0491-.1666.2262-.1863 1.1937-.1295 1.2118.0704 1.5099-.0137 1.2865-.3622-.374-.5834-1.8991-1.2108-2.9479-1.2108-.63336 0-.96422-.153-.96422-.447 0-.147.15644-.1849.75712-.1818.4164.0007.9326.0621 1.1474.1356.2153.0735 1.2275.1591 2.2501.1909 1.8081.0553 1.8599.05 1.874-.197.0142-.2439-.1052-.419-.3145-.4629-.0539-.0114-.4753-.1129-.9364-.2258-1.5099-.3682-2.8503-.5932-4.22228-.7069-1.2706-.1061-1.70449-.2508-1.57312-.5266.02998-.0629.09648-.0803.14827-.0394.05124.0409.08121 0 .06649-.0932-.01526-.0924.04906-.1591.14281-.15.09321.0098.14881-.0265.12264-.0811-.02562-.0538.10248-.1348.28508-.1788.3941-.0962.48732-.3243.28564-.6978-.10738-.1993-.11937-.3182-.04251-.4379.12591-.1963.0436-.3304-.20169-.3304-.0992 0-.17989-.0242-.17989-.053 0-.0296-.02889-.1516-.06432-.2728-.05996-.2008.00546-.2121.80565-.1341.47863.0455 1.03563.1174 1.23733.1591.2911.0599.3658.0349.3658-.1227 0-.1084.0708-.2485.1575-.3114.2235-.1622.0894-.8918-.1908-1.0381-.2006-.1053-.2017-.1113-.0158-.1272.1957-.0167.1957-.0167 0-.1258-.1908-.1061.0763-.1515 1.0749-.1834.4165-.0129.7321-.1833.7321-.3947 0-.1137.1014-.1819.2687-.1834.165-.0038.3293-.0302.4906-.0788.2082-.072.2115-.0871.049-.247-.0954-.0939-.2932-.172-.4404-.1742-.1472-.0023-.5571-.2039-.9114-.4471-.3576-.2462-.7865-.4432-.9642-.4432-.5915 0-1.51538-.1614-1.4696-.2569.02508-.0522-.02942-.0863-.121-.0773-.09272.008-.17663-.076-.20059-.2007-.0447-.2789.53199-.7585.82959-.691.1189.0272.2322-.0129.2519-.0887.0457-.1788 1.1861-.2296 1.6418-.0727.1935.0667 1.1937.1364 2.2217.1553 1.7389.0318 2.2518-.0326 1.6015-.2023-.1472-.0379-.4661-.1273-.7081-.1985-.2818-.0771-.5676-.122-.8547-.1341-.2278-.003-.4148-.0629-.4148-.1326 0-.069-.0687-.1265-.1526-.1265-.0845 0-.2437-.0622-.3543-.1387-.1979-.1379-.1973-.1409.0311-.2887.4011-.2591.2769-.5031-.3969-.7804-.345-.1424-.6486-.3424-.6737-.4432-.0251-.1015-.0845-.2175-.1319-.2576-.1494-.1273.0294-.5175.1984-.4334.0856.0424.1281.0417.0954-.0008-.0327-.0424.0507-.2212.1864-.397.1783-.2303.3614-.325.6639-.3402.2301-.0114.4007-.0576.3789-.1038-.0218-.0455.381-.0546.895-.0205.7473.05.9675.0235 1.0989-.1295.1815-.2137 1.1408-.3016 1.6412-.1508.1908.0576.3304.0402.3723-.047.0366-.0765.1701-.1394.2966-.1394.2943 0 .5396-.1212.5396-.2667 0-.0621-.0638-.1136-.1417-.1136-.078 0-.1788-.0857-.2246-.1917-.0512-.119-.4333-.2804-1.0062-.4243-1.1284-.2849-1.9591-.7198-1.8806-.985.0326-.1038.1174-.1548.1941-.1167.0763.0379.1144.0182.0845-.0455-.03-.0621.0605-.2917.2016-.5084.1881-.2901.3075-.3727.4525-.3136.1084.0454.1717.0295.1411-.0341-.0305-.0637.0982-.1213.2846-.1288.1869-.0061.6486-.1099 1.0253-.2296l.6857-.2175-.218-.3015c-.1199-.1652-.2589-.3008-.3085-.3008-.0502 0-.2415-.0925-.4258-.2061-.3216-.1978-.3292-.2182-.1869-.5001.0937-.1848.1123-.3227.0501-.372-.0257-.0201-.0442-.0542-.0509-.0941s-.0011-.0819.0155-.1158c.0403-.0848.0927-.0704.1483.0402.0556.1114.1112.1265.1586.0424.0403-.0704.2049-.2114.3663-.3121l.2932-.1834-.309-.0424c-.3347-.047-.5141-.3713-.2715-.4925.0818-.0409.1734-.0425.2033-.0038.0295.0379.2001-.0371.3789-.1667.2211-.1502.4552-.2602.6966-.3273.2038-.05.4306-.1667.5026-.2607.1711-.222.2382-.2174 1.1457.0834.8149.2705 1.0444.2447 1.3785-.1516.1886-.2227.2644-.2333.7746-.1113.6699.1606 1.9307.1811 1.8587.0303-.0272-.0576-.3706-.1758-.7625-.2629-.9986-.2205-1.1109-.2682-.9468-.3993.284-.2273-.9883-.76528-2.2322-.94258-.3357-.04773-.6323-.13184-.6579-.18639-.0261-.05455.0447-.25154.1581-.43717.1886-.31141.1924-.3546.0469-.5622-.0862-.12426-.157-.25685-.157-.2955 0-.15608 1.6538.06895 2.1972.30004.7822.33111 2.3652.57281 2.5112.38339.0774-.10002.0785-.18639.0028-.30459-.1025-.15911-.2589-.2273-1.5617-.68039-.4061-.14093-.6105-.2758-.6105-.40233 0-.16063.1156-.17729.725-.10607.4644.05531.7467.03788.7871-.04546.0343-.07198.0087-.13108-.0573-.13108-.0654 0-.097-.02955-.0692-.06516.0654-.08486 1.4488.29094 1.5862.43187.1085.10987 1.5344.394 1.8386.36672.0943-.00909.1711-.08713.1711-.17426 0-.08714.0229-.23489.0507-.32884.048-.16214-1.1446-.49022-3.2002-.87966-.309-.05834-.7211-.19245-.9157-.29852-.1946-.10532-.4911-.1917-.6596-.1917-.442-.00151-1.0776-.25231-.9746-.3849.0474-.06213.6421-.1288 1.3218-.1485.6792-.0197 1.2281-.04546 1.2189-.05758-.0088-.01137-.2333-.13184-.4988-.26671-.4622-.23564-.4731-.2523-.2616-.39929.1651-.11441.3417-.11896.7069-.01743.5942.16517.6727.16745.6727.01894 0-.0644-.1308-.15381-.2916-.20002-.5342-.15154-.4187-.31671.2218-.31671.3729 0 .75-.08032.9332-.19851.1853-.11972.393-.16366.5233-.10987.2791.11441 4.8649.15911 4.8109.04546-.1134-.23791 1.1676-.23639 2.261.00304 2.2142.48415 4.098.75919 5.313.77661.6715.0091 1.6827.09471 2.2468.19093.7429.12013 1.4872.22167 2.2327.30459.6644.07122 1.2357.15154 1.27.17882.0344.02651.392.08485.7948.12956.3583.03868.7163.08339 1.0738.13411.3919.06137 2.1738.19017 3.4678.25079 1.1082.05789 2.2153.14858 3.3207.272.3227.03789 1.5753.09244 2.7837.12123 1.209.03031 2.6372.10153 3.1746.15911.5369.05607 2.0223.09774 3.3016.09092 1.9334-.0106 2.3401-.0447 2.4175-.19926.0785-.15912.1057-.15987.1798-.01061.0589.1182.1843.15153.3767.10229.1592-.04168.3369-.01288.3957.06364.0589.07577.2519.15078.429.16517.1743.01387.3476.04782.5178.10153.5855.22503 1.1954.29019 1.4412.15457.1974-.10911.6896.0197.6214.16214-.025.05304.4454.11138 1.0461.12956 1.6167.05077 1.784.0735 1.9672.2705.1488.15987.1635.15229.1341-.06668-.0224-.16669.0141-.23185.1134-.20154.1209.03014.2434.0461.3663.04773.121.00151.2196.04622.2196.10001 0 .05304.0709.13184.1575.17503.1145.05682.1418.02424.0987-.11972-.0403-.13638-.0207-.16669.0622-.0985.067.05531.5385.1182 1.0492.14018 1.0733.04546.9136.04546 5.9578.02273 2.122-.01061 4.1296.02273 4.4621.07273.3325.05077.6775.05531.768.00985.1663-.08259 3.3567-.24549 4.3373-.222.7664.01894 1.6358-.56522 1.1523-.77434-.072-.03031-.0218-.12047.1221-.21973.1341-.09092.2682-.21442.2981-.27276.108-.21215.9376-.33111 1.1725-.16745.1488.10304.5418.13941 1.1605.10911.5146-.02576 2.2049-.07729 3.7557-.11365 1.5513-.03713 2.9275-.10153 3.0575-.14396.131-.04243.685-.08638 1.232-.09699.548-.0106 1.083-.08334 1.191-.16138.192-.14017 1.098-.36975 1.249-.31671.187.0644.534.04849.85-.04016.188-.05303.43-.08637.538-.07501.107.01137.283.03107.391.04395.107.01212.612-.04546 1.123-.12653.51-.08183 1.118-.14775 1.35-.14624.232.00152.474-.05152.537-.11743.063-.06592.258-.15912.432-.20761.26-.07198.318-.04925.318.12653 0 .18942.08.20458.708.12426.39-.04925 1.412-.10228 2.271-.11819.859-.01667 1.799-.09623 2.089-.17806.19-.05692.381-.10644.573-.1485.026 0-.007-.08562-.074-.19018s-.27-.18942-.451-.18942c-.182 0-.33-.02424-.33-.05304 0-.02954-.027-.14396-.059-.25382-.082-.27428.193-.26064.41.02046.123.15911.182.17654.211.06213.022-.08638.081-.12502.13-.08638.049.0394.089.02576.089-.0303 0-.05683.099-.10987.22-.1182s.791-.08031 1.49-.15911c.697-.0788 2.104-.16593 3.125-.19397 1.021-.02727 1.966-.08183 2.1-.11971.455-.1288 2.957-.4296 4.297-.51522 2.485-.15911 4.368-.61978 4.756-1.16304.122-.16972.336-.306856.49-.313675 1.264-.053037 3.019-.223512 3.789-.368228.418-.074675.837-.137323 1.256-.187903.389-.045861.776-.111827 1.161-.197757.27-.066676.507-.1212245.527-.1212245.019 0 .035.1462305.035.3242845s.042.290187.095.248515z"/></g></svg>