<svg width="100" height="32" viewBox="0 0 100 32" fill="none" xmlns="http://www.w3.org/2000/svg">
<path fill-rule="evenodd" clip-rule="evenodd" d="M26.0791 30.8677C26.0497 30.8907 25.9886 30.7996 25.9436 30.6667C25.896 30.5256 25.8232 30.4238 25.7692 30.4238C25.696 30.4238 25.6902 30.4033 25.7414 30.3274C25.7908 30.2536 25.7889 30.2244 25.734 30.2015C25.6778 30.1781 25.6803 30.1453 25.7457 30.0468C25.8087 29.9512 25.8121 29.9147 25.7593 29.8926C25.7213 29.877 25.6902 29.8339 25.6902 29.797C25.6902 29.7601 25.7149 29.749 25.7451 29.7724C25.7763 29.7962 25.7855 29.7683 25.7667 29.7076C25.7485 29.6489 25.7621 29.6009 25.797 29.6009C25.8429 29.6009 25.8442 29.564 25.801 29.4639C25.7534 29.3539 25.7587 29.3269 25.8287 29.3269C25.8991 29.3269 25.9028 29.3092 25.8466 29.235C25.775 29.1402 25.6358 29.2251 25.6541 29.3527C25.6587 29.3855 25.6334 29.4261 25.5979 29.4421C25.5553 29.4618 25.5442 29.42 25.5652 29.3203C25.5828 29.2366 25.5744 29.1849 25.5466 29.205C25.5192 29.2247 25.447 29.2186 25.3862 29.1907C25.2985 29.1509 25.3244 29.13 25.5105 29.0906C25.6571 29.0594 25.7457 29.0044 25.7457 28.9441C25.7457 28.8908 25.7939 28.8473 25.8531 28.8473C25.9121 28.8473 25.9945 28.787 26.0362 28.7132C26.1108 28.5815 26.3923 28.4014 26.4837 28.4272C26.5096 28.4342 26.6713 28.3965 26.8433 28.3427C27.0606 28.2789 27.2804 28.2301 27.5016 28.1967C27.6917 28.17 27.8612 28.1204 27.8781 28.0863C27.8951 28.0523 27.9636 28.024 28.0303 28.0231C28.0966 28.0223 28.3007 27.9304 28.4831 27.8189C28.6658 27.7077 28.8571 27.6158 28.9084 27.615C28.9599 27.6142 29.0173 27.5822 29.0362 27.5448C29.055 27.5071 29.0423 27.4763 29.0081 27.4763C28.9312 27.4763 28.9587 27.1699 29.0362 27.1629C29.0667 27.1604 29.2007 27.1194 29.334 27.0726C29.4673 27.0251 29.6371 27.005 29.7115 27.0283C29.7855 27.0513 29.9253 27.0398 30.022 27.0029C30.1186 26.966 30.3365 26.9024 30.5062 26.861C30.9723 26.7482 31.2207 26.6538 31.2207 26.5902C31.2207 26.5238 28.3837 26.5697 27.6812 26.6477C27.3112 26.6887 27.1701 26.6772 27.0176 26.5951C26.9112 26.5377 26.8115 26.4864 26.7963 26.4807C26.7809 26.4754 26.696 26.4335 26.6071 26.3884C26.5183 26.3429 26.4062 26.3244 26.3581 26.3474C26.3102 26.3707 25.5741 26.4007 24.7223 26.4142C23.8707 26.4278 23.0618 26.4696 22.9251 26.5069C22.7883 26.5447 22.3781 26.6111 22.0136 26.6546C21.6491 26.6989 21.3031 26.7662 21.2451 26.8048C21.1868 26.8433 21.0176 26.8606 20.8692 26.8429C20.7204 26.8249 20.5855 26.8376 20.5692 26.8704C20.5528 26.9032 20.5161 26.9122 20.4877 26.8909C20.4596 26.8692 20.4365 26.8839 20.4365 26.9237C20.4365 26.9639 20.418 26.9902 20.3948 26.9828C20.3028 26.9529 19.8281 27.0772 19.8281 27.1317C19.8281 27.1986 19.4102 27.3098 19.2522 27.2851C19.1942 27.2757 19.0997 27.3303 19.0426 27.4066C18.9855 27.4825 18.8964 27.5485 18.8442 27.553C18.792 27.5571 18.6004 27.5678 18.4177 27.576C18.2356 27.5842 17.9865 27.626 17.8649 27.6695C17.743 27.7134 17.5494 27.7663 17.4346 27.7873C17.3198 27.8086 17.2393 27.8529 17.2556 27.8857C17.3072 27.9891 17.1843 28.0162 16.2235 28.113C16.1723 28.1183 16.1349 28.152 16.1402 28.1877C16.1457 28.2233 16.1004 28.2705 16.0396 28.2927C15.9518 28.3318 15.8678 28.3849 15.7896 28.4506C15.689 28.5355 15.4794 28.5811 15.0427 28.6127C14.709 28.6369 14.3785 28.6537 14.3081 28.6496C14.2377 28.6455 14.1038 28.6914 14.0102 28.7513C13.914 28.8128 13.8257 28.8329 13.8065 28.7973C13.7587 28.7095 13.564 28.625 13.6065 28.7111C13.6516 28.8014 13.5979 28.7964 13.4507 28.6976C13.1535 28.4978 11.7464 28.6496 11.5995 28.8969C11.5541 28.9737 11.5491 29.0253 11.5859 29.0405C11.6174 29.0536 11.643 29.0914 11.643 29.125C11.643 29.1583 11.6081 29.1689 11.5658 29.1488C11.5232 29.1283 11.472 29.1447 11.4516 29.1853C11.3982 29.2928 11.7294 29.2772 11.9084 29.1636C11.9905 29.1115 12.1698 29.0463 12.3065 29.0184C12.4436 28.9909 12.5991 28.9581 12.6522 28.9458C12.7056 28.9334 12.7491 28.9638 12.7491 29.0134C12.7491 29.077 12.818 29.0963 12.984 29.0803C13.1658 29.0627 13.197 29.0733 13.1214 29.1279C13.0674 29.1665 13.0359 29.2231 13.051 29.2538C13.0837 29.3195 12.7744 29.3859 12.176 29.4413C11.8396 29.4721 11.73 29.4598 11.693 29.3872C11.6578 29.3187 11.6445 29.3162 11.6436 29.3786C11.6427 29.5045 11.3103 29.484 11.1911 29.3507C11.1356 29.2883 11.0899 29.2661 11.0899 29.3018C11.0899 29.3412 10.9106 29.3482 10.6337 29.3199C10.3828 29.2936 9.99081 29.2555 9.76273 29.235C9.53433 29.2145 9.26612 29.1611 9.16612 29.1172C9.06643 29.0737 8.9226 29.0524 8.84699 29.0705C8.77106 29.0881 8.69359 29.0713 8.67415 29.0331C8.65285 28.9901 8.66736 28.9843 8.7118 29.0184C8.75686 29.0528 8.77075 29.0471 8.74884 29.0028C8.70717 28.9191 8.44328 28.8436 8.13125 28.8256C7.94699 28.8149 7.90902 28.7882 7.90409 28.6656C7.89853 28.5343 7.9368 28.513 8.26335 28.4658C8.46458 28.4371 8.69112 28.4198 8.76705 28.428L8.90532 28.4428L8.75871 28.3444C8.50409 28.1729 8.25625 28.1003 7.77168 28.0564C7.51304 28.033 7.13989 27.9633 6.94205 27.9017C6.48742 27.7602 4.90965 27.7491 4.84082 27.8874C4.81731 27.9348 4.77049 27.9506 4.7328 27.9239C4.6402 27.8529 3.6223 27.8295 3.65718 27.8984C3.68928 27.9637 3.68125 27.9645 2.9578 27.992C2.447 28.0113 2.23157 28.0346 1.46706 28.154C1.1183 28.2082 0.914592 28.177 0.715209 28.0391C0.631876 27.9809 0.649777 27.9481 0.851012 27.791C1.01274 27.6638 1.21089 27.5895 1.50965 27.5428C2.01984 27.4628 2.50656 27.3623 2.85718 27.2638C3.06706 27.2052 3.10872 27.1691 3.08681 27.0649C3.07107 26.9902 3.02817 26.9525 2.98249 26.9746C2.9399 26.9947 2.90502 26.9771 2.90502 26.9352C2.90502 26.8934 2.94823 26.8589 3.00163 26.8585C3.08434 26.8577 3.0865 26.8478 3.01551 26.7908C2.96305 26.749 2.95718 26.724 3.00008 26.7235C3.03712 26.7227 3.05317 26.676 3.03527 26.6189C3.01305 26.5471 3.06829 26.4803 3.21675 26.3982L3.43033 26.2809L2.89021 26.2399C2.60009 26.2172 2.30953 26.2055 2.01891 26.205C1.83681 26.2091 1.68836 26.2083 1.68836 26.2034C1.68836 26.1989 1.73774 26.1238 1.79885 26.0368C1.85965 25.9499 1.90934 25.8998 1.90934 25.9252C1.90934 25.9507 1.96552 25.9261 2.03403 25.8703C2.10255 25.8149 2.34298 25.7337 2.5686 25.6906C2.79391 25.6471 3.07693 25.5683 3.19761 25.5158C3.3337 25.4594 3.47466 25.4263 3.61706 25.4174C3.92508 25.4137 4.7007 25.1639 4.47662 25.1405C4.4224 25.1316 4.36853 25.1193 4.3152 25.1035C4.25589 25.0867 4.19653 25.0702 4.13712 25.0539C4.01057 25.0194 4.00255 24.953 4.11922 24.907C4.18341 24.8816 4.3007 24.7864 4.38033 24.695C4.45996 24.6035 4.58033 24.5288 4.64823 24.5288C4.71613 24.5288 4.80008 24.4866 4.83496 24.4345C4.88681 24.3573 4.84113 24.3323 4.57878 24.2954C4.41695 24.273 4.25541 24.247 4.09422 24.2175C3.87693 24.174 3.01305 24.1801 2.95379 24.2257C2.87354 24.2872 2.24113 24.3159 2.24113 24.2585C2.24113 24.2277 2.27848 24.1645 2.32447 24.1178C2.36984 24.0706 2.40718 24 2.40718 23.9606C2.40718 23.9213 2.39082 23.9094 2.37076 23.9344C2.3507 23.959 2.30101 23.9451 2.26027 23.9032C2.21922 23.861 2.18619 23.856 2.18619 23.8921C2.18619 23.9282 2.14854 23.9578 2.10286 23.9578C1.97015 23.9578 2.00657 23.8843 2.18928 23.7842C2.39453 23.6714 2.36521 23.6243 2.03403 23.5352C1.73218 23.4532 1.67478 23.326 1.89113 23.2177C2.11521 23.1057 3.16737 22.9605 3.76891 22.9585C4.05101 22.9576 4.34761 22.9363 4.42817 22.9113L4.57508 22.8657L4.41767 22.7058C4.33064 22.618 4.21767 22.5449 4.16644 22.5437C4.03527 22.54 3.99545 22.4313 4.06582 22.2685C4.1399 22.0962 4.62107 21.7873 4.81428 21.7873C4.89576 21.7873 4.94298 21.7577 4.92354 21.7187C4.90471 21.681 4.8436 21.6502 4.78773 21.6502C4.69422 21.6502 4.5902 21.4792 4.61057 21.359C4.63156 21.2367 3.75409 21.3733 3.68064 21.5038C3.62446 21.6031 2.21212 21.8636 2.07354 21.7996L1.94113 21.7393L2.06984 21.6539C2.14052 21.6068 2.60008 21.4857 3.09082 21.384C3.98897 21.1986 4.2078 21.0677 3.61922 21.0677C3.43835 21.0677 3.272 21.0283 3.21798 20.9734C3.14082 20.8946 3.03465 20.8925 2.5865 20.9602C1.76243 21.0849 1.28404 21.1707 1.17169 21.2133C1.09731 21.2416 1.07478 21.2215 1.08836 21.1379C1.10873 21.0164 1.27971 20.8741 1.54823 20.7551C1.7791 20.653 1.63558 20.5631 1.34021 20.6247C1.21212 20.6517 0.995456 20.6952 0.858728 20.7219L0.609654 20.7699L0.817061 20.5237C0.931258 20.3884 1.02447 20.2665 1.02447 20.253C1.02447 20.2395 0.870147 20.2066 0.681876 20.1804C0.235272 20.1176 -0.00299926 19.963 2.85018e-05 19.7377C0.00163037 19.6188 0.359655 19.46 0.69237 19.4301C0.829407 19.4174 1.14083 19.3583 1.38404 19.2984C1.62725 19.2385 2.0007 19.1753 2.21366 19.1585C2.45436 19.1376 2.69428 19.1033 2.9328 19.0555C4.06582 18.809 4.32076 18.7479 4.36983 18.7134C4.39977 18.6921 4.31273 18.6408 4.17631 18.5998C4.03897 18.5583 3.92817 18.4849 3.92817 18.4349C3.92817 18.3196 4.48557 18.0689 4.99144 17.9569C5.23742 17.9024 5.41952 17.8216 5.47909 17.7395C5.53249 17.6665 5.71767 17.5746 5.90069 17.5299C6.31643 17.4286 6.30501 17.3322 5.85347 17.1254C5.75687 17.0811 5.68866 17.0093 5.70224 16.9654C5.73372 16.8665 5.98989 16.7152 6.12693 16.7152C6.18341 16.7152 6.21427 16.684 6.19545 16.6467C6.17693 16.6089 5.97631 16.5777 5.74977 16.5777C5.37693 16.5777 5.22724 16.508 5.40718 16.4178C5.5686 16.3369 4.7615 16.3808 4.36273 16.474C3.86644 16.5905 3.59607 16.5416 3.59607 16.3361C3.59607 16.2409 3.74082 16.1166 4.13928 15.868C4.51428 15.6338 4.65934 15.5111 4.60903 15.4709C4.51335 15.3946 4.6078 15.3163 4.97878 15.1645C5.50224 14.95 5.91767 14.591 5.86304 14.3994C5.826 14.269 6.03002 14.1976 6.87322 14.0466C7.29205 13.9716 7.7118 13.8628 7.80563 13.8046C7.89946 13.7472 8.09822 13.6815 8.2473 13.659C8.65841 13.5978 9.44483 13.3513 9.56766 13.245C9.62754 13.1933 9.75192 13.1486 9.84421 13.1458C9.93618 13.1433 10.0612 13.1146 10.122 13.0822C10.2103 13.0354 10.1877 13.0215 10.0115 13.0133C9.5402 12.9915 9.28989 12.9341 9.22754 12.8328C9.18495 12.7634 9.11828 12.7425 9.03402 12.7712C8.92322 12.8081 8.91921 12.804 9.00316 12.7384C9.05686 12.697 9.14421 12.6715 9.19668 12.6822C9.25505 12.6918 9.31426 12.6785 9.36705 12.6441C9.41087 12.61 9.49699 12.6235 9.57785 12.6769C9.68402 12.7474 9.73711 12.7495 9.81859 12.6863C9.88495 12.635 9.93587 12.6301 9.95686 12.6724C9.97538 12.7093 10.1322 12.7405 10.305 12.7421C10.4782 12.7433 10.6822 12.7885 10.7581 12.8422C10.9238 12.9595 10.9794 12.9681 10.9794 12.8767C10.9794 12.8389 10.9405 12.8081 10.893 12.8081C10.8457 12.8081 10.8204 12.7807 10.8374 12.7474C10.8538 12.7138 10.8155 12.6695 10.7516 12.649C10.688 12.6285 10.6467 12.571 10.6599 12.5214C10.6843 12.4299 10.9319 12.3762 11.6982 12.2966C12.3905 12.2244 12.5831 12.1858 12.5831 12.1185C12.5831 12.0829 12.5461 12.0541 12.5001 12.0541C12.4541 12.0541 12.4174 11.993 12.4174 11.9171C12.4174 11.8166 12.4544 11.7801 12.5556 11.7801C12.7146 11.7801 12.7417 11.6743 12.5948 11.6267C12.5405 11.609 12.2606 11.6111 11.9726 11.6312C11.1346 11.6899 10.7991 11.6706 10.6238 11.5528C10.5346 11.4929 10.4461 11.4564 10.4263 11.4712C10.4069 11.4864 10.4013 11.4117 10.414 11.3055C10.4414 11.0741 10.3633 11.038 9.79575 11.0183C9.45594 11.0068 9.42939 10.9966 9.5476 10.9207C9.74205 10.796 10.4547 10.6171 10.8797 10.5859C11.097 10.5699 11.3019 10.5137 11.3757 10.4497C11.5331 10.3135 11.6275 10.3115 11.7337 10.4432C11.7815 10.5027 11.9149 10.5457 12.0479 10.5445C12.4578 10.542 13.9871 10.3492 14.1948 10.2737C14.3886 10.204 14.3945 10.1925 14.3538 9.96771C14.3278 9.82619 14.3337 9.7064 14.3683 9.66332C14.4078 9.6141 14.4062 9.56323 14.363 9.49882C14.2309 9.3015 14.3988 9.26089 15.2059 9.29371C15.8331 9.31955 16.0288 9.3056 16.1559 9.2252C16.2905 9.13987 16.8976 9.02255 17.3118 9.00162C17.3726 8.99834 17.5467 8.96839 17.6988 8.93476L17.9754 8.87322L17.7266 8.82358C17.5896 8.7961 17.1791 8.78953 16.8139 8.80882C16.427 8.82857 16.0398 8.83719 15.6525 8.83466C15.3788 8.82933 14.8439 8.87568 14.4636 8.93722C13.7112 9.05865 12.9353 9.14356 12.6013 9.1411C12.4849 9.14028 12.3738 9.16654 12.355 9.19935C12.3359 9.23217 12.2424 9.26294 12.1476 9.26786C12.0525 9.27279 11.9748 9.30232 11.9748 9.3335C11.9748 9.36468 11.9189 9.37042 11.8504 9.34663C11.7528 9.31299 11.7439 9.31914 11.809 9.37534C11.8803 9.43729 11.8785 9.44754 11.7951 9.44836C11.7417 9.44918 11.6982 9.48364 11.6982 9.5259C11.6982 9.57266 11.6457 9.55954 11.5621 9.49144C11.4109 9.36837 11.3442 9.3495 11.3902 9.4418C11.4069 9.47503 11.3711 9.51851 11.3106 9.5382C11.2476 9.55872 11.2007 9.53984 11.2007 9.49431C11.2007 9.44836 11.1133 9.41513 10.9933 9.41513C10.8615 9.41513 10.7905 9.44508 10.7988 9.49759C10.8078 9.5542 10.7479 9.56979 10.6075 9.54764C10.3772 9.51072 10.1501 9.35155 10.1488 9.2252C10.1482 9.17105 10.1288 9.17802 10.0945 9.24366C10.0528 9.32365 10.0408 9.30355 10.0399 9.15341C10.039 8.90645 10.13 8.69559 10.238 8.69559C10.2843 8.69559 10.3069 8.66482 10.288 8.62708C10.2695 8.58934 10.2988 8.55611 10.3538 8.55324C10.5359 8.5434 10.6519 8.50196 10.7751 8.40187C10.8856 8.31244 11.1454 8.3469 11.1454 8.4511C11.1454 8.46997 11.1118 8.46956 11.0714 8.45027C11.0303 8.43099 10.9621 8.46874 10.9192 8.53396C10.8519 8.63652 10.8519 8.64472 10.9198 8.59468C10.98 8.54955 10.9893 8.56473 10.9593 8.66154C10.9359 8.73662 10.9488 8.80964 10.9914 8.84328C11.0973 8.92614 11.1862 8.91055 11.0902 8.82564C11.0275 8.77066 11.0596 8.76164 11.2195 8.78912C11.3368 8.80964 11.4769 8.79077 11.5331 8.74769C11.6096 8.68821 11.6535 8.68944 11.7152 8.75261C11.7803 8.81989 11.8044 8.81251 11.8386 8.71446C11.8624 8.64719 11.8778 8.56965 11.8729 8.54135C11.8683 8.51263 11.8995 8.48966 11.9427 8.48966C11.9859 8.48966 12.0303 8.45438 12.042 8.41171C12.0538 8.36823 12.1362 8.32351 12.2254 8.31162C12.3149 8.29972 12.4155 8.24311 12.4494 8.18527C12.4834 8.12783 12.5312 8.10322 12.5559 8.13112C12.5806 8.1586 12.5853 8.12701 12.5661 8.06138C12.5235 7.91369 12.6291 7.89975 12.6748 8.04702C12.7038 8.14096 12.7195 8.13973 12.8112 8.03676C12.9093 7.92641 12.9152 7.92723 12.9161 8.05071C12.9167 8.16024 12.9254 8.16476 12.9704 8.07861C13.0504 7.92518 13.039 7.89195 12.8908 7.84601C12.797 7.81647 12.7587 7.75986 12.7649 7.65935C12.7744 7.49936 12.967 7.37999 13.1893 7.39598C13.3961 7.41116 13.5788 7.32296 13.5788 7.20769C13.5788 7.13385 13.6337 7.11211 13.7862 7.12564C14.009 7.14615 14.384 7.06903 14.5189 6.97509C14.5859 6.92873 14.5806 6.91643 14.4911 6.91191C14.3619 6.90266 14.2329 6.89035 14.1041 6.87499C13.6337 6.82002 13.0084 6.82166 12.7825 6.87828C12.6278 6.91725 12.5782 6.91068 12.6056 6.85489C12.6297 6.80731 12.6149 6.79172 12.5667 6.81469C12.5211 6.83643 12.4476 6.77367 12.3893 6.6629C12.3183 6.52835 12.309 6.46681 12.3565 6.44712C12.4013 6.42866 12.3905 6.38764 12.3235 6.32282C12.2325 6.23421 12.2383 6.22888 12.3896 6.26129C12.4809 6.28098 12.5244 6.27893 12.4865 6.25719C12.3464 6.17514 12.4235 6.09063 12.6386 6.09063C12.7782 6.09063 12.8599 6.12222 12.8609 6.17678C12.8612 6.23955 12.8738 6.2375 12.909 6.16899C12.939 6.11074 12.9695 6.10212 12.9914 6.14602C13.0285 6.22027 13.0988 6.21452 13.2717 6.12263C13.3309 6.09145 13.4612 6.06356 13.5612 6.0611C13.7905 6.05535 13.8649 5.88511 13.6383 5.88511C13.5485 5.88511 13.4661 5.84039 13.4482 5.78255C13.4266 5.71281 13.4507 5.67958 13.5223 5.67958C13.5809 5.67958 13.6485 5.64102 13.6726 5.59344C13.7362 5.47078 13.9615 5.32556 14.0195 5.36986C14.0467 5.39037 14.0843 5.37642 14.1035 5.33786C14.1226 5.29971 14.2069 5.26812 14.2908 5.26812C14.3748 5.26812 14.5788 5.21808 14.7439 5.15695C15.0047 5.06014 15.0278 5.03798 14.9217 4.98876C14.8538 4.95717 14.3923 4.93543 13.8954 4.94076C13.3985 4.94609 12.9593 4.92517 12.9195 4.89481C12.8785 4.86323 12.8309 4.87225 12.8096 4.91533C12.7652 5.00435 11.0457 5.07203 11.0032 4.9863C10.988 4.95635 10.9371 4.94979 10.8899 4.97235C10.8319 4.99983 10.8241 5.02855 10.8664 5.06055C10.9004 5.0868 10.8528 5.10813 10.7603 5.10813C10.6677 5.10813 10.5924 5.07901 10.5924 5.0425C10.5924 5.00681 10.5544 5.01624 10.5081 5.06383C10.4618 5.11183 10.4062 5.12865 10.3846 5.10198C10.3627 5.07532 10.4069 4.99491 10.4825 4.92353L10.6198 4.7939L10.4816 4.82672C10.3606 4.85543 10.3572 4.85174 10.4538 4.79472C10.6133 4.70037 10.8757 4.71062 11.0294 4.81605C11.1791 4.91861 11.3664 4.88497 11.3664 4.75493C11.3664 4.69503 11.4757 4.66837 11.726 4.66673C11.9513 4.66509 12.0856 4.69216 12.0856 4.73934C12.0856 4.78077 12.1164 4.76395 12.1547 4.70242C12.2044 4.62119 12.3544 4.57771 12.6939 4.54612C12.9522 4.52151 13.3211 4.45833 13.513 4.40541C13.705 4.35208 13.9414 4.30573 14.0383 4.30203C14.1352 4.29834 14.3393 4.25322 14.4911 4.20194C14.7504 4.11415 14.7214 4.11046 14.0211 4.14574C13.6106 4.16625 13.2371 4.18348 13.1914 4.1843C13.1461 4.18471 12.5735 4.25773 11.9198 4.34593C11.2655 4.43454 10.5525 4.51617 10.3353 4.52766C10.1177 4.53915 9.95131 4.57155 9.96489 4.59986C9.97908 4.62858 9.8831 4.65155 9.75192 4.65155C9.62106 4.65155 9.28989 4.69667 9.01612 4.75123C8.54668 4.84477 7.44236 4.94158 7.59236 4.87553C7.63063 4.85912 7.64791 4.81687 7.63063 4.78241C7.61335 4.74795 7.66921 4.71842 7.7547 4.71677C7.8402 4.71472 7.99699 4.65483 8.10347 4.58345C8.20995 4.51166 8.34699 4.42428 8.40779 4.38941C8.60779 4.27373 11.8695 3.60505 12.6386 3.52178C12.8667 3.49716 13.5263 3.41594 14.1041 3.34128C14.6822 3.26661 15.4448 3.17554 15.7991 3.13903C16.1535 3.10211 16.5633 3.02786 16.7096 2.9733C16.9019 2.90151 16.9862 2.89536 17.0139 2.95033C17.0488 3.02007 17.6306 3.00119 18.3349 2.90684C18.5836 2.8793 18.8324 2.85632 19.0815 2.83792C19.6272 2.79567 20.4587 2.65332 20.9241 2.52287C21.0556 2.48595 21.1865 2.47364 21.2149 2.49538C21.2436 2.51753 21.6288 2.46708 22.0713 2.38421C22.7257 2.26114 22.8994 2.24883 23.0022 2.31693C23.1059 2.38585 23.2386 2.37436 23.7321 2.25376C24.5538 2.05274 25.626 1.79184 26.1605 1.66303C26.4037 1.60395 26.7571 1.51206 26.946 1.45832C27.1349 1.40499 27.3713 1.36151 27.4713 1.36151C27.5716 1.36151 27.7655 1.31761 27.9025 1.26305C28.1331 1.17157 28.6056 1.07024 29.8658 0.840926C30.347 0.757859 30.8265 0.658002 31.3037 0.541458C31.6078 0.470078 32.1056 0.360957 32.4099 0.299012L33.129 0.15133C33.7744 0.0192356 33.8976 0.021697 34.026 0.16979C34.0951 0.249374 34.1519 0.34947 34.1519 0.392545C34.1519 0.435208 34.1704 0.466386 34.1932 0.462284C34.2161 0.457771 34.292 0.457771 34.3611 0.462284C34.467 0.468847 34.4784 0.491 34.4321 0.59848C34.3645 0.755188 34.4189 0.839695 34.5201 0.735497C34.6343 0.618171 34.6081 0.7236 34.4769 0.910665C34.4081 1.00871 34.2701 1.0965 34.1426 1.12316C33.9571 1.16214 33.9358 1.18347 33.9954 1.27249C34.0846 1.40581 34.0093 1.41402 37.5531 0.882769C37.7963 0.845848 38.2321 0.801543 38.521 0.783493C38.8099 0.765033 39.3327 0.717857 39.6824 0.678475C40.0321 0.638682 40.4926 0.593967 40.7056 0.578789C40.9185 0.564021 41.1911 0.519716 41.3111 0.480744C41.4315 0.441772 41.9087 0.407723 42.3716 0.405672C42.8346 0.403211 43.2463 0.387622 43.2867 0.370802C43.3861 0.329369 44.6821 0.245272 44.9904 0.26004C45.1269 0.267014 45.2766 0.315011 45.3232 0.36711C45.4272 0.484026 45.6926 0.495512 46.9272 0.43808C47.4948 0.411415 48.0158 0.351111 48.1867 0.292038C48.4102 0.214915 48.7806 0.193583 49.763 0.201788C50.4695 0.208351 51.6448 0.189481 52.3747 0.161175C53.854 0.103743 53.775 0.102922 55.3059 0.185379C56.2969 0.238708 56.8688 0.24076 57.7392 0.194814C57.8914 0.186609 57.9722 0.166098 57.9188 0.148868C57.8657 0.131639 57.8222 0.0852826 57.8222 0.0459005C57.8222 -0.00127588 57.9775 -0.0123521 58.2784 0.0139026C58.5293 0.036055 59.2821 0.0852826 59.9512 0.123434C60.6207 0.161585 61.479 0.224761 61.8592 0.262912C63.387 0.418799 63.9694 0.47336 64.7629 0.536125C66.7469 0.693243 67.7929 0.755598 68.883 0.782263C69.3849 0.79498 70.0071 0.826157 70.2657 0.852002C70.551 0.878855 70.8368 0.892264 71.1228 0.892204C71.3358 0.888922 71.7586 0.916818 72.0629 0.953739C72.3673 0.990659 73.3521 1.03455 74.2521 1.05137C75.1518 1.06778 75.9981 1.11127 76.1324 1.14819C76.2669 1.18511 76.5722 1.23187 76.8114 1.25198C77.0503 1.27249 77.3237 1.30531 77.4194 1.32459C77.7466 1.39104 78.2571 1.43576 79.0037 1.46406C79.6611 1.4895 80.3 1.5498 81.2435 1.67574C81.3956 1.69625 81.607 1.72087 81.7135 1.73153C81.82 1.7422 82.0938 1.77051 82.3219 1.79471C82.5503 1.81932 82.9361 1.85747 83.179 1.88086C83.4225 1.90383 83.6339 1.93214 83.649 1.94362C83.6645 1.95552 83.8185 1.98342 83.9916 2.00639C84.1644 2.02895 84.3425 2.06505 84.3867 2.08638C84.4314 2.1073 84.6882 2.13397 84.9573 2.14505C85.6965 2.17622 85.6956 2.17581 85.6956 2.28657C85.6956 2.34319 85.7219 2.38913 85.7543 2.38913C85.7864 2.38913 85.7944 2.35344 85.7728 2.30914C85.7453 2.25458 85.7635 2.2435 85.8293 2.27509C85.8824 2.30011 85.9805 2.32103 86.0478 2.32103C86.1302 2.32103 86.1725 2.36534 86.178 2.45805C86.1879 2.62214 86.158 2.62953 86.0472 2.4921C85.9314 2.34852 85.8018 2.3596 85.8407 2.50933C85.8598 2.58317 85.854 2.59958 85.8253 2.55281C85.7935 2.50071 85.6376 2.49087 85.3361 2.52205C84.8169 2.57538 84.4253 2.56102 83.7046 2.46051C83.4157 2.4199 83.0422 2.37026 82.8749 2.35016C82.7077 2.32965 82.5416 2.30134 82.5061 2.28698C82.4706 2.27263 82.4271 2.3075 82.4095 2.36493C82.3857 2.44205 82.3333 2.45682 82.207 2.42236C82.0089 2.36862 81.8817 2.34811 81.354 2.28534C81.141 2.25991 80.9521 2.22791 80.9339 2.21396C80.895 2.18443 80.1555 2.1795 79.1419 2.20166C78.499 2.21643 78.0456 2.17704 77.7074 2.07777C77.5166 2.02198 76.1833 1.99777 76.1833 2.05028C76.1833 2.07736 76.3512 2.12166 76.5567 2.14874C76.7617 2.17622 76.9796 2.21027 77.0404 2.22545C77.4672 2.32965 78.6098 2.44697 79.529 2.47979C79.7419 2.488 79.9425 2.51507 79.9746 2.54051C80.028 2.58276 81.7216 2.74644 81.8126 2.71814C81.8342 2.71116 82.0385 2.72716 82.2666 2.75383C82.6194 2.79444 83.52 2.87649 83.7459 2.88838C83.8277 2.89248 83.8373 2.98109 83.7623 3.03853C83.7086 3.07955 83.2916 3.08939 82.9145 3.05822C82.7993 3.04837 82.6848 2.99996 82.6601 2.95033C82.6265 2.88346 82.5314 2.87238 82.2888 2.90643C82.1092 2.93228 81.9459 2.9655 81.9256 2.98027C81.9052 2.99545 81.8506 2.96099 81.8046 2.90356C81.7583 2.84613 81.7074 2.82603 81.6913 2.85843C81.6601 2.92079 80.5438 2.89412 80.2203 2.82316C80.1138 2.79977 79.9262 2.77393 79.8034 2.76654C79.6805 2.75834 79.525 2.71609 79.4577 2.67137C79.3601 2.60655 79.3355 2.60861 79.3355 2.68163C79.3355 2.73578 79.2614 2.78049 79.1558 2.79116C78.7185 2.83505 78.1064 2.83095 77.6209 2.7809C77.2722 2.7448 77.1231 2.74931 77.1771 2.79444C77.395 2.97494 76.9858 3.06437 76.349 2.97494C75.7842 2.89536 75.6836 2.89125 75.4395 2.9372C75.3135 2.96099 75.137 2.95607 75.0469 2.92612C74.8101 2.84736 73.579 2.70829 73.0308 2.69804C72.7539 2.69198 72.4772 2.67337 72.2012 2.64224C72.0037 2.6164 71.6055 2.57948 71.3163 2.5602C70.8091 2.52153 70.3022 2.47627 69.7957 2.42441C69.1929 2.36447 68.5895 2.31551 67.9858 2.27755C67.2561 2.23653 67.1679 2.24309 67.1361 2.34565C67.1061 2.44287 67.0099 2.45928 66.4849 2.45682C66.146 2.45518 65.7568 2.47897 65.62 2.50933L65.3713 2.56512L65.7861 2.64142C66.0142 2.68368 66.2879 2.71732 66.3941 2.71609C66.5009 2.71485 66.9364 2.76203 67.362 2.82028C67.7879 2.87854 68.5966 2.96099 69.1595 3.00284C69.7222 3.04509 70.2379 3.09432 70.3055 3.11237C70.3734 3.13042 70.9333 3.17513 71.55 3.21205C72.6583 3.27769 73.4352 3.33184 74.0262 3.38353C74.1935 3.3983 74.7676 3.44137 75.3015 3.47952C75.8358 3.51767 76.3086 3.5628 76.3524 3.57962C76.3963 3.59603 76.4821 3.63336 76.5425 3.66166C76.6034 3.69038 76.749 3.72238 76.866 3.73263C76.9827 3.7433 77.1074 3.80073 77.1426 3.86063C77.1935 3.94677 77.3376 3.97262 77.8425 3.98698C78.1922 3.99682 78.503 4.0239 78.5336 4.04687C78.5642 4.06984 78.7756 4.10717 79.0037 4.12892C80.0941 4.23476 81.1845 4.3209 81.6857 4.34059C81.9901 4.35249 82.6373 4.41608 83.124 4.48171C83.6104 4.54735 84.2327 4.61176 84.5067 4.62447C86.4012 4.71062 87.9144 4.82015 88.7095 4.92722C88.9833 4.96414 89.4632 5.01419 89.7759 5.0384C90.0885 5.06301 90.3576 5.10895 90.3737 5.14095C90.3897 5.17336 90.3206 5.20249 90.22 5.20536C90.1194 5.20823 89.9669 5.21726 89.8805 5.22505C89.795 5.23243 89.7138 5.21726 89.7006 5.19059C89.6873 5.16434 89.5845 5.17418 89.4722 5.21233C89.358 5.2513 89.108 5.26238 88.9058 5.23695C88.7067 5.21233 87.6478 5.17951 86.5527 5.16516C85.4577 5.15039 84.1512 5.11839 83.6493 5.09378C82.7546 5.0507 82.5012 5.07737 83.0879 5.15285C83.2509 5.17336 83.3959 5.20577 83.4108 5.22382C83.4503 5.27305 83.2481 5.39365 83.0802 5.42155C82.8848 5.45437 82.8231 5.54093 82.9901 5.54872C83.0638 5.55159 83.4475 5.58318 83.8429 5.61846C84.2382 5.65333 85.0157 5.70051 85.5712 5.72266C86.4836 5.75958 86.5805 5.77476 86.5805 5.88306C86.5805 6.03402 86.8027 6.06971 88.1447 6.13371C88.6857 6.15955 89.1416 6.20673 89.1573 6.23873C89.1731 6.27031 89.2953 6.29616 89.4286 6.29616C89.883 6.29616 89.7558 6.48569 89.1972 6.63993C89.0397 6.68342 88.8283 6.71336 88.7274 6.70639C88.0536 6.66003 88.2305 6.795 88.986 6.90412C89.2904 6.94801 89.7132 6.99847 89.9262 7.01693C90.1391 7.03539 90.5249 7.08093 90.7836 7.11867C91.0419 7.156 91.5644 7.20728 91.945 7.23189C92.4132 7.26266 92.6539 7.30614 92.6916 7.36727C92.7222 7.4165 92.9194 7.4768 93.1339 7.50141C93.3468 7.52603 93.5459 7.58346 93.5765 7.62982C93.6067 7.67576 93.8135 7.73442 94.0354 7.75986C94.2576 7.78529 94.4953 7.85134 94.5632 7.90672C94.6416 7.97031 94.8808 8.0183 95.2104 8.03758C95.9209 8.07861 96.4777 8.15573 96.5086 8.21767C96.541 8.28249 96.0567 8.37561 95.9823 8.31859C95.9515 8.29521 95.9268 8.30546 95.9268 8.34115C95.9268 8.37684 96.0138 8.42607 96.1203 8.4511C96.3305 8.49991 96.3703 8.58524 96.2172 8.65867C96.0363 8.74564 96.2894 8.88307 96.8579 9.00737C97.3354 9.11115 97.6373 9.23997 97.4172 9.24571C97.2104 9.25104 97.5296 9.37206 97.8617 9.4139C98.0592 9.43934 98.2496 9.48939 98.2848 9.5259C98.3203 9.562 98.5064 9.62312 98.699 9.66168C99.2336 9.76834 99.2277 9.85449 98.6823 9.90741C98.4786 9.9271 98.2925 9.98576 98.2363 10.0481C98.1576 10.1351 98.0617 10.1458 97.711 10.1051C96.9981 10.0227 96.8567 10.0387 96.7496 10.2143C96.6972 10.3004 96.6651 10.3923 96.6783 10.419C96.6916 10.4452 96.8697 10.4887 97.0749 10.515C97.2799 10.5412 97.4725 10.5868 97.503 10.6167C97.5333 10.6462 97.6765 10.6922 97.8209 10.7188C98.2175 10.7919 98.136 10.8887 97.678 10.8887C97.4552 10.8887 97.2536 10.9121 97.2305 10.9404C97.2076 10.9687 96.9755 10.9916 96.7151 10.9916C96.3857 10.9916 96.2342 11.0179 96.2178 11.0774C96.2015 11.136 96.261 11.1631 96.4061 11.1635C96.5228 11.1635 96.7055 11.1922 96.8117 11.2267C96.9181 11.2612 97.216 11.3088 97.4734 11.333C97.7308 11.3568 97.9697 11.4052 98.0039 11.4404C98.0379 11.4757 98.0808 11.4864 98.0984 11.4646C98.1163 11.4425 98.1885 11.4503 98.2592 11.4815C98.3586 11.5254 98.2996 11.5483 98.0008 11.582C97.6481 11.6218 97.2456 11.7219 97.033 11.8228C96.8978 11.8868 97.108 11.9573 97.7379 12.0591C98.0496 12.1095 98.3049 12.169 98.3049 12.1912C98.3049 12.2137 98.4666 12.2191 98.6644 12.2035C98.9533 12.1809 99.0237 12.1949 99.0237 12.2753C99.0237 12.3996 98.8487 12.6026 98.7428 12.6014C98.678 12.6006 98.6786 12.5891 98.7471 12.5337C98.8181 12.4771 98.8157 12.4672 98.7317 12.4664C98.6774 12.4656 98.6184 12.5132 98.6002 12.5719C98.5725 12.6621 98.4721 12.6728 97.9243 12.642C97.2382 12.6038 97.0694 12.6494 97.1959 12.8381C97.4076 13.154 98.2712 13.4936 98.865 13.4936C99.2237 13.4936 99.411 13.5765 99.411 13.7357C99.411 13.8153 99.3224 13.8358 98.9823 13.8341C98.7465 13.8337 98.4542 13.8005 98.3326 13.7607C98.2107 13.7209 97.6376 13.6745 97.0586 13.6573C96.0348 13.6274 96.0055 13.6302 95.9975 13.764C95.9894 13.8961 96.057 13.9908 96.1755 14.0146C96.2061 14.0208 96.4447 14.0758 96.7058 14.1369C97.5607 14.3362 98.3197 14.4581 99.0965 14.5196C99.816 14.5771 100.062 14.6554 99.9873 14.8047C99.9703 14.8388 99.9326 14.8482 99.9033 14.8261C99.8743 14.8039 99.8573 14.8261 99.8657 14.8765C99.8743 14.9266 99.8379 14.9627 99.7848 14.9577C99.732 14.9524 99.7005 14.9721 99.7154 15.0016C99.7299 15.0308 99.6573 15.0747 99.5539 15.0985C99.3308 15.1506 99.278 15.274 99.3922 15.4763C99.453 15.5842 99.4598 15.6486 99.4163 15.7134C99.345 15.8196 99.3916 15.8923 99.5305 15.8923C99.5866 15.8923 99.6323 15.9054 99.6323 15.921C99.6323 15.937 99.6487 16.003 99.6687 16.0686C99.7027 16.1774 99.6657 16.1835 99.2126 16.1413C98.9416 16.1166 98.6262 16.0777 98.512 16.0551C98.3471 16.0227 98.3049 16.0362 98.3049 16.1216C98.3049 16.1802 98.2647 16.2561 98.2157 16.2902C98.0891 16.378 98.165 16.773 98.3237 16.8522C98.4373 16.9092 98.4379 16.9125 98.3326 16.9211C98.2218 16.9301 98.2218 16.9301 98.3326 16.9892C98.4407 17.0466 98.2894 17.0713 97.724 17.0885C97.4882 17.0955 97.3095 17.1878 97.3095 17.3022C97.3095 17.3637 97.2521 17.4007 97.1573 17.4015C97.0639 17.4035 96.9709 17.4178 96.8796 17.4441C96.7616 17.4831 96.7598 17.4913 96.8518 17.5779C96.9058 17.6288 97.0178 17.671 97.1012 17.6722C97.1845 17.6735 97.4166 17.7826 97.6172 17.9143C97.8197 18.0476 98.0626 18.1543 98.1632 18.1543C98.4981 18.1543 99.0212 18.2416 98.9953 18.2933C98.9811 18.3216 99.012 18.3401 99.0638 18.3352C99.1163 18.3309 99.1638 18.3763 99.1774 18.4439C99.2027 18.5948 98.8762 18.8545 98.7076 18.818C98.6404 18.8032 98.5762 18.825 98.565 18.866C98.5391 18.9628 97.8934 18.9903 97.6354 18.9054C97.5258 18.8693 96.9595 18.8315 96.3774 18.8213C95.3928 18.8041 95.1024 18.8389 95.4706 18.9308C95.5539 18.9513 95.7345 18.9997 95.8715 19.0383C96.0311 19.08 96.1929 19.1043 96.3555 19.1109C96.4845 19.1126 96.5904 19.145 96.5904 19.1827C96.5904 19.22 96.6292 19.2512 96.6768 19.2512C96.7246 19.2512 96.8147 19.2849 96.8774 19.3263C96.9894 19.4009 96.9891 19.4026 96.8598 19.4826C96.6326 19.6229 96.703 19.755 97.0845 19.9051C97.2799 19.9822 97.4518 20.0905 97.466 20.1451C97.4802 20.2001 97.5138 20.2628 97.5407 20.2846C97.6252 20.3535 97.524 20.5648 97.4283 20.5192C97.3799 20.4963 97.3558 20.4967 97.3743 20.5196C97.3928 20.5426 97.3456 20.6394 97.2687 20.7346C97.1678 20.8593 97.0641 20.9106 96.8928 20.9188C96.7626 20.9249 96.666 20.95 96.6783 20.975C96.6907 20.9996 96.4626 21.0045 96.1715 20.9861C95.7484 20.959 95.6237 20.9734 95.5493 21.0562C95.4465 21.1719 94.9033 21.2195 94.62 21.1379C94.512 21.1067 94.433 21.1161 94.4092 21.1633C94.3885 21.2047 94.3129 21.2388 94.2413 21.2388C94.0746 21.2388 93.9357 21.3044 93.9357 21.3832C93.9357 21.4168 93.9718 21.4447 94.016 21.4447C94.0601 21.4447 94.1172 21.4911 94.1431 21.5485C94.1722 21.6129 94.3885 21.7003 94.7129 21.7782C95.3518 21.9325 95.8222 22.1679 95.7777 22.3115C95.7593 22.3677 95.7113 22.3953 95.6678 22.3747C95.6246 22.3542 95.603 22.3649 95.62 22.3993C95.637 22.433 95.5857 22.5573 95.5058 22.6746C95.3993 22.8317 95.3317 22.8764 95.2496 22.8444C95.1882 22.8198 95.1524 22.8284 95.1697 22.8629C95.187 22.8973 95.1141 22.9285 95.0086 22.9326C94.9027 22.9359 94.6413 22.9921 94.428 23.0569L94.0397 23.1746L94.1632 23.3379C94.2311 23.4273 94.3098 23.5008 94.3379 23.5008C94.3663 23.5008 94.4746 23.5508 94.5789 23.6124C94.761 23.7194 94.7654 23.7305 94.6848 23.8831C94.6317 23.9832 94.6212 24.0579 94.6564 24.0845C94.671 24.0954 94.6814 24.1139 94.6852 24.1355C94.6891 24.1571 94.6859 24.1798 94.6765 24.1982C94.6536 24.2441 94.624 24.2363 94.5925 24.1764C94.561 24.1161 94.5296 24.1079 94.5027 24.1535C94.4799 24.1916 94.3867 24.2679 94.2953 24.3225L94.1292 24.4217L94.3043 24.4447C94.4938 24.4702 94.5953 24.6457 94.458 24.7114C94.4117 24.7335 94.3598 24.7343 94.3428 24.7134C94.3262 24.6929 94.2296 24.7335 94.1283 24.8037C94.0031 24.885 93.8705 24.9445 93.7339 24.9809C93.6184 25.008 93.4901 25.0711 93.4493 25.122C93.3524 25.2422 93.3144 25.2397 92.8005 25.0769C92.3391 24.9304 92.2092 24.9444 92.02 25.1589C91.9132 25.2795 91.8703 25.2853 91.5814 25.2192C91.2021 25.1323 90.4882 25.1212 90.5289 25.2028C90.5444 25.234 90.7388 25.298 90.9607 25.3452C91.5262 25.4645 91.5898 25.4904 91.4969 25.5614C91.336 25.6844 92.0564 25.9757 92.7607 26.0717C92.9509 26.0975 93.1188 26.1431 93.1333 26.1726C93.1481 26.2021 93.108 26.3088 93.0438 26.4093C92.937 26.5779 92.9348 26.6013 93.0172 26.7137C93.066 26.781 93.1061 26.8528 93.1061 26.8737C93.1061 26.9582 92.1697 26.8364 91.862 26.7112C91.4191 26.532 90.5228 26.4011 90.4401 26.5037C90.3962 26.5578 90.3956 26.6046 90.4385 26.6686C90.4965 26.7547 90.5851 26.7916 91.3228 27.037C91.5527 27.1133 91.6685 27.1863 91.6685 27.2548C91.6685 27.3418 91.603 27.3508 91.258 27.3122C90.995 27.2823 90.8351 27.2917 90.8123 27.3368C90.7928 27.3758 90.8073 27.4078 90.8447 27.4078C90.8817 27.4078 90.8996 27.4238 90.8839 27.4431C90.8468 27.489 90.0635 27.2856 89.9857 27.2093C89.9243 27.1498 89.1169 26.9959 88.9447 27.0107C88.8913 27.0156 88.8478 27.0579 88.8478 27.1051C88.8478 27.1522 88.8348 27.2322 88.8191 27.2831C88.7919 27.3709 89.4672 27.5485 90.6311 27.7594C90.8061 27.791 91.0394 27.8636 91.1496 27.921C91.2598 27.978 91.4277 28.0248 91.5231 28.0248C91.7734 28.0256 92.1333 28.1614 92.0749 28.2332C92.0481 28.2668 91.7114 28.3029 91.3265 28.3136C90.9419 28.3243 90.6311 28.3382 90.6364 28.3448C90.6413 28.3509 90.7684 28.4162 90.9188 28.4892C91.1805 28.6168 91.1867 28.6258 91.0669 28.7054C90.9734 28.7673 90.8734 28.7698 90.6666 28.7148C90.3302 28.6254 90.2857 28.6241 90.2857 28.7045C90.2857 28.7394 90.3598 28.7878 90.4509 28.8128C90.7533 28.8949 90.6879 28.9843 90.3252 28.9843C90.1141 28.9843 89.9006 29.0278 89.7969 29.0918C89.6919 29.1566 89.5743 29.1804 89.5006 29.1513C89.3425 29.0893 86.7459 29.0651 86.7765 29.1267C86.8407 29.2555 86.1154 29.2547 85.4962 29.125C84.2425 28.8629 83.1759 28.714 82.4879 28.7045C82.1077 28.6996 81.5351 28.6533 81.2157 28.6012C80.7951 28.5361 80.3736 28.4811 79.9515 28.4363C79.5753 28.3977 79.2518 28.3542 79.2324 28.3394C79.2129 28.3251 79.0104 28.2935 78.7824 28.2693C78.5795 28.2483 78.3768 28.2241 78.1743 28.1967C77.9524 28.1634 76.9435 28.0937 76.2108 28.0609C75.5833 28.0295 74.9564 27.9804 74.3305 27.9136C74.1478 27.8931 73.4385 27.8636 72.7543 27.848C72.0697 27.8316 71.2611 27.793 70.9568 27.7618C70.6527 27.7315 69.8117 27.7089 69.0873 27.7126C67.9926 27.7184 67.7623 27.7368 67.7185 27.8205C67.6741 27.9066 67.6586 27.9071 67.6166 27.8262C67.5833 27.7622 67.5123 27.7442 67.4034 27.7709C67.3132 27.7934 67.2126 27.7778 67.1793 27.7364C67.146 27.6954 67.0367 27.6548 66.9364 27.647C66.8377 27.6395 66.7396 27.6211 66.6432 27.592C66.3117 27.4702 65.9663 27.4349 65.8271 27.5083C65.7154 27.5674 65.4367 27.4976 65.4753 27.4205C65.4895 27.3918 65.2231 27.3602 64.883 27.3504C63.9676 27.3229 63.8728 27.3106 63.7691 27.2039C63.6849 27.1174 63.6765 27.1215 63.6932 27.24C63.7058 27.3303 63.6852 27.3656 63.629 27.3491C63.5605 27.3328 63.4911 27.3242 63.4216 27.3233C63.3531 27.3225 63.2972 27.2983 63.2972 27.2691C63.2972 27.2404 63.2571 27.1978 63.208 27.1744C63.1432 27.1436 63.1278 27.1613 63.1521 27.2392C63.175 27.313 63.1639 27.3295 63.117 27.2925C63.079 27.2626 62.812 27.2285 62.5228 27.2166C61.9151 27.192 62.0055 27.192 59.1494 27.2043C57.9478 27.2101 56.8111 27.192 56.6228 27.165C56.4346 27.1375 56.2392 27.135 56.188 27.1596C56.0938 27.2043 54.2873 27.2925 53.7321 27.2798C53.2981 27.2696 52.8059 27.5858 53.0796 27.6991C53.1204 27.7155 53.092 27.7643 53.0105 27.818C52.9346 27.8673 52.8586 27.9341 52.8417 27.9657C52.7806 28.0806 52.3108 28.145 52.1778 28.0564C52.0935 28.0006 51.871 27.9809 51.5207 27.9973C51.2293 28.0113 50.2722 28.0391 49.3941 28.0588C48.5157 28.0789 47.7367 28.1138 47.6627 28.1368C47.5889 28.1598 47.275 28.1836 46.9651 28.1893C46.6553 28.195 46.3519 28.2344 46.2911 28.2767C46.1824 28.3526 45.6695 28.4769 45.5837 28.4481C45.4778 28.4133 45.2812 28.4219 45.1022 28.4699C44.9957 28.4986 44.8587 28.5167 44.7979 28.5105C44.7371 28.5044 44.6374 28.4937 44.5766 28.4867C44.5158 28.4801 44.2296 28.5113 43.9408 28.5552C43.6519 28.5995 43.3077 28.6352 43.1763 28.6344C43.0448 28.6336 42.9077 28.6623 42.8719 28.698C42.8361 28.7337 42.7259 28.7841 42.6272 28.8104C42.48 28.8494 42.4475 28.837 42.4475 28.7419C42.4475 28.6393 42.4019 28.6311 42.0463 28.6746C41.8259 28.7013 41.2472 28.73 40.7608 28.7386C40.2741 28.7476 39.7417 28.7907 39.5778 28.835C39.4702 28.8658 39.3619 28.8926 39.2531 28.9154C39.2383 28.9154 39.2571 28.9618 39.2951 29.0184C39.333 29.075 39.4482 29.1209 39.5506 29.1209C39.6534 29.1209 39.7377 29.1341 39.7377 29.1496C39.7377 29.1656 39.7528 29.2276 39.771 29.2871C39.8173 29.4356 39.6614 29.4282 39.5386 29.276C39.4688 29.1898 39.4358 29.1804 39.4192 29.2424C39.4068 29.2891 39.3735 29.31 39.3457 29.2891C39.3179 29.2678 39.2951 29.2752 39.2951 29.3055C39.2951 29.3363 39.2392 29.365 39.1707 29.3695C39.1022 29.374 38.7229 29.413 38.3272 29.4557C37.9321 29.4983 37.1355 29.5455 36.5574 29.5607C35.9797 29.5755 35.4445 29.605 35.3685 29.6255C35.1108 29.6952 33.6942 29.8581 32.9352 29.9045C31.5284 29.9906 30.4621 30.24 30.2423 30.5342C30.1735 30.6261 30.0522 30.7003 29.9652 30.704C29.2494 30.7327 28.2556 30.825 27.8195 30.9034C27.5829 30.9438 27.3457 30.9777 27.1081 31.0051C26.888 31.0299 26.6687 31.0657 26.4507 31.1122C26.2979 31.1483 26.1636 31.1778 26.1528 31.1778C26.1417 31.1778 26.1328 31.0986 26.1328 31.0022C26.1328 30.9058 26.1087 30.8451 26.0791 30.8677Z" fill="#495057"/>
<path fill-rule="evenodd" clip-rule="evenodd" d="M69.3689 0.289205C69.3948 0.270307 69.4488 0.345224 69.4886 0.454564C69.5305 0.570653 69.5948 0.654346 69.6425 0.654346C69.7071 0.654346 69.7123 0.671219 69.6671 0.733651C69.6235 0.794395 69.6251 0.818354 69.6736 0.837253C69.7232 0.856488 69.721 0.883486 69.6633 0.964478C69.6077 1.04311 69.6047 1.07314 69.6513 1.09137C69.6848 1.10419 69.7123 1.13962 69.7123 1.16999C69.7123 1.20037 69.6905 1.20948 69.6638 1.19024C69.6363 1.17067 69.6281 1.19362 69.6447 1.24356C69.6608 1.29182 69.6488 1.3313 69.618 1.3313C69.5774 1.3313 69.5763 1.36168 69.6145 1.44402C69.6564 1.53446 69.6518 1.55673 69.5899 1.55673C69.5278 1.55673 69.5245 1.57124 69.5741 1.63232C69.6374 1.71028 69.7603 1.64042 69.7442 1.53547C69.7401 1.50847 69.7625 1.47506 69.7938 1.4619C69.8314 1.4457 69.8412 1.48013 69.8227 1.56213C69.8072 1.63098 69.8145 1.6735 69.839 1.65696C69.8633 1.64076 69.9271 1.64582 69.9808 1.66877C70.0582 1.70151 70.0353 1.71872 69.8709 1.75111C69.7415 1.77676 69.6633 1.82198 69.6633 1.87159C69.6633 1.91546 69.6207 1.95123 69.5684 1.95123C69.5164 1.95123 69.4436 2.00084 69.4068 2.06158C69.3408 2.16991 69.0923 2.31806 69.0116 2.2968C68.9887 2.29106 68.8459 2.32211 68.6941 2.36632C68.5021 2.41884 68.3081 2.45894 68.1128 2.48646C67.9449 2.50839 67.7952 2.54922 67.7803 2.57723C67.7653 2.60524 67.7048 2.62853 67.6459 2.6292C67.5873 2.62988 67.4071 2.70547 67.2461 2.79726C67.0847 2.88872 66.9157 2.96431 66.8705 2.96498C66.825 2.96566 66.7743 2.99198 66.7577 3.02269C66.741 3.05374 66.7522 3.07905 66.7825 3.07905C66.8503 3.07905 66.8261 3.33113 66.7577 3.33687C66.7307 3.3389 66.6124 3.37264 66.4947 3.41111C66.3769 3.45026 66.227 3.4668 66.1613 3.44756C66.0959 3.42866 65.9725 3.43811 65.8872 3.46848C65.8019 3.49886 65.6094 3.55116 65.4596 3.58525C65.048 3.67805 64.8286 3.75567 64.8286 3.80798C64.8286 3.86264 67.3338 3.82485 67.9541 3.76073C68.2809 3.72698 68.4055 3.73643 68.5401 3.80393C68.6341 3.85117 68.7222 3.89336 68.7355 3.89808C68.7491 3.90247 68.8241 3.93689 68.9026 3.97401C68.9811 4.01147 69.08 4.02665 69.1225 4.00776C69.1648 3.98852 69.8148 3.96388 70.567 3.95275C71.3189 3.94161 72.0333 3.90719 72.154 3.87648C72.2748 3.84543 72.637 3.79076 72.9588 3.75499C73.2807 3.71855 73.5862 3.6632 73.6375 3.63148C73.689 3.59976 73.8383 3.58558 73.9694 3.6001C74.1008 3.61494 74.2199 3.60448 74.2343 3.57749C74.2488 3.55049 74.2812 3.54306 74.3063 3.56061C74.3311 3.5785 74.3515 3.56635 74.3515 3.53361C74.3515 3.50054 74.3679 3.47894 74.3883 3.48502C74.4695 3.50965 74.8887 3.4074 74.8887 3.36252C74.8887 3.30751 75.2577 3.21606 75.3973 3.23631C75.4485 3.24407 75.5319 3.19918 75.5823 3.13642C75.6328 3.07398 75.7115 3.01965 75.7576 3.01594C75.8036 3.01257 75.9729 3.00379 76.1342 2.99704C76.295 2.99029 76.515 2.95587 76.6224 2.9201C76.73 2.88399 76.9009 2.84046 77.0023 2.82325C77.1037 2.8057 77.1748 2.76925 77.1604 2.74225C77.1148 2.65721 77.2233 2.63494 78.0717 2.5553C78.117 2.55091 78.15 2.52324 78.1453 2.49388C78.1404 2.46452 78.1805 2.42571 78.2342 2.40749C78.3117 2.37528 78.3858 2.33166 78.4549 2.27756C78.5438 2.20771 78.7288 2.17025 79.1145 2.14426C79.4091 2.12435 79.701 2.11052 79.7631 2.11389C79.8253 2.11726 79.9436 2.07947 80.0261 2.0302C80.1112 1.97958 80.1891 1.96304 80.206 1.9924C80.2483 2.06462 80.4202 2.13414 80.3826 2.06327C80.3428 1.98903 80.3903 1.99308 80.5203 2.07441C80.7827 2.23875 82.0253 2.11389 82.155 1.9104C82.195 1.84729 82.1994 1.80477 82.167 1.79229C82.1392 1.78149 82.1166 1.75044 82.1166 1.72277C82.1166 1.69543 82.1474 1.68666 82.1847 1.70319C82.2223 1.72007 82.2675 1.70657 82.2855 1.67316C82.3327 1.58474 82.0402 1.59757 81.8822 1.69104C81.8097 1.7339 81.6513 1.78756 81.5306 1.81051C81.4096 1.83312 81.2722 1.86012 81.2253 1.87024C81.1782 1.88036 81.1398 1.85539 81.1398 1.81456C81.1398 1.76225 81.079 1.74639 80.9324 1.75955C80.7718 1.77406 80.7443 1.76529 80.8111 1.7204C80.8588 1.68868 80.8866 1.64211 80.8732 1.6168C80.8443 1.56281 81.1174 1.50814 81.6459 1.46258C81.9429 1.43727 82.0397 1.44739 82.0724 1.50713C82.1035 1.56348 82.1152 1.56551 82.116 1.51421C82.1168 1.41061 82.4104 1.42748 82.5156 1.53716C82.5646 1.58845 82.605 1.60668 82.605 1.57732C82.605 1.54492 82.7633 1.53918 83.0078 1.56247C83.2293 1.58407 83.5755 1.61545 83.7769 1.63232C83.9786 1.6492 84.2154 1.69307 84.3037 1.72918C84.3917 1.76495 84.5187 1.7825 84.5855 1.76765C84.6526 1.75314 84.721 1.76697 84.7381 1.79836C84.7569 1.83379 84.7441 1.83852 84.7049 1.81051C84.6651 1.78216 84.6528 1.78688 84.6722 1.82333C84.709 1.89217 84.942 1.95427 85.2175 1.96912C85.3803 1.97789 85.4138 1.99983 85.4181 2.10073C85.423 2.20872 85.3892 2.22627 85.1009 2.26508C84.9232 2.2887 84.7232 2.30287 84.6561 2.29612L84.534 2.28397L84.6635 2.36497C84.8883 2.50603 85.1072 2.56576 85.5351 2.60187C85.7635 2.6211 86.093 2.67847 86.2677 2.72909C86.6691 2.84552 88.0623 2.85463 88.1231 2.74091C88.1439 2.70189 88.1852 2.68887 88.2185 2.71087C88.3003 2.76925 89.1991 2.78849 89.1683 2.73179C89.14 2.67814 89.1471 2.67746 89.7859 2.65485C90.237 2.63899 90.4272 2.61975 91.1023 2.52155C91.4103 2.47701 91.5901 2.50265 91.7662 2.61604C91.8398 2.66396 91.824 2.69096 91.6463 2.82021C91.5035 2.92482 91.3285 2.98591 91.0647 3.02438C90.6142 3.09018 90.1844 3.17286 89.8748 3.25385C89.6894 3.30211 89.6526 3.33181 89.672 3.41753C89.6859 3.47895 89.7238 3.50999 89.7641 3.49177C89.8017 3.47523 89.8325 3.48974 89.8325 3.52417C89.8325 3.55859 89.7944 3.58693 89.7472 3.58727C89.6742 3.58795 89.6723 3.59605 89.7349 3.64295C89.7813 3.67738 89.7865 3.69796 89.7486 3.6983C89.7159 3.69897 89.7017 3.73745 89.7175 3.78435C89.7371 3.84341 89.6883 3.89842 89.5572 3.96591L89.3686 4.06243L89.8456 4.09617C90.1018 4.11487 90.3584 4.12443 90.615 4.12486C90.7758 4.12148 90.9069 4.12216 90.9069 4.12621C90.9069 4.12992 90.8633 4.19168 90.8093 4.26322C90.7556 4.33476 90.7117 4.37593 90.7117 4.35501C90.7117 4.33409 90.6621 4.35433 90.6016 4.40023C90.5411 4.44579 90.3288 4.51261 90.1296 4.54804C89.9306 4.58381 89.6807 4.64861 89.5741 4.6918C89.454 4.73823 89.3295 4.76545 89.2038 4.77279C88.9318 4.77583 88.2469 4.98135 88.4447 5.00058C88.4926 5.00785 88.5402 5.01799 88.5873 5.03096C88.6396 5.04482 88.6921 5.05842 88.7445 5.07179C88.8563 5.10014 88.8634 5.15481 88.7603 5.1926C88.7036 5.21353 88.6001 5.29182 88.5298 5.36707C88.4594 5.44233 88.3532 5.50375 88.2932 5.50375C88.2332 5.50375 88.1591 5.53851 88.1283 5.58136C88.0825 5.64481 88.1229 5.66539 88.3545 5.69577C88.4974 5.71423 88.6401 5.7356 88.7824 5.75989C88.9743 5.79566 89.7371 5.7906 89.7895 5.75314C89.8603 5.70252 90.4188 5.67889 90.4188 5.72614C90.4188 5.75145 90.3858 5.80342 90.3452 5.84189C90.3051 5.8807 90.2721 5.93874 90.2721 5.97114C90.2721 6.00354 90.2866 6.01332 90.3043 5.99274C90.322 5.97249 90.3659 5.98396 90.4019 6.01838C90.4381 6.05314 90.4673 6.05719 90.4673 6.0275C90.4673 5.9978 90.5005 5.9735 90.5409 5.9735C90.658 5.9735 90.6259 6.03391 90.4645 6.11625C90.2833 6.20905 90.3092 6.24786 90.6016 6.32109C90.8682 6.38859 90.9189 6.4932 90.7278 6.58229C90.53 6.67442 89.6009 6.79389 89.0697 6.79557C88.8206 6.79625 88.5587 6.8138 88.4875 6.83438L88.3578 6.87184L88.4968 7.00345C88.5736 7.07567 88.6734 7.13574 88.7186 7.13675C88.8345 7.13979 88.8696 7.22922 88.8075 7.36319C88.7421 7.50493 88.3172 7.75904 88.1466 7.75904C88.0746 7.75904 88.0329 7.78334 88.0501 7.8154C88.0667 7.84645 88.1207 7.87176 88.17 7.87176C88.2526 7.87176 88.3444 8.01248 88.3264 8.11136C88.3079 8.21192 89.0827 8.09955 89.1476 7.99223C89.1972 7.91056 90.4444 7.69627 90.5667 7.74892L90.6837 7.79853L90.57 7.86872C90.5076 7.90753 90.1018 8.00708 89.6684 8.09077C88.8753 8.24331 88.6821 8.35096 89.2019 8.35096C89.3616 8.35096 89.5085 8.38336 89.5562 8.42858C89.6243 8.49337 89.718 8.49506 90.1138 8.43938C90.8415 8.33679 91.2639 8.26625 91.3631 8.23116C91.4288 8.20787 91.4487 8.22441 91.4367 8.29325C91.4187 8.39314 91.2677 8.51024 91.0306 8.60811C90.8268 8.69214 90.9535 8.76604 91.2143 8.71542C91.3274 8.69315 91.5187 8.65738 91.6395 8.63544L91.8594 8.59596L91.6763 8.79844C91.5754 8.9098 91.4931 9.01003 91.4931 9.02117C91.4931 9.03231 91.6294 9.0593 91.7956 9.0809C92.19 9.13253 92.4004 9.25976 92.3977 9.44503C92.3963 9.54289 92.0802 9.67349 91.7864 9.69813C91.6654 9.70859 91.3904 9.75719 91.1756 9.80646C90.9608 9.85573 90.6311 9.9077 90.443 9.92153C90.2305 9.93871 90.0186 9.96697 89.808 10.0062C88.8075 10.2091 88.5824 10.2593 88.539 10.2877C88.5126 10.3052 88.5894 10.3474 88.7099 10.3812C88.8312 10.4152 88.929 10.4757 88.929 10.5168C88.929 10.6117 88.4368 10.8178 87.9901 10.91C87.7729 10.9549 87.6121 11.0213 87.5595 11.0888C87.5124 11.1489 87.3488 11.2245 87.1872 11.2613C86.8201 11.3446 86.8302 11.4239 87.2289 11.594C87.3142 11.6305 87.3745 11.6895 87.3625 11.7256C87.3347 11.807 87.1084 11.9315 86.9874 11.9315C86.9376 11.9315 86.9103 11.9571 86.9269 11.9878C86.9433 12.0189 87.1204 12.0445 87.3205 12.0445C87.6497 12.0445 87.7819 12.1019 87.623 12.1761C87.4805 12.2426 88.1932 12.2065 88.5453 12.1299C88.9835 12.0341 89.2223 12.0742 89.2223 12.2433C89.2223 12.3216 89.0945 12.4239 88.7426 12.6284C88.4115 12.821 88.2834 12.922 88.3278 12.955C88.4123 13.0178 88.3289 13.0822 88.0013 13.2071C87.5391 13.3836 87.1722 13.6789 87.2205 13.8365C87.2532 13.9438 87.073 14.0025 86.3284 14.1267C85.9586 14.1885 85.5879 14.2779 85.5051 14.3258C85.4222 14.3731 85.2467 14.4271 85.1151 14.4456C84.752 14.4959 84.0576 14.6987 83.9491 14.7861C83.8963 14.8286 83.7864 14.8654 83.7049 14.8678C83.6237 14.8698 83.5133 14.8934 83.4596 14.9201C83.3817 14.9586 83.4016 14.97 83.5572 14.9768C83.9734 14.9947 84.1944 15.0419 84.2495 15.1253C84.2871 15.1823 84.346 15.1995 84.4204 15.1759C84.5182 15.1455 84.5217 15.1489 84.4476 15.2029C84.4002 15.237 84.3231 15.2579 84.2767 15.2491C84.2252 15.2413 84.1729 15.2522 84.1263 15.2805C84.0876 15.3085 84.0115 15.2974 83.9401 15.2535C83.8464 15.1955 83.7995 15.1938 83.7276 15.2458C83.669 15.2879 83.624 15.292 83.6055 15.2572C83.5891 15.2269 83.4507 15.2012 83.298 15.1999C83.1451 15.1988 82.965 15.1617 82.8979 15.1175C82.7516 15.021 82.7025 15.0139 82.7025 15.0892C82.7025 15.1202 82.7369 15.1455 82.7788 15.1455C82.8205 15.1455 82.8429 15.1681 82.8279 15.1955C82.8134 15.2231 82.8472 15.2596 82.9037 15.2765C82.9598 15.2933 82.9963 15.3406 82.9846 15.3814C82.9631 15.4567 82.7445 15.5009 82.0678 15.5663C81.4565 15.6257 81.2864 15.6575 81.2864 15.7128C81.2864 15.7422 81.3191 15.7658 81.3597 15.7658C81.4003 15.7658 81.4327 15.8161 81.4327 15.8785C81.4327 15.9612 81.4 15.9912 81.3106 15.9912C81.1703 15.9912 81.1463 16.0783 81.276 16.1174C81.324 16.1319 81.5712 16.1303 81.8255 16.1137C82.5654 16.0655 82.8617 16.0813 83.0165 16.1782C83.0953 16.2274 83.1735 16.2575 83.1909 16.2453C83.2081 16.2328 83.213 16.2943 83.2018 16.3817C83.1776 16.572 83.2465 16.6017 83.7477 16.6179C84.0478 16.6273 84.0712 16.6358 83.9668 16.6982C83.7951 16.8008 83.1658 16.9479 82.7906 16.9736C82.5987 16.9867 82.4177 17.033 82.3526 17.0856C82.2136 17.1977 82.1302 17.1993 82.0364 17.091C81.9942 17.0421 81.8764 17.0067 81.759 17.0077C81.397 17.0097 80.0466 17.1683 79.8632 17.2304C79.692 17.2878 79.6868 17.2972 79.7228 17.4821C79.7457 17.5986 79.7405 17.6971 79.71 17.7325C79.6751 17.773 79.6765 17.8149 79.7146 17.8679C79.8313 18.0302 79.683 18.0636 78.9703 18.0366C78.4165 18.0153 78.2437 18.0268 78.1314 18.093C78.0126 18.1632 77.4765 18.2597 77.1108 18.2769C77.0571 18.2796 76.9034 18.3042 76.769 18.3319L76.5248 18.3825L76.7445 18.4233C76.8655 18.446 77.228 18.4514 77.5504 18.4355C77.8921 18.4192 78.234 18.4121 78.5759 18.4142C78.8177 18.4186 79.29 18.3805 79.6258 18.3299C80.2902 18.23 80.9754 18.1601 81.2703 18.1621C81.3731 18.1628 81.4712 18.1412 81.4878 18.1142C81.5047 18.0872 81.5873 18.0619 81.6709 18.0579C81.7549 18.0538 81.8236 18.0295 81.8236 18.0039C81.8236 17.9782 81.8729 17.9735 81.9334 17.9931C82.0195 18.0207 82.0274 18.0157 81.9699 17.9694C81.907 17.9185 81.9086 17.9101 81.9822 17.9094C82.0293 17.9087 82.0678 17.8804 82.0678 17.8456C82.0678 17.8071 82.1141 17.8179 82.188 17.8739C82.3215 17.9752 82.3804 17.9907 82.3398 17.9148C82.325 17.8874 82.3567 17.8517 82.4101 17.8355C82.4657 17.8186 82.5071 17.8341 82.5071 17.8716C82.5071 17.9094 82.5842 17.9367 82.6903 17.9367C82.8066 17.9367 82.8693 17.9121 82.862 17.8689C82.8541 17.8223 82.9069 17.8095 83.0309 17.8277C83.2343 17.8581 83.4348 17.989 83.4359 18.093C83.4365 18.1375 83.4536 18.1318 83.4839 18.0778C83.5207 18.012 83.5313 18.0285 83.5321 18.152C83.533 18.3552 83.4526 18.5286 83.3572 18.5286C83.3163 18.5286 83.2964 18.5539 83.313 18.585C83.3294 18.616 83.3035 18.6434 83.255 18.6457C83.0942 18.6538 82.9917 18.6879 82.8829 18.7703C82.7854 18.8438 82.5559 18.8155 82.5559 18.7298C82.5559 18.7142 82.5856 18.7146 82.6213 18.7304C82.6576 18.7463 82.7178 18.7153 82.7557 18.6616C82.8151 18.5772 82.8151 18.5705 82.7551 18.6116C82.702 18.6488 82.6938 18.6363 82.7202 18.5566C82.7409 18.4949 82.7295 18.4348 82.6919 18.4071C82.5984 18.339 82.5199 18.3518 82.6047 18.4217C82.66 18.4669 82.6317 18.4743 82.4905 18.4517C82.3869 18.4348 82.2632 18.4503 82.2136 18.4858C82.146 18.5347 82.1073 18.5337 82.0528 18.4817C81.9953 18.4264 81.974 18.4325 81.9438 18.5131C81.9228 18.5685 81.9091 18.6322 81.9135 18.6555C81.9176 18.6791 81.8901 18.698 81.8519 18.698C81.8138 18.698 81.7745 18.7271 81.7642 18.7622C81.7538 18.7979 81.681 18.8347 81.6023 18.8445C81.5232 18.8543 81.4344 18.9009 81.4044 18.9484C81.3744 18.9957 81.3322 19.0159 81.3104 18.993C81.2886 18.9704 81.2845 18.9964 81.3014 19.0504C81.339 19.1718 81.2458 19.1833 81.2054 19.0622C81.1798 18.9849 81.1659 18.9859 81.085 19.0706C80.9983 19.1614 80.9931 19.1607 80.9923 19.0591C80.9918 18.969 80.9841 18.9653 80.9443 19.0362C80.8738 19.1624 80.8838 19.1897 81.0147 19.2275C81.0975 19.2518 81.1313 19.2984 81.1259 19.3811C81.1174 19.5127 80.9473 19.6109 80.7511 19.5977C80.5685 19.5852 80.4072 19.6578 80.4072 19.7526C80.4072 19.8134 80.3587 19.8313 80.224 19.8201C80.0272 19.8032 79.6961 19.8667 79.577 19.944C79.5179 19.9821 79.5225 19.9922 79.6015 19.9959C79.7156 20.0036 79.8295 20.0137 79.9433 20.0263C80.3587 20.0715 80.9108 20.0702 81.1103 20.0236C81.2469 19.9916 81.2907 19.997 81.2665 20.0428C81.2452 20.082 81.2583 20.0948 81.3008 20.0759C81.3412 20.058 81.406 20.1097 81.4575 20.2008C81.5202 20.3115 81.5284 20.3621 81.4864 20.3783C81.4469 20.3935 81.4565 20.4272 81.5156 20.4805C81.596 20.5534 81.5908 20.5578 81.4573 20.5312C81.3766 20.515 81.3382 20.5167 81.3717 20.5345C81.4954 20.602 81.4273 20.6715 81.2373 20.6715C81.1141 20.6715 81.0419 20.6456 81.0411 20.6007C81.0408 20.549 81.0297 20.5507 80.9986 20.6071C80.9721 20.655 80.9452 20.6621 80.9258 20.626C80.8931 20.5649 80.831 20.5696 80.6783 20.6452C80.626 20.6709 80.511 20.6938 80.4227 20.6958C80.2202 20.7006 80.1545 20.8406 80.3546 20.8406C80.4339 20.8406 80.5066 20.8774 80.5224 20.925C80.5415 20.9824 80.5203 21.0097 80.457 21.0097C80.4053 21.0097 80.3456 21.0414 80.3243 21.0806C80.2682 21.1815 80.0692 21.3009 80.018 21.2645C79.994 21.2476 79.9607 21.2591 79.9438 21.2908C79.9269 21.3222 79.8525 21.3482 79.7784 21.3482C79.7043 21.3482 79.5241 21.3893 79.3783 21.4396C79.148 21.5193 79.1276 21.5375 79.2213 21.578C79.2813 21.604 79.6887 21.6219 80.1275 21.6175C80.5663 21.6131 80.9542 21.6303 80.9893 21.6553C81.0256 21.6812 81.0675 21.6738 81.0863 21.6384C81.1256 21.5652 82.6439 21.5095 82.6815 21.58C82.6949 21.6046 82.7399 21.61 82.7816 21.5915C82.8328 21.5689 82.8396 21.5452 82.8023 21.5189C82.7723 21.4973 82.8143 21.4798 82.896 21.4798C82.9778 21.4798 83.0443 21.5037 83.0443 21.5338C83.0443 21.5631 83.0778 21.5554 83.1187 21.5162C83.1596 21.4767 83.2086 21.4629 83.2277 21.4848C83.2471 21.5068 83.2081 21.5729 83.1413 21.6316L83.02 21.7383L83.1421 21.7113C83.249 21.6877 83.252 21.6907 83.1667 21.7376C83.0258 21.8152 82.7941 21.8068 82.6584 21.7201C82.5262 21.6357 82.3608 21.6634 82.3608 21.7703C82.3608 21.8196 82.2643 21.8415 82.0432 21.8429C81.8443 21.8442 81.7257 21.822 81.7257 21.7832C81.7257 21.7491 81.6985 21.7629 81.6647 21.8135C81.6208 21.8804 81.4883 21.9161 81.1885 21.9421C80.9604 21.9624 80.6347 22.0143 80.4652 22.0579C80.2957 22.1017 80.0869 22.1399 80.0013 22.1429C79.9158 22.1459 79.7356 22.1831 79.6015 22.2252C79.3726 22.2975 79.3982 22.3005 80.0166 22.2715C80.3791 22.2546 80.7089 22.2404 80.7492 22.2398C80.7893 22.2394 81.2948 22.1794 81.8721 22.1068C82.4499 22.0339 83.0794 21.9667 83.2713 21.9573C83.4635 21.9478 83.6104 21.9212 83.5984 21.8979C83.5858 21.8743 83.6706 21.8554 83.7864 21.8554C83.902 21.8554 84.1944 21.8183 84.4362 21.7734C84.8507 21.6964 85.8259 21.6168 85.6934 21.6711C85.6596 21.6846 85.6443 21.7194 85.6596 21.7477C85.6749 21.7761 85.6255 21.8004 85.55 21.8017C85.4746 21.8034 85.3361 21.8527 85.2421 21.9114C85.148 21.9705 85.027 22.0423 84.9733 22.071C84.7967 22.1662 81.9165 22.7163 81.2373 22.7848C81.0359 22.805 80.4535 22.8718 79.9433 22.9333C79.4328 22.9947 78.7594 23.0696 78.4465 23.0996C78.1336 23.13 77.7717 23.1911 77.6425 23.236C77.4727 23.295 77.3983 23.3001 77.3738 23.2549C77.343 23.1975 76.8292 23.213 76.2073 23.2906C75.9877 23.3133 75.768 23.3322 75.548 23.3473C75.0661 23.3821 74.3319 23.4992 73.9209 23.6065C73.8048 23.6369 73.6893 23.647 73.6642 23.6291C73.6388 23.6109 73.2987 23.6524 72.9079 23.7206C72.3301 23.8218 72.1766 23.8319 72.0859 23.7759C71.9943 23.7192 71.8771 23.7287 71.4413 23.8279C70.7158 23.9932 69.769 24.2079 69.297 24.3138C69.0822 24.3624 68.7701 24.438 68.6033 24.4822C68.4365 24.5261 68.2278 24.5619 68.1395 24.5619C68.0509 24.5619 67.8797 24.598 67.7587 24.6429C67.5551 24.7181 67.1379 24.8015 66.0251 24.9901C65.6001 25.0584 65.1767 25.1406 64.7553 25.2365C64.4868 25.2952 64.0472 25.385 63.7785 25.4359L63.1435 25.5574C62.5736 25.6661 62.4648 25.664 62.3515 25.5422C62.2904 25.4767 62.2403 25.3944 62.2403 25.359C62.2403 25.3239 62.2239 25.2982 62.2038 25.3016C62.1836 25.3053 62.1165 25.3053 62.0555 25.3016C61.962 25.2962 61.9519 25.278 61.9928 25.1896C62.0525 25.0606 62.0045 24.9911 61.9151 25.0768C61.8143 25.1734 61.8375 25.0866 61.9533 24.9327C62.0141 24.8521 62.1359 24.7799 62.2485 24.7579C62.4122 24.7259 62.4311 24.7083 62.3785 24.6351C62.2997 24.5254 62.3662 24.5187 59.2369 24.9557C59.0221 24.9861 58.6373 25.0225 58.3822 25.0374C58.1271 25.0525 57.6654 25.0914 57.3566 25.1238C57.0478 25.1565 56.6412 25.1933 56.4531 25.2058C56.265 25.2179 56.0244 25.2544 55.9184 25.2864C55.8121 25.3185 55.3907 25.3465 54.9819 25.3482C54.5731 25.3502 54.2095 25.363 54.1738 25.3769C54.0861 25.4109 52.9417 25.4801 52.6694 25.468C52.5489 25.4622 52.4167 25.4227 52.3756 25.3799C52.2837 25.2837 52.0493 25.2743 50.9592 25.3215C50.458 25.3434 49.9979 25.3931 49.8469 25.4416C49.6496 25.5051 49.3226 25.5226 48.4551 25.5159C47.8312 25.5105 46.7934 25.526 46.1488 25.5493C44.8425 25.5965 44.9123 25.5972 43.5605 25.5294C42.6853 25.4855 42.1803 25.4838 41.4117 25.5216C41.2774 25.5284 41.206 25.5452 41.2531 25.5594C41.3 25.5736 41.3384 25.6117 41.3384 25.6441C41.3384 25.6829 41.2013 25.692 40.9356 25.6704C40.714 25.6522 40.0493 25.6117 39.4584 25.5803C38.8673 25.549 38.1093 25.497 37.7736 25.4656C36.4245 25.3374 35.9102 25.2925 35.2095 25.2409C33.4576 25.1116 32.5339 25.0603 31.5713 25.0384C31.1281 25.0279 30.5787 25.0023 30.3503 24.981C30.0984 24.9589 29.846 24.9479 29.5934 24.9479C29.4054 24.9506 29.032 24.9277 28.7633 24.8973C28.4946 24.8669 27.6249 24.8308 26.8301 24.817C26.0357 24.8035 25.2884 24.7677 25.1698 24.7374C25.051 24.707 24.7814 24.6685 24.5702 24.652C24.3593 24.6351 24.1178 24.6081 24.0333 24.5922C23.7444 24.5376 23.2936 24.5008 22.6343 24.4775C22.0538 24.4566 21.4897 24.407 20.6565 24.3034C20.5221 24.2865 20.3354 24.2662 20.2414 24.2575C20.1474 24.2487 19.9056 24.2254 19.7042 24.2055C19.5026 24.1853 19.1619 24.1539 18.9474 24.1346C18.7323 24.1157 18.5457 24.0925 18.5323 24.083C18.5187 24.0732 18.3827 24.0503 18.2298 24.0314C18.0771 24.0128 17.9199 23.9831 17.8809 23.9656C17.8414 23.9484 17.6146 23.9264 17.377 23.9173C16.7242 23.8917 16.7251 23.892 16.7251 23.8009C16.7251 23.7543 16.7019 23.7165 16.6733 23.7165C16.6449 23.7165 16.6379 23.7459 16.6569 23.7823C16.6812 23.8272 16.6651 23.8363 16.6071 23.8103C16.5602 23.7897 16.4735 23.7725 16.4141 23.7725C16.3413 23.7725 16.304 23.7361 16.2991 23.6598C16.2904 23.5248 16.3168 23.5188 16.4146 23.6318C16.5168 23.7499 16.6313 23.7408 16.597 23.6176C16.5801 23.5569 16.5852 23.5434 16.6106 23.5819C16.6387 23.6247 16.7763 23.6328 17.0426 23.6072C17.501 23.5633 17.8469 23.5751 18.4832 23.6578C18.7383 23.6912 19.0681 23.732 19.2158 23.7486C19.3636 23.7654 19.5102 23.7887 19.5415 23.8005C19.5729 23.8124 19.6113 23.7837 19.6268 23.7364C19.6478 23.673 19.6942 23.6608 19.8056 23.6892C19.9806 23.7334 20.0929 23.7503 20.5589 23.8019C20.747 23.8228 20.9138 23.8491 20.9299 23.8606C20.9642 23.8849 21.6172 23.889 22.5122 23.8707C23.0799 23.8586 23.4803 23.891 23.779 23.9727C23.9475 24.0185 25.1248 24.0385 25.1248 23.9953C25.1248 23.973 24.9766 23.9365 24.7951 23.9143C24.6141 23.8917 24.4217 23.8636 24.368 23.8512C23.9911 23.7654 22.9821 23.6689 22.1705 23.6419C21.9824 23.6352 21.8053 23.6129 21.7769 23.592C21.7298 23.5572 20.2343 23.4226 20.1539 23.4459C20.1348 23.4516 19.9544 23.4384 19.753 23.4165C19.4415 23.3831 18.6462 23.3156 18.4467 23.3058C18.3745 23.3024 18.366 23.2295 18.4323 23.1823C18.4797 23.1486 18.8479 23.1405 19.1809 23.1661C19.2826 23.1742 19.3837 23.214 19.4055 23.2549C19.4352 23.3099 19.5192 23.319 19.7334 23.291C19.892 23.2697 20.0362 23.2424 20.0542 23.2302C20.0722 23.2177 20.1204 23.2461 20.161 23.2933C20.2019 23.3406 20.2469 23.3571 20.261 23.3305C20.2886 23.2792 21.2744 23.3011 21.56 23.3595C21.654 23.3787 21.8197 23.4 21.9282 23.406C22.0367 23.4128 22.174 23.4476 22.2334 23.4843C22.3196 23.5377 22.3414 23.536 22.3414 23.4759C22.3414 23.4314 22.4068 23.3946 22.5 23.3858C22.8862 23.3497 23.4266 23.3531 23.8553 23.3942C24.1633 23.4239 24.2949 23.4202 24.2472 23.3831C24.0548 23.2346 24.4162 23.161 24.9785 23.2346C25.4772 23.3001 25.5661 23.3035 25.7817 23.2657C25.8929 23.2461 26.0488 23.2501 26.1283 23.2748C26.3374 23.3396 27.4246 23.454 27.9086 23.4624C28.1531 23.4674 28.3975 23.4827 28.6412 23.5083C28.8156 23.5296 29.1672 23.5599 29.4226 23.5758C29.8705 23.6076 30.3181 23.6448 30.7654 23.6875C31.2976 23.7368 31.8304 23.7771 32.3636 23.8083C33.0079 23.8421 33.0858 23.8367 33.1139 23.7523C33.1403 23.6723 33.2254 23.6588 33.689 23.6608C33.9882 23.6622 34.3319 23.6426 34.4526 23.6176L34.6723 23.5717L34.306 23.509C34.1046 23.4742 33.8628 23.4465 33.7691 23.4476C33.6748 23.4486 33.2902 23.4098 32.9144 23.3618C32.5383 23.3139 31.8242 23.2461 31.3271 23.2117C30.8302 23.1769 30.3748 23.1364 30.3151 23.1216C30.2552 23.1067 29.7608 23.0699 29.2162 23.0396C28.2375 22.9856 27.5516 22.941 27.0296 22.8985C26.8819 22.8863 26.375 22.8509 25.9035 22.8195C25.4317 22.7881 25.0142 22.751 24.9755 22.7372C24.9368 22.7237 24.861 22.693 24.8076 22.6697C24.7539 22.6461 24.6253 22.6197 24.522 22.6113C24.4189 22.6025 24.3088 22.5553 24.2778 22.506C24.2328 22.4352 24.1055 22.4139 23.6596 22.4021C23.3509 22.394 23.0764 22.3717 23.0494 22.3528C23.0224 22.3339 22.8357 22.3032 22.6343 22.2853C21.6714 22.1982 20.7086 22.1274 20.2659 22.1112C19.9972 22.1014 19.4257 22.0491 18.9959 21.9951C18.5664 21.9411 18.0169 21.8881 17.7749 21.8777C16.102 21.8068 14.7658 21.7167 14.0637 21.6286C13.8219 21.5982 13.3981 21.5571 13.122 21.5372C12.846 21.5169 12.6083 21.4791 12.5941 21.4528C12.58 21.4261 12.641 21.4022 12.7299 21.3998C12.8187 21.3974 12.9533 21.39 13.0297 21.3836C13.1051 21.3775 13.1768 21.39 13.1885 21.412C13.2003 21.4335 13.291 21.4254 13.3902 21.3941C13.4911 21.362 13.7118 21.3529 13.8903 21.3738C14.0661 21.3941 15.0012 21.4211 15.9682 21.4329C16.9352 21.445 18.0889 21.4713 18.532 21.4916C19.3221 21.527 19.5459 21.5051 19.0278 21.443C18.8839 21.4261 18.7558 21.3995 18.7427 21.3846C18.7078 21.3441 18.8863 21.2449 19.0346 21.222C19.2071 21.195 19.2616 21.1238 19.1142 21.1173C19.049 21.115 18.7103 21.089 18.3611 21.06C18.012 21.0313 17.3255 20.9925 16.8349 20.9743C16.0293 20.9439 15.9437 20.9314 15.9437 20.8423C15.9437 20.7181 15.7475 20.6888 14.5624 20.6361C14.0847 20.6149 13.6821 20.576 13.6682 20.5497C13.6543 20.5237 13.5464 20.5025 13.4287 20.5025C13.0275 20.5025 13.1398 20.3466 13.6331 20.2197C13.7721 20.1839 13.9588 20.1593 14.0479 20.165C14.6428 20.2031 14.4867 20.0921 13.8195 20.0024C13.5508 19.9662 13.1774 19.9247 12.9893 19.9095C12.8013 19.8944 12.4606 19.8569 12.2322 19.8259C12.0041 19.7951 11.5427 19.753 11.2066 19.7327C10.7932 19.7074 10.5806 19.6716 10.5473 19.6213C10.5204 19.5809 10.3462 19.5312 10.1568 19.511C9.96873 19.4907 9.79293 19.4435 9.76595 19.4054C9.73924 19.3676 9.55664 19.3193 9.36069 19.2984C9.16445 19.2775 8.95459 19.2231 8.89463 19.1776C8.82541 19.1253 8.61419 19.0858 8.32312 19.0699C7.69572 19.0362 7.20405 18.9727 7.1768 18.9218C7.14818 18.8685 7.5758 18.7919 7.64149 18.8388C7.66874 18.858 7.69054 18.8496 7.69054 18.8202C7.69054 18.7908 7.61368 18.7503 7.51966 18.7298C7.33405 18.6896 7.29889 18.6194 7.43407 18.559C7.59378 18.4875 7.3703 18.3744 6.86828 18.2722C6.44665 18.1868 6.1801 18.0808 6.37443 18.0761C6.55703 18.0717 6.27523 17.9721 5.98197 17.9377C5.80755 17.9168 5.63938 17.8756 5.60831 17.8456C5.57697 17.8159 5.41262 17.7656 5.24256 17.7339C4.77051 17.6462 4.7757 17.5753 5.25728 17.5318C5.43716 17.5156 5.6015 17.4673 5.6511 17.416C5.7206 17.3445 5.80536 17.3357 6.11497 17.3691C6.74455 17.4369 6.86937 17.4238 6.96394 17.2793C7.01027 17.2085 7.03861 17.1329 7.0269 17.1109C7.01518 17.0893 6.85793 17.0536 6.67668 17.032C6.49572 17.0104 6.32564 16.9729 6.29866 16.9483C6.27195 16.924 6.14549 16.8862 6.01794 16.8642C5.66773 16.8042 5.73968 16.7245 6.14414 16.7245C6.34091 16.7245 6.51888 16.7053 6.53932 16.682C6.55949 16.6587 6.76444 16.6398 6.99447 16.6398C7.28527 16.6398 7.41908 16.6182 7.43353 16.5693C7.44797 16.521 7.39537 16.4988 7.26728 16.4984C7.16426 16.4984 7.00292 16.4748 6.90916 16.4465C6.81513 16.4181 6.55213 16.379 6.32483 16.3591C6.09753 16.3395 5.88658 16.2997 5.85632 16.2706C5.82634 16.2416 5.78846 16.2328 5.77293 16.2507C5.75712 16.269 5.69334 16.2625 5.63093 16.2369C5.54317 16.2008 5.59523 16.1819 5.85905 16.1542C6.17057 16.1215 6.52596 16.0391 6.71374 15.9561C6.83312 15.9035 6.64752 15.8454 6.09126 15.7617C5.81599 15.7202 5.5906 15.6713 5.5906 15.6531C5.5906 15.6345 5.44778 15.6301 5.27308 15.6429C5.01798 15.6615 4.95584 15.65 4.95584 15.5839C4.95584 15.4816 5.11037 15.3146 5.20386 15.3156C5.26109 15.3163 5.26055 15.3257 5.20005 15.3713C5.13736 15.4179 5.13954 15.426 5.21367 15.4266C5.26164 15.4273 5.31369 15.3882 5.32977 15.3399C5.3543 15.2657 5.44288 15.2569 5.92664 15.2822C6.5325 15.3136 6.68159 15.2761 6.56985 15.1209C6.38288 14.861 5.6203 14.5816 5.09593 14.5816C4.77923 14.5816 4.6138 14.5134 4.6138 14.3825C4.6138 14.317 4.69202 14.3002 4.99237 14.3015C5.20059 14.3019 5.45869 14.3292 5.56607 14.3619C5.67372 14.3947 6.17983 14.4328 6.69112 14.447C7.59515 14.4716 7.62104 14.4692 7.62813 14.3592C7.63521 14.2506 7.57553 14.1726 7.47087 14.153C7.44389 14.148 7.23321 14.1027 7.00264 14.0525C6.2477 13.8885 5.57751 13.7882 4.89152 13.7376C4.25623 13.6904 4.03928 13.6259 4.10496 13.5031C4.11995 13.4751 4.15321 13.4673 4.1791 13.4855C4.20472 13.5037 4.21971 13.4855 4.21235 13.444C4.20472 13.4028 4.23687 13.3731 4.28375 13.3772C4.33036 13.3816 4.35815 13.3654 4.34507 13.3411C4.33226 13.3171 4.39631 13.281 4.48761 13.2614C4.68466 13.2186 4.73127 13.117 4.63043 12.9506C4.57674 12.8619 4.57075 12.8089 4.60917 12.7556C4.67213 12.6682 4.63098 12.6084 4.50833 12.6084C4.45873 12.6084 4.41839 12.5976 4.41839 12.5848C4.41839 12.5717 4.40394 12.5173 4.38623 12.4633C4.35625 12.3739 4.38896 12.3688 4.78905 12.4036C5.02834 12.4239 5.30688 12.4559 5.40772 12.4745C5.55325 12.5011 5.5906 12.49 5.5906 12.4198C5.5906 12.3715 5.62603 12.3091 5.66936 12.2811C5.78111 12.2089 5.71406 11.8839 5.57397 11.8188C5.47368 11.7719 5.47313 11.7692 5.56607 11.7621C5.66391 11.7547 5.66391 11.7547 5.56607 11.7061C5.47068 11.6588 5.60423 11.6386 6.10353 11.6244C6.31175 11.6187 6.46955 11.5427 6.46955 11.4486C6.46955 11.398 6.52024 11.3676 6.60392 11.3669C6.68641 11.3652 6.76857 11.3535 6.8492 11.3318C6.95331 11.2997 6.95495 11.293 6.87373 11.2218C6.82603 11.1799 6.7271 11.1452 6.65351 11.1442C6.57992 11.1432 6.37498 11.0534 6.19783 10.9451C6.01904 10.8354 5.80454 10.7477 5.71569 10.7477C5.41999 10.7477 4.95802 10.6758 4.98092 10.6332C4.99345 10.61 4.9662 10.5948 4.92042 10.5988C4.87406 10.6024 4.8321 10.565 4.82012 10.5094C4.79777 10.3852 5.08612 10.1716 5.23493 10.2016C5.29434 10.2138 5.35103 10.1959 5.36084 10.1621C5.38374 10.0825 5.9539 10.0599 6.18175 10.1297C6.2785 10.1594 6.77861 10.1905 7.29263 10.1989C8.16204 10.2131 8.4185 10.1844 8.09336 10.1088C8.01977 10.092 7.86034 10.0521 7.73933 10.0204C7.59844 9.98607 7.4555 9.96609 7.31198 9.96068C7.19805 9.95933 7.10457 9.93267 7.10457 9.90162C7.10457 9.87091 7.07023 9.84526 7.02826 9.84526C6.98602 9.84526 6.90643 9.81759 6.85111 9.78351C6.75217 9.72209 6.75245 9.72074 6.86664 9.65493C7.06723 9.53952 7.0051 9.43085 6.66823 9.30734C6.49571 9.2439 6.34391 9.15481 6.33137 9.10992C6.31883 9.0647 6.28912 9.01307 6.26541 8.99518C6.19073 8.93849 6.28013 8.76469 6.36462 8.80215C6.40741 8.82105 6.42867 8.82071 6.41231 8.80182C6.39596 8.78292 6.43766 8.70328 6.50553 8.62498C6.59465 8.52239 6.68622 8.48021 6.83748 8.47346C6.95249 8.4684 7.0378 8.44781 7.0269 8.42723C7.01599 8.40698 7.21741 8.40293 7.47441 8.41811C7.84807 8.44039 7.95817 8.42858 8.02386 8.36041C8.11461 8.26524 8.59429 8.2261 8.84448 8.29325C8.93987 8.3189 9.00965 8.31114 9.03063 8.27233C9.04889 8.23825 9.11567 8.21024 9.1789 8.21024C9.32607 8.21024 9.44871 8.15624 9.44871 8.09145C9.44871 8.06377 9.41683 8.04083 9.37785 8.04083C9.33888 8.04083 9.28846 8.00269 9.26556 7.95545C9.23994 7.90247 9.0489 7.83059 8.76245 7.76647C8.19829 7.63958 7.78294 7.44587 7.82218 7.32776C7.83844 7.28153 7.88086 7.25881 7.9192 7.27579C7.95736 7.29266 7.97644 7.28389 7.96145 7.25554C7.94646 7.22787 7.9917 7.12562 8.06229 7.0291C8.15632 6.89985 8.21601 6.86307 8.2885 6.88939C8.34274 6.90964 8.37435 6.90255 8.35908 6.8742C8.34382 6.84586 8.40815 6.82021 8.50136 6.81683C8.59484 6.81413 8.82568 6.7679 9.01401 6.71458L9.35687 6.61773L9.24785 6.48342C9.18789 6.40985 9.1184 6.34944 9.09359 6.34944C9.06852 6.34944 8.97286 6.30827 8.88074 6.25765C8.71994 6.16957 8.71612 6.16046 8.78725 6.03492C8.83413 5.95258 8.84339 5.89116 8.81232 5.86922C8.79947 5.86029 8.79023 5.84508 8.78687 5.82731C8.7835 5.80954 8.78631 5.79083 8.79461 5.77575C8.81478 5.73795 8.84095 5.74436 8.86875 5.79363C8.89655 5.84324 8.92434 5.84999 8.94806 5.81253C8.96822 5.78115 9.05053 5.71838 9.13121 5.67349L9.27783 5.59183L9.1233 5.57293C8.95596 5.55201 8.86629 5.40757 8.98757 5.35358C9.02845 5.33535 9.07424 5.33468 9.08923 5.35189C9.10395 5.36876 9.18925 5.33535 9.27864 5.27765C9.38922 5.21076 9.50628 5.16176 9.62696 5.13186C9.72889 5.10959 9.84227 5.05762 9.87824 5.01577C9.96382 4.91689 9.99734 4.91892 10.4511 5.05289C10.8586 5.17337 10.9733 5.16189 11.1404 4.9854C11.2347 4.88618 11.2726 4.88146 11.5277 4.93579C11.8626 5.00733 12.493 5.01645 12.457 4.94929C12.4434 4.92364 12.2717 4.871 12.0758 4.83219C11.5765 4.73399 11.5203 4.71273 11.6024 4.65434C11.7443 4.5531 11.1082 4.3135 10.4863 4.23454C10.3184 4.21327 10.1701 4.17581 10.1573 4.15152C10.1442 4.12722 10.1797 4.03948 10.2364 3.9568C10.3307 3.8181 10.3326 3.79886 10.2598 3.7064C10.2167 3.65105 10.1813 3.592 10.1813 3.57479C10.1813 3.50527 11.0082 3.60549 11.2799 3.70842C11.671 3.8559 12.4625 3.96355 12.5355 3.87918C12.5742 3.83463 12.5748 3.79617 12.5369 3.74352C12.4857 3.67265 12.4074 3.64228 11.7561 3.44047C11.553 3.37771 11.4508 3.31764 11.4508 3.26128C11.4508 3.18974 11.5086 3.18231 11.8133 3.21403C12.0455 3.23867 12.1867 3.23091 12.2068 3.19379C12.224 3.16173 12.2112 3.1354 12.1782 3.1354C12.1455 3.1354 12.1297 3.12224 12.1436 3.10638C12.1763 3.06859 12.868 3.23597 12.9367 3.29874C12.991 3.34767 13.7039 3.47422 13.856 3.46207C13.9032 3.45802 13.9416 3.42326 13.9416 3.38446C13.9416 3.34565 13.953 3.27984 13.9669 3.23799C13.9909 3.16577 13.3946 3.01965 12.3668 2.84619C12.2123 2.82021 12.0063 2.76048 11.909 2.71323C11.8117 2.66633 11.6634 2.62785 11.5792 2.62785C11.3581 2.62718 11.0404 2.51548 11.0919 2.45642C11.1156 2.42875 11.4129 2.39905 11.7528 2.39028C12.0924 2.3815 12.3668 2.37003 12.3622 2.36463C12.3578 2.35957 12.2456 2.30591 12.1128 2.24584C11.8817 2.14089 11.8763 2.13346 11.982 2.06799C12.0646 2.01704 12.1529 2.01501 12.3355 2.06023C12.6326 2.1338 12.6718 2.13481 12.6718 2.06867C12.6718 2.03999 12.6064 2.00016 12.526 1.97958C12.2589 1.91209 12.3167 1.83852 12.6369 1.83852C12.8233 1.83852 13.0119 1.80275 13.1035 1.7501C13.1962 1.69678 13.3 1.67721 13.3652 1.70117C13.5047 1.75212 15.7976 1.77204 15.7706 1.72142C15.7139 1.61545 16.3544 1.61613 16.9011 1.72277C18.0082 1.93841 18.9501 2.06091 19.5576 2.06867C19.8934 2.07272 20.3989 2.11085 20.681 2.15371C21.0525 2.20721 21.4246 2.25244 21.7974 2.28937C22.1296 2.3211 22.4152 2.35687 22.4324 2.36902C22.4496 2.38083 22.6283 2.40681 22.8298 2.42672C23.0089 2.44395 23.1879 2.46386 23.3667 2.48646C23.5626 2.51379 24.4536 2.57116 25.1006 2.59816C25.6547 2.62394 26.2082 2.66433 26.7609 2.71931C26.9223 2.73618 27.5486 2.76048 28.1528 2.7733C28.7573 2.7868 29.4714 2.81852 29.7401 2.84417C30.0085 2.86914 30.7512 2.8877 31.3909 2.88467C32.3576 2.87994 32.5609 2.86475 32.5996 2.79591C32.6388 2.72504 32.6525 2.72471 32.6895 2.79119C32.719 2.84383 32.7817 2.85868 32.8779 2.83675C32.9574 2.81818 33.0463 2.83101 33.0757 2.86509C33.1052 2.89884 33.2016 2.93225 33.2902 2.93866C33.3774 2.94483 33.464 2.95996 33.5491 2.98388C33.8418 3.08411 34.1468 3.11313 34.2697 3.05272C34.3684 3.00413 34.6145 3.0615 34.5804 3.12494C34.5679 3.14857 34.8031 3.17455 35.1034 3.18265C35.9118 3.20526 35.9955 3.21538 36.0871 3.30313C36.1615 3.37433 36.1688 3.37095 36.1541 3.27343C36.1429 3.19918 36.1612 3.17016 36.2108 3.18366C36.2713 3.19709 36.3325 3.2042 36.3939 3.20492C36.4544 3.2056 36.5038 3.22551 36.5038 3.24947C36.5038 3.27309 36.5392 3.30819 36.5825 3.32742C36.6398 3.35273 36.6534 3.33822 36.6319 3.2741C36.6117 3.21336 36.6215 3.19986 36.6629 3.23023C36.6965 3.25487 36.9322 3.28288 37.1876 3.29266C37.7242 3.31291 37.6444 3.31291 40.1665 3.30279C41.2275 3.29806 42.2313 3.31291 42.3975 3.33518C42.5638 3.35779 42.7363 3.35982 42.7815 3.33957C42.8647 3.30279 44.4598 3.23023 44.9502 3.24069C45.3333 3.24913 45.7681 2.98894 45.5263 2.8958C45.4903 2.8823 45.5154 2.84214 45.5874 2.79794C45.6544 2.75744 45.7214 2.70243 45.7364 2.67645C45.7904 2.58196 46.2052 2.52897 46.3227 2.60187C46.3971 2.64776 46.5936 2.66396 46.9029 2.65046C47.1602 2.63899 48.0054 2.61604 48.7807 2.59984C49.5564 2.58331 50.2443 2.55462 50.3097 2.53572C50.3748 2.51683 50.652 2.49725 50.9257 2.49253C51.1993 2.4878 51.4672 2.45541 51.5209 2.42065C51.6168 2.35822 52.0698 2.25596 52.1456 2.27959C52.239 2.30827 52.4126 2.30118 52.5707 2.2617C52.6648 2.23808 52.7858 2.22323 52.8395 2.22829C52.8931 2.23335 52.9812 2.24213 53.0349 2.24786C53.0886 2.25326 53.3412 2.22762 53.5963 2.19151C53.8514 2.15506 54.1553 2.1257 54.2714 2.12638C54.3875 2.12705 54.5085 2.10343 54.5401 2.07407C54.5717 2.04471 54.669 2.0032 54.7562 1.9816C54.8862 1.94954 54.9149 1.95967 54.9149 2.03796C54.9149 2.12233 54.9552 2.12908 55.2692 2.0933C55.4638 2.07137 55.9748 2.04775 56.4043 2.04066C56.8341 2.03324 57.3042 1.9978 57.449 1.96136C57.544 1.936 57.6396 1.91395 57.7357 1.89521C57.7488 1.89521 57.7321 1.85708 57.6986 1.81051C57.6651 1.76394 57.5634 1.72614 57.473 1.72614C57.3822 1.72614 57.3078 1.71534 57.3078 1.70252C57.3078 1.68936 57.2944 1.6384 57.2784 1.58947C57.2375 1.4673 57.3751 1.47338 57.4836 1.59858C57.5452 1.66945 57.5743 1.67721 57.5891 1.62625C57.6 1.58778 57.6294 1.57057 57.6539 1.58778C57.6785 1.60533 57.6986 1.59925 57.6986 1.57428C57.6986 1.54897 57.7479 1.52535 57.8085 1.52164C57.869 1.51792 58.2039 1.48586 58.5533 1.45077C58.9022 1.41567 59.6056 1.37686 60.1161 1.36438C60.6263 1.35223 61.0989 1.32793 61.1659 1.31106C61.3935 1.25369 62.6445 1.11971 63.3146 1.08158C64.5569 1.01071 65.4985 0.805529 65.6926 0.563565C65.7534 0.487973 65.8605 0.426891 65.9373 0.423854C66.5693 0.400231 67.4469 0.324303 67.832 0.259846C68.041 0.226586 68.2504 0.198683 68.4602 0.176155C68.6546 0.155729 68.8482 0.126347 69.0408 0.0880744C69.1757 0.0583773 69.2942 0.0340815 69.3038 0.0340815C69.3136 0.0340815 69.3215 0.0992121 69.3215 0.178517C69.3215 0.257822 69.3427 0.307766 69.3689 0.289205Z" fill="#495057"/>
</svg>
