<svg fill="none" height="61" viewBox="0 0 28 61" width="28" xmlns="http://www.w3.org/2000/svg"><path clip-rule="evenodd" d="m25.0614 38.0522c-.2251.5739-.4722 1.1415-.7492 1.6924-2.8453 5.6603-5.913 11.2012-9.129 16.6614-.5478.9297-1.1728 1.8167-1.7972 2.6998-.3201.4526-.9497.5525-1.4757.3214-.7585-.3326-1.3248-.8828-1.4632-1.6832-.2305-1.3301-.88985-2.4584-1.50862-3.6164-1.1656-2.1819-2.27701-4.3933-3.48929-6.5496-1.17439-2.0886-2.45224-4.1188-3.67231-6.1822-.27406-.4624-.51683-.9454-.73778-1.4354-.13973-.3099.14263-.7963.48804-.942.33345-.1406.6141-.0085.85624.1889.17718.1441.32663.3336.45456.5245 1.67939 2.5065 3.44967 4.9526 4.85373 7.6346 1.50459 2.8748 3.07933 5.7137 4.62753 8.5661.0328.0612.1178.0942.1792.1414.1248-.0471.3101-.0572.3675-.1475.7896-1.237 1.6029-2.4616 2.3301-3.7343 2.2222-3.8902 4.4132-7.798 6.6076-11.7042.5671-1.0094 1.0841-2.0475 1.6578-3.0537.1444-.2534.3892-.4885.6461-.6273.1685-.0912.4785-.0624.6556.0363.1719.0955.3139.335.3609.5361.0494.2099.0178.4683-.0626.6729zm-10.622 2.9713c-.1675 2.4619-.4239 4.9182-.6584 7.3752-.0213.2188-.1495.4334-.2528.6382-.1312.2609-.6964.4522-1.038.34-.3033-.0995-.5772-.2772-.6127-.6232-.0386-.3795-.0702-.7712-.0242-1.1472.4987-4.0661.5567-8.1577.7537-12.242.1671-3.4672.3605-6.9341.5422-10.401-.0297-.0011-.0594-.0027-.089-.0042.0087-2.3146.0189-4.6297.0251-6.9439.0119-4.2434.2848-8.4842.0843-12.73145-.0546-1.15218.0559-2.31311.1194-3.46829.0162-.29881.0909-.6192.2351-.876981.0936-.167639.3479-.286256.5537-.344584.2613-.074271.7061.198915.7471.420485.0559.30017.1199.6056.121.9087.0148 3.39219.0285 6.7853.0213 10.17782-.006 2.9324-.0822 5.865-.0491 8.7966.0302 2.6231.0513 5.2428-.0857 7.8654-.1246 2.3882-.174 4.7805-.2476 7.1715-.0519 1.6966-.0304 3.397-.1454 5.0889z" fill="#525252" fill-rule="evenodd"/></svg>