<svg fill="none" height="36" viewBox="0 0 80 36" width="80" xmlns="http://www.w3.org/2000/svg"><path clip-rule="evenodd" d="m30.6814 4.36476c-6.1935.02448-11.804 1.64016-17.0105 3.94422-5.73386 2.53812-8.72479 6.52442-9.31571 11.52612-.35715 3.0179 1.05196 5.4865 3.95329 7.5428 1.85582 1.3141 4.04552 2.1826 6.40392 2.7917 2.9442.7608 5.9728 1.3542 9.1027 1.3846 7.2429.0715 21.6064.2994 32.0592-1.3846 10.4529-1.684 12.8045-1.3834 16.0092-3.3001 4.9075-2.935 4.9545-4.6064 4.9545-8.979 0-1.719-1.1013-3.0539-3.221-4.9214-2.1198-1.8676-8.3226-5.23673-8.8902-5.4218-8.6208-2.8152-19.4569-4.04913-30.3921-3.18352-.3416 0-1.9974-.00489-3.6533.00098zm34.9938 0c3.491 1.17211 7.7859 4.25991 10.2339 6.41414 2.1572 1.8997 6.7609 9.0562 2.0319 15.459-4.7289 6.4028-7.6089 5.3163-20.6469 7.5118-8.1717 1.376-29.514 1.9397-38.0271.7284-2.8714-.4083-5.6507-1.0076-8.3247-1.8801-2.90655-.9478-5.3845-2.3442-7.38842-4.1978-2.30651-2.1337-3.5857446-4.567-3.55327672-7.3411.07792282-6.8015 3.82341672-12.18023 11.61439672-15.60057 5.7559-2.52829 12.0118-4.25854 18.8625-4.24679 1.452.00196 2.9052 0 3.2923 0 11.552-.957656 22.517.00196 31.9054 3.15302z" fill="#4ade80" fill-rule="evenodd"/></svg>