<svg width="839" height="446" viewBox="0 0 839 446" fill="none" xmlns="http://www.w3.org/2000/svg">
<rect x="1.48852" y="51.3911" width="292" height="396" rx="2" transform="rotate(-10 1.48852 51.3911)" fill="white"/>
<g clip-path="url(#clip0)">
<rect x="33.6946" y="67.0363" width="24" height="24" rx="3" transform="rotate(-10 33.6946 67.0363)" fill="#D0BFFF"/>
<rect x="67.9595" y="65.5638" width="200" height="15" rx="3" transform="rotate(-10 67.9595 65.5638)" fill="#D0BFFF"/>
</g>
<rect x="33.4565" y="111.757" width="150" height="10" rx="3" transform="rotate(-10 33.4565 111.757)" fill="#E9ECEF"/>
<rect x="38.666" y="141.301" width="240" height="10" rx="3" transform="rotate(-10 38.666 141.301)" fill="#E9ECEF"/>
<rect x="41.2708" y="156.073" width="250" height="10" rx="3" transform="rotate(-10 41.2708 156.073)" fill="#E9ECEF"/>
<rect x="43.8755" y="170.845" width="240" height="10" rx="3" transform="rotate(-10 43.8755 170.845)" fill="#E9ECEF"/>
<rect x="46.4802" y="185.618" width="231" height="10" rx="3" transform="rotate(-10 46.4802 185.618)" fill="#E9ECEF"/>
<rect x="49.085" y="200.39" width="250" height="10" rx="3" transform="rotate(-10 49.085 200.39)" fill="#E9ECEF"/>
<rect x="51.6897" y="215.162" width="215" height="10" rx="3" transform="rotate(-10 51.6897 215.162)" fill="#E9ECEF"/>
<rect x="54.2944" y="229.934" width="231" height="10" rx="3" transform="rotate(-10 54.2944 229.934)" fill="#E9ECEF"/>
<rect x="56.8992" y="244.706" width="240" height="10" rx="3" transform="rotate(-10 56.8992 244.706)" fill="#E9ECEF"/>
<rect x="62.1086" y="274.25" width="150" height="10" rx="3" transform="rotate(-10 62.1086 274.25)" fill="#E9ECEF"/>
<rect x="67.3181" y="303.794" width="240" height="10" rx="3" transform="rotate(-10 67.3181 303.794)" fill="#E9ECEF"/>
<rect x="69.9229" y="318.567" width="250" height="10" rx="3" transform="rotate(-10 69.9229 318.567)" fill="#E9ECEF"/>
<rect x="72.5276" y="333.339" width="240" height="10" rx="3" transform="rotate(-10 72.5276 333.339)" fill="#E9ECEF"/>
<rect x="75.1323" y="348.111" width="231" height="10" rx="3" transform="rotate(-10 75.1323 348.111)" fill="#E9ECEF"/>
<rect x="77.7371" y="362.883" width="250" height="10" rx="3" transform="rotate(-10 77.7371 362.883)" fill="#E9ECEF"/>
<rect x="80.3418" y="377.655" width="215" height="10" rx="3" transform="rotate(-10 80.3418 377.655)" fill="#E9ECEF"/>
<rect x="82.9465" y="392.427" width="231" height="10" rx="3" transform="rotate(-10 82.9465 392.427)" fill="#E9ECEF"/>
<rect x="85.5513" y="407.199" width="240" height="10" rx="3" transform="rotate(-10 85.5513 407.199)" fill="#E9ECEF"/>
<rect x="1.48852" y="51.3911" width="292" height="396" rx="2" transform="rotate(-10 1.48852 51.3911)" stroke="#343A40" stroke-width="2"/>
<rect x="310.253" y="0.685843" width="292" height="396" rx="2" transform="rotate(10 310.253 0.685843)" fill="white"/>
<g clip-path="url(#clip1)">
<rect x="335.166" y="26.4026" width="24" height="24" rx="3" transform="rotate(10 335.166 26.4026)" fill="#A5D8FF"/>
<rect x="367.868" y="36.7383" width="200" height="15" rx="3" transform="rotate(10 367.868 36.7383)" fill="#A5D8FF"/>
</g>
<rect x="319.647" y="68.345" width="150" height="10" rx="3" transform="rotate(10 319.647 68.345)" fill="#E9ECEF"/>
<rect x="314.438" y="97.8892" width="240" height="10" rx="3" transform="rotate(10 314.438 97.8892)" fill="#E9ECEF"/>
<rect x="311.833" y="112.661" width="250" height="10" rx="3" transform="rotate(10 311.833 112.661)" fill="#E9ECEF"/>
<rect x="309.228" y="127.433" width="240" height="10" rx="3" transform="rotate(10 309.228 127.433)" fill="#E9ECEF"/>
<rect x="306.623" y="142.206" width="231" height="10" rx="3" transform="rotate(10 306.623 142.206)" fill="#E9ECEF"/>
<rect x="304.019" y="156.978" width="250" height="10" rx="3" transform="rotate(10 304.019 156.978)" fill="#E9ECEF"/>
<rect x="301.414" y="171.75" width="215" height="10" rx="3" transform="rotate(10 301.414 171.75)" fill="#E9ECEF"/>
<rect x="298.809" y="186.522" width="231" height="10" rx="3" transform="rotate(10 298.809 186.522)" fill="#E9ECEF"/>
<rect x="296.204" y="201.294" width="240" height="10" rx="3" transform="rotate(10 296.204 201.294)" fill="#E9ECEF"/>
<rect x="290.995" y="230.838" width="150" height="10" rx="3" transform="rotate(10 290.995 230.838)" fill="#E9ECEF"/>
<rect x="285.785" y="260.382" width="240" height="10" rx="3" transform="rotate(10 285.785 260.382)" fill="#E9ECEF"/>
<rect x="283.181" y="275.155" width="250" height="10" rx="3" transform="rotate(10 283.181 275.155)" fill="#E9ECEF"/>
<rect x="280.576" y="289.927" width="240" height="10" rx="3" transform="rotate(10 280.576 289.927)" fill="#E9ECEF"/>
<rect x="277.971" y="304.699" width="231" height="10" rx="3" transform="rotate(10 277.971 304.699)" fill="#E9ECEF"/>
<rect x="275.366" y="319.471" width="250" height="10" rx="3" transform="rotate(10 275.366 319.471)" fill="#E9ECEF"/>
<rect x="272.762" y="334.243" width="215" height="10" rx="3" transform="rotate(10 272.762 334.243)" fill="#E9ECEF"/>
<rect x="270.157" y="349.015" width="231" height="10" rx="3" transform="rotate(10 270.157 349.015)" fill="#E9ECEF"/>
<rect x="267.552" y="363.787" width="240" height="10" rx="3" transform="rotate(10 267.552 363.787)" fill="#E9ECEF"/>
<rect x="310.253" y="0.685843" width="292" height="396" rx="2" transform="rotate(10 310.253 0.685843)" stroke="#343A40" stroke-width="2"/>
<rect x="481.489" y="51.3911" width="292" height="396" rx="2" transform="rotate(-10 481.489 51.3911)" fill="white"/>
<g clip-path="url(#clip2)">
<rect x="513.695" y="67.0363" width="24" height="24" rx="3" transform="rotate(-10 513.695 67.0363)" fill="#FFD8A8"/>
<rect x="547.959" y="65.5638" width="200" height="15" rx="3" transform="rotate(-10 547.959 65.5638)" fill="#FFD8A8"/>
</g>
<rect x="513.457" y="111.757" width="150" height="10" rx="3" transform="rotate(-10 513.457 111.757)" fill="#E9ECEF"/>
<rect x="518.666" y="141.301" width="240" height="10" rx="3" transform="rotate(-10 518.666 141.301)" fill="#E9ECEF"/>
<rect x="521.271" y="156.073" width="250" height="10" rx="3" transform="rotate(-10 521.271 156.073)" fill="#E9ECEF"/>
<rect x="523.875" y="170.845" width="240" height="10" rx="3" transform="rotate(-10 523.875 170.845)" fill="#E9ECEF"/>
<rect x="526.48" y="185.618" width="231" height="10" rx="3" transform="rotate(-10 526.48 185.618)" fill="#E9ECEF"/>
<rect x="529.085" y="200.39" width="250" height="10" rx="3" transform="rotate(-10 529.085 200.39)" fill="#E9ECEF"/>
<rect x="531.69" y="215.162" width="215" height="10" rx="3" transform="rotate(-10 531.69 215.162)" fill="#E9ECEF"/>
<rect x="534.294" y="229.934" width="231" height="10" rx="3" transform="rotate(-10 534.294 229.934)" fill="#E9ECEF"/>
<rect x="536.899" y="244.706" width="240" height="10" rx="3" transform="rotate(-10 536.899 244.706)" fill="#E9ECEF"/>
<rect x="542.109" y="274.25" width="150" height="10" rx="3" transform="rotate(-10 542.109 274.25)" fill="#E9ECEF"/>
<rect x="547.318" y="303.794" width="240" height="10" rx="3" transform="rotate(-10 547.318 303.794)" fill="#E9ECEF"/>
<rect x="549.923" y="318.567" width="250" height="10" rx="3" transform="rotate(-10 549.923 318.567)" fill="#E9ECEF"/>
<rect x="552.528" y="333.339" width="240" height="10" rx="3" transform="rotate(-10 552.528 333.339)" fill="#E9ECEF"/>
<rect x="555.132" y="348.111" width="231" height="10" rx="3" transform="rotate(-10 555.132 348.111)" fill="#E9ECEF"/>
<rect x="557.737" y="362.883" width="250" height="10" rx="3" transform="rotate(-10 557.737 362.883)" fill="#E9ECEF"/>
<rect x="560.342" y="377.655" width="215" height="10" rx="3" transform="rotate(-10 560.342 377.655)" fill="#E9ECEF"/>
<rect x="562.947" y="392.427" width="231" height="10" rx="3" transform="rotate(-10 562.947 392.427)" fill="#E9ECEF"/>
<rect x="565.551" y="407.199" width="240" height="10" rx="3" transform="rotate(-10 565.551 407.199)" fill="#E9ECEF"/>
<rect x="481.489" y="51.3911" width="292" height="396" rx="2" transform="rotate(-10 481.489 51.3911)" stroke="#343A40" stroke-width="2"/>
<defs>
<clipPath id="clip0">
<rect width="234" height="24" fill="white" transform="translate(33.6946 67.0363) rotate(-10)"/>
</clipPath>
<clipPath id="clip1">
<rect width="234" height="24" fill="white" transform="translate(335.166 26.4026) rotate(10)"/>
</clipPath>
<clipPath id="clip2">
<rect width="234" height="24" fill="white" transform="translate(513.695 67.0363) rotate(-10)"/>
</clipPath>
</defs>
</svg>
