<svg fill="none" height="226" viewBox="0 0 1266 226" width="1266" xmlns="http://www.w3.org/2000/svg"><path d="m293.5 96.8615c-9.745 0-19.717-.9805-29.444-.1944-8.365.6759-16.823 1.1944-25.223 1.1944-13.5 0-27.001-.5635-40.472-1.375-12.49-.7524-25.032-1.7654-37.555-.9305-6.081.4053-12.245 1.3946-17.556 4.611-6.568 3.978-12.225 7.732-15.486 15.07-1.574 3.54-2.303 7.464-2.264 11.319.032 3.225.279 6.866 1.694 9.806 2.524 5.24 7.517 6.4 12.681 8.236 3.663 1.302 7.82 1.827 11.681 2.208 2.722.269 5.771-.169 8.305-1.208 3.887-1.595 7.341-4.391 10.778-6.736 4.44-3.029 8.118-8.382 10.611-13.056 6.371-11.946 5.271-25.498 2.625-38.3195-3.094-14.9933-14.032-25.6721-25.819-34.5694-7.341-5.5412-16.311-8.2856-25.362-6-2.947.7443-5.779 1.7941-8.708 2.5694-3.43.9081-7.192 1.6301-10.361 3.25-4.418 2.2581-8.564 4.9409-11.625 8.9306-4.1113 5.3586-6.0205 11.8633-8.25 18.1389-2.0343 5.7263-4.3113 11.3771-5.75 17.2916-1.5206 6.2514-2.9725 12.4934-3.8611 18.8754-1.3557 9.736-3.1408 21.004.875 30.375 5.1035 11.908 13.5696 22.5 23.4861 30.764 7.227 6.022 16.115 9.569 25.25 11.625 9.601 2.16 19.314 1.421 29 .125 8.721-1.168 16.877-3.091 25.056-6.306 6.642-2.612 12.958-5.772 19.069-9.458 6.163-3.718 11.312-8.417 16.25-13.611 9.568-10.065 16.668-21.945 22.625-34.431 3.17-6.645 6.389-12.949 8.375-20.083 1.829-6.57 3.16-13.4944 3.361-20.3337.184-6.2575-.538-12.3109-2.18-18.3333-.914-3.3498-1.854-6.9463-3.292-10.1111-1.961-4.3136-5.301-8.0073-8.458-11.4723-2.523-2.7688-5.342-4.9889-8.612-6.8055-5.853-3.2519-12.778-5.0363-19.18-6.7917-9.396-2.5763-18.706-5.3512-28.375-6.6528-10.303-1.3869-20.466-1.2642-30.778-.1111-8.766.9802-17.716 1.5084-26.417 3-11.782 2.0198-22.788 6.5616-33.4996 11.6945-8.021 3.8434-15.742 8.7458-21.8194 15.3055-6.2786 6.7769-12.1309 14.4323-14.9583 23.3334-2.4084 7.582-4.3033 15.1129-5.4167 22.9721-.511 3.607-.3797 7.3-.625 10.931-.2462 3.643.01 7.421.6806 11.014 1.0415 5.579 2.7637 10.957 4.9305 16.194 1.6342 3.949 3.8574 7.124 6.2639 10.583 2.8322 4.072 7.0101 8.723 12.375 8.723 3.5963 0 7.153-2.278 9.625-4.75 5.0858-5.086 7.1732-12.555 10-19 3.685-8.403 6.876-17.038 10.389-25.514 1.983-4.784 3.897-9.4482 5.069-14.5143 1.154-4.9838 2.169-9.998 3.098-15.0277 2.229-12.0744 3.916-24.2389 3.916-36.5417 0-8.1461-.826-16.556-3.986-24.1389-1.219-2.926-3.433-5.9877-6.097-7.7639-3.218-2.14499-7.038-2.98963-10.639-4.24998-3.6171-1.26599-7.2416-2.28156-10.9444-3.25-4.058-1.06132-8.9224.37783-12.5556 2.19445-10.8923 5.44613-16.1075 17.68373-20.25 28.41663-1.8678 4.8393-4.1265 9.6024-5.4444 14.6389-.6382 2.4388-1.4005 4.881-1.7917 7.375-.5177 3.3-.3247 6.5705-.5695 9.875-.7259 9.8.8107 19.6255 2.8612 29.1945 1.021 4.765 1.9657 9.495 3.3194 14.181 1.1408 3.948 3.0132 7.238 5.1528 10.694 5.8641 9.473 13.6496 17.087 23.5 22.292 2.8834 1.523 6.0099 2.909 9.2361 3.514 3.6739.688 6.9733.875 10.7221.875 1.804 0 3.638.099 5.431-.125 1.604-.201 2.851-.981 4.333-1.57 3.612-1.435 6.942-3.428 10.069-5.736 3.348-2.471 6.188-5.062 8.959-8.153 2.679-2.99 5.625-6.28 7.833-9.639 3.424-5.208 4.503-11.412 5.264-17.5.907-7.254 1.915-14.4262 4.236-21.3886 1.609-4.8277 3.765-8.6815 7.083-12.5278 4.563-5.289 11.188-7.6111 17.945-7.6111 3.92 0 7.931.2918 11.611 1.7639 6.44 2.5761 13.004 5.0597 19.167 8.25 4.2 2.1742 8.094 4.2795 11.194 7.9583 3.138 3.7239 4.632 8.2273 5.278 13 .574 4.2439.611 8.6283.611 12.9033 0 5.923.1 11.661-1.111 17.486-1.098 5.279-2.636 10.402-4.028 15.611-1.101 4.122-3.092 7.28-6.694 9.611-6.797 4.398-14.422 7.417-22.556 7.417-4.937 0-10.348-.561-14.986-2.375-4.973-1.947-8.991-5.991-12.681-9.681-2.616-2.617-4.881-5.722-6.694-8.944-1.573-2.797-2.979-5.862-4.806-8.5-4.234-6.117-6.361-13.959-12.208-18.875-3.82-3.212-8.238-4.94-12.986-6.32-9.249-2.6885-18.958-3.8572-28.3056-6.1666-4.7192-1.1659-9.7023-1.3595-14.5555-1.3889-6.899-.0418-13.7787-.3223-20.6667.125-6.2568.4063-12.5087 1.1821-18.7778.6806-4.0563-.3245-7.979-.0982-12.0277-.0556-2.7691.0292-5.4903.0689-8.25.2361-3.1529.1911-6.599-.1315-9.6806.6389-1.11081.2777-2.33293.1054-3.43054.4306-1.35108.4003-2.42946.5002-3.80556.1944" stroke="#fff" stroke-linecap="round" stroke-width="4"/><g fill="#fff"><path clip-rule="evenodd" d="m302.497 102.552c-2.676-.037-4.491-1.953-3.877-4.4463.438-1.7909 1.14-3.6054 2.122-5.1509 1.363-2.1408 3.595-2.7021 6.052-2.2635 2.167.389 3.036 2.0337 3.631 3.8769.721 2.2269.037 4.104-1.631 5.6498-1.658 1.537-3.94 2.365-6.297 2.334z" fill-rule="evenodd"/><path d="m622.065 98.365v-5.0727c0-.0406-.04-.0406-.081-.0406-1.826 0-7.426.0811-9.09.0811-6.615-.1217-9.375.1218-15.949-.5275-11.525-1.1363-21.996-5.5598-31.735-11.6066-9.415-5.8438-16.477-12.6616-27.759-18.3025-11.647-7.9136-18.407-12.9331-31.718-17.8436-10.348-3.8147-36.825-8.4943-36.825-8.4943-10.876-.1624-35.675 6.9915-35.675 6.9915l-32.868 19.3464c-9.172 6.2496-18.344 12.4993-27.759 18.3025-9.739 6.0468-20.21 10.4703-31.735 11.6066-6.574.6493-7.523 1.6634-14.138 1.7445-1.704.0406-9.075-1.2981-10.901-1.2981-.041 0-.041 0-.081.0406h-.041l1.523 4.9104 2.413.1623c4.992.0406 9.984.1624 14.975 0h12.112c5.073.3653 5.834-.6493 10.5 1.3392 3.856 1.5828 5.796 5.2758 9.286 7.4668 9.618 6.047 18.992 12.419 28.489 18.628 9.496 6.209 26.905 16.569 36.725 22.251 0 0 14.774 6.724 27.192 8.023v.081h.527.082c6.168.528 12.377.528 18.586 0h.081.528l11.004-2.601c12.419-1.299 13.224-2.837 24.343-9.249 0 0 18.661-13.108 28.157-19.358 9.497-6.249 19.284-11.768 28.902-17.775 3.53-2.191 7.507-3.693 11.363-5.275 4.707-1.9483 9.658-3.1251 14.731-3.531zm-247.146-13.7573c10.43-6.9802 24.814-19.0551 36.314-24.0551 0 0 18.473-11.9414 31.865-16.2025 5.478-1.7451 11.079-2.922 16.801-3.5307v.0812c2.881-.3247 4.413-1.3074 7.334-1.348l5 .8204c2.882.0406 2.722.2029 5.603.5276v-.0812c5.682.6087 13.919 3.4882 19.397 5.2332l21.5 9.5c10.39 7.0613 33.653 22.0749 44.082 29.0551.366.2434.447.7304.203 1.0551-.162.2435-.446.3652-.73.3246-.812-.1217-1.624-.3246-2.435-.6087-11.769-3.977-28.31-10.933-40.12-14.8289 0 0-31.873-6.2739-50.866-6.0709l-52.134 7.5709c-11.809 3.8959-27.082 9.3519-38.851 13.3289-.812.2841-1.623.487-2.435.6087-.406 0-.771-.3652-.771-.771 0-.2435.122-.4464.325-.6087zm190.331 20.6973c-.324.446-.771.852-1.258 1.136-6.493 4.383-13.027 8.725-19.479 13.149-8.928 6.087-26.825 18.221-26.825 18.221-12.175 7.589-25.08 12.743-38.959 14.366-3.368.406-6.777.609-10.186.609-5.804.04-12.628-1.938-18.31-3.236-10.997-2.354-20.365-5.571-30.267-11.739-9.172-5.722-17.897-12.134-26.825-18.221-6.493-4.424-12.986-8.766-19.48-13.149l-.202-.162c-.325-.244-.406-.731-.163-1.096.203-.244.528-.365.812-.284.568.162 1.177.324 1.745.527 10.389 3.774 23.335 10.349 33.724 14.164 0 0 24.755 5.965 38.999 7.832 3.49.446 7.021.771 10.511.933l2.07.081h.243c2.476.082 4.667 1.114 7.143 1.114 2.475 0 5.235-1.032 7.71-1.114h.244 2.07v-.081c3.53-.162 22.136-3.815 25.666-4.302 14.245-1.867 24.006-6.33 24.006-6.33 10.389-3.774 23.213-8.482 33.602-12.297.974-.365 1.948-.608 2.963-.852.243-.04.487.081.527.325.041.122 0 .243-.04.324zm.934-5.8037c-2.354.8117-6.088 2.2727-8.198 3.0437-14.244 5.073-28.326 10.511-42.692 15.178-11.891 3.855-21.561 5.327-21.561 5.327h-15.897c-3.125.203-5.641 1.896-8.928 1.896s-6.574-.121-9.699-.324v.04c-12.5-.73-31.585-4.716-43.476-8.612-14.366-4.667-22.024-7.702-35.944-13.505-2.15-.893-3.814-1.623-6.249-2.8408-.771-.3652-.65-1.4609.203-1.5015l83.99-.6501s14.898-2 17.5-2c2.603 0 9 2.5 9 2.5l81.869.1501c.366 0 .65.3247.65.6899 0 .2841-.162.5276-.447.6087zm-.244-6.412c-.609.0406-1.298.0406-2.029.0812l-43.178 1.3793c-13.676-.0811-45-3.4972-45-3.4972l-44 3.4972s-48.169-1.4605-59.938-1.4605c-.731 0-.893-1.3392-.203-1.5827 12.661-4.2611 20.02-7.6956 32.641-11.9568 14.894-5.0322 35.295-8.4042 51-9.5 2.679-.2029 5.518-1.4721 8.196-1.5127h5.479 5.479c2.719.0406 21.668 2.8098 24.346 3.0127 15.706 1.0958 14.613 2.2224 29.506 7.2546 16.994 3.7482 25.324 8.4817 37.985 12.7022 1.177.6493.528 1.5422-.243 1.5827z"/><path clip-rule="evenodd" d="m638.127 101.347c-1.142 2.138-3.963 2.769-6.103 1.563-2.091-1.173-3.603-2.951-4.554-5.1338-1.15-2.6412.217-5.6162 3.279-7.4017 2.411-1.4067 4.933-.9458 6.639 1.5656 1.036 1.5206 2.763 5.6374.739 9.4069z" fill-rule="evenodd"/><path d="m738.525 96.088 11.905-1.0833c3.979-.2151 5.27-.717 7.779-1.9717v.0359c4.338-2.3661 7.206-6.0585 9.106-10.6114 1.47-3.5132 3.529-5.7 4.21-9.3924.825-4.517.092-10.5755 1.311-15.0566 1.541-5.7 6.56-10.8265 10.718-15.0208 2.725-2.7245 3.406-4.6604 7.242-5.3774 5.449-1.0396 10.289.4661 14.734 3.5491 5.341 3.7641 9.07 8.8547 11.974 14.6264 2.473 4.9472 6.646 14.8057 8.689 19.9321 4.41 11.0057 10.095 13.3359 21.245 16.9566l.107.0359c4.804 1.5056 4.594 3.3776 9.648 3.3776l18.171-1.1191v.0358l16.661-.4521 11.5 1 12.5-2-1.332 6.0354-22-.5c-1.577.0359-32.457.4337-33.497.3979l-20.671-.7028-4.674.7028-10.755-.7028c-5.019 0-11.042 1.5629-15.845 3.0689l-4.558 2.201c-11.149 3.585-14.729 8.446-19.139 19.452-2.043 5.126-3.555 10.6-6.029 15.548-2.903 5.771-6.984 10.586-12.325 14.35-4.41 3.119-9.321 2.689-14.77 1.65-3.836-.717-6.991-.754-9.679-3.478-4.195-4.231-6.704-9.357-8.246-15.021-1.219-4.445-.655-9.218-1.48-13.771-.681-3.692-2.571-7.201-4.04-10.678-1.936-4.553-4.804-8.246-9.106-10.612 0 0-.789-.501-1.255-.788-.215-.144-.466-.251-.681-.359-1.434-.5375-2.079-.5734-5.592-.7526h-.144-.502-.179l-16.383.0717v-.0358l-20.618-.8462h-20.5l-7.959.8103 1.459-4.4811 47.618-.273zm-15.627 3.5054c3.119 2.3656 2.763 2.2826 4.627 6.1896 1.865 3.908 5.482 11.52 6.271 15.786.932 5.055 1.577 10.145 3.119 15.057 1.147 3.764.029 6.61 2.61 9.657 2.295 2.689 7.714 5.399 11.192 6.331 4.086 1.076 7.295 2.115 10.808 0 3.478-2.115 6.65-7.026 8.909-10.36 3.047-4.481 3.824-9.647 5.759-14.701 1.148-2.976 3.597-5.733 4.888-8.637 2.545-6.023 6.959-9.512 12.444-13.133 9.285-6.1301 14.12-9.667 24.982-10.6707 1.04-.1076 2.725-.1076 4.589-.0717h18.319c-2.653-1.3623-8.416-3.3389-10.89-4.988-5.556-3.6566-6.389-8.2045-9.078-14.3347-1.291-2.9038-1.828-8.1903-2.94-11.1299-1.936-5.0189-4.624-7.6909-7.671-12.2079-2.259-3.2981-6.333-6.2124-9.811-8.3275-3.513-2.1509-5.82-3.1083-9.906-2.0328-3.442.8962-5.799 3.8441-8.094 6.5328-2.581 3.0113-5.684 7.2354-6.832 11.0354-1.505 4.9113-1.063 8.4224-1.995 13.4771-.789 4.3019-.808 8.0441-2.673 11.9875-2.868 6.0227-7.616 10.8484-13.961 13.0351-2.33.7887-2.546 1.1472-7.242 1.4699l-6.297-.7745"/><path clip-rule="evenodd" d="m923.293 101.614c-2.138-1.141-2.769-3.9627-1.563-6.1032 1.173-2.0902 2.951-3.6028 5.134-4.5539 2.641-1.1497 5.616.2173 7.401 3.2797 1.407 2.4107.946 4.9327-1.565 6.6384-1.521 1.036-5.638 2.763-9.407.739z" fill-rule="evenodd"/></g><path d="m940.051 97.4224c10.89 0 21.708-.456 32.605-.456 6.773 0 13.523-.228 20.293-.228 3.68 0 7.531-.3902 11.211-.6967 3.02-.2521 6.04-.2154 9.08-.2154 3.72 0 7.55-.3247 11.24-.798 2.14-.275 4.87-.7119 7-.1647 2.12.5444 4.79.5067 6.97.5067 3.46 0 6.9.164 10.36.228 3.48.0645 7.05.8 10.5 1.2541 3.62.4763 7.25.9778 10.88 1.4313 3.71.4633 7.73.0507 11.45.0507 4.3 0 8.58-.228 12.89-.228 8.81 0 17.63-.7526 26.43-1.1274 6.84-.2908 13.58-1.3807 20.42-1.3807 5.41 0 10.88.228 16.32.228 7.17 0 14.2 1.9355 21.42 1.5834 10.66-.5203 21.36-1.3554 32.05-1.3554 4.23 0 8.39.4561 12.61.4561 3.79 0 7.55-.2281 11.31-.2281" stroke="#fff" stroke-linecap="round" stroke-width="4"/><path clip-rule="evenodd" d="m1249.76 92.2318c1.7-1.4807 3.03-2.6421 4.35-3.8067 1.11-.9548 2.48-1.3065 3.35-.1194.64.871.95 2.4099.67 3.4357-.4 1.3969-1.5 2.6066-2.27 3.8421 1.46 1.9743 2.79 3.7485 4.08 5.5585.11.151-.06.493-.11.8-2.73 2.21-5.26-.032-8.18-.613-1.71 1.294-3.47 2.729-5.37 3.965-.52.332-1.69.358-2.1 0-.69-.587-1.53-1.717-1.38-2.423.42-1.949 1.31-3.797 2.15-6.0165-1.08-.9291-2.19-1.9065-3.33-2.8646-1.29-1.0839-1.99-2.3549-1.18-4.0066.66-1.3356 2.27-1.6711 4.03-.7807 1.58.8064 3.1 1.7711 5.29 3.0292" fill="#fff" fill-rule="evenodd"/><path d="m67.874 203.908c-.4853-.28-1.428-.42-2.828-.42l.168 1.736c.1493 1.008.28 2.893.392 5.656.168-.037.28-.084.336-.14.1493-.112.308-.168.476-.168.2427-.056.476-.224.7-.504.56-.467.9893-.859 1.288-1.176l.924-1.064c.056-.019.1493-.224.28-.616.1307-.411.2147-.747.252-1.008 0-.541-.056-.849-.168-.924 0-.037-.112-.271-.336-.7-.0747-.056-.2987-.196-.672-.42zm-5.796-3.22 1.568-.224 2.016-.14 1.064.14c.0747.075.252.121.532.14.5413-.019 1.2693.289 2.184.924.224.075.4107.205.56.392l1.064 1.288c.0373.037.0933.14.168.308.0747.149.1773.327.308.532-.0373 0-.0093.075.084.224.2427.411.3547.653.336.728.0933.075.1867.317.28.728s.1213.691.084.84c.0187.019 0 .233-.056.644-.1307.896-.364 1.559-.7 1.988l-.364.672-.616.896-.364.336c-.672.747-1.4933 1.325-2.464 1.736-.0373.019-.0933.037-.168.056l-.672.224-1.092.28c0 .541.0653 1.792.196 3.752.0747.672.1307 1.045.168 1.12 0 .616-.0373 1.027-.112 1.232-.0747.224-.196.383-.364.476-.168.112-.4573.177-.868.196-.112.037-.308 0-.588-.112-.28-.093-.504-.243-.672-.448l-.168-.896c.0373-.037-.0187-.215-.168-.532-.1307-.149-.2333-.411-.308-.784l-.196-2.66-.028-.896c-1.0827.075-1.736-.224-1.96-.896-.1867-.355-.224-.588-.112-.7l.14-.364c.224-.355.6533-.532 1.288-.532h.588c-.0373-.037-.056-.168-.056-.392l-.112-1.176v-.504l-.028-.364c.0187-.168.0093-.355-.028-.56v-.168l-.056-.7v-.532l-.028-.28c0-1.325-.0747-2.165-.224-2.52-.616.355-1.0267.551-1.232.588-.2053.019-.5507-.121-1.036-.42-.2053-.168-.3173-.355-.336-.56-.336-.467-.448-.849-.336-1.148.0373-.149.1867-.383.448-.7.0187-.075.2427-.243.672-.504.336-.336.924-.579 1.764-.728zm11.9444 10.052c0-.168-.0187-.364-.056-.588v-.196c.0187-.131.0093-.271-.028-.42 0-.187.0187-.355.056-.504 0-.373.0467-.616.14-.728 0-.093.1307-.308.392-.644.0747-.075.2147-.196.42-.364.2987-.093.504-.149.616-.168.0747-.075.3267-.047.756.084.1867.019.476.084.868.196.1307.037.2987.187.504.448-.0373.075-.1027.355-.196.84-.0747.467-.1027.849-.084 1.148.112-.093.308-.289.588-.588s.4293-.457.448-.476c.4853-.224.9613-.383 1.428-.476.672-.056 1.1107-.009 1.316.14.168.056.2987.14.392.252.168.149.308.411.42.784.112.355.1027.579-.028.672-.112.093-.4853.168-1.12.224-.0373 0-.168.075-.392.224l-1.456 1.148c-.2987.149-.504.28-.616.392l-.532.98c-.0187.037-.0373.28-.056.728s-.0187.775 0 .98c.0187.187.0187.812 0 1.876v1.204c0 .653-.0093 1.027-.028 1.12-.0187.112-.0933.299-.224.56-.056.093-.2333.14-.532.14-.728.541-1.1947.513-1.4-.084l-.364-.224c-.1493-.075-.2427-.168-.28-.28-.1493-.205-.224-.327-.224-.364l-.112-.392-.168-.336c-.056-.019-.1027-.373-.14-1.064-.0373-.709-.056-1.139-.056-1.288 0-.168-.0187-.345-.056-.532.1307-.131.1867-.355.168-.672 0-.317-.0187-.56-.056-.728-.0373-.187-.0373-.299 0-.336.0373-.056.028-.317-.028-.784-.056-.075-.0653-.215-.028-.42zm14.4436 0c-.1306-.747-.4946-1.092-1.092-1.036-.336.019-.6253.243-.868.672-.336.653-.4853 1.503-.448 2.548.056 1.027.1307 1.773.224 2.24.112.448.2987.84.56 1.176.1494.261.3734.383.672.364.5227 0 .9054-.439 1.148-1.316l.224-.672c.0934-.093.112-.187.056-.28.1867-.467.2894-1.017.308-1.652-.1866-.131-.2986-.252-.336-.364-.112-.317-.168-.532-.168-.644-.1306-.093-.2053-.271-.224-.532-.0186-.261-.0373-.429-.056-.504zm-5.124 2.632.112-1.428c.1307-1.288.5227-2.389 1.176-3.304.6347-.765 1.5307-1.157 2.688-1.176h.168c1.0827 0 1.8667.233 2.352.7.5227.411.9054.859 1.148 1.344.2614.485.4294.84.504 1.064.0747.224.1214.551.14.98.0374.803-.1213 1.26-.476 1.372.2614 1.773.1027 3.183-.476 4.228-.1866.429-.4573.896-.812 1.4-.2613.336-.728.523-1.4.56-.672 0-1.26-.037-1.764-.112-.4853-.075-1.0266-.308-1.624-.7-.5973-.411-1.0173-1.073-1.26-1.988-.2613-.877-.42-1.857-.476-2.94zm17.803-3.024c0-.691-.103-1.036-.308-1.036-.094-.019-.215-.019-.364 0l-.364.224.028.028c-.131.131-.2896.336-.4762.616h.028c-.1867.355-.3267.597-.42.728-.1867.243-.28.411-.28.504s-.0374.233-.112.42c-.056.187-.112.327-.168.42-.0374.093-.112.364-.224.812-.112.429-.1774.747-.196.952l-.112.336-.252 1.512c-.056.168-.056.467 0 .896.0746.429.1493.747.224.952.2053.355.4106.541.616.56.1306-.112.2333-.177.308-.196.0186.037.084.056.196.056s.196-.028.252-.084h-.028c.4293-.467.7372-.84.9242-1.12.186-.28.298-.719.336-1.316l.084-.644c.093-.28.14-.607.14-.98l.14-1.988c.093-.467.112-.84.056-1.12v-.14zm-4.8442-10.892c.336.093.5226.28.56.56.056.691.0653 1.204.028 1.54v1.372c-.0187.149.0093 1.017.084 2.604.0933 1.568.1866 2.875.28 3.92l.084.028c.2053-.485.336-.775.392-.868.0746-.093.14-.215.196-.364.0746-.149.2053-.271.392-.364 0-.037.0933-.149.28-.336.2053-.205.3453-.336.42-.392.0933-.056.1586-.093.196-.112.056-.037.1306-.075.224-.112.112-.037.1773-.065.196-.084.2613-.075.4202-.112.4762-.112l.364-.112h.168c.093-.019.205.037.336.168.093.037.224.028.392-.028.336 0 .644.075.924.224s.476.327.588.532c.13.187.308.355.532.504.018.075.074.168.168.28.112.093.196.261.252.504.186.803.28 1.913.28 3.332-.038.019-.056.084-.056.196.018.112.018.28 0 .504v.504l-.112.756v.644c-.038.056-.066.243-.084.56l-.392 1.456-.392 1.12c0 .056-.094.243-.28.56-.262.075-.476.233-.644.476-.523.28-.859.476-1.008.588-.392.392-.868.588-1.4282.588-.0747 0-.336.037-.784.112-.672.112-1.232.047-1.68-.196-.224 0-.3734-.131-.448-.392-.3734-.187-.5787-.271-.616-.252-.112.037-.224.009-.336-.084-.0934-.093-.1587-.205-.196-.336-.1494-.037-.252-.159-.308-.364-.0187-.317-.0934-.597-.224-.84-.1307-.243-.1867-.485-.168-.728.0373-.243.0186-.504-.056-.784-.056-.299-.0654-.541-.028-.728-.0934-.299-.1587-.625-.196-.98v-.084c.0186-.131.0373-.243.056-.336v-.448c.0373-.373.0466-.616.028-.728-.056-.112-.084-.289-.084-.532-.0374-.037-.056-.084-.056-.14l-.028-.336c-.168-.168-.1494-.42.056-.756.0746-.112.0746-.429 0-.952l-.364-1.932c.0186 0 .028-.056.028-.168l.028-.308c-.1867-.803-.28-1.605-.28-2.408-.0187-.056-.028-.159-.028-.308v-.476c-.0374-.336-.0374-.719 0-1.148.056-.429.0653-.877.028-1.344-.0374-.56.028-1.036.196-1.428.0373-.261.112-.448.224-.56.112-.131.2986-.261.56-.392.4293-.243.8493-.336 1.26-.28zm13.3652 1.288.7-.14c.448.056.784.177 1.008.364.242.187.354.401.336.644-.28.952-.504 1.951-.672 2.996v.42c-.075.877-.178 1.624-.308 2.24l-.672 6.384v1.932c-.019 1.475.065 2.641.252 3.5l.056.336c-.019.224-.187.373-.504.448-.299.093-.495.131-.588.112-.094-.019-.196-.047-.308-.084l-.756-.28c-.299-.149-.626-.42-.98-.812-.224-.205-.318-.355-.28-.448-.038-.075-.131-.924-.28-2.548.037-.336.056-.616.056-.84v-.476c0-.373.009-.644.028-.812 0-.037.018-.261.056-.672.093-1.064.149-1.643.168-1.736v-.448c0-1.101.093-1.988.28-2.66-.038-.149-.056-.289-.056-.42.186-.355.252-1.083.196-2.184.317-1.12.504-1.867.56-2.24.056-.392.14-.691.252-.896 0-.336.149-.672.448-1.008.298-.355.634-.579 1.008-.672zm9.124 7.98c-.037-.093-.168-.131-.392-.112-.205.019-.364.131-.476.336-.765 1.213-1.176 2.511-1.232 3.892.635.149 1.176-.131 1.624-.84.579-1.829.738-2.921.476-3.276zm-2.184 11.116-.28-.056-.392-.392c-.112 0-.196-.047-.252-.14-.205-.243-.578-.728-1.12-1.456l-.42-1.54c0-.299-.056-.56-.168-.784-.186-.84-.298-1.316-.336-1.428-.037-.131-.065-.476-.084-1.036 0-.56.028-.971.084-1.232.056-.355.402-1.232 1.036-2.632.168-.168.271-.392.308-.672l.448-.644c.411-.485.85-.84 1.316-1.064 0-.037.318-.131.952-.28.131-.019.43.028.896.14 1.12.261 1.82.588 2.1.98l.084.14c.355.504.56 1.279.616 2.324-.056.467-.102.859-.14 1.176-.037.317-.242.896-.616 1.736-.28.523-.55.943-.812 1.26-.41.299-.69.448-.84.448-.074.037-.233.056-.476.056h-.644c-.056-.019-.177-.028-.364-.028-.186 0-.457-.047-.812-.14 0 .411.112.999.336 1.764.243.747.439 1.204.588 1.372.392.299.7.495.924.588s.523.112.896.056c.374-.075.644-.205.812-.392l.728-.896c.467-.635.943-.691 1.428-.168.224.243.308.485.252.728-.037.224-.224.681-.56 1.372-.28.448-.578.821-.896 1.12-.578.299-.924.448-1.036.448-.168.019-.429-.009-.784-.084-.186.093-.504.084-.952-.028 0-.037-.056-.065-.168-.084-.093 0-.224-.028-.392-.084l.056-.028c-.037 0-.149 0-.336 0l-.784-.42zm8.988-12.404h.056c.242-.075.634-.047 1.176.084.186.056.298.588.336 1.596.074.765.112 1.297.112 1.596 0 .28.009.448.028.504v1.876l.14.028c0-.019.018-.131.056-.336.093-.523.196-.924.308-1.204.074-.075.112-.168.112-.28.018-.112.074-.233.168-.364.112-.523.392-1.204.84-2.044.149-.355.289-.616.42-.784.149-.187.364-.252.644-.196.298.056.541.159.728.308.149.019.326.047.532.084l.812.168c.074.019.177.084.308.196.13.093.186.215.168.364-.019.149-.038.588-.056 1.316v.448l-.112 1.092c0 .299.018.476.056.532l.112.084.224-1.288c0-.131.056-.252.168-.364l.336-.812c0-.056.056-.177.168-.364.037-.131.121-.317.252-.56.149-.243.336-.476.56-.7 0-.149.168-.252.504-.308.261-.28.69-.289 1.288-.028.112 0 .214.019.308.056 0 .037.065.065.196.084.149.019.326.14.532.364v.308c0 .187.009.327.028.42-.019.131-.01.299.028.504v.336c.018.149.065.616.14 1.4v.308c.056.112.074.233.056.364v.364c.056.056.102.215.14.476.037.243.018.485-.056.728l.056.252v.784c.093.075.14.187.14.336l.084.476c0 .336.046.672.14 1.008v.308l.14.728v.168l-.028.28c0 .205-.112.355-.336.448-.038.019-.094.047-.168.084-.056.037-.159.056-.308.056l-.588-.196-.28-.196c-.15.037-.346-.028-.588-.196 0-.168-.066-.317-.196-.448-.224-.075-.308-.224-.252-.448.018-.019-.028-.121-.14-.308.037-.037.009-.243-.084-.616 0-.168-.019-.327-.056-.476-.019-.168-.038-.336-.056-.504 0-.168-.028-.317-.084-.448.018 0 .028-.065.028-.196s-.019-.252-.056-.364v-.644l-.14-1.12-.42 1.288c-.28.728-.42 1.12-.42 1.176l-.896 2.8c-.056.112-.168.243-.336.392-.15.131-.28.196-.392.196-.038-.056-.14-.084-.308-.084-.15 0-.336.047-.56.14-.635.075-.999-.121-1.092-.588l-.056-.644.028-.644c-.038-.056-.056-.187-.056-.392l-.028-.392v-1.204l-.056-1.428v-1.372c-.542 1.475-.878 2.436-1.008 2.884l-1.036 3.332c-.206.541-.579.831-1.12.868l-.308.056c-.411.093-.682.028-.812-.196l-.28-.476c-.075-.411-.15-.644-.224-.7-.038-.261-.131-.532-.28-.812l-.14-.672c0-.056-.019-.14-.056-.252v-.504c-.056-.149-.103-.448-.14-.896-.038-.467-.047-.84-.028-1.12-.075-.224-.094-.504-.056-.84v-.504c-.094-.429-.14-1.083-.14-1.96v-.392c.093-.56.14-.933.14-1.12 0-.205.046-.355.14-.448.093-.112.392-.317.896-.616zm24.298 6.776c0 .243-.019.541-.056.896s.056.924.28 1.708c.093.541.187.887.28 1.036.131 0 .252-.14.364-.42 0-.019.065-.149.196-.392.056-.019.243-.28.56-.784.112-.224.224-.448.336-.672.056-.392.187-.737.392-1.036.205-.317.364-.588.476-.812.112-.243.159-.56.14-.952 0-.149-.065-.597-.196-1.344-.037-.093-.112-.299-.224-.616-.093-.336-.224-.569-.392-.7-.149-.149-.308-.215-.476-.196s-.373.28-.616.784c-.299.597-.513 1.176-.644 1.736s-.215.896-.252 1.008c-.056.168-.084.317-.084.448zm3.528-14.448c.392-.056.625-.075.7-.056.093 0 .289-.028.588-.084.392.467.635.812.728 1.036l.196.728c.149.149.224.289.224.42.037.28.065.523.084.728.037.187.056.448.056.784 0 .485-.065 1.587-.196 3.304-.131 1.699-.252 2.921-.364 3.668l.168 1.54c.28 1.531.457 2.361.532 2.492.112.709.345 1.363.7 1.96l.056.224.42.7c.131.28.187.56.168.84 0 .28-.028.476-.084.588-.261.523-.523.803-.784.84-.131.056-.336.056-.616 0-.243 0-.42-.056-.532-.168-.056 0-.131-.009-.224-.028-.28.056-.457-.009-.532-.196-.112-.112-.243-.308-.392-.588-.131-.299-.289-.551-.476-.756l-.14-.308c-.075-.336-.121-.504-.14-.504 0-.019-.009-.065-.028-.14l-.98 1.54c-.037.131-.28.504-.728 1.12l-.364.308c-.224.112-.551.14-.98.084-.037.019-.196.028-.476.028l-1.568-.28c-.336-.224-.625-.579-.868-1.064-.149-.261-.224-.476-.224-.644 0-.187-.084-.551-.252-1.092l-.056-.42v-.168l-.028-.392c.037-.075.019-.233-.056-.476l-.028-.252v-.476c0-.112.028-.327.084-.644.019-.243.019-.513 0-.812 0-.317.009-.541.028-.672-.037-.187-.028-.345.028-.476-.037-.131-.028-.355.028-.672 0-.205.159-.672.476-1.4-.056-.299.075-.635.392-1.008 0-.019.093-.159.28-.42.056-.056.196-.131.42-.224l.672-.448c.709-.205 1.363-.243 1.96-.112l1.12.392c.037-.28.028-1.204-.028-2.772 0-.224.028-.709.084-1.456.075-.765.131-1.503.168-2.212l.336-1.176c0-.205.037-.355.112-.448zm9.306 3.388h.084c.653.037 1.073.233 1.26.588.205.336.28.663.224.98-.038.317-.29.709-.756 1.176-.448.467-.859.691-1.232.672-.112 0-.336-.056-.672-.168-.318-.112-.486-.177-.504-.196-.019-.075-.075-.131-.168-.168-.486-.187-.756-.663-.812-1.428 0-.075.056-.131.168-.168-.075 0-.084-.112-.028-.336.13-.411.42-.681.868-.812.578-.112 1.101-.159 1.568-.14zm-.056 7.084-.476 4.676v.336c0 .093.009.177.028.252-.019.075-.028.168-.028.28v2.016c.074.635.074 1.008 0 1.12-.112.037-.243.093-.392.168-.15.093-.439.112-.868.056-.411-.037-.71-.103-.896-.196l-.336-.084c-.187 0-.308-.084-.364-.252-.243-.149-.374-.345-.392-.588-.056-.093.009-.224.196-.392-.019-.093-.056-.224-.112-.392-.056-.187-.075-.355-.056-.504.056-.093.028-.233-.084-.42 0-.205.028-.439.084-.7.074-.075.093-.345.056-.812.13-.187.196-.448.196-.784-.075-.299-.047-.597.084-.896.13-.299.205-.597.224-.896.037-.467.121-.924.252-1.372 0-.187.084-.485.252-.896.186-.411.308-.653.364-.728l.448-.448.504-.196h.028c.224-.075.448-.065.672.028.541.205.868.364.98.476-.075.075-.122.187-.14.336-.019.149-.038.28-.056.392-.075.093-.131.233-.168.42zm3.203-.728-.028-.224c0-.093.056-.233.168-.42.094-.149.234-.327.42-.532.187-.205.299-.327.336-.364.243-.168.458-.271.644-.308.131-.093.411-.187.84-.28h.308c.112 0 .196.009.252.028s.252.056.588.112c.523-.037 1.046.028 1.568.196.131.093.234.168.308.224.075.056.178.14.308.252.15.093.318.215.504.364.206.131.476.345.812.644.672.616.887 1.241.644 1.876l-.252.532c-.28.28-.578.373-.896.28l-.252-.028c-.205-.112-.373-.336-.504-.672-.168-.149-.28-.252-.336-.308-.522-.523-1.082-.859-1.68-1.008-.317.019-.625.187-.924.504-.298.317-.289.728.028 1.232 0 .168.019.271.056.308.038.037.122.177.252.42.243.299.43.551.56.756.094.261.243.448.448.56l.168.364c.056.019.318.177.784.476.112.093.224.233.336.42 0 0 .364.401 1.092 1.204.112.112.224.289.336.532.224.224.336.429.336.616.019.187-.018.392-.112.616 0 .205-.093.373-.28.504-.168.131-.298.243-.392.336-.074.075-.382.28-.924.616-.037.093-.466.308-1.288.644l-.84.224c-.018 0-.102.009-.252.028-.149.037-.392.056-.728.056h-.224c-.093.037-.308.056-.644.056-.597-.019-1.12-.159-1.568-.42-.093-.037-.149-.084-.168-.14-.373-.597-.56-.849-.56-.756-.074-.093-.13-.28-.168-.56-.018-.28-.037-.448-.056-.504-.018-.075.01-.177.084-.308.168-.299.504-.317 1.008-.056l.364.196c.168.168.374.271.616.308.131-.019.29-.019.476 0 .187.019.364.019.532 0l.504-.224h-.028c.019-.019.075-.028.168-.028.094-.019.234-.056.42-.112.542-.168.756-.429.644-.784l-.196-.336c-.205-.429-.429-.737-.672-.924l-.224-.14c-.746-.728-1.334-1.344-1.764-1.848-.056-.037-.177-.14-.364-.308-.168-.168-.298-.448-.392-.84-.168-.355-.261-.597-.28-.728v-.532c0-.037-.009-.149-.028-.336-.018-.187-.018-.345 0-.476.038-.149.038-.261 0-.336-.018-.075.019-.289.112-.644zm10.4.14c0-.243.121-.448.364-.616 0-.019 0-.037 0-.056 0-.131.14-.364.42-.7.299-.336.467-.541.504-.616.411-.243.681-.383.812-.42.149.037.252.056.308.056h.056c.541-.131 1.157-.112 1.848.056.709.168 1.204.467 1.484.896.149.28.299.653.448 1.12.224.653.336 1.129.336 1.428.112.485.121.933.028 1.344l-.028.28c0 .075-.047.149-.14.224s-.205.112-.336.112c-.112-.019-.215.028-.308.14-.093.093-.289.14-.588.14-.28 0-.429-.084-.448-.252-.056-.019-.149-.084-.28-.196-.112-.112-.168-.196-.168-.252l-.14-.196c0-.037-.037-.093-.112-.168-.168-.336-.233-.597-.196-.784.093-.485.121-.747.084-.784 0-.28-.093-.56-.28-.84-.019-.019-.056-.028-.112-.028-.037-.019-.093-.037-.168-.056-.037-.131-.075-.196-.112-.196-.131.037-.271.14-.42.308-.261.728-.42 1.213-.476 1.456l-.168 1.708v1.288c.037.672.112 1.083.224 1.232 0 .075.037.205.112.392.019.243.215.672.588 1.288l.14.168c.093.261.252.392.476.392s.541-.261.952-.784c-.019-.056.103-.28.364-.672.261-.355.672-.495 1.232-.42.243.037.364.177.364.42.019.168-.037.588-.168 1.26-.187.187-.28.373-.28.56-.131.336-.196.523-.196.56-.056 0-.112.028-.168.084l-.14.28c-.075 0-.121.037-.14.112-.205.243-.345.364-.42.364-.056.056-.205.084-.448.084-.355.149-.616.224-.784.224l-.476.028-.308-.112-.252-.028c-.224-.093-.401-.14-.532-.14-.112.019-.196.009-.252-.028-.056-.019-.131-.065-.224-.14-.224-.187-.373-.28-.448-.28-.056 0-.159-.056-.308-.168-.149-.037-.271-.103-.364-.196l-.112-.28c.037-.131.019-.205-.056-.224-.243 0-.383-.047-.42-.14l-.168-.224c0-.149-.075-.345-.224-.588l-.336-1.008c-.037-.037-.037-.103 0-.196v-.504l-.336-2.184v-.392c.168-.616.252-.933.252-.952-.019-.411.075-.775.28-1.092 0-.355.121-.719.364-1.092zm14.486 1.092c-.131-.747-.495-1.092-1.092-1.036-.336.019-.625.243-.868.672-.336.653-.485 1.503-.448 2.548.056 1.027.131 1.773.224 2.24.112.448.299.84.56 1.176.149.261.373.383.672.364.523 0 .905-.439 1.148-1.316l.224-.672c.093-.093.112-.187.056-.28.187-.467.289-1.017.308-1.652-.187-.131-.299-.252-.336-.364-.112-.317-.168-.532-.168-.644-.131-.093-.205-.271-.224-.532s-.037-.429-.056-.504zm-5.124 2.632.112-1.428c.131-1.288.523-2.389 1.176-3.304.635-.765 1.531-1.157 2.688-1.176h.168c1.083 0 1.867.233 2.352.7.523.411.905.859 1.148 1.344.261.485.429.84.504 1.064s.121.551.14.98c.037.803-.121 1.26-.476 1.372.261 1.773.103 3.183-.476 4.228-.187.429-.457.896-.812 1.4-.261.336-.728.523-1.4.56-.672 0-1.26-.037-1.764-.112-.485-.075-1.027-.308-1.624-.7-.597-.411-1.017-1.073-1.26-1.988-.261-.877-.42-1.857-.476-2.94zm11.279-6.776 1.288.084c.093 0 .317.093.672.28l.056.42c.093.205.14.383.14.532s.018.336.056.56c.186.504.336 1.148.448 1.932.13.784.224 1.325.28 1.624s.102.541.14.728c.037.187.028.336-.028.448.056.056.112.215.168.476s.121.439.196.532l.672 2.94c.056.336.168.523.336.56l.252-.28c.093-.112.186-.355.28-.728.093-.373.14-.719.14-1.036s.028-.588.084-.812l.364-2.772c.037-.392.037-.775 0-1.148v-.812l.028-.672v-.728c0-.168.074-.345.224-.532l.056-.392c.037-.317.242-.485.616-.504.56.093.998.233 1.316.42.224.168.429.373.616.616v.476c.074.821.056 1.596-.056 2.324l-.168 1.036c-.206.709-.318 1.325-.336 1.848-.504 2.128-.756 3.257-.756 3.388 0 .243-.075.467-.224.672 0 .056-.047.205-.14.448-.056.411-.14.672-.252.784 0 .019-.075.121-.224.308-.15.205-.243.327-.28.364-1.195.187-1.904.28-2.128.28-.206.019-.504-.065-.896-.252-.766-.373-1.26-.915-1.484-1.624-.056-.243-.159-.439-.308-.588-.15-.168-.243-.327-.28-.476-.019-.149-.047-.28-.084-.392-.038-.131-.075-.252-.112-.364-.094-.299-.187-.56-.28-.784 0 .075-.01.084-.028.028-.019-.056-.038-.103-.056-.14 0-.056-.019-.149-.056-.28-.038-.131-.056-.271-.056-.42-.747-3.976-1.13-6.029-1.148-6.16-.019-.131-.028-.336-.028-.616v-.644c0-.261.112-.523.336-.784h-.028c.056-.093.28-.149.672-.168zm15.939 2.128c-.038-.093-.168-.131-.392-.112-.206.019-.364.131-.476.336-.766 1.213-1.176 2.511-1.232 3.892.634.149 1.176-.131 1.624-.84.578-1.829.737-2.921.476-3.276zm-2.184 11.116-.28-.056-.392-.392c-.112 0-.196-.047-.252-.14-.206-.243-.579-.728-1.12-1.456l-.42-1.54c0-.299-.056-.56-.168-.784-.187-.84-.299-1.316-.336-1.428-.038-.131-.066-.476-.084-1.036 0-.56.028-.971.084-1.232.056-.355.401-1.232 1.036-2.632.168-.168.27-.392.308-.672l.448-.644c.41-.485.849-.84 1.316-1.064 0-.037.317-.131.952-.28.13-.019.429.028.896.14 1.12.261 1.82.588 2.1.98l.084.14c.354.504.56 1.279.616 2.324-.056.467-.103.859-.14 1.176-.038.317-.243.896-.616 1.736-.28.523-.551.943-.812 1.26-.411.299-.691.448-.84.448-.075.037-.234.056-.476.056h-.644c-.056-.019-.178-.028-.364-.028-.187 0-.458-.047-.812-.14 0 .411.112.999.336 1.764.242.747.438 1.204.588 1.372.392.299.7.495.924.588s.522.112.896.056c.373-.075.644-.205.812-.392l.728-.896c.466-.635.942-.691 1.428-.168.224.243.308.485.252.728-.038.224-.224.681-.56 1.372-.28.448-.579.821-.896 1.12-.579.299-.924.448-1.036.448-.168.019-.43-.009-.784-.084-.187.093-.504.084-.952-.028 0-.037-.056-.065-.168-.084-.094 0-.224-.028-.392-.084l.056-.028c-.038 0-.15 0-.336 0l-.784-.42zm7.447-2.772c.355-2.427.532-3.677.532-3.752l.14-.784c.056-.056.084-.476.084-1.26v-.56l.056-.588c-.056-.392-.084-.7-.084-.924-.075-.355-.037-.709.112-1.064.28-.373.756-.485 1.428-.336.243.075.457.187.644.336.261.093.448.187.56.28.149.056.224.401.224 1.036.224-.224.719-.476 1.484-.756.112 0 .345-.037.7-.112.355-.093.653-.14.896-.14s.429.028.56.084c.373.224.579.373.616.448.037.056.075.149.112.28.056.131.075.196.056.196.168.168.215.355.14.56-.168.243-.429.383-.784.42-.336 0-.971.28-1.904.84l-.84.42c-.728.504-1.129.784-1.204.84-.317 4.013-.523 6.235-.616 6.664-.056.168-.187.336-.392.504s-.457.14-.756-.084l-.392-.14c-.317-.131-.597-.355-.84-.672l-.336-.448-.168-.476c0-.112-.009-.224-.028-.336zm12.518-6.888c0 .299-.018.56-.056.784-.018.224-.028.364-.028.42 0 .579-.028 1.008-.084 1.288-.037.261-.056.476-.056.644v1.26c0 1.083.038 1.736.112 1.96.075.205.206.345.392.42.206.056.364.047.476-.028.112-.093.215-.224.308-.392.112-.187.196-.392.252-.616.075-.243.178-.495.308-.756.131-.28.206-.476.224-.588.038-.131.122-.289.252-.476.262-1.008.411-2.175.448-3.5v-.896c.038-.747.178-1.372.42-1.876.131-.299.514-.541 1.148-.728l.42-.028c.374 0 .616.056.728.168.112.541.122 1.307.028 2.296v1.932c.038.933.056 1.577.056 1.932-.018.131-.009 1.232.028 3.304-.018.019-.018.261 0 .728.019.299-.009.952-.084 1.96-.056 1.008-.084 1.615-.084 1.82-.205 1.139-.438 1.923-.7 2.352-.242.429-.578.803-1.008 1.12-.298.299-.83.504-1.596.616-.056-.019-.205-.028-.448-.028-1.12-.112-1.848-.336-2.184-.672-.989-.504-1.568-.877-1.736-1.12-.149-.224-.242-.439-.28-.644-.037-.205.019-.551.168-1.036.28-.355.644-.42 1.092-.196.187.093.523.28 1.008.56l.924.448c.131.112.262.121.392.028.187-.112.299-.168.336-.168.318-.261.626-.672.924-1.232 0-.187.094-.467.28-.84 0-.373.112-.924.336-1.652v-.308c0-.28.019-.513.056-.7.038-.205.056-.364.056-.476-.149.28-.27.541-.364.784-.093.243-.205.448-.336.616-.018.112-.214.224-.588.336l-1.036.028c0-.019-.056-.028-.168-.028l-.42-.028c-.989 0-1.614-.131-1.876-.392-.13-.168-.289-.327-.476-.476-.168-.205-.27-.467-.308-.784-.056-.056-.093-.215-.112-.476v-.308l-.056-.336c.019-.037 0-.168-.056-.392-.037-.224-.056-.588-.056-1.092v-.336c0-1.661.019-2.529.056-2.604.056-.112.084-.215.084-.308-.037-.093-.028-.196.028-.308l.056-.392.28-.868c0-.075.056-.308.168-.7.112-.112.178-.243.196-.392.075-.355.112-.597.112-.728.019-.131.103-.308.252-.532.224-.168.551-.224.98-.168.448.037.831.224 1.148.56l-.308 1.232c.019.131.028.243.028.336z" fill="#fff"/><path d="m380.397 203.908c-.485-.28-1.428-.42-2.828-.42l.168 1.736c.15 1.008.28 2.893.392 5.656.168-.037.28-.084.336-.14.15-.112.308-.168.476-.168.243-.056.476-.224.7-.504.56-.467.99-.859 1.288-1.176l.924-1.064c.056-.019.15-.224.28-.616.131-.411.215-.747.252-1.008 0-.541-.056-.849-.168-.924 0-.037-.112-.271-.336-.7-.074-.056-.298-.196-.672-.42zm-5.796-3.22 1.568-.224 2.016-.14 1.064.14c.075.075.252.121.532.14.542-.019 1.27.289 2.184.924.224.075.411.205.56.392l1.064 1.288c.038.037.094.14.168.308.075.149.178.327.308.532-.037 0-.009.075.084.224.243.411.355.653.336.728.094.075.187.317.28.728.094.411.122.691.084.84.019.019 0 .233-.056.644-.13.896-.364 1.559-.7 1.988l-.364.672-.616.896-.364.336c-.672.747-1.493 1.325-2.464 1.736-.037.019-.093.037-.168.056l-.672.224-1.092.28c0 .541.066 1.792.196 3.752.075.672.131 1.045.168 1.12 0 .616-.037 1.027-.112 1.232-.074.224-.196.383-.364.476-.168.112-.457.177-.868.196-.112.037-.308 0-.588-.112-.28-.093-.504-.243-.672-.448l-.168-.896c.038-.037-.018-.215-.168-.532-.13-.149-.233-.411-.308-.784l-.196-2.66-.028-.896c-1.082.075-1.736-.224-1.96-.896-.186-.355-.224-.588-.112-.7l.14-.364c.224-.355.654-.532 1.288-.532h.588c-.037-.037-.056-.168-.056-.392l-.112-1.176v-.504l-.028-.364c.019-.168.01-.355-.028-.56v-.168l-.056-.7v-.532l-.028-.28c0-1.325-.074-2.165-.224-2.52-.616.355-1.026.551-1.232.588-.205.019-.55-.121-1.036-.42-.205-.168-.317-.355-.336-.56-.336-.467-.448-.849-.336-1.148.038-.149.187-.383.448-.7.019-.075.243-.243.672-.504.336-.336.924-.579 1.764-.728zm11.945 10.052c0-.168-.019-.364-.056-.588v-.196c.019-.131.009-.271-.028-.42 0-.187.019-.355.056-.504 0-.373.047-.616.14-.728 0-.093.131-.308.392-.644.075-.075.215-.196.42-.364.299-.093.504-.149.616-.168.075-.075.327-.047.756.084.187.019.476.084.868.196.131.037.299.187.504.448-.037.075-.103.355-.196.84-.075.467-.103.849-.084 1.148.112-.093.308-.289.588-.588s.429-.457.448-.476c.485-.224.961-.383 1.428-.476.672-.056 1.111-.009 1.316.14.168.056.299.14.392.252.168.149.308.411.42.784.112.355.103.579-.028.672-.112.093-.485.168-1.12.224-.037 0-.168.075-.392.224l-1.456 1.148c-.299.149-.504.28-.616.392l-.532.98c-.019.037-.037.28-.056.728s-.019.775 0 .98c.019.187.019.812 0 1.876v1.204c0 .653-.009 1.027-.028 1.12-.019.112-.093.299-.224.56-.056.093-.233.14-.532.14-.728.541-1.195.513-1.4-.084l-.364-.224c-.149-.075-.243-.168-.28-.28-.149-.205-.224-.327-.224-.364l-.112-.392-.168-.336c-.056-.019-.103-.373-.14-1.064-.037-.709-.056-1.139-.056-1.288 0-.168-.019-.345-.056-.532.131-.131.187-.355.168-.672 0-.317-.019-.56-.056-.728-.037-.187-.037-.299 0-.336.037-.056.028-.317-.028-.784-.056-.075-.065-.215-.028-.42zm14.443 0c-.13-.747-.494-1.092-1.092-1.036-.336.019-.625.243-.868.672-.336.653-.485 1.503-.448 2.548.056 1.027.131 1.773.224 2.24.112.448.299.84.56 1.176.15.261.374.383.672.364.523 0 .906-.439 1.148-1.316l.224-.672c.094-.093.112-.187.056-.28.187-.467.29-1.017.308-1.652-.186-.131-.298-.252-.336-.364-.112-.317-.168-.532-.168-.644-.13-.093-.205-.271-.224-.532-.018-.261-.037-.429-.056-.504zm-5.124 2.632.112-1.428c.131-1.288.523-2.389 1.176-3.304.635-.765 1.531-1.157 2.688-1.176h.168c1.083 0 1.867.233 2.352.7.523.411.906.859 1.148 1.344.262.485.43.84.504 1.064.075.224.122.551.14.98.038.803-.121 1.26-.476 1.372.262 1.773.103 3.183-.476 4.228-.186.429-.457.896-.812 1.4-.261.336-.728.523-1.4.56-.672 0-1.26-.037-1.764-.112-.485-.075-1.026-.308-1.624-.7-.597-.411-1.017-1.073-1.26-1.988-.261-.877-.42-1.857-.476-2.94zm17.803-3.024c0-.691-.102-1.036-.308-1.036-.093-.019-.214-.019-.364 0l-.364.224.028.028c-.13.131-.289.336-.476.616h.028c-.186.355-.326.597-.42.728-.186.243-.28.411-.28.504s-.037.233-.112.42c-.056.187-.112.327-.168.42-.037.093-.112.364-.224.812-.112.429-.177.747-.196.952l-.112.336-.252 1.512c-.056.168-.056.467 0 .896.075.429.15.747.224.952.206.355.411.541.616.56.131-.112.234-.177.308-.196.019.037.084.056.196.056s.196-.028.252-.084h-.028c.43-.467.738-.84.924-1.12.187-.28.299-.719.336-1.316l.084-.644c.094-.28.14-.607.14-.98l.14-1.988c.094-.467.112-.84.056-1.12v-.14zm-4.844-10.892c.336.093.523.28.56.56.056.691.066 1.204.028 1.54v1.372c-.018.149.01 1.017.084 2.604.094 1.568.187 2.875.28 3.92l.084.028c.206-.485.336-.775.392-.868.075-.093.14-.215.196-.364.075-.149.206-.271.392-.364 0-.037.094-.149.28-.336.206-.205.346-.336.42-.392.094-.056.159-.093.196-.112.056-.037.131-.075.224-.112.112-.037.178-.065.196-.084.262-.075.42-.112.476-.112l.364-.112h.168c.094-.019.206.037.336.168.094.037.224.028.392-.028.336 0 .644.075.924.224s.476.327.588.532c.131.187.308.355.532.504.019.075.075.168.168.28.112.093.196.261.252.504.187.803.28 1.913.28 3.332-.037.019-.056.084-.056.196.019.112.019.28 0 .504v.504l-.112.756v.644c-.037.056-.065.243-.084.56l-.392 1.456-.392 1.12c0 .056-.093.243-.28.56-.261.075-.476.233-.644.476-.522.28-.858.476-1.008.588-.392.392-.868.588-1.428.588-.074 0-.336.037-.784.112-.672.112-1.232.047-1.68-.196-.224 0-.373-.131-.448-.392-.373-.187-.578-.271-.616-.252-.112.037-.224.009-.336-.084-.093-.093-.158-.205-.196-.336-.149-.037-.252-.159-.308-.364-.018-.317-.093-.597-.224-.84-.13-.243-.186-.485-.168-.728.038-.243.019-.504-.056-.784-.056-.299-.065-.541-.028-.728-.093-.299-.158-.625-.196-.98v-.084c.019-.131.038-.243.056-.336v-.448c.038-.373.047-.616.028-.728-.056-.112-.084-.289-.084-.532-.037-.037-.056-.084-.056-.14l-.028-.336c-.168-.168-.149-.42.056-.756.075-.112.075-.429 0-.952l-.364-1.932c.019 0 .028-.056.028-.168l.028-.308c-.186-.803-.28-1.605-.28-2.408-.018-.056-.028-.159-.028-.308v-.476c-.037-.336-.037-.719 0-1.148.056-.429.066-.877.028-1.344-.037-.56.028-1.036.196-1.428.038-.261.112-.448.224-.56.112-.131.299-.261.56-.392.43-.243.85-.336 1.26-.28zm13.365 1.288.7-.14c.448.056.784.177 1.008.364.243.187.355.401.336.644-.28.952-.504 1.951-.672 2.996v.42c-.075.877-.177 1.624-.308 2.24l-.672 6.384v1.932c-.019 1.475.065 2.641.252 3.5l.056.336c-.019.224-.187.373-.504.448-.299.093-.495.131-.588.112s-.196-.047-.308-.084l-.756-.28c-.299-.149-.625-.42-.98-.812-.224-.205-.317-.355-.28-.448-.037-.075-.131-.924-.28-2.548.037-.336.056-.616.056-.84v-.476c0-.373.009-.644.028-.812 0-.037.019-.261.056-.672.093-1.064.149-1.643.168-1.736v-.448c0-1.101.093-1.988.28-2.66-.037-.149-.056-.289-.056-.42.187-.355.252-1.083.196-2.184.317-1.12.504-1.867.56-2.24.056-.392.14-.691.252-.896 0-.336.149-.672.448-1.008.299-.355.635-.579 1.008-.672zm9.125 7.98c-.038-.093-.168-.131-.392-.112-.206.019-.364.131-.476.336-.766 1.213-1.176 2.511-1.232 3.892.634.149 1.176-.131 1.624-.84.578-1.829.737-2.921.476-3.276zm-2.184 11.116-.28-.056-.392-.392c-.112 0-.196-.047-.252-.14-.206-.243-.579-.728-1.12-1.456l-.42-1.54c0-.299-.056-.56-.168-.784-.187-.84-.299-1.316-.336-1.428-.038-.131-.066-.476-.084-1.036 0-.56.028-.971.084-1.232.056-.355.401-1.232 1.036-2.632.168-.168.27-.392.308-.672l.448-.644c.41-.485.849-.84 1.316-1.064 0-.037.317-.131.952-.28.13-.019.429.028.896.14 1.12.261 1.82.588 2.1.98l.084.14c.354.504.56 1.279.616 2.324-.056.467-.103.859-.14 1.176-.038.317-.243.896-.616 1.736-.28.523-.551.943-.812 1.26-.411.299-.691.448-.84.448-.075.037-.234.056-.476.056h-.644c-.056-.019-.178-.028-.364-.028-.187 0-.458-.047-.812-.14 0 .411.112.999.336 1.764.242.747.438 1.204.588 1.372.392.299.7.495.924.588s.522.112.896.056c.373-.075.644-.205.812-.392l.728-.896c.466-.635.942-.691 1.428-.168.224.243.308.485.252.728-.038.224-.224.681-.56 1.372-.28.448-.579.821-.896 1.12-.579.299-.924.448-1.036.448-.168.019-.43-.009-.784-.084-.187.093-.504.084-.952-.028 0-.037-.056-.065-.168-.084-.094 0-.224-.028-.392-.084l.056-.028c-.038 0-.15 0-.336 0l-.784-.42zm8.987-12.404h.056c.243-.075.635-.047 1.176.084.187.056.299.588.336 1.596.075.765.112 1.297.112 1.596 0 .28.009.448.028.504v1.876l.14.028c0-.019.019-.131.056-.336.093-.523.196-.924.308-1.204.075-.075.112-.168.112-.28.019-.112.075-.233.168-.364.112-.523.392-1.204.84-2.044.149-.355.289-.616.42-.784.149-.187.364-.252.644-.196.299.056.541.159.728.308.149.019.327.047.532.084l.812.168c.075.019.177.084.308.196.131.093.187.215.168.364s-.037.588-.056 1.316v.448l-.112 1.092c0 .299.019.476.056.532l.112.084.224-1.288c0-.131.056-.252.168-.364l.336-.812c0-.056.056-.177.168-.364.037-.131.121-.317.252-.56.149-.243.336-.476.56-.7 0-.149.168-.252.504-.308.261-.28.691-.289 1.288-.028.112 0 .215.019.308.056 0 .037.065.065.196.084.149.019.327.14.532.364v.308c0 .187.009.327.028.42-.019.131-.009.299.028.504v.336c.019.149.065.616.14 1.4v.308c.056.112.075.233.056.364v.364c.056.056.103.215.14.476.037.243.019.485-.056.728l.056.252v.784c.093.075.14.187.14.336l.084.476c0 .336.047.672.14 1.008v.308l.14.728v.168l-.028.28c0 .205-.112.355-.336.448-.037.019-.093.047-.168.084-.056.037-.159.056-.308.056l-.588-.196-.28-.196c-.149.037-.345-.028-.588-.196 0-.168-.065-.317-.196-.448-.224-.075-.308-.224-.252-.448.019-.019-.028-.121-.14-.308.037-.037.009-.243-.084-.616 0-.168-.019-.327-.056-.476-.019-.168-.037-.336-.056-.504 0-.168-.028-.317-.084-.448.019 0 .028-.065.028-.196s-.019-.252-.056-.364v-.644l-.14-1.12-.42 1.288c-.28.728-.42 1.12-.42 1.176l-.896 2.8c-.056.112-.168.243-.336.392-.149.131-.28.196-.392.196-.037-.056-.14-.084-.308-.084-.149 0-.336.047-.56.14-.635.075-.999-.121-1.092-.588l-.056-.644.028-.644c-.037-.056-.056-.187-.056-.392l-.028-.392v-1.204l-.056-1.428v-1.372c-.541 1.475-.877 2.436-1.008 2.884l-1.036 3.332c-.205.541-.579.831-1.12.868l-.308.056c-.411.093-.681.028-.812-.196l-.28-.476c-.075-.411-.149-.644-.224-.7-.037-.261-.131-.532-.28-.812l-.14-.672c0-.056-.019-.14-.056-.252v-.504c-.056-.149-.103-.448-.14-.896-.037-.467-.047-.84-.028-1.12-.075-.224-.093-.504-.056-.84v-.504c-.093-.429-.14-1.083-.14-1.96v-.392c.093-.56.14-.933.14-1.12 0-.205.047-.355.14-.448.093-.112.392-.317.896-.616zm24.299 6.776c0 .243-.019.541-.056.896-.038.355.056.924.28 1.708.093.541.186.887.28 1.036.13 0 .252-.14.364-.42 0-.019.065-.149.196-.392.056-.019.242-.28.56-.784.112-.224.224-.448.336-.672.056-.392.186-.737.392-1.036.205-.317.364-.588.476-.812.112-.243.158-.56.14-.952 0-.149-.066-.597-.196-1.344-.038-.093-.112-.299-.224-.616-.094-.336-.224-.569-.392-.7-.15-.149-.308-.215-.476-.196s-.374.28-.616.784c-.299.597-.514 1.176-.644 1.736-.131.56-.215.896-.252 1.008-.056.168-.084.317-.084.448zm3.528-14.448c.392-.056.625-.075.7-.056.093 0 .289-.028.588-.084.392.467.634.812.728 1.036l.196.728c.149.149.224.289.224.42.037.28.065.523.084.728.037.187.056.448.056.784 0 .485-.066 1.587-.196 3.304-.131 1.699-.252 2.921-.364 3.668l.168 1.54c.28 1.531.457 2.361.532 2.492.112.709.345 1.363.7 1.96l.056.224.42.7c.13.28.186.56.168.84 0 .28-.028.476-.084.588-.262.523-.523.803-.784.84-.131.056-.336.056-.616 0-.243 0-.42-.056-.532-.168-.056 0-.131-.009-.224-.028-.28.056-.458-.009-.532-.196-.112-.112-.243-.308-.392-.588-.131-.299-.29-.551-.476-.756l-.14-.308c-.075-.336-.122-.504-.14-.504 0-.019-.01-.065-.028-.14l-.98 1.54c-.038.131-.28.504-.728 1.12l-.364.308c-.224.112-.551.14-.98.084-.038.019-.196.028-.476.028l-1.568-.28c-.336-.224-.626-.579-.868-1.064-.15-.261-.224-.476-.224-.644 0-.187-.084-.551-.252-1.092l-.056-.42v-.168l-.028-.392c.037-.075.018-.233-.056-.476l-.028-.252v-.476c0-.112.028-.327.084-.644.018-.243.018-.513 0-.812 0-.317.009-.541.028-.672-.038-.187-.028-.345.028-.476-.038-.131-.028-.355.028-.672 0-.205.158-.672.476-1.4-.056-.299.074-.635.392-1.008 0-.019.093-.159.28-.42.056-.056.196-.131.42-.224l.672-.448c.709-.205 1.362-.243 1.96-.112l1.12.392c.037-.28.028-1.204-.028-2.772 0-.224.028-.709.084-1.456.074-.765.13-1.503.168-2.212l.336-1.176c0-.205.037-.355.112-.448zm10.957 10.276v-.308c0-.205-.009-.308-.028-.308l-.168-.056c-.131 0-.233-.019-.308-.056-.131.037-.233.093-.308.168-.243.149-.411.327-.504.532l-.616 1.232c-.28.579-.439 1.325-.476 2.24.485.205.84.196 1.064-.028.131-.112.243-.243.336-.392.037-.131.112-.252.224-.364.112-.131.224-.439.336-.924.299-.467.448-1.045.448-1.736zm2.492.392v.308c-.037 1.139-.373 2.165-1.008 3.08-.093.131-.224.28-.392.448l-.616.616c-.131.131-.299.252-.504.364l-.616.168c-.056-.037-.215-.075-.476-.112-.205.075-.383.056-.532-.056-.019 0-.121-.037-.308-.112-.168-.075-.383-.121-.644-.14.037.299.056.625.056.98l.336 1.288c.205.392.401.644.588.756.205.093.42.149.644.168.243 0 .42-.028.532-.084.131-.056.345-.14.644-.252l.56-.28c.392-.224.728-.168 1.008.168.149.168.215.392.196.672-.019.261-.131.504-.336.728-.112.261-.401.504-.868.728-.019 0-.103.037-.252.112-.84.411-1.773.467-2.8.168l-.532-.252c-.056 0-.112-.028-.168-.084-.224-.056-.467-.196-.728-.42s-.448-.411-.56-.56c-.093-.149-.159-.252-.196-.308s-.103-.177-.196-.364c-.317-.597-.551-1.167-.7-1.708l-.168-.812c.037-.075.047-.289.028-.644v-.448c-.168-.299-.065-.98.308-2.044.299-1.419.541-2.249.728-2.492l.364-.728c0-.019.112-.159.336-.42.037-.093.252-.28.644-.56.075-.112.187-.177.336-.196.075-.075.196-.14.364-.196.149-.131.373-.215.672-.252.28-.093.709-.121 1.288-.084 1.325.112 2.231.672 2.716 1.68l.196.616c0 .093.028.205.084.336-.019.037-.028.112-.028.224zm12.333-8.064h.056c.971.037 1.587.205 1.848.504.261.28.308.971.14 2.072-.224.784-.616 1.307-1.176 1.568-.541.261-1.055.159-1.54-.308-.224-.56-.392-.924-.504-1.092-.112-.187-.177-.364-.196-.532 0-1.176.457-1.913 1.372-2.212zm-5.908 11.592c-.056.429-.075.709-.056.84l-.084.588v.504c.037 1.101.075 1.876.112 2.324-.056.579-.177.952-.364 1.12s-.541.187-1.064.056c-.019-.019-.065-.037-.14-.056-.821-.373-1.26-.728-1.316-1.064l-.056-.224c0-.075-.028-.196-.084-.364l-.056-.784c0-.467.009-.859.028-1.176v-.196c0-.075.019-.187.056-.336.056-.149.065-.336.028-.56.075-.971.112-1.577.112-1.82s.019-.485.056-.728c.037-.261.037-.532 0-.812l.112-.728c.037-.205-.037-.336-.224-.392s-.355-.047-.504.028c-1.176 0-1.801-.159-1.876-.476-.056-.485-.019-.803.112-.952.037-.093.196-.149.476-.168.485 0 1.241-.112 2.268-.336.037-.112.056-.243.056-.392l.14-1.008c0-.168.056-.504.168-1.008 0-.149.037-.392.112-.728l.364-2.604c.056-.056.093-.168.112-.336.037-.187.131-.411.28-.672.037-.243.289-.597.756-1.064.037-.037.112-.065.224-.084l.504-.336c.131-.149.579-.355 1.344-.616.149-.075.532-.075 1.148 0 .168.093.317.131.448.112l1.54.252c.915.299 1.325.653 1.232 1.064-.112.392-.28.635-.504.728s-.551.112-.98.056h-.56c-.523-.037-.943.075-1.26.336-.112.093-.261.299-.448.616s-.317.588-.392.812c-.205.784-.429 1.512-.672 2.184-.261.784-.392 1.269-.392 1.456-.112.485-.131.765-.056.84.168 0 .308-.009.42-.028.131-.131.448-.14.952-.028l.588-.028c.168 0 .485.047.952.14.093.056.261.103.504.14.243.019.448.056.616.112l.56.056.308-.028c.392 0 .803.149 1.232.448l.28.168c.131.056.327.317.588.784v.308l-.028.588c0 1.4-.019 2.184-.056 2.352-.112.504-.168 1.885-.168 4.144v.7c0 .336-.084.644-.252.924-.168.261-.364.429-.588.504-.821 0-1.363-.121-1.624-.364-.131-.037-.28-.327-.448-.868-.112-.112-.177-.243-.196-.392-.019-.168-.047-.299-.084-.392-.037-.112-.056-.952-.056-2.52l.112-1.148v-.168c.037-.989.103-1.829.196-2.52-.019-.579-.121-.933-.308-1.064-.187-.149-.485-.205-.896-.168l-2.128.168-.868.168c-.093.261-.149.579-.168.952 0 .355-.047 1.092-.14 2.212zm13.478 1.736c.168-.392.345-.849.532-1.372l.616-1.568.252-.476c-3.79 4.48-3.752 4.433.112-.14l.728-1.512c.056-.056.102-.177.14-.364l.728-1.092.56-.504c.112-.056.233-.149.364-.28.037.037.186 0 .448-.112.168 0 .504.028 1.008.084l.56.196 1.26.756c.261.261.373.541.336.84-.019.224-.122.84-.308 1.848-.15.803-.364 1.727-.644 2.772-.15.84-.196 1.447-.14 1.82s.084.588.084.644c.037.112.084.271.14.476.074.205.093.317.056.336.13.019.196.112.196.28.149.392.196.653.14.784-.038.149-.159.308-.364.476-.187.168-.532.252-1.036.252-.299-.037-.542-.056-.728-.056-.168 0-.383-.065-.644-.196-.542-.392-.85-.793-.924-1.204-.094-.261-.15-.457-.168-.588-.019-.131-.028-.224-.028-.28-.094-.56-.084-1.139.028-1.736.018-.224.102-.681.252-1.372.149-.709.298-1.269.448-1.68 0-.411-.01-.625-.028-.644l-1.092 2.128c-.112.299-.215.523-.308.672-.094.093-.14.205-.14.336-.15.149-.29.448-.42.896 0 .131-.01.224-.028.28-.019.056-.094.196-.224.42-.112.205-.196.401-.252.588-.038.187-.15.392-.336.616 0 .075-.122.457-.364 1.148-.019.075-.215.14-.588.196l-.532-.056c-.131-.037-.439-.131-.924-.28-.486-.149-.756-.224-.812-.224-.038 0-.075-.019-.112-.056-.318-.075-.514-.336-.588-.784v-.448c.093-.112.102-.327.028-.644.037-.187.065-.401.084-.644-.056-.037-.066-.103-.028-.196.037-.597.056-1.017.056-1.26v-.672c.037-.616.084-1.279.14-1.988s.084-1.167.084-1.372v-.56c-.038-.093-.047-.308-.028-.644-.038-.355-.084-.569-.14-.644-.056-.093-.075-.224-.056-.392l.196-.476c.298-.243.802-.289 1.512-.14.317.056.756.243 1.316.56.037.056.13.177.28.364.112 0 .177.159.196.476-.019.168-.028.308-.028.42-.019.019-.122.448-.308 1.288-.411 2.595-.616 4.004-.616 4.228s.018.383.056.476zm11.559-14.252c1.25 0 2.128.252 2.632.756 0 .317-.215.961-.644 1.932-.075.317-.196.569-.364.756l-.364.364c-.094.056-.187.084-.28.084-.672.168-1.195.037-1.568-.392-.075-.112-.168-.196-.28-.252-.094-.056-.168-.224-.224-.504-.168-.243-.252-.429-.252-.56-.038-1.157.382-1.885 1.26-2.184zm-.224 6.608c.186-.093.625 0 1.316.28.074.075.186.149.336.224l.448.364c.074.075.112.196.112.364v2.464c0 .373-.019.709-.056 1.008v.168c-.056.765-.01 2.492.14 5.18.056.523-.066.84-.364.952-.318 0-.523-.047-.616-.14-.075-.037-.14-.056-.196-.056h-.196l-.168.056c-.056 0-.159-.037-.308-.112-.15-.093-.252-.187-.308-.28-.038-.093-.112-.149-.224-.168-.206-.075-.318-.215-.336-.42-.262-.504-.402-.803-.42-.896 0-.093-.028-.196-.084-.308l-.14-2.436c0-.28.018-.495.056-.644v-.672c.018-.205.037-.579.056-1.12.018-.56.046-1.008.084-1.344-.038-.485-.056-.812-.056-.98s.009-.289.028-.364c-.206-.205-.196-.485.028-.84.242-.187.476-.28.7-.28zm6.959 1.064.028-.252c-.392-.037-.672-.065-.84-.084-.149-.037-.401-.075-.756-.112-.354-.037-.634-.093-.84-.168-.392-.131-.616-.467-.672-1.008-.056-.56.122-.905.532-1.036.374-.093.635-.14.784-.14.15 0 .43-.019.84-.056.206-.112.486-.177.84-.196l.42-.112c0 .019.075 0 .224-.056l.14-.588c0-.299.084-.597.252-.896 0-.131.122-.495.364-1.092 0-.075.168-.616.504-1.624.075-.093.355-.308.84-.644.299-.149.719-.047 1.26.308.299.131.504.308.616.532-.112.112-.168.373-.168.784-.018.131-.149.821-.392 2.072v.784c.15.019.392.065.728.14.355.075.775.159 1.26.252.934.187 1.522.56 1.764 1.12.094.411.075.7-.056.868-.13.168-.448.289-.952.364-.41.019-.952.028-1.624.028-.653 0-1.138.047-1.456.14-.037.336-.056.597-.056.784l-.028.42c0 .131-.084.821-.252 2.072-.112.168-.205 1.036-.28 2.604v2.044c0 .336.028.653.084.952.019.411.066.7.14.868 0 .168.047.523.14 1.064-.224.541-.597.812-1.12.812-.504 0-.952-.187-1.344-.56l-.308-.448c-.056-.149-.102-.252-.14-.308-.018-.056-.037-.121-.056-.196-.13-.373-.233-.607-.308-.7-.112-.149-.168-.261-.168-.336s0-.168 0-.28c-.037-.317-.084-.588-.14-.812-.093-.093-.14-.411-.14-.952.038-.989.038-1.559 0-1.708.056-.056.066-.411.028-1.064l.084-.616c0-.075.038-.355.112-.84-.037-.075-.046-.271-.028-.588.019-.336.047-.569.084-.7.038-.224.056-.504.056-.84zm9.398-8.232c.019-.019.196-.047.532-.084.541-.093.915-.056 1.12.112.224.149.383.317.476.504.037.597-.047 1.372-.252 2.324-.205.616-.383 1.073-.532 1.372l-.28.42c-.056.149-.177.308-.364.476s-.327.252-.42.252c-.075-.019-.215-.084-.42-.196-.187-.131-.299-.224-.336-.28-.019-.056-.037-.121-.056-.196l-.14-.56-.56-.7c-.112-.224-.168-.448-.168-.672-.056-.523.009-.924.196-1.204 0-.037.028-.131.084-.28.093-.411.467-.84 1.12-1.288zm-.84 12.572c0-.168.028-.392.084-.672.075-.299.093-.504.056-.616-.019-.112-.019-.429 0-.952.056-.224.065-.476.028-.756-.131-.411-.168-.709-.112-.896s.177-.392.364-.616c.187-.243.392-.411.616-.504s.56-.084 1.008.028c.112.056.299.243.56.56.056.056.121.271.196.644.093.373.149.784.168 1.232.037.429.065 1.064.084 1.904.019.821.056 1.932.112 3.332.056 1.381.065 2.24.028 2.576-.019.336-.14.588-.364.756-.205.187-.392.224-.56.112-.149-.093-.308-.159-.476-.196-.299 0-.56-.121-.784-.364-.075-.019-.252-.103-.532-.252-.28-.168-.457-.467-.532-.896-.093-.187-.121-.793-.084-1.82v-1.008l.14-.952zm8.108.672c-.093.653-.14 1.26-.14 1.82s.037.952.112 1.176c.019.168.056.28.112.336.093.037.224.037.392 0 .261-.112.392-.233.392-.364.541-.523.849-.868.924-1.036s.131-.271.168-.308c.075-.093.121-.215.14-.364.093-.093.149-.159.168-.196-.019-.056.019-.215.112-.476-.075-.131-.075-.224 0-.28.093-.075.14-.271.14-.588l.112-.896c0-.112.009-.196.028-.252-.019-.075-.019-.187 0-.336.037-.168.047-.429.028-.784s-.084-.588-.196-.7l-.056-.168c-.037-.131-.187-.224-.448-.28l-.224-.112c.056.112 0 .261-.168.448-.728.989-1.26 2.109-1.596 3.36zm-1.932-2.996c.019-.149.075-.289.168-.42l-.028-.168c.075-.261.121-.411.14-.448s.047-.037.084 0c-.019-.075-.009-.131.028-.168.056-.168.14-.364.252-.588.131-.224.205-.364.224-.42.112-.317.289-.523.532-.616 0-.149.261-.252.784-.308.597-.205 1.083-.243 1.456-.112.187-.112.467-.065.84.14.28.112.579.28.896.504.28.187.513.392.7.616.261.112.429.299.504.56.523 1.251.784 2.352.784 3.304l-.056.308c0 .261-.028.429-.084.504-.037.056-.056.149-.056.28.037.019.037.103 0 .252 0 .093-.149.7-.448 1.82l-.448.924c0 .037-.047.103-.14.196v.168c0 .037-.047.112-.14.224-.187.373-.373.653-.56.84-.299.485-.551.84-.756 1.064l-.224.308-.336-.028c-.056.093-.112.14-.168.14-.037 0-.168-.037-.392-.112l.224-.028c-.149.019-.271.009-.364-.028-.075-.037-.149-.056-.224-.056-.355-.187-.607-.252-.756-.196-.075 0-.355-.075-.84-.224l-.784-.14-.616-.224c-.168-.093-.327-.205-.476-.336-.056-.112-.084-.205-.084-.28l-.168-.56c0-.037-.019-.131-.056-.28v-.728c.037-.187.056-.364.056-.532-.037-.093-.037-.289 0-.588v-.308c0-.056.009-.159.028-.308-.019-.093-.009-.299.028-.616s.056-.607.056-.868c0-.243.037-.579.112-1.008.056-.131.093-.364.112-.7.019-.355.084-.607.196-.756zm10.002 5.096c0-.075.018-.355.056-.84-.15-.224-.224-.728-.224-1.512-.019-1.997-.028-3.015-.028-3.052.018-.037 0-.103-.056-.196-.056-.112-.084-.224-.084-.336v-.308c-.075-.616-.038-1.083.112-1.4.037-.187.14-.327.308-.42.13-.187.317-.28.56-.28.242 0 .448.028.616.084.13-.056.252.019.364.224.224.093.345.14.364.14l.14.112c.149 0 .242.028.28.084.056.037.093.149.112.336l.252 2.436v.476c.037.224.056.401.056.532l.028 1.316.112.028c.112-.448.233-.821.364-1.12.149-.317.242-.551.28-.7.018-.149.084-.289.196-.42.112-.224.168-.383.168-.476s.074-.215.224-.364c.168-.411.326-.709.476-.896l.084-.224c.074-.112.13-.205.168-.28.205-.168.354-.317.448-.448l.224-.168c.037 0 .074-.047.112-.14.037-.112.28-.177.728-.196.354-.056.653-.056.896 0 .168 0 .27.009.308.028l.168.168.224.056c.317.168.522.569.616 1.204 0 1.269.046 2.109.14 2.52.13 1.064.345 2.016.644 2.856.317.84.625 1.4.924 1.68.392.504.466 1.036.224 1.596-.168.28-.383.429-.644.448-.262.019-.448.009-.56-.028-.15 0-.271-.028-.364-.084-.206.056-.383.009-.532-.14-.168 0-.299-.084-.392-.252-.654-.859-1.036-1.391-1.148-1.596-.094-.205-.168-.345-.224-.42-.038-.075-.066-.14-.084-.196-.019-.056-.047-.14-.084-.252-.038-.168-.112-.317-.224-.448-.094-.149-.14-.261-.14-.336-.056-.093-.094-.243-.112-.448-.112-.075-.168-.168-.168-.28-.094-.056-.159-.224-.196-.504l-.112-.728-.056-.028c-.934 1.176-1.466 2.511-1.596 4.004-.038.373-.075.616-.112.728-.094.149-.056.383.112.7v.168c0 .075-.103.215-.308.42-.224.019-.355.028-.392.028h-.308c-.038 0-.112.028-.224.084-.112 0-.206.019-.28.056-.075.037-.178.028-.308-.028-.336-.019-.532-.047-.588-.084-.056-.019-.14-.047-.252-.084-.112-.019-.206-.075-.28-.168-.094 0-.159-.056-.196-.168-.486-.485-.728-.896-.728-1.232v-.196l-.028-.224c.037-.299.018-.569-.056-.812z" fill="#fff"/><path d="m700.751 219.756c-.131.131-.532.196-1.204.196-.467.093-1.018.019-1.652-.224l-.588-.196-.868-.42c-.075 0-.122 0-.14 0-.019.019-.066 0-.14-.056-.112-.093-.243-.168-.392-.224-.374-.261-.635-.495-.784-.7-.598-.952-.896-1.745-.896-2.38 0-.075.093-.215.28-.42.373-.448.84-.672 1.4-.672.224.019.401.093.532.224l.924 1.204c.149.149.317.299.504.448l.364.392.56.476c.074.037.149.056.224.056.074.037.28.084.616.14.373-.093.69-.196.952-.308.168-.168.317-.299.448-.392l.392-.448c.037-.037.102-.187.196-.448 0-.243 0-.401 0-.476.018-.093-.01-.327-.084-.7-.019-.056-.15-.205-.392-.448-.112-.224-.271-.467-.476-.728-.112-.112-.654-.411-1.624-.896l-.532-.308-.504-.448c-.243-.075-.588-.327-1.036-.756-.187-.131-.327-.233-.42-.308-.112-.037-.42-.355-.924-.952 0-.037-.159-.392-.476-1.064l-.252-1.092.112-.728c-.112-.485-.15-.849-.112-1.092.074-.112.168-.336.28-.672-.056-.28.196-.831.756-1.652 0-.112.41-.56 1.232-1.344l.952-.504.448-.196c.168-.019.392-.047.672-.084.298-.037.737-.037 1.316 0 .578.037.942.112 1.092.224.13.056.504.308 1.12.756.821.728 1.269 1.381 1.344 1.96.317.952.336 1.969.056 3.052 0 .075-.262.224-.784.448l-.7-.028c-.598-.075-1.167-.383-1.708-.924-.15-.093-.262-.355-.336-.784-.019-.448-.112-.719-.28-.812-.019-.019-.094-.187-.224-.504-.318-.411-.532-.616-.644-.616-.094 0-.206.028-.336.084-.672.541-1.027 1.148-1.064 1.82-.131.541.037 1.204.504 1.988.205.299.336.448.392.448.112.187.326.42.644.7l.392.42 1.176.868.476.476.532.336c.298.131.588.308.868.532.373.28.83.803 1.372 1.568.112.168.261.672.448 1.512v1.092l-.14.644c-.094.093-.196.28-.308.56 0 .019-.103.271-.308.756-.056.093-.28.289-.672.588-.56.448-1.186.784-1.876 1.008-.15.037-.383.047-.7.028zm11.19-9.016c-.131-.747-.495-1.092-1.092-1.036-.336.019-.626.243-.868.672-.336.653-.486 1.503-.448 2.548.056 1.027.13 1.773.224 2.24.112.448.298.84.56 1.176.149.261.373.383.672.364.522 0 .905-.439 1.148-1.316l.224-.672c.093-.093.112-.187.056-.28.186-.467.289-1.017.308-1.652-.187-.131-.299-.252-.336-.364-.112-.317-.168-.532-.168-.644-.131-.093-.206-.271-.224-.532-.019-.261-.038-.429-.056-.504zm-5.124 2.632.112-1.428c.13-1.288.522-2.389 1.176-3.304.634-.765 1.53-1.157 2.688-1.176h.168c1.082 0 1.866.233 2.352.7.522.411.905.859 1.148 1.344.261.485.429.84.504 1.064.074.224.121.551.14.98.037.803-.122 1.26-.476 1.372.261 1.773.102 3.183-.476 4.228-.187.429-.458.896-.812 1.4-.262.336-.728.523-1.4.56-.672 0-1.26-.037-1.764-.112-.486-.075-1.027-.308-1.624-.7-.598-.411-1.018-1.073-1.26-1.988-.262-.877-.42-1.857-.476-2.94zm11.642-9.352.196-1.652.028-.868c0-.243.047-.429.14-.56l.28-.392c.504-.392.831-.616.98-.672.15-.056.364-.047.644.028.299.056.476.112.532.168l.308.252c.168.093.252.243.252.448.094.112.122.196.084.252-.112.131-.298 1.232-.56 3.304l-.224 3.808-.14.756c0 .243.01.383.028.42v.504c-.037.373-.074.607-.112.7 0 .093-.018.196-.056.308.038.037.056.187.056.448 0 .243-.028.392-.084.448-.037.299-.056.588-.056.868 0 .261.019.541.056.84.056.28.075.56.056.84l.112 1.064v.42c.038.336.056.607.056.812l.14 1.456.112.756c.056.317.028.625-.084.924-.093.299-.242.485-.448.56-.578.243-1.213.084-1.904-.476h-.224c-.13-.149-.233-.355-.308-.616-.149-.075-.214-.205-.196-.392.019-.187-.018-.355-.112-.504-.093-.149-.14-.28-.14-.392 0-.243-.018-.457-.056-.644l.028-.224c-.056-.056-.084-.14-.084-.252l-.056-.504v-.224c0-.149-.009-.252-.028-.308 0-.056.028-.149.084-.28-.056-.075-.065-.345-.028-.812.112-1.437.168-2.427.168-2.968l.028-.672v-.812c.019-.448.028-1.017.028-1.708.019-.691.056-1.064.112-1.12l-.028-.252c0-.448.066-1.055.196-1.82.15-.784.224-1.204.224-1.26zm9.359 3.5c.28.243.429.579.448 1.008.037.429.028.728-.028.896-.037.168-.112.747-.224 1.736-.056.131-.084.308-.084.532l-.28 2.492c0 .989.009 1.568.028 1.736s.056.299.112.392c.019.075.103.131.252.168s.252 0 .308-.112c0-.168.056-.299.168-.392 0-.037.121-.299.364-.784 0-.075.028-.177.084-.308.075-.131.121-.243.14-.336.037-.112.065-.187.084-.224.075-.056.168-.261.28-.616 0-.205.112-.42.336-.644 0-.056.093-.28.28-.672l.056-.252c.336-.709.495-1.204.476-1.484l.14-1.372.28-1.12c.261-.597.635-.961 1.12-1.092.224-.093.523-.056.896.112.392.168.635.336.728.504.112.149.168.299.168.448v.504l-.028.308v1.512c0 1.12.019 1.969.056 2.548.112 1.68.439 3.117.98 4.312.261.597.149 1.055-.336 1.372-.28.187-.607.28-.98.28-.635 0-1.073-.243-1.316-.728-.131-.187-.252-.439-.364-.756s-.187-.523-.224-.616c-.112-.373-.187-.579-.224-.616l-.224-.532c-.299.952-.812 2.072-1.54 3.36-.149.243-.411.448-.784.616-.336-.075-.7-.177-1.092-.308-.243-.093-.644-.224-1.204-.392-.373-.037-.588-.093-.644-.168-.056-.093-.103-.149-.14-.168-.019-.037-.028-.065-.028-.084-.056-.093-.149-.14-.28-.14-.075-.168-.187-.308-.336-.42 0-.019-.028-.112-.084-.28-.205-.131-.373-.523-.504-1.176-.093-.093-.168-.691-.224-1.792-.037-1.12-.047-1.82-.028-2.1.037-.28.056-.513.056-.7-.037-.075-.028-.243.028-.504s.075-.439.056-.532l.112-1.176.224-1.008c0-.28.093-.569.28-.868s.317-.476.392-.532c.075-.149.336-.271.784-.364.093.019.215.037.364.056.149 0 .289.019.42.056.131.019.364.159.7.42zm14.419-5.348c-.037.467-.056.812-.056 1.036 0 .205-.009.392-.028.56v.728l-.028.196v.588c0 .168-.009.336-.028.504l.98-.196c.075 0 .345-.047.812-.14s.887-.131 1.26-.112c.392 0 .653.075.784.224.149.149.224.364.224.644.037.224-.028.439-.196.644l-.112.168c-.149.243-.364.401-.644.476l-.98.14-1.26.308-.756.28c.019.467.047.98.084 1.54.056.56.084.952.084 1.176l.084 1.036c.243 1.643.56 3.323.952 5.04.112.168.233.551.364 1.148l.224.588c.075.635-.317.952-1.176.952-.149 0-.523-.037-1.12-.112-.168-.019-.411-.187-.728-.504 0-.037-.103-.159-.308-.364l-.532-1.288c-.037-.056-.084-.233-.14-.532-.205-.205-.373-.672-.504-1.4 0-.037-.019-.131-.056-.28v-.392c-.131-.131-.224-.495-.28-1.092s-.121-1.157-.196-1.68c0-.728-.056-1.428-.168-2.1l-.056-.616v-.252c.019-.187.019-.28 0-.28h-.336c-.28.037-.513.037-.7 0-.821 0-1.391-.233-1.708-.7-.224-.504-.233-.831-.028-.98s.709-.299 1.512-.448c.355 0 .812-.121 1.372-.364 0-.467.028-.728.084-.784.056-.429.112-.7.168-.812.075-.131.121-.261.14-.392.019-.448.177-1.111.476-1.988.112-.429.215-.719.308-.868.243-.355.747-.467 1.512-.336.317.056.551.177.7.364.056-.019.056.205 0 .672zm8.936.98h.084c.653.037 1.073.233 1.26.588.205.336.28.663.224.98-.038.317-.29.709-.756 1.176-.448.467-.859.691-1.232.672-.112 0-.336-.056-.672-.168-.318-.112-.486-.177-.504-.196-.019-.075-.075-.131-.168-.168-.486-.187-.756-.663-.812-1.428 0-.075.056-.131.168-.168-.075 0-.084-.112-.028-.336.13-.411.42-.681.868-.812.578-.112 1.101-.159 1.568-.14zm-.056 7.084-.476 4.676v.336c0 .093.009.177.028.252-.019.075-.028.168-.028.28v2.016c.074.635.074 1.008 0 1.12-.112.037-.243.093-.392.168-.15.093-.439.112-.868.056-.411-.037-.71-.103-.896-.196l-.336-.084c-.187 0-.308-.084-.364-.252-.243-.149-.374-.345-.392-.588-.056-.093.009-.224.196-.392-.019-.093-.056-.224-.112-.392-.056-.187-.075-.355-.056-.504.056-.093.028-.233-.084-.42 0-.205.028-.439.084-.7.074-.075.093-.345.056-.812.13-.187.196-.448.196-.784-.075-.299-.047-.597.084-.896.13-.299.205-.597.224-.896.037-.467.121-.924.252-1.372 0-.187.084-.485.252-.896.186-.411.308-.653.364-.728l.448-.448.504-.196h.028c.224-.075.448-.065.672.028.541.205.868.364.98.476-.075.075-.122.187-.14.336-.019.149-.038.28-.056.392-.075.093-.131.233-.168.42zm7.992.504c-.131-.747-.495-1.092-1.092-1.036-.336.019-.626.243-.868.672-.336.653-.486 1.503-.448 2.548.056 1.027.13 1.773.224 2.24.112.448.298.84.56 1.176.149.261.373.383.672.364.522 0 .905-.439 1.148-1.316l.224-.672c.093-.093.112-.187.056-.28.186-.467.289-1.017.308-1.652-.187-.131-.299-.252-.336-.364-.112-.317-.168-.532-.168-.644-.131-.093-.206-.271-.224-.532-.019-.261-.038-.429-.056-.504zm-5.124 2.632.112-1.428c.13-1.288.522-2.389 1.176-3.304.634-.765 1.53-1.157 2.688-1.176h.168c1.082 0 1.866.233 2.352.7.522.411.905.859 1.148 1.344.261.485.429.84.504 1.064.074.224.121.551.14.98.037.803-.122 1.26-.476 1.372.261 1.773.102 3.183-.476 4.228-.187.429-.458.896-.812 1.4-.262.336-.728.523-1.4.56-.672 0-1.26-.037-1.764-.112-.486-.075-1.027-.308-1.624-.7-.598-.411-1.018-1.073-1.26-1.988-.262-.877-.42-1.857-.476-2.94zm13.742 2.324c.168-.392.346-.849.532-1.372l.616-1.568.252-.476c-3.789 4.48-3.752 4.433.112-.14l.728-1.512c.056-.056.103-.177.14-.364l.728-1.092.56-.504c.112-.056.234-.149.364-.28.038.037.187 0 .448-.112.168 0 .504.028 1.008.084l.56.196 1.26.756c.262.261.374.541.336.84-.018.224-.121.84-.308 1.848-.149.803-.364 1.727-.644 2.772-.149.84-.196 1.447-.14 1.82s.084.588.084.644c.038.112.084.271.14.476.075.205.094.317.056.336.131.019.196.112.196.28.15.392.196.653.14.784-.037.149-.158.308-.364.476-.186.168-.532.252-1.036.252-.298-.037-.541-.056-.728-.056-.168 0-.382-.065-.644-.196-.541-.392-.849-.793-.924-1.204-.093-.261-.149-.457-.168-.588-.018-.131-.028-.224-.028-.28-.093-.56-.084-1.139.028-1.736.019-.224.103-.681.252-1.372.15-.709.299-1.269.448-1.68 0-.411-.009-.625-.028-.644l-1.092 2.128c-.112.299-.214.523-.308.672-.093.093-.14.205-.14.336-.149.149-.289.448-.42.896 0 .131-.009.224-.028.28-.018.056-.093.196-.224.42-.112.205-.196.401-.252.588-.037.187-.149.392-.336.616 0 .075-.121.457-.364 1.148-.018.075-.214.14-.588.196l-.532-.056c-.13-.037-.438-.131-.924-.28-.485-.149-.756-.224-.812-.224-.037 0-.074-.019-.112-.056-.317-.075-.513-.336-.588-.784v-.448c.094-.112.103-.327.028-.644.038-.187.066-.401.084-.644-.056-.037-.065-.103-.028-.196.038-.597.056-1.017.056-1.26v-.672c.038-.616.084-1.279.14-1.988s.084-1.167.084-1.372v-.56c-.037-.093-.046-.308-.028-.644-.037-.355-.084-.569-.14-.644-.056-.093-.074-.224-.056-.392l.196-.476c.299-.243.803-.289 1.512-.14.318.056.756.243 1.316.56.038.056.131.177.28.364.112 0 .178.159.196.476-.018.168-.028.308-.028.42-.018.019-.121.448-.308 1.288-.41 2.595-.616 4.004-.616 4.228s.019.383.056.476zm16.877-7.56c.504-.616 1.195-.943 2.072-.98 1.437-.056 2.501.299 3.192 1.064.709.765 1.083 1.521 1.12 2.268.056.747-.131 1.148-.56 1.204-.616.019-1.017-.065-1.204-.252-.168.019-.383-.103-.644-.364-.112-.056-.261-.271-.448-.644l-.308-.7c-.149-.336-.336-.523-.56-.56-.28.112-.42.392-.42.84.075.877.495 1.717 1.26 2.52 0 0 .009.028.028.084.037.037.177.187.42.448 1.475 1.624 2.24 2.931 2.296 3.92 0 .635-.131 1.055-.392 1.26-.803.952-1.848 1.447-3.136 1.484s-2.352-.364-3.192-1.204c-.224-.224-.336-.439-.336-.644-.112-.355-.149-.588-.112-.7-.056-.523-.056-.915 0-1.176.112-.597.551-.905 1.316-.924.28 0 .457.168.532.504.243.952.467 1.577.672 1.876.224.299.579.439 1.064.42.616-.037.905-.383.868-1.036-.019-.653-.327-1.26-.924-1.82-.187-.224-.373-.392-.56-.504-.168-.131-.28-.224-.336-.28-.019-.056-.065-.112-.14-.168-.373-.299-.849-.793-1.428-1.484-.56-.691-.859-1.335-.896-1.932-.075-1.064.177-1.904.756-2.52zm8.984-5.796.056-.364c0-.056.018-.14.056-.252.074-.019.112-.084.112-.196s.018-.215.056-.308c-.019-.112.056-.289.224-.532.168-.261.336-.457.504-.588.112 0 .186-.019.224-.056h.336c.522 0 .83.037.924.112.205.093.308.429.308 1.008.018.056.028.196.028.42l-.028.196v.224.308c.018.112.018.224 0 .336v.756c-.038 1.195-.056 1.988-.056 2.38 0 .373-.01.579-.028.616.018.093.028.765.028 2.016.056.933.084 1.82.084 2.66v.644c0 .429-.01.728-.028.896l.028.252c-.038.037-.056.149-.056.336v.392l.308-.812c0-.149.084-.364.252-.644l.112-.42c0-.075.074-.271.224-.588.168-.317.289-.625.364-.924l.196-.336c0-.187.037-.317.112-.392l.028-.168c.149-.261.224-.429.224-.504l.028-.42c0-.037.018-.084.056-.14.13-.149.224-.336.28-.56.466-.616 1.101-.868 1.904-.756.97.131 1.456.747 1.456 1.848v.84c.056.28.046.495-.028.644l.028.476v.532l.084 1.596v.588c0 .131-.01.243-.028.336.018.056.028.177.028.364-.038.019-.038.103 0 .252.037.131.056.233.056.308 0 .056.018.317.056.784 0 1.101.121 2.128.364 3.08l.028.196v.168c.168.467.14.775-.084.924-.206.131-.392.112-.56-.056-.056.019-.271.009-.644-.028-.206.112-.57-.037-1.092-.448-.112-.075-.215-.168-.308-.28-.019-.037-.047-.112-.084-.224-.075-.261-.122-.467-.14-.616-.168-.299-.252-.485-.252-.56l-.168-1.344c.074-.019.056-.252-.056-.7s-.187-1.055-.224-1.82v-.252c0-.355.009-.532.028-.532-.131 0-.29.467-.476 1.4l-.196.924v.28c-.075.149-.159.261-.252.336l-.868 3.584c.037.149.018.252-.056.308-.075.075-.215.121-.42.14h-.728c-.075.075-.187.112-.336.112-.467 0-.728-.159-.784-.476-.206-.056-.308-.168-.308-.336v-.168c-.224-.448-.346-.737-.364-.868 0-.131 0-.252 0-.364-.038-.075-.056-.177-.056-.308-.038-.037-.056-.14-.056-.308-.094-.243-.122-.635-.084-1.176l-.028-.336c.018-.261.028-.457.028-.588v-.504l.028-.252v-.308c0-.075-.019-.205-.056-.392.056-.093.065-.205.028-.336v-.7c0-.355-.01-.569-.028-.644v-.84c-.019-.261-.019-.439 0-.532l-.112-1.008c.037-.355.018-.7-.056-1.036.018-.075-.019-.485-.112-1.232-.075-.747-.094-1.185-.056-1.316 0-.131-.019-.271-.056-.42-.019-.149 0-.261.056-.336 0-.019-.019-.14-.056-.364-.038-.205-.038-.429 0-.672-.038-.093-.038-.243 0-.448.056-.056.065-.168.028-.336v-.476l.112-.28c-.038-.112-.056-.243-.056-.392zm17.272 9.352c.019-.056.056-.383.112-.98-.037-.056-.084-.261-.14-.616-.149-.299-.345-.523-.588-.672-.299-.131-.476-.196-.532-.196-.168.056-.289.121-.364.196-.056.056-.215.317-.476.784-.243.467-.448 1.241-.616 2.324-.149 1.083-.224 1.867-.224 2.352s.019 1.083.056 1.792c.037.691.187 1.017.448.98.243-.037.579-.709 1.008-2.016.019-.093.084-.261.196-.504zm3.276-1.148c0 .989.103 1.895.308 2.716.093.821.261 1.699.504 2.632.056.373.075.56.056.56.467 1.027.728 1.643.784 1.848.056.187.047.345-.028.476v-.028c-.056.168-.233.317-.532.448-.28.149-.532.243-.756.28-.709.224-1.129-.047-1.26-.812-.075-.056-.187-.168-.336-.336-.131-.187-.205-.336-.224-.448-.019-.131-.084-.252-.196-.364-.037-.093-.121-.215-.252-.364s-.205-.299-.224-.448l-.084-.756-.056-.028c-.299.616-.495 1.045-.588 1.288-.224.635-.616 1.363-1.176 2.184-.635.709-1.409.915-2.324.616-.336-.019-.607-.121-.812-.308-.187-.187-.317-.289-.392-.308-.112-.037-.271-.177-.476-.42-.336-.448-.541-1.111-.616-1.988v-.728c.056-.093.056-.541 0-1.344v-.168c-.112-.56-.168-.896-.168-1.008s.019-.261.056-.448.047-.299.028-.336c-.019-.056-.028-.14-.028-.252v-.42l.14-1.512c.205-.653.429-1.241.672-1.764.075-.317.215-.569.42-.756.467-.504.719-.793.756-.868.131-.28.616-.504 1.456-.672l.476.028c.187 0 .355.028.504.084.149.037.252.056.308.056.261.131.476.196.644.196s.448.131.84.392c.112.019.392.177.84.476.485.317.765.495.84.532l.728.252c.205.168.308.261.308.28s-.047.532-.14 1.54zm10.478.224-.252-.728v-.028c-.037-.037-.158-.056-.364-.056-.485 0-.765.028-.84.084-.28.205-.56.383-.84.532-.018.019-.214.205-.588.56l-.252.588c-.093.859-.13 1.344-.112 1.456-.112.653-.149 1.045-.112 1.176.038.131.047.271.028.42-.018.131-.056.429-.112.896.038.168.047.457.028.868-.018.411-.009.663.028.756.168 0 .383-.112.644-.336.038.019.131-.047.28-.196.168-.168.29-.327.364-.476.038-.019.094-.075.168-.168.131-.149.224-.271.28-.364.094-.019.168-.103.224-.252 0-.093.112-.289.336-.588.467-.821.738-1.512.812-2.072v-.168c.038-.112.056-.215.056-.308l.112-.392c0-.093.019-.159.056-.196zm-2.912-2.044c.374-.373.962-.56 1.764-.56.131.019.28-.009.448-.084s.383-.121.644-.14l.224.056c.131 0 .308.056.532.168s.476.215.756.308l.252.252.364.252c.206.056.308.159.308.308l.056.224c.187.243.252.532.196.868.168.392.196.952.084 1.68-.037 1.064-.149 1.876-.336 2.436l-.168.252-.784 1.568c-.298.411-.588.719-.868.924-.037.168-.308.411-.812.728l-.336.224c-.336.28-1.008.551-2.016.812-.149.037-.27.056-.364.056-.074 0-.149.009-.224.028h-.448c.056.019.066.103.028.252v.364l.028.7c-.037.131-.056.327-.056.588s.01.429.028.504l-.084.784v.812c-.112.392-.158.653-.14.784.019.149.01.261-.028.336.038.075.056.159.056.252s-.046.243-.14.448c-.074.224-.13.355-.168.392-.018.056-.037.084-.056.084-.037.019-.158.103-.364.252l-.168.028c-.597 0-1.045-.103-1.344-.308-.28-.205-.438-.607-.476-1.204.038-.037.028-.112-.028-.224-.037-.112-.084-.271-.14-.476 0-.112-.028-.243-.084-.392l.056-.616c-.056-.597-.084-.943-.084-1.036.019-.075.028-.149.028-.224.019-.075.01-.233-.028-.476-.018-.224.028-.597.14-1.12-.037-.149-.037-.457 0-.924.094-.523.14-1.008.14-1.456.056-.112.084-.261.084-.448v-.392c.019-.019.028-.084.028-.196l.028-.168c0-.131.028-.448.084-.952.075-.504.131-.849.168-1.036.056-.187.094-.523.112-1.008.038-.504.047-.821.028-.952-.037-.131.019-.532.168-1.204-.037-.187-.056-.523-.056-1.008.112-.336.168-.849.168-1.54.094-.411.178-.719.252-.924.094-.205.318-.373.672-.504h.084c.094.019.243.047.448.084.579.075.915.177 1.008.308l.196.168c.112.112.168.299.168.56-.056.317-.065.56-.028.728zm11.311-5.572h.084c.653.037 1.073.233 1.26.588.205.336.28.663.224.98-.038.317-.29.709-.756 1.176-.448.467-.859.691-1.232.672-.112 0-.336-.056-.672-.168-.318-.112-.486-.177-.504-.196-.019-.075-.075-.131-.168-.168-.486-.187-.756-.663-.812-1.428 0-.075.056-.131.168-.168-.075 0-.084-.112-.028-.336.13-.411.42-.681.868-.812.578-.112 1.101-.159 1.568-.14zm-.056 7.084-.476 4.676v.336c0 .093.009.177.028.252-.019.075-.028.168-.028.28v2.016c.074.635.074 1.008 0 1.12-.112.037-.243.093-.392.168-.15.093-.439.112-.868.056-.411-.037-.71-.103-.896-.196l-.336-.084c-.187 0-.308-.084-.364-.252-.243-.149-.374-.345-.392-.588-.056-.093.009-.224.196-.392-.019-.093-.056-.224-.112-.392-.056-.187-.075-.355-.056-.504.056-.093.028-.233-.084-.42 0-.205.028-.439.084-.7.074-.075.093-.345.056-.812.13-.187.196-.448.196-.784-.075-.299-.047-.597.084-.896.13-.299.205-.597.224-.896.037-.467.121-.924.252-1.372 0-.187.084-.485.252-.896.186-.411.308-.653.364-.728l.448-.448.504-.196h.028c.224-.075.448-.065.672.028.541.205.868.364.98.476-.075.075-.122.187-.14.336-.019.149-.038.28-.056.392-.075.093-.131.233-.168.42zm9.447 7.728-.168-.476-.308-1.876c-.093-.355-.14-.672-.14-.952l.112-1.232c0-.205.01-.317.028-.336-.224 0-.56.271-1.008.812-.037.056-.093.149-.168.28-.784 1.251-1.25 2.753-1.4 4.508-.149.317-.345.476-.588.476-.504-.112-.784-.168-.84-.168l-.196.028h-.364c-.429-.037-.709-.205-.84-.504-.074-.093-.112-.336-.112-.728v-.392l-.084-1.54v-2.296c0-.261-.018-.588-.056-.98-.037-.429-.046-1.101-.028-2.016.019-.933.01-1.428-.028-1.484-.037-.075-.056-.168-.056-.28s.028-.224.084-.336.308-.233.756-.364c.243-.149.448-.224.616-.224.262.056.598.168 1.008.336.28.056.42.327.42.812.038.803.038 1.381 0 1.736-.018.355-.009 1.073.028 2.156 1.382-2.651 2.614-4.247 3.696-4.788.094-.093.234-.14.42-.14.187 0 .402.093.644.28.243.187.411.308.504.364.094.056.196.149.308.28.131.131.234.215.308.252.224.373.271 1.251.14 2.632-.018.205-.037.392-.056.56-.018.149-.028.485-.028 1.008s.01.887.028 1.092c.056.653.084 1.036.084 1.148l.14 1.064c.187.429.28.765.28 1.008.019.224.187.588.504 1.092.131.28.075.504-.168.672-.373.187-.578.261-.616.224-.018-.019-.121 0-.308.056-.186.075-.522.093-1.008.056-.242-.056-.485-.205-.728-.448l-.42-.42c-.149-.224-.252-.467-.308-.728-.093-.093-.121-.168-.084-.224zm8.774-4.396c-.093.429-.159.877-.196 1.344 0 .821.103 1.437.308 1.848.093.093.149.177.168.252.037.056.121.131.252.224.205-.243.355-.457.448-.644l.784-1.372c.392-1.064.728-1.904 1.008-2.52 0-.112 0-.392 0-.84.019-.467-.149-.915-.504-1.344-.187-.168-.327-.345-.42-.532-.093-.205-.28-.42-.56-.644-.336.131-.579.485-.728 1.064 0 .28-.047.532-.14.756-.187.485-.28.896-.28 1.232-.093.411-.14.803-.14 1.176zm6.132-2.24c0 .429.047.877.14 1.344 0 .149.056.728.168 1.736.131.989.196 1.904.196 2.744 0 1.904-.149 3.341-.448 4.312-.056.336-.187.691-.392 1.064-.187.373-.28.597-.28.672-.112.205-.457.672-1.036 1.4l-.28.252c-.037 0-.149.093-.336.28-.709.429-1.391.644-2.044.644-.635 0-1.251-.187-1.848-.56-.019 0-.252-.159-.7-.476-.205-.075-.373-.327-.504-.756-.019-.187-.028-.308-.028-.364.037 0 .084-.187.14-.56.019-.056.103-.224.252-.504.093-.336.364-.467.812-.392.224.019.383.065.476.14.056.056.177.271.364.644.112.299.215.504.308.616.093.131.205.187.336.168.373-.037.681-.308.924-.812.037-.019.121-.112.252-.28.467-.56.728-1.223.784-1.988 0-.075.019-.411.056-1.008v-.812c-.037-.485-.028-1.139.028-1.96 0-.541-.028-.896-.084-1.064-.093.243-.448.952-1.064 2.128l-.252.364c-.317.467-.737.737-1.26.812-.149-.093-.411-.14-.784-.14h-.168c-.653-.075-1.129-.224-1.428-.448-.28-.112-.504-.308-.672-.588l-.364-.476c0-.093-.047-.196-.14-.308-.075-.131-.121-.205-.14-.224-.019-.037-.056-.103-.112-.196s-.112-.42-.168-.98c-.093-.915-.075-1.596.056-2.044 0-.373.028-.672.084-.896 0-.504.065-1.017.196-1.54 0-.243.075-.691.224-1.344.224-.504.364-.812.42-.924l.42-.644c.168-.205.299-.355.392-.448.112-.112.308-.215.588-.308l.28-.196.448-.112c.355-.112.84-.075 1.456.112.187 0 .373.065.56.196.392.131.644.224.756.28s.252.103.42.14c.112-.243.299-.411.56-.504.075-.037.28-.037.616 0 .112.056.261.075.448.056.429-.037.728.196.896.7.112.467.215 1.129.308 1.988z" fill="#fff"/><path d="m1013.6 219.756c-.13.131-.53.196-1.2.196-.47.093-1.02.019-1.65-.224l-.59-.196-.87-.42c-.07 0-.12 0-.14 0-.02.019-.07 0-.14-.056-.11-.093-.24-.168-.39-.224-.38-.261-.64-.495-.79-.7-.59-.952-.89-1.745-.89-2.38 0-.075.09-.215.28-.42.37-.448.84-.672 1.4-.672.22.019.4.093.53.224l.92 1.204c.15.149.32.299.51.448l.36.392.56.476c.08.037.15.056.23.056.07.037.28.084.61.14.38-.093.69-.196.95-.308.17-.168.32-.299.45-.392l.39-.448c.04-.037.11-.187.2-.448 0-.243 0-.401 0-.476.02-.093-.01-.327-.08-.7-.02-.056-.15-.205-.4-.448-.11-.224-.27-.467-.47-.728-.11-.112-.66-.411-1.63-.896l-.53-.308-.5-.448c-.24-.075-.59-.327-1.04-.756-.18-.131-.32-.233-.42-.308-.11-.037-.42-.355-.92-.952 0-.037-.16-.392-.48-1.064l-.25-1.092.11-.728c-.11-.485-.15-.849-.11-1.092.07-.112.17-.336.28-.672-.06-.28.2-.831.76-1.652 0-.112.41-.56 1.23-1.344l.95-.504.45-.196c.17-.019.39-.047.67-.084.3-.037.74-.037 1.32 0 .57.037.94.112 1.09.224.13.056.5.308 1.12.756.82.728 1.27 1.381 1.34 1.96.32.952.34 1.969.06 3.052 0 .075-.26.224-.79.448l-.7-.028c-.59-.075-1.16-.383-1.7-.924-.15-.093-.27-.355-.34-.784-.02-.448-.11-.719-.28-.812-.02-.019-.09-.187-.22-.504-.32-.411-.54-.616-.65-.616-.09 0-.2.028-.33.084-.68.541-1.03 1.148-1.07 1.82-.13.541.04 1.204.51 1.988.2.299.33.448.39.448.11.187.32.42.64.7l.39.42 1.18.868.48.476.53.336c.3.131.59.308.87.532.37.28.83.803 1.37 1.568.11.168.26.672.45 1.512v1.092l-.14.644c-.1.093-.2.28-.31.56 0 .019-.1.271-.31.756-.06.093-.28.289-.67.588-.56.448-1.19.784-1.88 1.008-.15.037-.38.047-.7.028zm11.19-9.016c-.13-.747-.49-1.092-1.09-1.036-.34.019-.63.243-.87.672-.33.653-.48 1.503-.45 2.548.06 1.027.13 1.773.23 2.24.11.448.3.84.56 1.176.15.261.37.383.67.364.52 0 .91-.439 1.15-1.316l.22-.672c.1-.093.11-.187.06-.28.18-.467.29-1.017.31-1.652-.19-.131-.3-.252-.34-.364-.11-.317-.17-.532-.17-.644-.13-.093-.2-.271-.22-.532s-.04-.429-.06-.504zm-5.12 2.632.11-1.428c.13-1.288.52-2.389 1.18-3.304.63-.765 1.53-1.157 2.68-1.176h.17c1.08 0 1.87.233 2.35.7.53.411.91.859 1.15 1.344.26.485.43.84.51 1.064.07.224.12.551.14.98.03.803-.13 1.26-.48 1.372.26 1.773.1 3.183-.48 4.228-.18.429-.45.896-.81 1.4-.26.336-.73.523-1.4.56-.67 0-1.26-.037-1.76-.112-.49-.075-1.03-.308-1.63-.7-.59-.411-1.01-1.073-1.26-1.988-.26-.877-.42-1.857-.47-2.94zm11.64-9.352.2-1.652.02-.868c0-.243.05-.429.14-.56l.28-.392c.51-.392.84-.616.98-.672.15-.056.37-.047.65.028.3.056.47.112.53.168l.31.252c.17.093.25.243.25.448.09.112.12.196.08.252-.11.131-.29 1.232-.56 3.304l-.22 3.808-.14.756c0 .243.01.383.03.42v.504c-.04.373-.08.607-.11.7 0 .093-.02.196-.06.308.04.037.06.187.06.448 0 .243-.03.392-.09.448-.03.299-.05.588-.05.868 0 .261.02.541.05.84.06.28.08.56.06.84l.11 1.064v.42c.04.336.06.607.06.812l.14 1.456.11.756c.05.317.03.625-.09.924-.09.299-.24.485-.44.56-.58.243-1.22.084-1.91-.476h-.22c-.13-.149-.23-.355-.31-.616-.15-.075-.21-.205-.2-.392.02-.187-.01-.355-.11-.504-.09-.149-.14-.28-.14-.392 0-.243-.02-.457-.05-.644l.02-.224c-.05-.056-.08-.14-.08-.252l-.06-.504v-.224c0-.149 0-.252-.02-.308 0-.056.02-.149.08-.28-.06-.075-.06-.345-.03-.812.11-1.437.17-2.427.17-2.968l.03-.672v-.812c.02-.448.03-1.017.03-1.708.02-.691.05-1.064.11-1.12l-.03-.252c0-.448.07-1.055.2-1.82.15-.784.22-1.204.22-1.26zm9.36 3.5c.28.243.43.579.45 1.008.03.429.03.728-.03.896-.04.168-.11.747-.22 1.736-.06.131-.09.308-.09.532l-.28 2.492c0 .989.01 1.568.03 1.736s.06.299.11.392c.02.075.1.131.25.168s.26 0 .31-.112c0-.168.06-.299.17-.392 0-.037.12-.299.36-.784 0-.075.03-.177.09-.308.07-.131.12-.243.14-.336.03-.112.06-.187.08-.224.08-.056.17-.261.28-.616 0-.205.11-.42.34-.644 0-.056.09-.28.28-.672l.05-.252c.34-.709.5-1.204.48-1.484l.14-1.372.28-1.12c.26-.597.63-.961 1.12-1.092.22-.093.52-.056.9.112.39.168.63.336.72.504.12.149.17.299.17.448v.504l-.03.308v1.512c0 1.12.02 1.969.06 2.548.11 1.68.44 3.117.98 4.312.26.597.15 1.055-.34 1.372-.28.187-.6.28-.98.28-.63 0-1.07-.243-1.31-.728-.13-.187-.25-.439-.37-.756-.11-.317-.18-.523-.22-.616-.11-.373-.19-.579-.22-.616l-.23-.532c-.3.952-.81 2.072-1.54 3.36-.15.243-.41.448-.78.616-.34-.075-.7-.177-1.09-.308-.25-.093-.65-.224-1.21-.392-.37-.037-.59-.093-.64-.168-.06-.093-.11-.149-.14-.168-.02-.037-.03-.065-.03-.084-.06-.093-.15-.14-.28-.14-.08-.168-.19-.308-.34-.42 0-.019-.02-.112-.08-.28-.21-.131-.37-.523-.5-1.176-.1-.093-.17-.691-.23-1.792-.04-1.12-.05-1.82-.03-2.1.04-.28.06-.513.06-.7-.04-.075-.03-.243.03-.504.05-.261.07-.439.05-.532l.12-1.176.22-1.008c0-.28.09-.569.28-.868s.32-.476.39-.532c.08-.149.34-.271.79-.364.09.019.21.037.36.056.15 0 .29.019.42.056.13.019.36.159.7.42zm14.42-5.348c-.04.467-.06.812-.06 1.036 0 .205-.01.392-.03.56v.728l-.02.196v.588c0 .168-.01.336-.03.504l.98-.196c.07 0 .34-.047.81-.14s.89-.131 1.26-.112c.39 0 .65.075.78.224.15.149.23.364.23.644.04.224-.03.439-.2.644l-.11.168c-.15.243-.36.401-.64.476l-.98.14-1.26.308-.76.28c.02.467.05.98.08 1.54.06.56.09.952.09 1.176l.08 1.036c.25 1.643.56 3.323.95 5.04.12.168.24.551.37 1.148l.22.588c.08.635-.31.952-1.17.952-.15 0-.53-.037-1.12-.112-.17-.019-.41-.187-.73-.504 0-.037-.1-.159-.31-.364l-.53-1.288c-.04-.056-.09-.233-.14-.532-.21-.205-.37-.672-.51-1.4 0-.037-.01-.131-.05-.28v-.392c-.13-.131-.23-.495-.28-1.092-.06-.597-.12-1.157-.2-1.68 0-.728-.05-1.428-.17-2.1l-.05-.616v-.252c.02-.187.02-.28 0-.28h-.34c-.28.037-.51.037-.7 0-.82 0-1.39-.233-1.71-.7-.22-.504-.23-.831-.02-.98.2-.149.71-.299 1.51-.448.35 0 .81-.121 1.37-.364 0-.467.03-.728.08-.784.06-.429.12-.7.17-.812.08-.131.12-.261.14-.392.02-.448.18-1.111.48-1.988.11-.429.21-.719.31-.868.24-.355.74-.467 1.51-.336.32.056.55.177.7.364.05-.019.05.205 0 .672zm8.93.98h.09c.65.037 1.07.233 1.26.588.2.336.28.663.22.98-.03.317-.29.709-.75 1.176-.45.467-.86.691-1.24.672-.11 0-.33-.056-.67-.168-.31-.112-.48-.177-.5-.196-.02-.075-.08-.131-.17-.168-.48-.187-.76-.663-.81-1.428 0-.075.05-.131.17-.168-.08 0-.09-.112-.03-.336.13-.411.42-.681.87-.812.58-.112 1.1-.159 1.56-.14zm-.05 7.084-.48 4.676v.336c0 .093.01.177.03.252-.02.075-.03.168-.03.28v2.016c.08.635.08 1.008 0 1.12-.11.037-.24.093-.39.168-.15.093-.44.112-.87.056-.41-.037-.71-.103-.89-.196l-.34-.084c-.19 0-.31-.084-.36-.252-.25-.149-.38-.345-.4-.588-.05-.093.01-.224.2-.392-.02-.093-.06-.224-.11-.392-.06-.187-.08-.355-.06-.504.06-.093.03-.233-.08-.42 0-.205.03-.439.08-.7.08-.075.1-.345.06-.812.13-.187.19-.448.19-.784-.07-.299-.04-.597.09-.896s.2-.597.22-.896c.04-.467.12-.924.25-1.372 0-.187.09-.485.26-.896.18-.411.3-.653.36-.728l.45-.448.5-.196h.03c.22-.075.45-.065.67.028.54.205.87.364.98.476-.07.075-.12.187-.14.336s-.03.28-.05.392c-.08.093-.13.233-.17.42zm7.99.504c-.13-.747-.49-1.092-1.09-1.036-.34.019-.63.243-.87.672-.34.653-.49 1.503-.45 2.548.06 1.027.13 1.773.23 2.24.11.448.29.84.56 1.176.15.261.37.383.67.364.52 0 .9-.439 1.15-1.316l.22-.672c.09-.093.11-.187.06-.28.18-.467.29-1.017.3-1.652-.18-.131-.29-.252-.33-.364-.11-.317-.17-.532-.17-.644-.13-.093-.21-.271-.22-.532-.02-.261-.04-.429-.06-.504zm-5.12 2.632.11-1.428c.13-1.288.52-2.389 1.17-3.304.64-.765 1.53-1.157 2.69-1.176h.17c1.08 0 1.87.233 2.35.7.52.411.91.859 1.15 1.344.26.485.43.84.5 1.064.08.224.13.551.14.98.04.803-.12 1.26-.47 1.372.26 1.773.1 3.183-.48 4.228-.18.429-.46.896-.81 1.4-.26.336-.73.523-1.4.56-.67 0-1.26-.037-1.76-.112-.49-.075-1.03-.308-1.63-.7-.6-.411-1.02-1.073-1.26-1.988-.26-.877-.42-1.857-.47-2.94zm13.74 2.324c.17-.392.34-.849.53-1.372l.62-1.568.25-.476c-3.79 4.48-3.75 4.433.11-.14l.73-1.512c.05-.056.1-.177.14-.364l.73-1.092.56-.504c.11-.056.23-.149.36-.28.04.037.19 0 .45-.112.17 0 .5.028 1.01.084l.56.196 1.26.756c.26.261.37.541.33.84-.02.224-.12.84-.31 1.848-.14.803-.36 1.727-.64 2.772-.15.84-.2 1.447-.14 1.82s.08.588.08.644c.04.112.09.271.14.476.08.205.1.317.06.336.13.019.2.112.2.28.15.392.19.653.14.784-.04.149-.16.308-.37.476-.18.168-.53.252-1.03.252-.3-.037-.54-.056-.73-.056-.17 0-.38-.065-.65-.196-.54-.392-.84-.793-.92-1.204-.09-.261-.15-.457-.17-.588s-.03-.224-.03-.28c-.09-.56-.08-1.139.03-1.736.02-.224.11-.681.25-1.372.15-.709.3-1.269.45-1.68 0-.411-.01-.625-.03-.644l-1.09 2.128c-.11.299-.21.523-.31.672-.09.093-.14.205-.14.336-.14.149-.28.448-.42.896 0 .131 0 .224-.02.28s-.1.196-.23.42c-.11.205-.19.401-.25.588-.04.187-.15.392-.34.616 0 .075-.12.457-.36 1.148-.02.075-.21.14-.59.196l-.53-.056c-.13-.037-.44-.131-.92-.28-.49-.149-.76-.224-.82-.224-.03 0-.07-.019-.11-.056-.31-.075-.51-.336-.59-.784v-.448c.1-.112.11-.327.03-.644.04-.187.07-.401.09-.644-.06-.037-.07-.103-.03-.196.04-.597.05-1.017.05-1.26v-.672c.04-.616.09-1.279.14-1.988.06-.709.09-1.167.09-1.372v-.56c-.04-.093-.05-.308-.03-.644-.04-.355-.08-.569-.14-.644-.06-.093-.07-.224-.06-.392l.2-.476c.3-.243.8-.289 1.51-.14.32.056.76.243 1.32.56.04.056.13.177.28.364.11 0 .18.159.19.476-.01.168-.02.308-.02.42-.02.019-.12.448-.31 1.288-.41 2.595-.62 4.004-.62 4.228s.02.383.06.476zm21.64-3.808-.06-.42c-.06-.075-.09-.168-.11-.28 0-.131-.03-.327-.09-.588 0-.336-.08-.635-.25-.896-.05-.149-.28-.196-.67-.14-.26.261-.57.999-.92 2.212 0 .019-.03.093-.09.224-.07.168-.15.448-.22.84-.08.373-.12.588-.14.644-.04.112-.06.215-.06.308-.04.075-.05.196-.05.364l-.12.532c-.07.112-.09.252-.05.42v.392c.02.056.01.215-.03.476v.392l.06.952c0 .224.18.588.56 1.092.14.037.24.028.28-.028.37-.373.57-.756.61-1.148l.09-.364c.09-.093.16-.373.22-.84l.14-.476c0-.168.04-.345.11-.532.08-.187.12-.327.14-.42 0-.149.12-.523.37-1.12-.02-.056-.03-.112-.03-.168v-.196c.2-.803.31-1.213.31-1.232zm3.55-9.044c0 .653-.04 1.055-.11 1.204l-.2 1.82v.952c-.02.317-.02.793-.02 1.428s0 1.167.02 1.596c.04.411.02.756-.05 1.036.03.037.05.103.05.196l.03.224-.03.644v1.176c.02.205.03.56.03 1.064.04.429.06.775.06 1.036s.03.523.08.784v.364l.11 1.148v.952c.04.131.06.261.06.392 0 .112.04.308.11.588.09.299.13.569.11.812-.52.616-1.18.765-1.98.448-.17-.019-.35-.112-.54-.28-.16-.168-.27-.336-.3-.504l-.03-.56c-.1-.019-.15-.177-.17-.476-.08-.112-.1-.205-.08-.28.05-.093 0-.252-.14-.476l-.31.532c-.1.149-.2.243-.31.28l-.11.336c-.26.28-.46.513-.59.7l-.34.336c-.44.093-1.06.056-1.84-.112-.19 0-.34-.019-.45-.056h-.2c-.04.037-.24-.047-.61-.252-.32-.131-.49-.252-.51-.364l.17.028c-.26-.112-.36-.289-.28-.532-.22-.093-.36-.299-.42-.616l-.25-.952c-.04-.243-.03-.504.03-.784-.04-.075 0-.327.14-.756l-.09-.252-.05-.504c-.06-.075-.05-.243.02-.504l-.16-.28c0-.747.02-1.204.08-1.372l.03-.364c-.1-.149-.07-.467.08-.952l.39-1.288c0-.037.03-.205.09-.504.09-.467.2-.765.33-.896l.51-.84c.09-.093.19-.233.31-.42.18-.336.57-.504 1.17-.504.62-.093 1.61-.019 2.97.224v-.98l-.08-1.176c0-.56-.02-1.073-.06-1.54-.02-.467-.01-.84.03-1.12.02-.019.11-.401.28-1.148s.45-1.307.84-1.68c.13-.075.36-.121.7-.14.35-.019.57 0 .64.056.08.056.18.103.31.14.52.149.78.625.78 1.428zm8.08 5.88c-.04-.093-.17-.131-.39-.112-.21.019-.37.131-.48.336-.76 1.213-1.17 2.511-1.23 3.892.64.149 1.18-.131 1.62-.84.58-1.829.74-2.921.48-3.276zm-2.18 11.116-.28-.056-.4-.392c-.11 0-.19-.047-.25-.14-.2-.243-.58-.728-1.12-1.456l-.42-1.54c0-.299-.05-.56-.17-.784-.18-.84-.29-1.316-.33-1.428-.04-.131-.07-.476-.09-1.036 0-.56.03-.971.09-1.232.05-.355.4-1.232 1.03-2.632.17-.168.28-.392.31-.672l.45-.644c.41-.485.85-.84 1.32-1.064 0-.037.31-.131.95-.28.13-.019.43.028.89.14 1.12.261 1.82.588 2.1.98l.09.14c.35.504.56 1.279.61 2.324-.05.467-.1.859-.14 1.176-.03.317-.24.896-.61 1.736-.28.523-.55.943-.81 1.26-.41.299-.69.448-.84.448-.08.037-.24.056-.48.056h-.64c-.06-.019-.18-.028-.37-.028-.18 0-.45-.047-.81-.14 0 .411.11.999.34 1.764.24.747.44 1.204.58 1.372.4.299.7.495.93.588.22.093.52.112.89.056.38-.075.65-.205.82-.392l.72-.896c.47-.635.95-.691 1.43-.168.23.243.31.485.25.728-.03.224-.22.681-.56 1.372-.28.448-.57.821-.89 1.12-.58.299-.93.448-1.04.448-.17.019-.43-.009-.78-.084-.19.093-.51.084-.95-.028 0-.037-.06-.065-.17-.084-.09 0-.23-.028-.39-.084l.05-.028c-.03 0-.15 0-.33 0l-.79-.42zm8.26-15.456c.05-.168.07-.327.05-.476s-.01-.523.03-1.12c.09-.168.1-.495.03-.98 0-.28.11-.569.33-.868.23-.317.47-.551.73-.7v.028c.08-.075.24-.131.51-.168.63-.093 1.09.103 1.37.588-.08.131-.11.551-.11 1.26v2.856c.01.467.02 1.101.02 1.904v1.064l.12 1.82c0 .485.02.971.08 1.456 0 .896.02 1.437.06 1.624.03.187.05.317.05.392v.448c0 .411.02.709.06.896 0 .187.04.383.14.588-.1.28-.1.597 0 .952.09.224.12.513.08.868.11.224.15.523.11.896l.09.168.05.252c.08.243.04.532-.11.868-.13.317-.41.532-.84.644-.41.131-.88-.065-1.4-.588-.02-.056-.12-.14-.31-.252-.22-.131-.41-.569-.56-1.316-.09-.187-.14-.383-.14-.588-.2-.168-.3-.42-.3-.756v-.616c-.02-.28-.06-.467-.12-.56-.05-.075-.1-.271-.14-.588l.06-1.876c0-.616-.02-1.092-.06-1.428v-1.904c-.05-.616-.08-1.083-.08-1.4 0-.336.07-.999.2-1.988 0-.075-.03-.177-.09-.308.06-.28.09-.644.09-1.092zm9.86-1.232h.08c.65.037 1.07.233 1.26.588.21.336.28.663.22.98-.03.317-.29.709-.75 1.176-.45.467-.86.691-1.23.672-.12 0-.34-.056-.68-.168-.31-.112-.48-.177-.5-.196-.02-.075-.07-.131-.17-.168-.48-.187-.75-.663-.81-1.428 0-.075.06-.131.17-.168-.08 0-.09-.112-.03-.336.13-.411.42-.681.87-.812.58-.112 1.1-.159 1.57-.14zm-.06 7.084-.48 4.676v.336c0 .093.01.177.03.252-.02.075-.03.168-.03.28v2.016c.08.635.08 1.008 0 1.12-.11.037-.24.093-.39.168-.15.093-.44.112-.87.056-.41-.037-.71-.103-.89-.196l-.34-.084c-.18 0-.31-.084-.36-.252-.24-.149-.38-.345-.39-.588-.06-.093.01-.224.19-.392-.02-.093-.05-.224-.11-.392-.06-.187-.07-.355-.06-.504.06-.093.03-.233-.08-.42 0-.205.03-.439.08-.7.08-.075.1-.345.06-.812.13-.187.2-.448.2-.784-.08-.299-.05-.597.08-.896s.21-.597.22-.896c.04-.467.13-.924.26-1.372 0-.187.08-.485.25-.896.18-.411.31-.653.36-.728l.45-.448.5-.196h.03c.23-.075.45-.065.67.028.55.205.87.364.98.476-.07.075-.12.187-.14.336-.01.149-.03.28-.05.392-.08.093-.13.233-.17.42zm3.26-.056c0-.28.03-.672.08-1.176 0-.448.04-.719.12-.812 0-.131.19-.224.58-.28.12 0 .33.037.65.112.07.056.18.093.33.112.4.131.66.401.79.812v.588c.05.336.08.952.08 1.848.04.28.05.504.03.672-.02.149-.03.243-.03.28.02.037.03.168.03.392.02.224.07.681.17 1.372 0 .933.04 1.475.11 1.624 0 .112.02.224.06.336v.364c.01.037.02.177.02.42s.05.448.14.616c.12.243.22.28.31.112l.45-1.344c.02-.037.09-.159.22-.364 0-.168.02-.289.06-.364-.06-.075.03-.271.25-.588.04-.205.15-.42.34-.644v-.168c.39-.877.61-1.363.67-1.456.15-.672.24-1.073.28-1.204.04-.149.06-.233.06-.252l.05-.168c0-.075.02-.224.06-.448.13-.205.19-.355.19-.448s.06-.308.17-.644c.08-.056.11-.187.11-.392.04-.355.41-.728 1.1-1.12h.08c.11-.019.22-.028.34-.028.13 0 .26.009.39.028.15.019.24.037.28.056.05 0 .14.019.25.056s.19.084.22.14c.06.037.12.103.17.196.11.168.15.401.11.7l-2.74 7.28c-.3.541-.47.971-.5 1.288l-.31.42c-.08.373-.54.989-1.4 1.848-.49.28-.99.317-1.51.112l-.48-.14-.53-.252c-.06 0-.31-.289-.76-.868-.11-.075-.21-.196-.31-.364-.09-.187-.17-.336-.25-.448-.07-.112-.13-.224-.17-.336l-.33-1.26-.09-.84-.11-.364c0-1.549.02-2.389.06-2.52 0-1.232.04-1.941.14-2.128zm16.72-.14c.08-.28.07-.635-.03-1.064-.13-.112-.31-.168-.53-.168-.28 0-.53.261-.76.784-.29.448-.52.943-.67 1.484h-.03c-.2.784-.3 1.204-.3 1.26.3.075.54.112.72.112.19-.019.41-.121.65-.308.43-.411.75-1.111.95-2.1zm-.08 4.032-1.04.084c-.58 0-1.04-.056-1.37-.168l.08.532c.06 1.549.49 2.567 1.29 3.052.22.093.41.14.56.14s.35-.075.59-.224c.07-.075.14-.177.19-.308.02-.168.12-.243.28-.224.77-.971 1.35-1.353 1.74-1.148.39.261.59.467.59.616 0 .075-.05.159-.14.252v.168c0 .187-.12.523-.37 1.008-.22.485-.46.896-.72 1.232-.13.28-.3.476-.51.588-.59.373-1.23.523-1.9.448-.15-.019-.25-.056-.31-.112-.15-.037-.26-.047-.34-.028l-.22-.028c-.17 0-.31-.037-.42-.112-.19-.112-.32-.168-.39-.168-.49-.187-.79-.327-.9-.42-.09-.093-.17-.159-.25-.196-.07-.037-.25-.233-.53-.588-.24-.205-.38-.336-.42-.392-.11-.168-.22-.289-.31-.364-.07-.075-.12-.243-.14-.504-.07-.093-.11-.215-.11-.364l-.11-.224c0-.131-.06-.233-.17-.308-.11-.112-.17-.252-.17-.42v-.224c-.07-.037-.09-.149-.06-.336v-.728l-.02-.252v-.196c-.02-.075 0-.233.05-.476l-.03-.252c.02-.019.05-.168.09-.448.07-.392.16-.635.25-.728v-.252c.02-.056.03-.131.03-.224s.02-.196.05-.308c.06-.112.21-.532.45-1.26l.45-.98c.13-.28.34-.588.62-.924.02-.093.09-.261.22-.504l.36-.336c.12-.168.28-.289.51-.364.26-.131.46-.196.59-.196l.78-.112c.09.019.16.028.2.028h.36c.41.037.75.121 1.01.252.56.168.97.383 1.23.644.58.653.87 1.279.87 1.876s-.09 1.111-.28 1.54c-.47 1.064-.8 1.736-1.01 2.016-.34.616-.74.924-1.2.924zm5.26-3.332c0-.168-.02-.364-.06-.588v-.196c.02-.131.01-.271-.03-.42 0-.187.02-.355.06-.504 0-.373.05-.616.14-.728 0-.093.13-.308.39-.644.08-.075.22-.196.42-.364.3-.093.51-.149.62-.168.07-.075.32-.047.75.084.19.019.48.084.87.196.13.037.3.187.51.448-.04.075-.11.355-.2.84-.08.467-.1.849-.08 1.148.11-.093.3-.289.58-.588s.43-.457.45-.476c.49-.224.96-.383 1.43-.476.67-.056 1.11-.009 1.32.14.16.056.29.14.39.252.17.149.31.411.42.784.11.355.1.579-.03.672-.11.093-.49.168-1.12.224-.04 0-.17.075-.39.224l-1.46 1.148c-.3.149-.5.28-.61.392l-.54.98c-.02.037-.03.28-.05.728s-.02.775 0 .98c.02.187.02.812 0 1.876v1.204c0 .653-.01 1.027-.03 1.12-.02.112-.09.299-.22.56-.06.093-.24.14-.54.14-.72.541-1.19.513-1.4-.084l-.36-.224c-.15-.075-.24-.168-.28-.28-.15-.205-.22-.327-.22-.364l-.12-.392-.16-.336c-.06-.019-.11-.373-.14-1.064-.04-.709-.06-1.139-.06-1.288 0-.168-.02-.345-.06-.532.13-.131.19-.355.17-.672 0-.317-.02-.56-.05-.728-.04-.187-.04-.299 0-.336.03-.056.02-.317-.03-.784-.06-.075-.07-.215-.03-.42zm9.26.924c-.04-.355-.05-.588-.03-.7v-.728l.14-1.176c0-.037.15-.56.45-1.568.11-.224.25-.457.42-.7.11-.205.36-.345.73-.42.09-.093.55-.037 1.37.168.11.112.19.728.23 1.848l-.03 1.204v1.568l-.14 1.148-.09 1.988c.06.093.07.233.03.42-.02.187 0 .523.06 1.008.13.896.29 1.419.47 1.568.04.037.2.019.48-.056 0 0 .2-.383.59-1.148l.31-.952v-.028l.11-.252c.05-.355.16-.653.31-.896-.04-.205.11-.765.44-1.68l-.02-.252.08-.448-.08-.98c-.12-.597-.17-1.036-.17-1.316l-.11-1.036c0-.299.05-.775.16-1.428.08-.112.17-.187.28-.224.12-.056.41-.149.9-.28.11.019.25.047.42.084.19.019.37.084.56.196.22.037.36.103.42.196.06.131.11.635.17 1.512.05.504.08.952.08 1.344.06.635.09 1.213.09 1.736l.02.532v.392c-.03.355-.04.737-.02 1.148.03.392.05.607.05.644.06.933.09 1.568.09 1.904.03 1.419.04 2.221.02 2.408 0 .168.02.289.06.364l-.06.868c0 .691-.04 1.316-.14 1.876 0 .224-.02.429-.05.616-.08.411-.14.821-.2 1.232l-.31.504c-.13.112-.19.177-.19.196 0 .037-.01.065-.03.084-.06.112-.36.355-.92.728-.15.056-.3.131-.45.224-.13.112-.38.205-.73.28-.62.075-1.26-.009-1.93-.252l-.67-.224c-1.05-.523-1.61-.84-1.68-.952-.06-.093-.09-.177-.09-.252-.28-.709-.25-1.232.09-1.568.33-.336.85-.28 1.56.168.02.037.33.233.93.588.43.168.73.271.92.308l.39-.084.23-.28.19-.336c0-.037.06-.14.17-.308 0-.112.07-.401.2-.868-.02-.093-.01-.28.03-.56.03-.28.05-.476.05-.588v-.728c.04-.093.04-.383 0-.868.02 0 .03-.084.03-.252 0-.205-.02-.439-.06-.7-.09.261-.23.579-.42.952l-.47.448c-.08.149-.17.243-.28.28s-.39.037-.81 0c0 .019-.09.056-.26.112-.41.019-.72 0-.92-.056-.21 0-.36-.019-.48-.056-.26 0-.5-.103-.72-.308-.56-.112-1-.7-1.32-1.764-.15-1.176-.22-1.876-.22-2.1.01-.243-.01-.616-.09-1.12v-.616c-.04-.056-.07-.317-.11-.784-.04-.485-.05-.803-.03-.952z" fill="#fff"/></svg>