<svg fill="none" height="302" viewBox="0 0 600 302" width="600" xmlns="http://www.w3.org/2000/svg" xmlns:xlink="http://www.w3.org/1999/xlink"><linearGradient id="a"><stop offset="0" stop-color="#ec4899"/><stop offset="1" stop-color="#be185d"/></linearGradient><linearGradient id="b" gradientUnits="userSpaceOnUse" x1="40" x2="164" xlink:href="#a" y1="0" y2="300"/><linearGradient id="c" gradientUnits="userSpaceOnUse" x1="172" x2="278.681" xlink:href="#a" y1="25" y2="306.562"/><linearGradient id="d" gradientUnits="userSpaceOnUse" x1="304" x2="394.13" xlink:href="#a" y1="50" y2="311.666"/><linearGradient id="e" gradientUnits="userSpaceOnUse" x1="436" x2="519.76" xlink:href="#a" y1="60" y2="313.306"/><path d="m40 2c0-1.104571.8954-2 2-2h120c1.105 0 2 .895431 2 2v298h-124z" fill="url(#b)"/><path d="m56.4453 287.664c-.3646.188-.7474.328-1.1484.422-.4011.094-.8229.141-1.2657.141-1.5729 0-2.7734-.519-3.6015-1.555-.8281-1.037-1.2422-2.534-1.2422-4.492 0-1.964.4141-3.464 1.2422-4.5.8281-1.037 2.0286-1.555 3.6015-1.555.4428 0 .8672.047 1.2735.141.4062.093.7864.234 1.1406.422v2.562c-.3958-.365-.7812-.63-1.1562-.797-.3698-.172-.7526-.258-1.1485-.258-.8437 0-1.4817.336-1.914 1.008-.4271.667-.6407 1.659-.6407 2.977 0 1.312.2136 2.304.6407 2.976.4323.667 1.0703 1 1.914 1 .3959 0 .7787-.083 1.1485-.25.375-.172.7604-.44 1.1562-.804zm9.5625-5.344v5.68h-2.2734v-5.328c0-.63-.0912-1.081-.2735-1.352-.177-.271-.4687-.406-.875-.406-.4166 0-.7421.185-.9765.555-.2344.364-.3516.872-.3516 1.523v5.008h-2.2734v-12.156h2.2734v4.718c.1615-.484.4375-.859.8281-1.124.3907-.266.862-.399 1.4141-.399.8281 0 1.4531.276 1.875.828.4219.547.6328 1.365.6328 2.453zm3-3.07h4.5313v6.992h2.8437v1.758h-7.9844v-1.758h2.8516v-5.234h-2.2422zm2.2422-4.258h2.2891v2.672h-2.2891zm14.0391 7.328v5.68h-2.2735v-5.328c0-.636-.0911-1.089-.2734-1.36-.1771-.276-.4688-.414-.875-.414-.4115 0-.737.185-.9766.555-.2344.37-.3515.883-.3515 1.539v5.008h-2.2735v-8.75h2.2735v1.312c.1614-.484.4375-.859.8281-1.124.3906-.266.862-.399 1.414-.399.8282 0 1.4532.276 1.875.828.4219.547.6329 1.365.6329 2.453zm6.7421 1.571c-.8541 0-1.4505.109-1.789.328-.3386.219-.5078.593-.5078 1.125 0 .396.1172.711.3515.945.2344.234.5521.352.9532.352.6041 0 1.0729-.227 1.4062-.68.3333-.458.5-1.096.5-1.914v-.156zm3.1876-.883v4.992h-2.2735v-.977c-.276.386-.6302.683-1.0625.891s-.9088.313-1.4297.313c-.9948 0-1.7708-.263-2.3281-.789-.5521-.527-.8281-1.261-.8281-2.204 0-1.02.3307-1.773.9922-2.257.6614-.49 1.6849-.735 3.0703-.735h1.5859v-.383c0-.369-.1354-.648-.4062-.836-.2657-.192-.6589-.289-1.1797-.289-.5469 0-1.0782.071-1.5938.211-.5104.136-1.0442.354-1.6015.657v-1.954c.5052-.208 1.0182-.362 1.539-.46.5209-.099 1.0729-.149 1.6563-.149 1.4218 0 2.4192.289 2.9922.867.5781.578.8672 1.612.8672 3.102z" fill="#fff"/><path d="m172 27c0-1.1046.895-2 2-2h120c1.105 0 2 .8954 2 2v273h-124z" fill="url(#c)"/><path d="m181.344 278.367v-2.031h6.945v2.031h-2.32v7.602h2.32v2.031h-6.945v-2.031h2.32v-7.602zm16.664 3.953v5.68h-2.274v-5.328c0-.636-.091-1.089-.273-1.36-.177-.276-.469-.414-.875-.414-.412 0-.737.185-.977.555-.234.37-.351.883-.351 1.539v5.008h-2.274v-8.75h2.274v1.312c.161-.484.437-.859.828-1.124.391-.266.862-.399 1.414-.399.828 0 1.453.276 1.875.828.422.547.633 1.365.633 2.453zm7.453-1.828v-4.648h2.281v12.156h-2.281v-1.297c-.245.505-.563.886-.953 1.141-.386.255-.841.383-1.367.383-1 0-1.776-.401-2.329-1.204-.552-.802-.828-1.932-.828-3.39 0-1.479.279-2.615.836-3.406.563-.792 1.362-1.188 2.399-1.188.469 0 .888.122 1.258.367.375.24.703.602.984 1.086zm-3.188 3.156c0 .844.141 1.506.422 1.985.282.479.67.719 1.164.719.495 0 .886-.24 1.172-.719.287-.479.43-1.141.43-1.985 0-.843-.143-1.505-.43-1.984-.286-.479-.677-.719-1.172-.719-.494 0-.882.24-1.164.719-.281.479-.422 1.141-.422 1.984zm8.375-4.398h4.532v6.992h2.843v1.758h-7.984v-1.758h2.852v-5.234h-2.243zm2.243-4.258h2.289v2.672h-2.289zm11.14 8.899c-.854 0-1.45.109-1.789.328-.338.219-.508.593-.508 1.125 0 .396.118.711.352.945s.552.352.953.352c.604 0 1.073-.227 1.406-.68.334-.458.5-1.096.5-1.914v-.156zm3.188-.883v4.992h-2.274v-.977c-.276.386-.63.683-1.062.891s-.909.313-1.43.313c-.995 0-1.771-.263-2.328-.789-.552-.527-.828-1.261-.828-2.204 0-1.02.331-1.773.992-2.257.662-.49 1.685-.735 3.07-.735h1.586v-.383c0-.369-.135-.648-.406-.836-.266-.192-.659-.289-1.18-.289-.547 0-1.078.071-1.593.211-.511.136-1.045.354-1.602.657v-1.954c.505-.208 1.018-.362 1.539-.46.521-.099 1.073-.149 1.656-.149 1.422 0 2.42.289 2.993.867.578.578.867 1.612.867 3.102z" fill="#fff"/><path d="m304 52c0-1.1046.895-2 2-2h120c1.105 0 2 .8954 2 2v248h-124z" fill="url(#d)"/><path d="m312.828 264.695v-7.359h2.305v7.937c0 .584.148 1.042.445 1.375.297.329.708.493 1.234.493.527 0 .938-.164 1.235-.493.297-.333.445-.791.445-1.375v-7.937h2.305v7.359c0 1.584-.315 2.735-.945 3.453-.631.719-1.644 1.079-3.04 1.079-1.39 0-2.403-.36-3.039-1.079-.63-.718-.945-1.869-.945-3.453zm17.18-1.375v5.68h-2.274v-5.328c0-.636-.091-1.089-.273-1.36-.177-.276-.469-.414-.875-.414-.412 0-.737.185-.977.555-.234.37-.351.883-.351 1.539v5.008h-2.274v-8.75h2.274v1.312c.161-.484.437-.859.828-1.124.391-.266.862-.399 1.414-.399.828 0 1.453.276 1.875.828.422.547.633 1.365.633 2.453zm3-3.07h4.531v6.992h2.844v1.758h-7.985v-1.758h2.852v-5.234h-2.242zm2.242-4.258h2.289v2.672h-2.289zm11.062 1.774v2.484h2.993v1.758h-2.993v4.14c0 .391.094.672.282.844.192.167.51.25.953.25h1.758v1.758h-1.922c-1.313 0-2.201-.208-2.664-.625-.464-.422-.696-1.201-.696-2.336v-4.031h-2.234v-1.758h2.234v-2.484zm12.86 10.804c-.531.219-1.073.383-1.625.492-.552.11-1.136.165-1.75.165-1.464 0-2.583-.391-3.359-1.172-.771-.787-1.157-1.917-1.157-3.391 0-1.427.373-2.555 1.117-3.383.745-.828 1.761-1.242 3.047-1.242 1.297 0 2.302.385 3.016 1.156.719.766 1.078 1.847 1.078 3.243v.929h-5.93c.006.688.209 1.201.61 1.539.401.339 1 .508 1.797.508.526 0 1.044-.075 1.554-.226.511-.152 1.045-.391 1.602-.719zm-1.938-4.922c-.01-.604-.166-1.059-.468-1.367-.297-.312-.737-.469-1.321-.469-.526 0-.945.162-1.257.485-.313.318-.498.771-.555 1.359zm9.149-2.156v-4.648h2.281v12.156h-2.281v-1.297c-.245.505-.563.886-.953 1.141-.386.255-.841.383-1.368.383-1 0-1.776-.401-2.328-1.204-.552-.802-.828-1.932-.828-3.39 0-1.479.279-2.615.836-3.406.563-.792 1.362-1.188 2.399-1.188.468 0 .888.122 1.257.367.375.24.704.602.985 1.086zm-3.188 3.156c0 .844.141 1.506.422 1.985s.669.719 1.164.719.886-.24 1.172-.719c.287-.479.43-1.141.43-1.985 0-.843-.143-1.505-.43-1.984-.286-.479-.677-.719-1.172-.719s-.883.24-1.164.719-.422 1.141-.422 1.984zm-47.211 18.235c-1.161-.443-1.948-.906-2.359-1.391-.411-.489-.617-1.146-.617-1.969 0-1.057.338-1.888 1.015-2.492.678-.604 1.607-.906 2.789-.906.537 0 1.073.063 1.61.187.536.12 1.068.3 1.594.54v2.25c-.495-.349-.998-.615-1.508-.797-.511-.183-1.016-.274-1.516-.274-.557 0-.984.112-1.281.336s-.445.544-.445.961c0 .323.106.591.32.805.219.208.672.44 1.359.695l.993.375c.937.344 1.627.8 2.07 1.367.443.568.664 1.284.664 2.149 0 1.177-.349 2.057-1.047 2.64-.693.579-1.742.868-3.148.868-.579 0-1.159-.071-1.743-.211-.578-.136-1.138-.339-1.679-.61v-2.383c.614.438 1.208.763 1.781.977.578.214 1.148.32 1.711.32.568 0 1.008-.127 1.32-.382.313-.261.469-.623.469-1.086 0-.349-.104-.654-.313-.914-.208-.266-.51-.474-.906-.626zm11.047-6.117v2.484h2.992v1.758h-2.992v4.14c0 .391.094.672.281.844.193.167.511.25.954.25h1.757v1.758h-1.921c-1.313 0-2.201-.208-2.664-.625-.464-.422-.696-1.201-.696-2.336v-4.031h-2.234v-1.758h2.234v-2.484zm9.719 7.125c-.854 0-1.451.109-1.789.328-.339.219-.508.593-.508 1.125 0 .396.117.711.352.945.234.234.552.352.953.352.604 0 1.073-.227 1.406-.68.333-.458.5-1.096.5-1.914v-.156zm3.188-.883v4.992h-2.274v-.977c-.276.386-.63.683-1.062.891-.433.208-.909.313-1.43.313-.995 0-1.771-.263-2.328-.789-.552-.527-.828-1.261-.828-2.204 0-1.02.33-1.773.992-2.257.661-.49 1.685-.735 3.07-.735h1.586v-.383c0-.369-.135-.648-.406-.836-.266-.192-.659-.289-1.18-.289-.547 0-1.078.071-1.594.211-.51.136-1.044.354-1.601.657v-1.954c.505-.208 1.018-.362 1.539-.46.521-.099 1.073-.149 1.656-.149 1.422 0 2.419.289 2.992.867.578.578.868 1.612.868 3.102zm6.374-6.242v2.484h2.993v1.758h-2.993v4.14c0 .391.094.672.282.844.192.167.51.25.953.25h1.758v1.758h-1.922c-1.313 0-2.201-.208-2.664-.625-.464-.422-.696-1.201-.696-2.336v-4.031h-2.234v-1.758h2.234v-2.484zm12.86 10.804c-.531.219-1.073.383-1.625.492-.552.11-1.136.165-1.75.165-1.464 0-2.583-.391-3.359-1.172-.771-.787-1.157-1.917-1.157-3.391 0-1.427.373-2.555 1.117-3.383.745-.828 1.761-1.242 3.047-1.242 1.297 0 2.302.385 3.016 1.156.719.766 1.078 1.847 1.078 3.243v.929h-5.93c.006.688.209 1.201.61 1.539.401.339 1 .508 1.797.508.526 0 1.044-.075 1.554-.226.511-.152 1.045-.391 1.602-.719zm-1.938-4.922c-.01-.604-.166-1.059-.468-1.367-.297-.312-.737-.469-1.321-.469-.526 0-.945.162-1.257.485-.313.318-.498.771-.555 1.359zm10.711-3.125v2c-.422-.27-.862-.474-1.32-.609-.453-.141-.909-.211-1.367-.211-.511 0-.896.076-1.156.227-.261.146-.391.364-.391.656 0 .417.557.755 1.672 1.016l.086.023.656.156c.833.198 1.443.518 1.828.961.391.438.586 1.031.586 1.781 0 .901-.297 1.579-.891 2.032-.588.448-1.476.672-2.664.672-.526 0-1.065-.047-1.617-.141-.552-.089-1.112-.224-1.679-.406v-2c.505.286 1.018.505 1.539.656.526.151 1.033.226 1.523.226.536 0 .943-.078 1.219-.234s.414-.383.414-.68c0-.291-.099-.515-.297-.671-.193-.157-.656-.323-1.391-.5l-.633-.141c-.874-.198-1.513-.508-1.914-.93s-.601-.987-.601-1.695c0-.844.305-1.5.914-1.969s1.466-.703 2.57-.703c.495 0 .987.042 1.477.125.495.078.974.198 1.437.359z" fill="#fff"/><path d="m436 62c0-1.1046.895-2 2-2h120c1.105 0 2 .8954 2 2v238h-124z" fill="url(#e)"/><path d="m449.969 269h-2.305v-9.648h-2.961v-2.016h8.227v2.016h-2.961zm12.281-.43c-.531.219-1.073.383-1.625.492-.552.11-1.135.165-1.75.165-1.464 0-2.583-.391-3.359-1.172-.771-.787-1.157-1.917-1.157-3.391 0-1.427.373-2.555 1.118-3.383.744-.828 1.76-1.242 3.046-1.242 1.297 0 2.303.385 3.016 1.156.719.766 1.078 1.847 1.078 3.243v.929h-5.929c.005.688.208 1.201.609 1.539.401.339 1 .508 1.797.508.526 0 1.044-.075 1.554-.226.511-.152 1.045-.391 1.602-.719zm-1.938-4.922c-.01-.604-.166-1.059-.468-1.367-.297-.312-.737-.469-1.321-.469-.526 0-.945.162-1.257.485-.313.318-.498.771-.555 1.359zm11.258 4.907c-.385.224-.799.39-1.242.5-.443.114-.919.172-1.43.172-1.349 0-2.403-.407-3.164-1.219-.76-.813-1.14-1.938-1.14-3.375 0-1.443.383-2.571 1.148-3.383.766-.818 1.823-1.227 3.172-1.227.469 0 .919.055 1.352.165.437.109.872.278 1.304.507v2.094c-.333-.286-.7-.505-1.101-.656-.396-.156-.808-.235-1.235-.235-.744 0-1.317.237-1.718.711s-.602 1.149-.602 2.024.201 1.547.602 2.015c.401.469.974.704 1.718.704.443 0 .857-.073 1.243-.219.385-.151.75-.378 1.093-.68zm9.719-5.235v5.68h-2.273v-5.328c0-.63-.092-1.081-.274-1.352-.177-.271-.469-.406-.875-.406-.416 0-.742.185-.976.555-.235.364-.352.872-.352 1.523v5.008h-2.273v-12.156h2.273v4.718c.162-.484.438-.859.828-1.124.391-.266.862-.399 1.414-.399.828 0 1.453.276 1.875.828.422.547.633 1.365.633 2.453zm-35.562 15.93h4.531v6.992h2.844v1.758h-7.985v-1.758h2.852v-5.234h-2.242zm2.242-4.258h2.289v2.672h-2.289zm14.039 7.328v5.68h-2.274v-5.328c0-.636-.091-1.089-.273-1.36-.177-.276-.469-.414-.875-.414-.412 0-.737.185-.977.555-.234.37-.351.883-.351 1.539v5.008h-2.274v-8.75h2.274v1.312c.161-.484.437-.859.828-1.124.391-.266.862-.399 1.414-.399.828 0 1.453.276 1.875.828.422.547.633 1.365.633 2.453zm7.453-1.828v-4.648h2.281v12.156h-2.281v-1.297c-.245.505-.563.886-.953 1.141-.386.255-.841.383-1.367.383-1 0-1.776-.401-2.329-1.204-.552-.802-.828-1.932-.828-3.39 0-1.479.279-2.615.836-3.406.563-.792 1.362-1.188 2.399-1.188.469 0 .888.122 1.258.367.375.24.703.602.984 1.086zm-3.188 3.156c0 .844.141 1.506.422 1.985.282.479.67.719 1.164.719.495 0 .886-.24 1.172-.719.287-.479.43-1.141.43-1.985 0-.843-.143-1.505-.43-1.984-.286-.479-.677-.719-1.172-.719-.494 0-.882.24-1.164.719-.281.479-.422 1.141-.422 1.984zm7.899 1.297v-5.695h2.289v5.344c0 .63.088 1.08.266 1.351.177.271.471.407.882.407.412 0 .732-.183.961-.547.235-.365.352-.875.352-1.532v-5.023h2.289v8.75h-2.289v-1.297c-.162.485-.438.859-.828 1.125-.386.266-.852.399-1.399.399-.833 0-1.463-.276-1.89-.829-.422-.552-.633-1.369-.633-2.453zm16.133-5.422v2c-.422-.27-.862-.474-1.321-.609-.453-.141-.908-.211-1.367-.211-.51 0-.896.076-1.156.227-.26.146-.391.364-.391.656 0 .417.558.755 1.672 1.016l.086.023.656.156c.834.198 1.443.518 1.828.961.391.438.586 1.031.586 1.781 0 .901-.296 1.579-.89 2.032-.589.448-1.477.672-2.664.672-.526 0-1.065-.047-1.617-.141-.553-.089-1.112-.224-1.68-.406v-2c.505.286 1.018.505 1.539.656.526.151 1.034.226 1.523.226.537 0 .943-.078 1.219-.234s.414-.383.414-.68c0-.291-.099-.515-.297-.671-.192-.157-.656-.323-1.39-.5l-.633-.141c-.875-.198-1.513-.508-1.914-.93s-.602-.987-.602-1.695c0-.844.305-1.5.914-1.969.61-.469 1.466-.703 2.571-.703.494 0 .987.042 1.476.125.495.078.974.198 1.438.359zm7.289-2.757v2.484h2.992v1.758h-2.992v4.14c0 .391.094.672.281.844.193.167.51.25.953.25h1.758v1.758h-1.922c-1.312 0-2.2-.208-2.664-.625-.464-.422-.695-1.201-.695-2.336v-4.031h-2.235v-1.758h2.235v-2.484zm13.242 4.898c-.25-.229-.544-.401-.883-.516-.333-.114-.7-.171-1.101-.171-.485 0-.909.085-1.274.257-.359.167-.638.412-.836.735-.125.198-.213.437-.265.719-.047.281-.071.708-.071 1.281v4.031h-2.289v-8.75h2.289v1.359c.224-.5.568-.885 1.032-1.156.463-.276 1.005-.414 1.624-.414.313 0 .618.039.915.117.302.073.588.183.859.328zm6.203 7.281c-.307.823-.677 1.422-1.109 1.797-.427.38-.948.57-1.563.57h-1.89v-1.742h.929c.469 0 .813-.08 1.032-.242.218-.156.44-.523.664-1.101l.171-.469-3.328-8.508h2.407l2 5.68 1.914-5.68h2.406z" fill="#fff"/><path d="m0 300h600v2h-600z" fill="#94a3b8" opacity=".5"/></svg>