<?xml version="1.0" encoding="UTF-8"?>
<svg width="54px" height="44px" viewBox="0 0 54 44" version="1.1" xmlns="http://www.w3.org/2000/svg" xmlns:xlink="http://www.w3.org/1999/xlink">
    <!-- Generator: Sketch 51.2 (57519) - http://www.bohemiancoding.com/sketch -->
    <title>arrow-right</title>
    <desc>Created with Sketch.</desc>
    <defs></defs>
    <g id="arrow-right" stroke="none" stroke-width="1" fill="none" fill-rule="evenodd">
        <path d="M51.5282837,22.5682777 C51.4747093,22.447132 51.4549205,22.2642066 51.3617686,22.2120802 C50.0851526,21.4943758 48.8196375,20.7525388 47.5106838,20.0985446 C43.509494,18.0998803 39.4923767,16.1330711 35.4767074,14.1628833 C34.4390043,13.6536849 33.3752381,13.1956476 32.340431,12.679692 C32.0797986,12.5498584 31.8321978,12.3196332 31.6801623,12.0725151 C31.5802532,11.9103438 31.5928022,11.6019288 31.6820929,11.4214167 C31.7684877,11.2462139 32.0001609,11.093213 32.1985311,11.03626 C32.4055891,10.9764111 32.6652562,10.9942692 32.8737621,11.0632885 C33.458737,11.2563496 34.0384027,11.4716126 34.6031062,11.7172828 C40.4045901,14.241073 46.0984424,16.9912274 51.7194142,19.8924519 C52.6765142,20.3866881 53.595002,20.9595967 54.5096286,21.5320227 C54.9782843,21.8254754 55.1110137,22.4437534 54.907817,22.9766018 C54.6153295,23.7449847 54.0955127,24.3343035 53.3034799,24.5128849 C51.9872863,24.8101989 50.8950436,25.5216288 49.7709457,26.1944465 C47.6530663,27.4618921 45.5028491,28.6772113 43.4129635,29.9895436 C41.3887186,31.2608505 39.4281839,32.6315837 37.4314503,33.946812 C36.9840313,34.2421954 36.5144104,34.5076543 36.0365843,34.7518765 C35.7344438,34.9063253 35.2339331,34.6519674 35.0703139,34.3174892 C34.9124865,33.9945946 35.0297711,33.7098296 35.2141444,33.4598155 C35.3488044,33.2768902 35.5302818,33.1190628 35.7141724,32.9824722 C38.1293659,31.1894179 40.4794012,29.3094861 43.0842771,27.7799601 C45.8764222,26.140872 48.6289898,24.4342126 51.3965196,22.7531337 C51.4558859,22.7174174 51.4843624,22.6315052 51.5282837,22.5682777 Z M19.403122,23.6799231 C17.0912162,23.7914159 14.7788278,23.9014607 12.4674047,24.0153667 C8.22923248,24.2238726 3.9799593,24.1736767 -0.250973095,24.5926191 C-1.3987209,24.7065251 -2.56384419,24.6572946 -3.72076239,24.6543987 C-4.02000698,24.653916 -4.34386685,24.5964804 -4.60884311,24.4671295 C-4.78115008,24.3831479 -4.91291423,24.1374778 -4.98193354,23.9366943 C-5.06977631,23.6818537 -4.82024493,23.227195 -4.60112067,23.1750686 C-4.30428934,23.1041186 -4.00263149,23.0249636 -3.70000833,23.0080708 C-0.313235276,22.817423 3.07450308,22.6277405 6.46272409,22.4588121 C9.39145986,22.3125684 12.3240568,22.2358267 15.2498967,22.0509707 C17.8678042,21.8849382 20.4828158,21.7280762 23.1089284,21.7275935 C25.5004719,21.7271109 27.8920154,21.6518171 30.2835588,21.6006559 C31.9805652,21.5639743 33.6775717,21.4544122 35.3731301,21.4804754 C37.84045,21.5186049 40.3068046,21.6450599 42.7726766,21.7497955 C42.9922835,21.7594486 43.2133384,21.8752852 43.4232923,21.9669892 C43.6906818,22.0833084 43.911254,22.6330497 43.8171368,22.977181 C43.7336379,23.2827001 43.5705013,23.5631212 43.2268527,23.616213 C42.849901,23.6741313 42.4604004,23.7257751 42.0824834,23.6997119 C37.9958642,23.4168775 33.9068316,23.571809 29.8177991,23.5887018 C26.3465618,23.6031814 22.8743593,23.5915977 19.4026394,23.5915977 C19.403122,23.6210395 19.403122,23.6504813 19.403122,23.6799231 Z" id="Fill-105" fill="#CED4DA" transform="translate(25.000000, 22.899077) scale(-1, 1) rotate(144.000000) translate(-25.000000, -22.899077) "></path>
    </g>
</svg>