<svg height="60" viewBox="0 0 30 60" width="30" xmlns="http://www.w3.org/2000/svg"><path d="m40.3626796 29.3841365c-1.2766161-.7237917-2.5421311-1.4719206-3.8510849-2.1314617-4.0011897-2.015616-8.018307-3.9991068-12.0339764-5.9860048-1.037703-.5135173-2.1014693-.9754394-3.1362764-1.4957711-.2606323-.1309348-.5082331-.3631127-.6602687-.6123268-.099909-.1635467-.0873601-.4745775.0019306-.6566206.0863949-.1766889.3180681-.3309874.5164383-.3884235.2070579-.0603565.466725-.0423469.6752309.0272578.5849749.1946985 1.1646407.4117873 1.7293442.6595411 5.8014838 2.545196 11.4953361 5.3186758 17.1163079 8.2445073.9571.4984281 1.8755879 1.0761959 2.7902145 1.6534769.4686556.2959416.6013851.9194635.3981884 1.4568314-.2924875.7748999-.8123043 1.369217-1.6043372 1.5493131-1.3161935.2998357-2.4084363 1.0172996-3.5325341 1.6958238-2.1178795 1.2781956-4.2680966 2.5038225-6.3579823 3.8272854-2.0242448 1.2820895-3.9847795 2.6644488-5.9815132 3.9908322-.4474189.2978887-.9170399.5655991-1.3948659.8118927-.3021405.1557588-.8026512-.1007565-.9662704-.4380716-.1578274-.3256332-.0405429-.6128135.1438304-.864948.1346601-.1844768.3161374-.3436429.5000281-.481392 2.4151934-1.8082622 4.7652288-3.7041387 7.3701047-5.2466374 2.792145-1.6529901 5.5447126-3.3741247 8.3122424-5.0694617.0593663-.0360193.0878428-.1226601.1317642-.1864238-.0535744-.1221733-.0733632-.3066502-.1665151-.3592187zm-37.87056535 1.7649261c-4.23817218.2102744-8.48744537.1596528-12.71837775.5821485-1.1477478.1148721-2.3128711.065224-3.4697893.0623035-.2992446-.0004867-.6231045-.0584095-.8880807-.1888575-.172307-.0846939-.3040711-.3324477-.3730905-.5349341-.0878427-.257002.1616887-.7155169.3808129-.7680855.2968313-.0715517.5984892-.1513781.9011124-.1684142 3.386773-.1922648 6.77451137-.383556 10.16273238-.5539172 2.92873576-.1474841 5.86133275-.2248767 8.78717261-.4113005 2.61790751-.1674407 5.23291911-.3256332 7.85903171-.32612 2.3915435-.0004867 4.7830869-.0764192 7.1746304-.1280142 1.6970064-.0369928 3.3940128-.1474841 5.0895713-.1211999 2.4673199.038453 4.9336745.1659805 7.3995465.2716044.2196069.009735.4406618.126554.6506156.2190358.2673896.1173059.4879618.6717098.3938445 1.0187598-.0834989.3081104-.2466354.5909099-.590284.644452-.3769517.0584096-.7664523.1104914-1.1443693.0842071-4.0866193-.2852333-8.1756518-.1289877-12.2646843-.1119516-3.4712373.0146024-6.9434398.0029205-10.41515974.0029205.00048265.0296915.00048265.059383.00048265.0890745-2.31190579.1124384-4.62429423.2234165-6.93571736.3382886z" fill="#ced4da" fill-rule="evenodd" transform="matrix(-.05233596 .99862953 -.99862953 -.05233596 45.768837 16.618995)"/></svg>