<?xml version="1.0" encoding="UTF-8"?>
<svg width="54px" height="44px" viewBox="0 0 54 44" version="1.1" xmlns="http://www.w3.org/2000/svg" xmlns:xlink="http://www.w3.org/1999/xlink">
    <!-- Generator: Sketch 51.2 (57519) - http://www.bohemiancoding.com/sketch -->
    <title>arrow-left</title>
    <desc>Created with Sketch.</desc>
    <defs></defs>
    <g id="arrow-left" stroke="none" stroke-width="1" fill="none" fill-rule="evenodd">
        <path d="M53.5282837,22.5682777 C53.4747093,22.447132 53.4549205,22.2642066 53.3617686,22.2120802 C52.0851526,21.4943758 50.8196375,20.7525388 49.5106838,20.0985446 C45.509494,18.0998803 41.4923767,16.1330711 37.4767074,14.1628833 C36.4390043,13.6536849 35.3752381,13.1956476 34.340431,12.679692 C34.0797986,12.5498584 33.8321978,12.3196332 33.6801623,12.0725151 C33.5802532,11.9103438 33.5928022,11.6019288 33.6820929,11.4214167 C33.7684877,11.2462139 34.0001609,11.093213 34.1985311,11.03626 C34.4055891,10.9764111 34.6652562,10.9942692 34.8737621,11.0632885 C35.458737,11.2563496 36.0384027,11.4716126 36.6031062,11.7172828 C42.4045901,14.241073 48.0984424,16.9912274 53.7194142,19.8924519 C54.6765142,20.3866881 55.595002,20.9595967 56.5096286,21.5320227 C56.9782843,21.8254754 57.1110137,22.4437534 56.907817,22.9766018 C56.6153295,23.7449847 56.0955127,24.3343035 55.3034799,24.5128849 C53.9872863,24.8101989 52.8950436,25.5216288 51.7709457,26.1944465 C49.6530663,27.4618921 47.5028491,28.6772113 45.4129635,29.9895436 C43.3887186,31.2608505 41.4281839,32.6315837 39.4314503,33.946812 C38.9840313,34.2421954 38.5144104,34.5076543 38.0365843,34.7518765 C37.7344438,34.9063253 37.2339331,34.6519674 37.0703139,34.3174892 C36.9124865,33.9945946 37.0297711,33.7098296 37.2141444,33.4598155 C37.3488044,33.2768902 37.5302818,33.1190628 37.7141724,32.9824722 C40.1293659,31.1894179 42.4794012,29.3094861 45.0842771,27.7799601 C47.8764222,26.140872 50.6289898,24.4342126 53.3965196,22.7531337 C53.4558859,22.7174174 53.4843624,22.6315052 53.5282837,22.5682777 Z M21.403122,23.6799231 C19.0912162,23.7914159 16.7788278,23.9014607 14.4674047,24.0153667 C10.2292325,24.2238726 5.9799593,24.1736767 1.74902691,24.5926191 C0.601279104,24.7065251 -0.563844189,24.6572946 -1.72076239,24.6543987 C-2.02000698,24.653916 -2.34386685,24.5964804 -2.60884311,24.4671295 C-2.78115008,24.3831479 -2.91291423,24.1374778 -2.98193354,23.9366943 C-3.06977631,23.6818537 -2.82024493,23.227195 -2.60112067,23.1750686 C-2.30428934,23.1041186 -2.00263149,23.0249636 -1.70000833,23.0080708 C1.68676472,22.817423 5.07450308,22.6277405 8.46272409,22.4588121 C11.3914599,22.3125684 14.3240568,22.2358267 17.2498967,22.0509707 C19.8678042,21.8849382 22.4828158,21.7280762 25.1089284,21.7275935 C27.5004719,21.7271109 29.8920154,21.6518171 32.2835588,21.6006559 C33.9805652,21.5639743 35.6775717,21.4544122 37.3731301,21.4804754 C39.84045,21.5186049 42.3068046,21.6450599 44.7726766,21.7497955 C44.9922835,21.7594486 45.2133384,21.8752852 45.4232923,21.9669892 C45.6906818,22.0833084 45.911254,22.6330497 45.8171368,22.977181 C45.7336379,23.2827001 45.5705013,23.5631212 45.2268527,23.616213 C44.849901,23.6741313 44.4604004,23.7257751 44.0824834,23.6997119 C39.9958642,23.4168775 35.9068316,23.571809 31.8177991,23.5887018 C28.3465618,23.6031814 24.8743593,23.5915977 21.4026394,23.5915977 C21.403122,23.6210395 21.403122,23.6504813 21.403122,23.6799231 Z" id="Fill-105" fill="#CED4DA" transform="translate(27.000000, 22.899077) rotate(144.000000) translate(-27.000000, -22.899077) "></path>
    </g>
</svg>