<svg version="1.1" id="Layer_1" xmlns="http://www.w3.org/2000/svg" xmlns:xlink="http://www.w3.org/1999/xlink" x="0px" y="0px"
	 width="315px" height="30px" viewBox="0 0 315 30" enable-background="new 0 0 315 30" xml:space="preserve">
<g enable-background="new    ">
	<path fill="#222222" d="M15.046,8.201v18.934H8.675V8.201H1.044V3.162h21.633v5.039H15.046z"/>
</g>
<g enable-background="new    ">
	<path fill="#222222" d="M27.791,18.964v1.8c0,1.764,1.26,3.132,3.672,3.132c1.872,0,3.167-1.152,3.779-2.808l3.815,1.188
		c-1.26,3.42-3.995,5.147-7.991,5.147c-5.04,0-8.531-3.06-8.531-7.415v-3.023c0-4.248,3.312-7.487,8.459-7.487
		c5.147,0,8.135,3.203,8.135,7.451v2.016H27.791z M34.198,15.94c0-1.512-1.224-2.844-3.167-2.844c-2.016,0-3.24,1.26-3.24,2.844
		v1.115h6.407V15.94z"/>
</g>
<g enable-background="new    ">
	<path fill="#222222" d="M54.862,27.135l-0.396-2.664c-1.08,1.872-3.204,2.952-5.507,2.952c-4.248,0-6.983-2.916-6.983-6.911v-3.888
		c0-4.104,2.88-7.127,6.516-7.127c2.268,0,3.743,0.756,4.967,2.195v-8.53h5.255v23.973H54.862z M53.386,16.624
		c0-2.052-1.188-3.491-3.095-3.491c-1.872,0-3.06,1.26-3.06,3.491v3.743c0,2.196,1.224,3.456,3.06,3.456
		c1.728,0,3.095-1.26,3.095-3.384V16.624z"/>
	<path fill="#222222" d="M80.781,21.556c-2.232,0-3.672-1.296-3.636-3.168c-1.008,1.872-2.556,2.844-4.248,2.844
		c-2.339,0-3.887-1.655-3.887-4.104c0-3.348,2.987-8.027,6.911-8.027c1.62,0,2.627,0.864,2.808,2.196l0.684-1.872h3.384
		l-2.556,7.487c-0.576,1.584-0.144,2.664,1.368,2.664c2.196,0,4.248-2.376,4.248-6.3c0-5.219-4.14-8.927-9.863-8.927
		c-6.227,0-10.583,4.859-10.583,10.799c0,6.047,4.355,10.834,10.583,10.834c2.916,0,5.399-1.008,7.235-2.699l1.26,1.548
		c-2.196,1.908-5.184,3.06-8.495,3.06c-7.307,0-12.742-5.579-12.742-12.67c0-7.056,5.435-12.814,12.742-12.814
		c8.423,0,12.022,6.227,12.022,10.834C88.016,17.416,85.497,21.556,80.781,21.556z M76.605,11.117c-2.483,0-4.211,3.887-4.211,6.011
		c0,1.296,0.576,1.908,1.656,1.908c1.404,0,2.484-1.368,2.988-2.952l1.08-3.167C78.117,11.944,77.686,11.117,76.605,11.117z"/>
</g>
<g enable-background="new    ">
	<path fill="#222222" d="M107.061,8.201v18.934h-6.371V8.201h-7.631V3.162h21.633v5.039H107.061z"/>
</g>
<g enable-background="new    ">
	<path fill="#222222" d="M119.805,18.964v1.8c0,1.764,1.26,3.132,3.672,3.132c1.872,0,3.167-1.152,3.779-2.808l3.815,1.188
		c-1.26,3.42-3.995,5.147-7.991,5.147c-5.04,0-8.531-3.06-8.531-7.415v-3.023c0-4.248,3.312-7.487,8.459-7.487
		c5.147,0,8.135,3.203,8.135,7.451v2.016H119.805z M126.212,15.94c0-1.512-1.224-2.844-3.167-2.844c-2.016,0-3.24,1.26-3.24,2.844
		v1.115h6.407V15.94z"/>
	<path fill="#222222" d="M146.876,27.135l-0.396-2.664c-1.08,1.872-3.204,2.952-5.507,2.952c-4.248,0-6.983-2.916-6.983-6.911
		v-3.888c0-4.104,2.88-7.127,6.516-7.127c2.268,0,3.743,0.756,4.967,2.195v-8.53h5.255v23.973H146.876z M145.4,16.624
		c0-2.052-1.188-3.491-3.096-3.491c-1.872,0-3.06,1.26-3.06,3.491v3.743c0,2.196,1.224,3.456,3.06,3.456
		c1.728,0,3.096-1.26,3.096-3.384V16.624z"/>
	<path fill="#222222" d="M174.055,27.135l-0.863-3.168c-1.62,2.34-4.428,3.815-7.883,3.815c-7.056,0-11.015-4.535-11.015-10.042
		v-5.075c0-5.508,4.715-10.151,11.915-10.151c5.363,0,8.927,2.556,10.654,6.155l-4.571,2.376c-1.08-2.016-3.06-3.563-5.76-3.563
		c-3.635,0-5.723,2.195-5.723,5.075v5.255c0,2.808,1.908,5.004,5.291,5.004c2.88,0,4.572-1.728,4.572-4.031v-0.612h-4.212v-3.384
		h10.511v12.347H174.055z"/>
	<path fill="#222222" d="M188.709,27.423c-4.969,0-8.568-2.735-8.568-7.56v-2.735c0-4.823,3.6-7.631,8.568-7.631
		c4.931,0,8.53,2.808,8.53,7.631v2.735C197.239,24.688,193.64,27.423,188.709,27.423z M191.984,16.66
		c0-2.195-1.188-3.527-3.275-3.527c-2.088,0-3.312,1.332-3.312,3.527v3.636c0,2.195,1.225,3.527,3.312,3.527
		c2.087,0,3.275-1.332,3.275-3.527V16.66z"/>
	<path fill="#222222" d="M216.175,27.423c-2.521,0-3.995-0.9-4.428-3.132c-1.403,2.16-3.6,3.132-6.19,3.132
		c-3.348,0-5.796-1.872-5.796-4.896v-0.144c0-3.816,4.679-5.58,10.979-5.004v-1.512c0-1.691-0.937-2.699-2.735-2.699
		c-1.656,0-2.699,0.936-3.6,2.411l-3.6-1.512c1.296-2.771,3.635-4.571,7.451-4.571c5.111,0,7.703,2.88,7.703,6.731v6.694
		c0,0.828,0.324,1.152,1.512,1.152v3.348H216.175z M210.739,19.684c-3.815-0.504-5.867,0.432-5.867,2.196v0.359
		c0,1.044,0.899,1.872,2.376,1.872c1.799,0,3.491-1.08,3.491-2.664V19.684z"/>
	<path fill="#222222" d="M231.619,15.292c-0.756-1.332-2.304-2.34-4.14-2.34c-1.728,0-2.735,0.721-2.735,1.584
		c0,2.808,10.438,1.332,10.438,7.415c0,2.556-2.448,5.472-7.919,5.472c-4.212,0-6.84-1.908-8.207-4.319l3.42-1.872
		c1.115,1.728,2.807,2.735,4.822,2.735c2.088,0,2.988-0.647,2.988-1.691c0-2.916-10.402-1.332-10.402-7.307
		c0-2.88,2.771-5.472,7.666-5.472c3.852,0,6.336,1.728,7.596,4.392L231.619,15.292z"/>
	<path fill="#222222" d="M238.424,27.135V22.06h4.716v5.075H238.424z"/>
	<path fill="#222222" d="M255.344,27.423c-5.111,0-8.604-3.096-8.604-7.56v-2.699c0-4.499,3.6-7.667,8.567-7.667
		c4.103,0,7.019,1.836,8.026,5.291l-3.959,1.08c-0.576-1.691-1.836-2.771-3.672-2.771c-2.304,0-3.707,1.439-3.707,3.743v3.24
		c0,2.375,1.476,3.743,3.743,3.743c1.836,0,3.132-1.152,3.708-2.808l3.924,1.224C262.11,25.659,259.303,27.423,255.344,27.423z"/>
	<path fill="#222222" d="M274.279,27.423c-4.968,0-8.567-2.735-8.567-7.56v-2.735c0-4.823,3.6-7.631,8.567-7.631
		c4.932,0,8.531,2.808,8.531,7.631v2.735C282.811,24.688,279.211,27.423,274.279,27.423z M277.555,16.66
		c0-2.195-1.188-3.527-3.275-3.527s-3.312,1.332-3.312,3.527v3.636c0,2.195,1.225,3.527,3.312,3.527s3.275-1.332,3.275-3.527V16.66z
		"/>
	<path fill="#222222" d="M307.109,27.135v-11.41c0-1.584-0.684-2.556-2.016-2.556c-1.943,0-2.916,2.339-2.916,4.031v9.935h-5.363
		V15.652c0-1.548-0.648-2.52-2.016-2.52c-1.943,0-2.916,2.304-2.916,3.995v10.007h-5.398V9.857h4.643l0.288,3.815
		c1.403-2.844,3.239-4.176,5.796-4.176c2.34,0,3.995,1.655,4.535,3.959c1.404-2.735,3.239-3.959,5.76-3.959
		c3.347,0,4.967,2.34,4.967,5.688v11.95H307.109z"/>
</g>
</svg>
