<svg xmlns="http://www.w3.org/2000/svg" width="171" height="52" viewBox="0 0 171 52">
  <path fill="#A9E34B" fill-rule="evenodd" d="M44.6869465,50.7682474 C44.6869465,50.6103794 44.6457799,50.5109562 44.5951133,50.547904 C44.5449745,50.5855236 44.4404746,50.4363887 44.3634191,50.2187325 C44.2821414,49.9876407 44.157586,49.8210396 44.065225,49.8210396 C43.9401418,49.8210396 43.930114,49.7874507 44.017725,49.6631716 C44.1021694,49.5422515 44.0990027,49.4945552 44.0050584,49.4569356 C43.9090029,49.4186442 43.9132251,49.3649019 44.0251139,49.2036751 C44.1327805,49.0471507 44.138586,48.9873624 44.0483361,48.9510863 C43.9834195,48.9255588 43.930114,48.855022 43.930114,48.7945619 C43.930114,48.7341019 43.9723362,48.7159638 44.0240584,48.7542552 C44.0773638,48.7932184 44.0931972,48.7475374 44.0610028,48.6481142 C44.0298639,48.5520499 44.0530861,48.4734518 44.1127249,48.4734518 C44.1913637,48.4734518 44.1934748,48.4129917 44.119586,48.2490777 C44.0383083,48.0690411 44.0472805,48.0247037 44.167086,48.0247037 C44.2874192,48.0247037 44.2937525,47.9958172 44.1976971,47.8742253 C44.0752527,47.7190445 43.8372252,47.8581026 43.8683641,48.0670258 C43.8762807,48.120768 43.833003,48.1872741 43.7723086,48.2134735 C43.6994754,48.2457189 43.6804754,48.1771974 43.7163642,48.0139552 C43.7464475,47.8769124 43.7321976,47.7922683 43.6846976,47.8251855 C43.6377254,47.8574308 43.5142256,47.8473542 43.4102535,47.8016732 C43.2603647,47.7365107 43.304698,47.70225 43.6229477,47.6377593 C43.8736418,47.5867041 44.0251139,47.4966858 44.0251139,47.3979343 C44.0251139,47.3106031 44.1074471,47.2393946 44.2087804,47.2393946 C44.3095858,47.2393946 44.4505023,47.1406431 44.5217523,47.019723 C44.6494743,46.8040821 45.1308071,46.5091713 45.2870292,46.5514933 C45.3313625,46.5629136 45.6079177,46.5011099 45.9018896,46.4131069 C46.2736202,46.3085496 46.6493795,46.2287236 47.0276384,46.1739538 C47.3527492,46.1302882 47.6424989,46.0490029 47.6715266,45.9932453 C47.7005544,45.9374877 47.8177209,45.891135 47.9317208,45.8897914 C48.0451929,45.8884479 48.3940536,45.7379695 48.7059699,45.5552457 C49.018414,45.3731937 49.3456359,45.2227153 49.4332469,45.2213718 C49.5213857,45.2200282 49.6195523,45.1676295 49.6517467,45.1064976 C49.6839411,45.044694 49.6623022,44.9943106 49.603719,44.9943106 C49.4723024,44.9943106 49.5192746,44.492492 49.6517467,44.4810718 C49.7039966,44.4770411 49.9330519,44.4098633 50.1610517,44.3332805 C50.3890514,44.2553542 50.6793289,44.222437 50.8065232,44.2607284 C50.9331897,44.298348 51.1722728,44.2795382 51.3374671,44.2190781 C51.5026613,44.1586181 51.875272,44.0544924 52.1655495,43.9866428 C52.9624931,43.8019037 53.3873537,43.6473946 53.3873537,43.5432689 C53.3873537,43.4344408 48.5360257,43.50968 47.3348048,43.6373179 C46.7019999,43.7044958 46.4608057,43.685686 46.2000838,43.5513303 C46.0180006,43.4572813 45.8475286,43.3733089 45.8216675,43.363904 C45.7952786,43.3551709 45.6501399,43.2866495 45.4981401,43.2127539 C45.3461402,43.1381864 45.1545571,43.1079564 45.0722239,43.145576 C44.9904184,43.1838674 43.7316698,43.2329072 42.2750047,43.2550759 C40.8188674,43.2772446 39.4355633,43.345766 39.201758,43.4068979 C38.9679527,43.4687015 38.2665368,43.5775296 37.643232,43.6487381 C37.0199271,43.7212902 36.4282888,43.8314619 36.3290667,43.8946091 C36.2293168,43.9577563 35.9400949,43.985971 35.6862341,43.9570845 C35.4318455,43.9275262 35.2012068,43.9483514 35.1732346,44.0020937 C35.1452624,44.055836 35.082457,44.0706151 35.0339015,44.0356826 C34.9858737,44.0000783 34.9462904,44.0242624 34.9462904,44.0894249 C34.9462904,44.1552592 34.9146238,44.198253 34.8750405,44.186161 C34.7177629,44.1371212 33.9060416,44.3406701 33.9060416,44.4300166 C33.9060416,44.5395165 33.1914312,44.7215685 32.9212093,44.6812618 C32.8219872,44.6658109 32.6604874,44.7551574 32.5628486,44.8801082 C32.4652098,45.0043873 32.3126822,45.1125436 32.2234878,45.1199332 C32.1342935,45.126651 31.8065438,45.1441172 31.4940997,45.1575528 C31.1827112,45.1709884 30.756795,45.2395098 30.5488508,45.3107183 C30.3403788,45.3825986 30.0094625,45.469258 29.8131293,45.5035188 C29.6167962,45.5384512 29.4790464,45.6110033 29.5070186,45.6647456 C29.5951574,45.8340338 29.385102,45.8783712 27.7421316,46.0369109 C27.6545206,46.0456441 27.5906595,46.1007299 27.5996318,46.1591746 C27.6091317,46.2176194 27.5315485,46.2948739 27.4275764,46.3311499 C27.2774574,46.3952717 27.1339303,46.4821048 27.0000768,46.5897847 C26.8280215,46.7288429 26.4696608,46.8034103 25.722856,46.8551372 C25.1523289,46.8947722 24.5870795,46.9223151 24.4667463,46.9155973 C24.3464131,46.9088795 24.1173578,46.9841187 23.9574413,47.0821984 C23.7927748,47.1829652 23.6418305,47.2158823 23.6091083,47.1574376 C23.5273028,47.013677 23.1942754,46.8752906 23.2671087,47.0163641 C23.3441642,47.1641554 23.2523309,47.156094 23.0005812,46.9941954 C22.4923317,46.6670392 20.0861955,46.9155973 19.8349735,47.3206798 C19.7573903,47.4463024 19.7489458,47.5309465 19.8117513,47.5558023 C19.8655846,47.5772992 19.9093901,47.6391028 19.9093901,47.6941887 C19.9093901,47.7486027 19.8497513,47.766069 19.7774458,47.7331518 C19.7046126,47.6995629 19.6170015,47.726434 19.5821682,47.7929401 C19.4908628,47.9689461 20.0571677,47.9434185 20.3632785,47.7573358 C20.5036672,47.67202 20.8103058,47.5652072 21.0441111,47.5195262 C21.2784442,47.4745171 21.5444439,47.4207748 21.6352216,47.4006214 C21.726527,47.3804681 21.8009436,47.4301797 21.8009436,47.5114649 C21.8009436,47.6155906 21.9186379,47.6471642 22.2025821,47.6209648 C22.5134428,47.5920783 22.5667483,47.6095446 22.4374429,47.6988911 C22.3450819,47.7620383 22.2912486,47.8547437 22.3171097,47.9051271 C22.3730541,48.0126117 21.8442213,48.1214398 20.8208613,48.2121299 C20.2455842,48.2625133 20.0582233,48.24236 19.99489,48.1234552 C19.9347234,48.0112681 19.912029,48.0072375 19.9104457,48.1093478 C19.9088623,48.3155838 19.3404463,48.2819949 19.1367243,48.0636669 C19.0417244,47.9615565 18.9636134,47.9252805 18.9636134,47.9837252 C18.9636134,48.048216 18.6569748,48.0596362 18.1835587,48.0132835 C17.7544758,47.9702896 17.0841987,47.9078142 16.6941714,47.8742253 C16.3036163,47.8406364 15.8449779,47.7533052 15.673978,47.6814249 C15.503506,47.6102163 15.2575618,47.5752838 15.1282564,47.6048421 C14.9984232,47.6337286 14.8659511,47.6061857 14.8327012,47.5437103 C14.7962846,47.4731735 14.8210901,47.4637686 14.89709,47.5195262 C14.9741455,47.5759556 14.9978954,47.5665507 14.9604233,47.4939986 C14.8891733,47.3569558 14.4379238,47.2333486 13.9043411,47.2037903 C13.5892581,47.1863241 13.5243415,47.1426585 13.5158971,46.9417967 C13.5063971,46.7268275 13.5718414,46.691895 14.1302297,46.6146405 C14.4743405,46.567616 14.8617289,46.5394013 14.9915621,46.5528369 L15.2280063,46.5770209 L14.9773121,46.415794 C14.5418959,46.1349906 14.1180908,46.0160858 13.2894806,45.9442055 C12.8472033,45.9059141 12.2091207,45.7917118 11.8708155,45.690945 C11.0933997,45.4591814 8.39540262,45.4410433 8.2777083,45.6674327 C8.23751107,45.7451035 8.15744976,45.7710166 8.09298628,45.727221 C7.93465312,45.6110033 6.1940439,45.5727119 6.25368273,45.6855707 C6.30857156,45.7923835 6.29484935,45.7937271 5.05773958,45.8387363 C4.18426831,45.8703099 3.81587982,45.9086012 2.50857568,46.1040888 C1.91218744,46.1927636 1.56385449,46.1417084 1.22291042,45.9159908 C1.08041057,45.8205982 1.11102165,45.766856 1.45513238,45.5095648 C1.73168764,45.3013134 2.07052061,45.1797215 2.58140894,45.1031387 C3.45382466,44.9721419 4.28612931,44.8075562 4.88568421,44.6463293 C5.24457271,44.550265 5.31582263,44.4911485 5.27835045,44.3205167 C5.25143382,44.198253 5.17807278,44.1364494 5.09996176,44.1727254 C5.0271285,44.2056426 4.96748968,44.1767561 4.96748968,44.1082347 C4.96748968,44.0397133 5.04137849,43.9832839 5.13268394,43.9826121 C5.27412824,43.9812685 5.27782268,43.9651458 5.15643392,43.8717686 C5.06671179,43.8032472 5.05668403,43.7622687 5.13004506,43.7615969 C5.19337832,43.7602534 5.22082274,43.6836706 5.19021166,43.5902934 C5.1522117,43.4727322 5.24668382,43.3632323 5.50054466,43.2288765 L5.86576648,43.0367479 L4.94215637,42.96957 C4.44605089,42.9323568 3.94920708,42.9133152 3.45224133,42.9124688 C3.14085278,42.9191866 2.88699194,42.9178431 2.88699194,42.9097817 C2.88699194,42.9023922 2.97143629,42.7794567 3.07593618,42.6370396 C3.17990829,42.4946226 3.26488042,42.4126656 3.26488042,42.4543159 C3.26488042,42.4959661 3.36093587,42.4556594 3.47810241,42.3642975 C3.59526895,42.2736074 4.00640739,42.1405953 4.39221253,42.0700585 C4.77748989,41.99885 5.26146158,41.8698685 5.46782247,41.7838809 C5.70053165,41.6914577 5.94156807,41.6372764 6.18507169,41.622654 C6.71179334,41.616608 8.03809745,41.2074948 7.6549312,41.1692035 C7.56220833,41.1547411 7.47009099,41.1345641 7.37890373,41.1087434 C7.27747594,41.0811568 7.17596606,41.0540615 7.07437628,41.0274582 C6.85798763,40.9710288 6.84426542,40.8622007 7.0437652,40.7869615 C7.15354286,40.7453112 7.3540982,40.5894586 7.49026472,40.4396519 C7.62643123,40.2898453 7.83226434,40.1675816 7.94837533,40.1675816 C8.06448631,40.1675816 8.20804171,40.0983884 8.26768054,40.0130726 C8.35634711,39.8867782 8.27823608,39.8457997 7.82962546,39.7853396 C7.55288971,39.748593 7.27664877,39.7060413 7.00101525,39.6577017 C6.6294601,39.5864932 5.1522117,39.5965698 5.05087848,39.6711373 C4.9136564,39.7719041 3.83224091,39.8189286 3.83224091,39.7248796 C3.83224091,39.6744962 3.89610195,39.5710423 3.97474076,39.4944595 C4.05232401,39.417205 4.11618505,39.3016591 4.11618505,39.2371683 C4.11618505,39.1726776 4.08821286,39.153196 4.05390734,39.1941745 C4.01960182,39.2344812 3.93462969,39.2116407 3.8649631,39.1431193 C3.79476873,39.0739261 3.73829657,39.0658648 3.73829657,39.1249813 C3.73829657,39.1840978 3.67390775,39.2324659 3.59579673,39.2324659 C3.36885253,39.2324659 3.43113024,39.1122175 3.74357434,38.9483035 C4.09454618,38.7635644 4.04440735,38.6863099 3.47810241,38.5405339 C2.9619363,38.4061782 2.86376974,38.1979269 3.23374156,38.0205773 C3.61690781,37.8371818 5.4161003,37.5993722 6.44473807,37.5960133 C6.92712644,37.5946697 7.43432033,37.5597372 7.57207018,37.5187588 L7.82329213,37.4441913 L7.55412576,37.1821977 C7.40529259,37.0384371 7.21212613,36.9188605 7.12451511,36.9168452 C6.9002098,36.9107992 6.83212654,36.7327778 6.95245974,36.4660817 C7.07912627,36.1839347 7.90193094,35.6780855 8.23231947,35.6780855 C8.37165265,35.6780855 8.45240256,35.6297174 8.4191526,35.5658985 C8.38695819,35.5040948 8.2824583,35.4537115 8.18693063,35.4537115 C8.02701413,35.4537115 7.84915321,35.1735798 7.88398651,34.9767487 C7.91987536,34.7765587 6.41940477,35.0002609 6.29379379,35.2138865 C6.19773834,35.3764569 3.78262986,35.8030363 3.54565789,35.6982388 L3.31924147,35.5994874 L3.53932456,35.4597575 C3.66018554,35.3825029 4.4460458,35.1843282 5.28521156,35.0177272 C6.82104322,34.7140833 7.19523726,34.4997859 6.18876613,34.4997859 C5.87948869,34.4997859 5.59501678,34.4352951 5.50265576,34.3452768 C5.37071146,34.2162953 5.18915611,34.2129364 4.4228236,34.3237799 C3.01365847,34.5280006 2.1956038,34.6684023 2.0034929,34.7382673 C1.87629859,34.78462 1.83777086,34.7517029 1.86099306,34.61466 C1.89582635,34.4158136 2.18821492,34.1827064 2.64738109,33.9878906 C3.04215844,33.8206178 2.79674204,33.6734983 2.29165925,33.774265 C2.07263171,33.8186024 1.70213212,33.889811 1.46832682,33.9334766 L1.04241061,34.0120747 L1.39707689,33.6090075 C1.59235446,33.3873206 1.75174317,33.1878024 1.75174317,33.1656337 C1.75174317,33.143465 1.48785457,33.0897227 1.16591048,33.0467289 C0.402216862,32.9439467 -0.00522713925,32.6906862 0,32.3218798 C0.00268951881,32.127064 0.614911076,31.8670857 1.1838549,31.8180459 C1.41818798,31.7972207 1.95071518,31.7004846 2.36660362,31.6024049 C2.78249205,31.5043253 3.42110247,31.4008714 3.78526874,31.3733285 C4.19685389,31.3391251 4.60712449,31.2828697 5.01498963,31.204712 C6.95245974,30.8009731 7.38840372,30.7008781 7.47232029,30.6444487 C7.52351468,30.6095162 7.37468151,30.5255439 7.14140398,30.4583661 C6.90654313,30.3905164 6.71707111,30.2702681 6.71707111,30.1883111 C6.71707111,29.9995413 7.67023674,29.5890846 8.53526358,29.405689 C8.95590201,29.3163425 9.26729056,29.1840021 9.36915156,29.0496464 C9.46045702,28.9300698 9.77712334,28.7795914 10.0900952,28.7063676 C10.8010111,28.5404383 10.7814834,28.3825703 10.0093453,28.0439939 C9.84415105,27.9714418 9.72751228,27.8538806 9.75073448,27.7820003 C9.80456776,27.6201016 10.2426228,27.3722153 10.4769559,27.3722153 C10.5735391,27.3722153 10.6263169,27.3211602 10.5941225,27.2600283 C10.5624558,27.1982247 10.2194006,27.1471695 9.83201217,27.1471695 C9.19445731,27.1471695 8.93848536,27.0329672 9.24617947,26.8851759 C9.52220695,26.7528355 8.14206956,26.8247158 7.46018142,26.9772095 C6.61151567,27.1679947 6.14918284,27.088053 6.14918284,26.7514919 C6.14918284,26.5956393 6.39671035,26.3920904 7.07807072,25.9849926 C7.71932002,25.601407 7.96737531,25.4005453 7.88134762,25.334711 C7.71773669,25.2097601 7.87923652,25.0814504 8.51362472,24.8328924 C9.40873485,24.4815522 10.119123,23.8937459 10.0257064,23.5800253 C9.96237314,23.3663998 10.3112339,23.2495103 11.7531212,23.0022958 C12.4693149,22.8793603 13.1870919,22.701339 13.3475361,22.6059464 C13.5079804,22.5118974 13.8478689,22.4044129 14.1027853,22.367465 C14.8057845,22.26737 16.1505609,21.8636311 16.3606162,21.6896405 C16.463005,21.6049964 16.6756992,21.5317725 16.8335046,21.5270701 C16.9907822,21.5230394 17.2045319,21.4760149 17.308504,21.4229444 C17.4594483,21.3463616 17.4209206,21.3235212 17.1195598,21.3100856 C16.313644,21.2744813 15.8856167,21.1804323 15.7790057,21.014503 C15.7061725,20.9009724 15.5921726,20.8667117 15.4480894,20.9137362 C15.2586174,20.9741963 15.2517563,20.9674785 15.3953117,20.8599939 C15.4871449,20.7921443 15.6365059,20.750494 15.726228,20.7679603 C15.8260457,20.7836314 15.9272876,20.7619204 16.017561,20.7054849 C16.0925054,20.6497273 16.2397552,20.6718959 16.3780328,20.7592272 C16.5595882,20.8747731 16.6503659,20.878132 16.7896991,20.7746781 C16.9031712,20.6907057 16.9902544,20.6826444 17.0261432,20.7518376 C17.0578099,20.8122977 17.3259207,20.8633528 17.6214759,20.8660399 C17.9175589,20.8680553 18.2664197,20.9419509 18.3962529,21.0299539 C18.6796692,21.2220826 18.7746691,21.2361899 18.7746691,21.0863833 C18.7746691,21.0245797 18.7081692,20.9741963 18.6268915,20.9741963 C18.5461416,20.9741963 18.5028639,20.9291871 18.5318916,20.8747731 C18.5598638,20.8196872 18.4944194,20.7471351 18.3851695,20.7135462 C18.2764474,20.6799573 18.2057253,20.5859083 18.2284197,20.5046231 C18.2701141,20.3548165 18.6933914,20.2668135 20.0038622,20.1364884 C21.1876665,20.0182554 21.5169995,19.9551082 21.5169995,19.8449365 C21.5169995,19.7864918 21.4536662,19.7394673 21.3750274,19.7394673 C21.2963886,19.7394673 21.2335831,19.6393723 21.2335831,19.5150933 C21.2335831,19.3505075 21.2969164,19.2907192 21.4700273,19.2907192 C21.7418326,19.2907192 21.788277,19.1174003 21.537055,19.039474 C21.4441662,19.0105876 20.9654723,19.0139465 20.4730562,19.0468636 C19.0401411,19.1429279 18.4664472,19.1113543 18.1666698,18.9185539 C18.0141422,18.8204742 17.8626701,18.7606859 17.8288924,18.78487 C17.7956424,18.8097258 17.7861424,18.6874621 17.8077813,18.5134714 C17.8547535,18.1345883 17.7212258,18.0754718 16.7506435,18.0432264 C16.1695608,18.0244166 16.124172,18.0076222 16.3263107,17.8833431 C16.6588103,17.6791224 17.8774479,17.386227 18.6041971,17.3351718 C18.9757522,17.3089725 19.3261963,17.2169388 19.4523351,17.1121413 C19.7215014,16.8891109 19.8830012,16.885752 20.0645566,17.1013929 C20.1463621,17.1988008 20.3743618,17.2693375 20.6018338,17.2673222 C21.3027219,17.2632915 23.917858,16.9475556 24.273052,16.8239483 C24.6044961,16.709746 24.6145239,16.6909362 24.5448573,16.3228015 C24.500524,16.0910379 24.5105518,15.8948786 24.5696628,15.8243418 C24.6372183,15.7437284 24.6345794,15.6604279 24.5606906,15.5549586 C24.334802,15.2318331 24.6219128,15.1653271 26.0020502,15.2190693 C27.0744934,15.2613914 27.4091042,15.2385509 27.6265484,15.1068823 C27.8566593,14.9671524 28.894797,14.7750237 29.603074,14.740763 C29.7070461,14.7353888 30.0047125,14.6863489 30.2649066,14.6312631 L30.737795,14.5304963 L30.3124066,14.4492111 C30.0780735,14.4042019 29.3761298,14.3934535 28.7517694,14.4250271 C28.0900785,14.4573795 27.4279147,14.4714902 26.7657438,14.4673491 C26.2976054,14.458616 25.3829675,14.534527 24.732746,14.6352938 C23.4460252,14.8341402 22.1191933,14.9731984 21.5481383,14.9691677 C21.3491663,14.9678242 21.1591665,15.010818 21.1269721,15.0645603 C21.0942499,15.1183026 20.9343334,15.168686 20.7723058,15.1767473 C20.6097505,15.1848086 20.4767506,15.2331767 20.4767506,15.2842319 C20.4767506,15.335287 20.3812229,15.3446919 20.2640564,15.3057288 C20.0972788,15.2506429 20.0819733,15.2607196 20.1933342,15.3527533 C20.3152508,15.4541918 20.3120841,15.4709863 20.1695843,15.4723299 C20.0782788,15.4736734 20.0038622,15.5301028 20.0038622,15.599296 C20.0038622,15.6758788 19.9141401,15.6543819 19.7711125,15.5428666 C19.5125017,15.341333 19.3985018,15.3104312 19.4771406,15.4615814 C19.5056405,15.5159955 19.4444184,15.587204 19.3409741,15.6194494 C19.2333075,15.6530383 19.1530854,15.6221365 19.1530854,15.5475691 C19.1530854,15.4723299 19.0037244,15.4179158 18.7984191,15.4179158 C18.5730582,15.4179158 18.4516695,15.4669556 18.4659195,15.5529433 C18.481225,15.6456487 18.3788362,15.6711763 18.1386976,15.6349003 C17.7449758,15.5744402 17.3565318,15.3137901 17.3544207,15.1068823 C17.3533651,15.0182076 17.3201151,15.0296278 17.2615319,15.1371124 C17.190282,15.2681092 17.1696986,15.235192 17.1681153,14.9893211 C17.166532,14.5849104 17.3222263,14.2396162 17.5069483,14.2396162 C17.5861149,14.2396162 17.6246426,14.1892328 17.5924482,14.1274292 C17.5607816,14.0656256 17.6109204,14.0112115 17.7048647,14.006509 C18.0162533,13.9903864 18.2146975,13.9225367 18.4252806,13.7586228 C18.6142249,13.612175 19.0586133,13.6686044 19.0586133,13.8392362 C19.0586133,13.870138 19.0010855,13.8694662 18.9319467,13.8378926 C18.8617524,13.806319 18.7451136,13.8681227 18.6717526,13.9749354 C18.5566971,14.1428801 18.5566971,14.1563157 18.6728081,14.0743587 C18.7757247,14.000463 18.791558,14.0253188 18.7403636,14.1838586 C18.7002525,14.3067941 18.7224192,14.4263706 18.7952524,14.4814565 C18.97628,14.6171558 19.1282798,14.5916282 18.9641411,14.45257 C18.8570024,14.3625517 18.9118912,14.3477726 19.1852798,14.3927817 C19.3858351,14.4263706 19.625446,14.3954688 19.7215014,14.3249321 C19.8523902,14.2275242 19.9273345,14.2295395 20.03289,14.3329934 C20.144251,14.4431651 20.1854176,14.4310731 20.2440009,14.270518 C20.2846397,14.1603463 20.3110286,14.0333802 20.3025841,13.9870275 C20.2946675,13.940003 20.347973,13.9023834 20.4218618,13.9023834 C20.4957506,13.9023834 20.5717505,13.8446104 20.591806,13.7747454 C20.6118616,13.7035369 20.7527781,13.630313 20.9053057,13.6108315 C21.0583611,13.5913499 21.2304165,13.4986444 21.2884719,13.4039237 C21.3465274,13.3098747 21.4283329,13.269568 21.4705551,13.3152489 C21.5127773,13.3602581 21.5206939,13.3085311 21.4879717,13.2010465 C21.4151385,12.9592063 21.5956383,12.9363658 21.6737493,13.1775343 C21.7233604,13.3313716 21.750277,13.3293562 21.9070268,13.1607398 C22.07486,12.9800314 22.0848877,12.981375 22.0864711,13.1835803 C22.0875266,13.3629452 22.1023044,13.3703347 22.1793599,13.2292612 C22.3160542,12.9780161 22.2965264,12.923602 22.0431933,12.8483628 C21.8827491,12.7999947 21.8173047,12.7072893 21.8278602,12.5427036 C21.8442213,12.2807099 22.1735543,12.0852223 22.5535539,12.1114217 C22.9071646,12.1362775 23.2196087,11.9918451 23.2196087,11.8030754 C23.2196087,11.6821552 23.3135531,11.6465509 23.574275,11.6687196 C23.9553302,11.7023086 24.5965795,11.5760142 24.8272181,11.4221769 C24.9417458,11.3462659 24.9327735,11.3261126 24.7797182,11.318723 C24.5588433,11.3035614 24.3381976,11.2834048 24.1178855,11.2582629 C23.3135531,11.1682446 22.2442765,11.1709317 21.8579435,11.2636372 C21.5935272,11.3274561 21.508555,11.3167077 21.5555272,11.2253458 C21.5966938,11.1474195 21.5713605,11.1218919 21.4890273,11.1595115 C21.4109163,11.1951158 21.2853053,11.0923336 21.1855554,10.9109534 C21.0641666,10.6906101 21.0483333,10.5898433 21.129611,10.5575979 C21.2061387,10.5273679 21.1876665,10.46019 21.0731388,10.354049 C20.9174446,10.2089448 20.9274723,10.2002117 21.1860832,10.2532822 C21.3423052,10.2855276 21.4167218,10.2821687 21.3518052,10.2465644 C21.1121944,10.1122087 21.2441387,9.97382233 21.6119994,9.97382233 C21.8505547,9.97382233 21.9904156,10.0255493 21.991999,10.1148958 C21.9925267,10.2176779 22.0141656,10.2143191 22.0743322,10.102132 C22.1255266,10.0067395 22.1777765,9.99263213 22.2152487,10.0645124 C22.278582,10.1861044 22.3989152,10.1766995 22.6944704,10.0262211 C22.7958036,9.97516588 23.0185256,9.92948494 23.1895254,9.92545427 C23.5816639,9.91604937 23.7088582,9.63726127 23.3214697,9.63726127 C23.1678866,9.63726127 23.0269701,9.5640374 22.996359,9.46931662 C22.9594146,9.35511427 23.0005812,9.3007002 23.1230255,9.3007002 C23.2233032,9.3007002 23.3388864,9.23755302 23.380053,9.15962671 C23.4887751,8.95876492 23.8740525,8.7209553 23.9732746,8.79350739 C24.019719,8.82709632 24.0841078,8.80425585 24.11683,8.74110866 C24.1495522,8.67863326 24.2936353,8.62690631 24.4371907,8.62690631 C24.5807461,8.62690631 24.9296069,8.54494932 25.2119677,8.44485432 C25.6579394,8.28631457 25.6975227,8.25003853 25.5159674,8.1694251 C25.3998564,8.11769816 24.6108294,8.08209389 23.7611081,8.09082701 C22.9113868,8.09956013 22.1603599,8.06529943 22.0922766,8.01558781 C22.0220823,7.96386086 21.9408046,7.97863999 21.9043879,8.04917674 C21.828388,8.19495269 18.8881412,8.30579615 18.815308,8.16539443 C18.7894469,8.1163546 18.7023636,8.10560614 18.6216137,8.14255396 C18.5223916,8.18756313 18.5091972,8.23458763 18.5815027,8.28698635 C18.6395582,8.32998018 18.5582805,8.36491267 18.3999473,8.36491267 C18.2416141,8.36491267 18.1128365,8.31721639 18.1128365,8.2574281 C18.1128365,8.19898336 18.0479199,8.21443427 17.9687533,8.29236058 C17.8895867,8.37095867 17.7945869,8.39850159 17.7576424,8.35483599 C17.7201703,8.31117038 17.7956424,8.17950178 17.9249478,8.06261231 L18.1598087,7.85033029 L17.9233645,7.90407257 C17.7164758,7.95109707 17.7106703,7.94505106 17.8758645,7.85167384 C18.1487254,7.69716477 18.597336,7.71395924 18.860169,7.88660633 C19.116141,8.05455097 19.4365017,7.99946513 19.4365017,7.78651132 C19.4365017,7.68843165 19.6233349,7.64476605 20.0513622,7.64207893 C20.4366395,7.63939182 20.6662226,7.6837292 20.6662226,7.76098374 C20.6662226,7.82883337 20.7190003,7.80129045 20.7844447,7.70052367 C20.8694168,7.56751151 21.1259166,7.49630298 21.7064715,7.44457603 C22.148221,7.40426932 22.7789148,7.30081542 23.1071922,7.21415599 C23.4354696,7.12682477 23.839747,7.0509138 24.005469,7.04486779 C24.171191,7.03882178 24.5200518,6.96492614 24.7797182,6.88095382 C25.223051,6.73719321 25.1734399,6.7311472 23.9759135,6.78892016 C23.2739698,6.82250909 22.6353594,6.85072378 22.5572483,6.85206734 C22.4796651,6.85273912 21.5006384,6.9723157 20.3828063,7.1167481 C19.2639186,7.26185227 18.0447532,7.3955362 17.6731981,7.414346 C17.3011152,7.4331558 17.0166433,7.48622631 17.0398655,7.53257903 C17.0641432,7.57960353 16.9000045,7.61722313 16.6756992,7.61722313 C16.4519216,7.61722313 15.8856167,7.69111877 15.4174783,7.78046532 C14.6147292,7.93363083 12.7263424,8.09217057 12.9828421,7.98401422 C13.0482865,7.95714308 13.077842,7.88794989 13.0482865,7.83152049 C13.0187309,7.77509109 13.1142586,7.72672303 13.2604529,7.72403592 C13.4066472,7.72067702 13.674758,7.62259735 13.8568411,7.50570788 C14.0389243,7.38814664 14.2732573,7.2450578 14.3772295,7.18795662 C14.7192291,6.99851507 20.2967786,5.90351601 21.6119994,5.76714496 C22.0020267,5.72683825 23.1298866,5.59382609 24.1178855,5.47156239 C25.1064122,5.3492987 26.4105497,5.20016385 27.0164379,5.14037556 C27.6223262,5.07991549 28.3232143,4.95832357 28.5733807,4.86897702 C28.9021859,4.75141577 29.0462691,4.7413391 29.093769,4.83135742 C29.1534078,4.94555978 30.1482679,4.91465797 31.3526555,4.7601489 C31.777791,4.71504399 32.203396,4.6774208 32.6293485,4.6472901 C33.5624586,4.57809691 34.9842904,4.34498974 35.7801784,4.13136416 C36.0050115,4.07090409 36.228789,4.05075073 36.2773445,4.086355 C36.3264278,4.12263104 36.9850938,4.04000228 37.7419263,3.90430301 C38.860814,3.70276944 39.1579525,3.68261608 39.3337023,3.79413132 C39.5110355,3.90699012 39.7379797,3.88818032 40.5818954,3.69067742 C41.9868383,3.36150593 43.8203363,2.93425476 44.7344465,2.72331629 C45.1503349,2.62658018 45.7546398,2.47610178 46.0776395,2.38809879 C46.4006391,2.30076758 46.8049164,2.22955905 46.9759163,2.22955905 C47.1474438,2.22955905 47.4788879,2.15767874 47.713221,2.06833219 C48.1074706,1.91852557 48.9154975,1.75259627 51.0704118,1.37707205 C51.8932826,1.24104478 52.7132035,1.07752224 53.5293258,0.8866737 C54.0491863,0.76978423 54.900491,0.591091133 55.4208793,0.48965257 L56.6506002,0.247812287 C57.7541823,0.0314995895 57.9647654,0.0355302608 58.1843207,0.278042322 C58.3025428,0.408367363 58.3996538,0.572281333 58.3996538,0.642818082 C58.3996538,0.712683053 58.4313205,0.763738223 58.470376,0.757020438 C58.5094315,0.749630874 58.6392647,0.749630874 58.7574868,0.757020438 C58.9385144,0.767768895 58.9580421,0.804044937 58.8788755,0.980050921 C58.7632923,1.23667033 58.8561811,1.37505672 59.029292,1.20442496 C59.2245696,1.01229629 59.1797085,1.18494338 58.9554032,1.49127441 C58.8377089,1.65182948 58.6017925,1.7955901 58.3838205,1.8392557 C58.0666264,1.90307467 58.0302098,1.93800715 58.1320708,2.0837831 C58.2845984,2.30211113 58.1558208,2.3155467 64.2157586,1.44559347 C64.6316471,1.38513339 65.3768685,1.31258131 65.8708679,1.28302305 C66.3648674,1.25279302 67.258922,1.17553848 67.8568936,1.11104774 C68.4548651,1.04588522 69.2423087,0.972661357 69.606475,0.94780555 C69.9706413,0.923621521 70.4366685,0.851069437 70.6419739,0.787250473 C70.847807,0.72343151 71.6637505,0.667673889 72.4554163,0.664314996 C73.2470822,0.660284325 73.9511369,0.634756739 74.0202758,0.607213818 C74.19022,0.539364183 76.4063565,0.401649578 76.9336059,0.425833606 C77.1668834,0.437253842 77.4228554,0.515851934 77.5025497,0.601167811 C77.6804107,0.792624702 78.1342991,0.811434501 80.2454079,0.717385503 C81.2159902,0.673719896 82.1068781,0.574968447 82.3992667,0.478232334 C82.7813773,0.351937964 83.41471,0.317005479 85.0946248,0.33044105 C86.3027069,0.341189507 88.3124824,0.310287693 89.5606755,0.263934972 C92.0903117,0.169885973 91.9552007,0.168542416 94.5729756,0.303569908 C96.2676682,0.390901121 97.2456394,0.394260014 98.7339711,0.319020815 C98.9941653,0.305585243 99.1324429,0.271996315 99.0411375,0.243781615 C98.9503598,0.215566916 98.8759432,0.139655938 98.8759432,0.0751651961 C98.8759432,-0.00208933869 99.1414151,-0.0202273599 99.6559979,0.0227664681 C100.085081,0.0590425106 101.372329,0.139655938 102.51655,0.202131345 C103.661299,0.264606751 105.129048,0.36806065 105.779269,0.430536056 C108.391766,0.68581191 109.387682,0.775158459 110.744597,0.877940579 C114.137149,1.13523177 115.925786,1.23734211 117.789895,1.28100772 C118.648061,1.30183285 119.712059,1.35288802 120.154337,1.39521007 C120.642118,1.43918359 121.130971,1.46114213 121.619974,1.46104437 C121.98414,1.45567014 122.707195,1.50135109 123.227583,1.56181116 C123.747972,1.62227123 125.432109,1.69415153 126.971107,1.72169445 C128.509578,1.7485656 129.956743,1.81977412 130.186326,1.8802342 C130.416437,1.94069427 130.938408,2.01727702 131.347436,2.05019417 C131.755935,2.0837831 132.223546,2.13752539 132.387157,2.16909898 C132.946601,2.2779271 133.819544,2.35115097 135.096237,2.39750369 C136.220403,2.43915396 137.312901,2.53790541 138.926316,2.74414143 C139.18651,2.77773036 139.548038,2.81803707 139.730121,2.83550331 C139.912204,2.85296956 140.380343,2.89932228 140.77037,2.93895721 C141.160925,2.97926392 141.820647,3.04173933 142.236007,3.08003071 C142.652423,3.11765031 143.013951,3.16400303 143.039812,3.18281283 C143.066201,3.20229441 143.329562,3.24797535 143.625645,3.28559495 C143.9212,3.32254277 144.225727,3.38165928 144.301199,3.41659177 C144.377727,3.45085248 144.816838,3.49451808 145.277059,3.5126561 C146.541086,3.56371127 146.539503,3.5630395 146.539503,3.74441971 C146.539503,3.83712515 146.584364,3.91236435 146.63978,3.91236435 C146.694669,3.91236435 146.708391,3.85391961 146.671447,3.78136753 C146.624475,3.69202098 146.655613,3.67388296 146.76803,3.72560991 C146.858808,3.7665884 147.026641,3.80084911 147.141696,3.80084911 C147.282613,3.80084911 147.354918,3.87340119 147.364418,4.02522315 C147.381307,4.29393457 147.330113,4.30602659 147.140641,4.08098077 C146.942724,3.84585827 146.721058,3.86399629 146.787558,4.10919547 C146.82028,4.23011561 146.810252,4.25698675 146.761169,4.180404 C146.706808,4.09508812 146.44028,4.07896543 145.924642,4.1300206 C145.036921,4.21735182 144.367172,4.19383957 143.134812,4.02925382 C142.640812,3.96274774 142.002202,3.88146254 141.716147,3.84854539 C141.430091,3.81495646 141.146147,3.76860374 141.085453,3.74509149 C141.024759,3.72157924 140.950342,3.77868042 140.920259,3.87272941 C140.87962,3.99902378 140.789898,4.02320781 140.574037,3.96677841 C140.235204,3.87877542 140.01776,3.84518649 139.115261,3.74240437 C138.751094,3.7007541 138.428095,3.64835537 138.396956,3.6255149 C138.330456,3.57714685 137.065902,3.5690855 135.332681,3.60536155 C134.233321,3.62954557 133.458017,3.56505483 132.879573,3.40248442 C132.553407,3.31112254 130.273409,3.2714876 130.273409,3.35747526 C130.273409,3.40181264 130.56052,3.47436473 130.912019,3.51870211 C131.262464,3.56371127 131.635074,3.6194689 131.739046,3.6443247 C132.468962,3.81495646 134.422793,4.00708513 135.994514,4.06082741 C136.35868,4.07426298 136.701735,4.11860037 136.756624,4.16025064 C136.84793,4.22944383 139.743843,4.49748348 139.899538,4.45113076 C139.936482,4.43971052 140.28587,4.46590989 140.675898,4.50957549 C141.279147,4.57608157 142.819201,4.71043728 143.205534,4.72991886 C143.345395,4.73663665 143.361756,4.88174082 143.233506,4.97578981 C143.141673,5.04296767 142.428646,5.05909036 141.783702,5.00803519 C141.586841,4.9919125 141.391036,4.91264263 141.348814,4.83135742 C141.291286,4.72185752 141.128731,4.7037195 140.713898,4.75947712 C140.406731,4.80179917 140.127537,4.85621323 140.092704,4.88039726 C140.057871,4.90525307 139.964454,4.84882367 139.885815,4.75477467 C139.806649,4.66072567 139.719565,4.62780852 139.692121,4.68087903 C139.638816,4.78298937 137.729845,4.73932376 137.176735,4.62310607 C136.994652,4.58481469 136.673763,4.54249264 136.463708,4.53040063 C136.253653,4.51696506 135.987653,4.44777186 135.872597,4.374548 C135.70582,4.26840699 135.663598,4.27176588 135.663598,4.39134246 C135.663598,4.48001724 135.536931,4.5532411 135.356431,4.57070734 C134.608571,4.64258765 133.561989,4.63586986 132.731795,4.55391288 C132.135407,4.49479636 131.880491,4.50218593 131.972852,4.57608157 C132.345462,4.87166414 131.64563,5.01811186 130.556825,4.87166414 C129.590993,4.7413391 129.418938,4.73462131 129.001466,4.80986051 C128.786133,4.84882367 128.484244,4.84076232 128.330133,4.79172249 C127.925328,4.662741 125.820025,4.43500807 124.882693,4.41821361 C124.409126,4.40829447 123.935963,4.3778228 123.464028,4.32685172 C123.12625,4.28452967 122.445418,4.2240696 121.95089,4.19249601 C121.083555,4.12917755 120.216727,4.05505444 119.350532,3.97013731 C118.319815,3.87198429 117.28809,3.79181119 116.255647,3.72964058 C115.007981,3.66246272 114.857037,3.67321118 114.802676,3.84115582 C114.751481,4.00036734 114.586815,4.02723848 113.689066,4.02320781 C113.109567,4.0205207 112.44404,4.05948385 112.210234,4.10919547 L111.784846,4.20055735 L112.494178,4.32550817 C112.884206,4.39470136 113.352344,4.4497872 113.533899,4.44777186 C113.71651,4.44575653 114.461204,4.52301106 115.189009,4.61840362 C115.917341,4.71379618 117.300118,4.84882367 118.262783,4.91734508 C119.224921,4.98653827 120.106837,5.0671517 120.22242,5.09670996 C120.338531,5.12626821 121.295919,5.19949208 122.350418,5.25995215 C124.245666,5.36743672 125.574081,5.45611149 126.584774,5.54075559 C126.870829,5.56493961 127.852495,5.63547636 128.76555,5.69795177 C129.679132,5.76042718 130.487687,5.83432282 130.562631,5.86186574 C130.637575,5.88873688 130.784297,5.94986873 130.887742,5.99622145 C130.991714,6.04324595 131.240825,6.09564468 131.440852,6.11243914 C131.640352,6.12990539 131.853574,6.22395439 131.913741,6.32203406 C132.000824,6.46310755 132.247296,6.5054296 133.110739,6.52894185 C133.708711,6.54506454 134.240183,6.58940192 134.292432,6.62702152 C134.344682,6.66464112 134.70621,6.72577297 135.096237,6.76137724 C136.960874,6.93469611 138.825511,7.0757696 139.682621,7.10801497 C140.203009,7.12749655 141.309758,7.23162223 142.142063,7.3391068 C142.97384,7.44659137 144.037839,7.5520606 144.506505,7.57288574 C147.746001,7.71395924 150.333693,7.89332411 151.693247,8.06865832 C152.161385,8.12911839 152.982079,8.21107538 153.516717,8.25071031 C154.051355,8.29101702 154.511577,8.36625622 154.539022,8.41865495 C154.566466,8.47172546 154.448244,8.51942174 154.276189,8.52412419 C154.104133,8.52882664 153.843411,8.54360576 153.695634,8.55636956 C153.549439,8.56846157 153.410634,8.54360576 153.38794,8.49994016 C153.365245,8.45694633 153.189495,8.47306902 152.997384,8.53554442 C152.802107,8.59936338 152.374607,8.61750141 152.028913,8.57585114 C151.688497,8.53554442 149.877693,8.48180214 148.00514,8.45828989 C146.132586,8.43410586 143.898505,8.38170713 143.04034,8.34140042 C141.510314,8.27086367 141.077008,8.31452927 142.080313,8.43813653 C142.358979,8.47172546 142.607035,8.52479596 142.632368,8.55435422 C142.699923,8.63496765 142.354229,8.83247055 142.067118,8.87815149 C141.733036,8.93189377 141.62748,9.07363905 141.913008,9.08640284 C142.039146,9.09110529 142.695173,9.14283224 143.371256,9.2006052 C144.047339,9.25770638 145.376809,9.33496091 146.326808,9.37123695 C147.886918,9.43169702 148.05264,9.45655283 148.05264,9.63390237 C148.05264,9.88111688 148.432639,9.93956162 150.727415,10.0443591 C151.652608,10.0866811 152.432135,10.1639357 152.459052,10.2163344 C152.485968,10.2680613 152.694968,10.3103834 152.922968,10.3103834 C153.699856,10.3103834 153.482412,10.6207451 152.527135,10.8733338 C152.257969,10.9445423 151.896441,10.9935822 151.723858,10.9821619 C150.57172,10.906251 150.874137,11.1272661 152.166135,11.3059592 C152.686524,11.3778395 153.409578,11.4604683 153.773745,11.4906983 C154.137911,11.5209284 154.797632,11.5954958 155.23991,11.6572994 C155.681659,11.7184313 156.575186,11.8024036 157.225935,11.8427103 C158.026573,11.8930937 158.43824,11.9643022 158.502628,12.0643972 C158.554878,12.1450106 158.892128,12.2437621 159.258933,12.2840688 C159.623099,12.3243755 159.963516,12.4184245 160.015766,12.4943355 C160.067488,12.5695747 160.421099,12.665639 160.80057,12.7072893 C161.18057,12.7489396 161.586958,12.8570959 161.703069,12.947786 C161.837125,13.0519117 162.246152,13.1305098 162.809818,13.1620834 C164.024761,13.2292612 164.976871,13.3555556 165.029649,13.4569942 C165.085066,13.5631352 164.256983,13.7156289 164.129789,13.6222517 C164.077011,13.5839603 164.034789,13.6007548 164.034789,13.6591995 C164.034789,13.7176443 164.183622,13.7982577 164.365705,13.8392362 C164.725122,13.9191778 164.793205,14.0589078 164.531427,14.1791561 C164.22215,14.3215732 164.654927,14.546619 165.627093,14.7501679 C166.443564,14.9201279 166.95973,15.1310664 166.583425,15.1404713 C166.229814,15.1492044 166.775536,15.3473791 167.343424,15.4159005 C167.681202,15.4575507 168.00684,15.5395077 168.067007,15.599296 C168.127701,15.6584125 168.445951,15.7585075 168.775284,15.8216547 C169.689394,15.9963171 169.679366,16.1373906 168.746784,16.2240501 C168.398451,16.2562954 168.080201,16.3523598 167.984146,16.4544701 C167.849563,16.5968872 167.685424,16.6143534 167.085869,16.5478473 C165.866704,16.4128199 165.624982,16.4390192 165.441843,16.7265404 C165.352121,16.8676139 165.297232,17.0180923 165.319927,17.0617579 C165.342621,17.1047518 165.647148,17.1759603 165.99812,17.2189541 C166.348564,17.261948 166.677897,17.3365154 166.730147,17.3855552 C166.781869,17.4339233 167.026758,17.5091625 167.273758,17.5528281 C167.951951,17.6724047 167.812618,17.8309444 167.029397,17.8309444 C166.648342,17.8309444 166.303703,17.8692358 166.26412,17.9155885 C166.225064,17.9619412 165.828176,17.9995608 165.382732,17.9995608 C164.819594,17.9995608 164.560455,18.0425546 164.532483,18.1399625 C164.504511,18.2360269 164.606372,18.2803643 164.854427,18.281036 C165.053927,18.281036 165.366371,18.3280605 165.547926,18.3844899 C165.730009,18.4409193 166.239314,18.5188456 166.679481,18.5584806 C167.119647,18.5974437 167.528146,18.6767136 167.58673,18.7344866 C167.644785,18.7922595 167.718146,18.8097258 167.748229,18.7741215 C167.778841,18.7378455 167.90234,18.7506093 168.023201,18.8016644 C168.193146,18.8735447 168.09234,18.9111643 167.581452,18.9662502 C166.978203,19.0314127 166.289981,19.1953267 165.926343,19.3605842 C165.695176,19.4653816 166.054592,19.5809276 167.131786,19.7475286 C167.664841,19.8301574 168.101312,19.9275653 168.101312,19.9638413 C168.101312,20.0007892 168.377868,20.0095223 168.716173,19.9839947 C169.210172,19.9470469 169.330506,19.9698873 169.330506,20.1015559 C169.330506,20.3051048 169.031256,20.6376352 168.850228,20.6356199 C168.739395,20.6342763 168.740451,20.6154665 168.857617,20.5247764 C168.979006,20.432071 168.974784,20.4159483 168.831228,20.4146048 C168.738339,20.4132612 168.637534,20.4911875 168.606395,20.5872518 C168.558895,20.7350431 168.387368,20.7525094 167.450563,20.702126 C166.277314,20.6396506 165.98862,20.714218 166.205009,21.0232361 C166.567064,21.5405056 168.043785,22.0967383 169.059228,22.0967383 C169.672505,22.0967383 169.992866,22.2324375 169.992866,22.4930876 C169.992866,22.6234127 169.841394,22.6570016 169.259783,22.6543145 C168.856562,22.6536427 168.356757,22.5992286 168.148812,22.5340661 C167.94034,22.4689036 166.960258,22.3929926 165.970148,22.3647779 C164.219511,22.3157381 164.169372,22.3204405 164.15565,22.5394404 C164.141928,22.755753 164.257511,22.9109339 164.460177,22.9498971 C164.512427,22.9599737 164.920399,23.0499921 165.366899,23.1500871 C166.828842,23.4765714 168.126646,23.6760897 169.455061,23.7768565 C170.68531,23.8709055 171.10542,23.9992152 170.978226,24.2437426 C170.949198,24.2995002 170.884809,24.3149511 170.834671,24.2786751 C170.785059,24.242399 170.756032,24.2786751 170.770282,24.3613038 C170.785059,24.4432608 170.722782,24.5023773 170.632004,24.494316 C170.541754,24.4855828 170.487921,24.5178282 170.513254,24.5661963 C170.53806,24.6138926 170.414032,24.6857729 170.237227,24.724736 C169.855644,24.8100519 169.765394,25.0122572 169.960672,25.3434441 C170.064644,25.5201218 170.076255,25.6255911 170.001838,25.7317321 C169.879922,25.9057227 169.959616,26.0246275 170.197116,26.0246275 C170.293171,26.0246275 170.371282,26.0461245 170.371282,26.071652 C170.371282,26.0978514 170.399254,26.2060077 170.43356,26.3134923 C170.491615,26.4915136 170.428282,26.5015903 169.653505,26.4323971 C169.190117,26.3920904 168.650728,26.3282714 168.455451,26.2913236 C168.173618,26.2382531 168.101312,26.2604218 168.101312,26.4001518 C168.101312,26.4962161 168.032701,26.6204951 167.948785,26.6762527 C167.732396,26.8200134 167.862229,27.4669361 168.133507,27.5965894 C168.327729,27.6899666 168.328784,27.6953408 168.148812,27.7094482 C167.95934,27.7242273 167.95934,27.7242273 168.148812,27.8209634 C168.333534,27.9150124 168.074924,27.9553191 167.108036,27.9835338 C166.704814,27.9949541 166.399231,28.1461042 166.399231,28.3335305 C166.399231,28.4342972 166.301064,28.4947573 166.139037,28.4961009 C165.979285,28.4994639 165.820182,28.5228654 165.664037,28.5659658 C165.462426,28.6297848 165.45926,28.6432204 165.616537,28.7849657 C165.708898,28.8682662 165.900481,28.9374594 166.042981,28.9394747 C166.185481,28.9414901 166.58237,29.1201832 166.925425,29.3358241 C167.271647,29.5541521 167.687007,29.7288145 167.859063,29.7288145 C168.431701,29.7288145 169.326283,29.8719034 169.28195,29.9565475 C169.257672,30.0029002 169.31045,30.0331302 169.399117,30.0250689 C169.488895,30.0179986 169.570143,30.0924692 169.593339,30.2030902 C169.636616,30.4503047 169.078228,30.8755405 168.790062,30.8157522 C168.675006,30.7915682 168.565229,30.8271725 168.546229,30.8943503 C168.501895,31.0528901 167.397785,31.0978992 166.956564,30.9588411 C166.769203,30.8997246 165.800732,30.8379209 164.805344,30.8211265 C163.121734,30.7929118 162.625096,30.850013 163.254734,31.0004914 C163.397234,31.0340803 163.705984,31.1133502 163.940317,31.1764973 C164.213152,31.2448508 164.489931,31.284619 164.767872,31.2954021 C164.988482,31.2980893 165.16951,31.3511598 165.16951,31.4129634 C165.16951,31.4740952 165.23601,31.5251504 165.317288,31.5251504 C165.399093,31.5251504 165.553204,31.5802363 165.660343,31.6480859 C165.851926,31.7703496 165.851398,31.7730367 165.63026,31.9040335 C165.241816,32.1337818 165.362149,32.3500945 166.014481,32.5959654 C166.348564,32.7222598 166.642536,32.8996094 166.666814,32.9889559 C166.691092,33.0789742 166.748619,33.1817563 166.794536,33.2173606 C166.939147,33.3302194 166.766036,33.6761854 166.602425,33.601618 C166.519564,33.5639984 166.478398,33.5646701 166.510064,33.6022897 C166.541731,33.6399093 166.460981,33.7984491 166.329564,33.9543017 C166.156981,34.1585224 165.979648,34.2424947 165.686732,34.2559303 C165.46401,34.266007 165.298815,34.3069854 165.319927,34.3479639 C165.341038,34.3882706 164.95101,34.396332 164.453316,34.366102 C163.729734,34.3217646 163.516512,34.3452768 163.389318,34.4809761 C163.213568,34.6704176 162.28468,34.748344 161.80018,34.61466 C161.615458,34.5636049 161.480347,34.5790558 161.439709,34.6563103 C161.404347,34.7241599 161.275042,34.7799176 161.152598,34.7799176 C160.867598,34.7799176 160.630098,34.8874021 160.630098,35.0163836 C160.630098,35.0714694 160.691848,35.1171504 160.76732,35.1171504 C160.842793,35.1171504 160.940431,35.1930614 160.984765,35.2871104 C161.034376,35.3925796 161.404347,35.5356684 161.959041,35.6633064 C163.05154,35.9158951 163.855873,36.301496 163.779873,36.5366185 C163.748378,36.6286488 163.666243,36.6738734 163.591984,36.6400724 C163.518095,36.6064835 163.481151,36.6239497 163.510179,36.6803791 C163.539206,36.7354649 163.451595,36.9390139 163.314901,37.1311425 C163.132818,37.3884337 163.017235,37.4616576 162.876846,37.4092588 C162.771818,37.3689521 162.710596,37.3830595 162.740152,37.4394889 C162.769707,37.4959183 162.645152,37.5469735 162.464652,37.5536912 C162.283624,37.5590655 161.836597,37.6510991 161.471903,37.7572401 L160.807959,37.9500406 L161.01907,38.2174085 C161.135181,38.3638562 161.269764,38.4841045 161.317792,38.4841045 C161.366348,38.4841045 161.551597,38.5660615 161.729986,38.6668283 C162.041375,38.8421625 162.048763,38.8603005 161.911014,39.1102022 C161.820236,39.2741161 161.802291,39.3963798 161.862458,39.4400454 C161.887354,39.457834 161.905241,39.4881047 161.911764,39.5234834 C161.918286,39.558862 161.912844,39.5961008 161.896764,39.6261281 C161.857708,39.7013673 161.807041,39.6886035 161.753208,39.5905238 C161.699375,39.4917724 161.645542,39.4783368 161.599625,39.5529042 C161.56057,39.6153796 161.401181,39.7403305 161.244959,39.829677 L160.961015,39.9922474 L161.260264,40.029867 C161.584319,40.0715173 161.757958,40.3590385 161.523097,40.4665231 C161.443931,40.5027991 161.355264,40.5041427 161.326236,40.469882 C161.297736,40.4362931 161.132542,40.5027991 160.959431,40.6176733 C160.745305,40.7508242 160.518612,40.8483608 160.284932,40.9078816 C160.087543,40.952219 159.867988,41.0556729 159.798321,41.1389734 C159.632599,41.3358045 159.567683,41.3317739 158.688934,41.0650778 C157.899907,40.8252528 157.677713,40.8480933 157.354185,41.1994335 C157.171574,41.3969364 157.098213,41.4063413 156.604214,41.298185 C155.955576,41.1557679 154.734827,41.1376299 154.804494,41.2713138 C154.830882,41.322369 155.163382,41.4271664 155.542854,41.504421 C156.509742,41.6999085 156.618464,41.7422306 156.459603,41.8584483 C156.184631,42.0599818 157.416463,42.5369446 158.62085,42.6941408 C158.945961,42.7364629 159.233072,42.8110303 159.257878,42.8593983 C159.283211,42.9077664 159.2146,43.0824288 159.104822,43.2470146 C158.922211,43.5231156 158.918517,43.5614069 159.059433,43.7454743 C159.142822,43.8556459 159.211433,43.9732072 159.211433,44.0074679 C159.211433,44.1458543 157.610157,43.946336 157.083963,43.7414436 C156.326603,43.4478764 154.793938,43.233579 154.652494,43.4015236 C154.577549,43.4901984 154.576494,43.5667812 154.649855,43.6715786 C154.749077,43.8126521 154.900549,43.8731122 156.161936,44.2748358 C156.555131,44.3997866 156.753047,44.5193632 156.753047,44.6315502 C156.753047,44.7739672 156.641158,44.7887464 156.051103,44.7255992 C155.601437,44.6765593 155.328049,44.6920103 155.288993,44.7659059 C155.255743,44.8297249 155.280549,44.8821236 155.34441,44.8821236 C155.407743,44.8821236 155.438354,44.9083229 155.411437,44.9398965 C155.348104,45.0151357 154.008606,44.6819336 153.875606,44.5569828 C153.770578,44.4595749 152.389913,44.2076579 152.095413,44.2318419 C152.004108,44.2399033 151.929691,44.3090965 151.929691,44.386351 C151.929691,44.4636055 151.907524,44.5946024 151.880608,44.6779029 C151.834163,44.8216635 152.98894,45.1125436 154.979188,45.4578378 C155.278437,45.5095648 155.677437,45.6284696 155.865853,45.7225186 C156.05427,45.8158958 156.341381,45.8924785 156.504464,45.8924785 C156.932491,45.8938221 157.547879,46.1161808 157.44813,46.2337421 C157.402213,46.2888279 156.826408,46.3479444 156.16827,46.3654107 C155.510659,46.3828769 154.979188,46.4057174 154.98816,46.4164658 C154.996604,46.4265425 155.214049,46.5333553 155.471076,46.6529319 C155.918631,46.861855 155.929187,46.8766341 155.724409,47.0069592 C155.564493,47.1083977 155.393493,47.1124284 155.039882,47.0224101 C154.464605,46.8759624 154.388605,46.873947 154.388605,47.0056156 C154.388605,47.0627168 154.515272,47.1419867 154.670966,47.1829652 C155.188188,47.3173209 155.076299,47.4637686 154.456161,47.4637686 C154.095161,47.4637686 153.729939,47.5349771 153.552606,47.6397746 C153.373162,47.7459156 153.172079,47.7848788 153.04594,47.7371825 C152.775718,47.6357439 148.335528,47.596109 148.387778,47.6968758 C148.497556,47.9078142 147.25728,47.9064707 146.198558,47.6941887 C144.054727,47.2649221 142.230729,47.0210665 141.054314,47.0056156 C140.404093,46.9975543 139.425066,46.9216433 138.878816,46.8363274 C138.159555,46.7298229 137.438846,46.6397901 136.717041,46.5662724 C136.073681,46.5031253 135.52057,46.4319167 135.48732,46.4077327 C135.45407,46.3842205 135.107848,46.3324935 134.717821,46.2928586 C134.370883,46.2585633 134.024284,46.2189255 133.6781,46.1739538 C133.298628,46.1195397 131.573324,46.0053373 130.320381,45.9515951 C129.247418,45.9002639 128.175436,45.8198562 127.105163,45.7104266 C126.792718,45.6768376 125.579886,45.6284696 124.409804,45.602942 C123.239194,45.5760708 121.856418,45.5129237 121.33603,45.4618685 C120.816169,45.4121569 119.377976,45.3752091 118.139283,45.3812551 C116.267258,45.39066 115.873536,45.42089 115.798591,45.5579328 C115.722592,45.6990063 115.696203,45.6996781 115.624425,45.5673377 C115.567425,45.4625403 115.446036,45.432982 115.259731,45.4766476 C115.10562,45.5135954 114.933565,45.4880678 114.876565,45.4202182 C114.819565,45.3530404 114.632732,45.2865343 114.461204,45.2737705 C114.292405,45.2614803 114.1247,45.2313708 113.959816,45.1837522 C113.392983,44.9842339 112.8024,44.926461 112.564373,45.0467093 C112.373317,45.1434454 111.896735,45.0292431 111.962707,44.9029487 C111.986985,44.8559242 111.531513,44.8041973 110.949902,44.7880746 C109.384515,44.7430654 109.222488,44.7229121 109.045154,44.5482496 C108.901071,44.4065044 108.886821,44.4132221 108.915321,44.6073662 C108.93696,44.7551574 108.901599,44.8129304 108.805544,44.7860593 C108.688461,44.7593346 108.569822,44.7451775 108.450877,44.7437372 C108.333711,44.7423936 108.238183,44.7027587 108.238183,44.6550624 C108.238183,44.6080379 108.169572,44.538173 108.085655,44.4998816 C107.974822,44.4494982 107.948433,44.4783847 107.990128,44.6060226 C108.029183,44.7269427 108.010183,44.7538139 107.929961,44.6933538 C107.865045,44.644314 107.408517,44.5885564 106.91399,44.5690748 C105.874797,44.5287681 106.029435,44.5287681 101.145385,44.5489214 C99.0907485,44.5583263 97.1469451,44.5287681 96.825001,44.4844307 C96.5030569,44.4394215 96.1689739,44.4353908 96.0813629,44.4756976 C95.9203908,44.5489214 92.8313109,44.6933538 91.8818397,44.6725287 C91.1397849,44.6557342 90.2979803,45.1736755 90.7661187,45.3590864 C90.8357853,45.3859575 90.7872298,45.4658992 90.6478966,45.5539021 C90.5180634,45.6345156 90.3882302,45.7440155 90.3592024,45.7957424 C90.2547026,45.9838404 89.4514257,46.0893097 89.2239537,45.9442055 C89.0798705,45.8528436 88.6993431,45.8205982 88.100316,45.8474694 C87.6020943,45.8703099 85.9654572,45.9159908 84.4639311,45.9482362 C82.9618772,45.9811533 81.6297675,46.0382545 81.503101,46.0758741 C81.3769622,46.1134937 80.8402128,46.1524568 80.3103245,46.1618617 C79.7804362,46.1712666 79.2616312,46.2357574 79.1576591,46.3049506 C78.9718815,46.4292296 78.0947158,46.6327785 77.9479937,46.585754 C77.7669661,46.5286528 77.430772,46.5427602 77.1246613,46.6213583 C76.9425781,46.6683828 76.7082451,46.697941 76.6042729,46.6878644 C76.5003008,46.6777877 76.3298288,46.6603214 76.2258567,46.6489012 C76.1218846,46.6381527 75.6326351,46.6892079 75.1386357,46.7610882 C74.6446362,46.8336403 74.0561646,46.892085 73.8313315,46.8907415 C73.6064984,46.8893979 73.3721653,46.9364224 73.3109432,46.9948672 C73.249721,47.0533119 73.0613046,47.1359407 72.8924159,47.1789345 C72.6406661,47.2427535 72.5852495,47.2226001 72.5852495,47.0667475 C72.5852495,46.8988028 72.5071385,46.8853673 71.8991392,46.9565758 C71.5223062,47.0002414 70.532724,47.0472659 69.7009471,47.0613732 C68.8686425,47.0761524 67.9582268,47.1466891 67.6779771,47.2192412 C67.4939035,47.2697087 67.3087573,47.3136154 67.1227555,47.3509098 C67.0974222,47.3509098 67.1296166,47.4268208 67.1945332,47.5195262 C67.2594498,47.6122317 67.4563107,47.6874709 67.6315327,47.6874709 C67.8072825,47.6874709 67.9513657,47.7089678 67.9513657,47.7344954 C67.9513657,47.7606947 67.9772268,47.8621333 68.0083656,47.9595412 C68.0875322,48.202725 67.8210047,48.190633 67.6109494,47.9414032 C67.4916717,47.8003297 67.4351996,47.7848788 67.4066996,47.8863173 C67.3855885,47.9629001 67.3285886,47.9971608 67.2810886,47.9629001 C67.2335887,47.9279676 67.1945332,47.9400596 67.1945332,47.9897712 C67.1945332,48.0401546 67.0990055,48.0871791 66.981839,48.0945687 C66.8646724,48.1019582 66.2160342,48.1657772 65.5394239,48.2356422 C64.863869,48.3055071 63.5016761,48.3827617 62.5131494,48.4076175 C61.5251504,48.4318015 60.6099848,48.4801696 60.4801516,48.5137585 C60.0394576,48.6279609 57.6169602,48.8946569 56.3191561,48.9705679 C53.9135476,49.1116414 52.0900774,49.5200828 51.7143,50.001748 C51.5966057,50.1522264 51.3891892,50.2738183 51.2403561,50.2798643 C50.0164407,50.3268888 48.3169981,50.478039 47.5712489,50.6063487 C47.1666864,50.6725577 46.7610908,50.7281032 46.3547225,50.7729498 C45.9784205,50.8136108 45.6034389,50.8720961 45.230557,50.948284 C44.9693073,51.0074005 44.7397242,51.0557686 44.721252,51.0557686 C44.7022521,51.0557686 44.6869465,50.9261153 44.6869465,50.7682474 L44.6869465,50.7682474 Z" transform="rotate(180 85.5 25.528)"/>
</svg>
