<?xml version="1.0" encoding="UTF-8"?>
<svg width="171px" height="52px" viewBox="0 0 171 52" version="1.1" xmlns="http://www.w3.org/2000/svg" xmlns:xlink="http://www.w3.org/1999/xlink">
    <!-- Generator: Sketch 51.2 (57519) - http://www.bohemiancoding.com/sketch -->
    <title>highlight-yellow-lg</title>
    <desc>Created with Sketch.</desc>
    <defs></defs>
    <g id="Page-1" stroke="none" stroke-width="1" fill="none" fill-rule="evenodd">
        <g id="home" transform="translate(-137.000000, -120.000000)" fill="#FFE066">
            <g id="Group-2" transform="translate(50.000000, 120.000000)">
                <g id="intro">
                    <path d="M131.686947,50.7682474 C131.686947,50.6103794 131.64578,50.5109562 131.595113,50.547904 C131.544974,50.5855236 131.440475,50.4363887 131.363419,50.2187325 C131.282141,49.9876407 131.157586,49.8210396 131.065225,49.8210396 C130.940142,49.8210396 130.930114,49.7874507 131.017725,49.6631716 C131.102169,49.5422515 131.099003,49.4945552 131.005058,49.4569356 C130.909003,49.4186442 130.913225,49.3649019 131.025114,49.2036751 C131.13278,49.0471507 131.138586,48.9873624 131.048336,48.9510863 C130.98342,48.9255588 130.930114,48.855022 130.930114,48.7945619 C130.930114,48.7341019 130.972336,48.7159638 131.024058,48.7542552 C131.077364,48.7932184 131.093197,48.7475374 131.061003,48.6481142 C131.029864,48.5520499 131.053086,48.4734518 131.112725,48.4734518 C131.191364,48.4734518 131.193475,48.4129917 131.119586,48.2490777 C131.038308,48.0690411 131.047281,48.0247037 131.167086,48.0247037 C131.287419,48.0247037 131.293753,47.9958172 131.197697,47.8742253 C131.075253,47.7190445 130.837225,47.8581026 130.868364,48.0670258 C130.876281,48.120768 130.833003,48.1872741 130.772309,48.2134735 C130.699475,48.2457189 130.680475,48.1771974 130.716364,48.0139552 C130.746448,47.8769124 130.732198,47.7922683 130.684698,47.8251855 C130.637725,47.8574308 130.514226,47.8473542 130.410253,47.8016732 C130.260365,47.7365107 130.304698,47.70225 130.622948,47.6377593 C130.873642,47.5867041 131.025114,47.4966858 131.025114,47.3979343 C131.025114,47.3106031 131.107447,47.2393946 131.20878,47.2393946 C131.309586,47.2393946 131.450502,47.1406431 131.521752,47.019723 C131.649474,46.8040821 132.130807,46.5091713 132.287029,46.5514933 C132.331362,46.5629136 132.607918,46.5011099 132.90189,46.4131069 C133.27362,46.3085496 133.649379,46.2287236 134.027638,46.1739538 C134.352749,46.1302882 134.642499,46.0490029 134.671527,45.9932453 C134.700554,45.9374877 134.817721,45.891135 134.931721,45.8897914 C135.045193,45.8884479 135.394054,45.7379695 135.70597,45.5552457 C136.018414,45.3731937 136.345636,45.2227153 136.433247,45.2213718 C136.521386,45.2200282 136.619552,45.1676295 136.651747,45.1064976 C136.683941,45.044694 136.662302,44.9943106 136.603719,44.9943106 C136.472302,44.9943106 136.519275,44.492492 136.651747,44.4810718 C136.703997,44.4770411 136.933052,44.4098633 137.161052,44.3332805 C137.389051,44.2553542 137.679329,44.222437 137.806523,44.2607284 C137.93319,44.298348 138.172273,44.2795382 138.337467,44.2190781 C138.502661,44.1586181 138.875272,44.0544924 139.16555,43.9866428 C139.962493,43.8019037 140.387354,43.6473946 140.387354,43.5432689 C140.387354,43.4344408 135.536026,43.50968 134.334805,43.6373179 C133.702,43.7044958 133.460806,43.685686 133.200084,43.5513303 C133.018001,43.4572813 132.847529,43.3733089 132.821668,43.363904 C132.795279,43.3551709 132.65014,43.2866495 132.49814,43.2127539 C132.34614,43.1381864 132.154557,43.1079564 132.072224,43.145576 C131.990418,43.1838674 130.73167,43.2329072 129.275005,43.2550759 C127.818867,43.2772446 126.435563,43.345766 126.201758,43.4068979 C125.967953,43.4687015 125.266537,43.5775296 124.643232,43.6487381 C124.019927,43.7212902 123.428289,43.8314619 123.329067,43.8946091 C123.229317,43.9577563 122.940095,43.985971 122.686234,43.9570845 C122.431845,43.9275262 122.201207,43.9483514 122.173235,44.0020937 C122.145262,44.055836 122.082457,44.0706151 122.033901,44.0356826 C121.985874,44.0000783 121.94629,44.0242624 121.94629,44.0894249 C121.94629,44.1552592 121.914624,44.198253 121.875041,44.186161 C121.717763,44.1371212 120.906042,44.3406701 120.906042,44.4300166 C120.906042,44.5395165 120.191431,44.7215685 119.921209,44.6812618 C119.821987,44.6658109 119.660487,44.7551574 119.562849,44.8801082 C119.46521,45.0043873 119.312682,45.1125436 119.223488,45.1199332 C119.134293,45.126651 118.806544,45.1441172 118.4941,45.1575528 C118.182711,45.1709884 117.756795,45.2395098 117.548851,45.3107183 C117.340379,45.3825986 117.009462,45.469258 116.813129,45.5035188 C116.616796,45.5384512 116.479046,45.6110033 116.507019,45.6647456 C116.595157,45.8340338 116.385102,45.8783712 114.742132,46.0369109 C114.654521,46.0456441 114.59066,46.1007299 114.599632,46.1591746 C114.609132,46.2176194 114.531548,46.2948739 114.427576,46.3311499 C114.277457,46.3952717 114.13393,46.4821048 114.000077,46.5897847 C113.828021,46.7288429 113.469661,46.8034103 112.722856,46.8551372 C112.152329,46.8947722 111.587079,46.9223151 111.466746,46.9155973 C111.346413,46.9088795 111.117358,46.9841187 110.957441,47.0821984 C110.792775,47.1829652 110.64183,47.2158823 110.609108,47.1574376 C110.527303,47.013677 110.194275,46.8752906 110.267109,47.0163641 C110.344164,47.1641554 110.252331,47.156094 110.000581,46.9941954 C109.492332,46.6670392 107.086195,46.9155973 106.834974,47.3206798 C106.75739,47.4463024 106.748946,47.5309465 106.811751,47.5558023 C106.865585,47.5772992 106.90939,47.6391028 106.90939,47.6941887 C106.90939,47.7486027 106.849751,47.766069 106.777446,47.7331518 C106.704613,47.6995629 106.617002,47.726434 106.582168,47.7929401 C106.490863,47.9689461 107.057168,47.9434185 107.363279,47.7573358 C107.503667,47.67202 107.810306,47.5652072 108.044111,47.5195262 C108.278444,47.4745171 108.544444,47.4207748 108.635222,47.4006214 C108.726527,47.3804681 108.800944,47.4301797 108.800944,47.5114649 C108.800944,47.6155906 108.918638,47.6471642 109.202582,47.6209648 C109.513443,47.5920783 109.566748,47.6095446 109.437443,47.6988911 C109.345082,47.7620383 109.291249,47.8547437 109.31711,47.9051271 C109.373054,48.0126117 108.844221,48.1214398 107.820861,48.2121299 C107.245584,48.2625133 107.058223,48.24236 106.99489,48.1234552 C106.934723,48.0112681 106.912029,48.0072375 106.910446,48.1093478 C106.908862,48.3155838 106.340446,48.2819949 106.136724,48.0636669 C106.041724,47.9615565 105.963613,47.9252805 105.963613,47.9837252 C105.963613,48.048216 105.656975,48.0596362 105.183559,48.0132835 C104.754476,47.9702896 104.084199,47.9078142 103.694171,47.8742253 C103.303616,47.8406364 102.844978,47.7533052 102.673978,47.6814249 C102.503506,47.6102163 102.257562,47.5752838 102.128256,47.6048421 C101.998423,47.6337286 101.865951,47.6061857 101.832701,47.5437103 C101.796285,47.4731735 101.82109,47.4637686 101.89709,47.5195262 C101.974145,47.5759556 101.997895,47.5665507 101.960423,47.4939986 C101.889173,47.3569558 101.437924,47.2333486 100.904341,47.2037903 C100.589258,47.1863241 100.524341,47.1426585 100.515897,46.9417967 C100.506397,46.7268275 100.571841,46.691895 101.13023,46.6146405 C101.47434,46.567616 101.861729,46.5394013 101.991562,46.5528369 L102.228006,46.5770209 L101.977312,46.415794 C101.541896,46.1349906 101.118091,46.0160858 100.289481,45.9442055 C99.8472033,45.9059141 99.2091207,45.7917118 98.8708155,45.690945 C98.0933997,45.4591814 95.3954026,45.4410433 95.2777083,45.6674327 C95.2375111,45.7451035 95.1574498,45.7710166 95.0929863,45.727221 C94.9346531,45.6110033 93.1940439,45.5727119 93.2536827,45.6855707 C93.3085716,45.7923835 93.2948493,45.7937271 92.0577396,45.8387363 C91.1842683,45.8703099 90.8158798,45.9086012 89.5085757,46.1040888 C88.9121874,46.1927636 88.5638545,46.1417084 88.2229104,45.9159908 C88.0804106,45.8205982 88.1110216,45.766856 88.4551324,45.5095648 C88.7316876,45.3013134 89.0705206,45.1797215 89.5814089,45.1031387 C90.4538247,44.9721419 91.2861293,44.8075562 91.8856842,44.6463293 C92.2445727,44.550265 92.3158226,44.4911485 92.2783505,44.3205167 C92.2514338,44.198253 92.1780728,44.1364494 92.0999618,44.1727254 C92.0271285,44.2056426 91.9674897,44.1767561 91.9674897,44.1082347 C91.9674897,44.0397133 92.0413785,43.9832839 92.1326839,43.9826121 C92.2741282,43.9812685 92.2778227,43.9651458 92.1564339,43.8717686 C92.0667118,43.8032472 92.056684,43.7622687 92.1300451,43.7615969 C92.1933783,43.7602534 92.2208227,43.6836706 92.1902117,43.5902934 C92.1522117,43.4727322 92.2466838,43.3632323 92.5005447,43.2288765 L92.8657665,43.0367479 L91.9421564,42.96957 C91.4460509,42.9323568 90.9492071,42.9133152 90.4522413,42.9124688 C90.1408528,42.9191866 89.8869919,42.9178431 89.8869919,42.9097817 C89.8869919,42.9023922 89.9714363,42.7794567 90.0759362,42.6370396 C90.1799083,42.4946226 90.2648804,42.4126656 90.2648804,42.4543159 C90.2648804,42.4959661 90.3609359,42.4556594 90.4781024,42.3642975 C90.5952689,42.2736074 91.0064074,42.1405953 91.3922125,42.0700585 C91.7774899,41.99885 92.2614616,41.8698685 92.4678225,41.7838809 C92.7005317,41.6914577 92.9415681,41.6372764 93.1850717,41.622654 C93.7117933,41.616608 95.0380975,41.2074948 94.6549312,41.1692035 C94.5622083,41.1547411 94.470091,41.1345641 94.3789037,41.1087434 C94.2774759,41.0811568 94.1759661,41.0540615 94.0743763,41.0274582 C93.8579876,40.9710288 93.8442654,40.8622007 94.0437652,40.7869615 C94.1535429,40.7453112 94.3540982,40.5894586 94.4902647,40.4396519 C94.6264312,40.2898453 94.8322643,40.1675816 94.9483753,40.1675816 C95.0644863,40.1675816 95.2080417,40.0983884 95.2676805,40.0130726 C95.3563471,39.8867782 95.2782361,39.8457997 94.8296255,39.7853396 C94.5528897,39.748593 94.2766488,39.7060413 94.0010152,39.6577017 C93.6294601,39.5864932 92.1522117,39.5965698 92.0508785,39.6711373 C91.9136564,39.7719041 90.8322409,39.8189286 90.8322409,39.7248796 C90.8322409,39.6744962 90.896102,39.5710423 90.9747408,39.4944595 C91.052324,39.417205 91.116185,39.3016591 91.116185,39.2371683 C91.116185,39.1726776 91.0882129,39.153196 91.0539073,39.1941745 C91.0196018,39.2344812 90.9346297,39.2116407 90.8649631,39.1431193 C90.7947687,39.0739261 90.7382966,39.0658648 90.7382966,39.1249813 C90.7382966,39.1840978 90.6739078,39.2324659 90.5957967,39.2324659 C90.3688525,39.2324659 90.4311302,39.1122175 90.7435743,38.9483035 C91.0945462,38.7635644 91.0444073,38.6863099 90.4781024,38.5405339 C89.9619363,38.4061782 89.8637697,38.1979269 90.2337416,38.0205773 C90.6169078,37.8371818 92.4161003,37.5993722 93.4447381,37.5960133 C93.9271264,37.5946697 94.4343203,37.5597372 94.5720702,37.5187588 L94.8232921,37.4441913 L94.5541258,37.1821977 C94.4052926,37.0384371 94.2121261,36.9188605 94.1245151,36.9168452 C93.9002098,36.9107992 93.8321265,36.7327778 93.9524597,36.4660817 C94.0791263,36.1839347 94.9019309,35.6780855 95.2323195,35.6780855 C95.3716526,35.6780855 95.4524026,35.6297174 95.4191526,35.5658985 C95.3869582,35.5040948 95.2824583,35.4537115 95.1869306,35.4537115 C95.0270141,35.4537115 94.8491532,35.1735798 94.8839865,34.9767487 C94.9198754,34.7765587 93.4194048,35.0002609 93.2937938,35.2138865 C93.1977383,35.3764569 90.7826299,35.8030363 90.5456579,35.6982388 L90.3192415,35.5994874 L90.5393246,35.4597575 C90.6601855,35.3825029 91.4460458,35.1843282 92.2852116,35.0177272 C93.8210432,34.7140833 94.1952373,34.4997859 93.1887661,34.4997859 C92.8794887,34.4997859 92.5950168,34.4352951 92.5026558,34.3452768 C92.3707115,34.2162953 92.1891561,34.2129364 91.4228236,34.3237799 C90.0136585,34.5280006 89.1956038,34.6684023 89.0034929,34.7382673 C88.8762986,34.78462 88.8377709,34.7517029 88.8609931,34.61466 C88.8958264,34.4158136 89.1882149,34.1827064 89.6473811,33.9878906 C90.0421584,33.8206178 89.796742,33.6734983 89.2916593,33.774265 C89.0726317,33.8186024 88.7021321,33.889811 88.4683268,33.9334766 L88.0424106,34.0120747 L88.3970769,33.6090075 C88.5923545,33.3873206 88.7517432,33.1878024 88.7517432,33.1656337 C88.7517432,33.143465 88.4878546,33.0897227 88.1659105,33.0467289 C87.4022169,32.9439467 86.9947729,32.6906862 87.0000506,32.3218798 C87.0026895,32.127064 87.6149111,31.8670857 88.1838549,31.8180459 C88.418188,31.7972207 88.9507152,31.7004846 89.3666036,31.6024049 C89.7824921,31.5043253 90.4211025,31.4008714 90.7852687,31.3733285 C91.1968539,31.3391251 91.6071245,31.2828697 92.0149896,31.204712 C93.9524597,30.8009731 94.3884037,30.7008781 94.4723203,30.6444487 C94.5235147,30.6095162 94.3746815,30.5255439 94.141404,30.4583661 C93.9065431,30.3905164 93.7170711,30.2702681 93.7170711,30.1883111 C93.7170711,29.9995413 94.6702367,29.5890846 95.5352636,29.405689 C95.955902,29.3163425 96.2672906,29.1840021 96.3691516,29.0496464 C96.460457,28.9300698 96.7771233,28.7795914 97.0900952,28.7063676 C97.8010111,28.5404383 97.7814834,28.3825703 97.0093453,28.0439939 C96.844151,27.9714418 96.7275123,27.8538806 96.7507345,27.7820003 C96.8045678,27.6201016 97.2426228,27.3722153 97.4769559,27.3722153 C97.5735391,27.3722153 97.6263169,27.3211602 97.5941225,27.2600283 C97.5624558,27.1982247 97.2194006,27.1471695 96.8320122,27.1471695 C96.1944573,27.1471695 95.9384854,27.0329672 96.2461795,26.8851759 C96.522207,26.7528355 95.1420696,26.8247158 94.4601814,26.9772095 C93.6115157,27.1679947 93.1491828,27.088053 93.1491828,26.7514919 C93.1491828,26.5956393 93.3967103,26.3920904 94.0780707,25.9849926 C94.71932,25.601407 94.9673753,25.4005453 94.8813476,25.334711 C94.7177367,25.2097601 94.8792365,25.0814504 95.5136247,24.8328924 C96.4087349,24.4815522 97.119123,23.8937459 97.0257064,23.5800253 C96.9623731,23.3663998 97.3112339,23.2495103 98.7531212,23.0022958 C99.4693149,22.8793603 100.187092,22.701339 100.347536,22.6059464 C100.50798,22.5118974 100.847869,22.4044129 101.102785,22.367465 C101.805785,22.26737 103.150561,21.8636311 103.360616,21.6896405 C103.463005,21.6049964 103.675699,21.5317725 103.833505,21.5270701 C103.990782,21.5230394 104.204532,21.4760149 104.308504,21.4229444 C104.459448,21.3463616 104.420921,21.3235212 104.11956,21.3100856 C103.313644,21.2744813 102.885617,21.1804323 102.779006,21.014503 C102.706172,20.9009724 102.592173,20.8667117 102.448089,20.9137362 C102.258617,20.9741963 102.251756,20.9674785 102.395312,20.8599939 C102.487145,20.7921443 102.636506,20.750494 102.726228,20.7679603 C102.826046,20.7836314 102.927288,20.7619204 103.017561,20.7054849 C103.092505,20.6497273 103.239755,20.6718959 103.378033,20.7592272 C103.559588,20.8747731 103.650366,20.878132 103.789699,20.7746781 C103.903171,20.6907057 103.990254,20.6826444 104.026143,20.7518376 C104.05781,20.8122977 104.325921,20.8633528 104.621476,20.8660399 C104.917559,20.8680553 105.26642,20.9419509 105.396253,21.0299539 C105.679669,21.2220826 105.774669,21.2361899 105.774669,21.0863833 C105.774669,21.0245797 105.708169,20.9741963 105.626892,20.9741963 C105.546142,20.9741963 105.502864,20.9291871 105.531892,20.8747731 C105.559864,20.8196872 105.494419,20.7471351 105.38517,20.7135462 C105.276447,20.6799573 105.205725,20.5859083 105.22842,20.5046231 C105.270114,20.3548165 105.693391,20.2668135 107.003862,20.1364884 C108.187666,20.0182554 108.516999,19.9551082 108.516999,19.8449365 C108.516999,19.7864918 108.453666,19.7394673 108.375027,19.7394673 C108.296389,19.7394673 108.233583,19.6393723 108.233583,19.5150933 C108.233583,19.3505075 108.296916,19.2907192 108.470027,19.2907192 C108.741833,19.2907192 108.788277,19.1174003 108.537055,19.039474 C108.444166,19.0105876 107.965472,19.0139465 107.473056,19.0468636 C106.040141,19.1429279 105.466447,19.1113543 105.16667,18.9185539 C105.014142,18.8204742 104.86267,18.7606859 104.828892,18.78487 C104.795642,18.8097258 104.786142,18.6874621 104.807781,18.5134714 C104.854753,18.1345883 104.721226,18.0754718 103.750644,18.0432264 C103.169561,18.0244166 103.124172,18.0076222 103.326311,17.8833431 C103.65881,17.6791224 104.877448,17.386227 105.604197,17.3351718 C105.975752,17.3089725 106.326196,17.2169388 106.452335,17.1121413 C106.721501,16.8891109 106.883001,16.885752 107.064557,17.1013929 C107.146362,17.1988008 107.374362,17.2693375 107.601834,17.2673222 C108.302722,17.2632915 110.917858,16.9475556 111.273052,16.8239483 C111.604496,16.709746 111.614524,16.6909362 111.544857,16.3228015 C111.500524,16.0910379 111.510552,15.8948786 111.569663,15.8243418 C111.637218,15.7437284 111.634579,15.6604279 111.560691,15.5549586 C111.334802,15.2318331 111.621913,15.1653271 113.00205,15.2190693 C114.074493,15.2613914 114.409104,15.2385509 114.626548,15.1068823 C114.856659,14.9671524 115.894797,14.7750237 116.603074,14.740763 C116.707046,14.7353888 117.004712,14.6863489 117.264907,14.6312631 L117.737795,14.5304963 L117.312407,14.4492111 C117.078074,14.4042019 116.37613,14.3934535 115.751769,14.4250271 C115.090078,14.4573795 114.427915,14.4714902 113.765744,14.4673491 C113.297605,14.458616 112.382967,14.534527 111.732746,14.6352938 C110.446025,14.8341402 109.119193,14.9731984 108.548138,14.9691677 C108.349166,14.9678242 108.159167,15.010818 108.126972,15.0645603 C108.09425,15.1183026 107.934333,15.168686 107.772306,15.1767473 C107.60975,15.1848086 107.476751,15.2331767 107.476751,15.2842319 C107.476751,15.335287 107.381223,15.3446919 107.264056,15.3057288 C107.097279,15.2506429 107.081973,15.2607196 107.193334,15.3527533 C107.315251,15.4541918 107.312084,15.4709863 107.169584,15.4723299 C107.078279,15.4736734 107.003862,15.5301028 107.003862,15.599296 C107.003862,15.6758788 106.91414,15.6543819 106.771112,15.5428666 C106.512502,15.341333 106.398502,15.3104312 106.477141,15.4615814 C106.505641,15.5159955 106.444418,15.587204 106.340974,15.6194494 C106.233308,15.6530383 106.153085,15.6221365 106.153085,15.5475691 C106.153085,15.4723299 106.003724,15.4179158 105.798419,15.4179158 C105.573058,15.4179158 105.451669,15.4669556 105.465919,15.5529433 C105.481225,15.6456487 105.378836,15.6711763 105.138698,15.6349003 C104.744976,15.5744402 104.356532,15.3137901 104.354421,15.1068823 C104.353365,15.0182076 104.320115,15.0296278 104.261532,15.1371124 C104.190282,15.2681092 104.169699,15.235192 104.168115,14.9893211 C104.166532,14.5849104 104.322226,14.2396162 104.506948,14.2396162 C104.586115,14.2396162 104.624643,14.1892328 104.592448,14.1274292 C104.560782,14.0656256 104.61092,14.0112115 104.704865,14.006509 C105.016253,13.9903864 105.214698,13.9225367 105.425281,13.7586228 C105.614225,13.612175 106.058613,13.6686044 106.058613,13.8392362 C106.058613,13.870138 106.001086,13.8694662 105.931947,13.8378926 C105.861752,13.806319 105.745114,13.8681227 105.671753,13.9749354 C105.556697,14.1428801 105.556697,14.1563157 105.672808,14.0743587 C105.775725,14.000463 105.791558,14.0253188 105.740364,14.1838586 C105.700253,14.3067941 105.722419,14.4263706 105.795252,14.4814565 C105.97628,14.6171558 106.12828,14.5916282 105.964141,14.45257 C105.857002,14.3625517 105.911891,14.3477726 106.18528,14.3927817 C106.385835,14.4263706 106.625446,14.3954688 106.721501,14.3249321 C106.85239,14.2275242 106.927335,14.2295395 107.03289,14.3329934 C107.144251,14.4431651 107.185418,14.4310731 107.244001,14.270518 C107.28464,14.1603463 107.311029,14.0333802 107.302584,13.9870275 C107.294667,13.940003 107.347973,13.9023834 107.421862,13.9023834 C107.495751,13.9023834 107.571751,13.8446104 107.591806,13.7747454 C107.611862,13.7035369 107.752778,13.630313 107.905306,13.6108315 C108.058361,13.5913499 108.230416,13.4986444 108.288472,13.4039237 C108.346527,13.3098747 108.428333,13.269568 108.470555,13.3152489 C108.512777,13.3602581 108.520694,13.3085311 108.487972,13.2010465 C108.415138,12.9592063 108.595638,12.9363658 108.673749,13.1775343 C108.72336,13.3313716 108.750277,13.3293562 108.907027,13.1607398 C109.07486,12.9800314 109.084888,12.981375 109.086471,13.1835803 C109.087527,13.3629452 109.102304,13.3703347 109.17936,13.2292612 C109.316054,12.9780161 109.296526,12.923602 109.043193,12.8483628 C108.882749,12.7999947 108.817305,12.7072893 108.82786,12.5427036 C108.844221,12.2807099 109.173554,12.0852223 109.553554,12.1114217 C109.907165,12.1362775 110.219609,11.9918451 110.219609,11.8030754 C110.219609,11.6821552 110.313553,11.6465509 110.574275,11.6687196 C110.95533,11.7023086 111.596579,11.5760142 111.827218,11.4221769 C111.941746,11.3462659 111.932774,11.3261126 111.779718,11.318723 C111.558843,11.3035614 111.338198,11.2834048 111.117886,11.2582629 C110.313553,11.1682446 109.244276,11.1709317 108.857944,11.2636372 C108.593527,11.3274561 108.508555,11.3167077 108.555527,11.2253458 C108.596694,11.1474195 108.571361,11.1218919 108.489027,11.1595115 C108.410916,11.1951158 108.285305,11.0923336 108.185555,10.9109534 C108.064167,10.6906101 108.048333,10.5898433 108.129611,10.5575979 C108.206139,10.5273679 108.187666,10.46019 108.073139,10.354049 C107.917445,10.2089448 107.927472,10.2002117 108.186083,10.2532822 C108.342305,10.2855276 108.416722,10.2821687 108.351805,10.2465644 C108.112194,10.1122087 108.244139,9.97382233 108.611999,9.97382233 C108.850555,9.97382233 108.990416,10.0255493 108.991999,10.1148958 C108.992527,10.2176779 109.014166,10.2143191 109.074332,10.102132 C109.125527,10.0067395 109.177777,9.99263213 109.215249,10.0645124 C109.278582,10.1861044 109.398915,10.1766995 109.69447,10.0262211 C109.795804,9.97516588 110.018526,9.92948494 110.189525,9.92545427 C110.581664,9.91604937 110.708858,9.63726127 110.32147,9.63726127 C110.167887,9.63726127 110.02697,9.5640374 109.996359,9.46931662 C109.959415,9.35511427 110.000581,9.3007002 110.123026,9.3007002 C110.223303,9.3007002 110.338886,9.23755302 110.380053,9.15962671 C110.488775,8.95876492 110.874052,8.7209553 110.973275,8.79350739 C111.019719,8.82709632 111.084108,8.80425585 111.11683,8.74110866 C111.149552,8.67863326 111.293635,8.62690631 111.437191,8.62690631 C111.580746,8.62690631 111.929607,8.54494932 112.211968,8.44485432 C112.657939,8.28631457 112.697523,8.25003853 112.515967,8.1694251 C112.399856,8.11769816 111.610829,8.08209389 110.761108,8.09082701 C109.911387,8.09956013 109.16036,8.06529943 109.092277,8.01558781 C109.022082,7.96386086 108.940805,7.97863999 108.904388,8.04917674 C108.828388,8.19495269 105.888141,8.30579615 105.815308,8.16539443 C105.789447,8.1163546 105.702364,8.10560614 105.621614,8.14255396 C105.522392,8.18756313 105.509197,8.23458763 105.581503,8.28698635 C105.639558,8.32998018 105.55828,8.36491267 105.399947,8.36491267 C105.241614,8.36491267 105.112837,8.31721639 105.112837,8.2574281 C105.112837,8.19898336 105.04792,8.21443427 104.968753,8.29236058 C104.889587,8.37095867 104.794587,8.39850159 104.757642,8.35483599 C104.72017,8.31117038 104.795642,8.17950178 104.924948,8.06261231 L105.159809,7.85033029 L104.923364,7.90407257 C104.716476,7.95109707 104.71067,7.94505106 104.875865,7.85167384 C105.148725,7.69716477 105.597336,7.71395924 105.860169,7.88660633 C106.116141,8.05455097 106.436502,7.99946513 106.436502,7.78651132 C106.436502,7.68843165 106.623335,7.64476605 107.051362,7.64207893 C107.43664,7.63939182 107.666223,7.6837292 107.666223,7.76098374 C107.666223,7.82883337 107.719,7.80129045 107.784445,7.70052367 C107.869417,7.56751151 108.125917,7.49630298 108.706471,7.44457603 C109.148221,7.40426932 109.778915,7.30081542 110.107192,7.21415599 C110.43547,7.12682477 110.839747,7.0509138 111.005469,7.04486779 C111.171191,7.03882178 111.520052,6.96492614 111.779718,6.88095382 C112.223051,6.73719321 112.17344,6.7311472 110.975913,6.78892016 C110.27397,6.82250909 109.635359,6.85072378 109.557248,6.85206734 C109.479665,6.85273912 108.500638,6.9723157 107.382806,7.1167481 C106.263919,7.26185227 105.044753,7.3955362 104.673198,7.414346 C104.301115,7.4331558 104.016643,7.48622631 104.039865,7.53257903 C104.064143,7.57960353 103.900004,7.61722313 103.675699,7.61722313 C103.451922,7.61722313 102.885617,7.69111877 102.417478,7.78046532 C101.614729,7.93363083 99.7263424,8.09217057 99.9828421,7.98401422 C100.048286,7.95714308 100.077842,7.88794989 100.048286,7.83152049 C100.018731,7.77509109 100.114259,7.72672303 100.260453,7.72403592 C100.406647,7.72067702 100.674758,7.62259735 100.856841,7.50570788 C101.038924,7.38814664 101.273257,7.2450578 101.377229,7.18795662 C101.719229,6.99851507 107.296779,5.90351601 108.611999,5.76714496 C109.002027,5.72683825 110.129887,5.59382609 111.117886,5.47156239 C112.106412,5.3492987 113.41055,5.20016385 114.016438,5.14037556 C114.622326,5.07991549 115.323214,4.95832357 115.573381,4.86897702 C115.902186,4.75141577 116.046269,4.7413391 116.093769,4.83135742 C116.153408,4.94555978 117.148268,4.91465797 118.352655,4.7601489 C118.777791,4.71504399 119.203396,4.6774208 119.629349,4.6472901 C120.562459,4.57809691 121.98429,4.34498974 122.780178,4.13136416 C123.005012,4.07090409 123.228789,4.05075073 123.277345,4.086355 C123.326428,4.12263104 123.985094,4.04000228 124.741926,3.90430301 C125.860814,3.70276944 126.157953,3.68261608 126.333702,3.79413132 C126.511035,3.90699012 126.73798,3.88818032 127.581895,3.69067742 C128.986838,3.36150593 130.820336,2.93425476 131.734446,2.72331629 C132.150335,2.62658018 132.75464,2.47610178 133.077639,2.38809879 C133.400639,2.30076758 133.804916,2.22955905 133.975916,2.22955905 C134.147444,2.22955905 134.478888,2.15767874 134.713221,2.06833219 C135.107471,1.91852557 135.915497,1.75259627 138.070412,1.37707205 C138.893283,1.24104478 139.713203,1.07752224 140.529326,0.8866737 C141.049186,0.76978423 141.900491,0.591091133 142.420879,0.48965257 L143.6506,0.247812287 C144.754182,0.0314995895 144.964765,0.0355302608 145.184321,0.278042322 C145.302543,0.408367363 145.399654,0.572281333 145.399654,0.642818082 C145.399654,0.712683053 145.43132,0.763738223 145.470376,0.757020438 C145.509431,0.749630874 145.639265,0.749630874 145.757487,0.757020438 C145.938514,0.767768895 145.958042,0.804044937 145.878876,0.980050921 C145.763292,1.23667033 145.856181,1.37505672 146.029292,1.20442496 C146.22457,1.01229629 146.179709,1.18494338 145.955403,1.49127441 C145.837709,1.65182948 145.601793,1.7955901 145.383821,1.8392557 C145.066626,1.90307467 145.03021,1.93800715 145.132071,2.0837831 C145.284598,2.30211113 145.155821,2.3155467 151.215759,1.44559347 C151.631647,1.38513339 152.376868,1.31258131 152.870868,1.28302305 C153.364867,1.25279302 154.258922,1.17553848 154.856894,1.11104774 C155.454865,1.04588522 156.242309,0.972661357 156.606475,0.94780555 C156.970641,0.923621521 157.436669,0.851069437 157.641974,0.787250473 C157.847807,0.72343151 158.663751,0.667673889 159.455416,0.664314996 C160.247082,0.660284325 160.951137,0.634756739 161.020276,0.607213818 C161.19022,0.539364183 163.406356,0.401649578 163.933606,0.425833606 C164.166883,0.437253842 164.422855,0.515851934 164.50255,0.601167811 C164.680411,0.792624702 165.134299,0.811434501 167.245408,0.717385503 C168.21599,0.673719896 169.106878,0.574968447 169.399267,0.478232334 C169.781377,0.351937964 170.41471,0.317005479 172.094625,0.33044105 C173.302707,0.341189507 175.312482,0.310287693 176.560676,0.263934972 C179.090312,0.169885973 178.955201,0.168542416 181.572976,0.303569908 C183.267668,0.390901121 184.245639,0.394260014 185.733971,0.319020815 C185.994165,0.305585243 186.132443,0.271996315 186.041137,0.243781615 C185.95036,0.215566916 185.875943,0.139655938 185.875943,0.0751651961 C185.875943,-0.00208933869 186.141415,-0.0202273599 186.655998,0.0227664681 C187.085081,0.0590425106 188.372329,0.139655938 189.51655,0.202131345 C190.661299,0.264606751 192.129048,0.36806065 192.779269,0.430536056 C195.391766,0.68581191 196.387682,0.775158459 197.744597,0.877940579 C201.137149,1.13523177 202.925786,1.23734211 204.789895,1.28100772 C205.648061,1.30183285 206.712059,1.35288802 207.154337,1.39521007 C207.642118,1.43918359 208.130971,1.46114213 208.619974,1.46104437 C208.98414,1.45567014 209.707195,1.50135109 210.227583,1.56181116 C210.747972,1.62227123 212.432109,1.69415153 213.971107,1.72169445 C215.509578,1.7485656 216.956743,1.81977412 217.186326,1.8802342 C217.416437,1.94069427 217.938408,2.01727702 218.347436,2.05019417 C218.755935,2.0837831 219.223546,2.13752539 219.387157,2.16909898 C219.946601,2.2779271 220.819544,2.35115097 222.096237,2.39750369 C223.220403,2.43915396 224.312901,2.53790541 225.926316,2.74414143 C226.18651,2.77773036 226.548038,2.81803707 226.730121,2.83550331 C226.912204,2.85296956 227.380343,2.89932228 227.77037,2.93895721 C228.160925,2.97926392 228.820647,3.04173933 229.236007,3.08003071 C229.652423,3.11765031 230.013951,3.16400303 230.039812,3.18281283 C230.066201,3.20229441 230.329562,3.24797535 230.625645,3.28559495 C230.9212,3.32254277 231.225727,3.38165928 231.301199,3.41659177 C231.377727,3.45085248 231.816838,3.49451808 232.277059,3.5126561 C233.541086,3.56371127 233.539503,3.5630395 233.539503,3.74441971 C233.539503,3.83712515 233.584364,3.91236435 233.63978,3.91236435 C233.694669,3.91236435 233.708391,3.85391961 233.671447,3.78136753 C233.624475,3.69202098 233.655613,3.67388296 233.76803,3.72560991 C233.858808,3.7665884 234.026641,3.80084911 234.141696,3.80084911 C234.282613,3.80084911 234.354918,3.87340119 234.364418,4.02522315 C234.381307,4.29393457 234.330113,4.30602659 234.140641,4.08098077 C233.942724,3.84585827 233.721058,3.86399629 233.787558,4.10919547 C233.82028,4.23011561 233.810252,4.25698675 233.761169,4.180404 C233.706808,4.09508812 233.44028,4.07896543 232.924642,4.1300206 C232.036921,4.21735182 231.367172,4.19383957 230.134812,4.02925382 C229.640812,3.96274774 229.002202,3.88146254 228.716147,3.84854539 C228.430091,3.81495646 228.146147,3.76860374 228.085453,3.74509149 C228.024759,3.72157924 227.950342,3.77868042 227.920259,3.87272941 C227.87962,3.99902378 227.789898,4.02320781 227.574037,3.96677841 C227.235204,3.87877542 227.01776,3.84518649 226.115261,3.74240437 C225.751094,3.7007541 225.428095,3.64835537 225.396956,3.6255149 C225.330456,3.57714685 224.065902,3.5690855 222.332681,3.60536155 C221.233321,3.62954557 220.458017,3.56505483 219.879573,3.40248442 C219.553407,3.31112254 217.273409,3.2714876 217.273409,3.35747526 C217.273409,3.40181264 217.56052,3.47436473 217.912019,3.51870211 C218.262464,3.56371127 218.635074,3.6194689 218.739046,3.6443247 C219.468962,3.81495646 221.422793,4.00708513 222.994514,4.06082741 C223.35868,4.07426298 223.701735,4.11860037 223.756624,4.16025064 C223.84793,4.22944383 226.743843,4.49748348 226.899538,4.45113076 C226.936482,4.43971052 227.28587,4.46590989 227.675898,4.50957549 C228.279147,4.57608157 229.819201,4.71043728 230.205534,4.72991886 C230.345395,4.73663665 230.361756,4.88174082 230.233506,4.97578981 C230.141673,5.04296767 229.428646,5.05909036 228.783702,5.00803519 C228.586841,4.9919125 228.391036,4.91264263 228.348814,4.83135742 C228.291286,4.72185752 228.128731,4.7037195 227.713898,4.75947712 C227.406731,4.80179917 227.127537,4.85621323 227.092704,4.88039726 C227.057871,4.90525307 226.964454,4.84882367 226.885815,4.75477467 C226.806649,4.66072567 226.719565,4.62780852 226.692121,4.68087903 C226.638816,4.78298937 224.729845,4.73932376 224.176735,4.62310607 C223.994652,4.58481469 223.673763,4.54249264 223.463708,4.53040063 C223.253653,4.51696506 222.987653,4.44777186 222.872597,4.374548 C222.70582,4.26840699 222.663598,4.27176588 222.663598,4.39134246 C222.663598,4.48001724 222.536931,4.5532411 222.356431,4.57070734 C221.608571,4.64258765 220.561989,4.63586986 219.731795,4.55391288 C219.135407,4.49479636 218.880491,4.50218593 218.972852,4.57608157 C219.345462,4.87166414 218.64563,5.01811186 217.556825,4.87166414 C216.590993,4.7413391 216.418938,4.73462131 216.001466,4.80986051 C215.786133,4.84882367 215.484244,4.84076232 215.330133,4.79172249 C214.925328,4.662741 212.820025,4.43500807 211.882693,4.41821361 C211.409126,4.40829447 210.935963,4.3778228 210.464028,4.32685172 C210.12625,4.28452967 209.445418,4.2240696 208.95089,4.19249601 C208.083555,4.12917755 207.216727,4.05505444 206.350532,3.97013731 C205.319815,3.87198429 204.28809,3.79181119 203.255647,3.72964058 C202.007981,3.66246272 201.857037,3.67321118 201.802676,3.84115582 C201.751481,4.00036734 201.586815,4.02723848 200.689066,4.02320781 C200.109567,4.0205207 199.44404,4.05948385 199.210234,4.10919547 L198.784846,4.20055735 L199.494178,4.32550817 C199.884206,4.39470136 200.352344,4.4497872 200.533899,4.44777186 C200.71651,4.44575653 201.461204,4.52301106 202.189009,4.61840362 C202.917341,4.71379618 204.300118,4.84882367 205.262783,4.91734508 C206.224921,4.98653827 207.106837,5.0671517 207.22242,5.09670996 C207.338531,5.12626821 208.295919,5.19949208 209.350418,5.25995215 C211.245666,5.36743672 212.574081,5.45611149 213.584774,5.54075559 C213.870829,5.56493961 214.852495,5.63547636 215.76555,5.69795177 C216.679132,5.76042718 217.487687,5.83432282 217.562631,5.86186574 C217.637575,5.88873688 217.784297,5.94986873 217.887742,5.99622145 C217.991714,6.04324595 218.240825,6.09564468 218.440852,6.11243914 C218.640352,6.12990539 218.853574,6.22395439 218.913741,6.32203406 C219.000824,6.46310755 219.247296,6.5054296 220.110739,6.52894185 C220.708711,6.54506454 221.240183,6.58940192 221.292432,6.62702152 C221.344682,6.66464112 221.70621,6.72577297 222.096237,6.76137724 C223.960874,6.93469611 225.825511,7.0757696 226.682621,7.10801497 C227.203009,7.12749655 228.309758,7.23162223 229.142063,7.3391068 C229.97384,7.44659137 231.037839,7.5520606 231.506505,7.57288574 C234.746001,7.71395924 237.333693,7.89332411 238.693247,8.06865832 C239.161385,8.12911839 239.982079,8.21107538 240.516717,8.25071031 C241.051355,8.29101702 241.511577,8.36625622 241.539022,8.41865495 C241.566466,8.47172546 241.448244,8.51942174 241.276189,8.52412419 C241.104133,8.52882664 240.843411,8.54360576 240.695634,8.55636956 C240.549439,8.56846157 240.410634,8.54360576 240.38794,8.49994016 C240.365245,8.45694633 240.189495,8.47306902 239.997384,8.53554442 C239.802107,8.59936338 239.374607,8.61750141 239.028913,8.57585114 C238.688497,8.53554442 236.877693,8.48180214 235.00514,8.45828989 C233.132586,8.43410586 230.898505,8.38170713 230.04034,8.34140042 C228.510314,8.27086367 228.077008,8.31452927 229.080313,8.43813653 C229.358979,8.47172546 229.607035,8.52479596 229.632368,8.55435422 C229.699923,8.63496765 229.354229,8.83247055 229.067118,8.87815149 C228.733036,8.93189377 228.62748,9.07363905 228.913008,9.08640284 C229.039146,9.09110529 229.695173,9.14283224 230.371256,9.2006052 C231.047339,9.25770638 232.376809,9.33496091 233.326808,9.37123695 C234.886918,9.43169702 235.05264,9.45655283 235.05264,9.63390237 C235.05264,9.88111688 235.432639,9.93956162 237.727415,10.0443591 C238.652608,10.0866811 239.432135,10.1639357 239.459052,10.2163344 C239.485968,10.2680613 239.694968,10.3103834 239.922968,10.3103834 C240.699856,10.3103834 240.482412,10.6207451 239.527135,10.8733338 C239.257969,10.9445423 238.896441,10.9935822 238.723858,10.9821619 C237.57172,10.906251 237.874137,11.1272661 239.166135,11.3059592 C239.686524,11.3778395 240.409578,11.4604683 240.773745,11.4906983 C241.137911,11.5209284 241.797632,11.5954958 242.23991,11.6572994 C242.681659,11.7184313 243.575186,11.8024036 244.225935,11.8427103 C245.026573,11.8930937 245.43824,11.9643022 245.502628,12.0643972 C245.554878,12.1450106 245.892128,12.2437621 246.258933,12.2840688 C246.623099,12.3243755 246.963516,12.4184245 247.015766,12.4943355 C247.067488,12.5695747 247.421099,12.665639 247.80057,12.7072893 C248.18057,12.7489396 248.586958,12.8570959 248.703069,12.947786 C248.837125,13.0519117 249.246152,13.1305098 249.809818,13.1620834 C251.024761,13.2292612 251.976871,13.3555556 252.029649,13.4569942 C252.085066,13.5631352 251.256983,13.7156289 251.129789,13.6222517 C251.077011,13.5839603 251.034789,13.6007548 251.034789,13.6591995 C251.034789,13.7176443 251.183622,13.7982577 251.365705,13.8392362 C251.725122,13.9191778 251.793205,14.0589078 251.531427,14.1791561 C251.22215,14.3215732 251.654927,14.546619 252.627093,14.7501679 C253.443564,14.9201279 253.95973,15.1310664 253.583425,15.1404713 C253.229814,15.1492044 253.775536,15.3473791 254.343424,15.4159005 C254.681202,15.4575507 255.00684,15.5395077 255.067007,15.599296 C255.127701,15.6584125 255.445951,15.7585075 255.775284,15.8216547 C256.689394,15.9963171 256.679366,16.1373906 255.746784,16.2240501 C255.398451,16.2562954 255.080201,16.3523598 254.984146,16.4544701 C254.849563,16.5968872 254.685424,16.6143534 254.085869,16.5478473 C252.866704,16.4128199 252.624982,16.4390192 252.441843,16.7265404 C252.352121,16.8676139 252.297232,17.0180923 252.319927,17.0617579 C252.342621,17.1047518 252.647148,17.1759603 252.99812,17.2189541 C253.348564,17.261948 253.677897,17.3365154 253.730147,17.3855552 C253.781869,17.4339233 254.026758,17.5091625 254.273758,17.5528281 C254.951951,17.6724047 254.812618,17.8309444 254.029397,17.8309444 C253.648342,17.8309444 253.303703,17.8692358 253.26412,17.9155885 C253.225064,17.9619412 252.828176,17.9995608 252.382732,17.9995608 C251.819594,17.9995608 251.560455,18.0425546 251.532483,18.1399625 C251.504511,18.2360269 251.606372,18.2803643 251.854427,18.281036 C252.053927,18.281036 252.366371,18.3280605 252.547926,18.3844899 C252.730009,18.4409193 253.239314,18.5188456 253.679481,18.5584806 C254.119647,18.5974437 254.528146,18.6767136 254.58673,18.7344866 C254.644785,18.7922595 254.718146,18.8097258 254.748229,18.7741215 C254.778841,18.7378455 254.90234,18.7506093 255.023201,18.8016644 C255.193146,18.8735447 255.09234,18.9111643 254.581452,18.9662502 C253.978203,19.0314127 253.289981,19.1953267 252.926343,19.3605842 C252.695176,19.4653816 253.054592,19.5809276 254.131786,19.7475286 C254.664841,19.8301574 255.101312,19.9275653 255.101312,19.9638413 C255.101312,20.0007892 255.377868,20.0095223 255.716173,19.9839947 C256.210172,19.9470469 256.330506,19.9698873 256.330506,20.1015559 C256.330506,20.3051048 256.031256,20.6376352 255.850228,20.6356199 C255.739395,20.6342763 255.740451,20.6154665 255.857617,20.5247764 C255.979006,20.432071 255.974784,20.4159483 255.831228,20.4146048 C255.738339,20.4132612 255.637534,20.4911875 255.606395,20.5872518 C255.558895,20.7350431 255.387368,20.7525094 254.450563,20.702126 C253.277314,20.6396506 252.98862,20.714218 253.205009,21.0232361 C253.567064,21.5405056 255.043785,22.0967383 256.059228,22.0967383 C256.672505,22.0967383 256.992866,22.2324375 256.992866,22.4930876 C256.992866,22.6234127 256.841394,22.6570016 256.259783,22.6543145 C255.856562,22.6536427 255.356757,22.5992286 255.148812,22.5340661 C254.94034,22.4689036 253.960258,22.3929926 252.970148,22.3647779 C251.219511,22.3157381 251.169372,22.3204405 251.15565,22.5394404 C251.141928,22.755753 251.257511,22.9109339 251.460177,22.9498971 C251.512427,22.9599737 251.920399,23.0499921 252.366899,23.1500871 C253.828842,23.4765714 255.126646,23.6760897 256.455061,23.7768565 C257.68531,23.8709055 258.10542,23.9992152 257.978226,24.2437426 C257.949198,24.2995002 257.884809,24.3149511 257.834671,24.2786751 C257.785059,24.242399 257.756032,24.2786751 257.770282,24.3613038 C257.785059,24.4432608 257.722782,24.5023773 257.632004,24.494316 C257.541754,24.4855828 257.487921,24.5178282 257.513254,24.5661963 C257.53806,24.6138926 257.414032,24.6857729 257.237227,24.724736 C256.855644,24.8100519 256.765394,25.0122572 256.960672,25.3434441 C257.064644,25.5201218 257.076255,25.6255911 257.001838,25.7317321 C256.879922,25.9057227 256.959616,26.0246275 257.197116,26.0246275 C257.293171,26.0246275 257.371282,26.0461245 257.371282,26.071652 C257.371282,26.0978514 257.399254,26.2060077 257.43356,26.3134923 C257.491615,26.4915136 257.428282,26.5015903 256.653505,26.4323971 C256.190117,26.3920904 255.650728,26.3282714 255.455451,26.2913236 C255.173618,26.2382531 255.101312,26.2604218 255.101312,26.4001518 C255.101312,26.4962161 255.032701,26.6204951 254.948785,26.6762527 C254.732396,26.8200134 254.862229,27.4669361 255.133507,27.5965894 C255.327729,27.6899666 255.328784,27.6953408 255.148812,27.7094482 C254.95934,27.7242273 254.95934,27.7242273 255.148812,27.8209634 C255.333534,27.9150124 255.074924,27.9553191 254.108036,27.9835338 C253.704814,27.9949541 253.399231,28.1461042 253.399231,28.3335305 C253.399231,28.4342972 253.301064,28.4947573 253.139037,28.4961009 C252.979285,28.4994639 252.820182,28.5228654 252.664037,28.5659658 C252.462426,28.6297848 252.45926,28.6432204 252.616537,28.7849657 C252.708898,28.8682662 252.900481,28.9374594 253.042981,28.9394747 C253.185481,28.9414901 253.58237,29.1201832 253.925425,29.3358241 C254.271647,29.5541521 254.687007,29.7288145 254.859063,29.7288145 C255.431701,29.7288145 256.326283,29.8719034 256.28195,29.9565475 C256.257672,30.0029002 256.31045,30.0331302 256.399117,30.0250689 C256.488895,30.0179986 256.570143,30.0924692 256.593339,30.2030902 C256.636616,30.4503047 256.078228,30.8755405 255.790062,30.8157522 C255.675006,30.7915682 255.565229,30.8271725 255.546229,30.8943503 C255.501895,31.0528901 254.397785,31.0978992 253.956564,30.9588411 C253.769203,30.8997246 252.800732,30.8379209 251.805344,30.8211265 C250.121734,30.7929118 249.625096,30.850013 250.254734,31.0004914 C250.397234,31.0340803 250.705984,31.1133502 250.940317,31.1764973 C251.213152,31.2448508 251.489931,31.284619 251.767872,31.2954021 C251.988482,31.2980893 252.16951,31.3511598 252.16951,31.4129634 C252.16951,31.4740952 252.23601,31.5251504 252.317288,31.5251504 C252.399093,31.5251504 252.553204,31.5802363 252.660343,31.6480859 C252.851926,31.7703496 252.851398,31.7730367 252.63026,31.9040335 C252.241816,32.1337818 252.362149,32.3500945 253.014481,32.5959654 C253.348564,32.7222598 253.642536,32.8996094 253.666814,32.9889559 C253.691092,33.0789742 253.748619,33.1817563 253.794536,33.2173606 C253.939147,33.3302194 253.766036,33.6761854 253.602425,33.601618 C253.519564,33.5639984 253.478398,33.5646701 253.510064,33.6022897 C253.541731,33.6399093 253.460981,33.7984491 253.329564,33.9543017 C253.156981,34.1585224 252.979648,34.2424947 252.686732,34.2559303 C252.46401,34.266007 252.298815,34.3069854 252.319927,34.3479639 C252.341038,34.3882706 251.95101,34.396332 251.453316,34.366102 C250.729734,34.3217646 250.516512,34.3452768 250.389318,34.4809761 C250.213568,34.6704176 249.28468,34.748344 248.80018,34.61466 C248.615458,34.5636049 248.480347,34.5790558 248.439709,34.6563103 C248.404347,34.7241599 248.275042,34.7799176 248.152598,34.7799176 C247.867598,34.7799176 247.630098,34.8874021 247.630098,35.0163836 C247.630098,35.0714694 247.691848,35.1171504 247.76732,35.1171504 C247.842793,35.1171504 247.940431,35.1930614 247.984765,35.2871104 C248.034376,35.3925796 248.404347,35.5356684 248.959041,35.6633064 C250.05154,35.9158951 250.855873,36.301496 250.779873,36.5366185 C250.748378,36.6286488 250.666243,36.6738734 250.591984,36.6400724 C250.518095,36.6064835 250.481151,36.6239497 250.510179,36.6803791 C250.539206,36.7354649 250.451595,36.9390139 250.314901,37.1311425 C250.132818,37.3884337 250.017235,37.4616576 249.876846,37.4092588 C249.771818,37.3689521 249.710596,37.3830595 249.740152,37.4394889 C249.769707,37.4959183 249.645152,37.5469735 249.464652,37.5536912 C249.283624,37.5590655 248.836597,37.6510991 248.471903,37.7572401 L247.807959,37.9500406 L248.01907,38.2174085 C248.135181,38.3638562 248.269764,38.4841045 248.317792,38.4841045 C248.366348,38.4841045 248.551597,38.5660615 248.729986,38.6668283 C249.041375,38.8421625 249.048763,38.8603005 248.911014,39.1102022 C248.820236,39.2741161 248.802291,39.3963798 248.862458,39.4400454 C248.887354,39.457834 248.905241,39.4881047 248.911764,39.5234834 C248.918286,39.558862 248.912844,39.5961008 248.896764,39.6261281 C248.857708,39.7013673 248.807041,39.6886035 248.753208,39.5905238 C248.699375,39.4917724 248.645542,39.4783368 248.599625,39.5529042 C248.56057,39.6153796 248.401181,39.7403305 248.244959,39.829677 L247.961015,39.9922474 L248.260264,40.029867 C248.584319,40.0715173 248.757958,40.3590385 248.523097,40.4665231 C248.443931,40.5027991 248.355264,40.5041427 248.326236,40.469882 C248.297736,40.4362931 248.132542,40.5027991 247.959431,40.6176733 C247.745305,40.7508242 247.518612,40.8483608 247.284932,40.9078816 C247.087543,40.952219 246.867988,41.0556729 246.798321,41.1389734 C246.632599,41.3358045 246.567683,41.3317739 245.688934,41.0650778 C244.899907,40.8252528 244.677713,40.8480933 244.354185,41.1994335 C244.171574,41.3969364 244.098213,41.4063413 243.604214,41.298185 C242.955576,41.1557679 241.734827,41.1376299 241.804494,41.2713138 C241.830882,41.322369 242.163382,41.4271664 242.542854,41.504421 C243.509742,41.6999085 243.618464,41.7422306 243.459603,41.8584483 C243.184631,42.0599818 244.416463,42.5369446 245.62085,42.6941408 C245.945961,42.7364629 246.233072,42.8110303 246.257878,42.8593983 C246.283211,42.9077664 246.2146,43.0824288 246.104822,43.2470146 C245.922211,43.5231156 245.918517,43.5614069 246.059433,43.7454743 C246.142822,43.8556459 246.211433,43.9732072 246.211433,44.0074679 C246.211433,44.1458543 244.610157,43.946336 244.083963,43.7414436 C243.326603,43.4478764 241.793938,43.233579 241.652494,43.4015236 C241.577549,43.4901984 241.576494,43.5667812 241.649855,43.6715786 C241.749077,43.8126521 241.900549,43.8731122 243.161936,44.2748358 C243.555131,44.3997866 243.753047,44.5193632 243.753047,44.6315502 C243.753047,44.7739672 243.641158,44.7887464 243.051103,44.7255992 C242.601437,44.6765593 242.328049,44.6920103 242.288993,44.7659059 C242.255743,44.8297249 242.280549,44.8821236 242.34441,44.8821236 C242.407743,44.8821236 242.438354,44.9083229 242.411437,44.9398965 C242.348104,45.0151357 241.008606,44.6819336 240.875606,44.5569828 C240.770578,44.4595749 239.389913,44.2076579 239.095413,44.2318419 C239.004108,44.2399033 238.929691,44.3090965 238.929691,44.386351 C238.929691,44.4636055 238.907524,44.5946024 238.880608,44.6779029 C238.834163,44.8216635 239.98894,45.1125436 241.979188,45.4578378 C242.278437,45.5095648 242.677437,45.6284696 242.865853,45.7225186 C243.05427,45.8158958 243.341381,45.8924785 243.504464,45.8924785 C243.932491,45.8938221 244.547879,46.1161808 244.44813,46.2337421 C244.402213,46.2888279 243.826408,46.3479444 243.16827,46.3654107 C242.510659,46.3828769 241.979188,46.4057174 241.98816,46.4164658 C241.996604,46.4265425 242.214049,46.5333553 242.471076,46.6529319 C242.918631,46.861855 242.929187,46.8766341 242.724409,47.0069592 C242.564493,47.1083977 242.393493,47.1124284 242.039882,47.0224101 C241.464605,46.8759624 241.388605,46.873947 241.388605,47.0056156 C241.388605,47.0627168 241.515272,47.1419867 241.670966,47.1829652 C242.188188,47.3173209 242.076299,47.4637686 241.456161,47.4637686 C241.095161,47.4637686 240.729939,47.5349771 240.552606,47.6397746 C240.373162,47.7459156 240.172079,47.7848788 240.04594,47.7371825 C239.775718,47.6357439 235.335528,47.596109 235.387778,47.6968758 C235.497556,47.9078142 234.25728,47.9064707 233.198558,47.6941887 C231.054727,47.2649221 229.230729,47.0210665 228.054314,47.0056156 C227.404093,46.9975543 226.425066,46.9216433 225.878816,46.8363274 C225.159555,46.7298229 224.438846,46.6397901 223.717041,46.5662724 C223.073681,46.5031253 222.52057,46.4319167 222.48732,46.4077327 C222.45407,46.3842205 222.107848,46.3324935 221.717821,46.2928586 C221.370883,46.2585633 221.024284,46.2189255 220.6781,46.1739538 C220.298628,46.1195397 218.573324,46.0053373 217.320381,45.9515951 C216.247418,45.9002639 215.175436,45.8198562 214.105163,45.7104266 C213.792718,45.6768376 212.579886,45.6284696 211.409804,45.602942 C210.239194,45.5760708 208.856418,45.5129237 208.33603,45.4618685 C207.816169,45.4121569 206.377976,45.3752091 205.139283,45.3812551 C203.267258,45.39066 202.873536,45.42089 202.798591,45.5579328 C202.722592,45.6990063 202.696203,45.6996781 202.624425,45.5673377 C202.567425,45.4625403 202.446036,45.432982 202.259731,45.4766476 C202.10562,45.5135954 201.933565,45.4880678 201.876565,45.4202182 C201.819565,45.3530404 201.632732,45.2865343 201.461204,45.2737705 C201.292405,45.2614803 201.1247,45.2313708 200.959816,45.1837522 C200.392983,44.9842339 199.8024,44.926461 199.564373,45.0467093 C199.373317,45.1434454 198.896735,45.0292431 198.962707,44.9029487 C198.986985,44.8559242 198.531513,44.8041973 197.949902,44.7880746 C196.384515,44.7430654 196.222488,44.7229121 196.045154,44.5482496 C195.901071,44.4065044 195.886821,44.4132221 195.915321,44.6073662 C195.93696,44.7551574 195.901599,44.8129304 195.805544,44.7860593 C195.688461,44.7593346 195.569822,44.7451775 195.450877,44.7437372 C195.333711,44.7423936 195.238183,44.7027587 195.238183,44.6550624 C195.238183,44.6080379 195.169572,44.538173 195.085655,44.4998816 C194.974822,44.4494982 194.948433,44.4783847 194.990128,44.6060226 C195.029183,44.7269427 195.010183,44.7538139 194.929961,44.6933538 C194.865045,44.644314 194.408517,44.5885564 193.91399,44.5690748 C192.874797,44.5287681 193.029435,44.5287681 188.145385,44.5489214 C186.090749,44.5583263 184.146945,44.5287681 183.825001,44.4844307 C183.503057,44.4394215 183.168974,44.4353908 183.081363,44.4756976 C182.920391,44.5489214 179.831311,44.6933538 178.88184,44.6725287 C178.139785,44.6557342 177.29798,45.1736755 177.766119,45.3590864 C177.835785,45.3859575 177.78723,45.4658992 177.647897,45.5539021 C177.518063,45.6345156 177.38823,45.7440155 177.359202,45.7957424 C177.254703,45.9838404 176.451426,46.0893097 176.223954,45.9442055 C176.079871,45.8528436 175.699343,45.8205982 175.100316,45.8474694 C174.602094,45.8703099 172.965457,45.9159908 171.463931,45.9482362 C169.961877,45.9811533 168.629767,46.0382545 168.503101,46.0758741 C168.376962,46.1134937 167.840213,46.1524568 167.310324,46.1618617 C166.780436,46.1712666 166.261631,46.2357574 166.157659,46.3049506 C165.971881,46.4292296 165.094716,46.6327785 164.947994,46.585754 C164.766966,46.5286528 164.430772,46.5427602 164.124661,46.6213583 C163.942578,46.6683828 163.708245,46.697941 163.604273,46.6878644 C163.500301,46.6777877 163.329829,46.6603214 163.225857,46.6489012 C163.121885,46.6381527 162.632635,46.6892079 162.138636,46.7610882 C161.644636,46.8336403 161.056165,46.892085 160.831332,46.8907415 C160.606498,46.8893979 160.372165,46.9364224 160.310943,46.9948672 C160.249721,47.0533119 160.061305,47.1359407 159.892416,47.1789345 C159.640666,47.2427535 159.58525,47.2226001 159.58525,47.0667475 C159.58525,46.8988028 159.507139,46.8853673 158.899139,46.9565758 C158.522306,47.0002414 157.532724,47.0472659 156.700947,47.0613732 C155.868642,47.0761524 154.958227,47.1466891 154.677977,47.2192412 C154.493903,47.2697087 154.308757,47.3136154 154.122755,47.3509098 C154.097422,47.3509098 154.129617,47.4268208 154.194533,47.5195262 C154.25945,47.6122317 154.456311,47.6874709 154.631533,47.6874709 C154.807283,47.6874709 154.951366,47.7089678 154.951366,47.7344954 C154.951366,47.7606947 154.977227,47.8621333 155.008366,47.9595412 C155.087532,48.202725 154.821005,48.190633 154.610949,47.9414032 C154.491672,47.8003297 154.4352,47.7848788 154.4067,47.8863173 C154.385589,47.9629001 154.328589,47.9971608 154.281089,47.9629001 C154.233589,47.9279676 154.194533,47.9400596 154.194533,47.9897712 C154.194533,48.0401546 154.099005,48.0871791 153.981839,48.0945687 C153.864672,48.1019582 153.216034,48.1657772 152.539424,48.2356422 C151.863869,48.3055071 150.501676,48.3827617 149.513149,48.4076175 C148.52515,48.4318015 147.609985,48.4801696 147.480152,48.5137585 C147.039458,48.6279609 144.61696,48.8946569 143.319156,48.9705679 C140.913548,49.1116414 139.090077,49.5200828 138.7143,50.001748 C138.596606,50.1522264 138.389189,50.2738183 138.240356,50.2798643 C137.016441,50.3268888 135.316998,50.478039 134.571249,50.6063487 C134.166686,50.6725577 133.761091,50.7281032 133.354722,50.7729498 C132.978421,50.8136108 132.603439,50.8720961 132.230557,50.948284 C131.969307,51.0074005 131.739724,51.0557686 131.721252,51.0557686 C131.702252,51.0557686 131.686947,50.9261153 131.686947,50.7682474 Z" id="highlight-yellow-lg"></path>
                </g>
            </g>
        </g>
    </g>
</svg>