<svg height="52" viewBox="0 0 171 52" width="171" xmlns="http://www.w3.org/2000/svg"><path d="m44.6869465 50.7682474c0-.157868-.0411666-.2572912-.0918332-.2203434-.0501388.0376196-.1546387-.1115153-.2316942-.3291715-.0812777-.2310918-.2058331-.3976929-.2981941-.3976929-.1250832 0-.135111-.0335889-.0475-.157868.0844444-.1209201.0812777-.1686164-.0126666-.206236-.0960555-.0382914-.0918333-.0920337.0200555-.2532605.1076666-.1565244.1134721-.2163127.0232222-.2525888-.0649166-.0255275-.1182221-.0960643-.1182221-.1565244 0-.06046.0422222-.0785981.0939444-.0403067.0533054.0389632.0691388-.0067178.0369444-.106141-.0311389-.0960643-.0079167-.1746624.0517221-.1746624.0786388 0 .0807499-.0604601.0068611-.2243741-.0812777-.1800366-.0723055-.224374.0475-.224374.1203332 0 .1266665-.0288865.0306111-.1504784-.1224444-.1551808-.3604719-.0161227-.329333.1928005.0079166.0537422-.0353611.1202483-.0960555.1464477-.0728332.0322454-.0918332-.0362761-.0559444-.1995183.0300833-.1370428.0158334-.2216869-.0316666-.1887697-.0469722.0322453-.170472.0221687-.2744441-.0235123-.1498888-.0651625-.1055555-.0994232.2126942-.1639139.2506941-.0510552.4021662-.1410735.4021662-.239825 0-.0873312.0823332-.1585397.1836665-.1585397.1008054 0 .2417219-.0987515.3129719-.2196716.127722-.2156409.6090548-.5105517.7652769-.4682297.0443333.0114203.3208885-.0503834.6148604-.1383864.3717306-.1045573.7474899-.1843833 1.1257488-.2391531.3251108-.0436656.6148605-.1249509.6438882-.1807085.0290278-.0557576.1461943-.1021103.2601942-.1034539.1134721-.0013435.4623328-.1518219.7742491-.3345457.3124441-.182052.639666-.3325304.727277-.3338739.0881388-.0013436.1863054-.0537423.2184998-.1148742.0321944-.0618036.0105555-.112187-.0480277-.112187-.1314166 0-.0844444-.5018186.0480277-.5132388.0522499-.0040307.2813052-.0712085.509305-.1477913.2279997-.0779263.5182772-.1108435.6454715-.0725521.1266665.0376196.3657496.0188098.5309439-.0416503.1651942-.06046.5378049-.1645857.8280824-.2324353.7969436-.1847391 1.2218042-.3392482 1.2218042-.4433739 0-.1088281-4.851328-.0335889-6.0525489.094049-.6328049.0671779-.8739991.0483681-1.134721-.0859876-.1820832-.094049-.3525552-.1780214-.3784163-.1874263-.0263889-.0087331-.1715276-.0772545-.3235274-.1511501-.1519999-.0745675-.343583-.1047975-.4259162-.0671779-.0818055.0382914-1.3405541.0873312-2.7972192.1094999-1.4561373.0221687-2.8394414.0906901-3.0732467.151822-.2338053.0618036-.9352212.1706317-1.558526.2418402-.6233049.0725521-1.2149432.1827238-1.3141653.245871-.0997499.0631472-.3889718.0913619-.6428326.0624754-.2543886-.0295583-.4850273-.0087331-.5129995.0450092s-.0907776.0685214-.1393331.0335889c-.0480278-.0356043-.0876111-.0114202-.0876111.0537423 0 .0658343-.0316666.1088281-.0712499.0967361-.1572776-.0490398-.9689989.1545091-.9689989.2438556 0 .1094999-.7146104.2915519-.9848323.2512452-.0992221-.0154509-.2607219.0738956-.3583607.1988464-.0976388.1242791-.2501664.2324354-.3393608.239825-.0891943.0067178-.416944.024184-.7293881.0376196-.3113885.0134356-.7373047.081957-.9452489.1531655-.208472.0718803-.5393883.1585397-.7357215.1928005-.1963331.0349324-.3340829.1074845-.3061107.1612268.0881388.1692882-.1219166.2136256-1.764887.3721653-.087611.0087332-.1514721.063819-.1424998.1222637.0094999.0584448-.0680833.1356993-.1720554.1719753-.150119.0641218-.2936461.1509549-.4274996.2586348-.1720553.1390582-.530416.2136256-1.2772208.2653525-.5705271.039635-1.1357765.0671779-1.2561097.0604601s-.3493885.0685214-.509305.1666011c-.1646665.1007668-.3156108.1336839-.348333.0752392-.0818055-.1437606-.4148329-.282147-.3419996-.1410735.0770555.1477913-.0147778.1397299-.2665275-.0221687-.5082495-.3271562-2.9143857-.0785981-3.1656077.3264844-.0775832.1256226-.0860277.2102667-.0232222.2351225.0538333.0214969.0976388.0833005.0976388.1383864 0 .054414-.0596388.0718803-.1319443.0389631-.0728332-.0335889-.1604443-.0067178-.1952776.0597883-.0913054.176006.4749995.1504784.7811103-.0356043.1403887-.0853158.4470273-.1921286.6808326-.2378096.2343331-.0450091.5003328-.0987514.5911105-.1189048.0913054-.0201533.165722.0295583.165722.1108435 0 .1041257.1176943.1356993.4016385.1094999.3108607-.0288865.3641662-.0114202.2348608.0779263-.092361.0631472-.1461943.1558526-.1203332.206236.0559444.1074846-.4728884.2163127-1.4962484.3070028-.5752771.0503834-.762638.0302301-.8259713-.0886747-.0601666-.1121871-.082861-.1162177-.0844443-.0141074-.0015834.206236-.5699994.1726471-.7737214-.0456809-.0949999-.1021104-.1731109-.1383864-.1731109-.0799417 0 .0644908-.3066386.075911-.7800547.0295583-.4290829-.0429939-1.09936-.1054693-1.4893873-.1390582-.3905551-.0335889-.8491935-.1209201-1.0201934-.1928004-.170472-.0712086-.4164162-.1061411-.5457216-.0765828-.1298332.0288865-.2623053.0013436-.2955552-.0611318-.0364166-.0705368-.0116111-.0799417.0643888-.0241841.0770555.0564294.1008054.0470245.0633333-.0255276-.07125-.1370428-.5224995-.26065-1.0560822-.2902083-.315083-.0174662-.3799996-.0611318-.388444-.2619936-.0095-.2149692.0559443-.2499017.6143326-.3271562.3441108-.0470245.7314992-.0752392.8613324-.0618036l.2364442.024184-.2506942-.1612269c-.4354162-.2808034-.8592213-.3997082-1.6878315-.4715885-.4422773-.0382914-1.0803599-.1524937-1.4186651-.2532605-.7774158-.2317636-3.47541288-.2499017-3.5931072-.0235123-.04019723.0776708-.12025854.1035839-.18472202.0597883-.15833316-.1162177-1.89894238-.1545091-1.83930355-.0416503.05488883.1068128.04116662.1081564-1.19594315.1531656-.87347127.0315736-1.24185976.0698649-2.5491639.2653525-.59638824.0886748-.94472119.0376196-1.28566526-.188098-.14249985-.0953926-.11188877-.1491348.23222196-.406426.27655526-.2082514.61538823-.3298433 1.12627656-.4064261.87241572-.1309968 1.70472037-.2955825 2.30427527-.4568094.3588885-.0960643.43013842-.1551808.39266624-.3258126-.02691663-.1222637-.10027767-.1840673-.17838869-.1477913-.07283326.0329172-.13247208.0040307-.13247208-.0644907s.07388881-.1249508.16519426-.1256226c.1414443-.0013436.14513874-.0174663.02374998-.1108435-.08972213-.0685214-.09974989-.1094999-.02638886-.1101717.06333326-.0013435.09077768-.0779263.0601666-.1713035-.03799996-.1175612.05647216-.2270611.310333-.3614169l.36522182-.1921286-.92361011-.0671779c-.49610548-.0372132-.99294929-.0562548-1.48991504-.0571012-.31138855.0067178-.56524939.0053743-.56524939-.0026871 0-.0073895.08444435-.130325.18894424-.2727421.10397211-.142417.18894424-.224374.18894424-.1827237 0 .0416502.09605545.0013435.21322199-.0900184.11716654-.0906901.52830498-.2237022.91411012-.294239.38527736-.0712085.86924905-.20019 1.07560994-.2861776.23270918-.0924232.4737456-.1466045.71724922-.1612269.52672165-.006046 1.85302576-.4151592 1.46985951-.4534505-.09272287-.0144624-.18484021-.0346394-.27602747-.0604601-.10142779-.0275866-.20293767-.0546819-.30452745-.0812852-.21638865-.0564294-.23011086-.1652575-.03061108-.2404967.10977766-.0416503.310333-.1975029.44649952-.3473096.13616651-.1498066.34199962-.2720703.45811061-.2720703.11611098 0 .25966638-.0691932.31930521-.154509.08866657-.1262944.01055554-.1672729-.43805508-.227733-.27673575-.0367466-.55297669-.0792983-.82861021-.1276379-.37155515-.0712085-1.84880355-.0611319-1.95013677.0134356-.13722208.1007668-1.21863757.1477913-1.21863757.0537423 0-.0503834.06386104-.1538373.14249985-.2304201.07758325-.0772545.14144429-.1928004.14144429-.2572912 0-.0644907-.02797219-.0839723-.06227771-.0429938-.03430552.0403067-.11927765.0174662-.18894424-.0510552-.07019437-.0691932-.12666653-.0772545-.12666653-.018138s-.06438882.1074846-.14249984.1074846c-.2269442 0-.16466649-.1202484.14777761-.2841624.35097184-.1847391.30083301-.2619936-.26547193-.4077696-.51616611-.1343557-.61433267-.342607-.24436085-.5199566.38316625-.1833955 2.18235874-.4212051 3.21099651-.424564.48238837-.0013436.98958226-.0362761 1.12733211-.0772545l.25122195-.0745675-.26916637-.2619936c-.14883317-.1437606-.34199963-.2633372-.42961065-.2653525-.22430531-.006046-.29238857-.1840674-.17205537-.4507635.12666653-.282147.9494712-.7879962 1.27985973-.7879962.13933318 0 .22008309-.0483681.18683313-.112187-.03219441-.0618037-.1366943-.112187-.23222197-.112187-.1599165 0-.33777742-.2801317-.30294412-.4769628.03588885-.20019-1.46458174.0235122-1.59019272.2371378-.09605545.1625704-2.51116393.5891498-2.7481359.4843523l-.22641642-.0987514.22008309-.1397299c.12086098-.0772546.90672124-.2754293 1.745887-.4420303 1.53583166-.3036439 1.9100257-.5179413.90355457-.5179413-.30927744 0-.59374935-.0644908-.68611037-.1545091-.1319443-.1289815-.31349965-.1323404-1.07983216-.0214969-1.40916513.2042207-2.2272198.3446224-2.4193307.4144874-.12719431.0463527-.16572204.0134356-.14249984-.1236073.03483329-.1988464.32722186-.4319536.78638803-.6267694.39477735-.1672728.14936095-.3143923-.35572184-.2136256-.21902754.0443374-.58952713.115546-.82333243.1592116l-.42591621.0785981.35466628-.4030672c.19527757-.2216869.35466628-.4212051.35466628-.4433738s-.2638886-.075911-.58583269-.1189048c-.76369362-.1027822-1.17113762-.3560427-1.16591048-.7248491.00268952-.1948158.61491108-.4547941 1.1838549-.5038339.23433308-.0208252.76686028-.1175613 1.18274872-.215641.41588843-.0980796 1.05449885-.2015335 1.41866512-.2290764.41158515-.0342034.82185575-.0904588 1.22972089-.1686165 1.93747011-.4037389 2.37341409-.5038339 2.45733066-.5602633.05119439-.0349325-.09763878-.1189048-.33091631-.1860826-.23486085-.0678497-.42433287-.188098-.42433287-.270055 0-.1887698.95316563-.5992265 1.81819247-.7826221.42063843-.0893465.73202698-.2216869.83388798-.3560426.09130546-.1195766.40797178-.270055.72094364-.3432788.7109159-.1659293.6913882-.3237973-.0807499-.6623737-.16519425-.0725521-.28183302-.1901133-.25861082-.2619936.05383328-.1618987.49188832-.409785.72622142-.409785.0965832 0 .149361-.0510551.1171666-.112187-.0316667-.0618036-.3747219-.1128588-.76211033-.1128588-.63755486 0-.89352681-.1142023-.5858327-.2619936.27602748-.1323404-1.10410991-.0604601-1.78599805.0920336-.84866575.1907852-1.31099858.1108435-1.31099858-.2257176 0-.1558526.24752751-.3594015.92888788-.7664993.6412493-.3835856.88930459-.5844473.8032769-.6502816-.16361093-.1249509-.0021111-.2532606.6322771-.5018186.89511013-.3513402 1.60549828-.9391465 1.51208168-1.2528671-.06333326-.2136255.2855275-.330515 1.7274148-.5777295.7161937-.1229355 1.4339707-.3009568 1.5944149-.3963494.1604443-.094049.5003328-.2015335.7552492-.2384814.7029992-.100095 2.0477756-.5038339 2.2578309-.6778245.1023888-.0846441.315083-.157868.4728884-.1625704.1572776-.0040307.3710273-.0510552.4749994-.1041257.1509443-.0765828.1124166-.0994232-.1889442-.1128588-.8059158-.0356043-1.2339431-.1296533-1.3405541-.2955826-.0728332-.1135306-.1868331-.1477913-.3309163-.1007668-.189472.0604601-.1963331.0537423-.0527777-.0537423.0918332-.0678496.2411942-.1094999.3309163-.0920336.0998177.0156711.2010596-.0060399.291333-.0624754.0749444-.0557576.2221942-.033589.3604718.0537423.1815554.1155459.2723331.1189048.4116663.0154509.1134721-.0839724.2005553-.0920337.2364441-.0228405.0316667.0604601.2997775.1115152.5953327.1142023.296083.0020154.6449438.075911.774777.163914.2834163.1921287.3784162.206236.3784162.0564294 0-.0618036-.0664999-.112187-.1477776-.112187-.0807499 0-.1240276-.0450092-.0949999-.0994232.0279722-.0550859-.0374722-.127638-.1467221-.1612269-.1087221-.0335889-.1794442-.1276379-.1567498-.2089231.0416944-.1498066.4649717-.2378096 1.7754425-.3681347 1.1838043-.118233 1.5131373-.1813802 1.5131373-.2915519 0-.0584447-.0633333-.1054692-.1419721-.1054692s-.1414443-.100095-.1414443-.224374c0-.1645858.0633333-.2243741.2364442-.2243741.2718053 0 .3182497-.1733189.0670277-.2512452-.0928888-.0288864-.5715827-.0255275-1.0639988.0073896-1.4329151.0960643-2.006609.0644907-2.3063864-.1283097-.1525276-.0980797-.3039997-.157868-.3377774-.1336839-.03325.0248558-.04275-.0974079-.0211111-.2713986.0469722-.3788831-.0865555-.4379996-1.0571378-.470245-.5810827-.0188098-.6264715-.0356042-.4243328-.1598833.3324996-.2042207 1.5511372-.4971161 2.2778864-.5481713.3715551-.0261993.7219992-.118233.848138-.2230305.2691663-.2230304.4306661-.2263893.6122215-.0107484.0818055.0974079.3098052.1679446.5372772.1659293.7008881-.0040307 3.3160242-.3197666 3.6712182-.4433739.3314441-.1142023.3414719-.1330121.2718053-.5011468-.0443333-.2317636-.0343055-.4279229.0248055-.4984597.0675555-.0806134.0649166-.1639139-.0089722-.2693832-.2258886-.3231255.0612222-.3896315 1.4413596-.3358893 1.0724432.0423221 1.407054.0194816 1.6244982-.112187.2301109-.1397299 1.2682486-.3318586 1.9765256-.3661193.1039721-.0053742.4016385-.0544141.6618326-.1094999l.4728884-.1007668-.4253884-.0812852c-.2343331-.0450092-.9362768-.0557576-1.5606372-.024184-.6616909.0323524-1.3238547.0464631-1.9860256.042322-.4681384-.0087331-1.3827763.0671779-2.0329978.1679447-1.2867208.1988464-2.6135527.3379046-3.1846077.3338739-.198972-.0013435-.3889718.0416503-.4211662.0953926-.0327222.0537423-.1926387.1041257-.3546663.112187-.1625553.0080613-.2955552.0564294-.2955552.1074846 0 .0510551-.0955277.06046-.2126942.0214969-.1667776-.0550859-.1820831-.0450092-.0707222.0470245.1219166.1014385.1187499.118233-.0237499.1195766-.0913055.0013435-.1657221.0577729-.1657221.1269661 0 .0765828-.0897221.0550859-.2327497-.0564294-.2586108-.2015336-.3726107-.2324354-.2939719-.0812852.0284999.0544141-.0327222.1256226-.1361665.157868-.1076666.0335889-.1878887.0026871-.1878887-.0718803 0-.0752392-.149361-.1296533-.3546663-.1296533-.2253609 0-.3467496.0490398-.3324996.1350275.0153055.0927054-.0870833.118233-.3272219.081957-.3937218-.0604601-.7821658-.3211102-.7842769-.528018-.0010556-.0886747-.0343056-.0772545-.0928888.0302301-.0712499.1309968-.0918333.0980796-.0934166-.1477913-.0015833-.4044107.154111-.7497049.338833-.7497049.0791666 0 .1176943-.0503834.0854999-.112187-.0316666-.0618036.0184722-.1162177.1124165-.1209202.3113886-.0161226.5098328-.0839723.7204159-.2478862.1889443-.1464478.6333327-.0900184.6333327.0806134 0 .0309018-.0575278.03023-.1266666-.0013436-.0701943-.0315736-.1868331.0302301-.2601941.1370428-.1150555.1679447-.1150555.1813803.0010555.0994233.1029166-.0738957.1187499-.0490399.0675555.1094999-.0401111.1229355-.0179444.242512.0548888.2975979.1810276.1356993.3330274.1101717.1688887-.0288865-.1071387-.0900183-.0522499-.1047974.2211387-.0597883.2005553.0335889.4401662.0026871.5362216-.0678496.1308888-.0974079.2058331-.0953926.3113886.0080613.111361.1101717.1525276.0980797.2111109-.0624754.0406388-.1101717.0670277-.2371378.0585832-.2834905-.0079166-.0470245.0453889-.0846441.1192777-.0846441s.1498887-.057773.1699442-.127638c.0200556-.0712085.1609721-.1444324.3134997-.1639139.1530554-.0194816.3251108-.1121871.3831662-.2069078.0580555-.094049.139861-.1343557.1820832-.0886748.0422222.0450092.0501388-.0067178.0174166-.1142024-.0728332-.2418402.1076666-.2646807.1857776-.0235122.0496111.1538373.0765277.1518219.2332775-.0167945.1678332-.1807084.1778609-.1793648.1794443.0228405.0010555.1793649.0158333.1867544.0928888.0456809.1366943-.2512451.1171665-.3056592-.1361666-.3808984-.1604442-.0483681-.2258886-.1410735-.2153331-.3056592.0163611-.2619937.3456941-.4574813.7256937-.4312819.3536107.0248558.6660548-.1195766.6660548-.3083463 0-.1209202.0939444-.1565245.3546663-.1343558.3810552.033589 1.0223045-.0927054 1.2529431-.2465427.1145277-.075911.1055554-.0960643-.0474999-.1034539-.2208749-.0151616-.4415206-.0353182-.6618327-.0604601-.8043324-.0900183-1.873609-.0873312-2.259942.0053743-.2644163.0638189-.3493885.0530705-.3024163-.0382914.0411666-.0779263.0158333-.1034539-.0664999-.0658343-.078111.0356043-.203722-.0671779-.3034719-.2485581-.1213888-.2203433-.1372221-.3211101-.0559444-.3533555.0765277-.03023.0580555-.0974079-.0564722-.2035489-.1556942-.1451042-.1456665-.1538373.1129444-.1007668.156222.0322454.2306386.0288865.165722-.0067178-.2396108-.1343557-.1076665-.27274207.2601942-.27274207.2385553 0 .3784162.05172697.3799996.14107347.0005277.1027821.0221666.0994233.0823332-.0127638.0511944-.0953925.1034443-.10949987.1409165-.0376196.0633333.121592.1836665.1121871.4792217-.0382913.1013332-.05105522.3240552-.09673616.495055-.10076683.3921385-.0094049.5193328-.288193.1319443-.288193-.1535831 0-.2944996-.07322387-.3251107-.16794465-.0369444-.11420235.0042222-.16861642.1266665-.16861642.1002777 0 .2158609-.06314718.2570275-.14107349.1087221-.20086179.4939995-.43867141.5932216-.36611932.0464444.03358893.1108332.01074846.1435554-.05239873.0327222-.0624754.1768053-.11420235.3203607-.11420235s.4924162-.08195699.774777-.18205199c.4459717-.15853975.485555-.19481579.3039997-.27542922-.116111-.05172694-.905138-.08733121-1.7548593-.07859809s-1.6007482-.02552758-1.6688315-.0752392c-.0701943-.05172695-.151472-.03694782-.1878887.03358893-.0759999.14577595-3.0162467.25661941-3.0890799.11621769-.0258611-.04903983-.1129444-.05978829-.1936943-.02284047-.0992221.04500917-.1124165.09203367-.040111.14443239.0580555.04299383-.0232222.07792632-.1815554.07792632s-.2871108-.04769628-.2871108-.10748457c0-.05844474-.0649166-.04299383-.1440832.03493248-.0791666.07859809-.1741664.10614101-.2111109.06247541-.0374721-.04366561.038-.17533421.1673054-.29222368l.2348609-.21228202-.2364442.05374228c-.2068887.0470245-.2126942.04097849-.0475-.05239873.2728609-.15450907.7214715-.1377146.9843045.03493249.255972.16794464.5763327.1128588.5763327-.10009501 0-.09807967.1868332-.14174527.6148605-.14443239.3852773-.00268711.6148604.04165027.6148604.11890481 0 .06784963.0527777.04030671.1182221-.06046007.0849721-.13301216.3414719-.20422069.9220268-.25594764.4417495-.04030671 1.0724433-.14376061 1.4007207-.23042004.3282774-.08733122.7325548-.16324219.8982768-.1692882s.5145828-.07994165.7742492-.16391397c.4433328-.14376061.3937217-.14980662-.8038047-.09203366-.7019437.03358893-1.3405541.06180362-1.4186652.06314718-.0775832.00067178-1.0566099.12024836-2.174442.26468076-1.1188877.14510417-2.3380531.2787881-2.7096082.2975979-.3720829.0188098-.6565548.07188031-.6333326.11823303.0242777.0470245-.139861.0846441-.3641663.0846441-.2237776 0-.7900825.07389564-1.2582209.16324219-.8027491.15316551-2.6911359.31170525-2.4346362.2035489.0654444-.02687114.0949999-.09606433.0654444-.15249373-.0295556-.0564294.0659721-.10479746.2121664-.10748457.1461943-.0033589.4143051-.10143857.5963882-.21832804.1820832-.11756124.4164162-.26065008.5203884-.31775126.3419996-.18944155 5.9195491-1.28444061 7.2347699-1.42081166.3900273-.04030671 1.5178872-.17331887 2.5058861-.29558257.9885267-.12226369 2.2926642-.27139854 2.8985524-.33118683.6058883-.06046007 1.3067764-.18205199 1.5569428-.27139854.3288052-.11756125.4728884-.12763792.5203883-.0376196.0596388.11420236 1.0544989.08330055 2.2588865-.07120852.4251355-.04510491.8507405-.0827281 1.276693-.1128588.9331101-.06919319 2.3549419-.30230036 3.1508299-.51592594.2248331-.06046007.4486106-.08061343.4971661-.04500916.0490833.03627604.7077493-.04635272 1.4645818-.18205199 1.1188877-.20153357 1.4160262-.22168693 1.591776-.11017169.1773332.1128588.4042774.094049 1.2481931-.1034539 1.4049429-.32917149 3.2384409-.75642266 4.1525511-.96736113.4158884-.09673611 1.0201933-.24721451 1.343193-.3352175.3229996-.08733121.7272769-.15853974.8982768-.15853974.1715275 0 .5029716-.07188031.7373047-.16122686.3942496-.14980662 1.2022765-.31573592 3.3571908-.69126014.8228708-.13602727 1.6427917-.29954981 2.458914-.49039835.5198605-.11688947 1.3711652-.29558257 1.8915535-.39702113l1.2297209-.24184028c1.1035821-.2163127 1.3141652-.21228203 1.5337205.03023003.1182221.13032504.2153331.29423901.2153331.36477576 0 .06986497.0316667.12092014.0707222.11420236.0390555-.00738957.1688887-.00738957.2871108 0 .1810276.01074846.2005553.0470245.1213887.22303048-.1155832.25661941-.0226944.3950058.1504165.22437404.1952776-.19212867.1504165-.01948158-.0738888.28684945-.1176943.16055507-.3536107.30431569-.5715827.34798129-.3171941.06381897-.3536107.09875145-.2517497.2445274.1525276.21832803.02375.2317636 6.0836878-.63818963.4158885-.06046008 1.1611099-.13301216 1.6551093-.16257042.4939995-.03023003 1.3880541-.10748457 1.9860257-.17197531.5979715-.06516252 1.3854151-.13838638 1.7495814-.16324219.3641663-.02418403.8301935-.09673611 1.0354989-.16055508.2058331-.06381896 1.0217766-.11957658 1.8134424-.12293547.7916659-.00403067 1.4957206-.02955826 1.5648595-.05710118.1699442-.06784964 2.3860807-.20556424 2.9133301-.18138021.2332775.01142023.4892495.09001832.5689438.1753342.177861.19145689.6317494.21026669 2.7428582.11621769.9705823-.0436656 1.8614702-.14241705 2.1538588-.23915317.3821106-.12629437 1.0154433-.16122685 2.6953581-.14779128 1.2080821.01074846 3.2178576-.02015336 4.4660507-.06650608 2.5296362-.094049 2.3945252-.09539255 5.0123001.03963494 1.6946926.08733121 2.6726638.0906901 4.1609955.01545091.2601942-.01343558.3984718-.0470245.3071664-.0752392-.0907777-.0282147-.1651943-.10412568-.1651943-.16861642 0-.07725454.2654719-.09539256.7800547-.05239873.4290831.03627604 1.7163311.11688947 2.8605521.17936488 1.144749.0624754 2.612498.1659293 3.262719.22840471 2.612497.25527585 3.608413.3446224 4.965328.44740452 3.392552.25729119 5.181189.35940153 7.045298.40306714.858166.02082513 1.922164.0718803 2.364442.11420235.487781.04397352.976634.06593206 1.465637.0658343.364166-.00537423 1.087221.04030672 1.607609.10076679.520389.06046007 2.204526.13234037 3.743524.15988329 1.538471.02687115 2.985636.09807967 3.215219.15853975.230111.06046007.752082.13704282 1.16111.16995997.408499.03358893.87611.08733122 1.039721.11890481.559444.10882812 1.432387.18205199 2.70908.22840471 1.124166.04165027 2.216664.14040172 3.830079.34663774.260194.03358893.621722.07389564.803805.09136188.182083.01746625.650222.06381897 1.040249.1034539.390555.04030671 1.050277.10278212 1.465637.1410735.416416.0376196.777944.08397232.803805.10278212.026389.01948158.28975.06516252.585833.10278212.295555.03694782.600082.09606433.675554.13099682.076528.03426071.515639.07792631.97586.09606433 1.264027.05105517 1.262444.0503834 1.262444.23176361 0 .09270544.044861.16794464.100277.16794464.054889 0 .068611-.05844474.031667-.13099682-.046972-.08934655-.015834-.10748457.096583-.05575762.090778.04097849.258611.0752392.373666.0752392.140917 0 .213222.07255208.222722.22437404.016889.26871142-.034305.28080344-.223777.05575762-.197917-.2351225-.419583-.21698448-.353083.0282147.032722.12092014.022694.14779128-.026389.07120853-.054361-.08531588-.320889-.10143857-.836527-.0503834-.887721.08733122-1.55747.06381897-2.78983-.10076678-.494-.06650608-1.13261-.14779128-1.418665-.18070843-.286056-.03358893-.57-.07994165-.630694-.1034539s-.135111.03358893-.165194.12763792c-.040639.12629437-.130361.1504784-.346222.094049-.338833-.08800299-.556277-.12159192-1.458776-.22437404-.364167-.04165027-.687166-.094049-.718305-.11688947-.0665-.04836805-1.331054-.0564294-3.064275-.02015335-1.09936.02418402-1.874664-.04030672-2.453108-.20287713-.326166-.09136188-2.606164-.13099682-2.606164-.04500916 0 .04433738.287111.11688947.63861.16122685.350445.04500916.723055.10076679.827027.12562259.729916.17063176 2.683747.36276043 4.255468.41650271.364166.01343557.707221.05777296.76211.09942323.091306.06919319 2.987219.33723284 3.142914.29088012.036944-.01142024.386332.01477913.77636.05844473.603249.06650608 2.143303.20086179 2.529636.22034337.139861.00671779.156222.15182196.027972.24587095-.091833.06717786-.80486.08330055-1.449804.03224538-.196861-.01612269-.392666-.09539256-.434888-.17667777-.057528-.1094999-.220083-.12763792-.634916-.0718803-.307167.04232205-.586361.09673611-.621194.12092014-.034833.02485581-.12825-.03157359-.206889-.12562259-.079166-.094049-.16625-.12696615-.193694-.07389564-.053305.10211034-1.962276.05844473-2.515386-.05777296-.182083-.03829138-.502972-.08061343-.713027-.09270544-.210055-.01343557-.476055-.08262877-.591111-.15585263-.166777-.10614101-.208999-.10278212-.208999.01679446 0 .08867478-.126667.16189864-.307167.17936488-.74786.07188031-1.794442.06516252-2.624636-.01679446-.596388-.05911652-.851304-.05172695-.758943.02216869.37261.29558257-.327222.44203029-1.416027.29558257-.965832-.13032504-1.137887-.13704283-1.555359-.06180363-.215333.03896316-.517222.03090181-.671333-.01813802-.404805-.12898149-2.510108-.35671442-3.44744-.37350888-.473567-.00991914-.94673-.04039081-1.418665-.09136189-.337778-.04232205-1.01861-.10278212-1.513138-.13435571-.867335-.06331846-1.734163-.13744157-2.600358-.2223587-1.030717-.09815302-2.062442-.17832612-3.094885-.24049673-1.247666-.06717786-1.39861-.0564294-1.452971.11151524-.051195.15921152-.215861.18608266-1.11361.18205199-.579499-.00268711-1.245026.03627604-1.478832.08598766l-.425388.09136188.709332.12495082c.390028.06919319.858166.12427903 1.039721.12226369.182611-.00201533.927305.0752392 1.65511.17063176.728332.09539256 2.111109.23042005 3.073774.29894146.962138.06919319 1.844054.14980662 1.959637.17936488.116111.02955825 1.073499.10278212 2.127998.16324219 1.895248.10748457 3.223663.19615934 4.234356.28080344.286055.02418402 1.267721.09472077 2.180776.15719618.913582.06247541 1.722137.13637105 1.797081.16391397.074944.02687114.221666.08800299.325111.13435571.103972.0470245.353083.09942323.55311.11621769.1995.01746625.412722.11151525.472889.20959492.087083.14107349.333555.18339554 1.196998.20690779.597972.01612269 1.129444.06046007 1.181693.09807967.05225.0376196.413778.09875145.803805.13435572 1.864637.17331887 3.729274.31439236 4.586384.34663773.520388.01948158 1.627137.12360726 2.459442.23109183.831777.10748457 1.895776.2129538 2.364442.23377894 3.239496.1410735 5.827188.32043837 7.186742.49577258.468138.06046007 1.288832.14241706 1.82347.18205199.534638.04030671.99486.11554591 1.022305.16794464.027444.05307051-.090778.10076679-.262833.10546924-.172056.00470245-.432778.01948157-.580555.03224537-.146195.01209201-.285-.0127638-.307694-.0564294-.022695-.04299383-.198445-.02687114-.390556.03560426-.195277.06381896-.622777.08195699-.968471.04030672-.340416-.04030672-2.15122-.094049-4.023773-.11756125-1.872554-.02418403-4.106635-.07658276-4.9648-.11688947-1.530026-.07053675-1.963332-.02687115-.960027.09673611.278666.03358893.526722.08665943.552055.11621769.067555.08061343-.278139.27811633-.56525.32379727-.334082.05374228-.439638.19548756-.15411.20825135.126138.00470245.782165.0564294 1.458248.11420236.676083.05710118 2.005553.13435571 2.955552.17063175 1.56011.06046007 1.725832.08531588 1.725832.26266542 0 .24721451.379999.30565925 2.674775.41045673.925193.042322 1.70472.1195766 1.731637.1719753.026916.0517269.235916.094049.463916.094049.776888 0 .559444.3103617-.395833.5629504-.269166.0712085-.630694.1202484-.803277.1088281-1.152138-.0759109-.849721.1451042.442277.3237973.520389.0718803 1.243443.1545091 1.60761.1847391.364166.0302301 1.023887.1047975 1.466165.1666011.441749.0611319 1.335276.1451042 1.986025.1854109.800638.0503834 1.212305.1215919 1.276693.2216869.05225.0806134.3895.1793649.756305.2196716.364166.0403067.704583.1343557.756833.2102667.051722.0752392.405333.1713035.784804.2129538.38.0416503.786388.1498066.902499.2404967.134056.1041257.543083.1827238 1.106749.2142974 1.214943.0671778 2.167053.1934722 2.219831.2949108.055417.106141-.772666.2586347-.89986.1652575-.052778-.0382914-.095-.0214969-.095.0369478 0 .0584448.148833.1390582.330916.1800367.359417.0799416.4275.2196716.165722.3399199-.309277.1424171.1235.3674629 1.095666.5710118.816471.16996 1.332637.3808985.956332.3903034-.353611.0087331.192111.2069078.759999.2754292.337778.0416502.663416.1236072.723583.1833955.060694.0591165.378944.1592115.708277.2223587.91411.1746624.904082.3157359-.0285.4023954-.348333.0322453-.666583.1283097-.762638.23042-.134583.1424171-.298722.1598833-.898277.0933772-1.219165-.1350274-1.460887-.1088281-1.644026.1786931-.089722.1410735-.144611.2915519-.121916.3352175.022694.0429939.327221.1142024.678193.1571962.350444.0429939.679777.1175613.732027.1666011.051722.0483681.296611.1236073.543611.1672729.678193.1195766.53886.2781163-.244361.2781163-.381055 0-.725694.0382914-.765277.0846441-.039056.0463527-.435944.0839723-.881388.0839723-.563138 0-.822277.0429938-.850249.1404017-.027972.0960644.073889.1404018.321944.1410735.1995 0 .511944.0470245.693499.1034539.182083.0564294.691388.1343557 1.131555.1739907.440166.0389631.848665.118233.907249.176006.058055.0577729.131416.0752392.161499.0396349.030612-.036276.154111-.0235122.274972.0275429.169945.0718803.069139.1094999-.441749.1645858-.603249.0651625-1.291471.2290765-1.655109.394334-.231167.1047974.128249.2203434 1.205443.3869444.533055.0826288.969526.1800367.969526.2163127 0 .0369479.276556.045681.614861.0201534.493999-.0369478.614333-.0141074.614333.1175612 0 .2035489-.29925.5360793-.480278.534064-.110833-.0013436-.109777-.0201534.007389-.1108435.121389-.0927054.117167-.1088281-.026389-.1101716-.092889-.0013436-.193694.0765827-.224833.172647-.0475.1477913-.219027.1652576-1.155832.1148742-1.173249-.0624754-1.461943.012092-1.245554.3211101.362055.5172695 1.838776 1.0735022 2.854219 1.0735022.613277 0 .933638.1356992.933638.3963493 0 .1303251-.151472.163914-.733083.1612269-.403221-.0006718-.903026-.0550859-1.110971-.1202484-.208472-.0651625-1.188554-.1410735-2.178664-.1692882-1.750637-.0490398-1.800776-.0443374-1.814498.1746625-.013722.2163126.101861.3714935.304527.4104567.05225.0100766.460222.100095.906722.20019 1.461943.3264843 2.759747.5260026 4.088162.6267694 1.230249.094049 1.650359.2223587 1.523165.4668861-.029028.0557576-.093417.0712085-.143555.0349325-.049612-.0362761-.078639 0-.064389.0826287.014777.081957-.0475.1410735-.138278.1330122-.09025-.0087332-.144083.0235122-.11875.0718803.024806.0476963-.099222.1195766-.276027.1585397-.381583.0853159-.471833.2875212-.276555.6187081.103972.1766777.115583.282147.041166.388288-.121916.1739906-.042222.2928954.195278.2928954.096055 0 .174166.021497.174166.0470245 0 .0261994.027972.1343557.062278.2418403.058055.1780213-.005278.188098-.780055.1189048-.463388-.0403067-1.002777-.1041257-1.198054-.1410735-.281833-.0530705-.354139-.0309018-.354139.1088282 0 .0960643-.068611.2203433-.152527.2761009-.216389.1437607-.086556.7906834.184722.9203367.194222.0933772.195277.0987514.015305.1128588-.189472.0147791-.189472.0147791 0 .1115152.184722.094049-.073888.1343557-1.040776.1625704-.403222.0114203-.708805.1625704-.708805.3499967 0 .1007667-.098167.1612268-.260194.1625704-.159752.003363-.318855.0267645-.475.0698649-.201611.063819-.204777.0772546-.0475.2189999.092361.0833005.283944.1524937.426444.154509.1425.0020154.539389.1807085.882444.3963494.346222.218328.761582.3929904.933638.3929904.572638 0 1.46722.1430889 1.422887.227733-.024278.0463527.0285.0765827.117167.0685214.089778-.0070703.171026.0674003.194222.1780213.043277.2472145-.515111.6724503-.803277.612662-.115056-.024184-.224833.0114203-.243833.0785981-.044334.1585398-1.148444.2035489-1.589665.0644908-.187361-.0591165-1.155832-.1209202-2.15122-.1377146-1.68361-.0282147-2.180248.0288865-1.55061.1793649.1425.0335889.45125.1128588.685583.1760059.272835.0683535.549614.1081217.827555.1189048.22061.0026872.401638.0557577.401638.1175613 0 .0611318.0665.112187.147778.112187.081805 0 .235916.0550859.343055.1229355.191583.1222637.191055.1249508-.030083.2559476-.388444.2297483-.268111.446061.384221.6919319.334083.1262944.628055.303644.652333.3929905.024278.0900183.081805.1928004.127722.2284047.144611.1128588-.0285.4588248-.192111.3842574-.082861-.0376196-.124027-.0369479-.092361.0006717.031667.0376196-.049083.1961594-.1805.352012-.172583.2042207-.349916.288193-.642832.3016286-.222722.0100767-.387917.0510551-.366805.0920336.021111.0403067-.368917.0483681-.866611.0181381-.723582-.0443374-.936804-.0208252-1.063998.1148741-.17575.1894415-1.104638.2673679-1.589138.1336839-.184722-.0510551-.319833-.0356042-.360471.0416503-.035362.0678496-.164667.1236073-.287111.1236073-.285 0-.5225.1074845-.5225.236466 0 .0550858.06175.1007668.137222.1007668.075473 0 .173111.075911.217445.16996.049611.1054692.419582.248558.974276.376196 1.092499.2525887 1.896832.6381896 1.820832.8733121-.031495.0920303-.11363.1372549-.187889.1034539-.073889-.0335889-.110833-.0161227-.081805.0403067.029027.0550858-.058584.2586348-.195278.4507634-.182083.2572912-.297666.3305151-.438055.2781163-.105028-.0403067-.16625-.0261993-.136694.0302301.029555.0564294-.095.1074846-.2755.1142023-.181028.0053743-.628055.0974079-.992749.2035489l-.663944.1928005.211111.2673679c.116111.1464477.250694.266696.298722.266696.048556 0 .233805.081957.412194.1827238.311389.1753342.318777.1934722.181028.4433739-.090778.1639139-.108723.2861776-.048556.3298432.024896.0177886.042783.0480593.049306.083438.006522.0353786.00108.0726174-.015.1026447-.039056.0752392-.089723.0624754-.143556-.0356043-.053833-.0987514-.107666-.112187-.153583-.0376196-.039055.0624754-.198444.1874263-.354666.2767728l-.283944.1625704.299249.0376196c.324055.0416503.497694.3291715.262833.4366561-.079166.036276-.167833.0376196-.196861.0033589-.0285-.0335889-.193694.0329171-.366805.1477913-.214126.1331509-.440819.2306875-.674499.2902083-.197389.0443374-.416944.1477913-.486611.2310918-.165722.1968311-.230638.1928005-1.109387-.0738956-.789027-.239825-1.011221-.2169845-1.334749.1343557-.182611.1975029-.255972.2069078-.749971.0987515-.648638-.1424171-1.869387-.1605551-1.79972-.0268712.026388.0510552.358888.1558526.73836.2331072.966888.1954875 1.07561.2378096.916749.3540273-.274972.2015335.95686.6784963 2.161247.8356925.325111.0423221.612222.1168895.637028.1652575.025333.0483681-.043278.2230305-.153056.3876163-.182611.276101-.186305.3143923-.045389.4984597.083389.1101716.152.2277329.152.2619936 0 .1383864-1.601276-.0611319-2.12747-.2660243-.75736-.2935672-2.290025-.5078646-2.431469-.33992-.074945.0886748-.076.1652576-.002639.270055.099222.1410735.250694.2015336 1.512081.6032572.393195.1249508.591111.2445274.591111.3567144 0 .142417-.111889.1571962-.701944.094049-.449666-.0490399-.723054-.0335889-.76211.0403067-.03325.063819-.008444.1162177.055417.1162177.063333 0 .093944.0261993.067027.0577729-.063333.0752392-1.402831-.2579629-1.535831-.3829137-.105028-.0974079-1.485693-.3493249-1.780193-.3251409-.091305.0080614-.165722.0772546-.165722.1545091s-.022167.2082514-.049083.2915519c-.046445.1437606 1.108332.4346407 3.09858.7799349.299249.051727.698249.1706318.886665.2646808.188417.0933772.475528.1699599.638611.1699599.428027.0013436 1.043415.2237023.943666.3412636-.045917.0550858-.621722.1142023-1.27986.1316686-.657611.0174662-1.189082.0403067-1.18011.0510551.008444.0100767.225889.1168895.482916.2364661.447555.2089231.458111.2237022.253333.3540273-.159916.1014385-.330916.1054692-.684527.0154509-.575277-.1464477-.651277-.1484631-.651277-.0167945 0 .0571012.126667.1363711.282361.1773496.517222.1343557.405333.2808034-.214805.2808034-.361 0-.726222.0712085-.903555.176006-.179444.106141-.380527.1451042-.506666.0974079-.270222-.1014386-4.710412-.1410735-4.658162-.0403067.109778.2109384-1.130498.2095949-2.18922-.0026871-2.143831-.4292666-3.967829-.6731222-5.144244-.6885731-.650221-.0080613-1.629248-.0839723-2.175498-.1692882-.719261-.1065045-1.43997-.1965373-2.161775-.270055-.64336-.0631471-1.196471-.1343557-1.229721-.1585397-.03325-.0235122-.379472-.0752392-.769499-.1148741-.346938-.0342953-.693537-.0739331-1.039721-.1189048-.379472-.0544141-2.104776-.1686165-3.357719-.2223587-1.072963-.0513312-2.144945-.1317389-3.215218-.2411685-.312445-.033589-1.525277-.081957-2.695359-.1074846-1.17061-.0268712-2.553386-.0900183-3.073774-.1410735-.519861-.0497116-1.958054-.0866594-3.196747-.0806134-1.872025.0094049-2.265747.0396349-2.340692.1766777-.075999.1410735-.102388.1417453-.174166.0094049-.057-.1047974-.178389-.1343557-.364694-.0906901-.154111.0369478-.326166.0114202-.383166-.0564294-.057-.0671778-.243833-.1336839-.415361-.1464477-.168799-.0122902-.336504-.0423997-.501388-.0900183-.566833-.1995183-1.157416-.2572912-1.395443-.1370429-.191056.0967361-.667638-.0174662-.601666-.1437606.024278-.0470245-.431194-.0987514-1.012805-.1148741-1.565387-.0450092-1.727414-.0651625-1.904748-.239825-.144083-.1417452-.158333-.1350275-.129833.0591166.021639.1477912-.013722.2055642-.109777.1786931-.117083-.0267247-.235722-.0408818-.354667-.0423221-.117166-.0013436-.212694-.0409785-.212694-.0886748 0-.0470245-.068611-.1168894-.152528-.1551808-.110833-.0503834-.137222-.0214969-.095527.106141.039055.1209201.020055.1477913-.060167.0873312-.064916-.0490398-.521444-.1047974-1.015971-.124279-1.039193-.0403067-.884555-.0403067-5.768605-.0201534-2.0546365.0094049-3.9984399-.0201533-4.320384-.0644907-.3219441-.0450092-.6560271-.0490399-.7436381-.0087331-.1609721.0732238-3.250052.2176562-4.1995232.1968311-.7420548-.0167945-1.5838594.5011468-1.115721.6865577.0696666.0268711.0211111.1068128-.1182221.1948157-.1298332.0806135-.2596664.1901134-.2886942.2418403-.1044998.188098-.9077767.2935673-1.1352487.1484631-.1440832-.0913619-.5246106-.1236073-1.1236377-.0967361-.4982217.0228405-2.1348588.0685214-3.6363849.1007668-1.5020539.0329171-2.8341636.0900183-2.9608301.1276379-.1261388.0376196-.6628882.0765827-1.1927765.0859876s-1.0486933.0738957-1.1526654.1430889c-.1857776.124279-1.0629433.3278279-1.2096654.2808034-.1810276-.0571012-.5172217-.0429938-.8233324.0356043-.1820832.0470245-.4164162.0765827-.5203884.0665061-.1039721-.0100767-.2744441-.027543-.3784162-.0389632-.1039721-.0107485-.5932216.0403067-1.087221.112187-.4939995.0725521-1.0824711.1309968-1.3073042.1296533-.2248331-.0013436-.4591662.0456809-.5203883.1041257-.0612222.0584447-.2496386.1410735-.4185273.1840673-.2517498.063819-.3071664.0436656-.3071664-.112187 0-.1679447-.078111-.1813802-.6861103-.1101717-.376833.0436656-1.3664152.0906901-2.1981921.1047974-.8323046.0147792-1.7427203.0853159-2.02297.157868-.1840736.0504675-.3692198.0943742-.5552216.1316686-.0253333 0 .0068611.075911.0717777.1686164.0649166.0927055.2617775.1679447.4369995.1679447.1757498 0 .319833.0214969.319833.0470245 0 .0261993.0258611.1276379.0569999.2250458.0791666.2431838-.1873609.2310918-.3974162-.018138-.1192777-.1410735-.1757498-.1565244-.2042498-.0550859-.0211111.0765828-.078111.1108435-.125611.0765828-.0474999-.0349325-.0865554-.0228405-.0865554.0268711 0 .0503834-.0955277.0974079-.2126942.1047975-.1171666.0073895-.7658048.0712085-1.4424151.1410735-.6755549.0698649-2.0377478.1471195-3.0262745.1719753-.987999.024184-1.9031646.0725521-2.0329978.106141-.440694.1142024-2.8631914.3808984-4.1609955.4568094-2.4056085.1410735-4.2290787.5495149-4.6048561 1.0311801-.1176943.1504784-.3251108.2720703-.4739439.2781163-1.2239154.0470245-2.923358.1981747-3.6691072.3264844-.4045625.066209-.8101581.1217545-1.2165264.1666011-.376302.040661-.7512836.0991463-1.1241655.1753342-.2612497.0591165-.4908328.1074846-.509305.1074846-.0189999 0-.0343055-.1296533-.0343055-.2875212z" fill="#a9e34b" fill-rule="evenodd" transform="matrix(-1 0 0 -1 171 51.056)"/></svg>