<svg height="52" viewBox="0 0 171 52" width="171" xmlns="http://www.w3.org/2000/svg"><g fill="#fcc419" fill-rule="evenodd"><path d="m44.5951133 50.547904c-.0501388.0376196-.1546387-.1115153-.2316942-.3291715-.0812777-.2310918-.2058331-.3976929-.2981941-.3976929-.1250832 0-.135111-.0335889-.0475-.157868.0844444-.1209201.0812777-.1686164-.0126666-.206236-.0960555-.0382914-.0918333-.0920337.0200555-.2532605.1076666-.1565244.1134721-.2163127.0232222-.2525888-.0649166-.0255275-.1182221-.0960643-.1182221-.1565244 0-.06046.0422222-.0785981.0939444-.0403067.0533054.0389632.0691388-.0067178.0369444-.106141-.0311389-.0960643-.0079167-.1746624.0517221-.1746624.0786388 0 .0807499-.0604601.0068611-.2243741-.0812777-.1800366-.0723055-.224374.0475-.224374.1203332 0 .1266665-.0288865.0306111-.1504784-.1224444-.1551808-.3604719-.0161227-.329333.1928005.0079166.0537422-.0353611.1202483-.0960555.1464477-.0728332.0322454-.0918332-.0362761-.0559444-.1995183.0300833-.1370428.0158334-.2216869-.0316666-.1887697-.0469722.0322453-.170472.0221687-.2744441-.0235123-.1498888-.0651625-.1055555-.0994232.2126942-.1639139.2506941-.0510552.4021662-.1410735.4021662-.239825 0-.0873312.0823332-.1585397.1836665-.1585397.1008054 0 .2417219-.0987515.3129719-.2196716.127722-.2156409.6090548-.5105517.7652769-.4682297.0443333.0114203.3208885-.0503834.6148604-.1383864.3717306-.1045573.7474899-.1843833 1.1257488-.2391531.3251108-.0436656.6148605-.1249509.6438882-.1807085.0290278-.0557576.1461943-.1021103.2601942-.1034539.1134721-.0013435.4623328-.1518219.7742491-.3345457.3124441-.182052.639666-.3325304.727277-.3338739.0881388-.0013436.1863054-.0537423.2184998-.1148742.0321944-.0618036.0105555-.112187-.0480277-.112187-.1314166 0-.0844444-.5018186.0480277-.5132388.0522499-.0040307.2813052-.0712085.509305-.1477913.2279997-.0779263.5182772-.1108435.6454715-.0725521.1266665.0376196.3657496.0188098.5309439-.0416503.1651942-.06046.5378049-.1645857.8280824-.2324353.7969436-.1847391 1.2218042-.3392482 1.2218042-.4433739 0-.1088281-4.851328-.0335889-6.0525489.094049-.6328049.0671779-.8739991.0483681-1.134721-.0859876-.1820832-.094049-.3525552-.1780214-.3784163-.1874263-.0263889-.0087331-.1715276-.0772545-.3235274-.1511501-.1519999-.0745675-.343583-.1047975-.4259162-.0671779-.0818055.0382914-1.3405541.0873312-2.7972192.1094999-1.4561373.0221687-2.8394414.0906901-3.0732467.151822-.2338053.0618036-.9352212.1706317-1.558526.2418402-.6233049.0725521-1.2149432.1827238-1.3141653.245871-.0997499.0631472-.3889718.0913619-.6428326.0624754-.2543886-.0295583-.4850273-.0087331-.5129995.0450092s-.0907776.0685214-.1393331.0335889c-.0480278-.0356043-.0876111-.0114202-.0876111.0537423 0 .0658343-.0316666.1088281-.0712499.0967361-.1572776-.0490398-.9689989.1545091-.9689989.2438556 0 .1094999-.7146104.2915519-.9848323.2512452-.0992221-.0154509-.2607219.0738956-.3583607.1988464-.0976388.1242791-.2501664.2324354-.3393608.239825-.0891943.0067178-.416944.024184-.7293881.0376196-.3113885.0134356-.7373047.081957-.9452489.1531655-.208472.0718803-.5393883.1585397-.7357215.1928005-.1963331.0349324-.3340829.1074845-.3061107.1612268.0881388.1692882-.1219166.2136256-1.764887.3721653-.087611.0087332-.1514721.063819-.1424998.1222637.0094999.0584448-.0680833.1356993-.1720554.1719753-.150119.0641218-.2936461.1509549-.4274996.2586348-.1720553.1390582-.530416.2136256-1.2772208.2653525-.5705271.039635-1.1357765.0671779-1.2561097.0604601s-.3493885.0685214-.509305.1666011c-.1646665.1007668-.3156108.1336839-.348333.0752392-.0818055-.1437606-.4148329-.282147-.3419996-.1410735.0770555.1477913-.0147778.1397299-.2665275-.0221687-.5082495-.3271562-2.9143857-.0785981-3.1656077.3264844-.0775832.1256226-.0860277.2102667-.0232222.2351225.0538333.0214969.0976388.0833005.0976388.1383864 0 .054414-.0596388.0718803-.1319443.0389631-.0728332-.0335889-.1604443-.0067178-.1952776.0597883-.0913054.176006.4749995.1504784.7811103-.0356043.1403887-.0853158.4470273-.1921286.6808326-.2378096.2343331-.0450091.5003328-.0987514.5911105-.1189048.0913054-.0201533.165722.0295583.165722.1108435 0 .1041257.1176943.1356993.4016385.1094999.3108607-.0288865.3641662-.0114202.2348608.0779263-.092361.0631472-.1461943.1558526-.1203332.206236.0559444.1074846-.4728884.2163127-1.4962484.3070028-.5752771.0503834-.762638.0302301-.8259713-.0886747-.0601666-.1121871-.082861-.1162177-.0844443-.0141074-.0015834.206236-.5699994.1726471-.7737214-.0456809-.0949999-.1021104-.1731109-.1383864-.1731109-.0799417 0 .0644908-.3066386.075911-.7800547.0295583-.4290829-.0429939-1.09936-.1054693-1.4893873-.1390582-.3905551-.0335889-.8491935-.1209201-1.0201934-.1928004-.170472-.0712086-.4164162-.1061411-.5457216-.0765828-.1298332.0288865-.2623053.0013436-.2955552-.0611318-.0364166-.0705368-.0116111-.0799417.0643888-.0241841.0770555.0564294.1008054.0470245.0633333-.0255276-.07125-.1370428-.5224995-.26065-1.0560822-.2902083-.315083-.0174662-.3799996-.0611318-.388444-.2619936-.0095-.2149692.0559443-.2499017.6143326-.3271562.3441108-.0470245.7314992-.0752392.8613324-.0618036l.2364442.024184-.2506942-.1612269c-.4354162-.2808034-.8592213-.3997082-1.6878315-.4715885-.4422773-.0382914-1.0803599-.1524937-1.4186651-.2532605-.7774158-.2317636-3.47541288-.2499017-3.5931072-.0235123-.04019723.0776708-.12025854.1035839-.18472202.0597883-.15833316-.1162177-1.89894238-.1545091-1.83930355-.0416503.05488883.1068128.04116662.1081564-1.19594315.1531656-.87347127.0315736-1.24185976.0698649-2.5491639.2653525-.59638824.0886748-.94472119.0376196-1.28566526-.188098-.14249985-.0953926-.11188877-.1491348.23222196-.406426.27655526-.2082514.61538823-.3298433 1.12627656-.4064261.87241572-.1309968 1.70472037-.2955825 2.30427527-.4568094.3588885-.0960643.43013842-.1551808.39266624-.3258126-.02691663-.1222637-.10027767-.1840673-.17838869-.1477913-.07283326.0329172-.13247208.0040307-.13247208-.0644907s.07388881-.1249508.16519426-.1256226c.1414443-.0013436.14513874-.0174663.02374998-.1108435-.08972213-.0685214-.09974989-.1094999-.02638886-.1101717.06333326-.0013435.09077768-.0779263.0601666-.1713035-.03799996-.1175612.05647216-.2270611.310333-.3614169l.36522182-.1921286-.92361011-.0671779c-.49610548-.0372132-.99294929-.0562548-1.48991504-.0571012-.31138855.0067178-.56524939.0053743-.56524939-.0026871 0-.0073895.08444435-.130325.18894424-.2727421.10397211-.142417.18894424-.224374.18894424-.1827237 0 .0416502.09605545.0013435.21322199-.0900184.11716654-.0906901.52830498-.2237022.91411012-.294239.38527736-.0712085.86924905-.20019 1.07560994-.2861776.23270918-.0924232.4737456-.1466045.71724922-.1612269.52672165-.006046 1.85302576-.4151592 1.46985951-.4534505-.09272287-.0144624-.18484021-.0346394-.27602747-.0604601-.10142779-.0275866-.20293767-.0546819-.30452745-.0812852-.21638865-.0564294-.23011086-.1652575-.03061108-.2404967.10977766-.0416503.310333-.1975029.44649952-.3473096.13616651-.1498066.34199962-.2720703.45811061-.2720703.11611098 0 .25966638-.0691932.31930521-.154509.08866657-.1262944.01055554-.1672729-.43805508-.227733-.27673575-.0367466-.55297669-.0792983-.82861021-.1276379-.37155515-.0712085-1.84880355-.0611319-1.95013677.0134356-.13722208.1007668-1.21863757.1477913-1.21863757.0537423 0-.0503834.06386104-.1538373.14249985-.2304201.07758325-.0772545.14144429-.1928004.14144429-.2572912 0-.0644907-.02797219-.0839723-.06227771-.0429938-.03430552.0403067-.11927765.0174662-.18894424-.0510552-.07019437-.0691932-.12666653-.0772545-.12666653-.018138s-.06438882.1074846-.14249984.1074846c-.2269442 0-.16466649-.1202484.14777761-.2841624.35097184-.1847391.30083301-.2619936-.26547193-.4077696-.51616611-.1343557-.61433267-.342607-.24436085-.5199566.38316625-.1833955 2.18235874-.4212051 3.21099651-.424564.48238837-.0013436.98958226-.0362761 1.12733211-.0772545l.25122195-.0745675-.26916637-.2619936c-.14883317-.1437606-.34199963-.2633372-.42961065-.2653525-.22430531-.006046-.29238857-.1840674-.17205537-.4507635.12666653-.282147.9494712-.7879962 1.27985973-.7879962.13933318 0 .22008309-.0483681.18683313-.112187-.03219441-.0618037-.1366943-.112187-.23222197-.112187-.1599165 0-.33777742-.2801317-.30294412-.4769628.03588885-.20019-1.46458174.0235122-1.59019272.2371378-.09605545.1625704-2.51116393.5891498-2.7481359.4843523l-.22641642-.0987514.22008309-.1397299c.12086098-.0772546.90672124-.2754293 1.745887-.4420303 1.53583166-.3036439 1.9100257-.5179413.90355457-.5179413-.30927744 0-.59374935-.0644908-.68611037-.1545091-.1319443-.1289815-.31349965-.1323404-1.07983216-.0214969-1.40916513.2042207-2.2272198.3446224-2.4193307.4144874-.12719431.0463527-.16572204.0134356-.14249984-.1236073.03483329-.1988464.32722186-.4319536.78638803-.6267694.39477735-.1672728.14936095-.3143923-.35572184-.2136256-.21902754.0443374-.58952713.115546-.82333243.1592116l-.42591621.0785981.35466628-.4030672c.19527757-.2216869.35466628-.4212051.35466628-.4433738s-.2638886-.075911-.58583269-.1189048c-.76369362-.1027822-1.17113762-.3560427-1.16596015-.7248491.00273919-.1948158.61496075-.4547941 1.18390457-.5038339.23433308-.0208252.76686028-.1175613 1.18274872-.215641.41588843-.0980796 1.05449885-.2015335 1.41866512-.2290764.41158515-.0342034.82185575-.0904588 1.22972089-.1686165 1.93747011-.4037389 2.37341409-.5038339 2.45733066-.5602633.05119439-.0349325-.09763878-.1189048-.33091631-.1860826-.23486085-.0678497-.42433287-.188098-.42433287-.270055 0-.1887698.95316563-.5992265 1.81819247-.7826221.42063843-.0893465.73202698-.2216869.83388798-.3560426.09130546-.1195766.40797178-.270055.72094364-.3432788.7109159-.1659293.6913882-.3237973-.0807499-.6623737-.16519425-.0725521-.28183302-.1901133-.25861082-.2619936.05383328-.1618987.49188832-.409785.72622142-.409785.0965832 0 .149361-.0510551.1171666-.112187-.0316667-.0618036-.3747219-.1128588-.76211033-.1128588-.63755486 0-.89352681-.1142023-.5858327-.2619936.27602748-.1323404-1.10410991-.0604601-1.78599805.0920336-.84866575.1907852-1.31099858.1108435-1.31099858-.2257176 0-.1558526.24752751-.3594015.92888788-.7664993.6412493-.3835856.88930459-.5844473.8032769-.6502816-.16361093-.1249509-.0021111-.2532606.6322771-.5018186.89511013-.3513402 1.60549828-.9391465 1.51208168-1.2528671-.06333326-.2136255.2855275-.330515 1.7274148-.5777295.7161937-.1229355 1.4339707-.3009568 1.5944149-.3963494.1604443-.094049.5003328-.2015335.7552492-.2384814.7029992-.100095 2.0477756-.5038339 2.2578309-.6778245.1023888-.0846441.315083-.157868.4728884-.1625704.1572776-.0040307.3710273-.0510552.4749994-.1041257.1509443-.0765828.1124166-.0994232-.1889442-.1128588-.8059158-.0356043-1.2339431-.1296533-1.3405541-.2955826-.0728332-.1135306-.1868331-.1477913-.3309163-.1007668-.189472.0604601-.1963331.0537423-.0527777-.0537423.0918332-.0678496.2411942-.1094999.3309163-.0920336.0998177.0156711.2010596-.0060399.291333-.0624754.0749444-.0557576.2221942-.033589.3604718.0537423.1815554.1155459.2723331.1189048.4116663.0154509.1134721-.0839724.2005553-.0920337.2364441-.0228405.0316667.0604601.2997775.1115152.5953327.1142023.296083.0020154.6449438.075911.774777.163914.2834163.1921287.3784162.206236.3784162.0564294 0-.0618036-.0664999-.112187-.1477776-.112187-.0807499 0-.1240276-.0450092-.0949999-.0994232.0279722-.0550859-.0374722-.127638-.1467221-.1612269-.1087221-.0335889-.1794442-.1276379-.1567498-.2089231.0416944-.1498066.4649717-.2378096 1.7754425-.3681347 1.1838043-.118233 1.5131373-.1813802 1.5131373-.2915519 0-.0584447-.0633333-.1054692-.1419721-.1054692s-.1414443-.100095-.1414443-.224374c0-.1645858.0633333-.2243741.2364442-.2243741.2718053 0 .3182497-.1733189.0670277-.2512452-.0928888-.0288864-.5715827-.0255275-1.0639988.0073896-1.4329151.0960643-2.006609.0644907-2.3063864-.1283097-.1525276-.0980797-.3039997-.157868-.3377774-.1336839-.03325.0248558-.04275-.0974079-.0211111-.2713986.0469722-.3788831-.0865555-.4379996-1.0571378-.470245-.5810827-.0188098-.6264715-.0356042-.4243328-.1598833.3324996-.2042207 1.5511372-.4971161 2.2778864-.5481713.3715551-.0261993.7219992-.118233.848138-.2230305.2691663-.2230304.4306661-.2263893.6122215-.0107484.0818055.0974079.3098052.1679446.5372772.1659293.7008881-.0040307 3.3160242-.3197666 3.6712182-.4433739.3314441-.1142023.3414719-.1330121.2718053-.5011468-.0443333-.2317636-.0343055-.4279229.0248055-.4984597.0675555-.0806134.0649166-.1639139-.0089722-.2693832-.2258886-.3231255.0612222-.3896315 1.4413596-.3358893 1.0724432.0423221 1.407054.0194816 1.6244982-.112187.2301109-.1397299 1.2682486-.3318586 1.9765256-.3661193.1039721-.0053742.4016385-.0544141.6618326-.1094999l.4728884-.1007668-.4253884-.0812852c-.2343331-.0450092-.9362768-.0557576-1.5606372-.024184-.6616909.0323524-1.3238547.0464631-1.9860256.042322-.4681384-.0087331-1.3827763.0671779-2.0329978.1679447-1.2867208.1988464-2.6135527.3379046-3.1846077.3338739-.198972-.0013435-.3889718.0416503-.4211662.0953926-.0327222.0537423-.1926387.1041257-.3546663.112187-.1625553.0080613-.2955552.0564294-.2955552.1074846 0 .0510551-.0955277.06046-.2126942.0214969-.1667776-.0550859-.1820831-.0450092-.0707222.0470245.1219166.1014385.1187499.118233-.0237499.1195766-.0913055.0013435-.1657221.0577729-.1657221.1269661 0 .0765828-.0897221.0550859-.2327497-.0564294-.2586108-.2015336-.3726107-.2324354-.2939719-.0812852.0284999.0544141-.0327222.1256226-.1361665.157868-.1076666.0335889-.1878887.0026871-.1878887-.0718803 0-.0752392-.149361-.1296533-.3546663-.1296533-.2253609 0-.3467496.0490398-.3324996.1350275.0153055.0927054-.0870833.118233-.3272219.081957-.3937218-.0604601-.7821658-.3211102-.7842769-.528018-.0010556-.0886747-.0343056-.0772545-.0928888.0302301-.0712499.1309968-.0918333.0980796-.0934166-.1477913-.0015833-.4044107.154111-.7497049.338833-.7497049.0791666 0 .1176943-.0503834.0854999-.112187-.0316666-.0618036.0184722-.1162177.1124165-.1209202.3113886-.0161226.5098328-.0839723.7204159-.2478862.1889443-.1464478.6333327-.0900184.6333327.0806134 0 .0309018-.0575278.03023-.1266666-.0013436-.0701943-.0315736-.1868331.0302301-.2601941.1370428-.1150555.1679447-.1150555.1813803.0010555.0994233.1029166-.0738957.1187499-.0490399.0675555.1094999-.0401111.1229355-.0179444.242512.0548888.2975979.1810276.1356993.3330274.1101717.1688887-.0288865-.1071387-.0900183-.0522499-.1047974.2211387-.0597883.2005553.0335889.4401662.0026871.5362216-.0678496.1308888-.0974079.2058331-.0953926.3113886.0080613.111361.1101717.1525276.0980797.2111109-.0624754.0406388-.1101717.0670277-.2371378.0585832-.2834905-.0079166-.0470245.0453889-.0846441.1192777-.0846441s.1498887-.057773.1699442-.127638c.0200556-.0712085.1609721-.1444324.3134997-.1639139.1530554-.0194816.3251108-.1121871.3831662-.2069078.0580555-.094049.139861-.1343557.1820832-.0886748.0422222.0450092.0501388-.0067178.0174166-.1142024-.0728332-.2418402.1076666-.2646807.1857776-.0235122.0496111.1538373.0765277.1518219.2332775-.0167945.1678332-.1807084.1778609-.1793648.1794443.0228405.0010555.1793649.0158333.1867544.0928888.0456809.1366943-.2512451.1171665-.3056592-.1361666-.3808984-.1604442-.0483681-.2258886-.1410735-.2153331-.3056592.0163611-.2619937.3456941-.4574813.7256937-.4312819.3536107.0248558.6660548-.1195766.6660548-.3083463 0-.1209202.0939444-.1565245.3546663-.1343558.3810552.033589 1.0223045-.0927054 1.2529431-.2465427.1145277-.075911.1055554-.0960643-.0474999-.1034539-.2208749-.0151616-.4415206-.0353182-.6618327-.0604601-.8043324-.0900183-1.873609-.0873312-2.259942.0053743-.2644163.0638189-.3493885.0530705-.3024163-.0382914.0411666-.0779263.0158333-.1034539-.0664999-.0658343-.078111.0356043-.203722-.0671779-.3034719-.2485581-.1213888-.2203433-.1372221-.3211101-.0559444-.3533555.0765277-.03023.0580555-.0974079-.0564722-.2035489-.1556942-.1451042-.1456665-.1538373.1129444-.1007668.156222.0322454.2306386.0288865.165722-.0067178-.2396108-.1343557-.1076665-.27274207.2601942-.27274207.2385553 0 .3784162.05172697.3799996.14107347.0005277.1027821.0221666.0994233.0823332-.0127638.0511944-.0953925.1034443-.10949987.1409165-.0376196.0633333.121592.1836665.1121871.4792217-.0382913.1013332-.05105522.3240552-.09673616.495055-.10076683.3921385-.0094049.5193328-.288193.1319443-.288193-.1535831 0-.2944996-.07322387-.3251107-.16794465-.0369444-.11420235.0042222-.16861642.1266665-.16861642.1002777 0 .2158609-.06314718.2570275-.14107349.1087221-.20086179.4939995-.43867141.5932216-.36611932.0464444.03358893.1108332.01074846.1435554-.05239873.0327222-.0624754.1768053-.11420235.3203607-.11420235s.4924162-.08195699.774777-.18205199c.4459717-.15853975.485555-.19481579.3039997-.27542922-.116111-.05172694-.905138-.08733121-1.7548593-.07859809s-1.6007482-.02552758-1.6688315-.0752392c-.0701943-.05172695-.151472-.03694782-.1878887.03358893-.0759999.14577595-3.0162467.25661941-3.0890799.11621769-.0258611-.04903983-.1129444-.05978829-.1936943-.02284047-.0992221.04500917-.1124165.09203367-.040111.14443239.0580555.04299383-.0232222.07792632-.1815554.07792632s-.2871108-.04769628-.2871108-.10748457c0-.05844474-.0649166-.04299383-.1440832.03493248-.0791666.07859809-.1741664.10614101-.2111109.06247541-.0374721-.04366561.038-.17533421.1673054-.29222368l.2348609-.21228202-.2364442.05374228c-.2068887.0470245-.2126942.04097849-.0475-.05239873.2728609-.15450907.7214715-.1377146.9843045.03493249.255972.16794464.5763327.1128588.5763327-.10009501 0-.09807967.1868332-.14174527.6148605-.14443239.3852773-.00268711.6148604.04165027.6148604.11890481 0 .06784963.0527777.04030671.1182221-.06046007.0849721-.13301216.3414719-.20422069.9220268-.25594764.4417495-.04030671 1.0724433-.14376061 1.4007207-.23042004.3282774-.08733122.7325548-.16324219.8982768-.1692882s.5145828-.07994165.7742492-.16391397c.4433328-.14376061.3937217-.14980662-.8038047-.09203366-.7019437.03358893-1.3405541.06180362-1.4186652.06314718-.0775832.00067178-1.0566099.12024836-2.174442.26468076-1.1188877.14510417-2.3380531.2787881-2.7096082.2975979-.3720829.0188098-.6565548.07188031-.6333326.11823303.0242777.0470245-.139861.0846441-.3641663.0846441-.2237776 0-.7900825.07389564-1.2582209.16324219-.8027491.15316551-2.6911359.31170525-2.4346362.2035489.0654444-.02687114.0949999-.09606433.0654444-.15249373-.0295556-.0564294.0659721-.10479746.2121664-.10748457.1461943-.0033589.4143051-.10143857.5963882-.21832804.1820832-.11756124.4164162-.26065008.5203884-.31775126.3419996-.18944155 5.9195491-1.28444061 7.2347699-1.42081166.3900273-.04030671 1.5178872-.17331887 2.5058861-.29558257.9885267-.12226369 2.2926642-.27139854 2.8985524-.33118683.6058883-.06046007 1.3067764-.18205199 1.5569428-.27139854.3288052-.11756125.4728884-.12763792.5203883-.0376196.0596388.11420236 1.0544989.08330055 2.2588865-.07120852.4251355-.04510491.8507405-.0827281 1.276693-.1128588.9331101-.06919319 2.3549419-.30230036 3.1508299-.51592594.2248331-.06046007.4486106-.08061343.4971661-.04500916.0490833.03627604.7077493-.04635272 1.4645818-.18205199 1.1188877-.20153357 1.4160262-.22168693 1.591776-.11017169.1773332.1128588.4042774.094049 1.2481931-.1034539 1.4049429-.32917149 3.2384409-.75642266 4.1525511-.96736113.4158884-.09673611 1.0201933-.24721451 1.343193-.3352175.3229996-.08733121.7272769-.15853974.8982768-.15853974.1715275 0 .5029716-.07188031.7373047-.16122686.3942496-.14980662 1.2022765-.31573592 3.3571908-.69126014.8228708-.13602727 1.6427917-.29954981 2.458914-.49039835.5198605-.11688947 1.3711652-.29558257 1.8915535-.39702113l1.2297209-.24184028c1.1035821-.2163127 1.3141652-.21228203 1.5337205.03023003.1182221.13032504.2153331.29423901.2153331.36477576 0 .06986497.0316667.12092014.0707222.11420236.0390555-.00738957.1688887-.00738957.2871108 0 .1810276.01074846.2005553.0470245.1213887.22303048-.1155832.25661941-.0226944.3950058.1504165.22437404.1952776-.19212867.1504165-.01948158-.0738888.28684945-.1176943.16055507-.3536107.30431569-.5715827.34798129-.3171941.06381897-.3536107.09875145-.2517497.2445274.1525276.21832803.02375.2317636 6.0836878-.63818963.4158885-.06046008 1.1611099-.13301216 1.6551093-.16257042.4939995-.03023003 1.3880541-.10748457 1.9860257-.17197531.5979715-.06516252 1.3854151-.13838638 1.7495814-.16324219.3641663-.02418403.8301935-.09673611 1.0354989-.16055508.2058331-.06381896 1.0217766-.11957658 1.8134424-.12293547.7916659-.00403067 1.4957206-.02955826 1.5648595-.05710118.1699442-.06784964 2.3860807-.20556424 2.9133301-.18138021.2332775.01142023.4892495.09001832.5689438.1753342.177861.19145689.6317494.21026669 2.7428582.11621769.9705823-.0436656 1.8614702-.14241705 2.1538588-.23915317.3821106-.12629437 1.0154433-.16122685 2.6953581-.14779128 1.2080821.01074846 3.2178576-.02015336 4.4660507-.06650608 2.5296362-.094049 2.3945252-.09539255 5.0123001.03963494 1.6946926.08733121 2.6726638.0906901 4.1609955.01545091.2601942-.01343558.3984718-.0470245.3071664-.0752392-.0907777-.0282147-.1651943-.10412568-.1651943-.16861642 0-.07725454.2654719-.09539256.7800547-.05239873.4290831.03627604 1.7163311.11688947 2.8605521.17936488 1.144749.0624754 2.612498.1659293 3.262719.22840471 2.612497.25527585 3.608413.3446224 4.965328.44740452 3.392552.25729119 5.181189.35940153 7.045298.40306714.858166.02082513 1.922164.0718803 2.364442.11420235.487781.04397352.976634.06593206 1.465637.0658343.364166-.00537423 1.087221.04030672 1.607609.10076679.520389.06046007 2.204526.13234037 3.743524.15988329 1.538471.02687115 2.985636.09807967 3.215219.15853975.230111.06046007.752082.13704282 1.16111.16995997.408499.03358893.87611.08733122 1.039721.11890481.559444.10882812 1.432387.18205199 2.70908.22840471 1.124166.04165027 2.216664.14040172 3.830079.34663774.260194.03358893.621722.07389564.803805.09136188.182083.01746625.650222.06381897 1.040249.1034539.390555.04030671 1.050277.10278212 1.465637.1410735.416416.0376196.777944.08397232.803805.10278212.026389.01948158.28975.06516252.585833.10278212.295555.03694782.600082.09606433.675554.13099682.076528.03426071.515639.07792631.97586.09606433 1.264027.05105517 1.262444.0503834 1.262444.23176361 0 .09270544.044861.16794464.100277.16794464.054889 0 .068611-.05844474.031667-.13099682-.046972-.08934655-.015834-.10748457.096583-.05575762.090778.04097849.258611.0752392.373666.0752392.140917 0 .213222.07255208.222722.22437404.016889.26871142-.034305.28080344-.223777.05575762-.197917-.2351225-.419583-.21698448-.353083.0282147.032722.12092014.022694.14779128-.026389.07120853-.054361-.08531588-.320889-.10143857-.836527-.0503834-.887721.08733122-1.55747.06381897-2.78983-.10076678-.494-.06650608-1.13261-.14779128-1.418665-.18070843-.286056-.03358893-.57-.07994165-.630694-.1034539s-.135111.03358893-.165194.12763792c-.040639.12629437-.130361.1504784-.346222.094049-.338833-.08800299-.556277-.12159192-1.458776-.22437404-.364167-.04165027-.687166-.094049-.718305-.11688947-.0665-.04836805-1.331054-.0564294-3.064275-.02015335-1.09936.02418402-1.874664-.04030672-2.453108-.20287713-.326166-.09136188-2.606164-.13099682-2.606164-.04500916 0 .04433738.287111.11688947.63861.16122685.350445.04500916.723055.10076679.827027.12562259.729916.17063176 2.683747.36276043 4.255468.41650271.364166.01343557.707221.05777296.76211.09942323.091306.06919319 2.987219.33723284 3.142914.29088012.036944-.01142024.386332.01477913.77636.05844473.603249.06650608 2.143303.20086179 2.529636.22034337.139861.00671779.156222.15182196.027972.24587095-.091833.06717786-.80486.08330055-1.449804.03224538-.196861-.01612269-.392666-.09539256-.434888-.17667777-.057528-.1094999-.220083-.12763792-.634916-.0718803-.307167.04232205-.586361.09673611-.621194.12092014-.034833.02485581-.12825-.03157359-.206889-.12562259-.079166-.094049-.16625-.12696615-.193694-.07389564-.053305.10211034-1.962276.05844473-2.515386-.05777296-.182083-.03829138-.502972-.08061343-.713027-.09270544-.210055-.01343557-.476055-.08262877-.591111-.15585263-.166777-.10614101-.208999-.10278212-.208999.01679446 0 .08867478-.126667.16189864-.307167.17936488-.74786.07188031-1.794442.06516252-2.624636-.01679446-.596388-.05911652-.851304-.05172695-.758943.02216869.37261.29558257-.327222.44203029-1.416027.29558257-.965832-.13032504-1.137887-.13704283-1.555359-.06180363-.215333.03896316-.517222.03090181-.671333-.01813802-.404805-.12898149-2.510108-.35671442-3.44744-.37350888-.473567-.00991914-.94673-.04039081-1.418665-.09136189-.337778-.04232205-1.01861-.10278212-1.513138-.13435571-.867335-.06331846-1.734163-.13744157-2.600358-.2223587-1.030717-.09815302-2.062442-.17832612-3.094885-.24049673-1.247666-.06717786-1.39861-.0564294-1.452971.11151524-.051195.15921152-.215861.18608266-1.11361.18205199-.579499-.00268711-1.245026.03627604-1.478832.08598766l-.425388.09136188.709332.12495082c.390028.06919319.858166.12427903 1.039721.12226369.182611-.00201533.927305.0752392 1.65511.17063176.728332.09539256 2.111109.23042005 3.073774.29894146.962138.06919319 1.844054.14980662 1.959637.17936488.116111.02955825 1.073499.10278212 2.127998.16324219 1.895248.10748457 3.223663.19615934 4.234356.28080344.286055.02418402 1.267721.09472077 2.180776.15719618.913582.06247541 1.722137.13637105 1.797081.16391397.074944.02687114.221666.08800299.325111.13435571.103972.0470245.353083.09942323.55311.11621769.1995.01746625.412722.11151525.472889.20959492.087083.14107349.333555.18339554 1.196998.20690779.597972.01612269 1.129444.06046007 1.181693.09807967.05225.0376196.413778.09875145.803805.13435572 1.864637.17331887 3.729274.31439236 4.586384.34663773.520388.01948158 1.627137.12360726 2.459442.23109183.831777.10748457 1.895776.2129538 2.364442.23377894 3.239496.1410735 5.827188.32043837 7.186742.49577258.468138.06046007 1.288832.14241706 1.82347.18205199.534638.04030671.99486.11554591 1.022305.16794464.027444.05307051-.090778.10076679-.262833.10546924-.172056.00470245-.432778.01948157-.580555.03224537-.146195.01209201-.285-.0127638-.307694-.0564294-.022695-.04299383-.198445-.02687114-.390556.03560426-.195277.06381896-.622777.08195699-.968471.04030672-.340416-.04030672-2.15122-.094049-4.023773-.11756125-1.872554-.02418403-4.106635-.07658276-4.9648-.11688947-1.530026-.07053675-1.963332-.02687115-.960027.09673611.278666.03358893.526722.08665943.552055.11621769.067555.08061343-.278139.27811633-.56525.32379727-.334082.05374228-.439638.19548756-.15411.20825135.126138.00470245.782165.0564294 1.458248.11420236.676083.05710118 2.005553.13435571 2.955552.17063175 1.56011.06046007 1.725832.08531588 1.725832.26266542 0 .24721451.379999.30565925 2.674775.41045673.925193.042322 1.70472.1195766 1.731637.1719753.026916.0517269.235916.094049.463916.094049.776888 0 .559444.3103617-.395833.5629504-.269166.0712085-.630694.1202484-.803277.1088281-1.152138-.0759109-.849721.1451042.442277.3237973.520389.0718803 1.243443.1545091 1.60761.1847391.364166.0302301 1.023887.1047975 1.466165.1666011.441749.0611319 1.335276.1451042 1.986025.1854109.800638.0503834 1.212305.1215919 1.276693.2216869.05225.0806134.3895.1793649.756305.2196716.364166.0403067.704583.1343557.756833.2102667.051722.0752392.405333.1713035.784804.2129538.38.0416503.786388.1498066.902499.2404967.134056.1041257.543083.1827238 1.106749.2142974 1.214943.0671778 2.167053.1934722 2.219831.2949108.055417.106141-.772666.2586347-.89986.1652575-.052778-.0382914-.095-.0214969-.095.0369478 0 .0584448.148833.1390582.330916.1800367.359417.0799416.4275.2196716.165722.3399199-.309277.1424171.1235.3674629 1.095666.5710118.816471.16996 1.332637.3808985.956332.3903034-.353611.0087331.192111.2069078.759999.2754292.337778.0416502.663416.1236072.723583.1833955.060694.0591165.378944.1592115.708277.2223587.91411.1746624.904082.3157359-.0285.4023954-.348333.0322453-.666583.1283097-.762638.23042-.134583.1424171-.298722.1598833-.898277.0933772-1.219165-.1350274-1.460887-.1088281-1.644026.1786931-.089722.1410735-.144611.2915519-.121916.3352175.022694.0429939.327221.1142024.678193.1571962.350444.0429939.679777.1175613.732027.1666011.051722.0483681.296611.1236073.543611.1672729.678193.1195766.53886.2781163-.244361.2781163-.381055 0-.725694.0382914-.765277.0846441-.039056.0463527-.435944.0839723-.881388.0839723-.563138 0-.822277.0429938-.850249.1404017-.027972.0960644.073889.1404018.321944.1410735.1995 0 .511944.0470245.693499.1034539.182083.0564294.691388.1343557 1.131555.1739907.440166.0389631.848665.118233.907249.176006.058055.0577729.131416.0752392.161499.0396349.030612-.036276.154111-.0235122.274972.0275429.169945.0718803.069139.1094999-.441749.1645858-.603249.0651625-1.291471.2290765-1.655109.394334-.231167.1047974.128249.2203434 1.205443.3869444.533055.0826288.969526.1800367.969526.2163127 0 .0369479.276556.045681.614861.0201534.493999-.0369478.614333-.0141074.614333.1175612 0 .2035489-.29925.5360793-.480278.534064-.110833-.0013436-.109777-.0201534.007389-.1108435.121389-.0927054.117167-.1088281-.026389-.1101716-.092889-.0013436-.193694.0765827-.224833.172647-.0475.1477913-.219027.1652576-1.155832.1148742-1.173249-.0624754-1.461943.012092-1.245554.3211101.362055.5172695 1.838776 1.0735022 2.854219 1.0735022.613277 0 .933638.1356992.933638.3963493 0 .1303251-.151472.163914-.733083.1612269-.403221-.0006718-.903026-.0550859-1.110971-.1202484-.208472-.0651625-1.188554-.1410735-2.178664-.1692882-1.750637-.0490398-1.800776-.0443374-1.814498.1746625-.013722.2163126.101861.3714935.304527.4104567.05225.0100766.460222.100095.906722.20019 1.461943.3264843 2.759747.5260026 4.088162.6267694 1.230249.094049 1.650359.2223587 1.523165.4668861-.029028.0557576-.093417.0712085-.143555.0349325-.049612-.0362761-.078639 0-.064389.0826287.014777.081957-.0475.1410735-.138278.1330122-.09025-.0087332-.144083.0235122-.11875.0718803.024806.0476963-.099222.1195766-.276027.1585397-.381583.0853159-.471833.2875212-.276555.6187081.103972.1766777.115583.282147.041166.388288-.121916.1739906-.042222.2928954.195278.2928954.096055 0 .174166.021497.174166.0470245 0 .0261994.027972.1343557.062278.2418403.058055.1780213-.005278.188098-.780055.1189048-.463388-.0403067-1.002777-.1041257-1.198054-.1410735-.281833-.0530705-.354139-.0309018-.354139.1088282 0 .0960643-.068611.2203433-.152527.2761009-.216389.1437607-.086556.7906834.184722.9203367.194222.0933772.195277.0987514.015305.1128588-.189472.0147791-.189472.0147791 0 .1115152.184722.094049-.073888.1343557-1.040776.1625704-.403222.0114203-.708805.1625704-.708805.3499967 0 .1007667-.098167.1612268-.260194.1625704-.159752.003363-.318855.0267645-.475.0698649-.201611.063819-.204777.0772546-.0475.2189999.092361.0833005.283944.1524937.426444.154509.1425.0020154.539389.1807085.882444.3963494.346222.218328.761582.3929904.933638.3929904.572638 0 1.46722.1430889 1.422887.227733-.024278.0463527.0285.0765827.117167.0685214.089778-.0070703.171026.0674003.194222.1780213.043277.2472145-.515111.6724503-.803277.612662-.115056-.024184-.224833.0114203-.243833.0785981-.044334.1585398-1.148444.2035489-1.589665.0644908-.187361-.0591165-1.155832-.1209202-2.15122-.1377146-1.68361-.0282147-2.180248.0288865-1.55061.1793649.1425.0335889.45125.1128588.685583.1760059.272835.0683535.549614.1081217.827555.1189048.22061.0026872.401638.0557577.401638.1175613 0 .0611318.0665.112187.147778.112187.081805 0 .235916.0550859.343055.1229355.191583.1222637.191055.1249508-.030083.2559476-.388444.2297483-.268111.446061.384221.6919319.334083.1262944.628055.303644.652333.3929905.024278.0900183.081805.1928004.127722.2284047.144611.1128588-.0285.4588248-.192111.3842574-.082861-.0376196-.124027-.0369479-.092361.0006717.031667.0376196-.049083.1961594-.1805.352012-.172583.2042207-.349916.288193-.642832.3016286-.222722.0100767-.387917.0510551-.366805.0920336.021111.0403067-.368917.0483681-.866611.0181381-.723582-.0443374-.936804-.0208252-1.063998.1148741-.17575.1894415-1.104638.2673679-1.589138.1336839-.184722-.0510551-.319833-.0356042-.360471.0416503-.035362.0678496-.164667.1236073-.287111.1236073-.285 0-.5225.1074845-.5225.236466 0 .0550858.06175.1007668.137222.1007668.075473 0 .173111.075911.217445.16996.049611.1054692.419582.248558.974276.376196 1.092499.2525887 1.896832.6381896 1.820832.8733121-.031495.0920303-.11363.1372549-.187889.1034539-.073889-.0335889-.110833-.0161227-.081805.0403067.029027.0550858-.058584.2586348-.195278.4507634-.182083.2572912-.297666.3305151-.438055.2781163-.105028-.0403067-.16625-.0261993-.136694.0302301.029555.0564294-.095.1074846-.2755.1142023-.181028.0053743-.628055.0974079-.992749.2035489l-.663944.1928005.211111.2673679c.116111.1464477.250694.266696.298722.266696.048556 0 .233805.081957.412194.1827238.311389.1753342.318777.1934722.181028.4433739-.090778.1639139-.108723.2861776-.048556.3298432.024896.0177886.042783.0480593.049306.083438.006522.0353786.00108.0726174-.015.1026447-.039056.0752392-.089723.0624754-.143556-.0356043-.053833-.0987514-.107666-.112187-.153583-.0376196-.039055.0624754-.198444.1874263-.354666.2767728l-.283944.1625704.299249.0376196c.324055.0416503.497694.3291715.262833.4366561-.079166.036276-.167833.0376196-.196861.0033589-.0285-.0335889-.193694.0329171-.366805.1477913-.214126.1331509-.440819.2306875-.674499.2902083-.197389.0443374-.416944.1477913-.486611.2310918-.165722.1968311-.230638.1928005-1.109387-.0738956-.789027-.239825-1.011221-.2169845-1.334749.1343557-.182611.1975029-.255972.2069078-.749971.0987515-.648638-.1424171-1.869387-.1605551-1.79972-.0268712.026388.0510552.358888.1558526.73836.2331072.966888.1954875 1.07561.2378096.916749.3540273-.274972.2015335.95686.6784963 2.161247.8356925.325111.0423221.612222.1168895.637028.1652575.025333.0483681-.043278.2230305-.153056.3876163-.182611.276101-.186305.3143923-.045389.4984597.083389.1101716.152.2277329.152.2619936 0 .1383864-1.601276-.0611319-2.12747-.2660243-.75736-.2935672-2.290025-.5078646-2.431469-.33992-.074945.0886748-.076.1652576-.002639.270055.099222.1410735.250694.2015336 1.512081.6032572.393195.1249508.591111.2445274.591111.3567144 0 .142417-.111889.1571962-.701944.094049-.449666-.0490399-.723054-.0335889-.76211.0403067-.03325.063819-.008444.1162177.055417.1162177.063333 0 .093944.0261993.067027.0577729-.063333.0752392-1.402831-.2579629-1.535831-.3829137-.105028-.0974079-1.485693-.3493249-1.780193-.3251409-.091305.0080614-.165722.0772546-.165722.1545091s-.022167.2082514-.049083.2915519c-.046445.1437606 1.108332.4346407 3.09858.7799349.299249.051727.698249.1706318.886665.2646808.188417.0933772.475528.1699599.638611.1699599.428027.0013436 1.043415.2237023.943666.3412636-.045917.0550858-.621722.1142023-1.27986.1316686-.657611.0174662-1.189082.0403067-1.18011.0510551.008444.0100767.225889.1168895.482916.2364661.447555.2089231.458111.2237022.253333.3540273-.159916.1014385-.330916.1054692-.684527.0154509-.575277-.1464477-.651277-.1484631-.651277-.0167945 0 .0571012.126667.1363711.282361.1773496.517222.1343557.405333.2808034-.214805.2808034-.361 0-.726222.0712085-.903555.176006-.179444.106141-.380527.1451042-.506666.0974079-.270222-.1014386-4.710412-.1410735-4.658162-.0403067.109778.2109384-1.130498.2095949-2.18922-.0026871-2.143831-.4292666-3.967829-.6731222-5.144244-.6885731-.650221-.0080613-1.629248-.0839723-2.175498-.1692882-.719261-.1065045-1.43997-.1965373-2.161775-.270055-.64336-.0631471-1.196471-.1343557-1.229721-.1585397-.03325-.0235122-.379472-.0752392-.769499-.1148741-.346938-.0342953-.693537-.0739331-1.039721-.1189048-.379472-.0544141-2.104776-.1686165-3.357719-.2223587-1.072963-.0513312-2.144945-.1317389-3.215218-.2411685-.312445-.033589-1.525277-.081957-2.695359-.1074846-1.17061-.0268712-2.553386-.0900183-3.073774-.1410735-.519861-.0497116-1.958054-.0866594-3.196747-.0806134-1.872025.0094049-2.265747.0396349-2.340692.1766777-.075999.1410735-.102388.1417453-.174166.0094049-.057-.1047974-.178389-.1343557-.364694-.0906901-.154111.0369478-.326166.0114202-.383166-.0564294-.057-.0671778-.243833-.1336839-.415361-.1464477-.168799-.0122902-.336504-.0423997-.501388-.0900183-.566833-.1995183-1.157416-.2572912-1.395443-.1370429-.191056.0967361-.667638-.0174662-.601666-.1437606.024278-.0470245-.431194-.0987514-1.012805-.1148741-1.565387-.0450092-1.727414-.0651625-1.904748-.239825-.144083-.1417452-.158333-.1350275-.129833.0591166.021639.1477912-.013722.2055642-.109777.1786931-.117083-.0267247-.235722-.0408818-.354667-.0423221-.117166-.0013436-.212694-.0409785-.212694-.0886748 0-.0470245-.068611-.1168894-.152528-.1551808-.110833-.0503834-.137222-.0214969-.095527.106141.039055.1209201.020055.1477913-.060167.0873312-.064916-.0490398-.521444-.1047974-1.015971-.124279-1.039193-.0403067-.884555-.0403067-5.768605-.0201534-2.0546365.0094049-3.9984399-.0201533-4.320384-.0644907-.3219441-.0450092-.6560271-.0490399-.7436381-.0087331-.1609721.0732238-3.250052.2176562-4.1995232.1968311-.7420548-.0167945-1.5838594.5011468-1.115721.6865577.0696666.0268711.0211111.1068128-.1182221.1948157-.1298332.0806135-.2596664.1901134-.2886942.2418403-.1044998.188098-.9077767.2935673-1.1352487.1484631-.1440832-.0913619-.5246106-.1236073-1.1236377-.0967361-.4982217.0228405-2.1348588.0685214-3.6363849.1007668-1.5020539.0329171-2.8341636.0900183-2.9608301.1276379-.1261388.0376196-.6628882.0765827-1.1927765.0859876s-1.0486933.0738957-1.1526654.1430889c-.1857776.124279-1.0629433.3278279-1.2096654.2808034-.1810276-.0571012-.5172217-.0429938-.8233324.0356043-.1820832.0470245-.4164162.0765827-.5203884.0665061-.1039721-.0100767-.2744441-.027543-.3784162-.0389632-.1039721-.0107485-.5932216.0403067-1.087221.112187-.4939995.0725521-1.0824711.1309968-1.3073042.1296533-.2248331-.0013436-.4591662.0456809-.5203883.1041257-.0612222.0584447-.2496386.1410735-.4185273.1840673-.2517498.063819-.3071664.0436656-.3071664-.112187 0-.1679447-.078111-.1813802-.6861103-.1101717-.376833.0436656-1.3664152.0906901-2.1981921.1047974-.8323046.0147792-1.7427203.0853159-2.02297.157868-.1840736.0504675-.3692198.0943742-.5552216.1316686-.0253333 0 .0068611.075911.0717777.1686164.0649166.0927055.2617775.1679447.4369995.1679447.1757498 0 .319833.0214969.319833.0470245 0 .0261993.0258611.1276379.0569999.2250458.0791666.2431838-.1873609.2310918-.3974162-.018138-.1192777-.1410735-.1757498-.1565244-.2042498-.0550859-.0211111.0765828-.078111.1108435-.125611.0765828-.0474999-.0349325-.0865554-.0228405-.0865554.0268711 0 .0503834-.0955277.0974079-.2126942.1047975-.1171666.0073895-.7658048.0712085-1.4424151.1410735-.6755549.0698649-2.0377478.1471195-3.0262745.1719753-.987999.024184-1.9031646.0725521-2.0329978.106141-.440694.1142024-2.8631914.3808984-4.1609955.4568094-2.4056085.1410735-4.2290787.5495149-4.6048561 1.0311801-.1176943.1504784-.3251108.2720703-.4739439.2781163-1.2239154.0470245-2.923358.1981747-3.6691072.3264844-.4045625.066209-.8101581.1217545-1.2165264.1666011-.376302.040661-.7512836.0991463-1.1241655.1753342-.2612497.0591165-.4908328.1074846-.509305.1074846-.0189999 0-.0343055-.1296533-.0343055-.2875212 0-.157868-.0411666-.2572912-.0918332-.2203434z"/><path d="m46.379343 41.637984c-.0442746.030947-.1365523-.0917358-.2045954-.2707863-.0717715-.190103-.181759-.3271541-.2633176-.3271541-.1104535 0-.1193084-.0276312-.0419443-.1298669.0745678-.0994725.0717715-.1387089-.0111852-.1696559-.0848209-.0314996-.0810925-.0757096.0177098-.2083396.095074-.1287617.1002005-.1779453.0205062-.2077871-.057324-.0209997-.1043949-.0790254-.1043949-.1287616 0-.0497363.0372839-.0646572.0829566-.0331575.047071.0320522.0610524-.0055263.0326235-.0873148-.0274969-.0790254-.0069908-.1436825.0456727-.1436825.0694413 0 .0713055-.0497363.0060587-.1845768-.0717715-.1481036-.0638487-.1845768.0419444-.1845768.1062591 0 .1118517-.0237629.0270308-.123788-.1081233-.1276564-.3183113-.013263-.2908144.1586034.0069907.04421-.0312253.0989199-.0848209.1204722-.0643147.0265261-.0810925-.0298417-.0494012-.1641296.0265648-.1127355.0139815-.1823663-.0279629-.1552877-.0414783.026526-.1505337.0182367-.2423453-.0193418-.1323579-.0536047-.0932098-.0817886.1878176-.1348406.2213732-.0419995.3551291-.1160512.3551291-.1972871 0-.0718413.0727036-.1304196.162185-.1304196.0890153 0 .2134503-.0812359.2763669-.1807084.1127838-.1773926.5378203-.4199951.6757707-.3851797.0391481.0093947.2833576-.0414469.5429468-.1138407.3282532-.086012.6600639-.1516793.9940819-.1967346.2870861-.0359206.5429468-.1027883.5685795-.1486561.0256327-.0458679.1290955-.0839991.229762-.0851043.1002005-.0011053.4082587-.1248933.6836935-.2752073.2759009-.1497614.5648511-.2735494.6422152-.2746547.0778301-.0011052.1645152-.04421.1929442-.0944989.0284289-.0508415.0093209-.0922884-.0424105-.0922884-.1160461 0-.0745678-.4128109.0424105-.4222056.0461388-.0033157.248404-.0585782.449737-.1215775.2013331-.0641045.4576599-.0911831.5699776-.0596835.1118517.030947.3229718.0154735.4688451-.0342627.1458732-.0497363.4749036-.1353932.7312304-.1912083.7037336-.1519719 1.0789029-.2790757 1.0789029-.3647326 0-.0895253-4.2839201-.0276313-5.344647.0773675-.5587924.0552625-.7717767.039789-1.0020048-.070736-.1607868-.0773675-.3113206-.1464457-.3341569-.1541824-.0233025-.0071841-.1514659-.0635519-.2856879-.1243407-.1342221-.0613413-.3033977-.0862095-.3761014-.0552625-.0722375.0314997-1.1837638.0718413-2.4700583.0900779-1.2858285.0182366-2.5073422.0746044-2.7138018.1248933-.2064596.0508415-.8258384.1403668-1.3762419.198945-.5504036.0596835-1.0728442.1503141-1.1604614.2022608-.0880832.0519468-.3434779.075157-.5676474.0513942-.2246355-.0243155-.4282988-.0071842-.4529993.0370258-.0247006.04421-.0801604.0563678-.1230369.0276313-.0424104-.0292891-.0773641-.0093946-.0773641.04421 0 .0541573-.0279629.0895253-.0629166.079578-.1388825-.0403416-.8556655.1271038-.8556655.2006029 0 .0900779-.63103.2398393-.8696469.2066818-.0876172-.0127104-.2302281.0607888-.3164471.1635771-.086219.1022356-.2209071.1912082-.2996694.1972871-.0787622.0055263-.3681785.0198945-.6440793.030947-.2749688.0110525-.6510701.0674203-.8346933.1259986-.1840893.0591308-.4763018.1304195-.6496719.1586034-.1733702.0287365-.2950089.08842-.2703083.13263.0778301.1392615-.1076573.1757348-1.558467.3061543-.0773641.0071841-.133756.0524994-.1258332.1005778.0083889.0480783-.0601203.1116302-.1519319.141472-.1325611.0527485-.2593014.12418-.3774994.2127607-.1519319.1143934-.468379.1757347-1.127838.2182869-.5037987.0326049-1.0029369.0552625-1.109196.0497362-.1062591-.0055262-.3085243.0563678-.449737.1370511-.1454072.0828937-.2786972.1099724-.3075922.061894-.0722376-.1182618-.3663143-.2321026-.3019996-.1160513.0680431.1215775-.0130493.114946-.2353546-.0182366-.4488049-.2691285-2.5735211-.0646572-2.7953603.2685758-.0685092.1033409-.075966.1729716-.0205062.1934188.047537.017684.086219.0685255.086219.1138407 0 .0447627-.0526635.0591309-.1165122.0320523-.0643147-.0276313-.1416788-.0055263-.172438.0491836-.0806264.1447878.4194439.1237881.6897521-.0292891.123969-.0701834.3947433-.1580508.6012029-.1956293.2069257-.0370259.4418142-.0812359.5219746-.0978146.0806264-.0165788.1463393.0243155.1463393.0911831 0 .0856569.1039289.1116303.3546631.0900779.2745027-.0237629.3215736-.0093946.2073917.0641045-.0815585.0519468-.1290955.128209-.1062591.1696559.0494011.08842-.4175797.1779453-1.3212482.2525497-.5079931.0414469-.6734404.0248681-.7293663-.0729465-.0531295-.0922884-.0731696-.0956042-.0745678-.0116051-.0013981.1696559-.5033326.1420246-.6832274-.0375786-.0838888-.083999-.152864-.1138407-.152864-.0657623 0 .053052-.2707743.0624466-.6888201.0243155-.3788976-.035368-.9707795-.0867622-1.3151895-.1143934-.3448761-.0276313-.7498724-.0994726-.9008722-.1586034-.1505338-.0585783-.3677125-.0873148-.4818944-.0629993-.114648.0237629-.2316262.0011052-.2609873-.0502889-.0321574-.0580256-.0102531-.0657624.0568579-.0198945.0680432.0464205.0890153.0386838.0559259-.0209997-.0629166-.1127356-.4613883-.2144186-.9325635-.2387341-.2782311-.0143682-.3355551-.0502889-.3430119-.2155238-.0083889-.17684.0494011-.2055765.5424807-.2691284.3038638-.0386838.6459436-.061894.7605916-.0508415l.2087898.0198945-.2213732-.13263c-.3844902-.2309973-.7587273-.328812-1.4904238-.3879429-.3905489-.0314996-.9540018-.1254459-1.252739-.2083396-.6864898-.1906557-3.068931-.2055766-3.1728599-.0193419-.0354958.0638943-.1061932.0852112-.163117.0491836-.1398147-.0956041-1.6768434-.1271038-1.6241799-.0342627.0484691.0878674.0363518.0889726-1.0560664.1259985-.7713107.0259734-1.0966127.057473-2.25101546.2182869-.52663508.0729465-.83422725.030947-1.13529473-.154735-.12583316-.0784728-.09880234-.1226828.20506144-.3343382.24420954-.1713138.54341283-.2713389.99454801-.3343382.77037854-.1077619 1.50533744-.2431551 2.03476884-.3757851.3169131-.0790254.3798297-.1276564.3467402-.2680232-.0237685-.1005777-.0885492-.1514192-.1575244-.1215775-.0643148.0270786-.1169783.0033158-.1169783-.053052s.0652468-.1027883.1458733-.1033409c.124901-.0011052.1281634-.0143682.0209722-.0911831-.0792283-.0563678-.0880832-.0900779-.0233025-.0906305.0559259-.0011053.0801604-.0641046.0531296-.1409195-.0335555-.0967093.0498672-.1867872.2740367-.2973123l.3225057-.1580507-.8155853-.0552626c-.4380813-.0306126-.8768146-.0462768-1.3156556-.0469731-.27496877.0055263-.49913821.004421-.49913821-.0022105 0-.0060789.07456779-.1072093.16684545-.2243658.0918116-.1171565.16684544-.1845768.16684544-.150314 0 .0342627.08482088.0011052.18828372-.0740518.1034628-.0746044.4665148-.1840241.8071964-.2420498.3402156-.0585782.7675823-.1646823.9498073-.2354183.2054917-.07603.4183367-.1206012.6333603-.13263.4651166-.0049736 1.6362971-.3415223 1.2979457-.3730219-.0818781-.0118972-.1632214-.0284954-.2437435-.0497363-.0895648-.0226936-.1792022-.0449829-.2689101-.0668676-.19108-.0464205-.2031973-.1359458-.0270308-.1978398.0969381-.0342628.2740366-.1624718.3942772-.2857072s.3019996-.2238132.4045303-.2238132.229296-.0569204.2819595-.1271038c.0782962-.1038935.009321-.1376036-.3868205-.1873399-.2443689-.0302288-.4883009-.0652332-.7316965-.1049987-.3280983-.0585783-1.6325687-.0502889-1.7220501.0110525-.1211726.0828937-1.0761065.1215775-1.0761065.04421 0-.0414469.0563919-.1265512.1258331-.1895504.0685092-.0635519.1249011-.1586034.1249011-.2116555 0-.053052-.0247006-.0690781-.0549937-.035368-.0302932.0331575-.1053271.0143683-.1668455-.0419995-.0619845-.0569204-.1118517-.0635519-.1118517-.0149208 0 .048631-.0568579.08842-.1258332.08842-.20040091 0-.1454072-.0989199.1304937-.2337605.3099224-.1519719.2656478-.2155237-.2344225-.3354434-.45579569-.110525-.54248076-.2818388-.21578059-.4277318.33835139-.1508667 1.92711159-.346496 2.83544049-.3492591.4259686-.0011052.8738414-.0298418.9954802-.0635519l.2218392-.0613414-.2376849-.2155238c-.1314257-.1182617-.3019996-.216629-.3793637-.2182869-.1980707-.0049736-.258191-.1514193-.1519319-.3708114.1118517-.2321026.8384217-.6482293 1.1301682-.6482293.1230369 0 .1943424-.039789.1649813-.0922884-.028429-.0508415-.1207066-.0922884-.2050615-.0922884-.1412127 0-.2982712-.2304446-.2675119-.3923638.0316913-.1646823-1.2932853.0193419-1.4042049.1950767-.0848209.1337352-2.2174599.4846522-2.4267158.3984427l-.1999349-.0812359.1943423-.114946c.1067252-.0635519.8006718-.2265763 1.5416893-.3636274 1.3562018-.2497865 1.6866304-.4260739.7978754-.4260739-.2731046 0-.5243048-.053052-.6058634-.1271038-.1165121-.106104-.2768329-.1088671-.9535357-.017684-1.24435012.167998-1.96672566.2834967-2.13636741.3409697-.11231774.0381311-.1463393.0110525-.12583316-.101683.03075922-.1635771.28895022-.355338.69441263-.5155993.34860446-.1376036.13189179-.2586285-.31411685-.1757347-.19341023.0364732-.52057645.0950515-.72703604.1309721l-.37610133.0646572.31318475-.3315751c.17243803-.1823663.31318475-.346496.31318475-.3647326s-.23302437-.0624466-.5173141-.0978146c-.67437253-.0845517-1.03416215-.2928913-1.02959024-.5962825.00241882-.1602613.54303536-.3741272 1.0454359-.4144689.20692564-.0171313.67716882-.0967093 1.04441523-.1773926s.93116537-.1657875 1.25273897-.1884452c.3634465-.0281367.7257321-.074414 1.0858936-.1387089 1.7108649-.3321277 2.0958212-.4144688 2.1699229-.4608893.0452068-.0287365-.086219-.0978147-.2922125-.1530772-.2073917-.0558151-.3747032-.154735-.3747032-.2221553 0-.1552876.841684-.4929416 1.6055379-.6438082.3714409-.0734992.6464096-.1823663.736357-.2928913.0806265-.0983673.3602557-.2221553.6366226-.2823915.6277677-.1364984.6105239-.2663653-.0713055-.5448883-.1458732-.0596835-.24887-.1563929-.2283638-.2155238.0475369-.1331827.4343574-.3371013.641283-.3371013.0852869 0 .1318918-.0419995.1034628-.0922884-.0279629-.0508415-.3308946-.092841-.6729743-.092841-.5629869 0-.7890206-.0939463-.5173141-.2155238.2437435-.1088672-.974974-.0497363-1.577109.0757096-.7494063.1569455-1.157665.0911832-1.157665-.185682 0-.128209.2185768-.2956545.8202457-.6305453.5662493-.3155489.7852922-.4807838.7093262-.5349411-.1444751-.1027882-.0018642-.2083396.5583264-.4128109.7904187-.289023 1.4177203-.7725699 1.3352297-1.0306459-.0559259-.1757347.2521323-.2718915 1.5253775-.4752576.6324281-.1011303 1.2662544-.247576 1.4079332-.3260488.1416788-.0773675.4418142-.1657875.6669158-.1961819.6207769-.0823411 1.8082691-.4144688 1.9937565-.5575987.0904134-.0696308.2782311-.1298669.4175797-.1337353.1388825-.0033157.3276322-.0419995.4194438-.0856569.13329-.0629992.0992684-.0817885-.1668454-.092841-.7116564-.0292891-1.089622-.1066566-1.1837638-.243155-.0643147-.0933937-.1649813-.1215776-.2922126-.0828938-.1673115.0497362-.1733701.04421-.0466049-.04421.0810925-.0558152.2129843-.0900779.2922126-.0757097.0881431.0128915.1775438-.0049686.2572589-.0513941.0661789-.0458679.1962065-.0276313.3183113.04421.1603208.0950515.2404812.0978147.363518.0127104.1002005-.0690782.1770985-.0757097.2087899-.0187893.0279629.0497363.2647156.0917358.5257029.0939463.2614534.0016579.5695116.0624466.6841596.1348405.2502682.1580508.3341569.1696559.3341569.0464205 0-.0508415-.0587221-.0922884-.1304936-.0922884-.0713055 0-.1095215-.0370258-.0838888-.0817885.0247006-.0453152-.0330894-.1049987-.1295615-.13263-.0960061-.0276313-.1584566-.1049988-.1384165-.1718664.0368178-.1232354.4105889-.1956293 1.567788-.3028386 1.0453473-.097262 1.3361617-.1492087 1.3361617-.2398393 0-.0480783-.0559259-.0867621-.1253671-.0867621-.0694413 0-.1249011-.0823411-.1249011-.1845768 0-.1353931.0559259-.1845768.2087899-.1845768.2400151 0 .2810273-.1425773.0591881-.2066818-.0820245-.0237628-.5047307-.0209997-.9395542.0060789-1.2653223.0790254-1.7719173.053052-2.036633-.1055514-.1346881-.0806833-.2684441-.1298669-.2982712-.1099724-.0293611.0204471-.03775-.0801306-.018642-.2232605.0414784-.3116806-.076432-.3603116-.9334956-.3868376-.5131197-.0154735-.5531998-.0292891-.3747032-.1315248.2936107-.167998 1.3697173-.4089426 2.0114664-.4509421.3280983-.0215523.6375547-.097262.7489403-.1834715.2376849-.1834715.3802958-.1862347.5406166-.008842.0722375.0801306.2735706.1381563.4744376.1364984.6189127-.0033158 2.9281842-.2630496 3.241835-.3647326.2926786-.0939462.3015336-.1094197.2400151-.4122583-.0391481-.1906557-.0302931-.3520222.0219043-.4100478.0596542-.0663151.057324-.1348406-.0079228-.2216027-.1994689-.2658127.0540616-.3205226 1.2727791-.2763126.947011.0348154 1.2424859.0160262 1.434498-.0922884.2031973-.114946 1.1199151-.2729968 1.7453526-.3011806.0918116-.004421.354663-.0447627.5844251-.0900779l.4175796-.0828938-.3756352-.0668676c-.2069257-.0370259-.8267705-.0458679-1.3781062-.0198945-.5843.026614-1.1690175.0382219-1.7537414.0348153-.4133852-.0071841-1.2210477.0552626-1.7952197.1381563-1.1362269.1635771-2.3078734.2779704-2.8121381.2746547-.1757004-.0011053-.343478.0342628-.3719069.0784728-.028895.04421-.1701078.0856569-.3131848.0922884-.143543.0066315-.2609873.0464205-.2609873.08842s-.0843548.0497362-.1878176.017684c-.1472714-.0453153-.1607868-.0370259-.0624506.0386837.1076573.0834464.104861.0972621-.0209721.0983673-.0806265.0011053-.1463393.0475258-.1463393.1044462 0 .0629992-.0792283.0453152-.2055275-.0464206-.2283639-.1657875-.3290305-.1912082-.2595892-.0668676.0251666.0447626-.028895.1033409-.1202406.1298669-.0950739.0276313-.1659133.0022105-.1659133-.0591309 0-.061894-.1318918-.1066566-.3131848-.1066566-.1990028 0-.306194.0403416-.2936107.1110776.0135154.0762623-.076898.097262-.2889502.0674203-.3476724-.0497363-.6906842-.2641548-.6925484-.4343634-.0009321-.0729465-.0302932-.0635518-.0820246.0248682-.0629166.1077619-.0810925.0806832-.0824906-.1215775-.0013982-.3326804.1360862-.6167297.2992033-.6167297.0699073 0 .1039288-.0414469.0754999-.0922884-.027963-.0508415.0163117-.0956041.0992683-.0994725.2749688-.013263.4502031-.0690781.6361566-.2039186.1668454-.1204723.5592585-.0740518.5592585.066315 0 .0254207-.0507994.0248681-.1118517-.0011053-.0619845-.0259734-.1649813.0248681-.2297621.1127355-.1015986.1381563-.1015986.1492088.0009321.0817886.0908795-.0607888.104861-.0403417.0596543.0900778-.0354197.1011304-.0158457.1994977.048469.244813.1598548.1116302.2940768.0906305.1491356-.0237629-.0946079-.0740518-.0461388-.0862095.1952745-.0491836.1770985.0276312.3886846.0022105.4735055-.0558152.1155801-.0801306.181759-.0784727.2749687.0066315.0983363.0906305.1346881.0806833.1864195-.0513941.0358858-.0906305.0591882-.1950767.0517314-.2332078-.0069907-.0386838.0400802-.0696308.1053271-.0696308.0652468 0 .1323578-.0475257.1500676-.1049987.0177099-.0585783.1421449-.1188144.276833-.1348406.1351541-.0160261.287086-.0922884.3383514-.1702085.0512653-.0773675.1235029-.110525.1607868-.0729465.0372839.0370259.0442746-.0055263.0153796-.0939463-.0643147-.198945.095074-.2177343.1640492-.0193419.0438085.1265512.067577.1248933.2059935-.0138156.1482035-.1486561.1570584-.1475509.1584566.0187893.0009321.1475509.0139814.1536297.0820246.0375785.1207066-.2066818.1034628-.2514445-.1202406-.3133385-.1416788-.039789-.1994689-.1160512-.1901479-.2514444.0144475-.2155238.3052619-.37633769.640817-.3547853.3122527.0204471.5881535-.09836728.5881535-.25365494 0-.09947252.0829567-.12876165.3131848-.11052502.3364872.02763126.9027364-.07626226 1.1063997-.20281341.1011326-.06244664.0932097-.0790254-.0419444-.08510427-.1950414-.01247242-.3898806-.02905379-.5844251-.04973626-.7102583-.07405177-1.654473-.07184127-1.9956207.004421-.2334904.05249939-.3085243.04365738-.267046-.03149963.0363519-.06410451.0139815-.08510427-.0587221-.05415726-.0689752.02928913-.1798948-.05526251-.267978-.20447129-.1071912-.18126104-.1211727-.2641548-.0494012-.29068081.0675771-.02486813.0512654-.08013064-.0498672-.16744541-.1374844-.11936702-.1286295-.12655115.0997344-.08289376.1379505.026526.2036633.02376288.1463393-.00552625-.2115861-.11052503-.0950739-.2243658.2297621-.2243658.210654 0 .3341569.04255213.3355551.11605127.000466.08455165.019574.08178852.0727036-.01049987.0452067-.07847277.0913455-.0900779.124435-.03094701.0559258.10002515.1621849.09228839.4231722-.03149963.0894814-.04199951.286154-.07957802.4371538-.08289377.3462742-.00773675.4585919-.23707617.1165121-.23707617-.1356201 0-.2600552-.06023613-.287086-.13815628-.0326234-.09394626.0037284-.1387089.1118517-.1387089.0885493 0 .1906139-.05194676.2269657-.11605127.0960061-.16523491.4362217-.3608642.5238388-.30118068.0410123.02763125.0978703.008842.1267653-.04310476.028895-.05139414.1561263-.09394627.2828916-.09394627.1267652 0 .4348235-.06742026.6841595-.14976141.3938112-.13041952.4287649-.16026128.2684441-.22657629-.1025307-.04255213-.7992736-.07184126-1.5496121-.06465714-.7503384.00718413-1.4135258-.02099975-1.4736461-.06189401-.0619845-.04255213-.133756-.03039438-.1659133.02763126-.0671111.11991964-2.6634686.21110279-2.7277833.09560414-.0228364-.04034163-.0997344-.04918364-.1710399-.01878925-.0876172.03702588-.0992684.07570964-.0354197.11881439.0512654.03536801-.0205062.06410452-.1603208.06410452s-.2535305-.03923639-.2535305-.08842002c0-.04807839-.057324-.03536801-.1272313.0287365-.0699073.06465714-.1537961.08731477-.1864195.05139414-.0330895-.03592063.0335555-.14423515.1477375-.24039192l.2073917-.17462954-.2087899.04421001c-.1826911.03868376-.1878176.03371013-.0419444-.04310476.2409472-.12710377.6370887-.11328814.8691809.02873651.2260337.13815628.5089253.09284102.5089253-.08234114 0-.08068327.1649812-.1166039.5429467-.1188144.3402156-.0022105.5429468.03426276.5429468.09781464 0 .05581514.0466049.03315751.1043949-.04973626.0750339-.10941977.3015336-.16799803.8141872-.21055016.3900828-.03315751.947011-.11826178 1.2368933-.18955041.2898824-.07184127.6468757-.13428791.793215-.13926153.1463393-.00497363.4543975-.06576239.6836935-.13484053.391481-.11826177.3476724-.1232354-.7097922-.07570964-.6198448.02763126-1.1837638.05084151-1.252739.05194676-.0685092.00055263-.9330296.0989199-1.9201209.21773429-.9880233.11936703-2.0645959.22933942-2.3926942.24481293-.3285644.0154735-.5797646.05913088-.5592585.09726202.0214383.03868375-.1235029.06963076-.3215736.06963076-.1976047 0-.697675.06078876-1.1110602.1342879-.7088601.12599853-2.3763825.25641805-2.1498828.16744541.05779-.022105.0838887-.07902539.05779-.1254459s.0582561-.08620952.1873516-.08842002c.1290955-.00276312.3658483-.08344639.5266351-.17960316.1607868-.09670939.3677124-.21441854.459524-.26139167.3019996-.15584028 5.2272027-1.05661921 6.3885962-1.16880211.34441-.03315751 1.3403561-.14257728 2.2127994-.24315505.8729093-.10057777 2.0245157-.22326054 2.5595397-.27244417.5350239-.04973626 1.1539367-.14976141 1.3748438-.22326055.2903483-.09670939.4175796-.10499877.459524-.030947.0526635.09394626.9311654.06852551 1.9946886-.05857827.375412-.03710464.7512385-.0680546 1.1273719-.09284101.8239742-.05692039 2.0795095-.2486813 2.782311-.42441609.1985368-.04973626.3961414-.06631501.4390179-.03702588.0433426.02984176.6249714-.03813113 1.2932853-.1497614.9880233-.16578754 1.2504088-.18236629 1.405603-.09063052.1565924.09284102.3569933.07736751 1.1022053-.08510427 1.2406217-.2707863 2.859675-.62225587 3.6668715-.79578016.3672464-.07957801.9008722-.20336604 1.186094-.27575992.2852218-.07184127.6422152-.13041953.793215-.13041953.1514658 0 .4441444-.05913089.65107-.13263003.3481385-.1232354 1.0616591-.2597338 2.9645361-.56865123.7266284-.1119001 1.4506519-.24641862 2.1713211-.40341633.459058-.09615677 1.2107946-.24315505 1.6703187-.32660144l1.0858935-.19894504c.9745079-.17794529 1.1604614-.17462953 1.3543377.02486813.1043949.10720927.1901479.2420498.1901479.30007543 0 .05747301.0279629.09947252.0624505.09394627.0344876-.00607887.1491356-.00607887.2535305 0 .1598547.008842.1770985.03868376.1071912.18347154-.1020647.21110279-.0200401.32494356.1328239.18457678.172438-.15805078.1328239-.01602612-.0652468.23597093-.1039289.1320774-.3122527.25033917-.5047308.2862598-.2800953.05249939-.3122527.08123589-.2223053.20115554.1346881.17960316.0209722.19065566 5.3721439-.52499385.3672464-.04973626 1.0253072-.10941977 1.4615288-.13373528.4362217-.02486813 1.2257082-.08842002 1.7537414-.14147203.5280333-.05360463 1.223378-.11384077 1.5449516-.1342879.3215736-.0198945.7330947-.07957801.9143876-.1320774.1817591-.05249938.9022704-.09836727 1.6013435-.10113039.6990731-.00331575 1.3207822-.02431551 1.3818345-.04697314.1500677-.05581513 2.1070064-.16910328 2.5725891-.14920878.2059935.00939463.4320272.07405177.5024005.14423516.1570585.15749815.5578604.17297166 2.4220553.09560414.8570637-.03592063 1.6437539-.11715652 1.9019449-.19673454.3374193-.10389352.8966778-.13263002 2.380111-.12157752 1.0667855.008842 2.8414991-.01657876 3.9437044-.05470989 2.2337716-.07736751 2.1144632-.07847276 4.4260649.03260488 1.4964825.07184127 2.3600708.07460439 3.6743283.01271038.229762-.0110525.3518668-.03868376.2712403-.06189401-.0801603-.02321026-.1458732-.08565689-.1458732-.1387089 0-.06355189.2344225-.07847277.68882-.04310476.3788977.02984175 1.5155905.09615677 2.5259842.1475509 1.0108597.05139414 2.3069413.1364984 2.8811129.18789254 2.306942.20999754 3.186376.28349668 4.384587.36804832 2.995761.21165542 4.5752.29565443 6.221285.33157507.757795.01713137 1.697349.05913088 2.087898.09394626.430731.03617393.862407.05423769 1.294217.05415727.321574-.00442101.960061.0331575 1.419585.08289376s1.946685.10886715 3.305684.13152478c1.358532.022105 2.636437.08068326 2.839168.13041952.203198.04973626.66412.11273553 1.025308.13981416.360721.02763125.773641.07184126.918116.09781464.494011.08952527 1.264856.1497614 2.392228.18789254.992684.03426275 1.957405.11549864 3.382116.28515455.229762.02763126.549005.06078876.709792.07515702.160787.01436825.574172.05249938.918582.08510426.344876.03315751.927437.08455165 1.294217.11605128.367713.030947.686956.06907814.709792.08455164.023303.01602613.255861.05360463.517315.08455164.260987.03039438.529897.07902539.596542.1077619.067577.02818388.45533.06410451.861724.07902539 1.116187.04199951 1.114789.04144688 1.114789.19065566 0 .07626226.039614.13815628.088549.13815628.048469 0 .060586-.04807839.027963-.1077619-.041478-.07349914-.013982-.08842002.085287-.04586788.08016.03371013.228364.06189401.329962.06189401.124435 0 .188284.05968351.196673.18457678.014913.22105005-.030293.2309973-.197605.04586789-.174768-.19341879-.370509-.17849791-.311786.02321025.028895.09947252.02004.12157753-.023303.05857826-.048003-.07018338-.283357-.08344639-.738687-.04144688-.783894.07184127-1.37531.05249939-2.463534-.08289376-.436221-.05470989-1.00014-.12157753-1.252739-.14865616-.252598-.02763125-.503332-.06576239-.556928-.08510427-.053596-.01934187-.119308.02763126-.145873.10499878-.035886.10389352-.115114.12378802-.305728.07736751-.299204-.07239389-.491216-.10002514-1.288159-.18457679-.321574-.03426275-.606795-.07736751-.634292-.09615676-.058722-.03978901-1.175375-.04642051-2.705879-.01657876-.97078.01989451-1.655405-.0331575-2.166195-.16689278-.288018-.07515702-2.301349-.1077619-2.301349-.03702588 0 .03647325.253531.09615677.563919.13263002.309457.03702589.638487.08289377.730299.1033409.644545.14036678 2.369858.29841756 3.757751.34262757.321573.0110525.624505.04752575.672974.08178851.080627.05692039 2.637836.27741781 2.77532.23928667.032624-.00939462.341148.01215776.685558.04807839.532694.05470988 1.892624.16523491 2.233772.18126103.123503.00552625.13795.12489328.0247.20226079-.081092.05526251-.710724.06852552-1.280236.02652601-.173836-.013263-.34674-.07847277-.384024-.1453404-.050799-.0900779-.194342-.10499878-.560656-.05913089-.271241.03481538-.51778.07957801-.54854.09947252-.030759.02044713-.11325-.02597338-.182691-.1033409-.069907-.07736751-.146805-.10444614-.17104-.06078876-.047071.08399902-1.732769.04807839-2.221188-.04752576-.160787-.03149963-.444144-.06631501-.629632-.07626226-.185487-.01105251-.420376-.06797289-.521974-.12820903-.147272-.08731477-.184556-.08455164-.184556.01381563 0 .07294651-.111851.13318265-.27124.1475509-.660391.05913089-1.584566.05360464-2.31766-.01381562-.526636-.04863101-.751737-.04255214-.670179.01823662.329031.24315505-.28895.36362733-1.250408.24315505-.85287-.10720927-1.004801-.11273552-1.373446-.05084151-.190148.03205226-.456728.02542076-.592814-.01492088-.357459-.10610402-2.216528-.29344393-3.04423-.30725956-.418179-.00815978-.836002-.03322668-1.252739-.07515701-.298272-.03481538-.899474-.08455164-1.336162-.11052502-.765892-.05208766-1.531337-.11306355-2.296222-.18291891-.910165-.08074361-1.821221-.14669639-2.73291-.19783979-1.101739-.05526251-1.235029-.04642051-1.283032.09173577-.045207.13097215-.190614.15307715-.983363.1497614-.511722-.0022105-1.099409.02984176-1.305869.07073601l-.375635.07515702.62637.10278827c.34441.05692038.757795.10223564.918116.10057777.161252-.00165788.818847.06189401 1.461528.14036678.643148.07847276 1.864195.18955041 2.714268.24591817.849607.05692039 1.628375.1232354 1.730439.1475509.102531.02431551.947943.08455164 1.879109.1342879 1.673581.08842002 2.846625.16136654 3.739109.2309973.252598.0198945 1.119449.07792014 1.925713.12931428.806731.05139413 1.520717.11218289 1.586896.13484052.066179.02210501.195741.07239389.287086.11052502.091812.03868376.311787.08178852.488419.09560415.176167.01436825.36445.09173577.41758.17241903.076898.11605127.294543.15086666 1.056999.17020853.528033.01326301.997344.04973626 1.043483.08068327.046138.03094701.365382.08123589.709792.11052502 1.64655.14257728 3.2931.25862855 4.049963.28515456.459525.01602613 1.436829.10168302 2.171788.19010304.734492.08842001 1.674047.17518215 2.087898.19231353 2.860607.11605128 5.145644.26360218 6.346186.40783733.413385.04973626 1.138091.11715653 1.610198.14976141.472107.0331575.878502.09505152.902736.13815627.024235.04365739-.08016.08289377-.232092.08676215-.151932.00386837-.38216.01602613-.512653.026526-.129096.00994725-.251667-.01049987-.271707-.04642051-.02004-.035368-.175234-.022105-.344876.02928913-.172438.05249939-.549937.06742027-.855199.03315751-.300602-.03315751-1.899615-.07736751-3.553156-.09670939-1.653541-.01989451-3.626325-.06299927-4.38412-.09615677-1.351076-.05802564-1.733702-.02210501-.847743.07957801.246074.02763126.465117.07128864.487487.09560415.059654.06631501-.245608.22878679-.499138.2663653-.295009.04421001-.388219.16081391-.136087.17131378.111386.00386838.690685.04642051 1.287693.09394627.597009.04697314 1.770985.11052502 2.609873.14036678 1.37764.04973626 1.523979.07018339 1.523979.21607642 0 .20336604.335556.25144442 2.361935.33765394.816984.03481538 1.505338.09836727 1.529106.14147203.023769.04255213.208324.07736751.409657.07736751.686024 0 .494012.2553128-.349536.46309984-.237685.05857826-.556929.0989199-.709327.08952527-1.017384-.06244664-.750338.11936702.390549.2663653.459524.05913089 1.098011.12710378 1.419585.15197191.321573.02486813.904134.08620951 1.294683.13705102.390083.05028889 1.179103.11936703 1.753742.15252453.706996.04144689 1.070514.10002515 1.127371.18236629.046139.06631497.343944.14755087.667848.18070837.321574.0331575.622175.1105251.668314.1729717.045673.061894.357926.1409194.693015.1751822.335555.0342627.694412.1232354.796943.1978397.118376.0856569.479564.1503141.977304.1762875 1.072844.0552625 1.913596.159156 1.960201.2426024.048935.0873147-.682295.2127606-.794613.1359458-.046605-.0314997-.083889-.017684-.083889.0303943 0 .0480784.131426.1143934.292213.1481036.317379.0657624.377499.1807084.146339.2796283-.273104.1171565.109056.3022859.967517.4697313.720978.1398142 1.176774.3133384.844481.3210752-.312253.0071841.169642.1702085.67111.2265763.298271.0342628.585823.101683.638953.1508667.053595.048631.334623.1309721.625437.1829189.807197.1436825.798342.2597338-.025166.3310224-.307593.026526-.58862.1055514-.673441.1895504-.118842.1171565-.263783.1315248-.793215.0768149-1.076572-.1110776-1.290023-.0895253-1.451742.1469983-.079228.1160513-.127697.2398393-.107657.2757599.02004.035368.28895.0939463.598873.1293143.309456.035368.60027.0967094.646409.137051.045673.039789.26192.101683.480031.1376037.598872.0983672.475835.2287868-.215781.2287868-.336487 0-.640817.0314996-.675771.0696307-.034487.0381312-.384956.0690782-.778301.0690782-.497274 0-.726104.035368-.750805.1154986-.0247.0790254.065247.1154987.28429.1160513.176167 0 .452067.0386837.612388.0851043.160787.0464205.610524.110525.999209.1431299.388684.0320522.749406.097262.801137.1447877.051266.0475258.116047.061894.142611.0326049.027031-.0298417.136087-.0193419.242812.0226576.150067.0591309.061052.0900779-.390083.1353932-.532694.0536046-1.140421.1884452-1.461529.3243909-.204129.0862096.11325.1812611 1.064455.3183121.47071.0679729.856132.1481035.856132.1779453 0 .0303944.244209.0375785.542947.0165787.436221-.0303943.54248-.0116051.54248.0967094 0 .1674454-.264249.4409949-.424104.439337-.09787-.0011053-.096938-.0165788.006525-.0911832.107191-.0762622.103463-.0895252-.023303-.0906305-.082024-.0011052-.17104.0629993-.198536.1420247-.041945.1215775-.193411.1359458-1.020647.0944989-1.036027-.0513942-1.290955.0099472-1.099875.2641548.319709.4255213 1.623714.8830949 2.520391.8830949.541549 0 .824441.1116303.824441.3260488 0 .1072093-.133756.1348405-.647342.13263-.356061-.0005526-.797409-.0453152-.981033-.0989199-.184089-.0536046-1.049541-.1160512-1.923849-.1392615-1.545884-.0403416-1.590158-.0364732-1.602275.1436825-.012118.1779453.089947.3056017.26891.337654.046139.0082894.406394.0823411.800671.1646823 1.290955.2685758 2.436969.4327054 3.610014.5155992 1.08636.0773675 1.457334.1829189 1.345017.3840744-.025633.0458679-.082491.0585783-.126766.0287366-.043808-.0298418-.069441 0-.056858.0679728.01305.0674203-.041944.1160513-.122104.1094198-.079695-.0071841-.127232.0193419-.104861.0591309.021904.0392364-.087617.0983673-.243744.1304195-.336953.0701834-.416647.2365236-.244209.5089678.091811.1453404.102064.2321025.036351.3194173-.107657.1431299-.037283.2409445.172438.2409445.084821 0 .153797.017684.153797.0386838 0 .0215523.0247.110525.054993.198945.051266.1464457-.00466.154735-.68882.0978147-.409191-.0331576-.885492-.0856569-1.05793-.1160513-.24887-.0436574-.312719-.0254208-.312719.0895252 0 .0790254-.060586.1812611-.134688.227129-.19108.1182617-.076432.6504397.163117.7570964.171506.0768149.172438.0812359.013515.092841-.167311.0121577-.167311.0121577 0 .0917358.163117.0773675-.065246.110525-.919048.1337352-.356061.0093947-.625903.1337353-.625903.2879177 0 .0828938-.086685.13263-.229762.1337353-.141068.0027665-.281562.0220173-.419444.057473-.178031.0524994-.180827.0635519-.041945.1801558.081559.0685255.250735.1254459.376568.1271038.125833.0016578.476302.1486561.779233.3260488.305728.1796031.672509.3232857.824441.3232857.505662 0 1.295615.1177091 1.256467.1873399-.021438.0381311.025167.0629992.103463.0563677.079278-.0058162.151023.0554456.171506.1464457.038216.203366-.454864.5531777-.709326.5039941-.101599-.0198945-.198537.0093946-.215315.0646571-.039148.1304195-1.014122.1674454-1.403739.053052-.165447-.048631-1.020647-.0994725-1.899614-.1132881-1.486696-.0232103-1.925248.0237629-1.369252.1475509.125834.0276312.398472.092841.605398.1447878.240924.0562296.485331.088944.730764.0978146.194808.0022105.354663.0458679.354663.0967094 0 .0502889.058722.0922884.130494.0922884.072237 0 .208324.0453153.302932.1011304.169175.1005778.168709.1027883-.026565.2105502-.343012.1889977-.236753.366943.339283.5692038.295009.1038935.554598.2497866.576036.3232857.021439.0740518.072238.1586034.112784.1878925.127698.0928411-.025166.377443-.169641.3161016-.07317-.030947-.109522-.0303944-.081559.0005526s-.043343.1613666-.159389.2895756c-.152398.167998-.30899.2370762-.567647.2481287-.196673.0082893-.342546.0419995-.323904.0757096.018642.0331575-.325768.039789-.765252.0149209-.638953-.0364733-.827236-.0171314-.939554.0944989-.155194.1558403-.97544.2199448-1.403273.1099724-.163117-.0419995-.282426-.0292892-.318311.0342627-.031226.0558152-.145407.1016831-.253531.1016831-.251666 0-.461388.08842-.461388.194524 0 .0453152.054528.0828938.121173.0828938s.152864.0624466.192012.1398141c.043808.0867621.370508.2044713.860326.3094701.964721.207787 1.674979.5249938 1.607868.7184126-.027811.0757069-.10034.11291-.165913.0851043-.065247-.0276313-.097871-.013263-.072238.0331575.025633.0453152-.051731.2127606-.172438.3708114-.160787.2116554-.262852.2718916-.386821.2287868-.092743-.0331575-.146805-.0215524-.120706.0248682.026099.0464205-.083889.08842-.243278.0939462-.159854.004421-.554598.0801307-.876637.1674454l-.58629.1586034.18642.2199448c.102531.1204723.221373.2193922.263783.2193922.042877 0 .20646.0674203.363985.150314.274968.1442352.281493.1591561.159854.3647326-.08016.1348405-.096006.2354183-.042876.2713389.021984.0146335.037779.039535.043538.0686385.00576.0291036.000955.0597373-.013245.0844387-.034488.061894-.079228.0513941-.126765-.0292891-.047537-.0812359-.095074-.0922884-.13562-.0309471-.034488.0513942-.175235.1541825-.313185.2276816l-.250734.1337353.264249.030947c.286154.0342627.439484.2707863.232092.3592063-.069907.0298418-.148203.030947-.173836.0027631-.025166-.0276312-.17104.0270787-.323904.1215775-.189082.109534-.389261.1897705-.59561.2387341-.174302.0364732-.368178.1215775-.429697.190103-.146339.1619192-.203663.1586034-.979634-.0607887-.696743-.1972872-.89295-.1784979-1.178638.110525-.161252.1624718-.226033.1702085-.662255.0812359-.572774-.1171565-1.650744-.1320774-1.589226-.022105.023302.0419995.316913.128209.652002.1917609.853801.1608139.949807.1956293.809527.2912334-.242812.1657876.844946.5581514 1.908469.6874657.287086.0348153.540617.0961567.562521.1359457.022371.039789-.038216.1834716-.135154.3188647-.161253.2271289-.164515.2586286-.04008.4100478.073636.0906306.134222.18734.134222.2155238 0 .1138408-1.413992-.0502888-1.878643-.2188395-.668779-.2414972-2.022185-.4177846-2.147086-.2796283-.066179.0729465-.067111.1359458-.00233.2221553.087617.1160513.221373.1657875 1.335229.4962573.347207.1027883.521975.2011556.521975.293444 0 .1171565-.098802.1293142-.619845.0773675-.397073-.0403416-.638487-.0276313-.672974.0331575-.029361.0524994-.007457.0956041.048935.0956041.055926 0 .082957.0215524.059188.0475258-.055926.061894-1.238758-.212208-1.356202-.3149963-.092744-.0801307-1.311927-.2873651-1.571982-.2674706-.080627.0066315-.14634.0635519-.14634.1271038s-.019574.1713138-.043342.2398393c-.041012.1182618.978702.3575484 2.736172.6415978.26425.0425521.616583.1403667.782962.2177342.166379.0768149.41991.1398142.563919.1398142.377965.0011052.921378.1840242.833295.2807336-.040546.0453152-.549005.0939462-1.130168.1083145-.580697.0143682-1.050008.0331575-1.042085.0419995.007457.0082894.199469.0961568.426435.194524.395209.1718664.40453.1840242.223703.2912335-.141213.0834463-.292213.0867621-.604465.0127103-.507993-.1204722-.575104-.1221301-.575104-.0138156 0 .0469731.111851.1121829.249336.145893.456727.1105251.357925.2309973-.189682.2309973-.318778 0-.641283.0585783-.797876.1447878-.158456.0873148-.336021.119367-.447406.0801306-.238617-.0834463-4.159485-.1160512-4.113347-.0331575.096939.1735243-.998276.1724191-1.93317-.0022105-1.89309-.3531274-3.503754-.5537303-4.542577-.5664407-.574172-.0066315-1.438692-.0690781-1.921053-.1392615-.635137-.0876138-1.271552-.1616775-1.908935-.2221553-.568114-.0519468-1.056533-.110525-1.085894-.1304195-.029361-.0193419-.335089-.0618941-.679499-.0944989-.30636-.0282123-.612421-.0608196-.918116-.0978147-.335089-.0447626-1.858602-.1387089-2.965002-.1829189-.94747-.0422265-1.894074-.1083723-2.839169-.1983924-.275901-.0276313-1.346881-.0674203-2.380111-.08842-1.033696-.022105-2.254744-.0740518-2.714268-.1160513-.459058-.0408943-1.729041-.0712886-2.822857-.066315-1.653075.0077367-2.000747.0326049-2.066926.1453404-.067111.1160513-.090414.1166039-.153796.0077367-.050334-.0862095-.157525-.110525-.32204-.0746043-.136086.0303943-.288018.0093946-.338351-.0464206-.050334-.0552625-.215315-.1099724-.366781-.1204722-.149056-.0101103-.297147-.0348793-.442746-.0740518-.500536-.1641297-1.022045-.2116554-1.232233-.1127355-.16871.079578-.589552-.0143683-.531296-.1182618.021439-.0386837-.380761-.0812359-.894347-.0944989-1.382301-.0370259-1.525378-.0536046-1.68197-.1972871-.127231-.1166039-.139815-.1110777-.114648.048631.019108.1215775-.012117.1691032-.096938.1469982-.103389-.0219844-.208152-.0336305-.313185-.0348153-.103463-.0011053-.187817-.0337102-.187817-.0729466 0-.0386837-.060587-.0961567-.134689-.1276564-.09787-.0414468-.121172-.017684-.084354.0873148.034487.0994725.017709.1215775-.05313.0718413-.057324-.0403417-.460456-.0862095-.897144-.1022357-.91765-.0331575-.781097-.0331575-5.0939125-.0165787-1.8143278.0077367-3.5307853-.0165788-3.815075-.053052-.2842897-.0370259-.5792986-.0403417-.6566627-.0071842-.1421449.0602362-2.8699281.1790506-3.7083498.1619192-.6552646-.0138156-1.3986123.4122583-.9852271.5647829.0615185.022105.018642.0878674-.1043949.1602612-.114648.0663151-.229296.1563929-.2549286.1989451-.0922777.154735-.8016039.2414972-1.0024709.1221301-.1272313-.075157-.4632524-.101683-.9922178-.079578-.43995.0187893-1.8851671.0563678-3.2110758.0828938-1.3263747.0270786-2.5026817.0740517-2.6145334.1049988-.1113857.030947-.5853572.0629992-1.0532702.070736-.4679129.0077367-.9260388.0607887-1.0178504.1177091-.1640492.1022357-.9386222.2696811-1.0681837.2309973-.1598548-.0469731-.4567278-.035368-.7270361.0292891-.1607868.0386838-.3677124.0629993-.459524.0547099s-.2423454-.0226576-.334157-.0320522c-.0918116-.008842-.5238388.0331575-.9600604.0922884-.4362216.0596835-.9558659.1077619-1.1544027.1066566-.1985368-.0011052-.4054624.0375785-.4595241.0856569-.0540616.0480784-.220441.1160513-.3695766.1514193-.2223053.0524994-.2712404.0359206-.2712404-.0922884 0-.1381563-.0689752-.1492088-.6058634-.0906305-.3327588.0359206-1.2066001.0746044-1.941093.0862095-.7349588.0121577-1.5388929.0701834-1.7863648.1298669-.1625445.0415161-.3260361.077635-.4902833.1083145-.0223703 0 .0060587.0624466.0633827.1387089s.2311601.1381563.3858883.1381563c.1551943 0 .2824256.017684.2824256.0386837 0 .0215524.0228364.1049988.0503332.1851295.0699073.2000502-.1654473.190103-.3509347-.0149209-.105327-.1160513-.1551942-.1287617-.1803608-.0453153-.018642.0629993-.0689752.0911832-.1109196.0629993-.0419444-.0287365-.076432-.0187893-.076432.022105 0 .0414469-.0843549.0801306-.1878177.0862095s-.6762367.0585783-1.2737112.1160513c-.5965424.057473-1.7994142.1210249-2.6723235.141472-.8724432.0198945-1.6805717.0596835-1.7952197.0873148-.3891507.0939462-2.5283144.3133384-3.6743283.375785-2.1242501.1160513-3.7344485.4520474-4.0662752.8482796-.1039289.123788-.2870861.2238132-.4185118.2287868-1.080767.0386837-2.581444.1630244-3.2399709.2685758-.3572451.0544654-.7154026.1001589-1.0742423.137051-.3322899.033449-.663414.0815607-.9926838.1442352-.2306942.048631-.4334254.08842-.4497371.08842-.0167777 0-.0302931-.1066567-.0302931-.2365236s-.0363518-.2116554-.0810925-.181261z" transform="matrix(-1 0 0 -1 165 42.112)"/></g></svg>