<svg xmlns="http://www.w3.org/2000/svg" width="99" height="6" viewBox="0 0 99 6">
  <g fill="none" fill-rule="evenodd">
    <rect width="99" height="6" fill="#212529"/>
    <path fill="#CED4DA" d="M53.3172103,6 C53.1934758,6 53.0697413,6 52.9460067,6 C52.9336333,5.96280992 52.9212598,5.90082645 52.8965129,5.90082645 C52.6737908,5.85123967 52.4015748,5.86363636 52.2283465,5.73966942 C52.0056243,5.5661157 51.696288,5.75206612 51.5106862,5.50413223 C50.9786277,5.38016529 50.4589426,5.21900826 49.9268841,5.1446281 C49.5061867,5.08264463 49.0731159,5.1322314 48.6524184,5.1322314 C48.6152981,5.23140496 48.5905512,5.30578512 48.5658043,5.38016529 C48.503937,5.34297521 48.4544432,5.30578512 48.3925759,5.25619835 C48.367829,5.40495868 48.3554556,5.51652893 48.3183352,5.71487603 C48.1946007,5.55371901 48.1327334,5.45454545 48.0832396,5.39256198 C47.7367829,5.39256198 47.4274466,5.33057851 47.167604,5.40495868 C46.8953881,5.49173554 46.7097863,5.50413223 46.4375703,5.39256198 C46.1653543,5.28099174 46.0787402,5.07024793 45.9426322,4.89669421 C45.6332958,5.04545455 45.3115861,5.03305785 45.0146232,4.9214876 C44.8661417,4.85950413 44.7671541,4.84710744 44.6310461,4.9338843 C44.4825647,5.02066116 44.3093363,5.05785124 44.1484814,5.10743802 C44.1237345,5.11983471 44.0742407,5.08264463 44.0494938,5.07024793 C43.9010124,4.90909091 44.3464567,4.78512397 44.0494938,4.61157025 C43.727784,4.80991736 43.4060742,5.02066116 43.0596175,5.23140496 C42.9606299,5.23140496 42.8245219,5.26859504 42.7255343,5.21900826 C42.4285714,5.08264463 42.1316085,4.9338843 41.871766,4.73553719 C41.6366704,4.54958678 41.3892013,4.46280992 41.1046119,4.48760331 C40.9808774,4.5 40.8571429,4.48760331 40.7581552,4.48760331 C40.6591676,4.35123967 40.5849269,4.23966942 40.424072,4.00413223 C40.424072,4.2892562 40.424072,4.45041322 40.424072,4.61157025 C39.9662542,4.7107438 39.5579303,4.80991736 39.1496063,4.89669421 C38.976378,4.67355372 38.8278965,4.5 38.6670416,4.2892562 C38.6175478,4.38842975 38.5928009,4.43801653 38.5804274,4.48760331 C38.4814398,4.88429752 38.4566929,4.87190083 38.0607424,4.77272727 C37.7019123,4.68595041 37.3925759,4.47520661 37.0213723,4.32644628 C36.8233971,4.57438017 36.6254218,4.82231405 36.3779528,5.1322314 C35.9077615,4.85950413 35.4128234,5.38016529 34.9055118,5.1322314 C34.856018,5.16942149 34.8065242,5.19421488 34.7570304,5.23140496 C34.583802,5.11983471 34.4229471,5.00826446 34.2868391,4.9214876 C34.1878515,4.58677686 34.0888639,4.2768595 33.9898763,3.90495868 C33.8413948,4.0661157 33.7547807,4.17768595 33.6186727,4.32644628 C33.6186727,4.45041322 33.6186727,4.63636364 33.6186727,4.80991736 C32.9876265,4.88429752 32.3937008,5.07024793 31.7502812,4.9214876 C31.7502812,4.79752066 31.7502812,4.7107438 31.7502812,4.56198347 C31.6141732,4.62396694 31.5151856,4.67355372 31.416198,4.7231405 C31.2182227,4.64876033 31.0326209,4.57438017 30.8222722,4.48760331 C30.7480315,4.58677686 30.6737908,4.7107438 30.5871766,4.83471074 C30.5376828,4.7231405 30.488189,4.62396694 30.4386952,4.53719008 C30.4634421,4.48760331 30.488189,4.42561983 30.5748031,4.26446281 C30.2035996,4.45041322 29.9561305,4.57438017 29.696288,4.7107438 C29.5725534,4.33884298 29.2755906,4.15289256 28.9538808,4.00413223 C28.8920135,4.0785124 28.8177728,4.14049587 28.768279,4.20247934 C28.8301462,4.31404959 28.8672666,4.38842975 28.904387,4.47520661 C28.8053993,4.47520661 28.768279,4.47520661 28.6940382,4.47520661 C28.6692913,4.35123967 28.6445444,4.22727273 28.6074241,4.04132231 C28.4465692,4.15289256 28.3228346,4.23966942 28.1991001,4.32644628 C28.1743532,4.25206612 28.1372328,4.17768595 28.1001125,4.0785124 C27.9640045,4.26446281 27.84027,4.43801653 27.7289089,4.59917355 C27.0731159,4.64876033 26.9988751,3.97933884 26.6029246,3.74380165 C26.5163105,3.8677686 26.4296963,3.99173554 26.3554556,4.11570248 C26.1327334,4.0661157 25.9471316,4.01652893 25.7615298,3.97933884 C25.7367829,3.97933884 25.712036,4.01652893 25.6872891,4.04132231 C25.7244094,4.0785124 25.7615298,4.11570248 25.8110236,4.16528926 C25.712036,4.23966942 25.6130484,4.30165289 25.5016873,4.37603306 C25.43982,4.25206612 25.4026997,4.17768595 25.3532058,4.0661157 C25.167604,4.16528926 25.0067492,4.26446281 24.8830146,4.33884298 C24.7964004,4.54958678 24.7345332,4.69834711 24.6850394,4.84710744 C24.511811,4.63636364 24.3633296,4.45041322 24.1777278,4.22727273 C24.1777278,4.17768595 24.1777278,4.0785124 24.1777278,3.99173554 C23.9673791,3.99173554 23.7941507,3.99173554 23.6951631,3.99173554 C23.3115861,4.22727273 23.0022497,4.41322314 22.6805399,4.62396694 C22.6310461,4.52479339 22.5939258,4.43801653 22.5444319,4.35123967 C22.4701912,4.35123967 22.3835771,4.35123967 22.2845894,4.35123967 C22.2103487,4.42561983 22.1237345,4.51239669 22.0371204,4.58677686 C21.9752531,4.53719008 21.9133858,4.5 21.8143982,4.42561983 C21.6906637,4.59917355 21.5793026,4.76033058 21.4679415,4.90909091 C21.4555681,4.9338843 21.4184477,4.9214876 21.3813273,4.9338843 C21.3565804,4.80991736 21.3318335,4.69834711 21.3070866,4.53719008 C21.2452193,4.66115702 21.208099,4.74793388 21.1214848,4.94628099 C21.1214848,4.67355372 21.1214848,4.52479339 21.1214848,4.51239669 C20.8863892,4.2768595 20.7379078,4.12809917 20.5894263,3.97933884 C20.1563555,4.11570248 20.2182227,4.64876033 19.9955006,4.9214876 C19.4015748,4.98347107 18.8447694,5.03305785 18.287964,5.09504132 C18.2755906,4.95867769 18.2632171,4.85950413 18.2508436,4.73553719 C18.0652418,4.73553719 17.8920135,4.73553719 17.7311586,4.73553719 C17.5579303,4.82231405 17.3847019,4.89669421 17.2114736,4.98347107 C17.1743532,4.87190083 17.1372328,4.80991736 17.1001125,4.69834711 C16.2710911,4.77272727 15.5534308,5.24380165 14.7491564,5.47933884 C14.6377953,5.33057851 14.5140607,5.19421488 14.4274466,5.07024793 C14.056243,5.29338843 13.7345332,5.45454545 13.3509561,5.21900826 C13.2890889,5.34297521 13.2148481,5.45454545 13.1529809,5.55371901 C12.8188976,5.65289256 12.7446569,5.40495868 12.6580427,5.21900826 C12.3858268,5.26859504 12.1383577,5.30578512 11.928009,5.34297521 C11.8166479,5.23140496 11.7424072,5.15702479 11.6681665,5.08264463 C11.519685,5.15702479 10.9381327,5.21900826 10.8267717,5.23140496 C10.5174353,5.25619835 10.2204724,5.30578512 9.82452193,5.3553719 C9.79977503,5.40495868 9.73790776,5.51652893 9.68841395,5.60330579 C9.44094488,5.52892562 9.25534308,5.46694215 9.03262092,5.40495868 C8.9583802,5.50413223 8.89651294,5.60330579 8.7727784,5.76446281 C8.68616423,5.52892562 8.62429696,5.3677686 8.5624297,5.16942149 C8.43869516,5.31818182 8.33970754,5.46694215 8.27784027,5.54132231 C8.05511811,5.54132231 7.90663667,5.54132231 7.78290214,5.54132231 C7.77052868,5.41735537 7.77052868,5.31818182 7.75815523,5.25619835 C7.51068616,5.29338843 7.25084364,5.25619835 7.0776153,5.3677686 C6.79302587,5.52892562 6.48368954,5.50413223 6.24859393,5.42975207 C5.9640045,5.33057851 5.67941507,5.26859504 5.44431946,5.39256198 C5.18447694,5.52892562 4.86276715,5.33057851 4.65241845,5.5785124 C4.65241845,5.59090909 4.59055118,5.54132231 4.52868391,5.51652893 C4.57817773,5.39256198 4.64004499,5.28099174 4.68953881,5.15702479 C4.57817773,5.07024793 4.49156355,5.00826446 4.34308211,4.89669421 C4.14510686,5.28099174 3.97187852,5.61570248 3.79865017,5.95041322 C3.67491564,5.95041322 3.5511811,5.95041322 3.42744657,5.95041322 C3.41507312,5.91322314 3.40269966,5.85123967 3.37795276,5.85123967 C3.1552306,5.80165289 2.88301462,5.81404959 2.70978628,5.69008264 C2.48706412,5.52892562 2.17772778,5.69008264 1.99212598,5.45454545 C1.34870641,5.3677686 0.692913386,5.21900826 0,5.07024793 C0,4.0661157 0,3.01239669 0,1.94628099 C0.123734533,1.83471074 0.284589426,1.73553719 0.22272216,1.47520661 C0.14848144,1.38842975 0.14848144,1.2892562 0.03712036,1.15289256 C0.235095613,0.904958678 0.321709786,0.644628099 0.544431946,0.371900826 C0.705286839,0.446280992 0.853768279,0.508264463 1.00224972,0.570247934 C0.928008999,0.892561983 0.965129359,1.16528926 1.15073116,1.41322314 C1.22497188,1.41322314 1.31158605,1.41322314 1.44769404,1.41322314 C1.53430821,1.31404959 1.64566929,1.16528926 1.78177728,0.991735537 C1.83127109,1.12809917 1.856018,1.20247934 1.8807649,1.26446281 C2.20247469,1.26446281 2.51181102,1.26446281 2.85826772,1.26446281 C2.85826772,1.09090909 2.85826772,0.954545455 2.85826772,0.830578512 C2.98200225,0.780991736 3.08098988,0.743801653 3.20472441,0.681818182 C3.47694038,0.917355372 3.77390326,1.16528926 4.03374578,1.40082645 C4.18222722,1.40082645 4.2935883,1.40082645 4.34308211,1.40082645 C4.50393701,1.20247934 4.62767154,1.0661157 4.75140607,0.917355372 C4.81327334,1.02892562 4.86276715,1.11570248 4.94938133,1.23966942 C5.07311586,1.05371901 5.14735658,0.929752066 5.23397075,0.805785124 C5.5928009,0.805785124 5.60517435,0.79338843 5.91451069,0.954545455 C6.42182227,1.22727273 6.97862767,1.25206612 7.48593926,1.11570248 C7.88188976,1.01652893 8.24071991,1.0785124 8.62429696,1.04132231 C9.02024747,0.991735537 9.40382452,1.0661157 9.78740157,1.22727273 C10.1214848,1.36363636 10.4679415,1.35123967 10.7401575,1.11570248 C11.0742407,0.830578512 11.408324,0.570247934 11.8042745,0.458677686 C11.9527559,0.508264463 12.0888639,0.545454545 12.2992126,0.607438017 C12.3734533,0.805785124 12.4724409,1.02892562 12.5714286,1.2892562 C12.6456693,1.16528926 12.7322835,1.04132231 12.7817773,0.954545455 C12.9673791,0.892561983 13.1406074,0.842975207 13.2890889,0.79338843 C13.3633296,0.966942149 13.4375703,1.12809917 13.5365579,1.33884298 C13.8582677,0.570247934 14.5264342,0.483471074 15.1698538,0.285123967 C15.4296963,0.70661157 15.6895388,1.14049587 15.9865017,1.61157025 C16.1102362,1.37603306 16.1844769,1.20247934 16.2710911,1.04132231 C16.3577053,1.04132231 16.4443195,1.04132231 16.5185602,1.04132231 C16.4814398,1.00413223 16.4443195,0.966942149 16.4071991,0.917355372 C16.5061867,0.904958678 16.6175478,0.880165289 16.7165354,0.867768595 C16.704162,0.842975207 16.6794151,0.818181818 16.6670416,0.805785124 C16.4814398,0.805785124 16.3082115,0.805785124 16.1721035,0.805785124 C16.0731159,0.719008264 16.0112486,0.669421488 15.9988751,0.657024793 C16.048369,0.433884298 16.0854893,0.247933884 16.1226097,0.0743801653 C16.2339708,0.0743801653 16.3329584,0.0743801653 16.4195726,0.0743801653 C16.4443195,0.161157025 16.4690664,0.23553719 16.4814398,0.272727273 C16.7412823,0.347107438 16.9640045,0.409090909 17.1619798,0.47107438 C17.1867267,0.55785124 17.223847,0.619834711 17.2485939,0.694214876 C17.3970754,0.632231405 17.5455568,0.607438017 17.6445444,0.520661157 C17.8177728,0.371900826 17.9538808,0.198347107 18.1271091,0 C18.2013498,0.297520661 18.2632171,0.533057851 18.3250844,0.780991736 C18.0281215,0.79338843 17.7930259,0.805785124 17.5455568,0.830578512 C17.6197975,0.917355372 17.6569179,0.954545455 17.6816648,1.01652893 C17.7064117,1.0661157 17.7064117,1.12809917 17.7187852,1.17768595 C17.9167604,1.16528926 18.0899888,1.22727273 18.2508436,1.0661157 C18.3374578,0.979338843 18.4983127,0.966942149 18.6220472,0.94214876 C18.6715411,0.929752066 18.7334083,0.966942149 18.7705287,0.966942149 C18.7952756,1.10330579 18.807649,1.20247934 18.8447694,1.38842975 C19.0056243,1.25206612 19.1169854,1.16528926 19.2530934,1.05371901 C19.352081,1.19008264 19.4634421,1.32644628 19.5129359,1.40082645 C19.9336333,1.52479339 19.9831271,1.23966942 20.1192351,0.979338843 C20.2305962,1.14049587 20.2924634,1.22727273 20.3790776,1.36363636 C20.5028121,1.25206612 20.6017998,1.15289256 20.7007874,1.0661157 C20.7379078,1.15289256 20.7874016,1.23966942 20.8245219,1.32644628 C20.9977503,1.2768595 21.1338583,1.20247934 21.1214848,1.00413223 C21.3194601,1.01652893 21.344207,0.818181818 21.4431946,0.669421488 C21.4926884,0.805785124 21.5174353,0.880165289 21.5298088,0.917355372 C21.7896513,0.768595041 22.0371204,0.619834711 22.2969629,0.458677686 C22.3340832,0.495867769 22.3835771,0.533057851 22.4454443,0.582644628 C22.5320585,0.458677686 22.6062992,0.334710744 22.6805399,0.210743802 C22.8908886,0.210743802 23.0888639,0.210743802 23.3239595,0.210743802 C23.3858268,0.32231405 23.4600675,0.433884298 23.5219348,0.533057851 C24.1406074,0.334710744 24.7345332,0.47107438 25.3160855,0.743801653 C25.3779528,0.929752066 25.4521935,1.11570248 25.5388076,1.38842975 C25.7491564,0.94214876 25.9347582,0.570247934 26.1079865,0.210743802 C26.3554556,0.409090909 26.6029246,0.285123967 26.8380202,0.334710744 C27.0854893,0.384297521 27.3205849,0.433884298 27.5804274,0.495867769 C27.5804274,0.669421488 27.5804274,0.805785124 27.5804274,0.979338843 C27.7660292,0.842975207 27.9268841,0.731404959 28.0753656,0.619834711 C28.1248594,0.595041322 28.1867267,0.595041322 28.223847,0.582644628 C28.2980877,0.719008264 28.3723285,0.830578512 28.4465692,0.954545455 C28.6816648,0.954545455 28.9415073,1.02892562 29.1271091,0.94214876 C29.4859393,0.780991736 29.8447694,0.867768595 30.2407199,0.818181818 C30.2902137,0.880165289 30.352081,0.966942149 30.4263217,1.02892562 C30.5129359,1.10330579 30.6119235,1.15289256 30.7727784,1.26446281 C30.7727784,0.94214876 30.7727784,0.70661157 30.7727784,0.458677686 C30.9955006,0.458677686 31.1811024,0.458677686 31.3295838,0.458677686 C31.6760405,0.632231405 31.4285714,0.966942149 31.6017998,1.22727273 C31.8245219,1.12809917 32.0472441,1.02892562 32.2452193,0.94214876 C32.2699663,0.768595041 32.2947132,0.669421488 32.3070866,0.582644628 C32.7525309,0.657024793 33.1484814,0.756198347 33.5568054,0.79338843 C33.8166479,0.818181818 34.064117,0.830578512 34.2744657,1.00413223 C34.4229471,1.12809917 34.5961755,1.20247934 34.7817773,1.31404959 C35.4994376,1.09090909 36.0933633,0.483471074 36.8728909,0.55785124 C37.095613,0.719008264 37.2688414,0.830578512 37.4420697,0.966942149 C37.6152981,1.10330579 37.7637795,1.25206612 37.9865017,1.43801653 C37.9865017,1.46280992 37.9865017,1.56198347 37.9865017,1.67355372 C38.2092238,1.57438017 38.2834646,1.33884298 38.5185602,1.2892562 C38.7165354,1.25206612 38.8773903,1.0661157 39.0753656,0.929752066 C39.223847,0.94214876 39.4094488,0.954545455 39.6074241,0.966942149 C39.5455568,1.10330579 39.5084364,1.20247934 39.4465692,1.35123967 C39.6940382,1.23966942 39.8672666,1.16528926 40.0281215,1.09090909 C40.0652418,1.19008264 40.0899888,1.25206612 40.1271091,1.33884298 C40.2384702,1.2892562 40.3127109,1.25206612 40.3993251,1.20247934 C40.424072,1.2768595 40.4488189,1.35123967 40.4859393,1.43801653 C40.7086614,1.40082645 40.943757,1.48760331 41.1417323,1.33884298 C41.1788526,1.37603306 41.215973,1.40082645 41.2530934,1.43801653 C41.3397075,1.31404959 41.4263217,1.17768595 41.5129359,1.05371901 C41.5376828,1.05371901 41.5624297,1.04132231 41.5748031,1.05371901 C41.6366704,1.09090909 41.7109111,1.14049587 41.6985377,1.12809917 C42.0573678,1.09090909 42.3419573,1.0661157 42.6265467,1.02892562 C42.6512936,1.19008264 42.6760405,1.30165289 42.7007874,1.45041322 C43.071991,0.731404959 44,0.719008264 44.408324,1.00413223 C44.5073116,1.15289256 44.5939258,1.2892562 44.6681665,1.38842975 C44.8537683,1.38842975 44.9898763,1.38842975 45.1383577,1.38842975 C45.0517435,1.22727273 44.9775028,1.10330579 44.9032621,0.966942149 C45.0393701,0.904958678 45.1754781,0.830578512 45.3487064,0.756198347 C45.3858268,0.917355372 45.4105737,1.04132231 45.4229471,1.11570248 C45.5343082,1.17768595 45.5961755,1.20247934 45.6704162,1.23966942 C45.5961755,1.37603306 45.5466817,1.47520661 45.4848144,1.61157025 C45.6580427,1.7231405 45.8188976,1.80991736 45.992126,1.90909091 C46.0787402,1.77272727 46.1406074,1.66115702 46.2148481,1.54958678 C46.2395951,1.74793388 46.2148481,1.99586777 46.1529809,2.15702479 C46.1406074,2.18181818 46.1777278,2.23140496 46.1901012,2.26859504 C46.2024747,2.28099174 46.2272216,2.29338843 46.2395951,2.29338843 C46.2767154,2.29338843 46.3138358,2.28099174 46.3509561,2.26859504 C46.4251969,1.90909091 46.4251969,1.90909091 46.7592801,1.7107438 C46.7097863,1.58677686 46.6726659,1.47520661 46.5984252,1.30165289 C46.7345332,1.30165289 46.8087739,1.2892562 46.8953881,1.30165289 C46.9696288,1.31404959 47.0438695,1.33884298 47.1181102,1.35123967 C47.712036,1.45041322 48.2812148,1.84710744 48.9370079,1.5 C49.0607424,1.64876033 49.1721035,1.79752066 49.2710911,1.90909091 C49.5928009,1.9338843 49.7536558,1.82231405 49.7289089,1.5 C49.6546682,1.40082645 49.5556805,1.2892562 49.4443195,1.15289256 C49.6546682,0.880165289 49.8526434,0.644628099 50.0629921,0.384297521 C50.223847,0.458677686 50.3475816,0.508264463 50.4094488,0.545454545 C50.496063,0.892561983 50.5579303,1.16528926 50.6197975,1.41322314 C51.0033746,1.52479339 51.0776153,1.16528926 51.3127109,1.0785124 C51.3498313,1.16528926 51.3745782,1.23966942 51.3869516,1.2892562 C51.7086614,1.2892562 52.0179978,1.2892562 52.3397075,1.2892562 C52.3397075,1.12809917 52.3397075,0.991735537 52.3397075,0.867768595 C52.4634421,0.805785124 52.5624297,0.756198347 52.7109111,0.681818182 C52.9707537,0.917355372 53.2553431,1.17768595 53.5275591,1.42561983 C53.6512936,1.42561983 53.7750281,1.42561983 53.8492688,1.42561983 C53.9977503,1.23966942 54.1214848,1.09090909 54.2328459,0.94214876 C54.3318335,1.05371901 54.3937008,1.12809917 54.4679415,1.21487603 C54.5793026,1.04132231 54.6535433,0.917355372 54.7525309,0.756198347 C54.9752531,0.830578512 55.1979753,0.855371901 55.3712036,0.954545455 C55.8785152,1.25206612 56.4229471,1.22727273 56.9550056,1.15289256 C57.7716535,1.04132231 58.5016873,0.979338843 59.0832396,1.17768595 C59.367829,1.2768595 59.6524184,1.32644628 59.8998875,1.2892562 C60.3948256,0.979338843 60.84027,0.694214876 61.2114736,0.446280992 C61.4589426,0.520661157 61.6074241,0.55785124 61.768279,0.607438017 C61.8548931,0.830578512 61.9538808,1.05371901 62.0528684,1.30165289 C62.1394826,1.16528926 62.2013498,1.05371901 62.2755906,0.94214876 C62.4488189,0.892561983 62.6220472,0.830578512 62.7829021,0.79338843 C62.8571429,0.979338843 62.9190101,1.14049587 63.0056243,1.35123967 C63.3397075,0.570247934 64.0202475,0.47107438 64.6760405,0.297520661 C64.9235096,0.719008264 65.1709786,1.14049587 65.4679415,1.62396694 C65.5793026,1.38842975 65.6659168,1.21487603 65.727784,1.09090909 C65.9010124,1.01652893 66.0494938,0.94214876 66.3217098,0.830578512 C65.9505062,0.731404959 65.6411699,0.904958678 65.4926884,0.657024793 C65.5421822,0.433884298 65.5793026,0.247933884 65.6164229,0.0495867769 C65.7154106,0.0495867769 65.8143982,0.0495867769 65.9257593,0.0495867769 C65.9381327,0.111570248 65.9505062,0.173553719 65.9628796,0.247933884 C66.1856018,0.309917355 66.4330709,0.384297521 66.6681665,0.446280992 C66.7052868,0.520661157 66.7300337,0.607438017 66.791901,0.731404959 C67.1136108,0.483471074 67.3858268,0.272727273 67.6580427,0.0619834711 C67.71991,0.297520661 67.7694038,0.520661157 67.8436445,0.79338843 C67.5590551,0.79338843 67.3115861,0.79338843 67.0764904,0.79338843 C67.1383577,0.929752066 67.1878515,1.02892562 67.2373453,1.14049587 C67.5343082,1.21487603 67.7694038,1.10330579 67.992126,0.929752066 C68.0539933,0.880165289 68.1777278,0.917355372 68.2767154,0.917355372 C68.3014623,1.0661157 68.3262092,1.17768595 68.3633296,1.33884298 C68.5241845,1.22727273 68.6355456,1.14049587 68.8211474,1.00413223 C68.9325084,1.12809917 69.056243,1.26446281 69.192351,1.41322314 C69.4274466,1.43801653 69.5264342,1.2768595 69.575928,1.0785124 C69.575928,1.05371901 69.6501687,1.05371901 69.712036,1.04132231 C69.7367829,1.0785124 69.7615298,1.11570248 69.7986502,1.16528926 C69.8357705,1.21487603 69.8728909,1.2768595 69.9718785,1.42561983 C70.0832396,1.26446281 70.1451069,1.16528926 70.2193476,1.05371901 C70.2193476,1.05371901 70.2440945,1.0661157 70.2564679,1.0785124 C70.2812148,1.15289256 70.3059618,1.22727273 70.3307087,1.30165289 C70.5410574,1.19008264 70.7885264,0.966942149 70.9865017,0.694214876 C71.0112486,0.768595041 71.048369,0.830578512 71.0607424,0.892561983 C71.3205849,0.743801653 71.5804274,0.595041322 71.8278965,0.433884298 C71.8773903,0.47107438 71.9145107,0.508264463 71.976378,0.55785124 C72.0506187,0.421487603 72.1248594,0.309917355 72.1867267,0.198347107 C72.4094488,0.198347107 72.632171,0.198347107 72.8548931,0.198347107 C72.9291339,0.32231405 72.9910011,0.433884298 73.0281215,0.483471074 C73.6715411,0.359504132 74.2654668,0.409090909 74.8470191,0.743801653 C74.9088864,0.904958678 74.9707537,1.10330579 75.0573678,1.37603306 C75.2677165,0.94214876 75.4409449,0.570247934 75.6265467,0.185950413 C75.6760405,0.223140496 75.7007874,0.272727273 75.7255343,0.272727273 C76.0224972,0.297520661 76.3318335,0.32231405 76.5669291,0.334710744 C76.7772778,0.396694215 76.9133858,0.446280992 77.0618673,0.495867769 C77.0742407,0.644628099 77.0989876,0.79338843 77.1113611,0.954545455 C77.3464567,0.805785124 77.5320585,0.669421488 77.7300337,0.545454545 C77.8290214,0.70661157 77.9156355,0.830578512 78.0022497,0.966942149 C78.5961755,0.904958678 79.1777278,0.842975207 79.6974128,0.79338843 C79.9077615,0.966942149 80.056243,1.10330579 80.2789651,1.30165289 C80.2913386,1.00413223 80.2913386,0.805785124 80.303712,0.607438017 C80.303712,0.55785124 80.3284589,0.495867769 80.3532058,0.446280992 C80.5388076,0.446280992 80.6996625,0.446280992 80.8605174,0.446280992 C80.9223847,0.508264463 80.984252,0.570247934 81.0584927,0.644628099 C81.0584927,0.805785124 81.0584927,0.979338843 81.0584927,1.16528926 C81.367829,1.23966942 81.5658043,1.09090909 81.7637795,0.904958678 C81.7885264,0.79338843 81.8008999,0.681818182 81.8256468,0.55785124 C82.3824522,0.70661157 82.9145107,0.855371901 83.4589426,0.805785124 C83.7435321,0.979338843 84.0033746,1.14049587 84.3250844,1.32644628 C84.6096738,1.19008264 84.943757,1.02892562 85.2654668,0.867768595 C85.6366704,0.681818182 86.007874,0.508264463 86.4285714,0.55785124 C86.7874016,0.830578512 87.1338583,1.11570248 87.480315,1.38842975 C87.4926884,1.48760331 87.5050619,1.57438017 87.5174353,1.63636364 C87.8762655,1.38842975 88.2227222,1.16528926 88.5444319,0.94214876 C88.7300337,0.94214876 88.9156355,0.94214876 89.1136108,0.94214876 C89.1012373,1.02892562 89.0888639,1.0785124 89.064117,1.14049587 C89.0517435,1.17768595 89.0146232,1.21487603 88.8908886,1.37603306 C89.2125984,1.22727273 89.3858268,1.15289256 89.5590551,1.0661157 C89.583802,1.15289256 89.6085489,1.22727273 89.6456693,1.32644628 C89.7446569,1.26446281 89.8312711,1.22727273 89.9178853,1.17768595 C89.9426322,1.25206612 89.9673791,1.31404959 89.992126,1.38842975 C90.264342,1.52479339 90.5241845,1.26446281 90.8087739,1.38842975 C90.8830146,1.26446281 90.9696288,1.14049587 91.056243,1.01652893 C91.167604,1.0785124 91.2542182,1.12809917 91.3284589,1.17768595 C91.6130484,0.979338843 91.8976378,1.04132231 92.2069741,1.0661157 C92.2069741,1.20247934 92.2069741,1.30165289 92.2069741,1.40082645 C92.3554556,1.02892562 92.6524184,0.94214876 92.9988751,0.917355372 C93.3329584,0.582644628 93.6175478,0.991735537 93.9021372,0.94214876 C94.0134983,1.12809917 94.1124859,1.2768595 94.1867267,1.40082645 C94.359955,1.40082645 94.496063,1.40082645 94.6445444,1.40082645 C94.5703037,1.23966942 94.496063,1.10330579 94.4218223,0.954545455 C94.5826772,0.892561983 94.7187852,0.830578512 94.8672666,0.768595041 C94.8920135,0.929752066 94.904387,1.04132231 94.9291339,1.12809917 C95.0281215,1.16528926 95.0899888,1.19008264 95.1889764,1.22727273 C95.1271091,1.36363636 95.0776153,1.46280992 95.0033746,1.59917355 C95.1642295,1.7107438 95.3250844,1.80991736 95.4859393,1.90909091 C95.5725534,1.78512397 95.6467942,1.66115702 95.7210349,1.54958678 C95.7457818,1.56198347 95.7705287,1.57438017 95.7952756,1.58677686 C95.7581552,1.80991736 95.7210349,2.03305785 95.6715411,2.26859504 C95.7334083,2.28099174 95.7829021,2.28099174 95.8447694,2.29338843 C95.8942632,2.15702479 95.9066367,2.00826446 95.9808774,1.90909091 C96.0551181,1.80991736 96.1788526,1.76033058 96.2902137,1.69834711 C96.2283465,1.56198347 96.1788526,1.46280992 96.1293588,1.33884298 C96.5129359,1.21487603 96.8098988,1.42561983 97.1316085,1.47520661 C97.3543307,1.51239669 97.5646794,1.64876033 97.7874016,1.66115702 C97.9977503,1.67355372 98.208099,1.58677686 98.4184477,1.54958678 C98.6287964,1.64876033 98.6906637,1.97107438 99,1.9214876 C99,3 99,4.0661157 99,5.1446281 C98.7154106,5.1446281 98.4308211,5.1446281 98.1709786,5.1446281 C98.1338583,5.25619835 98.1091114,5.31818182 98.0843645,5.39256198 C98.0224972,5.34297521 97.9853768,5.30578512 97.9111361,5.25619835 C97.8863892,5.39256198 97.8740157,5.50413223 97.8616423,5.59090909 C97.7874016,5.51652893 97.7007874,5.42975207 97.6389201,5.3677686 C97.2677165,5.39256198 96.9583802,5.3677686 96.6737908,5.42975207 C96.0427447,5.5785124 95.7952756,5.49173554 95.4983127,4.9214876 C95.1642295,5.04545455 94.8548931,5.05785124 94.5208099,4.9338843 C94.4341957,4.89669421 94.3228346,4.87190083 94.2362205,4.89669421 C94.0506187,4.95867769 93.8897638,5.05785124 93.7165354,5.1322314 C93.6794151,5.1446281 93.6051744,5.10743802 93.5433071,5.09504132 C93.5928009,4.94628099 93.6422947,4.80991736 93.7289089,4.54958678 C93.2710911,4.83471074 92.9246344,5.03305785 92.5410574,5.28099174 C91.9595051,5.23140496 91.5140607,4.79752066 90.9572553,4.51239669 C90.7345332,4.51239669 90.4870641,4.51239669 90.3014623,4.51239669 C90.2024747,4.37603306 90.1158605,4.26446281 89.9673791,4.0661157 C89.9673791,4.32644628 89.9673791,4.46280992 89.9673791,4.59917355 C89.4971879,4.79752066 89.0269966,4.89669421 88.6310461,4.88429752 C88.4949381,4.7231405 88.3464567,4.54958678 88.1856018,4.35123967 C88.0618673,4.57438017 88.136108,4.87190083 87.7649044,4.90909091 C87.4060742,4.76033058 86.9853768,4.57438017 86.5399325,4.38842975 C86.3419573,4.63636364 86.143982,4.88429752 85.9212598,5.16942149 C85.4263217,4.98347107 84.9313836,5.39256198 84.424072,5.19421488 C84.3622047,5.23140496 84.3127109,5.25619835 84.2632171,5.28099174 C84.0899888,5.15702479 83.9291339,5.05785124 83.8177728,4.97107438 C83.7064117,4.62396694 83.6074241,4.32644628 83.5084364,3.99173554 C83.359955,4.14049587 83.2609674,4.23966942 83.1372328,4.36363636 C83.1372328,4.52479339 83.1372328,4.7107438 83.1372328,4.87190083 C82.5185602,4.9338843 81.9370079,5.11983471 81.3307087,4.98347107 C81.3059618,4.87190083 81.2935883,4.76033058 81.2564679,4.61157025 C81.12036,4.67355372 81.0213723,4.7231405 80.9347582,4.77272727 C80.7244094,4.69834711 80.5388076,4.62396694 80.3284589,4.54958678 C80.2665917,4.66115702 80.192351,4.77272727 80.1181102,4.89669421 C80.0686164,4.78512397 80.0067492,4.67355372 79.9696288,4.59917355 C79.9943757,4.51239669 80.0067492,4.46280992 80.056243,4.33884298 C79.7221597,4.51239669 79.4746907,4.63636364 79.2272216,4.76033058 C79.0044994,4.35123967 78.6332958,4.00413223 78.4724409,4.0661157 C78.4229471,4.11570248 78.3610799,4.17768595 78.3115861,4.25206612 C78.3487064,4.33884298 78.3858268,4.41322314 78.447694,4.53719008 C78.3487064,4.52479339 78.2868391,4.52479339 78.2249719,4.52479339 C78.200225,4.37603306 78.1878515,4.2768595 78.1507312,4.09090909 C77.9775028,4.22727273 77.8661417,4.31404959 77.7424072,4.40082645 C77.7052868,4.30165289 77.6805399,4.23966942 77.6434196,4.12809917 C77.5073116,4.32644628 77.3835771,4.48760331 77.2598425,4.67355372 C76.9752531,4.57438017 76.6782902,4.57438017 76.5669291,4.20247934 C76.5050619,4.02892562 76.3070866,3.91735537 76.1833521,3.78099174 C76.0843645,3.91735537 75.9977503,4.04132231 75.9111361,4.16528926 C75.6760405,4.10330579 75.4780652,4.05371901 75.2305962,3.99173554 C75.2924634,4.11570248 75.3172103,4.16528926 75.3543307,4.23966942 C75.2553431,4.30165289 75.1563555,4.35123967 75.0573678,4.40082645 C75.007874,4.2768595 74.9707537,4.20247934 74.9212598,4.10330579 C74.735658,4.20247934 74.5871766,4.2768595 74.4510686,4.35123967 C74.3644544,4.54958678 74.3025872,4.7231405 74.2283465,4.88429752 C74.0551181,4.66115702 73.9066367,4.47520661 73.7581552,4.2892562 C73.7457818,4.20247934 73.7457818,4.10330579 73.7334083,4.02892562 C73.5106862,4.02892562 73.3250844,4.02892562 73.2384702,4.02892562 C72.8548931,4.26446281 72.5455568,4.45041322 72.2114736,4.64876033 C72.1619798,4.54958678 72.1248594,4.46280992 72.0506187,4.32644628 C71.8773903,4.41322314 71.7165354,4.5 71.5433071,4.58677686 C71.5061867,4.56198347 71.431946,4.52479339 71.3453318,4.46280992 C71.2215973,4.63636364 71.1102362,4.79752066 70.9988751,4.94628099 C70.9865017,4.95867769 70.9493813,4.95867769 70.912261,4.95867769 C70.8875141,4.83471074 70.8751406,4.73553719 70.8503937,4.57438017 C70.7885264,4.7107438 70.7514061,4.78512397 70.6524184,4.98347107 C70.6524184,4.7107438 70.6524184,4.54958678 70.6524184,4.40082645 C70.6152981,4.42561983 70.5781777,4.43801653 70.5534308,4.46280992 C70.4173228,4.31404959 70.2688414,4.17768595 70.1079865,4.01652893 C69.6996625,4.16528926 69.7491564,4.68595041 69.5264342,4.95867769 C68.920135,5.02066116 68.375703,5.07024793 67.8188976,5.1322314 C67.8065242,4.98347107 67.7941507,4.88429752 67.7817773,4.77272727 C67.5961755,4.77272727 67.4229471,4.77272727 67.2620922,4.77272727 C67.0764904,4.85950413 66.9032621,4.9338843 66.7424072,5.02066116 C66.7052868,4.90909091 66.6681665,4.83471074 66.6310461,4.7231405 C65.8020247,4.84710744 65.0843645,5.26859504 64.2677165,5.54132231 C64.1563555,5.39256198 64.0326209,5.24380165 63.9460067,5.11983471 C63.5871766,5.3553719 63.2654668,5.47933884 62.8695163,5.26859504 C62.807649,5.38016529 62.7334083,5.50413223 62.6715411,5.61570248 C62.5849269,5.61570248 62.5106862,5.61570248 62.3993251,5.61570248 C62.3250844,5.50413223 62.2384702,5.3677686 62.1766029,5.26859504 C61.9167604,5.30578512 61.6692913,5.3553719 61.4589426,5.38016529 C61.3475816,5.26859504 61.2733408,5.19421488 61.1991001,5.11983471 C61.0382452,5.19421488 60.4814398,5.25619835 60.3577053,5.26859504 C60.048369,5.29338843 59.7514061,5.34297521 59.3554556,5.39256198 C59.3307087,5.44214876 59.2812148,5.55371901 59.231721,5.64049587 C58.984252,5.5661157 58.7986502,5.50413223 58.575928,5.44214876 C58.5016873,5.54132231 58.43982,5.64049587 58.3284589,5.81404959 C58.2418448,5.5661157 58.1799775,5.40495868 58.1181102,5.23140496 C57.9943757,5.3677686 57.8830146,5.50413223 57.8211474,5.5785124 C57.5860517,5.5785124 57.4623172,5.5785124 57.3262092,5.5785124 C57.3138358,5.45454545 57.3138358,5.3553719 57.3014623,5.28099174 C57.0539933,5.31818182 56.7941507,5.28099174 56.6085489,5.39256198 C56.3239595,5.55371901 56.0146232,5.52892562 55.7795276,5.45454545 C55.4949381,5.3553719 55.2227222,5.29338843 54.9752531,5.41735537 C54.7154106,5.55371901 54.3937008,5.3553719 54.1833521,5.60330579 C54.1833521,5.61570248 54.1214848,5.5661157 54.0596175,5.54132231 C54.1091114,5.42975207 54.1709786,5.30578512 54.2204724,5.18181818 C54.1091114,5.09504132 54.0224972,5.03305785 53.8740157,4.9214876 C53.6760405,5.33057851 53.5028121,5.66528926 53.3172103,6 Z"/>
  </g>
</svg>
