<?xml version="1.0" encoding="UTF-8"?>
<svg width="120px" height="8px" viewBox="0 0 120 8" version="1.1" xmlns="http://www.w3.org/2000/svg" xmlns:xlink="http://www.w3.org/1999/xlink">
    <!-- Generator: Sketch 51.3 (57544) - http://www.bohemiancoding.com/sketch -->
    <title>hr</title>
    <desc>Created with Sketch.</desc>
    <defs></defs>
    <g id="hr" stroke="none" stroke-width="1" fill="none" fill-rule="evenodd">
        <path d="M9.80567619,6.62419671 C9.56761377,6.85708659 9.29703068,7.05968781 9.0246256,7.25302702 C8.70688209,7.47840386 8.20401015,7.86116189 7.82672941,7.48388114 C7.44944866,7.10660039 8.71222937,6.09157178 9.16803332,5.5422252 C9.84636791,4.724679 10.2567604,3.58779714 11.0957891,2.74001734 C11.7950662,2.03344666 12.5143946,1.13527463 13.2212163,0.436178652 C13.5738599,0.0872297604 13.9952952,-0.213759403 14.4335435,-0.444367481 C14.7172906,-0.593628685 15.085678,-0.559297453 15.3598628,-0.297016649 C15.635523,-0.0325165115 15.6539697,0.319242401 15.5339191,0.62550414 C15.4157413,0.926198544 15.2034554,1.21016097 14.9757634,1.44598125 C14.4773632,1.96032731 14.0964329,2.32707107 13.5889046,2.83284003 C13.2925292,3.12818812 12.8706234,3.56358212 12.5743156,3.85896498 C12.4845211,3.94847915 12.3947836,4.03804503 12.3051357,4.12769297 C11.4282928,4.73113052 10.6474494,5.80089684 9.80567619,6.62419671 Z M19.180852,5.01312298 C18.4093235,5.78465148 17.6462928,6.56467771 16.8618329,7.32327487 C16.5631472,7.61309346 16.2252928,7.86523151 15.8863554,8.1088465 C15.5459301,8.35394949 15.0429195,8.33379523 14.7193296,8.10022939 C14.3661545,7.84526234 14.3437058,7.14577318 14.7283895,6.7507444 C15.3010752,6.16314411 16.097177,5.39303384 16.6718555,4.80727833 C17.9193911,3.53569631 18.9489444,2.45163533 20.203793,1.18666885 C20.5609234,0.826582758 20.9868252,0.520388124 21.5085321,0.493766622 C21.7258173,0.482643752 22.0179118,0.602874103 22.1534123,0.765902649 C22.2881765,0.927450796 22.357534,1.24381648 22.2960446,1.44570323 C22.2038079,1.74927483 22.015922,2.05317326 21.7938049,2.28489647 C20.9224537,3.19319437 20.0211731,4.07230695 19.1306046,4.96287552 L19.180852,5.01312298 Z M28.0721018,2.99492845 C26.4067855,4.6602448 27.4167774,4.48329243 25.4765357,6.42353414 C23.5362939,8.36377585 23.1402946,7.33411115 22.8360964,7.17573706 C22.5959173,7.05162203 22.4882471,6.55558363 22.5718619,6.27984617 C22.7747077,5.61221135 23.2283178,5.11722092 23.7085068,4.65550528 C24.7324866,3.67142784 25.7863933,2.71727719 26.8233045,1.74613108 C27.4336226,1.17497644 27.652369,1.43262062 28.4698298,0.941651682 C29.2872905,0.450682743 30.1894881,-0.283100455 30.4676682,0.113143901 C30.5850784,0.280384885 29.9503412,1.11373338 29.6779762,1.40383276 C28.7630249,2.3778987 27.798555,3.30542197 26.8533024,4.25067458 L28.0721018,2.99492845 Z M4.71845261,4.74548388 C3.88628807,5.57764842 3.06040194,6.41683535 2.2171534,7.23791589 C1.97983752,7.4693203 1.69818057,7.65787165 1.42541108,7.84935847 C1.20281349,8.00471312 0.686747887,7.89933578 0.516950296,7.68341016 C0.278125775,7.37985759 0.320780425,7.04828 0.504169375,6.75848465 C0.727443425,6.40515833 0.987365615,6.06764814 1.2720218,5.76082395 C2.06980567,4.90023075 2.885701,4.05551701 3.7004854,3.21043635 C4.39881599,2.48698202 5.10379951,1.76943663 5.80951944,1.05337164 C6.16590833,0.693288081 6.53603337,0.327596644 7.0534865,0.243897391 C7.27493472,0.207921445 7.53824878,0.288211391 7.75108989,0.384244425 C7.9757742,0.486168657 8.12238234,1.08736108 7.9960437,1.28094265 C7.81417569,1.55961093 7.63893527,1.85160282 7.40938832,2.08780017 C7.06163666,2.44549414 6.57961304,2.69654005 6.22723644,3.04974991 C5.68917536,3.58908334 5.27884089,4.22869266 4.74025114,4.76728242 L4.71845261,4.74548388 Z" id="Fill-100" fill="#22B8CF"></path>
        <path d="M38.8056762,6.62419671 C38.5676138,6.85708659 38.2970307,7.05968781 38.0246256,7.25302702 C37.7068821,7.47840386 37.2040102,7.86116189 36.8267294,7.48388114 C36.4494487,7.10660039 37.7122294,6.09157178 38.1680333,5.5422252 C38.8463679,4.724679 39.2567604,3.58779714 40.0957891,2.74001734 C40.7950662,2.03344666 41.5143946,1.13527463 42.2212163,0.436178652 C42.5738599,0.0872297604 42.9952952,-0.213759403 43.4335435,-0.444367481 C43.7172906,-0.593628685 44.085678,-0.559297453 44.3598628,-0.297016649 C44.635523,-0.0325165115 44.6539697,0.319242401 44.5339191,0.62550414 C44.4157413,0.926198544 44.2034554,1.21016097 43.9757634,1.44598125 C43.4773632,1.96032731 43.0964329,2.32707107 42.5889046,2.83284003 C42.2925292,3.12818812 41.8706234,3.56358212 41.5743156,3.85896498 C41.4845211,3.94847915 41.3947836,4.03804503 41.3051357,4.12769297 C40.4282928,4.73113052 39.6474494,5.80089684 38.8056762,6.62419671 Z M48.180852,5.01312298 C47.4093235,5.78465148 46.6462928,6.56467771 45.8618329,7.32327487 C45.5631472,7.61309346 45.2252928,7.86523151 44.8863554,8.1088465 C44.5459301,8.35394949 44.0429195,8.33379523 43.7193296,8.10022939 C43.3661545,7.84526234 43.3437058,7.14577318 43.7283895,6.7507444 C44.3010752,6.16314411 45.097177,5.39303384 45.6718555,4.80727833 C46.9193911,3.53569631 47.9489444,2.45163533 49.203793,1.18666885 C49.5609234,0.826582758 49.9868252,0.520388124 50.5085321,0.493766622 C50.7258173,0.482643752 51.0179118,0.602874103 51.1534123,0.765902649 C51.2881765,0.927450796 51.357534,1.24381648 51.2960446,1.44570323 C51.2038079,1.74927483 51.015922,2.05317326 50.7938049,2.28489647 C49.9224537,3.19319437 49.0211731,4.07230695 48.1306046,4.96287552 L48.180852,5.01312298 Z M57.0721018,2.99492845 C55.4067855,4.6602448 56.4167774,4.48329243 54.4765357,6.42353414 C52.5362939,8.36377585 52.1402946,7.33411115 51.8360964,7.17573706 C51.5959173,7.05162203 51.4882471,6.55558363 51.5718619,6.27984617 C51.7747077,5.61221135 52.2283178,5.11722092 52.7085068,4.65550528 C53.7324866,3.67142784 54.7863933,2.71727719 55.8233045,1.74613108 C56.4336226,1.17497644 56.652369,1.43262062 57.4698298,0.941651682 C58.2872905,0.450682743 59.1894881,-0.283100455 59.4676682,0.113143901 C59.5850784,0.280384885 58.9503412,1.11373338 58.6779762,1.40383276 C57.7630249,2.3778987 56.798555,3.30542197 55.8533024,4.25067458 L57.0721018,2.99492845 Z M33.7184526,4.74548388 C32.8862881,5.57764842 32.0604019,6.41683535 31.2171534,7.23791589 C30.9798375,7.4693203 30.6981806,7.65787165 30.4254111,7.84935847 C30.2028135,8.00471312 29.6867479,7.89933578 29.5169503,7.68341016 C29.2781258,7.37985759 29.3207804,7.04828 29.5041694,6.75848465 C29.7274434,6.40515833 29.9873656,6.06764814 30.2720218,5.76082395 C31.0698057,4.90023075 31.885701,4.05551701 32.7004854,3.21043635 C33.398816,2.48698202 34.1037995,1.76943663 34.8095194,1.05337164 C35.1659083,0.693288081 35.5360334,0.327596644 36.0534865,0.243897391 C36.2749347,0.207921445 36.5382488,0.288211391 36.7510899,0.384244425 C36.9757742,0.486168657 37.1223823,1.08736108 36.9960437,1.28094265 C36.8141757,1.55961093 36.6389353,1.85160282 36.4093883,2.08780017 C36.0616367,2.44549414 35.579613,2.69654005 35.2272364,3.04974991 C34.6891754,3.58908334 34.2788409,4.22869266 33.7402511,4.76728242 L33.7184526,4.74548388 Z" id="Fill-100" fill="#22B8CF" transform="translate(44.417014, 3.875800) scale(-1, -1) translate(-44.417014, -3.875800) "></path>
        <path d="M69.8056762,6.62419671 C69.5676138,6.85708659 69.2970307,7.05968781 69.0246256,7.25302702 C68.7068821,7.47840386 68.2040102,7.86116189 67.8267294,7.48388114 C67.4494487,7.10660039 68.7122294,6.09157178 69.1680333,5.5422252 C69.8463679,4.724679 70.2567604,3.58779714 71.0957891,2.74001734 C71.7950662,2.03344666 72.5143946,1.13527463 73.2212163,0.436178652 C73.5738599,0.0872297604 73.9952952,-0.213759403 74.4335435,-0.444367481 C74.7172906,-0.593628685 75.085678,-0.559297453 75.3598628,-0.297016649 C75.635523,-0.0325165115 75.6539697,0.319242401 75.5339191,0.62550414 C75.4157413,0.926198544 75.2034554,1.21016097 74.9757634,1.44598125 C74.4773632,1.96032731 74.0964329,2.32707107 73.5889046,2.83284003 C73.2925292,3.12818812 72.8706234,3.56358212 72.5743156,3.85896498 C72.4845211,3.94847915 72.3947836,4.03804503 72.3051357,4.12769297 C71.4282928,4.73113052 70.6474494,5.80089684 69.8056762,6.62419671 Z M79.180852,5.01312298 C78.4093235,5.78465148 77.6462928,6.56467771 76.8618329,7.32327487 C76.5631472,7.61309346 76.2252928,7.86523151 75.8863554,8.1088465 C75.5459301,8.35394949 75.0429195,8.33379523 74.7193296,8.10022939 C74.3661545,7.84526234 74.3437058,7.14577318 74.7283895,6.7507444 C75.3010752,6.16314411 76.097177,5.39303384 76.6718555,4.80727833 C77.9193911,3.53569631 78.9489444,2.45163533 80.203793,1.18666885 C80.5609234,0.826582758 80.9868252,0.520388124 81.5085321,0.493766622 C81.7258173,0.482643752 82.0179118,0.602874103 82.1534123,0.765902649 C82.2881765,0.927450796 82.357534,1.24381648 82.2960446,1.44570323 C82.2038079,1.74927483 82.015922,2.05317326 81.7938049,2.28489647 C80.9224537,3.19319437 80.0211731,4.07230695 79.1306046,4.96287552 L79.180852,5.01312298 Z M88.0721018,2.99492845 C86.4067855,4.6602448 87.4167774,4.48329243 85.4765357,6.42353414 C83.5362939,8.36377585 83.1402946,7.33411115 82.8360964,7.17573706 C82.5959173,7.05162203 82.4882471,6.55558363 82.5718619,6.27984617 C82.7747077,5.61221135 83.2283178,5.11722092 83.7085068,4.65550528 C84.7324866,3.67142784 85.7863933,2.71727719 86.8233045,1.74613108 C87.4336226,1.17497644 87.652369,1.43262062 88.4698298,0.941651682 C89.2872905,0.450682743 90.1894881,-0.283100455 90.4676682,0.113143901 C90.5850784,0.280384885 89.9503412,1.11373338 89.6779762,1.40383276 C88.7630249,2.3778987 87.798555,3.30542197 86.8533024,4.25067458 L88.0721018,2.99492845 Z M64.7184526,4.74548388 C63.8862881,5.57764842 63.0604019,6.41683535 62.2171534,7.23791589 C61.9798375,7.4693203 61.6981806,7.65787165 61.4254111,7.84935847 C61.2028135,8.00471312 60.6867479,7.89933578 60.5169503,7.68341016 C60.2781258,7.37985759 60.3207804,7.04828 60.5041694,6.75848465 C60.7274434,6.40515833 60.9873656,6.06764814 61.2720218,5.76082395 C62.0698057,4.90023075 62.885701,4.05551701 63.7004854,3.21043635 C64.398816,2.48698202 65.1037995,1.76943663 65.8095194,1.05337164 C66.1659083,0.693288081 66.5360334,0.327596644 67.0534865,0.243897391 C67.2749347,0.207921445 67.5382488,0.288211391 67.7510899,0.384244425 C67.9757742,0.486168657 68.1223823,1.08736108 67.9960437,1.28094265 C67.8141757,1.55961093 67.6389353,1.85160282 67.4093883,2.08780017 C67.0616367,2.44549414 66.579613,2.69654005 66.2272364,3.04974991 C65.6891754,3.58908334 65.2788409,4.22869266 64.7402511,4.76728242 L64.7184526,4.74548388 Z" id="Fill-100" fill="#22B8CF"></path>
        <path d="M98.8056762,6.62419671 C98.5676138,6.85708659 98.2970307,7.05968781 98.0246256,7.25302702 C97.7068821,7.47840386 97.2040102,7.86116189 96.8267294,7.48388114 C96.4494487,7.10660039 97.7122294,6.09157178 98.1680333,5.5422252 C98.8463679,4.724679 99.2567604,3.58779714 100.095789,2.74001734 C100.795066,2.03344666 101.514395,1.13527463 102.221216,0.436178652 C102.57386,0.0872297604 102.995295,-0.213759403 103.433544,-0.444367481 C103.717291,-0.593628685 104.085678,-0.559297453 104.359863,-0.297016649 C104.635523,-0.0325165115 104.65397,0.319242401 104.533919,0.62550414 C104.415741,0.926198544 104.203455,1.21016097 103.975763,1.44598125 C103.477363,1.96032731 103.096433,2.32707107 102.588905,2.83284003 C102.292529,3.12818812 101.870623,3.56358212 101.574316,3.85896498 C101.484521,3.94847915 101.394784,4.03804503 101.305136,4.12769297 C100.428293,4.73113052 99.6474494,5.80089684 98.8056762,6.62419671 Z M108.180852,5.01312298 C107.409324,5.78465148 106.646293,6.56467771 105.861833,7.32327487 C105.563147,7.61309346 105.225293,7.86523151 104.886355,8.1088465 C104.54593,8.35394949 104.042919,8.33379523 103.71933,8.10022939 C103.366154,7.84526234 103.343706,7.14577318 103.728389,6.7507444 C104.301075,6.16314411 105.097177,5.39303384 105.671856,4.80727833 C106.919391,3.53569631 107.948944,2.45163533 109.203793,1.18666885 C109.560923,0.826582758 109.986825,0.520388124 110.508532,0.493766622 C110.725817,0.482643752 111.017912,0.602874103 111.153412,0.765902649 C111.288176,0.927450796 111.357534,1.24381648 111.296045,1.44570323 C111.203808,1.74927483 111.015922,2.05317326 110.793805,2.28489647 C109.922454,3.19319437 109.021173,4.07230695 108.130605,4.96287552 L108.180852,5.01312298 Z M117.072102,2.99492845 C115.406785,4.6602448 116.416777,4.48329243 114.476536,6.42353414 C112.536294,8.36377585 112.140295,7.33411115 111.836096,7.17573706 C111.595917,7.05162203 111.488247,6.55558363 111.571862,6.27984617 C111.774708,5.61221135 112.228318,5.11722092 112.708507,4.65550528 C113.732487,3.67142784 114.786393,2.71727719 115.823304,1.74613108 C116.433623,1.17497644 116.652369,1.43262062 117.46983,0.941651682 C118.287291,0.450682743 119.189488,-0.283100455 119.467668,0.113143901 C119.585078,0.280384885 118.950341,1.11373338 118.677976,1.40383276 C117.763025,2.3778987 116.798555,3.30542197 115.853302,4.25067458 L117.072102,2.99492845 Z M93.7184526,4.74548388 C92.8862881,5.57764842 92.0604019,6.41683535 91.2171534,7.23791589 C90.9798375,7.4693203 90.6981806,7.65787165 90.4254111,7.84935847 C90.2028135,8.00471312 89.6867479,7.89933578 89.5169503,7.68341016 C89.2781258,7.37985759 89.3207804,7.04828 89.5041694,6.75848465 C89.7274434,6.40515833 89.9873656,6.06764814 90.2720218,5.76082395 C91.0698057,4.90023075 91.885701,4.05551701 92.7004854,3.21043635 C93.398816,2.48698202 94.1037995,1.76943663 94.8095194,1.05337164 C95.1659083,0.693288081 95.5360334,0.327596644 96.0534865,0.243897391 C96.2749347,0.207921445 96.5382488,0.288211391 96.7510899,0.384244425 C96.9757742,0.486168657 97.1223823,1.08736108 96.9960437,1.28094265 C96.8141757,1.55961093 96.6389353,1.85160282 96.4093883,2.08780017 C96.0616367,2.44549414 95.579613,2.69654005 95.2272364,3.04974991 C94.6891754,3.58908334 94.2788409,4.22869266 93.7402511,4.76728242 L93.7184526,4.74548388 Z" id="Fill-100" fill="#22B8CF" transform="translate(104.417014, 3.875800) scale(-1, -1) translate(-104.417014, -3.875800) "></path>
    </g>
</svg>