<?xml version="1.0" encoding="UTF-8"?>
<svg width="138px" height="6px" viewBox="0 0 138 6" version="1.1" xmlns="http://www.w3.org/2000/svg" xmlns:xlink="http://www.w3.org/1999/xlink">
    <!-- Generator: Sketch 51.3 (57544) - http://www.bohemiancoding.com/sketch -->
    <title>hr</title>
    <desc>Created with Sketch.</desc>
    <defs></defs>
    <g id="hr" stroke="none" stroke-width="1" fill="none" fill-rule="evenodd">
        <path d="M10.0329109,5.88657742 C7.69522452,5.88657742 5.35649309,5.90538759 3.01880668,5.87403731 C2.36045065,5.86567723 1.7000046,5.73400603 1.04791863,5.61905497 C0.517053765,5.5239591 -0.0597915188,4.64510605 0.00499907466,4.09961105 C0.0959149074,3.33257403 0.621554722,2.92397529 1.28618081,2.77349391 C2.09606323,2.58957222 2.93520591,2.47984622 3.76598852,2.44849593 C6.09531486,2.35967012 8.42777623,2.31891474 10.7591926,2.27606935 C12.7562059,2.24053903 14.7542642,2.22277386 16.7512775,2.20814373 C17.7576217,2.20291868 18.7911362,2.20918874 19.6355039,2.82260936 C19.9970772,3.08490676 20.2541496,3.57083621 20.4182161,4.00765021 C20.5906426,4.46954444 19.9521418,5.52709413 19.5027877,5.62219 C18.8559267,5.75908625 18.1996607,5.92419777 17.5454847,5.93360285 C16.5546286,5.94766342 15.5249724,5.62101159 14.5339185,5.62219 C13.0206297,5.62398937 11.5458977,5.94823299 10.0329109,5.94823299 L10.0329109,5.88657742 Z M30.9870899,5.92276692 C30.3255988,5.91545185 29.6609728,5.81931097 29.0067968,5.70749495 C28.2439398,5.57686875 27,5.40700203 27,4.33989092 C27,3.27277982 30.1993696,3.62315421 31.6111858,3.49086495 C33.7122729,3.29398999 35.8855464,2.26657895 38.2548069,2.25420292 C40.2294353,2.24388829 42.501347,1.99096517 44.4760735,2.00189101 C45.4615175,2.00711605 46.4762218,2.17745261 47.4156854,2.4711003 C48.023881,2.66129205 48.4930903,3.23082226 48.5098104,3.98949921 C48.5254855,4.75340121 48.0573213,5.27695101 47.4585308,5.54029342 C46.8701904,5.79841078 46.173169,5.89977671 45.522128,5.91127182 C44.0996431,5.93382268 43.0494736,5.91375982 41.6262147,5.91127182 C40.7950905,5.90981892 39.5909428,5.92889412 38.7598649,5.92758609 C38.5080112,5.9271897 38.2561649,5.92694696 38.0043292,5.92694696 C35.9251541,5.54029342 33.3258213,5.94889216 30.9870899,5.92276692 Z M65.6160234,5.9937954 C63.4486735,5.9937954 61.2813237,6.01783062 59.1139738,5.98125529 C58.2873713,5.96871517 57.4586787,5.84749406 56.6404362,5.71268783 C55.8180136,5.5778816 55.1398024,4.83801482 55.0133563,4.0500776 C54.875415,3.19003472 55.8263737,2.16906037 56.9215438,2.15443024 C58.5512604,2.13333785 60.7511336,2.17009549 62.3810581,2.15443024 C65.919365,2.12042347 68.8881092,2.04333791 72.4273958,2.02902909 C73.434785,2.02484905 74.4630744,2.1941406 75.2332465,2.89429701 C75.5540644,3.18585468 75.7954616,3.76897003 75.7567963,4.19115389 C75.7191759,4.61020273 75.3722328,5.15569773 75.0022994,5.35424955 C74.4463543,5.65312228 73.755603,5.81718879 73.1181471,5.83077391 C70.6184842,5.88302439 68.1177763,5.8516741 65.6160234,5.8516741 L65.6160234,5.9937954 Z M96.2560779,3.8290651 C91.5779317,3.8290651 93.2450921,5.00716087 87.7946354,5.00716087 C82.3441788,5.00716087 83.2342137,2.99096743 83.0293918,2.33679144 C82.8663703,1.82160172 83.4118653,0.967828897 83.9166049,0.696126408 C85.1392661,0.038815387 86.4716533,-0.0197051491 87.7946354,0.00642009023 C90.6151163,0.0628506071 93.4355971,0.203926899 96.2560779,0.296932751 C97.9155531,0.352318259 97.860918,1.02603626 99.6987147,1.48776546 C101.536511,1.94949466 103.83438,2.18766857 103.668549,3.14144881 C103.598558,3.54400633 101.536511,3.82488507 100.746484,3.8499653 C98.0932048,3.93356606 95.4357454,3.88131558 92.7803761,3.88131558 L96.2560779,3.8290651 Z M113.98709,4.92276692 C113.325599,4.91545185 112.660973,4.81931097 112.006797,4.70749495 C111.24394,4.57686875 110,4.40700203 110,3.33989092 C110,2.27277982 113.19937,2.62315421 114.611186,2.49086495 C116.712273,2.29398999 118.885546,1.26657895 121.254807,1.25420292 C123.229435,1.24388829 125.501347,0.990965168 127.476073,1.00189101 C128.461517,1.00711605 129.476222,1.17745261 130.415685,1.4711003 C131.023881,1.66129205 131.49309,2.23082226 131.50981,2.98949921 C131.525486,3.75340121 131.057321,4.27695101 130.458531,4.54029342 C129.87019,4.79841078 129.173169,4.89977671 128.522128,4.91127182 C127.099643,4.93382268 126.049474,4.91375982 124.626215,4.91127182 C123.795091,4.90981892 122.590943,4.92889412 121.759865,4.92758609 C121.508011,4.9271897 121.256165,4.92694696 121.004329,4.92694696 C118.925154,4.54029342 116.325821,4.94889216 113.98709,4.92276692 Z" id="Fill-100" fill="#495057"></path>
    </g>
</svg>