<svg height="20" viewBox="0 0 20 20" width="20" xmlns="http://www.w3.org/2000/svg"><path d="m10.4994168 1c-5.24570287 0-9.4994168 4.13137845-9.4994168 9.2286146 0 4.0764294 2.72170043 7.5348231 6.49720688 8.7555993.47529159.0844063.64849601-.2005359.64849601-.4452576 0-.2186634-.00816452-.799311-.01282996-1.5691647-2.64238797.5574217-3.19990792-1.2372043-3.19990792-1.2372043-.43213628-1.0661256-1.05497238-1.3493683-1.05497238-1.3493683-.86252302-.5727168.06531615-.5613871.06531615-.5613871.95349908.0657123 1.45503376.9511291 1.45503376.9511291.84736035 1.4099823 2.22308165 1.0026792 2.76485574.7670213.08631062-.5965092.33124616-1.0032458.60300798-1.2338054-2.10936157-.2328255-4.3271946-1.0247722-4.3271946-4.56077439 0-1.00721114.37031922-1.830881.97799264-2.47610794-.09797422-.23339201-.42397176-1.17149193.0927256-2.44211881 0 0 .79779005-.24812063 2.61264579.94603072.75755065-.20506774 1.57050338-.30703512 2.37820751-.31100052.8065377.0039654 1.6194905.10593278 2.3782075.31100052 1.8136893-1.19415135 2.6097299-.94603072 2.6097299-.94603072.5184469 1.27062688.1924493 2.2087268.0944751 2.44211881.6088398.64522694.9768263 1.4688968.9768263 2.47610794 0 3.54506599-2.2213321 4.32511649-4.3376919 4.55341009.3411603.2849422.644997.8480288.644997 1.7090867 0 1.2332388-.0116636 2.2285538-.0116636 2.531057 0 .2469876.1708717.5341958.6531614.4441246 3.7714242-1.2230421 6.4913751-4.6791699 6.4913751-8.7544663 0-5.09723615-4.2537139-9.2286146-9.5005832-9.2286146" fill="#fff" fill-rule="evenodd"/></svg>