<svg width="19" height="18" xmlns="http://www.w3.org/2000/svg"><path d="M9.5 0C4.253 0 0 4.131 0 9.229c0 4.076 2.722 7.534 6.497 8.755.475.085.649-.2.649-.445 0-.219-.008-.8-.013-1.57-2.643.558-3.2-1.236-3.2-1.236-.432-1.067-1.055-1.35-1.055-1.35-.863-.572.065-.561.065-.561.954.066 1.455.951 1.455.951.848 1.41 2.223 1.003 2.765.767.087-.597.331-1.003.603-1.234-2.11-.233-4.327-1.025-4.327-4.56 0-1.008.37-1.831.978-2.477-.098-.233-.424-1.171.093-2.442 0 0 .798-.248 2.612.946a9.35 9.35 0 0 1 2.379-.31c.806.003 1.62.105 2.378.31 1.813-1.194 2.61-.946 2.61-.946.518 1.27.192 2.209.094 2.442.609.646.977 1.47.977 2.476 0 3.545-2.222 4.326-4.338 4.554.341.285.645.848.645 1.709 0 1.233-.012 2.228-.012 2.531 0 .247.171.534.654.444C16.28 16.76 19 13.303 19 9.23 19 4.13 14.746 0 9.5 0" fill="#FFF" fill-rule="evenodd"/></svg>