<svg height="48" viewBox="0 0 48 48" width="48" xmlns="http://www.w3.org/2000/svg"><path d="m45.2310852 8.09177273c-.003-.003-.0049772-.00702273-.0070227-.01002273-.4611818-.64759091-.9784091-1.26702273-1.5587045-1.84745455-2.73075-2.73061363-6.3604773-4.23429545-10.2218864-4.23429545-3.5286136 0-6.8646818 1.25604545-9.4970455 3.55568182-2.6323636-2.29963637-5.9674772-3.55568182-9.4960909-3.55568182-3.8613409 0-7.49215906 1.50368182-10.22284088 4.23429545-5.63665909 5.63665905-5.63665909 14.80840905 0 20.44486365l18.99313638 18.9930682c.2004545.2004545.4630909.3006818.7257954.3006818.2626364 0 .5252046-.1002273.7257273-.3006818l18.9932046-18.9930682c5.0532954-5.0530227 5.5725-12.9456818 1.5657272-18.58738637zm-30.7806818-4.03881818c3.3130909 0 6.4276364 1.29013636 8.7702955 3.63286363.1924772.19247727.4540909.30075.7257954.30075.2726591 0 .53325-.10827273.7257273-.30075 2.3427273-2.34265909 5.4572727-3.63286363 8.7713182-3.63286363 3.3130909 0 6.4275682 1.29013636 8.7702954 3.63286363.2826818.28268182.5442955.57743182.7939773.87811364l-11.8508182 11.85129548c-.0010227.0010227-.0010227.0010227-.0019773.0020454l-.0010227.0019773-7.2075 7.2062045-7.2065454-7.20525s-.0010228-.0020454-.0019773-.003c-.0010227-.0010227-.0020455-.0020454-.003-.0020454l-11.84979546-11.85027274c.24961363-.30170454.51225-.59645454.79397727-.87913636 2.34265909-2.34265909 5.45822729-3.63279545 8.77124999-3.63279545zm-10.74613635 6.23413635 10.85638635 10.8558409-6.48272726 6.4825227-2.39884091-2.3978181c-4.04379546-4.0435909-4.69240909-10.2020455-1.97481818-14.9405455zm20.24222725 33.2078864-14.41704544-14.418 6.48272724-6.4825228 7.2085228 7.20825c.1924772.1924091.4540909.30075.7257954.30075.2726591 0 .53325-.1083409.7257273-.30075l7.2085909-7.20825 6.4838182 6.4825228zm18.2673409-18.2673409-2.3978182 2.3978181-6.48375-6.4825227 10.8563182-10.8558409c2.7185455 4.7385 2.0690455 10.8969546-1.97475 14.9405455z" fill="#e03131"/></svg>