<svg xmlns="http://www.w3.org/2000/svg" width="48" height="48" viewBox="0 0 48 48">
  <g fill="none" transform="translate(4)">
    <polygon fill="#BCBBBB" points="33.205 43.2 33.205 30.4 37.948 30.4 37.948 48 0 48 0 30.4 4.744 30.4 4.744 43.2"/>
    <path fill="#F48024" d="M8.54167279,30.5617188 L29.9840625,33.6976563 L30.2430882,29.8886719 L9.28362132,25.8144531 L8.54167279,30.5617188 Z M11.3844706,19.68 L30.3585882,28.64 L32.0978824,24.8 L13.1237647,15.84 L11.3844706,19.68 L11.3844706,19.68 Z M16.7604706,10.24 L32.8884706,23.84 L35.5764706,20.64 L19.4484706,7.04 L16.7604706,10.24 L16.7604706,10.24 Z M27.0381176,0.32 L23.7176471,2.88 L36.2089412,19.84 L39.5294118,17.28 L27.0381176,0.32 L27.0381176,0.32 Z M7.90588235,40 L30.0423529,40 L30.0423529,35.2 L7.90588235,35.2 L7.90588235,40 Z"/>
  </g>
</svg>
