<svg height="20" viewBox="0 0 20 20" width="20" xmlns="http://www.w3.org/2000/svg"><path d="m7.34013605 17c6.41496595 0 9.92517005-5.3877953 9.92517005-10.05216535 0-.15157481 0-.30314961-.0068027-.45472441.6802721-.496063 1.2721088-1.1230315 1.7414966-1.83267717-.6258503.28248032-1.2993197.46850394-2.0068027.55807087.7210884-.43405512 1.2721088-1.12992126 1.5374149-1.95669292-.6734693.40649607-1.4217687.69586615-2.217687.85433071-.6394558-.68897638-1.5442177-1.11614173-2.5442177-1.11614173-1.9251701 0-3.4897959 1.58464567-3.4897959 3.53444882 0 .27559055.0340136.54429134.0884353.80610236-2.89795914-.14468504-5.46938772-1.55708661-7.19047615-3.69291338-.29931973.52362204-.46938776 1.12992126-.46938776 1.77755905 0 1.22637795.61904762 2.30807087 1.55102041 2.94192913-.57142857-.02066929-1.10884354-.17913385-1.57823129-.44094488v.04822835c0 1.70866142 1.20408163 3.14173225 2.79591837 3.46555115-.29251701.0826772-.59863946.1240158-.91836735.1240158-.2244898 0-.44217687-.0206693-.65306123-.0620079.44217688 1.4055118 1.73469388 2.4251969 3.25850341 2.4527559-1.19727892.9507874-2.70068028 1.515748-4.33333334 1.515748-.27891156 0-.55782313-.0137795-.82993197-.0482283 1.53741497.992126 3.37414966 1.5777559 5.34013605 1.5777559" fill="#1da1f2"/></svg>