<svg height="48" viewBox="0 0 48 48" width="48" xmlns="http://www.w3.org/2000/svg"><g fill="none" transform="translate(0 6)"><rect height="34.923" rx="4" stroke="#0b68b0" stroke-width="2" width="46" x="1" y="1"/><g fill="#0b68b0"><path d="m25.8959029 0h18.1040971c2.209139 0 4 1.790861 4 4v28.9230769c0 2.209139-1.790861 4-4 4-6.034699 0-12.0693981 0-18.1040971 0-.0663321 0-.0663321-1.8461538 0-1.8461538 9.2819817 0 14.7194817-9.2028245 14.7194817-14.7692308 0-1.8461538 0 1.8379121 0-3.6923077s-5.5392345-14.76923075-14.7194817-14.76923075c0-1.3491211 0-.97761419 0-1.84615385z"/><circle cx="23.5" cy="18.5" r="6.5"/><path d="m23.6153846 27.6666667c0-5.4673259 0-13.9231059 0-18.33333337-5.0980131 0-9.2307692 4.10405647-9.2307692 9.16666667s4.1327561 9.1666667 9.2307692 9.1666667zm0 7.3333333c-9.1764235 0-16.6153846-7.3873016-16.6153846-16.5 0-9.11269837 7.4389611-16.5 16.6153846-16.5z"/></g></g></svg>