<svg xmlns="http://www.w3.org/2000/svg" width="48" height="48" viewBox="0 0 48 48">
  <g fill="none" transform="translate(0 6)">
    <rect width="46" height="34.923" x="1" y="1" stroke="#0B68B0" stroke-width="2" rx="4"/>
    <path fill="#0B68B0" d="M25.8959029,0 C31.9306019,0 37.965301,0 44,0 C46.209139,1.55629733e-15 48,1.790861 48,4 L48,32.9230769 C48,35.1322159 46.209139,36.9230769 44,36.9230769 C37.965301,36.9230769 31.9306019,36.9230769 25.8959029,36.9230769 C25.8295708,36.9230769 25.8295708,35.0769231 25.8959029,35.0769231 C35.1778846,35.0769231 40.6153846,25.8740986 40.6153846,20.3076923 C40.6153846,18.4615385 40.6153846,22.1456044 40.6153846,16.6153846 C40.6153846,11.0851648 35.0761501,1.84615385 25.8959029,1.84615385 C25.8959029,0.497032752 25.8959029,0.868539663 25.8959029,0 Z"/>
    <circle cx="23.5" cy="18.5" r="6.5" fill="#0B68B0"/>
    <path fill="#0B68B0" d="M23.6153846,27.6666667 C23.6153846,22.1993408 23.6153846,13.7435608 23.6153846,9.33333333 C18.5173715,9.33333333 14.3846154,13.4373898 14.3846154,18.5 C14.3846154,23.5626102 18.5173715,27.6666667 23.6153846,27.6666667 Z M23.6153846,35 C14.4389611,35 7,27.6126984 7,18.5 C7,9.38730163 14.4389611,2 23.6153846,2 C23.6153846,9.87894694 23.6153846,27.6666667 23.6153846,35 Z"/>
  </g>
</svg>
