<svg height="20" viewBox="0 0 20 20" width="20" xmlns="http://www.w3.org/2000/svg"><path d="m1.00290487 10.5660036c2.24763979 0 4.36056644.8745027 5.94843863 2.4650995 1.59077705 1.5905967 2.46659405 3.7092224 2.46659405 5.9645569h3.46368915c0-6.5508137-5.32897601-11.87992763-11.87872183-11.87992763zm.00544662-6.11609402c8.01053014 0 14.52795931 6.52694392 14.52795931 14.55009042h3.4636892c0-9.92585895-8.0715323-18-17.99164851-18zm4.78976035 12.13996382c0 1.319349-1.07443718 2.3895118-2.39905592 2.3895118s-2.39905592-1.0698011-2.39905592-2.3895118c0-1.3200723 1.07407407-2.3895117 2.39869281-2.3895117s2.39941903 1.0694394 2.39941903 2.3895117z" fill="#fd7e14"/></svg>