<svg width="18" height="18" xmlns="http://www.w3.org/2000/svg"><path d="M17.818 7.188a8.992 8.992 0 0 0-1.355-3.22 9.055 9.055 0 0 0-3.959-3.26 9.035 9.035 0 0 0-7.008 0 9.021 9.021 0 0 0-5.313 6.48 9.047 9.047 0 0 0 .525 5.316 8.989 8.989 0 0 0 1.928 2.86 8.992 8.992 0 0 0 12.728 0A8.964 8.964 0 0 0 18 9c0-.61-.06-1.22-.182-1.811zm-1.134 1.735c-.111-.024-2.712-.584-5.353-.252a23.013 23.013 0 0 0-.677-1.512c3.036-1.238 4.268-3.02 4.282-3.041a7.647 7.647 0 0 1 1.748 4.805zm-2.607-5.692c-.02.03-1.114 1.696-4.015 2.784A39.044 39.044 0 0 0 7.19 1.53a7.675 7.675 0 0 1 6.888 1.7zM7.159 1.537l-.001.002-.023.005.024-.007zm-1.438.511a46.206 46.206 0 0 1 2.854 4.429c-3.69.98-6.894.942-7.097.938a7.698 7.698 0 0 1 4.243-5.367zM1.314 9c0-.081.004-.162.007-.242.135.003 3.933.089 7.89-1.096.22.432.432.87.624 1.307a7.255 7.255 0 0 0-.303.092C5.384 10.4 3.28 14.133 3.28 14.133l.003.003A7.66 7.66 0 0 1 1.314 9zM9 16.686a7.654 7.654 0 0 1-4.896-1.761c.101.082.173.134.173.134s1.473-3.213 6.031-4.801c.017-.007.034-.012.052-.017 1.081 2.81 1.528 5.164 1.642 5.836a7.647 7.647 0 0 1-3.002.61zm4.296-1.31c-.079-.465-.488-2.72-1.496-5.491 2.48-.397 4.631.283 4.79.336a7.692 7.692 0 0 1-3.294 5.154z" fill="#EA4C89" fill-rule="nonzero"/></svg>