<svg width="17" height="14" xmlns="http://www.w3.org/2000/svg"><path d="M5.34 14c6.415 0 9.925-5.388 9.925-10.052 0-.152 0-.303-.006-.455A7.158 7.158 0 0 0 17 1.66a7 7 0 0 1-2.007.559A3.547 3.547 0 0 0 16.531.262a6.886 6.886 0 0 1-2.218.854A3.461 3.461 0 0 0 11.769 0c-1.925 0-3.49 1.585-3.49 3.534 0 .276.034.545.088.807C5.47 4.196 2.898 2.783 1.177.648c-.3.523-.47 1.13-.47 1.777 0 1.227.62 2.308 1.552 2.942a3.494 3.494 0 0 1-1.579-.44v.047c0 1.71 1.204 3.142 2.796 3.466a3.36 3.36 0 0 1-.918.124c-.225 0-.442-.02-.653-.062a3.494 3.494 0 0 0 3.258 2.453A6.94 6.94 0 0 1 0 12.422 9.832 9.832 0 0 0 5.34 14" fill="#1DA1F2" fill-rule="nonzero"/></svg>