<svg height="20" viewBox="0 0 20 20" width="20" xmlns="http://www.w3.org/2000/svg"><g fill="none"><path d="m0 0h20v20h-20z" fill="#12100e"/><path d="m4.77272618 6.68879543c.01669308-.16493315-.0462031-.32795122-.16936005-.43895748l-1.2545189-1.51126788v-.22574956h3.89528119l3.01084538 6.60317459 2.6470349-6.60317459h3.7133759v.22574956l-1.0726136 1.02841466c-.0924711.07048683-.1383415.18633693-.1191793.30099941v7.55633946c-.0191622.1146625.0267082.2305125.1191793.3009994l1.0475233 1.0284146v.2257496h-5.2689794v-.2257496l1.0851588-1.0534979c.1066341-.106604.1066341-.1379581.1066341-.3009994v-6.10777977l-3.01711795 7.66294337h-.40771864l-3.51265293-7.66294337v5.13580247c-.02928722.2159236.04242479.4333114.19445043.5894572l1.41133376 1.7119342v.2257495h-4.00191529v-.2257495l1.41133376-1.7119342c.15091876-.1564047.21844919-.3752346.18190524-.5894572z" fill="#fff"/></g></svg>