<svg width="20px" height="20px" viewBox="0 0 20 20" version="1.1" xmlns="http://www.w3.org/2000/svg" xmlns:xlink="http://www.w3.org/1999/xlink">
    <g stroke="none" stroke-width="1" fill="none" fill-rule="evenodd">
        <g id="icon-stack-overflow" transform="translate(3.000000, 1.000000)" fill-rule="nonzero">
            <polygon id="Shape" fill="#BCBBBB" points="11.76 15.3 11.76 10.7666667 13.44 10.7666667 13.44 17 0 17 0 10.7666667 1.68 10.7666667 1.68 15.3"></polygon>
            <path d="M3.02517578,10.8239421 L10.6193555,11.9345866 L10.7110937,10.5855713 L3.28794922,9.14261882 L3.02517578,10.8239421 Z M4.032,6.97 L10.752,10.1433333 L11.368,8.78333333 L4.648,5.61 L4.032,6.97 L4.032,6.97 Z M5.936,3.62666667 L11.648,8.44333333 L12.6,7.31 L6.888,2.49333333 L5.936,3.62666667 L5.936,3.62666667 Z M9.576,0.113333333 L8.4,1.02 L12.824,7.02666667 L14,6.12 L9.576,0.113333333 L9.576,0.113333333 Z M2.8,14.1666667 L10.64,14.1666667 L10.64,12.4666667 L2.8,12.4666667 L2.8,14.1666667 Z" id="Shape" fill="#F48024"></path>
        </g>
    </g>
</svg>