<?xml version="1.0" encoding="UTF-8"?>
<svg width="20px" height="20px" viewBox="0 0 20 20" version="1.1" xmlns="http://www.w3.org/2000/svg" xmlns:xlink="http://www.w3.org/1999/xlink">
    <!-- Generator: Sketch 51.3 (57544) - http://www.bohemiancoding.com/sketch -->
    <title>icon-rss</title>
    <desc>Created with Sketch.</desc>
    <defs></defs>
    <g id="icon-rss" stroke="none" stroke-width="1" fill="none" fill-rule="evenodd">
        <path d="M1.00290487,10.5660036 C3.25054466,10.5660036 5.36347131,11.4405063 6.9513435,13.0311031 C8.54212055,14.6216998 9.41793755,16.7403255 9.41793755,18.99566 L12.8816267,18.99566 C12.8816267,12.4448463 7.55265069,7.11573237 1.00290487,7.11573237 L1.00290487,10.5660036 Z M1.00835149,4.44990958 C9.01888163,4.44990958 15.5363108,10.9768535 15.5363108,19 L19,19 C19,9.07414105 10.9284677,1 1.00835149,1 L1.00835149,4.44990958 Z M5.79811184,16.5898734 C5.79811184,17.9092224 4.72367466,18.9793852 3.39905592,18.9793852 C2.07443718,18.9793852 1,17.9095841 1,16.5898734 C1,15.2698011 2.07407407,14.2003617 3.39869281,14.2003617 C4.72331155,14.2003617 5.79811184,15.2698011 5.79811184,16.5898734 Z" fill="#FD7E14" fill-rule="nonzero"></path>
    </g>
</svg>