<svg height="20" viewBox="0 0 20 20" width="20" xmlns="http://www.w3.org/2000/svg"><path d="m18.8175881 8.18784005c-.1179659-.57814364-.2952789-1.1475496-.5246571-1.69147064-.2253732-.53409114-.5049961-1.04815841-.8297665-1.52873121-.3222217-.47656804-.6917755-.92437451-1.0988308-1.33104104-.4066911-.40739468-.8548888-.77729011-1.3311216-1.09876419-.480602-.32584292-.9954286-.60435671-1.5288239-.83044437-.543954-.22900022-1.1130303-.40666653-1.6915731-.52389717-.5923783-.12159948-1.2025971-.18349143-1.8120877-.18349143-.61021883 0-1.21970945.06189195-1.81281591.18349143-.57817868.11723064-1.14761914.29526102-1.69120904.52389717-.53339532.22608766-1.04822192.50496552-1.52955203.83044437-.47659691.32147408-.92443052.69100544-1.33112169 1.09876419-.40705527.40666653-.77624493.85483707-1.09810258 1.33104104-.32513448.4805728-.60439332.99464007-.8297665 1.52873121-.23047047.54392104-.40705526 1.113327-.52538528 1.69147064-.12124276.59161425-.18277437 1.20179608-.18277437 1.81161384 0 .61091001.06153161 1.22109181.18277437 1.81307011.11833002.5781437.29527891 1.1475496.52502119 1.6911066.22537317.533363.50499611 1.0488865.8297665 1.5294593.32185765.4765681.69104731.9236464 1.09810258 1.3310411.40669117.4066665.85488887.7758338 1.33112169 1.098036.4813301.3251148.99615671.6043567 1.52955203.8297163.54322581.2304565 1.11303036.4059383 1.69120903.5246253.59310647.1223276 1.20259709.1834914 1.81281591.1834914.6094906 0 1.2197094-.0611638 1.8120877-.1834914.5789069-.118687 1.1476191-.2945329 1.6915731-.5246253.5333953-.2253596 1.0482219-.5049656 1.5288239-.8297163.4765969-.3222022.9244305-.6910054 1.3311217-1.098036.4066911-.4073947.776609-.8548371 1.0988307-1.3310411.3251345-.4805728.6043933-.9960963.8297665-1.5294593.2297423-.5431929.4066912-1.1129629.5246571-1.6911066.1216069-.5923424.182776-1.2025242.182776-1.81307011.0003625-.60981776-.060805-1.21999959-.1824119-1.81161384zm-1.1337836 1.73552315c-.1110482-.02402864-2.7121241-.58396877-5.3532501-.25193665-.0538856-.13142938-.1088636-.26395097-.165662-.39683663-.1598365-.37608463-.3320522-.74889262-.5111857-1.11478328 3.0358022-1.23856718 4.2682548-3.02069133 4.2824544-3.04180741 1.0780775 1.30846868 1.7301669 2.98100767 1.7476434 4.80536397zm-2.6069014-5.69187516c-.0192969.02985376-1.1137585 1.69583948-4.0148465 2.78331749-1.31400933-2.4141502-2.75763556-4.33170851-2.87305284-4.48388989.58109142-.14089521 1.18694112-.21698591 1.81135954-.21698591 1.9464378 0 3.7221162.72522805 5.0765398 1.91755831zm-6.91775491-1.69438321c0 .00072814-.00145637.00145628-.00145637.00145628s-.00837412.00218443-.02257373.00509699c.00764594-.00218442.01638416-.00364071.0240301-.00655327zm-1.43852894.51115471c.10230996.13725451 1.52409065 2.06427864 2.85448415 4.4285512-3.69080431.98044134-6.89372485.94221396-7.09688839.93857325.49953472-2.38065573 2.09899248-4.35464493 4.24240424-5.36712445zm-4.4066099 6.95119435c0-.08191581.00364092-.16201128.00655366-.24283489.13544236.00291256 3.93365392.08919723 7.89097389-1.09512348.2202758.43105924.4310853.86903582.6236902 1.30664833-.1015818.02839748-.2027995.05897935-.3029249.09174575-4.14810429 1.3405068-6.25219408 5.0729556-6.25219408 5.0729556s.00291274.0021844.00291274.0036407c-1.22371444-1.361987-1.96901151-3.1623147-1.96901151-5.13703201zm7.68635395 7.68661641c-1.86014791 0-3.56628474-.6611517-4.89595006-1.7613722.10085359.0819158.17221569.134342.17221569.134342s1.4734818-3.2132846 6.03155417-4.8013592c.0171123-.0065533.0342246-.0112862.051337-.0163832 1.0817184 2.8102587 1.5280956 5.1639732 1.6420566 5.8356829-.9226101.3924678-1.9366073.6090897-3.0012134.6090897zm4.2951976-1.3110172c-.0782798-.4641896-.4878837-2.7199693-1.4960555-5.4901802 2.4809254-.3968367 4.631619.2836107 4.7899992.3356728-.3422469 2.1414615-1.5681459 3.9887543-3.2939437 5.1545074z" fill="#ea4c89"/></svg>