<svg height="4" viewBox="0 0 120 4" width="120" xmlns="http://www.w3.org/2000/svg"><path d="m16.6467743 2.9571992c-.3301701-.00365117-.6619051-.05163798-.9884241-.10744874-.3807649-.06519948-1.0016528-.14998509-1.0016528-.68261245s1.596902-.35774493 2.301582-.42377449c1.048716-.09826623 2.1334624-.6110781 3.3160319-.61725535.9855966-.00514834 2.1195763-.1313899 3.1052219-.12593649.4918648.00260798.9983344.0876281 1.467249.23419652.3035688.09493044.5377653.37920017.5461108.75787873.007824.38128655-.2258509.64260605-.5247253.7740482-.2936585.12883417-.6415629.17942896-.9665171.18516652-.7100052.01125582-1.2341765.00124184-1.944568 0-.4148391-.00072519-1.0158656.00879582-1.4306817.00814294-.1257077-.00019785-.2514118-.00031901-.3771106-.00031901-1.0377791-.19299045-2.3351845.01095352-3.502516-.00208638zm18.7199697.03525988c-1.0817897 0-2.1635794.0119967-3.2453692-.00625915-.4125823-.00625915-.8262078-.06676427-1.2346173-.13405013-.4104959-.06728586-.7490116-.4365757-.8121247-.82985895-.0688506-.42927336.4058016-.93887248.952434-.94617482.8134408-.01052785 1.9114639.007819 2.7250084 0 1.7660758-.0169738 3.2478656-.05544953 5.0144304-.0625915.5028184-.00208638 1.0160686.08241214 1.4004848.43188134.1601299.14552524.2806185.43657571.2613195.64730042-.0187775.20915992-.1919473.48143294-.3765922.58053615-.277489.1491764-.6222638.23106695-.9404373.23784769-1.2476572.02607979-2.495836.01043192-3.7445364.01043192zm16.4510801-1.08048224c-2.3350041 0-1.502874.58802316-4.2233614.58802316s-2.2762442-1.006343-2.3784769-1.33286199c-.081369-.25714674.190904-.68329052.4428348-.81890544.6102671-.32808377 1.2753018-.35729314 1.9356421-.34425324 1.4077871.02816617 2.8155742.09858161 4.2233614.14500364.8282941.02764458.8010241.36391757 1.7183239.59438055.9172997.23046298 2.0642355.34934277 1.9814643.82540327-.0349349.20092861-1.0641646.34112367-1.458491.35364197-1.3243318.04172767-2.65075.01564787-3.9761249.01564787zm-46.81009541 1.02696651c-1.16680985 0-2.3341413.00938872-3.50095115-.00625915-.32860537-.00417277-.65825393-.06989384-.98372972-.12726938-.26497068-.04746522-.55289157-.48612731-.52055263-.75840033.04537884-.38285133.30774153-.5867953.63947648-.66190509.40423676-.09180087.8230782-.14656843 1.23774688-.1622163 1.16263708-.04433565 2.32683896-.06467789 3.49051923-.08606331.99676962-.01773426 1.99406083-.02660139 2.99083044-.03390373.50229678-.00260798 1.01815505.00052159 1.43960447.30669834.18047215.13092055.30878471.37346261.39067531.59148966.0860633.23054535-.23263178.75840033-.45691798.80586554-.32286781.06832906-.65042999.1507412-.97694897.15543556-.49456621.00701805-1.00849869-.15602373-1.50316362-.15543556-.75532811.00089812-1.49141136.1627379-2.24658874.1627379zm71.63904561.01825585c-.3301701-.00365117-.6619051-.05163798-.9884241-.10744874-.3807649-.06519948-1.0016528-.14998509-1.0016528-.68261245s1.596902-.35774493 2.301582-.42377449c1.048716-.09826623 2.1334624-.6110781 3.3160319-.61725535.9855966-.00514834 2.1195763-.1313899 3.1052219-.12593649.4918648.00260798.9983344.0876281 1.467249.23419652.3035688.09493044.5377653.37920017.5461108.75787873.007824.38128655-.2258509.64260605-.5247253.7740482-.2936585.12883417-.6415629.17942896-.9665171.18516652-.7100052.01125582-1.2341765.00124184-1.944568 0-.4148391-.00072519-1.0158656.00879582-1.4306817.00814294-.1257077-.00019785-.2514118-.00031901-.3771106-.00031901-1.0377791-.19299045-2.3351845.01095352-3.502516-.00208638zm18.7199697 1.03525988c-1.0817897 0-2.1635794.0119967-3.2453692-.00625915-.4125823-.00625915-.8262078-.06676427-1.2346173-.13405013-.4104959-.06728586-.7490116-.4365757-.8121247-.82985895-.0688506-.42927336 1.4993097-1.43819566 2.046742-1.43819566 2.4318247 0 3.1300142.42942934 4.4449989.49202084 1.7317784.08243032.4335671-.05544953 2.2001319-.0625915.5028184-.00208638 1.0160686.08241214 1.4004844.43188134.16013.14552524.280619.43657571.26132.64730042-.018778.20915992-.191947.48143294-.376592.58053615-.2774893.1491764-.6222641.23106695-.9404376.23784769-1.2476572.02607979-2.495836.01043192-3.7445364.01043192zm14.716252-1.08048224c-1.076573 0-2.153147.00521596-3.229721-.00260798-.328605-.00260797-.663991-.00521595-.98373-.06989384-.345818-.07041543-.551326-.34581802-.653559-.67233701-.081369-.25714674.190904-.68329052.442835-.81890544.610267-.32808377 1.275301-.35729313 1.935642-.34425324 1.407787.02816617 2.815574.09858161 4.223361.14500364.828294.02764458.801024.36391757 1.718324.59438055s2.064235.34934277 1.981464.82540327c-.034935.20092861-1.064164.34112367-1.458491.35364197-1.324331.04172767-2.65075.01564787-3.976125.01564787zm-45.0752673.02696651c-1.1668099 0-2.3341413.00938872-3.5009512-.00625915-.3286053-.00417277-.6582539-.06989384-.9837297-.12726938-.2649707-.04746522-.5528916-.48612731-.5205526-.75840033.0453788-.38285133.3077415-.5867953.6394765-.66190509.4042367-.09180087.8230782-.14656843 1.2377468-.1622163 1.1626371-.04433565 2.326839-.06467789 3.4905193-.08606331.9967696-.01773426 1.9940608-.02660139 2.9908304-.03390373.5022968-.00260798 1.0181551.00052159 1.4396045.30669834.1804721.13092055.3087847.37346261.3906753.59148966.0860633.23054535-.2326318.75840033-.456918.80586554-.3228678.06832906-.65043.1507412-.976949.15543556-.4945662.00701805-1.0084986-.15602373-1.5031636-.15543556-.7553281.00089812-1.4914113.1627379-2.2465887.1627379z" fill="#ced4da" fill-rule="evenodd"/></svg>