<svg height="120" viewBox="0 0 4 120" width="4" xmlns="http://www.w3.org/2000/svg"><g fill="#ced4da" fill-rule="evenodd"><path d="m-8.61308735 29.2191857c-.33017015-.0036512-.66190509-.051638-.98842408-.1074488-.38076495-.0651995-1.00165287-.1499851-1.00165287-.6826124 0-.5326274 1.59690199-.357745 2.30158207-.4237745 1.04871596-.0982663 2.13346239-.6110781 3.31603183-.6172554.9855966-.0051483 2.11957632-.1313899 3.10522191-.1259365.49186486.002608.9983344.0876281 1.46724905.2341966.30356877.0949304.53776529.3792001.54611082.7578787.00782394.3812865-.22585099.642606-.52472539.7740482-.29365845.1288342-.64156286.179429-.96651706.1851665-.71000519.0112558-1.23417648.0012418-1.94456795 0-.41483915-.0007252-1.01586563.0087958-1.43068171.008143-.12570777-.0001979-.25141186-.0003191-.37711068-.0003191-1.03777902-.1929904-2.33518449.0109536-3.50251594-.0020863zm18.71996975.0352598c-1.08178978 0-2.16357951.0119967-3.24536924-.0062591-.4125823-.0062592-.82620778-.0667643-1.23461731-.1340501-.41049591-.0672859-.7490116-.4365757-.8121247-.829859-.06885064-.4292733.40580155-.9388725.95243397-.9461748.81344079-.0105279 1.91146387.007819 2.72500841 0 1.76607577-.0169738 3.24786567-.0554495 5.01443037-.0625915.5028184-.0020864 1.0160687.0824121 1.4004848.4318813.1601299.1455253.2806185.4365757.2613195.6473004-.0187774.20916-.1919473.481433-.3765922.5805362-.277489.1491764-.6222638.2310669-.9404372.2378477-1.2476572.0260798-2.495836.0104319-3.7445364.0104319zm16.45108-1.0804822c-2.335004 0-1.502874.5880232-4.2233614.5880232s-2.2762441-1.006343-2.3784769-1.332862c-.081369-.2571468.1909041-.6832906.4428348-.8189055.6102671-.3280837 1.2753018-.3572931 1.9356421-.3442532 1.4077872.0281662 2.8155743.0985816 4.2233614.1450036.8282942.0276446.8010241.3639176 1.7183239.5943806s2.0642355.3493427 1.9814643.8254033c-.0349348.2009286-1.0641645.3411236-1.458491.3536419-1.3243318.0417277-2.6507499.0156479-3.9761249.0156479zm-46.8100954 1.0269665c-1.1668098 0-2.3341413.0093887-3.5009511-.0062591-.3286054-.0041728-.658254-.0698939-.9837297-.1272694-.2649707-.0474652-.5528916-.4861273-.5205527-.7584003.0453789-.3828514.3077416-.5867953.6394765-.6619051.4042368-.0918009.8230782-.1465685 1.2377469-.1622163 1.1626371-.0443357 2.3268389-.0646779 3.4905192-.0860634.9967696-.0177342 1.9940608-.0266013 2.9908305-.0339037.5022967-.002608 1.018155.0005216 1.4396044.3066984.1804722.1309205.3087847.3734626.3906753.5914896.0860633.2305454-.2326317.7584003-.4569179.8058656-.3228679.068329-.65043.1507412-.976949.1554355-.4945662.0070181-1.0084987-.1560237-1.5031636-.1554355-.7553281.0008981-1.4914114.1627379-2.2465888.1627379z" transform="matrix(0 1 -1 0 30.261 25.259)"/><path d="m-9.61231382 88.2199592c-.33017016-.0036512-.66190508-.051638-.98842408-.1074488-.380765-.0651994-1.0016528-.149985-1.0016528-.6826124s1.5969019-.3577449 2.301582-.4237745c1.04871595-.0982662 2.13346238-.6110781 3.31603182-.6172553.98559661-.0051484 2.11957632-.13139 3.10522192-.1259365.49186486.0026079.9983344.0876281 1.46724904.2341965.30356877.0949304.53776529.3792002.54611083.7578787.00782393.3812866-.22585099.6426061-.5247254.7740482-.29365845.1288342-.64156286.179429-.96651706.1851665-.71000519.0112558-1.23417648.0012419-1.94456794 0-.41483915-.0007252-1.01586563.0087959-1.43068172.008143-.12570776-.0001979-.25141185-.000319-.37711067-.000319-1.03777903-.1929905-2.33518449.0109535-3.50251594-.0020864zm18.7199697 1.0352599c-1.08178973 0-2.16357947.0119967-3.2453692-.0062592-.41258229-.0062591-.82620778-.0667643-1.23461731-.1340501-.41049591-.0672859-.7490116-.4365757-.81212469-.829859-.06885065-.4292733 1.49930966-1.4381956 2.046742-1.4381956 2.43182466 0 3.13001419.4294293 4.44499882.4920208 1.7317784.0824303.4335672-.0554495 2.2001319-.0625915.5028184-.0020864 1.0160687.0824122 1.4004848.4318814.1601299.1455252.2806186.4365757.2613195.6473004-.0187774.2091599-.1919472.4814329-.3765922.5805361-.2774889.1491764-.6222638.231067-.9404372.2378477-1.2476572.0260798-2.495836.0104319-3.74453642.0104319zm14.71625232-1.0804823c-1.0765738 0-2.1531475.005216-3.2297213-.002608-.3286054-.0026079-.6639915-.0052159-.9837297-.0698938-.3458181-.0704154-.5513268-.345818-.6535596-.672337-.0813689-.2571467.1909041-.6832905.4428349-.8189054.6102671-.3280838 1.2753017-.3572932 1.9356421-.3442533 1.4077871.0281662 2.8155742.0985816 4.2233613.1450037.8282942.0276445.8010241.3639175 1.7183239.5943805s2.0642355.3493428 1.9814643.8254033c-.0349348.2009286-1.0641645.3411236-1.4584909.3536419-1.3243318.0417277-2.65075.0156479-3.976125.0156479zm-45.0752677.0269665c-1.1668098 0-2.3341413.0093888-3.5009511-.0062591-.3286054-.0041728-.6582539-.0698939-.9837297-.1272694-.2649707-.0474652-.5528916-.4861273-.5205527-.7584003.0453789-.3828514.3077416-.5867953.6394765-.6619051.4042368-.0918009.8230782-.1465684 1.2377469-.1622163 1.1626371-.0443357 2.326839-.0646779 3.4905192-.0860633.9967697-.0177343 1.9940609-.0266014 2.9908305-.0339038.5022968-.0026079 1.018155.0005216 1.4396044.3066984.1804722.1309205.3087848.3734626.3906753.5914896.0860633.2305454-.2326317.7584004-.4569179.8058656-.3228678.068329-.65043.1507412-.976949.1554355-.4945662.0070181-1.0084987-.1560237-1.5031636-.1554355-.7553281.0008981-1.4914114.1627379-2.2465888.1627379z" transform="matrix(0 1 -1 0 89.262 86.258)"/></g></svg>