<svg version="1.1" id="Layer_1" xmlns="http://www.w3.org/2000/svg" xmlns:xlink="http://www.w3.org/1999/xlink" x="0px" y="0px"
	 width="114px" height="20px" viewBox="0 0 114 20" enable-background="new 0 0 114 20" xml:space="preserve">
<g enable-background="new    ">
	<path fill="#FFFFFF" d="M11.332,4.763v14.198H6.554V4.763H0.832V0.983h16.223v3.779H11.332z"/>
</g>
<g enable-background="new    ">
	<path fill="#FFFFFF" d="M20.892,12.834v1.35c0,1.322,0.944,2.348,2.753,2.348c1.404,0,2.375-0.863,2.834-2.105l2.861,0.892
		c-0.945,2.563-2.997,3.859-5.993,3.859c-3.779,0-6.397-2.294-6.397-5.561v-2.268c0-3.185,2.483-5.614,6.343-5.614
		c3.86,0,6.1,2.402,6.1,5.588v1.512H20.892z M25.696,10.566c0-1.134-0.918-2.133-2.375-2.133c-1.512,0-2.429,0.945-2.429,2.133
		v0.837h4.805V10.566z"/>
	<path fill="#FFFFFF" d="M41.193,18.961l-0.297-1.997c-0.81,1.403-2.402,2.213-4.13,2.213c-3.185,0-5.236-2.187-5.236-5.183v-2.915
		c0-3.077,2.159-5.345,4.885-5.345c1.701,0,2.808,0.567,3.725,1.646V0.983h3.941v17.978H41.193z M40.087,11.079
		c0-1.539-0.891-2.618-2.321-2.618c-1.404,0-2.294,0.944-2.294,2.618v2.808c0,1.646,0.917,2.591,2.294,2.591
		c1.295,0,2.321-0.944,2.321-2.537V11.079z"/>
</g>
<g enable-background="new    ">
	<path fill="#FFFFFF" d="M66.842,18.961l-0.648-2.375c-1.215,1.754-3.32,2.861-5.911,2.861c-5.291,0-8.26-3.401-8.26-7.531V8.109
		c0-4.13,3.536-7.611,8.935-7.611c4.021,0,6.694,1.916,7.99,4.615L65.52,6.896c-0.811-1.512-2.295-2.673-4.319-2.673
		c-2.726,0-4.292,1.646-4.292,3.807v3.94c0,2.105,1.431,3.752,3.969,3.752c2.158,0,3.428-1.296,3.428-3.023v-0.459h-3.158V9.702
		h7.882v9.259H66.842z"/>
	<path fill="#FFFFFF" d="M77.832,19.177c-3.725,0-6.424-2.052-6.424-5.668v-2.052c0-3.617,2.699-5.723,6.424-5.723
		c3.699,0,6.398,2.105,6.398,5.723v2.052C84.23,17.125,81.531,19.177,77.832,19.177z M80.289,11.106
		c0-1.647-0.891-2.646-2.457-2.646c-1.564,0-2.482,0.998-2.482,2.646v2.726c0,1.646,0.918,2.646,2.482,2.646
		c1.566,0,2.457-0.999,2.457-2.646V11.106z"/>
	<path fill="#FFFFFF" d="M98.432,19.177c-1.889,0-2.996-0.675-3.32-2.349c-1.053,1.62-2.699,2.349-4.643,2.349
		c-2.51,0-4.346-1.403-4.346-3.671v-0.108c0-2.86,3.51-4.184,8.232-3.752v-1.134c0-1.269-0.701-2.024-2.051-2.024
		c-1.242,0-2.025,0.702-2.699,1.809l-2.699-1.134c0.971-2.078,2.727-3.428,5.588-3.428c3.832,0,5.775,2.159,5.775,5.048v5.021
		c0,0.621,0.243,0.864,1.135,0.864v2.51H98.432z M94.355,13.373c-2.861-0.378-4.399,0.324-4.399,1.646v0.271
		c0,0.782,0.675,1.403,1.782,1.403c1.35,0,2.617-0.81,2.617-1.997V13.373z"/>
	<path fill="#FFFFFF" d="M110.016,10.08c-0.566-0.998-1.728-1.754-3.104-1.754c-1.296,0-2.052,0.539-2.052,1.188
		c0,2.105,7.828,0.998,7.828,5.561c0,1.916-1.836,4.103-5.938,4.103c-3.157,0-5.128-1.431-6.154-3.239l2.564-1.403
		c0.837,1.296,2.105,2.052,3.617,2.052c1.565,0,2.24-0.486,2.24-1.269c0-2.187-7.801-0.999-7.801-5.48
		c0-2.159,2.078-4.103,5.749-4.103c2.889,0,4.751,1.296,5.695,3.293L110.016,10.08z"/>
</g>
</svg>
