<?xml version="1.0" encoding="utf-8"?>
<!-- Generator: Adobe Illustrator 15.0.2, SVG Export Plug-In . SVG Version: 6.00 Build 0)  -->
<!DOCTYPE svg PUBLIC "-//W3C//DTD SVG 1.1//EN" "http://www.w3.org/Graphics/SVG/1.1/DTD/svg11.dtd">
<svg version="1.1" id="Layer_1" xmlns="http://www.w3.org/2000/svg" xmlns:xlink="http://www.w3.org/1999/xlink" x="0px" y="0px"
	 width="120px" height="40px" viewBox="0 0 120 40" enable-background="new 0 0 120 40" xml:space="preserve">
<g>
	<path fill="#61C191" d="M9.18,6.769v31.374H4.482V6.769H0v-4.59h13.5v4.59H9.18z"/>
	<path fill="#61C191" d="M16.2,38.143V2.179h11.502v4.428h-6.804v10.854h4.752v4.266h-4.752V33.66h6.804v4.482H16.2L16.2,38.143z"/>
	<path fill="#61C191" d="M38.015,38.143h-7.128V2.179h7.128c4.05,0,6.588,2.484,6.588,7.506v21.06
		C44.603,35.82,42.065,38.143,38.015,38.143z M39.851,9.522c0-1.944-0.594-2.862-2.106-2.862h-2.106v27.054h2.106
		c1.512,0,2.106-0.918,2.106-2.86V9.522z"/>
	<path fill="#61C191" d="M65.879,38.143l-0.756-1.998c-0.811,1.674-2.484,2.539-4.428,2.539c-3.564,0-6.21-2.701-6.21-7.233V8.875
		c0-4.05,2.862-7.236,6.966-7.236c4.104,0,6.643,3.132,6.643,7.236v5.778h-4.375v-6.21c0-1.242-0.756-2.214-2.268-2.214
		c-1.404,0-2.214,1.026-2.214,2.268v23.49c0,1.352,0.81,2.377,2.268,2.377c1.513,0,2.269-1.025,2.269-2.378v-7.721h-2.105v-3.891
		h6.75v17.768H65.879L65.879,38.143z"/>
	<path fill="#61C191" d="M78.516,38.684c-4.051,0-6.967-3.022-6.967-7.344V8.982c0-4.266,2.916-7.344,6.967-7.344
		c4.049,0,6.965,3.078,6.965,7.344V31.34C85.48,35.658,82.564,38.684,78.516,38.684z M80.729,8.551c0-1.35-0.812-2.322-2.213-2.322
		c-1.402,0-2.16,0.972-2.16,2.322v23.221c0,1.404,0.756,2.322,2.16,2.322c1.402,0,2.213-0.918,2.213-2.322V8.551z"/>
	<path fill="#61C191" d="M97.521,38.143l-0.647-6.965h-4.157l-0.811,6.965h-4.32l4.807-35.964h5.187l4.81,35.964H97.521z
		 M94.984,11.359l-1.729,15.444h3.134L94.984,11.359z"/>
	<path fill="#61C191" d="M110.914,38.684c-4.268,0-6.857-2.809-6.857-7.344v-3.889h4.319V31.5c0,1.891,0.81,3.025,2.376,3.025
		c1.674,0,2.484-1.08,2.484-2.863c0-3.348-1.297-6.047-3.78-9.719c-2.321-3.295-5.185-8.154-5.185-12.313
		c0-4.536,2.213-7.992,6.912-7.992c3.889,0,6.426,2.808,6.426,7.344v4.104h-4.267V8.821c0-1.782-0.758-2.862-2.159-2.862
		c-1.353,0-2.322,0.918-2.322,2.592c0,3.996,1.351,5.887,4.051,9.99c2.754,4.051,4.914,8.1,4.914,12.258
		C117.827,36.469,114.371,38.684,110.914,38.684z"/>
</g>
</svg>
