<?xml version="1.0" encoding="utf-8"?>
<!-- Generator: Adobe Illustrator 15.0.2, SVG Export Plug-In . SVG Version: 6.00 Build 0)  -->
<!DOCTYPE svg PUBLIC "-//W3C//DTD SVG 1.1//EN" "http://www.w3.org/Graphics/SVG/1.1/DTD/svg11.dtd">
<svg version="1.1" id="Layer_1" xmlns="http://www.w3.org/2000/svg" xmlns:xlink="http://www.w3.org/1999/xlink" x="0px" y="0px"
	 width="125px" height="40px" viewBox="-8.875 0.639 125 40" enable-background="new -8.875 0.639 125 40" xml:space="preserve">
<g>
	<path fill="#FFFFFF" d="M0.684,6.769v31.374h-4.698V6.769h-4.482v-4.59h13.5v4.59H0.684z"/>
	<path fill="#FFFFFF" d="M7.704,38.143V2.179h11.502v4.428h-6.804v10.854h4.752v4.266h-4.752V33.66h6.804v4.482H7.704z"/>
	<path fill="#FFFFFF" d="M29.519,38.143h-7.128V2.179h7.128c4.05,0,6.588,2.484,6.588,7.506v21.06
		C36.107,35.82,33.569,38.143,29.519,38.143z M31.355,9.522c0-1.944-0.594-2.862-2.106-2.862h-2.106v27.054h2.106
		c1.512,0,2.106-0.918,2.106-2.861V9.522z"/>
	<path fill="#FFFFFF" d="M57.383,38.143l-0.756-1.998c-0.81,1.674-2.484,2.539-4.428,2.539c-3.564,0-6.21-2.701-6.21-7.236V8.875
		c0-4.05,2.862-7.236,6.966-7.236c4.104,0,6.642,3.132,6.642,7.236v5.778h-4.374v-6.21c0-1.242-0.756-2.214-2.268-2.214
		c-1.404,0-2.214,1.026-2.214,2.268v23.49c0,1.352,0.81,2.377,2.268,2.377c1.512,0,2.268-1.025,2.268-2.377v-7.721h-2.106v-3.889
		h6.75v17.766H57.383z"/>
	<path fill="#FFFFFF" d="M70.019,38.684c-4.05,0-6.966-3.025-6.966-7.344V8.982c0-4.266,2.916-7.344,6.966-7.344
		s6.966,3.078,6.966,7.344V31.34C76.985,35.658,74.069,38.684,70.019,38.684z M72.233,8.551c0-1.35-0.811-2.322-2.214-2.322
		s-2.16,0.972-2.16,2.322v23.221c0,1.404,0.756,2.322,2.16,2.322s2.214-0.918,2.214-2.322V8.551z"/>
	<path fill="#FFFFFF" d="M89.026,38.143l-0.648-6.965h-4.158l-0.81,6.965h-4.32l4.807-35.964h5.184l4.807,35.964H89.026z
		 M86.488,11.359l-1.729,15.444h3.133L86.488,11.359z"/>
	<path fill="#FFFFFF" d="M102.418,38.684c-4.267,0-6.858-2.809-6.858-7.344v-3.889h4.32V31.5c0,1.891,0.81,3.025,2.376,3.025
		c1.674,0,2.484-1.08,2.484-2.863c0-3.348-1.297-6.047-3.78-9.719c-2.322-3.295-5.185-8.154-5.185-12.313
		c0-4.536,2.214-7.992,6.912-7.992c3.889,0,6.427,2.808,6.427,7.344v4.104h-4.267V8.821c0-1.782-0.756-2.862-2.16-2.862
		c-1.35,0-2.322,0.918-2.322,2.592c0,3.996,1.351,5.887,4.051,9.99c2.754,4.051,4.914,8.1,4.914,12.258
		C109.331,36.469,105.875,38.684,102.418,38.684z"/>
</g>
</svg>
