<?xml version="1.0" encoding="utf-8"?>
<!-- Generator: Adobe Illustrator 15.0.2, SVG Export Plug-In . SVG Version: 6.00 Build 0)  -->
<!DOCTYPE svg PUBLIC "-//W3C//DTD SVG 1.1//EN" "http://www.w3.org/Graphics/SVG/1.1/DTD/svg11.dtd">
<svg version="1.1" id="Layer_1" xmlns="http://www.w3.org/2000/svg" xmlns:xlink="http://www.w3.org/1999/xlink" x="0px" y="0px"
	 width="150.333px" height="26.889px" viewBox="0 0.194 150.333 26.889" enable-background="new 0 0.194 150.333 26.889"
	 xml:space="preserve">
<g enable-background="new    ">
	<path fill="#898989" d="M14.667,6.152v19.834H7.994V6.152H0V0.872h22.663v5.279h-7.996V6.152z"/>
</g>
<g enable-background="new    ">
	<path fill="#898989" d="M24.116,17.426v1.885c0,1.85,1.319,3.281,3.846,3.281c1.961,0,3.317-1.205,3.958-2.941l3.997,1.246
		c-1.32,3.58-4.187,5.391-8.372,5.391c-5.28,0-8.936-3.205-8.936-7.768v-3.168c0-4.45,3.468-7.843,8.859-7.843
		c5.392,0,8.521,3.356,8.521,7.806v2.113L24.116,17.426L24.116,17.426z M30.826,14.258c0-1.583-1.282-2.978-3.317-2.978
		c-2.112,0-3.394,1.319-3.394,2.978v1.168h6.712v-1.168H30.826z"/>
	<path fill="#898989" d="M52.475,25.984l-0.415-2.789c-1.131,1.961-3.355,3.092-5.77,3.092c-4.448,0-7.314-3.057-7.314-7.24v-4.072
		c0-4.298,3.017-7.467,6.825-7.467c2.376,0,3.923,0.792,5.203,2.299V0.872h5.506v25.115h-4.034V25.984z M50.929,14.975
		c0-2.15-1.245-3.657-3.243-3.657c-1.961,0-3.204,1.318-3.204,3.657v3.924c0,2.297,1.281,3.617,3.204,3.617
		c1.809,0,3.243-1.318,3.243-3.543V14.975z"/>
</g>
<g enable-background="new    ">
	<path fill="#898989" d="M85.959,25.984l-0.905-3.316c-1.697,2.449-4.637,3.996-8.256,3.996c-7.393,0-11.539-4.752-11.539-10.52
		v-5.319c0-5.77,4.939-10.631,12.48-10.631c5.616,0,9.352,2.677,11.161,6.446l-4.789,2.491c-1.132-2.112-3.206-3.734-6.032-3.734
		c-3.811,0-5.996,2.299-5.996,5.319v5.502c0,2.943,1.998,5.242,5.543,5.242c3.016,0,4.791-1.811,4.791-4.223v-0.641h-4.412V13.05
		h11.009v12.934H85.959L85.959,25.984z"/>
	<path fill="#898989" d="M101.313,26.287c-5.205,0-8.976-2.865-8.976-7.92v-2.865c0-5.052,3.772-7.995,8.976-7.995
		c5.166,0,8.936,2.941,8.936,7.995v2.865C110.249,23.422,106.479,26.287,101.313,26.287z M104.745,15.012
		c0-2.3-1.245-3.696-3.432-3.696c-2.185,0-3.468,1.395-3.468,3.696v3.811c0,2.299,1.283,3.693,3.468,3.693
		c2.188,0,3.432-1.395,3.432-3.693V15.012z"/>
	<path fill="#898989" d="M130.088,26.287c-2.639,0-4.187-0.943-4.64-3.281c-1.469,2.264-3.771,3.281-6.484,3.281
		c-3.506,0-6.071-1.961-6.071-5.127v-0.15c0-3.996,4.903-5.848,11.501-5.242v-1.586c0-1.771-0.98-2.826-2.865-2.826
		c-1.734,0-2.828,0.979-3.771,2.527l-3.772-1.586c1.358-2.901,3.811-4.788,7.809-4.788c5.353,0,8.065,3.016,8.065,7.052v7.014
		c0,0.867,0.339,1.205,1.587,1.205v3.508H130.088L130.088,26.287z M124.394,18.18c-3.999-0.527-6.146,0.453-6.146,2.301v0.377
		c0,1.092,0.941,1.959,2.489,1.959c1.884,0,3.656-1.131,3.656-2.791V18.18L124.394,18.18z"/>
	<path fill="#898989" d="M146.268,13.578c-0.789-1.393-2.412-2.45-4.335-2.45c-1.811,0-2.867,0.755-2.867,1.66
		c0,2.942,10.935,1.393,10.935,7.768c0,2.678-2.563,5.73-8.293,5.73c-4.411,0-7.164-1.998-8.599-4.523l3.583-1.959
		c1.169,1.811,2.943,2.865,5.054,2.865c2.186,0,3.128-0.678,3.128-1.771c0-3.055-10.896-1.396-10.896-7.657
		c0-3.016,2.903-5.731,8.03-5.731c4.037,0,6.637,1.812,7.955,4.603L146.268,13.578z"/>
</g>
</svg>
