<svg version="1.1" id="Layer_1" xmlns="http://www.w3.org/2000/svg" xmlns:xlink="http://www.w3.org/1999/xlink" x="0px" y="0px"
	 width="170px" height="31.725px" viewBox="0 0 170 31.725" enable-background="new 0 0 170 31.725" xml:space="preserve">
<g enable-background="new    ">
	<path fill="#FFFFFF" d="M11.099,23.986c0,0.594-0.271,0.891-0.812,0.891c-0.146,0-0.615-0.062-1.406-0.188
		c-0.792-0.125-1.261-0.188-1.406-0.188c-1.323,0-2.464,0.078-3.422,0.234c-1.021,0.178-1.662,0.297-1.922,0.359
		c-0.083,0.011-0.125,0.021-0.125,0.031c0,0.011,0.016,0.016,0.047,0.016c-0.188,0-0.417-0.161-0.688-0.484
		c-0.271-0.322-0.406-0.594-0.406-0.812c0-0.562,0.302-0.906,0.906-1.031c1.052-0.208,2.411-0.312,4.078-0.312
		c0.625,0,1.234-0.021,1.828-0.062c0.052-0.01,0.37-0.104,0.953-0.281c0.573-0.188,0.927-0.281,1.062-0.281
		c0.312,0,0.614,0.281,0.906,0.844C10.963,23.231,11.099,23.653,11.099,23.986z"/>
</g>
<g enable-background="new    ">
	<path fill="#FFFFFF" d="M46.586,7.939L30.023,8.782c-2.208,0.104-3.427,0.542-3.656,1.312c-0.136,0.428-0.359,1.6-0.672,3.516
		c-0.406,2.5-0.755,5.073-1.047,7.719c-0.115,0.928-0.292,2.75-0.531,5.469c-0.073,0.781-0.172,1.568-0.297,2.359
		c-0.042,0.136-0.37,0.49-0.984,1.062h-1.125c0.167-0.729,0.37-2.411,0.609-5.047c0.271-3.156,0.578-5.75,0.922-7.781l1.297-7.469
		c-0.5-0.01-1.042-0.016-1.625-0.016c-3.365,0-6.604,0.115-9.719,0.344c-0.115,0-0.612,0.123-1.492,0.367
		c-0.88,0.245-1.398,0.367-1.555,0.367c-0.261,0-0.552-0.219-0.875-0.656V9.392l0.859-0.547c1.667-0.271,3.417-0.494,5.25-0.672
		c1.604-0.166,4.026-0.411,7.266-0.734c3.385-0.322,6.786-0.484,10.203-0.484h5.203c0.25,0,1.122-0.067,2.617-0.203
		c1.495-0.135,2.372-0.203,2.633-0.203c1.323,0,2.417,0.219,3.281,0.656V7.939z"/>
</g>
<g enable-background="new    ">
	<path fill="#FFFFFF" d="M47.989,29.595c-0.386,0.459-0.886,0.688-1.5,0.688h-5.531c-1.281,0-2.708-0.192-4.281-0.578
		c-2.062-0.5-3.229-1.13-3.5-1.891c-0.302-0.854-0.453-1.672-0.453-2.453c0-1.572,0.677-2.781,2.031-3.625
		c1.146-0.729,2.542-1.094,4.188-1.094c1.417,0,2.542,0.305,3.375,0.914c0.833,0.609,1.25,1.44,1.25,2.492c0,0.584-1,1.225-3,1.922
		c-1.656,0.594-2.859,0.891-3.609,0.891c-0.094,0-0.177-0.005-0.25-0.016c0,0.146-0.115,0.323-0.344,0.531
		c0.125,0.209,0.734,0.448,1.828,0.719c0.979,0.25,1.677,0.375,2.094,0.375h4.969c0,0.011,0.625,0.104,1.875,0.281
		C47.525,29.001,47.812,29.282,47.989,29.595z M41.552,23.361c-0.583-0.594-1.521-0.891-2.812-0.891
		c-0.906,0-1.745,0.178-2.516,0.531c-1,0.459-1.5,1.078-1.5,1.859c0,0.281,0.094,0.479,0.281,0.594h1
		c0.354,0,1.312-0.297,2.875-0.891S41.333,23.57,41.552,23.361z"/>
	<path fill="#FFFFFF" d="M67.817,21.142c-1.354,0.594-3.511,1.365-6.469,2.312c-2.781,0.896-4.469,1.448-5.062,1.656
		c-2.5,0.928-3.979,1.688-4.438,2.281c0.01,0.292,0.13,0.5,0.359,0.625c0.531,0.303,1.651,0.453,3.359,0.453
		c0.594,0,1.963-0.229,4.109-0.688c2.875-0.604,5.51-1.234,7.906-1.891c-0.125,0.656-0.396,1.094-0.812,1.312
		c-0.438,0.24-2.047,0.771-4.828,1.594c-2.875,0.854-4.531,1.281-4.969,1.281c-0.146,0-0.633,0.034-1.461,0.102
		c-0.828,0.068-1.315,0.102-1.461,0.102c-0.854,0-1.812-0.203-2.875-0.609c-1.281-0.489-1.922-1.094-1.922-1.812
		c0-0.916,0.286-1.557,0.859-1.922c0.094-0.052,0.739-0.354,1.938-0.906c2.51-1.135,4.614-1.88,6.312-2.234
		c0.573-0.125,1.312-0.385,2.219-0.781c1.031-0.469,1.76-0.766,2.188-0.891l1.781-0.344c0.594-0.125,1.114-0.416,1.562-0.875
		c-0.292-3.697-0.438-8.255-0.438-13.672c0-3.083,0.239-4.708,0.719-4.875c0.396,0.178,0.651,0.339,0.766,0.484
		c0.198,0.261,0.317,0.74,0.359,1.438V3.236c-0.011,0-0.016,1.198-0.016,3.594l0.016,10.516
		C67.521,18.564,67.619,19.829,67.817,21.142z"/>
	<path fill="#FFFFFF" d="M117.896,21.814c0,1.938-2.448,3.761-7.344,5.469c-0.719,0.25-1.396,0.495-2.031,0.734
		c-0.427,0.417-1.058,0.703-1.891,0.859c-4.719,0.854-8.317,1.281-10.797,1.281c-0.239,0-1.058-0.067-2.453-0.203
		c-1.386-0.125-2.198-0.188-2.438-0.188c-0.042,0-0.333-0.146-0.875-0.438c-0.542-0.302-0.875-0.453-1-0.453
		c-1.042-0.719-2.526-1.932-4.453-3.641c-0.302-0.354-0.646-1.177-1.031-2.469c-0.052-0.197-0.078-0.38-0.078-0.547v-0.375
		l0.016-0.359v0.031c0-0.833,0.203-1.641,0.609-2.422l1.172-2.312c0.021-0.094,0.031-0.224,0.031-0.391
		c0-0.208-0.047-0.411-0.141-0.609c0.844-0.833,1.677-1.672,2.5-2.516c1.167-1.125,2.297-2.109,3.391-2.953l3.547-2.734
		c1.604-1.229,2.87-1.927,3.797-2.094c0.167-0.177,0.438-0.4,0.812-0.672c0.188-0.072,0.453-0.182,0.797-0.328
		c0.281-0.166,0.828-0.463,1.641-0.891c2.062-1,4.317-1.5,6.766-1.5c0.333,0,0.737,0.209,1.211,0.625
		c0.474,0.417,0.711,0.781,0.711,1.094c0,0.615-0.271,0.922-0.812,0.922c-0.125,0-0.328-0.088-0.609-0.266
		c-0.281-0.177-0.458-0.271-0.531-0.281c-0.292-0.094-0.739-0.141-1.344-0.141c-0.073,0-0.333,0.011-0.781,0.031
		c-0.458,0.021-0.724,0.031-0.797,0.031c-0.854,0-3.161,1.1-6.922,3.297c-3.479,2.053-5.724,3.553-6.734,4.5
		c-1.323,1.219-2.453,2.339-3.391,3.359c-0.104,0.115-0.219,0.516-0.344,1.203c-0.667,0.24-1.229,0.787-1.688,1.641
		c-0.011,0.24-0.052,0.573-0.125,1c-0.125,0.209-0.281,0.542-0.469,1c-0.031,0.136-0.047,0.672-0.047,1.609
		c0,0.042-0.016,0.198-0.047,0.469c-0.031,0.271-0.047,0.433-0.047,0.484c0,0.511,0.333,1.151,1,1.922
		c0.583,0.667,1.141,1.146,1.672,1.438c2.219,1.261,3.63,1.891,4.234,1.891c0.083,0,0.328-0.023,0.734-0.07s0.641-0.07,0.703-0.07
		c0.136,0,0.606,0.092,1.414,0.273c0.808,0.183,1.278,0.273,1.414,0.273c0.125,0,0.581-0.033,1.367-0.102
		c0.786-0.067,1.247-0.102,1.383-0.102c1.375,0,3.364-0.286,5.969-0.859c1.104-0.469,2.052-0.833,2.844-1.094
		c0.875-0.281,2.448-0.807,4.719-1.578c2.229-0.812,3.344-1.771,3.344-2.875c0-1.697-3.302-2.547-9.906-2.547
		c-2.073,0-3.536,0.219-4.391,0.656c-0.292,0.156-0.63,0.609-1.016,1.359h-0.688c-0.458-0.322-0.688-0.619-0.688-0.891
		c0.031,0,0.312-0.677,0.844-2.031c0.677-0.375,1.724-0.562,3.141-0.562c0.302,0,1.349-0.031,3.141-0.094
		c1.792-0.052,2.844-0.078,3.156-0.078c0.042,0,0.227,0.07,0.555,0.211s0.55,0.211,0.664,0.211c0.052,0,0.206-0.033,0.461-0.102
		c0.255-0.067,0.409-0.102,0.461-0.102c0.531,0,1.411,0.225,2.641,0.672c1.229,0.438,2.031,0.828,2.406,1.172
		C117.682,19.97,117.896,20.71,117.896,21.814z"/>
	<path fill="#FFFFFF" d="M137.161,24.72c0,1.115-0.234,2.068-0.703,2.859c-0.427,0.719-1.942,1.428-4.547,2.125
		c-2.323,0.625-4.089,0.938-5.297,0.938c-1.417,0-2.817-0.338-4.203-1.016c-1.677-0.833-2.516-1.869-2.516-3.109
		c0-0.552,0.317-1.114,0.953-1.688c0.562-0.406,1.411-1.172,2.547-2.297c0.75-0.916,2.125-1.656,4.125-2.219
		c1.688-0.479,3.266-0.719,4.734-0.719c0.396,0,0.989,0.172,1.781,0.516c0.792,0.365,1.333,0.698,1.625,1
		c0.292,0.323,0.614,0.904,0.969,1.742C136.984,23.692,137.161,24.314,137.161,24.72z M135.567,24.595
		c0-0.771-0.464-1.505-1.391-2.203c-0.854-0.656-1.698-0.984-2.531-0.984c-0.156,0-1.37,0.225-3.641,0.672
		c-0.875,0.178-1.672,0.516-2.391,1.016c-2.458,1.75-3.688,2.959-3.688,3.625c0,0.562,0.672,1.073,2.016,1.531
		c1.146,0.396,2.078,0.594,2.797,0.594c1.073,0,2.578-0.219,4.516-0.656c1.771-0.396,3.031-0.994,3.781-1.797
		C135.391,26.028,135.567,25.429,135.567,24.595z"/>
	<path fill="#FFFFFF" d="M153.974,30.376c-0.219,0.302-0.458,0.453-0.719,0.453c-0.167,0-0.729-0.5-1.688-1.5
		c-0.958-1.01-1.599-1.516-1.922-1.516c0,0.021-1.136,0.459-3.406,1.312c-2.323,0.865-3.802,1.297-4.438,1.297
		c-0.521,0-1.099-0.255-1.734-0.766c-0.636-0.51-0.953-0.989-0.953-1.438c0-1.156,1.266-2.505,3.797-4.047
		c2.375-1.458,4.188-2.188,5.438-2.188c0.521,0,0.989,0.297,1.406,0.891v0.672c-0.208,0.303-0.448,0.453-0.719,0.453
		c-0.052,0-0.231-0.067-0.539-0.203c-0.308-0.135-0.492-0.203-0.555-0.203c-0.417,0-1.37,0.428-2.859,1.281
		c-1.417,0.803-2.364,1.401-2.844,1.797c-0.479,0.417-0.786,0.891-0.922,1.422c0.364,0.344,0.797,0.516,1.297,0.516
		c0.261,0,1.516-0.432,3.766-1.297c2.239-0.875,3.594-1.312,4.062-1.312c0.688,0,1.183,0.172,1.484,0.516
		c0.073,0.084,0.339,0.553,0.797,1.406c0.344,0.646,0.761,1.229,1.25,1.75V30.376z"/>
	<path fill="#FFFFFF" d="M165.896,26.657c0,0.886-0.286,1.475-0.859,1.766c-0.427,0.198-1.469,0.553-3.125,1.062
		c-1.719,0.531-2.771,0.797-3.156,0.797c-0.062,0-0.146-0.033-0.25-0.102c-0.104-0.067-0.183-0.102-0.234-0.102
		c-0.229,0-0.672,0.334-1.328,1c-0.458-0.344-0.688-0.609-0.688-0.797c0-1.166,1.755-2.104,5.266-2.812
		c0.219-0.052,0.625-0.13,1.219-0.234c0.167-0.114,0.422-0.344,0.766-0.688c-0.333-0.552-0.849-0.963-1.547-1.234
		c-0.698-0.239-1.958-0.713-3.781-1.422c-1.812-0.697-2.719-1.484-2.719-2.359c0-1.135,1.136-1.703,3.406-1.703
		c0.864,0,1.974,0.1,3.328,0.297c1.583,0.229,2.614,0.49,3.094,0.781l-0.25,0.406l-5.797,0.297
		c-0.031,0.042-0.156,0.146-0.375,0.312l4.172,1.859C164.942,24.626,165.896,25.585,165.896,26.657z"/>
</g>
</svg>
