<svg height="120" viewBox="0 0 10 120" width="10" xmlns="http://www.w3.org/2000/svg"><g fill="#d0bfff" fill-rule="evenodd"><path d="m-.73553789 18.1654108c-.23806242.2328899-.50864551.4354911-.78105059.6288303-.31774351.2253768-.82061545.6081349-1.1978962.2308541-.37728074-.3772807.88549997-1.3923093 1.34130391-1.9416559.67833459-.8175462 1.08872713-1.9544281 1.92775577-2.8022079.69927713-.7065707 1.4186055-1.6047427 2.12542722-2.3038387.35264355-.3489489.77407885-.649938 1.21232721-.8805461.28374707-.1492612.65213452-.11493.92631933.1473508.27566014.2645002.29410684.6162591.17405631.9225208-.11817787.3006944-.33046376.5846569-.55815578.8204771-.49840018.5143461-.87933052.8810898-1.38685877 1.3868588-.29637545.2953481-.71828124.7307421-1.01458902 1.026125-.08979446.0895141-.17953198.17908-.26917992.268728-.87684289.6034375-1.65768627 1.6732038-2.49945947 2.4965037zm9.37517584-1.6110737c-.7715285.7715285-1.53455926 1.5515547-2.31901909 2.3101519-.29868579.2898185-.63654011.5419566-.9754775.7855716-.34042539.245103-.84343595.2249487-1.16702586-.0086171-.3531751-.2549671-.37562383-.9544562.00905989-1.349485.57268571-.5876003 1.36878756-1.3577106 1.94346606-1.9434661 1.24753561-1.271582 2.27708887-2.355643 3.53193748-3.6206095.35713037-.3600861.78303217-.6662807 1.30473907-.6929022.2172853-.0111229.5093797.1091075.6448802.272136.1347642.1615482.2041217.4779139.1426323.6798006-.0922367.3035716-.2801226.60747-.5022396.8391933-.8713513.9082979-1.77263185 1.7874104-2.66320042 2.677979zm8.89124985-2.0181946c-1.6653164 1.6653164-.6553245 1.488364-2.5955662 3.4286057s-2.3362411.910577-2.6404393.7522029c-.2401791-.124115-.3478492-.6201534-.2642345-.8958908.2028458-.6676349.6564559-1.1626253 1.1366449-1.6243409 1.0239799-.9840775 2.0778865-1.9382281 3.1147977-2.9093742.6103181-.5711547.8290645-.3135105 1.6465253-.8044794.8174608-.490969 1.7196583-1.2247522 1.9978385-.8285078.1174101.167241-.5173271 1.0005895-.7896921 1.2906888-.9149513.974066-1.8794212 1.9015893-2.8246738 2.8468419zm-23.35364928 1.7505555c-.83216453.8321645-1.65805066 1.6713514-2.5012992 2.492432-.23731588.2314044-.51897284.4199557-.79174232.6114425-.22259759.1553547-.7386632.0499774-.9084608-.1659483-.2388245-.3035525-.1961699-.6351301-.0127809-.9249255.22327404-.3533263.48319623-.6908365.76785242-.9976607.79778387-.8605932 1.6136792-1.7053069 2.4284636-2.5503876.69833059-.7234543 1.40331411-1.4409997 2.10903403-2.1570647.3563889-.3600835.72651394-.725775 1.24396707-.8094742.22144822-.035976.48476228.044314.69760339.140347.22468431.1019242.37129244.7031167.24495381.8966982-.18186801.2786683-.35710843.5706602-.58665538.8068575-.34775166.357694-.82977529.6087399-1.18215188.9619498-.53806109.5393334-.94839555 1.1789427-1.4869853 1.7175325z" transform="matrix(0 1 1 0 -10.541 10.541)"/><path d="m-.73553789 47.1654108c-.23806242.2328899-.50864551.4354911-.78105059.6288303-.31774351.2253768-.82061545.6081349-1.1978962.2308541-.37728074-.3772807.88549997-1.3923093 1.34130391-1.9416559.67833459-.8175462 1.08872713-1.9544281 1.92775577-2.8022079.69927713-.7065707 1.4186055-1.6047427 2.12542722-2.3038387.35264355-.3489489.77407885-.649938 1.21232721-.8805461.28374707-.1492612.65213452-.11493.92631933.1473508.27566014.2645002.29410684.6162591.17405631.9225208-.11817787.3006944-.33046376.5846569-.55815578.8204771-.49840018.5143461-.87933052.8810898-1.38685877 1.3868588-.29637545.2953481-.71828124.7307421-1.01458902 1.026125-.08979446.0895141-.17953198.17908-.26917992.268728-.87684289.6034375-1.65768627 1.6732038-2.49945947 2.4965037zm9.37517584-1.6110737c-.7715285.7715285-1.53455926 1.5515547-2.31901909 2.3101519-.29868579.2898185-.63654011.5419566-.9754775.7855716-.34042539.245103-.84343595.2249487-1.16702586-.0086171-.3531751-.2549671-.37562383-.9544562.00905989-1.349485.57268571-.5876003 1.36878756-1.3577106 1.94346606-1.9434661 1.24753561-1.271582 2.27708887-2.355643 3.53193748-3.6206095.35713037-.3600861.78303217-.6662807 1.30473907-.6929022.2172853-.0111229.5093797.1091075.6448802.272136.1347642.1615482.2041217.4779139.1426323.6798006-.0922367.3035716-.2801226.60747-.5022396.8391933-.8713513.9082979-1.77263185 1.7874104-2.66320042 2.677979zm8.89124985-2.0181946c-1.6653164 1.6653164-.6553245 1.488364-2.5955662 3.4286057s-2.3362411.910577-2.6404393.7522029c-.2401791-.124115-.3478492-.6201534-.2642345-.8958908.2028458-.6676349.6564559-1.1626253 1.1366449-1.6243409 1.0239799-.9840775 2.0778865-1.9382281 3.1147977-2.9093742.6103181-.5711547.8290645-.3135105 1.6465253-.8044794.8174608-.490969 1.7196583-1.2247522 1.9978385-.8285078.1174101.167241-.5173271 1.0005895-.7896921 1.2906888-.9149513.974066-1.8794212 1.9015893-2.8246738 2.8468419zm-23.35364928 1.7505555c-.83216453.8321645-1.65805066 1.6713514-2.5012992 2.492432-.23731588.2314044-.51897284.4199557-.79174232.6114425-.22259759.1553547-.7386632.0499774-.9084608-.1659483-.2388245-.3035525-.1961699-.6351301-.0127809-.9249255.22327404-.3533263.48319623-.6908365.76785242-.9976607.79778387-.8605932 1.6136792-1.7053069 2.4284636-2.5503876.69833059-.7234543 1.40331411-1.4409997 2.10903403-2.1570647.3563889-.3600835.72651394-.725775 1.24396707-.8094742.22144822-.035976.48476228.044314.69760339.140347.22468431.1019242.37129244.7031167.24495381.8966982-.18186801.2786683-.35710843.5706602-.58665538.8068575-.34775166.357694-.82977529.6087399-1.18215188.9619498-.53806109.5393334-.94839555 1.1789427-1.4869853 1.7175325z" transform="matrix(0 1 1 0 -39.541 39.541)"/><path d="m-.73553789 78.1654108c-.23806242.2328899-.50864551.4354911-.78105059.6288303-.31774351.2253768-.82061545.6081349-1.1978962.2308541-.37728074-.3772807.88549997-1.3923093 1.34130391-1.9416559.67833459-.8175462 1.08872713-1.9544281 1.92775577-2.8022079.69927713-.7065707 1.4186055-1.6047427 2.12542722-2.3038387.35264355-.3489489.77407885-.649938 1.21232721-.8805461.28374707-.1492612.65213452-.11493.92631933.1473508.27566014.2645002.29410684.6162591.17405631.9225208-.11817787.3006944-.33046376.5846569-.55815578.8204771-.49840018.5143461-.87933052.8810898-1.38685877 1.3868588-.29637545.2953481-.71828124.7307421-1.01458902 1.026125-.08979446.0895141-.17953198.17908-.26917992.268728-.87684289.6034375-1.65768627 1.6732038-2.49945947 2.4965037zm9.37517584-1.6110737c-.7715285.7715285-1.53455926 1.5515547-2.31901909 2.3101519-.29868579.2898185-.63654011.5419566-.9754775.7855716-.34042539.245103-.84343595.2249487-1.16702586-.0086171-.3531751-.2549671-.37562383-.9544562.00905989-1.349485.57268571-.5876003 1.36878756-1.3577106 1.94346606-1.9434661 1.24753561-1.271582 2.27708887-2.355643 3.53193748-3.6206095.35713037-.3600861.78303217-.6662807 1.30473907-.6929022.2172853-.0111229.5093797.1091075.6448802.272136.1347642.1615482.2041217.4779139.1426323.6798006-.0922367.3035716-.2801226.60747-.5022396.8391933-.8713513.9082979-1.77263185 1.7874104-2.66320042 2.677979zm8.89124985-2.0181946c-1.6653164 1.6653164-.6553245 1.488364-2.5955662 3.4286057s-2.3362411.910577-2.6404393.7522029c-.2401791-.124115-.3478492-.6201534-.2642345-.8958908.2028458-.6676349.6564559-1.1626253 1.1366449-1.6243409 1.0239799-.9840775 2.0778865-1.9382281 3.1147977-2.9093742.6103181-.5711547.8290645-.3135105 1.6465253-.8044794.8174608-.490969 1.7196583-1.2247522 1.9978385-.8285078.1174101.167241-.5173271 1.0005895-.7896921 1.2906888-.9149513.974066-1.8794212 1.9015893-2.8246738 2.8468419zm-23.35364928 1.7505555c-.83216453.8321645-1.65805066 1.6713514-2.5012992 2.492432-.23731588.2314044-.51897284.4199557-.79174232.6114425-.22259759.1553547-.7386632.0499774-.9084608-.1659483-.2388245-.3035525-.1961699-.6351301-.0127809-.9249255.22327404-.3533263.48319623-.6908365.76785242-.9976607.79778387-.8605932 1.6136792-1.7053069 2.4284636-2.5503876.69833059-.7234543 1.40331411-1.4409997 2.10903403-2.1570647.3563889-.3600835.72651394-.725775 1.24396707-.8094742.22144822-.035976.48476228.044314.69760339.140347.22468431.1019242.37129244.7031167.24495381.8966982-.18186801.2786683-.35710843.5706602-.58665538.8068575-.34775166.357694-.82977529.6087399-1.18215188.9619498-.53806109.5393334-.94839555 1.1789427-1.4869853 1.7175325z" transform="matrix(0 1 1 0 -70.541 70.541)"/><path d="m-.73553789 107.165411c-.23806242.23289-.50864551.435491-.78105059.62883-.31774351.225377-.82061545.608135-1.1978962.230854-.37728074-.377281.88549997-1.392309 1.34130391-1.941656.67833459-.817546 1.08872713-1.954428 1.92775577-2.802208.69927713-.70657 1.4186055-1.604742 2.12542722-2.303838.35264355-.348949.77407885-.649938 1.21232721-.880546.28374707-.1492616.65213452-.1149304.92631933.14735.27566014.264501.29410684.616259.17405631.922521-.11817787.300695-.33046376.584657-.55815578.820477-.49840018.514346-.87933052.88109-1.38685877 1.386859-.29637545.295348-.71828124.730742-1.01458902 1.026125-.08979446.089514-.17953198.17908-.26917992.268728-.87684289.603438-1.65768627 1.673204-2.49945947 2.496504zm9.37517584-1.611074c-.7715285.771529-1.53455926 1.551555-2.31901909 2.310152-.29868579.289819-.63654011.541957-.9754775.785572-.34042539.245103-.84343595.224948-1.16702586-.008618-.3531751-.254967-.37562383-.954456.00905989-1.349485.57268571-.5876 1.36878756-1.35771 1.94346606-1.943466 1.24753561-1.271582 2.27708887-2.355643 3.53193748-3.620609.35713037-.360086.78303217-.666281 1.30473907-.692902.2172853-.011123.5093797.109107.6448802.272136.1347642.161548.2041217.477914.1426323.6798-.0922367.303572-.2801226.60747-.5022396.839194-.8713513.908297-1.77263185 1.78741-2.66320042 2.677979zm8.89124985-2.018194c-1.6653164 1.665316-.6553245 1.488364-2.5955662 3.428605-1.9402417 1.940242-2.3362411.910577-2.6404393.752203-.2401791-.124115-.3478492-.620153-.2642345-.895891.2028458-.667635.6564559-1.162625 1.1366449-1.624341 1.0239799-.984077 2.0778865-1.938228 3.1147977-2.909374.6103181-.571154.8290645-.31351 1.6465253-.804479s1.7196583-1.224752 1.9978385-.828508c.1174101.167241-.5173271 1.000589-.7896921 1.290689-.9149513.974066-1.8794212 1.901589-2.8246738 2.846842zm-23.35364928 1.750555c-.83216453.832164-1.65805066 1.671351-2.5012992 2.492432-.23731588.231404-.51897284.419956-.79174232.611443-.22259759.155354-.7386632.049977-.9084608-.165949-.2388245-.303552-.1961699-.63513-.0127809-.924925.22327404-.353327.48319623-.690837.76785242-.997661.79778387-.860593 1.6136792-1.705307 2.4284636-2.550388.69833059-.723454 1.40331411-1.440999 2.10903403-2.157064.3563889-.360084.72651394-.725775 1.24396707-.809475.22144822-.035975.48476228.044314.69760339.140348.22468431.101924.37129244.703116.24495381.896698-.18186801.278668-.35710843.57066-.58665538.806857-.34775166.357694-.82977529.60874-1.18215188.96195-.53806109.539333-.94839555 1.178943-1.4869853 1.717532z" transform="matrix(0 1 1 0 -99.541 99.541)"/></g></svg>