<svg height="30" viewBox="0 0 70 30" width="70" xmlns="http://www.w3.org/2000/svg"><path d="m26.8462408 3.06916497c-5.4193703.02142-10.3285085 1.43513949-14.8842342 3.45118917-5.01709371 2.22082481-7.63416435 5.70885636-8.15121478 10.08538916-.31250301 2.6406567.9204634 4.8006487 3.4591242 6.5999281 1.62387926 1.1498252 3.53980678 1.9098065 5.60346298 2.4427359 2.5761612.6657334 5.2261867 1.184954 7.9648494 1.2115148 6.337561.0625463 18.9055423.2619593 28.0517944-1.2115148s11.2039215-1.2105076 14.0080359-2.8875773c4.2940617-2.5681695 4.3351762-4.0306371 4.3351762-7.8566724 0-1.5040677-.9636444-2.6721101-2.8183956-4.3062127-1.8547513-1.63410265-7.2822583-4.58212801-7.778854-4.74406315-7.5432544-2.46329912-17.0248489-3.54298451-26.5931228-2.78557358-.2988665 0-1.7477441-.004284-3.1966217.0008568zm30.6195711 0c3.0545749 1.02558924 6.8126073 3.72742191 8.9546734 5.61238124 1.8875182 1.66219139 5.9157381 7.92419709 1.7779113 13.52662279-4.1378268 5.6024256-6.6578 4.6517531-18.0660321 6.5727895-7.1502795 1.2040383-25.8247845 1.6972287-33.2737198.6373675-2.5125242-.3572855-4.9443658-.8816469-7.28416105-1.6450555-2.54320629-.8293821-4.71140898-2.0511784-6.46483494-3.6731002-2.01820125-1.8669666-3.1375302-3.9961138-3.10912084-6.4234273.06818248-5.9513307 3.34548675-10.65773144 10.16259783-13.65053277 5.0364121-2.21225681 10.5103284-3.72622187 16.5047043-3.71594027 1.2704668.0017136 2.5420699 0 2.8807095 0 10.1080519-.8379501 19.7024206.0017136 27.9172724 2.75889501z" fill="#ff922b" fill-rule="evenodd"/></svg>