<?xml version="1.0" encoding="UTF-8"?>
<svg width="108px" height="37px" viewBox="0 0 108 37" version="1.1" xmlns="http://www.w3.org/2000/svg" xmlns:xlink="http://www.w3.org/1999/xlink">
    <!-- Generator: Sketch 50.2 (55047) - http://www.bohemiancoding.com/sketch -->
    <title>tg-sig-logo</title>
    <desc>Created with Sketch.</desc>
    <defs></defs>
    <g id="Symbols" stroke="none" stroke-width="1" fill="none" fill-rule="evenodd">
        <g id="nav" transform="translate(-20.000000, -15.000000)" fill="#FFFFFF">
            <g id="nav/white" transform="translate(20.000000, 9.000000)">
                <path d="M3.56835938,27.4101562 L3.48046875,27.7792969 C3.48046875,27.8496097 3.51269499,27.9140622 3.57714844,27.9726562 C3.64160188,28.0312503 3.72070266,28.0605469 3.81445312,28.0605469 C3.90820359,28.0605469 3.98437471,28.0136723 4.04296875,27.9199219 C5.78907123,25.5995978 7.23632238,23.557626 8.38476562,21.7939453 C9.53320887,20.0302646 10.3740208,18.732426 10.9072266,17.9003906 C11.4404324,17.0683552 11.8652328,16.4062525 12.1816406,15.9140625 C13.0253948,14.6249936 13.8632771,13.4707082 14.6953125,12.4511719 C11.5312342,13.2480509 9.05274334,13.6464844 7.25976562,13.6464844 C5.46678791,13.6464844 4.1777383,13.5322277 3.39257812,13.3037109 C2.60741795,13.0751942 2.09179811,12.8173842 1.84570312,12.5302734 C1.59960814,12.2431626 1.4765625,11.9501968 1.4765625,11.6513672 C1.4765625,11.3525376 1.48828113,11.0625014 1.51171875,10.78125 C1.55859398,10.1953096 1.91308263,9.71484563 2.57519531,9.33984375 C3.237308,8.96484188 3.78515408,8.77734375 4.21875,8.77734375 C4.65234592,8.77734375 4.86914062,8.84179623 4.86914062,8.97070312 C4.86914062,9.09961002 4.7724619,9.27245985 4.57910156,9.48925781 C4.38574122,9.70605577 4.2890625,9.85546834 4.2890625,9.9375 C4.2890625,10.3125019 5.64256459,10.5 8.34960938,10.5 C11.0566542,10.5 14.1679512,10.1425817 17.6835938,9.42773438 C19.6992288,7.78710117 21.4394458,6.96679688 22.9042969,6.96679688 C23.876958,6.96679688 24.5214828,7.24218475 24.8378906,7.79296875 C25.0488292,8.12109539 25.1542969,8.44921711 25.1542969,8.77734375 C25.1542969,9.10547039 24.9638691,9.43359211 24.5830078,9.76171875 C24.2021465,10.0898454 23.6894563,10.3710926 23.0449219,10.6054688 C21.873041,11.0273459 20.4902423,11.3613269 18.8964844,11.6074219 C18.2285123,12.4628949 17.2822327,13.7929597 16.0576172,15.5976562 C14.8330017,17.4023528 13.9980491,18.6210906 13.5527344,19.2539062 C13.1074196,19.8867219 12.3896534,21.0117107 11.3994141,22.6289062 C10.4091747,24.2461018 9.55078488,25.6435488 8.82421875,26.8212891 C8.09765262,27.9990293 7.32422285,29.1621036 6.50390625,30.3105469 C4.82811662,32.6777462 3.33399094,33.8613281 2.02148438,33.8613281 C1.47070037,33.8613281 0.996095742,33.7148452 0.59765625,33.421875 C0.199216758,33.1289048 0,32.6513705 0,31.9892578 C0,31.3271451 0.366207275,30.5009815 1.09863281,29.5107422 C1.83105835,28.5205029 2.3671858,27.884767 2.70703125,27.6035156 C3.0468767,27.3222642 3.27539004,27.1816406 3.39257812,27.1816406 C3.50976621,27.1816406 3.56835938,27.2578117 3.56835938,27.4101562 Z M26.7910156,19.8515625 C26.7910156,20.6250039 26.4775422,21.3046846 25.8505859,21.890625 C25.2236297,22.4765654 24.5117227,22.7695312 23.7148438,22.7695312 C23.45703,22.7695312 23.2871098,22.7080084 23.2050781,22.5849609 C23.1230465,22.4619134 23.0820312,22.3007822 23.0820312,22.1015625 C23.0820312,21.9023428 23.1054685,21.7089853 23.1523438,21.5214844 C22.7304666,21.6621101 22.2617213,21.8789048 21.7460938,22.171875 C21.2304662,22.4648452 20.59766,22.8984346 19.8476562,23.4726562 C19.0976525,24.0468779 18.7226562,24.474608 18.7226562,24.7558594 C18.7226562,24.8496098 18.8603502,24.8964844 19.1357422,24.8964844 C19.4111342,24.8964844 19.8359346,24.7998057 20.4101562,24.6064453 C20.9843779,24.413085 21.385741,24.3164062 21.6142578,24.3164062 C21.8427746,24.3164062 21.9921871,24.3281249 22.0625,24.3515625 C22.2148445,24.4335942 22.3789054,24.6123033 22.5546875,24.8876953 C22.7304696,25.1630873 22.8183594,25.379882 22.8183594,25.5380859 C22.8183594,25.6962899 22.6660171,25.9042956 22.3613281,26.1621094 C22.0566391,26.4199232 21.7109394,26.6162103 21.3242188,26.7509766 C20.9374981,26.8857429 20.6796881,26.9882809 20.5507812,27.0585938 C18.0781126,28.4414132 16.8417969,29.3906224 16.8417969,29.90625 C16.8417969,30.8203171 17.621086,31.2773438 19.1796875,31.2773438 C20.1757862,31.2773438 21.1777293,30.9609407 22.1855469,30.328125 C23.0410199,29.7890598 23.81152,29.2412137 24.4970703,28.6845703 C25.1826206,28.1279269 25.61621,27.7851569 25.7978516,27.65625 C25.9794931,27.5273431 26.117187,27.4628906 26.2109375,27.4628906 C26.5156265,27.4628906 26.6679688,27.802731 26.6679688,28.4824219 C26.6679688,29.1621128 26.6269535,29.6103505 26.5449219,29.8271484 C26.4628902,30.0439464 26.2285176,30.3105453 25.8417969,30.6269531 C23.3339718,32.6660258 20.9609487,33.6855469 18.7226562,33.6855469 C17.5273378,33.6855469 16.5722692,33.521486 15.8574219,33.1933594 C14.5449153,32.5957001 13.8886719,31.6816468 13.8886719,30.4511719 C13.8886719,28.8339763 15.0078013,27.6093792 17.2460938,26.7773438 C16.800779,26.578124 16.5136725,26.3232437 16.3847656,26.0126953 C16.2558587,25.7021469 16.1914062,25.204105 16.1914062,24.5185547 C16.1914062,23.8330044 16.510739,23.1064492 17.1494141,22.3388672 C17.7880891,21.5712852 18.5703079,20.9414087 19.4960938,20.4492188 C21.5586041,19.3359319 23.3984294,18.7792969 25.015625,18.7792969 C25.4023457,18.7792969 25.7949199,18.8730459 26.1933594,19.0605469 C26.5917989,19.2480478 26.7910156,19.5117171 26.7910156,19.8515625 Z M47.2011719,6.65039062 C47.4238292,6.65039062 47.5996087,6.72070242 47.7285156,6.86132812 C47.8574225,7.00195383 47.921875,7.14550708 47.921875,7.29199219 C47.921875,7.43847729 47.8076183,7.70800585 47.5791016,8.10058594 C47.3505848,8.49316603 46.826176,9.34862622 46.0058594,10.6669922 C45.1855428,11.9853582 44.5468773,13.0195275 44.0898438,13.7695312 C41.4296742,18.0937716 39.3437576,21.7499851 37.8320312,24.7382812 C36.3203049,27.7265774 35.5644531,29.5312469 35.5644531,30.1523438 L35.5644531,30.2929688 C35.5644531,30.7734399 35.7402326,31.0136719 36.0917969,31.0136719 C36.4433611,31.0136719 36.8681616,30.849611 37.3662109,30.5214844 C37.8642603,30.1933577 38.3007794,29.8417988 38.6757812,29.4667969 C39.0507831,29.091795 39.428709,28.7021505 39.8095703,28.2978516 C40.1904316,27.8935527 40.4218746,27.6562504 40.5039062,27.5859375 C40.5859379,27.5156246 40.6914056,27.4804688 40.8203125,27.4804688 C41.0195322,27.4804688 41.1484372,27.6064441 41.2070312,27.8583984 C41.2656253,28.1103528 41.2949219,28.4619118 41.2949219,28.9130859 C41.2949219,29.3642601 41.259766,29.6601555 41.1894531,29.8007812 C40.8496077,30.4570345 40.1025448,31.2568312 38.9482422,32.2001953 C37.7939395,33.1435594 36.701177,33.6152344 35.6699219,33.6152344 C33.9121006,33.6152344 33.0332031,32.8711012 33.0332031,31.3828125 C33.0332031,30.4570266 33.3847621,29.2441481 34.0878906,27.7441406 C33.1386671,28.9746155 32.1718799,30.0234332 31.1875,30.890625 C29.3593659,32.484383 27.7714911,33.28125 26.4238281,33.28125 C25.6738244,33.28125 25.120119,33.0175808 24.7626953,32.4902344 C24.4052717,31.962888 24.2265625,31.2041065 24.2265625,30.2138672 C24.2265625,29.2236279 24.6132774,28.0371163 25.3867188,26.6542969 C26.1601601,25.2714775 27.1240177,24.0263727 28.2783203,22.9189453 C29.432623,21.8115179 30.7128836,20.8857459 32.1191406,20.1416016 C33.5253977,19.3974572 34.8203066,19.0253906 36.0039062,19.0253906 C36.3789081,19.0253906 36.8183569,19.253904 37.3222656,19.7109375 C37.6621111,19.1718723 38.2890579,18.0937581 39.203125,16.4765625 C42.0742331,11.6366946 43.9726516,8.68359908 44.8984375,7.6171875 C45.3906275,6.97265303 46.1581979,6.65039062 47.2011719,6.65039062 Z M36.25,21.3632812 C34.5624916,21.7382831 32.9921948,22.5234315 31.5390625,23.71875 C30.0859302,24.9140685 28.9960974,26.1650325 28.2695312,27.4716797 C27.5429651,28.7783268 27.1796875,29.6249981 27.1796875,30.0117188 C27.1796875,30.3984394 27.2617179,30.5917969 27.4257812,30.5917969 C28.1289098,30.5917969 29.8691267,29.0215001 32.6464844,25.8808594 C34.0293038,24.3339766 35.2304637,22.8281323 36.25,21.3632812 Z M74.2929688,11.1503906 C74.2929688,11.7480499 73.9121132,12.4687458 73.1503906,13.3125 C72.3886681,14.1562542 71.4482478,14.9589806 70.3291016,15.7207031 C69.2099553,16.4824257 68.0996149,17.0859353 66.9980469,17.53125 C67.2441419,17.4492183 67.4960925,17.4082031 67.7539062,17.4082031 C68.6210981,17.4082031 69.1953111,17.5664047 69.4765625,17.8828125 C69.5468754,17.9531254 69.5820312,18.0351558 69.5820312,18.1289062 C69.5820312,18.2226567 69.4238297,18.4511701 69.1074219,18.8144531 C65.8144367,22.6230659 62.7910294,26.402325 60.0371094,30.1523438 C61.162115,29.2734331 62.1581988,28.4355509 63.0253906,27.6386719 C63.5058618,27.205076 64.0917934,26.9882812 64.7832031,26.9882812 C65.2871119,26.9882812 65.5976557,27.0527337 65.7148438,27.1816406 C65.8320318,27.3105475 65.890625,27.4189449 65.890625,27.5068359 C65.890625,27.594727 65.8144539,27.697265 65.6621094,27.8144531 C63.7050683,29.5253992 60.5117409,32.021468 56.0820312,35.3027344 C55.3203087,36.1582074 53.3984529,38.1972495 50.3164062,41.4199219 C49.7656222,41.9824247 49.1562533,42.2636719 48.4882812,42.2636719 C47.1874935,42.2636719 46.5371094,41.9003943 46.5371094,41.1738281 C46.5371094,40.8574203 46.78906,40.3535191 47.2929688,39.6621094 C48.0195349,38.5956978 49.7949078,36.9843858 52.6191406,34.828125 C53.2402375,34.1367153 54.3124924,32.964852 55.8359375,31.3125 C58.7187644,28.1718593 60.4589814,26.1562545 61.0566406,25.265625 C59.4628827,26.7773513 58.2558635,27.8437469 57.4355469,28.4648438 C56.6152303,29.0859406 55.8564488,29.6249977 55.1591797,30.0820312 C54.4619106,30.5390648 53.8203154,30.9082017 53.234375,31.1894531 C50.3984233,32.5488349 48.3769592,32.5546942 47.1699219,31.2070312 C46.5605438,30.5390592 46.2558594,29.5576237 46.2558594,28.2626953 C46.2558594,26.967767 46.6132777,25.5410234 47.328125,23.9824219 C48.0429723,22.4238203 48.9980409,20.8857498 50.1933594,19.3681641 C51.3886779,17.8505783 52.8066324,16.371101 54.4472656,14.9296875 C56.0878988,13.488274 57.7929599,12.2226617 59.5625,11.1328125 C61.3320401,10.0429633 63.1953027,9.1669955 65.1523438,8.50488281 C67.1093848,7.84277013 68.9550695,7.51171875 70.6894531,7.51171875 C71.2871124,7.51171875 71.8496067,7.61132713 72.3769531,7.81054688 C72.9042995,8.00976662 73.2792958,8.22070201 73.5019531,8.44335938 C74.0292995,8.97070576 74.2929688,9.87304049 74.2929688,11.1503906 Z M64.1328125,14.8242188 L64.0449219,15.1757812 C64.0449219,15.375001 64.1796862,15.4746094 64.4492188,15.4746094 C65.1640661,15.4746094 66.1425719,15.1289097 67.3847656,14.4375 C68.6269593,13.7460903 69.6289024,13.037113 70.390625,12.3105469 C71.1523476,11.5839807 71.5332031,10.9804712 71.5332031,10.5 C71.5332031,10.0898417 71.1699255,9.88476562 70.4433594,9.88476562 C69.1542904,9.88476562 67.7041096,10.2011687 66.0927734,10.8339844 C64.4814373,11.4668 62.9082108,12.2871043 61.3730469,13.2949219 C59.8378829,14.3027394 58.3261793,15.4599544 56.8378906,16.7666016 C55.3496019,18.0732487 54.0517633,19.3798763 52.9443359,20.6865234 C51.8369085,21.9931706 50.9433628,23.2734312 50.2636719,24.5273438 C49.583981,25.7812563 49.2441406,26.8535112 49.2441406,27.7441406 C49.2441406,28.0957049 49.3466787,28.4062487 49.5517578,28.6757812 C49.756837,28.9453138 50.0585918,29.0800781 50.4570312,29.0800781 C51.6875062,29.0800781 53.6708848,28.1367282 56.4072266,26.25 C59.1435684,24.3632718 62.2870916,21.7910319 65.8378906,18.5332031 C65.8847659,18.4863279 65.9667963,18.3984381 66.0839844,18.2695312 C66.3417982,17.9531234 66.6054674,17.7246101 66.875,17.5839844 C65.9140577,17.9707051 65.1289093,18.1640625 64.5195312,18.1640625 C63.9101532,18.1640625 63.406252,18.0292982 63.0078125,17.7597656 C62.609373,17.490233 62.4101562,17.1240258 62.4101562,16.6611328 C62.4101562,16.1982399 62.6152323,15.7617208 63.0253906,15.3515625 C63.4355489,14.9414042 63.7226554,14.7363281 63.8867188,14.7363281 C64.0507821,14.7363281 64.1328125,14.7656247 64.1328125,14.8242188 Z M79.1113281,19.6054688 C79.4628924,19.6054688 79.8232403,19.7636703 80.1923828,20.0800781 C80.5615253,20.396486 80.7460938,20.8798796 80.7460938,21.5302734 C80.7460938,22.1806673 80.5175804,23.0244089 80.0605469,24.0615234 C79.6035133,25.098638 78.9765665,26.153315 78.1796875,27.2255859 C77.3828085,28.2978569 76.5068407,29.3056593 75.5517578,30.2490234 C74.5966749,31.1923875 73.5654352,31.9658173 72.4580078,32.5693359 C71.3505804,33.1728546 70.3457076,33.4746094 69.4433594,33.4746094 C68.5410111,33.4746094 67.8173855,33.1904325 67.2724609,32.6220703 C66.7275363,32.0537081 66.4550781,31.2627004 66.4550781,30.2490234 C66.4550781,29.2353465 66.7040991,28.1132874 67.2021484,26.8828125 C67.7001978,25.6523376 68.3417929,24.5654344 69.1269531,23.6220703 C69.9121133,22.6787062 70.7617142,21.832035 71.6757812,21.0820312 C73.5859471,19.5468673 75.2617115,18.7792969 76.703125,18.7792969 C77.3476595,18.7792969 77.8339827,18.9374984 78.1621094,19.2539062 C78.2792975,19.3593755 78.3378906,19.4531246 78.3378906,19.5351562 L78.3378906,19.640625 C78.5019539,19.6171874 78.7597639,19.6054688 79.1113281,19.6054688 Z M77.3359375,21.9433594 L77.2128906,21.9433594 C76.8027323,21.9433594 76.5976562,21.6445342 76.5976562,21.046875 C75.7421832,21.3281264 74.8457078,21.820309 73.9082031,22.5234375 C72.9706984,23.226566 72.1328162,24.0585889 71.3945312,25.0195312 C69.8945238,26.9414159 69.1328126,28.5644465 69.109375,29.8886719 C69.109375,30.5449252 69.349607,30.8730469 69.8300781,30.8730469 C70.3105493,30.8730469 71.0253859,30.5566438 71.9746094,29.9238281 C72.9238329,29.2910125 73.8642532,28.3886777 74.7958984,27.2167969 C75.7275437,26.044916 76.4248024,25.0283246 76.8876953,24.1669922 C77.3505883,23.3056598 77.5820312,22.7197281 77.5820312,22.4091797 C77.5820312,22.0986313 77.5000008,21.9433594 77.3359375,21.9433594 Z M92.7714844,19.640625 C93.6621138,19.640625 94.1074219,19.9453095 94.1074219,20.5546875 C94.1074219,20.8828141 94.0312508,21.1230461 93.8789062,21.2753906 C93.7265617,21.4277351 93.4013697,21.934566 92.9033203,22.7958984 C92.4052709,23.6572309 91.8544952,24.7587824 91.2509766,26.1005859 C90.6474579,27.4423895 90.2578134,28.5878859 90.0820312,29.5371094 C90.0468748,29.6542975 90.0292969,29.8183583 90.0292969,30.0292969 C90.0292969,30.6738313 90.2050764,30.9960938 90.5566406,30.9960938 C90.9082049,30.9960938 91.3242163,30.8291032 91.8046875,30.4951172 C92.2851587,30.1611311 92.7128887,29.8037128 93.0878906,29.4228516 C93.4628925,29.0419903 93.8290998,28.6523457 94.1865234,28.2539062 C94.5439471,27.8554668 94.7578121,27.6269534 94.828125,27.5683594 C94.8984379,27.5097653 95.0039055,27.4804688 95.1445312,27.4804688 C95.3671886,27.4804688 95.5019529,27.6503889 95.5488281,27.9902344 C95.5957034,28.3300798 95.6191406,28.6816388 95.6191406,29.0449219 C95.6191406,29.4082049 95.5839847,29.6601555 95.5136719,29.8007812 C95.1738264,30.4687533 94.4267636,31.2714797 93.2724609,32.2089844 C92.1181583,33.1464891 91.0693407,33.6152344 90.1259766,33.6152344 C89.1826125,33.6152344 88.4882835,33.3281279 88.0429688,32.7539062 C87.597654,32.1796846 87.375,31.5439488 87.375,30.8466797 C87.375,30.1494106 87.4921863,29.537112 87.7265625,29.0097656 C86.7539014,30.275397 85.6377016,31.3476519 84.3779297,32.2265625 C83.1181578,33.1054731 82.0898477,33.5449219 81.2929688,33.5449219 C80.4960898,33.5449219 79.8457056,33.3046899 79.3417969,32.8242188 C78.6972624,32.2265595 78.375,31.3974662 78.375,30.3369141 C78.375,29.2763619 78.6123023,28.2099663 79.0869141,27.1376953 C79.5615258,26.0654243 80.185543,25.0869185 80.9589844,24.2021484 C81.7324257,23.3173784 82.5820266,22.5117224 83.5078125,21.7851562 C85.4531347,20.2617111 87.2460855,19.5 88.8867188,19.5 C89.5195344,19.5 90.0351543,19.6054677 90.4335938,19.8164062 C90.8320332,20.0273448 91.0839838,20.291014 91.1894531,20.6074219 C91.4707045,20.1855448 91.7080068,19.9189459 91.9013672,19.8076172 C92.0947275,19.6962885 92.3847637,19.640625 92.7714844,19.640625 Z M90.4335938,21.5917969 C88.4296775,21.5917969 86.3554795,22.705067 84.2109375,24.9316406 C83.4492149,25.7285196 82.7490266,26.6835882 82.1103516,27.796875 C81.4716765,28.9101618 81.1523438,29.6718729 81.1523438,30.0820312 C81.1523438,30.4921896 81.2695301,30.6972656 81.5039062,30.6972656 C81.8320329,30.6972656 82.7460862,30.0498112 84.2460938,28.7548828 C85.7461013,27.4599545 86.742185,26.5078155 87.234375,25.8984375 C87.7734402,25.2187466 88.8398358,23.7832141 90.4335938,21.5917969 Z M94.953125,29.484375 L94.9355469,29.765625 C94.9355469,30.0585952 95.0468739,30.3105458 95.2695312,30.5214844 C95.4921886,30.7324229 95.6972647,30.8378906 95.8847656,30.8378906 C97.2910227,30.8378906 98.5361274,30.6269552 99.6201172,30.2050781 C100.704107,29.783201 101.246094,29.3613302 101.246094,28.9394531 C101.246094,28.7402334 101.049807,28.5673835 100.657227,28.4208984 C100.264646,28.2744133 99.6025437,28.0927745 98.6708984,27.8759766 C97.7392532,27.6591786 97.0625021,27.4892584 96.640625,27.3662109 C96.2187479,27.2431634 95.8847669,27.1289068 95.6386719,27.0234375 C95.3925769,26.9179682 95.1406263,26.7714853 94.8828125,26.5839844 C94.3320285,26.1972637 94.0566406,25.620121 94.0566406,24.8525391 C94.0566406,24.0849571 94.3408175,23.323246 94.9091797,22.5673828 C95.4775419,21.8115197 96.1894488,21.1640652 97.0449219,20.625 C97.9003949,20.0859348 98.8203076,19.6113302 99.8046875,19.2011719 C101.75001,18.3925741 103.384759,17.9882812 104.708984,17.9882812 C106.009772,17.9882812 106.812498,18.2695284 107.117188,18.8320312 C107.210938,19.031251 107.257812,19.253905 107.257812,19.5 L107.257812,19.6230469 C107.257812,20.2441437 107.125978,20.730467 106.862305,21.0820312 C106.598631,21.4335955 106.18262,21.7499986 105.614258,22.03125 C105.045896,22.3125014 104.594728,22.453125 104.260742,22.453125 C103.926756,22.453125 103.715821,22.4296877 103.62793,22.3828125 C103.540039,22.3359373 103.466797,22.2744144 103.408203,22.1982422 C103.349609,22.1220699 103.276368,22.0664064 103.188477,22.03125 C103.100585,21.9960936 103.056641,21.9082038 103.056641,21.7675781 C103.056641,21.6269524 103.115234,21.4833992 103.232422,21.3369141 C103.34961,21.190429 103.43164,21.0351571 103.478516,20.8710938 C102.705074,20.9062502 101.896489,21.0849593 101.052734,21.4072266 C100.20898,21.7294938 99.4853546,22.0898418 98.8818359,22.4882812 C98.2783173,22.8867207 97.7773457,23.2675763 97.3789062,23.6308594 C96.9804668,23.9941424 96.78125,24.2607413 96.78125,24.4306641 C96.78125,24.6005868 97.0507786,24.7382807 97.5898438,24.84375 C100.015637,25.3242212 101.609371,25.7402326 102.371094,26.0917969 C103.132816,26.4433611 103.660155,26.8417946 103.953125,27.2871094 C104.246095,27.7324241 104.392578,28.1367169 104.392578,28.5 C104.392578,29.2500038 104.093753,29.958981 103.496094,30.6269531 C102.898435,31.2949252 102.160161,31.8398416 101.28125,32.2617188 C99.3945218,33.1875046 97.7509836,33.6503906 96.3505859,33.6503906 C94.9501883,33.6503906 93.9834011,33.4365256 93.4501953,33.0087891 C92.9169895,32.5810525 92.6503906,32.0742217 92.6503906,31.4882812 C92.6503906,30.9023408 92.7998032,30.3603541 93.0986328,29.8623047 C93.3974624,29.3642553 93.7812477,29.1152344 94.25,29.1152344 C94.7187523,29.1152344 94.953125,29.23828 94.953125,29.484375 Z" id="tg-sig-logo"></path>
            </g>
        </g>
    </g>
</svg>