<svg width="560" height="300" viewBox="0 0 560 300" fill="none" xmlns="http://www.w3.org/2000/svg">
<g clip-path="url(#clip0_8371_79833)">
<rect width="560" height="300" fill="white"/>
<path d="M11.6378 124V123.233L14.5185 120.08C14.8565 119.71 15.1349 119.389 15.3537 119.116C15.5724 118.841 15.7344 118.582 15.8395 118.341C15.9474 118.097 16.0014 117.841 16.0014 117.574C16.0014 117.267 15.9276 117.001 15.7798 116.777C15.6349 116.553 15.4361 116.379 15.1832 116.257C14.9304 116.135 14.6463 116.074 14.331 116.074C13.9957 116.074 13.7031 116.143 13.4531 116.283C13.206 116.419 13.0142 116.611 12.8778 116.858C12.7443 117.105 12.6776 117.395 12.6776 117.727H11.6719C11.6719 117.216 11.7898 116.767 12.0256 116.381C12.2614 115.994 12.5824 115.693 12.9886 115.477C13.3977 115.261 13.8565 115.153 14.3651 115.153C14.8764 115.153 15.3295 115.261 15.7244 115.477C16.1193 115.693 16.429 115.984 16.6534 116.351C16.8778 116.717 16.9901 117.125 16.9901 117.574C16.9901 117.895 16.9318 118.209 16.8153 118.516C16.7017 118.82 16.5028 119.159 16.2188 119.534C15.9375 119.906 15.5469 120.361 15.0469 120.898L13.0866 122.994V123.062H17.1435V124H11.6378ZM21.75 124.119C21.108 124.119 20.5611 123.945 20.1094 123.595C19.6577 123.243 19.3125 122.733 19.0739 122.065C18.8352 121.395 18.7159 120.585 18.7159 119.636C18.7159 118.693 18.8352 117.888 19.0739 117.22C19.3153 116.55 19.6619 116.038 20.1136 115.686C20.5682 115.331 21.1136 115.153 21.75 115.153C22.3864 115.153 22.9304 115.331 23.3821 115.686C23.8366 116.038 24.1832 116.55 24.4219 117.22C24.6634 117.888 24.7841 118.693 24.7841 119.636C24.7841 120.585 24.6648 121.395 24.4261 122.065C24.1875 122.733 23.8423 123.243 23.3906 123.595C22.9389 123.945 22.392 124.119 21.75 124.119ZM21.75 123.182C22.3864 123.182 22.8807 122.875 23.233 122.261C23.5852 121.648 23.7614 120.773 23.7614 119.636C23.7614 118.881 23.6804 118.237 23.5185 117.706C23.3594 117.175 23.1293 116.77 22.8281 116.491C22.5298 116.213 22.1705 116.074 21.75 116.074C21.1193 116.074 20.6264 116.385 20.2713 117.007C19.9162 117.626 19.7386 118.503 19.7386 119.636C19.7386 120.392 19.8182 121.034 19.9773 121.562C20.1364 122.091 20.3651 122.493 20.6634 122.768C20.9645 123.044 21.3267 123.182 21.75 123.182ZM29.25 124.119C28.608 124.119 28.0611 123.945 27.6094 123.595C27.1577 123.243 26.8125 122.733 26.5739 122.065C26.3352 121.395 26.2159 120.585 26.2159 119.636C26.2159 118.693 26.3352 117.888 26.5739 117.22C26.8153 116.55 27.1619 116.038 27.6136 115.686C28.0682 115.331 28.6136 115.153 29.25 115.153C29.8864 115.153 30.4304 115.331 30.8821 115.686C31.3366 116.038 31.6832 116.55 31.9219 117.22C32.1634 117.888 32.2841 118.693 32.2841 119.636C32.2841 120.585 32.1648 121.395 31.9261 122.065C31.6875 122.733 31.3423 123.243 30.8906 123.595C30.4389 123.945 29.892 124.119 29.25 124.119ZM29.25 123.182C29.8864 123.182 30.3807 122.875 30.733 122.261C31.0852 121.648 31.2614 120.773 31.2614 119.636C31.2614 118.881 31.1804 118.237 31.0185 117.706C30.8594 117.175 30.6293 116.77 30.3281 116.491C30.0298 116.213 29.6705 116.074 29.25 116.074C28.6193 116.074 28.1264 116.385 27.7713 117.007C27.4162 117.626 27.2386 118.503 27.2386 119.636C27.2386 120.392 27.3182 121.034 27.4773 121.562C27.6364 122.091 27.8651 122.493 28.1634 122.768C28.4645 123.044 28.8267 123.182 29.25 123.182Z" fill="#62748E"/>
<rect x="41" y="119" width="509" height="1" fill="#E2E8F0"/>
<path d="M16.3935 205.273V214H15.3366V206.381H15.2855L13.1548 207.795V206.722L15.3366 205.273H16.3935ZM21.75 214.119C21.108 214.119 20.5611 213.945 20.1094 213.595C19.6577 213.243 19.3125 212.733 19.0739 212.065C18.8352 211.395 18.7159 210.585 18.7159 209.636C18.7159 208.693 18.8352 207.888 19.0739 207.22C19.3153 206.55 19.6619 206.038 20.1136 205.686C20.5682 205.331 21.1136 205.153 21.75 205.153C22.3864 205.153 22.9304 205.331 23.3821 205.686C23.8366 206.038 24.1832 206.55 24.4219 207.22C24.6634 207.888 24.7841 208.693 24.7841 209.636C24.7841 210.585 24.6648 211.395 24.4261 212.065C24.1875 212.733 23.8423 213.243 23.3906 213.595C22.9389 213.945 22.392 214.119 21.75 214.119ZM21.75 213.182C22.3864 213.182 22.8807 212.875 23.233 212.261C23.5852 211.648 23.7614 210.773 23.7614 209.636C23.7614 208.881 23.6804 208.237 23.5185 207.706C23.3594 207.175 23.1293 206.77 22.8281 206.491C22.5298 206.213 22.1705 206.074 21.75 206.074C21.1193 206.074 20.6264 206.385 20.2713 207.007C19.9162 207.626 19.7386 208.503 19.7386 209.636C19.7386 210.392 19.8182 211.034 19.9773 211.562C20.1364 212.091 20.3651 212.493 20.6634 212.768C20.9645 213.044 21.3267 213.182 21.75 213.182ZM29.25 214.119C28.608 214.119 28.0611 213.945 27.6094 213.595C27.1577 213.243 26.8125 212.733 26.5739 212.065C26.3352 211.395 26.2159 210.585 26.2159 209.636C26.2159 208.693 26.3352 207.888 26.5739 207.22C26.8153 206.55 27.1619 206.038 27.6136 205.686C28.0682 205.331 28.6136 205.153 29.25 205.153C29.8864 205.153 30.4304 205.331 30.8821 205.686C31.3366 206.038 31.6832 206.55 31.9219 207.22C32.1634 207.888 32.2841 208.693 32.2841 209.636C32.2841 210.585 32.1648 211.395 31.9261 212.065C31.6875 212.733 31.3423 213.243 30.8906 213.595C30.4389 213.945 29.892 214.119 29.25 214.119ZM29.25 213.182C29.8864 213.182 30.3807 212.875 30.733 212.261C31.0852 211.648 31.2614 210.773 31.2614 209.636C31.2614 208.881 31.1804 208.237 31.0185 207.706C30.8594 207.175 30.6293 206.77 30.3281 206.491C30.0298 206.213 29.6705 206.074 29.25 206.074C28.6193 206.074 28.1264 206.385 27.7713 207.007C27.4162 207.626 27.2386 208.503 27.2386 209.636C27.2386 210.392 27.3182 211.034 27.4773 211.562C27.6364 212.091 27.8651 212.493 28.1634 212.768C28.4645 213.044 28.8267 213.182 29.25 213.182Z" fill="#62748E"/>
<rect x="41" y="209" width="509" height="1" fill="#E2E8F0"/>
<path d="M29.25 304.119C28.608 304.119 28.0611 303.945 27.6094 303.595C27.1577 303.243 26.8125 302.733 26.5739 302.065C26.3352 301.395 26.2159 300.585 26.2159 299.636C26.2159 298.693 26.3352 297.888 26.5739 297.22C26.8153 296.55 27.1619 296.038 27.6136 295.686C28.0682 295.331 28.6136 295.153 29.25 295.153C29.8864 295.153 30.4304 295.331 30.8821 295.686C31.3366 296.038 31.6832 296.55 31.9219 297.22C32.1634 297.888 32.2841 298.693 32.2841 299.636C32.2841 300.585 32.1648 301.395 31.9261 302.065C31.6875 302.733 31.3423 303.243 30.8906 303.595C30.4389 303.945 29.892 304.119 29.25 304.119ZM29.25 303.182C29.8864 303.182 30.3807 302.875 30.733 302.261C31.0852 301.648 31.2614 300.773 31.2614 299.636C31.2614 298.881 31.1804 298.237 31.0185 297.706C30.8594 297.175 30.6293 296.77 30.3281 296.491C30.0298 296.213 29.6705 296.074 29.25 296.074C28.6193 296.074 28.1264 296.385 27.7713 297.007C27.4162 297.626 27.2386 298.503 27.2386 299.636C27.2386 300.392 27.3182 301.034 27.4773 301.562C27.6364 302.091 27.8651 302.493 28.1634 302.768C28.4645 303.044 28.8267 303.182 29.25 303.182Z" fill="#62748E"/>
<rect x="41" y="299" width="509" height="1" fill="#E2E8F0"/>
<g opacity="0.3">
<path d="M66 78C66 75.7909 67.7909 74 70 74H86C88.2091 74 90 75.7909 90 78V112H66V78Z" fill="#FF6467"/>
<rect x="66" y="112" width="24" height="41" fill="#FFB900"/>
<rect x="66" y="153" width="24" height="52" fill="#51A2FF"/>
<rect x="66" y="205" width="24" height="95" fill="#9AE600"/>
</g>
<g opacity="0.3">
<path d="M112 92C112 89.7909 113.791 88 116 88H132C134.209 88 136 89.7909 136 92V107H112V92Z" fill="#FF6467"/>
<rect x="112" y="107" width="24" height="41" fill="#FFB900"/>
<rect x="112" y="148" width="24" height="42" fill="#51A2FF"/>
<rect x="112" y="190" width="24" height="110" fill="#9AE600"/>
</g>
<g opacity="0.3">
<path d="M158 109C158 106.791 159.791 105 162 105H178C180.209 105 182 106.791 182 109V133H158V109Z" fill="#FF6467"/>
<rect x="158" y="133" width="24" height="22" fill="#FFB900"/>
<rect x="158" y="155" width="24" height="37" fill="#51A2FF"/>
<rect x="158" y="192" width="24" height="108" fill="#9AE600"/>
</g>
<path d="M204 92C204 89.7909 205.791 88 208 88H224C226.209 88 228 89.7909 228 92V107H204V92Z" fill="#FF6467"/>
<rect x="204" y="107" width="24" height="41" fill="#FFB900"/>
<rect x="204" y="148" width="24" height="42" fill="#51A2FF"/>
<rect x="204" y="190" width="24" height="110" fill="#9AE600"/>
<g opacity="0.3">
<path d="M250 109C250 106.791 251.791 105 254 105H270C272.209 105 274 106.791 274 109V133H250V109Z" fill="#FF6467"/>
<rect x="250" y="133" width="24" height="22" fill="#FFB900"/>
<rect x="250" y="155" width="24" height="37" fill="#51A2FF"/>
<rect x="250" y="192" width="24" height="108" fill="#9AE600"/>
</g>
<g opacity="0.3">
<path d="M296 78C296 75.7909 297.791 74 300 74H316C318.209 74 320 75.7909 320 78V112H296V78Z" fill="#FF6467"/>
<rect x="296" y="112" width="24" height="41" fill="#FFB900"/>
<rect x="296" y="153" width="24" height="52" fill="#51A2FF"/>
<rect x="296" y="205" width="24" height="95" fill="#9AE600"/>
</g>
<g opacity="0.3">
<path d="M342 52C342 49.7909 343.791 48 346 48H362C364.209 48 366 49.7909 366 52V76H342V52Z" fill="#FF6467"/>
<rect x="342" y="76" width="24" height="59" fill="#FFB900"/>
<rect x="342" y="135" width="24" height="36" fill="#51A2FF"/>
<rect x="342" y="171" width="24" height="129" fill="#9AE600"/>
</g>
<g opacity="0.3">
<path d="M388 78C388 75.7909 389.791 74 392 74H408C410.209 74 412 75.7909 412 78V112H388V78Z" fill="#FF6467"/>
<rect x="388" y="112" width="24" height="41" fill="#FFB900"/>
<rect x="388" y="153" width="24" height="52" fill="#51A2FF"/>
<rect x="388" y="205" width="24" height="95" fill="#9AE600"/>
</g>
<g opacity="0.3">
<path d="M434 52C434 49.7909 435.791 48 438 48H454C456.209 48 458 49.7909 458 52V76H434V52Z" fill="#FF6467"/>
<rect x="434" y="76" width="24" height="59" fill="#FFB900"/>
<rect x="434" y="135" width="24" height="36" fill="#51A2FF"/>
<rect x="434" y="171" width="24" height="129" fill="#9AE600"/>
</g>
<g opacity="0.3">
<path d="M480 92C480 89.7909 481.791 88 484 88H500C502.209 88 504 89.7909 504 92V107H480V92Z" fill="#FF6467"/>
<rect x="480" y="107" width="24" height="41" fill="#FFB900"/>
<rect x="480" y="148" width="24" height="42" fill="#51A2FF"/>
<rect x="480" y="190" width="24" height="110" fill="#9AE600"/>
</g>
<g opacity="0.3">
<path d="M526 109C526 106.791 527.791 105 530 105H546C548.209 105 550 106.791 550 109V133H526V109Z" fill="#FF6467"/>
<rect x="526" y="133" width="24" height="22" fill="#FFB900"/>
<rect x="526" y="155" width="24" height="37" fill="#51A2FF"/>
<rect x="526" y="192" width="24" height="108" fill="#9AE600"/>
</g>
<g filter="url(#filter0_dd_8371_79833)">
<rect x="240" y="71" width="176" height="168" rx="8" fill="white" shape-rendering="crispEdges"/>
<rect x="240.5" y="71.5" width="175" height="167" rx="7.5" stroke="#E5E5E5" shape-rendering="crispEdges"/>
<path d="M260.253 88.2727H262.077V94.358C262.077 94.9205 261.95 95.4091 261.697 95.8239C261.447 96.2386 261.099 96.5582 260.653 96.7827C260.207 97.0071 259.689 97.1193 259.098 97.1193C258.572 97.1193 258.095 97.027 257.666 96.8423C257.24 96.6548 256.902 96.3707 256.652 95.9901C256.402 95.6065 256.278 95.125 256.281 94.5455H258.118C258.124 94.7756 258.17 94.973 258.259 95.1378C258.349 95.2997 258.473 95.4247 258.629 95.5128C258.788 95.598 258.976 95.6406 259.192 95.6406C259.419 95.6406 259.611 95.5923 259.767 95.4957C259.926 95.3963 260.047 95.2514 260.129 95.0611C260.212 94.8707 260.253 94.6364 260.253 94.358V88.2727ZM265.435 97.1236C265.017 97.1236 264.645 97.0511 264.318 96.9062C263.991 96.7585 263.733 96.5412 263.543 96.2543C263.355 95.9645 263.261 95.6037 263.261 95.1719C263.261 94.8082 263.328 94.5028 263.462 94.2557C263.595 94.0085 263.777 93.8097 264.007 93.6591C264.237 93.5085 264.499 93.3949 264.791 93.3182C265.087 93.2415 265.396 93.1875 265.72 93.1562C266.101 93.1165 266.408 93.0795 266.641 93.0455C266.874 93.0085 267.043 92.9545 267.148 92.8835C267.253 92.8125 267.305 92.7074 267.305 92.5682V92.5426C267.305 92.2727 267.22 92.0639 267.05 91.9162C266.882 91.7685 266.643 91.6946 266.334 91.6946C266.007 91.6946 265.747 91.767 265.554 91.9119C265.361 92.054 265.233 92.233 265.17 92.4489L263.491 92.3125C263.577 91.9148 263.744 91.571 263.994 91.2812C264.244 90.9886 264.567 90.7642 264.962 90.608C265.359 90.4489 265.82 90.3693 266.342 90.3693C266.706 90.3693 267.054 90.4119 267.386 90.4972C267.722 90.5824 268.018 90.7145 268.277 90.8935C268.538 91.0724 268.744 91.3026 268.895 91.5838C269.045 91.8622 269.121 92.196 269.121 92.5852V97H267.399V96.0923H267.348C267.243 96.2969 267.102 96.4773 266.926 96.6335C266.75 96.7869 266.538 96.9077 266.291 96.9957C266.044 97.081 265.759 97.1236 265.435 97.1236ZM265.955 95.8707C266.222 95.8707 266.457 95.8182 266.662 95.7131C266.866 95.6051 267.027 95.4602 267.143 95.2784C267.26 95.0966 267.318 94.8906 267.318 94.6605V93.9659C267.261 94.0028 267.183 94.0369 267.084 94.0682C266.987 94.0966 266.878 94.1236 266.756 94.1491C266.634 94.1719 266.511 94.1932 266.389 94.2131C266.267 94.2301 266.156 94.2457 266.057 94.2599C265.844 94.2912 265.658 94.3409 265.499 94.4091C265.339 94.4773 265.216 94.5696 265.128 94.6861C265.04 94.7997 264.996 94.9418 264.996 95.1122C264.996 95.3594 265.085 95.5483 265.264 95.679C265.446 95.8068 265.676 95.8707 265.955 95.8707ZM272.344 93.2159V97H270.529V90.4545H272.259V91.6094H272.336C272.481 91.2287 272.724 90.9276 273.065 90.706C273.406 90.4815 273.819 90.3693 274.305 90.3693C274.759 90.3693 275.156 90.4688 275.494 90.6676C275.832 90.8665 276.094 91.1506 276.282 91.5199C276.469 91.8864 276.563 92.3239 276.563 92.8324V97H274.748V93.1562C274.751 92.7557 274.648 92.4432 274.441 92.2188C274.234 91.9915 273.948 91.8778 273.585 91.8778C273.34 91.8778 273.124 91.9304 272.937 92.0355C272.752 92.1406 272.607 92.294 272.502 92.4957C272.4 92.6946 272.347 92.9347 272.344 93.2159ZM282.191 94.2131V90.4545H284.007V97H282.264V95.8111H282.196C282.048 96.1946 281.802 96.5028 281.458 96.7358C281.118 96.9687 280.701 97.0852 280.21 97.0852C279.772 97.0852 279.387 96.9858 279.055 96.7869C278.723 96.5881 278.463 96.3054 278.275 95.9389C278.091 95.5724 277.997 95.1335 277.994 94.6222V90.4545H279.809V94.2983C279.812 94.6847 279.916 94.9901 280.12 95.2145C280.325 95.4389 280.599 95.5511 280.943 95.5511C281.162 95.5511 281.366 95.5014 281.556 95.402C281.747 95.2997 281.9 95.1491 282.017 94.9503C282.136 94.7514 282.194 94.5057 282.191 94.2131ZM287.325 97.1236C286.908 97.1236 286.536 97.0511 286.209 96.9062C285.882 96.7585 285.624 96.5412 285.433 96.2543C285.246 95.9645 285.152 95.6037 285.152 95.1719C285.152 94.8082 285.219 94.5028 285.352 94.2557C285.486 94.0085 285.668 93.8097 285.898 93.6591C286.128 93.5085 286.389 93.3949 286.682 93.3182C286.977 93.2415 287.287 93.1875 287.611 93.1562C287.991 93.1165 288.298 93.0795 288.531 93.0455C288.764 93.0085 288.933 92.9545 289.038 92.8835C289.143 92.8125 289.196 92.7074 289.196 92.5682V92.5426C289.196 92.2727 289.111 92.0639 288.94 91.9162C288.773 91.7685 288.534 91.6946 288.224 91.6946C287.898 91.6946 287.638 91.767 287.445 91.9119C287.251 92.054 287.124 92.233 287.061 92.4489L285.382 92.3125C285.467 91.9148 285.635 91.571 285.885 91.2812C286.135 90.9886 286.457 90.7642 286.852 90.608C287.25 90.4489 287.71 90.3693 288.233 90.3693C288.597 90.3693 288.945 90.4119 289.277 90.4972C289.612 90.5824 289.909 90.7145 290.168 90.8935C290.429 91.0724 290.635 91.3026 290.786 91.5838C290.936 91.8622 291.011 92.196 291.011 92.5852V97H289.29V96.0923H289.239C289.134 96.2969 288.993 96.4773 288.817 96.6335C288.641 96.7869 288.429 96.9077 288.182 96.9957C287.935 97.081 287.649 97.1236 287.325 97.1236ZM287.845 95.8707C288.112 95.8707 288.348 95.8182 288.553 95.7131C288.757 95.6051 288.918 95.4602 289.034 95.2784C289.151 95.0966 289.209 94.8906 289.209 94.6605V93.9659C289.152 94.0028 289.074 94.0369 288.974 94.0682C288.878 94.0966 288.768 94.1236 288.646 94.1491C288.524 94.1719 288.402 94.1932 288.28 94.2131C288.158 94.2301 288.047 94.2457 287.947 94.2599C287.734 94.2912 287.548 94.3409 287.389 94.4091C287.23 94.4773 287.107 94.5696 287.018 94.6861C286.93 94.7997 286.886 94.9418 286.886 95.1122C286.886 95.3594 286.976 95.5483 287.155 95.679C287.337 95.8068 287.567 95.8707 287.845 95.8707ZM292.42 97V90.4545H294.18V91.5966H294.248C294.367 91.1903 294.567 90.8835 294.849 90.6761C295.13 90.4659 295.454 90.3608 295.82 90.3608C295.911 90.3608 296.009 90.3665 296.114 90.3778C296.219 90.3892 296.312 90.4048 296.391 90.4247V92.0355C296.306 92.0099 296.188 91.9872 296.038 91.9673C295.887 91.9474 295.749 91.9375 295.624 91.9375C295.357 91.9375 295.119 91.9957 294.908 92.1122C294.701 92.2259 294.536 92.3849 294.414 92.5895C294.295 92.794 294.235 93.0298 294.235 93.2969V97H292.42ZM298.65 99.4545C298.42 99.4545 298.204 99.4361 298.002 99.3991C297.803 99.3651 297.638 99.321 297.508 99.267L297.917 97.9119C298.13 97.9773 298.322 98.0128 298.492 98.0185C298.665 98.0241 298.815 97.9844 298.94 97.8991C299.067 97.8139 299.171 97.669 299.251 97.4645L299.357 97.1875L297.009 90.4545H298.918L300.273 95.2614H300.342L301.71 90.4545H303.631L301.087 97.7074C300.965 98.0597 300.799 98.3665 300.589 98.6278C300.381 98.892 300.119 99.0952 299.8 99.2372C299.482 99.3821 299.099 99.4545 298.65 99.4545ZM311.118 88.2727V97H309.272V90.0241H309.221L307.223 91.277V89.6406L309.383 88.2727H311.118ZM316.541 97.1193C316.092 97.1165 315.659 97.0412 315.241 96.8935C314.827 96.7457 314.455 96.5057 314.125 96.1733C313.795 95.8409 313.534 95.4006 313.341 94.8523C313.151 94.304 313.055 93.6307 313.055 92.8324C313.058 92.0994 313.142 91.4446 313.307 90.8679C313.474 90.2884 313.713 89.7969 314.023 89.3935C314.335 88.9901 314.709 88.6832 315.143 88.473C315.578 88.2599 316.065 88.1534 316.605 88.1534C317.188 88.1534 317.702 88.267 318.148 88.4943C318.594 88.7187 318.952 89.0241 319.222 89.4105C319.494 89.7969 319.659 90.2301 319.716 90.7102H317.896C317.825 90.4062 317.676 90.1676 317.449 89.9943C317.222 89.821 316.94 89.7344 316.605 89.7344C316.037 89.7344 315.605 89.9815 315.31 90.4759C315.017 90.9702 314.868 91.642 314.862 92.4915H314.922C315.053 92.233 315.229 92.0128 315.45 91.831C315.675 91.6463 315.929 91.5057 316.213 91.4091C316.5 91.3097 316.803 91.2599 317.121 91.2599C317.638 91.2599 318.098 91.3821 318.501 91.6264C318.905 91.8679 319.223 92.2003 319.456 92.6236C319.689 93.0469 319.805 93.5312 319.805 94.0767C319.805 94.6676 319.668 95.1932 319.392 95.6534C319.119 96.1136 318.737 96.4744 318.246 96.7358C317.757 96.9943 317.189 97.1222 316.541 97.1193ZM316.533 95.6705C316.817 95.6705 317.071 95.6023 317.295 95.4659C317.52 95.3295 317.696 95.1449 317.824 94.9119C317.952 94.679 318.016 94.4176 318.016 94.1278C318.016 93.8381 317.952 93.5781 317.824 93.348C317.699 93.1179 317.526 92.9347 317.304 92.7983C317.082 92.6619 316.83 92.5938 316.545 92.5938C316.332 92.5938 316.135 92.6335 315.953 92.7131C315.774 92.7926 315.616 92.9034 315.48 93.0455C315.347 93.1875 315.241 93.3523 315.165 93.5398C315.088 93.7244 315.05 93.9219 315.05 94.1321C315.05 94.4134 315.114 94.6705 315.241 94.9034C315.372 95.1364 315.548 95.3224 315.77 95.4616C315.994 95.6009 316.249 95.6705 316.533 95.6705ZM322.74 95.8068L322.694 96.2756C322.657 96.6506 322.586 97.0241 322.48 97.3963C322.378 97.7713 322.27 98.1108 322.157 98.4148C322.046 98.7188 321.956 98.9574 321.888 99.1307H320.712C320.755 98.9631 320.813 98.7287 320.887 98.4276C320.961 98.1293 321.03 97.794 321.096 97.4219C321.161 97.0497 321.202 96.6705 321.219 96.2841L321.24 95.8068H322.74ZM326.75 97V95.6705L329.857 92.794C330.121 92.5384 330.343 92.3082 330.522 92.1037C330.703 91.8991 330.841 91.6989 330.935 91.5028C331.029 91.304 331.076 91.0895 331.076 90.8594C331.076 90.6037 331.017 90.3835 330.901 90.1989C330.784 90.0114 330.625 89.8679 330.424 89.7685C330.222 89.6662 329.993 89.6151 329.738 89.6151C329.471 89.6151 329.238 89.669 329.039 89.777C328.84 89.8849 328.686 90.0398 328.578 90.2415C328.471 90.4432 328.417 90.6832 328.417 90.9616H326.665C326.665 90.3906 326.794 89.8949 327.053 89.4744C327.311 89.054 327.674 88.7287 328.14 88.4986C328.605 88.2685 329.142 88.1534 329.75 88.1534C330.375 88.1534 330.919 88.2642 331.382 88.4858C331.848 88.7045 332.211 89.0085 332.469 89.3977C332.728 89.7869 332.857 90.233 332.857 90.7358C332.857 91.0653 332.792 91.3906 332.661 91.7116C332.533 92.0327 332.304 92.3892 331.975 92.7812C331.645 93.1705 331.181 93.6378 330.581 94.1832L329.307 95.4318V95.4915H332.972V97H326.75ZM337.731 97.1918C336.998 97.1889 336.367 97.0085 335.839 96.6506C335.313 96.2926 334.908 95.7741 334.624 95.0952C334.343 94.4162 334.204 93.5994 334.207 92.6449C334.207 91.6932 334.347 90.8821 334.629 90.2116C334.913 89.5412 335.317 89.0312 335.843 88.6818C336.371 88.3295 337.001 88.1534 337.731 88.1534C338.461 88.1534 339.089 88.3295 339.614 88.6818C340.143 89.0341 340.549 89.5455 340.833 90.2159C341.117 90.8835 341.258 91.6932 341.255 92.6449C341.255 93.6023 341.113 94.4205 340.829 95.0994C340.548 95.7784 340.144 96.2969 339.619 96.6548C339.093 97.0128 338.464 97.1918 337.731 97.1918ZM337.731 95.6619C338.231 95.6619 338.63 95.4105 338.928 94.9077C339.227 94.4048 339.374 93.6506 339.371 92.6449C339.371 91.983 339.303 91.4318 339.167 90.9915C339.033 90.5511 338.843 90.2202 338.596 89.9986C338.352 89.777 338.063 89.6662 337.731 89.6662C337.234 89.6662 336.836 89.9148 336.538 90.4119C336.239 90.9091 336.089 91.6534 336.086 92.6449C336.086 93.3153 336.153 93.875 336.286 94.3239C336.423 94.7699 336.614 95.1051 336.862 95.3295C337.109 95.5511 337.398 95.6619 337.731 95.6619ZM342.571 97V95.6705L345.677 92.794C345.941 92.5384 346.163 92.3082 346.342 92.1037C346.524 91.8991 346.662 91.6989 346.755 91.5028C346.849 91.304 346.896 91.0895 346.896 90.8594C346.896 90.6037 346.838 90.3835 346.721 90.1989C346.605 90.0114 346.446 89.8679 346.244 89.7685C346.042 89.6662 345.814 89.6151 345.558 89.6151C345.291 89.6151 345.058 89.669 344.859 89.777C344.66 89.8849 344.507 90.0398 344.399 90.2415C344.291 90.4432 344.237 90.6832 344.237 90.9616H342.485C342.485 90.3906 342.615 89.8949 342.873 89.4744C343.132 89.054 343.494 88.7287 343.96 88.4986C344.426 88.2685 344.963 88.1534 345.571 88.1534C346.196 88.1534 346.74 88.2642 347.203 88.4858C347.669 88.7045 348.031 89.0085 348.289 89.3977C348.548 89.7869 348.677 90.233 348.677 90.7358C348.677 91.0653 348.612 91.3906 348.481 91.7116C348.353 92.0327 348.125 92.3892 347.795 92.7812C347.466 93.1705 347.001 93.6378 346.402 94.1832L345.127 95.4318V95.4915H348.792V97H342.571ZM353.551 97.1918C352.818 97.1889 352.188 97.0085 351.659 96.6506C351.134 96.2926 350.729 95.7741 350.445 95.0952C350.163 94.4162 350.024 93.5994 350.027 92.6449C350.027 91.6932 350.168 90.8821 350.449 90.2116C350.733 89.5412 351.138 89.0312 351.663 88.6818C352.192 88.3295 352.821 88.1534 353.551 88.1534C354.281 88.1534 354.909 88.3295 355.435 88.6818C355.963 89.0341 356.369 89.5455 356.653 90.2159C356.938 90.8835 357.078 91.6932 357.075 92.6449C357.075 93.6023 356.933 94.4205 356.649 95.0994C356.368 95.7784 355.964 96.2969 355.439 96.6548C354.913 97.0128 354.284 97.1918 353.551 97.1918ZM353.551 95.6619C354.051 95.6619 354.45 95.4105 354.749 94.9077C355.047 94.4048 355.195 93.6506 355.192 92.6449C355.192 91.983 355.124 91.4318 354.987 90.9915C354.854 90.5511 354.663 90.2202 354.416 89.9986C354.172 89.777 353.884 89.6662 353.551 89.6662C353.054 89.6662 352.656 89.9148 352.358 90.4119C352.06 90.9091 351.909 91.6534 351.906 92.6449C351.906 93.3153 351.973 93.875 352.107 94.3239C352.243 94.7699 352.435 95.1051 352.682 95.3295C352.929 95.5511 353.219 95.6619 353.551 95.6619Z" fill="#62748E"/>
<rect x="256" y="107" width="144" height="1" fill="#E2E8F0"/>
<rect x="256" y="116.5" width="14" height="14" rx="4" fill="#7CCF00"/>
<path d="M286.42 123.636C286.42 124.557 286.254 125.352 285.922 126.023C285.589 126.693 285.134 127.21 284.554 127.574C283.974 127.938 283.313 128.119 282.568 128.119C281.824 128.119 281.162 127.938 280.582 127.574C280.003 127.21 279.547 126.693 279.214 126.023C278.882 125.352 278.716 124.557 278.716 123.636C278.716 122.716 278.882 121.92 279.214 121.25C279.547 120.58 280.003 120.062 280.582 119.699C281.162 119.335 281.824 119.153 282.568 119.153C283.313 119.153 283.974 119.335 284.554 119.699C285.134 120.062 285.589 120.58 285.922 121.25C286.254 121.92 286.42 122.716 286.42 123.636ZM285.398 123.636C285.398 122.881 285.271 122.243 285.018 121.723C284.768 121.203 284.429 120.81 284 120.543C283.574 120.276 283.097 120.142 282.568 120.142C282.04 120.142 281.561 120.276 281.132 120.543C280.706 120.81 280.366 121.203 280.114 121.723C279.864 122.243 279.739 122.881 279.739 123.636C279.739 124.392 279.864 125.03 280.114 125.55C280.366 126.07 280.706 126.463 281.132 126.73C281.561 126.997 282.04 127.131 282.568 127.131C283.097 127.131 283.574 126.997 284 126.73C284.429 126.463 284.768 126.07 285.018 125.55C285.271 125.03 285.398 124.392 285.398 123.636ZM289.067 124.062V128H288.061V121.455H289.033V122.477H289.118C289.271 122.145 289.504 121.878 289.817 121.676C290.129 121.472 290.533 121.369 291.027 121.369C291.47 121.369 291.858 121.46 292.19 121.642C292.523 121.821 292.781 122.094 292.966 122.46C293.151 122.824 293.243 123.284 293.243 123.841V128H292.237V123.909C292.237 123.395 292.104 122.994 291.837 122.707C291.57 122.418 291.203 122.273 290.737 122.273C290.416 122.273 290.129 122.342 289.876 122.482C289.626 122.621 289.429 122.824 289.284 123.091C289.139 123.358 289.067 123.682 289.067 124.062ZM303.365 121.455C303.314 121.023 303.106 120.688 302.743 120.449C302.379 120.21 301.933 120.091 301.404 120.091C301.018 120.091 300.68 120.153 300.39 120.278C300.103 120.403 299.879 120.575 299.717 120.794C299.558 121.013 299.478 121.261 299.478 121.54C299.478 121.773 299.534 121.973 299.645 122.141C299.758 122.305 299.903 122.443 300.079 122.554C300.255 122.662 300.44 122.751 300.633 122.822C300.826 122.891 301.004 122.946 301.166 122.989L302.052 123.227C302.279 123.287 302.532 123.369 302.811 123.474C303.092 123.58 303.36 123.723 303.616 123.905C303.875 124.084 304.088 124.314 304.255 124.595C304.423 124.876 304.507 125.222 304.507 125.631C304.507 126.102 304.383 126.528 304.136 126.909C303.892 127.29 303.534 127.592 303.062 127.817C302.593 128.041 302.024 128.153 301.353 128.153C300.728 128.153 300.187 128.053 299.73 127.851C299.275 127.649 298.917 127.368 298.656 127.007C298.397 126.646 298.251 126.227 298.217 125.75H299.308C299.336 126.08 299.447 126.352 299.64 126.568C299.836 126.781 300.083 126.94 300.382 127.045C300.683 127.148 301.007 127.199 301.353 127.199C301.757 127.199 302.119 127.134 302.44 127.003C302.761 126.869 303.015 126.685 303.203 126.449C303.39 126.21 303.484 125.932 303.484 125.614C303.484 125.324 303.403 125.088 303.241 124.906C303.079 124.724 302.866 124.577 302.602 124.463C302.338 124.349 302.052 124.25 301.745 124.165L300.672 123.858C299.99 123.662 299.45 123.382 299.052 123.018C298.654 122.655 298.456 122.179 298.456 121.591C298.456 121.102 298.588 120.676 298.852 120.312C299.119 119.946 299.477 119.662 299.926 119.46C300.377 119.256 300.882 119.153 301.439 119.153C302.001 119.153 302.501 119.254 302.939 119.456C303.376 119.655 303.723 119.928 303.978 120.274C304.237 120.621 304.373 121.014 304.387 121.455H303.365ZM308.767 128.136C308.153 128.136 307.625 127.991 307.182 127.702C306.739 127.412 306.398 127.013 306.159 126.504C305.92 125.996 305.801 125.415 305.801 124.761C305.801 124.097 305.923 123.51 306.168 123.001C306.415 122.49 306.759 122.091 307.199 121.804C307.642 121.514 308.159 121.369 308.75 121.369C309.21 121.369 309.625 121.455 309.994 121.625C310.364 121.795 310.666 122.034 310.902 122.341C311.138 122.648 311.284 123.006 311.341 123.415H310.335C310.259 123.116 310.088 122.852 309.824 122.622C309.563 122.389 309.21 122.273 308.767 122.273C308.375 122.273 308.031 122.375 307.736 122.58C307.443 122.781 307.214 123.067 307.05 123.436C306.888 123.803 306.807 124.233 306.807 124.727C306.807 125.233 306.886 125.673 307.045 126.048C307.207 126.423 307.435 126.714 307.727 126.922C308.023 127.129 308.369 127.233 308.767 127.233C309.028 127.233 309.266 127.188 309.479 127.097C309.692 127.006 309.872 126.875 310.02 126.705C310.168 126.534 310.273 126.33 310.335 126.091H311.341C311.284 126.477 311.143 126.825 310.919 127.135C310.697 127.442 310.403 127.686 310.037 127.868C309.673 128.047 309.25 128.136 308.767 128.136ZM313.817 124.062V128H312.811V119.273H313.817V122.477H313.902C314.055 122.139 314.286 121.871 314.592 121.672C314.902 121.47 315.314 121.369 315.828 121.369C316.274 121.369 316.665 121.459 317 121.638C317.335 121.814 317.595 122.085 317.78 122.452C317.967 122.815 318.061 123.278 318.061 123.841V128H317.055V123.909C317.055 123.389 316.92 122.987 316.651 122.703C316.384 122.416 316.013 122.273 315.538 122.273C315.209 122.273 314.913 122.342 314.652 122.482C314.393 122.621 314.189 122.824 314.038 123.091C313.891 123.358 313.817 123.682 313.817 124.062ZM322.645 128.136C322.015 128.136 321.471 127.997 321.013 127.719C320.559 127.438 320.208 127.045 319.961 126.543C319.716 126.037 319.594 125.449 319.594 124.778C319.594 124.108 319.716 123.517 319.961 123.006C320.208 122.491 320.551 122.091 320.992 121.804C321.435 121.514 321.952 121.369 322.543 121.369C322.884 121.369 323.221 121.426 323.553 121.54C323.885 121.653 324.188 121.838 324.461 122.094C324.733 122.347 324.951 122.682 325.113 123.099C325.275 123.517 325.355 124.031 325.355 124.642V125.068H320.31V124.199H324.333C324.333 123.83 324.259 123.5 324.111 123.21C323.966 122.92 323.759 122.692 323.489 122.524C323.222 122.357 322.907 122.273 322.543 122.273C322.142 122.273 321.796 122.372 321.503 122.571C321.213 122.767 320.99 123.023 320.834 123.338C320.678 123.653 320.6 123.991 320.6 124.352V124.932C320.6 125.426 320.685 125.845 320.855 126.189C321.029 126.53 321.269 126.79 321.576 126.969C321.882 127.145 322.239 127.233 322.645 127.233C322.909 127.233 323.148 127.196 323.361 127.122C323.577 127.045 323.763 126.932 323.919 126.781C324.076 126.628 324.196 126.437 324.282 126.21L325.253 126.483C325.151 126.812 324.979 127.102 324.738 127.352C324.496 127.599 324.198 127.793 323.843 127.932C323.488 128.068 323.088 128.136 322.645 128.136ZM329.357 128.136C328.811 128.136 328.33 127.999 327.912 127.723C327.495 127.445 327.168 127.053 326.932 126.547C326.696 126.038 326.578 125.438 326.578 124.744C326.578 124.057 326.696 123.46 326.932 122.955C327.168 122.449 327.496 122.058 327.917 121.783C328.337 121.507 328.823 121.369 329.374 121.369C329.8 121.369 330.137 121.44 330.384 121.582C330.634 121.722 330.824 121.881 330.955 122.06C331.088 122.236 331.192 122.381 331.266 122.494H331.351V119.273H332.357V128H331.385V126.994H331.266C331.192 127.114 331.087 127.264 330.951 127.446C330.814 127.625 330.62 127.786 330.367 127.928C330.114 128.067 329.777 128.136 329.357 128.136ZM329.493 127.233C329.897 127.233 330.238 127.128 330.516 126.918C330.794 126.705 331.006 126.411 331.151 126.036C331.296 125.658 331.368 125.222 331.368 124.727C331.368 124.239 331.297 123.811 331.155 123.445C331.013 123.075 330.803 122.788 330.525 122.584C330.246 122.376 329.902 122.273 329.493 122.273C329.067 122.273 328.712 122.382 328.428 122.601C328.147 122.817 327.935 123.111 327.793 123.483C327.654 123.852 327.584 124.267 327.584 124.727C327.584 125.193 327.655 125.616 327.797 125.997C327.942 126.375 328.155 126.676 328.436 126.901C328.721 127.122 329.073 127.233 329.493 127.233ZM338.463 125.324V121.455H339.469V128H338.463V126.892H338.395C338.242 127.224 338.003 127.507 337.679 127.74C337.355 127.97 336.946 128.085 336.452 128.085C336.043 128.085 335.679 127.996 335.361 127.817C335.043 127.635 334.793 127.362 334.611 126.999C334.429 126.632 334.338 126.17 334.338 125.614V121.455H335.344V125.545C335.344 126.023 335.478 126.403 335.745 126.688C336.015 126.972 336.358 127.114 336.776 127.114C337.026 127.114 337.28 127.05 337.539 126.922C337.8 126.794 338.019 126.598 338.195 126.334C338.374 126.07 338.463 125.733 338.463 125.324ZM342.317 119.273V128H341.311V119.273H342.317ZM346.903 128.136C346.272 128.136 345.728 127.997 345.271 127.719C344.816 127.438 344.466 127.045 344.218 126.543C343.974 126.037 343.852 125.449 343.852 124.778C343.852 124.108 343.974 123.517 344.218 123.006C344.466 122.491 344.809 122.091 345.25 121.804C345.693 121.514 346.21 121.369 346.801 121.369C347.142 121.369 347.478 121.426 347.811 121.54C348.143 121.653 348.446 121.838 348.718 122.094C348.991 122.347 349.208 122.682 349.37 123.099C349.532 123.517 349.613 124.031 349.613 124.642V125.068H344.568V124.199H348.591C348.591 123.83 348.517 123.5 348.369 123.21C348.224 122.92 348.017 122.692 347.747 122.524C347.48 122.357 347.164 122.273 346.801 122.273C346.4 122.273 346.054 122.372 345.761 122.571C345.471 122.767 345.248 123.023 345.092 123.338C344.936 123.653 344.858 123.991 344.858 124.352V124.932C344.858 125.426 344.943 125.845 345.113 126.189C345.287 126.53 345.527 126.79 345.833 126.969C346.14 127.145 346.497 127.233 346.903 127.233C347.167 127.233 347.406 127.196 347.619 127.122C347.835 127.045 348.021 126.932 348.177 126.781C348.333 126.628 348.454 126.437 348.539 126.21L349.511 126.483C349.409 126.812 349.237 127.102 348.995 127.352C348.754 127.599 348.456 127.793 348.1 127.932C347.745 128.068 347.346 128.136 346.903 128.136Z" fill="#62748E"/>
<path d="M384.972 119.273V128H383.915V120.381H383.864L381.733 121.795V120.722L383.915 119.273H384.972ZM390.55 119.273V128H389.493V120.381H389.442L387.311 121.795V120.722L389.493 119.273H390.55ZM392.855 126.21V125.341L396.69 119.273H397.321V120.619H396.895L393.997 125.205V125.273H399.162V126.21H392.855ZM396.963 128V125.946V125.541V119.273H397.969V128H396.963Z" fill="#62748E"/>
<rect x="256" y="139.5" width="14" height="14" rx="4" fill="#2B7FFF"/>
<path d="M284.784 142.273H285.841V148.051C285.841 148.648 285.7 149.18 285.419 149.649C285.141 150.115 284.747 150.483 284.239 150.753C283.73 151.02 283.134 151.153 282.449 151.153C281.764 151.153 281.168 151.02 280.659 150.753C280.151 150.483 279.756 150.115 279.474 149.649C279.196 149.18 279.057 148.648 279.057 148.051V142.273H280.114V147.966C280.114 148.392 280.207 148.771 280.395 149.104C280.582 149.433 280.849 149.693 281.196 149.884C281.545 150.071 281.963 150.165 282.449 150.165C282.935 150.165 283.352 150.071 283.702 149.884C284.051 149.693 284.318 149.433 284.503 149.104C284.69 148.771 284.784 148.392 284.784 147.966V142.273ZM287.815 153.455V144.455H288.787V145.494H288.906C288.98 145.381 289.082 145.236 289.213 145.06C289.346 144.881 289.537 144.722 289.784 144.582C290.034 144.44 290.372 144.369 290.798 144.369C291.349 144.369 291.835 144.507 292.255 144.783C292.676 145.058 293.004 145.449 293.24 145.955C293.475 146.46 293.593 147.057 293.593 147.744C293.593 148.438 293.475 149.038 293.24 149.547C293.004 150.053 292.677 150.445 292.26 150.723C291.842 150.999 291.36 151.136 290.815 151.136C290.395 151.136 290.058 151.067 289.805 150.928C289.552 150.786 289.358 150.625 289.221 150.446C289.085 150.264 288.98 150.114 288.906 149.994H288.821V153.455H287.815ZM288.804 147.727C288.804 148.222 288.876 148.658 289.021 149.036C289.166 149.411 289.377 149.705 289.656 149.918C289.934 150.128 290.275 150.233 290.679 150.233C291.099 150.233 291.45 150.122 291.731 149.901C292.015 149.676 292.228 149.375 292.37 148.997C292.515 148.616 292.588 148.193 292.588 147.727C292.588 147.267 292.517 146.852 292.375 146.483C292.235 146.111 292.024 145.817 291.74 145.601C291.458 145.382 291.105 145.273 290.679 145.273C290.27 145.273 289.926 145.376 289.647 145.584C289.369 145.788 289.159 146.075 289.017 146.445C288.875 146.811 288.804 147.239 288.804 147.727ZM297.787 151.136C297.173 151.136 296.645 150.991 296.201 150.702C295.758 150.412 295.417 150.013 295.179 149.504C294.94 148.996 294.821 148.415 294.821 147.761C294.821 147.097 294.943 146.51 295.187 146.001C295.434 145.49 295.778 145.091 296.218 144.804C296.662 144.514 297.179 144.369 297.77 144.369C298.23 144.369 298.645 144.455 299.014 144.625C299.383 144.795 299.686 145.034 299.922 145.341C300.157 145.648 300.304 146.006 300.36 146.415H299.355C299.278 146.116 299.108 145.852 298.843 145.622C298.582 145.389 298.23 145.273 297.787 145.273C297.395 145.273 297.051 145.375 296.755 145.58C296.463 145.781 296.234 146.067 296.069 146.436C295.907 146.803 295.826 147.233 295.826 147.727C295.826 148.233 295.906 148.673 296.065 149.048C296.227 149.423 296.454 149.714 296.747 149.922C297.042 150.129 297.389 150.233 297.787 150.233C298.048 150.233 298.285 150.188 298.498 150.097C298.711 150.006 298.892 149.875 299.039 149.705C299.187 149.534 299.292 149.33 299.355 149.091H300.36C300.304 149.477 300.163 149.825 299.939 150.135C299.717 150.442 299.423 150.686 299.056 150.868C298.693 151.047 298.27 151.136 297.787 151.136ZM304.49 151.136C303.899 151.136 303.38 150.996 302.934 150.714C302.491 150.433 302.145 150.04 301.895 149.534C301.647 149.028 301.524 148.437 301.524 147.761C301.524 147.08 301.647 146.484 301.895 145.976C302.145 145.467 302.491 145.072 302.934 144.791C303.38 144.51 303.899 144.369 304.49 144.369C305.081 144.369 305.598 144.51 306.041 144.791C306.487 145.072 306.833 145.467 307.081 145.976C307.331 146.484 307.456 147.08 307.456 147.761C307.456 148.437 307.331 149.028 307.081 149.534C306.833 150.04 306.487 150.433 306.041 150.714C305.598 150.996 305.081 151.136 304.49 151.136ZM304.49 150.233C304.939 150.233 305.308 150.118 305.598 149.888C305.887 149.658 306.102 149.355 306.241 148.98C306.38 148.605 306.45 148.199 306.45 147.761C306.45 147.324 306.38 146.916 306.241 146.538C306.102 146.161 305.887 145.855 305.598 145.622C305.308 145.389 304.939 145.273 304.49 145.273C304.041 145.273 303.672 145.389 303.382 145.622C303.092 145.855 302.877 146.161 302.738 146.538C302.599 146.916 302.529 147.324 302.529 147.761C302.529 148.199 302.599 148.605 302.738 148.98C302.877 149.355 303.092 149.658 303.382 149.888C303.672 150.118 304.041 150.233 304.49 150.233ZM308.991 151V144.455H309.962V145.477H310.048C310.184 145.128 310.404 144.857 310.708 144.663C311.012 144.467 311.377 144.369 311.803 144.369C312.235 144.369 312.594 144.467 312.881 144.663C313.171 144.857 313.397 145.128 313.559 145.477H313.627C313.795 145.139 314.046 144.871 314.381 144.672C314.717 144.47 315.119 144.369 315.587 144.369C316.173 144.369 316.651 144.553 317.023 144.919C317.396 145.283 317.582 145.849 317.582 146.619V151H316.576V146.619C316.576 146.136 316.444 145.791 316.18 145.584C315.915 145.376 315.604 145.273 315.246 145.273C314.786 145.273 314.43 145.412 314.177 145.69C313.924 145.966 313.798 146.315 313.798 146.739V151H312.775V146.517C312.775 146.145 312.654 145.845 312.413 145.618C312.171 145.388 311.86 145.273 311.479 145.273C311.218 145.273 310.974 145.342 310.746 145.482C310.522 145.621 310.34 145.814 310.201 146.061C310.065 146.305 309.996 146.588 309.996 146.909V151H308.991ZM319.42 151V144.455H320.426V151H319.42ZM319.932 143.364C319.736 143.364 319.567 143.297 319.425 143.163C319.286 143.03 319.216 142.869 319.216 142.682C319.216 142.494 319.286 142.334 319.425 142.2C319.567 142.067 319.736 142 319.932 142C320.128 142 320.295 142.067 320.435 142.2C320.577 142.334 320.648 142.494 320.648 142.682C320.648 142.869 320.577 143.03 320.435 143.163C320.295 143.297 320.128 143.364 319.932 143.364ZM323.274 147.062V151H322.268V144.455H323.24V145.477H323.325C323.478 145.145 323.711 144.878 324.024 144.676C324.336 144.472 324.74 144.369 325.234 144.369C325.677 144.369 326.065 144.46 326.397 144.642C326.73 144.821 326.988 145.094 327.173 145.46C327.358 145.824 327.45 146.284 327.45 146.841V151H326.444V146.909C326.444 146.395 326.311 145.994 326.044 145.707C325.777 145.418 325.41 145.273 324.944 145.273C324.623 145.273 324.336 145.342 324.083 145.482C323.833 145.621 323.636 145.824 323.491 146.091C323.346 146.358 323.274 146.682 323.274 147.062ZM331.93 153.591C331.444 153.591 331.026 153.528 330.677 153.403C330.327 153.281 330.036 153.119 329.803 152.918C329.573 152.719 329.39 152.506 329.254 152.278L330.055 151.716C330.146 151.835 330.261 151.972 330.4 152.125C330.539 152.281 330.729 152.416 330.971 152.53C331.215 152.646 331.535 152.705 331.93 152.705C332.458 152.705 332.894 152.577 333.238 152.321C333.582 152.065 333.754 151.665 333.754 151.119V149.79H333.668C333.594 149.909 333.489 150.057 333.353 150.233C333.219 150.406 333.026 150.561 332.773 150.697C332.523 150.831 332.185 150.898 331.759 150.898C331.231 150.898 330.756 150.773 330.336 150.523C329.918 150.273 329.587 149.909 329.343 149.432C329.102 148.955 328.981 148.375 328.981 147.693C328.981 147.023 329.099 146.439 329.335 145.942C329.57 145.442 329.898 145.055 330.319 144.783C330.739 144.507 331.225 144.369 331.776 144.369C332.202 144.369 332.54 144.44 332.79 144.582C333.043 144.722 333.237 144.881 333.37 145.06C333.506 145.236 333.612 145.381 333.685 145.494H333.788V144.455H334.759V151.188C334.759 151.75 334.631 152.207 334.376 152.56C334.123 152.915 333.782 153.175 333.353 153.339C332.927 153.507 332.452 153.591 331.93 153.591ZM331.896 149.994C332.299 149.994 332.64 149.902 332.918 149.717C333.197 149.533 333.408 149.267 333.553 148.92C333.698 148.574 333.771 148.159 333.771 147.676C333.771 147.205 333.7 146.788 333.558 146.428C333.415 146.067 333.205 145.784 332.927 145.58C332.648 145.375 332.305 145.273 331.896 145.273C331.469 145.273 331.114 145.381 330.83 145.597C330.549 145.812 330.337 146.102 330.195 146.466C330.056 146.83 329.987 147.233 329.987 147.676C329.987 148.131 330.058 148.533 330.2 148.882C330.344 149.229 330.558 149.501 330.839 149.7C331.123 149.896 331.475 149.994 331.896 149.994Z" fill="#62748E"/>
<path d="M388.852 151.119C388.29 151.119 387.788 151.023 387.348 150.83C386.911 150.636 386.563 150.368 386.304 150.024C386.048 149.678 385.909 149.276 385.886 148.818H386.96C386.983 149.099 387.08 149.342 387.25 149.547C387.42 149.749 387.643 149.905 387.919 150.016C388.195 150.126 388.5 150.182 388.835 150.182C389.21 150.182 389.543 150.116 389.832 149.986C390.122 149.855 390.349 149.673 390.514 149.44C390.679 149.207 390.761 148.938 390.761 148.631C390.761 148.31 390.682 148.027 390.523 147.783C390.364 147.536 390.131 147.342 389.824 147.203C389.517 147.064 389.142 146.994 388.699 146.994H388V146.057H388.699C389.045 146.057 389.349 145.994 389.611 145.869C389.875 145.744 390.081 145.568 390.229 145.341C390.379 145.114 390.455 144.847 390.455 144.54C390.455 144.244 390.389 143.987 390.259 143.768C390.128 143.55 389.943 143.379 389.705 143.257C389.469 143.135 389.19 143.074 388.869 143.074C388.568 143.074 388.284 143.129 388.017 143.24C387.753 143.348 387.537 143.506 387.369 143.713C387.202 143.918 387.111 144.165 387.097 144.455H386.074C386.091 143.997 386.229 143.597 386.487 143.253C386.746 142.906 387.084 142.636 387.501 142.443C387.922 142.25 388.384 142.153 388.886 142.153C389.426 142.153 389.889 142.263 390.276 142.482C390.662 142.697 390.959 142.983 391.166 143.338C391.374 143.693 391.477 144.077 391.477 144.489C391.477 144.98 391.348 145.399 391.089 145.746C390.834 146.092 390.486 146.332 390.045 146.466V146.534C390.597 146.625 391.027 146.859 391.337 147.237C391.646 147.612 391.801 148.077 391.801 148.631C391.801 149.105 391.672 149.531 391.413 149.909C391.158 150.284 390.808 150.58 390.365 150.795C389.922 151.011 389.418 151.119 388.852 151.119ZM396.271 151.119C395.771 151.119 395.321 151.02 394.92 150.821C394.52 150.622 394.199 150.349 393.957 150.003C393.716 149.656 393.584 149.261 393.561 148.818H394.584C394.624 149.213 394.803 149.54 395.121 149.798C395.442 150.054 395.825 150.182 396.271 150.182C396.629 150.182 396.947 150.098 397.226 149.93C397.507 149.763 397.727 149.533 397.886 149.24C398.048 148.945 398.129 148.611 398.129 148.239C398.129 147.858 398.045 147.518 397.878 147.22C397.713 146.919 397.486 146.682 397.196 146.509C396.906 146.335 396.575 146.247 396.203 146.244C395.936 146.241 395.662 146.283 395.381 146.368C395.099 146.45 394.868 146.557 394.686 146.688L393.697 146.568L394.226 142.273H398.76V143.21H395.112L394.805 145.784H394.857C395.036 145.642 395.26 145.524 395.53 145.43C395.8 145.337 396.081 145.29 396.374 145.29C396.908 145.29 397.384 145.418 397.801 145.673C398.222 145.926 398.551 146.273 398.79 146.713C399.031 147.153 399.152 147.656 399.152 148.222C399.152 148.778 399.027 149.276 398.777 149.713C398.53 150.148 398.189 150.491 397.754 150.744C397.32 150.994 396.825 151.119 396.271 151.119Z" fill="#62748E"/>
<rect x="256" y="162.5" width="14" height="14" rx="4" fill="#F0B100"/>
<path d="M279.057 174V165.273H280.114V173.062H284.17V174H279.057ZM287.597 174.153C287.182 174.153 286.805 174.075 286.467 173.919C286.129 173.76 285.861 173.531 285.662 173.233C285.463 172.932 285.364 172.568 285.364 172.142C285.364 171.767 285.438 171.463 285.585 171.23C285.733 170.994 285.93 170.81 286.178 170.676C286.425 170.543 286.697 170.443 286.996 170.378C287.297 170.31 287.599 170.256 287.903 170.216C288.301 170.165 288.624 170.126 288.871 170.101C289.121 170.072 289.303 170.026 289.416 169.96C289.533 169.895 289.591 169.781 289.591 169.619V169.585C289.591 169.165 289.476 168.838 289.246 168.605C289.018 168.372 288.673 168.256 288.21 168.256C287.73 168.256 287.354 168.361 287.081 168.571C286.808 168.781 286.616 169.006 286.506 169.244L285.551 168.903C285.722 168.506 285.949 168.196 286.233 167.974C286.52 167.75 286.832 167.594 287.17 167.506C287.511 167.415 287.847 167.369 288.176 167.369C288.386 167.369 288.628 167.395 288.901 167.446C289.176 167.494 289.442 167.595 289.697 167.749C289.956 167.902 290.17 168.134 290.341 168.443C290.511 168.753 290.597 169.168 290.597 169.688V174H289.591V173.114H289.54C289.472 173.256 289.358 173.408 289.199 173.57C289.04 173.732 288.828 173.869 288.564 173.983C288.3 174.097 287.977 174.153 287.597 174.153ZM287.75 173.25C288.148 173.25 288.483 173.172 288.756 173.016C289.031 172.859 289.239 172.658 289.378 172.411C289.52 172.163 289.591 171.903 289.591 171.631V170.71C289.548 170.761 289.455 170.808 289.31 170.851C289.168 170.891 289.003 170.926 288.815 170.957C288.631 170.986 288.45 171.011 288.274 171.034C288.101 171.054 287.96 171.071 287.852 171.085C287.591 171.119 287.347 171.175 287.119 171.251C286.895 171.325 286.713 171.437 286.574 171.588C286.438 171.736 286.369 171.937 286.369 172.193C286.369 172.543 286.499 172.807 286.757 172.986C287.018 173.162 287.349 173.25 287.75 173.25ZM295.279 167.455V168.307H291.887V167.455H295.279ZM292.875 165.886H293.881V172.125C293.881 172.409 293.922 172.622 294.005 172.764C294.09 172.903 294.198 172.997 294.328 173.045C294.462 173.091 294.603 173.114 294.75 173.114C294.861 173.114 294.952 173.108 295.023 173.097C295.094 173.082 295.151 173.071 295.194 173.062L295.398 173.966C295.33 173.991 295.235 174.017 295.113 174.043C294.99 174.071 294.836 174.085 294.648 174.085C294.364 174.085 294.086 174.024 293.813 173.902C293.543 173.78 293.319 173.594 293.14 173.344C292.963 173.094 292.875 172.778 292.875 172.398V165.886ZM299.466 174.136C298.835 174.136 298.291 173.997 297.833 173.719C297.379 173.438 297.028 173.045 296.781 172.543C296.537 172.037 296.414 171.449 296.414 170.778C296.414 170.108 296.537 169.517 296.781 169.006C297.028 168.491 297.372 168.091 297.812 167.804C298.255 167.514 298.772 167.369 299.363 167.369C299.704 167.369 300.041 167.426 300.373 167.54C300.706 167.653 301.008 167.838 301.281 168.094C301.554 168.347 301.771 168.682 301.933 169.099C302.095 169.517 302.176 170.031 302.176 170.642V171.068H297.13V170.199H301.153C301.153 169.83 301.079 169.5 300.931 169.21C300.787 168.92 300.579 168.692 300.309 168.524C300.042 168.357 299.727 168.273 299.363 168.273C298.963 168.273 298.616 168.372 298.324 168.571C298.034 168.767 297.811 169.023 297.654 169.338C297.498 169.653 297.42 169.991 297.42 170.352V170.932C297.42 171.426 297.505 171.845 297.676 172.189C297.849 172.53 298.089 172.79 298.396 172.969C298.703 173.145 299.059 173.233 299.466 173.233C299.73 173.233 299.968 173.196 300.181 173.122C300.397 173.045 300.583 172.932 300.74 172.781C300.896 172.628 301.017 172.437 301.102 172.21L302.074 172.483C301.971 172.812 301.799 173.102 301.558 173.352C301.316 173.599 301.018 173.793 300.663 173.932C300.308 174.068 299.909 174.136 299.466 174.136Z" fill="#62748E"/>
<path d="M388.631 174.119C388.131 174.119 387.68 174.02 387.28 173.821C386.879 173.622 386.558 173.349 386.317 173.003C386.075 172.656 385.943 172.261 385.92 171.818H386.943C386.983 172.213 387.162 172.54 387.48 172.798C387.801 173.054 388.185 173.182 388.631 173.182C388.989 173.182 389.307 173.098 389.585 172.93C389.866 172.763 390.087 172.533 390.246 172.24C390.408 171.945 390.489 171.611 390.489 171.239C390.489 170.858 390.405 170.518 390.237 170.22C390.072 169.919 389.845 169.682 389.555 169.509C389.266 169.335 388.935 169.247 388.562 169.244C388.295 169.241 388.021 169.283 387.74 169.368C387.459 169.45 387.227 169.557 387.045 169.688L386.057 169.568L386.585 165.273H391.119V166.21H387.472L387.165 168.784H387.216C387.395 168.642 387.619 168.524 387.889 168.43C388.159 168.337 388.44 168.29 388.733 168.29C389.267 168.29 389.743 168.418 390.161 168.673C390.581 168.926 390.911 169.273 391.149 169.713C391.391 170.153 391.511 170.656 391.511 171.222C391.511 171.778 391.386 172.276 391.136 172.713C390.889 173.148 390.548 173.491 390.114 173.744C389.679 173.994 389.185 174.119 388.631 174.119ZM395.931 174.119C395.431 174.119 394.981 174.02 394.581 173.821C394.18 173.622 393.859 173.349 393.618 173.003C393.376 172.656 393.244 172.261 393.221 171.818H394.244C394.284 172.213 394.463 172.54 394.781 172.798C395.102 173.054 395.485 173.182 395.931 173.182C396.289 173.182 396.608 173.098 396.886 172.93C397.167 172.763 397.387 172.533 397.547 172.24C397.708 171.945 397.789 171.611 397.789 171.239C397.789 170.858 397.706 170.518 397.538 170.22C397.373 169.919 397.146 169.682 396.856 169.509C396.566 169.335 396.235 169.247 395.863 169.244C395.596 169.241 395.322 169.283 395.041 169.368C394.76 169.45 394.528 169.557 394.346 169.688L393.358 169.568L393.886 165.273H398.42V166.21H394.772L394.466 168.784H394.517C394.696 168.642 394.92 168.524 395.19 168.43C395.46 168.337 395.741 168.29 396.034 168.29C396.568 168.29 397.044 168.418 397.461 168.673C397.882 168.926 398.211 169.273 398.45 169.713C398.691 170.153 398.812 170.656 398.812 171.222C398.812 171.778 398.687 172.276 398.437 172.713C398.19 173.148 397.849 173.491 397.414 173.744C396.98 173.994 396.485 174.119 395.931 174.119Z" fill="#62748E"/>
<rect x="256" y="185.5" width="14" height="14" rx="4" fill="#FB2C36"/>
<path d="M279.057 188.273H280.318L283.284 195.517H283.386L286.352 188.273H287.614V197H286.625V190.369H286.54L283.812 197H282.858L280.131 190.369H280.045V197H279.057V188.273ZM289.596 197V190.455H290.602V197H289.596ZM290.108 189.364C289.912 189.364 289.743 189.297 289.6 189.163C289.461 189.03 289.392 188.869 289.392 188.682C289.392 188.494 289.461 188.334 289.6 188.2C289.743 188.067 289.912 188 290.108 188C290.304 188 290.471 188.067 290.61 188.2C290.752 188.334 290.824 188.494 290.824 188.682C290.824 188.869 290.752 189.03 290.61 189.163C290.471 189.297 290.304 189.364 290.108 189.364ZM297.08 191.92L296.177 192.176C296.12 192.026 296.036 191.879 295.925 191.737C295.817 191.592 295.67 191.473 295.482 191.379C295.295 191.286 295.055 191.239 294.762 191.239C294.362 191.239 294.028 191.331 293.761 191.516C293.496 191.697 293.364 191.929 293.364 192.21C293.364 192.46 293.455 192.658 293.637 192.803C293.819 192.947 294.103 193.068 294.489 193.165L295.461 193.403C296.046 193.545 296.482 193.763 296.769 194.055C297.056 194.345 297.2 194.719 297.2 195.176C297.2 195.551 297.092 195.886 296.876 196.182C296.663 196.477 296.364 196.71 295.981 196.881C295.597 197.051 295.151 197.136 294.643 197.136C293.975 197.136 293.423 196.991 292.985 196.702C292.548 196.412 292.271 195.989 292.154 195.432L293.109 195.193C293.2 195.545 293.371 195.81 293.624 195.986C293.88 196.162 294.214 196.25 294.626 196.25C295.094 196.25 295.467 196.151 295.742 195.952C296.021 195.75 296.16 195.509 296.16 195.227C296.16 195 296.08 194.81 295.921 194.656C295.762 194.5 295.518 194.384 295.188 194.307L294.097 194.051C293.498 193.909 293.058 193.689 292.776 193.391C292.498 193.089 292.359 192.713 292.359 192.261C292.359 191.892 292.462 191.565 292.67 191.281C292.88 190.997 293.165 190.774 293.526 190.612C293.89 190.45 294.302 190.369 294.762 190.369C295.41 190.369 295.918 190.511 296.288 190.795C296.66 191.08 296.924 191.455 297.08 191.92ZM303.35 191.92L302.446 192.176C302.39 192.026 302.306 191.879 302.195 191.737C302.087 191.592 301.939 191.473 301.752 191.379C301.564 191.286 301.324 191.239 301.032 191.239C300.631 191.239 300.297 191.331 300.03 191.516C299.766 191.697 299.634 191.929 299.634 192.21C299.634 192.46 299.725 192.658 299.907 192.803C300.088 192.947 300.373 193.068 300.759 193.165L301.73 193.403C302.316 193.545 302.752 193.763 303.039 194.055C303.326 194.345 303.469 194.719 303.469 195.176C303.469 195.551 303.361 195.886 303.145 196.182C302.932 196.477 302.634 196.71 302.25 196.881C301.867 197.051 301.421 197.136 300.912 197.136C300.245 197.136 299.692 196.991 299.255 196.702C298.817 196.412 298.54 195.989 298.424 195.432L299.378 195.193C299.469 195.545 299.641 195.81 299.894 195.986C300.15 196.162 300.483 196.25 300.895 196.25C301.364 196.25 301.736 196.151 302.012 195.952C302.29 195.75 302.429 195.509 302.429 195.227C302.429 195 302.35 194.81 302.191 194.656C302.032 194.5 301.787 194.384 301.458 194.307L300.367 194.051C299.767 193.909 299.327 193.689 299.046 193.391C298.767 193.089 298.628 192.713 298.628 192.261C298.628 191.892 298.732 191.565 298.939 191.281C299.15 190.997 299.435 190.774 299.796 190.612C300.159 190.45 300.571 190.369 301.032 190.369C301.679 190.369 302.188 190.511 302.557 190.795C302.929 191.08 303.194 191.455 303.35 191.92ZM307.727 197.136C307.097 197.136 306.553 196.997 306.095 196.719C305.641 196.438 305.29 196.045 305.043 195.543C304.798 195.037 304.676 194.449 304.676 193.778C304.676 193.108 304.798 192.517 305.043 192.006C305.29 191.491 305.634 191.091 306.074 190.804C306.517 190.514 307.034 190.369 307.625 190.369C307.966 190.369 308.303 190.426 308.635 190.54C308.967 190.653 309.27 190.838 309.543 191.094C309.815 191.347 310.033 191.682 310.195 192.099C310.357 192.517 310.438 193.031 310.438 193.642V194.068H305.392V193.199H309.415C309.415 192.83 309.341 192.5 309.193 192.21C309.048 191.92 308.841 191.692 308.571 191.524C308.304 191.357 307.989 191.273 307.625 191.273C307.224 191.273 306.878 191.372 306.585 191.571C306.295 191.767 306.072 192.023 305.916 192.338C305.76 192.653 305.682 192.991 305.682 193.352V193.932C305.682 194.426 305.767 194.845 305.938 195.189C306.111 195.53 306.351 195.79 306.658 195.969C306.964 196.145 307.321 196.233 307.727 196.233C307.991 196.233 308.23 196.196 308.443 196.122C308.659 196.045 308.845 195.932 309.001 195.781C309.158 195.628 309.278 195.437 309.364 195.21L310.335 195.483C310.233 195.812 310.061 196.102 309.82 196.352C309.578 196.599 309.28 196.793 308.925 196.932C308.57 197.068 308.17 197.136 307.727 197.136ZM314.439 197.136C313.893 197.136 313.412 196.999 312.994 196.723C312.577 196.445 312.25 196.053 312.014 195.547C311.778 195.038 311.661 194.438 311.661 193.744C311.661 193.057 311.778 192.46 312.014 191.955C312.25 191.449 312.578 191.058 312.999 190.783C313.419 190.507 313.905 190.369 314.456 190.369C314.882 190.369 315.219 190.44 315.466 190.582C315.716 190.722 315.906 190.881 316.037 191.06C316.17 191.236 316.274 191.381 316.348 191.494H316.433V188.273H317.439V197H316.467V195.994H316.348C316.274 196.114 316.169 196.264 316.033 196.446C315.896 196.625 315.702 196.786 315.449 196.928C315.196 197.067 314.859 197.136 314.439 197.136ZM314.575 196.233C314.979 196.233 315.32 196.128 315.598 195.918C315.876 195.705 316.088 195.411 316.233 195.036C316.378 194.658 316.45 194.222 316.45 193.727C316.45 193.239 316.379 192.811 316.237 192.445C316.095 192.075 315.885 191.788 315.607 191.584C315.328 191.376 314.984 191.273 314.575 191.273C314.149 191.273 313.794 191.382 313.51 191.601C313.229 191.817 313.017 192.111 312.875 192.483C312.736 192.852 312.666 193.267 312.666 193.727C312.666 194.193 312.737 194.616 312.879 194.997C313.024 195.375 313.237 195.676 313.518 195.901C313.803 196.122 314.155 196.233 314.575 196.233Z" fill="#62748E"/>
<path d="M391.972 188.273V197H390.915V189.381H390.864L388.733 190.795V189.722L390.915 188.273H391.972ZM397.55 188.273V197H396.493V189.381H396.442L394.311 190.795V189.722L396.493 188.273H397.55Z" fill="#62748E"/>
<path d="M278.426 212.794V211.273H285.594V212.794H282.922V220H281.098V212.794H278.426ZM288.748 220.128C288.086 220.128 287.514 219.987 287.031 219.706C286.551 219.422 286.18 219.027 285.919 218.521C285.657 218.013 285.527 217.423 285.527 216.753C285.527 216.077 285.657 215.486 285.919 214.98C286.18 214.472 286.551 214.077 287.031 213.795C287.514 213.511 288.086 213.369 288.748 213.369C289.41 213.369 289.981 213.511 290.461 213.795C290.944 214.077 291.316 214.472 291.578 214.98C291.839 215.486 291.97 216.077 291.97 216.753C291.97 217.423 291.839 218.013 291.578 218.521C291.316 219.027 290.944 219.422 290.461 219.706C289.981 219.987 289.41 220.128 288.748 220.128ZM288.757 218.722C289.058 218.722 289.309 218.636 289.511 218.466C289.713 218.293 289.865 218.057 289.967 217.759C290.072 217.46 290.125 217.121 290.125 216.74C290.125 216.359 290.072 216.02 289.967 215.722C289.865 215.423 289.713 215.187 289.511 215.014C289.309 214.841 289.058 214.754 288.757 214.754C288.453 214.754 288.197 214.841 287.99 215.014C287.785 215.187 287.63 215.423 287.525 215.722C287.423 216.02 287.372 216.359 287.372 216.74C287.372 217.121 287.423 217.46 287.525 217.759C287.63 218.057 287.785 218.293 287.99 218.466C288.197 218.636 288.453 218.722 288.757 218.722ZM296.632 213.455V214.818H292.69V213.455H296.632ZM293.585 211.886H295.4V217.989C295.4 218.156 295.426 218.287 295.477 218.381C295.528 218.472 295.599 218.536 295.69 218.572C295.784 218.609 295.892 218.628 296.014 218.628C296.099 218.628 296.184 218.621 296.27 218.607C296.355 218.589 296.42 218.577 296.466 218.568L296.751 219.919C296.66 219.947 296.532 219.98 296.368 220.017C296.203 220.057 296.002 220.081 295.767 220.089C295.329 220.107 294.946 220.048 294.616 219.915C294.289 219.781 294.035 219.574 293.853 219.293C293.672 219.011 293.582 218.656 293.585 218.227V211.886ZM299.681 220.124C299.263 220.124 298.891 220.051 298.564 219.906C298.238 219.759 297.979 219.541 297.789 219.254C297.601 218.964 297.507 218.604 297.507 218.172C297.507 217.808 297.574 217.503 297.708 217.256C297.841 217.009 298.023 216.81 298.253 216.659C298.483 216.509 298.745 216.395 299.037 216.318C299.333 216.241 299.642 216.188 299.966 216.156C300.347 216.116 300.654 216.08 300.887 216.045C301.12 216.009 301.289 215.955 301.394 215.884C301.499 215.812 301.551 215.707 301.551 215.568V215.543C301.551 215.273 301.466 215.064 301.296 214.916C301.128 214.768 300.89 214.695 300.58 214.695C300.253 214.695 299.993 214.767 299.8 214.912C299.607 215.054 299.479 215.233 299.417 215.449L297.738 215.312C297.823 214.915 297.99 214.571 298.24 214.281C298.49 213.989 298.813 213.764 299.208 213.608C299.605 213.449 300.066 213.369 300.588 213.369C300.952 213.369 301.3 213.412 301.632 213.497C301.968 213.582 302.265 213.714 302.523 213.893C302.784 214.072 302.99 214.303 303.141 214.584C303.292 214.862 303.367 215.196 303.367 215.585V220H301.645V219.092H301.594C301.489 219.297 301.348 219.477 301.172 219.634C300.996 219.787 300.784 219.908 300.537 219.996C300.29 220.081 300.005 220.124 299.681 220.124ZM300.201 218.871C300.468 218.871 300.703 218.818 300.908 218.713C301.113 218.605 301.273 218.46 301.39 218.278C301.506 218.097 301.564 217.891 301.564 217.661V216.966C301.507 217.003 301.429 217.037 301.33 217.068C301.233 217.097 301.124 217.124 301.002 217.149C300.88 217.172 300.757 217.193 300.635 217.213C300.513 217.23 300.402 217.246 300.303 217.26C300.09 217.291 299.904 217.341 299.745 217.409C299.586 217.477 299.462 217.57 299.374 217.686C299.286 217.8 299.242 217.942 299.242 218.112C299.242 218.359 299.331 218.548 299.51 218.679C299.692 218.807 299.922 218.871 300.201 218.871ZM306.591 211.273V220H304.775V211.273H306.591Z" fill="#62748E"/>
<path d="M378.707 220V218.67L381.814 215.794C382.078 215.538 382.3 215.308 382.479 215.104C382.661 214.899 382.798 214.699 382.892 214.503C382.986 214.304 383.033 214.089 383.033 213.859C383.033 213.604 382.974 213.384 382.858 213.199C382.741 213.011 382.582 212.868 382.381 212.768C382.179 212.666 381.95 212.615 381.695 212.615C381.428 212.615 381.195 212.669 380.996 212.777C380.797 212.885 380.643 213.04 380.536 213.241C380.428 213.443 380.374 213.683 380.374 213.962H378.622C378.622 213.391 378.751 212.895 379.01 212.474C379.268 212.054 379.631 211.729 380.097 211.499C380.563 211.268 381.099 211.153 381.707 211.153C382.332 211.153 382.876 211.264 383.339 211.486C383.805 211.705 384.168 212.009 384.426 212.398C384.685 212.787 384.814 213.233 384.814 213.736C384.814 214.065 384.749 214.391 384.618 214.712C384.49 215.033 384.261 215.389 383.932 215.781C383.602 216.17 383.138 216.638 382.538 217.183L381.264 218.432V218.491H384.929V220H378.707ZM390.063 211.273V220H388.218V213.024H388.167L386.168 214.277V212.641L388.328 211.273H390.063ZM395.325 220.119C394.722 220.119 394.185 220.009 393.714 219.787C393.245 219.565 392.873 219.26 392.597 218.871C392.322 218.482 392.178 218.036 392.167 217.533H393.957C393.977 217.871 394.119 218.145 394.383 218.355C394.647 218.565 394.961 218.67 395.325 218.67C395.614 218.67 395.87 218.607 396.092 218.479C396.316 218.348 396.491 218.168 396.616 217.938C396.744 217.705 396.808 217.437 396.808 217.136C396.808 216.83 396.742 216.56 396.612 216.327C396.484 216.094 396.306 215.912 396.079 215.781C395.852 215.651 395.592 215.584 395.299 215.581C395.043 215.581 394.795 215.634 394.553 215.739C394.315 215.844 394.129 215.987 393.995 216.169L392.354 215.875L392.768 211.273H398.103V212.781H394.289L394.063 214.967H394.114C394.268 214.751 394.499 214.572 394.809 214.43C395.119 214.288 395.465 214.217 395.849 214.217C396.374 214.217 396.843 214.341 397.255 214.588C397.667 214.835 397.992 215.175 398.231 215.607C398.469 216.036 398.587 216.53 398.585 217.089C398.587 217.678 398.451 218.2 398.175 218.658C397.903 219.112 397.521 219.47 397.029 219.732C396.54 219.99 395.972 220.119 395.325 220.119Z" fill="#62748E"/>
</g>
<path d="M19.4432 21.5455L24.3011 35.7614H24.4972L29.3551 21.5455H32.2017L25.9205 39H22.8778L16.5966 21.5455H19.4432ZM34.5178 39V25.9091H37.0661V39H34.5178ZM35.8047 23.8892C35.3615 23.8892 34.9808 23.7415 34.6626 23.446C34.3501 23.1449 34.1939 22.7869 34.1939 22.3722C34.1939 21.9517 34.3501 21.5937 34.6626 21.2983C34.9808 20.9972 35.3615 20.8466 35.8047 20.8466C36.2479 20.8466 36.6257 20.9972 36.9382 21.2983C37.2564 21.5937 37.4155 21.9517 37.4155 22.3722C37.4155 22.7869 37.2564 23.1449 36.9382 23.446C36.6257 23.7415 36.2479 23.8892 35.8047 23.8892ZM50.304 29.1051L47.9943 29.5142C47.8977 29.2187 47.7443 28.9375 47.5341 28.6705C47.3295 28.4034 47.0511 28.1847 46.6989 28.0142C46.3466 27.8437 45.9063 27.7585 45.3778 27.7585C44.6563 27.7585 44.054 27.9205 43.571 28.2443C43.0881 28.5625 42.8466 28.9744 42.8466 29.4801C42.8466 29.9176 43.0085 30.2699 43.3324 30.5369C43.6563 30.804 44.179 31.0227 44.9006 31.1932L46.9801 31.6705C48.1847 31.9489 49.0824 32.3778 49.6733 32.9574C50.2642 33.5369 50.5597 34.2898 50.5597 35.2159C50.5597 36 50.3324 36.6989 49.8778 37.3125C49.429 37.9205 48.8011 38.3977 47.9943 38.7443C47.1932 39.0909 46.2642 39.2642 45.2074 39.2642C43.7415 39.2642 42.5455 38.9517 41.6193 38.3267C40.6932 37.696 40.125 36.8011 39.9148 35.642L42.3778 35.267C42.5313 35.9091 42.8466 36.3949 43.3239 36.7244C43.8011 37.0483 44.4233 37.2102 45.1903 37.2102C46.0256 37.2102 46.6932 37.0369 47.1932 36.6903C47.6932 36.3381 47.9432 35.9091 47.9432 35.4034C47.9432 34.9943 47.7898 34.6506 47.483 34.3722C47.1818 34.0937 46.7188 33.8835 46.0938 33.7415L43.8778 33.2557C42.6563 32.9773 41.7528 32.5341 41.1676 31.9261C40.5881 31.3182 40.2983 30.5483 40.2983 29.6165C40.2983 28.8437 40.5142 28.1676 40.946 27.5881C41.3778 27.0085 41.9744 26.5568 42.7358 26.233C43.4972 25.9034 44.3693 25.7386 45.3523 25.7386C46.767 25.7386 47.8807 26.0455 48.6932 26.6591C49.5057 27.267 50.0426 28.0824 50.304 29.1051ZM53.3615 39V25.9091H55.9098V39H53.3615ZM54.6484 23.8892C54.2053 23.8892 53.8246 23.7415 53.5064 23.446C53.1939 23.1449 53.0376 22.7869 53.0376 22.3722C53.0376 21.9517 53.1939 21.5937 53.5064 21.2983C53.8246 20.9972 54.2053 20.8466 54.6484 20.8466C55.0916 20.8466 55.4695 20.9972 55.782 21.2983C56.1001 21.5937 56.2592 21.9517 56.2592 22.3722C56.2592 22.7869 56.1001 23.1449 55.782 23.446C55.4695 23.7415 55.0916 23.8892 54.6484 23.8892ZM65.4489 25.9091V27.9545H58.2983V25.9091H65.4489ZM60.2159 22.7727H62.7642V35.1562C62.7642 35.6506 62.8381 36.0227 62.9858 36.2727C63.1335 36.517 63.3239 36.6847 63.5568 36.7756C63.7955 36.8608 64.054 36.9034 64.3324 36.9034C64.5369 36.9034 64.7159 36.8892 64.8693 36.8608C65.0227 36.8324 65.142 36.8097 65.2273 36.7926L65.6875 38.8977C65.5398 38.9545 65.3295 39.0114 65.0568 39.0682C64.7841 39.1307 64.4432 39.1648 64.0341 39.1705C63.3636 39.1818 62.7386 39.0625 62.1591 38.8125C61.5795 38.5625 61.1108 38.1761 60.7528 37.6534C60.3949 37.1307 60.2159 36.4744 60.2159 35.6847V22.7727ZM77.8665 29.1051L75.5568 29.5142C75.4602 29.2187 75.3068 28.9375 75.0966 28.6705C74.892 28.4034 74.6136 28.1847 74.2614 28.0142C73.9091 27.8437 73.4688 27.7585 72.9403 27.7585C72.2188 27.7585 71.6165 27.9205 71.1335 28.2443C70.6506 28.5625 70.4091 28.9744 70.4091 29.4801C70.4091 29.9176 70.571 30.2699 70.8949 30.5369C71.2188 30.804 71.7415 31.0227 72.4631 31.1932L74.5426 31.6705C75.7472 31.9489 76.6449 32.3778 77.2358 32.9574C77.8267 33.5369 78.1222 34.2898 78.1222 35.2159C78.1222 36 77.8949 36.6989 77.4403 37.3125C76.9915 37.9205 76.3636 38.3977 75.5568 38.7443C74.7557 39.0909 73.8267 39.2642 72.7699 39.2642C71.304 39.2642 70.108 38.9517 69.1818 38.3267C68.2557 37.696 67.6875 36.8011 67.4773 35.642L69.9403 35.267C70.0938 35.9091 70.4091 36.3949 70.8864 36.7244C71.3636 37.0483 71.9858 37.2102 72.7528 37.2102C73.5881 37.2102 74.2557 37.0369 74.7557 36.6903C75.2557 36.3381 75.5057 35.9091 75.5057 35.4034C75.5057 34.9943 75.3523 34.6506 75.0455 34.3722C74.7443 34.0937 74.2812 33.8835 73.6562 33.7415L71.4403 33.2557C70.2188 32.9773 69.3153 32.5341 68.7301 31.9261C68.1506 31.3182 67.8608 30.5483 67.8608 29.6165C67.8608 28.8437 68.0767 28.1676 68.5085 27.5881C68.9403 27.0085 69.5369 26.5568 70.2983 26.233C71.0597 25.9034 71.9318 25.7386 72.9148 25.7386C74.3295 25.7386 75.4432 26.0455 76.2557 26.6591C77.0682 27.267 77.6051 28.0824 77.8665 29.1051Z" fill="#020618"/>
</g>
<defs>
<filter id="filter0_dd_8371_79833" x="236" y="68" width="184" height="176" filterUnits="userSpaceOnUse" color-interpolation-filters="sRGB">
<feFlood flood-opacity="0" result="BackgroundImageFix"/>
<feColorMatrix in="SourceAlpha" type="matrix" values="0 0 0 0 0 0 0 0 0 0 0 0 0 0 0 0 0 0 127 0" result="hardAlpha"/>
<feOffset dy="1"/>
<feGaussianBlur stdDeviation="2"/>
<feComposite in2="hardAlpha" operator="out"/>
<feColorMatrix type="matrix" values="0 0 0 0 0.0470588 0 0 0 0 0.0470588 0 0 0 0 0.0509804 0 0 0 0.05 0"/>
<feBlend mode="normal" in2="BackgroundImageFix" result="effect1_dropShadow_8371_79833"/>
<feColorMatrix in="SourceAlpha" type="matrix" values="0 0 0 0 0 0 0 0 0 0 0 0 0 0 0 0 0 0 127 0" result="hardAlpha"/>
<feOffset dy="1"/>
<feGaussianBlur stdDeviation="2"/>
<feComposite in2="hardAlpha" operator="out"/>
<feColorMatrix type="matrix" values="0 0 0 0 0.0470588 0 0 0 0 0.0470588 0 0 0 0 0.0509804 0 0 0 0.1 0"/>
<feBlend mode="normal" in2="effect1_dropShadow_8371_79833" result="effect2_dropShadow_8371_79833"/>
<feBlend mode="normal" in="SourceGraphic" in2="effect2_dropShadow_8371_79833" result="shape"/>
</filter>
<clipPath id="clip0_8371_79833">
<rect width="560" height="300" fill="white"/>
</clipPath>
</defs>
</svg>
