<svg fill="none" height="35" viewBox="0 0 80 35" width="80" xmlns="http://www.w3.org/2000/svg" xmlns:xlink="http://www.w3.org/1999/xlink"><clipPath id="a"><path d="m0 0h80v35h-80z"/></clipPath><g clip-path="url(#a)" opacity=".8"><path clip-rule="evenodd" d="m30.6814 3.50762c-6.1935.02448-11.804 1.64016-17.0105 3.94421-5.73386 2.53809-8.72479 6.52437-9.31571 11.52617-.35715 3.0179 1.05196 5.4864 3.95329 7.5428 1.85582 1.3141 4.04552 2.1826 6.40392 2.7917 2.9442.7608 5.9728 1.3542 9.1027 1.3846 7.2429.0714 21.6064.2993 32.0592-1.3846 10.4529-1.684 12.8045-1.3835 16.0092-3.3001 4.9075-2.9351 4.9545-4.6065 4.9545-8.9791 0-1.7189-1.1013-3.0538-3.221-4.9214-2.1198-1.8675-8.3226-5.23668-8.8902-5.42175-8.6208-2.8152-19.4569-4.04912-30.3921-3.18351-.3416 0-1.9974-.0049-3.6533.00098zm34.9938 0c3.491 1.1721 7.7859 4.25991 10.2339 6.41415 2.1572 1.89963 6.7609 9.05623 2.0319 15.45903-4.7289 6.4027-7.6089 5.3163-20.6469 7.5117-8.1717 1.3761-29.514 1.9397-38.0271.7284-2.8714-.4083-5.6507-1.0076-8.3247-1.88-2.90655-.9479-5.3845-2.3442-7.38842-4.1979-2.30651-2.1336-3.5857446-4.5669-3.55327672-7.341.07792282-6.8015 3.82341672-12.18027 11.61439672-15.60062 5.7559-2.52829 12.0118-4.258536 18.8625-4.246786 1.452.001959 2.9052 0 3.2923 0 11.552-.957657 22.517.001959 31.9054 3.153026z" fill="#4dabf7" fill-rule="evenodd"/></g></svg>