<svg fill="none" height="128" viewBox="0 0 128 128" width="128" xmlns="http://www.w3.org/2000/svg"><path d="m79.647 107.934c.5523.539 1.1335 1.047 1.741 1.523.823.667 1.418 1.148 1.418 1.6v.041l.03.029c.1144.114.251.204.4013.263.1503.06.3111.088.4727.083.845 0 1.993-.672 3.267-1.946l.023-.027c1.653-3.3 15.108-16.657 15.91-16.744l.045-.011c.372-.1762.682-.4606.89-.816s.304-.7653.275-1.176c-.068-.5184-.292-1.0041-.64-1.3938-.349-.3896-.807-.665-1.315-.7902l-2.359-2.359c-.0011-.1159-.0255-.2305-.0716-.3368-.0462-.1064-.1132-.2024-.1971-.2824s-.183-.1423-.2915-.1833c-.1084-.0411-.224-.0599-.3398-.0555-1.2 0-4.929 4.5-6.474 6.433-3.674 4.083-5.608 5.986-7.353 6.47-1.709.478-3.248-.437-6.117-2.486-2.361-1.574-4.8-3.2-6.432-3.217-.68-.337-1.126-.415-1.4-.245-.323.2-.323.68-.323 1.145-.1294.8026-.387 1.5792-.763 2.3-.837.042-.837.921-.837 1.7-.001 1.737 5.738 8.124 10.44 10.482zm-7.84-11.259c.0762-.1632.1874-.3076.3256-.4231.1383-.1154.3002-.199.4744-.2449 1.158-.312 3.331.656 7.024 3.115 1.669 1.67 3.28 2.43 4.07 2.43 1.575 0 4.725-2.283 8.88-6.44 1.4755-1.9572 3.0719-3.8202 4.78-5.578 1.171-.576 2.781-.273 3.136.221.024.0321.042.0687.052.1077s.011.0795.005.1193c-.006.0397-.02.0778-.041.112s-.049.0638-.082.087l-.03.029v.042c0 .819-3.835 5.526-7.17 9.529l-7.971 7.971c-.7225.029-1.4429-.096-2.1133-.367-.6704-.27-1.2754-.681-1.7747-1.204-.6177-.495-1.2992-.905-2.026-1.219-.7069-.305-1.3706-.702-1.974-1.181l-.039-.024c-2.301-.769-5.496-5.451-5.526-7.082z" fill="#4ade80"/><path d="m65.3 56.751h9.518c.012.0484.037.0926.0722.1278s.0794.0602.1278.0722c.0349.0091.0709.0135.107.013.3094-.0631.6025-.1896.8606-.3715.2582-.1819.4759-.4153.6394-.6855.1034-.1357.1555-.3037.1469-.4741s-.0773-.3323-.1939-.4569l-.023-.023h-.031c-3.1825-.4952-6.3964-.7626-9.617-.8-3.062 0-10.189.1-10.221 1.065-.029.833 5.384 1.318 8.614 1.533z" fill="#facc15"/><path d="m33.206 49.464c0 4 0 4.834 4.83 9.658.5116.5201 1.1232.9312 1.7979 1.2085.6747.2774 1.3986.4153 2.1281.4055.3128-.0004.6253-.0228.935-.067 3.7-.518 7.826-3.961 10.5-8.78.7072-1.5472 1.0051-3.2501.865-4.9455s-.7134-3.3264-1.665-4.7365c-.393-.786-1.735-1.255-3.59-1.255-1.8531.0045-3.682.4201-5.355 1.217-2.405 1.6-3.139 1.547-3.889.8-2.435-1.624-4.094-1.62-5.726.012l-.019.026c-.5787.9599-.9499 2.0304-1.0897 3.1425-.1399 1.1121-.0453 2.2412.2777 3.3145zm14.618 7.108c-.3424.2456-.6687.5128-.977.8-.9494.5466-2.0321.818-3.127.784-5.485-.784-6.314-2.3-6.314-7.1 0-.789-.778-2.446-1.657-2.5-.1706-.1327-.3081-.3031-.4018-.4978-.0937-.1948-.141-.4086-.1383-.6247.0027-.216.0554-.4286.154-.6209.0985-.1923.2403-.3592.4141-.4876l.024-.039c.349-1.045.853-1.64 1.46-1.721.7-.1 1.543.521 2.355 1.734.4 1.18 1.011 1.856 1.69 1.856s1.3-.681 1.69-1.856c.48-.96 2.37-2.139 4.212-2.629.5947-.2104 1.2267-.2947 1.8558-.2476.6291.0472 1.2415.2248 1.7982.5216.706.353 1.144 1.814 1.144 3.811.022 1.9383-.3787 3.8582-1.174 5.626-1.607.813-1.626 1.639-1.626 1.674 0 .48-.706 1.007-1.382 1.517z" fill="#f87171"/><g fill="#facc15"><path d="m50.9 97.753c-1.767.2-3.594.4-4.789.4-3.167 0-4.829.023-5.033.516-.0225.0764-.0216.1577.0025.2336.024.0759.0702.1429.1325.1924.082.823 2.575.858 8.1.858 5.239 0 8.7 0 8.7.7-.0112.19.023.381.1.555.0293.062.0755.114.1334.151s.125.057.1936.057c.561 0 1.357-1.205 1.368-2.339.3-.6.352-.946.194-1.2-.323-.523-1.486-.523-4.294-.523-1.208-.002-3.04.201-4.808.399z"/><path d="m45.215 94.116c.512.071 1.071.148 1.677.235h8.814c.874 0 2.5 0 2.5-.9 0-.673-1.24-.826-4.235-1.195-1.042-.128-2.339-.288-3.865-.505h-8.841l-.029.029c-.512.512-.689.852-.593 1.139.199.593 1.569.781 4.572 1.197z"/><path d="m52.268 79.071-2.156-.119h-.006c-9.7 0-12.968 0-13.311.828-.126.3.147.645.413.914.0048.0872.0296.1722.0724.2483s.1026.1413.1746.1907c.545.393 1.955.254 3.868-.381h11.177c5.28.407 8.441.6 10.313.6 1.51 0 2.182-.127 2.449-.374.0462-.041.083-.0913.108-.1477.0251-.0565.0377-.1176.037-.1793-.001-.851-.494-.879-13.139-1.58z"/><path d="m63.507 50.664c1.179 0 2.47-.051 3.441-.109 2.916-.175 6.577-.586 8.106-1.22.506-.21.752-.433.752-.683 0-.88-1.475-.9-6.92-.9h-.386l-1.843.183c-4.762.467-6.543.642-6.779 1.3-.1.271.07.6.561 1.086.9876.3267 2.0326.4435 3.068.343z"/><path d="m40.2708 103.036c1.6996 0 3.5606.052 4.9603.111 4.2034.178 9.4808.596 11.6849 1.242.7294.213 1.084.44 1.084.695 0 .896-2.1262.916-9.9753.916h-.5564l-2.6567-.186c-6.8645-.476-9.4318-.654-9.772-1.324-.1442-.276.1009-.61.8087-1.105 1.4237-.333 2.93-.452 4.4225-.349z"/><path d="m60.445 46.352h.061c2.4221-.0548 4.8348-.3225 7.21-.8h7.15c.0782.0711.1732.121.2761.1452.1029.0241.2102.0216.3119-.0072.2345-.0713.4458-.2039.612-.384.592-.592 1.073-1.763.511-2.325l-.029-.029h-.042c-1.6394-.0128-3.2687.2578-4.816.8h-7.184c-2.5 0-3.8.3-4.228.988-.1147.2489-.1622.5235-.1378.7965s.1198.5348.2768.7595z"/><path d="m58.5715 88h-.0841c-3.3373-.0483-6.6615-.2845-9.9342-.7058h-9.8516c-.1078.0627-.2387.1068-.3804.1281-.1418.0213-.2897.0191-.4298-.0063-.3231-.063-.6141-.1799-.8432-.3388-.8157-.5223-1.4784-1.5554-.7041-2.0512l.04-.0256h.0579c2.2588-.0113 4.5038.2275 6.6356.7058h9.8985c3.4446 0 5.2358.2646 5.8255.8716.158.2196.2234.4619.1898.7027-.0336.2409-.1651.4719-.3813.6701z"/><path d="m52.284 62.194c0 .662 4.934.958 9.822.958 3.4656.0141 6.9257.2791 10.353.793.3543.2531.787.3722 1.221.336.6897-.0104 1.3717-.146 2.013-.4.572-.237.895-.522.913-.806.0513-.092.0775-.1959.0759-.3012s-.0309-.2084-.0849-.2988c-.694-1.124-5.879-1.124-15.291-1.124-2.824 0-5.159.079-6.754.229-2.268.214-2.268.494-2.268.614z"/><path d="m69.323 68.553c-4.2453-.597-8.5304-.8644-12.817-.8-1.506 0-3.547-.178-5.707-.367-2.441-.212-4.965-.432-7.064-.432h-.015c-3.984-.569-5.547-.734-6.162-.2-.135.1468-.2364.3213-.2972.5112-.0608.19-.0795.3909-.0548.5888 0 1.207 1.884 1.7 6.5 1.7 19.583 0 28.606.69 31.156 2.389.4965.2933 1.0504.4761 1.624.536.1614.0048.3208-.0361.46-.118.314-.194.46-.61.46-1.307 0-1.516-1.308-1.674-6.175-2.265-.584-.072-1.22-.1507-1.908-.236z"/><path d="m59.706 73.352h-.006c-4.7115.4238-9.4496.4666-14.168.128-1.359-.069-2.534-.128-3.4-.129-3.133-1.042-5.589-1.169-6.117-.315-.149.241-.2.66.43 1.285.564.565 3.19.736 7.956 1.045 2.213.144 4.967.323 8.114.585 13.538 0 17.624 0 19.245-.811l.026-.019c.411-.41.548-.7.445-.952-.348-.817-3.416-.817-12.525-.817z"/></g><path d="m110.157 104.947c3.884-10.121 2.1-18.539-5.8-27.313l-.018-.019c-3.335-3.335-5.546-5.545-7.432-5.832l-.956-.956c.213-1.146-.094-3.394-.856-8.71-.484-3.368-1.085-7.558-1.693-12.715-.014-1.721-.787-7.129-1.605-12.848l-.84-10.081-3.652-1.826c-1.791-.895-4.325-.895-6-.895h-1.361l.653-4.573.009-.127c0-4.123-.077-6.458-1.653-6.5-1.015-.082-10.222-.8-20.847-.8-2.208 0-4.214-.007-6.036-.012h-.178c-1.517-.005-2.905-.01-4.175-.01-8.181 0-11.676.164-13.311 1.8-1.216 1.219-1.21 2.959-1.2 5.593v.726c0 3.9-.728 3.9-1.5 3.9-1.665 0-4.182 0-5.963.876l-4.464 1.785-.866 6.927-.007 21.712c0 8.882 0 19.936-.791 25.474l-.007.066c-.863 12.945-1.573 24.9-.8 28.945.151 1.116.5488 2.183 1.1645 3.126.6157.942 1.4337 1.736 2.3945 2.322l2.555 2.555 25.956.811h.022c14.025 0 23.314 0 24.9.474l.064.063c1.111 1.111 6.608 2.756 10.06 3.446.9757.208 1.9695.319 2.967.332 2.226 0 3.9-.674 6.442-1.7l.7-.284c7.802-3.455 11.759-7.87 14.124-15.732zm-87.152-71.479.79-4.74 2.356-.787c1.579-.789 3.972-.789 5.58-.792.4583-.1354.9385-.1805 1.414-.133.193.034.434.119.487.332.13.519-.853 1.533-2.745 2.006-4.049.809-4.079 2.4-4.862 43.147l-.019.951c0 20.332 0 29.612.8 32.819l.814 4.071 6.462.807c7.083 1.574 21.342.876 28.022-.8 2.363 0 3.159 0 4.73 1.57l.025.019c.7009.389 1.3341.889 1.875 1.481.519.52.929.93 1.37.93h.927c-2.243.3-11.445.6-39.318.6-.51-.085-.984-.161-1.426-.232-3.707-.594-5.1-.817-6.512-2.939-2.371-2.371-2.371-2.371-2.371-12.729 0-5.735 0-13.588.8-16.8 0-1.567.121-4.183.273-7.5.235-5.109.527-11.468.527-17.3zm11.1 2.7c.6.65 2.92.57 11.541.269 3.767-.131 8.926-.311 15.665-.488l1.2-.057c15.547-.74 16.478-.784 18.066-2.373l.023-.019c.759-1.52 1.462-1.52 2.221 0l.019.025c.937.938 1.69 5.493 2.371 14.341.5839 6.1171.8509 12.2603.8 18.405l.784 4.7-3.913.783c-5.4945 1.6569-10.4708 4.6986-14.451 8.833l-3.17 3.963-2.261 1.95-.99 3.718c-1.607 3.215-1.605 4.048 0 8.845l.786 6.288-.106 2.66c-.7112.238-1.4406.419-2.181.539-.538 0-1.5.087-2.824.208-2.594.235-6.514.592-10.776.592-10.079 0-16.738 0-17.523-1.563-.336-.567-.578-16.021-.577-36.747 0-17.234.189-36.339.59-37.545.643-1.286 1.443-1.983 2.269-1.983.0541 0 .1082.003.162.009.948.1 1.784 1.159 2.179 2.729-.0031.2732-.0221.546-.057.817-.052.469-.096.838.148 1.104zm42.4-3.619h-.041l-.029.029c-.771.771-9.689.771-19.13.771-8.145 0-15.345.493-18.42.7-.848.058-1.409.1-1.58.1l-.045.01c-.46.23-.711.282-.863.177-.541-.369-.328-2.989.208-8.878v-.009c0-4.828 0-10.3.7-10.3h.041l.029-.029c.924-.745 38.325-.751 39.83-.019-.0109 2.9344.257 5.8632.8 8.747.001 8.091-.033 8.704-1.499 8.704zm6.425-5.4c.4452-.1471.9175-.1936 1.3828-.1362s.9121.2173 1.3082.4682c1.371.939 2.256 3.349 2.787 7.595 1.423 5.69 2.225 14.693 2.933 22.636.089 1 .177 1.983.264 2.94.0592 1.5894.2461 3.1715.559 4.731.1135.551.194 1.1084.241 1.669 0 1.562 0 2.351-.759 3.118-.978.487-1.556.616-1.875.419-.246-.152-.366-.524-.366-1.137-.0465-.5711-.1279-1.1389-.244-1.7-.3111-1.5492-.497-3.121-.556-4.7v-.032c-.835-2.5-1.595-9.734-1.595-15.173l-.031-.6c-.769-14.606-.814-15.48-4.013-17.078-1.247-.832-1.908-1.722-1.726-2.323.135-.447.729-.694 1.67-.694zm-12.753 55.173c5.643-5.643 8.876-7.2 15.14-8.771 1.3226-.1602 2.6529-.2476 3.985-.262 4.491 0 7.474 1.374 11.929 5.829 5.4 6.175 7.975 10.254 7.976 16.726-.862 10.339-5.269 17.78-12.746 21.518h-.006c-3.419 2.052-7.718 2.556-13.524 1.589-3.147-.787-5.434-2.29-11.166-6.384-5.515-3.94-7.151-7.05-7.959-15.132-.763-6.098.606-9.348 6.371-15.113z" fill="#7e22ce"/></svg>