<svg fill="none" height="108" viewBox="0 0 128 108" width="128" xmlns="http://www.w3.org/2000/svg" xmlns:xlink="http://www.w3.org/1999/xlink"><clipPath id="a"><path d="m0 0h128v108h-128z"/></clipPath><g clip-path="url(#a)"><path d="m8.96001 65.778c4.17939.0595 8.34839-.4307 12.39999-1.458 2.728 0 6.454 0 6.454 1.367 0 1.509-4.452 6.468-5.011 6.468l-.041.01c-.3136.1377-.5892.3493-.8034.6165-.2142.2673-.3605.5824-.4266.9185-.0459.2749-.0261.5568.0579.8225.0839.2658.2296.5079.4251.7065l.026.027h4.411c.564 0 2.075-.048 4.362-.121 6.737-.212 19.278-.608 32.81-.608 14.146 0 27.306-.414 33.63-.612 2.238-.071 3.717-.117 4.28-.118 4.028-.447 5.536-.615 6.04-1.34.348-.5.168-1.221-.128-2.394-.026-1.376-.554-2.6951-1.485-3.709l-5.093-5.092-1.007-1.345c-3.613-4.836-4.973-6.654-6.376-5.98-.8.014-.8.829-.8 1.549l.012.047.027.027c-.16.467-5.72 1.2-31.295 2.021-6.0722.4022-12.1633.4309-18.239.086-.954-.049-1.647-.085-2.141-.086-1.4014-.5413-2.8989-.7894-4.4-.729h-.038l-.026.027c-.1193.1605-.2745.2909-.4531.3807-.1787.0899-.3759.1367-.5759.1367s-.3972-.0468-.5759-.1367c-.1786-.0898-.3338-.2202-.4531-.3807-.3943-.4343-.9377-.7042-1.522-.756-.8 0-3.007 5.208-3.007 6.651.0021.0733-.0195.1454-.0617.2054-.0421.06-.1026.1048-.1723.1276-.48.2-1.528-.129-2.526-1.126-.739-.74-1.5-1.507-3.02-.746l-.024.017c-1.424 1.428-8.134 1.428-17.42099 1.428-6.651001 0-6.651001.752-6.651001 1.549l.01.04c.754 1.509.754 1.509 8.828001 1.509zm26.84799 2.922c.18-.762-.709-2.07-2.746-3.087-1.071-.715-1.608-1.073-1.692-1.491s.275-.956.977-2.013c1.433-1.434 2.153-2.152 5.767-1.431 17.536 0 41.552 0 49.571-1.459l7.245-.724 3.614 3.614c3.041 3.04 5 7.258 4.373 7.888-.708.709-14 2.142-23.259 1.431h-17.492c-1.07 0-3.018.1-5.485.222-4.266.214-10.109.507-15.656.507l-15.151.722 1.385-2.77c1.223-2.038 1.95-2.857 2.683-3.022.0942-.0211.1905-.0318.287-.032.7363.1061 1.4287.4145 2 .891.728.728 1.48 1.478 2.245 1.478 1.012-.002 1.271-.456 1.334-.724z" fill="#facc15"/><path d="m64.713 45.736c-.1.41.521.814 1.057 1.082l.04.01c.739 0 2.278 0 2.278-1.549v-.091h-1.549c-1.126 0-1.739.184-1.826.548z" fill="#facc15"/><path d="m70.221 46.645h-.038c-.806 0-.819.795-.82 1.512-.392.41-.357.811-.155 1.013.0493.048.1077.0857.1717.1109.0641.0252.1325.0375.2013.0361.2443-.0138.4739-.1213.641-.3.1147-.0094.2241-.0524.3146-.1235s.1581-.1673.1944-.2765c.0986-.3373.1058-.6948.021-1.0358-.0849-.3411-.2588-.6534-.504-.9052z" fill="#facc15"/><path d="m4.621 17.083c1.574 1.29 21.718.469 28.409-.869 3.0976-.7844 6.2629-1.2716 9.453-1.455 3.664 0 4.324 0 5.766 2.16l2.14 2.141-3.614 7.24c-.556 1.391-1.1 2.657-1.588 3.774-.5771 1.1286-1.0246 2.3188-1.334 3.548v.092h3.02c4.934-.7 25.151-1.418 26.189-1.455.074.076.208.223.181.3-.081.244-1.3.415-3.735.757-.458.064-.965.135-1.511.214-2.0266.0236-4.048.2122-6.044.564-.4115.0788-.8272.1339-1.245.165-.2 0-.67.054-1.372.135-2.9326.3697-5.8843.568-8.84.594l-1.044.095c-7.049.638-7.786.7-8.5 2.142l-.01.041c0 .711-1.467 4.369-2.906 7.247-.9226 1.8811-1.6595 3.8478-2.2 5.872 0 .642-1.367 1.366-2.095 1.366h-.041l-1.484 1.484-.027.027v.038c0 .789 5.075.82 17.583.82 5.174 0 11.519-.22 17.117-.414 4.659-.162 9.06-.315 12.037-.315 9.993 0 12.437 0 12.481-.8.732-1.511-.719-4.432-2.944-5.922l-.836-1c-3.147-3.767-7.064-8.455-6.45-9.07.662-.661 9.238-2.16 15.971-2.16 2.289 0 5.156-.2 7.928-.389 2.527-.175 4.913-.339 6.665-.341 8.305-1.511 11-1.422 13.062-.737.241.1639.521.2625.812.2862.29.0237.582-.0284.847-.1512.243-.2.431-.4587.547-.7516.115-.2928.154-.6103.113-.9224 0-.931-.139-1.425-.479-1.7-.573-.469-1.659-.313-3.985.155-.869 0-2.492.111-4.547.252-3.1.213-6.95.477-10.038.477-18.782 1.439-28.24 2.883-29.173 3.638h-.607c-.06-.729-.862-.729-2.274-.729-.1842.0045-.366-.0424-.5249-.1355-.159-.0931-.2889-.2287-.3751-.3915-.0472-.1372-.0502-.2858-.0086-.4248s.1258-.2615.2406-.3502c.9-.9 1.3-1.853 1.043-2.479-.1014-.2006-.2622-.3651-.4605-.4711-.1982-.1059-.4243-.1481-.6475-.1209-1.368 0-6.468-7.876-6.468-9.384-.0249-.3987-.193-.7749-.4735-1.0594-.2804-.2845-.6542-.458-1.0525-.4886-1.443-.8-7.221-12.981-7.221-14.486 0-.82-.822-.82-1.548-.82-.595 0-.638-.517-.638-1.367.0079-.14608-.0269-.2913-.1-.418-.0316-.04879-.0753-.08859-.1268-.11557-.0515-.026977-.1091-.040213-.1672-.038429-.681 0-1.978 1.648999-1.978 2.758999 0 2.281-1.5 5.01-2.095 5.01h-.091v2.2c-.8.157-1.458 2.308-1.455 2.975l-.683 2.73-4.289-5.73-8.8 2.2c-6.9215 1.6031-14.0159 2.3371-21.119 2.185-8.993 0-12.022 0-12.527.817-.06019.1186-.08756.2512-.0793.3839.00827.1327.05187.2609.1263.3711.00525.0406.01858.0797.03918.1151.02061.0354.04809.0663.08082.0909zm50.951 11.006c.058-.38.109-.715.122-.936.5.05.549.541.55 1.325-.4627.603-.7171 1.34-.725 2.1-.0079-.0056-.015-.0123-.021-.02-.257-.297-.058-1.604.074-2.469zm20.392 12.011c-1.673 1.116-2.074 4.2-1.605 5.749.191.63.52.978.926.978.82 0 .82-.823.82-1.549.2613-1.5091.7495-2.97 1.448-4.333l1.388-2.774 2.828 4.242c1.3387 2.0376 2.8032 3.9897 4.385 5.845l.023.016c.8629.4691 1.5801 1.1665 2.073 2.016h-13.7c-6.933.694-13.958.728-15.3.728h-.037l-.027.027c-.7.7-5.994.7-11.6.7-1.177 0-2.228.007-3.163.014-4.131.028-6.012.042-6.468-.664-.36-.556.129-1.621 1.017-3.555.207-.451.436-.949.681-1.5 2.916-7.291 3.645-7.96 8.662-7.96 1.258 0 3.173-.135 5.39-.289 2.946-.207 6.284-.44 9.2-.441 3.6194-.5315 7.2646-.8693 10.92-1.012 1.652 0 2.66.195 3.149.626.1373.1264.2449.2816.3151.4545s.1012.3592.0909.5455c-.3819.7678-.8575 1.4853-1.416 2.136z" fill="#7e22ce"/><g fill="#facc15"><path d="m54.876 39.354c-.3414-.1877-.7251-.285-1.1147-.2827-.3896.0022-.7721.104-1.1113.2957l-.05.025v.056c0 .753.014.781.755 1.522.3862.3664.8977.5714 1.43.573.1745.0034.348-.0268.511-.089.1155-.0382.2162-.1115.2879-.2098.0718-.0983.111-.2165.1121-.3382.0102-.3077-.0601-.6127-.2039-.8849s-.3562-.5021-.6161-.6671z"/><path d="m50.5 47.374c-1.461 0-1.549 0-1.549.82 0 .034.018.82 1.549.82.5774-.0747 1.1131-.3405 1.522-.755l.027-.027v-.038c.004-.82-.819-.82-1.549-.82z"/><path d="m72.37 39.357c-1.517 0-3.007.767-3.007 1.549 0 .678 0 1.052.228 1.216.0885.059.1938.0877.3.082.6102-.0876 1.2074-.2498 1.778-.483h.012c.3811-.142.7065-.4026.9284-.7433.222-.3408.3287-.7438.3046-1.1497-.019-.1308-.0844-.2503-.1843-.3368s-.2276-.1341-.3597-.1342z"/><path d="m57.793 46.645c-.7 0-1.125.163-1.258.484-.126.3.039.7.464 1.13.3166.3157.743.4967 1.19.505.1623.0015.3233-.0287.474-.089.2246-.1065.4105-.2802.5321-.4969.1216-.2168.173-.4659.1469-.7131 0-.82-.823-.82-1.549-.82z"/></g><path d="m101.853 98.0628v-.091c0-.638 2.275-.638 4.282-.638 1.226-.0401 2.447-.162 3.657-.365 1.201-.2009 2.414-.3222 3.631-.363l.041-.01c1.532-.766 5.1-1.429 7.219-.724h.029c3.127 0 5.193 0 5.193-.82l-.01-.041c-.61-1.22-3.373-5.567-8.771-10.963-3.623-2.9-6.542-5.816-7.263-7.258l-.018-.024c-.227-.227-.421-.439-.592-.627-.931-1.017-1.356-1.483-3.874-.852-1.642.5064-3.354.7507-5.073.724-.061 0-1.439.008-1.543.731-.236.0243-.4699.0654-.7.123-.922.297-1.9196.2559-2.814-.116l-.041-.01c-.8286.0387-1.6539.1299-2.471.273-1.5926.2678-3.2025.4202-4.817.456-.987 0-2.364.054-3.959.117-5.4801.3122-10.9746.2748-16.45-.112h-15.309c-.187 0-.642.046-1.33.115-3.6742.3918-7.366.5967-11.061.614-5.541 0-10.66.421-13.12.624-.774.063-1.285.105-1.457.105-2.126 0-2.859 0-3.554-.676-.009-.282-.129-.476-.323-.521-.294-.07-.789.22-1.3 1.234-.7.7-1.425 1.421-2.112 1.421h-.034l-.027.026c-.5257.6288-.7952 1.4325-.755 2.251 0 .477-.366 2.459-5.082 7.961-1.115 1.393-2.108 2.766-2.984 3.976-1.273 1.759-2.372 3.278-2.776 3.278h-.041l-.026.026c-.27664.2829-.48775.623-.61838.9964-.13064.3735-.17762.771-.13762 1.1648h-.638c-.40143-.048-.80848-.008-1.19265.118-.38416.126-.73616.335-1.03135.611-.412.013-.6.242-.6.455s.183.436.583.454c.783 1.3 6.03.861 19.775-.3l5.079-.427c1.683-.403 3.4334-.435 5.13-.094.2124.047.428.079.645.095.457.447.938.638 1.263.506.1056-.052.193-.134.2507-.237.0577-.102.0829-.22.0723-.337.2753-.402.6671-.711 1.1228-.884.4557-.1724.9534-.2016 1.4262-.0832.58.1372.914.4802.914.9422v.091h.857l.027-.027c1.315-1.3152 8.217-2.0052 9.226-1.5872.077.033.093.059.093.065 0 .7262 0 1.5492.82 1.5492.5779-.075 1.1142-.341 1.523-.756l.026-.027v-.037c0-.6382 0-.6382.638-.6382.85 0 1.367.043 1.367.6382 0 .687.163 1.1.459 1.174.34.079.77-.332 1.171-1.134l.009-.04c0-.6382 1.571-.6382 5.011-.6382 1.462 0 3.5-.186 5.475-.365s4.005-.364 5.458-.364h5.793l2.877 2.8752c1.3036 1.835 2.7713 3.547 4.385 5.116 1.484 1.484 2.245 1.484 2.98 1.484h.03l.023-.021c2.977-2.233 12.184-2.941 21.089-3.626l1.89-.145c7.911-.6 9.126-.694 9.126-2.133.022-.176.005-.354-.049-.523-.053-.169-.143-.324-.262-.455-.578-.51-2.113-.371-6.347.158-4.738.365-9.74.921-13.759 1.368-4.121.457-7.375.819-8.828.819l-.034.006c-3.3 1.321-6.2.354-8.63-2.873l-.691-2.0712 4.261-.711c9.064-.756 16.047-.669 16.644-.119.01.0068.017.0167.021.028v.091zm1.513-3.826c1.364-3.0509 2.561-6.1742 3.584-9.356.746-2.237 2.16-4.232 2.793-4.308.669.712.6 2.287-1.5 8.612-.424.848-.772 1.573-1.052 2.154-1.18 2.456-1.393 2.9-2.511 2.9zm8.51-4.3c-.742 3.713-1.482 5.029-2.826 5.029-.184.0044-.366-.0426-.525-.1359s-.289-.2291-.375-.3921c-.047-.137-.05-.2854-.008-.4243.041-.1388.125-.2611.24-.3497l.018-.019.006-.024c.007-.029.736-2.937 1.451-5.083 1.393-2.788 2.161-4.323 2.833-4.323.15-.0195.302.0013.441.0604s.26.1542.35.2756c.408.659-.1 2.363-1.6 5.363zm-16.713-5.347c-.41 1.051-.908 2.326-1.5 3.873-1.356 3.389-2.728 6.18-2.9 6.519-.1241.0558-.2619.0736-.3961.0512s-.2587-.0841-.3579-.1772c-.938-.964-.055-5.51 2.352-12.139 1.439-2.158 2.156-2.875 3.569-2.875.107 0 .206 0 .3-.007s.145-.006.206-.006c.141 0 .241.014.283.073.176.252-.295 1.46-1.556 4.688zm6.517-2.693c-.384.8911-.706 1.8076-.963 2.743-.51 1.8096-1.1639 3.5755-1.955 5.281-1.477 3.692-2.184 4.316-3.582 4.319-.887.222-1.368.217-1.564-.019-.508-.609.548-2.93 2.86-8.015l.267-.589c2.587-6.035 3.938-6.5 4.29-6.5.565 0 .907 0 1.037.167.198.25.012.996-.39 2.613zm1.458 8.746c-1.439 2.878-2.161 4.323-3.563 4.323-.1843.0044-.3661-.0426-.5251-.1359s-.2888-.2291-.3749-.3921c-.0471-.137-.0501-.2854-.0085-.4243.0416-.1388.1257-.2611.2405-.3497l.02-.031c.849-2.142 1.578-4.3297 2.183-6.553.517-1.034 1.026-2.142 1.519-3.213.559-1.4206 1.266-2.7784 2.109-4.051l.026-.027v-.038c0-.917.267-1.533.753-1.733.115-.0485.238-.0733.362-.073.344.0111.67.1544.91.4.558 1.17-.704 5.422-3.651 12.3zm-27.7-4.373c-.558 1.115-1 2.108-1.394 2.984-.3655 1.0066-.8704 1.9569-1.5 2.823l-.026.027v.037c-.0935.7565-.3383 1.4863-.72 2.146l-.009.041c-.0264.3538-.1789.6862-.4298.937-.2509.2507-.5835.4029-.9372.429l-.041.01c-.528.264-.874.339-1.055.225-.269-.166-.271-.761-.271-1.583 1.531-3.824 5.1-11.643 5.8-12.344l.026-.027v-.038c0-.595.517-.637 1.367-.637.0563-.0079.1137-.0016.167.0183s.1007.0528.138.0957c.256.347-.05 1.666-1.111 4.856zm1.625.8c1.546-4.637 2.346-6.316 3.17-6.658.1766-.0575.3639-.0744.548-.0495.184.0249.3601.0911.515.1935.678.679.675.69-.029 2.8-.368.8267-.712 1.5967-1.032 2.31-2.316 5.173-3.275 7.314-2.594 8 .1127.1423.2677.245.4425.2936.1749.0485.3606.0402.5305-.0236.1963-.0987.3606-.2511.4739-.4394.1132-.1883.1708-.4049.1661-.6246.3166-1.2017.7587-2.3667 1.319-3.476.484-1.118 1.033-2.385 1.587-3.772 2.212-4.423 2.9-5.051 4.292-5.051l.029-.005c.543-.181 1.074-.319 1.268-.1.451.5-.556 2.977-2.831 7.984-1.469 2.2-2.911 5.092-2.93 5.865-.1981.4424-.517.8199-.9199 1.0893-.4029.2693-.8736.4197-1.3581.4337-.7615.1269-1.543.05-2.2651-.2227-.7222-.2728-1.3594-.7317-1.8469-1.3303-.716-1.442-.668-2.232 1.469-7.219zm7.289 5.831c1.574-4.722 6.61-13.057 7.2-13.057.145 0 .235 0 .266.049.188.282-.544 2.038-3.27 8.584-1.434 5.735-2.165 7.219-3.556 7.219-.523 0-.838-.1-.989-.307-.27-.385-.076-1.204.353-2.49zm-25.515-5.09c1.292-2.583 2.032-5.187 1.651-5.8-.0244-.0429-.0585-.0795-.0997-.1068s-.0882-.0445-.1373-.0502c-.0519-.0478-.1149-.082-.1834-.0995-.0684-.0174-.1401-.0176-.2086-.0005-1.113.263-2.732 4.788-3.377 6.722v.028c-.0248 1.3279-.5337 2.601-1.431 3.58l-.027.027v.037c-.0295.3216-.1194.6348-.265.923-.2937.6241-.4518 1.3034-.464 1.993.043.2851.0185.5762-.0716.85s-.2432.5226-.447.7264-.4527.3569-.7265.447-.5649.1146-.8499.0716c-.524 0-.838-.1-.989-.307-.276-.383-.082-1.2.341-2.477.5888-1.3713 1.0781-2.7833 1.464-4.225.239-.795.485-1.618.72-2.328 1.5-2.5 2.032-4.068 1.624-4.789-.1048-.1578-.2513-.2835-.4232-.3631-.172-.0797-.3626-.1101-.5508-.0879h-.048l-.027.041c-.9897 1.5862-1.7316 3.3141-2.2 5.124-2.9 8.7-2.9 8.7-5.744 9.412-1.018 0-1.579 0-1.741-.225s.024-.8.37-1.842v-.028c.0391-.8139.192-1.6184.454-2.39.1363-.3942.2285-.8024.275-1.217 1.443-1.5 2.916-8 2.916-8.784v-.037l-.027-.028c-.0459-.0502-.1052-.0862-.1709-.104-.0658-.0177-.1352-.0163-.2001.004-.891.27-2.2 4.237-3.422 10.336-.168.42-.316.8-.451 1.146-1.023 2.624-1.236 3.17-3.109 3.17l-2.007.664 2.094-4.189c.22-.66.512-1.468.821-2.323.707-1.957 1.586-4.392 2.094-6.423l1.437-4.31h8.68c3.653 0 8.655 0 8.655.638-.0384.9974-.2832 1.976-.719 2.874-.5524 1.3675-.9931 2.7774-1.318 4.216-.286 1.088-.583 2.213-.874 3.089-1.492 5.218-2.19 6.493-3.557 6.493-.091.0056-.1817-.0139-.2624-.0562-.0808-.0423-.1484-.1058-.1956-.1838-.615-.962.38-4.547 2.732-9.84zm-15.5-6.509c-.133.644-.861 4.074-2.158 8.618-2.823 6.352-3.613 7.963-4.29 7.963h-.029c-.792.263-1.206.3-1.386.109-.418-.434.151-2.223 1.5-5.825.3829-1.0586.8379-2.0897 1.362-3.086.3853-.6323.6656-1.3229.83-2.045.183-1.213.6128-2.3756 1.263-3.416.831-1.455 1.687-2.323 2.29-2.323zm-12.271 16.69c-.474-.439-.1-2.2.81-5.829 1.568-7.055 3.753-10.861 5.013-10.861l.029-.005c.744-.247 1.236-.242 1.464.02.38.438.095 1.615-.846 3.5l-.009.041c-.132 1.0846-.4064 2.1471-.816 3.16-.5569 1.5792-1.0131 3.1921-1.366 4.829-.2.61-.379 1.15-.534 1.627-.938 2.891-1.107 3.412-2.3 3.412h-.029c-.791.266-1.203.297-1.411.104zm41.423-17.415-1.421 5.693c-1.431 2.862-2.91 5.821-2.925 7.307-.7 1.405-1.41 2.117-2.095 2.117l-.041.01c-.271.136-.627.262-.786.091-.284-.307 0-1.607 1.637-4.342.5313-1.1458.7845-2.4008.739-3.663 1.4462-2.5244 3.0815-4.9356 4.892-7.213zm-4.341 2.79v.028c-.0243 1.328-.5333 2.6012-1.431 3.58-.6274.849-1.1248 1.7866-1.476 2.782-.239.556-.486 1.131-.727 1.615l-.01.04c-.0373 1.5468-.5356 3.0472-1.431 4.309l-.017.024c-.5833.8607-1.4809 1.4581-2.5 1.664-.1174.0328-.2405.0403-.361.022 0 0 0-.036.09-.123l.026-.027v-.036c0-1.534 2.214-10.21 4.355-13.064l.014-.027c.7-2.092 2.074-2.852 2.829-2.852.343 0 .668 0 .826.22.196.273.135.877-.187 1.845zm-44.449 11.639-.016.023v2.216c.0288.7579-.211 1.5017-.677 2.1h-2.147-.029c-.46.153-.765.137-.934-.051-.618-.686.349-3.685 3.233-10.03 2.959-6.659 3.658-7.963 5.019-7.963h1.355c-.251 1.262-4.412 11.616-5.804 13.705zm1.507 3.721c-.257-.255-.216-.8.115-1.462 1.722-6.891 6.009-15.965 7.2-15.965.37 0 .877 0 .934.138.015.035.018.148-.27.435l-.026.027v.037c-.1135.6602-.2828 1.3095-.506 1.941-.7038 2.2185-1.2633 4.4803-1.675 6.771-.557 1.4-1 2.768-1.394 3.979-.564 1.745-1.052 3.253-1.436 3.253h-.039l-.027.026c-.3762.3782-.8651.6239-1.393.7l-.041.01c-.647.328-1.186.367-1.439.11zm-8.808-6.608c-.6092 2.1576-1.0966 4.3477-1.46 6.56-.415.821-.774 1.058-.957 1.019-.2-.047-.319-.42-.319-1 0-1.394 3.538-9.934 4.335-11.564.0366.0097.0679.0334.087.066.205.336-.128 1.797-1.686 4.919zm4.38-.018c-2.1 4.2-3.619 7.238-4.292 7.238l-.041.01c-.273.136-.46.164-.554.082-.407-.352.356-2.639 1.4-5.791.206-.411.468-.993.772-1.668.817-1.938 1.7752-3.8134 2.867-5.611l.012-.028c.3565-1.5936 1.0954-3.0766 2.153-4.321.256-.127.559-.255.675-.151.431.378-.624 3.605-2.992 10.24zm-6.879-.039c-.282.637-.714 1.678-1.142 2.961-1.437 3.594-2.149 4.316-2.831 4.316h-1.346c.266-.763 3.129-4.512 5.319-7.277zm60.166 3.815c.1639-.0043.3228.0564.4421.1688.1194.1124.1894.2674.1949.4312l-.674.674c-.1638-.0054-.3189-.0755-.4313-.1948-.1124-.1194-.173-.2783-.1687-.4422 0-.637 0-.637.637-.637zm41.2-7.878c.199-.1634.443-.2625.7-.284.1-.0032.198.0287.277.09-.262.819-.758 1.5436-1.426 2.085-.228.2298-.421.4915-.574.777l-.009-.024c-.455-.91.309-2.12 1.036-2.644zm1.146 2.735 1.381-2.072 1.394 2.086c.26.2664.458.5874.579.9397s.163.7271.121 1.0973c-.743.115-1.459.3597-2.117.723-1.337 0-2.074 0-2.253-.292-.186-.31.201-1.085.899-2.482z" fill="#7e22ce"/><path d="m43.216 46.645c-.914 0-1.6.281-1.786.735-.0515.1559-.0538.3239-.0066.4811.0472.1573.1417.2962.2706.3979.4067.3443.9274.5244 1.46.505.2818.0033.5616-.048.824-.151.2351-.0844.4377-.2407.579-.4468s.2141-.4514.208-.7012c0-.82-.823-.82-1.549-.82z" fill="#facc15"/></g></svg>