<svg fill="none" height="108" viewBox="0 0 111 108" width="111" xmlns="http://www.w3.org/2000/svg"><path d="m92.559 26.12c-4.743-7.906-9.389-11.872-16.841-16.838-1.8136-.91865-3.6841-1.72028-5.6-2.4l-3.2-1.6c-9.085-4.13-17.918-5.552-24.869-4.008-2.8897.59324-5.8367.86158-8.786.8-6.5.722-12.948 3.317-23.26 13.628-8.084 8.084-10.424004 13.741-9.630004 23.271 0 8.322.605 14.431 1.900004 19.226 1.17101 4.396 3.25605 8.4955 6.119 12.031 1.653 2.477 5.705 5.677 8.011 7.212 1.432 1.432 3.794 3.794 3.961 4.642-.829.186-1.586 2.457-2.383 4.85-1.575 3.938-3.011 5.417-10.364 11.954-.64324.3078-1.20188.7675-1.62769 1.339-.42581.572-.70598 1.24-.81631 1.944 0 .635 1.25 1.231 2 1.231.14218.007.28367-.024.409-.092.05318-.031.09796-.075.13039-.127s.05152-.112.05561-.173c1.83364-1.529 4.0003-2.607 6.326-3.147l.031-.014c1.4164-.8803 2.8818-1.6792 4.389-2.393 1.5092-.715 2.9759-1.5163 4.393-2.4 3.982-1.593 4.7-1.593 13.556-1.593 12.074.8 19.2.8 22.438-.005 2.339-.78 2.341-.782 5.49 2.368 3.232 4.04 6.546 4.832 16.878 4.037 7.226 0 7.981 0 11.945 1.583 2.9878 1.814 6.2323 3.167 9.624 4.012 3.633 1.211 5.414 1.805 6.333 1.805.219.014.436-.042.621-.16.377-.272.377-.856.377-1.74 0-1.358-.573-1.629-2.475-2.526-.455-.215-.97-.458-1.593-.769-3.955-1.318-8.732-5.138-8.732-7.9 0-.762 0-2.343.76-3.118 1.757-.891 4.123-4.269 5.627-8.032.313-.548.6-1.05.871-1.514 2.48-4.291 3.07-5.31 2.342-8.936 0-3.242-1.57-7.961-4.8-14.424-.059-.8482-.422-1.6466-1.023-2.2485-.6-.6018-1.3979-.9667-2.246-1.0275l-2.331-1.553v-20.772zm-26.89 65.78c.1-1.033 1.505-2.074 4.449-4.037 6.139-3.07 12.692-8.589 15.236-12.83 4.643-6.192 6.341-9.446 8.013-13.623.914-2.286 1.821-3.5 2.853-3.821.4555-.0954.9268-.0849 1.3776.0308.4508.1156.8691.3333 1.2224.6362 2.336 1.558 5.555 10.317 5.555 15.117 0 3.567-2.61 8.781-7.97 15.929l-4.051 4.051 1.632 3.265c.4446.7423.7959 1.5366 1.046 2.365-.9047-.4498-1.7455-1.0181-2.5-1.69l-.029-.015c-2.357-.785-3.2-.8-9.187-.8h-.454c-8.057.805-13.563-.015-15.92-2.372-.963-.971-1.332-1.606-1.273-2.206zm28.505-46.733c-.436 6.745-2 13.385-4.194 17.771-2.215 5.904-6.808 12.462-11.172 15.962-5.5 4.714-13.452 9.535-15.951 10.376-1.4135.3137-2.767.854-4.008 1.6-3.2.8-15.95.8-22.344 0-2.0852-.6032-4.2526-.8732-6.422-.8h-.034c-3.76.94-9.038 2.538-12.82 4.808-1.1801.6605-2.4094 1.2288-3.677 1.7.6658-.8389 1.3989-1.6222 2.192-2.342 2.4-2.4 6.415-9.592 7.229-13.671 0-1.594 0-2.472-2.455-3.289-6.676-3.338-14.426-12.249-15.946-18.33-1.09071-6.8728-1.62577-13.8223-1.6-20.781 0-5.654 0-7.175 2.388-11.951 4.9508-7.4622 11.4953-13.7332 19.162-18.361 7.339-4.078 25.757-4.734 35.116-2.394 7.077 2.653 16.97 7.382 21.575 11.986 3.184 2.388 3.962 3.156 8.761 9.554.2164.7365.5947 1.4154 1.107 1.987.4879.6437.9256 1.3241 1.309 2.035 1.516 2.273 2.2 7.691 1.784 14.138z" fill="#7e22ce"/><path d="m60.493 29.273c-4.057-.811-4.058-.812-8.09 4.027-1.1494 1.2069-2.4518 2.2581-3.874 3.127-.922-2.454-5.635-6.363-8-7.939l-.031-.014c-3.21-.8-8.832-.022-12.069 2.408-3.284 1.642-6.459 8.1-7.256 12.889 0 6.294 1.47 8.711 11.23 18.471 4.714 4.714 9.588 9.588 10.381 11.174.9 1.8 2.082 2.892 3.117 2.892.053 0 .1 0 .157-.008.557-.061 1.3-.476 1.715-2.129 0-.759 1.6-2.36 2.353-3.115 16.774-10.386 23.251-19.268 21.647-29.695-.789-7.885-3.953-11.274-11.28-12.088zm-15.65 10.143c-.238.9.148 2.111 1.141 3.6.743 1.486 3.972 15.8 4.789 23.155-.0287.3883-.1959.7534-.4713 1.0288-.2753.2753-.6404.4425-1.0287.4712h-.041l-.032.029c-.039.039-.06.032-.074.028-.472-.156-1.691-3.269-4.557-22.373-.786-4.716-1.6-9.592-1.6-10.408-.322-1.292-.226-1.83-.028-1.9.02-.0066.0409-.01.062-.01.348 0 1.2.814 2.18 2.782.3973.7135.6635 1.4925.786 2.3-.2694.1234-.5092.303-.7034.5267s-.3383.4863-.4226.7703zm1.147 30.7c-.582.874-1.22 1.269-1.706 1.052-.607-.268-.978-1.513-.511-3.4-.3928-2.437-.927-4.8491-1.6-7.224-.969-4.4687-1.5048-9.0204-1.6-13.592-.77-4.62-1.6-10.341-1.6-12-.382-1.911-.635-3.173-.488-3.28h.012c.4149.2677.7879.5952 1.107.972l.026.019c1.334.666 2.117 4.913 3.834 14.216.278 1.504.5816 3.1397.911 4.907.787 6.289 1.6 12.793 1.6 14.387l.006.032c.786 2.362.791 3.127.009 3.911zm-19.09-31.347c-.029.003-.056.0159-.0765.0365-.0206.0206-.0335.0476-.0365.0765-.0967.0256-.1815.0839-.24.165-.632.81-.236 4.469 1.032 9.544.557 2.78.766 4.17.455 4.55-.0452.0481-.1011.0849-.1631.1074-.062.0226-.1284.0304-.1939.0226-.412 0-.6-.928-.846-2.1-.1663-.8885-.3863-1.7662-.659-2.628-.3029-1.0019-.5322-2.0247-.686-3.06-.246-1.42-.428-2.47-.909-2.595-.0915-1.6916.471-3.3536 1.571-4.642l1.521-3.78.714 2.141.024.039c.826.826 1.662 5.289 2.372 9.549.7321 3.1637 1.2665 6.3699 1.6 9.6.43 1.725.142 2.62-.2 2.706-.164.044-.369-.095-.566-.373-.3029-.4816-.5188-1.0127-.638-1.569-.1901-2.2674-.5157-4.5215-.975-6.75-.2-1.14-.414-2.368-.628-3.657-.627-3.131-2.05-7.384-2.47-7.384zm7.272 16.17c-.917-2.8477-1.455-5.8038-1.6-8.792-1.352-5.41-2.058-12.052-1.892-13 .0388.0793.0722.1612.1.245.2039 1.2238.772 2.3578 1.63 3.254l.029.029h.041c.63 0 2.245 5.8 3.1 13.511.688 6.193 1.384 11.257 1.559 12.507l-1.395-1.393-.026-.018c-1.518-.759-1.544-1.494-1.545-2.27.799-.838.797-2.471-.005-4.073zm.7-23.068c.3 0 1.532 1.725 4.7 23.913.76 6.074 1.528 10.765 1.595 11.16-.9658-1.1816-1.711-2.5274-2.2-3.973-.036-2.6907-.3037-5.3732-.8-8.018-.526-2.8073-1.011-5.3773-1.455-7.71-1.586-8.376-2.544-13.432-2.544-14.672.005-.7.005-.7.705-.7zm20.7 31.858c-.4056.4044-.9324.665-1.5.742h-.041l-.031.029c-.275.275-.474.472-.586.447-.2-.046-.427-.743-.849-2.01-3.044-8.369-3.716-21.263-2.825-21.714.0076-.0016.0154-.0016.023 0 .054 0 .135.075.224.209l.013.015c.778.778 1.589 4.83 2.376 8.761 1.1444 3.3668 1.9465 6.8403 2.394 10.368l.011.045c.4714.9718.7408 2.0291.792 3.108zm4.1-5.058c.262 0 .446-.367.89-1.255l.01-.045c0-.789 0-2.426-.817-3.259-.9877-2.2631-1.5264-4.6965-1.586-7.165-.2-.8-.4-1.663-.6-2.5-.4202-2.1473-1.0223-4.2549-1.8-6.3 0-4.01.021-4.677.7-4.677.7 0 3.082 6.2 4.7 15.924.158.633.3 1.212.43 1.739.833 3.376 1.145 4.639 1.772 4.929.1928.0535.395.0633.5921.0287.197-.0346.3838-.1128.5469-.2287l.026-.019c.836-.836.84-1.672.019-3.315l-.019-.027c-.778-.778-1.589-4.83-2.376-8.761-1.1114-3.1031-1.9152-6.3078-2.4-9.568l-.01-.044c-.3-.607-.392-1.021-.264-1.229.141-.227.565-.227.974-.227 1.493 0 2.3.681 3.1 4.727.429 1.5.85 2.916 1.256 4.285 1.084 3.649 1.94 6.531 1.94 7.688 0 .826.016.857.83 1.671.0688.0824.1194.1785.1484.282.0289.1034.0356.2118.0196.318-.069 1.251-1.651 3.8-4.968 6.458-2.3 2.305-3.971 3.971-4.73 3.971-.065 0-.321-.1-.858-1.4-1.5558-4.4007-2.773-8.9138-3.641-13.5-1.186-5.819-1.587-9.816-1.059-10.5.623.116 1.387 2.815 2.531 6.854.1666.5887.3436 1.2117.531 1.869.713 2.495 1.279 4.879 1.733 6.795.3434 1.7794.8365 3.5266 1.474 5.223.461.887.645 1.258.906 1.258zm9.541-9.453c-.551-.624-2.22-6.223-3.26-11-.636-2.913-.759-4.3-.656-4.681l2.293 2.293c1.1415 2.4971 1.6849 5.2261 1.587 7.97.4587 1.7753.4714 3.6366.037 5.418z" fill="#f87171"/></svg>