<svg width="128" height="108" viewBox="0 0 128 108" fill="none" xmlns="http://www.w3.org/2000/svg">
<g clip-path="url(#clip0)">
<path d="M8.96001 65.778C13.1394 65.8375 17.3084 65.3473 21.36 64.32C24.088 64.32 27.814 64.32 27.814 65.687C27.814 67.196 23.362 72.155 22.803 72.155L22.762 72.165C22.4484 72.3027 22.1728 72.5143 21.9586 72.7815C21.7444 73.0488 21.5981 73.3639 21.532 73.7C21.4861 73.9749 21.5059 74.2568 21.5899 74.5225C21.6738 74.7883 21.8195 75.0304 22.015 75.229L22.041 75.256H26.452C27.016 75.256 28.527 75.208 30.814 75.135C37.551 74.923 50.092 74.527 63.624 74.527C77.77 74.527 90.93 74.113 97.254 73.915C99.492 73.844 100.971 73.798 101.534 73.797C105.562 73.35 107.07 73.182 107.574 72.457C107.922 71.957 107.742 71.236 107.446 70.063C107.42 68.687 106.892 67.3679 105.961 66.354L100.868 61.262L99.861 59.917C96.248 55.081 94.888 53.263 93.485 53.937C92.685 53.951 92.685 54.766 92.685 55.486L92.697 55.533L92.724 55.56C92.564 56.027 87.004 56.76 61.429 57.581C55.3568 57.9832 49.2657 58.0119 43.19 57.667C42.236 57.618 41.543 57.582 41.049 57.581C39.6476 57.0397 38.1501 56.7916 36.649 56.852H36.611L36.585 56.879C36.4657 57.0395 36.3105 57.1699 36.1319 57.2597C35.9532 57.3496 35.756 57.3964 35.556 57.3964C35.356 57.3964 35.1588 57.3496 34.9801 57.2597C34.8015 57.1699 34.6463 57.0395 34.527 56.879C34.1327 56.4447 33.5893 56.1748 33.005 56.123C32.205 56.123 29.998 61.331 29.998 62.774C30.0001 62.8473 29.9785 62.9194 29.9363 62.9794C29.8942 63.0394 29.8337 63.0842 29.764 63.107C29.284 63.307 28.236 62.978 27.238 61.981C26.499 61.241 25.738 60.474 24.218 61.235L24.194 61.252C22.77 62.68 16.06 62.68 6.77301 62.68C0.122009 62.68 0.122009 63.432 0.122009 64.229L0.132009 64.269C0.886009 65.778 0.886009 65.778 8.96001 65.778ZM35.808 68.7C35.988 67.938 35.099 66.63 33.062 65.613C31.991 64.898 31.454 64.54 31.37 64.122C31.286 63.704 31.645 63.166 32.347 62.109C33.78 60.675 34.5 59.957 38.114 60.678C55.65 60.678 79.666 60.678 87.685 59.219L94.93 58.495L98.544 62.109C101.585 65.149 103.544 69.367 102.917 69.997C102.209 70.706 88.917 72.139 79.658 71.428H62.166C61.096 71.428 59.148 71.528 56.681 71.65C52.415 71.864 46.572 72.157 41.025 72.157L25.874 72.879L27.259 70.109C28.482 68.071 29.209 67.252 29.942 67.087C30.0362 67.0659 30.1325 67.0552 30.229 67.055C30.9653 67.1611 31.6577 67.4695 32.229 67.946C32.957 68.674 33.709 69.424 34.474 69.424C35.486 69.422 35.745 68.968 35.808 68.7Z" fill="#FACC15"/>
<path d="M64.713 45.736C64.613 46.146 65.234 46.55 65.77 46.818L65.81 46.828C66.549 46.828 68.088 46.828 68.088 45.279V45.188H66.539C65.413 45.188 64.8 45.372 64.713 45.736Z" fill="#FACC15"/>
<path d="M70.221 46.645H70.183C69.377 46.645 69.364 47.44 69.363 48.157C68.971 48.567 69.006 48.968 69.208 49.17C69.2573 49.218 69.3157 49.2557 69.3797 49.2809C69.4438 49.3061 69.5122 49.3184 69.581 49.317C69.8253 49.3032 70.0549 49.1957 70.222 49.017C70.3367 49.0076 70.4461 48.9646 70.5366 48.8935C70.6271 48.8224 70.6947 48.7262 70.731 48.617C70.8296 48.2797 70.8368 47.9222 70.752 47.5812C70.6671 47.2401 70.4932 46.9278 70.248 46.676L70.221 46.645Z" fill="#FACC15"/>
<path d="M4.621 17.083C6.195 18.373 26.339 17.552 33.03 16.214C36.1276 15.4296 39.2929 14.9424 42.483 14.759C46.147 14.759 46.807 14.759 48.249 16.919L50.389 19.06L46.775 26.3C46.219 27.691 45.675 28.957 45.187 30.074C44.6099 31.2026 44.1624 32.3928 43.853 33.622V33.714H46.873C51.807 33.014 72.024 32.296 73.062 32.259C73.136 32.335 73.27 32.482 73.243 32.559C73.162 32.803 71.943 32.974 69.508 33.316C69.05 33.38 68.543 33.451 67.997 33.53C65.9704 33.5536 63.949 33.7422 61.953 34.094C61.5415 34.1728 61.1258 34.2279 60.708 34.259C60.508 34.259 60.038 34.313 59.336 34.394C56.4034 34.7637 53.4517 34.962 50.496 34.988L49.452 35.083C42.403 35.721 41.666 35.783 40.952 37.225L40.942 37.266C40.942 37.977 39.475 41.635 38.036 44.513C37.1134 46.3941 36.3765 48.3608 35.836 50.385C35.836 51.027 34.469 51.751 33.741 51.751H33.7L32.216 53.235L32.189 53.262V53.3C32.189 54.089 37.264 54.12 49.772 54.12C54.946 54.12 61.291 53.9 66.889 53.706C71.548 53.544 75.949 53.391 78.926 53.391C88.919 53.391 91.363 53.391 91.407 52.591C92.139 51.08 90.688 48.159 88.463 46.669L87.627 45.669C84.48 41.902 80.563 37.214 81.177 36.599C81.839 35.938 90.415 34.439 97.148 34.439C99.437 34.439 102.304 34.239 105.076 34.05C107.603 33.875 109.989 33.711 111.741 33.709C120.046 32.198 122.741 32.287 124.803 32.972C125.044 33.1359 125.324 33.2345 125.615 33.2582C125.905 33.2819 126.197 33.2298 126.462 33.107C126.705 32.907 126.893 32.6483 127.009 32.3554C127.124 32.0626 127.163 31.7451 127.122 31.433C127.122 30.502 126.983 30.008 126.643 29.733C126.07 29.264 124.984 29.42 122.658 29.888C121.789 29.888 120.166 29.999 118.111 30.14C115.011 30.353 111.161 30.617 108.073 30.617C89.291 32.056 79.833 33.5 78.9 34.255H78.293C78.233 33.526 77.431 33.526 76.019 33.526C75.8348 33.5305 75.653 33.4836 75.4941 33.3905C75.3351 33.2974 75.2052 33.1618 75.119 32.999C75.0718 32.8618 75.0688 32.7132 75.1104 32.5742C75.152 32.4352 75.2362 32.3127 75.351 32.224C76.251 31.324 76.651 30.371 76.394 29.745C76.2926 29.5444 76.1318 29.3799 75.9335 29.2739C75.7353 29.168 75.5092 29.1258 75.286 29.153C73.918 29.153 68.818 21.277 68.818 19.769C68.7931 19.3703 68.625 18.9941 68.3445 18.7096C68.0641 18.4251 67.6903 18.2516 67.292 18.221C65.849 17.421 60.071 5.24 60.071 3.735C60.071 2.915 59.249 2.915 58.523 2.915C57.928 2.915 57.885 2.398 57.885 1.548C57.8929 1.40192 57.8581 1.2567 57.785 1.13C57.7534 1.08121 57.7097 1.04141 57.6582 1.01443C57.6067 0.987453 57.5491 0.974217 57.491 0.976001C56.81 0.976001 55.513 2.625 55.513 3.735C55.513 6.016 54.013 8.745 53.418 8.745H53.327V10.945C52.527 11.102 51.869 13.253 51.872 13.92L51.189 16.65L46.9 10.92L38.1 13.12C31.1785 14.7231 24.0841 15.4571 16.981 15.305C7.988 15.305 4.959 15.305 4.454 16.122C4.39381 16.2406 4.36644 16.3732 4.3747 16.5059C4.38297 16.6386 4.42657 16.7668 4.501 16.877C4.50625 16.9176 4.51958 16.9567 4.54018 16.9921C4.56079 17.0275 4.58827 17.0584 4.621 17.083V17.083ZM55.572 28.089C55.63 27.709 55.681 27.374 55.694 27.153C56.194 27.203 56.243 27.694 56.244 28.478C55.7813 29.081 55.5269 29.818 55.519 30.578C55.5111 30.5724 55.504 30.5657 55.498 30.558C55.241 30.261 55.44 28.954 55.572 28.089ZM75.964 40.1C74.291 41.216 73.89 44.3 74.359 45.849C74.55 46.479 74.879 46.827 75.285 46.827C76.105 46.827 76.105 46.004 76.105 45.278C76.3663 43.7689 76.8545 42.308 77.553 40.945L78.941 38.171L81.769 42.413C83.1077 44.4506 84.5722 46.4027 86.154 48.258L86.177 48.274C87.0399 48.7431 87.7571 49.4405 88.25 50.29H74.55C67.617 50.984 60.592 51.018 59.25 51.018H59.213L59.186 51.045C58.486 51.745 53.192 51.745 47.586 51.745C46.409 51.745 45.358 51.752 44.423 51.759C40.292 51.787 38.411 51.801 37.955 51.095C37.595 50.539 38.084 49.474 38.972 47.54C39.179 47.089 39.408 46.591 39.653 46.04C42.569 38.749 43.298 38.08 48.315 38.08C49.573 38.08 51.488 37.945 53.705 37.791C56.651 37.584 59.989 37.351 62.905 37.35C66.5244 36.8185 70.1696 36.4807 73.825 36.338C75.477 36.338 76.485 36.533 76.974 36.964C77.1113 37.0904 77.2189 37.2456 77.2891 37.4185C77.3593 37.5914 77.3903 37.7777 77.38 37.964C76.9981 38.7318 76.5225 39.4493 75.964 40.1Z" fill="#7E22CE"/>
<path d="M54.876 39.354C54.5346 39.1663 54.1509 39.069 53.7613 39.0713C53.3717 39.0735 52.9892 39.1753 52.65 39.367L52.6 39.392V39.448C52.6 40.201 52.614 40.229 53.355 40.97C53.7412 41.3364 54.2527 41.5414 54.785 41.543C54.9595 41.5464 55.133 41.5162 55.296 41.454C55.4115 41.4158 55.5122 41.3425 55.5839 41.2442C55.6557 41.1459 55.6949 41.0277 55.696 40.906C55.7062 40.5983 55.6359 40.2933 55.4921 40.0211C55.3483 39.7489 55.1359 39.519 54.876 39.354V39.354Z" fill="#FACC15"/>
<path d="M50.5 47.374C49.039 47.374 48.951 47.374 48.951 48.194C48.951 48.228 48.969 49.014 50.5 49.014C51.0774 48.9393 51.6131 48.6735 52.022 48.259L52.049 48.232V48.194C52.053 47.374 51.23 47.374 50.5 47.374Z" fill="#FACC15"/>
<path d="M72.37 39.357C70.853 39.357 69.363 40.124 69.363 40.906C69.363 41.584 69.363 41.958 69.591 42.122C69.6795 42.181 69.7848 42.2097 69.891 42.204C70.5012 42.1164 71.0984 41.9542 71.669 41.721H71.681C72.0621 41.579 72.3875 41.3184 72.6094 40.9777C72.8314 40.6369 72.9381 40.2339 72.914 39.828C72.895 39.6972 72.8296 39.5777 72.7297 39.4912C72.6298 39.4047 72.5021 39.3571 72.37 39.357Z" fill="#FACC15"/>
<path d="M57.793 46.645C57.093 46.645 56.668 46.808 56.535 47.129C56.409 47.429 56.574 47.829 56.999 48.259C57.3156 48.5747 57.742 48.7557 58.189 48.764C58.3513 48.7655 58.5123 48.7353 58.663 48.675C58.8876 48.5685 59.0735 48.3948 59.1951 48.1781C59.3167 47.9613 59.3681 47.7122 59.342 47.465C59.342 46.645 58.519 46.645 57.793 46.645Z" fill="#FACC15"/>
<path d="M101.853 98.0628V97.9718C101.853 97.3338 104.128 97.3338 106.135 97.3338C107.361 97.2937 108.582 97.1718 109.792 96.9688C110.993 96.7679 112.206 96.6466 113.423 96.6058L113.464 96.5958C114.996 95.8298 118.564 95.1668 120.683 95.8718H120.712C123.839 95.8718 125.905 95.8718 125.905 95.0518L125.895 95.0108C125.285 93.7908 122.522 89.4438 117.124 84.0478C113.501 81.1478 110.582 78.2318 109.861 76.7898L109.843 76.7658C109.616 76.5388 109.422 76.3268 109.251 76.1388C108.32 75.1218 107.895 74.6558 105.377 75.2868C103.735 75.7932 102.023 76.0375 100.304 76.0108C100.243 76.0108 98.865 76.0188 98.761 76.7418C98.525 76.7661 98.2911 76.8072 98.061 76.8648C97.139 77.1618 96.1414 77.1207 95.247 76.7488L95.206 76.7388C94.3774 76.7775 93.5521 76.8687 92.735 77.0118C91.1424 77.2796 89.5325 77.432 87.918 77.4678C86.931 77.4678 85.554 77.5218 83.959 77.5848C78.4789 77.897 72.9844 77.8596 67.509 77.4728H52.2C52.013 77.4728 51.558 77.5188 50.87 77.5878C47.1958 77.9796 43.504 78.1845 39.809 78.2018C34.268 78.2018 29.149 78.6228 26.689 78.8258C25.915 78.8888 25.404 78.9308 25.232 78.9308C23.106 78.9308 22.373 78.9308 21.678 78.2548C21.669 77.9728 21.549 77.7788 21.355 77.7338C21.061 77.6638 20.566 77.9538 20.055 78.9678C19.355 79.6678 18.63 80.3888 17.943 80.3888H17.909L17.882 80.4148C17.3563 81.0436 17.0868 81.8473 17.127 82.6658C17.127 83.1428 16.761 85.1248 12.045 90.6268C10.93 92.0198 9.937 93.3928 9.061 94.6028C7.788 96.3618 6.689 97.8808 6.285 97.8808H6.244L6.218 97.9068C5.94136 98.1897 5.73025 98.5298 5.59962 98.9032C5.46898 99.2767 5.422 99.6742 5.462 100.068H4.824C4.42257 100.02 4.01552 100.06 3.63135 100.186C3.24719 100.312 2.89519 100.521 2.6 100.797C2.188 100.81 2 101.039 2 101.252C2 101.465 2.183 101.688 2.583 101.706C3.366 103.006 8.613 102.567 22.358 101.406L27.437 100.979C29.12 100.576 30.8704 100.544 32.567 100.885C32.7794 100.932 32.995 100.964 33.212 100.98C33.669 101.427 34.15 101.618 34.475 101.486C34.5806 101.434 34.668 101.352 34.7257 101.249C34.7834 101.147 34.8086 101.029 34.798 100.912C35.0733 100.51 35.4651 100.201 35.9208 100.028C36.3765 99.8556 36.8742 99.8264 37.347 99.9448C37.927 100.082 38.261 100.425 38.261 100.887V100.978H39.118L39.145 100.951C40.46 99.6358 47.362 98.9458 48.371 99.3638C48.448 99.3968 48.464 99.4228 48.464 99.4288C48.464 100.155 48.464 100.978 49.284 100.978C49.8619 100.903 50.3982 100.637 50.807 100.222L50.833 100.195V100.158C50.833 99.5198 50.833 99.5198 51.471 99.5198C52.321 99.5198 52.838 99.5628 52.838 100.158C52.838 100.845 53.001 101.258 53.297 101.332C53.637 101.411 54.067 101 54.468 100.198L54.477 100.158C54.477 99.5198 56.048 99.5198 59.488 99.5198C60.95 99.5198 62.988 99.3338 64.963 99.1548C66.938 98.9758 68.968 98.7908 70.421 98.7908H76.214L79.091 101.666C80.3946 103.501 81.8623 105.213 83.476 106.782C84.96 108.266 85.721 108.266 86.456 108.266H86.486L86.509 108.245C89.486 106.012 98.693 105.304 107.598 104.619L109.488 104.474C117.399 103.874 118.614 103.78 118.614 102.341C118.636 102.165 118.619 101.987 118.565 101.818C118.512 101.649 118.422 101.494 118.303 101.363C117.725 100.853 116.19 100.992 111.956 101.521C107.218 101.886 102.216 102.442 98.197 102.889C94.076 103.346 90.822 103.708 89.369 103.708L89.335 103.714C86.035 105.035 83.135 104.068 80.705 100.841L80.014 98.7698L84.275 98.0588C93.339 97.3028 100.322 97.3898 100.919 97.9398C100.929 97.9466 100.936 97.9565 100.94 97.9678V98.0588L101.853 98.0628ZM103.366 94.2368C104.73 91.1859 105.927 88.0626 106.95 84.8808C107.696 82.6438 109.11 80.6488 109.743 80.5728C110.412 81.2848 110.343 82.8598 108.243 89.1848C107.819 90.0328 107.471 90.7578 107.191 91.3388C106.011 93.7948 105.798 94.2388 104.68 94.2388L103.366 94.2368ZM111.876 89.9368C111.134 93.6498 110.394 94.9658 109.05 94.9658C108.866 94.9702 108.684 94.9232 108.525 94.8299C108.366 94.7366 108.236 94.6008 108.15 94.4378C108.103 94.3008 108.1 94.1524 108.142 94.0135C108.183 93.8747 108.267 93.7524 108.382 93.6638L108.4 93.6448L108.406 93.6208C108.413 93.5918 109.142 90.6838 109.857 88.5378C111.25 85.7498 112.018 84.2148 112.69 84.2148C112.84 84.1953 112.992 84.2161 113.131 84.2752C113.27 84.3343 113.391 84.4294 113.481 84.5508C113.889 85.2098 113.381 86.9138 111.881 89.9138L111.876 89.9368ZM95.163 84.5898C94.753 85.6408 94.255 86.9158 93.663 88.4628C92.307 91.8518 90.935 94.6428 90.763 94.9818C90.6389 95.0376 90.5011 95.0554 90.3669 95.033C90.2327 95.0106 90.1082 94.9489 90.009 94.8558C89.071 93.8918 89.954 89.3458 92.361 82.7168C93.8 80.5588 94.517 79.8418 95.93 79.8418C96.037 79.8418 96.136 79.8418 96.23 79.8348C96.324 79.8278 96.375 79.8288 96.436 79.8288C96.577 79.8288 96.677 79.8428 96.719 79.9018C96.895 80.1538 96.424 81.3618 95.163 84.5898ZM101.68 81.8968C101.296 82.7879 100.974 83.7044 100.717 84.6398C100.207 86.4494 99.5531 88.2153 98.762 89.9208C97.285 93.6128 96.578 94.2368 95.18 94.2398C94.293 94.4618 93.812 94.4568 93.616 94.2208C93.108 93.6118 94.164 91.2908 96.476 86.2058L96.743 85.6168C99.33 79.5818 100.681 79.1168 101.033 79.1168C101.598 79.1168 101.94 79.1168 102.07 79.2838C102.268 79.5338 102.082 80.2798 101.68 81.8968V81.8968ZM103.138 90.6428C101.699 93.5208 100.977 94.9658 99.575 94.9658C99.3907 94.9702 99.2089 94.9232 99.0499 94.8299C98.8909 94.7366 98.7611 94.6008 98.675 94.4378C98.6279 94.3008 98.6249 94.1524 98.6665 94.0135C98.7081 93.8747 98.7922 93.7524 98.907 93.6638L98.927 93.6328C99.776 91.4908 100.505 89.3031 101.11 87.0798C101.627 86.0458 102.136 84.9378 102.629 83.8668C103.188 82.4462 103.895 81.0884 104.738 79.8158L104.764 79.7888V79.7508C104.764 78.8338 105.031 78.2178 105.517 78.0178C105.632 77.9693 105.755 77.9445 105.879 77.9448C106.223 77.9559 106.549 78.0992 106.789 78.3448C107.347 79.5148 106.085 83.7668 103.138 90.6448V90.6428ZM75.438 86.2698C74.88 87.3848 74.438 88.3778 74.044 89.2538C73.6785 90.2604 73.1736 91.2107 72.544 92.0768L72.518 92.1038V92.1408C72.4245 92.8973 72.1797 93.6271 71.798 94.2868L71.789 94.3278C71.7626 94.6816 71.6101 95.014 71.3592 95.2648C71.1083 95.5155 70.7757 95.6677 70.422 95.6938L70.381 95.7038C69.853 95.9678 69.507 96.0428 69.326 95.9288C69.057 95.7628 69.055 95.1678 69.055 94.3458C70.586 90.5218 74.155 82.7028 74.855 82.0018L74.881 81.9748V81.9368C74.881 81.3418 75.398 81.2998 76.248 81.2998C76.3043 81.2919 76.3617 81.2982 76.415 81.3181C76.4683 81.338 76.5157 81.3709 76.553 81.4138C76.809 81.7608 76.503 83.0798 75.442 86.2698H75.438ZM77.063 87.0698C78.609 82.4328 79.409 80.7538 80.233 80.4118C80.4096 80.3543 80.5969 80.3374 80.781 80.3623C80.965 80.3872 81.1411 80.4534 81.296 80.5558C81.974 81.2348 81.971 81.2458 81.267 83.3558C80.899 84.1825 80.555 84.9525 80.235 85.6658C77.919 90.8388 76.96 92.9798 77.641 93.6658C77.7537 93.8081 77.9087 93.9108 78.0835 93.9594C78.2584 94.0079 78.4441 93.9996 78.614 93.9358C78.8103 93.8371 78.9746 93.6847 79.0879 93.4964C79.2011 93.3081 79.2587 93.0915 79.254 92.8718C79.5706 91.6701 80.0127 90.5051 80.573 89.3958C81.057 88.2778 81.606 87.0108 82.16 85.6238C84.372 81.2008 85.06 80.5728 86.452 80.5728L86.481 80.5678C87.024 80.3868 87.555 80.2488 87.749 80.4678C88.2 80.9678 87.193 83.4448 84.918 88.4518C83.449 90.6518 82.007 93.5438 81.988 94.3168C81.7899 94.7592 81.471 95.1367 81.0681 95.4061C80.6652 95.6754 80.1945 95.8258 79.71 95.8398C78.9485 95.9667 78.167 95.8898 77.4449 95.6171C76.7227 95.3443 76.0855 94.8854 75.598 94.2868C74.882 92.8448 74.93 92.0548 77.067 87.0678L77.063 87.0698ZM84.352 92.9008C85.926 88.1788 90.962 79.8438 91.552 79.8438C91.697 79.8438 91.787 79.8438 91.818 79.8928C92.006 80.1748 91.274 81.9308 88.548 88.4768C87.114 94.2118 86.383 95.6958 84.992 95.6958C84.469 95.6958 84.154 95.5958 84.003 95.3888C83.733 95.0038 83.927 94.1848 84.356 92.8988L84.352 92.9008ZM58.837 87.8108C60.129 85.2278 60.869 82.6238 60.488 82.0108C60.4636 81.9679 60.4295 81.9313 60.3883 81.904C60.3471 81.8767 60.3001 81.8595 60.251 81.8538C60.1991 81.806 60.1361 81.7718 60.0676 81.7543C59.9992 81.7369 59.9275 81.7367 59.859 81.7538C58.746 82.0168 57.127 86.5418 56.482 88.4758V88.5038C56.4572 89.8317 55.9483 91.1048 55.051 92.0838L55.024 92.1108V92.1478C54.9945 92.4694 54.9046 92.7826 54.759 93.0708C54.4653 93.6949 54.3072 94.3742 54.295 95.0638C54.338 95.3489 54.3135 95.64 54.2234 95.9138C54.1333 96.1876 53.9802 96.4364 53.7764 96.6402C53.5726 96.844 53.3237 96.9971 53.0499 97.0872C52.7761 97.1773 52.485 97.2018 52.2 97.1588C51.676 97.1588 51.362 97.0588 51.211 96.8518C50.935 96.4688 51.129 95.6518 51.552 94.3748C52.1408 93.0035 52.6301 91.5915 53.016 90.1498C53.255 89.3548 53.501 88.5318 53.736 87.8218C55.236 85.3218 55.768 83.7538 55.36 83.0328C55.2552 82.875 55.1087 82.7493 54.9368 82.6697C54.7648 82.59 54.5742 82.5596 54.386 82.5818H54.338L54.311 82.6228C53.3213 84.209 52.5794 85.9369 52.111 87.7468C49.211 96.4468 49.211 96.4468 46.367 97.1588C45.349 97.1588 44.788 97.1588 44.626 96.9338C44.464 96.7088 44.65 96.1338 44.996 95.0918V95.0638C45.0351 94.2499 45.188 93.4454 45.45 92.6738C45.5863 92.2796 45.6785 91.8714 45.725 91.4568C47.168 89.9568 48.641 83.4568 48.641 82.6728V82.6358L48.614 82.6078C48.5681 82.5576 48.5088 82.5216 48.4431 82.5038C48.3773 82.4861 48.3079 82.4875 48.243 82.5078C47.352 82.7778 46.043 86.7448 44.821 92.8438C44.653 93.2638 44.505 93.6438 44.37 93.9898C43.347 96.6138 43.134 97.1598 41.261 97.1598L39.254 97.8238L41.348 93.6348C41.568 92.9748 41.86 92.1668 42.169 91.3118C42.876 89.3548 43.755 86.9198 44.263 84.8888L45.7 80.5788H54.38C58.033 80.5788 63.035 80.5788 63.035 81.2168C62.9966 82.2142 62.7518 83.1928 62.316 84.0908C61.7636 85.4583 61.3229 86.8682 60.998 88.3068C60.712 89.3948 60.415 90.5198 60.124 91.3958C58.632 96.6138 57.934 97.8888 56.567 97.8888C56.476 97.8944 56.3853 97.8749 56.3046 97.8326C56.2238 97.7903 56.1562 97.7268 56.109 97.6488C55.494 96.6868 56.489 93.1018 58.841 87.8088L58.837 87.8108ZM43.337 81.3018C43.204 81.9458 42.476 85.3758 41.179 89.9198C38.356 96.2718 37.566 97.8828 36.889 97.8828H36.86C36.068 98.1458 35.654 98.1828 35.474 97.9918C35.056 97.5578 35.625 95.7688 36.974 92.1668C37.3569 91.1082 37.8119 90.0771 38.336 89.0808C38.7213 88.4485 39.0016 87.7579 39.166 87.0358C39.349 85.8228 39.7788 84.6602 40.429 83.6198C41.26 82.1648 42.116 81.2968 42.719 81.2968L43.337 81.3018ZM31.066 97.9918C30.592 97.5528 30.966 95.7918 31.876 92.1628C33.444 85.1078 35.629 81.3018 36.889 81.3018L36.918 81.2968C37.662 81.0498 38.154 81.0548 38.382 81.3168C38.762 81.7548 38.477 82.9318 37.536 84.8168L37.527 84.8578C37.395 85.9424 37.1206 87.0049 36.711 88.0178C36.1541 89.597 35.6979 91.2099 35.345 92.8468C35.145 93.4568 34.966 93.9968 34.811 94.4738C33.873 97.3648 33.704 97.8858 32.511 97.8858H32.482C31.691 98.1518 31.279 98.1828 31.071 97.9898L31.066 97.9918ZM72.489 80.5768L71.068 86.2698C69.637 89.1318 68.158 92.0908 68.143 93.5768C67.443 94.9818 66.733 95.6938 66.048 95.6938L66.007 95.7038C65.736 95.8398 65.38 95.9658 65.221 95.7948C64.937 95.4878 65.221 94.1878 66.858 91.4528C67.3893 90.307 67.6425 89.052 67.597 87.7898C69.0432 85.2654 70.6785 82.8542 72.489 80.5768V80.5768ZM68.148 83.3668V83.3948C68.1237 84.7228 67.6147 85.996 66.717 86.9748C66.0896 87.8238 65.5922 88.7614 65.241 89.7568C65.002 90.3128 64.755 90.8878 64.514 91.3718L64.504 91.4118C64.4667 92.9586 63.9684 94.459 63.073 95.7208L63.056 95.7448C62.4727 96.6055 61.5751 97.2029 60.556 97.4088C60.4386 97.4416 60.3155 97.4491 60.195 97.4308C60.195 97.4308 60.195 97.3948 60.285 97.3078L60.311 97.2808V97.2448C60.311 95.7108 62.525 87.0348 64.666 84.1808L64.68 84.1538C65.38 82.0618 66.754 81.3018 67.509 81.3018C67.852 81.3018 68.177 81.3018 68.335 81.5218C68.531 81.7948 68.47 82.3988 68.148 83.3668V83.3668ZM23.699 95.0058L23.683 95.0288V97.2448C23.7118 98.0027 23.472 98.7465 23.006 99.3448H20.859H20.83C20.37 99.4978 20.065 99.4818 19.896 99.2938C19.278 98.6078 20.245 95.6088 23.129 89.2638C26.088 82.6048 26.787 81.3008 28.148 81.3008H29.503C29.252 82.5628 25.091 92.9168 23.699 95.0058ZM25.206 98.7268C24.949 98.4718 24.99 97.9268 25.321 97.2648C27.043 90.3738 31.33 81.2998 32.521 81.2998C32.891 81.2998 33.398 81.2998 33.455 81.4378C33.47 81.4728 33.473 81.5858 33.185 81.8728L33.159 81.8998V81.9368C33.0455 82.597 32.8762 83.2463 32.653 83.8778C31.9492 86.0963 31.3897 88.3581 30.978 90.6488C30.421 92.0488 29.978 93.4168 29.584 94.6278C29.02 96.3728 28.532 97.8808 28.148 97.8808H28.109L28.082 97.9068C27.7058 98.285 27.2169 98.5307 26.689 98.6068L26.648 98.6168C26.001 98.9448 25.462 98.9838 25.209 98.7268H25.206ZM16.398 92.1188C15.7888 94.2764 15.3014 96.4665 14.938 98.6788C14.523 99.4998 14.164 99.7368 13.981 99.6978C13.781 99.6508 13.662 99.2778 13.662 98.6978C13.662 97.3038 17.2 88.7638 17.997 87.1338C18.0336 87.1435 18.0649 87.1672 18.084 87.1998C18.289 87.5358 17.956 88.9968 16.398 92.1188V92.1188ZM20.778 92.1008C18.678 96.3008 17.159 99.3388 16.486 99.3388L16.445 99.3488C16.172 99.4848 15.985 99.5128 15.891 99.4308C15.484 99.0788 16.247 96.7918 17.291 93.6398C17.497 93.2288 17.759 92.6468 18.063 91.9718C18.88 90.0338 19.8382 88.1584 20.93 86.3608L20.942 86.3328C21.2985 84.7392 22.0374 83.2562 23.095 82.0118C23.351 81.8848 23.654 81.7568 23.77 81.8608C24.201 82.2388 23.146 85.4658 20.778 92.1008V92.1008ZM13.899 92.0618C13.617 92.6988 13.185 93.7398 12.757 95.0228C11.32 98.6168 10.608 99.3388 9.926 99.3388H8.58C8.846 98.5758 11.709 94.8268 13.899 92.0618ZM74.065 95.8768C74.2289 95.8725 74.3878 95.9332 74.5071 96.0456C74.6265 96.158 74.6965 96.313 74.702 96.4768L74.028 97.1508C73.8642 97.1454 73.7091 97.0753 73.5967 96.956C73.4843 96.8366 73.4237 96.6777 73.428 96.5138C73.428 95.8768 73.428 95.8768 74.065 95.8768ZM115.265 87.9988C115.464 87.8354 115.708 87.7363 115.965 87.7148C116.065 87.7116 116.163 87.7435 116.242 87.8048C115.98 88.6238 115.484 89.3484 114.816 89.8898C114.588 90.1196 114.395 90.3813 114.242 90.6668L114.233 90.6428C113.778 89.7328 114.542 88.5228 115.269 87.9988H115.265ZM116.411 90.7338L117.792 88.6618L119.186 90.7478C119.446 91.0142 119.644 91.3352 119.765 91.6875C119.886 92.0398 119.928 92.4146 119.886 92.7848C119.143 92.8998 118.427 93.1445 117.769 93.5078C116.432 93.5078 115.695 93.5078 115.516 93.2158C115.33 92.9058 115.717 92.1308 116.415 90.7338H116.411Z" fill="#7E22CE"/>
<path d="M43.216 46.645C42.302 46.645 41.616 46.926 41.43 47.38C41.3785 47.5359 41.3762 47.7039 41.4234 47.8611C41.4706 48.0184 41.5651 48.1573 41.694 48.259C42.1007 48.6033 42.6214 48.7834 43.154 48.764C43.4358 48.7673 43.7156 48.716 43.978 48.613C44.2131 48.5286 44.4157 48.3723 44.557 48.1662C44.6983 47.9601 44.7711 47.7148 44.765 47.465C44.765 46.645 43.942 46.645 43.216 46.645Z" fill="#FACC15"/>
</g>
<defs>
<clipPath id="clip0">
<rect width="128" height="108" fill="white"/>
</clipPath>
</defs>
</svg>
