<svg fill="none" height="97" viewBox="0 0 74 97" width="74" xmlns="http://www.w3.org/2000/svg"><path d="m5.02601 91.755c.171 1.547.528 3.29.937 3.7l.024.017c.91496.4413 1.91016.6917 2.925.736h.008c1.66719.3577 3.37029.5202 5.07499.484 3.701-.0475 7.3887-.4544 11.011-1.215 5.73-1.91 12-2.147 25.723-2.667 1.951-.074 4.051-.153 6.318-.244 7.21 0 13.792-.722 13.848-.729.708 0 1.43-1.178 2.273-3.707v-.028c0-2.187 0-2.93-.73-4.395 0-.215-.056-.671-.134-1.35-.3696-2.932-.5679-5.883-.594-8.838l-.015-.249c-.718-12.213-.761-12.945-7.324-17.319-2.8-1.4-6.5-3.59-7.994-5.085l-.026-.019c-4.051-1.847-5.822-3.241-6.109-4.823-.35-1.93 1.532-4.27 4.683-7.42 1.8232-1.8388 3.5298-3.7896 5.11-5.841l.018-.024v-.031c-.0485-.3784-.0128-.7628.1044-1.1258s.313-.6956.5736-.9742c.868-.075 2.387-2.553 2.96-3.7 1.36-3.4 5.837-15.281 5.837-16.8 0-.37 0-.878.138-.935.037-.014.147-.017.436.271l.026.026h.038c1.5 0 1.521-.014 2.268-1.508l.01-.041c0-.761-.037-.817-.762-.82-.4719-1.1323-.71-2.34833-.7-3.575l-.746-2.984h-30.682c-25.335 0-31.35499 0-33.56699.739-1.17774.55099-2.38604 1.03411-3.619 1.447-.687.011-1.217.727-1.534998 2.073-.567 2.4-.285001 6.28.765998 6.839.708.728 1.443 3.666 2.154 6.512 2.852 9.268 6.30799 13.025 16.81099 18.276 4.318 2.159 7.966 5.794 7.966 7.936 0 2.583-2.37 5.419-7.247 8.671-6.683 4.465-10.248 8.817-13.15499 16.085-2.972 8.172-3.645 10.267-2.916 14.636.713 2.141.721 3.581.022 4.28-.413.413-.378 2.192-.208 3.719zm14.16599-59.126c-5.059-2.89-7.263-4.356-8.719-7.264-3.43499-4.58-5.65499-10.832-4.74999-13.38.0678-.249.1984-.4764.37927-.6604s.40597-.3185.65373-.3906h8.74399c3.9385.0187 7.863-.4714 11.676-1.458h29.153c3.3681-.43647 6.7784-.43849 10.147-.006.557.658-.535 4.269-2.18 9.7-.246.813-.506 1.672-.773 2.566-1.985 4.631-6.245 11.386-10.908 15.272-5.468 4.784-6.781 8.524-4.378 12.524 2.664 2.3103 5.6081 4.276 8.763 5.851 10.967 5.849 11.613 7.379 11.614 16.693.725 6.531-.066 7.26-.232 7.339-.1.046-.213 0-.342-.125l-.024-.016c-.4472-.1874-.9403-.2369-1.4158-.1421-.4756.0948-.912.3295-1.2532.6741-.2469.2109-.4177.4971-.486.8146s-.0303.6486.108.9424c0 1.345-.015 1.345-2.824 1.345-2.6915-.0578-5.381.1868-8.018.729-1.1 0-3.006.1-5.421.232-3.907.21-9.259.5-14.26.5-3.816.1-7.034.194-9.873.279-16.49999.494-16.49999.5-16.88199-2.871-.033-.3-.07-.623-.122-.984-.328-1.312.25-4.358 1.547-8.148 1.06079-3.2467 2.49509-6.3592 4.27399-9.275 2.2-3.662 8.159-8.09 11.624-10.17 1.5961-.7234 2.9771-1.8487 4.0078-3.2659s1.6758-3.0778 1.8722-4.8191c.732-5.093-2.006-8.015-11.702-12.486zm-10.15799 59.116c0-3.557 0-3.557 15.21799-4.282 4.743-.163 8.642-.29 11.919-.4 11.391-.371 15.229-.5 20.883-1.06 2.176-.182 4.0827-.2727 5.72-.272 3.585 0 5.867.434 6.808 1.3.1547.1316.279.2953.3641.4797.0852.1844.1291.3852.1289.5883v1.369c-28.717.757-38.893 1.541-47.306 3.645-3.1217.5742-6.2952.8179-9.468.727l-4.26699.711zm60.85899-87.1c0 .136-.157.273-.456.273h-.037l-.026.026c-.626.627-18.19 2.127-50.955 2.889-1.463 0-3.318.186-5.111.365s-3.63999.364-5.10599.365c-2.906.415-4.233.6-4.534.243-.191-.228-.011-.767.26-1.582v-.006c.7-2.791 2.688-3.555 7.93899-4.3 1.691-.188 6.587-.284 13.038-.284 5.241 0 11.509.063 17.916.193 15.813.321 26.228.909 26.534 1.5l.025.05h.056c.3-.003.457.135.457.271z" fill="#9333ea"/><g fill="#facc15"><path d="m62.084 78.691c.5247.6173 1.2605 1.017 2.064 1.121.1421.0016.2831-.0249.415-.078.2007-.1013.3653-.262.4713-.4603.1059-.1984.1481-.4245.1207-.6477-.0656-.4147-.2212-.81-.456-1.1581s-.543-.6406-.9029-.8568c-.36-.2162-.7629-.3509-1.1805-.3946s-.8397.0046-1.2366.1415l-.05.025v.056c.0881.786.3395 1.5448.738 2.228z"/><path d="m47.1 38.188c.3914-.1071.7338-.3461.9691-.6767s.349-.7324.3219-1.1373c.423-.847.565-1.134.429-1.271s-.427.008-1.29.44l-.024.016c-.285.2957-.5006.6511-.6312 1.0404-.1306.3894-.1728.8029-.1238 1.2106-.0026.051.0048.102.022.15.0172.0481.0437.0923.078.13.0328.0323.0717.0576.1145.0744.0428.0169.0886.0249.1345.0236z"/><path d="m51.855 32.765c.039.3914.2157.7563.4987 1.0295.283.2733.6538.4372 1.0463.4625.835 0 1.549-2.292 1.549-3.006 0-.657 0-.833-.13-.879s-.212.076-.464.39c-.3168.4039-.6571.7889-1.019 1.153-.1697.1864-.3551.358-.554.513-.0185-.1362-.0248-.2737-.019-.411.255-.262.345-.455.283-.607-.1-.25-.567-.25-1.1-.25-.687 0-1.1.163-1.175.459-.08.336.315.753 1.084 1.146z"/><path d="m45.634 75.57c-.0947.2882-.1059.5973-.0323.8916.0737.2943.2291.5617.4483.7714.1001.1004.2193.1797.3505.2335.1312.0537.2717.0808.4135.0795.1753-.0016.3486-.0376.51-.106.3296-.1495.6072-.3938.7975-.7018.1902-.3079.2844-.6655.2705-1.0272 0-.82-.823-.82-1.549-.82-.247-.0258-.4959.0256-.7125.1472-.2165.1216-.39.3074-.4965.5318z"/><path d="m49.6669 75.711c.0374.4011.1653.7885.374 1.133.1977.3205.3204.6815.359 1.056 0 .638 0 .638-.638.638s-.638 0-.638-.638v-.091h-.091c-.5841.0517-1.1274.3212-1.522.755-.519.521-1.026.237-1.945-.28-.251-.14-.536-.3-.852-.459-.712-.711-1.165-1.141-1.435-1.029-.168.069-.168.3-.168.375 0 .632-1.386.638-2.074.638-.91-.45-1.54-.34-1.763-.031-.179.249-.095.6.22.916.4089.4145.9447.6803 1.522.755 1.431 0 2.149 0 2.851.7l.027.027h3.654c.6843.5715 1.5093.9493 2.389 1.094.1033.0005.2062-.0126.306-.039.409-.108.725-.439 1.058-1.106l.01-.04c-.0108-.0842.0034-.1697.0409-.2459.0375-.0761.0967-.1395.1701-.1821.259-.105.686.087 1.105.5 1.243.828 2.408 1.043 2.968.55.1723-.1886.2743-.4308.2888-.6858.0146-.255-.0591-.5072-.2088-.7142l-.018-.024c-.741-.741-.769-.755-1.522-.755-.3195.0085-.6393.0001-.958-.025.3239-.1946.6577-.3721 1-.532l.022-.01.013-.02c.889-1.335 1.223-1.834 1.075-2.11-.117-.219-.463-.219-1.151-.219-.781 0-.82.039-.82.82 0 .673-.143 1.086-.392 1.134-.453.094-1.376-.925-2.35-3.361-.992-1.983-1.534-2.722-1.913-2.628-.313.074-.447.655-.447 1.94v1.549h.086c.851.007 1.367.05 1.367.645z"/><path d="m35.91 79.993c-.914 0-1.6.281-1.786.734-.0515.1559-.0538.3239-.0066.4811.0473.1573.1417.2962.2706.3979.3165.3159.743.4969 1.19.505.162.0014.3226-.0288.473-.089.2244-.1065.4102-.28.5318-.4965s.1731-.4655.1472-.7125c.0042-.1088-.0141-.2173-.0538-.3187s-.1-.1935-.177-.2705-.1691-.1373-.2705-.177-.2099-.058-.3187-.0538z"/><path d="m31.628 38.539c.014-.3616-.0801-.7191-.2701-1.027-.19-.308-.4674-.5523-.7969-.702-.2083-.0993-.442-.1328-.6698-.0958-.2279.037-.439.1426-.6052.3028l-.027.027v.766l.01.041c.1398.3409.369.6377.6635.8591.2944.2215.6432.3593 1.0095.3989.0744.0005.1486-.0079.221-.025.13-.0201.2483-.0862.3337-.1862.0853-.1.1319-.2273.1313-.3588z"/><path d="m35.882 76.348c-.3911.0447-.7682.1726-1.106.375-.3198.1951-.6792.3161-1.052.354h-1.549v1.587l.026.027c.1276.1119.2761.1974.437.2517.1608.0542.3307.0761.5.0643 1.5583-.2188 3.0357-.8292 4.294-1.774.673-.673.935-1.244.7-1.528-.277-.339-1.139-.093-2.25.643z"/><path d="m32.9 40.7c-.1697.2634-.2701.5654-.292.878-.0218.3125.0356.6255.167.91.1007.1589.2404.2892.4059.3787.1654.0895.351.135.5391.1323.1657.0033.3297-.0338.4779-.1082.1481-.0744.2758-.1839.3721-.3188.26-.361.465-1.106-.032-2.6-.453-2.263-.622-3.11-1.05-3.319-.3-.146-.662.037-1.267.34l-.024.017c-.464.465-.668.959-.531 1.289.0539.1097.1407.1998.2482.2578.1076.0581.2305.0812.3518.0662.634.007.634 1.393.634 2.077z"/><path d="m26.412 77.807c-.483.03-1.1 1.008-1.423 1.595-.4033.6574-.6851 1.3819-.832 2.139l.01.041c.1177.3021.3139.5673.5682.7684s.5577.3307.8788.3756c.0674.0002.1345-.0079.2-.024.443-.1.708-.538.708-1.161 0-.68 0-2.095.638-2.095l.04-.01c.3156-.1395.5776-.3774.747-.678.0608-.1094.0946-.2317.0986-.3567.004-.1251-.0219-.2493-.0756-.3623-.189-.388-.76-.624-1.558-.232z"/><path d="m22.649 81.46c-.113-.0539-.2372-.08-.3623-.076s-.2474.038-.3567.099c-.2962.1668-.5315.4235-.672.733-.753.754-.75.817.011 1.577l.026.026h.038c.5841-.0517 1.1274-.3212 1.522-.755l.017-.024c.1681-.3014.235-.6487.191-.991-.0174-.1239-.064-.242-.136-.3444s-.1673-.1862-.278-.2446z"/><path d="m38.354 49.136c.141 0 .314-.107.536-.328.179-.1354.3242-.3104.4241-.5113s.1519-.4223.1519-.6467-.052-.4458-.1519-.6467-.2451-.3759-.4241-.5113c-.266-.266-.454-.353-.6-.294-.281.116-.281.72-.281 1.816 0 .536 0 1 .25 1.1.0299.0135.0622.021.095.022z"/><path d="m38.825 41.363c-.587 0-1.8 1.479-2.236 2.541-.244.589-.2489 1.025-.0149 1.26.1106.1075.2417.1917.3855.2477.1437.056.2972.0826.4515.0783.2229-.0019.4433-.047.649-.133.2212-.0671.4191-.1954.5707-.37s.2508-.3885.2863-.617c-.0497-.3835-.0125-.7733.1086-1.1406.1212-.3673.3233-.7027.5913-.9814l.0261-.027v-.038c.002-.783-.0361-.82-.8181-.82z"/><path d="m40.6639 40.244c-.0255.6819.1232 1.3591.432 1.9676.3088.6086.7676 1.1284 1.333 1.5104l.826.01.025-.05c.1372-.3969.1856-.8191.1419-1.2367-.0436-.4177-.1783-.8207-.3945-1.1807s-.5087-.6682-.8569-.9029-.7437-.3903-1.1585-.4557c-.1 0-.279.044-.348.338z"/><path d="m38.256 66.609c.0316.0132.0657.0196.1.019.2004-.0351.3812-.1417.509-.3h2.185l.026-.027c.4153-.4083.6816-.9443.756-1.522 0-1.531-.787-1.549-.82-1.549-.768 0-.818.037-.82.781-.3696.3688-.8497.6066-1.367.677-.781 0-.819.038-.819.82 0 .535 0 .998.25 1.101z"/><path d="m11.129 82.179c-1.38398 0-2.29998.291-2.50698.8-.05006.1457-.05222.3036-.00617.4505.04606.147.13793.2754.26217.3665.1283.1484.28538.2692.46174.3552.17635.0859.36831.1352.56426.1448.55598 0 1.18598-.4 2.01798-1.233.277-.276.375-.478.31-.634-.104-.25-.567-.25-1.103-.25z"/><path d="m14.409 78.17c-.1569-.0052-.3133.022-.4593.0797-.1461.0578-.2787.1449-.3897.256s-.198.2438-.2557.3899c-.0576.1461-.0846.3024-.0793.4594 0 .726 0 1.549.82 1.549.4025-.0251.782-.1964 1.0671-.4816.2851-.2853.4561-.6649.4809-1.0674.0053-.157-.0217-.3133-.0793-.4594s-.1446-.2788-.2556-.3899-.2437-.1982-.3897-.256c-.1461-.0577-.3024-.0849-.4594-.0797z"/><path d="m42.551 69.839c-.564-1.129-1.613-1.9-2.1-1.782-.0654.0144-.1248.049-.1696.0988-.0448.0499-.0729.1126-.0804.1792-.0541-.0007-.1077.0109-.1567.034-.0491.023-.0922.0569-.1263.099-.1.153-.021.372.085.649.1087.2409.1734.4993.191.763v.037l.027.028c.861.86 1.036 1.29.983 1.354 0 0-.2.167-1.6-.767l-.023-.014h-2.981l-.027.026c-.0787.0835-.1286.19-.1423.304-.0137.1139.0096.2293.0663.329.422 1.02 2.776 2.438 4.514 2.438.85 0 1.367.043 1.367.638v.038l.026.027c.4089.4145.9447.6803 1.522.755h.038l.782-.782v-.038c0-.638 0-.638.638-.638.4027-.0249.7825-.196 1.0677-.4813.2853-.2853.4565-.665.4813-1.0677.0304-.3408-.0537-.6819-.2389-.9696-.1853-.2876-.4612-.5052-.7841-.6184-.2734-.0427-.5531.0105-.7919.1504-.2387.14-.4217.3582-.5181.6176-.7 0-1.363-.036-2.049-1.407z"/><path d="m59.8701 76.167c.0673-.0003.1344-.0083.2-.024.443-.105.708-.538.708-1.161.0099-.3079-.0606-.6131-.2046-.8854-.1439-.2723-.3564-.5024-.6164-.6676-.3416-.1873-.7253-.2843-1.1149-.2818-.3895.0024-.772.1043-1.1111.2958l-.051.025v.056c.0512.5795.3173 1.1188.746 1.512.1186.2997.3149.5624.5687.7612.2537.1988.5558.3264.8753.3698z"/><path d="m38.825 56.852h.038l.027-.027c.5256-.6288.7952-1.4324.755-2.251.0042-.1088-.0141-.2173-.0538-.3187-.0398-.1014-.1-.1935-.177-.2705s-.1691-.1373-.2705-.177-.2099-.058-.3187-.0538c-.819 0-.819.823-.819 1.549s0 1.549.819 1.549z"/><path d="m26.435 32.617c-.595 0-.638-.516-.638-1.366 0-.7 0-1.489-.733-1.546.0034-.0627-.0113-.1251-.0423-.1797s-.0771-.0991-.1327-.1283c-.249-.1-.631.258-.705.331-.681.683-.681.683-2.082-.016-.3349-.2106-.7254-.3156-1.1208-.3013s-.7773.1471-1.0962.3813c-.1768.2058-.2814.4639-.2978.7347s.0562.5396.2068.7653l.017.024c.755.756 2.258.756 2.98.756l.04-.01c1.071-.535 1.287-.261 1.677.24.1179.1553.2444.3039.379.445-.0173.484.1332.9592.426 1.345.1116.1382.252.2503.4114.3286.1595.0782.3341.1207.5116.1244.1411-.001.2805-.0309.4096-.0881.129-.0571.2449-.1402.3405-.244.0955-.1038.1687-.2262.215-.3595s.0646-.2747.0539-.4154c.0042-.1089-.0141-.2174-.0538-.3189-.0397-.1014-.0999-.1936-.1769-.2706-.077-.0771-.1691-.1375-.2705-.1773s-.2099-.0583-.3188-.0542z"/><path d="m31.864 34.094c.323-.2.493-.426.493-.657 0-.82-.809-.82-2.278-.82-1.332 0-2.191.267-2.3.714-.05.212.048.542.8.916.4513.215.9462.3228 1.446.315.6436.0096 1.2782-.1519 1.839-.468z"/><path d="m29.729 30.411c-.0032-.1028-.0324-.2031-.0848-.2916-.0525-.0885-.1265-.1623-.2152-.2144-.2417-.1426-.5196-.2121-.8-.2-1.462 0-1.549 0-1.549.82 0 .536 0 1 .25 1.1.0316.0134.0657.0202.1.02.2003-.0353.3811-.1419.509-.3 1.227-.012 1.79-.49 1.79-.934z"/><path d="m40.983 36.731c.1757-.0015.3494-.0379.511-.107.3286-.1493.6055-.3929.7954-.6999.19-.3069.2845-.6634.2716-1.0241 0-.82-.823-.82-1.549-.82-.247-.0258-.496.0256-.7125.1472-.2166.1216-.39.3074-.4965.5318-.0948.2882-.1061.5973-.0325.8916.0737.2944.2291.5618.4485.7714.1003.0998.2196.1785.3508.2316.1312.053.2717.0793.4132.0774z"/><path d="m19.916 77.087c-.2256-.151-.4944-.2238-.7653-.2074-.271.0165-.529.1213-.7347.2984-.2337.3191-.3662.701-.3805 1.0962-.0142.3953.0904.7857.3005 1.1208l.017.025c.4088.4145.9446.6803 1.522.755.148 0 .355-.072.5-.416.1443-.4452.1803-.9183.1052-1.3802-.0751-.462-.2593-.8993-.5372-1.2758z"/><path d="m34.361 72.066c.0289.7581-.2113 1.5019-.678 2.1-.779.028-.779.835-.779 1.549-.0084.0815.0128.1633.0599.2303.047.0671.1167.1149.1961.1347.0348.0082.0704.0122.106.012.523 0 1.47-.741 2-1.795v-.012c.558-1.674.677-2.465.423-2.817-.0602-.0758-.1383-.1355-.2274-.1735-.089-.0381-.1861-.0534-.2826-.0445-.779-.004-.818.035-.818.816z"/><path d="m35.1 34.935c.03.062.745 1.473 1.51 1.508.6663.5507 1.4591.927 2.307 1.095.1133.0025.2255-.0237.326-.076.275-.146.4-.5.4-1.109 0-1.394-.569-2.152-1.133-2.285-.234-.0342-.4728.0096-.6796.1245-.2067.1149-.3699.2947-.4644.5115-.1274-.3055-.3474-.5635-.629-.7375s-.6107-.2553-.941-.2325c-.443.1-.708.538-.708 1.161z"/><path d="m33.7 67.6c-.1072-.0014-.2135.0189-.3125.0599-.0991.041-.1887.1016-.2636.1784-.0748.0767-.1332.1678-.1717.2678s-.0563.2068-.0522.3139l.009.041c.385.769.769 1.143 1.175 1.143s.786-.37 1.168-1.13c.307-.313.387-.658.209-.905-.219-.307-.849-.415-1.761.031z"/><path d="m33.195 32.552c.4243.0064.8458-.0682 1.242-.22.2355-.0691.443-.2108.593-.405.1499-.1942.2347-.4308.242-.676 0-.595-.118-.946-.383-1.137-.446-.323-1.273-.137-2.638.317-.805.01-.805.827-.805 1.549v.037l.027.027c.4958.3679 1.106.5479 1.722.508z"/><path d="m18.777 27.722c-.0947-.0499-.1996-.0777-.3067-.0811-.107-.0035-.2135.0174-.3113.0611-.2317.1167-.4171.3085-.526.544-.764.037-.764.838-.764 1.547v.038l.027.027c.1353.179.3102.3241.5111.4241.2008.0999.4221.1519.6464.1519.2244 0 .4456-.052.6465-.1519.2008-.1.3757-.2451.511-.4241l.017-.025c.2061-.3436.2742-.7526.1905-1.1444s-.313-.7372-.6415-.9666z"/></g></svg>