<svg width="74" height="97" viewBox="0 0 74 97" fill="none" xmlns="http://www.w3.org/2000/svg">
<path d="M5.02601 91.755C5.19701 93.302 5.55401 95.045 5.96301 95.455L5.98701 95.472C6.90197 95.9133 7.89717 96.1637 8.91201 96.208H8.92001C10.5872 96.5657 12.2903 96.7282 13.995 96.692C17.696 96.6445 21.3837 96.2376 25.006 95.477C30.736 93.567 37.006 93.33 50.729 92.81C52.68 92.736 54.78 92.657 57.047 92.566C64.257 92.566 70.839 91.844 70.895 91.837C71.603 91.837 72.325 90.659 73.168 88.13V88.102C73.168 85.915 73.168 85.172 72.438 83.707C72.438 83.492 72.382 83.036 72.304 82.357C71.9344 79.425 71.7361 76.474 71.71 73.519L71.695 73.27C70.977 61.057 70.934 60.325 64.371 55.951C61.571 54.551 57.871 52.361 56.377 50.866L56.351 50.847C52.3 49 50.529 47.606 50.242 46.024C49.892 44.094 51.774 41.754 54.925 38.604C56.7482 36.7652 58.4548 34.8144 60.035 32.763L60.053 32.739V32.708C60.0045 32.3296 60.0402 31.9452 60.1574 31.5822C60.2746 31.2192 60.4704 30.8866 60.731 30.608C61.599 30.533 63.118 28.055 63.691 26.908C65.051 23.508 69.528 11.627 69.528 10.108C69.528 9.738 69.528 9.23 69.666 9.173C69.703 9.159 69.813 9.156 70.102 9.444L70.128 9.47H70.166C71.666 9.47 71.687 9.456 72.434 7.962L72.444 7.921C72.444 7.16 72.407 7.104 71.682 7.101C71.2101 5.9687 70.972 4.75267 70.982 3.526L70.236 0.542H39.554C14.219 0.542 8.19901 0.542 5.98701 1.281C4.80927 1.83199 3.60097 2.31511 2.36801 2.728C1.68101 2.739 1.15101 3.455 0.833012 4.801C0.266012 7.201 0.548011 11.081 1.59901 11.64C2.30701 12.368 3.04201 15.306 3.75301 18.152C6.60501 27.42 10.061 31.177 20.564 36.428C24.882 38.587 28.53 42.222 28.53 44.364C28.53 46.947 26.16 49.783 21.283 53.035C14.6 57.5 11.035 61.852 8.12801 69.12C5.15601 77.292 4.48301 79.387 5.21201 83.756C5.92501 85.897 5.93301 87.337 5.23401 88.036C4.82101 88.449 4.85601 90.228 5.02601 91.755ZM19.192 32.629C14.133 29.739 11.929 28.273 10.473 25.365C7.03801 20.785 4.81801 14.533 5.72301 11.985C5.79081 11.736 5.92141 11.5086 6.10228 11.3246C6.28315 11.1406 6.50825 11.0061 6.75601 10.934H15.5C19.4385 10.9527 23.363 10.4626 27.176 9.476H56.329C59.6971 9.03953 63.1074 9.03751 66.476 9.47C67.033 10.128 65.941 13.739 64.296 19.17C64.05 19.983 63.79 20.842 63.523 21.736C61.538 26.367 57.278 33.122 52.615 37.008C47.147 41.792 45.834 45.532 48.237 49.532C50.901 51.8423 53.8451 53.808 57 55.383C67.967 61.232 68.613 62.762 68.614 72.076C69.339 78.607 68.548 79.336 68.382 79.415C68.282 79.461 68.169 79.415 68.04 79.29L68.016 79.274C67.5688 79.0866 67.0757 79.0371 66.6002 79.1319C66.1246 79.2267 65.6882 79.4614 65.347 79.806C65.1001 80.0169 64.9293 80.3031 64.861 80.6206C64.7927 80.9381 64.8307 81.2692 64.969 81.563C64.969 82.908 64.954 82.908 62.145 82.908C59.4535 82.8502 56.764 83.0948 54.127 83.637C53.027 83.637 51.121 83.737 48.706 83.869C44.799 84.079 39.447 84.369 34.446 84.369C30.63 84.469 27.412 84.563 24.573 84.648C8.07301 85.142 8.07301 85.148 7.69101 81.777C7.65801 81.477 7.62101 81.154 7.56901 80.793C7.24101 79.481 7.81901 76.435 9.11601 72.645C10.1768 69.3983 11.6111 66.2858 13.39 63.37C15.59 59.708 21.549 55.28 25.014 53.2C26.6101 52.4766 27.9911 51.3513 29.0218 49.9341C30.0525 48.5169 30.6976 46.8563 30.894 45.115C31.626 40.022 28.888 37.1 19.192 32.629ZM9.03401 91.745C9.03401 88.188 9.03401 88.188 24.252 87.463C28.995 87.3 32.894 87.173 36.171 87.063C47.562 86.692 51.4 86.563 57.054 86.003C59.23 85.821 61.1367 85.7303 62.774 85.731C66.359 85.731 68.641 86.165 69.582 87.031C69.7367 87.1626 69.861 87.3263 69.9461 87.5107C70.0313 87.6951 70.0752 87.8959 70.075 88.099V89.468C41.358 90.225 31.182 91.009 22.769 93.113C19.6473 93.6872 16.4738 93.9309 13.301 93.84L9.03401 94.551V91.745ZM69.893 4.645C69.893 4.781 69.736 4.918 69.437 4.918H69.4L69.374 4.944C68.748 5.571 51.184 7.071 18.419 7.833C16.956 7.833 15.101 8.019 13.308 8.198C11.515 8.377 9.66801 8.562 8.20201 8.563C5.29601 8.978 3.96901 9.163 3.66801 8.806C3.47701 8.578 3.65701 8.039 3.92801 7.224V7.218C4.62801 4.427 6.61601 3.663 11.867 2.918C13.558 2.73 18.454 2.634 24.905 2.634C30.146 2.634 36.414 2.697 42.821 2.827C58.634 3.148 69.049 3.736 69.355 4.327L69.38 4.377H69.436C69.736 4.374 69.893 4.512 69.893 4.648V4.645Z" fill="#9333EA"/>
<path d="M62.084 78.691C62.6087 79.3083 63.3445 79.708 64.148 79.812C64.2901 79.8136 64.4311 79.7871 64.563 79.734C64.7637 79.6327 64.9283 79.472 65.0343 79.2737C65.1402 79.0753 65.1824 78.8492 65.155 78.626C65.0894 78.2113 64.9338 77.816 64.699 77.4679C64.4642 77.1198 64.156 76.8273 63.7961 76.6111C63.4361 76.3949 63.0332 76.2602 62.6156 76.2165C62.198 76.1728 61.7759 76.2211 61.379 76.358L61.329 76.383V76.439C61.4171 77.225 61.6685 77.9838 62.067 78.667L62.084 78.691Z" fill="#FACC15"/>
<path d="M47.1 38.188C47.4914 38.0809 47.8338 37.8419 48.0691 37.5113C48.3044 37.1807 48.4181 36.7789 48.391 36.374C48.814 35.527 48.956 35.24 48.82 35.103C48.684 34.966 48.393 35.111 47.53 35.543L47.506 35.559C47.221 35.8547 47.0054 36.2101 46.8748 36.5994C46.7442 36.9888 46.702 37.4023 46.751 37.81C46.7484 37.861 46.7558 37.912 46.773 37.96C46.7902 38.0081 46.8167 38.0523 46.851 38.09C46.8838 38.1223 46.9227 38.1476 46.9655 38.1644C47.0083 38.1813 47.0541 38.1893 47.1 38.188V38.188Z" fill="#FACC15"/>
<path d="M51.855 32.765C51.894 33.1564 52.0707 33.5213 52.3537 33.7945C52.6367 34.0678 53.0075 34.2317 53.4 34.257C54.235 34.257 54.949 31.965 54.949 31.251C54.949 30.594 54.949 30.418 54.819 30.372C54.689 30.326 54.607 30.448 54.355 30.762C54.0382 31.1659 53.6979 31.5509 53.336 31.915C53.1663 32.1014 52.9809 32.273 52.782 32.428C52.7635 32.2918 52.7572 32.1543 52.763 32.017C53.018 31.755 53.108 31.562 53.046 31.41C52.946 31.16 52.479 31.16 51.946 31.16C51.259 31.16 50.846 31.323 50.771 31.619C50.691 31.955 51.086 32.372 51.855 32.765Z" fill="#FACC15"/>
<path d="M45.634 75.57C45.5393 75.8582 45.5281 76.1673 45.6017 76.4616C45.6754 76.7559 45.8308 77.0233 46.05 77.233C46.1501 77.3334 46.2693 77.4127 46.4005 77.4665C46.5317 77.5202 46.6722 77.5473 46.814 77.546C46.9893 77.5444 47.1626 77.5084 47.324 77.44C47.6536 77.2905 47.9312 77.0462 48.1215 76.7382C48.3117 76.4303 48.4059 76.0727 48.392 75.711C48.392 74.891 47.569 74.891 46.843 74.891C46.596 74.8652 46.3471 74.9166 46.1305 75.0382C45.914 75.1598 45.7405 75.3456 45.634 75.57V75.57Z" fill="#FACC15"/>
<path d="M49.6669 75.711C49.7043 76.1121 49.8322 76.4995 50.0409 76.844C50.2386 77.1645 50.3613 77.5255 50.3999 77.9C50.3999 78.538 50.3999 78.538 49.7619 78.538C49.1239 78.538 49.1239 78.538 49.1239 77.9V77.809H49.0329C48.4488 77.8607 47.9055 78.1302 47.5109 78.564C46.9919 79.085 46.4849 78.801 45.5659 78.284C45.3149 78.144 45.0299 77.984 44.7139 77.825C44.0019 77.114 43.5489 76.684 43.2789 76.796C43.1109 76.865 43.1109 77.096 43.1109 77.171C43.1109 77.803 41.7249 77.809 41.0369 77.809C40.1269 77.359 39.4969 77.469 39.2739 77.778C39.0949 78.027 39.1789 78.378 39.4939 78.694C39.9028 79.1085 40.4386 79.3743 41.0159 79.449C42.4469 79.449 43.1649 79.449 43.8669 80.149L43.8939 80.176H47.5479C48.2322 80.7475 49.0572 81.1253 49.9369 81.27C50.0402 81.2705 50.1431 81.2574 50.2429 81.231C50.6519 81.123 50.9679 80.792 51.3009 80.125L51.3109 80.085C51.3001 80.0008 51.3143 79.9153 51.3518 79.8391C51.3893 79.763 51.4485 79.6996 51.5219 79.657C51.7809 79.552 52.2079 79.744 52.6269 80.157C53.8699 80.985 55.0349 81.2 55.5949 80.707C55.7672 80.5184 55.8692 80.2762 55.8837 80.0212C55.8983 79.7662 55.8246 79.514 55.6749 79.307L55.6569 79.283C54.9159 78.542 54.8879 78.528 54.1349 78.528C53.8154 78.5365 53.4956 78.5281 53.1769 78.503C53.5008 78.3084 53.8346 78.1309 54.1769 77.971L54.1989 77.961L54.2119 77.941C55.1009 76.606 55.4349 76.107 55.2869 75.831C55.1699 75.612 54.8239 75.612 54.1359 75.612C53.3549 75.612 53.3159 75.651 53.3159 76.432C53.3159 77.105 53.1729 77.518 52.9239 77.566C52.4709 77.66 51.5479 76.641 50.5739 74.205C49.5819 72.222 49.0399 71.483 48.6609 71.577C48.3479 71.651 48.2139 72.232 48.2139 73.517V75.066H48.2999C49.1509 75.073 49.6669 75.116 49.6669 75.711Z" fill="#FACC15"/>
<path d="M35.91 79.993C34.996 79.993 34.31 80.274 34.124 80.727C34.0725 80.8829 34.0702 81.0509 34.1174 81.2081C34.1647 81.3654 34.2591 81.5043 34.388 81.606C34.7045 81.9219 35.131 82.1029 35.578 82.111C35.74 82.1124 35.9006 82.0822 36.051 82.022C36.2754 81.9155 36.4612 81.742 36.5828 81.5255C36.7044 81.309 36.7559 81.06 36.73 80.813C36.7342 80.7042 36.7159 80.5957 36.6762 80.4943C36.6365 80.3929 36.5762 80.3008 36.4992 80.2238C36.4222 80.1468 36.3301 80.0865 36.2287 80.0468C36.1273 80.0071 36.0188 79.9888 35.91 79.993V79.993Z" fill="#FACC15"/>
<path d="M31.628 38.539C31.642 38.1774 31.5479 37.8199 31.3579 37.512C31.1679 37.204 30.8905 36.9597 30.561 36.81C30.3527 36.7107 30.119 36.6772 29.8912 36.7142C29.6633 36.7512 29.4522 36.8568 29.286 37.017L29.259 37.044V37.81L29.269 37.851C29.4088 38.1919 29.638 38.4887 29.9325 38.7101C30.2269 38.9316 30.5757 39.0694 30.942 39.109C31.0164 39.1095 31.0906 39.1011 31.163 39.084C31.293 39.0639 31.4113 38.9978 31.4967 38.8978C31.582 38.7978 31.6286 38.6705 31.628 38.539V38.539Z" fill="#FACC15"/>
<path d="M35.882 76.348C35.4909 76.3927 35.1138 76.5206 34.776 76.723C34.4562 76.9181 34.0968 77.0391 33.724 77.077H32.175V78.664L32.201 78.691C32.3286 78.8029 32.4771 78.8884 32.638 78.9427C32.7988 78.9969 32.9687 79.0188 33.138 79.007C34.6963 78.7882 36.1737 78.1778 37.432 77.233C38.105 76.56 38.367 75.989 38.132 75.705C37.855 75.366 36.993 75.612 35.882 76.348Z" fill="#FACC15"/>
<path d="M32.9 40.7C32.7303 40.9634 32.6299 41.2654 32.608 41.578C32.5862 41.8905 32.6436 42.2035 32.775 42.488C32.8757 42.6469 33.0154 42.7772 33.1809 42.8667C33.3463 42.9562 33.5319 43.0017 33.72 42.999C33.8857 43.0023 34.0497 42.9652 34.1979 42.8908C34.346 42.8164 34.4737 42.7069 34.57 42.572C34.83 42.211 35.035 41.466 34.538 39.972C34.085 37.709 33.916 36.862 33.488 36.653C33.188 36.507 32.826 36.69 32.221 36.993L32.197 37.01C31.733 37.475 31.529 37.969 31.666 38.299C31.7199 38.4087 31.8067 38.4988 31.9142 38.5568C32.0218 38.6149 32.1447 38.638 32.266 38.623C32.9 38.63 32.9 40.016 32.9 40.7Z" fill="#FACC15"/>
<path d="M26.412 77.807C25.929 77.837 25.312 78.815 24.989 79.402C24.5857 80.0594 24.3039 80.7839 24.157 81.541L24.167 81.582C24.2847 81.8841 24.4809 82.1493 24.7352 82.3504C24.9895 82.5515 25.2929 82.6811 25.614 82.726C25.6814 82.7262 25.7485 82.7181 25.814 82.702C26.257 82.602 26.522 82.164 26.522 81.541C26.522 80.861 26.522 79.446 27.16 79.446L27.2 79.436C27.5156 79.2965 27.7776 79.0586 27.947 78.758C28.0078 78.6486 28.0416 78.5263 28.0456 78.4013C28.0496 78.2762 28.0237 78.152 27.97 78.039C27.781 77.651 27.21 77.415 26.412 77.807Z" fill="#FACC15"/>
<path d="M22.649 81.46C22.536 81.4061 22.4118 81.38 22.2867 81.384C22.1616 81.388 22.0393 81.422 21.93 81.483C21.6338 81.6498 21.3985 81.9065 21.258 82.216C20.505 82.97 20.508 83.033 21.269 83.793L21.295 83.819H21.333C21.9171 83.7673 22.4604 83.4978 22.855 83.064L22.872 83.04C23.0401 82.7386 23.107 82.3913 23.063 82.049C23.0456 81.9251 22.999 81.807 22.927 81.7046C22.855 81.6022 22.7597 81.5184 22.649 81.46V81.46Z" fill="#FACC15"/>
<path d="M38.354 49.136C38.495 49.136 38.668 49.029 38.89 48.808C39.069 48.6726 39.2142 48.4976 39.3141 48.2967C39.414 48.0958 39.466 47.8744 39.466 47.65C39.466 47.4256 39.414 47.2042 39.3141 47.0033C39.2142 46.8024 39.069 46.6274 38.89 46.492C38.624 46.226 38.436 46.139 38.29 46.198C38.009 46.314 38.009 46.918 38.009 48.014C38.009 48.55 38.009 49.014 38.259 49.114C38.2889 49.1275 38.3212 49.135 38.354 49.136Z" fill="#FACC15"/>
<path d="M38.825 41.363C38.238 41.363 37.025 42.842 36.589 43.904C36.345 44.493 36.3401 44.929 36.5741 45.164C36.6847 45.2715 36.8158 45.3557 36.9596 45.4117C37.1033 45.4677 37.2568 45.4943 37.4111 45.49C37.634 45.4881 37.8544 45.443 38.0601 45.357C38.2813 45.2899 38.4792 45.1616 38.6308 44.987C38.7824 44.8124 38.8816 44.5985 38.9171 44.37C38.8674 43.9865 38.9046 43.5967 39.0257 43.2294C39.1469 42.8621 39.349 42.5267 39.617 42.248L39.6431 42.221V42.183C39.6451 41.4 39.607 41.363 38.825 41.363Z" fill="#FACC15"/>
<path d="M40.6639 40.244C40.6384 40.9259 40.7871 41.6031 41.0959 42.2116C41.4047 42.8202 41.8635 43.34 42.4289 43.722L43.2549 43.732L43.2799 43.682C43.4171 43.2851 43.4655 42.8629 43.4218 42.4453C43.3782 42.0276 43.2435 41.6246 43.0273 41.2646C42.8111 40.9046 42.5186 40.5964 42.1704 40.3617C41.8222 40.127 41.4267 39.9714 41.0119 39.906C40.9119 39.906 40.7329 39.95 40.6639 40.244Z" fill="#FACC15"/>
<path d="M38.256 66.609C38.2876 66.6222 38.3217 66.6286 38.356 66.628C38.5564 66.5929 38.7372 66.4863 38.865 66.328H41.05L41.076 66.301C41.4913 65.8927 41.7576 65.3567 41.832 64.779C41.832 63.248 41.045 63.23 41.012 63.23C40.244 63.23 40.194 63.267 40.192 64.011C39.8224 64.3798 39.3423 64.6176 38.825 64.688C38.044 64.688 38.006 64.726 38.006 65.508C38.006 66.043 38.006 66.506 38.256 66.609Z" fill="#FACC15"/>
<path d="M11.129 82.179C9.74502 82.179 8.82902 82.47 8.62202 82.979C8.57196 83.1247 8.5698 83.2826 8.61585 83.4295C8.66191 83.5765 8.75378 83.7049 8.87802 83.796C9.00632 83.9444 9.1634 84.0652 9.33976 84.1512C9.51611 84.2371 9.70807 84.2864 9.90402 84.296C10.46 84.296 11.09 83.896 11.922 83.063C12.199 82.787 12.297 82.585 12.232 82.429C12.128 82.179 11.665 82.179 11.129 82.179Z" fill="#FACC15"/>
<path d="M14.409 78.17C14.2521 78.1648 14.0957 78.192 13.9497 78.2497C13.8036 78.3075 13.671 78.3946 13.56 78.5057C13.449 78.6168 13.362 78.7495 13.3043 78.8956C13.2467 79.0417 13.2197 79.198 13.225 79.355C13.225 80.081 13.225 80.904 14.045 80.904C14.4475 80.8789 14.827 80.7076 15.1121 80.4224C15.3972 80.1371 15.5682 79.7575 15.593 79.355C15.5983 79.198 15.5713 79.0417 15.5137 78.8956C15.4561 78.7495 15.3691 78.6168 15.2581 78.5057C15.1471 78.3946 15.0144 78.3075 14.8684 78.2497C14.7223 78.192 14.566 78.1648 14.409 78.17V78.17Z" fill="#FACC15"/>
<path d="M42.551 69.839C41.987 68.71 40.938 67.939 40.451 68.057C40.3856 68.0714 40.3262 68.106 40.2814 68.1558C40.2366 68.2057 40.2085 68.2684 40.201 68.335C40.1469 68.3343 40.0933 68.3459 40.0443 68.369C39.9952 68.392 39.9521 68.4259 39.918 68.468C39.818 68.621 39.897 68.84 40.003 69.117C40.1117 69.3579 40.1764 69.6163 40.194 69.88V69.917L40.221 69.945C41.082 70.805 41.257 71.235 41.204 71.299C41.204 71.299 41.004 71.466 39.604 70.532L39.581 70.518H36.6L36.573 70.544C36.4943 70.6275 36.4444 70.734 36.4307 70.848C36.417 70.9619 36.4403 71.0773 36.497 71.177C36.919 72.197 39.273 73.615 41.011 73.615C41.861 73.615 42.378 73.658 42.378 74.253V74.291L42.404 74.318C42.8129 74.7325 43.3487 74.9983 43.926 75.073H43.964L44.746 74.291V74.253C44.746 73.615 44.746 73.615 45.384 73.615C45.7867 73.5901 46.1665 73.419 46.4517 73.1337C46.737 72.8484 46.9082 72.4687 46.933 72.066C46.9634 71.7252 46.8793 71.3841 46.6941 71.0964C46.5088 70.8088 46.2329 70.5912 45.91 70.478C45.6366 70.4353 45.3569 70.4885 45.1181 70.6284C44.8794 70.7684 44.6964 70.9866 44.6 71.246C43.9 71.246 43.237 71.21 42.551 69.839Z" fill="#FACC15"/>
<path d="M59.8701 76.167C59.9374 76.1667 60.0045 76.1587 60.0701 76.143C60.5131 76.038 60.7781 75.605 60.7781 74.982C60.788 74.6741 60.7175 74.3689 60.5735 74.0966C60.4296 73.8243 60.2171 73.5942 59.9571 73.429C59.6155 73.2417 59.2318 73.1447 58.8422 73.1472C58.4527 73.1496 58.0702 73.2515 57.7311 73.443L57.6801 73.468V73.524C57.7313 74.1035 57.9974 74.6428 58.4261 75.036C58.5447 75.3357 58.741 75.5984 58.9948 75.7972C59.2485 75.996 59.5506 76.1236 59.8701 76.167V76.167Z" fill="#FACC15"/>
<path d="M38.825 56.852H38.863L38.89 56.825C39.4156 56.1962 39.6852 55.3926 39.645 54.574C39.6492 54.4652 39.6309 54.3567 39.5912 54.2553C39.5514 54.1539 39.4912 54.0618 39.4142 53.9848C39.3372 53.9078 39.2451 53.8475 39.1437 53.8078C39.0423 53.7681 38.9338 53.7498 38.825 53.754C38.006 53.754 38.006 54.577 38.006 55.303C38.006 56.029 38.006 56.852 38.825 56.852Z" fill="#FACC15"/>
<path d="M26.435 32.617C25.84 32.617 25.797 32.101 25.797 31.251C25.797 30.551 25.797 29.762 25.064 29.705C25.0674 29.6423 25.0527 29.5799 25.0217 29.5253C24.9907 29.4707 24.9446 29.4262 24.889 29.397C24.64 29.297 24.258 29.655 24.184 29.728C23.503 30.411 23.503 30.411 22.102 29.712C21.7671 29.5014 21.3766 29.3964 20.9812 29.4107C20.5858 29.425 20.2039 29.5578 19.885 29.792C19.7082 29.9978 19.6036 30.2559 19.5872 30.5267C19.5708 30.7975 19.6434 31.0663 19.794 31.292L19.811 31.316C20.566 32.072 22.069 32.072 22.791 32.072L22.831 32.062C23.902 31.527 24.118 31.801 24.508 32.302C24.6259 32.4573 24.7524 32.6059 24.887 32.747C24.8697 33.231 25.0202 33.7062 25.313 34.092C25.4246 34.2302 25.565 34.3423 25.7244 34.4206C25.8839 34.4988 26.0585 34.5413 26.236 34.545C26.3771 34.544 26.5165 34.5141 26.6456 34.4569C26.7746 34.3998 26.8905 34.3167 26.9861 34.2129C27.0816 34.1091 27.1548 33.9867 27.2011 33.8534C27.2474 33.7201 27.2657 33.5787 27.255 33.438C27.2592 33.3291 27.2409 33.2206 27.2012 33.1191C27.1615 33.0177 27.1013 32.9255 27.0243 32.8485C26.9473 32.7714 26.8552 32.711 26.7538 32.6712C26.6524 32.6314 26.5439 32.6129 26.435 32.617V32.617Z" fill="#FACC15"/>
<path d="M31.864 34.094C32.187 33.894 32.357 33.668 32.357 33.437C32.357 32.617 31.548 32.617 30.079 32.617C28.747 32.617 27.888 32.884 27.779 33.331C27.729 33.543 27.827 33.873 28.579 34.247C29.0303 34.462 29.5252 34.5698 30.025 34.562C30.6686 34.5716 31.3032 34.4101 31.864 34.094V34.094Z" fill="#FACC15"/>
<path d="M29.729 30.411C29.7258 30.3082 29.6966 30.2079 29.6442 30.1194C29.5917 30.0309 29.5177 29.9571 29.429 29.905C29.1873 29.7624 28.9094 29.6929 28.629 29.705C27.167 29.705 27.08 29.705 27.08 30.525C27.08 31.061 27.08 31.525 27.33 31.625C27.3616 31.6384 27.3957 31.6452 27.43 31.645C27.6303 31.6097 27.8111 31.5031 27.939 31.345C29.166 31.333 29.729 30.855 29.729 30.411Z" fill="#FACC15"/>
<path d="M40.983 36.731C41.1587 36.7295 41.3324 36.6931 41.494 36.624C41.8226 36.4747 42.0995 36.2311 42.2894 35.9241C42.4794 35.6172 42.5739 35.2607 42.561 34.9C42.561 34.08 41.738 34.08 41.012 34.08C40.765 34.0542 40.516 34.1056 40.2995 34.2272C40.0829 34.3488 39.9095 34.5346 39.803 34.759C39.7082 35.0472 39.6969 35.3563 39.7705 35.6506C39.8442 35.945 39.9996 36.2124 40.219 36.422C40.3193 36.5218 40.4386 36.6005 40.5698 36.6536C40.701 36.7066 40.8415 36.7329 40.983 36.731V36.731Z" fill="#FACC15"/>
<path d="M19.916 77.087C19.6904 76.936 19.4216 76.8632 19.1507 76.8796C18.8797 76.8961 18.6217 77.0009 18.416 77.178C18.1823 77.4971 18.0498 77.879 18.0355 78.2742C18.0213 78.6695 18.1259 79.0599 18.336 79.395L18.353 79.42C18.7618 79.8345 19.2976 80.1003 19.875 80.175C20.023 80.175 20.23 80.103 20.375 79.759C20.5193 79.3138 20.5553 78.8407 20.4802 78.3788C20.4051 77.9168 20.2209 77.4795 19.943 77.103L19.916 77.087Z" fill="#FACC15"/>
<path d="M34.361 72.066C34.3899 72.8241 34.1497 73.5679 33.683 74.166C32.904 74.194 32.904 75.001 32.904 75.715C32.8956 75.7965 32.9168 75.8783 32.9639 75.9453C33.0109 76.0124 33.0806 76.0602 33.16 76.08C33.1948 76.0882 33.2304 76.0922 33.266 76.092C33.789 76.092 34.736 75.351 35.266 74.297V74.285C35.824 72.611 35.943 71.82 35.689 71.468C35.6288 71.3922 35.5507 71.3325 35.4616 71.2945C35.3726 71.2564 35.2755 71.2411 35.179 71.25C34.4 71.246 34.361 71.285 34.361 72.066Z" fill="#FACC15"/>
<path d="M35.1 34.935C35.13 34.997 35.845 36.408 36.61 36.443C37.2763 36.9937 38.0691 37.37 38.917 37.538C39.0303 37.5405 39.1425 37.5143 39.243 37.462C39.518 37.316 39.643 36.962 39.643 36.353C39.643 34.959 39.074 34.201 38.51 34.068C38.276 34.0338 38.0372 34.0776 37.8304 34.1925C37.6237 34.3074 37.4605 34.4872 37.366 34.704C37.2386 34.3985 37.0186 34.1405 36.737 33.9665C36.4554 33.7925 36.1263 33.7112 35.796 33.734C35.353 33.834 35.088 34.272 35.088 34.895L35.1 34.935Z" fill="#FACC15"/>
<path d="M33.7 67.6C33.5928 67.5986 33.4865 67.6189 33.3875 67.6599C33.2884 67.7009 33.1988 67.7615 33.1239 67.8383C33.0491 67.915 32.9907 68.0061 32.9522 68.1061C32.9137 68.2061 32.8959 68.3129 32.9 68.42L32.909 68.461C33.294 69.23 33.678 69.604 34.084 69.604C34.49 69.604 34.87 69.234 35.252 68.474C35.559 68.161 35.639 67.816 35.461 67.569C35.242 67.262 34.612 67.154 33.7 67.6Z" fill="#FACC15"/>
<path d="M33.195 32.552C33.6193 32.5584 34.0408 32.4838 34.437 32.332C34.6725 32.2629 34.88 32.1212 35.03 31.927C35.1799 31.7328 35.2647 31.4962 35.272 31.251C35.272 30.656 35.154 30.305 34.889 30.114C34.443 29.791 33.616 29.977 32.251 30.431C31.446 30.441 31.446 31.258 31.446 31.98V32.017L31.473 32.044C31.9688 32.4119 32.579 32.5919 33.195 32.552V32.552Z" fill="#FACC15"/>
<path d="M18.777 27.722C18.6823 27.6721 18.5774 27.6443 18.4703 27.6409C18.3633 27.6374 18.2568 27.6583 18.159 27.702C17.9273 27.8187 17.7419 28.0105 17.633 28.246C16.869 28.283 16.869 29.084 16.869 29.793V29.831L16.896 29.858C17.0313 30.037 17.2062 30.1821 17.4071 30.2821C17.6079 30.382 17.8292 30.434 18.0535 30.434C18.2779 30.434 18.4991 30.382 18.7 30.2821C18.9008 30.1821 19.0757 30.037 19.211 29.858L19.228 29.833C19.4341 29.4894 19.5022 29.0804 19.4185 28.6886C19.3348 28.2968 19.1055 27.9514 18.777 27.722V27.722Z" fill="#FACC15"/>
</svg>
