<svg fill="none" height="128" viewBox="0 0 128 128" width="128" xmlns="http://www.w3.org/2000/svg"><path d="m110.337 16.5663-.092-.092-.142-.077c-.663-.2823-1.38-.4171-2.1-.395-2.476 0-5.692 1.065-7.049 3.1l-.059.089-.046.125c-.434 1.305-.457 2.052-.077 2.578.122.167.282.3018.468.3928.185.0909.39.1353.597.1292 1.009-.157 1.955-.5884 2.736-1.247.852-.5737 1.833-.9276 2.855-1.03.285 0 .451.058.492.173.21.578-.535 2.313-2.8 4.2l-.088.077-.056.074c-1.548 2.064-2.24 3.3-1.726 4.329.462.922 1.632 1.111 3.246 1.111h6.188c1.929.965 2.654 1.326 3.345 1.326.292-.0174.576-.0968.835-.2329.259-.136.485-.3256.665-.5561l.091-.092.077-.142c.175-.3013.275-.6403.291-.9884.017-.348-.05-.695-.196-1.0116-.543-1.111-2.04-1.784-5.518-2.479-.484-.122-.941-.231-1.339-.326l-.035-.008c-.412-.1-.8-.192-1.108-.275 1.636-6.555 1.194-8.103.545-8.752z" fill="#facc15"/><path d="m94.4 80.7233v.079c0 5-2.752 14.611-5.482 21.9227-.2091.22-.3522.494-.4129.791-.0606.297-.0364.605.0699.889.1025.249.2778.462.503.609.2252.148.4897.225.759.219.3795-.005.7467-.136 1.044-.372.743-.209 1.88-1.453 4.083-9.0066 1.4947-5.1651 2.7045-10.4083 3.624-15.7061 1.0168-7.999 1.555-16.0517 1.612-24.115.8-12.746.8-14.6-1.646-20.321-2.933-10.744-4.34-12.71-6.053-12.71-.2786.0039-.5524.0724-.8.2l-.116.058-.117.111c-1.259 1.259-.365 3.046 1.413 6.6 1.32 3.313 2.093 7.245 3.265 13.195l.02.105c.2 1.017.412 2.092.638 3.213-.015 2.756-.816 26.3161-2.382 34.1461z" fill="#57534e"/><path d="m61.703 83.8983-.034.017-.571.282-.121.0731c-4.8812 3.4346-9.2556 7.5381-12.995 12.1899-3.3 4.1197-4.445 10.2517-2.318 12.3787l.264.263h.372c1.312 0 7.261-3.688 11.037-7.463 3.753-3.7547 7.351-7.9547 8.244-13.2487.7-2.805 1.27-3.457 4.322-4.983.8758-.4218 1.8287-.66 2.8-.7.72 0 2.213 0 2.463-1.308.2817-.2433.485-.5647.5841-.9235.0992-.3588.0897-.739-.0271-1.0924-.1529-.3223-.4042-.5878-.7176-.7581-.3134-.1704-.6728-.2369-1.0264-.19-1.1277.0723-2.2257.3918-3.216.936-.9428.3772-1.9254.6456-2.929.8-.0416.001-.0831-.0024-.124-.0099-.279-.375.008-2.9551.285-5.4481.619-4.329.793-5.8719.01-6.7749-.2196-.2235-.4858-.3957-.7797-.5043-.2939-.1085-.6082-.1508-.9203-.1238-1.3 0-1.7.4-1.7 1.7 0 .671-3.114 3.226-4.878 3.226-.0744.005-.1489-.0055-.219-.031l-.17-.084-.233-.011c-.4827.016-.9659-.002-1.446-.054-.0519-.4801-.07-.9633-.054-1.446 0-1.524-.011-2.4519-1.6-2.4919 1.146-.275 3.623-.8551 6.478-1.4251 1.509-.3 2.884-.6 4.1-.862l.061-.013c1.5-.325 2.919-.6319 3.5-.6999.3063.1289.6347.1968.967.1999 1.4 0 2.4-1.3 2.494-3.227.0644-.1278.1005-.268.106-.411s-.0197-.2855-.074-.418c-.1253-.2321-.3184-.4207-.5534-.5405-.2351-.1199-.5011-.1654-.7626-.1305-3.1525.324-6.2846.8224-9.382 1.493l-2.4.438c-4.5.9-6.338 1.852-6.338 3.285v2.753l1.044-.2609c-.3765.2529-.661.6209-.811 1.0489-.3308.8215-.4376 1.716-.3093 2.5923.1282.8762.4869 1.7026 1.0393 2.3947.581 1 1.943 1.572 3.737 1.572 1.663.0039 3.2929-.4646 4.7-1.351l1-.667v3.918c-.001 4.668-.331 4.83-2.898 6.091zm-14.5 21.8997c.2804-3.52 1.6736-6.8603 3.978-9.5367 3.135-3.918 10.947-9.5459 12.473-9.6299h.034c.0515-.0056.1032.0083.145.0389l.026.0191c.0606.0347.1116.0839.1485.1433.0368.0593.0583.1269.0625.1966.315 1.939-4.714 9.574-8.234 13.0997-4.838 4.031-8.389 6.239-8.714 5.983-.009-.007-.025-.074.071-.264z" fill="#facc15"/><path d="m77.74 52.0893c-.1076-.3194-.3209-.5926-.6047-.7744s-.6211-.2614-.9563-.2256c-.4431.0121-.8816.0927-1.3.2391-.4683.091-.9536.025-1.3806-.1881-.4269-.213-.7715-.561-.9804-.99-1.182-1.911-1.114-5.2999.15-7.8769 1.277-1.8 2.672-4.1811 2.07-5.3501-.0988-.1955-.2506-.3593-.438-.4728s-.4029-.1721-.622-.1692c-1.469 0-3.2 2.606-4.1 4.169l-2.48 2.479-.863-.863c-.2367-.625-.6714-1.1553-1.2379-1.51-.5665-.3546-1.2335-.5141-1.8991-.454h-.37l-.264.264c-.338.2638-.5903.6218-.725 1.0289-.1347.407-.1459.8448-.032 1.2581.0928.2167.2396.406.4264.5497.1868.1438.4074.2372.6406.2714 2.5 1.895.524 5.85-.445 7.465l-.034.0609c-1.055 2.109-1.7 3.458-1.7 4.4v.189l.095.214c.349.7.709 1.418 1.519 1.418 1 0 1.465-.8199 4.066-5.3709l1.454-2.9001.1.3c.767 3.016 3.618 6.375 6.482 6.375.3628.0013.7235-.0561 1.068-.17l.1-.034.112-.071c1.663-1.102 2.443-2.291 2.149-3.261z" fill="#facc15"/><path d="m33.905 86.2004c-.383-.767-.783-1.7661-1.174-2.7451-.386-.963-.785-1.96-1.179-2.756-.812-3.192-1.769-3.8-3.252-3.8h-.372l-.264.264c-1.0108 1.0498-1.6633 2.3926-1.864 3.836-.043.8177-.1995 1.6255-.465 2.4-.1585.465-.2677.9453-.326 1.433-.1345.3096-.1948.6463-.1761.9834.0188.337.116.6649.2841.9576.1179.1642.2736.2975.4539.3887.1804.0912.38.1376.5821.1354 1.148 0 2.4-1.463 2.954-3.429l1.528 4.582c.322 1.284.758 2.658 1.18 3.987.5499 1.4768.9469 3.0061 1.185 4.564v2.957l.5.2476c.3041.159.6411.244.984.248 2.039 0 2.792-2.9326 3.5-6.4756l.017-.1001v-.08c-.0707-1.7519.3958-3.4836 1.337-4.963l.263-.264v-.373c.1505-1.3427.387-2.6745.708-3.987.52-2.484 1.233-5.885 1.685-9.5.6989-5.8398 1.7488-11.6323 3.144-17.346 1.78-2.785 3.415-8.86 4.037-11.35.4323-2.0092 1.0201-3.9818 1.758-5.9.3359-.7351.561-1.5159.668-2.317 0-3.3 1.656-6.3 2.3-6.3h.13l.155-.046c2.262-.754 9.018-.754 21.274-.754 3.934.328 6.309.526 7.6.526.907 0 1.747-.062 2.055-.8.317-.765-.282-1.364-.975-2.056l-.071-.069-.067-.045c-2.264-1.508-12.974-2.06-19.691-2.07h-.2c-3.219 0-6.22.112-8.685.317l-4.874.809-.6.1-1.733 7.8001c-.463 2.316-1.472 5.9999-2.542 9.9119l-.01.038c-.77 2.814-1.566 5.724-2.228 8.37-2.353 6.288-4.014 13.6-4.037 17.749-.774 3.1-2.385 9.541-3.193 14.383-.4 2.015-.728 3.6401-.982 4.7831-.6888-1.174-1.1086-2.4862-1.229-3.842v-.1891z" fill="#7e22ce"/><path d="m26.345 23.9993c-.3006-.2132-.6551-.3376-1.023-.359-1.028 0-1.366.628-3.565 4.717-.5.934-1.108 2.06-1.849 3.417-2.5789 5.2148-4.7433 10.6245-6.473 16.179-2.435 8.117-2.435 9.84-2.435 21.049 0 8.131 0 12.212 1.7 15.6.9316 2.4288 1.439 4.9995 1.5 7.6001v.112l.035.136c1.4637 5.3999 3.6445 10.5796 6.484 15.3996l.053.093.092.1c.5177.531 1.0064 1.09 1.464 1.673.841 1.039 1.448 1.79 2.372 1.79.508-.007 1.0019-.168 1.4172-.46.4154-.293.7328-.704.9108-1.18.2542-.664.3053-1.389.1466-2.083-.1586-.693-.5198-1.324-1.0376-1.812l-.044-.042c-6.312-5.523-10.893-21.7237-10.893-38.5227 0-11.3.885-16.022 4.731-25.253l.032-.083.016-.068c1.589-7.151 3.126-10.16 5.4-13.2 1.688-1.7 1.822-2.685 1.822-3.795v-.556l-.5-.249c-.134-.073-.249-.14-.356-.203z" fill="#57534e"/></svg>