<svg fill="none" height="118" viewBox="0 0 92 118" width="92" xmlns="http://www.w3.org/2000/svg"><path d="m38.506 69.921c.625-2.5 2.343-5.02 3.723-7.047.223-.326.437-.641.638-.942l1.362-3.4.658 2.63c.1699 1.5245.6632 2.9952 1.4468 4.3139s1.8395 2.455 3.0972 3.3331c1.3487.9601 2.8842 1.626 4.5069 1.9544 1.6227.3283 3.2962.3118 4.9121-.0484 5.1-1.457 8.793-3.675 10.982-6.594 5.614-7.72 6.709-18.65 2.929-29.234-2.208-7.36-2.956-8.8-9.5-14.62-.9-.774-1.738-1.5-2.521-2.186-3.7-3.234-6.153-5.37-9.159-6.572l-5.831-2.916-.029-.014-6.591 1.465c-16.769 3.645-24.097 11.567-27.042 29.235-.715 7.155-.757 8.712 2.2 15.355 1.39 2.781 2.8 6.269 2.906 6.537.007 1.643 1.012 4.022 5.851 10.243l.582.727c2.4 2.982 2.97 3.7 2.329 4.993-.2816.2954-.4944.6493-.6232 1.0366s-.1704.7982-.1218 1.2034v.038l.027.027c.618.618 1.233.272 2.163-.25.253-.142.54-.3.857-.462l.028-.014.013-.027c.5145-.8982.7703-1.9213.739-2.956l-.01-.04c-1.1701-2.1464-2.644-4.1127-4.376-5.838-.827-1.377-1.746-2.737-2.634-4.052-1.2626-1.6751-2.3336-3.4864-3.193-5.4-.366-1.1-.922-2.395-1.46-3.651s-1.092-2.549-1.458-3.649c-2.169-5.061-2.168-9.474 0-18.159 2.119-7.063 3.527-10.8 7.266-14.539 2.227-2.219 10.197-5.802 12.327-5.802 1.7502-.3294 3.4664-.8188 5.127-1.462 4.967-1.418 7.089-.811 12.315 2.175 4.454 2.97 13.864 11.72 15.274 14.539 3.836 8.441 5.756 18.319 4.376 22.508-.9208 1.2894-1.4326 2.826-1.469 4.41-1.137 4.148-4.859 8.087-9.487 10.037-3.7 1.558-7.365 1.595-10.056.1-4.962-2.836-5.848-7.747-2.873-15.931 1.439-5.036 1.439-5.036 4.286-5.036.8513.0617 1.7054-.072 2.4971-.3909s1.5001-.8146 2.0709-1.4491c.3608-.4712.6056-1.0207.7145-1.6041s.079-1.1842-.0875-1.7539c0-2.177 0-3-1.528-3.006-1.5-.742-2.265.019-3 .755-.405.406-.835.6-1.091.492-.0735-.0423-.1328-.1054-.1704-.1814-.0375-.0761-.0517-.1615-.0406-.2456 0-.82-1.482-.82-2.278-.82-.2531.0032-.5014.0687-.7232.1908-.2217.1221-.4098.297-.5478.5092-.3272.5714-.5216 1.2091-.5688 1.8659-.0473.6568.0538 1.3157.2958 1.9281.0996.2359.1032.5015.01.74-.0491.0923-.1168.1735-.1987.2385-.0818.065-.1762.1125-.2773.1395-.7469.132-1.5165.0163-2.1915-.3296s-1.2184-.903-1.5475-1.5864c-.53-1.06-2.2-2.13-2.885-1.846-.238.1-.466.384-.193 1.2.134.269.237.631-.038.829-.483.347-1.782.016-2.732-.934-.755-.756-2.22-.756-4.437-.756l-.029.005c-.212.0667-.4103.131-.595.193-1.73.557-2.38.767-2.383 2.794-.439 1.348.448 2.906 1.463 3.785.2777.322.641.5586 1.0478.6821.4069.1236.8404.1291 1.2502.0159 1.2879-.2894 2.5211-.783 3.653-1.462 1.36-.272 2.2-.34 2.7.075.822.674.822 2.7.822 7.127 0 5.148 0 5.809-2.177 10.163-.728 1.456-1.654 3.122-2.549 4.734s-1.823 3.282-2.553 4.741c-1.496 2.971-1.94 3.869-1.696 4.265.146.236.5.236 1.045.236.718 0 2.21 0 2.969-.745 1.1187-.5136 2.3419-.7584 3.572-.715 5.7942 1.0453 11.6408 1.776 17.514 2.189 2.324 0 3.553.472 3.553 1.366-.0383.3115-.1439.611-.3095.8776s-.3872.494-.6495.6664c-2.4498 1.7059-5.4534 2.4241-8.41 2.011-12.272-2.166-16-2.2-19.723-1.455-1.6451.6323-3.3427 1.1188-5.073 1.454h-.056l-.026.05c-.79 1.582 1.547 5.977 4.426 7.416l.325.109c2 .677 3.884 1.317 14.281.624h12.349c.2563.2727.4497.5984.5665.9539.1168.3556.1542.7325.1095 1.1041-.7.695-1.468 1.4-6.468 1.4-19.081 0-22.686.709-22.686 4.464-.0166.4828.074.963.2652 1.407.1913.444.4784.84.8408 1.159 1.387 1.225 4.066 1.629 7.74 1.169 15.2-1.447 15.234-1.451 15.935.653v2.132c-.743.639-5.676 1.428-8.614-.042l-.041-.009c-.9634-.056-1.9189-.209-2.852-.455-.4983-.134-1.0071-.226-1.521-.274h-.029c-2.136.712-4.435 2.183-4.435 3.73 0 2.514 1.937 3.736 5.922 3.736h4.334c.1732.194.2994.425.3688.676.0694.25.0801.514.0312.769-.1543.775-.5506 1.481-1.132 2.017h-.6c-.06-.729-.848-.729-1.546-.729-1.023 0-1.684.316-1.814.867-.125.527.285 1.112 1.035 1.486.491.322 1.067.489 1.654.481.5231-.007 1.0405-.11 1.526-.305.8427-.333 1.5978-.855 2.2075-1.525s1.0576-1.472 1.3095-2.342c.1306-.331.1765-.689.1336-1.043-.043-.353-.1734-.69-.3796-.98-.81-1.122-2.824-1.741-5.672-1.741-1.436 0-3.606 0-4.308-.7l-.024-.017c-.575-.288-.955-.477-.965-.65-.015-.234.595-.641 1.694-1.374.5282-.35 1.1478-.537 1.7815-.537s1.2534.187 1.7815.537c2.952 1.477 9.555 1.466 11.037-.017 1.464-1.463 2.177-2.837 2.064-3.976-.056-.411-.2054-.803-.4366-1.147-.2313-.344-.5382-.631-.8974-.838-1.584-2.349-5.758-2.115-13.922-.754-5.1.511-8.043.334-9-.537-.1191-.1025-.214-.2301-.2779-.3736-.064-.1435-.0954-.2993-.0921-.4564-.0037-.2247.042-.4474.1337-.6525.0918-.2051.2274-.3875.3973-.5345 1.282-1.169 4.89-1.467 11.039-.908 12.384 0 14.615 0 16.108-1.494.4724-.5146.8253-1.1271 1.0336-1.7938s.2668-1.3712.1714-2.0632c-.2124-.6422-.5647-1.2293-1.0317-1.7187-.4669-.4894-1.0367-.869-1.6683-1.1113-1.6-.8-3.867-1.446-9.516-.739-2.565 0-5.418.254-7.711.458-1.636.146-3.049.271-3.963.272-2.856.407-5.328-.081-6.782-1.341-.3371-.2654-.6128-.6006-.8082-.9826s-.3058-.8017-.3238-1.2304c.006-.1883.0551-.3728.1435-.5392.0884-.1665.2138-.3104.3665-.4208 1.657-1.384 6.975-1.548 13.231-.411 9.261 2.138 11.558 2.245 15.348.729.9963-.181 1.9287-.6169 2.7065-1.2653.7777-.6484 1.3743-1.4872 1.7315-2.4347.737-2.212.737-2.96 0-4.443l-.017-.023c-.749-.749-2.258-1.488-5.167-.756-3.6748-.222-7.3288-.7103-10.933-1.461-3.3846-.4738-6.7974-.7177-10.215-.73h-.038l-.027.027c-.3462.3666-.8027.6103-1.3.694.063-.74.791-2.159 2.167-4.223zm8.576-22.657-.009.041c-.0487.5-.1391.995-.27 1.48-.248.9417-.4014 1.9058-.458 2.878-.461 2.768-.806 2.8-.816 2.8-.128-.01-.461-.792-.461-4.238 0-4.282 0-4.282 1.367-4.282.373 0 .759 0 .888.207.117.185.036.561-.241 1.114zm3.088-5.885v-.634c-.0006-.1663.0638-.3263.1794-.4459.1156-.1195.2734-.1892.4396-.1942.1663-.0049.3279.0552.4504.1677.1226.1125.1963.2683.2056.4344-.3505.3433-.7936.5769-1.275.672zm2.13 1.765c.4142-.6099.9482-1.1291 1.5695-1.5259.6214-.3968 1.317-.6629 2.0445-.7821.615 0 1.022 0 1.1.125s-.118.535-.452 1.2c-.314.4526-.7207.8332-1.1931 1.1164-.4724.2833-.9997.4628-1.5469.5266-.2489.0738-.5107.0939-.7679.0587-.2573-.0352-.5041-.1247-.7241-.2627-.0532-.0628-.0848-.141-.0902-.223-.0054-.0821.0157-.1638.0602-.233zm-16.891 2.666c-.0941.0767-.2085.1243-.3293.1371-.1207.0127-.2426-.0099-.3507-.0651-.3949-.2228-.7246-.545-.9565-.9346s-.3579-.8331-.3655-1.2864c0-.578.119-.95.319-1 .0143-.0011.0287-.0011.043 0 .194 0 .535.267.923 1.042.3662.6524.6093 1.3666.717 2.107z" fill="#facc15"/><g fill="#9333ea"><path d="m.477013 56.173 2.999997-1.5c1.033-.62 1.786-1.012 2.285-1.272.615-.321.895-.466 1-.659.122-.212.01-.427-.193-.817-.044-.085-.09399-.18-.14699-.287l-.02601-.05h-.056c-1.25988.0077-2.50665.2565-3.673.733l-.022.011c-2.136995 1.425-2.991996 2.211-2.216996 3.761z"/><path d="m.772992 27.854c-.10303.0363-.192003.1042-.25429.1939-.062287.0898-.094725.1969-.09271.3061.051785.5843.321692 1.1277.755998 1.522l2.926 1.468c.6775.8521 1.6334 1.4383 2.7 1.656.12948.0019.25802-.0223.378-.071.321-.132.7-.522.711-1.621.1335-.1131.22866-.2648.27235-.4342.0437-.1694.0338-.3482-.02835-.5118-.09882-.1963-.25117-.3607-.43944-.4741-.18828-.1135-.4048-.1713-.62456-.1669-1.23634.0471-2.46644-.1971-3.591-.713-1.06-1.056-2.166-1.382-2.712998-1.154z"/><path d="m68.938 12.776c.8561-.1707 1.6561-.5518 2.328-1.109l.026-.025c1.058-1.588 1.427-2.936 1.107-3.2-.084-.07-.239-.1-.492.141-1.53.036-3.7 2.249-3.7 3.006 0 .611.128.963.4 1.11.1019.0536.2159.0802.331.077z"/><path d="m50.9 4.3v-3.679l-.026-.027c-.258-.258-.43-.342-.579-.282-.306.127-.306.831-.306 2.533v3.735h.091c.82 0 .82-.809.82-2.28z"/><path d="m7.71502 74.729c1.52749-.2252 3.03048-.5935 4.48898-1.1l.016-.006c.8615-.4971 1.8438-.746 2.838-.719.0382.0385.0839.0687.1344.0885.0504.0198.1045.0288.1586.0265.1153-.0113.2223-.0651.3-.151.513-.514.839-2.435.239-3.035l-.027-.027h-.038c-1.0346-.0312-2.0577.2245-2.956.739l-.024.017c-.9781.9003-2.2518 1.4118-3.58098 1.438-1.565 0-2.278.8-2.278 1.549 0 .527 0 .875.244 1.059.14375.0931.31438.1356.485.121z"/><path d="m9.01698 15.674c.09503-.0289.17868-.0867.23927-.1654s.09511-.1743.09873-.2736c0-.766-1.44-2.206-2.223-2.988-1.523-1.142-2.754-1.567-3.213-1.108-.407.407-.08 1.389.907 2.7.94179 1.0742 2.25043 1.7585 3.67 1.919.17744.0056.35432-.0229.521-.084z"/><path d="m28.85 6.945c.0673-.00049.1343-.0082.2-.023.443-.105.708-.539.708-1.162 0-1.491-1.462-3.006-2.278-3.006-.148 0-.355.072-.5.415-.1432.44293-.1796.91343-.1063 1.37312.0734.45968.2544.8955.5283 1.27188.119.30019.316.56322.5705.76201s.5574.32616.8775.36899z"/><path d="m87.958 61.244c.2648.1535.5601.2471.865.274.1054.0023.2094-.0251.3-.079.4-.25.4-1.039.4-2.472v-.038l-.023-.029c-.756-.755-1.5-.755-3.709-.755h-3.7l-.026.05c-.1076.1805-.1731.3829-.1918.5922s.0099.4201.0838.6168c.322.778 1.463 1.3 3.076 1.834z"/><path d="m91.264 39.505c.4-.165.451-1.308.451-2.4v-.038l-.027-.026c-.761-.762-1.523-.766-3.02-.018-1.1265.5202-2.36.7669-3.6.72l-.04.009c-.4085.1539-.7693.4128-1.0458.7506s-.4591.7425-.5292 1.1734c.0104.2548.0964.5007.2471.7064.1506.2057.3591.3618.5989.4486l.04.009c1.2576-.0663 2.4989-.3149 3.685-.738.8881-.429 1.8538-.6736 2.839-.719.0474.0575.1108.0998.1821.1215s.1475.0219.2189.0005z"/><path d="m80.391 23.5c1.791 0 4.959-1.749 5.483-3.854.629-1.256.763-2.062.39-2.331-.44-.317-1.482.257-2.722 1.5l-.017.024c-.5089.8838-1.2166 1.6371-2.067 2.2-.2795.2054-.5466.4272-.8.664-.5632.0849-1.0838.3498-1.484.755l-.027.026v.038c0 .544.342.886.962.963.0936.0105.1878.0155.282.015z"/><path d="m77.006 74.92-.024.017c-.1144.1125-.1993.2515-.2471.4047-.0478.1531-.057.3157-.0269.4733.147.9 1.316 1.962 3.208 2.91.7782.6046 1.7057.9869 2.684 1.106.2021.0055.4024-.0392.583-.13.1763-.1095.3181-.2667.4089-.4534.0907-.1867.1268-.3953.1041-.6016 0-1.151-1.285-2.117-2.051-2.59-1.485-.919-3.683-1.615-4.639-1.136z"/></g></svg>