<svg fill="none" height="300" viewBox="0 0 400 300" width="400" xmlns="http://www.w3.org/2000/svg" xmlns:xlink="http://www.w3.org/1999/xlink"><clipPath id="a"><path d="m0 0h400v299.228h-400z"/></clipPath><g clip-path="url(#a)"><path d="m223.279.395237c-.136.148194-.408.778023-.605 1.395493-.791 2.4699-1.359 6.05125-1.915 12.10247-.185 1.9019-.358 3.6925-.395 3.9766-.074.6051-.012.5927-1.655.3705l-1.049-.1482-.087-.8028c-.049-.4445-.173-1.6424-.284-2.6551-.346-3.1862-.901-5.34733-1.333-5.17444-.21.0741-.902 3.79134-1.186 6.34764l-.21 1.9142-.432-.0247c-.235-.0124-1.112-.0865-1.964-.1606-12.905-1.0867-25.748-.9138-38.53.494-4.742.531-12.671 1.7536-16.746 2.5934-.667.1358-1.247.2099-1.284.1605-.037-.0617-.433-1.4325-.865-3.0626-.889-3.4085-1.605-5.582-2.494-7.595-1.1-2.50691-2.26-4.18644-2.742-4.0012-.556.20994-.803 2.12411-.679 5.4214.098 2.4823.308 4.026 1.049 7.5826.309 1.4449.531 2.6922.519 2.754-.025.0617-1.655.5186-3.618 1.0126-17.635 4.4582-32.924 10.9911-46.546 19.9321-3.5562 2.3217-8.0885 5.582-10.5337 7.5826-.4816.3952-.9385.7162-1.0003.7162-.0617 0-.6421-.5927-1.272-1.3213-3.4455-3.9395-10.1636-10.9787-13.5474-14.202-2.334-2.2105-2.9885-2.6922-2.9885-2.2105 0 .0988.5186.8768 1.1485 1.7289.6174.8521 2.7169 3.7049 4.6557 6.3353 3.569 4.8533 5.8043 7.7678 7.8296 10.2254.6175.7533 1.1979 1.4449 1.272 1.556.1358.1729-.0864.4075-1.5437 1.6795-.9262.8275-2.2599 2.0254-2.9639 2.6799-.7039.6545-1.3214 1.1855-1.3831 1.1855-.0494 0-.5928-.6298-1.1856-1.3831-1.5066-1.9142-8.447-10.3612-12.263-14.9182-8.5211-10.1883-14.0043-16.326-19.3022-21.5622-2.7416-2.7169-3.2109-3.1491-4.8287-4.4211-1.8401-1.4326-1.5807-.9015 1.0497 2.1735 3.1985 3.7295 4.8904 5.7919 13.8561 17.0052 10.6082 13.251 14.4736 18.2402 17.9315 23.1677.9509 1.3584 1.7783 2.544 1.8277 2.6304.0618.0988-.5063.778-1.6795 1.9883-4.594 4.7545-9.4968 10.4971-13.6709 16.042-.8398 1.1114-1.5684 2.0006-1.6178 1.9759-.0617-.0247-1.1238-.988-2.3711-2.1488-4.7916-4.4582-10.7564-9.6697-13.3374-11.6456-.7039-.5187-1.1485-.6051-1.0621-.1976.0494.2347 7.0269 8.6076 9.3609 11.2381.9633 1.0867 2.5564 2.8156 3.532 3.853.9756 1.025 1.7783 1.9018 1.7783 1.9389 0 .037-.4816.8027-1.0744 1.6795-.7286 1.1115-1.1238 1.5931-1.2473 1.5437-.0988-.0371-.7657-.4322-1.4819-.8892-4.3224-2.7169-9.645-5.2856-13.9797-6.7428-2.1735-.741-2.5563-.8274-2.7045-.6545-.0617.0741-.0864.2099-.037.2717.0494.0741 1.84 1.309 3.9765 2.7539 5.4832 3.6802 12.2877 8.3977 12.263 8.5088-.0123.0494-.7409 1.2473-1.6178 2.6798-6.6934 10.8671-11.1515 20.3271-13.9796 29.6391-.3458 1.148-.6668 2.136-.7162 2.186-.1359.135-6.1748.926-9.2251 1.222-4.1988.395-3.9148.358-3.8654.581.0864.444 3.5073.778 8.6199.839 3.495.05 3.7666.074 3.7296.272-.0247.111-.1729.766-.3334 1.445-1.5808 6.767-2.2477 13.411-2.1242 21.278.0618 4.261.21 6.348.7657 10.398.1606 1.186.247 2.199.21 2.248-.1359.136-10.2254 3.705-13.8562 4.89-1.8647.606-4.4705 1.408-5.7672 1.766-1.4696.408-2.3834.729-2.3834.815 0 .223.3828.198 2.8403-.148 4.3347-.63 10.0649-2.037 17.4005-4.273 1.1114-.345 2.0994-.592 2.1858-.555.0988.037.1729.185.1729.333 0 .494 1.3461 6.965 2.3464 11.287 1.1485 4.94 1.9266 7.966 2.544 9.806l.4323 1.284-.4199.605c-1.0127 1.433-2.1241 2.606-5.3474 5.632-1.9018 1.766-3.7418 3.569-4.1123 4.001-.9015 1.037-3.2603 4.224-4.6681 6.274-2.1489 3.149-4.3841 5.878-5.9401 7.236-.5681.507-2.0377 1.593-3.2603 2.421-4.7669 3.235-6.0019 4.273-10.32418 8.62-4.8163 4.841-6.8910181 7.595-6.792222 9.027.037048.531.049398.544.444581.519.543381-.025 1.556041-.655 2.865081-1.766.59278-.519 1.3214-1.124 1.61778-1.358.92622-.729 3.91479-3.199 5.73016-4.743 4.4829-3.803 5.829-4.878 8.2742-6.557 3.5937-2.482 5.409-4.137 8.2-7.472 1.8895-2.26 4.2853-4.816 6.3724-6.792.6792-.642 1.803-1.716 2.5069-2.396.6916-.691 1.2597-1.173 1.2597-1.086 0 .086-.1853.531-.4199.988-.8521 1.716-2.013 4.841-3.9642 10.645-3.3591 10.028-4.2976 12.337-6.7922 16.672-2.3217 4.038-4.7669 7.842-7.595 11.793-3.4949 4.903-5.1003 7.521-6.2365 10.152-.6298 1.457-.6668 1.803-.2593 2.074.2964.198.3458.198.8645-.061 1.1361-.544 3.0009-3.014 5.5696-7.348.8027-1.359 2.3587-3.915 3.4578-5.681 2.9022-4.644 3.9889-6.533 5.7549-10.003 1.7166-3.372 2.6057-5.434 4.3223-9.979 2.9639-7.903 5.4708-13.732 8.5212-19.845 2.087-4.162 2.5687-5.039 3.2973-5.928 1.2473-1.544 2.6304-3.569 4.4458-6.483.8892-1.433 2.2476-3.508 3.038-4.632 1.519-2.185 2.1858-3.494 2.4946-5.001.1729-.79.2964-1 1.4449-2.532 1.4078-1.864 3.3467-4.174 4.9645-5.915.5927-.642 2.0376-2.445 3.1985-4.014 4.7298-6.323 7.7802-9.41 16.2396-16.486 14.6094-12.226 18.5983-16.512 24.8346-26.688 3.409-5.569 4.755-7.347 8.472-11.238.877-.926 2.285-2.482 3.137-3.457 3.038-3.508 4.742-5.051 7.681-6.99 2.915-1.9144 3.767-2.1984 5.162-1.6674.655.247 1.075.4693 3.767 2.0374 1.852 1.087 2.581 1.322 4.199 1.396 3.359.16 5.977-1.161 9.694-4.8906 2.742-2.754 4.73-5.2239 9.04-11.201 1.753-2.4329 2.63-3.3714 3.952-4.2606 1.235-.8274 1.864-1.0991 2.605-1.0991.433 0 .568.0741 1.013.531.272.2964.778 1.0621 1.099 1.7043.334.6421.828 1.5436 1.099 2.0253 1.741 3.0132 4.607 4.0383 7.398 2.6428 1.395-.704 3.606-2.7787 5.582-5.2362 2.469-3.0874 6.372-9.151 10.324-16.0544 4.742-8.2865 6.014-10.3735 6.73-11.0528l.309-.284v2.6428c0 2.9515-.124 4.5076-.568 7.5826-.593 3.9765-1.939 9.929-2.285 10.0525-.284.0864-.728.6174-.728.8397 0 .1235.086.3582.197.5064.173.2593.161.3581-.21 1.4819-.543 1.6548-1.939 5.1374-2.754 6.854-2.358 5.0262-6.483 10.5835-11.868 15.9554-2.778 2.791-4.112 3.94-10.188 8.83-12.201 9.818-16.771 13.733-20.327 17.45-4.458 4.656-7.472 9.645-8.46 13.979-.395 1.766-.395 4.99 0 6.854.581 2.754 1.717 5.385 3.779 8.769 3.273 5.359 4.236 7.014 5.002 8.582 3.396 6.978 3.557 10.967.58 14.091-1.815 1.927-3.433 2.631-10.583 4.656-8.46 2.408-13.72 4.396-20.13 7.632-8.978 4.52-20.6482 12.263-28.1073 18.648-1.7413 1.494-5.2362 4.927-6.4958 6.384-4.347 5.027-7.4344 10.893-8.6694 16.45-.7903 3.557-1.062 7.681-1.062 16.116 0 7.126-.1606 9.423-.8274 11.794-.5558 1.988-1.8154 3.68-3.3344 4.483-1.4819.765-2.297.975-8.3729 2.124-5.1004.963-10.6577 2.507-12.9053 3.593-2.1364 1.025-2.8527 1.408-3.3961 1.803-.2717.198-.7162.519-1.0003.704-.4816.346-1.4449 1.445-2.6675 3.088-.5557.728-.7286 1.124-.4939 1.124.284 0 3.4949-.914 4.1-1.174.3952-.173 1.272-.506 1.9389-.753.6668-.247 2.2352-.939 3.4949-1.531 3.0009-1.433 5.8783-2.347 11.4232-3.631 4.6187-1.074 6.0513-1.457 7.1627-1.877 3.2603-1.26 5.2733-3.372 6.3971-6.731.5433-1.617.8397-3.26 1.1485-6.261.0741-.741.0864-.766.4322-.766.7657 0 1.1362-.926.5681-1.457-.1606-.148-.4199-.271-.5804-.271h-.2841l.0865-4.409c.0988-5.199.2593-8.509.5063-10.707.1976-1.63.6669-4.199.988-5.348l.1852-.629.3581.173c.778.395 1.5808-.371 1.2473-1.186-.1729-.408-.4569-.617-.8521-.617-.247 0-.247-.013.0618-.902.1852-.482.6792-1.63 1.0991-2.519.7533-1.581.8027-1.643 1.1608-1.643.2223 0 .494-.111.6298-.247.2594-.259.3335-.914.1235-1.049-.247-.149-.1111-.445.8521-1.878 1.235-1.84 2.6675-3.63 4.4582-5.582 1.2844-1.395 1.4202-1.506 1.5684-1.296.0864.123.1605.259.1605.296 0 .05.1359.148.3088.222.5557.26 1.1732-.16 1.1732-.778 0-.395-.3088-.802-.6051-.802-.0865 0-.1359-.05-.1112-.111.0494-.136 1.8154-1.754 3.1985-2.927 1.0497-.889 1.0868-.914 1.025-.556-.1729.827.7534 1.371 1.6178.963 1.025-.494.3211-1.877-.8274-1.63-.1852.049-.3458.062-.3458.025 0-.062 2.6428-2.137 4.6311-3.619 2.0628-1.543 7.3478-5.236 7.4958-5.236.025 0 .05.148.062.321.062 1.099 1.766 1.075 1.766-.024 0-.334-.395-.791-.679-.791-.371 0-.148-.21 1.136-1.037 9.583-6.224 16.375-9.645 25.452-12.844 2.186-.778 6.434-2.173 6.595-2.173.025 0 .025.185 0 .407-.037.346.025.47.346.741.518.445 1.37.47 1.655.062.419-.593.185-1.161-.606-1.457-.37-.136-.345-.148.865-.605 1.222-.47 1.482-.519 1.198-.235-.235.235-.185 1.025.074 1.247.58.531 1.506.037 1.506-.802 0-.494-.308-.84-.753-.84-.197 0 .087-.21.914-.667 2.099-1.161 3.544-2.433 4.557-4.014.284-.444.531-.839.556-.864.012-.025.148.099.296.272.482.63 1.47.284 1.47-.519 0-.482-.544-.926-1.013-.827-.198.037-.346.049-.346.037 0-.013.087-.334.186-.704.444-1.643.345-4.076-.247-6.249-.21-.741-.235-1.013-.124-.914.284.235.939.099 1.21-.272.21-.284.223-.382.099-.704-.296-.691-1.223-.716-1.568-.049-.111.247-.173.173-.544-.741-.951-2.359-2.247-4.754-4.359-8.101-1.149-1.816-1.334-2.174-1.173-2.285.308-.222.481-.667.395-1.013-.111-.419-.741-.703-1.26-.555-.358.111-.37.099-1.049-1.087l-.68-1.186.383-.086c.741-.161.963-.988.383-1.445-.42-.321-.667-.321-1.087 0l-.321.247-.321-.716c-.556-1.26-1.247-3.52-1.457-4.718-.815-4.779 1-9.632 5.965-15.931l.234-.308-.061.308c-.099.494.37.976.963.976 1.309 0 1.296-1.544-.013-1.716l-.543-.075 2.211-2.26c1.827-1.877 2.247-2.247 2.457-2.185.655.21.889.197 1.223-.062.259-.21.333-.371.333-.729 0-.247-.062-.518-.123-.58-.124-.124.432-.679 2.778-2.717l.865-.766.321.358c.395.433.864.47 1.235.099.259-.259.272-.605.086-1.605-.024-.136.803-.902 2.371-2.211 1.322-1.099 2.532-2.124 2.693-2.272l.284-.259-.186.37c-.111.21-.173.506-.135.692.061.271-.062.457-.927 1.296-.951.914-1.037.976-1.482.939-.679-.062-1.012.296-.975 1.025.037.506-.013.605-.581 1.198-.333.358-1 1.111-1.457 1.667-.803.963-.864 1.013-1.111.84-.581-.408-1.433-.05-1.433.605 0 .173.148.469.321.679l.309.383-.543.766c-.778 1.111-1.878 3.038-2.495 4.408-.692 1.544-1.618 4.323-1.976 5.879l-.272 1.235-.518-.037c-.667-.062-1.001.21-1.001.802 0 .531.457 1.025.951 1.025h.346l.025 1.174c.024 1.457.197 2.642.667 4.618.197.84.358 1.569.358 1.63 0 .062-.124.112-.284.112-.791 0-1.112.901-.531 1.556.222.259.407.345.827.37.457.012.556.074.642.309.05.16.84 2.568 1.742 5.359 1.827 5.57 2.062 6.36 1.975 6.36-.037 0-.172-.061-.296-.123-.667-.358-1.346.383-1.111 1.223.271 1.037.988 1.469 1.63 1 .197-.148.383-.247.407-.222.087.098 1.075 4.198 1.013 4.248-.037.037-.173.012-.309-.062-.494-.259-1.136.198-1.136.79 0 .865.914 1.371 1.47.815.308-.308.308-.321.58 1.655.445 3.162.235 7.101-.506 9.571-1.951 6.521-6.706 12.572-13.955 17.783l-1.42 1.013-.334-.321c-.765-.766-2.05.099-1.457.988.111.173.161.346.136.407-.037.062-1.606 1.186-3.483 2.495-1.877 1.321-4.285 3.038-5.347 3.828l-1.927 1.433-.037-.383c-.061-.519-.358-.815-.827-.815-1.062 0-1.074 1.593-.012 1.655.173 0 .321.025.321.025 0 .012-.433.37-.951.802-.531.433-1.396 1.198-1.914 1.705-.964.913-.964.913-.964.531 0-1.013-1.358-1.186-1.864-.26-.309.581.432 1.322 1.136 1.136.21-.061.086.149-.531.853-2.68 3.075-4.137 5.853-4.767 9.113-.371 1.927-.383 2.026-.507 3.977-.345 5.434.976 10.312 3.804 14.054 1.902 2.507 5.1 5.73 10.892 10.929 6.546 5.878 7.756 7.002 9.374 8.657 7.508 7.706 9.62 14.511 7.619 24.575-.432 2.149-.667 3.026-1.124 4.138-.308.778-.568 1.481-.568 1.58 0 .186.284.111 1.174-.296 1.815-.828 3.346-2.816 4.174-5.434.741-2.371.753-4.927.012-9.324-.58-3.421-2.433-7.805-4.606-10.867-2.557-3.606-4.866-5.965-11.004-11.226-6.94-5.94-10.052-8.793-12.176-11.139-2.211-2.445-3.236-3.927-4.125-6.002-.988-2.297-1.358-4.261-1.358-7.187 0-7.558 2.568-12.165 10.385-18.624 1.334-1.099 2.223-1.753 7.398-5.409 7.014-4.952 7.731-5.47 8.768-6.285 5.841-4.607 10.386-10.67 12.275-16.388.976-2.915 1.26-4.915 1.149-8.077-.161-4.705-1.05-8.385-4.644-19.142-2.074-6.211-3.038-9.644-3.359-11.904-.222-1.569-.074-4.002.321-5.447.754-2.791 1.803-5.433 2.878-7.348 3.223-5.705 7.595-10.361 15.98-17.017 2.902-2.297 5.57-4.693 9.546-8.571 4.014-3.9145 4.915-4.8777 6.657-7.1377 1.457-1.8771 2.605-3.6431 4.52-6.9157 2.926-5.0139 4.161-7.6814 4.742-10.3118.444-2.0006.555-3.4455.654-8.0889.087-4.4952-.012-5.7672-.543-7.595-.272-.9262-.296-1.1855-.235-2.2846.05-.6792.025-2.3711-.049-3.7666l-.136-2.5317.346-.284c1.087-.8768 2.988-.531 5.718 1.0621 2.717 1.5807 4.939 3.3714 8.385 6.7551 3.05 2.9886 5.15 5.2239 7.632 8.1013 2.285 2.6551 2.964 3.3591 6.953 7.2244 9.793 9.4845 15.696 14.5601 21.117 18.1414 4.656 3.0874 7.941 4.7797 11.448 5.9157 3.298 1.062 5.903 1.173 8.324.37 1.778-.58 2.494-1.136 4.149-3.2106l.383-.4817.679.3458c1.161.5928 3.248 2.3715 5.965 5.0885 3.569 3.556 6.953 7.533 10.682 12.534 2.878 3.866 4.743 6.669 11.263 16.981 6.027 9.534 8.657 13.411 14.474 21.364 9.237 12.634 15.387 20.772 22.587 29.886 6.903 8.731 9.608 11.856 20.253 23.341 3.186 3.445 13.189 13.806 14.128 14.646.247.223 1.593 1.519 2.989 2.878 3.816 3.754 8.657 8.101 10.793 9.682 4.199 3.149 9.818 5.915 13.127 6.458.704.112.914.112 1.31-.049.531-.222.778-.654.654-1.161-.136-.543-1.544-1.815-4.088-3.68-3.149-2.297-4.655-3.507-8.089-6.483-8.335-7.225-16.177-14.931-26.613-26.181-8.706-9.374-12.3-13.449-16.709-18.907l-1.741-2.162.63-1.605c.346-.877.877-2.211 1.173-2.952.865-2.099 1.704-4.631 2.211-6.668.247-1.025.494-1.89.531-1.927.185-.197 6.743.766 11.868 1.741 6.434 1.223 9.052 1.618 12.238 1.865 2.173.161 2.606.087 2.68-.518.111-.939-3.483-2.828-8.385-4.409-2.038-.655-7.941-2.174-13.82-3.545-1.938-.456-3.544-.852-3.569-.876-.024-.025.037-.754.149-1.618.234-1.84.432-4.075.555-6.113l.087-1.445 3.952-.062c3.89-.061 5.717-.222 6.384-.58.383-.21.136-.309-1.136-.457-.642-.074-2.062-.272-3.149-.445s-2.853-.42-3.915-.543c-1.074-.124-1.976-.259-2.025-.296-.037-.037-.111-1.421-.173-3.063-.123-3.211-.346-5.755-.741-8.707-.346-2.568-.395-2.334.655-2.729 6.866-2.581 9.793-4.038 11.188-5.545.593-.654.618-.951.099-1.346-.284-.21-.568-.271-1.531-.308-2.273-.075-4.421.345-9.164 1.827-1.321.408-2.432.729-2.457.704-.025-.037-.185-.704-.346-1.494-1.84-8.669-5.174-18.574-9.064-26.86-.556-1.186-1.025-2.248-1.038-2.347-.012-.197 3.038-3.0377 6.113-5.6928 1.927-1.6548 6.039-4.9521 14.511-11.6579 5.285-4.1741 13.523-10.7688 14.041-11.2257.865-.7904-.025-.7286-1.716.1111-3.915 1.9513-12.683 7.4962-19.191 12.1519-2.779 2.0007-12.992 9.5832-14.845 11.0281-.58.457-1.086.8398-1.123.8398s-.531-.8521-1.087-1.8895c-1.05-1.9388-2.742-4.878-3.581-6.2365l-.494-.778 2.877-3.0503c4.755-5.051 7.83-8.5088 11.374-12.7694 3.161-3.816 8.113-10.0525 8.113-10.2377 0-.6175-.815.1605-13.992 13.251l-10.101 10.0401-1.384-2.0994c-12.324-18.6601-30.157-36.0235-48.249-46.9528-2.05-1.2349-5.051-2.9391-6.274-3.5443-.568-.284-.642-.3704-.568-.6051.05-.1482 1.26-3.2726 2.705-6.9404 3.124-7.9284 4.088-10.5218 5.397-14.3872 1.506-4.47047 1.827-5.90301 1.148-5.22378-.432.43223-1.037 1.49428-2.556 4.54458-1.964 3.9272-3.199 6.6441-6.533 14.4366-1.494 3.4702-2.742 6.3353-2.791 6.3847-.062.037-1.21-.4446-2.569-1.0744-1.358-.6299-2.507-1.1732-2.556-1.1856-.049-.0247.296-1.0991.778-2.3834 1.408-3.8284 2.371-6.9281 4.186-13.3992.359-1.2597.803-2.6922 1.013-3.1862.457-1.0991.346-1.3461-.321-.7657-.642.5681-1.161 1.3338-2.149 3.1491-1.704 3.1492-4.186 8.7435-5.891 13.2757-.395 1.0498-.728 1.9266-.741 1.9513-.024.0247-.605-.1976-1.309-.4817-9.175-3.6554-19.907-6.681-30.602-8.6199-1.531-.284-2.902-.5063-3.062-.5063-.161 0-.321-.0865-.371-.21-.037-.1111-.012-2.9268.074-6.2612.124-4.56928.124-6.5946.013-8.22473-.148-2.297-.321-3.754245-.507-4.11238-.16-.2963878-.667-.2593393-.975.061747zm-36.728 30.750263c.136.1605.457.7409.717 1.2967l.481 1.0003.63-.0618c.408-.037.828.0124 1.186.1359l.543.1852.951-.9138c.988-.9633 1.358-1.1239 1.593-.6669.124.2223.025.3581-.79 1.2102l-.939.9633.198.3952c.136.2717.185.5927.148.9385l-.062.5311.877.2223c.482.1111 1.124.2222 1.433.2222.629.0124.802.2841.419.704-.271.2964-.704.2964-2.025-.0124-1-.247-1.05-.247-1.21-.037-.371.531-.803.8891-1.198 1.025l-.432.1482v.8397c0 1.1485-.149 1.5067-.593 1.4573l-.334-.0371-.037-1.1979c-.037-1.1485-.037-1.1855-.345-1.2596-.42-.1112-1.248-.9633-1.334-1.4079-.087-.3457-.099-.3581-.605-.2593-.852.1605-1.766.1358-1.939-.0741-.247-.2964-.037-.6792.37-.6792.198 0 .766-.0618 1.26-.1359l.902-.1358.333-.7039c.296-.6052.309-.704.161-.8892-.099-.0988-.186-.2593-.186-.3458 0-.0741-.222-.5804-.494-1.1238-.481-.9509-.58-1.3461-.407-1.519.16-.1729.494-.0741.728.1853zm-30.392 4.1988c0 .3952.074.5187.47.8027.37.2594.457.4075.432.6422-.05.4446-.469.4693-1.038.0864l-.469-.3087-.284.4199c-.321.4693-.704.6422-.963.4322-.259-.2223-.222-.4693.123-.8892.247-.284.284-.4075.186-.5433-.235-.2717-.099-.7286.247-.7657.16-.0247.419-.1235.555-.2223s.358-.1605.494-.1482c.198.0247.247.1359.247.494zm30.442 2.26c.21.2593.074.8768-.309 1.3831-.42.5434-.729.7039-1.05.531-.358-.1852-.308-.4569.186-1.0003.234-.2717.432-.5557.432-.6422 0-.1975.247-.4569.444-.4569.074 0 .21.0865.297.1853zm48.052 3.6307c.914.3458 1.79 1.1238 1.976 1.7166.234.7904-.037 3.0627-.457 3.8654-.235.4693-1.087 1.1732-1.902 1.5684-.618.3087-.803.3334-2.1.321-1.173 0-1.543-.0494-2.111-.2716-1.618-.6422-2.285-1.4943-2.174-2.791.148-1.8648 1.618-3.816 3.396-4.5323.791-.3211 2.408-.2593 3.372.1235zm27.514 4.5199c.025.1729-.16.4323-.667.8892l-.716.6298.259.4569c.322.5311.334.7163.087.9262-.284.2347-.716-.0123-.963-.531l-.21-.4322-.926.494c-1.075.5557-1.359.568-1.359.037 0-.3211.099-.4199.926-.8768.581-.3211.902-.5804.877-.6792-.16-.5434-.148-.9386.037-1.0127.284-.1111.556.0247.729.3705l.16.2964.544-.4446c.592-.494 1.136-.5557 1.222-.1235zm-151.392.3088c.136.0741.556.568.938 1.1114.396.5434.741.988.779.988.037 0 .246-.2964.444-.6422.556-.9509 1.025-1.4572 1.371-1.4572.358 0 .519.321.321.6051-.074.1111-.457.6916-.827 1.2843-.791 1.235-.803 1.0374.222 2.1365.568.6051.593 1.0744.074 1.1361-.259.0247-.445-.0988-.939-.6421l-.617-.6793-.655.8028c-.481.5927-.716.7903-.913.7656-.47-.0617-.408-.7162.123-1.3461.902-1.0744.902-.9385.049-2.1364-.419-.5805-.815-1.0991-.876-1.1362-.062-.037-.112-.2223-.112-.4199 0-.2963.087-.4198.346-.4816.025-.0123.148.0494.272.1112zm124.372 11.0527c1.914.3335 5.075 1.5931 6.73 2.6675 1.482.9756 3.693 3.3715 5.076 5.4956.593.9138 2.593 5.903 3.099 7.7184 1.26 4.4829 1.001 8.2989-.79 11.8679-1.47 2.9268-2.976 4.1-4.619 3.606-.58-.1729-1.012-.5804-6.52-6.0512-3.236-3.2356-6.36-6.2489-6.941-6.6935-2.383-1.8524-4.161-3.4825-6.878-6.2735-1.569-1.6301-2.976-3.0997-3.125-3.285-.148-.1976-.592-.5927-.988-.9015-1.346-1.0373-1.272-1.8771.321-3.4578.494-.494 1.235-1.1362 1.655-1.4202 1.383-.9386 3.569-1.8154 5.681-2.2847.716-.1605 1.692-.4322 2.186-.6051 1.605-.5804 3.297-.7039 5.113-.3829zm-59.29.3088c.173.3211.049.7039-.247.8027-.124.0371-.309.2099-.42.3705l-.198.2964 1.013.5187c1.21.5927 1.482.815 1.432 1.1485-.061.4322-.506.3704-1.716-.247-.63-.3088-1.173-.5187-1.186-.457-.024.0618-.197.4199-.395.7904-.259.5187-.407.6669-.63.6669-.518 0-.592-.3458-.21-1.1115.186-.3705.334-.7286.334-.7903 0-.0618-.185-.1729-.42-.2594-.506-.1605-.852-.5187-.79-.8274.061-.3211.605-.3458 1.185-.0494l.494.247.21-.3334c.618-.9633 1.272-1.2844 1.544-.7657zm20.5 13.0287c-.074.6051-.198 1.7783-.272 2.5934s-.16 1.5066-.173 1.5313c-.024.0124-.16-.0494-.321-.1605-.37-.2594-.617-.247-1.012.0617-.396.3088-.42.8151-.075 1.1979.284.2964.84.3582 1.1.1112.135-.1235.148-.0247.086.5804-.049.3952-.173 1.0868-.284 1.5313l-.198.7904-.148-.3581c-.259-.6298-1-.7286-1.408-.21-.308.3952-.321.6422-.074 1.0003.272.3952.778.4693 1.186.1729l.333-.247-.099.3335c-.148.5063-.605 1.6672-.728 1.8648-.087.1358-.124.1111-.198-.0988-.099-.3088-.568-.457-.901-.2717-.618.3334-.346 1.2473.358 1.2473.321 0 .346.0247.247.2223s-.235.2223-.791.1729c-.617-.0494-.691-.0247-.938.2963-.395.5064-.148 1.2226.506 1.4326.087.037-.148.5804-.642 1.4696-.914 1.6672-.827 1.556-1.013 1.3708-.37-.3705-1.247-.0618-1.346.4692-.049.247.111.8645.235.8645.049 0 .16.0494.247.1112.123.0741-.074.4816-.84 1.7165-.951 1.519-1.025 1.6178-1.334 1.5561-.234-.0494-.444.0123-.679.1976-.358.284-.42.6545-.197 1.1608.135.2841.086.3952-.556 1.2473-.692.9139-.852 1.0497-1 .8027-.037-.0741-.26-.1235-.494-.1235-.803 0-1.174.988-.618 1.6055.173.1852.173.2223 0 .3705-.16.1234-.185.1111-.185-.1112 0-.3581-.432-.7533-.828-.7533h-.333l.321-.3458c.692-.741 2.371-3.038 3.656-5.0139 2.025-3.075 3.828-6.7552 5.52-11.2133.58-1.5437.691-1.7537 1.025-1.8895.531-.2346.704-.8892.333-1.2967-.16-.1729-.136-.3087.124-1.1238.852-2.7045 1.716-6.3353 2.309-9.7437l.161-.9263.037 2.3464c.012 1.2844-.025 2.8404-.099 3.4579zm95.227-3.5443c.617.3952 1.309 1.1361 1.482 1.5931.333.8891 0 1.8771-.939 2.7416-.716.6545-1.235.8768-2.075.8768-.901 0-1.457-.4076-1.938-1.4202-.519-1.0744-.087-2.5811 1.049-3.6308.507-.4569.605-.5063 1.211-.5063.506 0 .778.0741 1.21.3458zm-183.761.2593c1.198.5681 2.334 1.9266 2.334 2.791 0 .4693-.308.9262-.617.9262-.198 0-.222.0741-.161.6546.198 1.9512-1.111 4.1617-3.05 5.125-.667.3458-.914.3952-1.716.3952-1.124 0-1.952-.3335-2.693-1.0744-2.519-2.5193-.852-7.7926 2.841-9.0028.765-.2593 2.346-.1606 3.062.1852zm29.812 2.9269c.099.1111.309.4198.432.6792l.247.4693.951-.6052c1.038-.6915 1.457-.8397 1.754-.6545.346.2223.296.5187-.124.7533-.308.1606-1.864 1.1732-2.062 1.3338-.062.0494.84 1.6425.976 1.7289.197.1235.111.531-.149.6669-.37.2099-.728-.0865-1.21-.9756-.222-.4199-.432-.7533-.481-.7533-.05 0-.334.1728-.643.3828-1.296.8768-1.877 1.0003-2.05.4446-.086-.2964-.086-.2964 1.285-1.1485.481-.3088.889-.6299.889-.704 0-.0864-.136-.3951-.309-.6915-.309-.5311-.383-.8892-.222-1.0374.148-.1482.506-.0864.716.1112zm125.94 12.4112c.828.4322 1.124.988 1 1.9142-.086.7656-.629 1.4943-1.346 1.8277-.555.2717-1.148.1111-1.605-.4322-.358-.4446-.395-.9015-.111-1.8401.358-1.2103 1.284-1.8648 2.062-1.4696zm42.433 6.1377c.086.1729-.025.6669-.432 1.9389-.297.9385-.519 1.7412-.482 1.7659.025.0371.457.1482.951.2717 1 .2347 1.334.5311 1.05.9139-.161.2223-.21.2223-1.186.0123-.593-.1358-1.05-.1728-1.111-.1111-.148.1729-.754 2.4205-.754 2.828 0 .6916-.815 1.0991-1.111.5558-.099-.1976-.025-.6175.383-1.9883.271-.9509.481-1.7536.457-1.766-.161-.1358-2.273-.5557-2.47-.5063-.371.1235-.865-.2594-.815-.6422.074-.6051.333-.6298 2.037-.1852.853.2223 1.569.3828 1.581.3705.013-.0247.247-.7657.531-1.6672.297-.9015.618-1.7166.716-1.8277.26-.247.507-.2347.655.037zm-123.433 8.8175c.074.1482.321.3335.543.3952l.408.1112-.704.7162c-.679.6916-.704.6916-.926.4693-.494-.494-1.47-.1235-1.47.5557 0 .1606.111.4322.247.5932l.235.308-.284.272-.297.272-.074-.309c-.037-.173-.21-.383-.37-.469-.297-.161-.284-.173 1.074-1.7416.753-.8644 1.383-1.5436 1.42-1.5066.037.0247.124.1852.198.3334zm-93.5475 1.7413c.6915.3582.9262 1.2105.3705 1.3835-.1235.049-.2594.222-.2964.407-.2717 1.285-.6175 1.754-1.3214 1.754-.494 0-1.519-.877-1.7166-1.457-.284-.853.4199-2.0504 1.2843-2.1616.8275-.0988 1.3955-.0741 1.6796.0741zm89.9905 2.9265c.284 0 .198.161-.358.717-.531.518-.543.518-.951.345-.296-.123-.519-.135-.741-.049-.222.074-.062-.136.544-.753l.852-.865.234.309c.136.16.321.296.42.296zm-2.618 1.668c-.049.185 0 .419.111.605.185.271.161.308-.642 1.111l-.84.84-.321-.321c-.173-.173-.383-.321-.457-.321-.098 0 2.075-2.199 2.199-2.223.012 0 0 .136-.05.309zm-105.4645 2.729c.2717.099.247.457-.0494 1.037-.1359.272-.3829.865-.5558 1.322l-.2963.839.2716.21c.1482.111.8769.556 1.6178.976.7286.432 1.3708.852 1.4079.951.0741.222-.1235.568-.3582.617-.0988.013-.8521-.333-1.6795-.778-.8274-.444-1.556-.803-1.6054-.803-.1235 0-1.025 2.149-1.025 2.458 0 .296-.5558.667-.8645.568-.4322-.136-.3828-.482.247-1.889.6669-1.482.7163-1.717.4322-1.828-.0988-.037-.2099-.161-.247-.284-.037-.111-.5927-.531-1.2349-.926-1.272-.778-1.5067-1.038-1.2967-1.433.2223-.42.9385-.333 1.4078.173.3458.37 1.9018 1.433 2.0994 1.433.0371 0 .0741-.062.0741-.136 0-.297.8151-2.038 1.0621-2.297.3211-.309.3211-.321.5928-.21zm102.3405.975c.222.247.21.26-.803 1.137l-1.025.889-.618-.074c-.543-.062-.654-.037-.889.222-.222.235-.259.395-.21.729.062.419.037.456-1.062 1.296-.617.469-1.185.84-1.259.815-.531-.21-.914-.148-1.174.173-.135.185-.259.519-.259.729 0 .346-.123.494-.889 1.099-.729.568-.963.691-1.223.642-.173-.037-.469-.012-.642.049-.185.075-.333.112-.333.087s1.815-1.581 4.05-3.446c2.223-1.864 4.483-3.779 5.027-4.248.864-.765.988-.84 1.025-.605.024.148.148.371.284.506zm142.5 18.772c.519.271 1.223 1 1.309 1.358.112.445-.024.865-.432 1.321-.234.272-.37.606-.432 1.013-.099.766-.593 1.618-1.062 1.865-.457.235-1.149.235-1.593.012-.494-.259-1.198-1.087-1.371-1.618-.457-1.383.618-3.766 1.877-4.161.395-.124 1.272-.013 1.704.21zm-252.0403 15.35c1.0374.667 1.4696 1.433 1.4696 2.618 0 1.26-.494 2.075-1.4449 2.396-1.1855.407-2.9639.136-3.6554-.556-.3458-.358-.3582-.407-.3088-1.21.0988-1.346.8892-2.754 1.8895-3.371.5681-.346 1.3831-.297 2.05.123zm263.6243.704c.457.309.889.556.964.556.074 0 .296-.223.481-.494.284-.408.42-.494.667-.47.494.062.494.581.012 1.124l-.37.432.617.383c.655.395.778.717.42 1.013-.173.148-.308.111-.926-.235l-.729-.395-.457.506c-.37.408-.518.482-.827.457-.593-.061-.593-.506.012-1.037l.47-.42-.309-.235c-.173-.135-.63-.419-1.013-.629-.716-.383-.877-.655-.568-.964.272-.271.716-.148 1.556.408z" fill="#374151"/><path d="m188.058 34.5416c-.333.3828-.716 1.2473-.716 1.6177 0 .741.914 1.3708 1.729 1.1979.42-.0864.864-.6421.864-1.062 0-.1482.111-.4075.26-.5557.234-.2594.247-.2964.061-.6422-.333-.6545-1.79-1.0127-2.198-.5557z" fill="#facc15"/><path d="m232.294 41.8648c-1.198.2223-2.272 1.1115-2.915 2.4082-.247.494-.481 1.1608-.506 1.4819-.062.531-.049.5928.432 1.0374.692.6668 1.544.9385 2.927.9385.914 0 1.198-.0494 1.63-.284 1.26-.6669 1.865-1.5807 1.457-2.1982-.308-.4816-1.444-.9509-2.26-.9509-.592 0-.728.0494-.975.3458-.161.1852-.272.3951-.247.4692.025.0865.321.2223.654.3211.717.1976.914.3335.914.6422 0 .4322-.444.531-1.296.2964-.976-.2593-1.297-.5434-1.297-1.1485 0-1.8401 2.099-2.507 4.359-1.4079l.704.3582v-.3211c0-.4446-.42-1.0744-.889-1.3708-.79-.4816-1.976-.7533-2.692-.6175z" fill="#facc15"/><path d="m104.884 68.021c-1.827.7286-3.149 2.7292-3.149 4.7916 0 1.4572.543 2.4205 1.692 2.9639 1.198.5681 2.297.3211 3.52-.7657.901-.8151 1.407-1.9142 1.42-3.075 0-1.025-.124-1.235-.803-1.4202-.951-.2593-2.112.3458-2.717 1.3955-.432.7533-.469 1.2226-.123 1.5684.383.3828.704.3087 1.086-.2594.655-.9756.951-1.2596 1.223-1.1732.432.1359.408.5064-.074 1.3214-.531.9015-1.111 1.3461-1.778 1.3461-1.433 0-2.149-1.5684-1.371-3.0379.617-1.1732 1.655-1.9883 2.803-2.1983.605-.1111 1.717.1112 2.124.4446.642.5064.556-.1852-.123-.9756-.618-.7286-1.532-1.1485-2.458-1.1361-.42 0-.988.0988-1.272.2099z" fill="#facc15"/><path d="m262.674 83.7543c-.284.4569-.433 1.1114-.321 1.3955.185.5063 1.086-.1359 1.247-.9015.062-.3088.024-.4693-.136-.6546-.309-.3334-.506-.2964-.79.1606z" fill="#facc15"/><path d="m314.072 127.15c-.247.173-.765 1.013-.765 1.235 0 .05.296.037.654-.012.753-.111 1.42-.136 1.741-.062.309.087.556-.296.371-.593-.185-.296-1.038-.765-1.408-.765-.173 0-.445.086-.593.197z" fill="#facc15"/><path d="m314.257 129.398c-.568.161-.765.173-.95.049-.359-.222-.334.124.049.766.321.556.766.864 1.136.79.469-.086 1.013-1.679.605-1.778-.061-.012-.444.062-.84.173z" fill="#facc15"/><path d="m62.0068 142.464c-.5187.432-1.0003 1.296-1.1979 2.112l-.1482.666.3828.235c.7657.469 2.0624.469 2.6799.025.6298-.47.6051-2.026-.0371-2.73-.2593-.271-.9262-.629-1.1855-.629-.0618 0-.2841.148-.494.321z" fill="#facc15"/><path d="m205.99 65.7981c0 .2964 1.025 1.5561 3.075 3.779s19.042 19.1664 22.117 22.0438c4.471 4.2112 8.793 7.6567 14.141 11.3241 3.68 2.52 5.075 3.322 5.643 3.236.877-.124-.024-1.149-2.729-3.124-5.014-3.6559-8.694-6.4963-11.374-8.7563-2.902-2.4452-9.62-8.6817-16.968-15.7456-2.383-2.2846-5.162-4.9521-6.187-5.9401-3.668-3.5196-7.459-7.0392-7.583-7.0392-.074 0-.135.0988-.135.2223z" fill="#60a5fa"/><path d="m207.434 72.825c-.185.1728-.061.4569.47 1.1485.58.7533 5.619 6.0883 5.915 6.2612.087.0617 3.186 3.0626 6.879 6.6934 8.731 8.5829 10.472 10.1513 16.005 14.3869 3.84 2.939 5.89 4.224 6.977 4.372.358.037.482.012.544-.148.148-.395-.173-.778-1.581-1.877-7.793-6.0763-15.363-12.6339-25.168-21.7849-4.508-4.2235-9.855-9.1386-9.917-9.1386-.025 0-.087.0371-.124.0865z" fill="#60a5fa"/><path d="m211.3 81.9635c0 .2717 2.099 2.7787 4.68 5.5943 2.05 2.223 11.3 11.8679 12.757 13.2882 3.483 3.396 6.311 5.446 7.41 5.335.482-.05.605-.371.259-.741-.123-.136-1.111-1.037-2.198-1.988-4.088-3.5941-6.113-5.5082-12.658-12.0041-7.805-7.7308-10.25-9.9907-10.25-9.4844z" fill="#60a5fa"/><path d="m211.115 88.0766c-.272.6916 1.914 3.4085 6.545 8.1136 5.841 5.9398 10.176 9.7318 12.374 10.8308.519.259.679.284.889.173.42-.223.309-.643-.42-1.507-1.864-2.272-9.262-9.151-15.622-14.5354-1.395-1.1855-2.791-2.3958-3.112-2.7045-.444-.4322-.605-.5187-.654-.3705z" fill="#60a5fa"/><path d="m162.322 88.9781c-.186.2841-.186.3952-.05.8398.198.6545 2.161 4.2852 3.026 5.5819.691 1.0374 1.482 1.8895 1.618 1.7536.234-.2222-2.989-7.5331-3.594-8.1506-.408-.4199-.741-.4199-1-.0247z" fill="#a3e635"/><path d="m208.089 89.8673c0 .1729 1.642 3.1862 3.05 5.5943.815 1.3955 2.161 3.7296 3.001 5.1864 2.68 4.693 4.15 6.904 6.854 10.374 3.236 4.137 4.1 5.458 4.73 7.187.58 1.631.692 2.569.568 4.977-.247 4.718-.074 5.619 1.556 8.176.099.148.148.296.124.308-.062.05-2.878.704-4.755 1.112-.605.123-1.136.259-1.161.296-.432.432 3.829.506 5.706.087l1.086-.235.433.605c.234.334.42.618.395.642-.025.013-.568.148-1.21.309-1.952.469-5.471 1.47-5.595 1.593-.197.198.346.371 1.593.519 1.334.148 3.582.012 5.484-.321.58-.099 1.173-.186 1.309-.186.247 0 2.099 1.569 1.988 1.68-.025.037-.963.222-2.075.42-1.111.197-2.667.469-3.445.617-.778.149-1.544.297-1.692.321-.161.037-.284.112-.284.173 0 .445 4.149.63 7.397.321l2.025-.197.47.432c.382.346.432.432.259.482-.914.271-5.15 1.222-5.755 1.284-.519.062-.753.136-.753.259 0 .618 3.655.828 6.73.383l1.877-.272.606.593.605.593-2.631.469c-1.432.26-3.161.568-3.828.692-.667.111-1.21.259-1.21.333-.025.494 3.816.692 7.175.371l2.161-.198.42.445c.222.247.358.494.308.543-.123.099-5.285 1.569-5.94 1.692-.543.111-.518.383.062.506 1.173.247 5.533-.012 6.854-.407.185-.062.21.037.21.79 0 1.643.259 3.433 1.111 7.632 1.174 5.792 1.272 6.582 1.211 9.065-.05 1.556-.111 2.161-.284 2.556-.358.889.012 1.223.605.531.506-.605.716-1.494.778-3.359.074-2.001-.05-3.211-.704-6.582-1.075-5.459-1.186-6.83-.741-9.102.42-2.149.272-3.235-.667-5.236-.877-1.84-1.605-2.877-6.422-9.126-2.642-3.433-3.618-4.495-5.224-5.706-.765-.568-1.593-1.272-1.84-1.556-.629-.741-1.321-2.26-1.852-4.1-1.148-4.038-1.803-5.236-6.656-12.226-.89-1.296-2.112-3.124-2.705-4.075s-1.865-2.976-2.816-4.508c-6.446-10.3115-7.508-11.9787-8.039-12.5715-.247-.2593-.457-.3581-.457-.1852z" fill="#60a5fa"/><path d="m161.482 91.658c-.111.1482-.198.3951-.198.5433 0 .7286 1.112 3.0997 1.729 3.6925.21.1976.395.3334.42.2964.074-.0741-.234-2.4205-.457-3.4825-.099-.457-.284-.9509-.395-1.0744-.309-.3335-.864-.3211-1.099.0247z" fill="#a3e635"/><path d="m159.852 93.251c-.395.4446-.309 1.3955.234 2.507.519 1.0374 1.593 2.3094 1.791 2.1118.087-.0865.049-.6051-.099-1.5437-.333-2.1612-.494-2.8404-.753-3.0998-.309-.3087-.877-.2964-1.173.0247z" fill="#a3e635"/><path d="m150.293 103.217c-.494.136-1.753.914-4.569 2.816-2.136 1.432-5.113 3.371-6.607 4.31-4.829 3.038-8.533 5.582-9.41 6.495-.729.766-1.248 1.939-1.42 3.248-.124.914-.186 1.075-.396 1.124-.148.037-1.086.235-2.111.457-1.013.235-1.853.469-1.853.531 0 .284 1.235.544 2.631.556 1.136 0 1.383.037 1.383.185 0 .099-.148.222-.334.259-2.63.643-3.556.914-3.593 1.025-.025.075.222.26.555.408.47.222.84.272 1.803.272l1.211.012-.037.358c-.05.432-.05.432-2.322.815-.914.161-1.717.321-1.778.383-.297.259 1.766.84 2.988.852.469 0 .642.05.642.173 0 .185-2.47 10.028-2.791 11.152-.148.494-.247.654-.42.654-.407 0-1.617.507-1.568.655.025.086.358.197.753.259.803.124.791.074.309 1.359-.235.654-.259.666-.827.753-1.038.136-2.507.58-2.458.728.062.186 1.013.42 1.791.433.346.012.642.049.642.086 0 .136-.877 1.63-1.025 1.754-.086.062-.42.16-.766.21-.815.111-3.272.901-3.272 1.049 0 .173.481.272 1.79.359l1.161.074-.481.629c-.47.63-.482.63-1.322.704-.457.05-1.482.26-2.26.457-1.852.482-1.79.457-1.618.667.186.21.828.334 2.297.432l1.1.075-.359.395c-.382.407-1.086.592-4.507 1.235-1.445.259-1.42.259-1.247.457.271.321 1.284.58 2.556.654l1.26.074-2.236 2.791c-4.026 5.039-6.841 8.917-9.336 12.856l-1.124 1.778-1.296.457c-1.359.482-2.0752.828-2.0752 1.038-.0123.16.5562.271 1.4942.296.716.012.766.025.642.247-.086.185-.63.358-2.2843.766-1.3461.321-2.1612.58-2.1612.679 0 .235 1.0373.531 2.4575.679l1.321.148-.049.358c-.025.186-.086.371-.136.396-.037.024-.605.135-1.2471.247-.6422.111-1.7783.37-2.507.592-1.1855.334-1.3337.408-1.2966.643.0864.617 2.618 1.432 4.4577 1.432 1.643 0 2.594-.469 2.754-1.346.099-.568.235-.815.754-1.445.222-.284.753-1.148 1.173-1.914 2.062-3.853 7.274-11.806 12.794-19.562 1.309-1.84 2.038-3.013 4.026-6.483.741-1.297.778-1.371 1.26-2.594.308-.778.58-1.284.827-1.494.321-.271.358-.37.284-.741-.049-.308.012-.704.235-1.358.173-.494.654-2.087 1.062-3.507 1.445-5.027 3.235-9.88 4.989-13.461 1.013-2.087 1.05-2.125 3.149-3.532.716-.47 2.099-1.421 3.087-2.1s3.038-2.025 4.57-2.976c6.903-4.335 8.904-5.915 10.509-8.262 1.383-2.037 1.445-3.717.173-4.26-.531-.223-.926-.21-1.791.049z" fill="#60a5fa"/><path d="m182.056 107.391c-.395.272-.741 1.025-.877 1.914-.185 1.211-.296 24.354-.135 27.342.135 2.544.691 10.411.815 11.744l.074.754-1.742.099c-.951.049-1.778.135-1.815.21-.123.197.42.679 1.099.975.408.173.988.297 1.606.334.951.061.951.061.975.407 0 .198.013.432.025.506.012.087-.062.149-.136.136-.235-.049-2.877.482-2.877.581 0 .321 1.506 1.099 2.185 1.124.383.012-.16.185-1.321.432-.58.111-1.099.259-1.161.308-.16.149.371.692.976 1.013.309.161.827.272 1.395.309.939.062.988.099.815.716-.061.222-.197.284-.765.346-1.989.222-3.483.506-3.483.642 0 .284 2.075.914 3.063.914.346 0 .642.025.642.049 0 .013-.062.21-.136.433-.123.358-.173.382-.704.382-.988 0-5.273.396-5.384.494-.161.149 1.05.729 2.075.988.494.124 1.358.272 1.914.321.778.062 1 .124.975.26-.037.173-.876.222-4.705.271-1.087.013-1.21.038-1.173.223.111.617 2.482 1.605 4.149 1.729.482.037.89.111.89.148s-.075.321-.173.63l-.161.555-.914-.024c-1.309-.037-3.717.234-3.791.432-.111.358 2.42 1.136 3.742 1.136.494 0 .556.025.556.272-.013.803.049.778-2.05.741-1.544-.025-1.915 0-1.878.123.075.21 1.655.778 2.73.976l.852.16-.087.556c-.098.778-.185 1.013-.308.939-.149-.087-2.347.086-2.347.185 0 .198.852.432 1.569.432.444 0 .778.05.778.124 0 .061-.087.617-.198 1.235-.099.605-.235 2.309-.296 3.766-.136 3.236-.272 4.187-.754 5.558-1.062 2.951-1.235 3.494-1.42 4.631-.333 2.062-.197 3.754.679 8.521.976 5.335 1.05 5.927.964 8.15-.074 2.087-.346 3.742-1.099 6.644-.371 1.482-.47 1.989-.359 2.1.507.506 1.322-1.569 1.816-4.668.271-1.717.37-5.545.173-7.064-.074-.667-.334-2.211-.556-3.433-.803-4.261-.865-4.804-.865-7.287 0-2.741.161-3.643 1.001-5.903.296-.802.654-1.889.778-2.408.136-.531.333-1.185.432-1.482.099-.284.247-1.086.309-1.79.074-.692.185-1.902.259-2.68s.235-2.087.371-2.902c.123-.815.37-2.446.555-3.631.173-1.173.482-2.791.68-3.581.382-1.495 2.037-6.237 2.284-6.558.087-.099.185-.716.223-1.371.049-.654.123-1.321.185-1.482.111-.308.012-5.94-.223-12.275-.296-8.003-.098-20.315.482-30.75l.087-1.482.568 1.729c.914 2.803 2.074 7.557 3.112 12.843 1.42 7.262 1.79 10.818 1.605 15.931-.148 4.582-.123 5.841.185 7.965.494 3.31 1.124 5.323 1.692 5.409.346.05.433-.172.507-1.519.074-1.21-.247-4.902-.778-8.867-.161-1.272-.445-3.914-.606-5.866-.654-7.557-1.407-12.942-2.667-19.215-1.099-5.483-2.655-10.658-3.47-11.522-.321-.334-1.013-.383-1.433-.087z" fill="#60a5fa"/><path d="m129.843 109.058c-.321.358-.297 1.075.061 2.186.284.865.902 1.754 1.211 1.754.172 0 .284-.926.284-2.408 0-1.149-.025-1.272-.284-1.519-.371-.346-.964-.359-1.272-.013z" fill="#a3e635"/><path d="m276.752 109.379c-.704.26-.938 1.025-.543 1.803.308.618 1.383 2.013 2.605 3.36.606.679 2.335 2.716 3.841 4.532 1.507 1.815 3.322 3.927 4.038 4.717 1.569 1.717 2.038 2.087 2.038 1.618 0-.58-1.395-2.68-4.742-7.15-1.359-1.828-3.26-4.458-4.211-5.854-.951-1.395-1.865-2.63-2.038-2.754-.37-.259-.741-.358-.988-.272z" fill="#a3e635"/><path d="m126.088 109.911c-.506.506-.481 1.494.074 2.716.309.692.964 1.482 1.1 1.334.086-.086.247-1.902.247-2.902 0-.63-.05-.815-.297-1.074-.358-.383-.79-.408-1.124-.074z" fill="#a3e635"/><path d="m272.183 113.924c-.358.432.136 1.149 2.902 4.075.963 1.013 2.507 2.717 3.445 3.767 2.878 3.223 5.286 5.705 5.422 5.57.395-.396-1.099-2.52-5.533-7.916-3.939-4.78-5.606-6.249-6.236-5.496z" fill="#a3e635"/><path d="m268.762 117.024c-.383.383-.333.827.161 1.581.407.617 4.322 4.816 5.94 6.384 1.271 1.235 2.531 2.161 2.741 2.038.42-.272-1.235-2.84-4.001-6.187-2.285-2.766-3.05-3.582-3.668-3.903-.605-.308-.79-.296-1.173.087z" fill="#a3e635"/><path d="m175.425 119.629c-.457.112-1.05.667-1.359 1.272-.37.729-1.037 3.915-1.136 5.459-.074 1.099.123 2.556.358 2.705.482.296 1.643-.816 2.26-2.149.506-1.112 1.358-3.977 1.482-4.977.173-1.544-.531-2.556-1.605-2.31z" fill="#a3e635"/><path d="m253.461 122.68c-2.025.914-1.272 4.693 1.939 9.805 2.655 4.236 4.359 6.113 12.745 14.153 1.481 1.42 2.667 2.593 2.642 2.618-.074.086-3.754.827-4.779.963-1.297.173-1.383.383-.309.729 1.013.333 4.236.432 5.78.185l1.087-.185.975 1.062c.605.667.914 1.087.828 1.136-.087.049-.68.148-1.322.222-.988.124-5.125.729-6.52.951-1.062.173.284.704 2.346.914 1.519.161 5.36.074 6.459-.148.346-.062.679-.124.741-.136.074-.012.395.272.729.642.456.507.555.692.419.766-.284.16-7.113 1.469-8.088 1.556-1.001.086-1.1.222-.334.506.766.297 5.125.346 7.472.099 1.025-.111 2.025-.284 2.21-.383.334-.173.358-.16.667.247l.333.42-.284.074c-1.012.222-8.817 1.42-9.324 1.42-.086 0-.16.074-.16.161 0 .185.939.506 2.038.691 1.37.235 3.556.285 5.495.136 2.149-.16 2.668-.259 3.125-.617l.321-.259.506.703c.284.383.469.741.42.791-.111.111-6.113 1.173-7.36 1.296-.47.05-.717.136-.717.235 0 .581 4.162.877 7.126.519.889-.111 1.754-.247 1.914-.309.334-.123.321-.136 1.05 1.149.222.395.395.741.37.765-.098.099-4.569 1.038-5.298 1.112-1.346.136-1.012.42.89.753.79.148 1.593.173 3.198.124l2.137-.062.407.889c.222.482.395.889.383.901-.037.037-3.878.396-4.644.433-.493.024-.679.086-.679.21 0 .234.914.691 1.853.938 1 .26 3.606.383 4.137.198.333-.111.444-.099.617.049.247.222.667.247.84.025.284-.346-.099-2.062-.803-3.668-.173-.37-.321-.901-.345-1.173-.038-.297-.149-.568-.297-.692-.123-.111-.444-.605-.691-1.111-.939-1.84-3.014-4.891-5.348-7.817-2.939-3.693-5.952-6.854-14.548-15.264-4.581-4.471-5.73-5.94-7.582-9.633-.963-1.926-2.519-5.545-2.433-5.644.062-.049 2.507 1.655 3.297 2.285 1.692 1.371 8.62 7.36 11.226 9.719 3.297 2.976 4.162 3.767 7.793 7.2 3.173 3.001 4.915 4.532 8.274 7.224 4.853 3.903 10.88 8.855 12.337 10.139 1.309 1.149 1.383 1.235 1.111 1.322-.16.049-.728.21-1.259.37-.544.148-.939.333-.914.408.074.222 1.161.333 2.383.259 1.112-.062 1.112-.062 1.458.296l.345.358-.691.198c-.383.111-1.05.296-1.495.42-.938.235-1.012.457-.247.729.359.123.951.16 2.137.135l1.655-.037.432.47c.235.259.408.506.371.531-.099.098-3.088.543-3.693.543-.753 0-.84.173-.235.42.778.296 1.915.444 3.668.444h1.606l.345.359.346.37-.407.062c-1.013.173-4.15.704-4.397.766-.568.111-.296.321.889.679.297.099 1.47.16 3.001.173l2.52.037.543.531c.296.296.506.568.445.617-.161.148-4.224.741-5.607.815-1.914.111-2.075.321-.543.704 1.864.457 5.52.544 7.286.173l.605-.123.556.568c.308.308.543.58.518.617-.099.087-3.989.321-6.854.408-3.025.086-3.26.185-1.63.704 1.507.469 3.1.691 5.594.778 2.619.086 3.248.012 3.767-.42l.383-.321 1.037 1.049 1.05 1.038-3.001.21c-3.939.271-6.52.58-6.52.778 0 .074.209.173.469.222 1.185.198 4.754.346 6.891.296 2.075-.049 2.42-.086 2.778-.308l.42-.247 1.112.988c.617.555 1.124 1.037 1.148 1.074.013.049-.432.123-.988.173-3.877.296-6.249.457-8.089.531-2.519.086-2.729.235-.926.642 2.198.506 3.754.667 6.755.679 3.224.013 3.853-.061 4.384-.494l.371-.308 1.223.889c.679.506 1.21.926 1.185.951-.049.049-3.767.494-7.101.839-1.05.112-1.988.223-2.087.247-.333.112.074.321 1.037.556 1.495.346 4.039.506 7.595.457l3.273-.037.679-.383c.791-.444 1.001-.827.766-1.445-.408-1.062-1.68-2.877-5.804-8.237-1.581-2.05-6.756-9.213-9.374-12.967-2.321-3.322-3.383-5.236-5.532-9.941-1.914-4.174-4.458-9.238-5.039-10.028-.728-.988-2.396-2.408-3.421-2.914-.642-.321-.975-.408-1.753-.445-1.198-.049-1.914.247-2.421 1.013-.593.901-.37 2.297.556 3.445.753.926 3.186 2.865 4.693 3.717 1.939 1.112 2.865 1.816 4.137 3.162 1.679 1.766 2.569 3.137 5.125 7.916 1.865 3.482 2.334 4.248 5.038 8.286 3.52 5.237 5.953 8.583 9.757 13.387 1.197 1.507 1.951 2.544 1.889 2.594-.086.086-1.889-1.075-3.038-1.939-1.84-1.396-4.001-3.359-6.446-5.854-2.767-2.828-4.471-4.73-7.781-8.694-5.013-6.027-7.669-8.336-17.474-15.19-7.731-5.409-10.497-7.817-20.562-17.907-6.125-6.137-6.656-6.631-9.608-9.015-1.729-1.395-3.359-2.692-3.631-2.889-.592-.42-1.445-.544-2.025-.272z" fill="#60a5fa"/><path d="m207.101 124.915c-1.037.321-1.581.951-2.198 2.532-.099.259-.457.457-1.951 1.074-1.013.42-1.853.815-1.878.889-.061.198 1.754.173 2.903-.049 1.197-.235 1.111-.235 1.197.111.087.358 1.112 1.519 1.433 1.618.247.074.568.531.457.642-.111.099-5.693 1.025-6.237 1.025-.37 0-.518.05-.493.148.16.482 3.815.939 6.347.791l1.371-.074.506 1.111.507 1.099-.396.062c-.222.037-1.111.185-2 .321-3.075.482-4.767.803-4.767.926-.025.235 1.272.556 2.643.667.815.074 2.037.074 2.988.012 2.569-.185 2.347-.234 2.705.568.173.383.321.704.321.729 0 .012-.581.062-1.284.111-1.519.099-5.397.544-5.496.63-.42.42 2.865.926 6.014.926h1.655l.531.581c.309.333.543.63.556.667 0 .049-.432.123-.951.172-1.976.173-5.965.89-6.187 1.112-.124.123.21.284.765.358.914.136 4.78.321 6.867.321h2.037l2.273 1.68c2.815 2.074 4.186 3.149 6.31 4.989 3.125 2.704 3.322 3.013 3.471 5.557.061.914.16 2.112.247 2.655.074.544.172 2.816.222 5.064.099 4.495.111 4.557.988 6.001.222.346.383.655.358.667-.025.025-.531.173-1.149.346-.679.173-1.111.358-1.111.457 0 .21.716.457 1.63.556 1.754.185 1.593.099 2.396 1.346.691 1.062.716 1.124.457 1.161-.148.024-1.359.173-2.68.321s-2.421.321-2.445.395c-.111.333 2.112.753 4.705.889l1.716.087.779 1.482.778 1.481-.766.075c-.42.049-1.297.086-1.939.098-2.47.025-6.175.297-6.175.445 0 .37 3.693.877 7.249 1l2.384.087.741 1.049c.42.568.728 1.062.704 1.087-.013.025-1.482.124-3.236.235-3.396.21-5.878.407-5.965.494-.457.457 3.471 1.012 7.904 1.136l2.803.074.371.704c.21.395.383.753.383.79s-.63.074-1.383.074c-1.285 0-3.582.112-6.867.322-.84.061-1.259.123-1.222.222.111.346 3.482.926 6.94 1.185 1.025.087 2.26.186 2.754.223l.914.086.309.531.321.531-4.743-.074c-3.531-.074-4.705-.062-4.606.049.272.297 4.421.877 8.015 1.137l2.099.148.655.605c.568.531.704.605 1.099.568.37-.025.469-.099.568-.383.074-.234.074-.444-.012-.617-.074-.149-.198-.581-.272-.951-.086-.371-.58-1.989-1.124-3.582-.765-2.321-1.025-3.285-1.284-4.816-.408-2.507-.655-3.285-1.667-5.372-1.062-2.161-2.223-4.199-4.002-6.977-.765-1.186-1.556-2.446-1.778-2.779-.432-.704-1.062-1.334-2.346-2.371-1.136-.926-1.717-1.704-2.223-2.976-.667-1.68-.791-2.532-.778-5.101 0-2.26 0-2.297-.346-3.025-.506-1.062-1.26-1.927-5.137-5.854-1.902-1.939-3.681-3.804-3.928-4.149-.629-.89-1-1.729-1.432-3.359-.235-.828-.642-1.902-1.025-2.656-.346-.691-1.321-2.766-2.161-4.594-1.63-3.569-2.779-5.705-3.532-6.557-.815-.926-2.087-1.322-3.174-.976z" fill="#60a5fa"/><path d="m149.614 127.632c-.482.469-.37 1.062.272 1.396.395.209.704.185 1.074-.112.642-.506.198-1.593-.667-1.593-.234 0-.494.111-.679.309z" fill="#374151"/><path d="m147.848 132.831c-.617.432-.543 1.284.111 1.519.63.222 1.223-.16 1.223-.778 0-.457-.087-.605-.457-.803-.358-.185-.543-.173-.877.062z" fill="#374151"/><path d="m143.933 135.844c-.469.519-.111 1.482.556 1.482.383 0 .865-.481.865-.876 0-.741-.939-1.137-1.421-.606z" fill="#374151"/><path d="m141.92 137.351c-.469.235-.568 1.062-.173 1.494.136.161.334.21.68.186.975-.074 1.235-1.087.407-1.593-.432-.26-.518-.272-.914-.087z" fill="#374151"/><path d="m146.28 137.759c-.173.16-.309.444-.309.617 0 .432.519.926.976.926.407 0 .876-.481.876-.889 0-.321-.654-.963-.988-.963-.135 0-.395.136-.555.309z" fill="#374151"/><path d="m144.736 140.537c-.445.445-.259 1.161.383 1.383.321.124.938-.222 1.025-.568.074-.321-.087-.79-.346-.963s-.815-.099-1.062.148z" fill="#374151"/><path d="m141.772 140.685c-.531.569-.123 1.458.667 1.458.235 0 .494-.099.605-.223.284-.308.272-1.049-.012-1.296-.321-.297-.951-.26-1.26.061z" fill="#374151"/><path d="m147.453 142.106c-.58.741.259 1.766 1.099 1.333.815-.407.482-1.667-.432-1.667-.284 0-.469.087-.667.334z" fill="#374151"/><path d="m144.909 143.625c-.371.148-.667.605-.667 1.012 0 .778.976 1.112 1.544.531.704-.704.012-1.902-.877-1.543z" fill="#374151"/><path d="m141.463 144.551c-.382.37-.419 1.037-.086 1.334.445.407 1.395.172 1.704-.42.482-.939-.852-1.692-1.618-.914z" fill="#374151"/><path d="m146.354 146.663c-.297.37-.309.543-.136 1.185.21.741.963.963 1.445.432.346-.383.42-.802.222-1.272-.296-.716-1.099-.901-1.531-.345z" fill="#374151"/><path d="m142.217 148.824c-.618.481-.272 1.469.518 1.469.741 0 1.1-1.037.531-1.506-.37-.284-.642-.284-1.049.037z" fill="#374151"/><path d="m144.291 149.651c-.333.222-.419.618-.271 1.223.197.79.407 1.025.926 1.025.988 0 1.358-1.099.642-1.914-.383-.433-.938-.581-1.297-.334z" fill="#374151"/><path d="m148.33 152.22c-.556.704-.124 1.358.963 1.494.778.087 1.124-.148 1.124-.766 0-.629-.507-1.049-1.248-1.049-.481 0-.629.049-.839.321z" fill="#374151"/><path d="m145.848 152.899c-.507.198-.741.494-.741.914 0 1.025 1.58 1.148 1.988.161.185-.457 0-.914-.457-1.087-.371-.148-.395-.148-.79.012z" fill="#374151"/><path d="m151.182 154.887c-.271.136-.481.605-.407.964.111.592.963.889 1.593.568 1.161-.593 0-2.1-1.186-1.532z" fill="#374151"/><path d="m148.256 155.579c-.371.074-.803.531-.803.852 0 .469.519.902 1.087.902.642 0 1.049-.334 1.049-.84 0-.667-.58-1.05-1.333-.914z" fill="#374151"/><path d="m152.566 158.864c-1.112.482-.605 2.383.531 1.976.382-.124.765-.778.778-1.297 0-.593-.68-.951-1.309-.679z" fill="#374151"/><path d="m147.453 159.395c-.309.395-.247.852.148 1.173.334.284.605.284 1.013-.037.395-.309.432-.864.074-1.222-.358-.359-.914-.322-1.235.086z" fill="#374151"/><path d="m100.29 161.593c-.5061.235-1.0495.716-2.2227 1.951-4.3841 4.594-6.1377 6.237-9.4721 8.867-.7409.581-2.2476 1.84-3.3467 2.779-1.3337 1.148-2.4699 2.013-3.4208 2.581-2.1117 1.26-2.9886 2.285-3.7295 4.359-.1853.519-.3705.988-.4199 1.05-.0371.049-.4816.198-.988.346-1.6548.457-1.7413.728-.2223.728.457 0 .8522.037.8768.087.0371.062.0124.21-.037.358-.0864.222-.4075.333-1.9636.716-1.025.247-2.0129.445-2.1735.445-.1729 0-.3087.049-.3087.123 0 .297.6298.42 2.2723.47l1.7042.049-.0741.519c-.0494.271-.1235.543-.1729.58-.0494.05-.6421.173-1.3214.284-.6792.111-1.9265.371-2.7786.568-.8521.198-1.6795.371-1.8401.395-.1729.025-.3211.099-.3458.173-.1111.321 1.6055.383 4.273.161.9015-.074 1.6548-.111 1.6795-.087.037.025 0 .247-.0618.494l-.1234.433-1.7043.333c-3.0997.605-6.1994 1.359-6.1624 1.494.0247.062.21.161.4076.198.5804.123 3.816.123 5.409-.012.8151-.075 1.482-.112 1.5067-.087.0123.012-.0371.259-.1112.556-.0864.346-.2099.519-.3334.519-.1112 0-.9756.197-1.9265.432-2.8898.728-4.6187 1.062-5.9772 1.148-.7286.05-1.2967.136-1.2967.21 0 .161.778.531 1.5808.766.3581.099 1.4201.21 2.3711.247 1.3955.049 2.0253.012 3.2726-.185.8397-.149 1.5437-.247 1.556-.235.0618.049-.3458 1.63-.4322 1.729-.0988.099-5.4955 1.111-6.7058 1.26-.3952.037-.7163.135-.7163.197 0 .185 1.0003.593 1.9513.803.4569.099 1.7906.222 2.9638.259 1.1609.037 2.1241.111 2.1241.161 0 .049-.4075.148-.8891.234-.494.075-1.5561.26-2.3588.383-.815.136-1.7166.247-2.0006.247-.2964 0-.5681.05-.6175.111-.1605.284.704.988 1.6672 1.359 1.8277.704 5.051 1 5.9895.556.4446-.21.9262-.803.9262-1.149 0-.086.1976-.482.4323-.877.6792-1.111 2.1982-5.199 3.0009-8.089.741-2.63 1.1361-5.137 1.3831-8.706.2223-3.31.3211-3.532 2.2106-5.212.6422-.555 2.05-1.815 3.1368-2.778 3.3837-3.038 6.6563-5.52 10.3735-7.867 2.5193-1.581 3.248-2.136 4.298-3.26.963-1.013 1.321-1.778 1.148-2.458-.234-.926-1.185-1.222-2.26-.716z" fill="#60a5fa"/><path d="m149.738 161.692c-.507.321-.63.469-.655.803-.049.469.136.741.58.913.667.247 1.989-.617 1.989-1.309 0-.876-.902-1.074-1.914-.407z" fill="#374151"/><path d="m154.505 163.767c-.519.555-.42 1.519.172 1.667.717.173 1.334-.321 1.334-1.075 0-.778-.975-1.16-1.506-.592z" fill="#374151"/><path d="m149.923 164.248c-.457.457-.272 1.383.321 1.606.84.321 1.544-.902.914-1.581-.321-.346-.902-.358-1.235-.025z" fill="#374151"/><path d="m152.825 165.236c-.865.346-.741 1.729.148 1.729.704 0 1.112-.568.889-1.21-.099-.284-.593-.692-.765-.63-.013 0-.136.049-.272.111z" fill="#374151"/><path d="m153.776 168.855c-.568.592-.198 1.482.617 1.482.741 0 1.124-.988.593-1.519-.333-.334-.877-.322-1.21.037z" fill="#374151"/><path d="m155.369 171.065c-.445.161-.618.469-.63 1.099 0 1.359 1.396 1.741 1.729.469.284-1.049-.296-1.877-1.099-1.568z" fill="#374151"/><path d="m153.01 173.226c-.654.235-.827 1.025-.333 1.495.593.555 1.482.197 1.482-.606 0-.568-.642-1.062-1.149-.889z" fill="#374151"/><path d="m155.184 176.61c-.63.494-.309 1.47.494 1.47.568 0 .914-.309.914-.815 0-.815-.754-1.174-1.408-.655z" fill="#374151"/><path d="m152.603 180.055c-.383.297-.556 1.001-.346 1.433.296.655 1.198.618 1.556-.062.272-.531.235-.963-.124-1.309-.358-.37-.667-.383-1.086-.062z" fill="#374151"/><path d="m150.787 184.131c-.321.321-.321 1-.024 1.272.518.469 1.383.074 1.383-.63 0-.408-.099-.556-.457-.753-.383-.198-.618-.173-.902.111z" fill="#374151"/><path d="m147.86 184.254c-.345.136-.531.494-.531 1.025 0 .68.63 1.075 1.223.766 1.037-.531.383-2.223-.692-1.791z" fill="#374151"/><path d="m145.563 187.935c-.271.308-.259.913.013 1.272.494.592 1.506.21 1.506-.568 0-.766-1.037-1.235-1.519-.704z" fill="#374151"/><path d="m223.489 188.577c-.939.358-1.013.531-.951 2.161.086 2.507 1 6.496 2.581 11.324 1.556 4.755 1.692 5.323 2.742 11.584 1.062 6.385 2.025 10.522 3.828 16.425 1.235 4.051 1.976 5.99 2.297 5.99.309 0 .358-.877.111-2.211-.321-1.68-1.865-7.299-3.038-11.065-.605-1.939-1.297-4.236-1.531-5.101-.927-3.396-1.766-8.274-2.112-12.312-.358-4.174-.482-5.002-1.482-9.707-.383-1.753-.667-3.248-.642-3.309.086-.247.852 1.951 1.581 4.495.988 3.495 1.296 4.384 3.507 10.312 2.606 6.965 3.754 10.41 5.495 16.425 1.766 6.113 2.754 9.323 4.199 13.646 2.347 7.051 3.544 9.682 8.336 18.277 2.766 4.952 3.618 6.681 4.261 8.632.926 2.742.987 3.248 1.123 8.41.062 2.544.173 5.014.235 5.483.222 1.421.741 2.088 1.618 2.088.494 0 1.148-.667 1.333-1.359.247-.914.408-2.976.433-5.347.012-2.767-.124-3.693-.914-5.965-.963-2.803-1.951-4.643-5.372-10.028-5.088-8.015-6.397-10.781-9.176-19.389-4.001-12.374-5.545-17.462-6.743-22.253-.642-2.532-1.691-5.879-3.507-11.152-1.519-4.409-2.26-6.335-3.976-10.374-1.149-2.704-2.606-5.297-3.224-5.73-.333-.234-.259-.234-1.012.05z" fill="#60a5fa"/><path d="m135.597 188.7c-.518.519-.086 1.482.667 1.482.494 0 .815-.321.815-.827 0-.754-.963-1.174-1.482-.655z" fill="#374151"/><path d="m140.228 188.601c-.345.198-.432.346-.432.791 0 .469.334.79.828.79.457 0 .778-.333.778-.815 0-.432-.099-.58-.457-.778-.321-.173-.408-.16-.717.012z" fill="#374151"/><path d="m143.131 189.441c-.507.506-.124 1.482.568 1.482.432 0 .827-.407.827-.84 0-.79-.852-1.185-1.395-.642z" fill="#374151"/><path d="m148.503 189.589c-.247.284-.309.47-.247.704.16.704 1.049 1.001 1.543.507.346-.346.321-1.001-.037-1.334-.42-.395-.864-.346-1.259.123z" fill="#374151"/><path d="m131.905 190.627c-.334.432-.334.802.025 1.136.37.346.839.346 1.173-.012.346-.371.346-.84-.013-1.174-.395-.37-.876-.345-1.185.05z" fill="#374151"/><path d="m127.755 191.232c-.395.383-.407.914-.024 1.272.37.346.84.346 1.173-.012.358-.383.358-.988 0-1.322-.358-.333-.79-.309-1.149.062z" fill="#374151"/><path d="m135.721 191.541c-.371.37-.334 1.025.074 1.346.185.148.432.259.543.259.334 0 .729-.395.815-.803.161-.827-.852-1.383-1.432-.802z" fill="#374151"/><path d="m130.349 193.331c-.383.371-.395.803-.025 1.149.371.346.84.346 1.173-.013.371-.395.346-.876-.049-1.185-.432-.334-.729-.321-1.099.049z" fill="#374151"/><path d="m144.057 193.331c-.395.383-.383.692.012 1.161.556.667 1.532.42 1.532-.383 0-.494-.124-.704-.507-.901-.481-.26-.691-.235-1.037.123z" fill="#374151"/><path d="m125.94 193.764c-.296.308-.358.444-.284.716.111.444.296.617.766.716.333.062.457.012.778-.296.432-.445.481-.902.123-1.26-.37-.37-.938-.321-1.383.124z" fill="#374151"/><path d="m139.623 194.146c-.555.433-.321 1.235.445 1.507.654.235 1.346-.519 1.087-1.148-.26-.618-.988-.779-1.532-.359z" fill="#374151"/><path d="m121.976 194.603c-.259.284-.272.939-.012 1.186.296.309.839.296 1.198-.012.284-.26.271-.927-.013-1.186-.309-.272-.926-.259-1.173.012z" fill="#374151"/><path d="m134.19 194.887c-.643.507-.309 1.47.518 1.47.828 0 1.235-.988.618-1.519-.334-.284-.729-.272-1.136.049z" fill="#374151"/><path d="m118.185 196.073c-.692.259-.84 1.074-.297 1.506.185.149.494.26.692.26.42 0 .963-.482.963-.852 0-.544-.852-1.112-1.358-.914z" fill="#374151"/><path d="m136.622 196.727c-.555.223-.691.914-.247 1.322.507.482 1.198.383 1.445-.21.124-.309.124-.42-.049-.679-.161-.247-.704-.593-.852-.544-.013 0-.148.05-.297.111z" fill="#374151"/><path d="m126.162 197.11c-.642.507-.259 1.47.581 1.47.803 0 1.198-1.013.593-1.507-.371-.296-.766-.284-1.174.037z" fill="#374151"/><path d="m121.717 197.851c-.704.556-.272 1.532.679 1.532.531 0 .79-.21.914-.704.074-.272.012-.408-.284-.717-.445-.432-.853-.469-1.309-.111z" fill="#374151"/><path d="m131.078 198.271c-.408.408-.371.988.098 1.334.593.444 1.458-.037 1.458-.815 0-.815-.951-1.124-1.556-.519z" fill="#374151"/><path d="m114.912 199.444c-.272.297-.296.926-.049 1.173.531.519 1.469.161 1.469-.568 0-.741-.938-1.136-1.42-.605z" fill="#374151"/><path d="m134.412 199.37c-.605.26-.716.803-.284 1.359.519.654 1.593.234 1.593-.63 0-.642-.655-1.013-1.309-.729z" fill="#374151"/><path d="m110.244 199.914c-.42.469-.198 1.247.407 1.444.247.075.729-.111.89-.358.172-.259.098-.901-.124-1.099-.309-.271-.926-.259-1.173.013z" fill="#374151"/><path d="m119.321 200.679c-.346.321-.358.988-.05 1.272.556.507 1.544.087 1.544-.654 0-.766-.926-1.149-1.494-.618z" fill="#374151"/><path d="m127.299 201.445c-.334.111-.717.741-.717 1.173 0 .124.087.358.198.506.16.235.296.272.691.247.606-.049 1.013-.494.988-1.086-.012-.68-.531-1.05-1.16-.84z" fill="#374151"/><path d="m123.1 201.63c-.408.457-.371 1.124.074 1.42.259.173.901.099 1.099-.123.284-.309.272-1.05-.012-1.297-.297-.272-.927-.272-1.161 0z" fill="#374151"/><path d="m264.773 201.902c0 .877 2.84 5.125 8.966 13.411 1.358 1.828 3.408 4.644 4.557 6.237 5.224 7.298 11.509 15.091 16.622 20.624 3.174 3.445 4.705 5.495 5.99 8.051.802 1.606 1.42 3.15 3.581 8.929 2.408 6.434 2.581 6.866 3.458 8.669.605 1.235.864 1.643 1.037 1.643.309 0 .346-.185.21-.926-.185-1.062-.901-3.026-2.383-6.583-.791-1.877-2.26-5.483-3.273-7.99-3.038-7.508-3.655-8.607-7.953-14.066-2.532-3.235-3.767-4.853-8.472-11.188-3.346-4.496-4.581-6.076-6.903-8.892-.926-1.124-3.396-4.174-5.496-6.792-4.544-5.681-6.594-8.114-8.335-9.905-1.174-1.21-1.606-1.543-1.606-1.222z" fill="#60a5fa"/><path d="m130.806 202.322c-.544.568-.173 1.445.593 1.445.778 0 1.173-.927.654-1.519-.284-.309-.926-.272-1.247.074z" fill="#374151"/><path d="m110.861 203.124c-.271.309-.259.927.013 1.174.284.259.938.271 1.185.012.309-.296.297-.84-.012-1.198-.259-.284-.926-.272-1.186.012z" fill="#374151"/><path d="m115.295 203.532c-.21.173-.321.37-.321.617 0 .803.988 1.149 1.469.531.334-.432.321-.728-.049-1.099-.371-.37-.667-.383-1.099-.049z" fill="#374151"/><path d="m103.649 205.335c-.16.025-.395.198-.531.383-.494.617-.012 1.383.865 1.383 1.185 0 1.556-1.334.481-1.716-.222-.075-.432-.124-.469-.124-.037.012-.198.049-.346.074z" fill="#374151"/><path d="m120.037 205.891c-.309.333-.321.728-.025 1.099.47.568 1.507.21 1.507-.531 0-.753-.963-1.124-1.482-.568z" fill="#374151"/><path d="m124.236 205.866c-.531.531-.136 1.482.605 1.482.519 0 .914-.37.914-.864 0-.766-.976-1.161-1.519-.618z" fill="#374151"/><path d="m324.853 206.249c-.049.074-.061.148-.049.173.025.024.247.271.482.555.543.655 2.815 2.693 5.989 5.372 1.358 1.161 3.273 2.853 4.261 3.767 3.272 3.05 5.186 4.582 8.323 6.632 3.754 2.457 6.373 4.26 9.336 6.409 3.829 2.779 6.83 4.816 7.904 5.36 1.334.679 2.099.531 2.099-.395 0-1.47-2.111-3.483-7.347-7.015-1.692-1.148-3.891-2.63-4.879-3.297-.987-.667-2.766-1.84-3.964-2.594-2.556-1.63-4.087-2.716-7.669-5.421-7.792-5.878-11.349-8.422-12.991-9.299-.741-.383-1.346-.494-1.495-.247z" fill="#60a5fa"/><path d="m115.48 207.052c-.321.407-.346 1.173-.037 1.444.766.692 1.877-.246 1.482-1.259-.148-.395-.309-.506-.803-.506-.271 0-.469.098-.642.321z" fill="#374151"/><path d="m107.984 208.003c-.692.605-.321 1.691.568 1.691.506 0 .914-.543.815-1.099-.123-.802-.803-1.086-1.383-.592z" fill="#374151"/><path d="m111.219 208.225c-.642.506-.308 1.469.507 1.469.457 0 .778-.333.778-.815 0-.432-.099-.58-.457-.778-.371-.185-.445-.172-.828.124z" fill="#374151"/><path d="m96.6471 209.213c-.5187.407-.4199 1.148.2099 1.407.7657.322 1.4943-.321 1.1979-1.049-.1358-.321-.5681-.618-.9138-.618-.0865 0-.3088.111-.494.26z" fill="#374151"/><path d="m101.142 210.213c-.346.383-.321.889.074 1.198.433.333.729.321 1.1-.05.37-.37.382-.666.049-1.099-.321-.407-.865-.432-1.223-.049z" fill="#374151"/><path d="m118.851 210.979c-.494.494-.531.839-.111 1.247.42.432.865.395 1.371-.111.482-.482.519-.778.161-1.235-.371-.469-.89-.432-1.421.099z" fill="#374151"/><path d="m105.415 211.115c-.383.382-.333 1.037.099 1.321.259.173.902.099 1.099-.124.272-.308.26-.926-.012-1.173-.284-.259-.939-.271-1.186-.024z" fill="#374151"/><path d="m114.85 211.3c-.432.432-.308 1.136.26 1.42.79.407 1.469.099 1.469-.667 0-.84-1.136-1.346-1.729-.753z" fill="#374151"/><path d="m111.639 212.078c-.16.086-.358.309-.419.494-.272.753.827 1.408 1.395.84.679-.68-.123-1.766-.976-1.334z" fill="#374151"/><path d="m101.476 213.622c-.235.259-.272.79-.087 1.136.062.123.284.284.494.346.791.284 1.532-.371 1.235-1.087-.247-.593-1.247-.828-1.642-.395z" fill="#374151"/><path d="m114.566 213.869c-.309.345-.271 1.074.062 1.309.914.642 2.013-.47 1.272-1.285-.296-.321-1.05-.333-1.334-.024z" fill="#374151"/><path d="m97.4992 214.696c-.1729.161-.3087.383-.3087.482 0 .37.284.802.6051.938 1.025.42 1.7289-1.037.7533-1.543-.494-.26-.7039-.235-1.0497.123z" fill="#374151"/><path d="m117.888 215.264c-.395.309-.444.951-.086 1.272.852.766 2.161-.482 1.334-1.26-.359-.345-.828-.345-1.248-.012z" fill="#374151"/><path d="m106.156 215.635c-.605.703-.272 1.593.581 1.593.555 0 1-.47 1-1.05 0-.926-.976-1.272-1.581-.543z" fill="#374151"/><path d="m110.454 216.462c-.445.296-.482.963-.074 1.408.247.296.914.284 1.173 0 .284-.309.259-.964-.037-1.26-.247-.247-.803-.321-1.062-.148z" fill="#374151"/><path d="m92.3001 216.585c-.531.358-.4693 1.198.1111 1.445.6052.26 1.1979-.086 1.1979-.704 0-.617-.8027-1.074-1.309-.741z" fill="#374151"/><path d="m96.9435 218.216c-.3458.345-.3334 1.037.0247 1.284.3828.272.741.247 1.1362-.062s.4446-.951.0988-1.26c-.3088-.284-.9633-.259-1.2597.038z" fill="#374151"/><path d="m333.251 218.216c-.296.481 2.754 4.223 5.668 6.977 1.853 1.754 6.521 5.286 7.904 5.989 1.198.618 2.001.68 2.124.186.037-.173.037-.457-.012-.642-.124-.507-2.828-3.125-4.569-4.446-.816-.618-2.483-2.013-3.705-3.125-3.31-2.988-5.002-4.236-6.583-4.853-.605-.247-.728-.259-.827-.086z" fill="#60a5fa"/><path d="m102.007 219.203c-.544.544-.148 1.52.617 1.52.272 0 .482-.087.642-.272.482-.618.112-1.495-.642-1.495-.21 0-.481.112-.617.247z" fill="#374151"/><path d="m116.752 219.253c-.407.173-.543.407-.543.864 0 .717 1.272 1.05 1.741.457.654-.802-.222-1.753-1.198-1.321z" fill="#374151"/><path d="m111.825 219.512c-.68.679-.161 1.531.864 1.42.704-.074.939-1.012.358-1.469-.432-.346-.852-.321-1.222.049z" fill="#374151"/><path d="m87.7431 219.599c-.3705.197-.5557.481-.5557.839 0 .445.3581.741.8892.741.9509 0 1.2349-1.197.3828-1.593-.3581-.16-.4075-.16-.7163.013z" fill="#374151"/><path d="m166.261 219.969c-1.395 1.494-4.223 5.471-4.618 6.521-.371.963-.272 2.395.382 5.742.136.679.297 1.902.371 2.717.222 2.606.469 3.31.975 2.853.309-.284.47-1.26.643-3.964.074-1.223.16-2.26.197-2.31.025-.049-.024-1-.099-2.111l-.16-2.001.432-.803c.235-.444.939-1.581 1.581-2.519 1.383-2.075 1.741-2.779 1.741-3.544 0-1.013-.753-1.309-1.445-.581z" fill="#a3e635"/><path d="m108.07 220.389c-.321.408-.333 1.05-.037 1.321.124.124.42.21.667.21.544 0 .889-.358.889-.926 0-.889-.988-1.272-1.519-.605z" fill="#374151"/><path d="m98.4872 221.118c-.3829.37-.3952.802-.0247 1.148.284.272.8768.358 1.1485.173.1852-.123.42-.58.42-.827 0-.309-.5682-.803-.9264-.803-.1729 0-.4569.136-.6174.309z" fill="#374151"/><path d="m84.594 221.34c-.8891.457-.6792 1.692.2964 1.692.4817 0 1.0621-.506 1.0621-.926 0-.63-.778-1.075-1.3585-.766z" fill="#374151"/><path d="m93.9796 222.291c-.2964.296-.3335 1.012-.0494 1.284.4569.469 1.1856.334 1.4078-.247.3458-.901-.7039-1.692-1.3584-1.037z" fill="#374151"/><path d="m89.4721 222.97c-.3952.383-.4076.914-.0247 1.272.3828.358.8397.346 1.1978-.037.8275-.889-.321-2.099-1.1731-1.235z" fill="#374151"/><path d="m114.875 223.353c-.383.272-.371.951.037 1.346.408.42.951.408 1.284-.012.346-.445.321-.741-.098-1.174-.408-.395-.803-.456-1.223-.16z" fill="#374151"/><path d="m109.367 223.909c-.407.321-.432.864-.049 1.222.383.346.889.321 1.198-.074.333-.432.321-.728-.05-1.099-.37-.37-.667-.383-1.099-.049z" fill="#374151"/><path d="m104.724 224.267c-.741.741.222 1.889 1.086 1.284.383-.259.383-1.074 0-1.334-.382-.271-.79-.247-1.086.05z" fill="#374151"/><path d="m111.701 225.193c-.346.333-.37.519-.173.963.136.297.581.581.914.581.346 0 .84-.568.84-.964 0-.852-.963-1.21-1.581-.58z" fill="#374151"/><path d="m84.1124 225.452c-.2964.383-.3211.531-.1235.963.3828.84 1.6301.507 1.6301-.419 0-.828-1.0003-1.186-1.5066-.544z" fill="#374151"/><path d="m95.5357 225.514c-.3952.309-.4446.951-.0988 1.26.321.296 1.0744.271 1.3831-.037.3211-.321.3211-1.001.0247-1.272-.3087-.284-.9139-.26-1.309.049z" fill="#374151"/><path d="m99.9691 225.749c-.2717.296-.2964.889-.0494 1.185.2963.358.9143.556 1.2963.42.729-.284.865-.926.309-1.494-.457-.445-1.198-.506-1.5559-.111z" fill="#374151"/><path d="m190.973 226.07c-.359.531-.186 4.359.753 16.165.16 2.174.506 6.669.741 10.003.716 9.892.815 10.856 1.926 17.882 1.038 6.558 1.137 7.583 1.062 10.399-.061 2.63-.259 3.63-1 5.186-.543 1.161-1.729 2.705-2.816 3.656-1.679 1.494-4.124 4.73-4.482 5.952-.247.852-.235 1.149.086 1.445 1.161 1.075 4.433-1.284 6.916-4.989 1.049-1.581 2.358-4.273 2.667-5.545.408-1.593.556-3.371.482-5.335-.087-2.038-.358-3.878-1.26-8.83-1.519-8.249-1.581-8.805-2.531-21.488-.359-4.73-1.124-12.819-1.816-18.944-.531-4.866-.556-5.199-.37-5.533.16-.284.173-.345.024-.345-.098 0-.271.148-.382.321z" fill="#60a5fa"/><path d="m107.169 227.935c-.741.852-.568 1.889.321 1.889.469 0 .778-.198 1-.617.26-.494.235-.939-.061-1.235-.309-.309-1.001-.334-1.26-.037z" fill="#374151"/><path d="m92.6953 228.601c-.3829.297-.4323.816-.0988 1.223.1728.21.3581.284.7656.284s.5928-.074.7657-.284c.3828-.469.2717-1.013-.2841-1.297-.4692-.247-.7656-.234-1.1484.074z" fill="#374151"/><path d="m87.632 228.725c-.4323.346-.4323.939 0 1.457.3828.469.9138.507 1.2843.111.3705-.407.3211-1.025-.1111-1.469-.4323-.42-.7286-.445-1.1732-.099z" fill="#374151"/><path d="m83.2603 228.836c-.5557.519-.1853 1.482.568 1.482.741 0 1.0991-1.037.5311-1.507-.3705-.296-.7657-.284-1.0991.025z" fill="#374151"/><path d="m109.873 229.293c-.284.074-.605.704-.494.988.223.642.828.84 1.371.457.185-.124.272-.309.272-.58 0-.47-.087-.618-.457-.816-.284-.135-.321-.148-.692-.049z" fill="#374151"/><path d="m115.344 229.577c-.333.334-.321.914.025 1.235.543.506 1.371.136 1.371-.617 0-.754-.877-1.137-1.396-.618z" fill="#374151"/><path d="m81.9142 230.009c-.531.371-.4446 1.297.1358 1.569.4446.197 1.0127-.062 1.1732-.531.3088-.877-.5557-1.569-1.309-1.038z" fill="#374151"/><path d="m98.9564 230.195c-.8768.358-.5804 1.605.3705 1.605.5064 0 .8271-.321.8271-.815 0-.432-.098-.58-.4566-.778-.3087-.161-.3705-.161-.741-.012z" fill="#374151"/><path d="m102.069 230.503c-.334.334-.383.556-.173.964.222.419.629.704 1.049.704.852 0 1.099-.939.433-1.618-.445-.445-.902-.457-1.309-.05z" fill="#374151"/><path d="m317.505 230.577c0 .173.198.457 4.557 6.224 1.989 2.643 3.742 4.916 3.866 5.027.321.284.42.271.716-.025.284-.284.247-.605-.123-1.358-.297-.581-1.668-2.384-2.952-3.891-1.161-1.358-5.804-6.113-5.965-6.113-.049 0-.099.062-.099.136z" fill="#a3e635"/><path d="m95.8567 232.702c-.1482.16-.2717.432-.2717.592 0 .396.4817.852.8892.852.3581 0 .8398-.506.8398-.864 0-.123-.1112-.358-.2594-.543-.3211-.408-.8398-.42-1.1979-.037z" fill="#374151"/><path d="m113.158 233.554c-.148.074-.321.284-.395.469-.234.704.519 1.408 1.186 1.087.704-.334.753-1.26.086-1.569-.37-.16-.518-.16-.877.013z" fill="#374151"/><path d="m109.169 233.615c-.975.371-.728 1.643.309 1.643.791 0 1.198-.766.717-1.334-.235-.284-.729-.42-1.026-.309z" fill="#374151"/><path d="m86.0883 234.01c-.5064.507-.1729 1.347.6545 1.618.741.235 1.3584-.173 1.2843-.877-.0494-.494-.4939-.839-1.1732-.938-.4075-.05-.5557-.013-.7656.197z" fill="#374151"/><path d="m104.477 234.27c-.618.617.012 1.729.963 1.729.963 0 1.223-.914.457-1.593-.519-.445-1.05-.507-1.42-.136z" fill="#374151"/><path d="m81.766 234.727c-.5064.469-.5928.889-.2594 1.309.3088.383.7287.432 1.235.123.3458-.197.6175-.63.6175-.975 0-.297-.5805-.791-.9139-.791-.1729 0-.4816.149-.6792.334z" fill="#374151"/><path d="m92.1889 235.184c-.2593.259-.3087.407-.2469.666.1235.507.4939.816.9756.816 1.2102 0 1.2596-1.544.0494-1.729-.3829-.062-.5064-.025-.7781.247z" fill="#374151"/><path d="m78.1723 236.122c-.3458.346-.3211 1.001.037 1.334.8768.827 1.9883-.432 1.1362-1.272-.3582-.371-.8398-.395-1.1732-.062z" fill="#374151"/><path d="m110.17 236.196c-.334.433-.321.692.049 1.137.395.481.914.592 1.408.333.667-.333.679-1.062.025-1.507-.581-.395-1.161-.37-1.482.037z" fill="#374151"/><path d="m100.698 236.172c-.9389.407-.63 1.605.407 1.605.766 0 1.173-.827.692-1.383-.309-.346-.642-.408-1.099-.222z" fill="#374151"/><path d="m116.357 236.74c-.259.111-.519.568-.519.926 0 .086.148.333.321.543.383.457 1.001.519 1.346.136.63-.704-.259-1.951-1.148-1.605z" fill="#374151"/><path d="m105.983 237.271c-.568.605-.222 1.568.544 1.568.42 0 1.037-.58 1.037-.975 0-.791-1.037-1.174-1.581-.593z" fill="#374151"/><path d="m86.5329 238.444c-.4199.469-.1976 1.247.4075 1.445.247.074.7287-.111.8892-.358.1729-.26.0988-.902-.1235-1.099-.3087-.272-.9262-.26-1.1732.012z" fill="#374151"/><path d="m94.9428 238.963c-.2963.308-.3581.444-.284.716.1235.531.3828.704.988.691.6915-.012 1.0497-.308 1.0497-.864 0-.901-1.0621-1.235-1.7537-.543z" fill="#374151"/><path d="m82.1241 239.58c-.5681.568-.2223 1.482.5804 1.482.5434 0 .9015-.37.9015-.914 0-.741-.9509-1.099-1.4819-.568z" fill="#374151"/><path d="m76.9373 239.704c-.3211.321-.3211 1-.0123 1.284.3334.296 1.0497.309 1.3708.012.3458-.309.3211-.864-.0618-1.235-.3704-.383-.9509-.407-1.2967-.061z" fill="#374151"/><path d="m113.949 241.433c-.42.333-.432.728-.025 1.21.778.926 2.137.444 1.865-.655-.173-.667-1.272-1-1.84-.555z" fill="#374151"/><path d="m90.1142 241.531c-.284.321-.2716 1.161.0124 1.421.1235.123.4075.209.6175.209.531 0 .8891-.382.8891-.926 0-.271-.0988-.531-.247-.679-.3211-.321-1.0003-.321-1.272-.025z" fill="#374151"/><path d="m103.378 241.642c-.396.334-.457.902-.136 1.31.346.432.889.444 1.296.024.803-.802-.284-2.05-1.16-1.334z" fill="#374151"/><path d="m109.466 241.556c-.346.136-.667.593-.667.926 0 .408.506.803 1.013.803 1.272 0 1.519-1.581.271-1.791-.197-.024-.481 0-.617.062z" fill="#374151"/><path d="m96.289 241.902c-.3087.346-.2717 1.074.0617 1.309.3705.272.741.247 1.0621-.049.5557-.519.1852-1.482-.5681-1.482-.1976 0-.4446.098-.5557.222z" fill="#374151"/><path d="m119.79 242.137c-.691.259-.84 1.074-.296 1.506.185.148.506.259.728.259.964 0 1.149-1.296.247-1.679-.234-.099-.444-.173-.457-.161-.024 0-.123.037-.222.075z" fill="#374151"/><path d="m78.1723 242.89c-.6299.197-.8398 1.025-.3705 1.445.5681.506 1.4819.123 1.4819-.618 0-.556-.5804-.988-1.1114-.827z" fill="#374151"/><path d="m87.5208 243.495c-.3828.444-.2717 1.148.2223 1.371.8151.37 1.6054-.778.9509-1.371-.2964-.272-.9262-.272-1.1732 0z" fill="#374151"/><path d="m83.4825 244.149c-.247.247-.3211.803-.1482 1.063.1235.185.5805.419.8151.419.3334 0 .6916-.469.6916-.901 0-.753-.8274-1.112-1.3585-.581z" fill="#374151"/><path d="m100.34 245.817c-.5808.568-.247 1.42.543 1.444.321.013.494-.074.716-.321.346-.407.358-.691.025-1.111-.334-.42-.877-.432-1.284-.012z" fill="#374151"/><path d="m106.07 245.854c-.581.481-.198 1.506.556 1.506.407 0 .815-.444.815-.864 0-.741-.791-1.099-1.371-.642z" fill="#374151"/><path d="m93.6709 246.064c-.3582.345-.3952.753-.1112 1.148.2717.395 1.1362.383 1.5067-.012.8274-.877-.5434-2.001-1.3955-1.136z" fill="#374151"/><path d="m115.739 246.619c-.444.272-.802.976-.679 1.322.26.741.815.839 1.643.271.654-.432.741-.555.741-1.012 0-.754-.902-1.062-1.705-.581z" fill="#374151"/><path d="m125.224 246.953c-.605.234-.84 1.037-.42 1.445.605.617 1.778.185 1.778-.643 0-.543-.802-1.025-1.358-.802z" fill="#374151"/><path d="m109.169 247.632c-.308.333-.321.729-.024 1.099.469.568 1.506.21 1.506-.531 0-.753-.963-1.124-1.482-.568z" fill="#374151"/><path d="m79.3578 247.867c-.3705.296-.4199.778-.1235 1.198.247.358 1.0497.382 1.4079.024.5186-.518.0864-1.482-.6793-1.482-.1481 0-.4198.111-.6051.26z" fill="#374151"/><path d="m84.594 248.225c-.2964.296-.3211.704-.0494 1.087.1358.197.3087.271.6669.271.3581 0 .531-.074.6668-.271.4199-.593.0494-1.334-.6668-1.334-.21 0-.4817.111-.6175.247z" fill="#374151"/><path d="m97.3757 249.028c-.5928.58-.2346 1.42.6175 1.42.8644 0 1.2596-.951.6051-1.47-.4322-.346-.8521-.321-1.2226.05z" fill="#374151"/><path d="m304.909 248.805c0 .062.173.346.383.655.852 1.259 2.766 5.409 3.692 8.015.26.716.556 1.889.667 2.605.556 3.471 1.173 5.187 2.285 6.299.531.531.679.617 1.099.617.543 0 .728-.16.84-.704.123-.63-.815-3.174-2.236-6.026-.704-1.433-1.864-3.792-2.581-5.249-.704-1.457-1.63-3.186-2.05-3.816-1.086-1.655-2.099-2.816-2.099-2.396z" fill="#60a5fa"/><path d="m88.8669 249.521c-.3828.383-.3334 1.038.0988 1.322.2594.173.9015.099 1.0991-.124.2717-.308.2594-.926-.0123-1.173-.2841-.259-.9386-.272-1.1856-.025z" fill="#374151"/><path d="m119.259 250.053c-.494.543-.086 1.506.642 1.506.79 0 1.21-.901.692-1.482-.297-.321-1.05-.333-1.334-.024z" fill="#374151"/><path d="m93.7944 251.497c-.5311.519-.3335 1.458.3087 1.544.6545.099 1.235-.37 1.235-.988 0-.803-.9509-1.148-1.5437-.556z" fill="#374151"/><path d="m104.044 251.497c-.37.371-.382.667-.049 1.1.173.209.371.321.618.321.802 0 1.148-.988.531-1.47-.433-.333-.729-.321-1.1.049z" fill="#374151"/><path d="m109.12 251.448c-.654.506-.259 1.47.593 1.47.309 0 .494-.087.679-.321.334-.433.321-.729-.049-1.1-.371-.37-.791-.395-1.223-.049z" fill="#374151"/><path d="m291.769 251.386c-.247.235-.247.223 0 1.038.605 2.05 4.52 8.755 7.706 13.214 2.445 3.433 2.495 3.519 3.594 6.483.543 1.494 1.161 3.186 1.371 3.767.555 1.593 1.247 2.013 1.667 1 .395-.926-.05-3.087-1.149-5.693-.778-1.84-1.321-2.717-4.087-6.558-1.347-1.865-3.15-4.47-3.989-5.779-.852-1.297-2.26-3.446-3.125-4.767-1.185-1.791-1.568-2.47-1.506-2.655.098-.309-.198-.334-.482-.05z" fill="#60a5fa"/><path d="m80.0247 251.893c-.6298.234-.8398 1.037-.3705 1.457.5681.506 1.482.123 1.482-.618 0-.555-.6052-1.025-1.1115-.839z" fill="#374151"/><path d="m130.398 252.461c-.383.296-.518.691-.358 1.074.272.642 1.408.729 1.729.123.198-.37.148-.926-.099-1.148-.271-.247-.988-.272-1.272-.049z" fill="#374151"/><path d="m356.283 252.609c0 .099.148.383.321.642.79 1.149 1.531 2.853 2.84 6.496 1.161 3.211 1.581 4.705 2.211 7.755 1.062 5.162 1.704 6.385 2.778 5.323.47-.469.667-1.247.581-2.309-.087-1.087-.914-4.421-1.556-6.2-2.285-6.372-4.088-9.62-6.348-11.423-.654-.506-.827-.568-.827-.284z" fill="#60a5fa"/><g fill="#374151"><path d="m99.8086 253.325c-.4569.482-.3334 1.136.2594 1.383.976.408 1.754-.63 1.013-1.358-.383-.395-.914-.408-1.2724-.025z"/><path d="m116.209 253.251c-.63.222-.815.951-.371 1.395.741.741 1.951-.296 1.272-1.086-.247-.284-.617-.408-.901-.309z"/><path d="m83.9765 254.486c-.6175.222-.8398 1.037-.3952 1.433.3088.284 1.0497.271 1.2967-.013.2717-.296.2717-.926 0-1.161-.2717-.234-.6545-.345-.9015-.259z"/><path d="m126.051 254.869c-.518.58.037 1.753.828 1.753.815 0 1.173-1.025.568-1.667-.358-.383-1.087-.432-1.396-.086z"/><path d="m88.8793 255.363c-.1235.136-.21.432-.21.741 0 .395.0741.556.3211.753.1852.148.4199.259.5434.259s.3581-.111.5434-.259c.6792-.531.2593-1.716-.6299-1.716-.1976 0-.4569.098-.568.222z"/><path d="m109.787 255.696c-.383.408-.383 1.013-.012 1.322.642.518 1.494.061 1.494-.803 0-.79-.914-1.124-1.482-.519z"/><path d="m122.322 256.03c-.346.197-.433.345-.433.79 0 .494.334.79.89.79.691 0 1.086-.629.778-1.222-.235-.469-.766-.63-1.235-.358z"/><path d="m134.029 257.981c-.346.136-.531.494-.531 1.025 0 .679.63 1.074 1.223.766 1.025-.519.37-2.211-.692-1.791z"/><path d="m96.1408 258.401c-.3829.383-.4076 1.025-.0494 1.482.5063.642 1.3708.296 1.5437-.605.1729-.951-.8274-1.544-1.4943-.877z"/><path d="m104.18 258.339c-.309.333-.309 1.05.013 1.457.321.445 1 .531 1.321.173.296-.321.284-1.074-.012-1.482-.321-.42-1.001-.506-1.322-.148z"/><path d="m118.592 258.598c-.568.235-.704 1.062-.259 1.482.568.531 1.581.099 1.581-.667 0-.222-.075-.494-.149-.605-.197-.259-.802-.37-1.173-.21z"/><path d="m78.3575 260.019c-.8397.827.2594 2.198 1.1609 1.444.4322-.345.4569-.901.0741-1.358-.4075-.482-.8274-.506-1.235-.086z"/><path d="m113.43 260.266c-.605.592-.284 1.543.531 1.543.371 0 .963-.309 1.062-.556.383-1.025-.815-1.778-1.593-.987z"/><path d="m91.4109 260.278c-.1976.136-.2717.309-.2717.667s.0741.531.2717.667c.5928.419 1.3337.049 1.3337-.667s-.7409-1.087-1.3337-.667z"/><path d="m85.4214 260.784c-.2347.284-.284.506-.1729.926.0864.346.531.568.9509.482.5928-.111.8398-1.013.3952-1.408-.2964-.272-.9262-.272-1.1732 0z"/><path d="m139.636 261.537c-.321.359-.272.951.111 1.248.432.346.852.321 1.222-.05.371-.37.383-.666.05-1.099-.309-.395-1.062-.457-1.383-.099z"/><path d="m100.525 261.525c-.9017.334-.7905 1.593.173 1.84.383.087.79-.136.938-.518.186-.457.149-.618-.148-.964-.309-.321-.667-.457-.963-.358z"/><path d="m126.891 261.896c-.432.111-.803.543-.803.963 0 .716.655 1.013 1.519.692.692-.272.754-1.211.087-1.557-.371-.197-.395-.197-.803-.098z"/><path d="m132.572 262.328c-.346.197-.432.346-.432.79 0 .519.382.852 1.012.852.371 0 .556-.074.729-.296.333-.407.296-.716-.124-1.136-.382-.371-.765-.445-1.185-.21z"/><path d="m106.317 262.908c-.395.321-.395 1.062.012 1.396.618.506 1.618-.062 1.433-.815-.186-.754-.889-1.025-1.445-.581z"/><path d="m119.197 263.489c-.432.296-.346 1.037.148 1.272.322.148.408.148.68 0 .444-.247.518-.988.111-1.272-.148-.111-.358-.198-.469-.198-.112 0-.322.087-.47.198z"/><path d="m122.211 263.983c-.519.518-.284 1.284.494 1.605.333.136.481.148.703.037.371-.197.457-.346.457-.827 0-.803-1.111-1.359-1.654-.815z"/><path d="m94.1278 264.316c-.5187.544-.2223 1.322.5557 1.519.6916.173 1.3955-.593 1.1485-1.235-.2223-.593-1.2596-.765-1.7042-.284z"/><path d="m89.3609 264.662c-.3458.272-.4075.63-.1976 1.334.2594.914 1.0744 1.284 1.6054.753.6051-.605-.037-2.346-.8644-2.346-.1235 0-.3581.111-.5434.259z"/><path d="m74.8379 264.773c-.3705.371-.3211.902.1359 1.284.2099.173.4445.322.5186.322.6792-.013 1.1732-.606.9633-1.149-.2594-.667-1.1485-.926-1.6178-.457z"/><path d="m110.281 264.934c-.58.296-.704 1.148-.21 1.469.333.21.926.099 1.186-.222.321-.408.321-.679.049-1.013-.296-.333-.655-.42-1.025-.234z"/><path d="m81.7042 265.65c-.6915.543-.2346 1.716.6546 1.716.9015 0 1.1979-.926.5186-1.617-.4322-.42-.7286-.445-1.1732-.099z"/><path d="m141.797 265.65c-.334.123-.679.864-.556 1.185.247.717.963.877 1.457.334.717-.766.037-1.902-.901-1.519z"/><path d="m137.005 266.848c-.457.296-.481 1.148-.049 1.383.901.481 1.741-.395 1.161-1.21-.185-.272-.815-.371-1.112-.173z"/><path d="m128.867 267.021c-.642.346-.753 1.037-.235 1.445.47.37.988.333 1.42-.099.396-.408.457-.803.161-1.223-.21-.296-.901-.37-1.346-.123z"/><path d="m117.085 268.182c-.629.802.025 1.877.927 1.531.345-.136.704-.852.58-1.198-.247-.716-1.062-.902-1.507-.333z"/><path d="m100.513 268.379c-.198.062-.396.272-.482.482-.136.321-.1236.42.086.704.507.691 1.519.407 1.519-.408 0-.605-.543-.976-1.123-.778z"/><path d="m105.428 268.7c-.26.284-.272.877-.037 1.198.111.161.321.235.629.235.309 0 .519-.074.63-.235.247-.333.21-.976-.049-1.21-.309-.272-.926-.26-1.173.012z"/><path d="m77.8882 269.071c-.2716.308-.2593.926.0124 1.173.2964.272.9262.272 1.1732-.012.3087-.346.3211-.89.0123-1.186-.2593-.272-.9509-.247-1.1979.025z"/><path d="m94.1896 270.083c-.6299.494-.2841 1.482.5186 1.482.247 0 .4446-.111.6299-.333.6175-.79-.3582-1.766-1.1485-1.149z"/><path d="m73.2942 270.392c-.3705.371-.3952.791-.0494 1.223.3087.395.9509.444 1.2596.099.3335-.371.2717-1.075-.1111-1.371-.4322-.334-.7286-.321-1.0991.049z"/><path d="m122.655 270.491c-.556.593-.173 1.445.642 1.445.889 0 1.383-.914.815-1.482-.358-.358-1.111-.333-1.457.037z"/><path d="m133.658 270.577c-.543.223-.703 1.062-.284 1.482.556.556 1.482.136 1.482-.654 0-.63-.617-1.062-1.198-.828z"/><path d="m144.773 270.973c-.333.16-.679.864-.58 1.173.271.741.963.877 1.543.296.445-.444.457-.901.05-1.309-.321-.333-.581-.37-1.013-.16z"/><path d="m108.885 271.17c-.333.371-.271 1.075.112 1.371.543.432 1.099.321 1.346-.272.185-.444.037-1.012-.309-1.198-.371-.197-.926-.148-1.149.099z"/><path d="m81.8771 271.281c-.7533.272-.8397 1.05-.1852 1.63.6915.606 1.4202.47 1.6177-.296.0988-.383-.2469-1-.6915-1.235-.3829-.197-.4446-.21-.741-.099z"/><path d="m127.607 271.701c-.728.21-1.012.988-.531 1.47.383.383 1.396.345 1.791-.062.383-.371.395-.704.037-1.087-.333-.37-.753-.469-1.297-.321z"/><path d="m65.8228 271.961c-.1605.172-.247.432-.247.728 0 .877.9509 1.247 1.519.581.284-.334.2717-1.112-.0124-1.371-.3211-.297-.9509-.26-1.2596.062z"/><path d="m113.368 271.936c-.531.531-.123 1.358.667 1.358.309 0 .482-.086.618-.271.432-.606.086-1.334-.618-1.334-.259 0-.518.099-.667.247z"/><path d="m137.808 272.035c-.346.296-.371.901-.037 1.346.741.988 2.075.358 1.605-.754-.321-.765-1.025-1.025-1.568-.592z"/><path d="m87.1874 272.183c-.3458.346-.3211.926.0618 1.297.1605.172.4198.308.5557.308.3581 0 .8645-.543.8645-.926 0-.407-.5187-.926-.9263-.926-.1729 0-.4198.111-.5557.247z"/><path d="m103.452 273.887c-.272.309-.26.926.012 1.173.235.21.84.272 1.087.111.247-.16.432-.642.358-.889-.198-.617-1.05-.84-1.457-.395z"/><path d="m77.0979 274.529c-.5557.223-.7163 1.173-.2841 1.606.5681.568 1.482.074 1.482-.803 0-.605-.6298-1.025-1.1979-.803z"/><path d="m95.301 274.752c-.2593.284-.2717.876-.0123 1.234.2593.383 1.0744.383 1.3337 0 .2717-.382.247-.741-.0617-1.136-.3088-.395-.9509-.444-1.2597-.098z"/><path d="m116.9 275.036c-.407.321-.444.95-.061 1.296.382.346 1.37.321 1.728-.037.371-.37.371-.988 0-1.297-.395-.308-1.247-.296-1.667.038z"/><path d="m133.584 275.122c-.321.346-.271 1.087.099 1.445.371.37.667.383 1.099.049.68-.531.26-1.716-.629-1.716-.198 0-.457.098-.569.222z"/><path d="m58.1661 275.122c-.6175.198-.8521 1.136-.3952 1.544.6792.617 1.7289-.186 1.3955-1.062-.1235-.322-.6792-.581-1.0003-.482z"/><path d="m69.33 275.912c-.531.247-.7286 1.248-.3211 1.618.1235.124.4199.21.6669.21 1.0126 0 1.3584-1.334.4569-1.791-.3952-.209-.4446-.209-.8027-.037z"/><path d="m109.466 276.369c-.21.124-.457.408-.544.618-.148.358-.135.432.087.728.284.396.654.47 1.161.26.765-.309.901-1.309.222-1.655-.445-.235-.469-.235-.926.049z"/><path d="m84.0877 276.74c-.4693.469-.4817 1.012-.0371 1.358.4323.346.6916.321 1.1485-.062.5064-.419.5311-1.025.0618-1.395-.4446-.346-.741-.321-1.1732.099z"/><path d="m124.112 276.629c-.358.358-.321.914.074 1.222.667.531 1.779.148 1.779-.617 0-.544-.383-.852-1.05-.852-.395 0-.63.074-.803.247z"/><path d="m89.892 276.728c-.5681.469-.21 1.506.531 1.506.7533 0 1.1238-.963.5681-1.482-.3335-.309-.7287-.321-1.0991-.024z"/><path d="m99.2899 277.641c-.3458.383-.3211.889.0741 1.198.4322.334.729.321 1.099-.049.383-.371.395-.803.025-1.149-.371-.346-.877-.346-1.1981 0z"/><path d="m128.262 277.604c-.284.309-.284.679 0 2.075.074.383.716.58 1.173.346.445-.235.605-.531.605-1.112 0-1.161-1.148-2-1.778-1.309z"/><path d="m142.081 277.876c-.334.296-.432.482-.432.79 0 .729.667 1.099 1.346.754.457-.247.63-.544.63-1.1 0-.852-.803-1.086-1.544-.444z"/><path d="m63.4393 278.234c-.6792.531-.2593 1.605.6175 1.605.4446 0 .9016-.469.9016-.926 0-.728-.9263-1.136-1.5191-.679z"/><path d="m54.3378 279c-.7657.815.4075 2.025 1.2349 1.272.3211-.297.3335-1.05.0247-1.334-.321-.296-.9509-.259-1.2596.062z"/><path d="m137.191 278.889c-.26.197-.482.629-.482.951 0 .358.543.864.926.864.445 0 .926-.519.926-.988 0-.716-.852-1.235-1.37-.827z"/><path d="m147.774 279c-.272.37-.247 1.123.025 1.37.605.544 1.506.087 1.506-.765 0-.124-.111-.371-.259-.556-.333-.42-1-.445-1.272-.049z"/><path d="m79.9629 279.494c-.3581.197-.4322.345-.4322.852 0 .568.3458.901.9509.901.8645 0 1.1856-.901.5434-1.543-.3828-.383-.6669-.433-1.0621-.21z"/><path d="m120.519 279.531c-.593.321-.568 1.173.037 1.593.617.432 1.334 0 1.334-.815 0-.716-.729-1.136-1.371-.778z"/><path d="m115.344 280.827c-.37.371-.321.939.111 1.371.433.42.729.445 1.174.099.37-.284.407-.692.135-1.21-.284-.568-.988-.692-1.42-.26z"/><path d="m72.9361 281.704c-.3334.272-.4199.692-.1976 1.099.1605.284 1.1361.741 1.6178.741.3828 0 .7286-.383.7286-.815 0-.555-.9015-1.284-1.5807-1.284-.1359 0-.3829.111-.5681.259z"/><path d="m101.537 281.89c-.358.247-.37.938-.024 1.284.531.531 1.358.123 1.358-.667 0-.469-.346-.815-.802-.815-.136 0-.383.086-.532.198z"/><path d="m131.473 281.927c-.321.358-.223 1.099.197 1.407.284.21.383.223.692.099.63-.259.778-.988.296-1.531-.247-.284-.914-.272-1.185.025z"/><path d="m137.944 282.062c-.716.717.296 1.989 1.284 1.606.704-.26.729-1.198.037-1.606-.506-.308-1.012-.308-1.321 0z"/><path d="m85.9525 282.161c-.6052.198-.8398 1.025-.3952 1.42.3087.272.9262.26 1.1732-.012.2223-.235.2717-.84.1111-1.099-.1235-.198-.6668-.383-.8891-.309z"/><path d="m90.2994 282.556c-.3457.321-.3581.988-.0494 1.272.3211.297.951.26 1.2597-.061.7657-.815-.3952-1.976-1.2103-1.211z"/><path d="m107.811 282.766c-.198.247-.247.445-.198.716.223 1.124 1.729 1.013 1.729-.123 0-.877-1-1.26-1.531-.593z"/><path d="m96.079 282.865c-.2223.247-.2717.383-.2099.766.1111.654.4569 1.074.9385 1.123.7533.075 1.1732-.679.8274-1.494-.3087-.741-1.0497-.938-1.556-.395z"/><path d="m61.2041 283.445c-.2594.371-.247.741.0494 1.124.2963.371.7286.507 1.1485.346.3581-.136.5927-.704.4445-1.074-.2346-.655-1.2843-.902-1.6424-.396z"/><path d="m125.31 283.544c-.506.408-.531 1.186-.037 1.507.297.21.902.099 1.186-.21.815-.864-.21-2.038-1.149-1.297z"/><path d="m121.395 284.162c-.148.148-.247.407-.247.654 0 1.05 1.569 1.346 1.791.346.21-.951-.889-1.655-1.544-1z"/><path d="m141.463 284.471c-.654.642-.173 1.778.766 1.79.865 0 1.074-1.346.296-1.939-.308-.247-.741-.185-1.062.149z"/><path d="m78.8268 284.409c-.8644.345-.6051 1.729.3211 1.729.4199 0 .8768-.482.8768-.927 0-.58-.6545-1.012-1.1979-.802z"/><path d="m134.115 284.532c-.382.383-.444.84-.16 1.21.679.902 1.976.025 1.445-.975-.272-.531-.877-.642-1.285-.235z"/><path d="m145.502 284.903c-.433.271-.68.741-.556 1.074.259.753 1.062.889 1.655.297.531-.532.494-1.174-.099-1.482-.37-.186-.531-.173-1 .111z"/><path d="m128.2 285.224c-.346.432-.321.691.062 1.148.617.741 1.531.395 1.531-.555 0-.815-1.099-1.223-1.593-.593z"/><path d="m67.8975 286.027c-.4693.271-.2841.419 1.3708 1.074.1358.049.1482-.012.0864-.296-.1852-.754-.8768-1.124-1.4572-.778z"/><path d="m84.4952 286.335c-.6545.457-.0988 1.717.7409 1.63.5064-.049.9016-.568.7904-1.012-.1852-.729-.9385-1.038-1.5313-.618z"/><path d="m112.504 286.595c-.395.148-.618.457-.618.852 0 .975 1.668 1.296 1.902.358.111-.445-.21-1-.679-1.161-.222-.074-.395-.136-.408-.124-.012 0-.098.038-.197.075z"/><path d="m117.246 287.385c-.309.111-.667.568-.667.864 0 .112.111.346.26.531.444.569 1.37.396 1.617-.308.21-.581-.617-1.309-1.21-1.087z"/><path d="m100.006 287.583c-.4691.531-.3456 1.309.235 1.531.877.333 1.679-.84 1.025-1.494-.309-.309-1-.334-1.26-.037z"/><path d="m132.769 288.064c-.308.395-.321.568-.074 1.038.223.432.531.617 1.025.617.68 0 .951-.642.581-1.358-.358-.692-1.112-.828-1.532-.297z"/><path d="m74.0969 288.114c-.568.568-.0741 1.605.7781 1.605.9385 0 1.1732-1.235.321-1.667-.4692-.247-.8027-.235-1.0991.062z"/><path d="m88.6693 288.151c-.9509.481-.5433 1.692.5681 1.692.1729 0 .4446-.136.6052-.309.5063-.494.3457-1.149-.3582-1.42-.4199-.161-.4446-.149-.8151.037z"/><path d="m92.7447 288.879c-.2964.321-.3211.692-.0494 1.062.1482.21.3087.272.7163.272.6174 0 .9385-.272.9385-.778 0-.753-1.0744-1.124-1.6054-.556z"/><path d="m122.346 289.324c-.284.309-.259.84.037 1.136.68.679 1.717-.21 1.149-.976-.309-.407-.889-.494-1.186-.16z"/><path d="m126.483 289.349c-.555.518-.111 1.605.655 1.605s1.099-1.099.482-1.593c-.42-.333-.791-.333-1.137-.012z"/><path d="m137.722 289.386c-.791.839.469 1.926 1.432 1.247.358-.247.371-.939.025-1.284-.358-.358-1.112-.334-1.457.037z"/><path d="m80.5187 290.188c-.4076.334-.4817 1.272-.1359 1.618.3705.371.8274.333 1.2597-.099.4569-.469.4816-1.012.0494-1.432-.3582-.358-.7904-.395-1.1732-.087z"/><path d="m104.983 290.781c-.296.383-.321.531-.111.963.21.47 1.346.754 1.679.42.26-.259.173-.914-.172-1.321-.42-.507-1.026-.531-1.396-.062z"/><path d="m134.066 291.362c-.395.395-.408.716-.025 1.148.223.272.395.346.766.333 1.185-.037 1.21-1.531.025-1.716-.371-.062-.507-.025-.766.235z"/><path d="m116.74 291.448c-.865.346-.556 1.729.383 1.729.839 0 1.173-1 .518-1.568-.358-.309-.481-.334-.901-.161z"/><path d="m142.451 291.843c-.345.198-.432.346-.432.791 0 .481.457.926.976.938.877.025 1.198-.963.494-1.556-.408-.346-.655-.395-1.038-.173z"/><path d="m129.978 292.93c-.926.358-.716 1.729.272 1.729.408 0 .902-.519.902-.963 0-.568-.643-.988-1.174-.766z"/><path d="m122.877 294.165c-.333.333-.308.815.062 1.173.408.42.951.408 1.285-.012.333-.433.321-.729-.05-1.099-.37-.383-.951-.408-1.297-.062z"/><path d="m137.363 296.289c-.148.161-.271.371-.284.469-.061.408.013.741.136.741.334 0 1.593-.543 1.593-.679 0-.086-.111-.296-.259-.482-.321-.407-.84-.419-1.186-.049z"/><path d="m126.199 296.82c-.382.21-.531.655-.358 1.099.223.581 1.038.766 1.482.321.321-.321.309-.778-.024-1.161-.371-.395-.704-.469-1.1-.259z"/><path d="m133.424 297.524c-.272.123-.543.58-.543.889 0 .099.098.296.222.432l.21.272.617-.272c.346-.148.655-.321.692-.395.148-.21-.136-.79-.457-.938-.358-.161-.395-.161-.741.012z"/><path d="m121.704 297.87c-.049.074.111.123.395.123.346 0 .42-.037.284-.123-.247-.161-.58-.161-.679 0z"/></g></g></svg>