<svg fill="none" height="112" viewBox="0 0 125 112" width="125" xmlns="http://www.w3.org/2000/svg"><g fill="#7dd3fc"><path d="m106.127 27.2059c8.42-.0148 15.022-2.8177 16.177 6.1274.9 6.9727 0 16.0063 0 23.0393 0 6.4016-.753 14.4317-.752 20.8333 0 5.8276 1.314 18.8724-.056 24.5101-2.056 8.455-9.859 7.387-17.329 7.353-6.379-.03-15.4353-1.686-21.814-1.716-13.5548-.063-21.4943.759-35.0491.696-6.3787-.029-17.2819-.666-23.6606-.696-7.2379-.034-18.44869 5.02-20.45701-3.186-1.35713-5.5455-.06629-17.8068 0-23.5298.08219-7.095-.20842-12.9572 0-20.0497.17962-6.1122-.09422-18.5359.95438-24.5581 0-11.0371 5.85722-8.5632 14.24173-8.6212 13.7855-.0954 24.6949.0954 38.4804 0 3.5472-.0246 2.5748-2.4405-.9804-2.4159-13.0197.0901-20.8039.4-33.8236.4901-4.5398.0314-14.59539-2.7644-17.91813 1.9257-2.02738 2.8617-2.29244 9.1224-2.42497 12.0527-.28495 6.3006-.55004 14.8224-.7353 21.1267-1.960777 15.1478-.163961 25.7174 0 39.9025.05873 5.081-1.750723 7.893 3.16027 9.462 5.22282 1.668 14.05253.113 19.50263.138 6.3787.03 12.7575.059 19.1362.089 14.3521.066 28.7042.133 43.0563.2 10.7908.05 24.5172 1.841 34.7522-1.31.891-.275 2.623-3.221 2.833-4.167 2.738-12.3111.402-24.4732.402-37.1127-.001-12.5491 2.559-28.2014-.402-40.3811-.227-.9346-1.02-1.6644-1.925-1.9259-4.996-1.4426-9.741-.7364-14.878-.7274-3.549.0063-4.045 2.4572-.491 2.451z"/><path d="m6.37253 31.8627c10.79467 8.1127 22.07767 18.8073 32.84317 26.7157 6.5584 4.8178 10.835 9.9505 16.1764 16.1765 1.9192 2.2369 5.3031-.266 8.5785 0 9.0686-6.3726 11.0077-9.0791 14.9509-12.9902 13.2353-11.7647 23.2235-20.1765 37.3345-28.9682 3.006-1.8728 1.474-4.2883-1.55-2.4044-9.679 6.0301-14.248 9.5923-22.5492 17.402-11.0294 8.0882-26.4705 27.9412-34.8039 25.2451-4.0976-2.3059-8.564-9.4062-12.2549-12.5-4.054-3.3982-10.8136-8.1518-14.7059-11.7647-8.4463-7.84-14.7699-12.6564-24.01957-19.6079-2.83779-2.1327-2.80597.5873 0 2.6961z"/><path d="m76.4706 65.6862c16.4216 11.7831 30.6934 23.7745 41.1284 39.0628 1.638 3.15 3.646 2.32 2.009-.828-16.177-20.3426-27.0001-28.6164-43.1374-40.1955-2.8882-2.0724-2.8612-.0923 0 1.9607z"/><path d="m43.1373 64.951c-5.1862 7.2083-17.3725 16.5679-23.7745 22.549-6.6992 6.2588-8.6977 9.2506-14.4608 16.422-2.09826 2.61-1.27029 4.19.84592 1.557 6.34088-7.8902 13.17638-15.3021 20.64308-22.0786 6.2438-5.6666 13.2163-10.3841 18.2146-17.3313 1.9749-2.7449.4857-3.834-1.4683-1.1181z"/></g><g fill="#f87171"><path d="m97.3891 12.853c4.7569 7.4043 7.2959 12.6931 0 23.2707-5.7281 9.1721-18.0906 13.5394-29.726 4.4426-9.7314-8.4621-6.9358-21.3287-1.904-29.7023 3.7576-10.9157026 29.4941-13.32637 32.3675 0 .6453 2.9929 2.3374 1.3844 1.6924-1.60738-4.8657-10.78915-16.9242-11.00074-29.4561-6.4501-10.0637 6.55392-14.8561 25.19348-7.4587 35.33218 7.8586 10.7708 21.6112 11.3902 32.0491 3.2738 11.5667-8.9943 10.2137-22.0822 2.4358-32.95093-1.7673-2.46953-1.7875 1.89363 0 4.39143z"/><path d="m88.3922 12.3048c-1.9887-.3975-1.9892-.398-3.9657 1.9741-.5634.5916-1.2019 1.1069-1.899 1.5328-.452-1.2029-2.7623-3.1191-3.9216-3.8917l-.0152-.0068c-1.5735-.3922-4.3294-.0108-5.9162 1.1804-1.6098.8049-3.1661 3.9706-3.5568 6.3181 0 3.0853.7206 4.2701 5.5049 9.0544 2.3108 2.3108 4.7 4.7 5.0887 5.4775.4412.8823 1.0206 1.4176 1.5279 1.4176.026 0 .0491 0 .077-.0039.273-.0299.6373-.2333.8407-1.0436 0-.3721.7843-1.1569 1.1534-1.527 8.2226-5.0912 11.3976-9.4451 10.6113-14.5564-.3868-3.8652-1.9378-5.5264-5.5294-5.9255zm-7.6716 4.9721c-.1167.4412.0726 1.0348.5593 1.7647.3642.7284 1.9471 7.7451 2.3476 11.3505-.0141.1903-.0961.3693-.231.5043-.135.1349-.314.2169-.5043.231h-.0201l-.0157.0142c-.0191.0191-.0294.0157-.0363.0137-.2313-.0764-.8289-1.6024-2.2338-10.9671-.3853-2.3118-.7843-4.702-.7843-5.102-.1579-.6333-.1108-.897-.0137-.9314.0098-.0032.02-.0048.0304-.0049.1705 0 .5882.3991 1.0686 1.3638.1947.3497.3252.7316.3853 1.1274-.132.0605-.2496.1485-.3448.2582-.0952.1096-.1658.2384-.2072.3776zm.5623 15.049c-.2853.4284-.5981.6221-.8363.5157-.2976-.1314-.4794-.7417-.2505-1.6667-.1925-1.1946-.4544-2.377-.7843-3.5411-.475-2.1906-.7376-4.4218-.7843-6.6628-.3775-2.2647-.7843-5.0691-.7843-5.8823-.1873-.9368-.3113-1.5554-.2393-1.6079h.0059c.2034.1312.3863.2918.5427.4765l.0127.0093c.6539.3265 1.0378 2.4083 1.8794 6.9686.1363.7373.2852 1.5391.4466 2.4054.3858 3.0829.7843 6.2711.7843 7.0525l.003.0157c.3853 1.1578.3877 1.5328.0044 1.9171zm-9.3579-15.3662c-.0142.0015-.0274.0078-.0375.0179s-.0164.0234-.0179.0375c-.0473.0126-.0889.0412-.1176.0809-.3098.3971-.1157 2.1907.5059 4.6784.273 1.3628.3755 2.0442.223 2.2304-.0221.0236-.0495.0416-.0799.0527s-.063.0149-.0951.0111c-.202 0-.2941-.4549-.4147-1.0294-.0815-.4356-.1894-.8658-.323-1.2883-.1485-.4911-.2609-.9925-.3363-1.5-.1206-.6961-.2098-1.2108-.4456-1.272-.0448-.8293.2309-1.644.7701-2.2755l.7456-1.853.35 1.0495.0118.0192c.4049.4049.8147 2.5926 1.1627 4.6808.3589 1.5509.6208 3.1225.7843 4.7059.2108.8456.0696 1.2843-.098 1.3265-.0804.0216-.1809-.0466-.2775-.1829-.1484-.2361-.2543-.4964-.3127-.7691-.0932-1.1115-.2528-2.2164-.478-3.3088-.098-.5588-.2029-1.1608-.3078-1.7926-.3074-1.5348-1.0049-3.6196-1.2108-3.6196zm3.5647 7.9265c-.4495-1.3959-.7132-2.845-.7843-4.3098-.6627-2.652-1.0088-5.9078-.9274-6.3725.019.0388.0354.079.049.1201.1.5999.3784 1.1557.799 1.5951l.0142.0142h.0201c.3088 0 1.1005 2.8431 1.5196 6.623.3373 3.0358.6785 5.5181.7642 6.1309l-.6838-.6829-.0127-.0088c-.7441-.372-.7569-.7323-.7574-1.1127.3917-.4108.3907-1.2113-.0024-1.9966zm.3432-11.3078c.147 0 .751.8456 2.3039 11.722.3725 2.9775.749 5.277.7819 5.4706-.4734-.5792-.8387-1.2389-1.0785-1.9475-.0176-1.319-.1488-2.634-.3921-3.9304-.2579-1.3762-.4956-2.636-.7133-3.7794-.7774-4.1059-1.247-6.5844-1.247-7.1922.0024-.3431.0024-.3431.3456-.3431zm10.147 15.6166c-.1988.1983-.457.326-.7353.3638h-.0201l-.0152.0142c-.1348.1348-.2323.2313-.2872.2191-.0981-.0226-.2093-.3642-.4162-.9853-1.4921-4.1025-1.8216-10.423-1.3848-10.6441.0037-.0008.0076-.0008.0113 0 .0265 0 .0662.0367.1098.1024l.0064.0074c.3813.3814.7789 2.3676 1.1647 4.2946.561 1.6504.9541 3.3531 1.1735 5.0823l.0054.0221c.2311.4764.3631.9947.3882 1.5235zm2.0098-2.4794c.1285 0 .2187-.1799.4363-.6152l.0049-.022c0-.3868 0-1.1892-.4005-1.5976-.4842-1.1093-.7482-2.3022-.7774-3.5122-.0981-.3922-.1961-.8152-.2941-1.2255-.206-1.0526-.5012-2.0858-.8824-3.0883 0-1.9656.0103-2.2926.3431-2.2926.3432 0 1.5108 3.0392 2.304 7.8059.0774.3103.147.5941.2107.8524.4084 1.6549.5613 2.274.8687 2.4162.0945.0262.1936.031.2902.014.0966-.0169.1882-.0552.2681-.112l.0127-.0094c.4099-.4098.4118-.8196.0094-1.625l-.0094-.0132c-.3813-.3814-.7789-2.3676-1.1647-4.2946-.5447-1.5211-.9388-3.092-1.1764-4.6902l-.0049-.0216c-.1471-.2975-.1922-.5005-.1294-.6024.0691-.1113.2769-.1113.4774-.1113.7319 0 1.1275.3338 1.5196 2.3172.2103.7353.4167 1.4294.6157 2.1005.5314 1.7887.951 3.2014.951 3.7686 0 .4049.0078.4201.4068.8191.0338.0404.0586.0875.0728.1382s.0175.1039.0096.1559c-.0338.6133-.8093 1.8628-2.4353 3.1657-1.1274 1.1299-1.9466 1.9466-2.3186 1.9466-.0319 0-.1574-.049-.4206-.6863-.7627-2.1572-1.3593-4.3695-1.7848-6.6176-.5814-2.8525-.778-4.8118-.5191-5.1471.3054.0569.6799 1.3799 1.2407 3.3598.0817.2886.1684.594.2602.9162.3496 1.223.627 2.3916.8496 3.3309.1683.8722.41 1.7287.7225 2.5603.226.4348.3162.6166.4441.6166zm4.677-4.6338c-.2701-.3059-1.0882-3.0505-1.598-5.3922-.3118-1.4279-.3721-2.1078-.3216-2.2946l1.124 1.1241c.5596 1.224.826 2.5618.7779 3.9068.2249.8703.2311 1.7826.0182 2.6559z"/></g></svg>