<svg fill="none" height="122" viewBox="0 0 125 122" width="125" xmlns="http://www.w3.org/2000/svg" xmlns:xlink="http://www.w3.org/1999/xlink"><clipPath id="a"><path d="m0 0h125v121.976h-125z"/></clipPath><g clip-path="url(#a)"><path d="m26.4033.24678c-.3032.16129-.5161.445162-.8516 1.11613-.7871 1.56775-1.5677 2.51614-3.3097 4.03872-1.6258 1.42581-4.1871 3.05807-9.2194 5.89037-3.47093 1.9548-4.76771 2.9032-6.31611 4.6193-2.15484 2.3871-3.69678 4.9549-4.90969 8.1871-.896778 2.3936-1.270973 4.2001-1.49678 7.2839-.3419368 4.6904.696777 13.2775 2.27098 18.7678.38709 1.342.85806 2.6516 1.05806 2.9549.08388.1161.20646.3419.27742.5032.23871.5355.79356.7548 1.27743.5097.7871-.4 1.65162-1.1742 3.45162-3.0904 2.68387-2.858 3.97417-4.4774 6.18067-7.7613 1.9032-2.8387 3.1871-5.2645 5.4581-10.3548 2.9419-6.5807 4.0064-9.9871 5.2258-16.6388.1613-.8838.3032-1.6193.3161-1.6322.0646-.0646.1162 2.8322.0839 4.3677-.0645 2.8452-.3548 4.8258-1.1742 7.9936-.7742 2.9935-1.2323 4.2258-3.2258 8.7161-1.9032 4.2839-3.2903 7.1613-4.3936 9.0839-.5871 1.0194-1.9871 3.0839-3.3548 4.9484-2.342 3.1936-3.4775 4.9355-4.42584 6.8065-1.31614 2.5806-1.7742 4.2129-1.99356 7.0968-.08387 1.1226-.04516 4.929.06452 6.0968.25806 2.7161.53548 4.5419.75484 4.9161.08387.1484.28387.7032.43871 1.2258 1.65163 5.5291 4.99353 11.6646 9.93553 18.2452 2.4387 3.2516 5.0903 6.3747 6.9871 8.2387.7807.768 1 .871 1.4129.677.4-.193.5484-.812.3097-1.277-.0581-.123-.5161-.639-1.0194-1.155-2.6258-2.703-6.0387-6.9546-8.8387-11.0256-3.2065-4.671-5.9226-10.0194-7.0968-14.0065-.80645-2.7355-1.12258-4.8839-1.18065-7.9678-.05161-2.6387.10323-3.8774.72258-5.7548.59997-1.8194 2.03227-4.3291 3.90327-6.8258 2.4322-3.2452 4.5484-5.0968 11.2258-9.8065 3.5033-2.4774 4.6194-3.3613 6.0388-4.8129 1.7419-1.7936 2.5742-3.1033 3.2451-5.1291.6452-1.9613.8968-3.4258.9549-5.5097.0645-2.4645-.3097-6.2645-.9871-9.9677-.5355-2.942-1.3936-6.6581-1.9613-8.4839-.4968-1.61938-1.7871-5.21294-2.5807-7.19359-.8839-2.21291-1.671-3.503233-2.329-3.838717-.271-.141936-.7291-.167743-.9291-.051613zm1.142 3.32259c.4516.94194.7806 1.7742 1.7935 4.53549 1.3226 3.59354 1.7871 5.27744 2.7484 9.93554.9807 4.7484 1.471 9.2 1.3162 11.8903-.1162 2.0323-.6129 4.1613-1.3162 5.6839-.5096 1.1032-1.4903 2.4-2.7226 3.5871-1.3484 1.2968-2.5419 2.2258-5.929 4.6129-2.6581 1.871-4.9807 3.6-6.0646 4.5097-.3225.2774-.3677.2968-.258.1355 1.4193-2.1936 1.7677-2.8 2.8839-5.0065 1.3613-2.6709 3.7355-7.9355 4.8258-10.6774 1.2516-3.1613 2.2258-6.9613 2.6452-10.3162.4193-3.3484.2451-8.5097-.3871-11.3871-.1678-.7742-.3678-1.26451-.6258-1.55483-.6194-.68387-1.4775-.33549-1.7162.69033-.058.2452-.3419 1.7677-.6258 3.3806-1.1355 6.4839-1.8194 9.2194-3.2903 13.1291-1.2904 3.4323-4.0065 9.3226-5.6452 12.2581-1.129 2.0258-3.2323 5.1226-4.8452 7.1355-1.40644 1.7548-4.4 4.9419-5.32259 5.6581-.09677.0709-.14193-.0194-.43226-.9032-.54193-1.6646-1.09677-4.0323-1.5871-6.8259-1.1871-6.7226-1.28387-12.8129-.26452-16.6774 1.21936-4.6517 3.7355-8.7936 7.01938-11.5549.95489-.8064 1.76129-1.3097 4.88389-3.0581 3.4194-1.9226 6.8194-4.07094 8.2194-5.19998.929-.74839 2.2452-2.02581 2.8387-2.76129.4903-.60001 1.1097-1.54194 1.2645-1.90323.0452-.10968.1033-.2.1291-.2s.2322.4.4645.88387z" fill="#84cc16"/><path d="m56.4678 1.24031c-5.6516.34839-12.3162 1.65806-17.2 3.38063-1.3291.47097-1.542.62581-1.542 1.12903 0 .34839.1162.6.3807.8258.3548.29678.5806.28387 1.5871-.08387 4.0451-1.46451 10.0838-2.75482 15.2903-3.27095 1.671-.16129 6.6516-.16129 8.0968 0 3.6129.40645 6.1806 1.12903 9.0645 2.54838 4.3613 2.14837 6.5161 4.14191 8.8064 8.14187.742 1.2903 1.8839 3.5678 2.4065 4.8065 1.5613 3.6709 2.2839 6.5032 3.6903 14.516 1.0387 5.9161 1.4516 7.6129 2.4323 10.0645.8516 2.1097 1.458 3.071 3.0645 4.8774 1.0064 1.129 2.3419 2.2774 3.671 3.1548 1.1096.7355 2.2193 1.342 3.9418 2.1613 2.781 1.3161 4.329 1.929 7.761 3.0774 4.039 1.3548 5.329 1.6645 9.775 2.3742 2.225.3484 3.012.4452 3.993.4903 1.942.0903 2.781-.3032 2.774-1.2968 0-.4516-.096-.6645-.722-1.5741-1.297-1.8968-2.316-5.1226-2.845-9.0065-.265-1.9161-.588-4.8903-.846-7.7354-.277-3.0903-.425-4.2645-.677-5.471-.587-2.8322-2-6.2386-3.729-8.987-1.368-2.1806-3.374-4.6581-4.858-6.0064-1.665-1.5097-4.142-3.2774-6.123-4.3613-3.342-1.8323-7.0513-3.4452-10.7094-4.671-2.6064-.86447-4.4709-1.30318-5.7484-1.34834-.8-.02581-1.0322.03871-1.2774.37419-.1742.23871-.1677.72905.0194 1.64515.3677 1.7613 2.1742 6.8193 3.4451 9.6322 1.2646 2.7807 2.5871 5.3548 3.8 7.3806 2.2323 3.7162 7.0067 10.3871 9.8197 13.7097 1.858 2.1935 4.522 4.858 7.426 7.4128 1.238 1.0968 1.232 1.0904.806.8774-1.542-.7677-4.29-2.5096-5.736-3.6322-1.903-1.4839-4.729-4.2645-6.5544-6.4645-1.6-1.9226-5.6193-7.4838-7.8645-10.8903-1.9419-2.9354-2.8839-4.658-4.8774-8.8838-2.1097-4.4709-3.4065-6.7677-5.1419-9.129-.7484-1.01289-2.3097-2.55482-3.4387-3.39352-2.6129-1.94838-5.7484-3.68386-9.0646-5.00643-.7742-.30968-1.0129-.38064-1.2-.34839-.1225.01936-.329.00645-.4516-.0258-.9484-.28387-3.2774-.70323-4.8322-.87742-.8904-.09677-5.5549-.18064-6.6129-.11613zm33.3225 9.79349c2.3613.4903 6.5033 1.9419 9.742 3.4065 1.2387.5612 3.7227 1.8193 4.7417 2.4064 2.142 1.2258 4.503 3.0064 5.91 4.4451 3.497 3.5936 6.058 8.1032 7.213 12.7226.329 1.3225.477 2.4645.813 6.2838.29 3.3484.645 6.3161 1.032 8.6774.555 3.3806 1.548 6.3742 2.723 8.1871l.283.4451-.793-.0451c-1.336-.0775-5.555-.7226-7.626-1.1678-2.664-.5742-7.516-2.1806-10.781-3.5677-1.329-.5677-3.8899-1.8194-4.8383-2.3677-1.8581-1.071-3.3935-2.3678-4.8968-4.1291-.8451-.9935-1.5355-2.1741-2.0903-3.5806-.8774-2.2129-1.4-4.3484-2.2387-9.1935-.7355-4.2193-1.471-7.9677-1.8129-9.2258-.0194-.0709.1613.2323.3935.6775 1.4517 2.7354 3.2839 5.5548 6.671 10.258 3.6258 5.0387 4.6129 6.258 7.0065 8.7032 3.11 3.1677 5.335 4.8967 8.994 6.9806 2.458 1.4064 5.096 2.5096 6.012 2.5225.633.0065 1.026-.3548 1.026-.9483-.006-.6194-.148-.7742-3.064-3.3291-3.078-2.6967-3.697-3.2645-5.613-5.187-2.774-2.7678-4.613-4.9742-7.523-9.0322-3.0901-4.2968-4.703-6.7355-5.9869-9.0258-1.0516-1.8774-2.6516-5.1161-3.458-7.0064-.942-2.2065-2.8065-7.5419-2.8065-8.0258 0-.0645.2-.0452.9677.1161z" fill="#84cc16"/><path d="m64.2356 30.0662c-.2452.1419-.3613.4516-.2581.7096.542 1.3355.6774 1.9743.6387 2.9291-.0451 1.1226-.3935 1.9548-1.1935 2.8645-.1807.2065-.4.4323-.4903.5033l-.1678.1354-.6451-.1354c-1.2001-.2452-2.5872-.1355-3.9162.3096l-.729.2452-.5678-.7355c-1.3097-1.6903-1.6967-2.7355-1.5161-4.1226.0968-.7677.1677-.9742.4645-1.4258.142-.2129.2581-.4516.2581-.5419 0-.3484-.4452-.671-.8387-.5936-.2452.0516-.6387.4839-.8581.9484-.2968.6323-.3936 1.1613-.3936 2.1742-.0064.8065.013 1 .142 1.4194.2581.8064.7935 1.7677 1.5161 2.6968l.6645.8645-.6838.6838c-1.5097 1.5291-2.2452 3.2065-2.4258 5.5485-.0388.5161-.0581.5935-.1484.5613-.6258-.2517-2.2839-.3807-4.3936-.3355-3.129.058-5.9355.5548-8.8968 1.5613-2.8774.9806-4.7484 1.9742-6.942 3.6774-1.3742 1.071-2.8064 2.8968-4.9097 6.2581-1.2838 2.0581-1.458 2.4774-1.2193 2.9355.2838.5484 1.4.929 3.5484 1.2065.7226.0903 1.3355.1161 3.0645.1161 1.9161-.0065 2.2645-.0194 3.0968-.1484 2.2645-.3548 4.3097-.8581 5.8065-1.4258 3.6838-1.3871 6.1742-3.1291 8-5.5678.7032-.9355 2.4323-3.6516 3.0387-4.7742l.4065-.7548.1806.4838c.3161.8774.7936 1.6065 1.5097 2.3291l.329.3355-.329.2258c-.7097.4903-1.8581 1.8774-2.529 3.0516-1.6517 2.9032-2.2581 7.0774-1.6323 11.342.5161 3.5226 1.9613 6.6387 4.1548 8.9291.2839.2967 1.0388.9806 1.6775 1.5225.6387.542 1.2774 1.1097 1.4258 1.271.5355.5807 1.0451 1.6194 1.3161 2.6968.1742.6903.2194.7613.4968.8839.2968.1226.6.0645.8-.1484.1548-.1613.1548-.1871.1355-1.1419-.0323-1.5033.129-2.0904.8193-2.9097 1-1.2 1.6452-1.9484 2.1355-2.4904 1.4774-1.6193 2.071-2.5548 2.9678-4.6387 1.2387-2.9032 1.7419-5.3807 1.5548-7.6323-.1419-1.6774-.4-2.8387-1.1419-5.0903-.7549-2.2775-1.5162-3.7226-2.7162-5.1162-.2967-.3419-.5354-.6258-.5354-.6387s.1548-.129.3483-.2645c.6968-.4775 1.6001-1.6065 1.8839-2.3484.0581-.1484.1291-.271.1484-.271.0258 0 .2258.3677.4516.8194.5097 1.0258 2 3.6322 2.5226 4.4064 1.2581 1.871 2.7613 3.2904 4.6065 4.3549 1.9742 1.129 3.7677 1.8452 5.8516 2.3226 2.2516.5226 3.3549.6387 5.4323.5935 2.671-.058 4.6581-.4709 5.2452-1.0838.2645-.2775.2903-.7613.0645-1.2517-.3419-.7548-1.9678-3.5548-2.8645-4.9355-1.0517-1.6193-1.871-2.5613-3.1162-3.5548-3.0258-2.4129-6.8323-3.9291-11.4645-4.5549-1.1678-.1613-4.4323-.1613-5.2775 0-.3226.0581-.6387.1226-.6967.1484-.1033.0387-.1097.0065-.0646-.3355.0775-.6322.0516-1.7677-.0645-2.3677-.3613-1.9033-1.6193-4.0065-2.871-4.8259l-.329-.2064.2516-.2774c1.7162-1.8517 2.0774-4.0646 1.0968-6.6194-.2645-.671-.4-.8323-.7677-.8645-.1807-.0194-.3549.0064-.4581.0645zm-2.1807 8.271c.8839.2193 1.5097.5226 1.9936.9677.7032.6516 1.4064 1.8775 1.7806 3.0904.1742.5484.1807.6516.1807 1.8064 0 1.3162-.071 1.871-.3871 2.9355-.3097 1.0387-.9936 2.1226-1.6516 2.6258-.7613.5871-1.9613 1.1226-2.9613 1.3162-1.3097.2516-2.3033.129-3.4775-.4323-.529-.2516-.6903-.3742-1.1935-.8839-.6516-.6645-1.0452-1.329-1.342-2.2709-.3354-1.0839-.3806-1.4259-.3548-2.6581.0258-1.0194.0516-1.2323.2258-1.8903.5807-2.213 2.1871-3.9743 4.0904-4.5097 1.1161-.3097 2.1096-.342 3.0967-.0968zm-10.8774 7.7032c.8645.071 1.5419.1936 1.658.3097.1678.1678-2.3806 4.542-3.6516 6.2581-.9484 1.2774-2.3226 2.542-3.6516 3.3742-.8.4968-3 1.5484-3.9613 1.8968-1.4387.5161-3.7871 1.0645-5.7162 1.329-.8258.1162-4.1677.1162-5.1742.0065-.8645-.0968-2.1097-.3419-2.4258-.471l-.2129-.0903.8129-1.3097c2.071-3.3613 3.3484-5.0839 4.4839-6.0645 3.0194-2.5936 7.5033-4.4323 12.3871-5.0775 1.7033-.2193 3.8452-.2838 5.4517-.1613zm22.3872.542c3.4967.4968 6.6709 1.6322 9.1548 3.271 1.6129 1.058 2.6904 2.0451 3.5484 3.2387.8 1.1226 2.2323 3.4839 3.271 5.3871.2645.4903.2839.4645-.6516.6839-1.942.4516-4.6968.5032-6.8645.129-2.4839-.4322-4.2517-1.0064-6.1678-2-2.3678-1.2323-3.9355-2.6065-5.2-4.5484-.4839-.7484-2.0323-3.4323-2.4129-4.1871-.3226-.6387-.7742-1.6581-.7742-1.742 0-.0903.6193-.2516 1.2-.3225.7871-.0839 4.0645-.0259 4.8968.0903zm-15.3356 5.6645c.4323.1291.6387.1484 1.5613.1484 1.2 0 1.7807-.0968 2.7226-.4516l.5677-.2129.4388.4968c.858.9548 1.4387 1.8451 1.9742 2.9871.2838.6064.7742 1.9226.729 1.9677-.0129.0129-.3097-.0064-.6645-.0451-3.0775-.3033-7.0517-.4775-10.0065-.4323-1.2903.0194-2.342.0194-2.342.0065 0-.0646.4129-1.0517.5871-1.4.2646-.5291.9162-1.4968 1.4452-2.1549.4258-.529.8839-.9419 1.3355-1.1935.1355-.0775.2452-.1613.2452-.1871 0-.0259.2064.0322.4516.1354.2516.1033.6774.2517.9548.3355zm2.3678 9.5356c2.3484.1548 5.2968.6322 6.4064 1.0451l.3355.1226v.5677c0 .3162-.0451.8259-.0967 1.142-.1226.6903-.4194 1.9613-.4581 1.9613-.0194 0-.271-.1161-.5613-.2516-.9355-.4516-2.471-.8258-4.0065-.9807-.9935-.0968-3.7032-.0387-4.8774.1033-1.2065.1483-3.471.5225-4.0839.6838-.2839.071-.5226.1162-.5419.1033-.1355-.142-.342-2.2388-.342-3.5033v-.9161l.6968-.0452c2.3097-.1613 5.3097-.1742 7.5291-.0322zm2.5161 8.1613c1.2387.1935 2.1355.4839 2.0645.671-.0967.2516-.5935 1.0709-.929 1.5096-.5936.7936-2.1484 2.5033-2.2387 2.471-.5549-.2129-3.0129-.2709-3.9291-.0903-.2838.0581-.5613.1226-.6193.1419-.1484.0645-1.4129-1.1935-1.9742-1.9613-.5742-.7806-1.3226-2.0129-1.2581-2.0709.071-.0646 1.6903-.3678 2.7549-.5097.8387-.1097 1.3354-.1613 2.7419-.2839.6-.0516 2.7677.0258 3.3871.1226z" fill="#fde047"/><path d="m112.868 64.3631c-.271.2129-.361.4451-.523 1.3741-.864 4.8129-3 11.5742-5.18 16.3678-.297.658-.858 1.7935-1.239 2.5225-2.923 5.5291-5.671 8.7032-9.6516 11.1355-2.6839 1.6451-4.4968 2.2451-7.0065 2.3226-2.8258.0903-6.9484-.6129-10.3162-1.7549-2.4516-.8322-4.9935-2.0516-10.4193-5-5.0001-2.7161-6.8388-3.5548-9.142-4.1612-1.3936-.3613-1.9678-.4452-3.1161-.4387-2.4452.0064-5.0259.7032-7.2904 1.9741-.871.4904-2.7613 1.7484-4.0645 2.7097-2.8645 2.129-7.1355 6.0774-9.0452 8.3677-1.0968 1.3227-3.5613 4.5417-4.1226 5.3937-.2581.393-.6516 1.084-.871 1.529-.3806.774-.4.839-.4064 1.322-.0065.459.0129.536.1871.82.3226.529.5935.619 1.8903.684 1.2323.051 1.9677.193 3.1032.587 2.8775.987 5.1613 2.264 11.2968 6.309 3.7549 2.471 4.6194 2.981 6.2904 3.671 2 .833 4.8774 1.517 7.129 1.691 1.2388.09 3.7807.045 4.9291-.097 2.3484-.29 4.7226-1.058 7.3419-2.368 2.1613-1.084 5.613-3.432 8.1485-5.535 2.9871-2.491 5.529-5.116 6.1419-6.362.071-.141.1807-.348.2387-.451.2194-.4.0839-.91-.3226-1.252-.3161-.258-1.2903-.761-2.1225-1.09-.6775-.271-4.1614-1.413-5.342-1.755-2.8581-.826-7.342-1.652-10.2904-1.903-3.4645-.29-10.5548-.239-14.3355.103-2.6903.239-4.929.632-7.7419 1.355-1.071.277-3.6452.993-4.0388 1.129-.2322.077.3484-.297 1.4388-.916 1.2838-.742 3.0967-1.632 4.1742-2.058 1.5419-.6067 4.1096-1.2518 6.4903-1.6389 2.3548-.3807 3.5549-.4452 8.9355-.4968 7.342-.0774 8.7355.0387 14.5807 1.2 4.0645.8067 5.2645.9807 7.5613 1.1097 2.7613.148 4.4323-.116 6.8-1.0774.8194-.3355 2.2839-1.0581 3.2194-1.6 2.129-1.2194 5.4254-3.6194 5.5224-4.0258.026-.0904.303-.4581.626-.8129 2.471-2.7613 4.548-6.0903 6.523-10.4452 2.161-4.7871 4.29-11.5225 5.206-16.4838.232-1.2581.219-1.4645-.097-1.8065-.18-.2-.258-.2387-.561-.2645-.29-.0193-.381 0-.529.1162zm-55.2389 24.4193c2.4323.3677 4.6968 1.3419 10.5162 4.5161 1.2774.6968 3.458 1.8322 4.8387 2.529 1.3871.6903 2.4451 1.2452 2.3548 1.2258-.2709-.0645-1.9935-.2968-2.6774-.3613-3.0581-.3097-12.0516-.2903-15.5807.0258-3.3677.3097-7.3807 1.271-10.0323 2.4129-1.4645.6323-3.8968 1.9553-5.2581 2.8643-.9032.607-2.0258 1.497-2.6193 2.078-.5097.496-.6065.632-.7033.948-.1032.31-.1032.4-.0387.652.0904.316.3807.638.671.748.4129.155.7742.077 3.6645-.774 5.613-1.652 8.2194-2.22 11.7033-2.574 2.1355-.213 3.2516-.258 7.0645-.304 5.9549-.064 8.1807.097 12.5485.891 2.8322.522 4.1677.864 7.3355 1.89 1.929.626 3.4903 1.2 3.6193 1.323.142.142-1.6838 2.109-3.3548 3.625-2.1678 1.955-3.9291 3.342-6.0387 4.762-2.9613 1.98-4.742 2.903-7.2581 3.748-4.3291 1.452-10.1807 1.11-14.8194-.871-1.4323-.613-1.8581-.864-5.3871-3.193-6.2581-4.129-9.0001-5.665-11.7743-6.62-1.3226-.458-2.2709-.671-3.4387-.774l-.4645-.039.2-.367c.5484-.962 2.8581-4.071 4.471-6.007 1.7871-2.1482 5.9677-6.0127 8.6839-8.0385 3.7355-2.7871 5.9677-3.871 8.7677-4.2839 1.0129-.1484 2.1678-.1548 3.0065-.0322z" fill="#84cc16"/></g></svg>