<svg fill="none" height="200" viewBox="0 0 161 200" width="161" xmlns="http://www.w3.org/2000/svg"><path d="m75.8101 100.236-13.6759 97.661s-22.2969 8.176-42.5127-8.918l22.1481-94.689-41.7696-84.72851s16.5-6.98671 27.0538-4.60823l36.7158 69.26964 63.6214-54.1076s21.405 7.4323 23.337 14.5671z" fill="#ecdfa7"/><g fill="#3f3e29"><path d="m159.349 109.999c-1.04-2.081-2.377-4.014-3.864-5.798-2.973-3.418-6.541-6.2428-10.405-8.4725-3.717-2.3779-7.879-4.3101-12.041-5.6481l-1.635-.4462-1.338-.4462c-.892-.2975-1.635-.7431-2.378-1.0405-1.487-.8918-2.527-1.7836-3.27-2.9728-1.487-2.2298-1.636-5.6488-.893-9.2158.15-.8924.447-1.7842.744-2.676s.595-1.7835.892-2.824c.297-1.338.446-2.676.446-4.3108l.743-.5949 8.919-7.4323c1.635-1.338 3.27-2.8241 4.905-4.162.595.2974 1.19.743 1.635 1.0405 0 0 4.608.4462 7.135-6.5405l-1.338-.8918.893-.743 2.229-1.933c.744-.5943 1.338-1.3373 1.635-2.6753-1.338-.1487-2.229.2975-2.972.8924l-2.379 1.7829-1.635 1.1899-20.513-14.1221c1.04-.8918 1.932-1.6349 2.973-2.5266l4.31-3.8652.446-.4456c.446.2975.744.595 1.19.8918 1.055.7462 2.147 1.4406 3.27 2.081l6.54 3.5677c2.081 1.1893 4.311 2.3779 6.541 3.419 1.04.5943 2.229 1.0405 3.419 1.4861.594.1487 1.189.4462 1.783.5949.298 0 .744.1481 1.041.1481h.743c.298 0 .595-.1481.892-.5943v-.1487c0-.1487 0-.2975.149-.4456v-.5949c0-.2975-.149-.4456-.298-.595-.148-.2974-.446-.5943-.595-.8917-.445-.4456-.891-1.0405-1.337-1.3374-.892-.8924-1.933-1.6354-2.825-2.3785-1.932-1.4867-4.013-2.824-6.095-4.162-2.08-1.338-4.161-2.5272-6.391-3.5677-1.04-.5949-2.23-1.0405-3.419-1.4867-.595-.1481-1.189-.4456-1.932-.5943-.297 0-.744-.1487-1.19-.1487-.297 0-.445 0-.891.1487-.298.1487-.744.2975-1.19.743-1.04.4462-1.932.8924-2.675 1.4867l-4.46 2.5273c-1.337 1.0405-2.824 2.2297-4.162 3.2702l-1.486-1.0405s-6.243.5943-4.162 4.6076l.594.5949c-5.946 4.9051-11.743 9.9595-17.54 14.8646-5.9456 5.0538-11.7431 10.1076-17.6887 15.3101l-8.7702 7.7304c-.4462.4456-.8924.8918-1.4867 1.3373-.2975-.8917-.7431-1.6348-1.0405-2.3778l-2.081-4.4595-4.0133-8.919c-2.676-5.9462-5.3513-11.8918-8.176-17.838l-8.324-17.6886-1.338-2.6759h1.7842s.5943-4.9051-2.9734-5.7975c0 0-.595 0-1.4861.1494-1.338-2.67598-2.5272-5.35129-3.8652-8.02724l-.5949-2.22975c-.1481-.74304-.5943-1.0405-.8912-1.337972-.2974-.148734-.5949-.297468-.7437-.297468-.4455-.148102-.743-.148102-1.1892-.297469-.743-.148101-1.3367-.148101-1.9316-.148101-1.338 0-2.5266.148734-3.7159.297468-2.3784.297469-4.905.743042-7.2841 1.337342-2.3779.59494-4.7564 1.18987-7.1348 1.93291-1.1893.44557-2.3785.74304-3.419 1.33734l-1.78358.89241c-.29747.1481-.59494.44557-.8924.59494l-.44557.44556c-.14874.14874-.14874.29747-.29747.44557v.59494c.14873.59494.4462.74304.74367.89177.29747.14874.44557.29747.59493.29747.44562.1481.74242.1481 1.03992.29747.5949.1481 1.3379.1481 1.9322.1481 1.1899 0 2.5273-.14873 3.7165-.29747 2.3785-.29747 4.9051-.5943 7.2835-1.0405l7.2836-1.18861c1.1899-.14874 2.3785-.4462 3.7164-.74367 1.0405 2.08101 2.081 4.31076 3.1216 6.39236-6.838.5943-17.5406 1.4861-24.2298 2.2292-.743-1.338-1.3373-2.5266-2.081-3.8646-.1481-.2975-.5943-.5949-1.0405-.4462-.44558.1487-.59495.5949-.44558 1.0405.44558 1.1899.89178 2.2298 1.33798 3.419-2.08165.2975-3.41899.5949-3.56773.8924-.74303 1.3373 1.48608 8.324 4.45953 10.1076 0 0 1.1892-.4462 3.2702-.8924l3.1215 7.1354 8.9184 20.2159 9.0671 20.2164c2.9728 6.6892 6.0949 13.3779 9.2164 20.2158 0 0 0 .1488.1481.1488l-1.3373 4.4595-3.5677 12.4863c-2.2298 8.324-4.3108 16.797-6.3924 25.121l-3.1209 12.635-2.9728 12.636c-2.081 8.472-4.0139 16.796-6.3924 25.12 0 .149 0 .447.1487.595 1.1899 1.635 2.8247 2.824 4.3108 4.014 1.6354 1.189 3.2702 2.081 4.9051 2.972 3.4196 1.785 6.9873 3.122 10.7025 4.311 3.7164 1.041 7.5816 1.784 11.5949 1.932 1.9323.149 4.0133 0 5.9462-.297 1.9323-.297 3.8646-.594 5.9456-1.189.5949-.148 1.0405-.743 1.1899-1.338v-.148c1.6348-8.176 2.9721-16.5 4.4588-24.676l4.162-24.824c1.338-8.324 2.8241-16.5 4.1621-24.824.1487-.892.2974-1.932.4462-2.824.2974.298.4455.743.743 1.041 1.4867 1.783 3.2703 3.27 5.0538 4.607 3.5677 2.528 7.4329 4.46 11.2975 5.946 3.8648 1.487 7.8788 2.676 11.8918 3.568 2.676.595 5.202 1.041 7.878 1.338-1.189 2.676-1.932 5.5-1.784 8.621 0 .298.149.595.446.744h.149c2.824 1.486 5.798 2.675 9.067 3.419 3.122.594 6.541.892 9.811.445 3.419-.445 6.838-1.783 9.514-4.013 2.675-2.23 4.608-5.203 5.797-8.324l.149-.149v-.149l.446-4.013v-.149c1.486-.892 2.973-1.784 4.459-2.973 1.784-1.486 3.419-3.121 4.608-5.202 1.19-2.081 1.932-4.608 1.784-7.135-.149-2.379-1.04-4.757-2.082-6.838zm-2.824-74.918s0 .1481 0 0zm-10.553-7.8785c2.081 1.1893 4.013 2.3785 5.945 3.8646.892.7437 1.933 1.338 2.825 2.2297.445.4462.892.7431 1.189 1.1899l.297.2968h-.297c-.595-.1487-1.04-.2974-1.635-.4462-1.041-.4455-2.23-.8917-3.271-1.3379-2.081-1.0405-4.31-2.081-6.243-3.4184-1.932-1.338-3.864-2.8247-5.5-4.4595-.595-.5949-1.189-1.1899-1.635-1.7842l2.23.8924c1.932.7431 4.013 1.7836 6.095 2.9728zm-10.108-6.5405.148.1488v.2968s0-.1481-.149-.1481v-.2975zm-105.9868-16.64934c-2.0797 1.04114-4.4589 1.78481-6.6873 2.37975-2.3785.59493-4.6083 1.0405-6.9867 1.18924-1.1893.14873-2.3785.14873-3.5678.14873-.5949 0-1.1892 0-1.6348-.14873h-.4462c.1488 0 .1488-.14874.2975-.14874.4462-.29747 1.0405-.44557 1.4867-.74304 1.0405-.4462 2.2297-.74367 3.2703-1.18987 2.2291-.5943 4.6076-1.18861 6.986-1.63481 2.3094-.43399 4.6424-.73176 6.9867-.89177.7431 0 1.4861 0 2.2298-.14874-.4462.44621-1.1899.74367-1.9329 1.18988zm103.1618 50.68984-9.216 7.1348-9.215 7.283c-2.528 2.081-5.054 4.162-7.581 6.0949.148-.1487.297-.4462.446-.5949 1.188-1.6355 2.378-3.1216 3.567-4.6076 2.527-2.9735 4.905-6.095 7.581-8.9197 2.676-2.824 5.5-5.6481 8.324-8.1753 1.487-1.338 2.973-2.5272 4.608-3.5677l1.338-.8918c1.338 1.0405 2.824 2.081 4.162 3.1215-1.189 1.0406-2.675 2.0811-4.013 3.1216zm-108.958-18.2841.743.7436c1.4868 1.4861 2.9728 2.9728 4.1621 4.6076 1.1898 1.6355 2.2297 3.419 2.6759 5.2026.2975 1.4873.2975 3.1221-.4462 4.4594l-.1487-.4455-6.9861-14.5684zm7.2836 15.4594c.4462-.4462.743-1.0405 1.0405-1.7835.4462-1.0405.4462-2.2297.2974-3.2702-.2974-2.2298-1.3379-4.3108-2.6759-5.9463-1.9323-2.5272-4.3102-4.6075-6.9861-6.3917l-1.6354-3.419c-1.0405-2.2298-2.0811-4.4595-3.2703-6.5405 2.2298-.595 4.9051-1.4861 7.8785-2.2298 2.6753 4.3108 5.0538 8.7703 7.2835 13.3785 2.5272 5.7975 5.0538 11.8918 5.5 18.1348.1488 1.4867 0 3.1215 0 4.757 0 1.6348 0 3.2702.1488 4.9051.1487 2.2297.5949 4.6082 1.0405 6.8379zm35.0803 121.1472c-.4455.595-.743 1.041-1.3373 1.486-.7437.595-1.4867.893-2.3785.744-.743-.149-1.338-.892-1.6354-1.635-.2975-.743-.5943-1.635-.5943-2.527-.1488-1.784-.1488-3.568.2974-5.351.2975-1.784.8918-3.419 1.6348-5.055.4462-.743.8924-1.486 1.4867-2.081.595-.595 1.338-1.04 2.0811-.891.743 0 1.4867.743 1.9322 1.486.2975.446.4462.892.595 1.338l-1.7842 10.554c-.1487.743-.1487 1.337-.2975 1.932zm8.7703-51.283-2.6753 15.607c-.1488-1.04-.4462-2.08-.7431-3.121-.7436-2.824-1.6354-5.5-2.5272-8.175-1.9323-5.352-4.162-10.554-6.838-15.459 1.6355 5.5 3.5678 10.702 5.5 16.053 1.0405 2.676 1.9323 5.352 2.8241 7.878l1.338 4.014c0 .149.1487.446.1487.595-.4456 2.378-.8924 4.757-1.1892 7.283l-2.2298 13.527c-.1487-.297-.1487-.595-.2975-.892-.4455-.891-1.0398-1.784-2.2291-2.08-1.0405-.298-2.081.297-2.9734.891-.743.595-1.3373 1.486-1.9323 2.23-1.0405 1.635-1.6348 3.567-1.9322 5.351-.2975 1.933-.4462 3.865 0 5.798.1487.892.4462 1.932 1.0405 2.824.4462.892 1.3379 1.783 2.3784 1.932s2.0811-.446 2.6754-1.189c.2974-.298.5949-.743.8924-1.041-1.0412 6.987-2.2298 13.973-3.2703 21.108-1.3027.438-2.6482.737-4.0139.892-1.7836.298-3.5671.446-5.3513.595-3.7158.148-7.2835-.149-11-1.041-3.5671-.743-7.2835-1.932-10.7025-3.419-3.2703-1.486-6.3918-3.418-8.7703-6.094 2.2298-8.175 4.757-16.351 7.2842-24.527l3.8646-12.338 3.7164-12.486c2.5266-8.324 5.0538-16.649 7.4323-24.973 1.1892-4.162 2.2297-8.324 3.419-12.4863.8918-4.3101 2.6753-8.324 1.3373-13.081v-.1481c-.1487-.1487-.2974-.1487-.2974 0-.7431.7431-1.1886 1.3374-1.7836 2.081-1.6348-3.7164-3.419-7.2841-5.0538-11-.4462-1.3379-.8924-2.6759-1.1892-4.162-.7431-3.1215-1.338-6.2437-1.4867-9.3652-.1481-1.6348-.1481-3.1215-.1481-4.7563 0-1.6355.1481-3.2703 0-4.9051-.595-6.5411-3.1222-12.7842-5.9462-18.581-2.2298-4.6082-4.9051-8.919-7.8785-13.081 4.9051-1.338 10.1082-2.6759 14.2702-3.419.595 1.338 1.338 2.5266 1.9323 3.8646l8.919 17.5405 8.919 17.3917 4.4595 8.6216 2.2297 4.3101c.595.8924.8918 1.9329 1.4861 2.6759l-5.7975 5.3513c-.1481.1487-.2974.4462 0 .7437.1494.2974.595.2974.7437.1487 3.1215-2.2297 6.2431-4.6082 9.3646-6.9867l9.3652-7.1348c6.243-4.757 12.3373-9.5133 18.4326-14.2703 6.094-4.7569 12.188-9.662 18.283-14.5677l.148-.1481c3.271 3.1215 8.176 7.7291 13.379 11.7431-2.23 1.1892-4.31 2.3778-6.243 3.8645-3.122 2.3785-6.095 5.0538-8.771 8.0272-2.675 2.9728-5.202 5.9456-7.432 9.2158-1.635 2.2298-3.121 4.6076-4.607 7.1355-9.0681 7.4323-17.9877 15.0127-26.6086 22.8911-.2975.2975-.2975.7437-.1488 1.0403.2975.298.7431.446 1.0405.298-1.0405 2.972-1.6354 5.946-2.2297 8.919-.8924 4.162-1.7835 8.324-2.5272 12.486zm65.7028 19.919c-2.082 1.635-4.609 2.675-7.284 3.27-2.676.595-5.649.595-8.473.297-2.676-.297-5.5-.743-8.176-1.487-.297-2.378.149-5.053 1.19-7.432 1.04.149 1.932.149 2.972.298.446 0 .744-.149.892-.595.149-.446 0-1.04-.595-1.189-.743-.298-1.337-.446-2.081-.743.595-1.041 1.338-1.933 2.082-2.825.892-.892 1.783-1.783 2.675-2.527 1.933 1.19 3.865 2.081 6.095 2.825 2.527.743 5.203 1.04 8.027.743 2.676-.297 5.5-1.635 7.283-3.865 1.636-1.932 2.379-4.162 2.528-6.54.297.892.297 1.932.148 2.824-.148 1.189-.297 2.527-.595 3.716l-.445 2.23-2.23 1.338c-.892.595-1.635 1.189-2.378 2.526 1.337.447 2.378.298 3.419 0 .148 0 .148-.148.297-.148-.149.446-.149.743-.297 1.189-1.19 2.378-2.973 4.459-5.054 6.095zm14.715-19.473c-.743 1.635-1.932 3.121-3.27 4.459-.595.595-1.338 1.19-1.932 1.635 0-1.338-.149-2.675-.446-4.013-.149-.743-.298-1.338-.595-2.081-.297-.595-.594-1.338-1.337-1.784-.149 0-.298 0-.298.149-.892 2.229-2.378 4.162-4.013 5.5-1.636 1.338-3.717 1.932-5.798 2.081-2.081.148-4.31-.298-6.54-.892-2.23-.595-4.46-1.338-6.689-2.081l-.297-.149c-.446-.149-1.041 0-1.338.297-1.189 1.487-2.081 2.825-3.122 4.311-.743 1.189-1.338 2.23-1.932 3.419-2.676-1.04-5.203-1.932-7.879-2.973-3.716-1.486-7.432-2.973-10.8508-4.757-3.5677-1.634-6.9861-3.567-9.9595-5.797-2.9728-2.23-5.6481-4.608-6.9861-7.581v-.148c-.2849-.582-.7557-1.053-1.3379-1.338 0-.298.1487-.744.1487-1.041.4456-3.567 1.0405-7.135.743-10.8508 12.0405-8.4728 23.7836-17.3924 35.3776-26.6076l-.445 1.3373c-.743 2.2298-1.041 4.757-1.041 7.2836.149 2.5272.892 5.3512 2.527 7.7297s3.865 4.162 6.095 5.2025c1.096.5491 2.241.9969 3.419 1.338l1.783.4462 1.487.2975c3.865 1.0405 7.581 2.5266 11 4.4586 3.418 1.933 6.689 4.311 9.365 6.987 2.675 2.675 4.756 6.095 5.053 9.513.149 2.379-.148 4.162-.892 5.649z"/><path d="m56.9316 156.377c-1.1892 1.635-2.081 3.568-2.5266 5.5-.2974 1.04-.4462 2.081-.4462 2.973l-.1487 2.973c-.2975 3.865-.1487 8.027 1.0405 11.892 1.1899 3.864 2.8247 7.432 4.757 10.851-.595-1.933-1.338-3.716-1.9323-5.5-.5949-1.784-1.1899-3.716-1.6354-5.649-.8925-3.716-.8925-7.581-.7431-11.446l.1487-2.973c0-.891.1488-1.932.2975-2.824.4456-1.783 1.1886-3.567 2.0804-5.202 1.0411-1.636 2.2297-3.122 3.7165-4.46 1.3939-1.385 2.9997-2.539 4.7569-3.419-3.7164 1.487-7.1354 3.865-9.3652 7.284z"/></g></svg>