<svg xmlns="http://www.w3.org/2000/svg" width="450" height="200" viewBox="0 0 450 200">
  <g fill="none" fill-rule="evenodd">
    <g transform="translate(82.161)">
      <polygon fill="#D9EEFC" fill-rule="nonzero" points="368.151 106 185.318 212 0 106 184.137 0 368.151 106" opacity=".5"/>
      <path fill="#0F5CD8" fill-rule="nonzero" d="M182.024132,155.006638 C176.410996,158.140734 176.410996,163.203504 181.961764,166.3376 C187.512531,169.471696 196.555917,169.471696 202.106684,166.3376 C207.657452,163.203504 207.71982,158.140734 202.169052,155.066909 C196.618285,151.993084 187.637268,151.932813 182.024132,155.006638 Z" opacity=".1"/>
      <polygon fill="#FFF" fill-rule="nonzero" stroke="#0F5CD8" stroke-linecap="round" stroke-linejoin="round" points="291.785 41.751 291.6 111.699 231.376 76.787 231.561 6.839"/>
      <polygon fill="#FFF" fill-rule="nonzero" stroke="#0F5CD8" stroke-linecap="round" stroke-linejoin="round" points="231.376 6.839 231.19 76.828 170.968 111.699 171.154 41.71"/>
      <polygon fill="#FFF" fill-rule="nonzero" stroke="#0F5CD8" stroke-linejoin="round" points="231.376 77.084 231.191 147.032 170.968 112.12 171.153 42.172 231.376 77.084"/>
      <polygon fill="#FFF" fill-rule="nonzero" stroke="#0F5CD8" stroke-linejoin="round" points="291.785 42.172 291.598 112.12 231.376 147.032 231.563 77.084"/>
      <polygon fill="#FFF" fill-rule="nonzero" stroke="#0F5CD8" stroke-linecap="round" stroke-linejoin="round" points="231.376 6.278 171.089 41.032 151.591 39.313 211.879 4.559 231.376 6.278"/>
      <path fill="#FFF" fill-rule="nonzero" stroke="#0F5CD8" d="M308.88172,59.6640446 L248.437115,95.0228765 L232.239947,77.5308749 L292.622494,42.172043 L308.88172,59.6640446 Z M232.177889,77.7807606 L219.642149,98.0215054 L159.569892,62.6002021 L172.16769,42.2345144 L232.239947,77.6558178 L232.177889,77.7807606 Z"/>
      <path fill="#FFF" fill-rule="nonzero" stroke="#0F5CD8" stroke-linecap="round" stroke-linejoin="round" d="M303.120746,42.1979472 L292.386165,42.2603092 L231.577553,6.96343362 L242.374184,6.83870968 L303.182796,42.1355852 L303.120746,42.1979472 Z M135.835016,152.516274 L135.835016,155.010753 L68.3870968,115.909797 L68.3870968,113.415318 L135.835016,152.516274 Z"/>
      <path fill="#FFF" fill-rule="nonzero" stroke="#0F5CD8" stroke-linecap="round" stroke-linejoin="round" d="M175.464951,128.549259 L135.705563,151.344958 L68.3870968,112.83871 L108.146485,90.0430108 L175.526882,128.487649 L175.464951,128.549259 Z M175.464951,128.549259 L175.464951,131.013659 L135.643632,153.870968 L135.643632,151.406568 L175.464951,128.549259 Z"/>
      <path fill="#FFF" fill-rule="nonzero" stroke="#0F5CD8" stroke-linecap="round" stroke-linejoin="round" d="M173.356105,78.9950271 L175.526882,77.7510599 L175.402837,128.691517 L173.23206,129.935484 L173.356105,78.9950271 Z M106,39.9966554 L108.232799,38.7526882 L175.46486,77.7510599 L173.294083,78.9950271 L106,39.9966554 Z"/>
      <polygon fill="#FFF" fill-rule="nonzero" stroke="#0F5CD8" stroke-linecap="round" stroke-linejoin="round" points="173.247 78.944 173.124 129.935 106 90.884 106.124 39.892 173.247 78.882"/>
      <path fill="#F48024" fill-rule="nonzero" d="M122.891613,63.2959408 C123.028387,63.3647629 123.096774,63.5712295 123.096774,63.7088738 L123.096774,67.1499826 C123.096774,67.2188047 122.96,67.2876269 122.823226,67.2188047 L119.882581,65.4982504 C119.745806,65.4294282 119.677419,65.2229617 119.677419,65.0853173 L119.677419,61.7130307 C119.677419,61.5753864 119.745806,61.5065642 119.882581,61.5753864 L122.891613,63.2959408 Z M122.549677,66.530583 L122.549677,63.7088738 L120.156129,62.3324303 L120.156129,65.0853173 L122.618065,66.4617608 L122.549677,66.530583 Z"/>
      <path fill="#BBC0C4" fill-rule="nonzero" d="M127.403901,65.4281634 C127.529908,65.490533 127.655914,65.6152721 127.655914,65.8023807 L127.655914,68.9208582 C127.655914,69.0455973 127.529908,69.0455973 127.403901,68.9832277 L124.694764,67.423989 C124.568758,67.3616194 124.505755,67.1745108 124.505755,67.0497717 L124.505755,63.9312942 C124.505755,63.8065551 124.568758,63.8065551 124.694764,63.8689247 L127.403901,65.4281634 Z M127.214892,68.3595322 L127.214892,65.8647503 L124.946777,64.4926202 L124.946777,67.1121412 L127.214892,68.3595322 Z M118.079429,71.6651183 C118.205436,71.7274879 118.268439,71.852227 118.268439,71.976966 L118.268439,75.0954435 C118.268439,75.2201826 118.205436,75.2825521 118.079429,75.157813 L115.370292,73.6609439 C115.222854,73.5919286 115.125926,73.4479989 115.11828,73.2867266 L115.11828,70.1682491 C115.11828,70.04351 115.244286,69.9811405 115.370292,70.04351 L118.079429,71.6651183 Z M117.827417,74.5341176 L117.827417,72.0393356 L115.559302,70.7295751 L115.559302,73.224357 L117.827417,74.5341176 Z"/>
      <path fill="#F48024" fill-rule="nonzero" d="M122.891613,74.3016182 C123.028387,74.3571842 123.096774,74.5238821 123.096774,74.635014 L123.096774,77.4133117 C123.096774,77.5244436 123.028387,77.5244436 122.891613,77.4688776 L119.950968,76.0797288 C119.79093,76.0182421 119.685719,75.8900129 119.677419,75.746333 L119.677419,73.0791673 C119.677419,72.9680354 119.814194,72.9124694 119.950968,72.9680354 L122.891613,74.3016182 Z M122.618065,76.9132181 L122.618065,74.635014 L120.156129,73.5236949 L120.156129,75.746333 L122.618065,76.9132181 Z"/>
      <path fill="#BBC0C4" fill-rule="nonzero" d="M127.46595,76.6769511 C127.592593,76.7340508 127.655914,76.90535 127.655914,77.0195494 L127.655914,79.8174359 C127.655914,79.9316354 127.592593,79.9887351 127.46595,79.9316354 L124.74313,78.5041422 C124.594947,78.4409583 124.49753,78.3091897 124.489845,78.1615439 L124.489845,75.3065577 C124.489845,75.2494579 124.616487,75.1923582 124.74313,75.2494579 L127.46595,76.6769511 Z M127.212664,79.3606381 L127.212664,76.9624497 L124.933094,75.7633555 L124.933094,78.1044442 L127.212664,79.2464387 L127.212664,79.3606381 Z M118.031063,77.6476464 C118.157706,77.7047461 118.284349,77.8189455 118.284349,77.9902447 L118.284349,80.7881312 C118.284349,80.9023307 118.157706,80.9594304 118.031063,80.9023307 L115.308244,79.4748376 C115.181601,79.4177378 115.11828,79.2464387 115.11828,79.1322392 L115.11828,76.277253 C115.11828,76.2201533 115.181601,76.1630535 115.308244,76.2201533 L118.031063,77.6476464 Z M117.841099,80.3313334 L117.841099,77.9902447 L115.561529,76.8482502 L115.561529,79.1322392 L117.841099,80.2742337 L117.841099,80.3313334 Z"/>
      <path fill="#F48024" fill-rule="nonzero" d="M122.823226,81.4651855 C122.96,81.5340077 123.096774,81.671652 123.096774,81.8781186 L123.096774,85.3192273 C123.096774,85.4568717 122.96,85.5256939 122.823226,85.4568717 L119.882581,83.7363173 C119.745806,83.6674951 119.677419,83.4610286 119.677419,83.3233843 L119.677419,79.8822755 C119.677419,79.8134533 119.814194,79.7446311 119.950968,79.8134533 L122.823226,81.4651855 Z M122.618065,84.7686499 L122.618065,81.8781186 L120.156129,80.4328529 L120.156129,83.2545621 L122.618065,84.6310056 L122.618065,84.7686499 Z"/>
      <path fill="#BBC0C4" fill-rule="nonzero" d="M127.382366,83.7772947 C127.51914,83.8455596 127.655914,83.9820894 127.655914,84.1868842 L127.655914,87.6001304 C127.655914,87.7366602 127.51914,87.8049251 127.450753,87.7366602 L124.44172,86.0300371 C124.304946,85.9617722 124.236559,85.7569774 124.236559,85.6204476 L124.236559,82.2072014 C124.236559,82.0706716 124.373333,82.0024067 124.510108,82.1389365 L127.382366,83.7772947 Z M127.177204,86.985746 L127.177204,84.2551491 L124.715269,82.8215857 L124.715269,85.5521827 L127.177204,86.985746 Z"/>
      <path fill="#F48024" fill-rule="nonzero" d="M129.993934,81.571443 L129.993934,82.0573701 L127.655914,80.6603297 L127.655914,80.1744025 L129.993934,81.571443 Z M136.774194,91.8973944 L136.774194,92.3225806 L134.436173,90.9255402 L134.436173,90.439613 L136.774194,91.8366535 L136.774194,91.8973944 Z M136.774194,85.6410827 L136.774194,86.1270098 L134.436173,84.7299693 L134.436173,84.2440422 L136.774194,85.6410827 Z M136.774194,74.4040179 L136.774194,74.8899451 L134.436173,73.4929046 L134.436173,72.9462366 L136.774194,74.4040179 Z"/>
      <path fill="#F48024" fill-rule="nonzero" d="M142.228393,65.6392754 C142.350756,65.7015346 142.473118,65.8260531 142.473118,66.0128308 L142.350756,101.25156 C142.350756,101.438338 142.228393,101.500597 142.10603,101.376078 L111.882469,83.6321953 C111.760106,83.5699361 111.698925,83.3831584 111.698925,83.2586399 L111.760106,48.0199108 C111.760106,47.8953923 111.882469,47.8331331 112.004831,47.8953923 L142.228393,65.6392754 Z M141.922487,100.753486 L141.983668,70.246459 L112.188375,52.751613 L112.127194,83.2586399 L141.922487,100.753486 Z M141.983668,69.6861259 L141.983668,66.0128308 L112.249556,48.580244 L112.249556,52.253539 L141.983668,69.6861259 Z"/>
      <path fill="#BBC0C4" fill-rule="nonzero" d="M118.332473,66.3374578 C118.469247,66.3930089 118.537634,66.5596623 118.537634,66.6707645 L118.537634,69.4483206 C118.537634,69.5038717 118.469247,69.5594228 118.332473,69.5038717 L115.391828,68.1706448 C115.231791,68.1091745 115.12658,67.9809796 115.11828,67.8373381 L115.11828,65.059782 C115.11828,64.9486798 115.255054,64.9486798 115.391828,65.0042309 L118.332473,66.3374578 Z M118.058925,68.9483605 L118.058925,66.6707645 L115.665376,65.5597421 L115.665376,67.781787 L118.058925,68.9483605 Z"/>
      <path fill="#F48024" fill-rule="nonzero" d="M130.898817,88.5961464 L130.898817,89.1008585 L128.41895,87.6498113 L128.41895,87.1450992 L130.898817,88.5961464 Z M134.494624,90.6780836 L134.494624,91.1827957 L132.014757,89.7317485 L132.014757,89.2270365 L134.494624,90.6780836 Z M122.529266,68.8492871 C122.65326,68.9123761 122.715256,69.1016432 122.715256,69.2278212 L122.715256,72.3822715 C122.715256,72.5084496 122.65326,72.5084496 122.529266,72.4453605 L119.863409,70.9312244 C119.739416,70.8681354 119.677419,70.6788683 119.677419,70.5526903 L119.677419,67.39824 C119.677419,67.272062 119.739416,67.2089729 119.863409,67.272062 L122.529266,68.8492871 Z M122.28128,71.8144705 L122.28128,69.2909102 L120.111396,67.902952 L120.111396,70.4896013 L122.343276,71.7513815 L122.28128,71.8144705 Z"/>
      <path fill="#BBC0C4" fill-rule="nonzero" d="M127.452438,71.255073 C127.588089,71.3230739 127.655914,71.5270768 127.655914,71.6630788 L127.655914,75.0631274 C127.655914,75.1991293 127.588089,75.2671303 127.452438,75.1991293 L124.535954,73.499105 C124.377232,73.4238583 124.272885,73.266933 124.264653,73.0910992 L124.264653,69.7590516 C124.196828,69.6910506 124.264653,69.6230496 124.332478,69.5550486 C124.400304,69.4870477 124.468129,69.5550486 124.535954,69.6230496 L127.452438,71.255073 Z M127.181137,74.5191196 L127.181137,71.7310798 L124.807255,70.3030593 L124.807255,73.0230982 L127.181137,74.5191196 Z"/>
      <path fill="#F48024" fill-rule="nonzero" d="M133.86141,83.9232852 L133.86141,84.413755 L131.328554,83.0036543 L131.328554,82.5131845 L133.86141,83.9232852 Z M130.252091,76.1983858 L130.252091,76.6888556 L127.719235,75.2787549 L127.719235,74.7882851 L130.252091,76.1983858 Z M140.066906,91.7708021 L140.066906,92.3225806 L127.655914,85.3946946 L127.655914,84.9042248 L140.066906,91.7708021 Z M133.924731,78.2215737 L133.924731,78.7733523 L131.391876,77.3632516 L131.391876,76.811473 L133.924731,78.2215737 Z M130.252091,70.4966743 L130.252091,70.9871441 L127.719235,69.5770434 L127.719235,69.0865736 L130.252091,70.4966743 Z M140.066906,85.5173121 L140.066906,86.0077819 L127.719235,79.0798959 L127.719235,78.5894261 L140.066906,85.5173121 Z M137.53405,80.2447617 L137.53405,80.7352315 L135.001195,79.3251308 L135.001195,78.834661 L137.53405,80.2447617 Z M133.924731,72.581171 L133.924731,73.0716408 L131.391876,71.6615401 L131.391876,71.1710703 L133.924731,72.581171 Z M140.066906,79.8769093 L140.066906,80.3673791 L127.719235,73.4394931 L127.719235,72.9490233 L140.130227,79.8769093 L140.066906,79.8769093 Z M140.066906,74.1751978 L140.066906,74.6656676 L127.782557,67.7377816 L127.782557,67.2473118 L140.193548,74.1751978 L140.066906,74.1751978 Z"/>
      <path fill="#BBC0C4" fill-rule="nonzero" d="M118.264086,61.0112651 C118.40086,61.0798862 118.537634,61.2171284 118.537634,61.4229917 L118.537634,64.8540468 C118.537634,64.991289 118.40086,64.991289 118.264086,64.9226679 L115.323441,63.2757615 C115.186667,63.2071403 115.11828,63.001277 115.11828,62.8640348 L115.11828,59.4329798 C115.11828,59.2957376 115.186667,59.2271165 115.323441,59.2957376 L118.264086,61.0112651 Z M118.058925,64.2364569 L118.058925,61.4229917 L115.596989,60.0505697 L115.596989,62.8640348 L118.058925,64.2364569 Z"/>
      <path fill="#FFB935" fill-rule="nonzero" d="M145.836679,91.8605057 L145.836679,92.3533856 L144.752688,91.7372857 L144.752688,91.2444057 L145.836679,91.8605057 Z M145.772915,95.4338855 L145.772915,95.9883755 L144.752688,95.3722755 L144.752688,94.8793955 L145.772915,95.4338855 Z M145.772915,99.1304853 L145.772915,99.6233653 L144.752688,99.0688753 L144.752688,98.5759954 L145.772915,99.1920953 L145.772915,99.1304853 Z M159.290924,106.585295 L159.290924,107.139785 L146.920671,100.239465 L146.920671,99.6849753 L159.290924,106.585295 Z M155.082487,100.609125 L155.082487,101.102005 L146.920671,96.6044754 L146.920671,96.1115955 L155.082487,100.609125 Z M162.224077,96.4812554 L160.821265,95.6803255 L162.734191,92.7230456 L162.989247,92.8462656 L161.140086,95.6803255 L162.224077,96.2964255 L162.224077,96.4812554 Z M160.374915,95.4338855 L162.160313,92.6614356 L159.99233,91.4292357 L159.99233,91.1827957 L162.542898,92.5998256 L160.629972,95.6187155 L160.374915,95.4338855 Z M159.290924,99.3769253 L159.290924,99.8698053 L146.920671,92.9694856 L146.920671,92.4766056 L159.290924,99.3769253 Z"/>
      <path fill="#F48024" fill-rule="nonzero" d="M166.161606,87.8503199 C166.285104,87.9131706 166.408602,88.0388719 166.408602,88.227424 L166.285104,119.527061 C166.285104,119.652763 166.223355,119.715613 166.099857,119.652763 L139.239011,103.940093 C139.122667,103.824052 139.056083,103.665919 139.053763,103.500139 L139.053763,100.169053 L139.486007,100.420455 L139.486007,103.500139 L165.852861,119.024256 L165.91461,91.9984646 L142.758708,78.2970169 L142.758708,77.7942115 L165.976359,91.4328085 L165.976359,88.227424 L142.758708,74.5888269 L142.758708,74.0860215 L166.161606,87.8503199 Z"/>
      <polygon fill="#FFB935" fill-rule="nonzero" points="161.577 95.299 161.726 95.172 162.989 95.805 162.989 96.882 159.57 95.235 161.651 92.323 160.165 91.563 160.165 91.753 161.354 92.386 161.205 92.513 159.867 91.879 159.867 91.183 162.097 92.259 159.867 95.172 162.692 96.565 162.692 95.932"/>
      <path fill="#FFF" fill-rule="nonzero" stroke="#021766" stroke-linecap="round" stroke-linejoin="round" d="M181.225806,159.28943 L181.225806,143.612903 L201.741935,143.612903 L201.741935,159.28943 C201.741935,160.838494 200.747214,162.387558 198.757771,163.502884 C194.716716,165.857462 188.188856,165.857462 184.209971,163.502884 C182.220528,162.387558 181.225806,160.838494 181.225806,159.28943 Z"/>
      <path fill="#FFF" fill-rule="nonzero" stroke="#021766" stroke-linecap="round" stroke-linejoin="round" d="M184.252013,139.571022 C180.217071,141.780414 180.217071,145.422925 184.252013,147.632317 C188.286955,149.841709 194.680787,149.901422 198.715729,147.632317 C202.750671,145.363212 202.750671,141.780414 198.715729,139.571022 C194.680787,137.361631 188.286955,137.361631 184.252013,139.571022 Z"/>
      <path stroke="#021766" stroke-linecap="round" stroke-linejoin="round" d="M181.225806,145.892473 C177.419355,145.892473 174.387097,148.924731 174.387097,152.731183 C174.387097,156.537634 177.419355,159.569892 181.225806,159.569892"/>
      <path fill="#FFF" fill-rule="nonzero" stroke="#021766" stroke-linecap="round" stroke-linejoin="round" d="M198.780301,144.126017 C194.219509,141.884458 188.792326,141.884458 184.231534,144.126017 C183.423269,144.597072 182.677178,145.185891 182.11761,145.892473 C180.438907,143.772725 181.122823,141.240805 184.231534,139.592112 C188.272858,137.354601 194.801151,137.354601 198.780301,139.592112 C201.889012,141.240805 202.510754,143.713844 200.83205,145.833591 C200.272482,145.127009 199.588566,144.53819 198.780301,144.126017 Z"/>
      <path fill="#FFB935" fill-rule="nonzero" d="M267.966363,104.765549 L263.524125,107.431358 L269.369176,90.4671168 L270.129032,90.0430108 L264.576234,106.037867 L267.966363,103.977923 L267.966363,104.765549 Z M262.121312,108.27957 L267.674111,92.2241275 L261.010753,96.283428 L261.010753,95.4958025 L268.72622,90.8306362 L262.881169,107.794877 L262.179763,108.218983 L262.121312,108.27957 Z"/>
      <path fill="#FFB935" fill-rule="nonzero" d="M265.13901,105.500698 L265.449513,104.508982 L268.989247,102.463568 L268.989247,106.182503 L259.425754,111.698925 L265.325312,95.2736251 L260.978269,97.7529156 L260.978269,98.4347205 L264.331702,96.5752526 L263.959098,97.5049865 L260.295163,99.6123835 L260.295163,97.381022 L266.443123,93.848033 L260.543565,110.273333 L268.306141,105.748627 L268.306141,103.641231 L265.13901,105.500698 Z M202.168997,109.157652 L197.511451,106.430432 L203.783612,96.3273235 L204.59092,96.7611994 L198.629262,106.306468 L202.168997,108.351883 L202.168997,109.157652 Z M196.021037,105.562681 L201.982695,96.0793945 L194.903226,91.9885651 L194.903226,91.1827957 L203.100506,96.0174122 L196.890445,106.120521 L196.021037,105.624663 L196.021037,105.562681 Z"/>
      <path fill="#FFB935" fill-rule="nonzero" d="M200.015137,106.046522 L200.396696,105.422706 L204.021505,107.481298 L204.021505,111.224191 L194.164567,105.609851 L200.269509,96.0030921 L195.817989,93.5078301 L195.817989,94.1940272 L199.252019,96.1278552 L198.934053,96.7516708 L195.118464,94.5683165 L195.118464,92.3225806 L201.477779,95.878329 L195.309244,105.547469 L203.321981,110.038941 L203.321981,107.855587 L200.015137,106.046522 Z M191.684434,158.571788 L191.81162,158.322261 L193.337856,158.322261 L193.337856,159.569892 L189.204301,159.569892 L191.748027,155.203184 L189.840233,155.203184 L189.840233,155.390329 L191.366468,155.390329 L191.175689,155.702236 L189.58586,155.702236 L189.58586,154.891276 L192.256772,154.891276 L189.713046,159.257985 L193.083483,159.257985 L193.083483,158.634169 L191.684434,158.571788 Z"/>
      <path fill="#FFB935" fill-rule="nonzero" d="M190.896709,158.430108 L193.659824,154.117408 L190.344086,154.117408 L190.344086,153.870968 L194.212447,153.870968 L191.311176,158.430108 L190.896709,158.430108 Z M193.79798,158.430108 L191.587488,158.430108 L194.557836,153.932578 L194.903226,153.932578 L192.140111,158.183668 L193.79798,158.183668 L193.79798,158.430108 Z"/>
      <path fill="#0F5CD8" fill-rule="nonzero" d="M148.442656,159.569892 L174.387097,174.4148 L138.783151,194.903226 L112.83871,179.996976 L148.442656,159.569892 Z M138.783151,194.351142 L173.458298,174.4148 L148.442656,160.060633 L113.767508,180.058318 L138.783151,194.351142 Z"/>
      <polygon fill="#FFF" fill-rule="nonzero" points="174.387 173.883 139.305 193.763 113.978 179.511 149.061 159.57 174.325 173.883 174.387 173.883"/>
      <path fill="#FFB935" fill-rule="nonzero" d="M152.731183,171.055418 L157.530277,170.069065 L155.550651,168.819686 L155.730617,168.688172 L158.010187,170.200579 L152.911149,171.186931 L152.731183,171.055418 Z M154.410866,172.107527 L153.091115,171.318445 L158.250141,170.266336 L158.430108,170.463606 L153.631013,171.384202 L154.650821,172.04177 L154.410866,172.107527 Z"/>
      <polygon fill="#FFB935" fill-rule="nonzero" points="154.089 171.008 154.345 171.008 155.433 171.558 154.473 172.108 151.591 170.52 156.714 169.604 155.433 168.871 155.241 168.993 156.266 169.543 155.946 169.543 154.857 168.993 155.497 168.688 157.29 169.665 152.168 170.581 154.473 171.802 154.985 171.558"/>
      <path fill="#000" fill-rule="nonzero" d="M142.034739,174.387097 L141.800937,174.499207 L142.034739,174.387097 Z M141.391784,174.723427 L141.333333,174.723427 L141.391784,174.723427 Z M147.938241,175.732417 L147.82134,175.732417 L147.762889,175.788472 L147.587538,175.900582 C147.412186,176.012692 147.236835,176.068747 147.003033,176.068747 L146.769231,176.068747 L146.535429,176.180857 L145.366419,176.405077 C144.660303,176.613869 143.936735,176.763904 143.20375,176.853517 L142.794596,177.021682 C142.677695,177.021682 142.794596,177.077737 142.677695,177.133792 L142.443893,177.133792 L142.443893,177.189847 L142.326992,177.189847 L142.210091,177.301957 L142.09319,177.301957 L142.034739,177.358012 L141.917838,177.358012 L141.917838,177.414067 L141.800937,177.414067 L141.684036,177.470122 L141.684036,177.526177 L141.625586,177.582232 L141.567135,177.694342 C141.450234,177.694342 141.567135,177.750397 141.450234,177.806452 L141.333333,177.806452 L141.333333,177.638287 C141.684036,177.301957 142.15164,177.021682 142.619245,176.853517 L142.736146,176.853517 L143.145299,176.629297 L143.20375,176.629297 L143.963606,176.349022 L144.022057,176.349022 L144.197408,176.236912 L144.489661,176.124802 L144.548111,176.124802 L144.840364,176.012692 L145.015715,175.956637 L145.132616,175.956637 C145.191067,175.956637 145.307968,175.844527 145.424869,175.900582 L145.600221,175.844527 L145.834023,175.732417 L147.119934,175.452142 L147.996691,175.452142 C148.113593,175.508197 148.172043,175.620307 148.172043,175.676362 L147.938241,175.732417 Z M146.886132,176.068747 L147.87979,175.676362 L147.587538,175.788472 L147.470637,175.788472 L147.236835,175.844527 L146.243176,176.068747 L145.249518,176.292967 L144.606562,176.405077 L145.658671,176.124802 L147.353736,175.732417 L147.82134,175.508197 L147.236835,175.508197 L146.71078,175.620307 L146.769231,175.620307 L146.65233,175.620307 L146.418528,175.676362 L146.418528,175.732417 L145.834023,175.844527 L145.892473,175.844527 L145.015715,176.124802 L144.548111,176.292967 L144.43121,176.292967 L144.197408,176.349022 L143.963606,176.461132 L144.548111,176.349022 L144.255859,176.405077 L144.255859,176.461132 L145.015715,176.461132 L145.48332,176.349022 L145.717122,176.349022 L145.834023,176.292967 L146.067825,176.292967 C146.126275,176.292967 146.243176,176.292967 146.360077,176.180857 L146.944582,176.180857 L146.886132,176.068747 Z M143.671354,176.573242 L143.905156,176.461132 L143.671354,176.573242 L143.437552,176.685352 L143.671354,176.573242 Z M145.132616,176.012692 L145.015715,176.124802 L145.132616,176.068747 L145.249518,176.068747 L145.074166,176.068747 L145.132616,176.012692 Z M144.37276,176.292967 L144.138958,176.405077 L144.37276,176.292967 Z M143.20375,176.741407 L143.379101,176.629297 L143.2622,176.685352 L143.20375,176.741407 Z M144.138958,176.405077 L144.022057,176.461132 L144.138958,176.405077 Z M144.840364,176.180857 L144.957265,176.124802 L144.840364,176.124802 L144.840364,176.180857 Z M145.717122,175.844527 L145.658671,175.844527 L145.717122,175.844527 Z M141.625586,177.358012 L141.742487,177.358012 L141.625586,177.358012 Z M144.548111,176.180857 L144.489661,176.180857 L144.548111,176.180857 Z M145.48332,175.900582 L145.366419,175.900582 L145.48332,175.900582 Z M143.379101,176.573242 L143.437552,176.573242 L143.379101,176.573242 Z M144.37276,176.349022 L144.37276,176.405077 L144.37276,176.349022 Z M142.09319,177.133792 L142.15164,177.133792 L142.09319,177.133792 Z M146.65233,175.564252 L146.593879,175.564252 L146.65233,175.564252 Z"/>
      <path fill="#0F5CD8" fill-rule="nonzero" d="M138.819102,185.256958 L138.383302,185.491619 L129.542785,180.681056 L129.978585,180.446395 L138.819102,185.256958 Z M134.647872,185.550285 L134.274329,185.784946 L128.795699,182.793011 L129.231499,182.558349 L134.710129,185.491619 L134.647872,185.550285 Z M143.612903,185.374288 L143.177103,185.60895 L129.356013,178.099779 L129.791813,177.806452 L143.612903,185.374288 Z"/>
      <path fill="#000" fill-rule="nonzero" d="M147.057455,180.160826 L147.119564,180.160826 L147.057455,180.160826 Z M148.672284,181.420692 C149.541807,181.987632 150.597657,182.050625 151.591398,182.365591 L150.783983,182.176612 L150.908201,182.176612 L150.287113,182.050625 L149.852351,182.050625 L149.790243,181.987632 L149.666025,181.987632 L148.672284,181.672665 C148.175414,181.357699 148.672284,181.042732 149.169155,180.916746 C149.603916,180.853752 150.038678,180.916746 150.411331,181.105725 C150.535548,181.294705 150.287113,181.420692 150.100787,181.483685 L149.169155,181.357699 C149.044937,181.357699 148.982828,181.231712 149.044937,181.168719 L148.672284,181.231712 L148.672284,181.420692 Z M149.603916,181.861645 C149.440331,181.793271 149.274622,181.730245 149.107046,181.672665 L149.169155,181.735658 L149.603916,181.861645 Z M149.41759,181.231712 L149.231263,181.231712 C149.603916,181.357699 149.976569,181.357699 150.349222,181.294705 C150.038678,181.168719 149.728134,181.168719 149.41759,181.168719 L149.41759,181.231712 Z M145.75317,178.90096 L145.566844,178.90096 L145.566844,178.963953 L145.380518,178.963953 L144.75943,178.90096 L144.262559,178.837967 L144.014124,178.837967 L144.510994,178.837967 L144.262559,178.837967 L144.573103,178.963953 L144.076233,178.963953 L144.076233,178.90096 L143.952015,178.837967 L143.330927,178.71198 L142.958274,178.648987 L142.709839,178.585994 L142.585621,178.460007 C142.399295,178.33402 142.461404,178.145041 142.64773,178.019054 C143.268818,177.830074 143.889906,177.767081 144.510994,177.830074 L144.75943,177.956061 L144.821538,177.956061 L144.945756,178.145041 L144.510994,178.145041 L144.573103,178.145041 C143.952015,178.019054 143.330927,178.019054 142.709839,178.208034 L142.709839,178.33402 L142.834057,178.33402 L143.144601,178.460007 C144.014124,178.648987 144.883647,178.837967 145.75317,178.90096 Z M143.330927,178.71198 L143.827797,178.837967 L143.330927,178.71198 Z M144.635212,178.837967 L144.945756,178.837967 L144.821538,178.837967 C144.821538,178.90096 144.697321,178.837967 144.697321,178.837967 L144.635212,178.837967 Z M143.579362,178.837967 L143.765689,178.90096 L143.579362,178.90096 L143.579362,178.837967 Z"/>
      <path fill="#000" fill-rule="nonzero" d="M146.650611,178.825771 C146.403056,179.150101 145.784168,179.150101 145.350946,179.214966 L144.917725,179.085235 L144.793947,179.020369 C144.793947,178.760906 145.103391,178.566308 145.412835,178.501442 L145.66039,178.501442 L145.66039,178.371711 L145.846057,178.371711 L146.464944,178.501442 L146.650611,178.825771 Z M145.16528,178.955503 C145.598501,179.020369 146.031723,178.955503 146.403056,178.760906 L146.217389,178.760906 C145.846057,178.631174 145.412835,178.69604 145.041502,178.890637 L145.16528,178.955503 Z M149.311828,180.252819 L149.002384,180.382551 L148.878607,180.382551 L148.631051,180.447417 L148.445385,180.512283 L148.321608,180.512283 L148.259719,180.642014 L147.950275,180.642014 L147.517053,180.836612 L147.393276,180.836612 C147.393276,180.966343 147.20761,180.966343 147.145721,181.031209 L147.145721,181.096075 C147.145721,181.160941 147.083832,181.160941 147.145721,181.225806 L147.021943,181.225806 C146.898166,181.160941 146.960054,181.031209 146.960054,180.966343 C147.083832,180.642014 147.764609,180.512283 148.135941,180.317685 C147.826497,180.382551 147.517053,180.317685 147.20761,180.252819 L147.083832,180.187953 L147.145721,180.058222 C147.145721,179.92849 147.331387,179.863624 147.517053,179.798759 L145.846057,179.92849 C145.412835,179.604161 146.217389,179.409564 146.588722,179.279832 L147.393276,179.020369 L147.517053,179.020369 L147.517053,179.214966 L146.279278,179.604161 L146.898166,179.604161 L147.517053,179.539295 L148.012164,179.539295 L148.012164,179.669027 L147.888386,179.733893 L147.70272,179.863624 L147.393276,179.993356 L149.064273,179.993356 L149.18805,179.92849 L149.311828,179.92849 L149.311828,180.252819 Z M147.640831,179.604161 L147.764609,179.604161 L147.269498,179.604161 L146.464944,179.669027 L147.70272,179.669027 L147.640831,179.604161 Z M148.754829,180.123088 L148.940495,180.123088 L147.764609,180.123088 L148.569163,180.123088 L148.569163,179.993356 L148.754829,179.993356 L148.754829,180.123088 Z M147.517053,180.058222 L147.640831,180.058222 L147.455165,180.058222 L147.517053,180.058222 Z M148.383496,180.187953 L148.259719,180.187953 L148.383496,180.187953 Z M140.214178,175.777078 C141.080621,176.166273 141.947064,176.425737 142.875395,176.620334 L142.380285,176.555468 L142.504063,176.555468 L141.885175,176.425737 L141.204398,176.425737 C140.833066,176.360871 140.523622,176.231139 140.214178,176.036542 C139.719068,175.712213 140.214178,175.387884 140.709288,175.258152 C141.14251,175.258152 141.575731,175.323018 141.947064,175.517615 C142.070841,175.647347 141.823286,175.777078 141.575731,175.841944 L140.709288,175.777078 C140.585511,175.647347 140.523622,175.582481 140.585511,175.517615 L140.214178,175.582481 L140.214178,175.777078 Z M141.14251,176.231139 C140.979504,176.160733 140.814382,176.095833 140.647399,176.036542 L140.709288,176.036542 L141.14251,176.231139 Z M140.956843,175.582481 L140.771177,175.582481 C141.14251,175.712213 141.513842,175.712213 141.885175,175.582481 L140.956843,175.582481 Z M139.657179,175.063555 L139.533401,175.063555 L139.657179,175.063555 Z M140.0904,174.868957 L140.214178,174.868957 L140.0904,174.868957 Z M141.266287,174.025702 L141.328176,174.025702 L141.266287,174.025702 Z M137.862405,173.766238 L137.800516,173.766238 L137.862405,173.766238 Z M137.491072,173.831104 L137.552961,173.831104 L137.491072,173.831104 Z M136.686518,174.090567 L136.624629,174.090567 L136.686518,174.090567 Z M136.748407,174.090567 L136.686518,174.090567 L136.748407,174.090567 Z M136.872184,174.090567 L136.748407,174.090567 L136.872184,174.090567 Z M136.995962,173.960836 L136.872184,173.960836 L136.995962,173.960836 L137.119739,173.89597 L137.05785,173.89597 L136.995962,173.960836 Z M136.500851,174.090567 L136.624629,174.090567 L136.500851,174.090567 Z M137.305406,173.89597 L137.367294,173.89597 L137.305406,173.89597 Z M135.634409,173.377043 L136.005741,173.247312 C135.881964,173.247312 135.758186,173.247312 135.634409,173.377043 Z M138.543181,173.571641 L138.481292,173.571641 L138.543181,173.571641 Z M138.481292,173.571641 L138.419403,173.571641 L138.790736,173.571641 L138.481292,173.571641 Z M138.419403,173.571641 L138.481292,173.636507 L138.233737,173.636507 L138.357515,173.636507 L138.419403,173.571641 Z M138.914514,173.571641 L138.790736,173.571641 L138.914514,173.571641 Z M139.780957,175.063555 L139.780957,174.998689 L139.780957,175.063555 Z M136.872184,174.090567 L136.810295,174.090567 L136.872184,174.090567 Z M136.56274,174.220299 L136.438963,174.220299 L136.56274,174.220299 Z M138.10996,174.609494 L137.800516,174.804091 L137.924293,174.67436 L138.048071,174.67436 C138.171848,174.67436 138.171848,174.479762 138.295626,174.479762 L138.666959,174.285165 C138.666959,174.285165 138.481292,174.285165 138.481292,174.414896 C138.481292,174.544628 138.419403,174.479762 138.357515,174.544628 L138.233737,174.609494 L138.171848,174.739225 L138.10996,174.609494 Z M140.894955,174.220299 L140.956843,174.220299 L140.894955,174.220299 Z M142.442174,176.620334 L142.504063,176.620334 L142.442174,176.620334 Z"/>
      <path fill="#000" fill-rule="nonzero" d="M141.642053,174.727967 C141.582188,174.855793 141.342727,174.919707 141.282862,174.98362 L140.803942,175.239272 L140.325021,175.431012 L140.265156,175.431012 C140.145426,175.431012 140.025696,175.622751 139.965831,175.622751 L138.648799,176.134057 L137.571228,176.325796 L137.391633,176.325796 L137.391633,176.19797 C137.391633,176.006231 137.451498,175.814491 137.571228,175.686665 L137.750823,175.494925 L137.930418,175.431012 L138.050148,175.303186 L137.870553,175.494925 C137.870553,175.494925 137.631093,175.622751 137.690958,175.686665 L137.631093,175.686665 L137.990283,175.494925 L138.349474,175.239272 L138.648799,175.047533 C138.708664,175.047533 138.888259,174.98362 138.828394,174.919707 C138.948125,174.919707 138.948125,174.79188 139.00799,174.855793 L139.00799,174.727967 L139.307315,174.536228 L139.187585,174.536228 L139.187585,174.600141 L138.888259,174.600141 L138.888259,174.727967 C139.067855,174.536228 139.24745,174.472314 139.48691,174.344488 L139.72637,174.152748 L137.331768,174.664054 L136.792982,174.664054 L136.194331,174.919707 L134.637839,174.919707 C134.518109,174.855793 134.458244,174.727967 134.518109,174.600141 C134.518109,174.408401 134.937165,174.152748 135.11676,173.961009 L135.416085,173.897096 L136.014736,173.57753 L136.194331,173.513617 L136.314061,173.449704 L136.493656,173.38579 L136.613387,173.38579 L136.972577,173.194051 L137.391633,173.066225 L137.750823,172.938398 C137.870553,172.938398 137.930418,172.874485 137.990283,172.938398 L139.48691,172.427093 L139.666505,172.427093 L140.025696,172.299266 L140.684212,172.107527 C140.863807,172.17144 141.043402,172.299266 140.983537,172.427093 L140.684212,172.427093 C140.325021,172.427093 139.905966,172.618832 139.48691,172.682745 L138.948125,172.874485 L138.529069,172.938398 L138.169879,173.066225 L137.750823,173.194051 L137.511363,173.194051 L137.092307,173.321877 L136.792982,173.449704 L136.673252,173.449704 C136.613387,173.57753 136.493656,173.641443 136.373926,173.641443 L136.254196,173.641443 L135.655545,173.961009 L135.47595,174.088835 C135.176625,174.152748 134.877299,174.344488 134.697704,174.600141 L135.47595,174.600141 L136.074601,174.536228 L136.134466,174.536228 L136.972577,174.280575 L137.032442,174.280575 L137.631093,174.088835 L137.750823,174.088835 L137.451498,174.088835 L137.511363,174.088835 L137.451498,174.088835 L137.032442,174.216662 L136.852847,174.216662 L136.673252,174.344488 L136.613387,174.344488 L137.032442,174.344488 L136.972577,174.344488 L137.032442,174.280575 L137.092307,174.280575 C137.212037,174.280575 137.271902,174.152748 137.331768,174.216662 C137.391633,174.280575 137.451498,174.152748 137.571228,174.088835 L137.631093,174.088835 L137.990283,173.961009 L138.110013,173.897096 L138.169879,173.897096 L138.588934,173.769269 L139.48691,173.769269 L139.427045,173.705356 L138.768529,173.705356 L139.00799,173.705356 L138.768529,173.705356 L138.529069,173.833183 L138.110013,173.897096 L138.349474,173.897096 L138.110013,173.897096 L138.050148,173.961009 L137.690958,174.088835 L137.750823,174.024922 L138.349474,173.833183 L138.648799,173.833183 L139.546775,173.641443 L140.085561,173.641443 L140.085561,173.769269 L139.905966,173.961009 L139.307315,174.408401 L139.067855,174.408401 L138.768529,174.600141 L138.648799,174.664054 C138.529069,174.664054 138.469204,174.79188 138.349474,174.855793 L138.050148,175.111446 L137.990283,175.111446 C137.750823,175.303186 137.511363,175.431012 137.511363,175.622751 L137.631093,175.622751 C137.843024,175.616552 138.049614,175.550385 138.229744,175.431012 L138.469204,175.367099 L138.648799,175.303186 L138.888259,175.239272 L139.12772,175.111446 L139.36718,175.111446 L139.48691,175.047533 L139.546775,175.047533 L139.786236,174.919707 L139.905966,174.855793 C139.905966,174.79188 140.025696,174.855793 140.025696,174.855793 L140.205291,174.727967 L140.444751,174.727967 L140.564482,174.600141 L140.744077,174.600141 L140.863807,174.536228 L140.923672,174.472314 L141.043402,174.472314 L141.043402,174.408401 L141.163132,174.344488 L141.282862,174.344488 L141.222997,174.344488 L141.282862,174.344488 L141.402593,174.280575 L141.522323,174.216662 L141.642053,174.152748 L141.701918,174.024922 L141.522323,174.152748 L141.821648,173.961009 L141.881513,173.961009 L142.001243,173.833183 C142.001243,173.833183 142.240704,173.705356 142.240704,173.57753 L142.300569,173.57753 L142.420299,173.705356 C142.420299,173.833183 142.120973,173.897096 142.061108,173.961009 L141.821648,174.088835 L141.701918,174.216662 L141.522323,174.216662 L141.522323,174.280575 L140.923672,174.600141 L140.863807,174.600141 L140.624347,174.79188 L140.384886,174.79188 C140.384886,174.79188 140.325021,174.919707 140.205291,174.855793 L140.205291,174.98362 C139.965831,174.98362 139.786236,175.111446 139.60664,175.175359 L138.708664,175.558838 L138.469204,175.558838 C138.349474,175.558838 138.229744,175.686665 138.169879,175.750578 L138.409339,175.750578 L138.349474,175.750578 L138.529069,175.750578 L138.948125,175.558838 L139.067855,175.558838 L139.12772,175.494925 L139.187585,175.494925 L139.36718,175.431012 L139.24745,175.431012 L139.427045,175.367099 L139.546775,175.367099 L139.72637,175.239272 L139.846101,175.239272 L139.965831,175.175359 L140.085561,175.175359 L140.325021,174.98362 L140.504616,174.98362 L140.684212,174.855793 L140.504616,174.855793 L140.744077,174.855793 L140.624347,174.855793 L140.744077,174.855793 L140.923672,174.79188 L140.803942,174.79188 L140.923672,174.664054 L140.983537,174.664054 L141.163132,174.536228 L141.342727,174.536228 L141.462458,174.408401 L141.402593,174.408401 L141.522323,174.408401 L141.642053,174.280575 L141.462458,174.408401 L141.642053,174.408401 L141.821648,174.280575 L141.881513,174.280575 L142.001243,174.152748 L141.941378,174.216662 L141.941378,174.152748 L142.180839,174.024922 L142.240704,174.024922 L142.420299,173.961009 L142.480164,173.961009 L142.480164,173.833183 C142.540029,173.833183 142.599894,173.961009 142.480164,173.961009 L142.300569,174.152748 C142.120973,174.408401 141.881513,174.600141 141.642053,174.727967 Z M136.433791,174.727967 L136.433791,174.79188 L136.553522,174.79188 L136.553522,174.727967 L136.433791,174.727967 L136.493656,174.727967 L136.433791,174.727967 L136.493656,174.727967 L136.433791,174.727967 L136.373926,174.79188 L136.254196,174.79188 L136.254196,174.855793 L136.493656,174.855793 L136.433791,174.727967 Z M139.786236,174.024922 L139.965831,174.024922 L139.546775,174.024922 L139.786236,174.024922 Z M137.631093,173.321877 L137.212037,173.449704 L137.631093,173.321877 Z M135.954871,174.919707 L136.014736,174.919707 L135.835141,174.919707 C135.835141,174.919707 135.71541,174.919707 135.775276,174.98362 L135.954871,174.98362 L135.954871,174.919707 Z M136.673252,173.641443 C136.553522,173.641443 136.433791,173.641443 136.314061,173.769269 L136.673252,173.641443 Z M137.032442,173.513617 L136.733117,173.641443 L137.032442,173.513617 Z M135.895006,173.961009 C135.895006,173.961009 135.71541,173.961009 135.71541,174.088835 C135.71541,174.216662 135.895006,174.024922 135.895006,173.961009 Z M134.937165,174.536228 L135.176625,174.408401 L134.937165,174.536228 Z M138.229744,173.130138 L138.050148,173.130138 L138.229744,173.130138 Z M135.35622,174.216662 L135.59568,174.088835 L135.35622,174.216662 Z M135.655545,174.98362 L135.535815,174.98362 L135.655545,174.98362 Z M140.803942,174.919707 L140.863807,174.98362 L140.923672,174.919707 L140.803942,174.919707 Z M135.47595,174.088835 L135.655545,174.088835 L135.47595,174.088835 Z M137.092307,173.38579 L137.032442,173.38579 L137.092307,173.38579 Z M136.194331,173.769269 L136.314061,173.769269 L136.194331,173.769269 Z M137.990283,173.130138 L137.810688,173.130138 L137.930418,173.130138 L137.990283,173.130138 Z M139.12772,174.727967 L139.067855,174.727967 L138.948125,174.855793 L139.067855,174.79188 L139.12772,174.727967 Z M137.331768,173.38579 L137.212037,173.38579 L137.331768,173.38579 Z M139.546775,174.024922 L139.48691,174.024922 L139.546775,174.024922 Z M139.307315,174.472314 L139.427045,174.472314 L139.307315,174.472314 Z M136.553522,174.727967 L136.493656,174.79188 L136.553522,174.79188 L136.553522,174.727967 Z M138.648799,172.938398 L138.588934,172.938398 L138.648799,172.938398 Z M136.553522,173.705356 C136.553522,173.705356 136.493656,173.705356 136.553522,173.705356 Z M134.99703,174.344488 L135.056895,174.344488 L134.99703,174.344488 Z M135.35622,174.216662 L135.23649,174.280575 L135.35622,174.216662 Z M145.832608,176.645362 L145.892473,176.645362 L145.832608,176.645362 Z M145.233957,178.882323 L145.174092,178.882323 L145.473418,178.946237 L145.233957,178.946237 L145.233957,178.882323 Z"/>
      <path fill="#FFF" fill-rule="nonzero" d="M118.537634,111.883132 L116.244655,113.14956 L113.830993,111.883132 L116.244655,110.55914 L118.537634,111.883132 Z M112.986211,114.934072 L110.632891,116.258065 L108.27957,114.991637 L110.632891,113.667644 L112.986211,114.991637 L112.986211,114.934072 Z"/>
      <path fill="#0F5CD8" fill-rule="nonzero" d="M120.817204,119.107527 L120.750158,119.225436 L117.666034,120.817204 L117.196711,120.817204 L114.045541,119.225436 L113.978495,119.107527 L114.045541,118.989618 L117.129665,117.397849 L117.598988,117.397849 L120.750158,118.989618 L120.817204,119.107527 Z M117.397849,120.463478 L119.945604,119.107527 L117.330803,117.81053 L114.783049,119.107527 L117.397849,120.463478 Z"/>
      <polygon fill="#FFF" fill-rule="nonzero" points="124.237 121.932 121.957 123.097 119.677 121.932 121.957 120.817"/>
      <path fill="#0F5CD8" fill-rule="nonzero" d="M126.516129,122.526882 L126.449734,122.644791 L123.395553,124.236559 L122.930786,124.236559 L119.81021,122.644791 C119.736872,122.644791 119.677419,122.592001 119.677419,122.526882 L119.81021,122.408973 L122.864391,120.817204 L123.329158,120.817204 L126.383339,122.408973 L126.516129,122.526882 Z M123.196367,123.882833 L125.719386,122.526882 L123.129972,121.170931 L120.540557,122.526882 L123.196367,123.882833 Z"/>
      <polygon fill="#FFF" fill-rule="nonzero" points="129.935 125.402 127.597 126.516 125.376 125.402 127.597 124.237"/>
      <path fill="#0F5CD8" fill-rule="nonzero" d="M131.075269,125.677902 L130.952049,125.800569 L128.117989,127.456579 L127.686719,127.456579 L124.852659,125.800569 C124.784607,125.800569 124.729439,125.745649 124.729439,125.677902 L124.852659,125.555234 L127.686719,123.899224 L128.117989,123.899224 L130.952049,125.555234 L131.075269,125.677902 Z M127.933159,127.027243 L130.274339,125.677902 L127.871549,124.267226 L125.530369,125.677902 L127.933159,127.027243 Z M125.407149,129.296591 L125.283929,129.419258 L122.511479,131.075269 L122.018599,131.075269 L101.56408,119.299195 C101.496028,119.299195 101.44086,119.244275 101.44086,119.176527 L101.56408,119.05386 L104.39814,117.397849 L104.82941,117.397849 L125.283929,129.173924 L125.407149,129.296591 Z M122.265039,130.707267 L124.667829,129.296591 L104.64458,117.765852 L102.18018,119.176527 L122.265039,130.707267 Z"/>
      <polygon fill="#FFF" fill-rule="nonzero" points="125.376 129.584 122.99 131.075 102.581 118.889 105.03 117.398"/>
      <path fill="#0F5CD8" fill-rule="nonzero" d="M115.11828,115.747126 L114.984187,115.865035 L111.967109,117.397849 L111.497786,117.397849 L108.413662,115.865035 C108.339605,115.865035 108.27957,115.812246 108.27957,115.747126 L108.413662,115.629218 L111.43074,114.037449 L111.698925,113.978495 L111.967109,113.978495 L115.051233,115.629218 L115.11828,115.747126 Z M111.765971,117.044123 L114.313725,115.747126 L111.631879,114.391175 L109.084124,115.747126 L111.765971,117.044123 Z"/>
      <polygon fill="#FFF" fill-rule="nonzero" points="129.935 118.563 127.597 119.677 125.376 118.563 127.597 117.398"/>
      <path fill="#0F5CD8" fill-rule="nonzero" d="M149.311828,129.365591 L149.244782,129.4835 L146.160658,131.075269 L145.691335,131.075269 L142.607211,129.4835 C142.533153,129.4835 142.473118,129.430711 142.473118,129.365591 L142.607211,129.247683 L145.624288,127.655914 L146.160658,127.655914 L149.244782,129.247683 L149.311828,129.365591 Z M145.959519,130.662588 L148.507274,129.365591 L145.892473,128.00964 L143.277672,129.365591 L145.959519,130.662588 Z"/>
      <polygon fill="#FFF" fill-rule="nonzero" points="141.333 132.19 138.995 133.355 136.774 132.24 138.995 131.075 141.333 132.24 141.333 132.19"/>
      <path fill="#0F5CD8" fill-rule="nonzero" d="M143.612903,132.725992 L143.545857,132.902855 L140.461733,134.435669 L140.193548,134.494624 L139.99241,134.494624 L136.84124,132.902855 L136.774194,132.784946 L136.84124,132.667037 L139.925364,131.075269 L140.394687,131.075269 L143.478811,132.667037 L143.612903,132.784946 L143.612903,132.725992 Z M140.260595,134.081943 L142.808349,132.784946 L140.126502,131.428995 L137.578748,132.784946 L140.193548,134.081943 L140.260595,134.081943 Z"/>
      <polygon fill="#FFF" fill-rule="nonzero" points="135.634 128.77 133.355 129.935 131.075 128.77 133.355 127.656"/>
      <path fill="#0F5CD8" fill-rule="nonzero" d="M136.673726,129.238949 L136.611367,129.365591 L133.742851,131.075269 L133.306337,131.075269 L130.437821,129.365591 C130.368941,129.365591 130.313103,129.308891 130.313103,129.238949 L130.437821,129.112306 L133.243978,127.46595 L133.493414,127.402628 L133.742851,127.402628 L136.611367,129.112306 L136.673726,129.238949 Z M133.555773,130.695341 L135.925418,129.238949 L133.431055,127.845878 L131.061411,129.238949 L133.555773,130.695341 Z M142.473118,125.819594 L142.410759,125.946237 L139.542243,127.655914 L139.292806,127.719235 L139.105729,127.719235 L136.174854,125.946237 L136.112495,125.819594 L136.174854,125.692951 L139.04337,124.046595 L139.292806,123.983274 L139.479884,123.983274 L142.410759,125.692951 L142.473118,125.819594 Z M139.355166,127.275986 L141.72481,125.819594 L139.230447,124.426523 L136.860803,125.882915 L139.355166,127.275986 Z M136.673726,122.46356 L136.611367,122.590203 L133.742851,124.363202 L133.306337,124.363202 L130.437821,122.653524 C130.368941,122.653524 130.313103,122.596825 130.313103,122.526882 L130.437821,122.400239 L133.306337,120.690562 L133.742851,120.690562 L136.673726,122.46356 L136.673726,122.526882 L136.673726,122.46356 Z M133.555773,123.919952 L135.925418,122.46356 L133.493414,121.007168 L131.061411,122.46356 L133.555773,123.919952 Z M130.874334,119.107527 L130.874334,119.23417 L127.943459,120.880526 L127.756381,120.943847 L127.506945,120.943847 L124.638429,119.23417 L124.57607,119.107527 L124.638429,118.980884 L127.506945,117.271207 L127.943459,117.271207 L130.811975,118.980884 L130.874334,119.107527 Z M127.756381,120.500597 L130.126025,119.107527 L127.694022,117.651135 L125.324378,119.107527 L127.756381,120.500597 Z M125.137301,108.912784 L125.074942,109.039427 L122.206425,110.749104 L121.769912,110.749104 L118.839037,109.039427 L118.776677,108.912784 L118.839037,108.786141 L121.707553,107.076464 L122.144066,107.076464 L125.012583,108.786141 L125.137301,108.912784 Z M122.019348,110.369176 L124.388992,108.912784 L121.89463,107.456392 L119.524986,108.912784 L122.019348,110.369176 Z M130.874334,112.332139 L130.874334,112.39546 L127.943459,114.105137 L127.756381,114.168459 L127.506945,114.168459 L124.638429,112.39546 L124.57607,112.268817 L124.638429,112.142174 L127.506945,110.495818 L127.694022,110.432497 L127.943459,110.432497 L130.811975,112.142174 L130.874334,112.268817 L130.874334,112.332139 Z M127.756381,113.725209 L130.126025,112.268817 L127.694022,110.875747 L125.324378,112.268817 L127.756381,113.725209 Z M119.400268,112.332139 L119.337909,112.458781 L116.469392,114.168459 L116.032879,114.168459 L113.164363,112.458781 C113.095483,112.458781 113.039644,112.402081 113.039644,112.332139 L113.102003,112.205496 L115.97052,110.495818 L116.407033,110.495818 L119.337909,112.205496 L119.400268,112.332139 Z M116.282315,113.78853 L118.651959,112.332139 L116.157597,110.875747 L113.787953,112.332139 L116.282315,113.78853 Z M125.137301,115.688172 L125.074942,115.814815 L122.206425,117.524492 L121.769912,117.524492 L118.839037,115.814815 L118.776677,115.688172 L118.839037,115.561529 L121.707553,113.915173 L121.956989,113.851852 L122.144066,113.851852 L125.012583,115.561529 L125.137301,115.688172 Z M122.019348,117.144564 L124.388992,115.688172 L121.89463,114.295102 L119.524986,115.688172 L122.019348,117.144564 Z M107.801484,105.55675 L107.739125,105.683393 L104.870608,107.39307 L104.434095,107.39307 L101.565578,105.683393 C101.496698,105.683393 101.44086,105.626693 101.44086,105.55675 L101.565578,105.430108 L104.434095,103.72043 L104.870608,103.72043 L107.739125,105.430108 L107.801484,105.55675 Z M104.683531,106.949821 L107.053175,105.55675 L104.621172,104.100358 L102.189169,105.55675 L104.683531,106.949821 Z"/>
      <polygon fill="#FFF" fill-rule="nonzero" points="112.839 109.394 110.559 110.559 108.28 109.394 110.559 108.28"/>
      <path fill="#0F5CD8" fill-rule="nonzero" d="M107.899642,112.16733 L107.83632,112.292237 L104.923536,113.978495 L104.480287,113.978495 L101.567503,112.292237 C101.49756,112.292237 101.44086,112.236314 101.44086,112.16733 L101.567503,112.042422 L104.480287,110.356164 L104.923536,110.356164 L107.83632,112.042422 L107.899642,112.16733 Z M104.733572,113.603771 L107.139785,112.16733 L104.670251,110.730888 L102.200717,112.16733 L104.733572,113.603771 Z M113.78853,108.794815 L113.725209,108.919723 L110.812425,110.60598 L110.369176,110.60598 L107.456392,108.919723 C107.386449,108.919723 107.329749,108.8638 107.329749,108.794815 L107.456392,108.669907 L110.369176,107.046104 L110.55914,106.98365 L110.812425,106.98365 L113.725209,108.669907 L113.725209,108.794815 L113.78853,108.794815 Z M110.622461,110.231256 L113.028674,108.794815 L110.495818,107.420828 L108.089606,108.794815 L110.622461,110.231256 Z M119.677419,105.484755 L119.550777,105.609663 L116.637993,107.233466 L116.448029,107.29592 L116.194743,107.29592 L113.281959,105.609663 C113.212017,105.609663 113.155317,105.55374 113.155317,105.484755 L113.281959,105.359847 L116.194743,103.67359 L116.637993,103.67359 L119.550777,105.359847 C119.614098,105.359847 119.677419,105.359847 119.677419,105.484755 Z M116.448029,106.858742 L118.854241,105.484755 L116.384707,104.048313 L113.978495,105.484755 L116.448029,106.858742 Z M113.78853,102.174694 L113.725209,102.237148 L110.812425,103.923406 L110.369176,103.923406 L107.456392,102.237148 C107.386449,102.237148 107.329749,102.181225 107.329749,102.11224 L107.456392,101.987332 L110.369176,100.363529 L110.55914,100.301075 L110.812425,100.301075 L113.725209,101.987332 C113.725209,101.987332 113.78853,102.049786 113.725209,102.11224 L113.78853,102.174694 Z M110.622461,103.548682 L113.028674,102.11224 L110.495818,100.738253 L108.089606,102.11224 L110.622461,103.548682 Z"/>
      <path fill="#FFF" fill-rule="nonzero" d="M113.045177,102.869245 L110.662374,104.235525 L108.27957,102.807141 L110.662374,101.44086 L113.045177,102.807141 L113.045177,102.869245 Z M118.727247,106.160739 L116.283346,107.52702 L113.96164,106.160739 L116.283346,104.732355 L118.727247,106.160739 Z M124.34822,109.452233 L121.965416,110.880618 L119.582613,109.452233 L121.965416,108.023849 L124.34822,109.452233 Z M130.03029,112.805831 L127.586389,114.172112 L125.264683,112.743728 L127.586389,111.377447 L130.03029,112.743728 L130.03029,112.805831 Z M135.651263,116.097326 L133.268459,117.463606 L130.885656,116.097326 L133.268459,114.668941 L135.651263,116.097326 Z M141.333333,119.38882 L138.889432,120.817204 L136.567726,119.38882 L138.889432,118.022539 L141.333333,119.38882 Z"/>
      <path fill="#0F5CD8" fill-rule="nonzero" d="M143.612903,119.030514 L143.548608,119.153734 L140.591012,120.817204 L140.140943,120.817204 L137.119052,119.153734 C137.048033,119.153734 136.99046,119.098567 136.99046,119.030514 L137.119052,118.907294 L140.076647,117.305434 L140.33383,117.243824 L140.526716,117.243824 L143.548608,118.907294 L143.612903,119.030514 Z M140.398125,120.447544 L142.841356,119.030514 L140.269534,117.675094 L137.826303,119.030514 L140.398125,120.447544 Z M137.633416,115.765185 L137.56912,115.888405 L134.611525,117.551874 L134.161456,117.551874 L131.20386,115.888405 C131.132841,115.888405 131.075269,115.833237 131.075269,115.765185 L131.20386,115.641965 L134.161456,113.978495 L134.611525,113.978495 L137.56912,115.641965 L137.633416,115.765185 Z M134.418638,117.120604 L136.861869,115.765185 L134.354342,114.348155 L131.846816,115.765185 L134.418638,117.120604 Z"/>
      <polygon fill="#FFF" fill-rule="nonzero" points="146.975 121.982 144.724 123.097 142.473 121.982 144.724 120.817 147.032 121.982"/>
      <path fill="#0F5CD8" fill-rule="nonzero" d="M149.031266,122.603894 L148.96697,122.727114 L146.009374,124.390584 L145.559305,124.390584 L142.601709,122.727114 C142.53069,122.727114 142.473118,122.671947 142.473118,122.603894 L142.601709,122.480674 L145.49501,120.817204 L146.009374,120.817204 L148.96697,122.480674 L149.031266,122.603894 Z M145.816487,124.020924 L148.259719,122.603894 L145.687896,121.186864 L143.244665,122.603894 L145.816487,124.020924 Z M155.010753,125.869224 C155.010753,125.869224 155.010753,125.992444 154.882162,125.992444 L151.924566,127.655914 L151.474497,127.655914 L148.516901,125.992444 L148.452605,125.869224 L148.516901,125.746004 L151.474497,124.082534 L151.924566,124.082534 L154.882162,125.746004 L155.010753,125.869224 Z M151.731679,127.286254 L154.239206,125.869224 L151.667384,124.513804 L149.224152,125.869224 L151.731679,127.286254 Z"/>
      <path fill="#FFF" fill-rule="nonzero" d="M153.870968,126.320271 L151.365946,127.759283 L148.986175,126.320271 L151.428571,124.943824 L153.870968,126.320271 Z M107.465438,106.299228 L105.085667,107.73824 L102.580645,106.299228 L105.085667,104.860215 L107.465438,106.299228 Z M124.87534,116.309749 L122.432943,117.748762 L119.990547,116.309749 L122.432943,114.933303 L124.87534,116.309749 Z M136.461066,123.004286 L134.01867,124.443298 L131.576273,123.004286 L134.01867,121.565273 L136.461066,123.004286 Z M142.285242,126.320271 L139.78022,127.759283 L137.400449,126.320271 L139.78022,124.943824 L142.285242,126.382837 L142.285242,126.320271 Z M148.046792,129.698822 L145.604396,131.075269 L143.161999,129.698822 L145.604396,128.25981 L148.046792,129.698822 Z"/>
      <path fill="#0F5CD8" fill-rule="nonzero" d="M102.580645,108.849462 L102.446553,108.967371 L99.429475,110.500185 L99.1612903,110.55914 L98.8931056,110.55914 L95.8089817,108.967371 L95.7419355,108.849462 L95.8089817,108.731554 L98.8931056,107.139785 L99.3624288,107.139785 L102.446553,108.731554 L102.580645,108.849462 Z M99.1612903,110.146459 L101.776091,108.849462 L99.0942441,107.493511 L96.5464896,108.849462 L99.1612903,110.146459 Z"/>
      <path fill="#FFF" fill-rule="nonzero" d="M101.673925,109.679403 L99.3081534,111.018374 L96.8817204,109.679403 L99.3081534,108.27957 L101.673925,109.679403 Z M107.254721,112.905105 L104.94961,114.304938 L102.523177,112.905105 L104.94961,111.566134 L107.254721,112.905105 Z M118.476974,119.417371 L116.232523,120.817204 L113.80609,119.417371 L116.232523,118.017538 L118.537634,119.417371 L118.476974,119.417371 Z"/>
      <path fill="#0F5CD8" fill-rule="nonzero" d="M103.879191,96.9226734 C104.003005,97.0473677 104.064912,97.172062 103.879191,97.2344092 L103.445843,97.2344092 L103.32203,97.1097149 L103.445843,96.9850206 C103.569657,96.8603263 103.755378,96.8603263 103.879191,96.9226734 Z M105.055421,97.6708393 L105.179235,97.7955336 L105.055421,97.9202279 L104.622073,97.9202279 C104.553693,97.9202279 104.49826,97.8644004 104.49826,97.7955336 L104.622073,97.6708393 L105.055421,97.6708393 Z M106.293558,98.356658 C106.417372,98.356658 106.417372,98.5436995 106.293558,98.6060466 L105.86021,98.6060466 C105.79183,98.6060466 105.736397,98.5502191 105.736397,98.4813523 L105.86021,98.356658 L106.293558,98.356658 Z M107.469788,99.0424767 L107.593602,99.167171 L107.469788,99.2918653 L107.03644,99.2918653 C106.96806,99.2918653 106.912627,99.2360378 106.912627,99.167171 L107.03644,99.0424767 L107.469788,99.0424767 Z M102.579147,97.7331864 C102.702961,97.7955336 102.702961,97.9202279 102.579147,97.9825751 C102.455334,98.0449222 102.207706,98.0449222 102.083893,97.9825751 C102.015512,97.9825751 101.960079,97.9267475 101.960079,97.8578807 L102.083893,97.7331864 C102.207706,97.6708393 102.455334,97.6708393 102.579147,97.7331864 Z M103.755378,98.4190051 L103.879191,98.5436995 L103.755378,98.6683938 C103.631564,98.7307409 103.383936,98.7307409 103.260123,98.6683938 L103.136309,98.5436995 L103.260123,98.4190051 C103.383936,98.356658 103.631564,98.356658 103.755378,98.4190051 Z M104.993514,99.1048239 C105.117328,99.167171 105.117328,99.2918653 104.993514,99.3542125 C104.869701,99.4165596 104.622073,99.4165596 104.49826,99.3542125 C104.429879,99.3542125 104.374446,99.2983849 104.374446,99.2295182 L104.49826,99.1048239 C104.622073,99.0424767 104.869701,99.0424767 104.993514,99.1048239 Z M106.169745,99.8529897 L106.293558,99.977684 L106.169745,100.102378 C106.045931,100.164725 105.798303,100.164725 105.67449,100.102378 C105.606109,100.102378 105.550676,100.046551 105.550676,99.977684 L105.67449,99.8529897 C105.798303,99.7906426 106.045931,99.7906426 106.169745,99.8529897 Z M101.217197,98.4813523 C101.34101,98.6060466 101.402917,98.7307409 101.217197,98.7930881 L100.783849,98.7930881 L100.660035,98.6683938 L100.783849,98.5436995 C100.907663,98.4190051 101.093383,98.4190051 101.217197,98.4813523 Z M102.393427,99.2295182 L102.517241,99.3542125 L102.393427,99.4789068 L101.960079,99.4789068 C101.891699,99.4789068 101.836265,99.4230792 101.836265,99.3542125 L101.960079,99.2295182 L102.393427,99.2295182 Z M103.631564,99.8529897 C103.755378,99.977684 103.755378,100.102378 103.631564,100.164725 C103.50775,100.227073 103.260123,100.227073 103.136309,100.164725 C103.067929,100.164725 103.012495,100.108898 103.012495,100.040031 L103.136309,99.9153369 C103.260123,99.8529897 103.50775,99.8529897 103.631564,99.9153369 L103.631564,99.8529897 Z M104.807794,100.601156 C104.931608,100.663503 104.931608,100.788197 104.807794,100.850544 L104.374446,100.850544 C104.250632,100.850544 104.250632,100.663503 104.374446,100.601156 L104.807794,100.601156 Z M99.917153,99.2295182 C100.040967,99.3542125 100.040967,99.4789068 99.917153,99.5412539 C99.7933393,99.6036011 99.5457119,99.6036011 99.4218982,99.5412539 C99.3535178,99.5412539 99.2980845,99.4854264 99.2980845,99.4165596 L99.4218982,99.2918653 C99.5457119,99.2295182 99.7933393,99.2295182 99.917153,99.2918653 L99.917153,99.2295182 Z M101.093383,99.977684 L101.217197,100.102378 L101.093383,100.227073 C100.907663,100.28942 100.783849,100.28942 100.598128,100.227073 L100.474315,100.102378 L100.598128,99.977684 C100.721942,99.9153369 100.969569,99.9153369 101.093383,99.977684 Z M102.33152,100.663503 C102.455334,100.72585 102.455334,100.850544 102.33152,100.912891 C102.207706,100.975239 101.960079,100.975239 101.836265,100.912891 C101.767885,100.912891 101.712452,100.857064 101.712452,100.788197 L101.836265,100.663503 C101.960079,100.601156 102.207706,100.601156 102.33152,100.663503 Z M103.50775,101.349321 L103.631564,101.474016 L103.50775,101.59871 C103.383936,101.661057 103.136309,101.661057 103.012495,101.59871 L102.888682,101.474016 L103.012495,101.349321 C103.136309,101.286974 103.383936,101.286974 103.50775,101.349321 Z M98.5552023,100.040031 C98.7409229,100.164725 98.7409229,100.227073 98.5552023,100.351767 L98.1218544,100.351767 C97.9980407,100.227073 97.9980407,100.164725 98.1218544,100.040031 L98.5552023,100.040031 Z M99.7314324,100.788197 L99.8552461,100.912891 L99.7314324,101.037586 L99.2980845,101.037586 C99.2297041,101.037586 99.1742708,100.981758 99.1742708,100.912891 L99.2980845,100.788197 L99.7314324,100.788197 Z M100.969569,101.474016 C101.093383,101.474016 101.093383,101.661057 100.969569,101.723404 L100.536221,101.723404 C100.467841,101.723404 100.412408,101.667577 100.412408,101.59871 L100.536221,101.474016 L100.969569,101.474016 Z M102.145799,102.159834 L102.269613,102.284529 L102.145799,102.409223 C102.021986,102.47157 101.774358,102.47157 101.650545,102.409223 C101.582164,102.409223 101.526731,102.353396 101.526731,102.284529 L101.650545,102.159834 C101.774358,102.097487 102.021986,102.097487 102.145799,102.159834 Z M97.1932517,100.850544 C97.3789722,100.912891 97.3789722,101.037586 97.1932517,101.099933 L96.7599037,101.099933 C96.63609,101.037586 96.63609,100.912891 96.7599037,100.850544 C96.8837174,100.788197 97.1313448,100.788197 97.2551585,100.850544 L97.1932517,100.850544 Z M98.4313886,101.536363 L98.5552023,101.661057 L98.4313886,101.785752 C98.3075749,101.848099 98.0599475,101.848099 97.9361338,101.785752 L97.8123201,101.661057 L97.9361338,101.536363 C98.0599475,101.474016 98.3075749,101.474016 98.4313886,101.536363 Z M99.6695256,102.222182 C99.7933393,102.284529 99.7933393,102.409223 99.6695256,102.47157 C99.5457119,102.533917 99.2980845,102.533917 99.1742708,102.47157 C99.1058904,102.47157 99.0504571,102.415743 99.0504571,102.346876 L99.1742708,102.222182 C99.2980845,102.159834 99.5457119,102.159834 99.6695256,102.222182 Z M100.845756,102.970347 L100.969569,103.095042 L100.845756,103.219736 C100.721942,103.282083 100.474315,103.282083 100.350501,103.219736 C100.28212,103.219736 100.226687,103.163909 100.226687,103.095042 L100.350501,102.970347 C100.474315,102.908 100.721942,102.908 100.845756,102.970347 Z M95.9551147,101.59871 C96.0170216,101.723404 96.0789284,101.785752 95.9551147,101.910446 C95.831301,101.972793 95.5836736,101.972793 95.4598599,101.910446 C95.3360462,101.785752 95.3360462,101.723404 95.4598599,101.59871 L95.9551147,101.59871 Z M97.069438,102.346876 L97.1932517,102.47157 L97.069438,102.596265 L96.63609,102.596265 C96.5677096,102.596265 96.5122763,102.540437 96.5122763,102.47157 L96.63609,102.346876 L97.069438,102.346876 Z M98.3075749,102.970347 C98.4313886,103.095042 98.4313886,103.219736 98.3075749,103.282083 C98.1837612,103.34443 97.9361338,103.34443 97.8123201,103.282083 C97.7439397,103.282083 97.6885064,103.226256 97.6885064,103.157389 L97.8123201,103.032695 C97.9361338,102.970347 98.1837612,102.970347 98.3075749,103.032695 L98.3075749,102.970347 Z M99.483805,103.718513 L99.6076187,103.843208 L99.483805,103.967902 L99.0504571,103.967902 C98.9820767,103.967902 98.9266434,103.912074 98.9266434,103.843208 L99.0504571,103.718513 L99.483805,103.718513 Z M94.5931641,102.346876 C94.7169778,102.47157 94.7169778,102.596265 94.5931641,102.658612 C94.4693504,102.720959 94.221723,102.720959 94.0979093,102.658612 C93.9740956,102.596265 93.9740956,102.47157 94.0979093,102.409223 C94.221723,102.346876 94.4693504,102.346876 94.5931641,102.409223 L94.5931641,102.346876 Z M95.7693942,103.095042 L95.8932079,103.219736 L95.7693942,103.34443 C95.6455805,103.406778 95.3979531,103.406778 95.2741394,103.34443 L95.1503257,103.219736 L95.2741394,103.095042 C95.3979531,103.032695 95.6455805,103.032695 95.7693942,103.095042 Z M97.0075311,103.78086 C97.1313448,103.843208 97.1313448,103.967902 97.0075311,104.030249 C96.8837174,104.092596 96.63609,104.092596 96.5122763,104.030249 C96.4438959,104.030249 96.3884626,103.974422 96.3884626,103.905555 L96.5122763,103.78086 C96.63609,103.718513 96.8837174,103.718513 97.0075311,103.78086 Z M98.1837612,104.466679 L98.3075749,104.591373 L98.1837612,104.716068 C98.0599475,104.778415 97.8123201,104.778415 97.6885064,104.716068 L97.5646928,104.591373 L97.6885064,104.466679 C97.8123201,104.404332 98.0599475,104.404332 98.1837612,104.466679 Z M93.2312134,103.157389 C93.3550271,103.282083 93.416934,103.34443 93.2312134,103.469125 L92.7978655,103.469125 C92.6740518,103.34443 92.6740518,103.282083 92.7978655,103.157389 L93.2312134,103.157389 Z M94.4074435,103.905555 L94.5312572,104.030249 L94.4074435,104.154943 L93.9740956,104.154943 C93.9057152,104.154943 93.8502819,104.099116 93.8502819,104.030249 L93.9740956,103.905555 L94.4074435,103.905555 Z M95.6455805,104.591373 C95.7693942,104.591373 95.7693942,104.778415 95.6455805,104.840762 C95.5217668,104.903109 95.2741394,104.903109 95.1503257,104.840762 C95.0819453,104.840762 95.026512,104.784935 95.026512,104.716068 L95.1503257,104.591373 C95.2741394,104.529026 95.5217668,104.529026 95.6455805,104.591373 Z M96.8218106,105.277192 L96.9456243,105.401887 L96.8218106,105.526581 L96.3884626,105.526581 C96.3200822,105.526581 96.2646489,105.470753 96.2646489,105.401887 L96.3884626,105.277192 L96.8218106,105.277192 Z M91.9311696,103.967902 C92.0549833,104.030249 92.0549833,104.154943 91.9311696,104.217291 C91.8073559,104.279638 91.5597285,104.279638 91.4359148,104.217291 C91.3121011,104.154943 91.3121011,104.030249 91.4359148,103.967902 C91.5597285,103.905555 91.8073559,103.905555 91.9311696,103.967902 Z M93.1073997,104.653721 L93.2312134,104.778415 L93.1073997,104.903109 C92.983586,104.965456 92.7359586,104.965456 92.6121449,104.903109 L92.4883312,104.778415 L92.6121449,104.653721 C92.7359586,104.591373 92.983586,104.591373 93.1073997,104.653721 Z M94.3455367,105.339539 C94.4693504,105.401887 94.4693504,105.526581 94.3455367,105.588928 C94.221723,105.651275 93.9740956,105.651275 93.8502819,105.588928 C93.7819015,105.588928 93.7264682,105.5331 93.7264682,105.464234 L93.8502819,105.339539 C93.9740956,105.277192 94.221723,105.277192 94.3455367,105.339539 Z M95.5217668,106.087705 L95.6455805,106.2124 L95.5217668,106.337094 C95.3979531,106.399441 95.1503257,106.399441 95.026512,106.337094 C94.9581316,106.337094 94.9026983,106.281266 94.9026983,106.2124 L95.026512,106.087705 C95.1503257,106.025358 95.3979531,106.025358 95.5217668,106.087705 Z M90.569219,104.716068 C90.6930327,104.840762 90.7549395,104.903109 90.569219,105.027804 L90.135871,105.027804 C90.0120573,104.903109 90.0120573,104.840762 90.135871,104.716068 L90.569219,104.716068 Z M91.7454491,105.464234 C91.9311696,105.526581 91.9311696,105.651275 91.7454491,105.775969 L91.3121011,105.775969 L91.1882874,105.651275 L91.3121011,105.526581 C91.4359148,105.401887 91.6216354,105.401887 91.7454491,105.464234 Z M92.983586,106.087705 C93.1073997,106.2124 93.1073997,106.337094 92.983586,106.399441 L92.5502381,106.399441 C92.4818577,106.399441 92.4264244,106.343613 92.4264244,106.274747 L92.5502381,106.150052 L92.983586,106.150052 L92.983586,106.087705 Z M94.1598161,106.835871 L94.2836298,106.960565 L94.1598161,107.08526 L93.7264682,107.08526 C93.6580878,107.08526 93.6026545,107.029432 93.6026545,106.960565 L93.7264682,106.835871 L94.1598161,106.835871 Z M157.057173,128.844417 C157.180987,128.906764 157.180987,129.031458 157.057173,129.093805 C156.93336,129.156153 156.685732,129.156153 156.561919,129.093805 C156.438105,129.093805 156.438105,128.906764 156.561919,128.844417 C156.747639,128.78207 156.871453,128.78207 157.057173,128.844417 Z M158.233404,129.530236 C158.357217,129.65493 158.357217,129.779624 158.233404,129.841971 C158.047683,129.904318 157.923869,129.904318 157.738149,129.841971 C157.614335,129.779624 157.614335,129.65493 157.738149,129.530236 C157.923869,129.467888 158.047683,129.467888 158.233404,129.530236 Z M159.47154,130.216054 L159.595354,130.340749 L159.47154,130.465443 C159.347727,130.52779 159.100099,130.52779 158.976286,130.465443 C158.852472,130.403096 158.852472,130.278401 158.976286,130.153707 L159.47154,130.216054 Z M160.585864,130.96422 L160.709677,131.088914 L160.585864,131.213609 L160.152516,131.213609 C160.084135,131.213609 160.028702,131.157781 160.028702,131.088914 L160.152516,130.96422 L160.585864,130.96422 Z M155.695223,129.592583 C155.819036,129.717277 155.819036,129.841971 155.695223,129.904318 L155.261875,129.904318 C155.138061,129.841971 155.138061,129.717277 155.261875,129.592583 L155.695223,129.592583 Z M156.871453,130.340749 L156.995267,130.465443 L156.871453,130.590137 L156.438105,130.590137 C156.314291,130.590137 156.314291,130.403096 156.438105,130.340749 L156.871453,130.340749 Z M158.10959,131.026567 C158.233404,131.088914 158.233404,131.213609 158.10959,131.275956 C157.985776,131.338303 157.738149,131.338303 157.614335,131.275956 C157.490521,131.275956 157.490521,131.088914 157.614335,131.026567 C157.738149,130.96422 157.985776,130.96422 158.10959,131.026567 Z M159.28582,131.712386 L159.409634,131.83708 L159.28582,131.961775 C159.162006,132.024122 158.914379,132.024122 158.790565,131.961775 L158.666751,131.83708 L158.790565,131.712386 C158.976286,131.650039 159.100099,131.650039 159.28582,131.712386 Z M154.395179,130.403096 C154.518993,130.465443 154.518993,130.590137 154.395179,130.652484 C154.271365,130.714831 154.023738,130.714831 153.899924,130.652484 C153.77611,130.652484 153.77611,130.465443 153.899924,130.403096 C154.085645,130.340749 154.209458,130.340749 154.395179,130.403096 Z M155.571409,131.088914 L155.695223,131.213609 L155.571409,131.338303 C155.385689,131.40065 155.261875,131.40065 155.076154,131.338303 C154.952341,131.275956 154.952341,131.151262 155.076154,131.026567 L155.571409,131.088914 Z M156.809546,131.774733 C156.93336,131.899427 156.93336,131.961775 156.809546,132.086469 C156.685732,132.148816 156.438105,132.148816 156.314291,132.086469 C156.190478,131.961775 156.190478,131.899427 156.314291,131.774733 C156.438105,131.712386 156.685732,131.712386 156.809546,131.774733 Z M157.985776,132.522899 L158.10959,132.647593 L157.985776,132.772288 C157.861962,132.834635 157.614335,132.834635 157.490521,132.772288 C157.422141,132.772288 157.366708,132.71646 157.366708,132.647593 L157.490521,132.522899 C157.676242,132.460552 157.800056,132.460552 157.985776,132.522899 Z M153.033228,131.151262 L153.157042,131.275956 L153.033228,131.40065 L152.59988,131.40065 L152.476067,131.275956 L152.59988,131.151262 L153.033228,131.151262 Z M154.209458,131.899427 L154.333272,132.024122 L154.209458,132.148816 L153.77611,132.148816 C153.652297,132.086469 153.652297,131.961775 153.77611,131.899427 L154.209458,131.899427 Z M155.447595,132.585246 C155.571409,132.647593 155.571409,132.772288 155.447595,132.834635 C155.323782,132.896982 155.076154,132.896982 154.952341,132.834635 C154.828527,132.772288 154.828527,132.647593 154.952341,132.585246 C155.076154,132.522899 155.323782,132.522899 155.447595,132.585246 Z M156.623825,133.271065 L156.747639,133.395759 L156.623825,133.520453 C156.500012,133.582801 156.252384,133.582801 156.128571,133.520453 L156.004757,133.395759 L156.128571,133.271065 C156.314291,133.208718 156.438105,133.208718 156.623825,133.271065 Z M151.671278,131.961775 L151.795091,132.086469 L151.671278,132.211163 L151.23793,132.211163 C151.169549,132.211163 151.114116,132.155336 151.114116,132.086469 L151.23793,131.961775 C151.361743,131.899427 151.609371,131.899427 151.733185,131.961775 L151.671278,131.961775 Z M152.909415,132.647593 L153.033228,132.772288 L152.909415,132.896982 C152.785601,132.959329 152.537974,132.959329 152.41416,132.896982 C152.290346,132.772288 152.290346,132.647593 152.41416,132.585246 L152.909415,132.647593 Z M154.147552,133.333412 C154.271365,133.458106 154.271365,133.520453 154.147552,133.645148 C154.023738,133.707495 153.77611,133.707495 153.652297,133.645148 C153.528483,133.520453 153.528483,133.458106 153.652297,133.333412 L154.147552,133.333412 Z M155.261875,134.081578 L155.385689,134.206272 L155.261875,134.330966 L154.828527,134.330966 C154.760146,134.330966 154.704713,134.275139 154.704713,134.206272 L154.828527,134.081578 C155.014247,134.019231 155.138061,134.019231 155.323782,134.081578 L155.261875,134.081578 Z M150.433141,132.70994 L150.556954,132.834635 L150.433141,132.959329 C150.309327,133.021676 150.0617,133.021676 149.937886,132.959329 C149.814072,132.896982 149.814072,132.772288 149.937886,132.647593 L150.433141,132.647593 L150.433141,132.70994 Z M151.547464,133.458106 L151.671278,133.582801 L151.547464,133.707495 L151.114116,133.707495 C150.990302,133.645148 150.990302,133.520453 151.114116,133.458106 L151.547464,133.458106 Z M152.785601,134.143925 C152.909415,134.206272 152.909415,134.330966 152.785601,134.393314 C152.661787,134.455661 152.41416,134.455661 152.290346,134.393314 C152.166532,134.393314 152.166532,134.206272 152.290346,134.143925 C152.41416,134.081578 152.661787,134.081578 152.785601,134.143925 Z M153.961831,134.829744 L154.085645,134.954438 L153.961831,135.079132 C153.838017,135.141479 153.59039,135.141479 153.466576,135.079132 L153.342763,134.954438 L153.466576,134.829744 C153.652297,134.767397 153.77611,134.767397 153.961831,134.829744 Z M149.07119,133.520453 C149.195004,133.582801 149.195004,133.707495 149.07119,133.769842 C148.947376,133.832189 148.699749,133.832189 148.575935,133.769842 C148.452122,133.769842 148.452122,133.582801 148.575935,133.520453 C148.699749,133.458106 148.947376,133.458106 149.07119,133.520453 Z M150.24742,134.206272 L150.371234,134.330966 L150.24742,134.455661 C150.123606,134.518008 149.875979,134.518008 149.752165,134.455661 C149.628352,134.330966 149.628352,134.268619 149.752165,134.143925 L150.24742,134.206272 Z M151.42365,134.892091 C151.547464,135.016785 151.609371,135.079132 151.42365,135.203827 L150.990302,135.203827 C150.866489,135.079132 150.866489,135.016785 150.990302,134.892091 L151.42365,134.892091 Z M152.661787,135.640257 L152.785601,135.764951 L152.661787,135.889645 C152.537974,135.951992 152.290346,135.951992 152.166532,135.889645 C152.042719,135.827298 152.042719,135.702604 152.166532,135.640257 C152.352253,135.57791 152.476067,135.57791 152.661787,135.640257 Z M147.709239,134.268619 C147.833053,134.393314 147.833053,134.518008 147.709239,134.580355 L147.275891,134.580355 C147.152078,134.518008 147.090171,134.393314 147.275891,134.268619 L147.709239,134.268619 Z M148.88547,135.016785 L149.009283,135.141479 L148.88547,135.266174 L148.452122,135.266174 C148.328308,135.203827 148.266401,135.079132 148.452122,135.016785 L148.88547,135.016785 Z M150.123606,135.702604 C150.24742,135.764951 150.24742,135.889645 150.123606,135.951992 C149.999793,136.01434 149.752165,136.01434 149.628352,135.951992 C149.504538,135.889645 149.504538,135.764951 149.628352,135.702604 C149.752165,135.640257 149.999793,135.640257 150.123606,135.702604 Z M151.299837,136.388423 L151.42365,136.513117 L151.299837,136.637811 C151.176023,136.700158 150.928395,136.700158 150.804582,136.637811 C150.680768,136.513117 150.680768,136.388423 150.804582,136.326075 L151.299837,136.388423 Z M146.409196,135.079132 C146.533009,135.141479 146.533009,135.266174 146.409196,135.328521 C146.285382,135.390868 146.037755,135.390868 145.913941,135.328521 C145.790127,135.328521 145.790127,135.141479 145.913941,135.079132 C146.037755,135.016785 146.285382,135.016785 146.409196,135.079132 Z M147.585426,135.764951 L147.709239,135.889645 L147.585426,136.01434 C147.461612,136.076687 147.213985,136.076687 147.090171,136.01434 L146.966357,135.889645 L147.090171,135.764951 C147.213985,135.702604 147.461612,135.702604 147.585426,135.764951 Z M148.761656,136.45077 C148.88547,136.575464 148.947376,136.637811 148.761656,136.762505 L148.328308,136.762505 C148.204494,136.637811 148.204494,136.575464 148.328308,136.45077 L148.761656,136.45077 Z M149.999793,137.198936 C150.0617,137.198936 150.0617,137.385977 149.999793,137.448324 C149.814072,137.510671 149.690259,137.510671 149.504538,137.448324 C149.436158,137.448324 149.380724,137.392497 149.380724,137.32363 L149.504538,137.198936 C149.690259,137.136588 149.814072,137.136588 149.999793,137.198936 Z M145.047245,135.827298 C145.171059,135.951992 145.171059,136.076687 145.047245,136.139034 L144.613897,136.139034 L144.490083,136.01434 L144.613897,135.889645 C144.737711,135.764951 144.923431,135.764951 145.047245,135.827298 Z M146.223475,136.575464 L146.347289,136.700158 L146.223475,136.824853 L145.790127,136.824853 C145.666313,136.762505 145.604407,136.637811 145.790127,136.575464 L146.223475,136.575464 Z M147.461612,137.261283 C147.585426,137.32363 147.585426,137.448324 147.461612,137.510671 C147.337798,137.573019 147.090171,137.573019 146.966357,137.510671 C146.842544,137.510671 146.842544,137.32363 146.966357,137.261283 C147.152078,137.198936 147.275891,137.198936 147.461612,137.261283 Z M148.637842,137.947101 C148.761656,138.009449 148.761656,138.134143 148.637842,138.258837 C148.452122,138.321184 148.328308,138.321184 148.142587,138.258837 C148.018774,138.134143 148.018774,138.009449 148.142587,137.947101 C148.328308,137.884754 148.452122,137.884754 148.637842,137.947101 Z M143.747201,136.637811 C143.871015,136.700158 143.871015,136.824853 143.747201,136.8872 C143.623387,136.949547 143.37576,136.949547 143.251946,136.8872 C143.183566,136.8872 143.128133,136.831372 143.128133,136.762505 L143.251946,136.637811 C143.37576,136.575464 143.623387,136.575464 143.747201,136.637811 Z M144.861524,137.32363 C145.047245,137.448324 145.047245,137.573019 144.861524,137.635366 L144.428176,137.635366 C144.304363,137.510671 144.304363,137.448324 144.428176,137.32363 C144.613897,137.261283 144.737711,137.261283 144.923431,137.32363 L144.861524,137.32363 Z M146.099661,138.009449 C146.223475,138.134143 146.223475,138.19649 146.099661,138.321184 C145.975848,138.383532 145.72822,138.383532 145.604407,138.321184 C145.480593,138.258837 145.480593,138.134143 145.604407,138.009449 C145.790127,137.947101 145.913941,137.947101 146.099661,138.009449 Z M147.337798,138.757614 L147.461612,138.882309 L147.337798,139.007003 C147.152078,139.06935 147.028264,139.06935 146.842544,139.007003 C146.71873,138.944656 146.71873,138.819962 146.842544,138.757614 L147.337798,138.757614 Z"/>
    </g>
    <g fill-rule="nonzero" transform="translate(16 16)">
      <path fill="#222426" d="M33.9,18.6 L32.2,18.4 C30.9,18.3 30.3,17.8 30.3,16.8 C30.3,15.7 31.1,15 32.7,15 C33.8,15 34.8,15.3 35.5,15.8 L36.5,14.8 C35.5,14 34.2,13.7 32.7,13.7 C30.4,13.7 28.8,14.9 28.8,16.8 C28.8,18.6 29.9,19.5 32,19.7 L33.8,19.9 C35,20 35.6,20.5 35.6,21.5 C35.6,22.8 34.5,23.4 32.8,23.4 C31.5,23.4 30.3,23.1 29.5,22.2 L28.5,23.2 C29.7,24.3 31.1,24.7 32.9,24.7 C35.5,24.7 37.2,23.5 37.2,21.5 C37,19.5 35.7,18.8 33.9,18.6 Z M47.2,13.8 C45.5,13.8 44.4,14.1 43.5,15.3 L44.5,16.3 C45.1,15.4 45.8,15.1 47.2,15.1 C49.1,15.1 49.9,15.9 49.9,17.4 L49.9,18.4 L46.7,18.4 C44.3,18.4 43,19.6 43,21.5 C43,22.3 43.3,23.1 43.8,23.7 C44.5,24.4 45.3,24.7 46.8,24.7 C48.2,24.7 49,24.4 49.9,23.6 L49.9,24.6 L51.5,24.6 L51.5,17.4 C51.4,15 50,13.8 47.2,13.8 Z M49.9,20.8 C49.9,21.7 49.7,22.3 49.4,22.6 C48.7,23.2 47.9,23.3 47,23.3 C45.3,23.3 44.6,22.7 44.6,21.5 C44.6,20.3 45.4,19.6 47,19.6 L50,19.6 L49.9,20.8 Z M57.5,15.2 C58.5,15.2 59.1,15.5 59.9,16.4 L60.9,15.4 C59.8,14.2 58.9,13.8 57.4,13.8 C54.7,13.8 52.7,15.6 52.7,19.3 C52.7,22.9 54.7,24.8 57.4,24.8 C58.9,24.8 59.8,24.4 60.9,23.2 L59.8,22.2 C59,23.1 58.4,23.4 57.4,23.4 C56.4,23.4 55.5,23 54.9,22.2 C54.4,21.5 54.2,20.7 54.2,19.3 C54.2,18 54.4,17.1 54.9,16.4 C55.6,15.6 56.5,15.2 57.5,15.2 Z M70.9,13.9 L69,13.9 L64.2,18.6 L64.2,9.1 L62.6,9.1 L62.6,24.5 L64.2,24.5 L64.2,20.6 L66.1,18.7 L69.7,24.5 L71.6,24.5 L67.2,17.6 L70.9,13.9 Z M78.2,13.6 C76.6,13.6 75.5,14.2 74.8,15 C73.8,16 73.5,17.3 73.5,19.3 C73.5,21.3 73.8,22.6 74.8,23.6 C75.5,24.3 76.6,25 78.2,25 C79.8,25 81,24.4 81.6,23.6 C82.6,22.6 82.9,21.3 82.9,19.3 C82.9,17.3 82.6,16 81.6,15 C81,14.2 79.9,13.6 78.2,13.6 Z M79.5,21.9 C79.2,22.2 78.8,22.4 78.2,22.4 C77.6,22.4 77.2,22.2 76.9,21.9 C76.3,21.3 76.3,20.3 76.3,19.2 C76.3,18 76.4,17.1 76.9,16.5 C77.2,16.2 77.6,16 78.2,16 C78.8,16 79.2,16.2 79.5,16.5 C80.1,17.1 80.1,18 80.1,19.2 C80.2,20.4 80.1,21.4 79.5,21.9 Z M90.3,13.7 L88.1,20.6 L85.8,13.7 L82.9,13.7 L87,24.8 L89.2,24.8 L93.3,13.7 L90.3,13.7 Z M97.9,13.6 C95,13.6 93.1,15.6 93.1,19.3 C93.1,23.8 95.6,25 98.2,25 C100.2,25 101.3,24.4 102.4,23.3 L100.7,21.7 C100,22.4 99.4,22.7 98.2,22.7 C96.6,22.7 95.8,21.7 95.8,20.2 L102.7,20.2 L102.7,19 C102.7,15.8 101,13.6 97.9,13.6 Z M95.8,18.2 C95.8,17.7 95.9,17.4 96.1,17 C96.4,16.3 97,15.8 98,15.8 C98.9,15.8 99.6,16.3 99.9,17 C100.1,17.4 100.1,17.7 100.2,18.2 L95.8,18.2 Z M106.8,14.8 L106.8,13.7 L104.1,13.7 L104.1,24.8 L106.9,24.8 L106.9,18.1 C106.9,16.7 107.8,16.1 108.7,16.1 C109.4,16.1 109.7,16.3 110.2,16.8 L112.3,14.7 C111.5,13.9 110.8,13.7 109.7,13.7 C108.4,13.6 107.4,14.1 106.8,14.8 Z M113.1,12.5 L113.1,24.8 L115.9,24.8 L115.9,16 L117.9,16 L117.9,13.9 L115.9,13.9 L115.9,12.7 C115.9,12.1 116.2,11.7 116.9,11.7 L118,11.7 L118,9.4 L116.4,9.4 C114.1,9.4 113.1,11 113.1,12.5 Z M129.3,13.6 C127.7,13.6 126.6,14.2 125.9,15 C124.9,16 124.6,17.3 124.6,19.3 C124.6,21.3 124.9,22.6 125.9,23.6 C126.6,24.3 127.7,25 129.3,25 C130.9,25 132.1,24.4 132.7,23.6 C133.7,22.6 134,21.3 134,19.3 C134,17.3 133.7,16 132.7,15 C132.1,14.2 130.9,13.6 129.3,13.6 Z M130.6,21.9 C130.3,22.2 129.9,22.4 129.3,22.4 C128.7,22.4 128.3,22.2 128,21.9 C127.4,21.3 127.4,20.3 127.4,19.2 C127.4,18 127.5,17.1 128,16.5 C128.3,16.2 128.7,16 129.3,16 C129.9,16 130.3,16.2 130.6,16.5 C131.2,17.1 131.2,18 131.2,19.2 C131.2,20.4 131.2,21.4 130.6,21.9 Z M147.1,13.7 L145.3,20.6 L143,13.7 L141,13.7 L138.7,20.6 L136.9,13.7 L134,13.7 L137.4,24.8 L139.7,24.8 L142,17.8 L144.3,24.8 L146.6,24.8 L150,13.7 L147.1,13.7 Z M122,21.4 L122,9.3 L119.2,9.3 L119.2,21.6 C119.2,23.2 120.2,24.8 122.4,24.8 L124,24.8 L124,22.5 L123,22.5 C122.3,22.5 122,22.1 122,21.4 Z M41.3,15.6 L42.7,14.2 L39.7,14.2 L39.7,10.7 L38.1,10.7 L38.1,21.8 C38.1,23.4 39,24.7 40.8,24.7 L41.9,24.7 L41.9,23.4 L41.1,23.4 C40.1,23.4 39.6,22.8 39.6,21.8 L39.6,15.7 L41.3,15.6 Z"/>
      <polygon fill="#BCBBBB" points="21 27 21 19 24 19 24 30 0 30 0 19 3 19 3 27"/>
      <path fill="#F48024" d="M5.4,19.1 L19,21.1 L19.2,18.7 L5.9,16.1 L5.4,19.1 Z M7.2,12.3 L19.2,17.9 L20.3,15.5 L8.3,9.9 L7.2,12.3 Z M10.6,6.4 L20.8,14.9 L22.5,12.9 L12.3,4.4 L10.6,6.4 Z M17.1,0.2 L15,1.8 L22.9,12.4 L25,10.8 L17.1,0.2 Z M5,25 L19,25 L19,22 L5,22 L5,25 Z M34.02,29.7 L31.02,29.7 L31.02,31.1 L33.72,31.1 L33.72,32.6 L30.92,32.6 L30.92,34.3 L33.92,34.3 L33.92,35.8 L29.02,35.8 L29.02,28 L34.02,28 L34.02,29.7 Z M41.06,28.1 L41.06,35.9 L39.56,35.9 L36.76,31.6 L36.76,35.9 L34.96,35.9 L34.96,28.1 L36.46,28.1 L39.36,32.5 L39.36,28.1 L41.06,28.1 Z M47.91,28.01 L47.91,29.7 L45.91,29.7 L45.91,35.9 L44.01,35.9 L44.01,29.7 L42.01,29.7 L42.01,28.01 L47.91,28.01 Z M53.91,29.7 L50.91,29.7 L50.91,31.1 L53.61,31.1 L53.61,32.6 L50.91,32.6 L50.91,34.3 L53.91,34.3 L53.91,35.8 L49.01,35.8 L49.01,28 L53.91,28 L53.91,29.7 Z M59.23,35.9 L57.93,33 L56.93,33 L56.93,35.9 L55.03,35.9 L55.03,28.02 L57.93,28.02 C59.73,28.02 60.83,29 60.83,30.6 C60.83,31.6 60.43,32.3 59.63,32.6 L61.13,35.8 L59.23,35.8 L59.23,35.9 Z M57.83,31.4 C58.63,31.4 59.13,31.3 59.13,30.6 C59.13,29.9 58.63,29.7 57.83,29.7 L57.03,29.7 L57.03,31.4 L57.83,31.4 Z M63.9,33.3 L63.9,35.9 L62,35.9 L62,28.05 L64.9,28.05 C66.7,28.05 67.8,29 67.8,30.7 C67.8,32.4 66.7,33.3 64.9,33.3 L63.9,33.3 Z M64.6,31.6 C65.6,31.6 66,31.4 66,30.6 C66,30 65.6,29.6 64.6,29.6 L63.9,29.6 L63.9,31.6 L64.6,31.6 Z M73.1,35.9 L71.8,33 L70.8,33 L70.8,35.9 L69,35.9 L69,28.04 L71.9,28.04 C73.7,28.04 74.8,29 74.8,30.6 C74.8,31.6 74.4,32.3 73.6,32.6 L75.1,35.8 L73.1,35.8 L73.1,35.9 Z M71.7,31.4 C72.5,31.4 73,31.3 73,30.6 C73,29.9 72.5,29.7 71.7,29.7 L70.9,29.7 L70.9,31.4 L71.7,31.4 Z M77.9,35.9 L76,35.9 L76,28.03 L77.9,28.03 L77.9,35.9 Z M83.4,30.3 C83.1,29.8 82.7,29.6 82,29.6 C81.4,29.6 81.1,29.9 81.1,30.3 C81.1,30.8 81.5,31 82.5,31.3 C84.2,31.8 84.8,32.4 84.8,33.7 C84.8,35.1 83.9,36 82.1,36 C80.7,36 79.7,35.7 79,34.7 L80.4,33.7 C80.8,34.2 81.3,34.4 81.9,34.4 C82.6,34.4 82.9,34.1 82.9,33.7 C82.9,33.3 82.6,33 81.4,32.7 C79.8,32.2 79.2,31.5 79.2,30.2 C79.2,28.9 80,28 81.9,28 C83.1,28 84.1,28.4 84.7,29.3 L83.4,30.3 Z M90.9,29.7 L87.9,29.7 L87.9,31.1 L90.6,31.1 L90.6,32.6 L87.9,32.6 L87.9,34.3 L90.9,34.3 L90.9,35.8 L86,35.8 L86,28 L90.9,28 L90.9,29.7 Z"/>
    </g>
  </g>
</svg>
