<svg height="200" viewBox="0 0 450 200" width="450" xmlns="http://www.w3.org/2000/svg"><g fill="none" fill-rule="evenodd"><g transform="translate(82.161)"><g fill-rule="nonzero"><path d="m368.151 106-182.833 106-185.318-106 184.137-106z" fill="#d9eefc" opacity=".5"/><path d="m182.024132 155.006638c-5.613136 3.134096-5.613136 8.196866-.062368 11.330962 5.550767 3.134096 14.594153 3.134096 20.14492 0 5.550768-3.134096 5.613136-8.196866.062368-11.270691-5.550767-3.073825-14.531784-3.134096-20.14492-.060271z" fill="#0f5cd8" opacity=".1"/><path d="m291.785 41.751-.185 69.948-60.224-34.912.185-69.948z" fill="#fff" stroke="#0f5cd8" stroke-linecap="round" stroke-linejoin="round"/><path d="m231.376 6.839-.186 69.989-60.222 34.871.186-69.989z" fill="#fff" stroke="#0f5cd8" stroke-linecap="round" stroke-linejoin="round"/><path d="m231.376 77.084-.185 69.948-60.223-34.912.185-69.948z" fill="#fff" stroke="#0f5cd8" stroke-linejoin="round"/><path d="m291.785 42.172-.187 69.948-60.222 34.912.187-69.948z" fill="#fff" stroke="#0f5cd8" stroke-linejoin="round"/><path d="m231.376 6.278-60.287 34.754-19.498-1.719 60.288-34.754z" fill="#fff" stroke="#0f5cd8" stroke-linecap="round" stroke-linejoin="round"/><path d="m308.88172 59.6640446-60.444605 35.3588319-16.197168-17.4920016 60.382547-35.3588319zm-76.703831 18.116716-12.53574 20.2407448-60.072257-35.4213033 12.597798-20.3656877 60.072257 35.4213034z" fill="#fff" stroke="#0f5cd8"/><path d="m303.120746 42.1979472-10.734581.062362-60.808612-35.29687558 10.796631-.12472394 60.808612 35.29687552zm-167.28573 110.3183268v2.494479l-67.4479192-39.100956v-2.494479z" fill="#fff" stroke="#0f5cd8" stroke-linecap="round" stroke-linejoin="round"/><path d="m175.464951 128.549259-39.759388 22.795699-67.3184662-38.506248 39.7593882-22.7956992 67.380397 38.4446382zm0 0v2.4644l-39.821319 22.857309v-2.4644z" fill="#fff" stroke="#0f5cd8" stroke-linecap="round" stroke-linejoin="round"/><path d="m173.356105 78.9950271 2.170777-1.2439672-.124045 50.9404571-2.170777 1.243967zm-67.356105-38.9983717 2.232799-1.2439672 67.232061 38.9983717-2.170777 1.2439672z" fill="#fff" stroke="#0f5cd8" stroke-linecap="round" stroke-linejoin="round"/><path d="m173.247 78.944-.123 50.991-67.124-39.051.124-50.992 67.123 38.99z" fill="#fff" stroke="#0f5cd8" stroke-linecap="round" stroke-linejoin="round"/><path d="m122.891613 63.2959408c.136774.0688221.205161.2752887.205161.412933v3.4411088c0 .0688221-.136774.1376443-.273548.0688221l-2.940645-1.7205543c-.136775-.0688222-.205162-.2752887-.205162-.4129331v-3.3722866c0-.1376443.068387-.2064665.205162-.1376443zm-.341936 3.2346422v-2.8217092l-2.393548-1.3764435v2.752887l2.461936 1.3764435z" fill="#f48024"/><path d="m127.403901 65.4281634c.126007.0623696.252013.1871087.252013.3742173v3.1184775c0 .1247391-.126006.1247391-.252013.0623695l-2.709137-1.5592387c-.126006-.0623696-.189009-.2494782-.189009-.3742173v-3.1184775c0-.1247391.063003-.1247391.189009-.0623695zm-.189009 2.9313688v-2.4947819l-2.268115-1.3721301v2.619521zm-9.135463 3.3055861c.126007.0623696.18901.1871087.18901.3118477v3.1184775c0 .1247391-.063003.1871086-.18901.0623695l-2.709137-1.4968691c-.147438-.0690153-.244366-.212945-.252012-.3742173v-3.1184775c0-.1247391.126006-.1871086.252012-.1247391zm-.252012 2.8689993v-2.494782l-2.268115-1.3097605v2.4947819z" fill="#bbc0c4"/><path d="m122.891613 74.3016182c.136774.055566.205161.2222639.205161.3333958v2.7782977c0 .1111319-.068387.1111319-.205161.0555659l-2.940645-1.3891488c-.160038-.0614867-.265249-.1897159-.273549-.3333958v-2.6671657c0-.1111319.136775-.1666979.273549-.1111319zm-.273548 2.6115999v-2.2782041l-2.461936-1.1113191v2.2226381z" fill="#f48024"/><path d="m127.46595 76.6769511c.126643.0570997.189964.2283989.189964.3425983v2.7978865c0 .1141995-.063321.1712992-.189964.1141995l-2.72282-1.4274932c-.148183-.0631839-.2456-.1949525-.253285-.3425983v-2.8549862c0-.0570998.126642-.1141995.253285-.0570998zm-.253286 2.683687v-2.3981884l-2.27957-1.1990942v2.3410887l2.27957 1.1419945zm-9.181601-1.7129917c.126643.0570997.253286.1712991.253286.3425983v2.7978865c0 .1141995-.126643.1712992-.253286.1141995l-2.722819-1.4274931c-.126643-.0570998-.189964-.2283989-.189964-.3425984v-2.8549862c0-.0570997.063321-.1141995.189964-.0570997zm-.189964 2.683687v-2.3410887l-2.27957-1.1419945v2.283989l2.27957 1.1419945z" fill="#bbc0c4"/><path d="m122.823226 81.4651855c.136774.0688222.273548.2064665.273548.4129331v3.4411087c0 .1376444-.136774.2064666-.273548.1376444l-2.940645-1.7205544c-.136775-.0688222-.205162-.2752887-.205162-.412933v-3.4411088c0-.0688222.136775-.1376444.273549-.0688222zm-.205161 3.3034644v-2.8905313l-2.461936-1.4452657v2.8217092l2.461936 1.3764435z" fill="#f48024"/><path d="m127.382366 83.7772947c.136774.0682649.273548.2047947.273548.4095895v3.4132462c0 .1365298-.136774.2047947-.205161.1365298l-3.009033-1.7066231c-.136774-.0682649-.205161-.2730597-.205161-.4095895v-3.4132462c0-.1365298.136774-.2047947.273549-.0682649zm-.205162 3.2084513v-2.7305969l-2.461935-1.4335634v2.730597z" fill="#bbc0c4"/><path d="m129.993934 81.571443v.4859271l-2.33802-1.3970404v-.4859272zm6.78026 10.3259514v.4251862l-2.338021-1.3970404v-.4859272l2.338021 1.3970405zm0-6.2563117v.4859271l-2.338021-1.3970405v-.4859271zm0-11.2370648v.4859272l-2.338021-1.3970405v-.546668z" fill="#f48024"/><path d="m142.228393 65.6392754c.122363.0622592.244725.1867777.244725.3735554l-.122362 35.2387292c0 .186778-.122363.249037-.244726.124518l-30.223561-17.7438827c-.122363-.0622592-.183544-.2490369-.183544-.3735554l.061181-35.2387291c0-.1245185.122363-.1867777.244725-.1245185zm-.305906 35.1142106.061181-30.507027-29.795293-17.494846-.061181 30.5070269zm.061181-31.0673601v-3.6732951l-29.734112-17.4325868v3.673295z" fill="#f48024"/><path d="m118.332473 66.3374578c.136774.0555511.205161.2222045.205161.3333067v2.7775561c0 .0555511-.068387.1111022-.205161.0555511l-2.940645-1.3332269c-.160037-.0614703-.265248-.1896652-.273548-.3333067v-2.7775561c0-.1111022.136774-.1111022.273548-.0555511zm-.273548 2.6109027v-2.277596l-2.393549-1.1110224v2.2220449z" fill="#bbc0c4"/><path d="m130.898817 88.5961464v.5047121l-2.479867-1.4510472v-.5047121zm3.595807 2.0819372v.5047121l-2.479867-1.4510472v-.504712zm-11.965358-21.8287965c.123994.063089.18599.2523561.18599.3785341v3.1544503c0 .1261781-.061996.1261781-.18599.063089l-2.665857-1.5141361c-.123993-.063089-.18599-.2523561-.18599-.3785341v-3.1544503c0-.126178.061997-.1892671.18599-.126178zm-.247986 2.9651834v-2.5235603l-2.169884-1.3879582v2.5866493l2.23188 1.2617802z" fill="#f48024"/><path d="m127.452438 71.255073c.135651.0680009.203476.2720038.203476.4080058v3.4000486c0 .1360019-.067825.2040029-.203476.1360019l-2.916484-1.7000243c-.158722-.0752467-.263069-.232172-.271301-.4080058v-3.3320476c-.067825-.068001 0-.136002.067825-.204003.067826-.0680009.135651 0 .203476.068001zm-.271301 3.2640466v-2.7880398l-2.373882-1.4280205v2.7200389z" fill="#bbc0c4"/><path d="m133.86141 83.9232852v.4904698l-2.532856-1.4101007v-.4904698zm-3.609319-7.7248994v.4904698l-2.532856-1.4101007v-.4904698zm9.814815 15.5724163v.5517785l-12.410992-6.927886v-.4904698zm-6.142175-13.5492284v.5517786l-2.532855-1.4101007v-.5517786zm-3.67264-7.7248994v.4904698l-2.532856-1.4101007v-.4904698zm9.814815 15.0206378v.4904698l-12.347671-6.927886v-.4904698zm-2.532856-5.2725504v.4904698l-2.532855-1.4101007v-.4904698zm-3.609319-7.6635907v.4904698l-2.532855-1.4101007v-.4904698zm6.142175 7.2957383v.4904698l-12.347671-6.927886v-.4904698l12.410992 6.927886zm0-5.7017115v.4904698l-12.284349-6.927886v-.4904698l12.410991 6.927886z" fill="#f48024"/><path d="m118.264086 61.0112651c.136774.0686211.273548.2058633.273548.4117266v3.4310551c0 .1372422-.136774.1372422-.273548.0686211l-2.940645-1.6469064c-.136774-.0686212-.205161-.2744845-.205161-.4117267v-3.431055c0-.1372422.068387-.2058633.205161-.1372422zm-.205161 3.2251918v-2.8134652l-2.461936-1.372422v2.8134651z" fill="#bbc0c4"/><path d="m145.836679 91.8605057v.4928799l-1.083991-.6160999v-.49288zm-.063764 3.5733798v.55449l-1.020227-.6161v-.49288zm0 3.6965998v.49288l-1.020227-.55449v-.4928799l1.020227.6160999zm13.518009 7.4548097v.55449l-12.370253-6.90032v-.5544897zm-4.208437-5.97617v.49288l-8.161816-4.4975296v-.4928799zm7.14159-4.1278696-1.402812-.8009299 1.912926-2.9572799.255056.12322-1.849161 2.8340599 1.083991.6161zm-1.849162-1.0473699 1.785398-2.7724499-2.167983-1.2321999v-.24644l2.550568 1.4170299-1.912926 3.0188899zm-1.083991 3.9430398v.49288l-12.370253-6.9003197v-.49288z" fill="#ffb935"/><path d="m166.161606 87.8503199c.123498.0628507.246996.188552.246996.3771041l-.123498 31.299637c0 .125702-.061749.188552-.185247.125702l-26.860846-15.71267c-.116344-.116041-.182928-.274174-.185248-.439954v-3.331086l.432244.251402v3.079684l26.366854 15.524117.061749-27.0257914-23.155902-13.7014477v-.5028054l23.217651 13.638597v-3.2053845l-23.217651-13.6385971v-.5028054z" fill="#f48024"/><path d="m161.577 95.299.149-.127 1.263.633v1.077l-3.419-1.647 2.081-2.912-1.486-.76v.19l1.189.633-.149.127-1.338-.634v-.696l2.23 1.076-2.23 2.913 2.825 1.393v-.633z" fill="#ffb935"/><path d="m181.225806 159.28943v-15.676527h20.516129v15.676527c0 1.549064-.994721 3.098128-2.984164 4.213454-4.041055 2.354578-10.568915 2.354578-14.5478 0-1.989443-1.115326-2.984165-2.66439-2.984165-4.213454z" fill="#fff" stroke="#021766" stroke-linecap="round" stroke-linejoin="round"/><path d="m184.252013 139.571022c-4.034942 2.209392-4.034942 5.851903 0 8.061295s10.428774 2.269105 14.463716 0 4.034942-5.851903 0-8.061295c-4.034942-2.209391-10.428774-2.209391-14.463716 0z" fill="#fff" stroke="#021766" stroke-linecap="round" stroke-linejoin="round"/></g><path d="m181.225806 145.892473c-3.806451 0-6.838709 3.032258-6.838709 6.83871 0 3.806451 3.032258 6.838709 6.838709 6.838709" stroke="#021766" stroke-linecap="round" stroke-linejoin="round"/><g fill-rule="nonzero"><path d="m198.780301 144.126017c-4.560792-2.241559-9.987975-2.241559-14.548767 0-.808265.471055-1.554356 1.059874-2.113924 1.766456-1.678703-2.119748-.994787-4.651668 2.113924-6.300361 4.041324-2.237511 10.569617-2.237511 14.548767 0 3.108711 1.648693 3.730453 4.121732 2.051749 6.241479-.559568-.706582-1.243484-1.295401-2.051749-1.707574z" fill="#fff" stroke="#021766" stroke-linecap="round" stroke-linejoin="round"/><g fill="#ffb935"><path d="m267.966363 104.765549-4.442238 2.665809 5.845051-16.9642412.759856-.424106-5.552798 15.9948562 3.390129-2.059944zm-5.845051 3.514021 5.552799-16.0554425-6.663358 4.0593005v-.7876255l7.715467-4.6651663-5.845051 16.9642408-.701406.424106z"/><path d="m265.13901 105.500698.310503-.991716 3.539734-2.045414v3.718935l-9.563493 5.516422 5.899558-16.4252999-4.347043 2.4792905v.6818049l3.353433-1.8594679-.372604.9297339-3.663935 2.107397v-2.2313615l6.14796-3.532989-5.899558 16.4253 7.762576-4.524706v-2.107396zm-62.970013 3.656954-4.657546-2.72722 6.272161-10.1031085.807308.4338759-5.961658 9.5452686 3.539735 2.045415zm-6.14796-3.594971 5.961658-9.4832865-7.079469-4.0908294v-.8057694l8.19728 4.8346165-6.210061 10.1031088-.869408-.495858z"/><path d="m200.015137 106.046522.381559-.623816 3.624809 2.058592v3.742893l-9.856938-5.61434 6.104942-9.6067589-4.45152-2.495262v.6861971l3.43403 1.933828-.317966.6238156-3.815589-2.1833543v-2.2457359l6.359315 3.5557484-6.168535 9.66914 8.012737 4.491472v-2.183354zm-8.330703 52.525266.127186-.249527h1.526236v1.247631h-4.133555l2.543726-4.366708h-1.907794v.187145h1.526235l-.190779.311907h-1.589829v-.81096h2.670912l-2.543726 4.366709h3.370437v-.623816z"/><path d="m190.896709 158.430108 2.763115-4.3127h-3.315738v-.24644h3.868361l-2.901271 4.55914zm2.901271 0h-2.210492l2.970348-4.49753h.34539l-2.763115 4.25109h1.657869z"/></g><path d="m148.442656 159.569892 25.944441 14.844908-35.603946 20.488426-25.944441-14.90625zm-9.659505 34.78125 34.675147-19.936342-25.015642-14.354167-34.675148 19.997685z" fill="#0f5cd8"/><path d="m174.387 173.883-35.082 19.88-25.327-14.252 35.083-19.941 25.264 14.313z" fill="#fff"/><path d="m152.731183 171.055418 4.799094-.986353-1.979626-1.249379.179966-.131514 2.27957 1.512407-5.099038.986352zm1.679683 1.052109-1.319751-.789082 5.159026-1.052109.179967.19727-4.799095.920596 1.019808.657568z" fill="#ffb935"/><path d="m154.089 171.008h.256l1.088.55-.96.55-2.882-1.588 5.123-.916-1.281-.733-.192.122 1.025.55h-.32l-1.089-.55.64-.305 1.793.977-5.122.916 2.305 1.221.512-.244z" fill="#ffb935"/><path d="m142.034739 174.387097-.233802.11211zm-.642955.33633h-.058451zm6.546457 1.00899h-.116901l-.058451.056055-.175351.11211c-.175352.11211-.350703.168165-.584505.168165h-.233802l-.233802.11211-1.16901.22422c-.706116.208792-1.429684.358827-2.162669.44844l-.409154.168165c-.116901 0 0 .056055-.116901.11211h-.233802v.056055h-.116901l-.116901.11211h-.116901l-.058451.056055h-.116901v.056055h-.116901l-.116901.056055v.056055l-.05845.056055-.058451.11211c-.116901 0 0 .056055-.116901.11211h-.116901v-.168165c.350703-.33633.818307-.616605 1.285912-.78477h.116901l.409153-.22422h.058451l.759856-.280275h.058451l.175351-.11211.292253-.11211h.05845l.292253-.11211.175351-.056055h.116901c.058451 0 .175352-.11211.292253-.056055l.175352-.056055.233802-.11211 1.285911-.280275h.876757c.116902.056055.175352.168165.175352.22422zm-1.052109.33633.993658-.392385-.292252.11211h-.116901l-.233802.056055-.993659.22422-.993658.22422-.642956.11211 1.052109-.280275 1.695065-.392385.467604-.22422h-.584505l-.526055.11211h.058451-.116901l-.233802.056055v.056055l-.584505.11211h.05845l-.876758.280275-.467604.168165h-.116901l-.233802.056055-.233802.11211.584505-.11211-.292252.056055v.056055h.759856l.467605-.11211h.233802l.116901-.056055h.233802c.05845 0 .175351 0 .292252-.11211h.584505zm-3.214778.504495.233802-.11211-.233802.11211-.233802.11211zm1.461262-.56055-.116901.11211.116901-.056055h.116902-.175352zm-.759856.280275-.233802.11211zm-1.16901.44844.175351-.11211-.116901.056055zm.935208-.33633-.116901.056055zm.701406-.22422.116901-.056055h-.116901zm.876758-.33633h-.058451zm-4.091536 1.513485h.116901zm2.922525-1.177155h-.05845zm.935209-.280275h-.116901zm-2.104219.67266h.058451zm.993659-.22422v.056055zm-2.27957.78477h.05845zm4.55914-1.56954h-.058451z" fill="#000"/><path d="m138.819102 185.256958-.4358.234661-8.840517-4.810563.4358-.234661zm-4.17123.293327-.373543.234661-5.47863-2.991935.4358-.234662 5.47863 2.93327zm8.965031-.175997-.4358.234662-13.82109-7.509171.4358-.293327z" fill="#0f5cd8"/><path d="m147.057455 180.160826h.062109zm1.614829 1.259866c.869523.56694 1.925373.629933 2.919114.944899l-.807415-.188979h.124218l-.621088-.125987h-.434762l-.062108-.062993h-.124218l-.993741-.314967c-.49687-.314966 0-.629933.496871-.755919.434761-.062994.869523 0 1.242176.188979.124217.18898-.124218.314967-.310544.37796l-.931632-.125986c-.124218 0-.186327-.125987-.124218-.18898l-.372653.062993zm.931632.440953c-.163585-.068374-.329294-.1314-.49687-.18898l.062109.062993zm-.186326-.629933h-.186327c.372653.125987.745306.125987 1.117959.062993-.310544-.125986-.621088-.125986-.931632-.125986zm-3.66442-2.330752h-.186326v.062993h-.186326l-.621088-.062993-.496871-.062993h-.248435.49687-.248435l.310544.125986h-.49687v-.062993l-.124218-.062993-.621088-.125987-.372653-.062993-.248435-.062993-.124218-.125987c-.186326-.125987-.124217-.314966.062109-.440953.621088-.18898 1.242176-.251973 1.863264-.18898l.248436.125987h.062108l.124218.18898h-.434762.062109c-.621088-.125987-1.242176-.125987-1.863264.062993v.125986h.124218l.310544.125987c.869523.18898 1.739046.37796 2.608569.440953zm-2.422243-.18898.49687.125987zm1.304285.125987h.310544-.124218c0 .062993-.124217 0-.124217 0zm-1.05585 0 .186327.062993h-.186327z" fill="#000"/><path d="m146.650611 178.825771c-.247555.32433-.866443.32433-1.299665.389195l-.433221-.129731-.123778-.064866c0-.259463.309444-.454061.618888-.518927h.247555v-.129731h.185667l.618887.129731zm-1.485331.129732c.433221.064866.866443 0 1.237776-.194597h-.185667c-.371332-.129732-.804554-.064866-1.175887.129731zm4.146548 1.297316-.309444.129732h-.123777l-.247556.064866-.185666.064866h-.123777l-.061889.129731h-.309444l-.433222.194598h-.123777c0 .129731-.185666.129731-.247555.194597v.064866c0 .064866-.061889.064866 0 .129731h-.123778c-.123777-.064865-.061889-.194597-.061889-.259463.123778-.324329.804555-.45406 1.175887-.648658-.309444.064866-.618888 0-.928331-.064866l-.123778-.064866.061889-.129731c0-.129732.185666-.194598.371332-.259463l-1.670996.129731c-.433222-.324329.371332-.518926.742665-.648658l.804554-.259463h.123777v.194597l-1.237775.389195h.618888l.618887-.064866h.495111v.129732l-.123778.064866-.185666.129731-.309444.129732h1.670997l.123777-.064866h.123778zm-1.670997-.648658h.123778-.495111l-.804554.064866h1.237776zm1.113998.518927h.185666-1.175886.804554v-.129732h.185666zm-1.237776-.064866h.123778-.185666zm.866443.129731h-.123777zm-8.169318-4.410875c.866443.389195 1.732886.648659 2.661217.843256l-.49511-.064866h.123778l-.618888-.129731h-.680777c-.371332-.064866-.680776-.194598-.99022-.389195-.49511-.324329 0-.648658.49511-.77839.433222 0 .866443.064866 1.237776.259463.123777.129732-.123778.259463-.371333.324329l-.866443-.064866c-.123777-.129731-.185666-.194597-.123777-.259463l-.371333.064866zm.928332.454061c-.163006-.070406-.328128-.135306-.495111-.194597h.061889zm-.185667-.648658h-.185666c.371333.129732.742665.129732 1.113998 0zm-1.299664-.518926h-.123778zm.433221-.194598h.123778zm1.175887-.843255h.061889zm-3.403882-.259464h-.061889zm-.371333.064866h.061889zm-.804554.259463h-.061889zm.061889 0h-.061889zm.123777 0h-.123777zm.123778-.129731h-.123778.123778l.123777-.064866h-.061889zm-.495111.129731h.123778zm.804555-.194597h.061888zm-1.670997-.518927.371332-.129731c-.123777 0-.247555 0-.371332.129731zm2.908772.194598h-.061889zm-.061889 0h-.061889.371333zm-.061889 0 .061889.064866h-.247555.123778zm.495111 0h-.123778zm.866443 1.491914v-.064866zm-2.908773-.972988h-.061889zm-.309444.129732h-.123777zm1.54722.389195-.309444.194597.123777-.129731h.123778c.123777 0 .123777-.194598.247555-.194598l.371333-.194597s-.185667 0-.185667.129731c0 .129732-.061889.064866-.123777.129732l-.123778.064866-.061889.129731zm2.784995-.389195h.061888zm1.547219 2.400035h.061889z" fill="#000"/><path d="m141.642053 174.727967c-.059865.127826-.299326.19174-.359191.255653l-.47892.255652-.478921.19174h-.059865c-.11973 0-.23946.191739-.299325.191739l-1.317032.511306-1.077571.191739h-.179595v-.127826c0-.191739.059865-.383479.179595-.511305l.179595-.19174.179595-.063913.11973-.127826-.179595.191739s-.23946.127826-.179595.19174h-.059865l.35919-.19174.359191-.255653.299325-.191739c.059865 0 .23946-.063913.179595-.127826.119731 0 .119731-.127827.179596-.063914v-.127826l.299325-.191739h-.11973v.063913h-.299326v.127826c.179596-.191739.359191-.255653.598651-.383479l.23946-.19174-2.394602.511306h-.538786l-.598651.255653h-1.556492c-.11973-.063914-.179595-.19174-.11973-.319566 0-.19174.419056-.447393.598651-.639132l.299325-.063913.598651-.319566.179595-.063913.11973-.063913.179595-.063914h.119731l.35919-.191739.419056-.127826.35919-.127827c.11973 0 .179595-.063913.23946 0l1.496627-.511305h.179595l.359191-.127827.658516-.191739c.179595.063913.35919.191739.299325.319566h-.299325c-.359191 0-.778246.191739-1.197302.255652l-.538785.19174-.419056.063913-.35919.127827-.419056.127826h-.23946l-.419056.127826-.299325.127827h-.11973c-.059865.127826-.179596.191739-.299326.191739h-.11973l-.598651.319566-.179595.127826c-.299325.063913-.598651.255653-.778246.511306h.778246l.598651-.063913h.059865l.838111-.255653h.059865l.598651-.19174h.11973-.299325.059865-.059865l-.419056.127827h-.179595l-.179595.127826h-.059865.419055-.059865l.059865-.063913h.059865c.11973 0 .179595-.127827.239461-.063913.059865.063913.11973-.063914.23946-.127827h.059865l.35919-.127826.11973-.063913h.059866l.419055-.127827h.897976l-.059865-.063913h-.658516.239461-.239461l-.23946.127827-.419056.063913h.239461-.239461l-.059865.063913-.35919.127826.059865-.063913.598651-.191739h.299325l.897976-.19174h.538786v.127826l-.179595.19174-.598651.447392h-.23946l-.299326.19174-.11973.063913c-.11973 0-.179595.127826-.299325.191739l-.299326.255653h-.059865c-.23946.19174-.47892.319566-.47892.511305h.11973c.211931-.006199.418521-.072366.598651-.191739l.23946-.063913.179595-.063913.23946-.063914.239461-.127826h.23946l.11973-.063913h.059865l.239461-.127826.11973-.063914c0-.063913.11973 0 .11973 0l.179595-.127826h.23946l.119731-.127826h.179595l.11973-.063913.059865-.063914h.11973v-.063913l.11973-.063913h.11973-.059865.059865l.119731-.063913.11973-.063913.11973-.063914.059865-.127826-.179595.127826.299325-.191739h.059865l.11973-.127826s.239461-.127827.239461-.255653h.059865l.11973.127826c0 .127827-.299326.19174-.359191.255653l-.23946.127826-.11973.127827h-.179595v.063913l-.598651.319566h-.059865l-.23946.191739h-.239461s-.059865.127827-.179595.063913v.127827c-.23946 0-.419055.127826-.598651.191739l-.897976.383479h-.23946c-.11973 0-.23946.127827-.299325.19174h.23946-.059865.179595l.419056-.19174h.11973l.059865-.063913h.059865l.179595-.063913h-.11973l.179595-.063913h.11973l.179595-.127827h.119731l.11973-.063913h.11973l.23946-.191739h.179595l.179596-.127827h-.179596.239461-.11973.11973l.179595-.063913h-.11973l.11973-.127826h.059865l.179595-.127826h.179595l.119731-.127827h-.059865.11973l.11973-.127826-.179595.127826h.179595l.179595-.127826h.059865l.11973-.127827-.059865.063914v-.063914l.239461-.127826h.059865l.179595-.063913h.059865v-.127826c.059865 0 .11973.127826 0 .127826l-.179595.191739c-.179596.255653-.419056.447393-.658516.575219zm-5.208262 0v.063913h.119731v-.063913h-.119731.059865-.059865.059865-.059865l-.059865.063913h-.11973v.063913h.23946zm3.352445-.703045h.179595-.419056zm-2.155143-.703045-.419056.127827zm-1.676222 1.59783h.059865-.179595s-.119731 0-.059865.063913h.179595zm.718381-1.278264c-.11973 0-.239461 0-.359191.127826zm.35919-.127826-.299325.127826zm-1.137436.447392s-.179596 0-.179596.127826c0 .127827.179596-.063913.179596-.127826zm-.957841.575219.23946-.127827zm3.292579-1.40609h-.179596zm-2.873524 1.086524.23946-.127827zm.299325.766958h-.11973zm5.148397-.063913.059865.063913.059865-.063913zm-5.327992-.830872h.179595zm1.616357-.703045h-.059865zm-.897976.383479h.11973zm1.795952-.639131h-.179595.11973zm1.137437 1.597829h-.059865l-.11973.127826.11973-.063913zm-1.795952-1.342177h-.119731zm2.215007.639132h-.059865zm-.23946.447392h.11973zm-2.753793.255653-.059866.063913h.059866zm2.095277-1.789569h-.059865zm-3.651769 1.40609h.059865zm.35919-.127826-.11973.063913zm10.476388 2.4287h.059865zm-.598651 2.236961h-.059865l.299326.063914h-.239461z" fill="#000"/><path d="m118.537634 111.883132-2.292979 1.266428-2.413662-1.266428 2.413662-1.323992zm-5.551423 3.05094-2.35332 1.323993-2.353321-1.266428 2.353321-1.323993 2.35332 1.323993z" fill="#fff"/><path d="m120.817204 119.107527-.067046.117909-3.084124 1.591768h-.469323l-3.15117-1.591768-.067046-.117909.067046-.117909 3.084124-1.591769h.469323l3.15117 1.591769zm-3.419355 1.355951 2.547755-1.355951-2.614801-1.296997-2.547754 1.296997z" fill="#0f5cd8"/><path d="m124.237 121.932-2.28 1.165-2.28-1.165 2.28-1.115z" fill="#fff"/><path d="m126.516129 122.526882-.066395.117909-3.054181 1.591768h-.464767l-3.120576-1.591768c-.073338 0-.132791-.05279-.132791-.117909l.132791-.117909 3.054181-1.591769h.464767l3.054181 1.591769zm-3.319762 1.355951 2.523019-1.355951-2.589414-1.355951-2.589415 1.355951z" fill="#0f5cd8"/><path d="m129.935 125.402-2.338 1.114-2.221-1.114 2.221-1.165z" fill="#fff"/><path d="m131.075269 125.677902-.12322.122667-2.83406 1.65601h-.43127l-2.83406-1.65601c-.068052 0-.12322-.05492-.12322-.122667l.12322-.122668 2.83406-1.65601h.43127l2.83406 1.65601zm-3.14211 1.349341 2.34118-1.349341-2.40279-1.410676-2.34118 1.410676zm-2.52601 2.269348-.12322.122667-2.77245 1.656011h-.49288l-20.454519-11.776074c-.068052 0-.12322-.05492-.12322-.122668l.12322-.122667 2.83406-1.656011h.43127l20.454519 11.776075zm-3.14211 1.410676 2.40279-1.410676-20.023249-11.530739-2.4644 1.410675z" fill="#0f5cd8"/><path d="m125.376 129.584-2.386 1.491-20.409-12.186 2.449-1.491z" fill="#fff"/><path d="m115.11828 115.747126-.134093.117909-3.017078 1.532814h-.469323l-3.084124-1.532814c-.074057 0-.134092-.052789-.134092-.117909l.134092-.117908 3.017078-1.591769.268185-.058954h.268184l3.084124 1.650723zm-3.352309 1.296997 2.547754-1.296997-2.681846-1.355951-2.547755 1.355951z" fill="#0f5cd8"/><path d="m129.935 118.563-2.338 1.114-2.221-1.114 2.221-1.165z" fill="#fff"/><path d="m149.311828 129.365591-.067046.117909-3.084124 1.591769h-.469323l-3.084124-1.591769c-.074058 0-.134093-.052789-.134093-.117909l.134093-.117908 3.017077-1.591769h.53637l3.084124 1.591769zm-3.352309 1.296997 2.547755-1.296997-2.614801-1.355951-2.614801 1.355951z" fill="#0f5cd8"/><path d="m141.333 132.19-2.338 1.165-2.221-1.115 2.221-1.165 2.338 1.165z" fill="#fff"/><path d="m143.612903 132.725992-.067046.176863-3.084124 1.532814-.268185.058955h-.201138l-3.15117-1.591769-.067046-.117909.067046-.117909 3.084124-1.591768h.469323l3.084124 1.591768.134092.117909zm-3.352308 1.355951 2.547754-1.296997-2.681847-1.355951-2.547754 1.355951 2.6148 1.296997z" fill="#0f5cd8"/><path d="m135.634 128.77-2.279 1.165-2.28-1.165 2.28-1.114z" fill="#fff"/><path d="m136.673726 129.238949-.062359.126642-2.868516 1.709678h-.436514l-2.868516-1.709678c-.06888 0-.124718-.0567-.124718-.126642l.124718-.126643 2.806157-1.646356.249436-.063322h.249437l2.868516 1.709678zm-3.117953 1.456392 2.369645-1.456392-2.494363-1.393071-2.369644 1.393071zm8.917345-4.875747-.062359.126643-2.868516 1.709677-.249437.063321h-.187077l-2.930875-1.772998-.062359-.126643.062359-.126643 2.868516-1.646356.249436-.063321h.187078l2.930875 1.709677zm-3.117952 1.456392 2.369644-1.456392-2.494363-1.393071-2.369644 1.456392zm-2.68144-4.812426-.062359.126643-2.868516 1.772999h-.436514l-2.868516-1.709678c-.06888 0-.124718-.056699-.124718-.126642l.124718-.126643 2.868516-1.709677h.436514l2.930875 1.772998v.063322zm-3.117953 1.456392 2.369645-1.456392-2.432004-1.456392-2.432003 1.456392zm-2.681439-4.812425v.126643l-2.930875 1.646356-.187078.063321h-.249436l-2.868516-1.709677-.062359-.126643.062359-.126643 2.868516-1.709677h.436514l2.868516 1.709677zm-3.117953 1.39307 2.369644-1.39307-2.432003-1.456392-2.369644 1.456392zm-2.61908-11.587813-.062359.126643-2.868517 1.709677h-.436513l-2.930875-1.709677-.06236-.126643.06236-.126643 2.868516-1.709677h.436513l2.868517 1.709677zm-3.117953 1.456392 2.369644-1.456392-2.494362-1.456392-2.369644 1.456392zm8.854986 1.962963v.063321l-2.930875 1.709677-.187078.063322h-.249436l-2.868516-1.772999-.062359-.126643.062359-.126643 2.868516-1.646356.187077-.063321h.249437l2.868516 1.709677.062359.126643zm-3.117953 1.39307 2.369644-1.456392-2.432003-1.39307-2.369644 1.39307zm-8.356113-1.39307-.062359.126642-2.868517 1.709678h-.436513l-2.868516-1.709678c-.06888 0-.124719-.0567-.124719-.126642l.062359-.126643 2.868517-1.709678h.436513l2.930876 1.709678zm-3.117953 1.456391 2.369644-1.456391-2.494362-1.456392-2.369644 1.456392zm8.854986 1.899642-.062359.126643-2.868517 1.709677h-.436513l-2.930875-1.709677-.06236-.126643.06236-.126643 2.868516-1.646356.249436-.063321h.187077l2.868517 1.709677zm-3.117953 1.456392 2.369644-1.456392-2.494362-1.39307-2.369644 1.39307zm-14.217864-11.587814-.062359.126643-2.868517 1.709677h-.436513l-2.868517-1.709677c-.06888 0-.124718-.0567-.124718-.126643l.124718-.126642 2.868517-1.709678h.436513l2.868517 1.709678zm-3.117953 1.393071 2.369644-1.393071-2.432003-1.456392-2.432003 1.456392z" fill="#0f5cd8"/><path d="m112.839 109.394-2.28 1.165-2.279-1.165 2.279-1.114z" fill="#fff"/><path d="m107.899642 112.16733-.063322.124907-2.912784 1.686258h-.443249l-2.912784-1.686258c-.069943 0-.126643-.055923-.126643-.124907l.126643-.124908 2.912784-1.686258h.443249l2.912784 1.686258zm-3.16607 1.436441 2.406213-1.436441-2.469534-1.436442-2.469534 1.436442zm9.054958-4.808956-.063321.124908-2.912784 1.686257h-.443249l-2.912784-1.686257c-.069943 0-.126643-.055923-.126643-.124908l.126643-.124908 2.912784-1.623803.189964-.062454h.253285l2.912784 1.686257v.124908zm-3.166069 1.436441 2.406213-1.436441-2.532856-1.373987-2.406212 1.373987zm9.054958-4.746501-.126642.124908-2.912784 1.623803-.189964.062454h-.253286l-2.912784-1.686257c-.069942 0-.126642-.055923-.126642-.124908l.126642-.124908 2.912784-1.686257h.44325l2.912784 1.686257c.063321 0 .126642 0 .126642.124908zm-3.22939 1.373987 2.406212-1.373987-2.469534-1.436442-2.406212 1.436442zm-2.659499-4.684048-.063321.062454-2.912784 1.686258h-.443249l-2.912784-1.686258c-.069943 0-.126643-.055923-.126643-.124908l.126643-.124908 2.912784-1.623803.189964-.062454h.253285l2.912784 1.686257s.063321.062454 0 .124908zm-3.166069 1.373988 2.406213-1.436442-2.532856-1.373987-2.406212 1.373987z" fill="#0f5cd8"/><path d="m113.045177 102.869245-2.382803 1.36628-2.382804-1.428384 2.382804-1.366281 2.382803 1.366281zm5.68207 3.291494-2.443901 1.366281-2.321706-1.366281 2.321706-1.428384zm5.620973 3.291494-2.382804 1.428385-2.382803-1.428385 2.382803-1.428384zm5.68207 3.353598-2.443901 1.366281-2.321706-1.428384 2.321706-1.366281 2.443901 1.366281zm5.620973 3.291495-2.382804 1.36628-2.382803-1.36628 2.382803-1.428385zm5.68207 3.291494-2.443901 1.428384-2.321706-1.428384 2.321706-1.366281z" fill="#fff"/><path d="m143.612903 119.030514-.064295.12322-2.957596 1.66347h-.450069l-3.021891-1.66347c-.071019 0-.128592-.055167-.128592-.12322l.128592-.12322 2.957595-1.60186.257183-.06161h.192886l3.021892 1.66347zm-3.214778 1.41703 2.443231-1.41703-2.571822-1.35542-2.443231 1.35542zm-2.764709-4.682359-.064296.12322-2.957595 1.663469h-.450069l-2.957596-1.663469c-.071019 0-.128591-.055168-.128591-.12322l.128591-.12322 2.957596-1.66347h.450069l2.957595 1.66347zm-3.214778 1.355419 2.443231-1.355419-2.507527-1.41703-2.507526 1.41703z" fill="#0f5cd8"/><path d="m146.975 121.982-2.251 1.115-2.251-1.115 2.251-1.165 2.308 1.165z" fill="#fff"/><path d="m149.031266 122.603894-.064296.12322-2.957596 1.66347h-.450069l-2.957596-1.66347c-.071019 0-.128591-.055167-.128591-.12322l.128591-.12322 2.893301-1.66347h.514364l2.957596 1.66347zm-3.214779 1.41703 2.443232-1.41703-2.571823-1.41703-2.443231 1.41703zm9.194266 1.8483s0 .12322-.128591.12322l-2.957596 1.66347h-.450069l-2.957596-1.66347-.064296-.12322.064296-.12322 2.957596-1.66347h.450069l2.957596 1.66347zm-3.279074 1.41703 2.507527-1.41703-2.571822-1.35542-2.443232 1.35542z" fill="#0f5cd8"/><path d="m153.870968 126.320271-2.505022 1.439012-2.379771-1.439012 2.442396-1.376447zm-46.40553-20.021043-2.379771 1.439012-2.505022-1.439012 2.505022-1.439013zm17.409902 10.010521-2.442397 1.439013-2.442396-1.439013 2.442396-1.376446zm11.585726 6.694537-2.442396 1.439012-2.442397-1.439012 2.442397-1.439013zm5.824176 3.315985-2.505022 1.439012-2.379771-1.439012 2.379771-1.376447 2.505022 1.439013zm5.76155 3.378551-2.442396 1.376447-2.442397-1.376447 2.442397-1.439012z" fill="#fff"/><path d="m102.580645 108.849462-.134092.117909-3.017078 1.532814-.2681847.058955h-.2681847l-3.0841239-1.591769-.0670462-.117909.0670462-.117908 3.0841239-1.591769h.4693232l3.0841242 1.591769zm-3.4193547 1.296997 2.6148007-1.296997-2.6818469-1.355951-2.5477545 1.355951z" fill="#0f5cd8"/><path d="m101.673925 109.679403-2.3657716 1.338971-2.426433-1.338971 2.426433-1.399833zm5.580796 3.225702-2.305111 1.399833-2.426433-1.399833 2.426433-1.338971zm11.222253 6.512266-2.244451 1.399833-2.426433-1.399833 2.426433-1.399833 2.305111 1.399833z" fill="#fff"/><path d="m103.879191 96.9226734c.123814.1246943.185721.2493886 0 .3117358h-.433348l-.123813-.1246943.123813-.1246943c.123814-.1246943.309535-.1246943.433348-.0623472zm1.17623.7481659.123814.1246943-.123814.1246943h-.433348c-.06838 0-.123813-.0558275-.123813-.1246943l.123813-.1246943zm1.238137.6858187c.123814 0 .123814.1870415 0 .2493886h-.433348c-.06838 0-.123813-.0558275-.123813-.1246943l.123813-.1246943zm1.17623.6858187.123814.1246943-.123814.1246943h-.433348c-.06838 0-.123813-.0558275-.123813-.1246943l.123813-.1246943zm-4.890641-1.3092903c.123814.0623472.123814.1870415 0 .2493887-.123813.0623471-.371441.0623471-.495254 0-.068381 0-.123814-.0558276-.123814-.1246944l.123814-.1246943c.123813-.0623471.371441-.0623471.495254 0zm1.176231.6858187.123813.1246944-.123813.1246943c-.123814.0623471-.371442.0623471-.495255 0l-.123814-.1246943.123814-.1246944c.123813-.0623471.371441-.0623471.495255 0zm1.238136.6858188c.123814.0623471.123814.1870414 0 .2493886-.123813.0623471-.371441.0623471-.495254 0-.068381 0-.123814-.0558276-.123814-.1246943l.123814-.1246943c.123813-.0623472.371441-.0623472.495254 0zm1.176231.7481658.123813.1246943-.123813.124694c-.123814.062347-.371442.062347-.495255 0-.068381 0-.123814-.055827-.123814-.124694l.123814-.1246943c.123813-.0623471.371441-.0623471.495255 0zm-4.952548-1.3716374c.123813.1246943.18572.2493886 0 .3117358h-.433348l-.123814-.1246943.123814-.1246943c.123814-.1246944.309534-.1246944.433348-.0623472zm1.17623.7481659.123814.1246943-.123814.1246943h-.433348c-.06838 0-.123814-.0558276-.123814-.1246943l.123814-.1246943zm1.238137.6234715c.123814.1246943.123814.2493883 0 .3117353-.123814.062348-.371441.062348-.495255 0-.06838 0-.123814-.055827-.123814-.124694l.123814-.1246941c.123814-.0623472.371441-.0623472.495255 0zm1.17623.7481663c.123814.062347.123814.187041 0 .249388h-.433348c-.123814 0-.123814-.187041 0-.249388zm-4.890641-1.3716378c.123814.1246943.123814.2493886 0 .3117357-.1238137.0623472-.3714411.0623472-.4952548 0-.0683804 0-.1238137-.0558275-.1238137-.1246943l.1238137-.1246943c.1238137-.0623471.3714411-.0623471.4952548 0zm1.17623.7481658.123814.124694-.123814.124695c-.18572.062347-.309534.062347-.495255 0l-.123813-.124695.123813-.124694c.123814-.0623471.371441-.0623471.495255 0zm1.238137.685819c.123814.062347.123814.187041 0 .249388-.123814.062348-.371441.062348-.495255 0-.06838 0-.123813-.055827-.123813-.124694l.123813-.124694c.123814-.062347.371441-.062347.495255 0zm1.17623.685818.123814.124695-.123814.124694c-.123814.062347-.371441.062347-.495255 0l-.123813-.124694.123813-.124695c.123814-.062347.371441-.062347.495255 0zm-4.9525477-1.30929c.1857206.124694.1857206.187042 0 .311736h-.4333479c-.1238137-.124694-.1238137-.187042 0-.311736zm1.1762301.748166.1238137.124694-.1238137.124695h-.4333479c-.0683804 0-.1238137-.055828-.1238137-.124695l.1238137-.124694zm1.2381366.685819c.123814 0 .123814.187041 0 .249388h-.433348c-.06838 0-.123813-.055827-.123813-.124694l.123813-.124694zm1.17623.685818.123814.124695-.123814.124694c-.123813.062347-.371441.062347-.495254 0-.068381 0-.123814-.055827-.123814-.124694l.123814-.124695c.123813-.062347.371441-.062347.495254 0zm-4.9525473-1.30929c.1857205.062347.1857205.187042 0 .249389h-.433348c-.1238137-.062347-.1238137-.187042 0-.249389s.3714411-.062347.4952548 0zm1.2381369.685819.1238137.124694-.1238137.124695c-.1238137.062347-.3714411.062347-.4952548 0l-.1238137-.124695.1238137-.124694c.1238137-.062347.3714411-.062347.4952548 0zm1.238137.685819c.1238137.062347.1238137.187041 0 .249388s-.3714411.062347-.4952548 0c-.0683804 0-.1238137-.055827-.1238137-.124694l.1238137-.124694c.1238137-.062348.3714411-.062348.4952548 0zm1.1762304.748165.123813.124695-.123813.124694c-.123814.062347-.371441.062347-.495255 0-.068381 0-.123814-.055827-.123814-.124694l.123814-.124695c.123814-.062347.371441-.062347.495255 0zm-4.8906413-1.371637c.0619069.124694.1238137.187042 0 .311736-.1238137.062347-.3714411.062347-.4952548 0-.1238137-.124694-.1238137-.187042 0-.311736zm1.1143233.748166.1238137.124694-.1238137.124695h-.433348c-.0683804 0-.1238137-.055828-.1238137-.124695l.1238137-.124694zm1.2381369.623471c.1238137.124695.1238137.249389 0 .311736s-.3714411.062347-.4952548 0c-.0683804 0-.1238137-.055827-.1238137-.124694l.1238137-.124694c.1238137-.062348.3714411-.062348.4952548 0zm1.1762301.748166.1238137.124695-.1238137.124694h-.4333479c-.0683804 0-.1238137-.055828-.1238137-.124694l.1238137-.124695zm-4.8906409-1.371637c.1238137.124694.1238137.249389 0 .311736s-.3714411.062347-.4952548 0-.1238137-.187042 0-.249389.3714411-.062347.4952548 0zm1.1762301.748166.1238137.124694-.1238137.124694c-.1238137.062348-.3714411.062348-.4952548 0l-.1238137-.124694.1238137-.124694c.1238137-.062347.3714411-.062347.4952548 0zm1.2381369.685818c.1238137.062348.1238137.187042 0 .249389s-.3714411.062347-.4952548 0c-.0683804 0-.1238137-.055827-.1238137-.124694l.1238137-.124695c.1238137-.062347.3714411-.062347.4952548 0zm1.1762301.685819.1238137.124694-.1238137.124695c-.1238137.062347-.3714411.062347-.4952548 0l-.1238136-.124695.1238136-.124694c.1238137-.062347.3714411-.062347.4952548 0zm-4.9525478-1.30929c.1238137.124694.1857206.187041 0 .311736h-.4333479c-.1238137-.124695-.1238137-.187042 0-.311736zm1.1762301.748166.1238137.124694-.1238137.124694h-.4333479c-.0683804 0-.1238137-.055827-.1238137-.124694l.1238137-.124694zm1.238137.685818c.1238137 0 .1238137.187042 0 .249389s-.3714411.062347-.4952548 0c-.0683804 0-.1238137-.055827-.1238137-.124694l.1238137-.124695c.1238137-.062347.3714411-.062347.4952548 0zm1.1762301.685819.1238137.124695-.1238137.124694h-.433348c-.0683804 0-.1238137-.055828-.1238137-.124694l.1238137-.124695zm-4.890641-1.30929c.1238137.062347.1238137.187041 0 .249389-.1238137.062347-.3714411.062347-.4952548 0-.1238137-.062348-.1238137-.187042 0-.249389s.3714411-.062347.4952548 0zm1.1762301.685819.1238137.124694-.1238137.124694c-.1238137.062347-.3714411.062347-.4952548 0l-.1238137-.124694.1238137-.124694c.1238137-.062348.3714411-.062348.4952548 0zm1.238137.685818c.1238137.062348.1238137.187042 0 .249389s-.3714411.062347-.4952548 0c-.0683804 0-.1238137-.055828-.1238137-.124694l.1238137-.124695c.1238137-.062347.3714411-.062347.4952548 0zm1.1762301.748166.1238137.124695-.1238137.124694c-.1238137.062347-.3714411.062347-.4952548 0-.0683804 0-.1238137-.055828-.1238137-.124694l.1238137-.124695c.1238137-.062347.3714411-.062347.4952548 0zm-4.9525478-1.371637c.1238137.124694.1857205.187041 0 .311736h-.433348c-.1238137-.124695-.1238137-.187042 0-.311736zm1.1762301.748166c.1857205.062347.1857205.187041 0 .311735h-.433348l-.1238137-.124694.1238137-.124694c.1238137-.124694.3095343-.124694.433348-.062347zm1.2381369.623471c.1238137.124695.1238137.249389 0 .311736h-.4333479c-.0683804 0-.1238137-.055828-.1238137-.124694l.1238137-.124695h.4333479zm1.1762301.748166.1238137.124694-.1238137.124695h-.4333479c-.0683804 0-.1238137-.055828-.1238137-.124695l.1238137-.124694zm62.8973569 22.008546c.123814.062347.123814.187041 0 .249388-.123813.062348-.371441.062348-.495254 0-.123814 0-.123814-.187041 0-.249388.18572-.062347.309534-.062347.495254 0zm1.176231.685819c.123813.124694.123813.249388 0 .311735-.185721.062347-.309535.062347-.495255 0-.123814-.062347-.123814-.187041 0-.311735.18572-.062348.309534-.062348.495255 0zm1.238136.685818.123814.124695-.123814.124694c-.123813.062347-.371441.062347-.495254 0-.123814-.062347-.123814-.187042 0-.311736zm1.114324.748166.123813.124694-.123813.124695h-.433348c-.068381 0-.123814-.055828-.123814-.124695l.123814-.124694zm-4.890641-1.371637c.123813.124694.123813.249388 0 .311735h-.433348c-.123814-.062347-.123814-.187041 0-.311735zm1.17623.748166.123814.124694-.123814.124694h-.433348c-.123814 0-.123814-.187041 0-.249388zm1.238137.685818c.123814.062347.123814.187042 0 .249389s-.371441.062347-.495255 0c-.123814 0-.123814-.187042 0-.249389s.371441-.062347.495255 0zm1.17623.685819.123814.124694-.123814.124695c-.123814.062347-.371441.062347-.495255 0l-.123814-.124695.123814-.124694c.185721-.062347.309534-.062347.495255 0zm-4.890641-1.30929c.123814.062347.123814.187041 0 .249388s-.371441.062347-.495255 0c-.123814 0-.123814-.187041 0-.249388.185721-.062347.309534-.062347.495255 0zm1.17623.685818.123814.124695-.123814.124694c-.18572.062347-.309534.062347-.495255 0-.123813-.062347-.123813-.187041 0-.311736zm1.238137.685819c.123814.124694.123814.187042 0 .311736-.123814.062347-.371441.062347-.495255 0-.123813-.124694-.123813-.187042 0-.311736.123814-.062347.371441-.062347.495255 0zm1.17623.748166.123814.124694-.123814.124695c-.123814.062347-.371441.062347-.495255 0-.06838 0-.123813-.055828-.123813-.124695l.123813-.124694c.185721-.062347.309535-.062347.495255 0zm-4.952548-1.371637.123814.124694-.123814.124694h-.433348l-.123813-.124694.123813-.124694zm1.17623.748165.123814.124695-.123814.124694h-.433348c-.123813-.062347-.123813-.187041 0-.249389zm1.238137.685819c.123814.062347.123814.187042 0 .249389-.123813.062347-.371441.062347-.495254 0-.123814-.062347-.123814-.187042 0-.249389.123813-.062347.371441-.062347.495254 0zm1.17623.685819.123814.124694-.123814.124694c-.123813.062348-.371441.062348-.495254 0l-.123814-.124694.123814-.124694c.18572-.062347.309534-.062347.495254 0zm-4.952547-1.30929.123813.124694-.123813.124694h-.433348c-.068381 0-.123814-.055827-.123814-.124694l.123814-.124694c.123813-.062348.371441-.062348.495255 0zm1.238137.685818.123813.124695-.123813.124694c-.123814.062347-.371441.062347-.495255 0-.123814-.124694-.123814-.249389 0-.311736zm1.238137.685819c.123813.124694.123813.187041 0 .311736-.123814.062347-.371442.062347-.495255 0-.123814-.124695-.123814-.187042 0-.311736zm1.114323.748166.123814.124694-.123814.124694h-.433348c-.068381 0-.123814-.055827-.123814-.124694l.123814-.124694c.18572-.062347.309534-.062347.495255 0zm-4.828734-1.371638.123813.124695-.123813.124694c-.123814.062347-.371441.062347-.495255 0s-.123814-.187041 0-.311736h.495255zm1.114323.748166.123814.124695-.123814.124694h-.433348c-.123814-.062347-.123814-.187042 0-.249389zm1.238137.685819c.123814.062347.123814.187041 0 .249389-.123814.062347-.371441.062347-.495255 0-.123814 0-.123814-.187042 0-.249389s.371441-.062347.495255 0zm1.17623.685819.123814.124694-.123814.124694c-.123814.062347-.371441.062347-.495255 0l-.123813-.124694.123813-.124694c.185721-.062347.309534-.062347.495255 0zm-4.890641-1.309291c.123814.062348.123814.187042 0 .249389s-.371441.062347-.495255 0c-.123813 0-.123813-.187041 0-.249389.123814-.062347.371441-.062347.495255 0zm1.17623.685819.123814.124694-.123814.124695c-.123814.062347-.371441.062347-.495255 0-.123813-.124695-.123813-.187042 0-.311736zm1.17623.685819c.123814.124694.185721.187041 0 .311736h-.433348c-.123813-.124695-.123813-.187042 0-.311736zm1.238137.748166.123814.124694-.123814.124694c-.123813.062347-.371441.062347-.495255 0-.123813-.062347-.123813-.187041 0-.249388.185721-.062347.309535-.062347.495255 0zm-4.952548-1.371638c.123814.124695.123814.249389 0 .311736h-.433348c-.123813-.062347-.18572-.187041 0-.311736zm1.176231.748166.123813.124694-.123813.124695h-.433348c-.123814-.062347-.185721-.187042 0-.249389zm1.238136.685819c.123814.062347.123814.187041 0 .249388-.123813.062348-.371441.062348-.495254 0-.123814-.062347-.123814-.187041 0-.249388.123813-.062347.371441-.062347.495254 0zm1.176231.685819.123813.124694-.123813.124694c-.123814.062347-.371442.062347-.495255 0-.123814-.124694-.123814-.249388 0-.311736zm-4.890641-1.309291c.123813.062347.123813.187042 0 .249389-.123814.062347-.371441.062347-.495255 0-.123814 0-.123814-.187042 0-.249389s.371441-.062347.495255 0zm1.17623.685819.123813.124694-.123813.124695c-.123814.062347-.371441.062347-.495255 0l-.123814-.124695.123814-.124694c.123814-.062347.371441-.062347.495255 0zm1.17623.685819c.123814.124694.18572.187041 0 .311735h-.433348c-.123814-.124694-.123814-.187041 0-.311735zm1.238137.748166c.061907 0 .061907.187041 0 .249388-.185721.062347-.309534.062347-.495255 0-.06838 0-.123814-.055827-.123814-.124694l.123814-.124694c.185721-.062348.309534-.062348.495255 0zm-4.952548-1.371638c.123814.124694.123814.249389 0 .311736h-.433348l-.123814-.124694.123814-.124695c.123814-.124694.309534-.124694.433348-.062347zm1.17623.748166.123814.124694-.123814.124695h-.433348c-.123814-.062348-.18572-.187042 0-.249389zm1.238137.685819c.123814.062347.123814.187041 0 .249388-.123814.062348-.371441.062348-.495255 0-.123813 0-.123813-.187041 0-.249388.185721-.062347.309534-.062347.495255 0zm1.17623.685818c.123814.062348.123814.187042 0 .311736-.18572.062347-.309534.062347-.495255 0-.123813-.124694-.123813-.249388 0-.311736.185721-.062347.309535-.062347.495255 0zm-4.890641-1.30929c.123814.062347.123814.187042 0 .249389s-.371441.062347-.495255 0c-.06838 0-.123813-.055828-.123813-.124695l.123813-.124694c.123814-.062347.371441-.062347.495255 0zm1.114323.685819c.185721.124694.185721.249389 0 .311736h-.433348c-.123813-.124695-.123813-.187042 0-.311736.185721-.062347.309535-.062347.495255 0zm1.238137.685819c.123814.124694.123814.187041 0 .311735-.123813.062348-.371441.062348-.495254 0-.123814-.062347-.123814-.187041 0-.311735.18572-.062348.309534-.062348.495254 0zm1.238137.748165.123814.124695-.123814.124694c-.18572.062347-.309534.062347-.495254 0-.123814-.062347-.123814-.187041 0-.249389z" fill="#0f5cd8"/></g></g><g fill-rule="nonzero" transform="translate(16 16)"><path d="m33.9 18.6-1.7-.2c-1.3-.1-1.9-.6-1.9-1.6 0-1.1.8-1.8 2.4-1.8 1.1 0 2.1.3 2.8.8l1-1c-1-.8-2.3-1.1-3.8-1.1-2.3 0-3.9 1.2-3.9 3.1 0 1.8 1.1 2.7 3.2 2.9l1.8.2c1.2.1 1.8.6 1.8 1.6 0 1.3-1.1 1.9-2.8 1.9-1.3 0-2.5-.3-3.3-1.2l-1 1c1.2 1.1 2.6 1.5 4.4 1.5 2.6 0 4.3-1.2 4.3-3.2-.2-2-1.5-2.7-3.3-2.9zm13.3-4.8c-1.7 0-2.8.3-3.7 1.5l1 1c.6-.9 1.3-1.2 2.7-1.2 1.9 0 2.7.8 2.7 2.3v1h-3.2c-2.4 0-3.7 1.2-3.7 3.1 0 .8.3 1.6.8 2.2.7.7 1.5 1 3 1 1.4 0 2.2-.3 3.1-1.1v1h1.6v-7.2c-.1-2.4-1.5-3.6-4.3-3.6zm2.7 7c0 .9-.2 1.5-.5 1.8-.7.6-1.5.7-2.4.7-1.7 0-2.4-.6-2.4-1.8s.8-1.9 2.4-1.9h3zm7.6-5.6c1 0 1.6.3 2.4 1.2l1-1c-1.1-1.2-2-1.6-3.5-1.6-2.7 0-4.7 1.8-4.7 5.5 0 3.6 2 5.5 4.7 5.5 1.5 0 2.4-.4 3.5-1.6l-1.1-1c-.8.9-1.4 1.2-2.4 1.2s-1.9-.4-2.5-1.2c-.5-.7-.7-1.5-.7-2.9 0-1.3.2-2.2.7-2.9.7-.8 1.6-1.2 2.6-1.2zm13.4-1.3h-1.9l-4.8 4.7v-9.5h-1.6v15.4h1.6v-3.9l1.9-1.9 3.6 5.8h1.9l-4.4-6.9zm7.3-.3c-1.6 0-2.7.6-3.4 1.4-1 1-1.3 2.3-1.3 4.3s.3 3.3 1.3 4.3c.7.7 1.8 1.4 3.4 1.4s2.8-.6 3.4-1.4c1-1 1.3-2.3 1.3-4.3s-.3-3.3-1.3-4.3c-.6-.8-1.7-1.4-3.4-1.4zm1.3 8.3c-.3.3-.7.5-1.3.5s-1-.2-1.3-.5c-.6-.6-.6-1.6-.6-2.7 0-1.2.1-2.1.6-2.7.3-.3.7-.5 1.3-.5s1 .2 1.3.5c.6.6.6 1.5.6 2.7.1 1.2 0 2.2-.6 2.7zm10.8-8.2-2.2 6.9-2.3-6.9h-2.9l4.1 11.1h2.2l4.1-11.1zm7.6-.1c-2.9 0-4.8 2-4.8 5.7 0 4.5 2.5 5.7 5.1 5.7 2 0 3.1-.6 4.2-1.7l-1.7-1.6c-.7.7-1.3 1-2.5 1-1.6 0-2.4-1-2.4-2.5h6.9v-1.2c0-3.2-1.7-5.4-4.8-5.4zm-2.1 4.6c0-.5.1-.8.3-1.2.3-.7.9-1.2 1.9-1.2.9 0 1.6.5 1.9 1.2.2.4.2.7.3 1.2zm11-3.4v-1.1h-2.7v11.1h2.8v-6.7c0-1.4.9-2 1.8-2 .7 0 1 .2 1.5.7l2.1-2.1c-.8-.8-1.5-1-2.6-1-1.3-.1-2.3.4-2.9 1.1zm6.3-2.3v12.3h2.8v-8.8h2v-2.1h-2v-1.2c0-.6.3-1 1-1h1.1v-2.3h-1.6c-2.3 0-3.3 1.6-3.3 3.1zm16.2 1.1c-1.6 0-2.7.6-3.4 1.4-1 1-1.3 2.3-1.3 4.3s.3 3.3 1.3 4.3c.7.7 1.8 1.4 3.4 1.4s2.8-.6 3.4-1.4c1-1 1.3-2.3 1.3-4.3s-.3-3.3-1.3-4.3c-.6-.8-1.8-1.4-3.4-1.4zm1.3 8.3c-.3.3-.7.5-1.3.5s-1-.2-1.3-.5c-.6-.6-.6-1.6-.6-2.7 0-1.2.1-2.1.6-2.7.3-.3.7-.5 1.3-.5s1 .2 1.3.5c.6.6.6 1.5.6 2.7s0 2.2-.6 2.7zm16.5-8.2-1.8 6.9-2.3-6.9h-2l-2.3 6.9-1.8-6.9h-2.9l3.4 11.1h2.3l2.3-7 2.3 7h2.3l3.4-11.1zm-25.1 7.7v-12.1h-2.8v12.3c0 1.6 1 3.2 3.2 3.2h1.6v-2.3h-1c-.7 0-1-.4-1-1.1zm-80.7-5.8 1.4-1.4h-3v-3.5h-1.6v11.1c0 1.6.9 2.9 2.7 2.9h1.1v-1.3h-.8c-1 0-1.5-.6-1.5-1.6v-6.1z" fill="#222426"/><path d="m21 27v-8h3v11h-24v-11h3v8z" fill="#bcbbbb"/><path d="m5.4 19.1 13.6 2 .2-2.4-13.3-2.6zm1.8-6.8 12 5.6 1.1-2.4-12-5.6zm3.4-5.9 10.2 8.5 1.7-2-10.2-8.5zm6.5-6.2-2.1 1.6 7.9 10.6 2.1-1.6zm-12.1 24.8h14v-3h-14zm29.02 4.7h-3v1.4h2.7v1.5h-2.8v1.7h3v1.5h-4.9v-7.8h5zm7.04-1.6v7.8h-1.5l-2.8-4.3v4.3h-1.8v-7.8h1.5l2.9 4.4v-4.4zm6.85-.09v1.69h-2v6.2h-1.9v-6.2h-2v-1.69zm6 1.69h-3v1.4h2.7v1.5h-2.7v1.7h3v1.5h-4.9v-7.8h4.9zm5.32 6.2-1.3-2.9h-1v2.9h-1.9v-7.88h2.9c1.8 0 2.9.98 2.9 2.58 0 1-.4 1.7-1.2 2l1.5 3.2h-1.9zm-1.4-4.5c.8 0 1.3-.1 1.3-.8s-.5-.9-1.3-.9h-.8v1.7zm6.07 1.9v2.6h-1.9v-7.85h2.9c1.8 0 2.9.95 2.9 2.65s-1.1 2.6-2.9 2.6zm.7-1.7c1 0 1.4-.2 1.4-1 0-.6-.4-1-1.4-1h-.7v2zm8.5 4.3-1.3-2.9h-1v2.9h-1.8v-7.86h2.9c1.8 0 2.9.96 2.9 2.56 0 1-.4 1.7-1.2 2l1.5 3.2h-2zm-1.4-4.5c.8 0 1.3-.1 1.3-.8s-.5-.9-1.3-.9h-.8v1.7zm6.2 4.5h-1.9v-7.87h1.9zm5.5-5.6c-.3-.5-.7-.7-1.4-.7-.6 0-.9.3-.9.7 0 .5.4.7 1.4 1 1.7.5 2.3 1.1 2.3 2.4 0 1.4-.9 2.3-2.7 2.3-1.4 0-2.4-.3-3.1-1.3l1.4-1c.4.5.9.7 1.5.7.7 0 1-.3 1-.7s-.3-.7-1.5-1c-1.6-.5-2.2-1.2-2.2-2.5s.8-2.2 2.7-2.2c1.2 0 2.2.4 2.8 1.3zm7.5-.6h-3v1.4h2.7v1.5h-2.7v1.7h3v1.5h-4.9v-7.8h4.9z" fill="#f48024"/></g></g></svg>