<svg fill="none" height="200" viewBox="0 0 149 200" width="149" xmlns="http://www.w3.org/2000/svg" xmlns:xlink="http://www.w3.org/1999/xlink"><clipPath id="a"><path d="m0 0h148.8v200h-148.8z"/></clipPath><g clip-path="url(#a)"><path d="m10.0539 48.4606s3.4148 13.1699 3.9019 17.5607c.4883 4.3896-8.77976 14.1453-8.77976 19.0231 0 4.8785 1.94835 13.6583 12.68116 18.0486 10.7328 4.391 12.1946 15.609 12.1946 22.44 0 6.828-3.9019 19.997-3.9019 19.997s-2.4378 32.681 10.731 38.534 10.2434 5.853 13.1688 5.853c2.926 0 24.3893 8.783 37.071 5.367 12.6829-3.414 16.0953-7.316 16.0953-7.316s12.683.975 16.585-10.246c3.904-11.218 6.341-34.63 4.877-45.362-1.463-10.733-3.414-24.876 5.365-29.754 8.783-4.8787 18.049-10.7301 16.586-15.6091-1.464-4.8785-9.266-11.7076-9.266-11.7076s-1.952-12.1934-.49-15.1206c1.463-2.9266 10.244-10.2451 5.365-15.6095-4.875-5.3649-13.657-5.3649-13.657-5.3649l-11.218.9742s-19.0236-17.0714-43.9005-16.096c-24.8758.9753-40.4858 16.096-40.4858 16.096s-8.2916-2.9266-15.6089 0c-7.3174 2.9277-8.77634-.0006-7.3139 8.2921z" fill="#fba919"/><path d="m54.6247 121.086s-9.6598 14.77-16.7452 25.252c-1.0963 1.621 7.0854 1.733 7.0854 1.733zm4.5989-30.6217s-2.9121 7.2644-4.5071 11.1157c-1.7309 4.186-8.3327 6.269-8.3327 6.269s3.4218-3.589 3.4218-12.6818c0-3.8142 4.9249-5.3313 4.9249-5.3313l4.4931.6278z" fill="#e78724"/><path d="m56.2824 94.5713s-5.9659 7.1017-17.0422 3.1242c-11.0792-3.9757-12.215-18.1803-12.215-22.1572 0-3.977 21.0203 3.9769 23.8621 5.6817 2.8411 1.7048 8.2351 8.5211 5.3945 13.3513zm-41.8424-75.8822s10.2259-1.9902 17.0422 3.4078c6.8198 5.3969 8.806 9.6587 8.806 9.6587l-11.4908 9.1082s-5.5521-2.5738-7.2563-9.9603c-1.7042-7.386-.5679-10.7939-7.1011-12.2144z" fill="#e78724"/><path d="m53.2995 74.0589c-4.4024-6.2496-11.6582-8.9756-17.4515-9.4273-9.8778-.7725-14.5673 2.7197-14.5673 2.7197s16.1774.6847 20.8402 6.8088c8.6803 11.3983 21.344 12.3242 23.3691 9.8208-2.3418.1168-4.9174-1.0434-7.6748-3.6503-1.7223-1.631-3.1184-4.2879-4.5157-6.2717zm-27.3095 22.098s-17.94899-6.1706-14.5376-12.4184c3.4078-6.2502.6951-9.6557.6951-9.6557s-10.02245 7.4818-7.46902 15.4356c1.56996 4.8814 4.20302 8.4159 18.66222 15.1926 6.9354 12.882 1.4322 36.069 1.7617 36.178.5493.182 9.7377-4.542 9.1106-26.235-.1919-6.661-.7243-15.7554-8.223-18.4965zm23.5209-66.3526c-7.5261 3.8235-17.8368 9.1483-17.8368 9.1483l4.0582 2.0303c-.3877.6272-.5742 1.0015-.5742 1.0015l4.1652 1.8937s10.1678 7.3656 16.3971 12.1016c-2.0768-6.3972-8.1742-16.4453-8.1742-16.4453s-1.7274-4.6169 1.9647-9.7307zm25.003 155.8587c-23.1337 0-30.969-11.744-30.969-11.744l3.6154 8.804c1.3659 3.808 15.9437 15.66 27.3187 15.66" fill="#e78724"/><path d="m46.0798 165.984s2.1285 13.007 10.6508 13.007c7.2418 0 9.3756-10.987 9.3756-13.258zm-14.182-19.617c.7574-2.084 3.4085-10.511 4.26-18.18 1.0207-9.186.6487-22.62.6487-22.62s-2.2738 8.806-4.2623 10.229c-1.9873 1.419-5.6811 11.077-5.6811 11.077s-1.9786 14.378-2.9202 19.21c2.6063.522 4.7999-1.013 7.9549.284zm-20.5797-56.9905s4.8279-1.706 6.2496-12.215c1.42-10.5108-1.7054-19.601-1.7054-19.601s.2837 14.4871-1.42 17.3289c-1.7054 2.8394-3.1242 3.6921-5.11381 7.3859-1.98962 3.6944.85151 5.9642 1.98961 7.1012z" fill="#e78724"/><path d="m17.0829 21.1751-.9858-.6243c-2.9062.0982.9858.6243.9858.6243z" fill="#fdc168"/><path d="m53.4401 26.6922s-4.543-.7568-6.8169-4.1652c-2.2738-3.4091-8.7112-10.2277-18.9743-10.3033-10.2626-.0767-20.41584 2.7278-20.41584 2.7278l8.86294 5.6004c.9375-.0308 2.5766-.0181 5.287.0726 11.1234.3697 12.8358 11.3716 12.8358 11.3716l39.2006-5.3981" fill="#fba919"/><path d="m57.2293 87.4601s-5.3033 5.3028-13.4478 3.5974c-8.1439-1.7036-13.0688-5.3022-13.4472-11.5523-.3784-6.2497 1.7059-8.7113 1.7059-8.7113s9.089 2.8424 13.4473 6.6304c4.3558 3.7868 7.5748 9.8469 11.7412 10.0358z" fill="#fff"/><path d="m50.8111 85.5655s-4.5994 2.1006-9.74.3894c-6.7291-2.2447-7.1773-9.243-7.1773-9.243s-4.1286 12.115 7.4459 14.447c9.2831 1.8698 14.7736-3.5096 14.7736-3.5096l-5.3022-2.0844z" fill="#c9c9c9"/><path d="m54.0795 24.1219c-.4947-10.3893 8.0224-18.66396 10.974-19.01678.1627 1.76061-.1651 8.62808 2.7853 10.73978.8591-5.6091 3.7636-11.79359 15.2334-15.8449-2.4563 6.51523-.3284 11.9726.6859 14.5022 7.8318-7.1087 13.1089-5.93457 13.1089-5.93457s-5.4422 9.39067-3.3131 15.55247c-15.7228-1.2328-39.3977 1.6705-39.4744.0024zm-33.3324 15.8262c-3.7519-3.1125-.9555-6.0008-1.252-9.5371-.161-1.8815-.3098-3.6566-.93-4.636-3.4526-5.451-11.5965-7.1052-11.67787-7.1227l-3.8223-.7486 2.53018-2.9598c.32782-.3836 10.71829-10.29797 26.79849-5.10624 11.2484 3.62754 19.5754 15.92914 19.8852 16.42614l-5.6399 2.6522c-.0663-.1046-6.6495-11.668-16.2994-14.7794-7.8004-2.5168-14.9904-.1221-18.0693 1.4473 3.2736 1.3066 7.5533 3.6869 10.1323 7.7585 1.2166 1.9234 1.4224 4.3443 1.6206 6.689.2615 3.1039.5056 6.034 2.79 7.9318zm-10.0196 45.4335s4.7262-5.8614 6.1264-17.2655c.5499-4.4925-.4272-13.3525-1.9902-16.7609.2842 8.3799-1.846 16.7609-1.846 16.7609s-1.4363 15.5607-2.2902 17.2655z" fill="#463014"/><path d="m35.6504 34.0289c-.0029-.0122-1.5171-6.6292-5.7149-9.9696-5.9217-4.7105-13.1519-2.2047-13.2217-2.1826l-1.0497-3.2434c.3499-.1133 8.6141-2.7173 16.2303 2.6366 7.662 5.3841 8.5815 10.2649 8.6612 10.8037l-4.9058 1.9553zm-10.0783 47.1493s-2.4796-3.5497-2.0338-7.4534c.222-1.928 1.116-3.9072 2.7104-4.6093 2.9644-1.302 4.278 2.0576 4.278 2.0576s-4.1717 1.0294-4.9546 10.0051z" fill="#463014"/><path d="m52.7984 86.5888c.1035.193.157.3017.157.3017s-7.7347 5.8044-15.6607-.086c-4.2431-3.1562-3.842-10.9618-2.5423-14.272 3.3805.766 6.2472 2.1465 8.6431 3.7589-3.0283-2.7028-5.6788-4.6924-5.6718-4.7384l-3.4422-.9741-6.6901-2.2942c-.0855.5103-2.5256 11.9482 4.518 19.7416 3.1213 3.4561 17.7572 11.1949 24.7066-2.0379l-4.0176.5999z" fill="#463014"/><path d="m52.0742 87.4394c4.3541 6.6274 15.3409 2.8399 15.152-4.1664 0 0-7.3412 4.0513-13.8273-3.4085-3.7869-4.3547-15.9205-16.3627-32.3757-12.3725 11.3635 2.4994 26.408 12.8805 31.0504 19.9474z" fill="#463014"/><path d="m19.4864 106.144c1.0474.605 4.7418 4.431 4.7442 10.153 0 2.87-.2854 17.285-1.706 26.091 2.1361 1.388 3.6241 1.683 5.7515 3.098 1.0648-10.199 1.8286-24.981 1.4728-30.949-.4068-6.802-4.0495-11.368-7.4272-13.314-1.0578-.609-2.1628-1.207-3.2759-1.8084-5.7852-3.126-11.76798-6.3601-11.76798-11.8813 0-4.3199 1.67981-5.6707 3.45728-7.1029l.1918-.1552c1.1799-.9533 2.5145-2.0344 3.3056-3.809 2.1582-4.8522 2.511-17.2137 0-20.3513-1.252-1.5635-4.60585-6.8215-3.6416-10.3549.3674-1.3485 1.2166-2.3483 2.5994-3.0562 1.463-.7499 3.4398-1.1294 5.8729-1.1294 4.7791 0 10.0801 1.4549 12.8149 2.3209 9.7725 3.0975 21.5649 12.0278 24.9449 14.6911.097.0744.154.118.1645.125l2.1628 1.5043-1.3526-2.2634c-.0837-.1413-8.6507-14.2285-23.9695-19.3934-2.9801-1.005-8.835-2.6912-14.5894-2.6912-3.4253 0-6.3327.5987-8.6339 1.7769-2.8057 1.4351-4.70523 3.7246-5.49456 6.6192-1.9344 7.0954 4.36577 14.9951 4.58025 15.248.73471 1.3113 1.04621 10.8362-.651 14.648-.2325.5267-.87304 1.0434-1.68272 1.6973-.25401.2052-.53766.4185-.83816.6464-2.39417 1.8071-6.014197 4.5372-6.014197 10.8304 0 8.6106 8.726887 13.2791 15.740287 17.0331 1.1508.619 2.2488 1.205 3.2416 1.777z" fill="#463014"/><path d="m20.7471 39.9482c-3.7519-3.1126-.9555-6.0009-1.252-9.5372-.161-1.8815-.3098-3.6566-.93-4.636-3.4526-5.451-11.5965-7.1052-11.67787-7.1227l-3.8223-.7486 2.53018-2.9598c.32782-.3836 10.71829-10.29797 26.79849-5.10624 11.2484 3.62754 19.5754 15.92914 19.8852 16.42614l-5.6399 2.6522c-.0663-.1046-6.6495-11.668-16.2994-14.7794-7.8004-2.5168-14.9904-.1221-18.0693 1.4473 3.2736 1.3066 7.5533 3.6869 10.1323 7.7585 1.2166 1.9234 1.4224 4.3443 1.6206 6.689.2615 3.1039.5056 6.034 2.79 7.9318z" fill="#463014"/><path d="m20.6251 40.5858-.2424-.2011c-2.7819-2.3087-2.2884-4.5826-1.8106-6.7832.2174-1.0154.4464-2.0651.3534-3.1422-.1517-1.8106-.2976-3.5189-.8428-4.3809-3.287-5.1905-11.23152-6.8529-11.30999-6.8692l-4.77323-.9364 3.16433-3.6996c.05812-.0698 6.72969-6.80416 18.02859-6.80416 3.0807 0 6.2363.51267 9.3756 1.52695 11.7401 3.78511 20.1147 16.54001 20.1938 16.66621l.3389.5417-6.6716 3.1376-.2674-.4243c-.7184-1.2241-7.0442-11.6564-15.9931-14.5429-2.1977-.7091-4.5134-1.0678-6.8803-1.0678-4.2873 0-7.7637 1.1683-9.6138 1.953 3.0916 1.3921 6.8413 3.7351 9.2128 7.4767 1.2904 2.0378 1.4996 4.5285 1.7042 6.9354.2511 2.9923.4883 5.8067 2.5877 7.5493l.7923.6568-7.3459 2.4081z" fill="#463014"/><path d="m35.6504 34.0289c-.0029-.0122-1.5171-6.6292-5.7149-9.9696-5.9217-4.7105-13.1519-2.2047-13.2217-2.1826l-1.0497-3.2434c.3499-.1133 8.6141-2.7173 16.2303 2.6366 7.662 5.3841 8.5815 10.2649 8.6612 10.8037l-4.9058 1.9553z" fill="#463014"/><path d="m35.2429 34.8026-.1476-.651c-.0151-.064-1.5002-6.4542-5.5149-9.6465-2.2884-1.8216-5.0476-2.7469-8.1968-2.7469-2.4581 0-4.285.587-4.4844.6562l-.5423.1802-1.4083-4.3263.54-.1743c.2418-.0773 2.4354-.7615 5.5381-.7615 4.0932 0 7.9631 1.2015 11.196 3.4718 7.8545 5.519 8.8135 10.623 8.8949 11.1862l.0692.4452zm-13.8587-14.1785c3.3643 0 6.446 1.0347 8.9047 2.99 3.5648 2.8394 5.2417 7.8515 5.7486 9.6487l3.8641-1.5403c-.3499-1.3642-1.8902-5.4585-8.3328-9.9876-3.0823-2.1663-6.628-3.2637-10.5415-3.2637-2.1477 0-3.8159.3418-4.6401.5499l.6969 2.1541c.8079-.2174 2.3634-.5511 4.3001-.5511zm34.9901 155.2469c-1.6787 0-3.3916-.609-4.5785-1.636-.9091-.784-3.9828-3.607-5.3382-7.066-.5057-1.293-.3924-2.327.3417-3.072.5057-.51 1.556-1.12 3.6875-1.12l1.5165-.002c1.8071-.003 4.8493-.003 7.4498-.003h2.4936c1.6217 0 2.7842.351 3.452 1.035.8586.882.5836 2.003.343 2.594-.4174 1.035-2.1466 4.401-5.0737 7.53-1.048 1.122-2.5732 1.74-4.2937 1.74zm1.7594-88.0422-6.0601-.3894s1.549 2.7307 2.5528 6.2624c1.1335 3.9949-1.0363 9.8332-1.0363 9.8332s8.0805-9.1485 4.5436-15.7062zm-7.565 104.0442c-21.5696-1.658-29.1584-22.039-29.1584-26.284l5.6329.002-2.8161-.002h2.8161c.0285 1.835 5.7602 19.27 23.9568 20.669z" fill="#463014"/><path d="m44.5075 155.356c-.3371-1.947-.372-3.795.039-5.61-1.6392-1.233-4.5803-1.69-6.7873-2.406-1.8048-1.142-11.0403 1.171-17.7398-6.937-8.395-10.154-6.6285-16.215-6.6285-16.215-2.1524 2.391-4.23852 1.479-7.51909 12.63-3.28581 11.153 1.54205 18.928 10.53979 26.733 4.2507 3.687 10.2597 5.207 15.4287 5.788-1.7315-1.738 2.9574-1.912 6.1892-3.121-.2575-2.61.1744-5.143 2.1198-7.183 1.173-1.23 2.6825-1.965 4.2489-2.55.0872-.203.161-.39.2442-.584-.0552-.179-.1002-.361-.1349-.545z" fill="#fff"/><path d="m37.9864 166.15c-.1871-.548-.3284-1.106-.4667-1.668-.1494-.614-.8934-2.353.0232-.367-.2354-.509-.3894-1.032-.5028-1.56-14.5719-.019-27.24894-10.024-24.7996-31.058-1.9076-2.532-4.57904 5.107-4.57904 5.107s-7.295273 21.182 11.54534 29.392c6.2775 2.737 11.8256 4.7 13.1345 3.908 2.7267.554 5.1877-1.347 6.1107-2.597-.1726-.384-.3307-.768-.4656-1.157z" fill="#c9c9c9"/><path d="m44.2448 152.307c.0226-1.776.3853-3.495 1.2438-5.208.0599-.118.1291-.232.1936-.347-5.6073-.048-12.065-.585-17.5642-2.786-6.0444-2.418-13.6053-10.689-14.9044-20.407 0 0-11.38323 8.783-8.03872 27.585 3.13991 17.654 17.91352 23.41 34.76222 24.384.0093-.114-1.8949-4.047-1.2933-6.455-9.5673.695-20.2658-3.001-25.4302-11.499-4.7285-7.778-3.40209-21.058-1.459-23.004 4.7401 14.957 21.7963 17.998 32.4902 17.737z" fill="#463014"/><path d="m46.01 141.599c-3.0318 8.897-9.2244 16.099-9.2244 16.099s8.5188-.388 8.989-1.895c.3482-1.112 7.6923-18.304 10.5113-38.444-2.6516 4.356-10.0161 23.478-10.2759 24.24z" fill="#463014"/><path d="m94.2753 121.086s9.6577 14.77 16.7447 25.252c1.097 1.621-7.087 1.733-7.087 1.733zm-4.6001-30.6217s2.9121 7.2644 4.5047 11.1157c1.7322 4.186 8.3331 6.269 8.3331 6.269s-3.4215-3.589-3.4215-12.6818c0-3.8142-4.9244-5.3313-4.9244-5.3313l-4.4919.6278z" fill="#e78724"/><path d="m92.6164 94.5713s5.9653 7.1017 17.0456 3.1242c11.079-3.9769 12.214-18.1803 12.214-22.1572 0-3.977-21.02 3.9769-23.8621 5.6817-2.8412 1.7048-8.2375 8.5211-5.3975 13.3513zm41.8426-75.8822s-10.226-1.9902-17.045 3.4078c-6.816 5.3969-8.806 9.6587-8.806 9.6587l11.492 9.1082s5.554-2.575 7.258-9.9609c1.704-7.3854.568-10.7938 7.101-12.2138z" fill="#e78724"/><path d="m95.5999 74.0588c4.4021-6.2496 11.6561-8.9756 17.4511-9.4273 9.879-.7724 14.566 2.7197 14.566 2.7197s-16.177.6847-20.841 6.8088c-8.6813 11.3983-21.3404 12.3242-23.3655 9.8208 2.3413.1168 4.9186-1.0434 7.6737-3.6503 1.7217-1.631 3.119-4.2879 4.5157-6.2717zm27.3091 22.098s17.948-6.1706 14.539-12.4184c-3.408-6.2502-.698-9.6557-.698-9.6557s10.025 7.4818 7.469 15.4351c-1.57 4.8813-4.203 8.4159-18.662 15.1922-6.935 12.882-1.432 36.069-1.76 36.178-.55.183-9.737-4.541-9.11-26.235.191-6.661.724-15.755 8.222-18.4962zm-23.5199-66.3526c7.5239 3.8235 17.8359 9.1483 17.8359 9.1483l-4.057 2.0303c.387.6272.575 1.0015.575 1.0015l-4.166 1.8937s-10.1681 7.3656-16.398 12.1016c2.0751-6.3966 8.172-16.4447 8.172-16.4447s1.731-4.6169-1.9619-9.7307zm-25.0025 155.8588c23.1297 0 30.9654-11.744 30.9654-11.744l-3.613 8.804c-1.366 3.808-15.9453 15.66-27.3169 15.66" fill="#e78724"/><path d="m102.82 165.984s-2.131 13.007-10.6512 13.007c-7.24 0-9.375-10.987-9.375-13.258zm14.182-19.617c-.758-2.084-3.409-10.511-4.263-18.18-1.02-9.186-.646-22.62-.646-22.62s2.273 8.806 4.259 10.229c1.99 1.419 5.682 11.077 5.682 11.077s1.978 14.378 2.92 19.21c-2.606.522-4.797-1.013-7.952.284zm20.581-56.9905s-4.83-1.706-6.25-12.215c-1.42-10.5108 1.705-19.601 1.705-19.601s-.285 14.4871 1.42 17.3289c1.706 2.8405 3.125 3.6921 5.114 7.3859 1.987 3.6933-.854 5.9642-1.989 7.1012z" fill="#e78724"/><path d="m131.816 21.1751.987-.6243c2.907.0982-.987.6243-.987.6243z" fill="#fdc168"/><path d="m95.457 26.6923s4.546-.7568 6.817-4.1653c2.273-3.409 8.713-10.2276 18.977-10.3038 10.263-.0767 20.416 2.7278 20.416 2.7278l-8.864 5.6004c-.937-.0308-2.576-.018-5.289.0726-11.122.3697-12.834 11.3716-12.834 11.3716l-39.1995-5.3981" fill="#fba919"/><path d="m91.6701 87.4601s5.3033 5.3028 13.4459 3.5974c8.145-1.7036 13.069-5.3022 13.448-11.5523.378-6.2497-1.704-8.7113-1.704-8.7113s-9.092 2.8424-13.447 6.6304c-4.3564 3.788-7.5753 9.8469-11.7429 10.0358z" fill="#fff"/><path d="m98.0865 85.5655s4.6015 2.1006 9.7405.3894c6.73-2.2447 7.179-9.243 7.179-9.243s4.126 12.115-7.449 14.447c-9.281 1.8698-14.7727-3.5096-14.7727-3.5096l5.3022-2.0844z" fill="#c9c9c9"/><g fill="#463014"><path d="m128.152 39.9482c3.752-3.1126.958-6.0009 1.254-9.5372.158-1.8815.307-3.6566.928-4.636 3.452-5.451 11.596-7.1052 11.68-7.1227l3.823-.7486-2.531-2.9598c-.328-.3836-10.718-10.29797-26.801-5.10624-11.246 3.62754-19.5729 15.92914-19.8827 16.42614l5.6377 2.6522c.068-.1046 6.652-11.668 16.302-14.7794 7.801-2.5168 14.989-.1221 18.067 1.4473-3.272 1.3067-7.553 3.6869-10.132 7.7585-1.217 1.9234-1.421 4.3443-1.618 6.6891-.262 3.1038-.508 6.0339-2.793 7.9317zm10.017 45.4334s-4.723-5.8613-6.124-17.2655c-.549-4.4924.426-13.3524 1.988-16.7609-.284 8.3799 1.849 16.7609 1.849 16.7609s1.436 15.5607 2.287 17.2655z"/><path d="m113.25 34.0289c.002-.0122 1.516-6.6292 5.714-9.9696 5.922-4.7105 13.152-2.2047 13.22-2.1826l1.052-3.2434c-.351-.1133-8.614-2.7173-16.232 2.6366-7.662 5.3841-8.579 10.2649-8.661 10.8037zm10.077 47.1493s2.48-3.5497 2.032-7.4534c-.22-1.928-1.113-3.9072-2.709-4.6093-2.964-1.302-4.278 2.0576-4.278 2.0576s4.172 1.0294 4.955 10.0051z"/><path d="m96.1015 86.5892c-.1034.1929-.1569.3016-.1569.3016s7.7314 5.8044 15.6574-.086c4.246-3.1562 3.845-10.9618 2.543-14.272-3.379.766-6.245 2.1465-8.643 3.7589 3.029-2.7028 5.68-4.6924 5.671-4.7384l3.444-.9741 6.689-2.2931c.086.5104 2.526 11.9482-4.52 19.7422-3.121 3.4556-17.7573 11.1943-24.7044-2.0384l4.0199.5987z"/><path d="m96.8235 87.4394c-4.3542 6.6274-15.3381 2.8399-15.1486-4.1664 0 0 7.3389 4.0513 13.825-3.4085 3.7863-4.3547 15.9231-16.3627 32.3771-12.3725-11.363 2.4994-26.408 12.8805-31.0535 19.9474z"/><path d="m129.415 106.144c-1.048.605-4.744 4.431-4.744 10.153-.003 2.87.283 17.285 1.706 26.091-2.137 1.388-3.625 1.683-5.752 3.098-1.065-10.199-1.831-24.981-1.473-30.949.406-6.802 4.047-11.368 7.425-13.314 1.057-.609 2.163-1.207 3.278-1.8084 5.786-3.126 11.768-6.3601 11.768-11.8813 0-4.3199-1.681-5.6707-3.458-7.1029l-.19-.1552c-1.18-.9533-2.517-2.0344-3.306-3.809-2.159-4.8522-2.512-17.2137-.002-20.3513 1.252-1.5635 4.608-6.8215 3.644-10.3549-.37-1.3485-1.22-2.3483-2.602-3.0562-1.463-.7499-3.437-1.1294-5.873-1.1294-4.776 0-10.08 1.4549-12.812 2.3209-9.773 3.0975-21.5647 12.0278-24.9476 14.6911-.0965.0744-.1523.118-.1628.125l-2.1645 1.5043 1.3525-2.2634c.0861-.1413 8.6514-14.2285 23.9694-19.3934 2.981-1.005 8.835-2.6912 14.59-2.6912 3.426 0 6.329.5987 8.634 1.7769 2.806 1.4351 4.704 3.7246 5.495 6.6192 1.934 7.0954-4.367 14.9951-4.582 15.248-.734 1.3113-1.045 10.8362.649 14.648.234.5267.874 1.0434 1.686 1.6973.254.2052.535.4185.838.6464 2.394 1.8071 6.013 4.5372 6.013 10.8304 0 8.6106-8.727 13.2791-15.738 17.0331-1.152.619-2.251 1.205-3.241 1.777z"/><path d="m119.005 38.9351c-1.388-2.3511-4.939-6.8907-13.12-10.8798-9.1307-4.45-19.6978-6.7088-31.4129-6.714v-.0029h-.0454v.0011c-11.7168.0059-22.2863 2.2652-31.4142 6.7146-8.1817 3.9897-11.7296 8.5287-13.1188 10.8799l-.5964.7887 7.0064 1.5595.222-.2807.1175-.2569c.1081-.4633 1.0474-2.9632 8.8582-6.7722 8.3508-4.0728 18.0908-6.138 28.9463-6.1415 10.8577.0035 20.5936 2.0687 28.9433 6.1415 7.812 3.809 8.754 6.3089 8.861 6.7716l.117.2575.22.2807 7.008-1.5595-.593-.7876z"/><path d="m128.152 39.9482c3.752-3.1126.958-6.0009 1.254-9.5372.158-1.8815.307-3.6566.928-4.636 3.452-5.451 11.596-7.1052 11.68-7.1227l3.823-.7486-2.531-2.9598c-.328-.3836-10.718-10.29797-26.801-5.10624-11.246 3.62754-19.5729 15.92914-19.8827 16.42614l5.6377 2.6522c.068-.1046 6.652-11.668 16.302-14.7794 7.801-2.5168 14.989-.1221 18.067 1.4473-3.272 1.3066-7.553 3.6869-10.132 7.7585-1.217 1.9234-1.421 4.3443-1.618 6.689-.262 3.1039-.508 6.034-2.793 7.9318z"/><path d="m120.931 38.1806.79-.6573c2.101-1.7426 2.336-4.557 2.59-7.5493.204-2.4076.414-4.8988 1.703-6.9355 2.371-3.7403 6.123-6.0839 9.213-7.4778-1.85-.7835-5.327-1.9518-9.615-1.9518-2.368 0-4.679.358-6.878 1.0677-8.951 2.8865-15.276 13.3188-15.992 14.5429l-.269.4243-6.6714-3.1376.3395-.5417c.0784-.1261 8.4509-12.8805 20.1919-16.66617 3.139-1.01428 6.294-1.52636 9.377-1.52636 11.299 0 17.972 6.73613 18.029 6.80413l3.164 3.6996-4.775.9359c-.079.0162-8.023 1.678-11.312 6.8697-.545.8626-.688 2.5692-.843 4.3809-.09 1.0777.136 2.1274.357 3.1423.477 2.2006.97 4.4768-1.813 6.7832l-.242.2011z"/><path d="m113.25 34.0289c.002-.0122 1.516-6.6292 5.714-9.9696 5.922-4.7105 13.152-2.2047 13.22-2.1826l1.052-3.2434c-.351-.1133-8.614-2.7173-16.232 2.6366-7.662 5.3841-8.579 10.2649-8.661 10.8037z"/><path d="m107.716 32.4356.066-.4452c.083-.5632 1.043-5.666 8.896-11.1862 3.23-2.2703 7.102-3.4712 11.195-3.4712 3.104 0 5.298.6824 5.541.7609l.539.1743-1.408 4.3263-.543-.1802c-.204-.0686-2.029-.6562-4.486-.6562-3.149 0-5.906.9242-8.195 2.747-4.015 3.1933-5.501 9.5836-5.515 9.6464l-.147.6498zm24.1-11.2605.699-2.1541c-.825-.2093-2.495-.5499-4.642-.5499-3.913 0-7.46 1.0986-10.541 3.2637-6.445 4.5303-7.985 8.6234-8.334 9.9876l3.867 1.5403c.505-1.7983 2.181-6.8105 5.747-9.6487 2.461-1.9559 5.54-2.99 8.903-2.99 1.935 0 3.493.3337 4.301.5511zm-43.5822 152.9559c-2.9266-3.129-4.6582-6.496-5.0767-7.53-.2395-.589-.5115-1.712.3464-2.595.6691-.683 1.8286-1.034 3.4498-1.034h2.4953c2.6005 0 5.641 0 7.4493.002l1.517.003c2.1301 0 3.1791.609 3.6841 1.12.735.743.85 1.777.343 3.072-1.354 3.459-4.4287 6.283-5.3372 7.065-1.1904 1.028-2.8993 1.637-4.5779 1.637-1.7205 0-3.2452-.618-4.2931-1.74zm2.533-86.3023 6.0567-.3894s-1.5467 2.7307-2.5506 6.2624c-1.1334 3.9949 1.0364 9.8333 1.0364 9.8333s-8.0811-9.1486-4.5425-15.7063z"/></g><path d="m74.4505 66.1925c-3.8624 0-8.8983-.1058-12.677-2.8214 0 0 4.9476 8.6728 12.6706 8.6728l.0064-1.0974.0064 1.0974c7.7237 0 12.6701-8.6722 12.6701-8.6722-3.7781 2.7144-8.8175 2.8208-12.6765 2.8208z" fill="#e78724"/><path d="m85.0851 66.1509c-3.874 2.3447-7.3342 3.1573-10.6345 3.2294-3.3015-.0721-6.76-.8847-10.6346-3.2294 0 0 5.6422 6.8849 10.6061 6.9378v.004c.0087 0 .0174-.0023.0279-.0023.0087 0 .0174.0023.0279.0023v-.004c4.9627-.0529 10.6072-6.9378 10.6072-6.9378zm13.2461 125.7221-.4318-5.616c18.1916-1.399 23.9246-18.834 23.9536-20.669h5.634c.002 4.245-7.589 24.627-29.1558 26.285z" fill="#463014"/><path d="m104.391 155.356c.339-1.947.372-3.795-.039-5.61 1.642-1.233 4.581-1.69 6.788-2.406 1.804-1.142 11.042 1.171 17.742-6.937 8.395-10.154 6.626-16.215 6.626-16.215 2.154 2.391 4.238 1.479 7.521 12.63 3.286 11.153-1.544 18.928-10.542 26.733-4.25 3.687-10.259 5.207-15.428 5.788 1.731-1.738-2.958-1.912-6.188-3.121.258-2.61-.175-5.143-2.121-7.183-1.171-1.23-2.682-1.965-4.247-2.55-.088-.203-.164-.39-.245-.584.052-.177.101-.356.134-.545z" fill="#fff"/><path d="m110.911 166.15c.189-.548.327-1.106.466-1.668.152-.614.896-2.353-.022-.367.236-.509.389-1.032.503-1.56 14.572-.019 27.249-10.024 24.797-31.058 1.908-2.532 4.581 5.107 4.581 5.107s7.295 21.182-11.545 29.392c-6.278 2.737-11.825 4.7-13.134 3.908-2.729.554-5.191-1.347-6.111-2.597.172-.384.333-.768.465-1.157z" fill="#c9c9c9"/><path d="m104.652 152.307c-.02-1.776-.385-3.495-1.241-5.208-.061-.118-.13-.232-.194-.347 5.607-.048 12.065-.585 17.564-2.786 6.044-2.418 13.605-10.689 14.905-20.407 0 0 11.383 8.783 8.039 27.585-3.143 17.654-17.915 23.41-34.763 24.384-.009-.114 1.896-4.047 1.294-6.455 9.564.695 20.263-3.001 25.43-11.499 4.726-7.778 3.401-21.058 1.457-23.004-4.738 14.957-21.796 17.998-32.491 17.737z" fill="#463014"/><path d="m111.456 156.735c-2.013-2.176-5.714-4.769-14.2472-4.769l-22.7298-.014h-.0558c-6.5507.004-22.7326.014-22.7326.014-8.5316 0-12.2325 2.594-14.2465 4.769-2.9336 3.168-3.3939 7.573-1.3642 13.08 5.3929 14.657 12.9718 29.549 38.3422 29.57v.002c.0093 0 .0174-.002.0279-.002.0087 0 .0174.002.0279.002v-.002c25.368-.022 32.9471-14.913 38.3411-29.57 2.03-5.507 1.569-9.912-1.363-13.08zm-3.95 12.052c-2.569 7.36-9.4747 25.176-33.0566 25.207-23.5848-.031-30.4877-17.846-33.0574-25.207-1.4218-4.084-1.3137-7.106.3324-8.983 1.1248-1.283 3.7078-2.815 9.5947-2.815l6.1502-.002c4.5373-.004 10.2341-.009 16.9807-.012 6.7442.003 12.4439.008 16.98.012l6.1479.002c5.8891 0 8.4711 1.531 9.5961 2.815 1.645 1.879 1.754 4.899.332 8.983z" fill="#463014"/><path d="m102.888 141.599c3.032 8.897 9.225 16.099 9.225 16.099s-8.519-.388-8.99-1.895c-.346-1.112-7.6899-18.304-10.509-38.444 2.6494 4.356 10.014 23.478 10.274 24.24z" fill="#463014"/></g></svg>