<svg width="213" height="188" viewBox="0 0 213 188" fill="none" xmlns="http://www.w3.org/2000/svg">
<path d="M96.3291 153.763V35.6192L67.5977 39.6543L45.626 82.2335L24.7461 44.7237L0.593748 48.541V141.659L23.3281 145.53V86.5948L45.5713 128.52H46.0625L69.5059 86.4317V149.782L96.3291 153.763V153.763ZM0.102539 21.7178V33.9297L106.415 16.3193V0.728516L0.102539 21.7178ZM0.102539 166.139L106.415 187.074V171.536L0.102539 153.871V166.139Z" fill="#F1C761"/>
<path d="M106.415 0.727539V16.3193L212.728 33.9297V21.7178L106.415 0.727539ZM212.236 141.659V48.541L188.085 44.7246L167.204 82.2334L145.232 39.6553L116.502 35.6191V153.763L143.325 149.782V86.4326L166.768 128.52H167.259L189.503 86.5957V145.53L212.237 141.659H212.236ZM106.415 187.074L212.728 166.139V153.871L106.416 171.536V187.073" fill="white"/>
</svg>
