<svg fill="none" height="20" viewBox="0 0 26 20" width="26" xmlns="http://www.w3.org/2000/svg"><path d="m8.59507 20c9.16423 0 14.17883-7.6969 14.17883-14.36024 0-.21653 0-.43307-.0097-.6496.9718-.70866 1.8173-1.60433 2.4878-2.61811-.894.40354-1.8562.66929-2.8668.79724 1.0301-.62008 1.8173-1.61417 2.1963-2.795274-.9621.580708-2.0311.994094-3.1682 1.220474-.9135-.984254-2.206-1.59449-3.6346-1.59449-2.7502 0-4.9854 2.26378-4.9854 5.04921 0 .3937.0486.77756.1264 1.15158-4.13998-.2067-7.81345-2.22441-10.27215-5.275593-.4276.748033-.67055 1.614173-.67055 2.539373 0 1.75197.88435 3.29724 2.21574 4.20275-.81632-.02953-1.58406-.2559-2.25461-.62992v.0689c0 2.44094 1.72011 4.4882 3.99416 4.9508-.41788.1181-.85519.1772-1.31195.1772-.3207 0-.63168-.0296-.93294-.0886.63168 2.0078 2.47813 3.4645 4.655 3.5039-1.7104 1.3583-3.85811 2.1654-6.19047 2.1654-.39845 0-.79689-.0197-1.185621-.0689 2.196311 1.4173 4.820211 2.2539 7.628761 2.2539z" fill="#adb5bd"/></svg>