<svg fill="none" height="20" viewBox="0 0 21 20" width="21" xmlns="http://www.w3.org/2000/svg"><path d="m20.25 7.98649c-.1311-.64238-.3281-1.27506-.583-1.87941-.2504-.59344-.5611-1.16462-.922-1.69859-.358-.52952-.7686-1.02709-1.2209-1.47894-.4519-.45266-.9499-.86365-1.479-1.22085-.534-.36204-1.106-.6715-1.6987-.922713-.6044-.254444-1.2367-.451851-1.8795-.582108-.6582-.1351101-1.3362-.203879-2.0135-.203879-.67798 0-1.35519.0687689-2.0142.203879-.64242.130257-1.27513.328068-1.87912.582108-.59266.251213-1.16469.561073-1.6995.922713-.52955.3572-1.02714.76779-1.47902 1.22085-.45229.45185-.8625.94982-1.22012 1.47894-.36126.53397-.67154 1.10515-.92196 1.69859-.256077.60435-.452283 1.23703-.583761 1.87941-.134714.65735-.203082 1.33533-.203082 2.0129 0 .67881.068368 1.35681.203082 2.01451.131478.6424.328088 1.2751.583361 1.879.25041.5926.5611 1.1655.92196 1.6994.35762.5295.76783 1.0263 1.22011 1.479.45188.4518.94988.862 1.47903 1.22.53481.3612 1.10684.6715 1.6995.9219.60358.2561 1.2367.451 1.87912.5829.65901.1359 1.33622.2039 2.0142.2039.6773 0 1.3553-.068 2.0135-.2039.6432-.1319 1.2751-.3272 1.8795-.5829.5927-.2504 1.1647-.5611 1.6987-.9219.5295-.358 1.0271-.7678 1.479-1.22.4519-.4527.8629-.9499 1.2209-1.479.3613-.5339.6716-1.1068.922-1.6994.2553-.6035.4519-1.2366.583-1.879.1351-.6581.203-1.3361.203-2.01451.0004-.67757-.0675-1.35555-.2026-2.0129zm-1.2598 1.92836c-.1234-.0267-3.0135-.64886-5.9481-.27993-.0598-.14603-.1209-.29328-.184-.44093-.1776-.41787-.369-.8321-.568-1.23865 3.3731-1.37619 4.7425-3.35632 4.7583-3.37979 1.1978 1.45386 1.9224 3.31224 1.9418 5.3393zm-2.8966-6.32431c-.0214.03317-1.2375 1.88427-4.4609 3.09258-1.46-2.68239-3.06404-4.81301-3.19228-4.9821.64566-.15655 1.31882-.2411 2.01258-.2411 2.1627 0 4.1357.80581 5.6406 2.13062zm-7.68635-1.88265c0 .00081-.00162.00162-.00162.00162s-.00931.00243-.02508.00567c.00849-.00243.0182-.00405.0267-.00729zm-1.59837.56795c.11368.15251 1.69344 2.29365 3.17165 4.92062-4.10089 1.08938-7.65969 1.0469-7.88543 1.04286.55504-2.64518 2.33221-4.8385 4.71378-5.96348zm-4.89623 7.72355c0-.09101.00404-.18001.00728-.26981.15049.00323 4.37073.0991 8.76777-1.21681.2447.47896.479.9656.693 1.45183-.1129.03156-.2254.0655-.3366.1019-4.60902 1.4895-6.9469 5.6367-6.9469 5.6367s.00324.0024.00324.004c-1.35968-1.5133-2.18779-3.5137-2.18779-5.70781zm8.54035 8.54071c-2.06679 0-3.9625-.7346-5.4399-1.9571.11206.091.19135.1493.19135.1493s1.6372-3.5703 6.70175-5.3349c.019-.0073.038-.0125.057-.0182 1.2019 3.1225 1.6979 5.7378 1.8245 6.4841-1.0251.4361-2.1518.6768-3.3347.6768zm4.7725-1.4567c-.087-.5158-.5421-3.0222-1.6623-6.1002 2.7566-.4409 5.1462.3151 5.3222.373-.3803 2.3794-1.7424 4.4319-3.6599 5.7272z" fill="#adb5bd"/></svg>