<svg fill="none" height="20" viewBox="0 0 21 20" width="21" xmlns="http://www.w3.org/2000/svg"><path clip-rule="evenodd" d="m4.46615 20v-13.2268h-4.088075v13.2268zm0-17.91511c-.02435-1.183665-.81322-2.08489-2.09476-2.08489-1.28187 0-2.119437.901225-2.119437 2.08489 0 1.15795.813217 2.08524 2.070407 2.08524h.02435c1.30622 0 2.11944-.92729 2.11944-2.08524zm6.66945 17.91511v-7.536c0-.4033.0292-.8066.1478-1.0941.3242-.8063 1.0621-1.64084 2.3012-1.64084 1.6233 0 2.6413.92124 2.6413 2.73494v7.536h4.1157v-7.7376c0-4.145-2.2127-6.07372-5.1641-6.07372-2.4199 0-3.482 1.3529-4.0718 2.27373l.0295-1.76902h-4.10854c.0591 1.26624 0 13.30661 0 13.30661z" fill="#adb5bd" fill-rule="evenodd"/></svg>