<svg fill="none" height="20" viewBox="0 0 22 20" width="22" xmlns="http://www.w3.org/2000/svg"><path clip-rule="evenodd" d="m10.8965 0c-5.8286 0-10.554947 4.59042-10.554947 10.254 0 4.5294 3.024107 8.372 7.219117 9.7285.5281.0937.72055-.2229.72055-.4948 0-.2429-.00907-.8881-.01425-1.7435-2.93599.6194-3.55546-1.3747-3.55546-1.3747-.48015-1.1845-1.17219-1.4993-1.17219-1.4993-.95836-.6363.07258-.6237.07258-.6237 1.05944.073 1.6167 1.0568 1.6167 1.0568.94151 1.5666 2.47009 1.1141 3.07206.8522.0959-.6628.36805-1.1147.67001-1.3709-2.34374-.2587-4.80799-1.1386-4.80799-5.06749 0-1.11912.41146-2.03431 1.08665-2.75123-.10886-.25932-.47107-1.30165.10303-2.71346 0 0 .88644-.27569 2.90294 1.05114.84173-.22785 1.745-.34115 2.6425-.34555.8961.0044 1.7994.1177 2.6424.34555 2.0152-1.32683 2.8997-1.05114 2.8997-1.05114.5761 1.41181.2138 2.45414.105 2.71346.6765.71692 1.0853 1.63211 1.0853 2.75123 0 3.93899-2.4681 4.80569-4.8196 5.05939.3791.3166.7166.9422.7166 1.8989 0 1.3703-.0129 2.4762-.0129 2.8123 0 .2745.1898.5936.7257.4935 4.1905-1.3589 7.2127-5.1991 7.2127-9.7272 0-5.66358-4.7264-10.254-10.5562-10.254z" fill="#adb5bd" fill-rule="evenodd"/></svg>