<svg fill="none" height="230" viewBox="0 0 294 230" width="294" xmlns="http://www.w3.org/2000/svg"><g stroke-miterlimit="10" stroke-width="6"><path d="m291 51h-288v176h288z" fill="#343a40" stroke="#495057"/><g stroke="#adb5bd"><path d="m60.125 74.932c-4.734 0-8.572 3.838-8.572 8.572v8.572c0 4.734 3.838 8.572 8.572 8.572s8.572-3.838 8.572-8.572v-8.572c0-4.734-3.838-8.572-8.572-8.572z"/><path d="m42.981 73.459v28.662"/><path d="m94.413 74.932c-4.734 0-8.572 3.838-8.572 8.572v8.572c0 4.734 3.838 8.572 8.572 8.572s8.572-3.838 8.572-8.572v-8.572c-.001-4.734-3.838-8.572-8.572-8.572z"/><path d="m77.269 73.459v28.662"/><path d="m111.556 73.459v28.662"/><path d="m51.482 120.221c-4.734 0-8.572 3.838-8.572 8.571v8.571c0 4.734 3.838 8.572 8.572 8.572s8.572-3.838 8.572-8.572v-8.571c.001-4.733-3.838-8.571-8.572-8.571z"/><path d="m77.269 120.221c-4.734 0-8.572 3.838-8.572 8.571v8.571c0 4.734 3.837 8.572 8.572 8.572 4.734 0 8.572-3.838 8.572-8.572v-8.571c0-4.733-3.838-8.571-8.572-8.571z"/><path d="m111.556 120.221c-4.734 0-8.572 3.838-8.572 8.571v8.571c0 4.734 3.838 8.572 8.572 8.572s8.572-3.838 8.572-8.572v-8.571c0-4.733-3.837-8.571-8.572-8.571z"/><path d="m94.413 118.746v28.662"/><path d="m206.963 120.221c-4.734 0-8.572 3.838-8.572 8.571v8.571c0 4.734 3.838 8.572 8.572 8.572 4.735 0 8.572-3.838 8.572-8.572v-8.571c0-4.733-3.837-8.571-8.572-8.571z"/><path d="m244.428 120.221c-4.734 0-8.571 3.838-8.571 8.571v8.571c0 4.734 3.837 8.572 8.571 8.572s8.572-3.838 8.572-8.572v-8.571c0-4.733-3.838-8.571-8.572-8.571z"/><path d="m227.283 118.746v28.662"/><path d="m145.843 120.221c-4.732 0-8.57 3.838-8.57 8.571v8.571c0 4.734 3.838 8.572 8.57 8.572 4.734 0 8.572-3.838 8.572-8.572v-8.571c0-4.733-3.838-8.571-8.572-8.571z"/><path d="m128.701 118.746v28.662"/><path d="m180.131 120.221c-4.733 0-8.57 3.838-8.57 8.571v8.571c0 4.734 3.837 8.572 8.57 8.572 4.734 0 8.572-3.838 8.572-8.572v-8.571c0-4.733-3.838-8.571-8.572-8.571z"/><path d="m162.988 118.746v28.662"/><path d="m60.125 169.018c-4.734 0-8.572 3.837-8.572 8.571v8.572c0 4.734 3.838 8.571 8.572 8.571s8.572-3.837 8.572-8.571v-8.572c0-4.735-3.838-8.571-8.572-8.571z"/><path d="m42.981 167.544v28.662"/><path d="m86.109 169.018c-4.734 0-8.572 3.837-8.572 8.571v8.572c0 4.734 3.838 8.571 8.572 8.571s8.572-3.837 8.572-8.571v-8.572c0-4.735-3.838-8.571-8.572-8.571z"/><path d="m120.396 169.018c-4.733 0-8.572 3.837-8.572 8.571v8.572c0 4.734 3.838 8.571 8.572 8.571s8.572-3.837 8.572-8.571v-8.572c0-4.735-3.838-8.571-8.572-8.571z"/><path d="m103.252 167.544v28.662"/><path d="m154.684 169.018c-4.732 0-8.571 3.837-8.571 8.571v8.572c0 4.734 3.838 8.571 8.571 8.571 4.734 0 8.572-3.837 8.572-8.571v-8.572c0-4.735-3.838-8.571-8.572-8.571z"/><path d="m137.541 167.544v28.662"/></g><path d="m291 3h-288v48h288z" fill="#495057" stroke="#495057"/><path d="m267 35c4.418 0 8-3.5817 8-8s-3.582-8-8-8-8 3.5817-8 8 3.582 8 8 8z" fill="#ff6b6b" stroke="#212529"/><path d="m235 35c4.418 0 8-3.5817 8-8s-3.582-8-8-8-8 3.5817-8 8 3.582 8 8 8z" fill="#4dabf7" stroke="#212529"/><path d="m203 35c4.418 0 8-3.5817 8-8s-3.582-8-8-8-8 3.5817-8 8 3.582 8 8 8z" fill="#adb5bd" stroke="#212529"/></g></svg>