<svg fill="none" height="322" viewBox="0 0 322 322" width="322" xmlns="http://www.w3.org/2000/svg"><path d="m117.375 142.313h-67.375v67.375h67.375z" fill="#3bc9db"/><path d="m217.688 124.625-33.688 67.375h67.375z" fill="#495057"/><path d="m160.25 272.816c18.64 0 33.75-15.11 33.75-33.75s-15.11-33.75-33.75-33.75-33.75 15.11-33.75 33.75 15.11 33.75 33.75 33.75z" fill="#ff6b6b"/><path d="m239.875 64.001v-14.001s-18.501-3.167-27.334-16c0 0-3-5.833-2.666-11.666h-11.501 1.502-11.501c.334 5.833-2.666 11.666-2.666 11.666-8.833 12.833-27.334 16-27.334 16v14.001" fill="#495057"/><path d="m236.375 96.125h-78v17.002h78z" fill="#3bc9db"/><path d="m208.375 22.334v-13.334l-18.5-9v22.334z" fill="#3bc9db"/><path d="m140 64.001v-32.001l-32-32v64.001z" fill="#adb5bd"/><path d="m61.375 242c0-9.94-8.059-18-18-18h-5.75-13c-9.941 0-18 8.06-18 18v60c0 9.94 8.059 18 18 18h18.75c9.941 0 18-8.06 18-18z" fill="#868e96" stroke="#495057" stroke-miterlimit="10" stroke-width="4"/><path d="m34 251c2.7614 0 5-2.239 5-5s-2.2386-5-5-5-5 2.239-5 5 2.2386 5 5 5z" fill="#495057"/><path d="m34.375 224v-32s-.375-16-16.375-16-16-16-16-16v-79.999s.375-16 16.188-16 15.812-16.001 15.812-16.001v-48" fill="#868e96"/><path d="m34.375 224v-32s-.375-16-16.375-16-16-16-16-16v-79.999s.375-16 16.188-16 15.812-16.001 15.812-16.001v-48" stroke="#495057" stroke-miterlimit="10" stroke-width="4"/><path d="m322 0h-64v320h64z" fill="#ffec99"/><path d="m290 297.905c4.556 0 8.25-3.694 8.25-8.25 0-4.557-3.694-8.25-8.25-8.25s-8.25 3.693-8.25 8.25c0 4.556 3.694 8.25 8.25 8.25z" fill="#212529"/><g stroke="#495057" stroke-miterlimit="10" stroke-width="4"><path d="m258 15.75h15.75"/><path d="m258 32h7.875"/><path d="m258 48h7.875"/><path d="m258 64h7.875"/><path d="m258 80h7.875"/><path d="m258 95.875h15.75"/><path d="m258 112.125h7.875"/><path d="m258 128.125h7.875"/><path d="m258 144.125h7.875"/><path d="m258 160.125h7.875"/><path d="m258 175.875h15.75"/><path d="m258 192.125h7.875"/><path d="m258 208.125h7.875"/><path d="m258 224.125h7.875"/><path d="m258 240.125h7.875"/></g><path d="m108 304c0 8.837 7.163 16 16 16s16-7.163 16-16" fill="#ffec99"/><path d="m140 64.001h-32v239.999h32z" fill="#868e96" stroke="#495057" stroke-miterlimit="10" stroke-width="4"/><path d="m107.333 96.125h33.334" stroke="#495057" stroke-miterlimit="10" stroke-width="4"/><path d="m107.333 112h33.334" stroke="#495057" stroke-miterlimit="10" stroke-width="4"/><path d="m107.333 128.125h33.334" stroke="#495057" stroke-miterlimit="10" stroke-width="4"/><path d="m158.375 298.333v9.667c0 6.627 5.373 12 12 12h56c6.627 0 12-5.373 12-12v-9.667z" fill="#3bc9db"/><g fill="#868e96"><path d="m241.875 113.127h-87v185.206h87z" stroke="#495057" stroke-miterlimit="10" stroke-width="4"/><path d="m241.875 64h-87v31.875h87z" stroke="#495057" stroke-miterlimit="10" stroke-width="4"/><path d="m90.9444 46.9156-.051-.0734-.0733-.0512c-.355-.2477-.5851-.6566-.5851-1.1189 0-.753.6103-1.363 1.362-1.363h.466c.7517 0 1.362.61 1.362 1.363v.465.0005c.0007.7524-.609 1.3625-1.362 1.3625-.4636 0-.8721-.2303-1.1186-.5845z" stroke="#495057"/><path d="m73.87 47.0341h-.887c-.7519 0-1.362-.6102-1.362-1.362 0-.753.6103-1.363 1.362-1.363h.887c.7517 0 1.362.61 1.362 1.363 0 .7518-.6101 1.362-1.362 1.362zm-18.614 0h-.887c-.7519 0-1.362-.6102-1.362-1.362 0-.753.6103-1.363 1.362-1.363h.887c.7517 0 1.362.61 1.362 1.363 0 .7518-.6101 1.362-1.362 1.362zm-18.614 0h-.887c-.7519 0-1.362-.6102-1.362-1.362 0-.753.6103-1.363 1.362-1.363h.887c.7517 0 1.362.61 1.362 1.363 0 .7518-.6101 1.362-1.362 1.362z" stroke="#495057"/><path d="m18.8049 46.791-.0733.0512-.0511.0734c-.2463.3541-.6557.5845-1.1185.5845-.7517 0-1.362-.61-1.362-1.363v-.465c0-.753.6103-1.363 1.362-1.363h.466c.7517 0 1.362.61 1.362 1.363 0 .4623-.2301.8712-.5851 1.1189z" stroke="#495057"/><path d="m17.562 103.342c-.7519 0-1.362-.61-1.362-1.362v-.886c0-.753.6103-1.363 1.362-1.363.7529 0 1.363.61 1.363 1.363v.886c0 .752-.61 1.362-1.363 1.362zm0-18.613c-.7517 0-1.362-.61-1.362-1.363v-.887c0-.7516.6098-1.361 1.362-1.361.7534 0 1.363.6096 1.363 1.361v.887c0 .7528-.6101 1.363-1.363 1.363zm0-18.616c-.752 0-1.362-.6104-1.362-1.361v-.887c0-.7531.6103-1.363 1.362-1.363.7529 0 1.363.6101 1.363 1.363v.887c0 .7505-.6098 1.361-1.363 1.361z" stroke="#495057"/><path d="m18.6793 118.93.0511.074.0737.051c.3541.247.5849.656.5849 1.118.0007.751-.6089 1.362-1.362 1.362h-.466c-.7519 0-1.362-.61-1.362-1.362v-.466c0-.752.6101-1.362 1.362-1.362.4635 0 .8719.23 1.1183.585z" stroke="#495057"/><path d="m73.87 121.535h-.887c-.7519 0-1.362-.61-1.362-1.362s.6101-1.362 1.362-1.362h.887c.7519 0 1.362.61 1.362 1.362s-.6101 1.362-1.362 1.362zm-18.614 0h-.887c-.7519 0-1.362-.61-1.362-1.362s.6101-1.362 1.362-1.362h.887c.7519 0 1.362.61 1.362 1.362s-.6101 1.362-1.362 1.362zm-18.614 0h-.887c-.7519 0-1.362-.61-1.362-1.362s.6101-1.362 1.362-1.362h.887c.7519 0 1.362.61 1.362 1.362s-.6101 1.362-1.362 1.362z" stroke="#495057"/><path d="m90.8191 119.055.074-.051.0513-.074c.2467-.354.6564-.585 1.1186-.585.7519 0 1.362.61 1.362 1.362v.466c.0007.751-.6089 1.362-1.362 1.362h-.466c-.7519 0-1.362-.61-1.362-1.362 0-.464.2294-.871.5841-1.118z" stroke="#495057"/><path d="m93.425 101.98c.0007.752-.6089 1.362-1.362 1.362-.753 0-1.363-.61-1.363-1.362v-.886c0-.753.6101-1.363 1.363-1.363.7517 0 1.362.61 1.362 1.363zm0-18.614v.0004c.0007.7524-.609 1.3626-1.362 1.3626-.7529 0-1.363-.6102-1.363-1.363v-.887c0-.7514.6096-1.361 1.363-1.361.7522 0 1.362.6094 1.362 1.361zm0-18.614v.0004c.0007.7501-.6087 1.3606-1.362 1.3606-.7532 0-1.363-.6105-1.363-1.361v-.887c0-.7529.6101-1.363 1.363-1.363.7517 0 1.362.6099 1.362 1.363z" stroke="#495057"/><path d="m86.394 114.271h11.34v11.338h-11.34z" stroke="#495057"/><path d="m86.394 40.2339h11.34v11.34h-11.34z" stroke="#495057"/><path d="m12.125 114.271h11.339v11.338h-11.339z" stroke="#495057"/><path d="m12.125 40.2339h11.339v11.34h-11.339z" stroke="#495057"/></g><path d="m36.886 63.8521h35.853" stroke="#ced4da" stroke-miterlimit="10" stroke-width="4"/><path d="m54.813 63.8521v34.3" stroke="#ced4da" stroke-miterlimit="10" stroke-width="4"/></svg>