<svg fill="none" height="244" viewBox="0 0 442 244" width="442" xmlns="http://www.w3.org/2000/svg"><path d="m380.909 242.57c33.24 0 60.186-3.715 60.186-8.296 0-4.582-26.946-8.296-60.186-8.296s-60.186 3.714-60.186 8.296c0 4.581 26.946 8.296 60.186 8.296z" fill="#868e96"/><path d="m60.3616 243.445c33.3368 0 60.3614-3.714 60.3614-8.296 0-4.581-27.0246-8.295-60.3614-8.295s-60.3616 3.714-60.3616 8.295c0 4.582 27.0248 8.296 60.3616 8.296z" fill="#868e96"/><path d="m100.592 111.312 1.553 3.209s8.813 11.761 3.368 13.604c-5.444 1.843-8.3328-11.155-8.3328-11.155l-1.4395-1.82z" fill="#ffb8b8"/><path d="m90.44 50.555 1.4487-.6129s1.7144.6129 1.7144 3.2488c0 2.636-2.1088 41.1202-2.1088 41.1202l4.2175 21.0869-5.799 1.055-8.9621-19.506z" fill="#575a89"/><path d="m90.4399 50.555 1.4487-.6129s1.7144.6129 1.7144 3.2488c0 2.636-2.1087 41.1202-2.1087 41.1202l11.3347 18.1879-7.3808 5.272-14.4975-20.824z" fill="#575a89"/><path d="m89.3856 111.708s6.8533 2.636 6.3262 7.381c-.5272 4.744-7.3806 99.11-7.3806 99.11l2.1087 10.543-20.0329.528-.5272-68.007-14.2339 68.007h-20.0329l14.234-119.671z" fill="#2f2e41"/><path d="m87.8039 226.634 4.7447 4.744s11.0704 2.109 8.4344 5.799c-2.6354 3.691-30.0489-1.054-30.0489-1.054l.5272-8.435z" fill="#2f2e41"/><path d="m53.5373 226.634 4.7446 4.744s11.0709 2.109 8.4349 5.799c-2.6359 3.691-30.0493-1.054-30.0493-1.054l.5272-8.435z" fill="#2f2e41"/><path d="m72.5156 31.5765c6.9878 0 12.6524-5.6647 12.6524-12.6524s-5.6646-12.65237-12.6524-12.65237c-6.9877 0-12.6523 5.66467-12.6523 12.65237s5.6646 12.6524 12.6523 12.6524z" fill="#ffb8b8"/><path d="m80.4234 26.3045-1.0545 21.6145-16.3425-9.489 2.1085-12.1255z" fill="#ffb8b8"/><path d="m62.4995 33.158 15.288 11.0709 2.636-7.9079 4.7445 12.6524-2.636 22.669z" fill="#cfcce0"/><path d="m62.4992 31.5764 16.8698 23.196.611-19.3774 5.188 4.0891v4.2175l7.3806 6.8534-2.6359 26.3591-.5272 31.1039s3.1631 2.636 2.1087 4.217c-1.0543 1.582-5.2718 5.272-10.0164 5.272-4.7447 0-34.2669-3.69-34.2669-5.799s1.0544-29.5221 1.0544-29.5221v-36.9028l12.6524-9.4892z" fill="#575a89"/><path d="m46.1565 119.088 6.8535 10.017 2.636-11.598-3.163-2.109z" fill="#ffb8b8"/><path d="m79.4015 134.194-10.1347 27.452.9894.365 10.1346-27.451z" fill="#000" opacity=".2"/><path d="m64.8716 6.5353s1.5815-7.90771 10.5436-6.32617l-1.0543.527175s8.4349-1.054362 7.3805 3.690275c0 0 6.8534 4.21745 5.2718 8.96212-.9299 2.7499-1.6352 5.5708-2.1087 8.4349l-1.5815-1.5816s-1.5816-10.5436-11.0709-9.4892c-7.1169.7907-10.0164 4.1515-10.7578 6.5733-.3413 1.1387-.7769 2.2469-1.3024 3.3133l-.5921.1298s-3.1631-11.59799 5.2718-14.2339z" fill="#2f2e41"/><path d="m54.0645 44.756-4.7991-.2227-.9999.7499c-1.1477 1.1469-2.2052 2.3807-3.1631 3.6903-1.0544 1.5815-14.7611 40.0658-14.7611 40.0658-.2544 2.3373.1092 4.7005 1.0544 6.8533 1.5815 3.6903 14.2339 25.8324 14.2339 25.8324l9.4892-5.799-12.6523-25.8323 8.9621-12.6524z" fill="#575a89"/><path d="m363.022 210.159v14.2h8.52l1.136-14.2z" fill="#a0616a"/><path d="m383.186 211.011 3.407 7.952 5.68 2.272 1.136-15.904-4.544-2.271z" fill="#a0616a"/><g fill="#2f2e41"><path d="m390.569 217.827s-.482-3.585-5.353-2.076l.809 10.596s-3.976 11.928 1.704 10.792 9.088-11.928 9.088-11.928l3.976-18.175-9.601-2.813z"/><path d="m354.786 97.4135s-7.952 60.2065-5.112 67.0225 32.659 50.835 32.659 50.835l13.064-17.039-29.251-36.636 27.263-37.487 2.272-22.72z"/><path d="m386.025 118.997 7.499 3.968-.115 1.144-18.459 92.298-14.2-2.84 9.372-65.035z"/><path d="m362.17 220.099-3.408 5.112s-7.384 12.496.568 12.496 11.36 0 11.928-2.84c.417-1.935.986-3.835 1.704-5.68l-.568-7.384z"/></g><path d="m384.321 32.0947c6.902 0 12.496-5.5945 12.496-12.4958 0-6.9012-5.594-12.49575-12.496-12.49575-6.901 0-12.495 5.59455-12.495 12.49575 0 6.9013 5.594 12.4958 12.495 12.4958z" fill="#a0616a"/><path d="m374.098 23.5748s1.704 9.6559-3.408 11.3598c-5.112 1.704 6.248 24.4236 6.248 24.4236l13.064-21.5836s-3.408-7.3839-1.136-10.7918z" fill="#a0616a"/><path d="m376.938 49.7024-3.084-18.5093-6.004 3.7415-15.904 9.0879 6.248 26.6955-2.272 16.4717s-2.84 5.1119-2.272 7.3839c.568 2.2719-.568 3.4079 0 3.9759s28.967 5.1115 37.487 8.5195 9.656 4.544 9.088 1.704-6.816-16.4714-6.816-16.4714l5.112-22.7196 6.816-19.8796-16.547-15.2707z" fill="#575a89"/><path d="m401.361 74.6939 3.976 10.7918-10.224 18.7433-3.336 2.595c-.527.41-.922.966-1.136 1.598s-.237 1.313-.067 1.959l2.267 8.616 5.943-8.826s16.209-19.5734 15.641-24.6853-2.272-13.0638-2.272-13.0638z" fill="#a0616a"/><path d="m345.13 65.6061-2.84 14.1997-10.791 26.6952s-11.928 11.36-6.248 13.632 12.495-11.36 12.495-11.36l13.632-25.5592 5.112-15.3358z" fill="#a0616a"/><path d="m399.089 48.5664 4.573-.4105 1.675 1.5465s9.656 21.5836 8.52 23.8556c-1.136 2.2719-12.496 3.4079-12.496 3.4079l-4.544-13.6318z" fill="#575a89"/><path d="m355.922 44.5905-2.818-1.2298-1.158.6618s-11.36 22.7196-8.52 23.8556c2.84 1.1359 16.472 2.8399 16.472 2.8399z" fill="#575a89"/><path d="m367.85 164.298-3.463 24.027-3.223-4.95z" fill="#000" opacity=".2"/><path d="m392.444 12.1986s1.258 3.3125-4.583 1.6144c0 0-2.314 1.1281-2.179-.7972 0 0-3.19 3.0015-3.797 1.0244s-2.269.4863-2.269.4863l-1.258-3.3125-1.618 1.8217-5.189-.3627s-.586-12.939013 17.117-10.41184c17.703 2.52716 7.529 22.25174 7.529 22.25174s.112-3.6604-1.506-1.8387c-1.617 1.8216-2.247-10.4756-2.247-10.4756z" fill="#2f2e41"/><path d="m104.802 114.214v54.541h227.832v-54.541zm136.504 45.39h-122.411v-7.687h122.411zm0-14.276h-122.411v-7.687h122.411zm77.236-14.275h-199.647v-7.687h199.647z" fill="#f06595"/><path d="m230.371 90.14h-30.747v-30.748h20.864v.7325h-20.132v29.2834h29.283v-14.6419h.732z" fill="#3f3d56"/><path d="m214.839 82.1198c-.71-2.0981-9.621-9.23-4.161-10.4287l4.478 5.9704 20.586-20.5858 2.071 2.0705z" fill="#f06595"/></svg>