<svg fill="none" height="545" viewBox="0 0 595 545" width="595" xmlns="http://www.w3.org/2000/svg" xmlns:xlink="http://www.w3.org/1999/xlink"><clipPath id="a"><path d="m514 16h64v64h-64z"/></clipPath><path d="m31.527 13.112c0 .304-.016.616-.048.936-.016.32-.04.608-.072.864h.144c.272-.448.616-.816 1.032-1.104s.88-.504 1.392-.648c.512-.16 1.04-.24 1.584-.24 1.04 0 1.904.168 2.592.504.704.32 1.232.824 1.584 1.512s.528 1.584.528 2.688v8.376h-2.088v-8.232c0-1.04-.232-1.816-.696-2.328s-1.192-.768-2.184-.768c-.96 0-1.712.184-2.256.552-.544.352-.936.88-1.176 1.584-.224.688-.336 1.536-.336 2.544v6.648h-2.112v-18.24h2.112zm14.8359.024v12.864h-2.112v-12.864zm-1.032-4.824c.32 0 .6.112.84.336.256.208.384.544.384 1.008 0 .448-.128.784-.384 1.008-.24.224-.52.336-.84.336-.352 0-.648-.112-.888-.336s-.36-.56-.36-1.008c0-.464.12-.8.36-1.008.24-.224.536-.336.888-.336zm9.6675 4.584c.848 0 1.608.16 2.28.48.688.32 1.272.808 1.752 1.464h.12l.288-1.704h1.68v13.08c0 1.216-.208 2.232-.624 3.048-.416.832-1.048 1.456-1.896 1.872s-1.928.624-3.24.624c-.928 0-1.784-.072-2.568-.216-.768-.128-1.456-.328-2.064-.6v-1.944c.416.208.872.384 1.368.528.496.16 1.032.28 1.608.36s1.168.12 1.776.12c1.104 0 1.968-.328 2.592-.984.64-.64.96-1.52.96-2.64v-.504c0-.192.008-.464.024-.816.016-.368.032-.624.048-.768h-.096c-.448.656-1.008 1.144-1.68 1.464-.656.32-1.424.48-2.304.48-1.664 0-2.968-.584-3.912-1.752-.928-1.168-1.392-2.8-1.392-4.896 0-1.376.208-2.56.624-3.552.432-1.008 1.04-1.784 1.824-2.328s1.728-.816 2.832-.816zm.288 1.776c-.72 0-1.336.192-1.848.576-.496.384-.88.944-1.152 1.68-.256.736-.384 1.632-.384 2.688 0 1.584.288 2.8.864 3.648.592.832 1.448 1.248 2.568 1.248.656 0 1.216-.08 1.68-.24.464-.176.848-.44 1.152-.792.304-.368.528-.832.672-1.392s.216-1.224.216-1.992v-.504c0-1.168-.136-2.112-.408-2.832-.256-.72-.664-1.248-1.224-1.584s-1.272-.504-2.136-.504zm12.0297-1.56c0 .304-.016.616-.048.936-.016.32-.04.608-.072.864h.144c.272-.448.616-.816 1.032-1.104s.88-.504 1.392-.648c.512-.16 1.04-.24 1.584-.24 1.04 0 1.904.168 2.592.504.704.32 1.232.824 1.584 1.512s.528 1.584.528 2.688v8.376h-2.088v-8.232c0-1.04-.232-1.816-.696-2.328s-1.192-.768-2.184-.768c-.96 0-1.712.184-2.256.552-.544.352-.936.88-1.176 1.584-.224.688-.336 1.536-.336 2.544v6.648h-2.112v-18.24h2.112zm-62.20316 33.024v12.864h-2.112v-12.864zm-1.032-4.824c.32 0 .6.112.84.336.256.208.384.544.384 1.008 0 .448-.128.784-.384 1.008-.24.224-.52.336-.84.336-.352 0-.648-.112-.888-.336s-.36-.56-.36-1.008c0-.464.12-.8.36-1.008.24-.224.536-.336.888-.336zm19.21946 4.584c1.456 0 2.544.376 3.264 1.128.72.736 1.08 1.936 1.08 3.6v8.376h-2.088v-8.28c0-1.008-.216-1.768-.648-2.28-.416-.512-1.072-.768-1.968-.768-1.248 0-2.144.36-2.688 1.08-.528.72-.792 1.768-.792 3.144v7.104h-2.088v-8.28c0-.672-.096-1.232-.288-1.68-.192-.464-.48-.808-.864-1.032s-.88-.336-1.488-.336c-.864 0-1.544.184-2.04.552-.496.352-.856.872-1.08 1.56-.208.688-.312 1.536-.312 2.544v6.672h-2.11196v-12.864h1.70396l.312 1.752h.12c.272-.448.6-.816.984-1.104.4-.304.84-.528 1.32-.672s.976-.216 1.488-.216c.992 0 1.816.176 2.472.528.672.352 1.16.896 1.464 1.632h.12c.432-.736 1.016-1.28 1.752-1.632.752-.352 1.544-.528 2.376-.528zm14.4377 0c1.584 0 2.856.552 3.816 1.656.976 1.104 1.464 2.768 1.464 4.992 0 1.456-.224 2.688-.672 3.696-.432.992-1.048 1.744-1.848 2.256-.784.496-1.712.744-2.784.744-.656 0-1.24-.088-1.752-.264s-.952-.4-1.32-.672c-.352-.288-.656-.6-.912-.936h-.144c.032.272.064.616.096 1.032s.048.776.048 1.08v5.28h-2.112v-18.624h1.728l.288 1.752h.096c.256-.368.56-.704.912-1.008.368-.304.8-.544 1.296-.72.512-.176 1.112-.264 1.8-.264zm-.384 1.776c-.864 0-1.56.168-2.088.504-.528.32-.912.808-1.152 1.464s-.368 1.488-.384 2.496v.408c0 1.056.112 1.952.336 2.688s.6 1.296 1.128 1.68c.544.384 1.28.576 2.208.576.784 0 1.424-.216 1.92-.648.512-.432.888-1.016 1.128-1.752.256-.752.384-1.608.384-2.568 0-1.472-.288-2.648-.864-3.528-.56-.88-1.432-1.32-2.616-1.32zm13.9017-1.752c1.568 0 2.728.344 3.48 1.032s1.128 1.784 1.128 3.288v8.76h-1.536l-.408-1.824h-.096c-.368.464-.752.856-1.152 1.176-.384.304-.832.528-1.344.672-.496.144-1.104.216-1.824.216-.768 0-1.464-.136-2.088-.408-.608-.272-1.088-.688-1.44-1.248-.352-.576-.528-1.296-.528-2.16 0-1.28.504-2.264 1.512-2.952 1.008-.704 2.56-1.088 4.656-1.152l2.184-.072v-.768c0-1.072-.232-1.816-.696-2.232s-1.12-.624-1.968-.624c-.672 0-1.312.104-1.92.312-.608.192-1.176.416-1.7041.672l-.6479-1.584c.56-.304 1.224-.56 1.992-.768.768-.224 1.568-.336 2.4-.336zm.624 6.864c-1.6.064-2.712.32-3.336.768-.608.448-.912 1.08-.912 1.896 0 .72.216 1.248.648 1.584.448.336 1.016.504 1.704.504 1.088 0 1.992-.296 2.712-.888.72-.608 1.08-1.536 1.08-2.784v-1.152zm13.1171 6.456c-1.136 0-2.152-.232-3.048-.696-.88-.464-1.576-1.184-2.088-2.16-.496-.976-.744-2.224-.744-3.744 0-1.584.264-2.872.792-3.864s1.24-1.72 2.136-2.184c.912-.464 1.944-.696 3.096-.696.656 0 1.288.072 1.896.216.608.128 1.104.288 1.488.48l-.648 1.752c-.384-.144-.832-.28-1.344-.408s-.992-.192-1.44-.192c-.864 0-1.576.184-2.136.552s-.976.912-1.248 1.632-.408 1.616-.408 2.688c0 1.024.136 1.896.408 2.616s.68 1.264 1.224 1.632 1.224.552 2.04.552c.704 0 1.32-.072 1.848-.216.544-.144 1.04-.32 1.488-.528v1.872c-.432.224-.912.392-1.44.504-.512.128-1.136.192-1.872.192zm10.6672-1.728c.32 0 .648-.024.984-.072.336-.064.608-.128.816-.192v1.608c-.224.112-.544.2-.96.264-.416.08-.816.12-1.2.12-.672 0-1.296-.112-1.872-.336-.56-.24-1.016-.648-1.368-1.224s-.528-1.384-.528-2.424v-7.488h-1.824v-1.008l1.848-.84.84-2.736h1.248v2.952h3.72v1.632h-3.72v7.44c0 .784.184 1.368.552 1.752.384.368.872.552 1.464.552z" fill="#cbd5e1"/><path d="m43.0348 460h-2.112v-18.24h2.112zm15.2595-6.456c0 1.072-.144 2.024-.432 2.856-.272.816-.672 1.512-1.2 2.088-.512.576-1.144 1.016-1.896 1.32-.736.288-1.56.432-2.472.432-.848 0-1.632-.144-2.352-.432-.72-.304-1.344-.744-1.872-1.32s-.944-1.272-1.248-2.088c-.288-.832-.432-1.784-.432-2.856 0-1.424.24-2.624.72-3.6.48-.992 1.168-1.744 2.064-2.256.896-.528 1.96-.792 3.192-.792 1.168 0 2.192.264 3.072.792.896.512 1.592 1.264 2.088 2.256.512.976.768 2.176.768 3.6zm-9.72 0c0 1.008.128 1.888.384 2.64.272.736.688 1.304 1.248 1.704s1.272.6 2.136.6 1.576-.2 2.136-.6.968-.968 1.224-1.704c.272-.752.408-1.632.408-2.64 0-1.024-.136-1.896-.408-2.616s-.688-1.272-1.248-1.656c-.544-.4-1.256-.6-2.136-.6-1.312 0-2.264.432-2.856 1.296s-.888 2.056-.888 3.576zm20.9025-.816c-.096-.336-.192-.664-.288-.984-.096-.336-.184-.648-.264-.936-.064-.304-.128-.584-.192-.84s-.112-.472-.144-.648h-.096c-.032.176-.08.392-.144.648-.048.256-.112.536-.192.84-.064.304-.144.624-.24.96-.08.32-.176.648-.288.984l-2.304 7.224h-2.4l-3.528-12.864h2.184l1.776 6.864c.128.464.248.936.36 1.416.112.464.208.912.288 1.344.096.416.16.776.192 1.08h.096c.048-.192.104-.432.168-.72s.128-.592.192-.912c.08-.32.16-.64.24-.96.096-.32.184-.608.264-.864l2.28-7.248h2.304l2.208 7.248c.112.368.224.76.336 1.176.128.416.24.824.336 1.224.096.384.16.728.192 1.032h.096c.032-.272.088-.608.168-1.008.096-.416.2-.864.312-1.344.128-.496.256-.984.384-1.464l1.8-6.864h2.16l-3.576 12.864h-2.472zm-64.36386 27.408v12.864h-2.112v-12.864zm-1.032-4.824c.32 0 .6.112.84.336.256.208.384.544.384 1.008 0 .448-.128.784-.384 1.008-.24.224-.52.336-.84.336-.352 0-.648-.112-.888-.336s-.36-.56-.36-1.008c0-.464.12-.8.36-1.008.24-.224.536-.336.888-.336zm19.21946 4.584c1.456 0 2.544.376 3.264 1.128.72.736 1.08 1.936 1.08 3.6v8.376h-2.088v-8.28c0-1.008-.216-1.768-.648-2.28-.416-.512-1.072-.768-1.968-.768-1.248 0-2.144.36-2.688 1.08-.528.72-.792 1.768-.792 3.144v7.104h-2.088v-8.28c0-.672-.096-1.232-.288-1.68-.192-.464-.48-.808-.864-1.032s-.88-.336-1.488-.336c-.864 0-1.544.184-2.04.552-.496.352-.856.872-1.08 1.56-.208.688-.312 1.536-.312 2.544v6.672h-2.11196v-12.864h1.70396l.312 1.752h.12c.272-.448.6-.816.984-1.104.4-.304.84-.528 1.32-.672s.976-.216 1.488-.216c.992 0 1.816.176 2.472.528.672.352 1.16.896 1.464 1.632h.12c.432-.736 1.016-1.28 1.752-1.632.752-.352 1.544-.528 2.376-.528zm14.4377 0c1.584 0 2.856.552 3.816 1.656.976 1.104 1.464 2.768 1.464 4.992 0 1.456-.224 2.688-.672 3.696-.432.992-1.048 1.744-1.848 2.256-.784.496-1.712.744-2.784.744-.656 0-1.24-.088-1.752-.264s-.952-.4-1.32-.672c-.352-.288-.656-.6-.912-.936h-.144c.032.272.064.616.096 1.032s.048.776.048 1.08v5.28h-2.112v-18.624h1.728l.288 1.752h.096c.256-.368.56-.704.912-1.008.368-.304.8-.544 1.296-.72.512-.176 1.112-.264 1.8-.264zm-.384 1.776c-.864 0-1.56.168-2.088.504-.528.32-.912.808-1.152 1.464s-.368 1.488-.384 2.496v.408c0 1.056.112 1.952.336 2.688s.6 1.296 1.128 1.68c.544.384 1.28.576 2.208.576.784 0 1.424-.216 1.92-.648.512-.432.888-1.016 1.128-1.752.256-.752.384-1.608.384-2.568 0-1.472-.288-2.648-.864-3.528-.56-.88-1.432-1.32-2.616-1.32zm13.9017-1.752c1.568 0 2.728.344 3.48 1.032s1.128 1.784 1.128 3.288v8.76h-1.536l-.408-1.824h-.096c-.368.464-.752.856-1.152 1.176-.384.304-.832.528-1.344.672-.496.144-1.104.216-1.824.216-.768 0-1.464-.136-2.088-.408-.608-.272-1.088-.688-1.44-1.248-.352-.576-.528-1.296-.528-2.16 0-1.28.504-2.264 1.512-2.952 1.008-.704 2.56-1.088 4.656-1.152l2.184-.072v-.768c0-1.072-.232-1.816-.696-2.232s-1.12-.624-1.968-.624c-.672 0-1.312.104-1.92.312-.608.192-1.176.416-1.7041.672l-.6479-1.584c.56-.304 1.224-.56 1.992-.768.768-.224 1.568-.336 2.4-.336zm.624 6.864c-1.6.064-2.712.32-3.336.768-.608.448-.912 1.08-.912 1.896 0 .72.216 1.248.648 1.584.448.336 1.016.504 1.704.504 1.088 0 1.992-.296 2.712-.888.72-.608 1.08-1.536 1.08-2.784v-1.152zm13.1171 6.456c-1.136 0-2.152-.232-3.048-.696-.88-.464-1.576-1.184-2.088-2.16-.496-.976-.744-2.224-.744-3.744 0-1.584.264-2.872.792-3.864s1.24-1.72 2.136-2.184c.912-.464 1.944-.696 3.096-.696.656 0 1.288.072 1.896.216.608.128 1.104.288 1.488.48l-.648 1.752c-.384-.144-.832-.28-1.344-.408s-.992-.192-1.44-.192c-.864 0-1.576.184-2.136.552s-.976.912-1.248 1.632-.408 1.616-.408 2.688c0 1.024.136 1.896.408 2.616s.68 1.264 1.224 1.632 1.224.552 2.04.552c.704 0 1.32-.072 1.848-.216.544-.144 1.04-.32 1.488-.528v1.872c-.432.224-.912.392-1.44.504-.512.128-1.136.192-1.872.192zm10.6672-1.728c.32 0 .648-.024.984-.072.336-.064.608-.128.816-.192v1.608c-.224.112-.544.2-.96.264-.416.08-.816.12-1.2.12-.672 0-1.296-.112-1.872-.336-.56-.24-1.016-.648-1.368-1.224s-.528-1.384-.528-2.424v-7.488h-1.824v-1.008l1.848-.84.84-2.736h1.248v2.952h3.72v1.632h-3.72v7.44c0 .784.184 1.368.552 1.752.384.368.872.552 1.464.552z" fill="#cbd5e1"/><path d="m99.152 525.112c0 .304-.016.616-.048.936-.016.32-.04.608-.072.864h.144c.272-.448.616-.816 1.032-1.104s.88-.504 1.392-.648c.512-.16 1.04-.24 1.584-.24 1.04 0 1.904.168 2.592.504.704.32 1.232.824 1.584 1.512s.528 1.584.528 2.688v8.376h-2.088v-8.232c0-1.04-.232-1.816-.696-2.328s-1.192-.768-2.184-.768c-.96 0-1.712.184-2.256.552-.544.352-.936.88-1.176 1.584-.224.688-.336 1.536-.336 2.544v6.648h-2.112v-18.24h2.112zm17.596-.192c1.568 0 2.728.344 3.48 1.032s1.128 1.784 1.128 3.288v8.76h-1.536l-.408-1.824h-.096c-.368.464-.752.856-1.152 1.176-.384.304-.832.528-1.344.672-.496.144-1.104.216-1.824.216-.768 0-1.464-.136-2.088-.408-.608-.272-1.088-.688-1.44-1.248-.352-.576-.528-1.296-.528-2.16 0-1.28.504-2.264 1.512-2.952 1.008-.704 2.56-1.088 4.656-1.152l2.184-.072v-.768c0-1.072-.232-1.816-.696-2.232s-1.12-.624-1.968-.624c-.672 0-1.312.104-1.92.312-.608.192-1.176.416-1.704.672l-.648-1.584c.56-.304 1.224-.56 1.992-.768.768-.224 1.568-.336 2.4-.336zm.624 6.864c-1.6.064-2.712.32-3.336.768-.608.448-.912 1.08-.912 1.896 0 .72.216 1.248.648 1.584.448.336 1.016.504 1.704.504 1.088 0 1.992-.296 2.712-.888.72-.608 1.08-1.536 1.08-2.784v-1.152zm13.957-6.888c.24 0 .496.016.768.048.288.016.536.048.744.096l-.264 1.944c-.208-.048-.44-.088-.696-.12-.24-.032-.472-.048-.696-.048-.496 0-.968.104-1.416.312s-.848.504-1.2.888c-.352.368-.632.816-.84 1.344-.192.528-.288 1.12-.288 1.776v6.864h-2.112v-12.864h1.728l.24 2.352h.096c.272-.48.6-.912.984-1.296.384-.4.824-.712 1.32-.936.496-.24 1.04-.36 1.632-.36zm8.005 13.344c-1.6 0-2.88-.552-3.84-1.656-.96-1.12-1.44-2.784-1.44-4.992s.48-3.872 1.44-4.992c.976-1.136 2.264-1.704 3.864-1.704.672 0 1.256.088 1.752.264.496.16.928.384 1.296.672s.68.608.936.96h.144c-.016-.208-.048-.512-.096-.912-.032-.416-.048-.744-.048-.984v-5.136h2.112v18.24h-1.704l-.312-1.728h-.096c-.256.368-.568.704-.936 1.008-.368.288-.808.52-1.32.696-.496.176-1.08.264-1.752.264zm.336-1.752c1.36 0 2.312-.368 2.856-1.104.56-.752.84-1.88.84-3.384v-.384c0-1.6-.264-2.824-.792-3.672-.528-.864-1.504-1.296-2.928-1.296-1.136 0-1.992.456-2.568 1.368-.56.896-.84 2.104-.84 3.624 0 1.536.28 2.728.84 3.576.576.848 1.44 1.272 2.592 1.272z" fill="#cbd5e1"/><path d="m550.289 524.896c1.104 0 2.048.24 2.832.72.8.48 1.408 1.16 1.824 2.04.432.864.648 1.88.648 3.048v1.272h-8.808c.032 1.456.4 2.568 1.104 3.336.72.752 1.72 1.128 3 1.128.816 0 1.536-.072 2.16-.216.64-.16 1.296-.384 1.968-.672v1.848c-.656.288-1.304.496-1.944.624-.64.144-1.4.216-2.28.216-1.216 0-2.296-.248-3.24-.744-.928-.496-1.656-1.232-2.184-2.208-.512-.992-.768-2.2-.768-3.624 0-1.408.232-2.616.696-3.624.48-1.008 1.144-1.784 1.992-2.328.864-.544 1.864-.816 3-.816zm-.024 1.728c-1.008 0-1.808.328-2.4.984-.576.64-.92 1.536-1.032 2.688h6.552c0-.736-.112-1.376-.336-1.92s-.568-.968-1.032-1.272c-.448-.32-1.032-.48-1.752-.48zm13.475-1.704c1.568 0 2.728.344 3.48 1.032s1.128 1.784 1.128 3.288v8.76h-1.536l-.408-1.824h-.096c-.368.464-.752.856-1.152 1.176-.384.304-.832.528-1.344.672-.496.144-1.104.216-1.824.216-.768 0-1.464-.136-2.088-.408-.608-.272-1.088-.688-1.44-1.248-.352-.576-.528-1.296-.528-2.16 0-1.28.504-2.264 1.512-2.952 1.008-.704 2.56-1.088 4.656-1.152l2.184-.072v-.768c0-1.072-.232-1.816-.696-2.232s-1.12-.624-1.968-.624c-.672 0-1.312.104-1.92.312-.608.192-1.176.416-1.704.672l-.648-1.584c.56-.304 1.224-.56 1.992-.768.768-.224 1.568-.336 2.4-.336zm.624 6.864c-1.6.064-2.712.32-3.336.768-.608.448-.912 1.08-.912 1.896 0 .72.216 1.248.648 1.584.448.336 1.016.504 1.704.504 1.088 0 1.992-.296 2.712-.888.72-.608 1.08-1.536 1.08-2.784v-1.152zm16.333 2.664c0 .832-.208 1.528-.624 2.088s-1.008.984-1.776 1.272-1.68.432-2.736.432c-.896 0-1.672-.072-2.328-.216-.64-.144-1.208-.344-1.704-.6v-1.92c.512.256 1.128.496 1.848.72.736.208 1.48.312 2.232.312 1.072 0 1.848-.168 2.328-.504.48-.352.72-.816.72-1.392 0-.32-.088-.608-.264-.864s-.496-.512-.96-.768c-.448-.256-1.096-.544-1.944-.864-.832-.32-1.544-.64-2.136-.96s-1.048-.704-1.368-1.152-.48-1.024-.48-1.728c0-1.088.44-1.928 1.32-2.52.896-.592 2.064-.888 3.504-.888.784 0 1.512.08 2.184.24.688.144 1.328.352 1.92.624l-.72 1.68c-.352-.16-.728-.296-1.128-.408-.384-.128-.776-.224-1.176-.288-.4-.08-.808-.12-1.224-.12-.864 0-1.528.144-1.992.432-.448.272-.672.648-.672 1.128 0 .352.104.656.312.912.208.24.552.48 1.032.72.496.224 1.152.496 1.968.816.816.304 1.512.616 2.088.936s1.016.712 1.32 1.176c.304.448.456 1.016.456 1.704zm1.093-9.312h2.256l2.784 7.32c.16.432.304.848.432 1.248.144.4.272.792.384 1.176.112.368.2.728.264 1.08h.096c.096-.4.248-.92.456-1.56.208-.656.424-1.312.648-1.968l2.616-7.296h2.28l-5.544 14.64c-.304.8-.664 1.496-1.08 2.088-.4.608-.896 1.072-1.488 1.392-.576.336-1.28.504-2.112.504-.384 0-.72-.024-1.008-.072-.288-.032-.536-.072-.744-.12v-1.68c.176.032.384.064.624.096.256.032.52.048.792.048.496 0 .92-.096 1.272-.288.368-.176.68-.44.936-.792.256-.336.472-.736.648-1.2l.672-1.704z" fill="#cbd5e1"/><path d="m95 1h498v498h-498z" stroke="#cbd5e1" stroke-width="2"/><path d="m67.7071 98.2929c-.3905-.3905-1.0237-.3905-1.4142 0l-6.364 6.3641c-.3905.39-.3905 1.024 0 1.414.3906.391 1.0237.391 1.4142 0l5.6569-5.657 5.6569 5.657c.3905.391 1.0236.391 1.4142 0 .3905-.39.3905-1.024 0-1.414zm-1.4142 303.4141c.3905.391 1.0237.391 1.4142 0l6.364-6.364c.3905-.39.3905-1.024 0-1.414-.3906-.391-1.0237-.391-1.4143 0l-5.6568 5.657-5.6569-5.657c-.3905-.391-1.0237-.391-1.4142 0-.3905.39-.3905 1.024 0 1.414zm-.2929-302.707v302h2v-302z" fill="#cbd5e1"/><path d="m194.293 528.293c-.391.39-.391 1.024 0 1.414l6.364 6.364c.39.391 1.024.391 1.414 0 .391-.39.391-1.024 0-1.414l-5.657-5.657 5.657-5.657c.391-.39.391-1.024 0-1.414-.39-.391-1.024-.391-1.414 0zm303.414 1.414c.391-.39.391-1.024 0-1.414l-6.364-6.364c-.39-.391-1.024-.391-1.414 0-.391.39-.391 1.024 0 1.414l5.657 5.657-5.657 5.657c-.391.39-.391 1.024 0 1.414.39.391 1.024.391 1.414 0zm-302.707.293h302v-2h-302z" fill="#cbd5e1"/><path d="m345 0v500" stroke="#cbd5e1" stroke-width="2"/><path d="m94 249h500" stroke="#cbd5e1" stroke-width="2"/><g fill="#cbd5e1"><path d="m142 424c-5.538 0-10.951 1.642-15.556 4.719s-8.193 7.45-10.313 12.566c-2.119 5.116-2.673 10.746-1.593 16.178 1.08 5.431 3.747 10.42 7.663 14.336s8.905 6.583 14.336 7.663c5.432 1.08 11.062.526 16.178-1.593 5.116-2.12 9.489-5.708 12.566-10.313s4.719-10.018 4.719-15.556c0-7.426-2.95-14.548-8.201-19.799s-12.373-8.201-19.799-8.201zm0 52c-4.747 0-9.387-1.408-13.334-4.045-3.946-2.637-7.023-6.385-8.839-10.771-1.817-4.385-2.292-9.211-1.366-13.866.926-4.656 3.212-8.932 6.568-12.289 3.357-3.356 7.633-5.642 12.289-6.568 4.655-.926 9.481-.451 13.866 1.366 4.386 1.816 8.134 4.893 10.771 8.839 2.637 3.947 4.045 8.587 4.045 13.334 0 6.365-2.529 12.47-7.029 16.971-4.501 4.5-10.606 7.029-16.971 7.029z"/><path d="m133 442c-.989 0-1.956.293-2.778.843-.822.549-1.463 1.33-1.841 2.244-.379.913-.478 1.919-.285 2.888.193.97.669 1.861 1.368 2.561.7.699 1.591 1.175 2.561 1.368.969.193 1.975.094 2.888-.285.914-.378 1.695-1.019 2.244-1.841.55-.822.843-1.789.843-2.778 0-1.326-.527-2.598-1.464-3.536-.938-.937-2.21-1.464-3.536-1.464z"/><path d="m151 442c-.989 0-1.956.293-2.778.843-.822.549-1.463 1.33-1.841 2.244-.379.913-.478 1.919-.285 2.888.193.97.669 1.861 1.368 2.561.7.699 1.591 1.175 2.561 1.368.969.193 1.975.094 2.888-.285.914-.378 1.695-1.019 2.244-1.841.55-.822.843-1.789.843-2.778 0-1.326-.527-2.598-1.464-3.536-.938-.937-2.21-1.464-3.536-1.464z"/><path d="m142 458c-2.761.005-5.473.724-7.874 2.087s-4.408 3.324-5.826 5.693l3.42 2c1.067-1.772 2.575-3.239 4.376-4.257s3.835-1.553 5.904-1.553 4.103.535 5.904 1.553 3.308 2.485 4.376 4.257l3.42-2c-1.419-2.369-3.426-4.33-5.826-5.693-2.401-1.363-5.113-2.082-7.874-2.087z"/><g clip-path="url(#a)"><path d="m546 20c-5.538 0-10.951 1.6422-15.556 4.7189-4.605 3.0766-8.193 7.4496-10.313 12.566-2.119 5.1163-2.673 10.7462-1.593 16.1776 1.08 5.4315 3.747 10.4206 7.663 14.3365s8.905 6.5826 14.336 7.663c5.432 1.0804 11.062.5259 16.178-1.5934 5.116-2.1192 9.489-5.7081 12.566-10.3126 3.077-4.6046 4.719-10.0181 4.719-15.556 0-7.4261-2.95-14.548-8.201-19.799s-12.373-8.201-19.799-8.201zm0 52c-4.747 0-9.387-1.4076-13.334-4.0447-3.946-2.6372-7.023-6.3855-8.839-10.7709-1.817-4.3854-2.292-9.211-1.366-13.8666.926-4.6555 3.212-8.9319 6.568-12.2884 3.357-3.3564 7.633-5.6422 12.289-6.5682 4.655-.9261 9.481-.4508 13.866 1.3657 4.386 1.8165 8.134 4.8926 10.771 8.8394s4.045 8.5869 4.045 13.3337c0 6.3652-2.529 12.4697-7.029 16.9706-4.501 4.5008-10.606 7.0294-16.971 7.0294z"/><path d="m537 38c-.989 0-1.956.2932-2.778.8426s-1.463 1.3303-1.841 2.244c-.379.9136-.478 1.9189-.285 2.8888s.669 1.8609 1.368 2.5601c.7.6993 1.591 1.1755 2.561 1.3684.969.1929 1.975.0939 2.888-.2845.914-.3785 1.695-1.0193 2.244-1.8416.55-.8222.843-1.7889.843-2.7778.005-.6581-.12-1.3107-.37-1.9197-.249-.6091-.617-1.1624-1.083-1.6277-.465-.4654-1.018-.8335-1.627-1.0829s-1.262-.375-1.92-.3697z"/><path d="m555 38c-.989 0-1.956.2932-2.778.8426s-1.463 1.3303-1.841 2.244c-.379.9136-.478 1.9189-.285 2.8888s.669 1.8609 1.368 2.5601c.7.6993 1.591 1.1755 2.561 1.3684.969.1929 1.975.0939 2.888-.2845.914-.3785 1.695-1.0193 2.244-1.8416.55-.8222.843-1.7889.843-2.7778.005-.6581-.12-1.3107-.37-1.9197-.249-.6091-.617-1.1624-1.083-1.6277-.465-.4654-1.018-.8335-1.627-1.0829s-1.262-.375-1.92-.3697z"/><path d="m546 64c2.761-.0047 5.473-.7236 7.874-2.0869 2.4-1.3633 4.407-3.3246 5.826-5.6931l-3.42-2c-1.068 1.7724-2.575 3.2387-4.376 4.2567-1.801 1.0179-3.835 1.5528-5.904 1.5528s-4.103-.5349-5.904-1.5528c-1.801-1.018-3.309-2.4843-4.376-4.2567l-3.42 2c1.418 2.3685 3.425 4.3298 5.826 5.6931s5.113 2.0822 7.874 2.0869z"/></g><path d="m142 20c-5.538 0-10.951 1.6422-15.556 4.7189-4.605 3.0766-8.193 7.4496-10.313 12.566-2.119 5.1163-2.673 10.7462-1.593 16.1776 1.08 5.4315 3.747 10.4206 7.663 14.3365s8.905 6.5826 14.336 7.663c5.432 1.0804 11.062.5259 16.178-1.5934 5.116-2.1192 9.489-5.7081 12.566-10.3126 3.077-4.6046 4.719-10.0181 4.719-15.556 0-7.4261-2.95-14.548-8.201-19.799s-12.373-8.201-19.799-8.201zm0 52c-4.747 0-9.387-1.4076-13.334-4.0447-3.946-2.6372-7.023-6.3855-8.839-10.7709-1.817-4.3854-2.292-9.211-1.366-13.8666.926-4.6555 3.212-8.9319 6.568-12.2884 3.357-3.3564 7.633-5.6422 12.289-6.5682 4.655-.9261 9.481-.4508 13.866 1.3657 4.386 1.8165 8.134 4.8926 10.771 8.8394s4.045 8.5869 4.045 13.3337c0 6.3652-2.529 12.4697-7.029 16.9706-4.501 4.5008-10.606 7.0294-16.971 7.0294z"/><path d="m133 38c-.989 0-1.956.2932-2.778.8427-.822.5494-1.463 1.3303-1.841 2.2439-.379.9136-.478 1.9189-.285 2.8889.193.9699.669 1.8608 1.368 2.56.7.6993 1.591 1.1755 2.561 1.3684.969.193 1.975.0939 2.888-.2845.914-.3784 1.695-1.0193 2.244-1.8415.55-.8223.843-1.789.843-2.7779 0-1.3261-.527-2.5979-1.464-3.5355-.938-.9377-2.21-1.4645-3.536-1.4645z"/><path d="m151 38c-.989 0-1.956.2932-2.778.8427-.822.5494-1.463 1.3303-1.841 2.2439-.379.9136-.478 1.9189-.285 2.8889.193.9699.669 1.8608 1.368 2.56.7.6993 1.591 1.1755 2.561 1.3684.969.193 1.975.0939 2.888-.2845.914-.3784 1.695-1.0193 2.244-1.8415.55-.8223.843-1.789.843-2.7779 0-1.3261-.527-2.5979-1.464-3.5355-.938-.9377-2.21-1.4645-3.536-1.4645z"/><path d="m154 56h-24v4h24z"/><path d="m546 424c-5.538 0-10.951 1.642-15.556 4.719s-8.193 7.45-10.313 12.566c-2.119 5.116-2.673 10.746-1.593 16.178 1.08 5.431 3.747 10.42 7.663 14.336s8.905 6.583 14.336 7.663c5.432 1.08 11.062.526 16.178-1.593 5.116-2.12 9.489-5.708 12.566-10.313s4.719-10.018 4.719-15.556c0-7.426-2.95-14.548-8.201-19.799s-12.373-8.201-19.799-8.201zm0 52c-4.747 0-9.387-1.408-13.334-4.045-3.946-2.637-7.023-6.385-8.839-10.771-1.817-4.385-2.292-9.211-1.366-13.866.926-4.656 3.212-8.932 6.568-12.289 3.357-3.356 7.633-5.642 12.289-6.568 4.655-.926 9.481-.451 13.866 1.366 4.386 1.816 8.134 4.893 10.771 8.839 2.637 3.947 4.045 8.587 4.045 13.334 0 6.365-2.529 12.47-7.029 16.971-4.501 4.5-10.606 7.029-16.971 7.029z"/><path d="m537 442c-.989 0-1.956.293-2.778.843-.822.549-1.463 1.33-1.841 2.244-.379.913-.478 1.919-.285 2.888.193.97.669 1.861 1.368 2.561.7.699 1.591 1.175 2.561 1.368.969.193 1.975.094 2.888-.285.914-.378 1.695-1.019 2.244-1.841.55-.822.843-1.789.843-2.778 0-1.326-.527-2.598-1.464-3.536-.938-.937-2.21-1.464-3.536-1.464z"/><path d="m555 442c-.989 0-1.956.293-2.778.843-.822.549-1.463 1.33-1.841 2.244-.379.913-.478 1.919-.285 2.888.193.97.669 1.861 1.368 2.561.7.699 1.591 1.175 2.561 1.368.969.193 1.975.094 2.888-.285.914-.378 1.695-1.019 2.244-1.841.55-.822.843-1.789.843-2.778 0-1.326-.527-2.598-1.464-3.536-.938-.937-2.21-1.464-3.536-1.464z"/><path d="m558 460h-24v4h24z"/></g></svg>