<?xml version="1.0" encoding="UTF-8"?>
<svg width="736px" height="500px" viewBox="0 0 736 500" version="1.1" xmlns="http://www.w3.org/2000/svg" xmlns:xlink="http://www.w3.org/1999/xlink">
    <!-- Generator: Sketch 57.1 (83088) - https://sketch.com -->
    <title>bulletproof images</title>
    <desc>Created with Sketch.</desc>
    <g id="bulletproof-images" stroke="none" stroke-width="1" fill="none" fill-rule="evenodd">
        <g id="divider" transform="translate(339.000000, 0.000000)">
            <path d="M29.5,0 L29.5,500" id="Line" stroke="#E64320" stroke-width="2" stroke-linecap="square" stroke-dasharray="6,10"></path>
            <rect id="Rectangle" fill="#FFFFFF" x="0" y="235" width="58" height="30"></rect>
            <text id="vs" font-family="Consolas-Bold, Consolas" font-size="24" font-weight="bold" fill="#E64320">
                <tspan x="16.3046875" y="256">vs</tspan>
            </text>
        </g>
        <g id="before" transform="translate(0.000000, 16.000000)">
            <g id="image" transform="translate(0.000000, 269.000000)">
                <rect id="Rectangle" stroke="#93999F" fill="#FFFFFF" x="0.5" y="0.5" width="319" height="199"></rect>
                <g id="icon" transform="translate(16.000000, 16.000000)">
                    <rect id="Rectangle" stroke="#93999F" fill="#FFFFFF" x="-0.5" y="-0.5" width="25" height="27" rx="3"></rect>
                    <polygon id="Shape" fill="#93999F" fill-rule="nonzero" points="17 9.175 15.825 8 12 11.825 8.175 8 7 9.175 10.825 13 7 16.825 8.175 18 12 14.175 15.825 18 17 16.825 13.175 13"></polygon>
                </g>
            </g>
            <g id="image" transform="translate(0.000000, 49.000000)">
                <rect id="Rectangle" stroke="#93999F" fill="#FFFFFF" x="0.5" y="0.5" width="319" height="199"></rect>
                <g id="icon" transform="translate(16.000000, 16.000000)">
                    <rect id="Rectangle" stroke="#93999F" fill="#FFFFFF" x="-0.5" y="-0.5" width="25" height="27" rx="3"></rect>
                    <polygon id="Shape" fill="#93999F" fill-rule="nonzero" points="17 9.175 15.825 8 12 11.825 8.175 8 7 9.175 10.825 13 7 16.825 8.175 18 12 14.175 15.825 18 17 16.825 13.175 13"></polygon>
                </g>
            </g>
            <text id="Latest-Products:" font-family=".SFNSDisplay, .SF NS Display" font-size="24" font-weight="normal" fill="#3C3F44">
                <tspan x="75.2265625" y="23">Latest Products:</tspan>
            </text>
        </g>
        <g id="after" transform="translate(416.000000, 16.000000)">
            <g id="image" transform="translate(0.000000, 269.000000)">
                <rect id="Rectangle" fill="#E1ECF4" x="0" y="0" width="320" height="200"></rect>
                <text id="Blue-jeans-with-ripp" font-family=".AppleSystemUIFont" font-size="16" font-weight="normal" fill="#3C3F44">
                    <tspan x="51" y="34">Blue jeans with ripped knee.</tspan>
                </text>
                <g id="icon" transform="translate(16.000000, 16.000000)">
                    <rect id="Rectangle" stroke="#93999F" x="-0.5" y="-0.5" width="25" height="27" rx="3"></rect>
                    <polygon id="Shape" fill="#93999F" fill-rule="nonzero" points="17 9.175 15.825 8 12 11.825 8.175 8 7 9.175 10.825 13 7 16.825 8.175 18 12 14.175 15.825 18 17 16.825 13.175 13"></polygon>
                </g>
            </g>
            <g id="image" transform="translate(0.000000, 49.000000)">
                <rect id="Rectangle" fill="#FFF8DC" x="0" y="0" width="320" height="200"></rect>
                <text id="Yellow-high-top-snea" font-family=".AppleSystemUIFont" font-size="16" font-weight="normal" fill="#3C3F44">
                    <tspan x="51" y="34">Yellow high-top sneakers with white</tspan>
                    <tspan x="51" y="52">shoelaces.</tspan>
                </text>
                <g id="icon" transform="translate(16.000000, 16.000000)">
                    <rect id="Rectangle" stroke="#93999F" x="-0.5" y="-0.5" width="25" height="27" rx="3"></rect>
                    <polygon id="Shape" fill="#93999F" fill-rule="nonzero" points="17 9.175 15.825 8 12 11.825 8.175 8 7 9.175 10.825 13 7 16.825 8.175 18 12 14.175 15.825 18 17 16.825 13.175 13"></polygon>
                </g>
            </g>
            <text id="Latest-Products:" font-family=".SFNSDisplay, .SF NS Display" font-size="24" font-weight="normal" fill="#3C3F44">
                <tspan x="75.2265625" y="23">Latest Products:</tspan>
            </text>
        </g>
    </g>
</svg>