<svg width="751" height="59" viewBox="0 0 751 59" fill="none" xmlns="http://www.w3.org/2000/svg">
<path d="M15.9771 15.4027C15.5061 15.587 15.5061 15.628 15.588 17.9218C15.6699 19.9902 15.7314 20.2974 16.1819 20.8709C17.2264 22.2021 17.5541 21.5467 17.5131 18.2085C17.4517 15.2798 17.2469 14.8907 15.9771 15.4027Z" fill="#F8F9FA"/>
<path d="M24.9888 19.171C24.4973 19.7854 24.0058 20.2974 23.9034 20.2974C23.8215 20.2974 23.4938 20.8094 23.1866 21.4238C22.6746 22.4478 22.6541 22.5707 22.9613 22.8779C23.248 23.1646 23.4119 23.0827 24.7635 21.7924C26.7706 19.9082 27.2416 18.9252 26.4634 18.3313C26.2586 18.1879 26.0538 18.0445 25.9923 18.0445C25.9309 18.0445 25.4803 18.5565 24.9888 19.171Z" fill="#F8F9FA"/>
<path d="M6.78185 20.2564C6.35177 20.5431 6.80233 21.3214 8.11305 22.5706C9.62856 24.0247 10.7754 24.7006 11.1646 24.3729C11.8814 23.779 11.1031 22.4068 9.21896 20.9322C8.44072 20.3179 7.23241 19.9902 6.78185 20.2564Z" fill="#F8F9FA"/>
<path d="M27.5276 27.6497C26.4421 28.0183 25.9506 28.5303 26.3397 28.9194C26.5241 29.1038 27.118 29.1038 28.654 28.9604C30.9682 28.7351 31.5212 28.4484 31.0296 27.7726C30.661 27.2605 28.9407 27.1991 27.5276 27.6497Z" fill="#F8F9FA"/>
<path d="M4.42644 29.5339C3.64821 29.882 3.46389 30.0663 3.50485 30.4145C3.58677 31.0493 4.95892 31.2746 6.90451 31.0084C8.50195 30.7831 9.09586 30.4349 8.87058 29.8615C8.72723 29.4519 8.44051 29.37 6.74067 29.2062C5.63476 29.1243 5.24564 29.1857 4.42644 29.5339Z" fill="#F8F9FA"/>
<path d="M24.3126 34.6538C23.903 34.8791 23.8006 36.0669 24.1693 36.0669C24.2921 36.0669 24.9884 36.6199 25.7257 37.2957C27.0774 38.5655 27.6304 38.7703 28.3472 38.2378C28.7158 37.9716 28.7158 37.9511 28.2857 37.3367C27.7123 36.5584 25.6028 34.7357 25.0704 34.5719C24.8451 34.49 24.4969 34.531 24.3126 34.6538Z" fill="#F8F9FA"/>
<path d="M10.7344 36.0464C9.85372 36.5789 9.30077 37.2343 8.70685 38.4631C7.78525 40.2858 8.58397 40.7773 10.0176 39.2823C12.3523 36.8861 12.8233 34.7562 10.7344 36.0464Z" fill="#F8F9FA"/>
<path d="M17.8208 37.8897C17.4931 38.2174 17.3907 38.5655 17.4112 39.2823C17.4317 40.9412 17.7184 42.4158 18.0666 42.7844C18.3737 43.0916 18.4557 43.0916 18.7219 42.8049C19.152 42.3953 19.3158 39.3028 18.9677 38.3402C18.6605 37.4596 18.3533 37.3572 17.8208 37.8897Z" fill="#F8F9FA"/>
<path d="M14.5642 23.5742C11.7789 24.9873 10.6116 27.9159 11.5537 31.1108C12.3524 33.7731 15.1581 35.6163 18.4349 35.6573C21.2611 35.6778 23.9031 32.9744 23.985 29.9639C24.0259 27.8545 23.4935 26.4413 22.0394 24.8644C20.7696 23.4922 19.8685 23.1031 17.6976 23.0212C15.9568 22.9393 15.7725 22.9802 14.5642 23.5742Z" fill="#F8F9FA"/>
<path d="M87.3119 11.6747C86.9644 12.0266 86.8288 12.2377 86.6907 12.6139C86.5158 13.0774 86.3743 13.9395 86.4341 14.1127C86.4548 14.1726 86.3377 14.2431 86.0874 14.3375C85.4006 14.5909 85.1418 14.7255 84.5374 15.1741C82.9707 16.3073 81.8397 17.6026 81.1571 19.0106C80.7638 19.8334 80.6093 20.3346 80.5376 21.0755C80.5138 21.3299 80.469 21.696 80.4401 21.8925C80.4135 22.0957 80.4048 22.3076 80.4255 22.3675C80.4462 22.4275 80.4541 22.5366 80.4439 22.6147C80.4313 22.6862 80.4359 22.8935 80.4469 23.0761C80.4579 23.2588 80.456 23.4906 80.4417 23.6C80.4274 23.7094 80.4343 23.9234 80.4583 24.0791C80.4823 24.2349 80.493 24.3952 80.4802 24.4444C80.4651 24.487 80.4789 24.7209 80.5016 24.9591C80.531 25.1951 80.5576 25.5737 80.5601 25.7966C80.5644 26.1755 80.6617 27.1039 80.7187 27.4197C80.7373 27.4953 80.7475 27.6111 80.746 27.6713C80.7414 27.8519 80.8239 28.6512 80.9524 29.5837C81.0134 30.0622 81.0668 30.6479 81.0696 30.893C81.0724 31.1382 81.1007 31.4789 81.1293 31.648C81.1646 31.8148 81.1715 32.0287 81.1502 32.1181C81.1356 32.2052 81.1254 32.4773 81.1348 32.7202C81.1644 33.5602 80.9098 34.6555 80.5268 35.4002C80.1979 36.0215 79.948 36.3544 79.3875 36.9518C79.0907 37.2563 78.827 37.5493 78.7963 37.5897C78.7746 37.6346 78.6843 37.7181 78.6005 37.7771C78.3555 37.9517 77.7947 38.7207 77.5753 39.1848C77.1254 40.1241 77.1696 40.6831 77.7292 41.3764C78.1421 41.882 78.7631 42.3003 78.998 42.2262C79.0446 42.21 79.2049 42.2215 79.3631 42.2486C79.8469 42.3342 80.776 42.2652 82.8864 41.9948C83.5573 41.9111 84.7104 41.7792 85.6104 41.6904C85.8682 41.6606 86.2059 41.6254 86.3703 41.6056C86.5281 41.5881 86.7927 41.5782 86.9574 41.5807C87.1154 41.5855 87.6065 41.5418 88.033 41.4832C88.8282 41.3712 88.9685 41.3896 88.9376 41.6017C88.9212 41.7267 89.1131 42.5626 89.3306 43.3001C89.7403 44.7018 91.0232 45.8078 92.4624 45.9868C93.9195 46.1745 94.3257 46.1006 95.4285 45.4566C96.0496 45.0992 96.5667 44.5915 96.8544 44.0664C97.2073 43.4069 97.4355 41.7613 97.3001 40.8088C97.2639 40.5529 97.268 40.3277 97.3143 40.2892C97.3539 40.2531 97.5781 40.2125 97.8093 40.1919C98.4717 40.1484 103.043 39.5009 103.68 39.3618C103.873 39.3172 104.341 39.2291 104.725 39.1554C105.684 38.979 105.769 38.9647 106.383 38.759C106.83 38.611 106.981 38.5289 107.256 38.2693C107.888 37.6844 108.098 36.9998 107.904 36.1795C107.693 35.2681 107.001 34.4493 105.54 33.3678C104.026 32.2601 103.454 31.616 102.713 30.2249C102.338 29.5272 101.847 28.2134 101.855 27.9347C101.853 27.8009 101.838 27.4556 101.817 27.1794C101.787 26.8989 101.779 26.5958 101.79 26.5177C101.804 26.4306 101.803 26.1252 101.802 25.8421C101.792 25.5547 101.791 25.0554 101.789 24.7277C101.796 22.98 101.572 21.2974 101.209 20.2674C100.92 19.4505 100.384 18.3535 100.132 18.0756C100.024 17.9565 99.9176 17.7995 99.8946 17.7329C99.8739 17.673 99.5871 17.2952 99.2645 16.9C98.0103 15.3813 95.8648 14.1274 93.6632 13.6164C93.1212 13.4913 92.2634 13.3789 92.1504 13.4182C91.8955 13.4992 91.7873 13.3801 91.4875 12.6414C91.0826 11.6632 90.8955 11.4447 90.1638 11.0723C89.6335 10.8089 89.5108 10.7769 89.1687 10.8211C88.9532 10.8437 88.5428 10.9489 88.2636 11.0459C87.7982 11.2075 87.7121 11.2598 87.3119 11.6747Z" fill="#A3E635"/>
<path d="M177.588 16.8654C177.341 16.7322 176.547 16.3952 175.226 15.8441C174.273 15.449 171.77 14.537 171.14 14.353C170.806 14.2592 170.334 14.1212 170.092 14.0439C169.413 13.8396 168.818 13.7494 168.31 13.7856C167.775 13.8153 167.106 14.1954 166.277 14.9315C165.551 15.5863 165.256 15.7445 164.481 15.8942C163.828 16.0155 161.727 15.9211 161.439 15.7527C161.374 15.7232 161.155 15.6597 160.954 15.6176C160.753 15.5754 160.162 15.3634 159.641 15.1539C159.12 14.9444 158.604 14.7591 158.499 14.7455C158.394 14.7319 158.151 14.6741 157.959 14.617C157.422 14.4494 156.673 14.4911 156.318 14.7147C155.704 15.088 155.183 15.7775 154.922 16.5657C154.835 16.8219 154.672 17.1854 154.556 17.3719C154.44 17.5584 154.192 18.1585 153.983 18.7111C153.78 19.2562 153.533 19.8368 153.436 19.9935C153.339 20.1501 153.281 20.3104 153.299 20.3634C153.323 20.4089 153.283 20.5393 153.214 20.6512C153.144 20.7631 152.952 21.2737 152.781 21.7982C152.615 22.3153 152.405 22.8874 152.318 23.0608C152.239 23.2388 152.012 23.8212 151.817 24.3514C151.63 24.8862 151.33 25.7024 151.151 26.159C150.978 26.6202 150.713 27.3647 150.554 27.8035C150.403 28.247 150.178 28.8098 150.054 29.0429C149.843 29.4493 149.749 29.7009 149.355 30.9856C149.078 31.8985 148.989 33.0416 149.152 33.6282C149.345 34.3162 149.772 35.0258 150.009 35.0278C150.104 35.0247 150.399 35.1149 150.665 35.2182C150.939 35.3262 151.422 35.4809 151.744 35.5775C152.071 35.6667 152.547 35.8484 152.797 35.962C153.054 36.0803 153.477 36.2492 153.733 36.3358C153.994 36.4149 154.628 36.6743 155.14 36.8987C155.652 37.1231 156.597 37.5136 157.237 37.7655C157.881 38.0099 158.545 38.2878 158.714 38.3822C158.887 38.4691 159.221 38.614 159.45 38.6942C160.587 39.1101 161.702 39.5437 162.362 39.8291C162.772 40.0008 163.369 40.237 163.69 40.3532C164.018 40.474 164.975 40.83 165.833 41.1454C166.686 41.4682 167.539 41.7594 167.721 41.7998C167.91 41.8447 168.885 42.1709 169.896 42.5397C171.95 43.2764 173.642 43.8616 174.311 44.0492C174.557 44.1191 175.116 44.3005 175.555 44.4591C175.998 44.6102 176.565 44.7963 176.803 44.8616C177.049 44.9315 177.532 45.0862 177.875 45.2163C179.215 45.6864 180.104 45.5866 180.964 44.8495C181.576 44.33 182.082 43.5801 182.284 42.8889C182.369 42.601 182.822 41.3218 183.297 40.0564C183.764 38.7864 184.467 36.8047 184.845 35.6448C185.231 34.4895 185.88 32.6606 186.283 31.5778C186.694 30.4998 187.063 29.4888 187.099 29.3463C187.158 29.1349 187.621 27.8723 187.936 27.0654C188.058 26.769 187.942 26.0054 187.731 25.6469C187.371 25.0618 186.611 24.5386 185.523 24.143C185.02 23.9548 184.338 23.7384 184.019 23.6539C182.837 23.3443 182.199 23.1556 181.927 23.0281C181.772 22.9626 181.423 22.8083 181.154 22.6929C180.501 22.4122 180.029 22.0574 179.858 21.7341C179.785 21.5855 179.667 21.1094 179.609 20.6703C179.409 19.3272 179.221 18.4977 179.073 18.3028C178.632 17.6985 177.973 17.0623 177.588 16.8654ZM180.738 26.2781C180.877 26.5196 180.792 27.0559 180.559 27.3656C180.41 27.5727 180.297 27.6373 180.097 27.6268C179.544 27.6036 179.35 27.0496 179.665 26.4083C179.853 26.0391 180.071 25.9369 180.416 26.0475C180.507 26.0834 180.596 26.1073 180.615 26.1091C180.63 26.1184 180.686 26.1945 180.738 26.2781ZM173.502 23.7526C174.775 24.9143 175.551 26.4286 175.91 28.4487C176.166 29.8679 176.088 30.9254 175.636 32.1534C175.276 33.1178 175.087 33.4553 174.461 34.214C173.485 35.4057 172.675 36.0608 171.647 36.4867C170.897 36.7964 170.469 36.903 169.481 37.0133C167.845 37.1863 166.276 36.9673 165.179 36.421C164.636 36.1465 163.793 35.6235 163.751 35.525C163.733 35.5037 163.57 35.3507 163.375 35.1987C162.183 34.2218 161.409 32.9877 160.922 31.291C160.596 30.1688 160.551 28.5916 160.825 27.8006C160.877 27.6673 160.946 27.3898 161.004 27.1783C161.142 26.6232 162.001 25.0895 162.508 24.5052C163.5 23.3544 164.851 22.4258 166.105 22.0363C166.791 21.8311 168.612 21.6594 169.414 21.733C169.973 21.7804 170.889 22.0695 171.563 22.4153C172.071 22.6788 173.128 23.4067 173.502 23.7526Z" fill="#F8F9FA"/>
<path d="M171.393 23.3223C171.357 23.3308 171.114 23.2218 170.839 23.0822C170.019 22.656 168.021 22.5119 166.7 22.7769C164.992 23.1326 163.695 24.0741 162.639 25.7434C162.261 26.3356 162.057 26.7467 162.018 26.96C161.982 27.1341 161.905 27.5094 161.848 27.7841C161.507 29.3496 161.825 31.3856 162.612 32.6486C162.828 32.9997 163.075 33.4009 163.15 33.53C163.232 33.6637 163.426 33.8668 163.589 33.9882C163.751 34.1096 164.051 34.358 164.252 34.5341C165.175 35.3443 166.689 36.0353 167.712 36.1017C168.632 36.1665 170.48 35.7527 171.676 35.2238C173.275 34.5112 174.932 32.5225 175.192 31.0205C175.338 30.1192 175.324 29.3766 175.12 28.4234C174.92 27.4628 174.683 26.7787 174.343 26.227C174.22 26.0264 174.046 25.6911 173.948 25.4653C173.709 24.9347 173.072 24.3124 172.185 23.7617C171.782 23.5118 171.429 23.3138 171.393 23.3223ZM172.357 25.1496C172.785 25.6423 173.471 26.8014 173.768 27.5541C174.089 28.3525 174.298 29.381 174.253 29.9209C174.12 31.5332 173.196 33.2225 172.025 34.0454C170.938 34.7973 168.7 35.4237 167.635 35.2588C166.822 35.1368 166.571 35.0428 165.62 34.4941C164.039 33.5958 163.009 31.9242 162.775 29.9195C162.587 28.2739 163.205 26.2292 164.221 25.1239C165.586 23.6564 168.069 23.1511 170.255 23.9078C171.095 24.2018 171.982 24.7209 172.357 25.1496Z" fill="#F8F9FA"/>
<path d="M161.27 12.7447C160.281 12.3898 159.439 12.1153 159.398 12.1312C159.289 12.1567 158.598 14.0212 158.633 14.1979C158.659 14.3383 158.818 14.416 159.586 14.6758C160.099 14.849 160.885 15.1302 161.351 15.2952C162.362 15.6641 162.469 15.6581 162.659 15.2182C163.021 14.3683 163.229 13.6501 163.142 13.5238C163.091 13.4403 162.362 13.1328 161.27 12.7447Z" fill="#F8F9FA"/>
<path d="M241.396 14.3436C239.363 14.6288 239.096 14.6823 237.669 15.1994C232.463 17.0895 229.253 20.9052 228.273 26.397C227.845 28.8755 227.898 30.1949 228.594 32.9408C229.128 35.0805 230.947 38.1652 232.623 39.7699C234.335 41.3747 238.276 43.5144 239.969 43.7462C240.469 43.8175 240.914 43.9423 240.968 44.0136C241.111 44.2632 241.342 44.1919 241.485 43.8531C241.717 43.3004 241.752 41.1786 241.521 41.0002C241.396 40.9111 240.79 40.7328 240.166 40.608C238.596 40.287 236.154 38.9854 235.013 37.8799C234.067 36.9705 232.231 34.4208 231.803 33.4223C231.161 31.9602 230.947 29.1251 231.322 27.3242C231.571 26.1474 232.088 24.4891 232.391 23.9364C233.033 22.7418 234.656 20.5308 235.369 19.9067C235.94 19.3896 237.99 18.3198 238.4 18.3198C238.543 18.3198 238.721 18.2663 238.793 18.195C238.846 18.1236 239.007 18.0523 239.131 18.0345C239.256 18.0167 239.666 17.9275 240.059 17.8205C241.788 17.3748 244.748 17.1964 246.121 17.4639C249.901 18.195 253.075 21.5114 254.394 26.0761C255.09 28.501 254.323 33.244 252.861 35.5263C252.558 36.0077 252.255 36.6139 252.201 36.8636C252.059 37.452 252.54 38.0404 253.289 38.2008C253.788 38.29 253.949 38.2365 254.341 37.8086C255.304 36.7922 256.463 33.9928 256.998 31.4609C257.711 28.1622 256.944 24.0434 255.054 20.9052C253.057 17.5887 249.206 14.9498 245.55 14.397C243.642 14.0939 243.143 14.0939 241.396 14.3436Z" fill="#C084FC"/>
<path d="M241.485 19.247C240.416 19.4431 238.526 20.0137 237.955 20.299C237.081 20.7447 235.673 21.9572 234.977 22.8666C233.961 24.186 233.48 25.2915 233.105 27.1459C232.57 29.9096 232.766 31.5679 233.907 33.9393C234.674 35.4906 235.887 36.8279 237.313 37.6481C240.38 39.449 241.967 39.9304 242.181 39.128C242.324 38.5753 242.306 37.5233 242.145 37.2736C242.074 37.1667 241.557 36.917 241.004 36.7209C238.757 35.9364 237.081 34.3494 235.94 31.9601C235.173 30.3732 235.102 29.8027 235.352 28.1444C235.673 25.9869 236.118 25.0241 237.384 23.7403C238.9 22.189 239.881 21.7611 242.234 21.6184C245.176 21.4223 246.442 21.9216 248.582 24.1147C249.705 25.2737 250.169 26.29 250.276 27.8591C250.383 29.5887 249.777 32.5664 249.081 33.6897C248.564 34.4921 248.564 34.5277 248.903 34.8665C249.509 35.5441 250.472 36.186 250.668 36.0612C250.953 35.8829 251.863 34.0107 252.255 32.7447C252.754 31.1756 253.058 29.0003 252.933 27.9839C252.79 26.8606 252.095 25.2024 251.096 23.6155C249.991 21.9037 249.759 21.6541 248.065 20.5308C246.014 19.1757 243.964 18.7834 241.485 19.247Z" fill="#C084FC"/>
<path d="M240.772 23.3836C239.596 23.9186 238.009 25.3807 237.438 26.4683C236.814 27.6452 236.475 29.8026 236.76 30.7298C237.474 32.9765 239.667 34.9557 241.753 35.2053C242.591 35.2945 242.627 35.2766 242.752 34.8309C242.805 34.5634 242.876 33.9928 242.894 33.5292L242.912 32.709L241.86 32.1563C240.665 31.5144 239.738 30.3554 239.56 29.2856C239.328 27.8413 241.04 25.8086 242.484 25.8086C243.393 25.8086 244.214 26.2009 245.087 27.0389C246.175 28.0909 246.353 28.8576 245.872 30.2841C245.426 31.6392 245.408 31.9245 245.783 32.5129C246.139 33.03 247.031 33.5471 247.37 33.4044C247.762 33.2618 248.136 32.3702 248.529 30.7655C248.992 28.8041 248.974 27.9839 248.44 26.8249C246.942 23.6689 243.483 22.0998 240.772 23.3836Z" fill="#C084FC"/>
<path d="M242.359 27.3955C240.968 28.2514 240.844 29.6243 242.074 30.5337C242.591 30.9081 243.75 30.9616 244.196 30.605C244.695 30.1771 244.998 29.3568 244.891 28.7328C244.784 28.1979 243.928 27.235 243.536 27.235C243.447 27.235 243.286 27.1993 243.144 27.1459C243.019 27.0924 242.662 27.2172 242.359 27.3955Z" fill="#C084FC"/>
<path d="M293.418 14.3135C292.802 14.5746 292.104 15.2036 291.654 15.892C291.121 16.6872 291.086 17.3043 291.536 18.4081C291.962 19.4762 292.376 20.0696 293.524 21.2209C294.376 22.0873 294.85 22.4315 297.288 23.915C298.815 24.8526 300.248 25.7071 300.461 25.8377C300.662 25.9564 300.839 26.0869 300.839 26.1225C300.839 26.1581 300.899 26.5023 300.958 26.894C301.265 28.6505 301.337 29.054 301.372 29.3863C301.561 30.858 301.774 32.116 302.082 33.5402C302.236 34.2523 302.473 35.5697 302.627 36.448C302.769 37.3263 302.899 38.157 302.923 38.2876C302.946 38.4181 303.017 38.8691 303.077 39.2964C303.503 42.0736 303.538 42.1685 304.083 42.6789C304.651 43.2011 306.722 44.1743 307.255 44.1624C307.456 44.1624 307.622 44.0675 307.705 43.9251C307.835 43.6877 308.166 41.5158 308.427 39.2371C308.486 38.6436 308.64 37.3975 308.77 36.448C309.019 34.5372 309.078 33.9082 309.196 32.2466C309.244 31.6176 309.326 31.0716 309.374 31.036C309.433 31.0004 309.753 31.1903 310.096 31.4395C310.995 32.1042 312.7 33.1367 313.753 33.6471C315.197 34.3473 315.115 34.1693 315.209 36.8278C315.257 38.0858 315.328 39.51 315.375 39.9966L315.458 40.863L316.215 41.3259C316.63 41.5751 317.068 41.8718 317.186 41.9786C317.636 42.3822 317.908 42.1567 318.701 40.7087C318.831 40.4832 319.471 39.427 320.122 38.3707C320.784 37.3025 321.944 35.3917 322.726 34.0981C324.844 30.5613 326.04 28.603 326.383 28.152L326.679 27.7485L326.407 27.523C326.253 27.3924 325.756 27.072 325.306 26.8109L324.501 26.3243L323.791 26.526C323.389 26.6329 322.714 26.8821 322.288 27.0839C321.376 27.4992 318.76 28.4962 318.571 28.4962C318.441 28.4962 316.784 27.5111 314.984 26.3599C314.404 25.992 313.682 25.5528 313.398 25.3985C313.102 25.2443 312.854 25.0544 312.842 24.995C312.818 24.9238 313.102 24.722 313.481 24.5322C315.517 23.5115 323.377 18.3843 323.531 17.9689C323.637 17.6841 323.128 17.1738 321.98 16.4142C320.24 15.2748 320.157 15.2392 319.021 15.346C318.003 15.441 315.268 16.0463 314.274 16.3905C313.955 16.4973 313.209 16.7465 312.617 16.9245C312.037 17.1026 311.469 17.2806 311.374 17.3162C311.149 17.3993 311.197 17.3755 310.368 17.6248C309.977 17.7434 309.421 17.9096 309.125 17.9927C308.829 18.0876 308.19 18.2775 307.705 18.4199C307.219 18.5505 306.734 18.7048 306.639 18.7523C306.545 18.7997 306.19 18.9065 305.858 18.9896L305.243 19.132L303.372 17.9808C302.331 17.3518 301.029 16.5447 300.472 16.2006C299.62 15.6665 298.756 15.2392 297.466 14.7289C296.164 14.2067 294.128 13.993 293.418 14.3135Z" fill="#F8F9FA"/>
<path d="M380.198 14.2018C380.17 14.2295 379.912 14.2571 379.626 14.2664C378.51 14.3125 377.699 14.4139 376.427 14.6536C375.182 14.8933 374.62 15.0224 374.398 15.1238C374.297 15.1699 374.048 15.2252 373.845 15.2621C372.674 15.4465 368.009 17.5118 366.773 18.3969C366.534 18.5721 366.303 18.7196 366.275 18.7196C366.165 18.7196 364.164 20.2778 363.592 20.8126C363.067 21.3012 363.021 21.3842 363.002 21.7622C362.975 22.297 363.178 22.6566 364.348 24.0765C365.381 25.3396 365.612 25.4779 366.137 25.1552C366.322 25.0446 366.792 24.7219 367.179 24.4453C368.368 23.5786 368.645 23.3942 369.373 22.97C370.166 22.4998 372.444 21.3565 372.951 21.1721C373.135 21.0984 373.753 20.8771 374.306 20.665C375.366 20.2686 375.588 20.204 376.795 19.9274C378.013 19.6416 379.119 19.531 380.576 19.531C382.097 19.5402 384.9 19.8445 385.398 20.0657C385.564 20.1395 385.831 20.1948 385.997 20.1948C386.163 20.204 386.394 20.2594 386.523 20.3331C386.652 20.4069 386.882 20.4714 387.03 20.4714C387.186 20.4714 387.408 20.536 387.537 20.6097C387.666 20.6835 387.878 20.7388 388.007 20.748C388.136 20.748 388.321 20.8126 388.422 20.8863C388.514 20.9601 388.699 21.0246 388.828 21.0246C388.957 21.0246 389.141 21.0892 389.233 21.1629C389.335 21.2367 389.482 21.3012 389.556 21.3012C389.639 21.3012 390.201 21.5502 390.81 21.8544C391.418 22.1587 391.953 22.4076 391.99 22.4076C392.036 22.4076 392.202 22.4998 392.359 22.6105C392.525 22.7303 392.811 22.9055 393.014 23.0161C393.382 23.2098 394.452 23.9658 395.134 24.5098C396.075 25.2658 396.287 25.441 396.932 26.0495C397.31 26.3999 397.992 27.0545 398.444 27.4879C398.887 27.9304 399.44 28.3822 399.661 28.4928L400.067 28.6957L400.924 27.9765C401.653 27.3588 402.104 26.9715 403.146 26.0219C403.229 25.9481 403.303 25.8283 403.303 25.7729C403.303 25.7176 403.026 25.2935 402.685 24.8417C402.335 24.3899 401.938 23.8367 401.791 23.6155C401.302 22.9055 398.748 20.3977 397.992 19.8813C397.826 19.7799 397.282 19.3835 396.775 19.0147C396.268 18.6551 395.816 18.3508 395.789 18.3508C395.752 18.3508 395.595 18.2586 395.438 18.1388C395.051 17.8714 393.428 17.0231 392.543 16.6451C392.322 16.5437 392.147 16.4423 392.147 16.3962C392.147 16.3593 392.064 16.3224 391.972 16.3224C391.87 16.3224 391.594 16.221 391.354 16.0919C391.114 15.9628 390.856 15.8614 390.782 15.8614C390.699 15.8614 390.46 15.7784 390.238 15.6678C389.823 15.465 389.215 15.2713 388.413 15.0869C388.164 15.0316 387.915 14.9579 387.86 14.921C387.813 14.8933 387.564 14.838 387.306 14.8011C387.057 14.7642 386.772 14.6905 386.679 14.6444C386.32 14.46 383.683 14.1926 381.977 14.1649C381.027 14.1557 380.225 14.1742 380.198 14.2018Z" fill="#60A5FA"/>
<path d="M379.589 23.9012C378.215 24.0211 377.017 24.2793 375.597 24.7587C374.537 25.1183 373.098 25.736 372.674 26.0218C372.545 26.114 372.407 26.1878 372.379 26.1878C372.185 26.1878 369.622 28.0502 369.032 28.6219C368.811 28.8339 368.636 29.0829 368.636 29.1843C368.636 29.4332 368.968 29.9311 369.973 31.2127C370.71 32.1347 371.586 33.1028 371.697 33.1028C371.734 33.1028 372.204 32.7524 372.739 32.3191C373.273 31.8858 373.753 31.5354 373.79 31.5354C373.827 31.5354 374.066 31.3787 374.315 31.1943C375.219 30.5028 377.45 29.5808 378.962 29.2673C379.423 29.1751 380.087 29.1198 380.576 29.129C381.636 29.1474 383.591 29.3871 384.107 29.5623C384.319 29.6361 384.577 29.6914 384.679 29.6914C384.771 29.6914 385.176 29.8389 385.573 30.0233C385.969 30.2077 386.55 30.4751 386.873 30.6226C387.196 30.7701 387.481 30.89 387.509 30.89C387.537 30.89 387.684 30.9822 387.841 31.0928C388.007 31.2127 388.284 31.3787 388.459 31.4801C389.003 31.7659 389.897 32.5773 391.354 34.0986C391.843 34.6149 392.147 34.8546 392.285 34.8546C392.405 34.8546 392.516 34.8177 392.534 34.7809C392.562 34.7163 394.433 33.1213 395.07 32.6326C395.235 32.4943 395.484 32.2822 395.623 32.1439C395.844 31.9134 395.853 31.895 395.706 31.7382C395.623 31.646 395.558 31.517 395.558 31.4616C395.558 31.3049 394.802 30.1155 394.387 29.6176C393.069 28.041 391.013 26.446 389.15 25.5516C388.403 25.192 388.025 25.0353 387.583 24.897C387.38 24.8325 387.113 24.7403 386.984 24.6849C386.854 24.6388 386.606 24.5651 386.43 24.5282C386.255 24.4821 385.988 24.4083 385.831 24.3622C384.337 23.8551 381.968 23.68 379.589 23.9012Z" fill="#60A5FA"/>
<path d="M379.93 34.3844C379.912 34.4213 379.765 34.4397 379.608 34.4121C379.46 34.3936 379.276 34.4121 379.211 34.4674C379.156 34.5135 378.898 34.5873 378.64 34.6241C377.579 34.7717 375.837 35.8688 375.081 36.8738C374.721 37.3533 374.712 37.3625 374.869 37.6022C374.952 37.7313 375.173 38.0079 375.357 38.2107C375.542 38.4228 375.947 38.9022 376.242 39.2802C376.547 39.6583 377.257 40.5157 377.81 41.1796C378.372 41.8434 379.091 42.7193 379.423 43.1342C380.253 44.1576 380.714 44.3605 381.443 43.9917C382.245 43.5768 383.139 42.9037 384.356 41.7789C384.559 41.5945 385.075 41.1703 385.499 40.8476C385.923 40.5157 386.763 39.8427 387.362 39.3448C388.339 38.5519 388.459 38.4136 388.459 38.1646C388.459 37.805 388.21 37.3901 387.74 36.966C387.27 36.5419 386.458 35.961 386.338 35.961C386.283 35.961 386.246 35.9149 386.246 35.8688C386.246 35.8135 386.182 35.7766 386.108 35.7766C386.025 35.7766 385.813 35.6844 385.619 35.5646C385.14 35.2695 384.236 34.8546 384.07 34.8546C383.997 34.8546 383.849 34.8085 383.748 34.7532C383.646 34.7071 383.305 34.6149 382.992 34.5688C382.678 34.5135 382.383 34.4397 382.328 34.3936C382.217 34.3014 379.995 34.2922 379.93 34.3844Z" fill="#60A5FA"/>
<path d="M466.531 15.8466C465.449 17.5128 461.889 22.0085 461.474 22.2177C461.378 22.2659 461.099 22.5466 460.868 22.8431C460.486 23.3559 460.406 23.3961 459.791 23.406C458.824 23.433 456.93 23.7266 455.124 24.1159C452.824 24.6346 451.755 25.3734 451.383 26.7415C451.201 27.3337 452.477 36.6191 452.823 37.3056C453.112 37.8803 453.857 38.3656 454.673 38.515C455.345 38.6169 457.343 38.4508 459.62 38.0841C462.233 37.6683 462.081 37.6448 463.523 38.5597C464.26 39.0291 464.997 39.5385 465.149 39.6819C465.302 39.8253 465.71 40.0799 466.054 40.2467C466.399 40.4135 466.719 40.6524 466.791 40.796C466.856 40.9238 467.2 41.1705 467.577 41.3612C467.953 41.5519 468.289 41.7827 468.338 41.8785C468.394 41.9903 468.811 42.2608 469.267 42.4912C469.731 42.7376 470.388 43.1673 470.741 43.47C471.983 44.5054 473.446 44.5489 474.163 43.5474C474.616 42.9384 474.608 42.7226 474.264 40.1335C474.101 38.9748 473.96 37.5443 473.943 36.9528C473.925 36.3612 473.867 35.7698 473.811 35.6581C473.754 35.5463 473.689 35.0589 473.671 34.5873C473.654 34.1157 473.473 32.5254 473.269 31.047C473.048 29.5768 472.81 27.475 472.711 26.3641C472.52 24.1982 472.055 21.0499 471.225 16.4637C470.989 15.0814 470.965 15.0335 470.444 14.7154C469.684 14.2381 468.988 14.2082 467.974 14.6191C467.207 14.9252 467.008 15.0857 466.531 15.8466Z" fill="#D1D5DB"/>
<path d="M476.575 19.7331C476.417 20.2533 476.466 20.469 476.964 21.3788C477.278 21.9614 477.776 22.7113 478.072 23.0621C479.982 25.2627 480.811 27.1468 480.697 29.1457C480.645 30.2731 479.236 34.7862 478.805 35.2032C478.534 35.4599 478.442 36.5074 478.659 36.9384C478.868 37.3535 480.164 37.8212 480.548 37.6281C481.186 37.3064 482.292 35.5282 482.863 33.9196C483.465 32.175 483.978 30.1349 484.016 29.4153C484.094 26.2733 482.83 23.2074 480.246 20.3054C479.557 19.5321 477.595 18.6987 477.085 18.9561C476.909 19.0446 476.686 19.397 476.575 19.7331Z" fill="#D1D5DB"/>
<path d="M541.601 14.3996C540.724 14.6928 538.18 16.0268 537.727 16.4519C537.581 16.5838 537.157 16.9063 536.791 17.1701C535.637 17.9471 533.78 19.8087 533.107 20.8348C532.274 22.1101 531.455 23.8399 531.251 24.7341C531.163 25.1298 531.031 25.5696 530.958 25.7162C530.651 26.2879 530.476 29.0877 530.666 30.6855C530.9 32.855 531.47 35.2884 531.908 36.0653C532.113 36.4317 532.274 36.7982 532.274 36.8715C532.274 37.0767 534.043 39.3049 534.701 39.9352C537.128 42.2366 540.271 43.6878 543.824 44.1276C544.774 44.2449 547.362 44.0543 548.867 43.7465C552.698 42.9842 557.098 39.9645 558.984 36.8422C559.745 35.5669 559.452 34.8632 558.356 35.4056C556.514 36.2998 552.756 36.5783 550.593 35.9627C549.964 35.7868 549.277 35.5522 549.058 35.4349C548.853 35.3177 548.575 35.2297 548.443 35.2297C548.327 35.2297 547.654 34.9365 546.952 34.5701C544.832 33.456 543.078 31.5797 542.23 29.5128C542.055 29.073 541.85 28.5746 541.777 28.4134C540.695 25.9361 540.768 22.1834 541.938 19.1051C542.098 18.6653 542.289 18.1376 542.347 17.9324C542.42 17.7272 542.786 16.9209 543.151 16.1294C543.531 15.3525 543.824 14.5902 543.794 14.4436C543.721 14.0918 542.639 14.0625 541.601 14.3996Z" fill="#FBBF24"/>
<path d="M613.96 12.2668C613.933 12.2932 613.849 12.3044 613.786 12.2876C613.648 12.2504 613.002 12.6241 612.784 12.8625C612.708 12.9435 612.632 13.0783 612.608 13.1665C612.585 13.2547 612.508 13.3895 612.434 13.4643C612.32 13.5889 611.838 14.7629 611.748 15.1507C611.729 15.22 611.58 15.7808 611.408 16.3967C611.202 17.1448 611.119 17.5549 611.148 17.6234C611.183 17.6936 611.164 17.763 611.106 17.8284C610.992 17.9531 610.785 18.5525 610.153 20.5643C609.886 21.438 609.596 22.3193 609.522 22.5222C609.441 22.7234 609.306 23.18 609.218 23.5346C609.128 23.8955 609.038 24.1819 609.007 24.1735C608.982 24.1668 608.713 23.7365 608.42 23.2189C608.125 22.7075 607.802 22.1545 607.703 21.993C607.613 21.8269 607.254 21.2037 606.911 20.5982C606.345 19.5885 605.803 18.7201 605.721 18.6982C605.702 18.6931 605.614 18.5682 605.525 18.4227C605.316 18.0963 604.528 17.3646 604.308 17.3055C604.214 17.2802 604.094 17.2006 604.044 17.1333C603.919 16.9714 603.28 16.7928 602.942 16.8235C602.57 16.8521 602.478 16.8948 602.288 17.1274C602.14 17.3037 602.115 17.3714 602.126 17.5567C602.14 17.6819 602.122 17.8731 602.094 17.9803C602.041 18.1756 602.202 19.0629 602.339 19.3295C602.374 19.3997 602.447 19.5813 602.503 19.7247C602.839 20.6862 604.474 23.5163 606.167 26.0784C606.373 26.3904 606.696 26.8959 606.874 27.1869C607.059 27.4796 607.25 27.774 607.312 27.8447C607.374 27.9154 607.515 28.1156 607.625 28.2867L607.835 28.6068L607.651 28.6654C607.554 28.7002 607.302 28.8146 607.084 28.9248C606.87 29.0431 606.501 29.1872 606.268 29.2529C606.031 29.3106 605.708 29.4334 605.548 29.505C605.385 29.583 605.228 29.6421 605.19 29.6319C605.159 29.6235 605.01 29.6779 604.868 29.7547C604.722 29.8234 604.54 29.8963 604.465 29.9029C604.387 29.9159 603.902 30.1166 603.381 30.3546C602.859 30.5927 602.406 30.775 602.381 30.7682C602.35 30.7598 602.146 30.8402 601.928 30.9505C601.71 31.0607 601.406 31.1885 601.259 31.2367C601.111 31.2848 600.744 31.4495 600.438 31.6105C600.139 31.7732 599.467 32.1195 598.957 32.3879C598.442 32.6545 597.954 32.9422 597.862 33.0325C597.031 33.8492 596.928 33.9836 596.772 34.4145C596.649 34.7733 596.64 34.8586 596.715 35.007C596.764 35.1012 596.83 35.2811 596.863 35.4114C596.897 35.5355 596.969 35.6696 597.014 35.702C597.066 35.7361 597.142 35.8039 597.185 35.8426C597.316 35.9856 597.672 36.1894 597.981 36.3196C598.481 36.5148 599.063 36.4281 600.495 35.9348C600.909 35.7962 601.332 35.6261 601.761 35.4308C602.022 35.3117 602.342 35.1747 602.478 35.1169C602.707 35.0163 605.019 33.8273 606.385 33.1003C606.739 32.9116 607.035 32.7884 607.051 32.8266C607.076 32.9347 606.643 34.2297 606.552 34.2931C606.51 34.3224 606.345 34.7643 606.188 35.276C606.031 35.7876 605.853 36.253 605.796 36.3122C605.74 36.3714 605.584 36.7549 605.441 37.1623C605.305 37.5715 605.084 38.1469 604.949 38.4485C604.817 38.7438 604.658 39.1604 604.596 39.3667C604.541 39.5746 604.414 39.8716 604.318 40.0282C604.213 40.1958 604.074 40.5637 603.983 40.904C603.896 41.2317 603.793 41.5417 603.746 41.59C603.666 41.6899 603.279 43.3892 603.228 43.8821C603.208 44.0321 603.215 44.1826 603.241 44.2099C603.268 44.2372 603.268 44.3385 603.241 44.4393C603.204 44.578 603.259 44.7482 603.452 45.1107C603.684 45.5514 603.743 45.6078 604.038 45.7409C604.29 45.8559 604.4 45.872 604.532 45.8331C604.621 45.803 604.752 45.7909 604.821 45.8095C605.054 45.872 606.004 45.5668 606.598 45.2334C606.796 45.1244 606.993 45.0423 607.024 45.0507C607.062 45.0608 607.426 44.9087 607.83 44.7067C608.744 44.2632 610.069 43.6399 610.686 43.3733C610.943 43.2669 611.28 43.1143 611.43 43.033C611.58 42.9517 611.891 42.8192 612.119 42.725C612.344 42.637 612.775 42.4354 613.073 42.279C613.371 42.1226 613.665 41.9788 613.73 41.9625C613.86 41.9299 614.876 41.3789 615.567 40.9633C615.823 40.8094 616.232 40.514 616.469 40.3076C616.9 39.9303 616.907 39.932 616.967 39.5295C617.057 38.966 616.95 38.6335 616.374 37.6886C615.743 36.6477 615.128 35.5708 614.343 34.1507C614.007 33.5406 613.323 32.3707 612.833 31.5569C612.337 30.7415 611.933 30.059 611.94 30.0338C611.945 30.0149 612.105 29.9701 612.291 29.9321C612.474 29.9004 612.772 29.8184 612.956 29.7597C613.142 29.6948 613.388 29.6325 613.508 29.6108C613.628 29.5891 613.771 29.533 613.835 29.4961C613.894 29.4512 613.969 29.4239 614 29.4324C614.032 29.4408 614.182 29.407 614.332 29.3525C615.186 29.0552 616.514 28.6218 616.539 28.6286C616.558 28.6337 616.675 28.5977 616.804 28.5444C616.931 28.4975 617.095 28.4401 617.16 28.4238C617.518 28.3175 617.907 28.1722 618.218 28.0192C618.41 27.929 618.78 27.7786 619.036 27.6785C619.298 27.5801 619.951 27.2556 620.483 26.9528C621.284 26.4995 621.51 26.3372 621.783 26.0189C622.12 25.6163 622.28 25.1934 622.307 24.64C622.345 23.7386 621.139 21.3208 619.131 18.2486C618.94 17.9542 618.512 17.265 618.182 16.7103C617.858 16.1573 617.472 15.5336 617.334 15.3208C617.061 14.9032 616.282 13.8362 616.238 13.8243C616.207 13.8159 615.849 13.4158 615.764 13.3052C615.649 13.1324 615.218 12.7532 614.941 12.5776C614.615 12.3617 614.05 12.1828 613.96 12.2668ZM614.722 18.7186C614.758 18.7825 614.809 18.8435 614.828 18.8486C614.941 18.879 615.839 20.3832 616.948 22.3832C617.443 23.2793 617.7 23.8549 617.667 23.9809C617.579 24.3086 616.692 24.8807 616.125 24.9851C615.826 25.0465 615.225 25.2294 614.903 25.3728C614.781 25.4277 614.214 25.6333 613.651 25.8264C612.916 26.0814 612.613 26.1554 612.576 26.0915C612.544 26.0356 612.581 25.8701 612.69 25.5886C612.98 24.8561 614.41 19.4049 614.405 19.0456C614.403 18.5993 614.554 18.4373 614.722 18.7186ZM610.946 34.6362C611.546 35.6686 612.365 36.9895 612.444 37.0447C612.472 37.0657 612.557 37.2032 612.633 37.3454C612.702 37.4921 612.79 37.617 612.834 37.6288C612.872 37.639 612.974 37.761 613.064 37.9002L613.22 38.1512L612.965 38.2719C612.819 38.3407 612.684 38.3922 612.651 38.3901C612.6 38.3766 611.43 38.974 610.662 39.4025C610.275 39.616 609.151 40.1445 608.575 40.3817C608.453 40.4366 608.304 40.4642 608.247 40.449C608.147 40.4219 608.164 40.332 608.503 39.2142C608.934 37.8305 609.054 37.4575 609.327 36.788C609.432 36.5191 609.696 35.7592 609.914 35.0951C610.285 33.9588 610.357 33.7892 610.433 33.8094C610.452 33.8145 610.682 34.1871 610.946 34.6362Z" fill="#F8F9FA"/>
<path d="M677.703 12.0045C674.43 12.6223 669.471 15.0433 667.752 16.8633C666.499 18.1823 664.396 21.7554 663.678 23.7758C663.277 24.8944 662.726 27.4324 662.726 28.2004C662.726 28.5678 662.642 28.9685 662.542 29.0854C662.425 29.2356 662.425 29.3525 662.559 29.4861C662.676 29.603 662.759 29.9536 662.759 30.2708C662.776 30.8385 663.21 33.2095 663.561 34.4617C664.546 38.1184 668.904 42.877 673.028 44.7971C675.549 45.9826 677.436 46.3165 681.126 46.233C684.632 46.1662 686.135 45.849 688.406 44.7136C690.944 43.428 693.932 40.5895 694.934 38.5024C695.318 37.7176 695.335 37.5841 695.151 37.0832C694.867 36.3819 694.35 35.9812 693.749 35.9645C693.365 35.9645 692.864 36.3652 690.977 38.2352C687.588 41.5913 686.469 42.2425 682.545 43.1274C680.458 43.5949 677.119 43.261 675.165 42.3761C674.881 42.2425 674.564 42.1423 674.48 42.1423C674.263 42.1423 672.51 41.1405 671.575 40.506C671.174 40.2222 670.323 39.4541 669.688 38.7695C668.286 37.3336 667.167 35.2131 666.516 32.8755C666.149 31.5398 666.115 31.1391 666.182 29.3024C666.249 27.6494 666.366 26.8981 666.767 25.5456C667.05 24.6273 667.351 23.7925 667.434 23.709C667.535 23.6088 667.601 23.4251 667.601 23.2749C667.601 22.7572 669.238 20.0691 670.089 19.1674C671.559 17.6313 674.113 16.0952 676.1 15.5776C677.102 15.2938 677.903 15.227 680.041 15.227C681.51 15.227 683.013 15.2938 683.38 15.3939C683.747 15.4941 684.532 15.6945 685.116 15.8448C686.268 16.1453 686.819 16.4291 688.472 17.5144C690.109 18.5997 693.482 22.5736 693.482 23.3917C693.482 23.6255 693.264 23.7591 692.697 23.926C691.628 24.2266 691.144 24.5438 691.144 24.9612C691.144 25.5122 692.162 26.9315 693.715 28.5344C694.517 29.3525 695.485 30.4378 695.852 30.922C696.537 31.8403 697.121 32.2411 697.556 32.0741C697.839 31.9572 698.491 30.6382 698.491 30.1707C698.491 29.987 698.557 29.7866 698.641 29.6864C698.708 29.603 698.975 28.9351 699.209 28.2004C699.442 27.4658 699.86 26.2302 700.144 25.4454C700.427 24.6607 700.661 23.8092 700.661 23.5587C700.661 22.9075 700.194 22.2396 699.826 22.3565C699.659 22.4066 699.125 22.5235 698.624 22.607C698.14 22.7072 697.539 22.824 697.305 22.8741C696.904 22.9576 696.821 22.8741 696.153 21.6553C694.35 18.3493 692.363 16.2121 689.508 14.4756C687.17 13.0564 685.968 12.5889 683.397 12.1047C681.393 11.7039 679.456 11.6872 677.703 12.0045Z" fill="#F87171"/>
<path d="M678.053 19.2675C677.018 19.6015 675.983 20.4363 675.499 21.3546C675.098 22.1394 675.081 24.4102 675.482 26.1967C676.016 28.6512 676.016 28.5343 675.599 28.935C675.399 29.1187 675.115 29.2857 674.981 29.2857C674.831 29.2857 674.497 29.4693 674.196 29.6864L673.662 30.1038L673.696 31.7401C673.729 33.4265 674.196 35.6806 674.797 37.0664C675.215 38.0849 675.515 38.1183 678.705 37.5506C680.174 37.3002 682.027 36.9996 682.812 36.8828C686.235 36.3818 687.905 35.7474 688.289 34.829C688.472 34.3782 688.439 32.625 688.239 32.3078C688.188 32.2577 688.038 31.4563 687.888 30.5379C687.571 28.5677 687.203 27.4991 686.819 27.3655C686.285 27.1986 682.294 27.616 680.141 28.0501C679.473 28.1837 678.888 28.2839 678.855 28.2505C678.538 27.9332 677.836 23.7423 678.003 23.1078C678.22 22.2062 679.172 21.6218 680.007 21.8389C680.909 22.0559 681.643 23.3917 681.894 25.2951C682.027 26.2134 682.361 26.6142 683.029 26.6142C683.664 26.6142 684.565 26.0799 684.715 25.6291C684.866 25.1114 684.331 22.8574 683.78 21.6552C682.645 19.2508 680.675 18.4327 678.053 19.2675Z" fill="#F87171"/>
<path d="M747.768 11.7552C747.249 11.8417 745.38 12.1359 743.615 12.4128C740.413 12.932 737.627 13.5204 736.935 13.8319C736.519 14.0223 736 14.8357 736 15.2857C736 15.6318 736.831 16.774 737.004 16.6702C737.073 16.6356 737.402 16.5491 737.731 16.4971C738.059 16.4452 739.081 16.2375 739.981 16.0472C740.88 15.8568 742.178 15.6145 742.836 15.528C743.511 15.4241 744.826 15.1991 745.778 15.0088C746.73 14.8357 748.063 14.5934 748.755 14.4896C749.447 14.3684 750.105 14.1781 750.209 14.0223C750.589 13.5723 750.486 12.6205 750.018 12.1705C749.464 11.6513 748.963 11.5648 747.768 11.7552Z" fill="#F8F9FA"/>
<path d="M748.72 14.9568C748.53 14.9914 747.907 15.1299 747.336 15.2683C746.765 15.3895 745.709 15.6318 744.999 15.7875C742.732 16.2894 740.777 16.7394 740.067 16.9297C739.686 17.0336 739.219 17.1374 739.029 17.172C738.838 17.2066 738.682 17.2413 738.682 17.2586C738.682 17.2759 738.388 17.3105 738.042 17.3278C737.229 17.3797 736.865 17.6912 736.865 18.3316C736.865 18.9892 737.073 19.3527 738.181 20.7372C739.357 22.1909 740.188 23.5581 740.638 24.8215C741.123 26.206 742.594 32.6094 743.286 36.3823C743.649 38.4417 743.805 39.0994 744.792 42.7857C745.778 46.5066 746.488 47.095 749.153 46.42C751.333 45.8662 752.251 45.4336 752.683 44.7413C752.874 44.4471 752.631 42.803 752.008 40.0166C751.853 39.3417 751.628 38.061 751.489 37.1611C751.351 36.2611 751.16 34.9631 751.057 34.3055C750.953 33.6305 750.728 32.2287 750.537 31.1903C749.412 24.8907 749.274 24.0427 749.274 22.8832C749.274 22.1217 749.447 20.9622 749.759 19.768C750.312 17.5182 750.382 15.9433 749.966 15.2856C749.672 14.853 749.447 14.7837 748.72 14.9568ZM746.505 26.1887C747.232 26.5002 747.647 27.2444 748.288 29.3731C748.807 31.0692 748.461 32.5575 747.422 33.094C746.747 33.4402 746.28 33.4229 745.57 32.9902C744.376 32.246 743.771 30.6884 743.771 28.352C743.771 27.1406 744.065 26.5349 744.844 26.1368C745.397 25.8426 745.743 25.8599 746.505 26.1887Z" fill="#F8F9FA"/>
<path d="M745.484 29.8405C744.774 30.6192 744.757 31.0692 745.432 31.7442C746.055 32.3672 746.453 32.4537 747.024 32.0557C747.803 31.5019 747.665 29.9616 746.799 29.5635C746.159 29.2866 745.969 29.3213 745.484 29.8405Z" fill="#F8F9FA"/>
</svg>
